<svg width="25" height="24" viewBox="0 0 25 24" fill="none" xmlns="http://www.w3.org/2000/svg">
<path d="M22.5 7.99992V11.9999M10.75 5.49991H7.3C5.61984 5.49991 4.77976 5.49991 4.13803 5.82689C3.57354 6.11451 3.1146 6.57345 2.82698 7.13794C2.5 7.77968 2.5 8.61976 2.5 10.2999L2.5 11.4999C2.5 12.4318 2.5 12.8977 2.65224 13.2653C2.85523 13.7553 3.24458 14.1447 3.73463 14.3477C4.10218 14.4999 4.56812 14.4999 5.5 14.4999V18.7499C5.5 18.9821 5.5 19.0982 5.50963 19.1959C5.60316 20.1455 6.35441 20.8968 7.30397 20.9903C7.40175 20.9999 7.51783 20.9999 7.75 20.9999C7.98217 20.9999 8.09826 20.9999 8.19604 20.9903C9.14559 20.8968 9.89685 20.1455 9.99037 19.1959C10 19.0982 10 18.9821 10 18.7499V14.4999H10.75C12.5164 14.4999 14.6772 15.4468 16.3443 16.3556C17.3168 16.8857 17.8031 17.1508 18.1216 17.1118C18.4169 17.0756 18.6402 16.943 18.8133 16.701C19 16.4401 19 15.9179 19 14.8736V5.1262C19 4.08191 19 3.55976 18.8133 3.2988C18.6402 3.05681 18.4169 2.92421 18.1216 2.88804C17.8031 2.84903 17.3168 3.11411 16.3443 3.64427C14.6772 4.55302 12.5164 5.49991 10.75 5.49991Z" stroke="white" stroke-width="1.5" stroke-linecap="round" stroke-linejoin="round"/>
</svg>
