<svg width="25" height="24" viewBox="0 0 25 24" fill="none" xmlns="http://www.w3.org/2000/svg">
<path d="M20.5 19V16H7.5C5.84315 16 4.5 17.3431 4.5 19M9.3 22H17.3C18.4201 22 18.9802 22 19.408 21.782C19.7843 21.5903 20.0903 21.2843 20.282 20.908C20.5 20.4802 20.5 19.9201 20.5 18.8V5.2C20.5 4.07989 20.5 3.51984 20.282 3.09202C20.0903 2.71569 19.7843 2.40973 19.408 2.21799C18.9802 2 18.4201 2 17.3 2H9.3C7.61984 2 6.77976 2 6.13803 2.32698C5.57354 2.6146 5.1146 3.07354 4.82698 3.63803C4.5 4.27976 4.5 5.11984 4.5 6.8V17.2C4.5 18.8802 4.5 19.7202 4.82698 20.362C5.1146 20.9265 5.57354 21.3854 6.13803 21.673C6.77976 22 7.61984 22 9.3 22Z" stroke="white" stroke-width="2" stroke-linecap="round" stroke-linejoin="round"/>
</svg>
