<svg width="25" height="24" viewBox="0 0 25 24" fill="none" xmlns="http://www.w3.org/2000/svg">
<path d="M20.391 7.78807C21.114 9.11052 21.492 10.5939 21.49 12.1011C21.4904 13.6743 21.0777 15.2201 20.2933 16.5838C19.5089 17.9475 18.3801 19.0814 17.02 19.8721L19.766 11.9331C20.279 10.6511 20.45 9.62407 20.45 8.71407C20.4504 8.40446 20.4307 8.09514 20.391 7.78807ZM13.74 7.87507C14.083 7.85821 14.4252 7.82886 14.766 7.78707C15.251 7.72407 15.194 7.01207 14.71 7.03807C14.71 7.03807 13.247 7.15007 12.31 7.15007C11.423 7.15007 9.935 7.02507 9.935 7.02507C9.448 7.00107 9.385 7.73807 9.874 7.76307C9.874 7.76307 10.323 7.81507 10.812 7.83807L12.211 11.6761L10.236 17.5751L6.962 7.85107C7.30543 7.83381 7.64825 7.80613 7.99 7.76807C8.477 7.70507 8.42 6.99307 7.935 7.02107C7.935 7.02107 6.48 7.13607 5.54 7.13607C5.373 7.13607 5.175 7.12907 4.965 7.12307C6.593 4.72607 9.362 3.11307 12.5 3.11307C14.841 3.11307 16.971 4.00707 18.571 5.47307C18.533 5.47107 18.495 5.46507 18.454 5.46507C17.571 5.46507 16.944 6.23507 16.944 7.06107C16.944 7.80207 17.371 8.43007 17.827 9.16907C18.17 9.77007 18.569 10.5391 18.569 11.6501C18.569 12.4131 18.274 13.3121 17.884 14.5491L16.988 17.5361L13.738 7.86107L13.74 7.87507ZM12.5 21.0871C11.6403 21.0879 10.7849 20.9653 9.96 20.7231L12.657 12.8851L15.42 20.4571C15.441 20.5011 15.462 20.5421 15.485 20.5811C14.5258 20.9175 13.5165 21.0892 12.5 21.0891M3.51 12.1011C3.50854 10.8405 3.77368 9.59392 4.288 8.44307L8.575 20.1921C7.05646 19.4547 5.77611 18.3049 4.88039 16.8741C3.98468 15.4432 3.50977 13.7892 3.51 12.1011ZM12.5 2.10107C6.987 2.10107 2.5 6.58807 2.5 12.1011C2.5 17.6141 6.987 22.1011 12.5 22.1011C18.013 22.1011 22.5 17.6141 22.5 12.1011C22.5 6.58807 18.013 2.10107 12.5 2.10107Z" fill="white"/>
</svg>
