<svg width="25" height="24" viewBox="0 0 25 24" fill="none" xmlns="http://www.w3.org/2000/svg">
<path d="M21 7.27783L12.5 12.0001M12.5 12.0001L3.99997 7.27783M12.5 12.0001L12.5 21.5001M21.5 16.0586V7.94153C21.5 7.59889 21.5 7.42757 21.4495 7.27477C21.4049 7.13959 21.3318 7.01551 21.2354 6.91082C21.1263 6.79248 20.9766 6.70928 20.677 6.54288L13.277 2.43177C12.9934 2.27421 12.8516 2.19543 12.7015 2.16454C12.5685 2.13721 12.4315 2.13721 12.2986 2.16454C12.1484 2.19543 12.0066 2.27421 11.723 2.43177L4.32297 6.54288C4.02345 6.70928 3.87369 6.79248 3.76463 6.91082C3.66816 7.01551 3.59515 7.13959 3.55048 7.27477C3.5 7.42757 3.5 7.59889 3.5 7.94153V16.0586C3.5 16.4013 3.5 16.5726 3.55048 16.7254C3.59515 16.8606 3.66816 16.9847 3.76463 17.0893C3.87369 17.2077 4.02345 17.2909 4.32297 17.4573L11.723 21.5684C12.0066 21.726 12.1484 21.8047 12.2986 21.8356C12.4315 21.863 12.5685 21.863 12.7015 21.8356C12.8516 21.8047 12.9934 21.726 13.277 21.5684L20.677 17.4573C20.9766 17.2909 21.1263 17.2077 21.2354 17.0893C21.3318 16.9847 21.4049 16.8606 21.4495 16.7254C21.5 16.5726 21.5 16.4013 21.5 16.0586Z" stroke="white" stroke-width="1.5" stroke-linecap="round" stroke-linejoin="round"/>
</svg>
