<svg width="25" height="24" viewBox="0 0 25 24" fill="none" xmlns="http://www.w3.org/2000/svg">
<path d="M12.5 22V2M7.5 22V17M7.5 7V2M17.5 22V17M17.5 7V2M2.5 7H22.5M2.5 17H22.5M22.5 17.2V6.8C22.5 5.11984 22.5 4.27976 22.173 3.63803C21.8854 3.07354 21.4265 2.6146 20.862 2.32698C20.2202 2 19.3802 2 17.7 2L7.3 2C5.61984 2 4.77976 2 4.13803 2.32698C3.57354 2.6146 3.1146 3.07354 2.82698 3.63803C2.5 4.27976 2.5 5.11984 2.5 6.8L2.5 17.2C2.5 18.8802 2.5 19.7202 2.82698 20.362C3.1146 20.9265 3.57354 21.3854 4.13803 21.673C4.77976 22 5.61984 22 7.3 22H17.7C19.3802 22 20.2202 22 20.862 21.673C21.4265 21.3854 21.8854 20.9265 22.173 20.362C22.5 19.7202 22.5 18.8802 22.5 17.2Z" stroke="white" stroke-width="1.5" stroke-linecap="round" stroke-linejoin="round"/>
</svg>
