<svg width="535" height="445" viewBox="0 0 535 445" fill="none" xmlns="http://www.w3.org/2000/svg">
<g clip-path="url(#clip0_1208_1330)">
<path d="M444.098 125.673L507.774 116.794L501.926 180.493L444.098 125.673Z" fill="#DDDDDD"/>
<path d="M491.984 159.99L465.645 135.021L364.954 241.836L391.293 266.805L491.984 159.99Z" fill="#DDDDDD"/>
<path d="M501.898 210.237L533.96 205.766L531.017 237.848L501.898 210.237Z" fill="#DDDDDD"/>
<path d="M526.023 227.513L512.762 214.941L462.058 268.729L475.319 281.3L526.023 227.513Z" fill="#DDDDDD"/>
<path d="M45.4492 251.126L77.5031 246.655L74.5677 278.737L45.4492 251.126Z" fill="#DDDDDD"/>
<path d="M69.5538 268.419L56.293 255.848L5.58931 309.636L18.8501 322.207L69.5538 268.419Z" fill="#DDDDDD"/>
<path d="M149.753 307.017L123.414 282.047L0.0247327 412.942L26.3638 437.912L149.753 307.017Z" fill="#DDDDDD"/>
<path d="M431.29 29.7317C432.295 36.548 431.261 43.51 428.318 49.7365C425.375 55.963 420.657 61.174 414.76 64.7099C408.862 68.2458 402.052 69.9476 395.189 69.6C388.327 69.2523 381.722 66.8708 376.21 62.7569C370.698 58.643 366.527 52.9817 364.225 46.4895C361.923 39.9973 361.594 32.9662 363.279 26.2862C364.963 19.6061 368.586 13.5775 373.689 8.96337C378.792 4.34924 385.146 1.35708 391.945 0.36564C401.045 -0.967557 410.301 1.37653 417.678 6.88287C425.056 12.3892 429.952 20.6074 431.29 29.7317Z" fill="#DDDDDD"/>
<path d="M423.112 30.9286C423.877 36.1244 423.089 41.4312 420.846 46.1772C418.602 50.9232 415.005 54.895 410.51 57.5899C406.014 60.2847 400.823 61.5814 395.592 61.3158C390.361 61.0502 385.327 59.2342 381.126 56.0977C376.925 52.9613 373.746 48.6453 371.993 43.6964C370.239 38.7474 369.989 33.3879 371.274 28.2963C372.559 23.2047 375.322 18.61 379.213 15.0939C383.103 11.5777 387.947 9.29828 393.13 8.54403C396.564 8.03905 400.064 8.21751 403.43 9.06922C406.795 9.92094 409.961 11.4292 412.745 13.5079C415.529 15.5866 417.878 18.195 419.656 21.1841C421.435 24.1732 422.609 27.4844 423.112 30.9286Z" fill="#939393"/>
<path d="M422.99 30.1018C422.833 30.1018 422.551 28.9921 421.836 27.048C420.845 24.3081 419.434 21.7401 417.653 19.4369C416.427 17.866 415.032 16.4353 413.493 15.1709C411.729 13.7441 409.787 12.5535 407.717 11.629C406.598 11.1182 405.444 10.6895 404.263 10.3461C403.037 9.98794 401.786 9.7248 400.519 9.55899C399.219 9.3823 397.907 9.30337 396.595 9.32287C395.232 9.35714 393.874 9.48865 392.53 9.71641C391.198 9.96841 389.887 10.3156 388.605 10.7554C386.143 11.6109 383.823 12.8313 381.722 14.3759C380.735 15.0939 379.801 15.8831 378.928 16.7372C377.304 18.3352 375.893 20.1368 374.729 22.0972C373.721 23.8187 372.902 25.645 372.288 27.5438C371.405 30.3147 370.955 33.2061 370.954 36.1152C370.954 38.1852 371.079 39.3501 370.954 39.3815C370.828 39.413 370.443 38.2796 370.169 36.1545C369.852 33.1233 370.1 30.0594 370.899 27.1188C372.075 22.7088 374.361 18.6758 377.539 15.407C378.456 14.456 379.446 13.5771 380.498 12.7782C381.594 11.9411 382.754 11.1911 383.967 10.535C385.228 9.8552 386.54 9.27367 387.891 8.79552C390.668 7.82168 393.583 7.30342 396.525 7.26071C397.953 7.23954 399.381 7.3343 400.794 7.54406C402.159 7.74681 403.506 8.06004 404.821 8.48069C410.48 10.1948 415.41 13.7507 418.83 18.5868C420.591 21.0695 421.876 23.8585 422.621 26.8118C423.092 28.8976 423.108 30.0861 422.99 30.1018Z" fill="#E0E0E0"/>
<path d="M402.157 49.9756L402.887 54.5407L398.821 55.1861L398.115 50.747C394.049 51.1484 389.991 50.503 387.48 49.1098L388.916 43.7813C391.51 45.0371 394.385 45.5984 397.259 45.4105L396.176 38.6023C391.467 38.2245 386.208 37.5318 385.282 31.6996C384.591 27.3706 387.127 23.1676 393.429 21.4045L392.707 16.8867L396.773 16.2334L397.479 20.6725C400.408 20.3698 403.367 20.769 406.112 21.8374L404.88 27.1738C402.792 26.3669 400.564 25.9843 398.327 26.0483L399.433 32.9825C404.142 33.3131 409.307 34.0293 410.225 39.775C410.916 44.0095 408.412 48.1732 402.157 49.9756ZM395.219 32.6126L394.292 26.8275C392.22 27.6618 391.553 28.9841 391.773 30.3222C391.993 31.6602 393.343 32.3292 395.219 32.6126ZM403.774 41.2705C403.546 39.8459 402.251 39.2634 400.399 38.9092L401.301 44.529C403.263 43.8206 403.985 42.6164 403.774 41.3098V41.2705Z" fill="#E0E0E0"/>
<path d="M519.088 367.141C520.092 373.958 519.056 380.92 516.112 387.146C513.168 393.372 508.448 398.582 502.55 402.117C496.652 405.651 489.841 407.352 482.979 407.003C476.116 406.653 469.512 404.27 464.001 400.155C458.49 396.04 454.32 390.378 452.02 383.885C449.719 377.392 449.391 370.361 451.078 363.681C452.764 357.001 456.389 350.973 461.493 346.361C466.597 341.748 472.951 338.757 479.751 337.767C488.851 336.432 498.108 338.777 505.485 344.285C512.862 349.794 517.755 358.015 519.088 367.141Z" fill="#DDDDDD"/>
<path d="M510.948 368.33C511.713 373.526 510.925 378.833 508.681 383.579C506.438 388.325 502.841 392.296 498.346 394.991C493.85 397.686 488.659 398.983 483.428 398.717C478.197 398.452 473.163 396.636 468.962 393.499C464.761 390.363 461.582 386.047 459.829 381.098C458.075 376.149 457.825 370.789 459.11 365.698C460.395 360.606 463.158 356.011 467.049 352.495C470.939 348.979 475.783 346.7 480.966 345.945C484.4 345.44 487.9 345.619 491.266 346.471C494.631 347.322 497.796 348.831 500.581 350.909C503.365 352.988 505.713 355.596 507.492 358.585C509.271 361.575 510.445 364.886 510.948 368.33Z" fill="#939393"/>
<path d="M510.789 367.511C510.632 367.511 510.35 366.402 509.636 364.45C508.641 361.711 507.23 359.144 505.452 356.838C504.224 355.269 502.829 353.839 501.292 352.572C499.524 351.137 497.58 349.934 495.508 348.991C494.394 348.478 493.242 348.052 492.062 347.716C490.837 347.355 489.585 347.092 488.319 346.929C487.018 346.752 485.706 346.675 484.394 346.701C483.034 346.731 481.678 346.863 480.337 347.094C479.005 347.343 477.694 347.687 476.412 348.125C475.161 348.56 473.944 349.086 472.77 349.7C471.638 350.295 470.554 350.98 469.529 351.746C468.541 352.464 467.608 353.253 466.735 354.107C465.111 355.708 463.699 357.512 462.536 359.475C461.525 361.192 460.706 363.016 460.095 364.914C459.216 367.691 458.771 370.588 458.776 373.501C458.776 375.579 458.91 376.744 458.776 376.767C458.643 376.791 458.266 375.673 457.991 373.54C457.671 370.512 457.918 367.45 458.721 364.513C459.271 362.468 460.061 360.497 461.076 358.641C462.253 356.506 463.71 354.539 465.408 352.793C466.328 351.846 467.317 350.97 468.367 350.172C469.46 349.329 470.62 348.579 471.836 347.929C473.096 347.244 474.408 346.662 475.761 346.189C477.15 345.705 478.575 345.328 480.023 345.064C481.473 344.817 482.939 344.678 484.41 344.647C485.838 344.629 487.266 344.724 488.68 344.93C490.044 345.125 491.391 345.43 492.706 345.843C493.969 346.224 495.2 346.706 496.387 347.283C500.506 349.234 504.055 352.216 506.692 355.941C508.455 358.424 509.738 361.217 510.475 364.174C510.891 366.299 510.946 367.488 510.789 367.511Z" fill="#E0E0E0"/>
<path d="M489.959 387.409L490.689 391.974L486.624 392.627L485.917 388.18C481.852 388.582 477.794 387.944 475.274 386.551L476.719 381.215C479.308 382.466 482.179 383.017 485.046 382.812L483.963 376.004C479.254 375.634 473.995 374.934 473.061 369.109C472.378 364.788 474.913 360.577 481.216 358.814L480.494 354.289L484.559 353.635L485.266 358.074C488.195 357.77 491.154 358.17 493.899 359.239L492.698 364.584C490.608 363.775 488.377 363.395 486.137 363.466L487.244 370.392C491.953 370.723 497.125 371.439 498.043 377.185C498.718 381.419 496.215 385.575 489.959 387.409ZM483.021 370.046L482.095 364.261C480.023 365.095 479.356 366.417 479.568 367.763C479.78 369.109 481.122 369.739 483.021 370.014V370.046ZM491.576 378.751C491.349 377.319 490.006 376.736 488.201 376.39L489.104 382.01C491.058 381.223 491.788 380.018 491.576 378.751Z" fill="#E0E0E0"/>
<path d="M531.942 444.795C531.942 444.914 413.027 445 266.376 445C119.724 445 0.785156 444.914 0.785156 444.795C0.785156 444.677 119.676 444.591 266.376 444.591C413.075 444.591 531.942 444.685 531.942 444.795Z" fill="#263238"/>
<path d="M485.233 368.149H420.238V381.293H485.233V368.149Z" fill="#FFCA41"/>
<path d="M424.423 368.362C424.58 368.362 424.706 371.219 424.706 374.737C424.706 378.255 424.58 381.113 424.423 381.113C424.266 381.113 424.141 378.255 424.141 374.737C424.141 371.219 424.266 368.362 424.423 368.362Z" fill="#263238"/>
<path d="M430.451 368.362C430.6 368.362 430.725 371.219 430.725 374.737C430.725 378.255 430.6 381.113 430.451 381.113C430.301 381.113 430.168 378.255 430.168 374.737C430.168 371.219 430.294 368.362 430.451 368.362Z" fill="#263238"/>
<path d="M436.384 368.362C436.541 368.362 436.667 371.219 436.667 374.737C436.667 378.255 436.541 381.113 436.384 381.113C436.227 381.113 436.102 378.255 436.102 374.737C436.102 371.219 436.251 368.362 436.384 368.362Z" fill="#263238"/>
<path d="M442.326 368.362C442.482 368.362 442.608 371.219 442.608 374.737C442.608 378.255 442.482 381.113 442.326 381.113C442.169 381.113 442.043 378.255 442.043 374.737C442.043 371.219 442.169 368.362 442.326 368.362Z" fill="#263238"/>
<path d="M448.251 368.362C448.408 368.362 448.534 371.219 448.534 374.737C448.534 378.255 448.408 381.113 448.251 381.113C448.094 381.113 447.969 378.255 447.969 374.737C447.969 371.219 448.094 368.362 448.251 368.362Z" fill="#263238"/>
<path d="M454.177 368.362C454.334 368.362 454.46 371.219 454.46 374.737C454.46 378.255 454.334 381.113 454.177 381.113C454.02 381.113 453.895 378.255 453.895 374.737C453.895 371.219 454.02 368.362 454.177 368.362Z" fill="#263238"/>
<path d="M460.095 368.362C460.252 368.362 460.378 371.219 460.378 374.737C460.378 378.255 460.252 381.113 460.095 381.113C459.938 381.113 459.82 378.255 459.82 374.737C459.82 371.219 459.93 368.362 460.095 368.362Z" fill="#263238"/>
<path d="M466.021 368.362C466.178 368.362 466.303 371.219 466.303 374.737C466.303 378.255 466.178 381.113 466.021 381.113C465.864 381.113 465.738 378.255 465.738 374.737C465.738 371.219 465.864 368.362 466.021 368.362Z" fill="#263238"/>
<path d="M471.947 368.362C472.104 368.362 472.229 371.219 472.229 374.737C472.229 378.255 472.104 381.113 471.947 381.113C471.79 381.113 471.664 378.255 471.664 374.737C471.664 371.219 471.79 368.362 471.947 368.362Z" fill="#263238"/>
<path d="M477.872 368.362C478.029 368.362 478.155 371.219 478.155 374.737C478.155 378.255 478.029 381.113 477.872 381.113C477.715 381.113 477.59 378.255 477.59 374.737C477.59 371.219 477.715 368.362 477.872 368.362Z" fill="#263238"/>
<path d="M483.798 368.362C483.947 368.362 484.081 371.219 484.081 374.737C484.081 378.255 483.947 381.113 483.798 381.113C483.649 381.113 483.516 378.255 483.516 374.737C483.516 371.219 483.641 368.362 483.798 368.362Z" fill="#263238"/>
<g opacity="0.3">
<path d="M421.285 368.157C442.163 370.967 463.322 370.967 484.2 368.157H421.285Z" fill="black"/>
</g>
<path d="M485.26 368.189C485.26 368.346 470.732 368.472 452.821 368.472C434.911 368.472 420.375 368.346 420.375 368.189C420.375 368.031 434.895 367.905 452.821 367.905C470.748 367.905 485.26 368.031 485.26 368.189Z" fill="#263238"/>
<path d="M486.694 381.073H421.699V394.217H486.694V381.073Z" fill="#FFCA41"/>
<path d="M425.88 381.293C426.037 381.293 426.163 384.143 426.163 387.661C426.163 391.179 426.037 394.036 425.88 394.036C425.723 394.036 425.598 391.179 425.598 387.661C425.598 384.143 425.723 381.293 425.88 381.293Z" fill="#263238"/>
<path d="M431.911 381.293C432.061 381.293 432.186 384.143 432.186 387.661C432.186 391.179 432.061 394.036 431.911 394.036C431.762 394.036 431.629 391.179 431.629 387.661C431.629 384.143 431.754 381.293 431.911 381.293Z" fill="#263238"/>
<path d="M437.861 381.293C438.018 381.293 438.143 384.143 438.143 387.661C438.143 391.179 438.018 394.036 437.861 394.036C437.704 394.036 437.578 391.179 437.578 387.661C437.578 384.143 437.712 381.293 437.861 381.293Z" fill="#263238"/>
<path d="M443.786 381.293C443.943 381.293 444.069 384.143 444.069 387.661C444.069 391.179 443.943 394.036 443.786 394.036C443.629 394.036 443.504 391.179 443.504 387.661C443.504 384.143 443.629 381.293 443.786 381.293Z" fill="#263238"/>
<path d="M449.728 381.293C449.885 381.293 450.01 384.143 450.01 387.661C450.01 391.179 449.885 394.036 449.728 394.036C449.571 394.036 449.445 391.179 449.445 387.661C449.445 384.143 449.555 381.293 449.728 381.293Z" fill="#263238"/>
<path d="M455.634 381.293C455.791 381.293 455.917 384.143 455.917 387.661C455.917 391.179 455.791 394.036 455.634 394.036C455.477 394.036 455.352 391.179 455.352 387.661C455.352 384.143 455.477 381.293 455.634 381.293Z" fill="#263238"/>
<path d="M461.556 381.293C461.713 381.293 461.839 384.143 461.839 387.661C461.839 391.179 461.713 394.036 461.556 394.036C461.399 394.036 461.281 391.179 461.281 387.661C461.281 384.143 461.407 381.293 461.556 381.293Z" fill="#263238"/>
<path d="M467.478 381.293C467.635 381.293 467.76 384.143 467.76 387.661C467.76 391.179 467.635 394.036 467.478 394.036C467.321 394.036 467.195 391.179 467.195 387.661C467.195 384.143 467.321 381.293 467.478 381.293Z" fill="#263238"/>
<path d="M473.408 381.293C473.565 381.293 473.69 384.143 473.69 387.661C473.69 391.179 473.565 394.036 473.408 394.036C473.251 394.036 473.125 391.179 473.125 387.661C473.125 384.143 473.274 381.293 473.408 381.293Z" fill="#263238"/>
<path d="M479.329 381.293C479.486 381.293 479.612 384.143 479.612 387.661C479.612 391.179 479.486 394.036 479.329 394.036C479.172 394.036 479.047 391.179 479.047 387.661C479.047 384.143 479.172 381.293 479.329 381.293Z" fill="#263238"/>
<path d="M485.259 381.293C485.408 381.293 485.542 384.143 485.542 387.661C485.542 391.179 485.408 394.036 485.259 394.036C485.11 394.036 484.977 391.179 484.977 387.661C484.977 384.143 485.102 381.293 485.259 381.293Z" fill="#263238"/>
<g opacity="0.3">
<path d="M422.746 381.113C443.624 383.923 464.783 383.923 485.661 381.113H422.746Z" fill="black"/>
</g>
<path d="M486.717 381.112C486.717 381.27 472.189 381.396 454.278 381.396C436.368 381.396 421.832 381.27 421.832 381.112C421.832 380.955 436.352 380.829 454.278 380.829C472.205 380.829 486.717 380.955 486.717 381.112Z" fill="#263238"/>
<path d="M480.526 393.792H415.531V406.937H480.526V393.792Z" fill="#FFCA41"/>
<path d="M419.704 394.005C419.861 394.005 419.987 396.862 419.987 400.38C419.987 403.899 419.861 406.756 419.704 406.756C419.547 406.756 419.43 403.899 419.43 400.38C419.43 396.862 419.555 394.005 419.704 394.005Z" fill="#263238"/>
<path d="M425.736 394.005C425.893 394.005 426.018 396.862 426.018 400.38C426.018 403.899 425.893 406.756 425.736 406.756C425.579 406.756 425.453 403.899 425.453 400.38C425.453 396.862 425.579 394.005 425.736 394.005Z" fill="#263238"/>
<path d="M431.677 394.005C431.834 394.005 431.96 396.862 431.96 400.38C431.96 403.899 431.834 406.756 431.677 406.756C431.52 406.756 431.395 403.899 431.395 400.38C431.395 396.862 431.536 394.005 431.677 394.005Z" fill="#263238"/>
<path d="M437.615 394.005C437.772 394.005 437.897 396.862 437.897 400.38C437.897 403.899 437.772 406.756 437.615 406.756C437.458 406.756 437.332 403.899 437.332 400.38C437.332 396.862 437.458 394.005 437.615 394.005Z" fill="#263238"/>
<path d="M443.544 394.005C443.701 394.005 443.827 396.862 443.827 400.38C443.827 403.899 443.701 406.756 443.544 406.756C443.387 406.756 443.262 403.899 443.262 400.38C443.262 396.862 443.387 394.005 443.544 394.005Z" fill="#263238"/>
<path d="M449.458 394.005C449.615 394.005 449.741 396.862 449.741 400.38C449.741 403.899 449.615 406.756 449.458 406.756C449.301 406.756 449.184 403.899 449.184 400.38C449.184 396.862 449.309 394.005 449.458 394.005Z" fill="#263238"/>
<path d="M455.388 394.005C455.545 394.005 455.671 396.862 455.671 400.38C455.671 403.899 455.545 406.756 455.388 406.756C455.231 406.756 455.105 403.899 455.105 400.38C455.105 396.862 455.223 394.005 455.388 394.005Z" fill="#263238"/>
<path d="M461.31 394.005C461.467 394.005 461.592 396.862 461.592 400.38C461.592 403.899 461.467 406.756 461.31 406.756C461.153 406.756 461.027 403.899 461.027 400.38C461.027 396.862 461.153 394.005 461.31 394.005Z" fill="#263238"/>
<path d="M467.24 394.005C467.397 394.005 467.522 396.862 467.522 400.38C467.522 403.899 467.397 406.756 467.24 406.756C467.083 406.756 466.957 403.899 466.957 400.38C466.957 396.862 467.083 394.005 467.24 394.005Z" fill="#263238"/>
<path d="M473.161 394.005C473.311 394.005 473.444 396.862 473.444 400.38C473.444 403.899 473.311 406.756 473.161 406.756C473.012 406.756 472.879 403.899 472.879 400.38C472.879 396.862 473.004 394.005 473.161 394.005Z" fill="#263238"/>
<path d="M479.079 394.005C479.236 394.005 479.362 396.862 479.362 400.38C479.362 403.899 479.236 406.756 479.079 406.756C478.922 406.756 478.797 403.899 478.797 400.38C478.797 396.862 478.93 394.005 479.079 394.005Z" fill="#263238"/>
<g opacity="0.3">
<path d="M416.574 393.8C437.452 396.61 458.611 396.61 479.489 393.8H416.574Z" fill="black"/>
</g>
<path d="M480.537 393.832C480.537 393.99 466.017 394.116 448.099 394.116C430.18 394.116 415.66 393.99 415.66 393.832C415.66 393.675 430.18 393.549 448.099 393.549C466.017 393.549 480.537 393.706 480.537 393.832Z" fill="#263238"/>
<path d="M488.139 406.834H423.145V419.475H488.139V406.834Z" fill="#FFCA41"/>
<path d="M427.329 407.086C427.479 407.086 427.604 409.833 427.604 413.218C427.604 416.602 427.479 419.341 427.329 419.341C427.18 419.341 427.047 416.602 427.047 413.218C427.047 409.833 427.172 407.086 427.329 407.086Z" fill="#263238"/>
<path d="M433.345 407.086C433.502 407.086 433.628 409.833 433.628 413.218C433.628 416.602 433.502 419.341 433.345 419.341C433.188 419.341 433.062 416.602 433.062 413.218C433.062 409.833 433.196 407.086 433.345 407.086Z" fill="#263238"/>
<path d="M439.302 407.086C439.459 407.086 439.585 409.833 439.585 413.218C439.585 416.602 439.459 419.341 439.302 419.341C439.145 419.341 439.02 416.602 439.02 413.218C439.02 409.833 439.145 407.086 439.302 407.086Z" fill="#263238"/>
<path d="M445.232 407.086C445.389 407.086 445.514 409.833 445.514 413.218C445.514 416.602 445.389 419.341 445.232 419.341C445.075 419.341 444.949 416.602 444.949 413.218C444.949 409.833 445.075 407.086 445.232 407.086Z" fill="#263238"/>
<path d="M451.154 407.086C451.311 407.086 451.436 409.833 451.436 413.218C451.436 416.602 451.311 419.341 451.154 419.341C450.997 419.341 450.871 416.602 450.871 413.218C450.871 409.833 450.997 407.086 451.154 407.086Z" fill="#263238"/>
<path d="M457.083 407.086C457.232 407.086 457.366 409.833 457.366 413.218C457.366 416.602 457.232 419.341 457.083 419.341C456.934 419.341 456.793 416.531 456.793 413.178C456.793 409.825 456.926 407.086 457.083 407.086Z" fill="#263238"/>
<path d="M462.997 407.086C463.154 407.086 463.28 409.833 463.28 413.218C463.28 416.602 463.154 419.341 462.997 419.341C462.84 419.341 462.715 416.602 462.715 413.218C462.715 409.833 462.848 407.086 462.997 407.086Z" fill="#263238"/>
<path d="M468.927 407.086C469.084 407.086 469.21 409.833 469.21 413.218C469.21 416.602 469.084 419.341 468.927 419.341C468.77 419.341 468.645 416.602 468.645 413.218C468.645 409.833 468.77 407.086 468.927 407.086Z" fill="#263238"/>
<path d="M474.841 407.086C474.998 407.086 475.124 409.833 475.124 413.218C475.124 416.602 474.998 419.341 474.841 419.341C474.684 419.341 474.559 416.602 474.559 413.218C474.559 409.833 474.692 407.086 474.841 407.086Z" fill="#263238"/>
<path d="M480.775 407.086C480.932 407.086 481.057 409.833 481.057 413.218C481.057 416.602 480.932 419.341 480.775 419.341C480.618 419.341 480.492 416.602 480.492 413.218C480.492 409.833 480.618 407.086 480.775 407.086Z" fill="#263238"/>
<path d="M486.693 407.086C486.85 407.086 486.975 409.833 486.975 413.218C486.975 416.602 486.85 419.341 486.693 419.341C486.536 419.341 486.418 416.602 486.418 413.218C486.418 409.833 486.544 407.086 486.693 407.086Z" fill="#263238"/>
<g opacity="0.3">
<path d="M424.188 406.85C445.007 410.431 466.283 410.431 487.102 406.85H424.188Z" fill="black"/>
</g>
<path d="M488.185 406.874C488.185 407.031 473.665 407.157 455.747 407.157C437.829 407.157 423.309 407.031 423.309 406.874C423.309 406.716 437.829 406.59 455.747 406.59C473.665 406.59 488.185 406.716 488.185 406.874Z" fill="#263238"/>
<path d="M483.963 419.483H418.969V432.123H483.963V419.483Z" fill="#FFCA41"/>
<path d="M423.146 419.68C423.303 419.68 423.428 422.427 423.428 425.803C423.428 429.18 423.303 431.935 423.146 431.935C422.989 431.935 422.863 429.196 422.863 425.803C422.863 422.411 422.989 419.68 423.146 419.68Z" fill="#263238"/>
<path d="M429.169 419.68C429.326 419.68 429.452 422.427 429.452 425.803C429.452 429.18 429.326 431.935 429.169 431.935C429.012 431.935 428.887 429.196 428.887 425.803C428.887 422.411 429.012 419.68 429.169 419.68Z" fill="#263238"/>
<path d="M435.126 419.68C435.283 419.68 435.409 422.427 435.409 425.803C435.409 429.18 435.283 431.935 435.126 431.935C434.969 431.935 434.844 429.196 434.844 425.803C434.844 422.411 434.969 419.68 435.126 419.68Z" fill="#263238"/>
<path d="M441.091 419.68C441.24 419.68 441.374 422.427 441.374 425.803C441.374 429.18 441.24 431.935 441.091 431.935C440.942 431.935 440.809 429.196 440.809 425.803C440.809 422.411 440.895 419.68 441.091 419.68Z" fill="#263238"/>
<path d="M446.97 419.68C447.127 419.68 447.253 422.427 447.253 425.803C447.253 429.18 447.127 431.935 446.97 431.935C446.813 431.935 446.688 429.196 446.688 425.803C446.688 422.411 446.813 419.68 446.97 419.68Z" fill="#263238"/>
<path d="M452.865 419.68C453.022 419.68 453.147 422.427 453.147 425.803C453.147 429.18 453.022 431.935 452.865 431.935C452.708 431.935 452.582 429.196 452.582 425.803C452.582 422.411 452.739 419.68 452.865 419.68Z" fill="#263238"/>
<path d="M458.822 419.68C458.979 419.68 459.104 422.427 459.104 425.803C459.104 429.18 458.979 431.935 458.822 431.935C458.665 431.935 458.539 429.196 458.539 425.803C458.539 422.411 458.665 419.68 458.822 419.68Z" fill="#263238"/>
<path d="M464.751 419.68C464.908 419.68 465.034 422.427 465.034 425.803C465.034 429.18 464.908 431.935 464.751 431.935C464.594 431.935 464.469 429.196 464.469 425.803C464.469 422.411 464.594 419.68 464.751 419.68Z" fill="#263238"/>
<path d="M470.665 419.68C470.822 419.68 470.948 422.427 470.948 425.803C470.948 429.18 470.822 431.935 470.665 431.935C470.508 431.935 470.391 429.196 470.391 425.803C470.391 422.411 470.516 419.68 470.665 419.68Z" fill="#263238"/>
<path d="M476.595 419.68C476.752 419.68 476.878 422.427 476.878 425.803C476.878 429.18 476.752 431.935 476.595 431.935C476.438 431.935 476.312 429.196 476.312 425.803C476.312 422.411 476.415 419.68 476.595 419.68Z" fill="#263238"/>
<path d="M482.517 419.68C482.674 419.68 482.8 422.427 482.8 425.803C482.8 429.18 482.674 431.935 482.517 431.935C482.36 431.935 482.234 429.196 482.234 425.803C482.234 422.411 482.36 419.68 482.517 419.68Z" fill="#263238"/>
<g opacity="0.3">
<path d="M420.012 419.499C440.786 423.552 462.144 423.552 482.919 419.499H420.012Z" fill="black"/>
</g>
<path d="M483.978 419.522C483.978 419.68 469.451 419.805 451.54 419.805C433.629 419.805 419.117 419.68 419.117 419.522C419.117 419.365 433.645 419.239 451.564 419.239C469.482 419.239 483.978 419.365 483.978 419.522Z" fill="#263238"/>
<path d="M487.674 431.95H422.68V444.591H487.674V431.95Z" fill="#FFCA41"/>
<path d="M426.857 432.163C427.014 432.163 427.139 434.91 427.139 438.294C427.139 441.679 427.014 444.418 426.857 444.418C426.7 444.418 426.574 441.679 426.574 438.294C426.574 434.91 426.7 432.163 426.857 432.163Z" fill="#263238"/>
<path d="M432.884 432.163C433.041 432.163 433.167 434.91 433.167 438.294C433.167 441.679 433.041 444.418 432.884 444.418C432.727 444.418 432.602 441.679 432.602 438.294C432.602 434.91 432.727 432.163 432.884 432.163Z" fill="#263238"/>
<path d="M438.841 432.163C438.998 432.163 439.124 434.91 439.124 438.294C439.124 441.679 438.998 444.418 438.841 444.418C438.684 444.418 438.559 441.679 438.559 438.294C438.559 434.91 438.684 432.163 438.841 432.163Z" fill="#263238"/>
<path d="M444.767 432.163C444.924 432.163 445.049 434.91 445.049 438.294C445.049 441.679 444.924 444.418 444.767 444.418C444.61 444.418 444.484 441.679 444.484 438.294C444.484 434.91 444.61 432.163 444.767 432.163Z" fill="#263238"/>
<path d="M450.685 432.163C450.842 432.163 450.967 434.91 450.967 438.294C450.967 441.679 450.842 444.418 450.685 444.418C450.528 444.418 450.41 441.679 450.41 438.294C450.41 434.91 450.512 432.163 450.685 432.163Z" fill="#263238"/>
<path d="M456.611 432.163C456.768 432.163 456.893 434.91 456.893 438.294C456.893 441.679 456.768 444.418 456.611 444.418C456.454 444.418 456.328 441.679 456.328 438.294C456.328 434.91 456.454 432.163 456.611 432.163Z" fill="#263238"/>
<path d="M462.536 432.163C462.693 432.163 462.819 434.91 462.819 438.294C462.819 441.679 462.693 444.418 462.536 444.418C462.379 444.418 462.285 441.718 462.285 438.294C462.285 434.871 462.379 432.163 462.536 432.163Z" fill="#263238"/>
<path d="M468.462 432.163C468.619 432.163 468.745 434.91 468.745 438.294C468.745 441.679 468.619 444.418 468.462 444.418C468.305 444.418 468.18 441.679 468.18 438.294C468.18 434.91 468.305 432.163 468.462 432.163Z" fill="#263238"/>
<path d="M474.388 432.163C474.537 432.163 474.671 434.91 474.671 438.294C474.671 441.679 474.537 444.418 474.388 444.418C474.239 444.418 474.105 441.679 474.105 438.294C474.105 434.91 474.231 432.163 474.388 432.163Z" fill="#263238"/>
<path d="M480.337 432.163C480.494 432.163 480.62 434.91 480.62 438.294C480.62 441.679 480.494 444.418 480.337 444.418C480.18 444.418 480.055 441.679 480.055 438.294C480.055 434.91 480.157 432.163 480.337 432.163Z" fill="#263238"/>
<path d="M486.232 432.163C486.389 432.163 486.514 434.91 486.514 438.294C486.514 441.679 486.389 444.418 486.232 444.418C486.075 444.418 485.949 441.679 485.949 438.294C485.949 434.91 486.075 432.163 486.232 432.163Z" fill="#263238"/>
<g opacity="0.3">
<path d="M423.723 431.966C444.542 435.547 465.818 435.547 486.637 431.966H423.723Z" fill="black"/>
</g>
<path d="M487.689 431.989C487.689 432.147 473.162 432.273 455.251 432.273C437.34 432.273 422.812 432.147 422.812 431.989C422.812 431.832 437.332 431.706 455.251 431.706C473.169 431.706 487.689 431.832 487.689 431.989Z" fill="#263238"/>
<path d="M422.677 444.591C422.684 444.52 422.684 444.449 422.677 444.378C422.677 444.216 422.677 444.003 422.677 443.741C422.677 443.15 422.677 442.332 422.677 441.277C422.677 439.105 422.677 435.996 422.74 432.123V431.982H422.599H419.012L419.169 432.139C419.169 428.448 419.169 424.174 419.208 419.491L419.114 419.68H423.494V419.475C423.494 415.54 423.494 411.337 423.494 406.929V406.716H415.645L415.857 406.929C415.857 402.254 415.857 397.759 415.857 393.548L415.661 393.745H422.018V393.556C422.018 388.983 422.018 384.851 421.979 381.301V381.113H420.236L420.386 381.262C420.386 377.185 420.386 373.919 420.386 371.636C420.386 370.534 420.386 369.668 420.386 369.054C420.386 368.779 420.386 368.559 420.386 368.385C420.397 368.31 420.397 368.233 420.386 368.157C420.376 368.233 420.376 368.31 420.386 368.385V369.054C420.386 369.668 420.386 370.534 420.323 371.636C420.283 373.919 420.229 377.185 420.158 381.254V381.404H421.892L421.743 381.254C421.743 384.804 421.743 388.936 421.743 393.509L421.932 393.32H415.763H415.559V393.525C415.559 397.736 415.559 402.23 415.559 406.905V407.126H423.407L423.195 406.905C423.195 411.313 423.195 415.563 423.195 419.451L423.399 419.255H419.028V419.444C419.028 424.127 419.028 428.4 419.028 432.092V432.249H419.114H422.701L422.56 432.108C422.56 435.98 422.607 439.089 422.622 441.261C422.622 442.316 422.622 443.135 422.622 443.725C422.622 443.985 422.622 444.197 422.622 444.363C422.628 444.441 422.647 444.518 422.677 444.591Z" fill="#263238"/>
<path d="M479.913 330.149H414.918V342.789H479.913V330.149Z" fill="#FFCA41"/>
<path d="M419.115 330.361C419.272 330.361 419.397 333.1 419.397 336.485C419.397 339.869 419.272 342.616 419.115 342.616C418.958 342.616 418.832 339.869 418.832 336.485C418.832 333.1 418.934 330.361 419.115 330.361Z" fill="#263238"/>
<path d="M425.122 330.361C425.279 330.361 425.405 333.1 425.405 336.485C425.405 339.869 425.279 342.616 425.122 342.616C424.965 342.616 424.84 339.869 424.84 336.485C424.84 333.1 424.965 330.361 425.122 330.361Z" fill="#263238"/>
<path d="M431.079 330.361C431.236 330.361 431.362 333.1 431.362 336.485C431.362 339.869 431.236 342.616 431.079 342.616C430.922 342.616 430.797 339.869 430.797 336.485C430.797 333.1 430.891 330.361 431.079 330.361Z" fill="#263238"/>
<path d="M436.997 330.361C437.154 330.361 437.28 333.1 437.28 336.485C437.28 339.869 437.154 342.616 436.997 342.616C436.84 342.616 436.723 339.869 436.723 336.485C436.723 333.1 436.848 330.361 436.997 330.361Z" fill="#263238"/>
<path d="M442.923 330.361C443.08 330.361 443.206 333.1 443.206 336.485C443.206 339.869 443.08 342.616 442.923 342.616C442.766 342.616 442.641 339.869 442.641 336.485C442.641 333.1 442.766 330.361 442.923 330.361Z" fill="#263238"/>
<path d="M448.849 330.361C449.006 330.361 449.131 333.1 449.131 336.485C449.131 339.869 449.006 342.616 448.849 342.616C448.692 342.616 448.566 339.869 448.566 336.485C448.566 333.1 448.692 330.361 448.849 330.361Z" fill="#263238"/>
<path d="M454.775 330.361C454.932 330.361 455.057 333.1 455.057 336.485C455.057 339.869 454.932 342.616 454.775 342.616C454.618 342.616 454.492 339.869 454.492 336.485C454.492 333.1 454.618 330.361 454.775 330.361Z" fill="#263238"/>
<path d="M460.712 330.361C460.861 330.361 460.995 333.1 460.995 336.485C460.995 339.869 460.861 342.616 460.712 342.616C460.563 342.616 460.43 339.869 460.43 336.485C460.43 333.1 460.54 330.361 460.712 330.361Z" fill="#263238"/>
<path d="M466.619 330.361C466.775 330.361 466.901 333.1 466.901 336.485C466.901 339.869 466.775 342.616 466.619 342.616C466.462 342.616 466.336 339.869 466.336 336.485C466.336 333.1 466.469 330.361 466.619 330.361Z" fill="#263238"/>
<path d="M472.54 330.361C472.697 330.361 472.823 333.1 472.823 336.485C472.823 339.869 472.697 342.616 472.54 342.616C472.383 342.616 472.258 339.869 472.258 336.485C472.258 333.1 472.383 330.361 472.54 330.361Z" fill="#263238"/>
<path d="M478.47 330.361C478.627 330.361 478.753 333.1 478.753 336.485C478.753 339.869 478.627 342.616 478.47 342.616C478.313 342.616 478.188 339.869 478.188 336.485C478.188 333.1 478.313 330.361 478.47 330.361Z" fill="#263238"/>
<g opacity="0.3">
<path d="M415.98 330.165C436.797 333.746 458.07 333.746 478.887 330.165H415.98Z" fill="black"/>
</g>
<path d="M479.928 330.188C479.928 330.346 465.4 330.471 447.489 330.471C429.579 330.471 415.043 330.346 415.043 330.188C415.043 330.031 429.571 329.905 447.489 329.905C465.408 329.905 479.928 330.031 479.928 330.188Z" fill="#263238"/>
<path d="M475.729 342.797H410.734V355.438H475.729V342.797Z" fill="#FFCA41"/>
<path d="M414.919 343.01C415.068 343.01 415.202 345.749 415.202 349.133C415.202 352.518 415.068 355.265 414.919 355.265C414.77 355.265 414.637 352.518 414.637 349.133C414.637 345.749 414.762 343.01 414.919 343.01Z" fill="#263238"/>
<path d="M420.939 343.01C421.096 343.01 421.221 345.749 421.221 349.133C421.221 352.518 421.096 355.265 420.939 355.265C420.782 355.265 420.656 352.518 420.656 349.133C420.656 345.749 420.79 343.01 420.939 343.01Z" fill="#263238"/>
<path d="M426.896 343.01C427.053 343.01 427.178 345.749 427.178 349.133C427.178 352.518 427.053 355.265 426.896 355.265C426.739 355.265 426.613 352.518 426.613 349.133C426.613 345.749 426.739 343.01 426.896 343.01Z" fill="#263238"/>
<path d="M432.822 343.01C432.979 343.01 433.104 345.749 433.104 349.133C433.104 352.518 432.979 355.265 432.822 355.265C432.665 355.265 432.539 352.518 432.539 349.133C432.539 345.749 432.665 343.01 432.822 343.01Z" fill="#263238"/>
<path d="M438.74 343.01C438.897 343.01 439.022 345.749 439.022 349.133C439.022 352.518 438.897 355.265 438.74 355.265C438.583 355.265 438.457 352.518 438.457 349.133C438.457 345.749 438.59 343.01 438.74 343.01Z" fill="#263238"/>
<path d="M444.673 343.01C444.822 343.01 444.956 345.749 444.956 349.133C444.956 352.518 444.822 355.265 444.673 355.265C444.524 355.265 444.391 352.518 444.391 349.133C444.391 345.749 444.516 343.01 444.673 343.01Z" fill="#263238"/>
<path d="M450.591 343.01C450.748 343.01 450.874 345.749 450.874 349.133C450.874 352.518 450.748 355.265 450.591 355.265C450.434 355.265 450.309 352.518 450.309 349.133C450.309 345.749 450.442 343.01 450.591 343.01Z" fill="#263238"/>
<path d="M456.517 343.01C456.674 343.01 456.8 345.749 456.8 349.133C456.8 352.518 456.674 355.265 456.517 355.265C456.36 355.265 456.234 352.518 456.234 349.133C456.234 345.749 456.36 343.01 456.517 343.01Z" fill="#263238"/>
<path d="M462.443 343.01C462.6 343.01 462.725 345.749 462.725 349.133C462.725 352.518 462.6 355.265 462.443 355.265C462.286 355.265 462.16 352.518 462.16 349.133C462.16 345.749 462.286 343.01 462.443 343.01Z" fill="#263238"/>
<path d="M468.368 343.01C468.525 343.01 468.651 345.749 468.651 349.133C468.651 352.518 468.525 355.265 468.368 355.265C468.212 355.265 468.086 352.518 468.086 349.133C468.086 345.749 468.212 343.01 468.368 343.01Z" fill="#263238"/>
<path d="M474.286 343.01C474.443 343.01 474.569 345.749 474.569 349.133C474.569 352.518 474.443 355.265 474.286 355.265C474.129 355.265 474.012 352.518 474.012 349.133C474.012 345.749 474.137 343.01 474.286 343.01Z" fill="#263238"/>
<g opacity="0.3">
<path d="M411.777 342.813C432.554 346.866 453.915 346.866 474.692 342.813H411.777Z" fill="black"/>
</g>
<path d="M475.744 342.837C475.744 342.994 461.224 343.12 443.306 343.12C425.387 343.12 410.867 342.994 410.867 342.837C410.867 342.679 425.395 342.545 443.306 342.545C461.216 342.545 475.744 342.679 475.744 342.837Z" fill="#263238"/>
<path d="M479.44 355.265H414.445V367.905H479.44V355.265Z" fill="#FFCA41"/>
<path d="M418.63 355.477C418.787 355.477 418.913 358.216 418.913 361.601C418.913 364.985 418.787 367.732 418.63 367.732C418.473 367.732 418.348 364.985 418.348 361.601C418.348 358.216 418.473 355.477 418.63 355.477Z" fill="#263238"/>
<path d="M424.65 355.477C424.807 355.477 424.932 358.216 424.932 361.601C424.932 364.985 424.807 367.732 424.65 367.732C424.493 367.732 424.375 364.985 424.375 361.601C424.375 358.216 424.501 355.477 424.65 355.477Z" fill="#263238"/>
<path d="M430.607 355.477C430.764 355.477 430.889 358.216 430.889 361.601C430.889 364.985 430.764 367.732 430.607 367.732C430.45 367.732 430.324 364.985 430.324 361.601C430.324 358.216 430.458 355.477 430.607 355.477Z" fill="#263238"/>
<path d="M436.533 355.477C436.69 355.477 436.815 358.216 436.815 361.601C436.815 364.985 436.69 367.732 436.533 367.732C436.376 367.732 436.25 364.985 436.25 361.601C436.25 358.216 436.383 355.477 436.533 355.477Z" fill="#263238"/>
<path d="M442.458 355.477C442.615 355.477 442.741 358.216 442.741 361.601C442.741 364.985 442.615 367.732 442.458 367.732C442.301 367.732 442.176 364.985 442.176 361.601C442.176 358.216 442.301 355.477 442.458 355.477Z" fill="#263238"/>
<path d="M448.384 355.477C448.541 355.477 448.667 358.216 448.667 361.601C448.667 364.985 448.541 367.732 448.384 367.732C448.227 367.732 448.102 364.985 448.102 361.601C448.102 358.216 448.227 355.477 448.384 355.477Z" fill="#263238"/>
<path d="M454.302 355.477C454.459 355.477 454.585 358.216 454.585 361.601C454.585 364.985 454.436 367.732 454.302 367.732C454.169 367.732 454.027 364.985 454.027 361.601C454.027 358.216 454.153 355.477 454.302 355.477Z" fill="#263238"/>
<path d="M460.228 355.477C460.385 355.477 460.51 358.216 460.51 361.601C460.51 364.985 460.385 367.732 460.228 367.732C460.071 367.732 459.945 364.985 459.945 361.601C459.945 358.216 460.071 355.477 460.228 355.477Z" fill="#263238"/>
<path d="M466.154 355.477C466.311 355.477 466.436 358.216 466.436 361.601C466.436 364.985 466.311 367.732 466.154 367.732C465.997 367.732 465.871 364.985 465.871 361.601C465.871 358.216 465.997 355.477 466.154 355.477Z" fill="#263238"/>
<path d="M472.083 355.477C472.24 355.477 472.366 358.216 472.366 361.601C472.366 364.985 472.24 367.732 472.083 367.732C471.926 367.732 471.801 364.985 471.801 361.601C471.801 358.216 471.926 355.477 472.083 355.477Z" fill="#263238"/>
<path d="M477.982 355.477C478.131 355.477 478.264 358.216 478.264 361.601C478.264 364.985 478.154 367.732 477.982 367.732C477.809 367.732 477.699 364.985 477.699 361.601C477.699 358.216 477.848 355.477 477.982 355.477Z" fill="#263238"/>
<g opacity="0.3">
<path d="M415.492 355.28C436.312 358.861 457.587 358.861 478.407 355.28H415.492Z" fill="black"/>
</g>
<path d="M479.467 355.304C479.467 355.461 464.939 355.587 447.028 355.587C429.118 355.587 414.582 355.461 414.582 355.304C414.582 355.146 429.102 355.021 447.028 355.021C464.955 355.021 479.467 355.139 479.467 355.304Z" fill="#263238"/>
<path d="M469.663 305.159H404.668V317.8H469.663V305.159Z" fill="#FFCA41"/>
<path d="M408.841 305.372C408.998 305.372 409.124 308.119 409.124 311.503C409.124 314.887 408.998 317.626 408.841 317.626C408.684 317.626 408.559 314.887 408.559 311.503C408.559 308.119 408.684 305.372 408.841 305.372Z" fill="#263238"/>
<path d="M414.872 305.372C415.029 305.372 415.155 308.119 415.155 311.503C415.155 314.887 415.029 317.626 414.872 317.626C414.715 317.626 414.59 314.887 414.59 311.503C414.59 308.119 414.715 305.372 414.872 305.372Z" fill="#263238"/>
<path d="M420.829 305.372C420.979 305.372 421.112 308.119 421.112 311.503C421.112 314.887 420.979 317.626 420.829 317.626C420.68 317.626 420.547 314.887 420.547 311.503C420.547 308.119 420.688 305.372 420.829 305.372Z" fill="#263238"/>
<path d="M426.747 305.372C426.904 305.372 427.03 308.119 427.03 311.503C427.03 314.887 426.904 317.626 426.747 317.626C426.59 317.626 426.465 314.887 426.465 311.503C426.465 308.119 426.598 305.372 426.747 305.372Z" fill="#263238"/>
<path d="M432.673 305.372C432.83 305.372 432.956 308.119 432.956 311.503C432.956 314.887 432.83 317.626 432.673 317.626C432.516 317.626 432.391 314.887 432.391 311.503C432.391 308.119 432.516 305.372 432.673 305.372Z" fill="#263238"/>
<path d="M438.599 305.372C438.756 305.372 438.881 308.119 438.881 311.503C438.881 314.887 438.756 317.626 438.599 317.626C438.442 317.626 438.316 314.887 438.316 311.503C438.316 308.119 438.442 305.372 438.599 305.372Z" fill="#263238"/>
<path d="M444.525 305.372C444.682 305.372 444.807 308.119 444.807 311.503C444.807 314.887 444.682 317.626 444.525 317.626C444.368 317.626 444.242 314.887 444.242 311.503C444.242 308.119 444.368 305.372 444.525 305.372Z" fill="#263238"/>
<path d="M450.447 305.372C450.596 305.372 450.721 308.119 450.721 311.503C450.721 314.887 450.596 317.626 450.447 317.626C450.297 317.626 450.164 314.887 450.164 311.503C450.164 308.119 450.29 305.372 450.447 305.372Z" fill="#263238"/>
<path d="M456.369 305.372C456.525 305.372 456.651 308.119 456.651 311.503C456.651 314.887 456.525 317.626 456.369 317.626C456.212 317.626 456.086 314.887 456.086 311.503C456.086 308.119 456.212 305.372 456.369 305.372Z" fill="#263238"/>
<path d="M462.283 305.372C462.44 305.372 462.565 308.119 462.565 311.503C462.565 314.887 462.44 317.626 462.283 317.626C462.126 317.626 462 314.887 462 311.503C462 308.119 462.133 305.372 462.283 305.372Z" fill="#263238"/>
<path d="M468.22 305.372C468.377 305.372 468.503 308.119 468.503 311.503C468.503 314.887 468.377 317.626 468.22 317.626C468.063 317.626 467.938 314.887 467.938 311.503C467.938 308.119 468.063 305.372 468.22 305.372Z" fill="#263238"/>
<g opacity="0.3">
<path d="M405.715 305.175C426.489 309.228 447.848 309.228 468.622 305.175H405.715Z" fill="black"/>
</g>
<path d="M469.678 305.198C469.678 305.356 455.15 305.482 437.239 305.482C419.329 305.482 404.793 305.356 404.793 305.198C404.793 305.041 419.321 304.915 437.239 304.915C455.158 304.915 469.678 305.049 469.678 305.198Z" fill="#263238"/>
<path d="M473.374 317.626H408.379V330.267H473.374V317.626Z" fill="#FFCA41"/>
<path d="M412.556 317.839C412.713 317.839 412.839 320.586 412.839 323.97C412.839 327.355 412.713 330.094 412.556 330.094C412.399 330.094 412.273 327.355 412.273 323.97C412.273 320.586 412.399 317.839 412.556 317.839Z" fill="#263238"/>
<path d="M418.583 317.839C418.74 317.839 418.866 320.586 418.866 323.97C418.866 327.355 418.74 330.094 418.583 330.094C418.426 330.094 418.301 327.355 418.301 323.97C418.301 320.586 418.426 317.839 418.583 317.839Z" fill="#263238"/>
<path d="M424.54 317.839C424.697 317.839 424.823 320.586 424.823 323.97C424.823 327.355 424.697 330.094 424.54 330.094C424.383 330.094 424.258 327.355 424.258 323.97C424.258 320.586 424.383 317.839 424.54 317.839Z" fill="#263238"/>
<path d="M430.466 317.839C430.615 317.839 430.741 320.586 430.741 323.97C430.741 327.355 430.615 330.094 430.466 330.094C430.317 330.094 430.184 327.355 430.184 323.97C430.184 320.586 430.309 317.839 430.466 317.839Z" fill="#263238"/>
<path d="M436.384 317.839C436.541 317.839 436.667 320.586 436.667 323.97C436.667 327.355 436.541 330.094 436.384 330.094C436.227 330.094 436.102 327.355 436.102 323.97C436.102 320.586 436.227 317.839 436.384 317.839Z" fill="#263238"/>
<path d="M442.31 317.839C442.467 317.839 442.592 320.586 442.592 323.97C442.592 327.355 442.467 330.094 442.31 330.094C442.153 330.094 442.027 327.355 442.027 323.97C442.027 320.586 442.153 317.839 442.31 317.839Z" fill="#263238"/>
<path d="M448.236 317.839C448.393 317.839 448.518 320.586 448.518 323.97C448.518 327.355 448.393 330.094 448.236 330.094C448.079 330.094 447.953 327.355 447.953 323.97C447.953 320.586 448.079 317.839 448.236 317.839Z" fill="#263238"/>
<path d="M454.165 317.839C454.322 317.839 454.448 320.586 454.448 323.97C454.448 327.355 454.322 330.094 454.165 330.094C454.008 330.094 453.883 327.355 453.883 323.97C453.883 320.586 454.008 317.839 454.165 317.839Z" fill="#263238"/>
<path d="M460.079 317.839C460.236 317.839 460.362 320.586 460.362 323.97C460.362 327.355 460.236 330.094 460.079 330.094C459.922 330.094 459.797 327.355 459.797 323.97C459.797 320.586 459.93 317.839 460.079 317.839Z" fill="#263238"/>
<path d="M466.001 317.839C466.158 317.839 466.284 320.586 466.284 323.97C466.284 327.355 466.158 330.094 466.001 330.094C465.844 330.094 465.719 327.355 465.719 323.97C465.719 320.586 465.844 317.839 466.001 317.839Z" fill="#263238"/>
<path d="M471.931 317.839C472.088 317.839 472.214 320.586 472.214 323.97C472.214 327.355 472.088 330.094 471.931 330.094C471.774 330.094 471.648 327.355 471.648 323.97C471.648 320.586 471.774 317.839 471.931 317.839Z" fill="#263238"/>
<g opacity="0.3">
<path d="M409.426 317.642C430.242 321.227 451.516 321.227 472.333 317.642H409.426Z" fill="black"/>
</g>
<path d="M473.393 317.666C473.393 317.823 458.865 317.949 440.954 317.949C423.044 317.949 408.508 317.823 408.508 317.666C408.508 317.508 423.044 317.359 440.954 317.359C458.865 317.359 473.393 317.516 473.393 317.666Z" fill="#263238"/>
<path d="M51.6264 381.396H116.621V368.252H51.6264V381.396Z" fill="#FFCA41"/>
<path d="M112.447 368.472C112.29 368.472 112.164 371.321 112.164 374.839C112.164 378.357 112.29 381.215 112.447 381.215C112.604 381.215 112.729 378.365 112.729 374.839C112.729 371.313 112.596 368.472 112.447 368.472Z" fill="#263238"/>
<path d="M106.419 368.472C106.262 368.472 106.137 371.321 106.137 374.839C106.137 378.357 106.262 381.215 106.419 381.215C106.576 381.215 106.702 378.365 106.702 374.839C106.702 371.313 106.576 368.472 106.419 368.472Z" fill="#263238"/>
<path d="M100.458 368.472C100.301 368.472 100.176 371.321 100.176 374.839C100.176 378.357 100.301 381.215 100.458 381.215C100.615 381.215 100.741 378.365 100.741 374.839C100.741 371.313 100.615 368.472 100.458 368.472Z" fill="#263238"/>
<path d="M94.5365 368.472C94.3795 368.472 94.2539 371.321 94.2539 374.839C94.2539 378.357 94.3795 381.215 94.5365 381.215C94.6934 381.215 94.819 378.365 94.819 374.839C94.819 371.313 94.6934 368.472 94.5365 368.472Z" fill="#263238"/>
<path d="M88.6107 368.472C88.4537 368.472 88.3281 371.321 88.3281 374.839C88.3281 378.357 88.4537 381.215 88.6107 381.215C88.7676 381.215 88.8932 378.365 88.8932 374.839C88.8932 371.313 88.7676 368.472 88.6107 368.472Z" fill="#263238"/>
<path d="M82.6927 368.472C82.5357 368.472 82.4102 371.321 82.4102 374.839C82.4102 378.357 82.5357 381.215 82.6927 381.215C82.8497 381.215 82.9674 378.365 82.9674 374.839C82.9674 371.313 82.8418 368.472 82.6927 368.472Z" fill="#263238"/>
<path d="M76.7669 368.472C76.61 368.472 76.4844 371.321 76.4844 374.839C76.4844 378.357 76.61 381.215 76.7669 381.215C76.9239 381.215 77.0495 378.365 77.0495 374.839C77.0495 371.313 76.9161 368.472 76.7669 368.472Z" fill="#263238"/>
<path d="M70.8411 368.472C70.6842 368.472 70.5586 371.321 70.5586 374.839C70.5586 378.357 70.6842 381.215 70.8411 381.215C70.9981 381.215 71.1237 378.365 71.1237 374.839C71.1237 371.313 70.9981 368.472 70.8411 368.472Z" fill="#263238"/>
<path d="M64.9154 368.472C64.7584 368.472 64.6328 371.321 64.6328 374.839C64.6328 378.357 64.7584 381.215 64.9154 381.215C65.0723 381.215 65.1979 378.365 65.1979 374.839C65.1979 371.313 65.0723 368.472 64.9154 368.472Z" fill="#263238"/>
<path d="M58.9896 368.472C58.8404 368.472 58.7148 371.321 58.7148 374.839C58.7148 378.357 58.8404 381.215 58.9896 381.215C59.1387 381.215 59.2721 378.365 59.2721 374.839C59.2721 371.313 59.1465 368.472 58.9896 368.472Z" fill="#263238"/>
<path d="M53.0716 368.472C52.9146 368.472 52.7891 371.321 52.7891 374.839C52.7891 378.357 52.9146 381.215 53.0716 381.215C53.2286 381.215 53.3542 378.365 53.3542 374.839C53.3542 371.313 53.2286 368.472 53.0716 368.472Z" fill="#263238"/>
<g opacity="0.3">
<path d="M115.579 368.267C94.7003 371.069 73.5426 371.069 52.6641 368.267H115.579Z" fill="black"/>
</g>
<path d="M51.6094 368.291C51.6094 368.448 66.1294 368.574 84.0478 368.574C101.966 368.574 116.486 368.448 116.486 368.291C116.486 368.133 101.966 368.007 84.0478 368.007C66.1294 368.007 51.6094 368.133 51.6094 368.291Z" fill="#263238"/>
<path d="M50.1694 394.32H115.164V381.176H50.1694V394.32Z" fill="#FFCA41"/>
<path d="M110.986 381.396C110.829 381.396 110.703 384.245 110.703 387.764C110.703 391.282 110.829 394.139 110.986 394.139C111.143 394.139 111.268 391.29 111.268 387.764C111.268 384.237 111.135 381.396 110.986 381.396Z" fill="#263238"/>
<path d="M104.958 381.396C104.801 381.396 104.676 384.245 104.676 387.764C104.676 391.282 104.801 394.139 104.958 394.139C105.115 394.139 105.241 391.29 105.241 387.764C105.241 384.237 105.115 381.396 104.958 381.396Z" fill="#263238"/>
<path d="M99.0013 381.396C98.8443 381.396 98.7188 384.245 98.7188 387.764C98.7188 391.282 98.8443 394.139 99.0013 394.139C99.1583 394.139 99.2839 391.29 99.2839 387.764C99.2839 384.237 99.1583 381.396 99.0013 381.396Z" fill="#263238"/>
<path d="M93.0755 381.396C92.9185 381.396 92.793 384.245 92.793 387.763C92.793 391.281 92.9185 394.138 93.0755 394.138C93.2325 394.138 93.3581 391.289 93.3581 387.763C93.3581 384.237 93.2325 381.396 93.0755 381.396Z" fill="#263238"/>
<path d="M87.1185 381.396C86.9615 381.396 86.8359 384.245 86.8359 387.764C86.8359 391.282 86.9615 394.139 87.1185 394.139C87.2755 394.139 87.401 391.29 87.401 387.764C87.401 384.237 87.3069 381.396 87.1185 381.396Z" fill="#263238"/>
<path d="M81.2318 381.396C81.0748 381.396 80.9492 384.245 80.9492 387.763C80.9492 391.281 81.0748 394.138 81.2318 394.138C81.3887 394.138 81.5065 391.289 81.5065 387.763C81.5065 384.237 81.3809 381.396 81.2318 381.396Z" fill="#263238"/>
<path d="M75.3451 381.396C75.1881 381.396 75.0625 384.245 75.0625 387.764C75.0625 391.282 75.1881 394.139 75.3451 394.139C75.502 394.139 75.6276 391.29 75.6276 387.764C75.6276 384.237 75.4628 381.396 75.3451 381.396Z" fill="#263238"/>
<path d="M69.3802 381.396C69.2232 381.396 69.0977 384.245 69.0977 387.764C69.0977 391.282 69.2232 394.139 69.3802 394.139C69.5372 394.139 69.6628 391.29 69.6628 387.764C69.6628 384.237 69.5372 381.396 69.3802 381.396Z" fill="#263238"/>
<path d="M63.4544 381.396C63.2975 381.396 63.1719 384.245 63.1719 387.764C63.1719 391.282 63.2975 394.139 63.4544 394.139C63.6114 394.139 63.737 391.29 63.737 387.764C63.737 384.237 63.6114 381.396 63.4544 381.396Z" fill="#263238"/>
<path d="M57.5286 381.396C57.3795 381.396 57.2539 384.245 57.2539 387.764C57.2539 391.282 57.3795 394.139 57.5286 394.139C57.6777 394.139 57.8112 391.29 57.8112 387.764C57.8112 384.237 57.6856 381.396 57.5286 381.396Z" fill="#263238"/>
<path d="M51.6107 381.396C51.4537 381.396 51.3281 384.245 51.3281 387.764C51.3281 391.282 51.4537 394.139 51.6107 394.139C51.7676 394.139 51.8932 391.29 51.8932 387.764C51.8932 384.237 51.799 381.396 51.6107 381.396Z" fill="#263238"/>
<g opacity="0.3">
<path d="M114.118 381.191C93.2394 383.993 72.0816 383.993 51.2031 381.191H114.118Z" fill="black"/>
</g>
<path d="M50.1523 381.215C50.1523 381.372 64.6723 381.498 82.5908 381.498C100.509 381.498 115.029 381.372 115.029 381.215C115.029 381.057 100.509 380.931 82.5908 380.931C64.6723 380.931 50.1523 381.057 50.1523 381.215Z" fill="#263238"/>
<path d="M56.3374 407.039H121.332V393.895H56.3374V407.039Z" fill="#FFCA41"/>
<path d="M117.154 394.115C116.997 394.115 116.871 396.964 116.871 400.483C116.871 404.001 116.997 406.858 117.154 406.858C117.311 406.858 117.436 404.009 117.436 400.483C117.436 396.957 117.311 394.115 117.154 394.115Z" fill="#263238"/>
<path d="M111.126 394.115C110.969 394.115 110.844 396.964 110.844 400.483C110.844 404.001 110.969 406.858 111.126 406.858C111.283 406.858 111.409 404.009 111.409 400.483C111.409 396.957 111.283 394.115 111.126 394.115Z" fill="#263238"/>
<path d="M105.173 394.115C105.016 394.115 104.891 396.964 104.891 400.483C104.891 404.001 105.016 406.858 105.173 406.858C105.33 406.858 105.456 404.009 105.456 400.483C105.456 396.957 105.33 394.115 105.173 394.115Z" fill="#263238"/>
<path d="M99.2435 394.115C99.0944 394.115 98.9609 396.964 98.9609 400.483C98.9609 404.001 99.0944 406.858 99.2435 406.858C99.3926 406.858 99.526 404.009 99.526 400.483C99.526 396.957 99.4005 394.115 99.2435 394.115Z" fill="#263238"/>
<path d="M93.3294 394.115C93.1725 394.115 93.0469 396.964 93.0469 400.483C93.0469 404.001 93.1725 406.858 93.3294 406.858C93.4864 406.858 93.612 404.009 93.612 400.483C93.612 396.957 93.4786 394.115 93.3294 394.115Z" fill="#263238"/>
<path d="M87.3997 394.115C87.2428 394.115 87.1172 396.964 87.1172 400.483C87.1172 404.001 87.2428 406.858 87.3997 406.858C87.5567 406.858 87.6823 404.009 87.6823 400.483C87.6823 396.957 87.5567 394.115 87.3997 394.115Z" fill="#263238"/>
<path d="M81.474 394.115C81.317 394.115 81.1914 396.964 81.1914 400.483C81.1914 404.001 81.317 406.858 81.474 406.858C81.6309 406.858 81.7565 404.009 81.7565 400.483C81.7565 396.957 81.6231 394.115 81.474 394.115Z" fill="#263238"/>
<path d="M75.5482 394.115C75.3912 394.115 75.2656 396.964 75.2656 400.483C75.2656 404.001 75.3912 406.858 75.5482 406.858C75.7051 406.858 75.8307 404.009 75.8307 400.483C75.8307 396.957 75.7051 394.115 75.5482 394.115Z" fill="#263238"/>
<path d="M69.6224 394.115C69.4732 394.115 69.3477 396.964 69.3477 400.483C69.3477 404.001 69.4732 406.858 69.6224 406.858C69.7715 406.858 69.9049 404.009 69.9049 400.483C69.9049 396.957 69.7793 394.115 69.6224 394.115Z" fill="#263238"/>
<path d="M63.7044 394.115C63.5475 394.115 63.4219 396.964 63.4219 400.483C63.4219 404.001 63.5475 406.858 63.7044 406.858C63.8614 406.858 63.987 404.009 63.987 400.483C63.987 396.957 63.8614 394.115 63.7044 394.115Z" fill="#263238"/>
<path d="M57.7786 394.115C57.6217 394.115 57.4961 396.964 57.4961 400.482C57.4961 404 57.6217 406.858 57.7786 406.858C57.9356 406.858 58.0612 404.008 58.0612 400.482C58.0612 396.956 57.9356 394.115 57.7786 394.115Z" fill="#263238"/>
<g opacity="0.3">
<path d="M120.286 393.91C99.4073 396.712 78.2496 396.712 57.3711 393.91H120.286Z" fill="black"/>
</g>
<path d="M56.3164 393.934C56.3164 394.091 70.8442 394.217 88.7549 394.217C106.665 394.217 121.193 394.091 121.193 393.934C121.193 393.776 106.673 393.65 88.7549 393.65C70.8364 393.65 56.3164 393.776 56.3164 393.934Z" fill="#263238"/>
<path d="M48.7202 419.577H113.715V406.937H48.7202V419.577Z" fill="#FFCA41"/>
<path d="M109.54 407.149C109.383 407.149 109.258 409.896 109.258 413.28C109.258 416.665 109.383 419.412 109.54 419.412C109.697 419.412 109.823 416.665 109.823 413.28C109.823 409.896 109.697 407.149 109.54 407.149Z" fill="#263238"/>
<path d="M103.513 407.149C103.356 407.149 103.23 409.896 103.23 413.28C103.23 416.665 103.356 419.412 103.513 419.412C103.67 419.412 103.796 416.665 103.796 413.28C103.796 409.896 103.67 407.149 103.513 407.149Z" fill="#263238"/>
<path d="M97.556 407.149C97.399 407.149 97.2734 409.896 97.2734 413.28C97.2734 416.665 97.399 419.412 97.556 419.412C97.713 419.412 97.8385 416.665 97.8385 413.28C97.8385 409.896 97.713 407.149 97.556 407.149Z" fill="#263238"/>
<path d="M91.6302 407.149C91.4732 407.149 91.3477 409.896 91.3477 413.28C91.3477 416.665 91.4732 419.412 91.6302 419.412C91.7872 419.412 91.9128 416.665 91.9128 413.28C91.9128 409.896 91.8264 407.149 91.6302 407.149Z" fill="#263238"/>
<path d="M85.7044 407.149C85.5553 407.149 85.4297 409.896 85.4297 413.28C85.4297 416.665 85.5553 419.412 85.7044 419.412C85.8535 419.412 85.9869 416.665 85.9869 413.28C85.9869 409.896 85.8614 407.149 85.7044 407.149Z" fill="#263238"/>
<path d="M79.7865 407.149C79.6295 407.149 79.5039 409.896 79.5039 413.28C79.5039 416.665 79.6295 419.412 79.7865 419.412C79.9434 419.412 80.069 416.665 80.069 413.28C80.069 409.896 79.9434 407.149 79.7865 407.149Z" fill="#263238"/>
<path d="M73.8607 407.149C73.7037 407.149 73.5781 409.896 73.5781 413.28C73.5781 416.665 73.7037 419.412 73.8607 419.412C74.0176 419.412 74.1432 416.665 74.1432 413.28C74.1432 409.896 74.0176 407.149 73.8607 407.149Z" fill="#263238"/>
<path d="M67.9349 407.149C67.7779 407.149 67.6523 409.896 67.6523 413.28C67.6523 416.665 67.7779 419.412 67.9349 419.412C68.0919 419.412 68.2174 416.665 68.2174 413.28C68.2174 409.896 68.0919 407.149 67.9349 407.149Z" fill="#263238"/>
<path d="M62.0052 407.149C61.8561 407.149 61.7227 409.896 61.7227 413.28C61.7227 416.665 61.8561 419.412 62.0052 419.412C62.1543 419.412 62.2878 416.665 62.2878 413.28C62.2878 409.896 62.17 407.149 62.0052 407.149Z" fill="#263238"/>
<path d="M56.0911 407.149C55.9342 407.149 55.8086 409.896 55.8086 413.28C55.8086 416.665 55.9342 419.412 56.0911 419.412C56.2481 419.412 56.3737 416.665 56.3737 413.28C56.3737 409.896 56.2403 407.149 56.0911 407.149Z" fill="#263238"/>
<path d="M50.1693 407.149C50.0123 407.149 49.8867 409.896 49.8867 413.28C49.8867 416.665 50.0123 419.412 50.1693 419.412C50.3262 419.412 50.4518 416.665 50.4518 413.28C50.4518 409.896 50.3262 407.149 50.1693 407.149Z" fill="#263238"/>
<g opacity="0.3">
<path d="M112.676 406.952C91.8572 410.537 70.5809 410.537 49.7617 406.952H112.676Z" fill="black"/>
</g>
<path d="M48.707 406.984C48.707 407.133 63.2349 407.267 81.1455 407.267C99.0561 407.267 113.584 407.133 113.584 406.984C113.584 406.834 99.0639 406.7 81.1455 406.7C63.227 406.7 48.707 406.826 48.707 406.984Z" fill="#263238"/>
<path d="M52.9038 432.225H117.898V419.585H52.9038V432.225Z" fill="#FFCA41"/>
<path d="M113.716 419.797C113.559 419.797 113.434 422.544 113.434 425.929C113.434 429.313 113.559 432.06 113.716 432.06C113.873 432.06 113.999 429.313 113.999 425.929C113.999 422.544 113.873 419.797 113.716 419.797Z" fill="#263238"/>
<path d="M107.689 419.797C107.54 419.797 107.406 422.544 107.406 425.929C107.406 429.313 107.54 432.06 107.689 432.06C107.838 432.06 107.971 429.313 107.971 425.929C107.971 422.544 107.846 419.797 107.689 419.797Z" fill="#263238"/>
<path d="M101.732 419.797C101.583 419.797 101.457 422.544 101.457 425.929C101.457 429.313 101.583 432.06 101.732 432.06C101.881 432.06 102.014 429.313 102.014 425.929C102.014 422.544 101.889 419.797 101.732 419.797Z" fill="#263238"/>
<path d="M95.8177 419.797C95.6607 419.797 95.5352 422.544 95.5352 425.929C95.5352 429.313 95.6607 432.06 95.8177 432.06C95.9747 432.06 96.1003 429.313 96.1003 425.929C96.1003 422.544 95.9747 419.797 95.8177 419.797Z" fill="#263238"/>
<path d="M89.888 419.797C89.731 419.797 89.6055 422.544 89.6055 425.929C89.6055 429.313 89.731 432.06 89.888 432.06C90.045 432.06 90.1706 429.313 90.1706 425.929C90.1706 422.544 90.045 419.797 89.888 419.797Z" fill="#263238"/>
<path d="M83.9818 419.797C83.8248 419.797 83.6992 422.544 83.6992 425.929C83.6992 429.313 83.8248 432.06 83.9818 432.06C84.1387 432.06 84.2643 429.313 84.2643 425.929C84.2643 422.544 84.123 419.797 83.9818 419.797Z" fill="#263238"/>
<path d="M78.0365 419.797C77.8873 419.797 77.7539 422.544 77.7539 425.929C77.7539 429.313 77.8873 432.06 78.0365 432.06C78.1856 432.06 78.319 429.313 78.319 425.929C78.319 422.544 78.1934 419.797 78.0365 419.797Z" fill="#263238"/>
<path d="M72.1185 419.797C71.9615 419.797 71.8359 422.544 71.8359 425.929C71.8359 429.313 71.9615 432.06 72.1185 432.06C72.2755 432.06 72.401 429.313 72.401 425.929C72.401 422.544 72.2676 419.797 72.1185 419.797Z" fill="#263238"/>
<path d="M66.1927 419.797C66.0357 419.797 65.9102 422.544 65.9102 425.929C65.9102 429.313 66.0357 432.06 66.1927 432.06C66.3497 432.06 66.4753 429.313 66.4753 425.929C66.4753 422.544 66.3497 419.797 66.1927 419.797Z" fill="#263238"/>
<path d="M60.2669 419.797C60.11 419.797 59.9844 422.544 59.9844 425.929C59.9844 429.313 60.11 432.06 60.2669 432.06C60.4239 432.06 60.5495 429.313 60.5495 425.929C60.5495 422.544 60.4317 419.797 60.2669 419.797Z" fill="#263238"/>
<path d="M54.3451 419.797C54.1881 419.797 54.0625 422.544 54.0625 425.929C54.0625 429.313 54.1881 432.06 54.3451 432.06C54.502 432.06 54.6276 429.313 54.6276 425.929C54.6276 422.544 54.502 419.797 54.3451 419.797Z" fill="#263238"/>
<g opacity="0.3">
<path d="M116.852 419.601C96.078 423.654 74.7195 423.654 53.9453 419.601H116.852Z" fill="black"/>
</g>
<path d="M52.8828 419.632C52.8828 419.782 67.4107 419.915 85.3213 419.915C103.232 419.915 117.768 419.782 117.768 419.632C117.768 419.482 103.248 419.349 85.3213 419.349C67.395 419.349 52.8828 419.475 52.8828 419.632Z" fill="#263238"/>
<path d="M49.1929 444.693H114.188V432.052H49.1929V444.693Z" fill="#FFCA41"/>
<path d="M110.005 432.272C109.848 432.272 109.723 435.019 109.723 438.404C109.723 441.788 109.848 444.535 110.005 444.535C110.162 444.535 110.288 441.788 110.288 438.404C110.288 435.019 110.162 432.272 110.005 432.272Z" fill="#263238"/>
<path d="M103.978 432.272C103.821 432.272 103.695 435.019 103.695 438.404C103.695 441.788 103.821 444.535 103.978 444.535C104.135 444.535 104.26 441.788 104.26 438.404C104.26 435.019 104.135 432.272 103.978 432.272Z" fill="#263238"/>
<path d="M98.0208 432.272C97.8717 432.272 97.7383 435.019 97.7383 438.404C97.7383 441.788 97.8717 444.535 98.0208 444.535C98.17 444.535 98.3034 441.788 98.3034 438.404C98.3034 435.019 98.1778 432.272 98.0208 432.272Z" fill="#263238"/>
<path d="M92.1029 432.272C91.9459 432.272 91.8203 435.019 91.8203 438.404C91.8203 441.788 91.9459 444.535 92.1029 444.535C92.2598 444.535 92.3854 441.788 92.3854 438.404C92.3854 435.019 92.252 432.272 92.1029 432.272Z" fill="#263238"/>
<path d="M86.1771 432.272C86.0201 432.272 85.8945 435.019 85.8945 438.404C85.8945 441.788 86.0201 444.535 86.1771 444.535C86.3341 444.535 86.4596 441.788 86.4596 438.404C86.4596 435.019 86.3341 432.272 86.1771 432.272Z" fill="#263238"/>
<path d="M80.2513 432.272C80.0943 432.272 79.9688 435.019 79.9688 438.404C79.9688 441.788 80.0943 444.535 80.2513 444.535C80.4083 444.535 80.5339 441.788 80.5339 438.404C80.5339 435.019 80.4083 432.272 80.2513 432.272Z" fill="#263238"/>
<path d="M74.3255 432.272C74.1685 432.272 74.043 435.019 74.043 438.404C74.043 441.788 74.1685 444.535 74.3255 444.535C74.4825 444.535 74.6081 441.788 74.6081 438.404C74.6081 435.019 74.4825 432.272 74.3255 432.272Z" fill="#263238"/>
<path d="M68.3997 432.272C68.2506 432.272 68.125 435.019 68.125 438.404C68.125 441.788 68.2506 444.535 68.3997 444.535C68.5488 444.535 68.6823 441.788 68.6823 438.404C68.6823 435.019 68.5567 432.272 68.3997 432.272Z" fill="#263238"/>
<path d="M62.4818 432.272C62.3248 432.272 62.1992 435.019 62.1992 438.404C62.1992 441.788 62.3248 444.535 62.4818 444.535C62.6387 444.535 62.7643 441.788 62.7643 438.404C62.7643 435.019 62.6387 432.272 62.4818 432.272Z" fill="#263238"/>
<path d="M56.556 432.272C56.399 432.272 56.2734 435.019 56.2734 438.404C56.2734 441.788 56.399 444.535 56.556 444.535C56.713 444.535 56.8385 441.788 56.8385 438.404C56.8385 435.019 56.713 432.272 56.556 432.272Z" fill="#263238"/>
<path d="M50.6263 432.272C50.4693 432.272 50.3438 435.019 50.3438 438.404C50.3438 441.788 50.4693 444.535 50.6263 444.535C50.7833 444.535 50.9089 441.788 50.9089 438.404C50.9089 435.019 50.7833 432.272 50.6263 432.272Z" fill="#263238"/>
<g opacity="0.3">
<path d="M113.133 432.068C92.3166 435.649 71.0435 435.649 50.2266 432.068H113.133Z" fill="black"/>
</g>
<path d="M49.1719 432.099C49.1719 432.249 63.6997 432.383 81.6103 432.383C99.5209 432.383 114.057 432.249 114.057 432.099C114.057 431.95 99.5288 431.816 81.6103 431.816C63.6919 431.816 49.1719 431.942 49.1719 432.099Z" fill="#263238"/>
<path d="M114.179 444.701C114.179 444.701 114.179 444.622 114.179 444.48C114.179 444.339 114.179 444.11 114.179 443.843C114.179 443.26 114.179 442.434 114.179 441.387C114.179 439.215 114.179 436.106 114.116 432.233V432.092H114.265H117.844L117.687 432.249C117.687 428.55 117.687 424.276 117.687 419.601L117.883 419.79H113.504V419.593C113.504 415.657 113.504 411.447 113.504 407.047V406.834H121.353L121.141 407.047C121.141 402.372 121.141 397.877 121.141 393.666L121.337 393.871H115.168H114.979V393.682C114.979 389.109 114.979 384.985 115.019 381.427V381.278H116.761L116.62 381.419C116.62 377.35 116.62 374.084 116.62 371.801C116.62 370.691 116.62 369.834 116.62 369.212C116.62 368.936 116.62 368.716 116.62 368.543C116.613 368.467 116.613 368.39 116.62 368.314C116.63 368.39 116.63 368.467 116.62 368.543C116.62 368.716 116.62 368.936 116.62 369.212C116.62 369.826 116.62 370.691 116.683 371.793C116.722 374.076 116.777 377.342 116.84 381.419V381.561H115.097L115.246 381.412C115.246 384.969 115.246 389.093 115.286 393.666L115.097 393.477H121.47V393.674C121.47 397.893 121.47 402.387 121.47 407.055V407.267H113.622L113.834 407.055C113.834 411.454 113.834 415.713 113.834 419.601L113.629 419.396H118.001V419.593C118.001 424.268 118.001 428.542 118.001 432.241V432.399H117.844H114.265L114.399 432.265C114.399 436.137 114.352 439.246 114.336 441.419C114.336 442.465 114.336 443.292 114.336 443.874C114.336 444.142 114.336 444.347 114.336 444.512C114.293 444.582 114.24 444.646 114.179 444.701Z" fill="#263238"/>
<path d="M412.287 234.747H125.521C119.206 234.747 114.086 239.881 114.086 246.214V428.621C114.086 434.954 119.206 440.088 125.521 440.088H412.287C418.603 440.088 423.723 434.954 423.723 428.621V246.214C423.723 239.881 418.603 234.747 412.287 234.747Z" fill="black"/>
<path d="M101.98 426.826H437.455V431.257C437.455 433.035 437.106 434.796 436.428 436.438C435.749 438.081 434.755 439.573 433.501 440.83C432.248 442.087 430.759 443.084 429.122 443.765C427.484 444.445 425.728 444.795 423.955 444.795H115.504C111.923 444.795 108.49 443.369 105.958 440.83C103.426 438.291 102.004 434.848 102.004 431.257V426.826H101.98Z" fill="black"/>
<path d="M238.383 424.906L242.543 431.541H301.125L304.986 424.906H238.383Z" fill="#FDFDFD"/>
<path d="M421.07 424.906C421.07 425.016 352.339 425.103 267.582 425.103C182.824 425.103 114.086 425.016 114.086 424.906C114.086 424.796 182.801 424.701 267.582 424.701C352.363 424.701 421.07 424.796 421.07 424.906Z" fill="#263238"/>
<path d="M408.832 416.004H128.109L128.415 248.78H408.832V416.004Z" fill="#FAFAFA"/>
<path d="M408.833 416.003C408.833 414.721 408.77 351.282 408.676 248.78L408.833 248.937L128.416 248.985L128.62 248.78V248.882C128.51 308.063 128.401 364.583 128.306 415.98L128.118 415.791L408.833 415.98L128.118 416.169H127.938V415.98C128.032 364.56 128.126 308.063 128.228 248.882V248.552H128.432L408.848 248.599H409.005V248.756C408.919 351.282 408.833 414.721 408.833 416.003Z" fill="#263238"/>
<path d="M402.724 380.05C402.724 380.16 343.074 380.254 269.469 380.254C195.865 380.254 136.199 380.16 136.199 380.05C136.199 379.94 195.849 379.845 269.469 379.845C343.09 379.845 402.724 379.94 402.724 380.05Z" fill="#E0E0E0"/>
<path d="M402.724 352.777C402.724 352.888 343.074 352.982 269.469 352.982C195.865 352.982 136.199 352.888 136.199 352.777C136.199 352.667 195.849 352.573 269.469 352.573C343.09 352.573 402.724 352.628 402.724 352.777Z" fill="#E0E0E0"/>
<path d="M402.724 407.361C402.724 407.472 343.074 407.566 269.469 407.566C195.865 407.566 136.199 407.472 136.199 407.361C136.199 407.251 195.849 407.157 269.469 407.157C343.09 407.157 402.724 407.243 402.724 407.361Z" fill="#E0E0E0"/>
<path d="M402.724 325.426C402.724 325.544 343.074 325.631 269.469 325.631C195.865 325.631 136.199 325.544 136.199 325.426C136.199 325.308 195.849 325.222 269.469 325.222C343.09 325.222 402.724 325.316 402.724 325.426Z" fill="#E0E0E0"/>
<path d="M402.724 298.115C402.724 298.233 343.074 298.319 269.469 298.319C195.865 298.319 136.199 298.233 136.199 298.115C136.199 297.997 195.849 297.91 269.469 297.91C343.09 297.91 402.724 298.005 402.724 298.115Z" fill="#E0E0E0"/>
<path d="M402.724 270.803C402.724 270.921 343.074 271.015 269.469 271.015C195.865 271.015 136.199 270.921 136.199 270.803C136.199 270.685 195.849 270.598 269.469 270.598C343.09 270.598 402.724 270.693 402.724 270.803Z" fill="#E0E0E0"/>
<path d="M275.436 383.553L275.169 383.403L210.457 347.237L160.061 382.144L159.621 381.498L210.41 346.316L275.279 382.561L377.68 270.543L378.261 271.071L275.436 383.553Z" fill="#263238"/>
<path d="M302.615 373.108C302.774 377.66 301.583 382.157 299.193 386.03C296.803 389.904 293.321 392.98 289.188 394.869C285.055 396.758 280.456 397.375 275.972 396.643C271.489 395.91 267.323 393.861 264.002 390.755C260.68 387.648 258.351 383.623 257.31 379.189C256.269 374.756 256.563 370.112 258.154 365.845C259.745 361.579 262.562 357.881 266.249 355.22C269.935 352.559 274.326 351.055 278.865 350.896C281.879 350.79 284.885 351.28 287.71 352.339C290.535 353.398 293.124 355.005 295.329 357.067C297.535 359.13 299.314 361.608 300.564 364.36C301.814 367.113 302.511 370.085 302.615 373.108Z" fill="#FFCA41"/>
<g opacity="0.1">
<path d="M278.866 350.896C275.852 351.001 272.888 351.7 270.144 352.953C267.399 354.207 264.928 355.991 262.871 358.203C260.814 360.414 259.212 363.011 258.156 365.844C257.1 368.677 256.611 371.691 256.717 374.713C256.717 374.713 272.87 374.871 276.519 368.22C280.169 361.569 278.866 350.896 278.866 350.896Z" fill="white"/>
</g>
<path d="M296.736 372.942C296.857 376.402 295.951 379.821 294.135 382.765C292.318 385.709 289.671 388.047 286.53 389.482C283.388 390.918 279.892 391.387 276.485 390.831C273.077 390.274 269.911 388.716 267.386 386.355C264.861 383.994 263.091 380.935 262.3 377.564C261.509 374.194 261.733 370.665 262.942 367.422C264.151 364.179 266.292 361.369 269.094 359.346C271.897 357.324 275.234 356.18 278.684 356.059C283.31 355.898 287.811 357.586 291.197 360.752C294.582 363.918 296.574 368.303 296.736 372.942Z" fill="#FFCA41"/>
<g opacity="0.2">
<path d="M296.736 372.942C296.857 376.402 295.951 379.821 294.135 382.765C292.318 385.709 289.671 388.047 286.53 389.482C283.388 390.918 279.892 391.387 276.485 390.831C273.077 390.274 269.911 388.716 267.386 386.355C264.861 383.994 263.091 380.935 262.3 377.564C261.509 374.194 261.733 370.665 262.942 367.422C264.151 364.179 266.292 361.369 269.094 359.346C271.897 357.324 275.234 356.18 278.684 356.059C283.31 355.898 287.811 357.586 291.197 360.752C294.582 363.918 296.574 368.303 296.736 372.942Z" fill="black"/>
</g>
<path d="M297.254 373.659C297.371 377.071 296.477 380.441 294.685 383.343C292.893 386.246 290.284 388.551 287.186 389.967C284.089 391.382 280.642 391.846 277.282 391.298C273.922 390.751 270.799 389.217 268.308 386.89C265.817 384.563 264.069 381.548 263.286 378.226C262.503 374.904 262.719 371.423 263.908 368.224C265.096 365.025 267.204 362.251 269.963 360.253C272.723 358.255 276.012 357.121 279.414 356.996C283.981 356.841 288.423 358.508 291.767 361.631C295.111 364.754 297.084 369.079 297.254 373.659Z" fill="#FFCA41"/>
<g opacity="0.2">
<path d="M297.254 373.659C297.371 377.071 296.477 380.441 294.685 383.343C292.893 386.246 290.284 388.551 287.186 389.967C284.089 391.382 280.642 391.846 277.282 391.298C273.922 390.751 270.799 389.217 268.308 386.89C265.817 384.563 264.069 381.548 263.286 378.226C262.503 374.904 262.719 371.423 263.908 368.224C265.096 365.025 267.204 362.251 269.963 360.253C272.723 358.255 276.012 357.121 279.414 356.996C283.981 356.841 288.423 358.508 291.767 361.631C295.111 364.754 297.084 369.079 297.254 373.659Z" fill="white"/>
</g>
<path d="M280.679 372.738L280.522 368.322C281.326 368.396 282.118 368.573 282.877 368.85C283.267 369.036 283.64 369.258 283.991 369.511L284.046 369.369L284.674 367.756L284.815 367.386L284.031 366.599L283.662 366.787C282.652 366.306 281.554 366.038 280.436 366L280.357 363.568L279.573 362.986V363.592L278.537 363.631L278.623 366.103C275.224 366.551 273.678 368.558 273.757 370.786C273.867 373.832 276.488 374.524 278.929 375.028L279.086 379.404C277.499 379.331 275.964 378.81 274.659 377.901L273.757 380.144C275.356 381.218 277.24 381.786 279.164 381.773L279.227 383.607L278.38 383.647L279.251 384.198L281.04 384.135L280.954 381.687C284.368 381.215 285.938 379.231 285.859 377.004C285.789 373.918 283.12 373.242 280.679 372.738ZM278.874 372.344C277.595 372.014 276.637 371.557 276.598 370.518C276.559 369.479 277.194 368.747 278.733 368.448L278.874 372.344ZM280.907 379.263L280.766 375.39C282.092 375.713 283.065 376.177 283.12 377.256C283.136 378.2 282.484 378.964 280.907 379.263Z" fill="#FFCA41"/>
<g opacity="0.3">
<path d="M280.679 372.738L280.522 368.322C281.326 368.396 282.118 368.573 282.877 368.85C283.267 369.036 283.64 369.258 283.991 369.511L284.046 369.369L284.674 367.756L284.815 367.386L284.031 366.599L283.662 366.787C282.652 366.306 281.554 366.038 280.436 366L280.357 363.568L279.573 362.986V363.592L278.537 363.631L278.623 366.103C275.224 366.551 273.678 368.558 273.757 370.786C273.867 373.832 276.488 374.524 278.929 375.028L279.086 379.404C277.499 379.331 275.964 378.81 274.659 377.901L273.757 380.144C275.356 381.218 277.24 381.786 279.164 381.773L279.227 383.607L278.38 383.647L279.251 384.198L281.04 384.135L280.954 381.687C284.368 381.215 285.938 379.231 285.859 377.004C285.789 373.918 283.12 373.242 280.679 372.738ZM278.874 372.344C277.595 372.014 276.637 371.557 276.598 370.518C276.559 369.479 277.194 368.747 278.733 368.448L278.874 372.344ZM280.907 379.263L280.766 375.39C282.092 375.713 283.065 376.177 283.12 377.256C283.136 378.2 282.484 378.964 280.907 379.263Z" fill="black"/>
</g>
<path d="M280.196 381.113L280.282 383.56L278.493 383.623L278.407 381.199C276.482 381.215 274.597 380.647 272.999 379.57L273.902 377.327C275.207 378.235 276.741 378.757 278.328 378.83L278.171 374.454C275.73 373.95 273.109 373.258 272.999 370.212C272.92 367.976 274.467 365.977 277.865 365.489L277.842 363.01L279.631 362.947L279.71 365.371C281.278 365.384 282.819 365.79 284.191 366.552L283.406 368.795C282.3 368.196 281.081 367.837 279.827 367.74L279.984 372.156C282.425 372.667 285.094 373.336 285.196 376.382C285.204 378.618 283.634 380.601 280.196 381.113ZM278.085 371.809L277.944 367.913C276.374 368.204 275.777 369.015 275.809 369.983C275.84 370.951 276.829 371.439 278.108 371.77L278.085 371.809ZM282.315 376.721C282.276 375.65 281.303 375.147 279.961 374.855L280.102 378.728C281.766 378.389 282.37 377.626 282.339 376.681L282.315 376.721Z" fill="#FFCA41"/>
<path d="M274.583 371.951C274.371 371.837 274.192 371.668 274.065 371.463C273.709 370.992 273.516 370.417 273.516 369.826C273.516 369.235 273.709 368.66 274.065 368.189C274.196 367.984 274.377 367.816 274.591 367.701C274.591 367.701 274.403 367.897 274.167 368.26C273.85 368.723 273.68 369.272 273.68 369.834C273.68 370.396 273.85 370.945 274.167 371.408C274.395 371.754 274.607 371.927 274.583 371.951Z" fill="white"/>
<path d="M278.244 365.111C278.197 365.111 278.15 364.796 278.134 364.395C278.098 364.152 278.12 363.904 278.197 363.671C278.286 363.898 278.324 364.143 278.307 364.387C278.342 364.63 278.321 364.878 278.244 365.111Z" fill="white"/>
<path d="M280.24 355.556C280.055 355.566 279.869 355.566 279.683 355.556H279.024C278.765 355.556 278.474 355.556 278.153 355.556C277.831 355.556 277.485 355.556 277.109 355.634C276.732 355.713 276.324 355.737 275.908 355.8C275 355.959 274.106 356.186 273.231 356.477C272.36 356.776 271.51 357.136 270.688 357.555C270.32 357.752 269.959 357.941 269.637 358.145C269.315 358.35 269.017 358.531 268.75 358.712C268.483 358.893 268.255 359.074 268.051 359.223C267.847 359.373 267.667 359.515 267.533 359.625C267.392 359.75 267.242 359.865 267.086 359.971C267.208 359.829 267.342 359.697 267.486 359.578C267.646 359.425 267.814 359.28 267.989 359.145C268.193 358.987 268.412 358.798 268.679 358.617C268.946 358.436 269.236 358.224 269.566 358.027C269.896 357.83 270.241 357.618 270.618 357.413C271.443 356.985 272.298 356.617 273.176 356.311C274.06 356.018 274.966 355.794 275.884 355.642C276.308 355.579 276.716 355.516 277.093 355.493C277.47 355.469 277.831 355.445 278.153 355.438C278.474 355.43 278.765 355.438 279.024 355.438L279.683 355.477C279.871 355.484 280.058 355.51 280.24 355.556Z" fill="white"/>
<path d="M322.18 394.102C328.274 394.043 333.167 389.042 333.109 382.93C333.05 376.819 328.063 371.912 321.968 371.97C315.874 372.029 310.981 377.031 311.04 383.143C311.098 389.254 316.086 394.161 322.18 394.102Z" fill="#FFCA41"/>
<g opacity="0.1">
<path d="M321.664 371.998C320.212 372.044 318.783 372.377 317.461 372.98C316.138 373.583 314.948 374.443 313.959 375.51C312.97 376.578 312.202 377.831 311.699 379.198C311.196 380.565 310.968 382.018 311.029 383.474C311.029 383.474 318.784 383.545 320.542 380.325C322.3 377.106 321.664 371.998 321.664 371.998Z" fill="white"/>
</g>
<path d="M330.248 382.592C330.306 384.257 329.87 385.902 328.995 387.319C328.12 388.735 326.846 389.859 325.333 390.548C323.821 391.237 322.138 391.461 320.499 391.19C318.86 390.919 317.337 390.166 316.125 389.027C314.913 387.887 314.065 386.413 313.69 384.79C313.314 383.167 313.428 381.469 314.016 379.91C314.603 378.352 315.639 377.004 316.992 376.037C318.345 375.07 319.954 374.527 321.614 374.478C323.831 374.41 325.985 375.225 327.603 376.746C329.221 378.267 330.172 380.37 330.248 382.592Z" fill="#FFCA41"/>
<g opacity="0.2">
<path d="M330.248 382.592C330.306 384.257 329.87 385.902 328.995 387.319C328.12 388.735 326.846 389.859 325.333 390.548C323.821 391.237 322.138 391.461 320.499 391.19C318.86 390.919 317.337 390.166 316.125 389.027C314.913 387.887 314.065 386.413 313.69 384.79C313.314 383.167 313.428 381.469 314.016 379.91C314.603 378.352 315.639 377.004 316.992 376.037C318.345 375.07 319.954 374.527 321.614 374.478C323.831 374.41 325.985 375.225 327.603 376.746C329.221 378.267 330.172 380.37 330.248 382.592Z" fill="black"/>
</g>
<path d="M330.501 382.931C330.559 384.571 330.13 386.191 329.27 387.587C328.41 388.983 327.156 390.091 325.667 390.772C324.178 391.453 322.521 391.676 320.906 391.413C319.291 391.15 317.79 390.412 316.593 389.293C315.396 388.174 314.557 386.725 314.181 385.127C313.806 383.53 313.912 381.857 314.485 380.32C315.058 378.783 316.072 377.451 317.4 376.492C318.729 375.533 320.31 374.991 321.946 374.934C324.137 374.86 326.268 375.66 327.872 377.159C329.475 378.658 330.421 380.734 330.501 382.931Z" fill="#FFCA41"/>
<g opacity="0.2">
<path d="M330.501 382.931C330.559 384.571 330.13 386.191 329.27 387.587C328.41 388.983 327.156 390.091 325.667 390.772C324.178 391.453 322.521 391.676 320.906 391.413C319.291 391.15 317.79 390.412 316.593 389.293C315.396 388.174 314.557 386.725 314.181 385.127C313.806 383.53 313.912 381.857 314.485 380.32C315.058 378.783 316.072 377.451 317.4 376.492C318.729 375.533 320.31 374.991 321.946 374.934C324.137 374.86 326.268 375.66 327.872 377.159C329.475 378.658 330.421 380.734 330.501 382.931Z" fill="white"/>
</g>
<path d="M322.539 382.49L322.468 380.373C322.858 380.402 323.241 380.486 323.606 380.625C323.793 380.713 323.972 380.819 324.14 380.939V380.876L324.446 380.089L324.509 379.908L324.156 379.538L323.975 379.625C323.484 379.387 322.95 379.253 322.405 379.231L322.358 378.067L321.989 377.783V378.082H321.495L321.534 379.271C319.91 379.483 319.18 380.444 319.18 381.522C319.227 382.978 320.49 383.316 321.66 383.56L321.738 385.662C320.975 385.626 320.238 385.375 319.611 384.938L319.18 386.016C319.948 386.531 320.853 386.805 321.778 386.803V387.685H321.362L321.785 387.944H322.641L322.602 386.772C324.242 386.543 324.996 385.591 324.956 384.521C324.996 383.057 323.716 382.734 322.539 382.49ZM321.676 382.301C321.056 382.144 320.6 381.931 320.585 381.427C320.569 380.924 320.867 380.569 321.605 380.428L321.676 382.301ZM322.641 385.623L322.578 383.765C323.214 383.922 323.685 384.143 323.701 384.662C323.716 385.182 323.41 385.481 322.649 385.623H322.641Z" fill="#FFCA41"/>
<g opacity="0.3">
<path d="M322.539 382.49L322.468 380.373C322.858 380.402 323.241 380.486 323.606 380.625C323.793 380.713 323.972 380.819 324.14 380.939V380.876L324.446 380.089L324.509 379.908L324.156 379.538L323.975 379.625C323.484 379.387 322.95 379.253 322.405 379.231L322.358 378.067L321.989 377.783V378.082H321.495L321.534 379.271C319.91 379.483 319.18 380.444 319.18 381.522C319.227 382.978 320.49 383.316 321.66 383.56L321.738 385.662C320.975 385.626 320.238 385.375 319.611 384.938L319.18 386.016C319.948 386.531 320.853 386.805 321.778 386.803V387.685H321.362L321.785 387.944H322.641L322.602 386.772C324.242 386.543 324.996 385.591 324.956 384.521C324.996 383.057 323.716 382.734 322.539 382.49ZM321.676 382.301C321.056 382.144 320.6 381.931 320.585 381.427C320.569 380.924 320.867 380.569 321.605 380.428L321.676 382.301ZM322.641 385.623L322.578 383.765C323.214 383.922 323.685 384.143 323.701 384.662C323.716 385.182 323.41 385.481 322.649 385.623H322.641Z" fill="black"/>
</g>
<path d="M322.322 386.496L322.361 387.669H321.498L321.459 386.504C320.534 386.509 319.629 386.234 318.861 385.717L319.293 384.639C319.917 385.081 320.655 385.335 321.419 385.371L321.349 383.269C320.172 383.025 318.916 382.687 318.861 381.223C318.822 380.152 319.567 379.192 321.215 378.98L321.168 377.791H322.032L322.071 378.956C322.824 378.963 323.563 379.158 324.221 379.523L323.829 380.601C323.297 380.314 322.712 380.14 322.11 380.089L322.189 382.214C323.358 382.458 324.637 382.781 324.692 384.245C324.716 385.316 323.962 386.268 322.322 386.496ZM321.302 382.026L321.239 380.152C320.454 380.294 320.195 380.687 320.211 381.144C320.227 381.601 320.69 381.9 321.302 382.026ZM323.335 384.387C323.335 383.867 322.848 383.647 322.212 383.489L322.275 385.347C323.036 385.205 323.366 384.835 323.366 384.387H323.335Z" fill="#FFCA41"/>
<path d="M319.608 382.112C319.508 382.053 319.422 381.972 319.357 381.876C319.189 381.648 319.098 381.372 319.098 381.089C319.101 380.806 319.192 380.531 319.357 380.302C319.423 380.208 319.509 380.13 319.608 380.073C319.608 380.073 319.521 380.168 319.404 380.341C319.251 380.575 319.172 380.849 319.176 381.128C319.174 381.407 319.253 381.68 319.404 381.915C319.521 382.017 319.616 382.104 319.608 382.112Z" fill="white"/>
<path d="M321.367 378.83C321.332 378.718 321.316 378.601 321.32 378.484C321.294 378.37 321.294 378.252 321.32 378.138C321.32 378.138 321.367 378.287 321.375 378.484C321.401 378.598 321.398 378.717 321.367 378.83Z" fill="white"/>
<path d="M322.334 374.233H321.745C321.607 374.226 321.468 374.226 321.329 374.233C321.172 374.233 321.007 374.233 320.827 374.273C320.646 374.312 320.45 374.32 320.246 374.351C319.812 374.427 319.385 374.535 318.967 374.674C318.546 374.815 318.136 374.988 317.742 375.194C317.562 375.288 317.389 375.375 317.232 375.477L316.808 375.752C316.683 375.831 316.573 375.918 316.471 375.996L316.22 376.185C316.156 376.248 316.085 376.304 316.008 376.351C316.07 376.284 316.135 376.221 316.204 376.162L316.447 375.957C316.542 375.878 316.651 375.792 316.777 375.705C316.903 375.619 317.044 375.516 317.201 375.414C317.358 375.312 317.523 375.225 317.703 375.123C318.1 374.916 318.512 374.74 318.935 374.595C319.361 374.456 319.797 374.349 320.238 374.273L320.819 374.202H321.329C321.468 374.194 321.607 374.194 321.745 374.202H322.059L322.334 374.233Z" fill="white"/>
<path d="M159.842 391.211C164.779 391.211 168.782 387.197 168.782 382.246C168.782 377.295 164.779 373.281 159.842 373.281C154.905 373.281 150.902 377.295 150.902 382.246C150.902 387.197 154.905 391.211 159.842 391.211Z" fill="#FFCA41"/>
<path d="M210.455 355.351C215.392 355.351 219.395 351.337 219.395 346.386C219.395 341.435 215.392 337.421 210.455 337.421C205.518 337.421 201.516 341.435 201.516 346.386C201.516 351.337 205.518 355.351 210.455 355.351Z" fill="#FFCA41"/>
<path d="M376.572 279.768C381.51 279.768 385.512 275.754 385.512 270.803C385.512 265.852 381.51 261.838 376.572 261.838C371.635 261.838 367.633 265.852 367.633 270.803C367.633 275.754 371.635 279.768 376.572 279.768Z" fill="#FFCA41"/>
<path d="M261.879 174.621C264.418 173.095 267.147 171.912 269.995 171.103L271.62 163.091L285.127 162.854L287.066 170.804C289.928 171.512 292.684 172.599 295.26 174.039L302.088 169.553L311.797 178.998L307.574 185.995C309.095 188.527 310.274 191.251 311.083 194.094L319.072 195.762L319.308 209.3L311.381 211.252C310.674 214.123 309.589 216.886 308.155 219.469L312.629 226.309L303.25 236.053L296.272 231.811C293.75 233.342 291.033 234.525 288.196 235.329L286.532 243.342L273.032 243.586L271.086 235.628C268.234 234.907 265.491 233.806 262.931 232.354L256.111 236.84L246.394 227.395L250.624 220.406C249.099 217.876 247.919 215.152 247.116 212.307L239.118 210.638L238.883 197.093L246.81 195.148C247.515 192.278 248.6 189.514 250.036 186.931L245.562 180.084L254.941 170.34L261.919 174.582L261.879 174.621ZM269.084 192.661C267.094 194.729 265.759 197.342 265.25 200.17C264.74 202.998 265.078 205.914 266.221 208.549C267.364 211.184 269.261 213.42 271.671 214.975C274.082 216.529 276.898 217.331 279.763 217.281C282.628 217.23 285.414 216.329 287.768 214.69C290.122 213.052 291.939 210.75 292.989 208.076C294.039 205.402 294.274 202.476 293.665 199.667C293.057 196.859 291.631 194.295 289.569 192.299C288.201 190.973 286.586 189.931 284.815 189.231C283.045 188.532 281.155 188.189 279.252 188.223C277.35 188.257 275.472 188.666 273.728 189.427C271.983 190.189 270.405 191.288 269.084 192.661Z" fill="#E0E0E0"/>
<path d="M309.238 121.084C310.707 120.185 312.291 119.488 313.947 119.014L314.92 114.331L322.808 114.189L323.946 118.833C325.616 119.248 327.223 119.883 328.726 120.722L332.784 118.117L338.458 123.627L335.923 127.672C336.813 129.148 337.502 130.736 337.971 132.395L342.641 133.371L342.783 141.241L338.152 142.383C337.739 144.057 337.105 145.669 336.268 147.176L338.905 151.285L333.411 156.975L329.354 154.433C327.882 155.325 326.299 156.016 324.644 156.487L323.671 161.21L315.783 161.351L314.645 156.708C312.976 156.293 311.368 155.658 309.865 154.819L305.878 157.44L300.204 151.93L302.676 147.845C301.786 146.37 301.097 144.781 300.628 143.123L295.958 142.147L295.816 134.236L300.447 133.095C300.861 131.421 301.494 129.809 302.331 128.302L299.717 124.303L305.211 118.613L309.293 121.092L309.238 121.084ZM313.468 131.608C312.307 132.815 311.528 134.341 311.232 135.992C310.935 137.644 311.133 139.346 311.801 140.884C312.469 142.423 313.577 143.728 314.984 144.635C316.391 145.542 318.035 146.01 319.708 145.981C321.381 145.951 323.008 145.425 324.382 144.468C325.757 143.512 326.817 142.168 327.431 140.607C328.044 139.046 328.182 137.337 327.827 135.698C327.472 134.058 326.64 132.561 325.437 131.395C323.82 129.834 321.653 128.98 319.409 129.02C317.165 129.06 315.029 129.991 313.468 131.608Z" fill="#E0E0E0"/>
<path d="M276.843 130.033C278.271 129.672 279.563 128.897 280.556 127.806C281.55 126.714 282.202 125.354 282.431 123.894C283.145 119.778 280.602 115.897 276.756 115.236C272.91 114.575 269.214 117.346 268.507 121.462C268.23 122.927 268.392 124.442 268.973 125.815C269.554 127.188 270.528 128.358 271.772 129.175C260.784 128.979 259.285 140.753 259.285 140.753L284.628 145.169C284.628 145.169 287.203 133.449 276.843 130.033Z" fill="#455A64"/>
<path d="M363.188 152.938C364.08 152.003 364.681 150.827 364.916 149.555C365.152 148.283 365.012 146.969 364.515 145.775C364.252 144.959 363.825 144.205 363.259 143.562C362.693 142.918 362 142.399 361.225 142.036C360.45 141.673 359.608 141.474 358.753 141.451C357.898 141.429 357.047 141.584 356.254 141.906C355.461 142.228 354.743 142.711 354.144 143.324C353.545 143.937 353.079 144.667 352.775 145.469C352.47 146.271 352.334 147.127 352.374 147.984C352.414 148.842 352.63 149.681 353.009 150.451C353.481 151.671 354.304 152.724 355.372 153.476C356.441 154.228 357.708 154.646 359.013 154.677C350.717 159.644 355.089 169.112 355.089 169.112L376.029 160.612C376.029 160.612 372.489 150.655 363.188 152.938Z" fill="#FFCA41"/>
<path d="M356.735 185.11L349.902 183.543L346.821 197.055L353.654 198.621L356.735 185.11Z" fill="#455A64"/>
<path d="M345.543 188.112L338.711 186.545L336.839 194.755L343.671 196.322L345.543 188.112Z" fill="#455A64"/>
<path d="M368.125 180.405L361.293 178.838L356.627 199.302L363.459 200.868L368.125 180.405Z" fill="#455A64"/>
<path d="M207.129 209.781L256.764 289.528L267.838 333.746H284.995V211.103L207.129 209.781Z" fill="#FFCA41"/>
<path d="M273.316 211.103V333.746H290.466L301.54 289.528L351.183 209.781L273.316 211.103Z" fill="#FFCA41"/>
<path d="M349.385 219.013H209.239C207.158 219.013 205.161 218.184 203.689 216.708C202.218 215.232 201.391 213.23 201.391 211.142C201.401 209.058 202.231 207.062 203.701 205.588C205.171 204.114 207.161 203.282 209.239 203.271H349.385C351.47 203.271 353.47 204.099 354.948 205.574C356.427 207.049 357.262 209.051 357.273 211.142C357.273 212.179 357.068 213.206 356.671 214.163C356.275 215.121 355.693 215.99 354.96 216.722C354.227 217.453 353.357 218.032 352.4 218.425C351.444 218.819 350.419 219.018 349.385 219.013Z" fill="#FFCA41"/>
<path d="M351.182 219.296C351.182 219.407 319.34 219.501 280.081 219.501C240.822 219.501 208.973 219.407 208.973 219.296C208.973 219.186 240.799 219.092 280.081 219.092C319.364 219.092 351.182 219.178 351.182 219.296Z" fill="#263238"/>
<g opacity="0.2">
<path d="M223.047 221.335L267.973 288.67L273.655 333.746H276.928L277.54 288.371L249.081 221.335H223.047Z" fill="white"/>
</g>
<path d="M293.101 289.528C293.101 289.638 285.143 289.733 275.332 289.733C265.521 289.733 257.555 289.638 257.555 289.528C257.555 289.418 265.513 289.323 275.332 289.323C285.151 289.323 293.101 289.418 293.101 289.528Z" fill="#263238"/>
</g>
<defs>
<clipPath id="clip0_1208_1330">
<rect width="535" height="445" fill="white"/>
</clipPath>
</defs>
</svg>
