<svg width="25" height="24" viewBox="0 0 25 24" fill="none" xmlns="http://www.w3.org/2000/svg">
<path d="M12.5 2V3M3.5 12H2.5M6 5.5L5.3999 4.8999M19 5.5L19.6002 4.8999M22.5 12H21.5M10.5 13.5H14.5M12.5 13.5V18.5M16 16.874C17.5141 15.7848 18.5 14.0075 18.5 12C18.5 8.68629 15.8137 6 12.5 6C9.18629 6 6.5 8.68629 6.5 12C6.5 14.0075 7.48593 15.7848 9 16.874V18.8C9 19.9201 9 20.4802 9.21799 20.908C9.40973 21.2843 9.71569 21.5903 10.092 21.782C10.5198 22 11.0799 22 12.2 22H12.8C13.9201 22 14.4802 22 14.908 21.782C15.2843 21.5903 15.5903 21.2843 15.782 20.908C16 20.4802 16 19.9201 16 18.8V16.874Z" stroke="white" stroke-width="1.5" stroke-linecap="round" stroke-linejoin="round"/>
</svg>
