<svg width="25" height="24" viewBox="0 0 25 24" fill="none" xmlns="http://www.w3.org/2000/svg">
<path d="M14.244 2.63346L21.772 7.52667C22.038 7.69957 22.171 7.78602 22.2674 7.90134C22.3527 8.00342 22.4167 8.12149 22.4558 8.24865C22.5 8.39229 22.5 8.55092 22.5 8.86818V16.1999C22.5 17.88 22.5 18.7201 22.173 19.3619C21.8854 19.9263 21.4265 20.3853 20.862 20.6729C20.2202 20.9999 19.3802 20.9999 17.7 20.9999H7.3C5.61984 20.9999 4.77976 20.9999 4.13803 20.6729C3.57354 20.3853 3.1146 19.9263 2.82698 19.3619C2.5 18.7201 2.5 17.88 2.5 16.1999V8.86818C2.5 8.55092 2.5 8.39229 2.54417 8.24865C2.58327 8.12149 2.64735 8.00342 2.73265 7.90134C2.82901 7.78602 2.96201 7.69957 3.22802 7.52667L10.756 2.63346M14.244 2.63346C13.6127 2.22315 13.2971 2.01799 12.957 1.93817C12.6564 1.86761 12.3436 1.86761 12.043 1.93817C11.7029 2.01799 11.3873 2.22315 10.756 2.63346M14.244 2.63346L21.4681 7.32913C21.812 7.55268 21.984 7.66445 22.0435 7.8062C22.0956 7.93008 22.0956 8.06969 22.0435 8.19356C21.984 8.33531 21.812 8.44709 21.4681 8.67064L14.244 13.3663C13.6127 13.7766 13.2971 13.9818 12.957 14.0616C12.6564 14.1321 12.3436 14.1321 12.043 14.0616C11.7029 13.9818 11.3873 13.7766 10.756 13.3663L3.53193 8.67064C3.18801 8.44709 3.01604 8.33531 2.95649 8.19356C2.90444 8.06969 2.90444 7.93008 2.95649 7.8062C3.01604 7.66445 3.18801 7.55268 3.53193 7.32913L10.756 2.63346" stroke="white" stroke-width="1.5" stroke-linecap="round" stroke-linejoin="round"/>
</svg>
