<svg width="25" height="24" viewBox="0 0 25 24" fill="none" xmlns="http://www.w3.org/2000/svg">
<path d="M12.5 16V21M12.5 16L18.5 21M12.5 16L6.5 21M21.5 3V11.2C21.5 12.8802 21.5 13.7202 21.173 14.362C20.8854 14.9265 20.4265 15.3854 19.862 15.673C19.2202 16 18.3802 16 16.7 16H8.3C6.61984 16 5.77976 16 5.13803 15.673C4.57354 15.3854 4.1146 14.9265 3.82698 14.362C3.5 13.7202 3.5 12.8802 3.5 11.2V3M8.5 9V12M12.5 7V12M16.5 11V12M22.5 3H2.5" stroke="white" stroke-width="1.5" stroke-linecap="round" stroke-linejoin="round"/>
</svg>
