<svg width="25" height="24" viewBox="0 0 25 24" fill="none" xmlns="http://www.w3.org/2000/svg">
<path d="M8 4.5C8 3.11929 9.11929 2 10.5 2C11.8807 2 13 3.11929 13 4.5V6H14C15.3978 6 16.0967 6 16.6481 6.22836C17.3831 6.53284 17.9672 7.11687 18.2716 7.85195C18.5 8.40326 18.5 9.10218 18.5 10.5H20C21.3807 10.5 22.5 11.6193 22.5 13C22.5 14.3807 21.3807 15.5 20 15.5H18.5V17.2C18.5 18.8802 18.5 19.7202 18.173 20.362C17.8854 20.9265 17.4265 21.3854 16.862 21.673C16.2202 22 15.3802 22 13.7 22H13V20.25C13 19.0074 11.9926 18 10.75 18C9.50736 18 8.5 19.0074 8.5 20.25V22H7.3C5.61984 22 4.77976 22 4.13803 21.673C3.57354 21.3854 3.1146 20.9265 2.82698 20.362C2.5 19.7202 2.5 18.8802 2.5 17.2V15.5H4C5.38071 15.5 6.5 14.3807 6.5 13C6.5 11.6193 5.38071 10.5 4 10.5H2.5C2.5 9.10218 2.5 8.40326 2.72836 7.85195C3.03284 7.11687 3.61687 6.53284 4.35195 6.22836C4.90326 6 5.60218 6 7 6H8V4.5Z" stroke="white" stroke-width="1.5" stroke-linecap="round" stroke-linejoin="round"/>
</svg>
