<svg width="25" height="24" viewBox="0 0 25 24" fill="none" xmlns="http://www.w3.org/2000/svg">
<g clip-path="url(#clip0_1295_399)">
<path d="M18.302 8.55985C18.302 8.55985 16.356 14.6628 16.197 15.1668C15.707 11.3419 15.2123 7.51758 14.713 3.69385C11.397 3.69385 9.624 6.05385 8.687 8.54485L6.122 15.1818C6.107 14.7058 5.762 8.61685 5.762 8.61685C5.558 5.56485 2.762 3.70685 0.5 3.70685L3.239 20.3068C6.713 20.2918 8.586 17.9458 9.567 15.4548C9.567 15.4548 11.657 10.0568 11.743 9.81185C11.758 10.0418 13.243 20.3058 13.243 20.3058C16.731 20.3058 18.605 18.1038 19.613 15.6998L24.5 3.70785C21.055 3.70785 19.239 6.05385 18.302 8.55885V8.55985Z" fill="white"/>
</g>
<defs>
<clipPath id="clip0_1295_399">
<rect width="24" height="24" fill="white" transform="translate(0.5)"/>
</clipPath>
</defs>
</svg>
