<svg width="22" height="22" viewBox="0 0 22 22" fill="none" xmlns="http://www.w3.org/2000/svg">
<path d="M1.53151 10.3252C1.78964 10.38 2.20533 10.4485 2.60426 10.5615C3.40882 10.7875 4.1765 11.1197 4.92742 11.4861C5.56101 11.7977 6.19125 12.1127 6.82149 12.4312C7.21371 12.6298 7.29752 12.51 7.50537 12.2703C7.7702 11.9655 8.02498 11.6504 8.28646 11.3423C8.64181 10.9211 8.99716 10.5033 9.3525 10.0855C9.55029 9.85606 9.74808 9.62663 9.95257 9.40062C10.4655 8.83902 10.9784 8.28084 11.4946 7.72267C11.8768 7.30832 12.2556 6.89397 12.6411 6.48304C13.1004 5.99335 13.5597 5.50366 14.0324 5.02767C14.5754 4.47977 15.1219 3.93187 15.6851 3.41136C16.7042 2.46623 17.7535 1.55192 18.9167 0.788277C19.4263 0.452687 19.9593 0.175311 20.556 0.0417596C20.8577 -0.0267282 21.1628 -0.016455 21.4444 0.113672C21.9807 0.360228 22.202 0.867038 21.7763 1.42179C21.612 1.6341 21.431 1.83957 21.2466 2.03133C20.8544 2.44226 20.4554 2.84634 20.0565 3.25041C19.6676 3.64079 19.262 4.01748 18.8832 4.42156C18.2999 5.0448 17.7166 5.67146 17.1601 6.32209C16.1477 7.50351 15.2023 8.74314 14.3207 10.0273C13.5597 11.1299 12.8356 12.2566 12.1886 13.4346C11.7796 14.1845 11.3673 14.931 10.9717 15.6878C10.6499 16.3008 10.3247 16.9103 10.0364 17.5404C9.60728 18.4753 9.20835 19.4204 8.80272 20.3655C8.6217 20.7833 8.45743 21.2079 8.27976 21.6257C8.19595 21.8209 8.07191 21.9681 7.8406 21.9955C7.59588 22.0229 7.42156 21.9236 7.30088 21.7182C6.98911 21.1805 6.6874 20.636 6.37228 20.0984C6.01358 19.482 5.66494 18.8622 5.27942 18.2629C4.73634 17.424 4.1765 16.5987 3.5999 15.7871C3.28478 15.3317 2.94619 14.9036 2.58079 14.503C1.89356 13.7496 1.17951 13.0168 0.478876 12.2805C0.371602 12.1675 0.247565 12.0682 0.1537 11.9449C-0.10443 11.5922 -0.0139168 11.1436 0.250918 10.8217C0.542571 10.4656 0.934794 10.3389 1.53151 10.3252Z" fill="#FFCA41"/>
</svg>
