<svg width="130" height="98" viewBox="0 0 130 98" fill="none" xmlns="http://www.w3.org/2000/svg">
<path d="M64.28 24.4697H64.24V24.6397H64.28V24.4697Z" fill="#AA5F21"/>
<path d="M97.11 78.13C97.11 82.15 93.85 85.41 89.83 85.41H12.27C8.26002 85.41 5 82.15 5 78.13V19.27C5 15.25 8.26002 12 12.27 12H89.84C93.86 12 97.12 15.26 97.12 19.27V78.13H97.11Z" fill="#939393"/>
<path d="M94.0899 76.58C94.0899 80.88 92.68 82.29 88.39 82.29H13.6599C9.35994 82.29 7.94995 80.88 7.94995 76.58V26.5H94.08V76.58H94.0899Z" fill="white"/>
<path d="M14.5601 19.7499C14.5601 21.4699 13.1601 22.8699 11.4401 22.8699C9.72006 22.8699 8.32007 21.4799 8.32007 19.7499C8.32007 18.0299 9.71006 16.6299 11.4401 16.6299C13.1701 16.6299 14.5601 18.0299 14.5601 19.7499Z" fill="#F5F5F5"/>
<path d="M24.3501 19.7499C24.3501 21.4699 22.9501 22.8699 21.2301 22.8699C19.5101 22.8699 18.1101 21.4799 18.1101 19.7499C18.1101 18.0299 19.5101 16.6299 21.2301 16.6299C22.9501 16.6299 24.3501 18.0299 24.3501 19.7499Z" fill="white"/>
<path d="M34.1399 19.7499C34.1399 21.4699 32.7399 22.8699 31.0199 22.8699C29.2999 22.8699 27.8999 21.4799 27.8999 19.7499C27.8999 18.0299 29.2899 16.6299 31.0199 16.6299C32.7399 16.6299 34.1399 18.0299 34.1399 19.7499Z" fill="#F5F5F5"/>
<path d="M93.9 17.3198H43.49V21.6498H93.9V17.3198Z" fill="white"/>
<path d="M47.1301 34.1299H11.6201V69.6399H47.1301V34.1299Z" fill="#FFCA41"/>
<path d="M65.2401 34.6099H54.4901C53.0099 34.6099 51.8101 35.8097 51.8101 37.2899C51.8101 38.77 53.0099 39.9699 54.4901 39.9699H65.2401C66.7202 39.9699 67.9201 38.77 67.9201 37.2899C67.9201 35.8097 66.7202 34.6099 65.2401 34.6099Z" fill="#020500"/>
<path d="M85.94 34.4297H75.19C73.7099 34.4297 72.51 35.6296 72.51 37.1097C72.51 38.5898 73.7099 39.7897 75.19 39.7897H85.94C87.4201 39.7897 88.62 38.5898 88.62 37.1097C88.62 35.6296 87.4201 34.4297 85.94 34.4297Z" fill="#020500"/>
<path d="M87.25 45.73H53.09C52.4769 45.73 51.98 46.2269 51.98 46.84C51.98 47.453 52.4769 47.95 53.09 47.95H87.25C87.863 47.95 88.36 47.453 88.36 46.84C88.36 46.2269 87.863 45.73 87.25 45.73Z" fill="#020500"/>
<path d="M87.255 51.9902H53.085C52.4747 51.9902 51.98 52.485 51.98 53.0952C51.98 53.7055 52.4747 54.2002 53.085 54.2002H87.255C87.8653 54.2002 88.36 53.7055 88.36 53.0952C88.36 52.485 87.8653 51.9902 87.255 51.9902Z" fill="#020500"/>
<path d="M75.3001 58.9902H52.9201C52.307 58.9902 51.8101 59.4872 51.8101 60.1002C51.8101 60.7133 52.307 61.2102 52.9201 61.2102H75.3001C75.9131 61.2102 76.4101 60.7133 76.4101 60.1002C76.4101 59.4872 75.9131 58.9902 75.3001 58.9902Z" fill="#020500"/>
<path d="M83.1851 65.1699H52.9951C52.3849 65.1699 51.8901 65.6647 51.8901 66.2749C51.8901 66.8852 52.3849 67.3799 52.9951 67.3799H83.1851C83.7954 67.3799 84.2901 66.8852 84.2901 66.2749C84.2901 65.6647 83.7954 65.1699 83.1851 65.1699Z" fill="#020500"/>
<path d="M46.185 73.1001H12.925C12.3975 73.1001 11.97 73.5277 11.97 74.0551C11.97 74.5825 12.3975 75.0101 12.925 75.0101H46.185C46.7124 75.0101 47.14 74.5825 47.14 74.0551C47.14 73.5277 46.7124 73.1001 46.185 73.1001Z" fill="#020500"/>
</svg>
