<svg width="329" height="348" viewBox="0 0 329 348" fill="none" xmlns="http://www.w3.org/2000/svg">
<path d="M191.643 280.284H92.7248C63.2935 280.284 39.425 256.39 39.425 226.928V134.282C39.425 104.819 63.2935 80.9253 92.7248 80.9253H191.643C221.074 80.9253 244.943 104.819 244.943 134.282V226.928C244.943 256.39 221.074 280.284 191.643 280.284Z" fill="#FFCB2D" stroke="black" stroke-width="2" stroke-miterlimit="10"/>
<path d="M124.808 133.651L174.663 170.285C181.617 175.4 181.617 185.793 174.663 190.909L124.808 227.543C116.367 233.743 104.465 227.705 104.465 217.231V143.963C104.481 133.489 116.383 127.451 124.808 133.651Z" fill="black" stroke="black" stroke-width="2" stroke-miterlimit="10"/>
<path d="M303.822 269.033H273.776V297.153H303.822V269.033Z" fill="#FFCB2D"/>
<path d="M244.619 297.169H15.9285V325.288H244.619V297.169Z" fill="#FFCB2D"/>
<path d="M14.7965 252.424H9.67029V261.15H14.7965V252.424Z" fill="black"/>
<path d="M75.5026 252.424H70.3764V261.15H75.5026V252.424Z" fill="black"/>
<path d="M136.193 252.424H131.066V261.15H136.193V252.424Z" fill="black"/>
<path d="M196.899 252.424H191.772V261.15H196.899V252.424Z" fill="black"/>
<path d="M257.589 252.424H252.462V261.15H257.589V252.424Z" fill="black"/>
<path d="M318.295 252.424H313.169V261.15H318.295V252.424Z" fill="black"/>
<path d="M14.7965 338.983H9.67029V347.709H14.7965V338.983Z" fill="black"/>
<path d="M75.5026 338.983H70.3764V347.709H75.5026V338.983Z" fill="black"/>
<path d="M136.193 338.983H131.066V347.709H136.193V338.983Z" fill="black"/>
<path d="M196.899 338.983H191.772V347.709H196.899V338.983Z" fill="black"/>
<path d="M257.589 338.983H252.462V347.709H257.589V338.983Z" fill="black"/>
<path d="M318.295 338.983H313.169V347.709H318.295V338.983Z" fill="black"/>
<path d="M319.702 268.224H0V269.843H319.702V268.224Z" fill="black"/>
<path d="M319.702 296.359H0V297.978H319.702V296.359Z" fill="black"/>
<path d="M319.702 324.478H0V326.097H319.702V324.478Z" fill="black"/>
<path d="M172.561 252.424L164.395 260.583L156.245 252.424H172.561Z" fill="#E23B60"/>
<path d="M164.398 288.966L156.245 297.128L164.398 305.29L172.551 297.128L164.398 288.966Z" fill="#E23B60"/>
<path d="M165.203 256.034H163.586V348H165.203V256.034Z" fill="#E23B60"/>
<path d="M63.4552 5.27739C50.8418 5.27739 40.6217 15.5084 40.6217 28.1353C40.6217 40.7622 50.8418 50.9932 63.4552 50.9932C76.0686 50.9932 86.2887 40.7622 86.2887 28.1353C86.3049 15.5084 76.0686 5.27739 63.4552 5.27739ZM63.4552 38.7386C57.6013 38.7386 52.8632 33.9954 52.8632 28.1353C52.8632 22.2751 57.6013 17.5319 63.4552 17.5319C69.3091 17.5319 74.0472 22.2751 74.0472 28.1353C74.0472 33.9954 69.3091 38.7386 63.4552 38.7386Z" fill="#FFBD52"/>
<path d="M310.371 134.962C305.924 134.962 302.318 138.572 302.318 143.024C302.318 147.475 305.924 151.085 310.371 151.085C314.818 151.085 318.424 147.475 318.424 143.024C318.424 138.572 314.818 134.962 310.371 134.962ZM310.371 146.763C308.301 146.763 306.635 145.096 306.635 143.024C306.635 140.952 308.301 139.284 310.371 139.284C312.441 139.284 314.106 140.952 314.106 143.024C314.106 145.096 312.441 146.763 310.371 146.763Z" fill="#FFBD52"/>
<path d="M156.433 13.2871L151.219 18.5068L172.053 39.3628L177.267 34.1431L156.433 13.2871Z" fill="black"/>
<path d="M151.227 34.1546L156.441 39.3743L177.274 18.5183L172.06 13.2986L151.227 34.1546Z" fill="black"/>
<path d="M185.628 130.19L185.107 131.722L264.384 158.744L264.906 157.211L185.628 130.19Z" fill="black"/>
<path d="M319.835 64.2135L292.894 143.422L294.425 143.944L321.366 64.7352L319.835 64.2135Z" fill="black"/>
<path d="M227.343 7.57426L226.822 9.10664L306.099 36.128L306.621 34.5956L227.343 7.57426Z" fill="black"/>
<path d="M197.344 22.4686L170.404 101.678L171.935 102.199L198.875 22.9903L197.344 22.4686Z" fill="black"/>
<path d="M220.97 6.331L205.387 1.01959L200.081 16.6193L215.664 21.9307L220.97 6.331Z" fill="black"/>
<path d="M216.175 22.9712L199.066 17.1434L204.887 0L221.996 5.82779L216.175 22.9712ZM201.119 16.1236L215.172 20.9153L219.959 6.84765L205.906 2.05591L201.119 16.1236Z" fill="black"/>
<path d="M184.602 113.267L169.019 107.956L163.713 123.556L179.296 128.867L184.602 113.267Z" fill="black"/>
<path d="M179.806 129.911L162.697 124.083L168.519 106.956L185.627 112.784L179.806 129.911ZM164.751 123.063L178.803 127.855L183.59 113.788L169.537 108.996L164.751 123.063Z" fill="black"/>
<path d="M327.967 42.8053L312.384 37.4939L307.078 53.0936L322.661 58.405L327.967 42.8053Z" fill="black"/>
<path d="M323.178 59.4273L306.069 53.5995L311.891 36.4723L329 42.3L323.178 59.4273ZM308.107 52.5958L322.16 57.3875L326.946 43.3199L312.894 38.5282L308.107 52.5958Z" fill="black"/>
<path d="M291.599 149.742L276.016 144.43L270.71 160.03L286.293 165.342L291.599 149.742Z" fill="black"/>
<path d="M286.81 166.367L269.701 160.539L275.522 143.412L292.631 149.24L286.81 166.367ZM271.738 159.52L285.791 164.311L290.578 150.244L276.525 145.452L271.738 159.52Z" fill="black"/>
</svg>
