<svg width="130" height="100" viewBox="0 0 130 100" fill="none" xmlns="http://www.w3.org/2000/svg">
<g clip-path="url(#clip0_279_1840)">
<path d="M116.75 69.2954C116.75 71.0196 115.354 72.4173 113.631 72.4173H37.1182C35.396 72.4173 34 71.0196 34 69.2954V27.0325C34 25.3026 35.396 23.9106 37.1182 23.9106H113.626C115.348 23.9106 116.744 25.3083 116.744 27.0325V69.2954H116.75Z" fill="#D8DBD7" stroke="#010200" stroke-width="3"/>
<path d="M116.75 61.3847C116.75 63.1089 115.354 64.5066 113.631 64.5066H37.1182C35.396 64.5066 34 63.1089 34 61.3847V19.1219C34 17.3977 35.396 16 37.1182 16H113.626C115.348 16 116.744 17.3977 116.744 19.1219V61.3847H116.75Z" fill="white" stroke="black" stroke-width="3" stroke-linecap="round" stroke-linejoin="round"/>
<path d="M110.765 21.0806H57.001C55.8964 21.0806 55.001 21.976 55.001 23.0806V38.0033C55.001 39.1079 55.8964 40.0033 57.001 40.0033H110.765C111.87 40.0033 112.765 39.1079 112.765 38.0033V23.0806C112.765 21.976 111.87 21.0806 110.765 21.0806Z" fill="#FFCA41"/>
<path d="M110.766 44.9834H41.0669C39.9623 44.9834 39.0669 45.8788 39.0669 46.9834V47.9631C39.0669 49.0676 39.9623 49.9631 41.0669 49.9631H110.766C111.871 49.9631 112.766 49.0676 112.766 47.9631V46.9834C112.766 45.8788 111.871 44.9834 110.766 44.9834Z" fill="#D8DBD7"/>
<path d="M110.766 52.9507H41.0669C39.9623 52.9507 39.0669 53.8461 39.0669 54.9507V55.9304C39.0669 57.0349 39.9623 57.9304 41.0669 57.9304H110.766C111.871 57.9304 112.766 57.0349 112.766 55.9304V54.9507C112.766 53.8461 111.871 52.9507 110.766 52.9507Z" fill="#D8DBD7"/>
<path d="M55.1475 35.2343C54.5326 35.3458 54.1274 35.9304 54.2419 36.5409C54.349 37.1527 54.9381 37.561 55.553 37.4496L62.7294 36.1486C63.3443 36.0372 63.7495 35.4525 63.6381 34.8376C63.5279 34.2302 62.9389 33.8219 62.3315 33.932L55.1475 35.2343Z" fill="#010200"/>
<path d="M52.176 31.7139C51.8274 32.2263 51.127 32.3571 50.6101 32.0055C50.0977 31.6569 49.9624 30.9534 50.3185 30.4396L54.447 24.4166C54.7956 23.9042 55.5005 23.7764 56.0129 24.125C56.5253 24.4736 56.6562 25.1741 56.3076 25.6865L52.176 31.7139Z" fill="#010200"/>
<path d="M45.9065 28.7573C46.021 29.3678 45.6127 29.9569 44.9978 30.0684C44.3904 30.1785 43.8058 29.7733 43.6912 29.1628L42.389 21.9789C42.2744 21.3684 42.6827 20.7793 43.2945 20.6723C43.9019 20.5622 44.491 20.9704 44.6011 21.5778L45.9065 28.7573Z" fill="#010200"/>
<path d="M50.0154 37.651C52.3983 39.3026 52.9954 42.5752 51.3408 44.9625L50.2726 46.5038L37.3218 37.5278L38.3901 35.9865C40.0416 33.6036 43.3142 33.0065 45.7015 34.6611L50.0154 37.651Z" fill="#FFCA41"/>
<path d="M26.0464 33.2867L22.7473 54.5454C22.5951 55.5218 22.2255 56.4524 21.6637 57.2629L13.5811 68.9248C12.1628 70.9711 12.6713 73.7757 14.7131 75.1908L22.8848 80.8545C24.9267 82.2697 27.7299 81.7538 29.1406 79.7089L37.1909 68.018C37.7452 67.2088 38.4899 66.5316 39.3507 66.0464L58.0911 55.4964L26.0464 33.2867Z" fill="#D8DBD7" stroke="#010200" stroke-width="3"/>
<path d="M61.4134 50.8744C62.2638 51.4638 62.479 52.6292 61.8865 53.484L60.7476 55.1272C60.1582 55.9776 58.9884 56.1897 58.138 55.6003L26.0135 33.3354C25.1631 32.746 24.951 31.5761 25.5404 30.7258L26.6793 29.0825C27.2718 28.2277 28.4385 28.0201 29.2889 28.6095L61.4134 50.8744Z" fill="white" stroke="black" stroke-width="3" stroke-linecap="round" stroke-linejoin="round"/>
<path d="M34.9306 69.1329L33.5952 71.0596L39.8403 75.3879C40.577 74.3249 40.312 72.8627 39.249 72.1259L34.9306 69.1329Z" fill="#010200"/>
<path d="M18.7477 80.5704C19.7266 81.2489 21.0689 81.0055 21.7473 80.0267L15.015 75.3607C14.3366 76.3395 14.5799 77.6818 15.5588 78.3602L18.7477 80.5704Z" fill="white" stroke="black" stroke-width="3" stroke-linecap="round" stroke-linejoin="round"/>
<path d="M52.6288 84.2579C53.9589 85.1863 54.2875 87.0205 53.3547 88.3475L51.9951 90.2902C51.0667 91.6203 49.2356 91.9445 47.9011 91.013L21.7386 72.7753L26.4619 66.0172L52.6288 84.2579Z" fill="#FFCA41" stroke="#010200" stroke-width="3" stroke-linecap="round" stroke-linejoin="round"/>
<path d="M21.6119 57.3381L13.5815 68.9247C12.1632 70.9709 12.6716 73.7755 14.7135 75.1907L22.8852 80.8544C24.927 82.2695 27.7303 81.7536 29.141 79.7087L37.136 68.0976L21.6119 57.3381Z" fill="white" stroke="black" stroke-width="3" stroke-linecap="round" stroke-linejoin="round"/>
</g>
<defs>
<clipPath id="clip0_279_1840">
<rect width="130" height="100" fill="white"/>
</clipPath>
</defs>
</svg>
