<svg width="130" height="100" viewBox="0 0 130 100" fill="none" xmlns="http://www.w3.org/2000/svg">
<rect x="24.7695" y="29.2637" width="27.4525" height="33.4728" fill="#939393"/>
<path d="M37.0836 18.9694C47.3542 18.9694 57.6248 18.9814 67.8955 18.9453C68.6299 18.9453 68.7624 19.15 68.7624 19.8363C68.7263 24.797 68.7383 29.7698 68.7624 34.7305C68.7624 35.3446 68.6059 35.465 68.0159 35.465C64.3314 35.4409 60.635 35.453 56.9385 35.453C53.9284 35.453 52.2668 37.0905 52.2547 40.0886C52.2427 41.979 52.2307 43.8814 52.2668 45.7717C52.2788 46.3497 52.0982 46.4821 51.5443 46.4701C50.0995 46.434 48.6546 46.4581 47.2097 46.4581C45.8612 46.446 45.3916 45.9764 45.3916 44.6159C45.3916 40.4257 45.3916 36.2356 45.3916 32.0455C45.3916 30.6608 44.9581 30.0106 44.031 29.9865C43.0798 29.9625 42.6223 30.6367 42.6223 32.0696C42.6223 36.1754 42.6223 40.2933 42.6223 44.3991C42.6223 47.6019 44.2357 49.2033 47.4626 49.2033C48.8232 49.2033 50.1958 49.2274 51.5564 49.1913C52.1102 49.1792 52.2668 49.3117 52.2668 49.8776C52.2427 52.069 52.2066 54.2604 52.327 56.4397C52.4353 58.4987 54.0006 60.0519 56.0716 60.1121C59.8885 60.2084 63.7174 60.1603 67.5463 60.1723C68.7503 60.1723 68.7503 60.1723 68.7503 61.3282C68.7503 63.1222 68.7624 64.9042 68.7503 66.6983C68.7383 67.9505 68.2567 68.4201 66.9924 68.4201C62.3447 68.4201 57.685 68.4081 53.0374 68.4442C52.3872 68.4442 52.2427 68.2636 52.2547 67.6495C52.2788 65.1691 51.2313 63.652 49.1964 63.0741C48.7028 62.9296 48.1971 62.9296 47.6913 62.9296C45.3675 62.9296 43.0437 62.9055 40.7078 62.9416C40.0456 62.9537 39.865 62.7731 39.865 62.1108C39.889 52.1051 39.877 42.0873 39.877 32.0816C39.877 31.7565 39.889 31.4314 39.8409 31.1183C39.7325 30.42 39.275 30.0347 38.5887 29.9986C37.9264 29.9625 37.4809 30.2996 37.2401 30.9257C37.1077 31.2869 37.1318 31.6602 37.1318 32.0334C37.1318 42.0392 37.1197 52.0569 37.1438 62.0627C37.1438 62.7369 37.0354 62.9778 36.2889 62.9537C33.9651 62.8935 31.6412 62.9296 29.3054 62.9296C26.4036 62.9416 24.742 64.6032 24.7661 67.5171C24.7781 68.2154 24.6457 68.4442 23.8751 68.4321C18.3966 68.396 12.9061 68.4081 7.42762 68.4081C5.92254 68.4081 5.48908 67.9626 5.48908 66.4334C5.48908 64.6394 5.52521 62.8573 5.47704 61.0633C5.45296 60.3649 5.59745 60.1241 6.36805 60.1362C10.9916 60.1723 15.6152 60.1603 20.2508 60.1482C22.683 60.1362 24.3928 58.7876 24.6938 56.6203C24.7901 55.8858 24.754 55.1273 24.754 54.3808C24.7661 52.8275 24.7781 51.2863 24.742 49.7331C24.7299 49.2756 24.8744 49.1552 25.3199 49.1672C26.8732 49.1913 28.4264 49.1913 29.9676 49.1792C32.6527 49.1552 34.3624 47.4454 34.3745 44.7603C34.3865 40.3776 34.3745 36.0068 34.3865 31.6241C34.3865 30.9618 34.2179 30.408 33.5798 30.1069C33.0741 29.8661 32.5925 29.9504 32.159 30.2875C31.6894 30.6608 31.6533 31.1786 31.6533 31.7324C31.6653 35.9466 31.6533 40.1729 31.6533 44.3871C31.6533 46.0005 31.2198 46.446 29.6305 46.446C28.2097 46.446 26.8009 46.4219 25.3801 46.4581C24.8744 46.4701 24.754 46.3256 24.754 45.832C24.7781 43.9055 24.7661 41.991 24.7661 40.0645C24.7661 37.1146 23.1045 35.4409 20.1545 35.4409C15.5309 35.4409 10.9073 35.4289 6.27172 35.453C5.65765 35.453 5.47704 35.3205 5.48908 34.6824C5.51316 29.7457 5.51316 24.8091 5.48908 19.8724C5.48908 19.1741 5.62153 18.9453 6.38009 18.9453C16.6025 18.9814 26.837 18.9694 37.0836 18.9694Z" fill="#DDDDDC"/>
<path d="M37.0859 16.2237C26.8153 16.2237 16.5447 16.2117 6.27407 16.2358C5.5998 16.2358 5.43123 16.0792 5.45531 15.405C5.50347 13.647 5.46735 11.8771 5.46735 10.1191C5.46735 8.36122 5.82857 8 7.56241 8C22.4085 8 37.2425 8 52.0885 8C56.977 8 61.8775 8 66.766 8C68.3313 8 68.7166 8.3853 68.7286 9.91445C68.7286 11.7567 68.7045 13.5989 68.7406 15.4411C68.7527 16.0552 68.6082 16.2237 67.97 16.2237C57.6874 16.2237 47.3927 16.2237 37.0859 16.2237Z" fill="black"/>
<path d="M65.9709 57.415C62.9247 57.415 59.8784 57.415 56.8201 57.415C55.4354 57.415 55.002 56.9816 55.002 55.5969C55.002 50.4194 55.002 45.242 55.002 40.0645C55.002 38.6678 55.4715 38.1982 56.8803 38.1982C62.9487 38.1982 69.0172 38.1982 75.0857 38.1982C76.5064 38.1982 77.0001 38.6919 77.0001 40.1247C77.0001 45.254 77.0001 50.3713 77.0001 55.5006C77.0001 56.9695 76.5546 57.415 75.0977 57.415C72.0755 57.415 69.0172 57.415 65.9709 57.415Z" fill="#FFCA41"/>
<path d="M10.9449 57.415C7.92271 57.415 4.90052 57.415 1.87833 57.415C0.421421 57.415 0 57.0056 0 55.5849C0 50.4074 0 45.2299 0 40.0525C0 38.6558 0.469583 38.1982 1.89037 38.1982C7.95883 38.1982 14.0273 38.1982 20.0957 38.1982C21.4925 38.1982 21.9982 38.6919 21.9982 40.0645C21.9982 45.242 21.9982 50.4194 21.9982 55.5969C21.9982 56.9575 21.5406 57.415 20.168 57.415C17.0856 57.415 14.0152 57.415 10.9449 57.415Z" fill="#FFCA41"/>
<path d="M38.4934 65.6748C41.5396 65.6748 44.5859 65.6748 47.6442 65.6748C49.0771 65.6748 49.4864 66.0962 49.4864 67.5411C49.4864 72.6945 49.4864 77.8478 49.4864 83.0012C49.4864 84.4581 49.0409 84.9036 47.572 84.9036C41.5276 84.9036 35.4832 84.9036 29.4389 84.9036C27.9579 84.9036 27.4883 84.434 27.4883 82.929C27.4883 77.8358 27.4883 72.7306 27.4883 67.6374C27.4883 66.1083 27.9097 65.6868 29.4268 65.6868C32.449 65.6748 35.4712 65.6748 38.4934 65.6748Z" fill="#FFCA41"/>
<path d="M38.5315 21.7266C44.7926 21.7266 51.0417 21.7266 57.3028 21.7266C59.6266 21.7266 61.1798 22.8102 61.7337 24.7849C61.8782 25.2785 61.8782 25.7842 61.8902 26.2899C61.9023 27.783 61.8902 29.276 61.8902 30.769C61.8902 32.0574 61.4086 32.7076 60.4935 32.6955C59.5905 32.6715 59.1329 32.0092 59.1329 30.7209C59.1329 29.3603 59.1329 27.9997 59.1329 26.6391C59.1329 24.7969 58.8199 24.4839 57.0138 24.4839C48.2242 24.4839 39.4225 24.4839 30.6329 24.4839C27.0207 24.4839 23.4206 24.4839 19.8084 24.4839C18.3394 24.4839 17.8939 24.9294 17.8819 26.3863C17.8819 27.9636 17.8939 29.5409 17.8819 31.1062C17.8698 32.1056 17.316 32.7196 16.4852 32.7076C15.6905 32.6835 15.1607 32.0694 15.1487 31.1182C15.1366 29.3844 15.1246 27.6505 15.1487 25.9167C15.1968 23.6169 16.7139 22.0035 18.9896 21.7747C19.3388 21.7386 19.688 21.7266 20.0251 21.7266C26.1778 21.7266 32.3547 21.7266 38.5315 21.7266Z" fill="#FEFEFE"/>
<path d="M9.57234 13.4791C8.83787 13.455 8.19972 12.7807 8.23584 12.0583C8.27196 11.3118 8.93419 10.7218 9.68071 10.7579C10.4031 10.794 10.957 11.3961 10.957 12.1305C10.957 12.8771 10.3189 13.5032 9.57234 13.4791Z" fill="#FCFCFC"/>
<path d="M16.4725 12.0815C16.4845 12.816 15.8704 13.4662 15.1239 13.4783C14.4015 13.4903 13.7994 12.9123 13.7633 12.1899C13.7272 11.4314 14.3052 10.7932 15.0517 10.7691C15.8102 10.733 16.4484 11.335 16.4725 12.0815Z" fill="#FCFCFC"/>
<path d="M19.2656 12.1181C19.2656 11.3716 19.8917 10.7455 20.6383 10.7575C21.3727 10.7695 22.0229 11.4318 21.9988 12.1542C21.9748 12.8526 21.3486 13.4666 20.6503 13.4787C19.9038 13.4907 19.2656 12.8646 19.2656 12.1181Z" fill="#FDFDFD"/>
<path d="M65.9954 54.6696C64.2616 54.6696 62.5157 54.6816 60.7818 54.6696C59.5778 54.6576 59.048 54.0435 59.1564 52.8394C59.349 50.6601 60.3243 48.9383 62.1424 47.6981C62.4916 47.4573 62.5518 47.3128 62.3471 46.9034C61.4561 45.1335 61.9257 43.0625 63.4548 41.8584C64.9599 40.6664 67.0429 40.6664 68.5721 41.8464C70.0892 43.0264 70.5708 45.0853 69.6798 46.8793C69.439 47.3489 69.6196 47.5055 69.9568 47.7463C71.7629 49.0346 72.7381 50.8046 72.8706 53.008C72.9308 54.0917 72.389 54.6576 71.3053 54.6696C69.5353 54.6816 67.7654 54.6696 65.9954 54.6696Z" fill="#FEFEFE"/>
<path d="M10.9668 43.7002C8.88381 43.7002 6.80079 43.7002 4.71777 43.7002C4.36859 43.7002 4.01942 43.6881 3.69432 43.5918C3.05617 43.3992 2.73107 42.9175 2.75515 42.2673C2.77923 41.6533 3.10433 41.2078 3.7184 41.0392C4.01942 40.9549 4.35655 40.9429 4.66961 40.9429C8.88381 40.9429 13.1101 40.9429 17.3243 40.9429C17.4326 40.9429 17.541 40.9429 17.6494 40.9429C18.6126 40.991 19.2146 41.5088 19.2267 42.2914C19.2508 43.0981 18.6247 43.6761 17.6132 43.6881C15.4098 43.7242 13.1823 43.7002 10.9668 43.7002Z" fill="#FDFDFD"/>
<path d="M10.9213 46.4576C13.2211 46.4576 15.5088 46.4456 17.8085 46.4696C18.6393 46.4817 19.2173 47.0596 19.2293 47.7941C19.2414 48.4804 18.6995 49.0704 17.9289 49.1788C17.7483 49.2029 17.5557 49.1908 17.3751 49.1908C13.1247 49.1908 8.88644 49.1908 4.63612 49.1908C4.47959 49.1908 4.31102 49.2029 4.15449 49.1908C3.28757 49.1186 2.70962 48.5165 2.74574 47.758C2.78186 47.0115 3.33573 46.4817 4.19061 46.4696C6.4422 46.4456 8.68175 46.4576 10.9213 46.4576Z" fill="#FEFEFE"/>
<path d="M10.9438 54.6697C8.77648 54.6697 6.62121 54.6697 4.4539 54.6697C3.37025 54.6697 2.74414 54.164 2.74414 53.3091C2.74414 52.4663 3.38229 51.9365 4.4539 51.9365C8.83668 51.9365 13.2074 51.9245 17.5902 51.9365C18.5896 51.9365 19.2397 52.4904 19.2397 53.2971C19.2397 54.1038 18.6016 54.6456 17.6022 54.6697C17.4457 54.6697 17.2771 54.6697 17.1206 54.6697C15.0617 54.6697 13.0027 54.6697 10.9438 54.6697Z" fill="#FEFEFE"/>
<path d="M32.9284 79.6411C33.6267 78.0277 32.6514 76.7273 31.2547 75.5714C31.05 75.4029 30.8694 75.1982 30.7009 74.9935C29.8701 74.0423 30.2192 72.9105 31.4474 72.6094C32.4347 72.3686 33.422 72.1399 34.4094 71.9592C34.9994 71.8509 35.4208 71.586 35.7579 71.0923C36.2155 70.4301 36.7091 69.804 37.2148 69.1899C38.0215 68.2026 39.1052 68.1183 39.7193 69.1899C40.9354 71.3331 42.7535 72.3325 45.1255 72.5252C45.282 72.5372 45.4385 72.5733 45.5951 72.6215C46.751 72.9466 47.1001 74.0904 46.3055 74.9935C45.6794 75.6918 45.0171 76.3541 44.3549 77.0043C44.0418 77.3053 43.8974 77.6063 43.9576 78.0518C44.0539 78.8465 44.078 79.6411 44.1261 80.4479C44.1984 81.7242 43.2953 82.5309 42.1394 82.0011C39.6831 80.8813 37.3473 80.8693 34.891 81.9891C33.5665 82.567 32.8441 81.7362 32.9284 79.6411Z" fill="#FEFEFE"/>
<path d="M69.7985 51.9003C67.2699 51.9003 64.7414 51.9003 62.2129 51.9003C62.6825 50.323 64.2237 49.2153 65.9575 49.2032C67.7275 49.1912 69.3048 50.2748 69.7985 51.9003Z" fill="#FFCA41"/>
<path d="M67.3798 45.0852C67.3677 45.8076 66.6934 46.4578 65.9831 46.4337C65.2365 46.4097 64.6466 45.7715 64.6706 45.013C64.6947 44.2785 65.2727 43.7246 66.0071 43.7246C66.7537 43.7246 67.3798 44.3507 67.3798 45.0852Z" fill="#FFCA41"/>
<path d="M38.4574 71.8989C39.4086 73.5966 40.5886 74.7525 42.6234 74.6683C42.19 75.4629 41.4314 75.8121 41.2027 76.5346C40.9618 77.269 41.299 78.0155 41.1906 78.8704C39.4086 77.8951 37.6266 77.8229 35.7001 78.9668C36.0372 77.2209 35.8687 75.8242 34.3516 74.8128C36.3021 74.6803 37.6025 73.7171 38.4574 71.8989Z" fill="#FFCA41"/>
</svg>
