<svg width="130" height="100" viewBox="0 0 130 100" fill="none" xmlns="http://www.w3.org/2000/svg">
<path d="M111 12.8721V86.9319C111 87.9648 110.161 88.804 109.128 88.804H3.87212C2.83925 88.804 2 87.9654 2 86.9319V12.8721C2 11.8392 2.8386 11 3.87212 11H109.128C110.161 11 111 11.8392 111 12.8721Z" fill="black"/>
<path d="M107.69 17.1904H5.3125V79.254H107.69V17.1904Z" fill="white"/>
<path d="M107.69 13.3315H5.3125V17.1911H107.69V13.3315Z" fill="white"/>
<path d="M107.837 17.3371H5.16406V13.1836H107.836V17.3371H107.837ZM5.45871 17.0431H107.542V13.4782H5.45871V17.0431Z" fill="black"/>
<path d="M10.1241 16.1521C9.63262 16.1521 9.23242 15.7519 9.23242 15.2604C9.23242 14.7689 9.63262 14.3687 10.1241 14.3687C10.6156 14.3687 11.0158 14.7689 11.0158 15.2604C11.0158 15.7519 10.6156 16.1521 10.1241 16.1521ZM10.1241 14.6633C9.79516 14.6633 9.52706 14.9314 9.52706 15.2604C9.52706 15.5893 9.79516 15.8574 10.1241 15.8574C10.4537 15.8574 10.7212 15.5893 10.7212 15.2604C10.7218 14.9314 10.4537 14.6633 10.1241 14.6633Z" fill="black"/>
<path d="M13.1026 16.1521C12.6111 16.1521 12.2109 15.7519 12.2109 15.2604C12.2109 14.7689 12.6111 14.3687 13.1026 14.3687C13.5941 14.3687 13.9943 14.7689 13.9943 15.2604C13.9943 15.7519 13.5941 16.1521 13.1026 16.1521ZM13.1026 14.6633C12.7737 14.6633 12.5056 14.9314 12.5056 15.2604C12.5056 15.5893 12.7737 15.8574 13.1026 15.8574C13.4316 15.8574 13.6997 15.5893 13.6997 15.2604C13.6997 14.9314 13.4323 14.6633 13.1026 14.6633Z" fill="black"/>
<path d="M16.0792 16.1521C15.5877 16.1521 15.1875 15.7519 15.1875 15.2604C15.1875 14.7689 15.5877 14.3687 16.0792 14.3687C16.5707 14.3687 16.9709 14.7689 16.9709 15.2604C16.9709 15.7519 16.5713 16.1521 16.0792 16.1521ZM16.0792 14.6633C15.7502 14.6633 15.4821 14.9314 15.4821 15.2604C15.4821 15.5893 15.7502 15.8574 16.0792 15.8574C16.4082 15.8574 16.6763 15.5893 16.6763 15.2604C16.6769 14.9314 16.4088 14.6633 16.0792 14.6633Z" fill="black"/>
<path d="M61.7717 84.9985H51.2273C50.5694 84.9985 50.0312 84.4603 50.0312 83.8024V83.0881C50.0312 82.4302 50.5694 81.8921 51.2273 81.8921H61.7717C62.4296 81.8921 62.9677 82.4302 62.9677 83.0881V83.8024C62.9677 84.4603 62.4296 84.9985 61.7717 84.9985Z" fill="white"/>
<path d="M61.607 85.1455H51.3891C50.5582 85.1455 49.8828 84.4694 49.8828 83.6393V83.2514C49.8828 82.4205 50.5589 81.7451 51.3891 81.7451H61.607C62.4379 81.7451 63.1133 82.4212 63.1133 83.2514V83.6393C63.1139 84.4701 62.4379 85.1455 61.607 85.1455ZM51.3891 82.0385C50.7208 82.0385 50.1768 82.5824 50.1768 83.2507V83.6386C50.1768 84.3069 50.7208 84.8509 51.3891 84.8509H61.607C62.2753 84.8509 62.8193 84.3069 62.8193 83.6386V83.2507C62.8193 82.5824 62.2753 82.0385 61.607 82.0385H51.3891Z" fill="black"/>
<path d="M102 66.3638H10V69.2729H102V66.3638Z" fill="#939393"/>
<path d="M102 70.7275H10V73.6366H102V70.7275Z" fill="#939393"/>
<path d="M48 75.0908H10V77.9999H48V75.0908Z" fill="#939393"/>
<path d="M102 75.0908H50V77.9999H102V75.0908Z" fill="#939393"/>
<rect x="56.8516" y="21" width="40" height="1.70213" rx="0.851063" transform="rotate(90 56.8516 21)" fill="#FFCA41"/>
<rect x="36" y="40.1489" width="40" height="1.70213" rx="0.851063" fill="#FFCA41"/>
<rect x="42.459" y="26.2563" width="40" height="1.70213" rx="0.851063" transform="rotate(45 42.459 26.2563)" fill="#FFCA41"/>
<rect x="41.2559" y="54.54" width="40" height="1.70213" rx="0.851063" transform="rotate(-45 41.2559 54.54)" fill="#FFCA41"/>
<circle cx="55.9998" cy="40.5745" r="14.617" fill="#FFCA41" stroke="white" stroke-width="2"/>
</svg>
