<svg width="130" height="100" viewBox="0 0 130 100" fill="none" xmlns="http://www.w3.org/2000/svg">
<path fill-rule="evenodd" clip-rule="evenodd" d="M89 90.2491V60.0154C88.7008 58.4697 88.036 57.8381 86.4404 57.5223C85.975 57.4392 85.5096 57.4226 85.0442 57.4226C84.2562 57.4226 83.4701 57.4244 82.6852 57.4263C81.1192 57.43 79.558 57.4336 77.9969 57.4226C77.1824 57.4226 77.116 57.3395 77.3653 56.6414C77.9636 55.0125 78.1465 53.367 77.7476 51.6717C77.6478 51.2562 77.7642 51.0235 78.2129 50.8905C80.0745 50.3254 80.7892 49.3281 80.7892 47.3502C80.7892 44.6047 80.7865 41.8605 80.7838 39.117C80.777 32.2604 80.7702 25.4074 80.8058 18.546C80.8224 15.0888 78.562 11.349 74.5729 11H10.0667C9.80905 11.0997 9.53481 11.1247 9.26056 11.1496C8.98631 11.1745 8.71206 11.1995 8.45444 11.2992C6.11087 12.23 4.01662 14.64 4.01662 17.6318C4.03324 38.2336 4.01663 58.852 4.00002 79.487L4 79.5119C4 80.3097 4.06648 81.1075 4.38228 81.8721C5.51251 84.598 8.1054 86.3598 11.0639 86.3598H40.4167C42.8101 86.3598 43.957 85.1963 43.9736 82.7863C43.9736 81.9872 43.9717 81.19 43.9699 80.3941C43.9662 78.8058 43.9625 77.2225 43.9736 75.6392C43.9902 74.8414 44.1066 74.7583 44.8545 74.8913C48.3117 75.4896 51.1705 74.4093 53.3977 71.7C53.8465 71.1682 54.3618 70.9188 55.0432 70.9022C57.7857 70.8357 60.2456 73.1294 60.3786 75.8885C60.5115 78.8637 58.3342 81.3402 55.4587 81.5231C54.7288 81.5636 54.0318 81.4503 53.323 81.335C53.1604 81.3085 52.9971 81.282 52.8326 81.2571C50.7384 80.958 49.1427 82.2876 49.1261 84.3653C49.0929 87.2573 49.1095 90.1328 49.1261 93.0082C49.1261 94.6869 49.791 95.5512 51.3533 96.0665H83.033C83.2924 95.98 83.558 95.9435 83.8244 95.9069C84.1727 95.8591 84.5223 95.811 84.8614 95.651C87.1551 94.5373 88.6177 92.8088 89 90.2491ZM52.8652 57.7386H61.8073C59.1314 52.7024 61.7076 47.5001 65.5637 45.8712C65.856 45.7413 65.9262 45.5163 66.0067 45.258L66.0125 45.2396C66.6274 43.1952 66.2452 41.317 64.8158 39.7713C63.3199 38.1424 61.3918 37.5773 59.2477 38.1424C55.7739 39.0399 53.9955 42.8129 55.6576 46.054C56.9872 48.6303 55.3418 50.8908 52.7489 50.7245C50.8036 50.6094 48.8504 50.6378 46.9002 50.6661C46.0343 50.6787 45.1691 50.6913 44.3054 50.6913C44.2641 50.6913 44.2213 50.6885 44.1783 50.6857C43.9443 50.6704 43.707 50.6549 43.707 51.0902C43.7319 52.8568 43.7289 54.614 43.7257 56.4038C43.7247 57.0052 43.7237 57.6103 43.7237 58.2206C45.8511 57.6223 47.9122 57.6057 49.9067 58.4866C50.0895 58.5697 50.2723 58.5364 50.4386 58.3868C51.1533 57.8217 52.0009 57.7386 52.8652 57.7386Z" fill="#020203"/>
<path d="M25.6088 83.2847C20.9051 83.2847 16.2179 83.2847 11.5142 83.2847C8.73847 83.2847 6.92678 81.5395 6.92678 78.7471C6.91016 69.6056 6.92678 60.4806 6.91016 51.339C6.91016 50.8238 7.04312 50.6908 7.54176 50.6908C10.4504 50.7241 13.3425 50.7074 16.2512 50.7074C18.8441 50.7074 20.0906 48.6797 18.9438 46.2862C17.9133 44.1255 18.0463 42.0645 19.4923 40.1365C21.1876 37.8926 24.3456 37.3275 26.8388 38.7901C29.0992 40.1032 30.1131 43.1781 29.1159 45.6713C28.9829 46.0037 28.8333 46.3195 28.6837 46.6519C27.836 48.663 29.1159 50.6908 31.3098 50.7241C34.2684 50.7573 37.2269 50.7407 40.1855 50.7241C40.7838 50.7241 40.9168 50.8903 40.9002 51.4554C40.8669 53.6161 40.9667 55.7768 40.8669 57.9376C40.7672 59.982 42.4958 61.6441 44.7729 60.9792C46.1857 60.5637 47.532 60.6302 48.8783 61.2119C49.2606 61.3781 49.3935 61.5776 49.3769 62.0097C49.3603 64.0874 49.3769 66.165 49.3603 68.2426C49.3603 68.9573 49.4933 69.6388 49.9753 70.1707C50.3409 70.5696 50.1082 70.7025 49.8091 70.9186C48.3464 71.9491 46.7508 72.2649 45.0222 71.7663C43.6593 71.3674 42.4626 71.5004 41.4985 72.614C41.0332 73.1625 40.8836 73.8273 40.8836 74.542C40.9002 77.2014 40.8503 79.8607 40.9002 82.5201C40.9168 83.2348 40.7007 83.3678 40.0359 83.3678C35.2324 83.268 30.4289 83.2847 25.6088 83.2847Z" fill="#EBEBEB"/>
<path d="M52.2191 84.2657C54.2469 84.8973 56.0752 84.8807 57.9035 84.2325C61.6432 82.9028 63.9037 79.1631 63.4549 74.9746C63.0727 71.4177 59.9313 68.3428 56.2414 67.7943C55.0613 67.6115 53.9311 67.6946 52.8507 68.16C52.2191 68.4425 52.2025 68.16 52.2025 67.6613C52.2191 65.5837 52.2357 63.5061 52.2025 61.4284C52.1859 60.8301 52.3188 60.6306 52.9671 60.6472C55.7262 60.6805 58.5019 60.5808 61.261 60.6805C64.153 60.7968 65.4162 58.3868 64.2361 56.0931C62.4743 52.6858 64.5187 48.7632 68.0756 48.0485C70.3859 47.5831 72.2973 48.3477 73.7101 50.176C75.0731 51.9378 75.206 53.9323 74.2919 55.9435C73.893 56.8244 73.5772 57.6887 73.8431 58.6527C74.2088 59.9325 75.3057 60.6639 76.8183 60.6639C79.6937 60.6805 82.5691 60.6805 85.4446 60.6472C86.0596 60.6472 86.2091 60.7968 86.2091 61.4118C86.1925 70.437 86.1925 79.4623 86.1925 88.4875C86.1925 91.4627 84.4307 93.2245 81.4555 93.2245C71.9815 93.2245 62.5075 93.2245 53.0169 93.2411C52.4352 93.2411 52.2025 93.158 52.2191 92.4932C52.2524 89.8172 52.2191 87.1246 52.2191 84.2657Z" fill="#FFCA41"/>
<path d="M31.3099 47.882C33.7698 42.9123 31.6755 38.8567 29.1159 36.8456C26.0909 34.502 22.0021 34.502 18.7444 36.8788C17.0324 38.142 16.0185 39.9039 15.5697 41.9649C15.1376 44.0093 15.5033 45.9539 16.6002 47.8653C13.4422 47.8653 10.4172 47.8653 7.39219 47.8653C7.02652 47.8653 6.89355 47.7324 6.9268 47.3833C6.94342 47.267 6.9268 47.1673 6.9268 47.0509C6.9268 37.5603 6.9268 28.0531 6.9268 18.5625C6.9268 16.2854 8.00716 14.6731 9.88534 14.0748C10.4338 13.9086 11.0156 13.8255 11.5973 13.8255C21.1045 13.8255 30.6118 13.8421 40.119 13.8088C40.8171 13.8088 40.9168 14.0582 40.9002 14.6565C40.867 17.266 40.9667 19.8589 40.867 22.4684C40.7839 24.6956 42.6454 26.0585 44.7729 25.4934C48.0639 24.6291 50.9559 26.1583 51.9033 29.1667C52.5682 31.2443 52.0862 33.1059 50.6401 34.6849C49.1941 36.2472 47.3824 36.7625 45.2882 36.3137C44.723 36.1974 44.1745 36.0312 43.5762 36.0644C42.1135 36.1309 40.9334 37.2113 40.9168 38.6905C40.867 41.4829 40.8836 44.2752 40.9002 47.0842C40.9002 47.6659 40.8171 47.8986 40.1523 47.8986C37.227 47.8487 34.3016 47.882 31.3099 47.882Z" fill="#EBEBEB"/>
<path d="M53.3492 47.8655C50.2411 47.8655 47.1994 47.8655 44.1744 47.8655C43.8752 47.8655 43.7256 47.799 43.7256 47.4666C43.7422 44.641 43.7256 41.832 43.7256 38.9732C47.9806 39.9871 51.3713 38.9233 53.7481 35.2833C55.7592 32.1918 55.3105 28.3357 53.3658 25.7429C51.4876 23.2497 47.9474 21.4712 43.7256 22.8009C43.7256 22.0364 43.7256 21.3217 43.7256 20.5903C43.7256 18.5459 43.7422 16.5016 43.709 14.4405C43.709 13.9918 43.8087 13.8256 44.2907 13.8422C53.9309 13.8588 63.5711 13.8422 73.2113 13.8588C75.9039 13.8754 77.6325 15.6373 77.6325 18.3797C77.6658 28.0199 77.6492 37.6435 77.6492 47.2837C77.6492 47.7491 77.4996 47.8821 77.0342 47.8987C76.1366 47.9153 75.3887 47.8156 74.6574 47.1175C73.2944 45.8044 71.5658 45.123 69.6378 45.0897C69.0561 45.0897 69.0394 44.8404 69.0727 44.375C69.5215 39.7544 66.3136 35.7653 61.6431 35.1337C57.2718 34.552 53.05 37.7432 52.2854 42.1644C51.9696 44.0094 52.219 45.7213 53.0666 47.3834C53.1996 47.4998 53.2495 47.6494 53.3492 47.8655Z" fill="#EBEBEB"/>
<path d="M9.73537 66.2483C9.73537 62.5917 9.73537 58.935 9.73537 55.2784C9.73537 54.1648 10.2839 53.5332 11.1814 53.5332C11.8795 53.5332 12.4446 54.0152 12.5443 54.7133C12.5942 55.0125 12.5776 55.3283 12.5776 55.6275C12.5776 62.7413 12.5776 69.8551 12.5776 76.9689C12.5776 78.3484 12.0789 79.0797 11.1482 79.0797C10.2174 79.0797 9.71875 78.3484 9.71875 76.9522C9.73537 73.3787 9.73537 69.8218 9.73537 66.2483Z" fill="#020203"/>
<path d="M12.5928 29.4329C12.5928 32.5078 12.5928 35.566 12.5928 38.6409C12.5928 38.9235 12.5928 39.1894 12.5595 39.472C12.4764 40.2199 11.9944 40.7019 11.2797 40.7518C10.5318 40.8017 9.91678 40.3695 9.76719 39.6382C9.71733 39.4055 9.73395 39.1396 9.73395 38.8902C9.73395 32.5909 9.73395 26.2749 9.73395 19.9755C9.73395 19.8093 9.71733 19.6431 9.73395 19.4769C9.81705 18.6458 10.4154 18.0807 11.1966 18.1139C11.9612 18.1306 12.5263 18.6624 12.5429 19.4935C12.5761 21.4215 12.5595 23.3662 12.5761 25.2942C12.5928 26.6738 12.5928 28.0533 12.5928 29.4329Z" fill="#020203"/>
</svg>
