<svg width="130" height="100" viewBox="0 0 130 100" fill="none" xmlns="http://www.w3.org/2000/svg">
<path d="M4 14.1465C4.61309 13.2556 4.91388 13.1495 6.01838 13.459C14.2109 15.7559 22.4054 18.046 30.5905 20.3679C31.2671 20.5599 31.77 20.4801 32.3601 20.1043C40.5553 14.8853 48.7721 9.69942 56.9653 4.47704C57.7548 3.97346 58.4328 3.85517 59.3392 4.18639C63.6822 5.77351 68.0481 7.29777 72.4141 8.82136C73.1468 9.07687 73.6268 9.46149 73.6213 10.2868C73.549 11.148 73.0096 11.5725 72.1005 11.444C71.463 11.3535 70.8736 11.0871 70.27 10.8735C67.0254 9.72714 63.7836 8.57194 60.533 7.44175C59.6779 7.14433 59.6522 7.17205 59.6522 8.09945C59.6522 26.6988 59.6508 45.2983 59.6529 63.8977C59.6529 65.0934 59.6934 65.1454 60.7689 65.5145C67.9866 67.9885 75.1983 70.4794 82.4039 72.9871C83.2104 73.2676 83.3226 73.1859 83.3442 72.3193C83.3483 72.1591 83.3456 71.9989 83.3456 71.8387C83.3456 53.5327 83.3456 35.2273 83.3456 16.9213C83.3456 15.4808 83.3388 15.497 81.9828 15.0097C80.4011 14.4412 78.8072 13.9079 77.2316 13.3225C76.8794 13.192 76.5178 13.0656 76.2738 12.7662C75.8966 12.3045 75.6465 11.8158 76.1656 11.2805C76.5996 10.6261 77.164 10.4964 77.9001 10.7613C80.2267 11.5982 82.5628 12.4086 84.8982 13.2198C85.6431 13.4786 86.0007 13.9464 86 14.7684C85.9892 34.8352 85.9926 54.9028 85.9885 74.9697C85.9885 76.3013 85.295 76.7623 83.9803 76.3094C75.685 73.4529 67.3904 70.5943 59.1013 67.7181C58.6241 67.5525 58.2942 67.5931 57.8751 67.8871C49.6286 73.6698 41.3691 79.4343 33.1138 85.2042C32.7968 85.4259 32.4939 85.6679 32.185 85.9005C31.918 85.9005 31.651 85.9005 31.384 85.9005C28.7188 85.3327 26.2401 84.1998 23.6701 83.3427C21.1191 82.4916 18.5971 81.5521 16.0555 80.672C15.552 80.4976 15.047 80.3239 14.5651 80.0974C13.7242 79.702 13.489 79.1707 13.6992 78.2109C14.3298 77.3456 14.7611 77.1834 15.8318 77.5565C18.9804 78.6536 22.1222 79.7703 25.266 80.8815C26.6997 81.3885 28.1347 81.8914 29.5671 82.4004C30.1092 82.593 30.389 82.5133 30.3404 81.8772C30.3262 81.6913 30.3383 81.5041 30.3383 81.3168C30.3383 62.4518 30.3383 43.5874 30.3383 24.7224C30.3383 24.5358 30.3397 24.3486 30.3377 24.162C30.3275 23.0798 30.2843 23.0095 29.2494 22.7195C22.0323 20.693 14.8145 18.6679 7.59604 16.6468C6.75854 16.4123 6.65918 16.4839 6.65039 17.3451C6.63755 18.599 6.64702 19.8535 6.64702 21.1074C6.64702 38.3448 6.64702 55.5815 6.64702 72.8188C6.64702 74.3174 6.64972 74.312 8.02865 74.7892C8.83506 75.0684 9.6462 75.3408 10.4289 75.6794C11.309 76.0607 11.5909 76.6095 11.4537 77.5052C10.9082 78.3751 10.479 78.5806 9.53804 78.3183C7.97525 77.883 6.47667 77.2551 4.94294 76.7319C4.48803 76.5764 4.20278 76.2324 4 75.8119C4 55.2557 4 34.7007 4 14.1465Z" fill="black"/>
<path d="M76.1649 11.2804C75.9662 12.2531 76.1764 12.687 77.0835 13.0149C78.9593 13.6922 80.835 14.3722 82.7297 14.9941C83.3725 15.205 83.6112 15.4713 83.6098 16.2C83.5814 32.6383 83.5882 49.0767 83.5882 65.5151C83.5882 67.9972 83.5747 70.4786 83.5983 72.96C83.6037 73.5042 83.526 73.6319 82.9541 73.4332C75.3179 70.7787 67.6736 68.1446 60.026 65.5239C59.5609 65.3644 59.4386 65.1312 59.4392 64.6621C59.4507 45.6084 59.4521 26.5548 59.4365 7.50117C59.4358 6.85699 59.592 6.82725 60.1429 7.0253C63.9722 8.40018 67.8122 9.74735 71.6503 11.0965C72.7162 11.471 73.1637 11.2777 73.6206 10.2861C74.3696 10.8735 75.2591 11.0972 76.1649 11.2804Z" fill="#DDDDDC"/>
<path d="M57.0477 7.32275C57.0477 7.73914 57.0477 8.00411 57.0477 8.26976C57.0477 27.0807 57.0443 45.8917 57.0633 64.7027C57.0639 65.3408 56.8537 65.7004 56.3434 66.0552C48.8167 71.2898 41.3049 76.5453 33.789 81.7954C33.5545 81.9596 33.3159 82.1178 33.0732 82.2827C32.8549 82.0401 32.9488 81.792 32.9488 81.571C32.9434 62.1462 32.9447 42.7215 32.9387 23.2968C32.9387 22.8533 32.9752 22.5262 33.426 22.2423C41.1548 17.3694 48.8681 12.4728 56.5854 7.58232C56.6915 7.5154 56.8044 7.4593 57.0477 7.32275Z" fill="white"/>
<path d="M13.8086 78.3888C12.9569 78.115 12.1052 77.8413 11.2535 77.5675C11.413 76.6124 11.1778 76.171 10.2835 75.8425C9.23509 75.4572 8.19211 75.0469 7.11938 74.7454C6.50156 74.5724 6.388 74.2702 6.38867 73.6822C6.40557 59.0066 6.4022 44.3311 6.4022 29.6549C6.4022 25.439 6.4022 21.2231 6.4022 17.0072C6.4022 16.7152 6.4022 16.4232 6.4022 16.0596C9.19116 16.8376 11.926 17.596 14.6589 18.3632C19.7042 19.7793 24.7447 21.2157 29.7988 22.6014C30.4213 22.7717 30.5552 23.0306 30.5545 23.6302C30.5383 43.1354 30.5383 62.6405 30.5532 82.1464C30.5538 82.8108 30.5113 83.0156 29.7596 82.7439C25.1341 81.0703 20.4883 79.4507 15.8486 77.8156C14.7353 77.4235 14.4385 77.5101 13.8086 78.3888Z" fill="#DDDDDC"/>
<path d="M81.1874 43.2485C81.1874 51.4674 81.1874 59.6862 81.1874 67.9051C81.1874 69.649 80.5925 70.0762 78.9567 69.5111C73.7283 67.705 68.4998 65.8989 63.272 64.0921C62.0033 63.6534 61.8519 63.4371 61.8519 62.0534C61.8519 45.5623 61.8512 29.0712 61.8519 12.5807C61.8519 10.8625 62.4879 10.4062 64.0913 10.9726C69.3569 12.8328 74.6219 14.6944 79.8868 16.556C81.017 16.9555 81.1867 17.1995 81.1867 18.4317C81.188 26.704 81.1874 34.9762 81.1874 43.2485Z" fill="black"/>
<path d="M36.5146 33.4421C36.5146 32.5376 36.5146 31.6325 36.5146 30.7281C37.534 30.04 37.634 29.0193 37.5576 27.9175C37.5211 27.3862 37.586 26.8475 37.5441 26.3176C37.4718 25.4111 37.8571 24.8197 38.6189 24.3485C42.4752 21.9618 46.2821 19.4979 50.1235 17.0875C50.5304 16.832 50.9252 16.5582 51.3382 16.3135C52.1581 15.8275 52.3947 15.9654 52.4359 16.9394C52.4427 17.0996 52.44 17.2599 52.44 17.4194C52.44 32.2281 52.4326 47.0367 52.4576 61.8447C52.4596 62.8377 52.1338 63.4542 51.3084 64.0139C47.1345 66.842 43.0511 69.8007 38.8886 72.6457C38.7561 72.7363 38.631 72.837 38.4925 72.9175C37.8713 73.2764 37.6408 73.1574 37.5671 72.4314C37.5326 72.086 37.5502 71.7379 37.5502 71.3912C37.5495 59.6243 37.5502 47.8573 37.5489 36.0911C37.5489 35.6646 37.5333 35.2387 37.5096 34.8122C37.4738 34.1241 36.8337 33.9058 36.5146 33.4421Z" fill="#FED559"/>
<path d="M36.5144 33.4418C37.4776 33.6865 37.7399 33.9954 37.7453 35.0046C37.7575 37.219 37.7494 39.4335 37.7494 41.6479C37.7494 51.8128 37.7494 61.9784 37.7494 72.1433C37.7494 72.4312 37.7494 72.7185 37.7494 73.0119C38.0725 73.0355 38.2293 72.8273 38.4145 72.6982C42.8318 69.6213 47.243 66.5356 51.6644 63.4641C52.0389 63.2039 52.2565 62.9551 52.2559 62.4495C52.241 47.1616 52.2437 31.8736 52.243 16.5864C52.243 16.4539 52.2322 16.3221 52.2261 16.1849C51.9321 16.095 51.7753 16.3241 51.5921 16.4404C47.1775 19.2287 42.7737 22.0339 38.3489 24.8066C37.8703 25.1067 37.721 25.4305 37.7392 25.9632C37.775 27.0291 37.7602 28.0971 37.7466 29.1645C37.7338 30.1743 37.4783 30.4832 36.5151 30.7272C35.6458 30.5866 35.3288 30.0432 35.3409 29.2023C35.3619 27.7882 35.368 26.3728 35.3376 24.9587C35.3213 24.2118 35.6052 23.7055 36.2352 23.308C41.6665 19.8823 47.0896 16.4438 52.5107 13.0012C52.9886 12.6977 53.4706 12.5098 54.0093 12.7788C54.5656 13.0566 54.6508 13.573 54.6501 14.1381C54.646 30.5258 54.6447 46.9128 54.6548 63.3005C54.6555 64.015 54.377 64.4956 53.7991 64.8978C48.3719 68.673 42.9535 72.461 37.5384 76.2537C37.0464 76.5985 36.5489 76.7945 35.9777 76.518C35.372 76.2247 35.3436 75.6609 35.3436 75.0796C35.347 61.735 35.345 48.3898 35.3477 35.0452C35.3477 33.9664 35.5376 33.7217 36.5144 33.4418Z" fill="black"/>
<path d="M28.14 51.7904C28.14 60.1952 28.14 68.5999 28.14 77.0046C28.14 77.1912 28.1454 77.3784 28.1393 77.565C28.0947 78.8696 27.4242 79.3427 26.1913 78.9142C23.9809 78.1463 21.7746 77.3649 19.5683 76.5862C16.4089 75.4709 13.2509 74.3536 10.0922 73.2362C8.98838 72.8455 8.80519 72.5914 8.80519 71.4314C8.80452 54.7287 8.80452 38.0254 8.80519 21.3227C8.80519 19.8627 9.42166 19.3854 10.8161 19.7761C16.144 21.2673 21.4711 22.7638 26.7976 24.261C27.9156 24.5754 28.1393 24.8802 28.1393 26.0956C28.14 34.6605 28.1393 43.2255 28.14 51.7904Z" fill="black"/>
<path d="M78.7464 44.7217C76.8017 44.0343 74.878 43.3536 72.9542 42.6743C70.27 41.7259 67.5905 40.7647 64.8969 39.8434C64.4149 39.6785 64.2405 39.473 64.2419 38.9512C64.2595 30.7337 64.2608 22.5162 64.2412 14.2987C64.2399 13.6342 64.4332 13.6315 64.9658 13.8214C69.3757 15.3957 73.793 16.9497 78.2124 18.4983C78.6065 18.6362 78.7998 18.7924 78.7985 19.2716C78.7795 27.6493 78.7843 36.0263 78.7822 44.404C78.7829 44.4831 78.7653 44.5622 78.7464 44.7217Z" fill="#FFCA41"/>
<path d="M64.2377 52.0339C64.2377 48.9942 64.2486 45.9544 64.2276 42.9154C64.2242 42.3672 64.2783 42.14 64.9103 42.3672C69.3439 43.9577 73.7855 45.5286 78.2319 47.0826C78.6672 47.2347 78.7943 47.4483 78.7936 47.8876C78.7815 53.9935 78.7842 60.0993 78.7882 66.2052C78.7882 66.6242 78.8261 66.9318 78.1995 66.7114C73.8058 65.1662 69.4054 63.6399 64.9941 62.1474C64.3621 61.9332 64.2161 61.6141 64.2229 60.9929C64.2553 58.0066 64.2377 55.0202 64.2377 52.0339Z" fill="white"/>
<path d="M25.7407 59.9456C25.7407 65.0936 25.7312 70.2416 25.7528 75.3896C25.7556 76.0521 25.646 76.2075 24.9674 75.9635C20.5859 74.3852 16.1922 72.8406 11.7952 71.3056C11.3443 71.1481 11.1956 70.9365 11.1963 70.4566C11.2112 60.4269 11.2112 50.3978 11.1976 40.3681C11.197 39.826 11.2977 39.6833 11.8608 39.8449C16.2875 41.1103 20.7177 42.3621 25.1594 43.5755C25.742 43.7343 25.7461 44.0486 25.7454 44.5002C25.738 49.6489 25.7407 54.7976 25.7407 59.9456Z" fill="#FFCA41"/>
<path d="M11.2887 22.4185C13.0745 22.9173 14.8651 23.4155 16.6544 23.9184C19.4731 24.7106 22.2877 25.5177 25.1125 26.2862C25.5796 26.4133 25.754 26.5823 25.7513 27.0886C25.7297 31.5985 25.731 36.1084 25.7493 40.6177C25.7513 41.1456 25.6472 41.2348 25.126 41.0861C20.6715 39.8181 16.2089 38.5811 11.749 37.3326C11.4442 37.2474 11.1907 37.1873 11.1934 36.7263C11.2184 32.0298 11.2116 27.3333 11.2157 22.6368C11.215 22.5874 11.2475 22.5381 11.2887 22.4185Z" fill="white"/>
<path d="M76.0606 62.124C75.7767 62.0422 75.4658 61.9692 75.1656 61.8638C72.4564 60.9107 69.7493 59.9515 67.0414 58.9943C66.5223 58.8105 66.0511 58.5793 65.966 57.9493C65.822 56.8861 66.6805 56.3216 67.8289 56.7259C70.3867 57.6276 72.9458 58.5279 75.5023 59.4351C75.9268 59.5858 76.3722 59.7149 76.7501 59.9468C77.2449 60.2509 77.4605 60.7369 77.2672 61.3257C77.0833 61.8861 76.6257 62.0652 76.0606 62.124Z" fill="black"/>
<path d="M76.0831 57.2356C75.9229 57.1904 75.7154 57.1444 75.516 57.0741C72.6561 56.0669 69.7961 55.0571 66.9382 54.0452C66.4042 53.8559 66.0027 53.5456 65.9581 52.9204C65.9189 52.3736 66.1697 52.0092 66.6401 51.7638C66.949 51.603 67.2485 51.6327 67.5648 51.7442C70.5255 52.7872 73.4902 53.818 76.4475 54.8685C77.0626 55.0868 77.4269 55.5444 77.3093 56.2244C77.2018 56.8524 76.7645 57.1708 76.0831 57.2356Z" fill="black"/>
<path d="M67.3623 46.8109C67.315 46.8042 67.482 46.8015 67.6293 46.8535C70.5941 47.8985 73.5581 48.9442 76.5174 50.0041C77.0054 50.1792 77.3157 50.5503 77.3299 51.087C77.3434 51.5851 77.0852 51.9684 76.6505 52.1834C76.2457 52.3841 75.8239 52.2787 75.4095 52.1313C73.0754 51.3012 70.7367 50.4827 68.4019 49.6526C67.7753 49.4302 67.1413 49.2166 66.5397 48.9374C65.9645 48.6704 65.8543 48.1324 66.0084 47.5734C66.1612 47.0218 66.5627 46.7426 67.3623 46.8109Z" fill="black"/>
</svg>
