<svg width="130" height="100" viewBox="0 0 130 100" fill="none" xmlns="http://www.w3.org/2000/svg">
<path d="M62.5759 44.3834L42.259 89.8933L23.5674 44.3834L42.259 30.5679L62.5759 44.3834Z" fill="#FFCA41"/>
<path d="M77.0014 45.3259H8.11887C7.55 45.3259 7.02987 44.9846 6.78607 44.4645C6.54227 43.9444 6.63981 43.3267 7.01364 42.8879L18.7812 29.1861C19.0575 28.8611 19.4639 28.666 19.9027 28.666H65.2338C65.6564 28.666 66.079 28.8611 66.3553 29.1861L78.1229 42.8879C78.4968 43.3267 78.578 43.9444 78.3505 44.4645C78.0904 45.0008 77.5703 45.3259 77.0014 45.3259ZM11.3208 42.384H73.7995L64.5512 31.6242H20.5691L11.3208 42.384Z" fill="black"/>
<path d="M21.9988 45.3259C21.7875 45.3259 21.5924 45.2771 21.3973 45.1959C20.9422 44.9846 20.6172 44.5782 20.5522 44.0744L18.4554 30.3726C18.3904 29.95 18.5205 29.5112 18.7968 29.1861C19.0731 28.8611 19.4795 28.666 19.9183 28.666H43.3071C43.9573 28.666 44.5424 29.0886 44.7212 29.7225C44.9 30.3564 44.6562 31.0228 44.1035 31.3804L22.8277 45.0821C22.5513 45.2446 22.2751 45.3259 21.9988 45.3259ZM21.6086 31.6242L23.104 41.3925L38.2685 31.6242H21.6086Z" fill="black"/>
<path d="M63.1204 45.3258C62.844 45.3258 62.5678 45.2445 62.3239 45.0982L41.0481 31.3965C40.4954 31.0389 40.2516 30.3725 40.4304 29.7386C40.6092 29.1047 41.1943 28.6821 41.8445 28.6821H65.2333C65.6559 28.6821 66.0785 28.8772 66.3548 29.2022C66.6311 29.5273 66.7612 29.9662 66.6962 30.3888L64.5994 44.0905C64.5182 44.5781 64.2094 45.0007 63.7543 45.212C63.5267 45.2933 63.3317 45.3258 63.1204 45.3258ZM46.8505 31.624L62.0151 41.3924L63.5104 31.624H46.8505Z" fill="black"/>
<path d="M41.8447 92.7701C41.3571 92.7701 40.9183 92.5426 40.642 92.1525L6.91584 44.7246C6.59077 44.2695 6.55825 43.6844 6.80206 43.1968C7.04586 42.7092 7.56595 42.4004 8.10232 42.4004H76.9849C77.5375 42.4004 78.0576 42.7092 78.3014 43.2131C78.5452 43.7169 78.4965 44.3021 78.1714 44.7572L43.015 92.185C42.7549 92.5426 42.3161 92.7701 41.8447 92.7701ZM10.963 45.326L41.861 88.788L74.0755 45.326H10.963Z" fill="black"/>
<path d="M42.1375 92.7701C41.5361 92.7701 41.016 92.4126 40.7885 91.8762L20.6503 44.4483C20.4553 43.9932 20.504 43.4731 20.7804 43.0668C21.0567 42.6605 21.5118 42.4004 21.9994 42.4004H63.1208C63.6247 42.4004 64.0798 42.6442 64.3561 43.0668C64.6324 43.4894 64.6649 44.0095 64.4699 44.4646L43.4866 91.8925C43.2428 92.4126 42.7064 92.7701 42.1375 92.7701ZM24.2261 45.326L42.17 87.5853L60.8778 45.326H24.2261Z" fill="black"/>
<path d="M42.5596 15.8257C41.747 15.8257 41.0806 15.1593 41.0806 14.3466V8.47907C41.0806 7.66639 41.747 7 42.5596 7C43.3723 7 44.0387 7.66639 44.0387 8.47907V14.3466C44.0225 15.1755 43.3723 15.8257 42.5596 15.8257Z" fill="black"/>
<path d="M54.815 17.9875C54.6525 17.9875 54.4737 17.955 54.3111 17.9062C53.5472 17.6299 53.1571 16.7847 53.4335 16.0208L55.4326 10.5108C55.7089 9.74693 56.5541 9.35685 57.318 9.63316C58.0819 9.90947 58.472 10.7547 58.1957 11.5186L56.1965 17.0285C55.9852 17.6299 55.4164 17.9875 54.815 17.9875Z" fill="black"/>
<path d="M65.6074 24.2287C65.2661 24.2287 64.941 24.1149 64.6647 23.8874C64.0471 23.3673 63.9658 22.4408 64.4859 21.8069L68.2567 17.3209C68.7768 16.7033 69.7033 16.622 70.3372 17.1421C70.9548 17.6623 71.036 18.5887 70.5159 19.2226L66.7451 23.7086C66.4363 24.0499 66.03 24.2287 65.6074 24.2287Z" fill="black"/>
<path d="M73.6043 33.7532C73.1005 33.7532 72.5966 33.4931 72.3365 33.0218C71.9302 32.3229 72.174 31.4126 72.8729 31.0063L77.944 28.0807C78.6429 27.6743 79.5531 27.9181 79.9595 28.617C80.3658 29.3159 80.122 30.2261 79.4231 30.6325L74.352 33.5581C74.1082 33.7044 73.8644 33.7532 73.6043 33.7532Z" fill="black"/>
<path d="M83.6484 58.9301C83.5671 58.9301 83.4858 58.9301 83.3883 58.9138L77.6183 57.8898C76.8219 57.7435 76.2855 56.9796 76.4318 56.1832C76.5781 55.3868 77.3257 54.8342 78.1384 54.9967L83.9084 56.0207C84.7048 56.167 85.2412 56.9309 85.1112 57.7273C84.9649 58.4262 84.3473 58.9301 83.6484 58.9301Z" fill="black"/>
<path d="M78.6905 72.5505C78.4467 72.5505 78.1867 72.4855 77.9592 72.3555L72.8881 69.4298C72.1892 69.0235 71.9453 68.1296 72.3517 67.4144C72.758 66.7155 73.652 66.4717 74.3671 66.878L79.4382 69.8037C80.1371 70.21 80.3809 71.104 79.9746 71.8191C79.682 72.2905 79.1944 72.5505 78.6905 72.5505Z" fill="black"/>
<path d="M69.3782 83.6515C68.9556 83.6515 68.533 83.4728 68.2567 83.1314L64.4859 78.6454C63.9658 78.0278 64.0471 77.1014 64.6647 76.565C65.2823 76.0449 66.2088 76.1261 66.7451 76.7438L70.5159 81.2298C71.036 81.8474 70.9548 82.7739 70.3372 83.3102C70.0446 83.5378 69.7033 83.6515 69.3782 83.6515Z" fill="black"/>
<path d="M56.8298 90.8846C56.2285 90.8846 55.6596 90.5108 55.4483 89.9094L53.4491 84.3994C53.1728 83.6355 53.5629 82.7903 54.3268 82.514C55.0907 82.2377 55.9359 82.6278 56.2122 83.3917L58.2114 88.9017C58.4877 89.6656 58.0976 90.5108 57.3337 90.7871C57.1712 90.8683 56.9924 90.8846 56.8298 90.8846Z" fill="black"/>
<path d="M28.2891 90.8845C28.1266 90.8845 27.9478 90.852 27.7853 90.8032C27.0214 90.5269 26.6313 89.6817 26.9076 88.9178L28.9068 83.4078C29.1831 82.6439 30.0283 82.2538 30.7922 82.5301C31.5561 82.8064 31.9462 83.6516 31.6699 84.4156L29.6707 89.9255C29.4594 90.5269 28.8905 90.8845 28.2891 90.8845Z" fill="black"/>
<path d="M15.7407 83.6515C15.3994 83.6515 15.0743 83.5378 14.798 83.3102C14.1803 82.7901 14.0991 81.8637 14.6192 81.2298L18.39 76.7438C18.9101 76.1261 19.8366 76.0449 20.4705 76.565C21.0881 77.0851 21.1694 78.0116 20.6493 78.6454L16.8784 83.1314C16.5696 83.4728 16.1633 83.6515 15.7407 83.6515Z" fill="black"/>
<path d="M6.4277 72.5505C5.92384 72.5505 5.41997 72.2905 5.14366 71.8191C4.73732 71.1202 4.98115 70.21 5.68005 69.8037L10.7512 66.878C11.4501 66.4717 12.3602 66.7155 12.7666 67.4144C13.1729 68.1133 12.9291 69.0235 12.2302 69.4298L7.15913 72.3555C6.93158 72.4855 6.6715 72.5505 6.4277 72.5505Z" fill="black"/>
<path d="M1.47062 58.9302C0.771721 58.9302 0.154062 58.4264 0.0240338 57.7112C-0.122248 56.9148 0.414153 56.1509 1.22683 56.0046L6.99682 54.9806C7.79324 54.8343 8.55714 55.3707 8.70342 56.1671C8.84971 56.9635 8.31337 57.7275 7.51695 57.8737L1.74691 58.8977C1.64938 58.9302 1.55189 58.9302 1.47062 58.9302Z" fill="black"/>
<path d="M11.4991 33.7532C11.2553 33.7532 10.9953 33.6881 10.7678 33.5581L5.69665 30.6325C4.99775 30.2261 4.75392 29.3322 5.16026 28.617C5.5666 27.9181 6.46053 27.6743 7.17568 28.0807L12.2468 31.0063C12.9457 31.4126 13.1895 32.3066 12.7832 33.0218C12.5069 33.4931 12.0192 33.7532 11.4991 33.7532Z" fill="black"/>
<path d="M19.5115 24.2287C19.0889 24.2287 18.6826 24.0499 18.39 23.7086L14.6192 19.2226C14.0991 18.605 14.1803 17.6785 14.798 17.1421C15.4156 16.622 16.342 16.7033 16.8784 17.3209L20.6493 21.8069C21.1694 22.4245 21.0881 23.351 20.4705 23.8874C20.1779 24.1149 19.8366 24.2287 19.5115 24.2287Z" fill="black"/>
<path d="M30.2883 17.9876C29.6869 17.9876 29.1181 17.6138 28.9068 17.0124L26.9076 11.5025C26.6313 10.7385 27.0214 9.89336 27.7853 9.61705C28.5492 9.34074 29.3944 9.73083 29.6707 10.4947L31.6699 16.0047C31.9462 16.7686 31.5561 17.6138 30.7922 17.8901C30.6297 17.9714 30.4671 17.9876 30.2883 17.9876Z" fill="black"/>
</svg>
