<svg width="568" height="480" viewBox="0 0 568 480" fill="none" xmlns="http://www.w3.org/2000/svg">
<g clip-path="url(#clip0_423_2896)">
<path d="M349.124 429.501C349.124 429.501 342.948 429.864 342.449 430.937C342.449 430.937 342.373 435.491 346.741 440.071L345.897 441.938V444.971C347.933 441.026 350.206 434.993 350.206 434.993C350.206 434.993 350.282 430.751 349.124 429.501Z" fill="black"/>
<g opacity="0.3">
<path opacity="0.3" d="M348.9 429.906C348.9 429.906 346.745 435.508 348.055 439.538C348.072 439.538 351.029 434.596 348.9 429.906Z" fill="black"/>
</g>
<path d="M358.612 437.046C358.612 437.046 355.748 431.563 354.557 431.554C354.557 431.554 350.383 433.345 348 439.218H345.947C345.438 437.599 344.587 436.108 343.452 434.847C342.316 433.586 340.922 432.584 339.365 431.909C339.365 431.909 336.23 437.562 336.129 437.502C338.057 439.292 340.557 440.339 343.184 440.46C347.611 440.688 354.05 440.282 354.05 440.282C354.05 440.282 357.953 438.609 358.612 437.046Z" fill="black"/>
<g opacity="0.3">
<path opacity="0.3" d="M344.889 439.96C344.889 439.96 340.259 437.29 336.516 437.535C336.549 437.535 340.85 441.194 344.889 439.96Z" fill="black"/>
</g>
<g opacity="0.3">
<path opacity="0.3" d="M358.156 437.013C358.156 437.013 352.166 437.351 349.031 440.215C349.031 440.215 354.768 440.883 358.156 437.013Z" fill="black"/>
</g>
<path d="M367.633 440.249L365.994 464.862L328.007 464.507L327.711 439.877L367.633 440.249Z" fill="#FFCA41"/>
<g opacity="0.3">
<path opacity="0.3" d="M360.427 440.181L360.199 464.802L365.995 464.861L367.634 440.248L360.427 440.181Z" fill="black"/>
</g>
<path d="M364.78 440.224L363.58 464.836L362.262 464.828L362.498 440.198L364.78 440.224Z" fill="black"/>
<path d="M343.086 440.203L342.84 464.824L346.008 464.855L346.254 440.234L343.086 440.203Z" fill="black"/>
<path d="M366.778 450.726H327.844V453.117H366.778V450.726Z" fill="black"/>
<path d="M386.542 416.692C386.325 414.787 385.932 412.906 385.368 411.073C384.787 409.209 383.877 407.463 382.681 405.919C382.109 405.047 381.33 404.331 380.413 403.833C379.497 403.336 378.471 403.073 377.428 403.069C376.386 403.065 375.358 403.319 374.437 403.809C373.517 404.299 372.732 405.01 372.153 405.877C370.952 407.414 370.037 409.154 369.449 411.014C368.885 412.845 368.487 414.723 368.258 416.624C368.247 416.487 368.247 416.348 368.258 416.21C368.258 415.94 368.258 415.551 368.351 415.044C368.5 413.635 368.783 412.243 369.196 410.887C369.768 408.965 370.688 407.164 371.908 405.573C372.54 404.696 373.362 403.974 374.314 403.462C375.265 402.95 376.32 402.66 377.4 402.616C378.479 402.673 379.532 402.973 380.479 403.492C381.427 404.011 382.246 404.737 382.875 405.615C384.095 407.214 385.009 409.024 385.571 410.955C385.988 412.31 386.271 413.702 386.415 415.112C386.465 415.499 386.493 415.888 386.5 416.278C386.536 416.413 386.55 416.553 386.542 416.692Z" fill="black"/>
<path d="M389.703 416.692C389.481 414.788 389.087 412.907 388.528 411.073C387.944 409.21 387.035 407.465 385.841 405.919C385.27 405.047 384.49 404.331 383.574 403.833C382.657 403.336 381.632 403.073 380.589 403.069C379.546 403.065 378.518 403.319 377.598 403.809C376.677 404.299 375.893 405.01 375.314 405.877C374.11 407.414 373.192 409.154 372.602 411.014C372.032 412.843 371.636 414.721 371.419 416.624C371.397 416.487 371.397 416.348 371.419 416.21C371.419 415.94 371.419 415.551 371.503 415.044C371.649 413.635 371.932 412.242 372.348 410.887C372.92 408.965 373.84 407.164 375.06 405.573C375.692 404.696 376.514 403.974 377.466 403.462C378.417 402.95 379.473 402.66 380.552 402.616C381.631 402.673 382.684 402.973 383.631 403.492C384.579 404.011 385.398 404.737 386.027 405.615C387.241 407.218 388.154 409.027 388.723 410.955C389.136 412.311 389.419 413.703 389.568 415.112C389.618 415.619 389.644 416.008 389.652 416.278C389.68 416.414 389.697 416.553 389.703 416.692Z" fill="black"/>
<path d="M357.649 414.25L393.304 413.972L394.082 464.641H354.066L357.649 414.25Z" fill="#FFCA41"/>
<path d="M393.305 413.972H397.783L401.636 464.641H394.082L393.305 413.972Z" fill="#FFCA41"/>
<path d="M387.228 431.182H363.883V436.302H387.228V431.182Z" fill="white"/>
<g opacity="0.3">
<path opacity="0.3" d="M393.301 413.971H397.779L401.632 464.641H394.078L393.301 413.971Z" fill="black"/>
</g>
<path d="M354.064 464.633C353.946 464.633 354.436 455.871 355.163 445.081C355.89 434.292 356.582 425.547 356.701 425.555C356.819 425.564 356.337 434.317 355.602 445.107C354.867 455.896 354.191 464.633 354.064 464.633Z" fill="black"/>
<path d="M375.141 180L375.142 180C376.324 179.999 377.494 180.231 378.586 180.683C379.679 181.134 380.671 181.797 381.507 182.632L382.214 181.925L381.507 182.632C382.343 183.467 383.007 184.459 383.459 185.551C383.912 186.643 384.145 187.813 384.145 188.995V415.315C384.145 417.703 383.196 419.993 381.508 421.682C379.819 423.37 377.529 424.319 375.141 424.319H255.923H254.789L254.931 425.444L259.766 463.861H172.897L178.689 425.468L178.863 424.319H177.7H54.7226C52.3346 424.319 50.0445 423.37 48.3559 421.682C46.6674 419.993 45.7188 417.703 45.7188 415.315V188.995C45.7187 187.813 45.9517 186.643 46.4042 185.551C46.8567 184.459 47.52 183.467 48.3561 182.632C49.1922 181.797 50.1848 181.134 51.277 180.683C52.3693 180.231 53.5398 179.999 54.7217 180H54.7226L375.141 180ZM375.141 179H54.7226H375.141Z" fill="#DBDBDB" stroke="black" stroke-width="2"/>
<path d="M219.212 401.517C223.572 407.744 216.745 414.571 210.518 410.211C210.306 410.066 210.122 409.883 209.977 409.67C205.634 403.443 212.444 396.633 218.672 400.985C218.882 401.129 219.065 401.309 219.212 401.517Z" fill="black"/>
<path d="M61.8669 187.635H368.023C369.099 187.635 370.165 187.847 371.159 188.259C372.154 188.671 373.057 189.275 373.818 190.036C374.579 190.797 375.183 191.7 375.595 192.695C376.007 193.689 376.219 194.755 376.219 195.831V383.918H53.6797V195.831C53.6797 193.659 54.542 191.575 56.0772 190.039C57.6123 188.502 59.6948 187.637 61.8669 187.635Z" fill="black"/>
<path d="M289.228 424.472C289.228 425.174 262.368 425.767 229.239 425.767C196.11 425.767 169.25 425.174 169.25 424.472C169.25 423.771 196.11 423.232 229.239 423.232C262.368 423.232 289.228 423.825 289.228 424.472Z" fill="black"/>
<path d="M367.859 195.746H62.4297V375.798H367.859V195.746Z" fill="white"/>
<path d="M367.859 195.746H62.4297V210.709H367.859V195.746Z" fill="#E0E0E0"/>
<path d="M74.295 203.553C74.3085 203.98 74.1942 204.402 73.9667 204.764C73.7392 205.125 73.4089 205.411 73.0181 205.584C72.6274 205.756 72.1939 205.809 71.7732 205.734C71.3526 205.659 70.9639 205.46 70.657 205.163C70.35 204.865 70.1388 204.483 70.0504 204.065C69.9619 203.647 70.0003 203.212 70.1606 202.816C70.3208 202.42 70.5957 202.081 70.9499 201.842C71.3041 201.603 71.7216 201.475 72.1489 201.475C72.4263 201.47 72.7019 201.521 72.9599 201.623C73.2179 201.725 73.4532 201.877 73.6525 202.07C73.8518 202.263 74.0111 202.493 74.1214 202.748C74.2316 203.002 74.2906 203.276 74.295 203.553Z" fill="white"/>
<path d="M80.6974 203.553C80.7108 203.98 80.5965 204.402 80.369 204.764C80.1415 205.125 79.8112 205.411 79.4205 205.584C79.0297 205.756 78.5962 205.809 78.1756 205.734C77.7549 205.659 77.3662 205.46 77.0593 205.163C76.7524 204.865 76.5412 204.483 76.4527 204.065C76.3643 203.647 76.4027 203.212 76.5629 202.816C76.7232 202.42 76.998 202.081 77.3522 201.842C77.7065 201.603 78.124 201.475 78.5513 201.475C78.8287 201.47 79.1042 201.521 79.3622 201.623C79.6202 201.725 79.8556 201.877 80.0549 202.07C80.2542 202.263 80.4135 202.493 80.5237 202.748C80.634 203.002 80.693 203.276 80.6974 203.553Z" fill="white"/>
<path d="M86.7833 203.553C86.7968 203.98 86.6824 204.402 86.4549 204.764C86.2275 205.125 85.8972 205.411 85.5064 205.584C85.1156 205.756 84.6822 205.809 84.2615 205.734C83.8409 205.659 83.4522 205.46 83.1452 205.163C82.8383 204.865 82.6271 204.483 82.5387 204.065C82.4502 203.647 82.4886 203.212 82.6488 202.816C82.8091 202.42 83.0839 202.081 83.4382 201.842C83.7924 201.603 84.2099 201.475 84.6372 201.475C84.9146 201.47 85.1902 201.521 85.4482 201.623C85.7062 201.725 85.9415 201.877 86.1408 202.07C86.3401 202.263 86.4994 202.493 86.6097 202.748C86.7199 203.002 86.7789 203.276 86.7833 203.553Z" fill="white"/>
<path d="M367.915 232.99H62.3672V297.365H367.915V232.99Z" fill="#5C5C5C"/>
<path d="M104.766 219.455H74.9062V227.059H104.766V219.455Z" fill="black"/>
<path d="M313.993 217.731H292.371V225.336H313.993V217.731Z" fill="#E0E0E0"/>
<path d="M278.645 217.528H257.023V225.133H278.645V217.528Z" fill="#E0E0E0"/>
<path d="M203.744 288.4C203.763 288.942 203.619 289.477 203.331 289.937C203.043 290.397 202.625 290.76 202.129 290.98C201.633 291.2 201.083 291.267 200.549 291.172C200.015 291.077 199.522 290.824 199.132 290.447C198.743 290.07 198.475 289.584 198.363 289.054C198.251 288.523 198.301 287.971 198.505 287.469C198.709 286.966 199.059 286.536 199.509 286.234C199.959 285.932 200.49 285.771 201.032 285.772C201.383 285.767 201.731 285.83 202.057 285.959C202.383 286.088 202.681 286.28 202.933 286.524C203.184 286.768 203.386 287.06 203.525 287.381C203.664 287.703 203.739 288.049 203.744 288.4Z" fill="#FFCA41"/>
<path d="M214.553 288.4C214.571 288.942 214.428 289.477 214.14 289.937C213.852 290.397 213.433 290.76 212.938 290.98C212.442 291.2 211.892 291.267 211.358 291.172C210.824 291.077 210.33 290.824 209.941 290.447C209.551 290.07 209.283 289.584 209.172 289.054C209.06 288.523 209.109 287.971 209.314 287.469C209.518 286.966 209.867 286.536 210.318 286.234C210.768 285.932 211.298 285.771 211.841 285.772C212.191 285.767 212.54 285.83 212.866 285.959C213.192 286.088 213.489 286.28 213.741 286.524C213.993 286.768 214.194 287.06 214.334 287.381C214.473 287.703 214.547 288.049 214.553 288.4Z" fill="white"/>
<path d="M224.885 288.4C224.904 288.942 224.76 289.477 224.472 289.937C224.184 290.397 223.765 290.76 223.27 290.98C222.774 291.2 222.224 291.267 221.69 291.172C221.156 291.077 220.662 290.824 220.273 290.447C219.883 290.07 219.615 289.584 219.504 289.054C219.392 288.523 219.441 287.971 219.646 287.469C219.85 286.966 220.199 286.536 220.65 286.234C221.1 285.932 221.63 285.771 222.173 285.772C222.523 285.767 222.872 285.83 223.198 285.959C223.524 286.088 223.821 286.28 224.073 286.524C224.325 286.768 224.526 287.06 224.666 287.381C224.805 287.703 224.879 288.049 224.885 288.4Z" fill="white"/>
<path d="M140.644 309.066H94.4609V349.352H140.644V309.066Z" fill="#E0E0E0"/>
<path d="M232.895 308.349H193.953V347.291H232.895V308.349Z" fill="#E0E0E0"/>
<path d="M324.587 307.148H283.254V348.481H324.587V307.148Z" fill="#E0E0E0"/>
<path d="M145.95 319.104C145.95 319.104 134.375 306.016 132.913 305.18C131.904 304.722 130.834 304.411 129.736 304.259C129.101 304.123 128.457 304.029 127.81 303.98H127.683C124.134 303.667 118.761 303.819 118.761 303.819C118.761 303.819 118.668 308.542 112.643 310.528C106.45 311.88 103.966 307.849 103.966 307.849C103.966 307.849 99.26 310.443 96.3619 312.513L96.2521 312.589C95.7183 312.96 95.2102 313.367 94.7312 313.806C93.8608 314.494 93.0951 315.305 92.4584 316.214C91.6135 317.676 88.293 334.802 88.293 334.802L100.688 337.286L101.947 328.837L108.639 356.365L123.366 352.351L124.616 352.005L139.52 347.941L131.147 320.903L136.521 327.545L145.95 319.104Z" fill="#FFCA41"/>
<path d="M103.804 335.614C103.489 334.808 103.232 333.981 103.035 333.138C102.613 331.592 102.047 329.421 101.422 326.979L101.464 327.046L100.737 326.092C99.0475 323.844 97.5351 321.799 96.462 320.312C95.9297 319.569 95.4988 318.961 95.2115 318.53C95.0422 318.32 94.9002 318.09 94.7891 317.845C94.9978 318.014 95.1826 318.21 95.3383 318.428C95.6678 318.825 96.1325 319.408 96.6986 320.118C97.8392 321.563 99.3854 323.574 101.075 325.813L101.793 326.784C102.402 329.243 102.917 331.415 103.272 332.986C103.519 333.847 103.697 334.725 103.804 335.614Z" fill="black"/>
<path d="M132.924 327.664C132.581 326.875 132.299 326.062 132.079 325.23C131.589 323.701 130.93 321.555 130.203 319.138V319.054C130.254 318.674 130.296 318.268 130.338 317.854C130.659 315.066 130.972 312.548 131.183 310.723C131.302 309.811 131.411 309.033 131.496 308.568C131.521 308.301 131.578 308.037 131.665 307.783C131.705 308.049 131.705 308.319 131.665 308.585C131.665 309.101 131.572 309.844 131.487 310.757C131.318 312.59 131.056 315.117 130.735 317.905C130.693 318.319 130.642 318.75 130.6 319.105V319.02C131.31 321.445 131.918 323.6 132.341 325.146C132.596 325.97 132.791 326.811 132.924 327.664Z" fill="black"/>
<path d="M118.371 318.462L127.341 316.029L128.89 321.737C129.179 322.805 129.033 323.945 128.483 324.905C127.932 325.866 127.023 326.568 125.954 326.858L125.041 327.106C123.973 327.396 122.833 327.249 121.872 326.699C120.912 326.148 120.21 325.239 119.92 324.17L118.371 318.462Z" fill="white"/>
<path d="M123.941 327.232C123.021 327.227 122.127 326.921 121.397 326.361C120.666 325.802 120.139 325.019 119.894 324.132L118.348 318.462L127.321 316.029L128.867 321.707C129.152 322.782 129.001 323.926 128.448 324.891C127.894 325.856 126.982 326.564 125.91 326.861L125.065 327.097C124.698 327.194 124.32 327.24 123.941 327.232ZM118.398 318.462L119.936 324.132C120.225 325.189 120.92 326.089 121.869 326.636C122.819 327.184 123.946 327.334 125.006 327.055L125.893 326.81C126.95 326.521 127.85 325.826 128.398 324.877C128.945 323.927 129.096 322.8 128.816 321.74L127.278 316.071L118.398 318.462Z" fill="black"/>
<path d="M126.161 326.683C126.161 326.683 126.465 326.573 126.956 326.295C127.549 325.947 128.033 325.441 128.355 324.834C128.678 324.227 128.825 323.542 128.781 322.856C128.678 322.197 128.522 321.547 128.316 320.912C127.919 319.51 127.471 317.964 127.023 316.299L127.268 316.443L122.317 317.803L118.684 318.783L118.827 318.53C119.317 320.372 119.782 322.087 120.196 323.65C120.306 324.039 120.391 324.427 120.517 324.757C120.693 325.214 120.96 325.629 121.303 325.978C121.646 326.327 122.058 326.602 122.511 326.785C123.361 327.122 124.3 327.158 125.173 326.886C125.495 326.788 125.826 326.72 126.161 326.683C125.855 326.827 125.535 326.941 125.207 327.021C124.305 327.36 123.311 327.36 122.41 327.021C121.924 326.829 121.482 326.54 121.111 326.173C120.739 325.805 120.445 325.367 120.247 324.884C120.107 324.51 119.989 324.13 119.892 323.743C119.461 322.188 118.98 320.473 118.473 318.673L118.422 318.479L118.616 318.42L122.249 317.431L127.209 316.088L127.403 316.029L127.454 316.232C127.902 317.921 128.299 319.451 128.688 320.862C128.896 321.517 129.043 322.19 129.127 322.873C129.146 323.48 129.028 324.084 128.781 324.639C128.437 325.414 127.842 326.051 127.091 326.447C126.892 326.548 126.682 326.628 126.465 326.683C126.28 326.683 126.204 326.7 126.161 326.683Z" fill="black"/>
<path d="M138.317 357.759H98.0312V363.141H138.317V357.759Z" fill="#E0E0E0"/>
<path d="M232.645 357.759H192.359V363.141H232.645V357.759Z" fill="#E0E0E0"/>
<path d="M324.988 357.894H286.738V363.006H324.988V357.894Z" fill="#E0E0E0"/>
<path d="M333.017 340.244C332.535 338.554 330.347 338.554 328.75 337.836C324.718 336.066 320.953 333.743 317.563 330.933L283.31 328.601L283.184 329.978C290.991 341.275 305.447 349.563 319.16 348.879C322.85 348.811 326.469 347.848 329.705 346.074C331.471 344.967 333.591 342.255 333.017 340.244Z" fill="#FFCA41"/>
<g opacity="0.3">
<path opacity="0.3" d="M333.021 340.245C332.539 338.555 330.351 338.555 328.754 337.837C324.722 336.067 320.957 333.744 317.567 330.934L283.314 328.602L283.188 329.979C290.995 341.276 305.451 349.564 319.164 348.88C322.854 348.812 326.472 347.849 329.709 346.075C331.475 344.968 333.595 342.256 333.021 340.245Z" fill="black"/>
</g>
<path d="M319.4 322.019C317.71 317.964 315.285 314.153 310.773 312.134C307.953 310.952 304.895 310.45 301.845 310.669C298.795 310.887 295.839 311.82 293.216 313.393C288.096 316.375 284.057 323.785 283.195 329.117C294.965 339.864 318.479 341.79 322.154 335.158C322.602 330.967 321.115 326.067 319.4 322.019Z" fill="#FFCA41"/>
<path d="M332.908 339.585C332.427 337.895 330.593 337.05 328.996 336.383C324.966 334.611 321.201 332.287 317.81 329.48L283.168 329.083C291 340.362 305.668 348.11 319.381 347.383C323.073 347.343 326.701 346.406 329.951 344.654C331.742 343.548 333.483 341.63 332.908 339.585Z" fill="#FFCA41"/>
<path d="M322.539 332.961C322.546 333.108 322.531 333.256 322.497 333.4C322.412 333.824 322.291 334.239 322.133 334.642C321.515 336.129 320.398 337.354 318.973 338.106C318.006 338.625 316.966 338.998 315.889 339.213C315.292 339.332 314.688 339.419 314.081 339.475C313.456 339.542 312.814 339.593 312.155 339.602C309.287 339.649 306.424 339.366 303.621 338.757C298.532 337.683 293.639 335.83 289.114 333.265C287.754 332.486 286.435 331.64 285.16 330.73L284.146 329.944C284.025 329.859 283.914 329.76 283.816 329.648C283.955 329.704 284.086 329.778 284.205 329.868L285.261 330.586C286.182 331.203 287.543 332.048 289.266 333.02C293.801 335.481 298.667 337.277 303.714 338.351C306.49 338.948 309.324 339.231 312.163 339.196C312.799 339.194 313.433 339.157 314.064 339.086C314.66 339.042 315.252 338.966 315.839 338.858C316.888 338.663 317.904 338.318 318.855 337.836C320.241 337.134 321.348 335.985 321.998 334.574C322.205 334.046 322.386 333.507 322.539 332.961Z" fill="black"/>
<path d="M314.817 339.205C314.804 339.005 314.804 338.804 314.817 338.605C314.817 338.165 314.817 337.602 314.817 336.915C314.876 335.419 314.817 333.248 314.708 330.586C314.53 327.464 314.015 324.371 313.17 321.36C312.659 319.595 311.947 317.894 311.049 316.29C310.103 314.575 308.744 313.123 307.095 312.066C306.911 311.955 306.719 311.859 306.52 311.779H306.639C304.749 312.152 302.971 312.956 301.442 314.127C300.043 315.26 298.778 316.55 297.674 317.972C295.731 320.326 294.106 322.925 292.841 325.703C291.751 328.069 291.058 330.063 290.543 331.431L289.943 333.003C289.883 333.187 289.807 333.365 289.715 333.535C289.742 333.341 289.793 333.151 289.867 332.969C289.994 332.564 290.171 332.031 290.382 331.372C290.847 329.995 291.498 327.993 292.554 325.576C293.795 322.752 295.412 320.109 297.361 317.718C298.475 316.262 299.757 314.944 301.18 313.789C302.756 312.572 304.593 311.736 306.546 311.348H306.613H306.664C306.89 311.431 307.108 311.536 307.314 311.66C309.029 312.762 310.44 314.276 311.421 316.062C312.332 317.697 313.05 319.432 313.558 321.233C314.39 324.267 314.88 327.384 315.02 330.527C315.131 332.647 315.131 334.77 315.02 336.89C314.978 337.599 314.944 338.174 314.91 338.579C314.907 338.791 314.875 339.001 314.817 339.205Z" fill="black"/>
<path d="M306.901 310.23L307.134 310.27C307.386 310.313 307.61 310.455 307.757 310.664C307.904 310.873 307.962 311.131 307.919 311.383L307.791 312.124L305.684 311.76L305.812 311.019C305.855 310.771 305.993 310.55 306.196 310.403C306.399 310.256 306.652 310.193 306.901 310.23Z" fill="black"/>
<path d="M306.13 327.824L305.285 331.719C305.285 331.719 310.431 334.524 315.272 333.561C317.04 333.295 318.65 332.394 319.801 331.026L319.471 327.646C319.471 327.646 318.094 329.226 313.937 329.336C310.845 329.446 306.13 327.824 306.13 327.824Z" fill="white"/>
<path d="M331.318 343.455C331.318 343.455 331.242 343.556 331.056 343.717C330.792 343.96 330.509 344.183 330.211 344.384C329.125 345.142 327.943 345.753 326.696 346.201C322.563 347.649 318.156 348.149 313.803 347.663C309.472 347.141 305.258 345.905 301.332 344.004C299.828 343.286 298.645 342.644 297.842 342.171C297.437 341.943 297.133 341.748 296.921 341.622C296.81 341.563 296.708 341.489 296.617 341.402C297.067 341.575 297.502 341.784 297.918 342.027C298.763 342.45 299.946 343.049 301.467 343.717C305.391 345.509 309.57 346.68 313.854 347.19C318.143 347.659 322.483 347.213 326.586 345.88C328.268 345.294 329.86 344.478 331.318 343.455Z" fill="black"/>
<path d="M189.023 320.997C189.023 320.997 193.628 312.303 199.222 311.703C199.222 311.703 209.538 317.617 211.118 317.237C212.698 316.857 210.4 313.857 212.571 312.168C214.743 310.478 216.923 312.37 217.81 313.672C218.697 314.973 224.916 329.176 230.179 332.792C235.443 336.408 243.698 343.658 242.38 346.919C241.383 349.352 241.645 348.465 236.981 349.344C232.317 350.223 216.872 342.779 211.895 337.718C204.08 329.852 194.152 321.445 189.023 320.997Z" fill="#FFCA41"/>
<path d="M240.505 350.366C240.722 350.247 240.89 350.054 240.979 349.824C241.068 349.593 241.074 349.338 240.994 349.103C240.915 348.869 240.755 348.67 240.544 348.541C240.333 348.412 240.083 348.361 239.838 348.398C239.559 348.453 239.277 348.484 238.993 348.491C235.833 348.592 231.769 347.384 226.725 345.196C221.681 343.007 219.847 341.562 213.46 336.746C207.072 331.93 201.791 323.532 196.764 322.095C194.344 321.316 191.811 320.944 189.27 320.997C189.11 321.006 188.956 321.056 188.822 321.141C185.324 323.245 178.86 331.584 182.214 333.814C184.538 335.344 192.582 336.349 198.268 338.293C203.954 340.236 216.408 345.736 223.48 348.187C230.552 350.637 237.751 351.735 240.463 350.434L240.505 350.366Z" fill="white"/>
<path d="M240.502 350.367C240.402 350.439 240.291 350.493 240.173 350.527C239.847 350.667 239.507 350.771 239.159 350.84C237.812 351.057 236.443 351.094 235.087 350.95C230.102 350.405 225.218 349.174 220.571 347.291C214.656 345.086 207.728 342.087 199.929 339.104C196.043 337.558 191.734 336.738 187.298 335.724C186.191 335.454 185.067 335.184 183.961 334.82C183.377 334.644 182.811 334.412 182.271 334.127C181.984 333.982 181.732 333.776 181.532 333.523C181.332 333.271 181.189 332.978 181.113 332.666C180.936 331.435 181.164 330.181 181.764 329.092C182.284 327.995 182.912 326.954 183.639 325.982C184.35 325.002 185.133 324.076 185.98 323.211C186.808 322.327 187.748 321.554 188.777 320.913C189.083 320.809 189.408 320.766 189.731 320.786C190.027 320.786 190.323 320.786 190.576 320.786C191.168 320.786 191.751 320.871 192.334 320.947C193.473 321.103 194.602 321.328 195.713 321.623C196.836 321.872 197.909 322.306 198.89 322.907C199.834 323.512 200.724 324.196 201.552 324.952C203.191 326.422 204.644 328.002 206.089 329.514C208.738 332.481 211.682 335.17 214.876 337.541C217.541 339.703 220.365 341.66 223.325 343.396C228.935 346.244 233.828 347.984 237.334 348.347C238.106 348.436 238.886 348.436 239.657 348.347C239.817 348.308 239.983 348.3 240.145 348.324C240.307 348.349 240.463 348.406 240.604 348.491C240.829 348.652 240.988 348.889 241.052 349.159C241.102 349.334 241.104 349.52 241.058 349.697C241.012 349.874 240.919 350.035 240.79 350.164C240.726 350.229 240.651 350.283 240.57 350.325H240.486C240.581 350.256 240.672 350.179 240.756 350.096C240.872 349.97 240.953 349.815 240.99 349.648C241.027 349.48 241.019 349.305 240.967 349.142C240.901 348.901 240.751 348.691 240.545 348.55C240.288 348.405 239.985 348.366 239.7 348.44C238.914 348.539 238.119 348.539 237.334 348.44C235.189 348.201 233.081 347.702 231.056 346.953C228.36 346.014 225.735 344.884 223.199 343.574C220.197 341.854 217.336 339.902 214.639 337.735C213.073 336.611 211.585 335.38 210.187 334.051C208.742 332.691 207.331 331.212 205.895 329.692C204.458 328.171 202.988 326.616 201.374 325.163C200.563 324.428 199.693 323.761 198.772 323.169C197.826 322.588 196.789 322.171 195.705 321.935C194.592 321.649 193.464 321.429 192.325 321.276C191.759 321.2 191.185 321.15 190.635 321.124C190.348 321.124 190.061 321.124 189.79 321.124C189.528 321.104 189.265 321.133 189.013 321.209C188.035 321.829 187.138 322.57 186.343 323.414C185.514 324.266 184.746 325.175 184.045 326.135C183.337 327.087 182.723 328.106 182.212 329.176C181.664 330.176 181.446 331.323 181.586 332.455C181.814 333.553 183.065 333.925 184.121 334.305C185.177 334.685 186.318 334.939 187.425 335.2C191.835 336.248 196.186 337.085 200.098 338.648C207.914 341.664 214.808 344.68 220.714 346.92C225.328 348.82 230.176 350.094 235.129 350.705C236.473 350.872 237.832 350.872 239.176 350.705C239.521 350.645 239.861 350.554 240.19 350.434L240.502 350.367Z" fill="black"/>
<path d="M224.001 325.222C224.001 325.349 222.92 325.518 221.669 326.008C220.419 326.498 219.498 327.098 219.422 326.996C219.962 326.329 220.693 325.843 221.517 325.602C222.285 325.219 223.154 325.086 224.001 325.222Z" fill="white"/>
<path d="M226.215 328.271C225.607 328.872 224.898 329.361 224.12 329.716C223.413 330.198 222.63 330.558 221.805 330.781C222.415 330.182 223.124 329.694 223.9 329.336C224.608 328.856 225.39 328.496 226.215 328.271Z" fill="white"/>
<path d="M228.717 331.313C228.793 331.414 228.1 332.099 227.255 332.935C226.41 333.772 225.701 334.439 225.608 334.363C225.515 334.287 226.081 333.468 226.943 332.614C227.804 331.761 228.641 331.22 228.717 331.313Z" fill="white"/>
<path d="M195.057 329.528L189.292 327.869C188.844 327.739 188.376 327.998 188.247 328.447L188.195 328.625C188.066 329.074 188.325 329.542 188.774 329.671L194.538 331.331C194.987 331.46 195.455 331.201 195.584 330.752L195.635 330.574C195.765 330.125 195.506 329.657 195.057 329.528Z" fill="#FFCA41"/>
<path d="M197.978 312.438C197.852 311.721 197.563 311.042 197.133 310.453C196.969 310.165 196.699 309.953 196.381 309.861C196.027 309.848 195.679 309.962 195.401 310.182L194.598 310.689C194.429 310.799 194.243 310.926 194.227 311.12C194.226 311.268 194.277 311.411 194.37 311.526L195.545 313.334" fill="#FFCA41"/>
<path d="M199.223 311.753C199.223 311.829 198.471 312.049 197.322 312.598C195.839 313.371 194.471 314.346 193.258 315.496C192.041 316.649 190.974 317.949 190.081 319.366C189.405 320.456 189.075 321.191 189.008 321.166C189.164 320.472 189.436 319.81 189.81 319.206C190.644 317.708 191.707 316.351 192.962 315.184C194.193 313.99 195.622 313.021 197.187 312.32C197.823 312.003 198.514 311.811 199.223 311.753Z" fill="black"/>
<path d="M196.103 313.097C195.976 313.097 195.774 312.556 195.258 312.024C194.743 311.492 194.261 311.179 194.303 311.078C194.346 310.976 195.038 311.078 195.596 311.737C196.154 312.396 196.221 313.089 196.103 313.097Z" fill="black"/>
<g opacity="0.3">
<path opacity="0.3" d="M211.581 316.916C211.7 316.527 216.203 323.929 219.245 326.81C215.865 324.318 212.384 320.287 209.723 317.026C209.723 317.026 211.311 317.812 211.581 316.916Z" fill="black"/>
</g>
<path d="M230.253 334.802C230.074 334.946 229.862 335.045 229.636 335.089C229.034 335.27 228.401 335.325 227.777 335.25C226.853 335.141 225.963 334.835 225.166 334.354C224.216 333.757 223.361 333.019 222.632 332.166C222.243 331.718 221.88 331.262 221.542 330.823C221.204 330.383 220.917 329.978 220.621 329.513L219.1 327.282C218.597 326.615 218.153 325.906 217.773 325.162C218.356 325.759 218.885 326.406 219.353 327.096C219.835 327.756 220.376 328.482 220.967 329.268L221.905 330.561C222.243 330.992 222.606 331.406 222.987 331.87C223.691 332.696 224.51 333.416 225.42 334.008C226.163 334.479 226.993 334.795 227.862 334.937C228.661 335.034 229.47 334.988 230.253 334.802Z" fill="black"/>
<path d="M222.407 325.542C222.298 325.273 222.236 324.988 222.221 324.698C222.116 323.925 222.088 323.144 222.136 322.366C222.203 321.216 222.419 320.08 222.779 318.986C222.984 318.332 223.244 317.696 223.556 317.085C223.714 316.753 223.892 316.432 224.088 316.122C224.209 315.946 224.36 315.794 224.536 315.674C224.64 315.606 224.757 315.562 224.88 315.544C225.002 315.527 225.127 315.536 225.246 315.572C225.449 315.668 225.622 315.817 225.749 316.003C225.875 316.188 225.949 316.404 225.964 316.629C226.015 316.992 226.037 317.36 226.031 317.727C226.041 318.415 225.985 319.103 225.863 319.78C225.654 320.925 225.269 322.031 224.722 323.058C224.357 323.75 223.912 324.397 223.395 324.985C223.225 325.213 223.016 325.411 222.779 325.568C223.404 324.727 223.968 323.844 224.468 322.923C224.96 321.908 225.301 320.826 225.482 319.713C225.595 319.06 225.643 318.398 225.626 317.735C225.629 317.391 225.607 317.046 225.558 316.705C225.508 316.384 225.356 316.054 225.136 315.986C224.916 315.919 224.663 316.096 224.477 316.375C224.288 316.667 224.116 316.968 223.961 317.279C223.659 317.871 223.399 318.484 223.184 319.113C222.819 320.182 222.581 321.291 222.474 322.416C222.263 324.376 222.474 325.534 222.407 325.542Z" fill="white"/>
<path d="M222.48 325.365C222.622 325.106 222.798 324.867 223.004 324.655C223.368 324.225 223.9 323.599 224.61 322.873C225.431 322.006 226.343 321.23 227.33 320.558C227.918 320.157 228.544 319.815 229.198 319.535C229.551 319.362 229.931 319.248 230.321 319.197C230.549 319.164 230.781 319.192 230.994 319.28C231.207 319.368 231.392 319.511 231.53 319.696C231.645 319.889 231.716 320.105 231.736 320.329C231.757 320.552 231.727 320.778 231.648 320.988C231.509 321.357 231.309 321.7 231.056 322.002C230.601 322.565 230.062 323.055 229.459 323.456C228.447 324.108 227.329 324.579 226.156 324.85C225.377 325.042 224.587 325.186 223.79 325.281C223.512 325.338 223.229 325.361 222.945 325.348C222.945 325.264 224.179 325.078 226.105 324.554C227.228 324.246 228.295 323.761 229.265 323.118C229.823 322.734 230.321 322.27 230.744 321.74C231.183 321.208 231.546 320.49 231.192 319.941C231.097 319.823 230.973 319.733 230.832 319.679C230.691 319.626 230.538 319.611 230.389 319.637C230.045 319.68 229.711 319.78 229.4 319.932C228.767 320.199 228.159 320.521 227.584 320.896C226.612 321.548 225.699 322.283 224.855 323.092C223.325 324.486 222.48 325.416 222.48 325.365Z" fill="white"/>
<path d="M355.739 213.126H332.748C330.957 213.126 329.504 214.579 329.504 216.37V239.361C329.504 241.153 330.957 242.605 332.748 242.605H355.739C357.53 242.605 358.983 241.153 358.983 239.361V216.37C358.983 214.579 357.53 213.126 355.739 213.126Z" fill="#FFCA41"/>
<path d="M349.159 230.438H339.417C339.306 230.436 339.199 230.391 339.121 230.312C339.042 230.233 338.997 230.127 338.995 230.016C338.995 229.904 339.039 229.796 339.118 229.717C339.197 229.638 339.305 229.593 339.417 229.593H348.804L349.818 223.873H338.504C338.392 223.873 338.285 223.829 338.206 223.75C338.127 223.67 338.082 223.563 338.082 223.451C338.082 223.339 338.127 223.231 338.206 223.152C338.285 223.073 338.392 223.028 338.504 223.028H350.333C350.395 223.028 350.457 223.04 350.513 223.065C350.57 223.09 350.621 223.126 350.663 223.172C350.701 223.22 350.728 223.276 350.743 223.336C350.757 223.396 350.759 223.458 350.747 223.518L349.59 230.092C349.572 230.192 349.518 230.282 349.439 230.345C349.36 230.409 349.26 230.442 349.159 230.438Z" fill="white"/>
<path d="M348.835 232.737H339.541C339.438 232.735 339.34 232.697 339.264 232.629C339.188 232.56 339.139 232.467 339.127 232.365L337.834 222.141H335.223C335.111 222.141 335.004 222.097 334.925 222.018C334.845 221.939 334.801 221.831 334.801 221.719C334.801 221.607 334.845 221.5 334.925 221.42C335.004 221.341 335.111 221.297 335.223 221.297H338.231C338.334 221.294 338.435 221.329 338.513 221.397C338.591 221.464 338.641 221.558 338.654 221.66L339.921 231.858H348.826C348.938 231.858 349.046 231.903 349.125 231.982C349.204 232.061 349.249 232.168 349.249 232.28C349.252 232.338 349.244 232.395 349.225 232.449C349.206 232.503 349.176 232.553 349.138 232.596C349.099 232.638 349.053 232.673 349.001 232.697C348.949 232.721 348.892 232.735 348.835 232.737Z" fill="white"/>
<path d="M341.072 236.032C340.759 236.032 340.453 235.939 340.193 235.765C339.933 235.591 339.731 235.344 339.612 235.055C339.492 234.766 339.462 234.447 339.523 234.141C339.585 233.834 339.736 233.552 339.958 233.332C340.18 233.111 340.462 232.961 340.769 232.901C341.076 232.841 341.394 232.874 341.683 232.995C341.971 233.116 342.217 233.319 342.39 233.58C342.563 233.841 342.654 234.148 342.652 234.461C342.652 234.668 342.611 234.873 342.532 235.064C342.452 235.255 342.336 235.429 342.189 235.575C342.042 235.721 341.868 235.836 341.676 235.915C341.485 235.993 341.279 236.033 341.072 236.032ZM341.072 233.725C340.927 233.725 340.785 233.769 340.664 233.849C340.543 233.93 340.449 234.045 340.393 234.179C340.337 234.314 340.323 234.461 340.351 234.604C340.38 234.747 340.45 234.877 340.552 234.98C340.655 235.083 340.786 235.153 340.929 235.181C341.071 235.21 341.219 235.195 341.353 235.14C341.488 235.084 341.603 234.99 341.683 234.869C341.764 234.748 341.807 234.606 341.807 234.461C341.808 234.364 341.79 234.268 341.754 234.178C341.717 234.088 341.663 234.007 341.594 233.938C341.526 233.87 341.444 233.816 341.355 233.779C341.265 233.743 341.169 233.724 341.072 233.725Z" fill="white"/>
<path d="M347.475 236.033C347.162 236.034 346.855 235.943 346.594 235.77C346.333 235.597 346.129 235.35 346.009 235.061C345.888 234.772 345.856 234.454 345.917 234.146C345.977 233.839 346.128 233.557 346.349 233.335C346.571 233.114 346.853 232.963 347.161 232.903C347.468 232.842 347.786 232.874 348.075 232.994C348.364 233.115 348.611 233.319 348.784 233.58C348.957 233.841 349.048 234.148 349.047 234.461C349.044 234.877 348.878 235.276 348.584 235.57C348.29 235.864 347.891 236.03 347.475 236.033ZM347.475 233.726C347.329 233.724 347.186 233.766 347.064 233.846C346.942 233.925 346.847 234.04 346.79 234.174C346.733 234.308 346.717 234.456 346.745 234.599C346.772 234.742 346.841 234.874 346.944 234.978C347.046 235.081 347.177 235.152 347.32 235.181C347.463 235.21 347.611 235.196 347.746 235.141C347.881 235.086 347.996 234.991 348.077 234.87C348.158 234.749 348.202 234.607 348.202 234.461C348.202 234.267 348.126 234.082 347.989 233.944C347.853 233.807 347.669 233.728 347.475 233.726Z" fill="white"/>
<path d="M342.461 230.439C342.354 230.437 342.251 230.395 342.173 230.322C342.095 230.249 342.047 230.149 342.039 230.042L341.641 223.688C341.638 223.632 341.646 223.577 341.664 223.524C341.682 223.472 341.71 223.423 341.747 223.382C341.784 223.34 341.829 223.306 341.879 223.282C341.929 223.258 341.983 223.243 342.039 223.24C342.094 223.236 342.15 223.242 342.203 223.26C342.257 223.278 342.305 223.306 342.347 223.343C342.389 223.38 342.423 223.425 342.447 223.476C342.471 223.526 342.484 223.581 342.486 223.637L342.883 229.991C342.887 230.047 342.879 230.102 342.861 230.155C342.843 230.207 342.815 230.256 342.778 230.297C342.741 230.339 342.696 230.373 342.646 230.397C342.596 230.421 342.542 230.436 342.486 230.439H342.461Z" fill="white"/>
<path d="M345.988 230.439C345.932 230.436 345.878 230.421 345.828 230.397C345.778 230.373 345.733 230.339 345.696 230.297C345.659 230.256 345.631 230.207 345.613 230.155C345.595 230.102 345.587 230.047 345.591 229.991L345.946 223.637C345.946 223.582 345.959 223.527 345.982 223.477C346.005 223.426 346.038 223.381 346.079 223.343C346.12 223.306 346.169 223.278 346.221 223.26C346.274 223.242 346.33 223.236 346.385 223.24C346.44 223.242 346.494 223.255 346.544 223.279C346.594 223.302 346.639 223.335 346.676 223.376C346.713 223.417 346.741 223.465 346.76 223.517C346.778 223.569 346.785 223.624 346.782 223.68L346.427 230.042C346.425 230.097 346.412 230.151 346.388 230.201C346.365 230.251 346.332 230.296 346.291 230.333C346.25 230.37 346.202 230.398 346.15 230.416C346.098 230.435 346.043 230.442 345.988 230.439Z" fill="white"/>
<path d="M338.86 227.261C338.749 227.259 338.642 227.214 338.564 227.135C338.485 227.057 338.44 226.95 338.438 226.839C338.438 226.727 338.482 226.619 338.561 226.54C338.64 226.461 338.748 226.416 338.86 226.416L349.734 226.307C349.845 226.309 349.952 226.354 350.03 226.433C350.109 226.512 350.154 226.618 350.157 226.729C350.158 226.784 350.148 226.839 350.127 226.89C350.107 226.941 350.077 226.988 350.038 227.027C350 227.067 349.954 227.098 349.903 227.119C349.852 227.141 349.798 227.152 349.743 227.152L338.868 227.261H338.86Z" fill="white"/>
<path d="M315.004 262.554L272.116 277.762C271.728 277.879 271.31 277.841 270.948 277.658C270.587 277.475 270.309 277.16 270.174 276.778C270.038 276.396 270.054 275.976 270.219 275.606C270.384 275.235 270.685 274.943 271.06 274.788L312.706 260.002L308.085 232.416L257.803 250.277C257.415 250.394 256.997 250.356 256.635 250.173C256.274 249.99 255.996 249.674 255.861 249.292C255.725 248.91 255.741 248.491 255.906 248.121C256.071 247.75 256.372 247.458 256.747 247.303L308.803 228.825C309.02 228.747 309.252 228.719 309.481 228.74C309.711 228.762 309.933 228.834 310.132 228.951C310.331 229.068 310.501 229.226 310.632 229.416C310.763 229.606 310.851 229.822 310.89 230.05L316.035 260.805C316.096 261.171 316.026 261.547 315.838 261.867C315.649 262.187 315.354 262.43 315.004 262.554Z" fill="white"/>
<path d="M317.19 273.174L276.288 287.538C275.927 287.663 275.533 287.653 275.179 287.51C274.825 287.367 274.534 287.101 274.361 286.761L252.452 243.509L240.624 247.734C240.426 247.815 240.213 247.856 239.999 247.853C239.785 247.85 239.574 247.803 239.378 247.716C239.183 247.629 239.007 247.503 238.861 247.346C238.716 247.189 238.604 247.004 238.533 246.802C238.461 246.6 238.431 246.386 238.445 246.172C238.458 245.959 238.515 245.75 238.612 245.559C238.709 245.368 238.843 245.199 239.008 245.061C239.172 244.924 239.362 244.821 239.567 244.76L252.689 240.104C253.05 239.974 253.446 239.981 253.802 240.122C254.158 240.264 254.451 240.531 254.624 240.873L276.558 284.099L316.151 270.2C316.539 270.084 316.957 270.121 317.319 270.304C317.681 270.488 317.958 270.803 318.094 271.185C318.229 271.567 318.213 271.987 318.048 272.357C317.883 272.727 317.582 273.02 317.207 273.174H317.19Z" fill="white"/>
<path d="M288.155 299.874C286.856 300.338 285.448 300.406 284.111 300.07C282.773 299.733 281.566 299.008 280.641 297.985C279.715 296.962 279.115 295.688 278.914 294.323C278.713 292.959 278.922 291.565 279.514 290.32C280.105 289.074 281.053 288.031 282.237 287.324C283.422 286.617 284.789 286.278 286.166 286.348C287.544 286.418 288.869 286.896 289.975 287.72C291.081 288.544 291.918 289.677 292.379 290.977C292.686 291.839 292.821 292.752 292.774 293.666C292.728 294.579 292.503 295.475 292.11 296.301C291.718 297.127 291.167 297.868 290.488 298.481C289.809 299.094 289.016 299.567 288.155 299.874ZM284.547 289.735C283.838 289.988 283.219 290.446 282.77 291.05C282.321 291.654 282.06 292.378 282.022 293.13C281.984 293.882 282.169 294.628 282.554 295.275C282.94 295.922 283.508 296.44 284.188 296.764C284.868 297.088 285.628 297.203 286.374 297.095C287.119 296.987 287.815 296.661 288.375 296.158C288.935 295.654 289.333 294.996 289.52 294.267C289.706 293.537 289.672 292.769 289.422 292.059C289.261 291.58 289.007 291.138 288.674 290.758C288.341 290.379 287.936 290.069 287.483 289.848C287.029 289.626 286.536 289.497 286.032 289.467C285.528 289.438 285.023 289.509 284.547 289.676V289.735Z" fill="white"/>
<path d="M316.351 289.836C315.051 290.302 313.641 290.371 312.302 290.035C310.962 289.699 309.752 288.974 308.825 287.95C307.898 286.926 307.296 285.65 307.094 284.284C306.893 282.918 307.101 281.522 307.693 280.274C308.285 279.027 309.234 277.982 310.42 277.274C311.605 276.566 312.974 276.225 314.354 276.296C315.733 276.366 317.061 276.844 318.168 277.669C319.276 278.494 320.113 279.629 320.575 280.931C321.194 282.672 321.096 284.587 320.304 286.257C319.512 287.926 318.09 289.214 316.351 289.836ZM312.743 279.697C312.031 279.95 311.41 280.407 310.958 281.013C310.506 281.618 310.244 282.344 310.205 283.098C310.166 283.852 310.351 284.601 310.737 285.251C311.124 285.9 311.694 286.419 312.376 286.744C313.058 287.069 313.82 287.185 314.568 287.076C315.315 286.968 316.014 286.64 316.575 286.134C317.136 285.629 317.535 284.968 317.721 284.236C317.906 283.504 317.871 282.733 317.618 282.021C317.455 281.544 317.199 281.105 316.865 280.728C316.531 280.352 316.126 280.045 315.672 279.825C315.219 279.606 314.727 279.479 314.224 279.451C313.721 279.423 313.218 279.496 312.743 279.663V279.697Z" fill="white"/>
<path d="M285.365 273.073C284.988 273.21 284.574 273.199 284.205 273.043C283.837 272.886 283.541 272.595 283.379 272.228L271.694 244.845C271.614 244.653 271.571 244.448 271.57 244.24C271.569 244.033 271.609 243.827 271.687 243.634C271.766 243.442 271.882 243.267 272.028 243.12C272.174 242.972 272.348 242.855 272.539 242.775C272.729 242.685 272.936 242.637 273.146 242.631C273.356 242.626 273.565 242.664 273.759 242.744C273.954 242.823 274.13 242.942 274.276 243.093C274.422 243.243 274.536 243.423 274.609 243.619L286.294 271.003C286.375 271.195 286.417 271.4 286.418 271.608C286.419 271.815 286.379 272.021 286.301 272.213C286.222 272.406 286.107 272.581 285.961 272.728C285.815 272.876 285.641 272.993 285.449 273.073H285.365Z" fill="white"/>
<path d="M301.059 267.505H300.974C300.573 267.623 300.142 267.577 299.774 267.378C299.407 267.178 299.134 266.841 299.014 266.44L290.641 237.882C290.573 237.684 290.546 237.473 290.564 237.264C290.581 237.055 290.642 236.852 290.742 236.668C290.842 236.483 290.979 236.322 291.145 236.194C291.311 236.065 291.502 235.973 291.706 235.922C291.905 235.864 292.114 235.845 292.32 235.868C292.526 235.89 292.726 235.953 292.908 236.052C293.09 236.152 293.251 236.287 293.381 236.448C293.511 236.61 293.608 236.796 293.666 236.995L302.047 265.553C302.166 265.943 302.13 266.364 301.946 266.728C301.761 267.092 301.444 267.37 301.059 267.505Z" fill="white"/>
<path d="M264.733 264.649C264.342 264.778 263.916 264.749 263.546 264.568C263.176 264.387 262.891 264.069 262.753 263.681C262.614 263.293 262.632 262.866 262.803 262.492C262.974 262.117 263.285 261.824 263.669 261.675L311.407 244.202C311.793 244.089 312.207 244.128 312.565 244.31C312.924 244.491 313.199 244.803 313.336 245.181C313.473 245.559 313.46 245.975 313.301 246.344C313.142 246.713 312.848 247.008 312.48 247.168L264.733 264.641V264.649Z" fill="white"/>
<path d="M442.536 211.725H330.568C327.124 211.725 324.332 214.516 324.332 217.96V359.239C324.332 362.683 327.124 365.474 330.568 365.474H442.536C445.98 365.474 448.772 362.683 448.772 359.239V217.96C448.772 214.516 445.98 211.725 442.536 211.725Z" fill="white"/>
<path d="M329.545 211.725H443.609C444.99 211.725 446.313 212.273 447.289 213.249C448.265 214.225 448.814 215.549 448.814 216.929V229.747H324.332V216.938C324.331 216.253 324.465 215.574 324.727 214.941C324.988 214.308 325.372 213.733 325.856 213.249C326.341 212.765 326.916 212.381 327.549 212.119C328.182 211.858 328.86 211.724 329.545 211.725Z" fill="#E0E0E0"/>
<path d="M443.666 365.474H444.021C444.371 365.448 444.716 365.383 445.052 365.28C445.714 365.09 446.33 364.768 446.863 364.332C447.396 363.896 447.835 363.356 448.153 362.745C448.366 362.319 448.525 361.868 448.626 361.402C448.709 360.874 448.74 360.339 448.719 359.805C448.719 358.681 448.719 357.448 448.719 356.113C448.719 353.451 448.719 350.367 448.719 346.911C448.719 333.046 448.676 312.996 448.651 288.232C448.651 275.845 448.651 262.276 448.651 247.676C448.651 240.393 448.651 232.867 448.651 225.1C448.651 223.162 448.651 221.21 448.651 219.244C448.651 218.264 448.651 217.25 448.651 216.304C448.546 215.348 448.164 214.444 447.553 213.702C446.928 212.962 446.104 212.416 445.179 212.13C444.21 211.925 443.217 211.856 442.23 211.927H436.129H329.568C328.429 211.935 327.326 212.331 326.442 213.051C325.567 213.776 324.97 214.783 324.752 215.898C324.667 216.457 324.636 217.023 324.659 217.588V263.949C324.659 281.768 324.659 298.962 324.659 315.345C324.659 323.533 324.659 331.525 324.659 339.282V350.747C324.659 352.632 324.659 354.499 324.659 356.349V359.112C324.598 360.008 324.672 360.908 324.879 361.782C325.138 362.62 325.615 363.374 326.26 363.968C326.906 364.562 327.698 364.974 328.554 365.162C329.425 365.279 330.305 365.316 331.182 365.271H344.177H363.61L422.281 365.339H438.233H442.382C443.32 365.339 443.801 365.339 443.801 365.339H442.382H438.233H422.281L363.61 365.415H331.039C330.136 365.462 329.231 365.425 328.335 365.305C327.418 365.103 326.571 364.663 325.879 364.03C325.186 363.397 324.672 362.592 324.389 361.698C324.164 360.789 324.084 359.851 324.152 358.918C324.152 358.005 324.152 357.076 324.152 356.155V350.553C324.152 346.796 324.152 342.974 324.152 339.087C324.152 331.331 324.152 323.338 324.152 315.151C324.152 298.768 324.152 281.574 324.152 263.755C324.152 254.838 324.152 245.775 324.152 236.565V217.631C324.128 217.029 324.162 216.426 324.254 215.831C324.49 214.615 325.141 213.519 326.096 212.73C327.05 211.949 328.242 211.517 329.475 211.505H436.036H443.641C444.164 211.506 444.684 211.579 445.187 211.725C446.176 212.034 447.056 212.621 447.722 213.414C448.387 214.215 448.804 215.193 448.922 216.228C448.989 217.259 448.922 218.214 448.922 219.211C448.922 221.182 448.922 223.134 448.922 225.066C448.922 232.828 448.922 240.353 448.922 247.642C448.922 262.208 448.922 275.778 448.922 288.198C448.922 312.963 448.862 332.979 448.854 346.878C448.854 350.333 448.854 353.417 448.854 356.079C448.854 357.414 448.854 358.614 448.854 359.771C448.87 360.311 448.833 360.852 448.744 361.385C448.645 361.862 448.48 362.322 448.254 362.754C447.926 363.369 447.476 363.912 446.931 364.348C446.386 364.784 445.758 365.104 445.086 365.288C444.747 365.387 444.398 365.443 444.046 365.457L443.666 365.474Z" fill="black"/>
<path d="M337.006 220.739C337.006 221.311 336.836 221.869 336.519 222.345C336.201 222.82 335.75 223.19 335.222 223.409C334.694 223.628 334.113 223.685 333.552 223.573C332.992 223.462 332.477 223.187 332.073 222.783C331.669 222.378 331.394 221.863 331.282 221.303C331.171 220.742 331.228 220.161 331.447 219.633C331.665 219.105 332.036 218.654 332.511 218.337C332.986 218.019 333.545 217.85 334.116 217.85C334.883 217.85 335.618 218.154 336.159 218.696C336.701 219.238 337.006 219.973 337.006 220.739Z" fill="white"/>
<path d="M345.318 220.739C345.318 221.311 345.149 221.87 344.831 222.346C344.513 222.821 344.061 223.191 343.533 223.41C343.004 223.628 342.423 223.685 341.862 223.573C341.301 223.461 340.786 223.184 340.382 222.78C339.979 222.375 339.704 221.859 339.594 221.298C339.483 220.737 339.541 220.155 339.761 219.628C339.981 219.1 340.353 218.649 340.829 218.333C341.306 218.016 341.865 217.848 342.437 217.85C342.816 217.85 343.192 217.924 343.542 218.07C343.892 218.215 344.21 218.428 344.477 218.696C344.745 218.965 344.957 219.284 345.101 219.634C345.246 219.985 345.319 220.36 345.318 220.739Z" fill="white"/>
<path d="M353.643 220.739C353.643 221.311 353.473 221.869 353.156 222.345C352.838 222.82 352.387 223.19 351.859 223.409C351.331 223.628 350.75 223.685 350.189 223.573C349.629 223.462 349.114 223.187 348.71 222.783C348.306 222.378 348.03 221.863 347.919 221.303C347.807 220.742 347.865 220.161 348.083 219.633C348.302 219.105 348.672 218.654 349.148 218.337C349.623 218.019 350.181 217.85 350.753 217.85C351.519 217.85 352.254 218.154 352.796 218.696C353.338 219.238 353.643 219.973 353.643 220.739Z" fill="white"/>
<path d="M402.669 240.291H374.897C373.105 240.291 371.652 241.744 371.652 243.536V271.308C371.652 273.1 373.105 274.552 374.897 274.552H402.669C404.461 274.552 405.914 273.1 405.914 271.308V243.536C405.914 241.744 404.461 240.291 402.669 240.291Z" fill="#FFCA41"/>
<path d="M382.109 252.289H395.848L394.496 259.927H383.182" stroke="white" stroke-width="0.75" stroke-linecap="round" stroke-linejoin="round"/>
<path d="M378.305 250.261H381.769L383.349 262.554L394.122 262.597" stroke="white" stroke-width="0.75" stroke-linecap="round" stroke-linejoin="round"/>
<path d="M386.452 265.09C386.452 265.355 386.374 265.615 386.226 265.836C386.078 266.057 385.869 266.229 385.623 266.331C385.378 266.432 385.108 266.459 384.847 266.407C384.586 266.355 384.347 266.227 384.159 266.039C383.971 265.852 383.843 265.612 383.791 265.352C383.74 265.091 383.766 264.821 383.868 264.575C383.97 264.33 384.142 264.12 384.363 263.972C384.584 263.825 384.843 263.746 385.109 263.746C385.285 263.746 385.46 263.781 385.623 263.848C385.786 263.916 385.934 264.015 386.059 264.14C386.184 264.264 386.283 264.412 386.35 264.575C386.418 264.738 386.452 264.913 386.452 265.09V265.09Z" stroke="white" stroke-width="0.75" stroke-linecap="round" stroke-linejoin="round"/>
<path d="M393.882 265.09C393.882 265.355 393.803 265.615 393.656 265.836C393.508 266.057 393.298 266.229 393.053 266.331C392.807 266.432 392.537 266.459 392.277 266.407C392.016 266.355 391.777 266.227 391.589 266.039C391.401 265.852 391.273 265.612 391.221 265.352C391.169 265.091 391.196 264.821 391.298 264.575C391.399 264.33 391.571 264.12 391.792 263.972C392.013 263.825 392.273 263.746 392.539 263.746C392.895 263.746 393.237 263.888 393.489 264.14C393.741 264.392 393.882 264.733 393.882 265.09V265.09Z" stroke="white" stroke-width="0.75" stroke-linecap="round" stroke-linejoin="round"/>
<path d="M386.207 252.534L386.672 259.927" stroke="white" stroke-width="0.75" stroke-linecap="round" stroke-linejoin="round"/>
<path d="M391.23 252.534L390.816 259.927" stroke="white" stroke-width="0.75" stroke-linecap="round" stroke-linejoin="round"/>
<path d="M382.535 256.235L395.175 256.108" stroke="white" stroke-width="0.75" stroke-linecap="round" stroke-linejoin="round"/>
<path d="M396.552 254.748C398.596 254.748 400.253 253.091 400.253 251.047C400.253 249.004 398.596 247.347 396.552 247.347C394.508 247.347 392.852 249.004 392.852 251.047C392.852 253.091 394.508 254.748 396.552 254.748Z" fill="white"/>
<path d="M382.019 284.565H343.77V289.677H382.019V284.565Z" fill="#E0E0E0"/>
<path d="M429.337 284.565H414.449V289.677H429.337V284.565Z" fill="#E0E0E0"/>
<path d="M393.206 295.414H343.77V300.525H393.206V295.414Z" fill="#E0E0E0"/>
<path d="M429.337 295.414H414.449V300.525H429.337V295.414Z" fill="#E0E0E0"/>
<path d="M366.92 306.262H343.77V311.374H366.92V306.262Z" fill="#E0E0E0"/>
<path d="M429.337 306.262H414.449V311.374H429.337V306.262Z" fill="#E0E0E0"/>
<path d="M429.337 316.587H414.449V321.699H429.337V316.587Z" fill="#455A64"/>
<path d="M398.935 334.644H371.281C366.848 334.644 363.254 338.237 363.254 342.67V343.532C363.254 347.965 366.848 351.559 371.281 351.559H398.935C403.368 351.559 406.962 347.965 406.962 343.532V342.67C406.962 338.237 403.368 334.644 398.935 334.644Z" fill="#FFCA41"/>
<path d="M397.264 251.728C397.609 251.785 397.874 251.914 398.058 252.117C398.241 252.316 398.333 252.564 398.333 252.86C398.333 253.089 398.273 253.301 398.153 253.496C398.033 253.688 397.849 253.842 397.602 253.958C397.358 254.074 397.057 254.133 396.701 254.133C396.423 254.133 396.149 254.097 395.879 254.026C395.612 253.95 395.385 253.845 395.197 253.71L395.552 253.012C395.702 253.125 395.875 253.213 396.07 253.277C396.269 253.337 396.472 253.367 396.678 253.367C396.907 253.367 397.087 253.324 397.219 253.237C397.35 253.147 397.416 253.022 397.416 252.86C397.416 252.537 397.17 252.376 396.678 252.376H396.262V251.774L397.072 250.856H395.395V250.124H398.153V250.715L397.264 251.728Z" fill="#FFCA41"/>
<path d="M114.883 412.358C114.883 412.358 114.815 411.859 114.638 410.981C114.411 409.74 114.042 408.53 113.539 407.373C112.825 405.646 111.764 404.084 110.421 402.785C108.794 401.168 106.595 400.257 104.3 400.249C102.006 400.241 99.8005 401.137 98.1616 402.743C96.8146 404.037 95.7452 405.593 95.0185 407.314C94.5167 408.472 94.1428 409.682 93.9033 410.922C93.7343 411.767 93.692 412.299 93.6582 412.299C93.6452 412.178 93.6452 412.056 93.6582 411.936C93.6758 411.59 93.7125 411.246 93.7681 410.905C93.9544 409.639 94.2978 408.402 94.7904 407.221C95.5 405.449 96.5737 403.846 97.942 402.515C99.6241 400.837 101.903 399.895 104.279 399.895C106.655 399.895 108.934 400.837 110.616 402.515C111.978 403.852 113.043 405.461 113.742 407.238C114.233 408.419 114.573 409.656 114.756 410.922C114.809 411.263 114.843 411.607 114.857 411.952C114.882 412.086 114.89 412.222 114.883 412.358Z" fill="#3D3D3D"/>
<path d="M118.553 412.358C118.511 412.358 118.477 411.859 118.308 410.981C118.077 409.741 117.708 408.531 117.21 407.373C116.492 405.646 115.428 404.084 114.083 402.785C112.457 401.168 110.259 400.258 107.966 400.25C105.673 400.242 103.469 401.137 101.832 402.743C100.485 404.039 99.4135 405.594 98.6805 407.314C98.1806 408.472 97.8095 409.682 97.5736 410.922C97.3962 411.766 97.3624 412.299 97.3286 412.299C97.3123 412.178 97.3123 412.056 97.3286 411.935C97.3499 411.59 97.3894 411.246 97.4469 410.905C97.6336 409.64 97.9741 408.403 98.4608 407.221C99.1767 405.452 100.25 403.85 101.612 402.515C103.296 400.839 105.574 399.898 107.949 399.898C110.324 399.898 112.603 400.839 114.286 402.515C115.643 403.857 116.707 405.465 117.412 407.238C117.897 408.42 118.235 409.657 118.418 410.922C118.473 411.263 118.51 411.607 118.528 411.952C118.552 412.086 118.561 412.222 118.553 412.358Z" fill="#3D3D3D"/>
<path d="M83.1726 411.048L124.557 410.727L125.461 467.151H79.0156L83.1726 411.048Z" fill="#EBEBEB"/>
<path d="M124.559 410.727H129.755L134.233 467.151H125.463L124.559 410.727Z" fill="#E0E0E0"/>
<path d="M115.792 432.94H88.6953V437.478H115.792V432.94Z" fill="white"/>
<path d="M96.0113 425.606C95.7827 423.853 95.3721 422.128 94.7862 420.46C94.1544 418.721 93.1966 417.118 91.9641 415.737C91.2925 414.924 90.4502 414.269 89.4969 413.817C88.5437 413.366 87.5029 413.13 86.4483 413.126C85.3937 413.122 84.3511 413.35 83.3944 413.794C82.4378 414.238 81.5905 414.887 80.9126 415.695C79.6761 417.069 78.7126 418.666 78.0737 420.401C77.484 422.066 77.0677 423.788 76.8317 425.538C76.8113 425.415 76.8113 425.289 76.8317 425.166C76.8317 424.921 76.8317 424.558 76.9331 424.102C77.0926 422.801 77.3987 421.523 77.8456 420.291C78.4628 418.494 79.4306 416.837 80.6929 415.416C81.3934 414.566 82.2739 413.883 83.2707 413.415C84.2675 412.948 85.3557 412.707 86.4568 412.711C87.5579 412.715 88.6444 412.964 89.6377 413.439C90.6311 413.914 91.5065 414.604 92.2007 415.458C93.4538 416.886 94.4154 418.545 95.0312 420.342C95.4713 421.578 95.7744 422.859 95.9352 424.161C95.9944 424.617 96.0197 425.006 96.0282 425.226C96.0427 425.352 96.037 425.481 96.0113 425.606Z" fill="black"/>
<path d="M99.3299 425.606C99.0952 423.853 98.6819 422.129 98.0963 420.46C97.4645 418.721 96.5067 417.118 95.2742 415.737C94.6034 414.924 93.7618 414.269 92.8093 413.818C91.8567 413.367 90.8166 413.131 89.7626 413.127C88.7086 413.123 87.6667 413.351 86.7107 413.794C85.7548 414.238 84.9082 414.887 84.2312 415.695C82.9893 417.067 82.0226 418.664 81.3838 420.401C80.7941 422.066 80.3779 423.788 80.1418 425.538C80.1194 425.415 80.1194 425.289 80.1418 425.166C80.1418 424.921 80.1418 424.558 80.2347 424.102C80.3984 422.802 80.7044 421.524 81.1472 420.291C81.7645 418.494 82.7323 416.837 83.9946 415.416C84.6951 414.566 85.5756 413.883 86.5723 413.415C87.5691 412.948 88.6574 412.707 89.7585 412.711C90.8596 412.715 91.9461 412.964 92.9394 413.439C93.9327 413.914 94.8081 414.604 95.5024 415.458C96.7585 416.884 97.7204 418.543 98.3329 420.342C98.7729 421.578 99.0761 422.859 99.2369 424.161C99.2961 424.617 99.3214 425.006 99.3299 425.226C99.3409 425.352 99.3409 425.479 99.3299 425.606Z" fill="black"/>
<path d="M65.685 423.375L103.106 423.113L103.918 469.542H61.9336L65.685 423.375Z" fill="#3D3D3D"/>
<path d="M103.109 423.113H107.807L111.846 469.542H103.92L103.109 423.113Z" fill="#3D3D3D"/>
<g opacity="0.3">
<path opacity="0.3" d="M103.105 423.114H107.803L111.842 469.542H103.917L103.105 423.114Z" fill="black"/>
</g>
<path d="M96.7207 438.88H72.2266V443.57H96.7207V438.88Z" fill="white"/>
<path d="M448.589 456.074C448.433 454.823 448.15 453.592 447.744 452.399C447.291 451.154 446.606 450.007 445.724 449.019C445.243 448.441 444.64 447.976 443.959 447.657C443.278 447.337 442.535 447.172 441.783 447.172C441.03 447.172 440.287 447.337 439.606 447.657C438.925 447.976 438.323 448.441 437.841 449.019C436.954 450.005 436.265 451.152 435.813 452.399C435.391 453.587 435.093 454.816 434.926 456.066C434.915 455.979 434.915 455.891 434.926 455.804C434.926 455.626 434.926 455.364 434.994 455.035C435.112 454.11 435.33 453.201 435.644 452.323C436.089 451.041 436.781 449.858 437.681 448.842C438.177 448.232 438.804 447.741 439.514 447.404C440.224 447.066 441.001 446.891 441.787 446.891C442.573 446.891 443.35 447.066 444.06 447.404C444.77 447.741 445.396 448.232 445.893 448.842C446.789 449.857 447.476 451.04 447.913 452.323C448.225 453.206 448.441 454.121 448.555 455.052C448.597 455.381 448.614 455.635 448.622 455.812C448.621 455.901 448.61 455.988 448.589 456.074Z" fill="black"/>
<path d="M450.953 456.074C450.797 454.823 450.514 453.592 450.108 452.399C449.655 451.154 448.97 450.007 448.088 449.019C447.607 448.441 447.004 447.976 446.323 447.656C445.642 447.337 444.899 447.172 444.147 447.172C443.395 447.172 442.651 447.337 441.97 447.656C441.289 447.976 440.687 448.441 440.205 449.019C439.318 450.005 438.629 451.152 438.177 452.399C437.769 453.588 437.486 454.817 437.333 456.066C437.321 455.979 437.321 455.891 437.333 455.804C437.333 455.626 437.333 455.364 437.4 455.035C437.518 454.11 437.737 453.201 438.051 452.323C438.492 451.039 439.184 449.856 440.087 448.842C440.598 448.25 441.228 447.772 441.935 447.439C442.642 447.106 443.412 446.924 444.193 446.907C444.977 446.932 445.747 447.12 446.453 447.459C447.16 447.798 447.789 448.28 448.3 448.875C449.193 449.893 449.879 451.076 450.319 452.356C450.631 453.24 450.847 454.155 450.961 455.086C450.961 455.415 451.02 455.669 451.029 455.846C451.011 455.925 450.986 456.001 450.953 456.074Z" fill="black"/>
<path d="M426.944 454.477L453.652 454.291L454.235 487.429H424.266L426.944 454.477Z" fill="#3D3D3D"/>
<path d="M453.66 454.291H457.015L459.896 487.429H454.243L453.66 454.291Z" fill="#3D3D3D"/>
<g opacity="0.3">
<path opacity="0.3" d="M453.652 454.29H457.007L459.888 487.428H454.235L453.652 454.29Z" fill="black"/>
</g>
<path d="M449.102 465.546H431.621V468.892H449.102V465.546Z" fill="white"/>
<path d="M248.513 397.352L242.649 397.005C239.199 400.217 234.671 402.023 229.957 402.066C225.243 402.11 220.683 400.389 217.174 397.241C213.664 394.094 211.459 389.747 210.992 385.056C210.524 380.365 211.828 375.669 214.647 371.891C217.466 368.112 221.597 365.525 226.226 364.637C230.856 363.749 235.651 364.626 239.668 367.093C243.684 369.561 246.633 373.442 247.933 377.973C249.234 382.505 248.793 387.358 246.696 391.581L248.513 397.352Z" fill="white"/>
<path d="M248.513 397.352L248.403 396.988L248.073 395.882C247.769 394.902 247.33 393.448 246.747 391.564V391.48L246.696 391.539L246.772 391.598C248.181 388.789 248.867 385.673 248.766 382.532C248.74 381.553 248.632 380.578 248.445 379.617C248.242 378.588 247.96 377.577 247.6 376.592C245.915 372.006 242.513 368.255 238.112 366.132C235.567 364.882 232.773 364.225 229.938 364.211C227.104 364.196 224.303 364.824 221.746 366.048C218.971 367.342 216.562 369.304 214.733 371.759L214.032 372.706L213.432 373.703L213.136 374.201L212.882 374.725L212.392 375.764C212.24 376.119 212.122 376.482 211.987 376.837C211.845 377.189 211.726 377.551 211.632 377.919C211.415 378.644 211.251 379.383 211.142 380.132C210.66 382.937 210.823 385.814 211.616 388.547C212.409 391.28 213.813 393.796 215.721 395.907C217.438 397.793 219.515 399.316 221.83 400.385C223.927 401.352 226.184 401.924 228.488 402.075C229.537 402.156 230.591 402.156 231.64 402.075C232.615 401.954 233.582 401.779 234.538 401.551C237.571 400.758 240.358 399.222 242.649 397.081L247.026 397.31L248.141 397.36H248.513H248.124L246.992 397.284L242.649 397.005C240.36 399.12 237.582 400.633 234.563 401.407C233.619 401.633 232.663 401.803 231.699 401.914C230.658 401.991 229.613 401.991 228.573 401.914C226.291 401.76 224.057 401.187 221.982 400.225C218.241 398.519 215.167 395.626 213.239 391.994C211.311 388.362 210.636 384.195 211.319 380.141C211.434 379.405 211.594 378.677 211.801 377.961C211.898 377.596 212.016 377.238 212.156 376.888C212.291 376.541 212.409 376.178 212.553 375.832L213.043 374.801L213.296 374.286L213.592 373.795C213.787 373.466 213.981 373.136 214.184 372.807C214.386 372.477 214.631 372.19 214.86 371.878C216.672 369.454 219.055 367.515 221.796 366.233C224.4 364.988 227.258 364.366 230.144 364.417C232.86 364.475 235.531 365.118 237.976 366.301C242.332 368.398 245.706 372.102 247.389 376.634C247.75 377.61 248.032 378.613 248.234 379.634C248.422 380.587 248.535 381.553 248.572 382.523C248.677 385.642 248.013 388.738 246.637 391.539L246.476 391.851L246.713 391.589H246.628L247.997 395.865L248.361 396.972C248.462 397.225 248.513 397.352 248.513 397.352Z" fill="black"/>
<path d="M236.101 385.565H225.776C225.69 385.552 225.612 385.509 225.555 385.443C225.499 385.377 225.468 385.293 225.468 385.206C225.468 385.119 225.499 385.035 225.555 384.97C225.612 384.904 225.69 384.86 225.776 384.847H235.805L236.912 378.603H224.804C224.718 378.59 224.64 378.546 224.584 378.481C224.527 378.415 224.496 378.331 224.496 378.244C224.496 378.157 224.527 378.073 224.584 378.007C224.64 377.942 224.718 377.898 224.804 377.885H237.334C237.387 377.883 237.44 377.894 237.488 377.916C237.537 377.938 237.579 377.971 237.613 378.012C237.646 378.053 237.67 378.1 237.683 378.151C237.696 378.202 237.698 378.256 237.689 378.307L236.456 385.27C236.441 385.353 236.398 385.429 236.333 385.483C236.268 385.537 236.185 385.566 236.101 385.565Z" fill="#FFCA41"/>
<path d="M235.763 388.007H225.928C225.841 388.008 225.757 387.976 225.691 387.919C225.626 387.861 225.584 387.781 225.574 387.695L224.171 376.761H221.324C221.238 376.748 221.16 376.705 221.103 376.639C221.047 376.573 221.016 376.489 221.016 376.402C221.016 376.315 221.047 376.232 221.103 376.166C221.16 376.1 221.238 376.056 221.324 376.043H224.484C224.571 376.041 224.657 376.071 224.723 376.129C224.789 376.187 224.83 376.268 224.839 376.356L226.241 387.272H235.763C235.849 387.285 235.927 387.329 235.984 387.395C236.04 387.46 236.071 387.544 236.071 387.631C236.071 387.718 236.04 387.802 235.984 387.868C235.927 387.934 235.849 387.977 235.763 387.99V388.007Z" fill="#FFCA41"/>
<path d="M227.554 391.505C227.239 391.507 226.931 391.415 226.668 391.241C226.406 391.067 226.201 390.819 226.08 390.528C225.958 390.238 225.926 389.918 225.987 389.609C226.048 389.3 226.2 389.016 226.422 388.793C226.645 388.571 226.929 388.419 227.238 388.358C227.547 388.297 227.867 388.329 228.157 388.451C228.448 388.572 228.696 388.777 228.87 389.039C229.044 389.302 229.136 389.61 229.134 389.925C229.132 390.343 228.965 390.744 228.669 391.04C228.373 391.336 227.972 391.503 227.554 391.505ZM227.554 389.055C227.387 389.055 227.223 389.104 227.084 389.197C226.946 389.29 226.837 389.422 226.773 389.576C226.709 389.731 226.693 389.901 226.725 390.064C226.758 390.228 226.838 390.379 226.956 390.497C227.075 390.615 227.225 390.696 227.389 390.728C227.553 390.761 227.723 390.744 227.877 390.68C228.032 390.616 228.164 390.508 228.256 390.369C228.349 390.23 228.399 390.067 228.399 389.9C228.399 389.676 228.31 389.461 228.151 389.302C227.993 389.144 227.778 389.055 227.554 389.055Z" fill="#FFCA41"/>
<path d="M234.311 391.505C233.997 391.505 233.689 391.412 233.428 391.237C233.166 391.062 232.963 390.813 232.843 390.522C232.723 390.232 232.692 389.912 232.754 389.604C232.816 389.295 232.968 389.012 233.191 388.79C233.414 388.569 233.698 388.418 234.006 388.358C234.315 388.297 234.635 388.33 234.925 388.451C235.215 388.573 235.462 388.778 235.636 389.04C235.809 389.303 235.901 389.61 235.9 389.925C235.9 390.133 235.858 390.339 235.778 390.532C235.699 390.724 235.581 390.898 235.434 391.045C235.286 391.192 235.111 391.308 234.918 391.387C234.726 391.466 234.519 391.506 234.311 391.505ZM234.311 389.055C234.144 389.055 233.981 389.104 233.842 389.197C233.703 389.29 233.594 389.422 233.53 389.576C233.467 389.731 233.45 389.901 233.482 390.065C233.515 390.228 233.595 390.379 233.714 390.497C233.832 390.615 233.982 390.696 234.146 390.728C234.31 390.761 234.48 390.744 234.634 390.68C234.789 390.616 234.921 390.508 235.014 390.369C235.106 390.23 235.156 390.067 235.156 389.9C235.156 389.676 235.067 389.461 234.909 389.302C234.75 389.144 234.535 389.055 234.311 389.055Z" fill="#FFCA41"/>
<path d="M228.957 385.565C228.867 385.563 228.78 385.528 228.714 385.465C228.649 385.402 228.609 385.318 228.603 385.227L228.18 378.468C228.175 378.373 228.208 378.28 228.271 378.209C228.335 378.138 228.423 378.094 228.518 378.088C228.565 378.082 228.613 378.086 228.658 378.099C228.704 378.113 228.746 378.136 228.782 378.168C228.818 378.199 228.847 378.237 228.867 378.28C228.887 378.323 228.897 378.37 228.898 378.417L229.321 385.176C229.325 385.271 229.293 385.365 229.229 385.436C229.166 385.507 229.078 385.55 228.983 385.557L228.957 385.565Z" fill="#FFCA41"/>
<path d="M232.737 385.565C232.642 385.559 232.553 385.515 232.49 385.444C232.427 385.373 232.394 385.28 232.399 385.185L232.779 378.425C232.78 378.379 232.791 378.333 232.81 378.29C232.83 378.248 232.858 378.21 232.893 378.179C232.928 378.148 232.969 378.125 233.013 378.111C233.058 378.096 233.104 378.091 233.151 378.096C233.198 378.097 233.244 378.108 233.287 378.127C233.33 378.146 233.368 378.174 233.4 378.209C233.431 378.244 233.455 378.285 233.471 378.329C233.486 378.374 233.492 378.421 233.489 378.468L233.117 385.227C233.111 385.322 233.067 385.41 232.996 385.474C232.925 385.537 232.832 385.57 232.737 385.565Z" fill="#FFCA41"/>
<path d="M225.187 382.194C225.101 382.181 225.023 382.137 224.966 382.071C224.91 382.005 224.879 381.921 224.879 381.835C224.879 381.748 224.91 381.664 224.966 381.598C225.023 381.532 225.101 381.489 225.187 381.476L236.72 381.366C236.806 381.379 236.884 381.422 236.941 381.488C236.997 381.554 237.028 381.638 237.028 381.725C237.028 381.812 236.997 381.896 236.941 381.961C236.884 382.027 236.806 382.071 236.72 382.084L225.187 382.194Z" fill="#FFCA41"/>
<path d="M154.851 278.775C154.655 278.722 154.418 278.751 154.145 278.852C150.494 280.522 146.943 281.712 143.494 282.416C136.043 283.932 128.782 283.139 121.717 280.042C119.755 279.178 117.028 277.721 113.537 275.66C113.447 275.59 113.337 275.548 113.223 275.542C113.104 275.536 113.003 275.548 112.909 275.595C112.814 275.643 112.743 275.702 112.689 275.779C112.636 275.856 112.624 275.962 112.666 276.099C112.701 276.229 112.79 276.377 112.938 276.537C113.555 277.259 114.319 278.029 115.226 278.846C116.133 279.663 117.336 280.587 118.836 281.617C120.336 282.647 121.906 283.565 123.536 284.364C125.172 285.164 127.069 285.839 129.233 286.384C131.396 286.928 133.559 287.201 135.717 287.201C137.863 287.201 139.949 286.982 141.97 286.555C143.998 286.123 145.705 285.614 147.098 285.022C148.485 284.436 149.765 283.778 150.938 283.068C152.112 282.357 152.977 281.753 153.541 281.274C154.104 280.788 154.507 280.409 154.738 280.125C155.011 279.787 155.147 279.497 155.147 279.243C155.153 278.976 155.046 278.822 154.851 278.775ZM137.211 253.859C136.31 253.936 135.225 254.102 133.951 254.35C132.676 254.593 131.497 254.901 130.406 255.262C129.315 255.624 128.201 256.127 127.069 256.766C125.931 257.406 124.965 258.14 124.165 258.957C123.364 259.774 122.712 260.799 122.203 262.036C121.693 263.268 121.438 264.624 121.438 266.104C121.438 267.708 121.717 269.135 122.286 270.397C122.849 271.658 123.602 272.647 124.55 273.381C125.492 274.115 126.565 274.689 127.751 275.11C128.936 275.53 130.193 275.72 131.497 275.666C132.801 275.613 134.075 275.412 135.314 275.057C136.547 274.707 137.709 274.145 138.787 273.381C139.866 272.617 140.749 271.711 141.443 270.675C141.698 271.066 141.923 271.356 142.124 271.545L142.64 272.072C142.984 272.422 143.511 272.937 144.223 273.618C144.928 274.299 145.651 274.962 146.374 275.613L152.563 269.698L152.207 269.408C151.952 269.212 151.65 268.934 151.306 268.561C150.962 268.194 150.618 267.785 150.286 267.347C149.949 266.909 149.658 266.394 149.415 265.814C149.172 265.233 149.048 264.671 149.048 264.126V248.566C149.048 247.968 148.935 247.322 148.71 246.623C148.479 245.931 148.076 245.173 147.483 244.356C146.89 243.539 146.155 242.804 145.278 242.165C144.395 241.525 143.221 240.981 141.745 240.542C140.275 240.104 138.627 239.885 136.814 239.885C134.958 239.885 133.233 240.104 131.621 240.531C130.015 240.963 128.64 241.537 127.49 242.26C126.346 242.982 125.362 243.817 124.544 244.77C123.726 245.723 123.115 246.718 122.718 247.754C122.321 248.791 122.12 249.839 122.12 250.898L130.133 251.603C130.459 250.632 130.898 249.791 131.437 249.069C131.983 248.346 132.498 247.825 132.967 247.5C133.441 247.174 133.951 246.914 134.49 246.718C135.035 246.523 135.403 246.422 135.593 246.398C135.782 246.381 135.93 246.375 136.043 246.375C137.626 246.375 138.722 246.843 139.339 247.772C139.724 248.335 139.914 249.187 139.914 250.336V253.687C139.013 253.723 138.112 253.782 137.211 253.859ZM139.92 262.853C139.92 263.836 139.789 264.73 139.534 265.518C138.989 267.241 137.952 268.324 136.428 268.762C135.101 269.153 133.838 268.958 132.641 268.182C131.366 267.353 130.732 266.181 130.732 264.671C130.732 263.493 131.028 262.486 131.621 261.645C132.214 260.81 133.002 260.183 133.992 259.768C134.982 259.354 135.948 259.058 136.897 258.886C137.839 258.708 138.853 258.602 139.92 258.566V262.853ZM159.788 275.814C159.533 275.495 158.846 275.287 157.719 275.181C156.593 275.074 155.615 275.08 154.773 275.205C153.867 275.311 152.93 275.572 151.97 275.998C151.004 276.418 150.583 276.774 150.69 277.052L150.731 277.129L150.784 277.17L150.867 277.182H151.14C151.187 277.182 151.247 277.176 151.33 277.17C151.413 277.164 151.49 277.153 151.561 277.147C151.632 277.141 151.733 277.129 151.863 277.123C151.988 277.117 152.106 277.099 152.219 277.082C152.237 277.082 152.438 277.064 152.829 277.028C153.22 276.993 153.505 276.969 153.677 276.951C153.849 276.933 154.139 276.916 154.536 276.898C154.933 276.88 155.254 276.88 155.491 276.898C155.728 276.916 155.994 276.939 156.297 276.963C156.599 276.987 156.842 277.04 157.032 277.123C157.221 277.2 157.364 277.301 157.453 277.425C157.761 277.816 157.702 278.68 157.275 280.024C156.848 281.368 156.445 282.44 156.066 283.234C155.9 283.571 155.9 283.778 156.066 283.867C156.232 283.956 156.463 283.873 156.771 283.63C157.696 282.908 158.466 281.818 159.089 280.356C159.45 279.491 159.711 278.591 159.865 277.65C160.007 276.708 159.984 276.099 159.788 275.814Z" fill="#FFCA41"/>
<path d="M265.016 89.9115C265.961 96.3094 264.987 102.844 262.217 108.688C259.447 114.532 255.005 119.423 249.454 122.742C243.903 126.06 237.492 127.657 231.033 127.331C224.574 127.004 218.357 124.768 213.169 120.907C207.981 117.045 204.055 111.732 201.888 105.638C199.722 99.5442 199.412 92.9447 200.998 86.6748C202.584 80.4048 205.994 74.7463 210.797 70.4155C215.6 66.0847 221.581 63.2763 227.981 62.3457C232.222 61.7234 236.545 61.9428 240.702 62.9914C244.859 64.04 248.769 65.8972 252.208 68.457C255.647 71.0168 258.549 74.2291 260.746 77.9103C262.944 81.5915 264.394 85.6695 265.016 89.9115Z" fill="#F5F5F5"/>
<path d="M257.323 91.065C258.036 95.9402 257.287 100.917 255.171 105.367C253.055 109.816 249.667 113.538 245.435 116.062C241.203 118.585 236.318 119.797 231.397 119.543C226.477 119.289 221.742 117.582 217.792 114.637C213.842 111.692 210.854 107.641 209.207 102.998C207.56 98.3542 207.326 93.3264 208.537 88.5504C209.748 83.7744 212.348 79.4647 216.008 76.1667C219.668 72.8686 224.225 70.7303 229.101 70.0224C232.336 69.5505 235.632 69.7205 238.801 70.5227C241.97 71.3248 244.95 72.7434 247.571 74.6975C250.192 76.6516 252.402 79.1028 254.075 81.9111C255.748 84.7195 256.852 87.83 257.323 91.065Z" fill="#EBEBEB"/>
<path d="M257.208 90.2227C257.057 90.2227 256.796 89.1874 256.123 87.3525C255.189 84.7828 253.86 82.3747 252.183 80.2149C251.029 78.7405 249.716 77.397 248.269 76.2083C246.606 74.8577 244.776 73.7262 242.824 72.8415C240.684 71.8744 238.416 71.2196 236.09 70.8972C234.855 70.7262 233.608 70.653 232.361 70.6784C229.781 70.7203 227.224 71.172 224.786 72.0167C223.606 72.4201 222.46 72.9184 221.36 73.5065C220.301 74.0737 219.287 74.7239 218.33 75.4508C217.4 76.1369 216.52 76.8878 215.696 77.6982C214.167 79.2042 212.84 80.9017 211.748 82.7484C210.795 84.3609 210.024 86.0745 209.45 87.8575C208.631 90.4579 208.219 93.1694 208.23 95.8958C208.23 97.8485 208.347 98.9427 208.23 98.968C208.112 98.9932 207.75 97.9327 207.523 95.9379C207.221 93.0947 207.453 90.2204 208.204 87.4619C209.317 83.3126 211.487 79.5224 214.5 76.4609C215.364 75.5703 216.295 74.7486 217.286 74.0031C218.317 73.2131 219.409 72.5066 220.552 71.8904C221.733 71.2497 222.963 70.7037 224.23 70.2575C226.85 69.3376 229.602 68.8514 232.378 68.8182C233.721 68.8025 235.063 68.8898 236.393 69.0791C238.884 69.4592 241.306 70.2022 243.581 71.2844C245.646 72.2831 247.566 73.5572 249.288 75.072C250.785 76.3793 252.122 77.8599 253.269 79.4826C254.927 81.812 256.137 84.4293 256.838 87.201C257.301 89.1285 257.318 90.2227 257.208 90.2227Z" fill="#E0E0E0"/>
<path d="M237.595 108.909L238.286 113.193L234.464 113.808L233.791 109.599C229.97 109.978 226.148 109.372 223.783 108.067L225.138 103.068C227.58 104.246 230.286 104.771 232.991 104.591L231.964 98.2027C227.554 97.8492 222.588 97.1926 221.712 91.7215C221.064 87.673 223.455 83.717 229.38 82.0588L228.707 77.8503L232.528 77.2358L233.193 81.4444C235.954 81.153 238.745 81.5253 241.333 82.5302L240.179 87.5804C238.21 86.8256 236.11 86.4681 234.001 86.5282L235.045 93.0346C239.447 93.346 244.304 94.0194 245.204 99.4063C245.844 103.312 243.487 107.217 237.595 108.909ZM231.072 92.6138L230.23 87.1848C228.278 87.9676 227.655 89.2049 227.857 90.4674C228.059 91.73 229.271 92.3528 231.072 92.6138ZM239.127 100.778C238.908 99.44 237.68 98.8929 235.946 98.5814L236.787 103.859C238.639 103.135 239.321 102.007 239.127 100.778Z" fill="#E0E0E0"/>
<path d="M194.618 61.7467C192.108 64.8244 188.742 67.0883 184.945 68.2518C181.149 69.4153 177.092 69.4261 173.289 68.2828C169.486 67.1395 166.108 64.8935 163.582 61.8292C161.056 58.7649 159.496 55.02 159.1 51.0688C158.704 47.1175 159.489 43.1375 161.356 39.6326C163.223 36.1277 166.088 33.2556 169.588 31.3798C173.088 29.504 177.066 28.7089 181.018 29.0952C184.97 29.4814 188.719 31.0317 191.79 33.5497C195.903 36.9142 198.512 41.7748 199.043 47.0626C199.573 52.3504 197.981 57.6323 194.618 61.7467Z" fill="#F5F5F5"/>
<path d="M190.915 58.7248C189.005 61.0721 186.442 62.8 183.549 63.6899C180.657 64.5799 177.566 64.5919 174.667 63.7243C171.768 62.8568 169.191 61.1487 167.263 58.8163C165.336 56.4839 164.143 53.632 163.836 50.6215C163.53 47.611 164.123 44.5772 165.542 41.9042C166.96 39.2311 169.14 37.0389 171.804 35.605C174.469 34.171 177.499 33.5598 180.512 33.8487C183.524 34.1375 186.383 35.3135 188.726 37.2277C190.282 38.4954 191.572 40.057 192.524 41.8235C193.476 43.59 194.07 45.5267 194.274 47.5229C194.477 49.5192 194.285 51.536 193.708 53.458C193.132 55.3801 192.183 57.1697 190.915 58.7248Z" fill="#EBEBEB"/>
<path d="M191.255 58.3467C191.478 57.7586 191.76 57.1946 192.097 56.6633C192.869 55.1702 193.403 53.5656 193.679 51.9077C193.871 50.7765 193.936 49.6275 193.873 48.4819C193.8 47.1681 193.557 45.8694 193.149 44.6185C192.917 43.942 192.636 43.2837 192.307 42.6489C192.002 41.9935 191.65 41.3607 191.255 40.7551C190.818 40.1271 190.334 39.5334 189.807 38.9791C188.723 37.8318 187.465 36.8631 186.078 36.1089C185.406 35.7476 184.708 35.4353 183.991 35.1746C183.295 34.9227 182.58 34.7257 181.853 34.5854C181.159 34.4471 180.456 34.3571 179.749 34.3161C177.279 34.1806 174.814 34.6516 172.569 35.688C171.031 36.3864 169.611 37.3207 168.361 38.4572C167.519 39.299 167.039 39.7703 166.963 39.7198C166.888 39.6693 167.233 39.0717 168.041 38.1374C169.205 36.8241 170.603 35.7394 172.165 34.9389C173.251 34.3847 174.398 33.9582 175.582 33.668C176.959 33.3359 178.375 33.1943 179.791 33.2471C180.554 33.2668 181.314 33.3485 182.063 33.4912C182.848 33.6259 183.62 33.8287 184.37 34.0972C185.141 34.3625 185.89 34.689 186.609 35.0736C187.351 35.4831 188.06 35.9503 188.73 36.4708C189.398 36.9856 190.028 37.5482 190.615 38.1542C191.181 38.7563 191.696 39.4038 192.155 40.0902C192.607 40.7468 193.004 41.4393 193.342 42.1607C193.679 42.847 193.961 43.5591 194.184 44.2902C194.962 46.8114 195.072 49.4911 194.504 52.0676C194.13 53.781 193.442 55.4104 192.475 56.8737C191.777 57.9258 191.255 58.3888 191.255 58.3467Z" fill="#E0E0E0"/>
<path d="M174.643 57.1769L172.959 59.2643L171.125 57.7998L172.732 55.7544C171.119 54.3866 169.924 52.5929 169.281 50.578L172.109 49.1218C172.576 50.718 173.446 52.1673 174.634 53.3303L177.109 50.216C175.426 48.0697 173.683 45.5446 175.804 42.8848C177.37 40.9152 180.148 40.3597 183.38 42.363L185.063 40.3008L186.907 41.8074L185.29 43.8359C186.561 44.9719 187.547 46.3904 188.169 47.9771L185.417 49.5258C184.945 48.321 184.239 47.2222 183.338 46.2937L180.813 49.4585C182.496 51.5796 184.179 54.0795 182.126 56.6972C180.594 58.6415 177.85 59.1549 174.643 57.1769ZM179.331 47.4721L181.427 44.8291C180.265 44.2736 179.449 44.5009 178.961 45.1153C178.473 45.7298 178.717 46.563 179.331 47.4721ZM178.961 54.5087C179.483 53.8522 179.222 53.0694 178.641 52.1519L176.596 54.7276C177.69 55.2747 178.489 55.0979 178.961 54.5087Z" fill="#E0E0E0"/>
</g>
<defs>
<clipPath id="clip0_423_2896">
<rect width="568" height="480" fill="white"/>
</clipPath>
</defs>
</svg>
