<svg width="130" height="100" viewBox="0 0 130 100" fill="none" xmlns="http://www.w3.org/2000/svg">
<path d="M77.0005 9.33722L30.1787 0L17.0045 66.3277L63.8263 75.6649L77.0005 9.33722Z" fill="#C4C4C4"/>
<path d="M46.5098 17.6406L0 29.2949L16.2139 94.2606L62.7237 82.6062L46.5098 17.6406Z" fill="#C4C4C4"/>
<path d="M19.5023 47.3335L17.4912 47.8374L17.6382 48.4263L19.6492 47.9224L19.5023 47.3335Z" fill="#E6E7E8"/>
<path d="M22.9398 46.4726L20.9287 46.9766L21.0757 47.5655L23.0867 47.0615L22.9398 46.4726Z" fill="#E6E7E8"/>
<path d="M26.3763 45.6113L24.3652 46.1152L24.5122 46.7041L26.5233 46.2002L26.3763 45.6113Z" fill="#E6E7E8"/>
<path d="M29.8128 44.75L27.8018 45.2539L27.9487 45.8428L29.9598 45.3389L29.8128 44.75Z" fill="#E6E7E8"/>
<path d="M33.2503 43.8887L31.2393 44.3926L31.3862 44.9815L33.3973 44.4775L33.2503 43.8887Z" fill="#E6E7E8"/>
<path d="M36.6868 43.0278L34.6758 43.5317L34.8228 44.1206L36.8338 43.6167L36.6868 43.0278Z" fill="#E6E7E8"/>
<path d="M40.1234 42.1665L38.1123 42.6704L38.2593 43.2593L40.2703 42.7554L40.1234 42.1665Z" fill="#E6E7E8"/>
<path d="M40.3125 31.4128L39.3721 31.6484L39.6072 32.5907L40.5476 32.3551L40.3125 31.4128Z" fill="#468FCD"/>
<path d="M40.7763 33.2673L39.8359 33.5029L40.0712 34.4455L41.0116 34.2099L40.7763 33.2673Z" fill="#42B662"/>
<path d="M41.2383 35.1218L40.2979 35.3574L40.5331 36.3L41.4735 36.0644L41.2383 35.1218Z" fill="#F79720"/>
<path d="M43.9391 30.7597L41.1738 31.4526L41.2891 31.9144L44.0543 31.2215L43.9391 30.7597Z" fill="#E6E7E8"/>
<path d="M44.403 32.6142L41.6377 33.3071L41.7529 33.7689L44.5182 33.076L44.403 32.6142Z" fill="#E6E7E8"/>
<path d="M44.8649 34.4682L42.0996 35.1611L42.2149 35.6229L44.9801 34.93L44.8649 34.4682Z" fill="#E6E7E8"/>
<path d="M16.6885 57.063C16.8079 57.1008 16.9057 57.1982 16.9383 57.3289C16.952 57.3838 16.9529 57.4387 16.9428 57.4908L21.2694 58.8752C21.5271 58.0432 21.568 57.1322 21.3416 56.2253C20.8656 54.3185 19.3395 52.9524 17.5359 52.5913L16.6885 57.063Z" fill="#8BC53F"/>
<path d="M22.7544 50.7969L21.6924 51.063L21.984 52.2315L23.0461 51.9654L22.7544 50.7969Z" fill="#A87C4F"/>
<path d="M23.3501 53.1841L22.2881 53.4502L22.5797 54.6187L23.6418 54.3526L23.3501 53.1841Z" fill="#8BC53F"/>
<path d="M23.9458 55.5713L22.8838 55.8374L23.1754 57.0059L24.2375 56.7398L23.9458 55.5713Z" fill="#EB008B"/>
<path d="M24.5415 57.959L23.4795 58.2251L23.7711 59.3936L24.8332 59.1275L24.5415 57.959Z" fill="#F6921E"/>
<path d="M25.1372 60.3462L24.0752 60.6123L24.3668 61.7808L25.4289 61.5147L25.1372 60.3462Z" fill="#704C9E"/>
<path d="M28.6523 49.319L24.3467 50.3979L24.6383 51.5665L28.944 50.4876L28.6523 49.319Z" fill="#D0D2D3"/>
<path d="M29.248 51.7062L24.9424 52.7852L25.234 53.9537L29.5397 52.8748L29.248 51.7062Z" fill="#D0D2D3"/>
<path d="M29.8437 54.0935L25.5381 55.1724L25.8297 56.3409L30.1354 55.262L29.8437 54.0935Z" fill="#D0D2D3"/>
<path d="M30.4394 56.4807L26.1338 57.5596L26.4254 58.7281L30.7311 57.6492L30.4394 56.4807Z" fill="#D0D2D3"/>
<path d="M31.0352 58.8684L26.7295 59.9473L27.0211 61.1158L31.3268 60.0369L31.0352 58.8684Z" fill="#D0D2D3"/>
<path d="M47.3321 55.777C49.5544 53.5502 49.5544 49.94 47.3321 47.7133C45.1098 45.4865 41.5068 45.4865 39.2845 47.7133C37.0623 49.94 37.0623 53.5502 39.2845 55.777C41.5068 58.0037 45.1098 58.0037 47.3321 55.777Z" fill="white"/>
<path d="M47.0267 55.4705C49.0801 53.413 49.0801 50.0772 47.0267 48.0198C44.9734 45.9623 41.6443 45.9623 39.5909 48.0198C37.5376 50.0772 37.5376 53.413 39.5909 55.4705C41.6443 57.5279 44.9734 57.5279 47.0267 55.4705Z" fill="#E85C49"/>
<path d="M48.5588 52.0799L38.0613 51.4097C38.0277 51.9386 38.074 52.4816 38.2092 53.0229C38.9138 55.8459 41.7687 57.5619 44.586 56.8559C46.8623 56.2853 48.4176 54.3078 48.5588 52.0799Z" fill="#00B2B7"/>
<path d="M42.0344 46.6338C39.2172 47.3398 37.5045 50.2005 38.2092 53.0231C38.4818 54.115 39.0759 55.0412 39.8654 55.7257L43.31 51.7446L42.0344 46.6338Z" fill="#F2A246"/>
<path d="M44.9648 53.4019C45.8782 52.4866 45.8782 51.0026 44.9648 50.0874C44.0513 49.1721 42.5703 49.1721 41.6569 50.0874C40.7434 51.0026 40.7434 52.4866 41.6569 53.4019C42.5703 54.3172 44.0513 54.3172 44.9648 53.4019Z" fill="white"/>
<path d="M44.544 52.9805C45.2252 52.298 45.2251 51.1913 44.544 50.5088C43.8628 49.8262 42.7583 49.8262 42.0772 50.5088C41.396 51.1913 41.396 52.2979 42.0772 52.9805C42.7583 53.6631 43.8628 53.6631 44.544 52.9805Z" fill="#0BA14A"/>
<path d="M45.0041 51.3207C44.7704 50.3843 43.8232 49.815 42.8887 50.0492L43.7352 53.4404C44.6697 53.2063 45.2379 52.2571 45.0041 51.3207Z" fill="#5CAF65"/>
<path d="M19.5693 79.169C19.5693 79.169 20.305 78.6277 20.5191 77.9001C20.7332 77.1724 20.6214 76.4074 21.599 76.0434C22.5766 75.6794 22.3736 73.4991 23.4538 73.2284C24.5337 72.9578 25.8312 75.6718 26.9114 75.4011C27.9913 75.1305 28.1756 74.1972 29.366 73.8989C30.001 73.74 31.434 74.9271 32.2698 74.7176C33.0146 74.531 33.3079 72.8715 34.5391 72.5627C35.7704 72.2543 36.413 73.719 37.4185 73.4668C38.4239 73.2148 38.3587 70.0987 39.4012 69.8372C40.4441 69.5758 41.0401 71.0126 42.5672 70.6299C44.0942 70.2472 43.0884 67.6442 44.5037 67.2898C45.258 67.1006 46.4336 67.9815 46.851 68.0136C47.2684 68.0456 47.1921 67.874 47.6493 67.9308C48.5348 68.0409 49.6638 70.6115 51.0952 71.2683L19.5693 79.169Z" fill="#B0C536"/>
<path d="M19.5693 79.1691C19.5693 79.1691 20.3136 78.7781 20.597 78.2101C20.8804 77.6418 20.9472 77.057 21.6642 76.8773C22.7182 76.6133 23.4804 77.419 24.3823 76.9437C24.7931 76.7273 26.3559 77.2876 27.1049 77.0941C28.1478 76.8247 28.092 73.1358 29.0183 72.9038C29.9446 72.6716 31.0052 73.767 32.055 73.5039C33.1049 73.2408 33.1961 71.2128 34.1423 70.9755C35.0886 70.7384 36.5013 72.9813 37.4276 72.7493C38.354 72.5173 37.902 69.7868 38.809 69.083C39.2039 68.7764 39.3835 68.8567 39.5539 68.7155C40.179 68.1973 40.5533 66.2131 41.3096 66.0237C42.4984 65.7257 44.181 70.4979 45.1849 70.2466C45.8483 70.0803 46.8367 68.8466 47.6858 68.6336C48.5348 68.4207 49.2226 70.4287 51.0943 71.2693L19.5693 79.1691Z" fill="#F05D61"/>
<path opacity="0.1" d="M47.6864 68.6334C46.8374 68.8463 45.849 70.0801 45.1855 70.2463C44.7593 70.3533 44.2108 69.5546 43.6296 68.6229C43.4855 69.4603 43.4431 70.411 42.5668 70.6306C41.0398 71.0133 40.4438 69.5765 39.4009 69.8379C38.3581 70.0994 38.4236 73.2155 37.4181 73.4675C36.4127 73.7194 35.7701 72.2547 34.5388 72.5634C33.3075 72.8719 33.0143 74.5314 32.2694 74.7183C31.4337 74.9278 30.0007 73.7404 29.3657 73.8997C28.8356 74.0326 28.5053 74.2912 28.206 74.5613C27.9387 75.6665 27.7019 76.9406 27.1049 77.0948C26.3559 77.2883 24.7931 76.7279 24.3823 76.9444C23.4804 77.4197 22.7178 76.614 21.6642 76.878C20.9472 77.0576 20.8804 77.6428 20.597 78.2108C20.3136 78.7791 19.5693 79.1697 19.5693 79.1697L51.0949 71.2697C49.2236 70.4282 48.5358 68.4205 47.6864 68.6334Z" fill="#231F20"/>
<path d="M19.5693 79.1688C20.5355 78.8299 20.9919 78.1692 21.4337 77.9979C21.8758 77.8265 22.1038 77.8906 22.4889 77.7335C22.874 77.5765 23.0592 76.8619 24.4279 76.5188C25.2406 76.3151 26.0611 77.1824 27.4593 76.832C28.0876 76.6746 28.1063 74.6863 29.3752 74.368C30.6442 74.0501 31.219 74.3309 32.1985 74.0856C33.1777 73.8403 32.4851 68.7917 33.5321 68.5296C34.579 68.2672 36.4402 72.3854 37.2386 72.1852C38.0369 71.9849 38.4873 71.0828 39.8335 70.7455C41.1797 70.4082 41.7552 73.1025 43.0596 72.8062C44.3643 72.5095 44.225 71.5274 45.4119 71.2453C46.5989 70.9628 47.2763 71.7952 47.9784 71.6343C48.6805 71.4734 48.538 71.2665 49.0371 71.1412C49.5362 71.0161 51.0946 71.2687 51.0946 71.2687L19.5693 79.1688Z" fill="#10AEB9"/>
<path opacity="0.3" d="M49.0371 71.1413C48.538 71.2663 48.6808 71.4735 47.9784 71.6344C47.2763 71.7953 46.5989 70.963 45.412 71.2454C44.225 71.5278 44.364 72.5099 43.0596 72.8063C41.7549 73.103 41.1797 70.4083 39.8335 70.7456C38.9667 70.963 38.4714 71.4142 38.0154 71.7616C37.9115 72.2703 37.7564 72.6667 37.428 72.7488C36.5016 72.9808 35.0889 70.738 34.1426 70.975C33.4336 71.1527 33.2046 72.336 32.6929 73.0287C32.6051 73.6046 32.4626 74.0197 32.1985 74.0857C31.2193 74.331 30.6442 74.0502 29.3752 74.3681C28.1063 74.6861 28.0876 76.6744 27.4593 76.8321C27.3567 76.9667 27.2401 77.059 27.1049 77.0939C26.3559 77.2875 24.7931 76.7271 24.3823 76.9435C24.0011 77.1444 23.6451 77.1164 23.2812 77.0371C22.8835 77.336 22.7232 77.6378 22.4889 77.7336C22.1038 77.8907 21.8758 77.8266 21.4337 77.998C20.9916 78.1693 20.5355 78.8303 19.5693 79.1689L51.0949 71.2688C51.0949 71.2688 49.5362 71.0163 49.0371 71.1413Z" fill="#231F20"/>
<path d="M18.7654 81.0096L16.1426 70.5015L16.5122 70.518L53.9908 72.1823L18.7654 81.0096ZM16.857 71.0866L19.1666 80.3397L50.1855 72.5666L16.857 71.0866Z" fill="#231F20"/>
<path d="M45.6239 77.7847C44.8699 77.9735 44.4113 78.7392 44.6001 79.4951C44.7885 80.2506 45.553 80.7101 46.307 80.521C47.061 80.3319 47.5196 79.5662 47.3309 78.8106C47.1424 78.0551 46.3783 77.5956 45.6239 77.7847ZM46.1474 79.8813C45.7458 79.9818 45.3392 79.7372 45.2385 79.3351C45.1381 78.9328 45.3823 78.5253 45.7835 78.4247C46.1851 78.3242 46.5917 78.5688 46.6921 78.9709C46.7928 79.3729 46.549 79.7807 46.1474 79.8813Z" fill="#B0C536"/>
<path d="M44.6 79.4952C44.6481 79.6885 44.7342 79.862 44.8479 80.0109C45.0297 79.8712 45.2096 79.7332 45.3704 79.6098C45.31 79.5307 45.264 79.4381 45.2384 79.3353C45.138 78.9329 45.3822 78.5255 45.7834 78.4249L45.6238 77.7852C44.8698 77.9736 44.4115 78.7393 44.6 79.4952Z" fill="#E0DD6F"/>
<path d="M34.0927 80.6738C33.3386 80.8626 32.8801 81.6283 33.0688 82.3841C33.2572 83.1397 34.0214 83.5992 34.7757 83.41C35.5298 83.2209 35.9883 82.4552 35.7996 81.6997C35.6109 80.9441 34.8467 80.485 34.0927 80.6738ZM34.6158 82.7703C34.2143 82.8709 33.8076 82.6263 33.7072 82.2242C33.6069 81.8218 33.851 81.4144 34.2523 81.3138C34.6538 81.2132 35.0605 81.4579 35.1612 81.8599C35.2615 82.262 35.0174 82.6697 34.6158 82.7703Z" fill="#F05D61"/>
<path d="M35.8135 82.3233L35.1684 82.1916C35.1124 82.466 34.905 82.6977 34.6158 82.77C34.2143 82.8706 33.8076 82.626 33.7072 82.2239C33.6069 81.8216 33.851 81.4141 34.2523 81.3135L34.0927 80.6738C33.3386 80.8626 32.8801 81.6283 33.0688 82.3842C33.2572 83.1397 34.0214 83.5992 34.7757 83.4101C35.3185 83.2739 35.7084 82.8386 35.8135 82.3233Z" fill="#F9B086"/>
<path d="M40.2685 79.616L36.0273 80.6787L36.2196 81.4492L40.4608 80.3865L40.2685 79.616Z" fill="#808184"/>
<path d="M38.7653 81.0899L36.2852 81.7114L36.4801 82.4927L38.9603 81.8712L38.7653 81.0899Z" fill="#808184"/>
<path d="M51.7988 76.7263L47.5576 77.7891L47.7499 78.5596L51.9911 77.4968L51.7988 76.7263Z" fill="#808184"/>
<path d="M50.2956 78.2003L47.8154 78.8218L48.0104 79.6031L50.4906 78.9816L50.2956 78.2003Z" fill="#808184"/>
<path d="M16.1553 83.1854V11.6729H66.343V83.1854H16.1553Z" fill="white" stroke="black"/>
<path d="M29 59.141C33.4927 59.141 37.1347 55.4916 37.1347 50.9899C37.1347 46.4882 33.4927 42.8389 29 42.8389C24.5073 42.8389 20.8652 46.4882 20.8652 50.9899C20.8652 55.4916 24.5073 59.141 29 59.141Z" fill="#E0E0E0"/>
<path d="M29.0001 58.0725C32.9039 58.0725 36.0686 54.9015 36.0686 50.9899C36.0686 47.0782 32.9039 43.9072 29.0001 43.9072C25.0963 43.9072 21.9316 47.0782 21.9316 50.9899C21.9316 54.9015 25.0963 58.0725 29.0001 58.0725Z" fill="white"/>
<path d="M35.4216 50.9898C35.4216 53.3094 34.197 55.3425 32.3599 56.475C31.3823 57.0779 30.2311 57.4254 28.9989 57.4254C25.4517 57.4254 22.5762 54.5441 22.5762 50.9898C22.5762 50.26 22.6975 49.5587 22.9207 48.9047C23.5766 46.9849 25.1125 45.4744 27.0465 44.8569C27.3331 44.7655 27.6283 44.6935 27.9304 44.6427C28.2778 44.5843 28.635 44.5542 28.9989 44.5542C29.0477 44.5542 29.0961 44.5548 29.1443 44.5558C30.1694 44.5786 31.1356 44.842 31.9881 45.2923C32.6253 45.6287 33.1991 46.0691 33.6871 46.5911C34.7629 47.7417 35.4216 49.2886 35.4216 50.9898Z" fill="#373737"/>
<path d="M33.6873 46.5911L28.999 50.9898V44.5542C29.0478 44.5542 29.0962 44.5548 29.1444 44.5558C30.1695 44.5786 31.1357 44.842 31.9882 45.2923C32.6254 45.6287 33.1992 46.0691 33.6873 46.5911Z" fill="#888888"/>
<path d="M35.4218 50.9898C35.4218 53.3095 34.1971 55.3426 32.36 56.4751L28.999 50.9898L31.9882 45.292C32.6254 45.6284 33.1992 46.0688 33.6873 46.5908C34.763 47.7417 35.4218 49.2887 35.4218 50.9898Z" fill="#FFCA41"/>
<path d="M28.9991 50.9897L22.9209 48.9045C23.5768 46.9847 25.1127 45.4743 27.0467 44.8568C27.3333 44.7654 27.6285 44.6933 27.9306 44.6426L28.9991 50.9897Z" fill="#585858"/>
<path d="M29.1446 44.5558L28.9992 50.9898L27.0469 44.8569C27.3335 44.7655 27.6286 44.6935 27.9307 44.6427C28.2782 44.5843 28.6354 44.5542 28.9992 44.5542C29.0477 44.5542 29.0962 44.5548 29.1446 44.5558Z" fill="#A5A5A5"/>
<path d="M62.3579 63.1035H20.8652V65.9144H62.3579V63.1035Z" fill="#C8C8C8"/>
<path d="M61.5994 67.6631H21.001V68.5964H61.5994V67.6631Z" fill="#E0E0E0"/>
<path d="M61.5994 69.5298H21.001V70.4631H61.5994V69.5298Z" fill="#E0E0E0"/>
<path d="M61.5994 70.9297H21.001V71.863H61.5994V70.9297Z" fill="#E0E0E0"/>
<path d="M61.5994 72.7964H21.001V73.7297H61.5994V72.7964Z" fill="#E0E0E0"/>
<path d="M61.5994 74.1963H21.001V75.1296H61.5994V74.1963Z" fill="#E0E0E0"/>
<path d="M61.5994 76.063H21.001V76.9963H61.5994V76.063Z" fill="#E0E0E0"/>
<path d="M44.7845 42.7227H41.249V59.1412H44.7845V42.7227Z" fill="#DDDDDC"/>
<path d="M44.7845 51.9937H41.249V59.141H44.7845V51.9937Z" fill="#939393"/>
<path d="M44.7845 56.5576H41.249V59.141H44.7845V56.5576Z" fill="#FFCA41"/>
<path d="M49.1165 42.7227H45.5811V59.1412H49.1165V42.7227Z" fill="#DDDDDC"/>
<path d="M49.1165 52.7876H45.5811V59.1413H49.1165V52.7876Z" fill="#939393"/>
<path d="M49.1165 53.9575H45.5811V59.141H49.1165V53.9575Z" fill="#FFCA41"/>
<path d="M53.4496 42.7227H49.9141V59.1412H53.4496V42.7227Z" fill="#DDDDDC"/>
<path d="M53.4496 46.4336H49.9141V59.1411H53.4496V46.4336Z" fill="#939393"/>
<path d="M53.4496 55.5986H49.9141V59.1412H53.4496V55.5986Z" fill="#FFCA41"/>
<path d="M57.7826 42.7227H54.2471V59.1412H57.7826V42.7227Z" fill="#DDDDDC"/>
<path d="M57.7826 48.7739H54.2471V59.1412H57.7826V48.7739Z" fill="#939393"/>
<path d="M57.7826 50.9316H54.2471V59.1408H57.7826V50.9316Z" fill="#FFCA41"/>
<path d="M62.1146 42.7227H58.5791V59.1412H62.1146V42.7227Z" fill="#DDDDDC"/>
<path d="M62.1146 53.5498H58.5791V59.1413H62.1146V53.5498Z" fill="#939393"/>
<path d="M62.1146 55.3325H58.5791V59.141H62.1146V55.3325Z" fill="#FFCA41"/>
<path d="M20.9397 26.6977L25.961 18.9725L31.3821 25.3913L39.2559 20.5975L46.2613 21.446L51.6811 15.5835L57.4239 20.9059L62.114 18.0519V30.549H20.8652L20.9397 26.6977Z" fill="#939393"/>
<path d="M21.0043 28.9687L25.961 24.5925L31.2931 29.3156L38.86 26.4441L46.2512 25.1815L51.8189 19.9409L57.3381 26.949L62.114 22.8251V30.4094L20.8652 30.688L21.0043 28.9687Z" fill="#FFCA41"/>
<path d="M21.143 18.7832H20.8652V30.6882H21.143V18.7832Z" fill="black"/>
<path d="M21.1436 30.4097V30.688L62.1146 30.688V30.4097L21.1436 30.4097Z" fill="black"/>
</svg>
