<svg width="130" height="100" viewBox="0 0 130 100" fill="none" xmlns="http://www.w3.org/2000/svg">
<path d="M0 8.68677C0.551103 7.75414 1.37776 7.49978 2.41638 7.52098C35.7581 7.52098 69.1211 7.52098 102.463 7.52098C104.349 7.52098 104.9 8.07208 104.9 9.95855C104.9 29.7983 104.9 49.6168 104.9 69.4565C104.9 71.4066 104.413 71.8941 102.399 71.8941C89.5331 71.8941 76.6669 71.9153 63.8008 71.8729C62.847 71.8729 62.6138 72.1272 62.6562 73.0387C62.741 74.6496 62.6986 76.2393 62.6562 77.8502C62.635 78.4437 62.8258 78.5921 63.3981 78.5709C65.8145 78.5497 68.252 78.5497 70.6684 78.5709C74.8653 78.6133 78.0871 80.9449 79.2105 84.845C79.7828 86.8163 79.5284 88.8511 79.4649 90.8436C79.4437 91.4582 78.9773 91.9034 78.3626 92.0517C77.8963 92.1577 77.43 92.2001 76.9425 92.2001C60.6214 92.2001 44.3214 92.2001 28.0003 92.2001C25.8807 92.2001 25.3931 91.7126 25.3931 89.6354C25.4143 88.2152 25.2448 86.7527 25.5627 85.3537C26.5165 81.1992 29.8444 78.6133 34.2108 78.5709C36.5636 78.5497 38.9164 78.5497 41.2692 78.5921C41.9898 78.6133 42.2866 78.5073 42.2442 77.6807C42.1594 76.0486 42.1806 74.3952 42.2442 72.7631C42.2654 72.0213 42.011 71.8729 41.3327 71.8941C32.4939 71.9153 23.6551 71.9153 14.8162 71.9153C10.6829 71.9153 6.54965 71.9153 2.41638 71.9153C1.39895 71.9153 0.551103 71.7033 0 70.7707C0 50.0831 0 29.3743 0 8.68677Z" fill="#020203"/>
<path d="M52.5236 10.9547C68.4632 10.9547 84.4028 10.9547 100.342 10.9336C101.233 10.9336 101.445 11.1243 101.445 12.0358C101.423 30.4765 101.423 48.9173 101.445 67.3369C101.445 68.2907 101.169 68.4814 100.258 68.4814C68.3784 68.4603 36.478 68.4603 4.59881 68.4814C3.60259 68.4814 3.39062 68.2483 3.39062 67.2521C3.43302 48.8537 3.43302 30.4553 3.39062 12.057C3.39062 11.0819 3.68737 10.9124 4.57762 10.9124C20.5808 10.9547 36.5416 10.9547 52.5236 10.9547Z" fill="white"/>
<path d="M52.3968 88.7874C44.851 88.7874 37.3051 88.7662 29.7804 88.8086C28.9538 88.8086 28.8266 88.5542 28.7842 87.7912C28.6146 83.7639 31.6245 81.9834 34.5284 82.0046C46.5679 82.0682 58.6074 82.0258 70.668 82.047C73.3176 82.047 75.2252 83.4247 75.9035 85.7563C75.9247 85.8623 75.9883 85.9471 76.0095 86.0531C76.5182 88.5754 76.3274 88.7874 73.8051 88.7874C66.6619 88.7874 59.5188 88.7874 52.3968 88.7874Z" fill="#DDDDDD"/>
<path d="M52.4388 71.894C54.4525 71.894 56.4661 71.9151 58.4586 71.8728C59.0309 71.8728 59.2005 72.0211 59.2005 72.5934C59.1581 74.3315 59.1793 76.0696 59.2005 77.8077C59.2005 78.3376 59.1157 78.5708 58.501 78.5708C54.4525 78.5496 50.404 78.5496 46.3343 78.5708C45.8044 78.5708 45.6348 78.4436 45.656 77.8925C45.6984 76.112 45.6984 74.3527 45.656 72.5722C45.6348 71.9575 45.8468 71.8516 46.4191 71.8516C48.4327 71.9152 50.4464 71.894 52.4388 71.894Z" fill="#DDDDDD"/>
<path d="M52.4399 65.1324C38.1324 65.1324 23.8249 65.1324 9.51741 65.1324C9.05109 65.1324 8.56357 65.1112 8.09726 65.0476C7.31299 64.9416 6.93146 64.4117 6.78309 63.6698C6.7195 63.3731 6.76189 63.0552 6.76189 62.7584C6.76189 47.4335 6.76189 32.1086 6.76189 16.7625C6.76189 14.8548 7.2918 14.3037 9.17827 14.3037C38.0264 14.3037 66.8745 14.3037 95.7227 14.3037C97.6092 14.3037 98.1391 14.8548 98.1391 16.7625C98.1391 32.0238 98.1391 47.2851 98.1391 62.5464C98.1391 64.6873 97.6939 65.1324 95.5743 65.1324C81.182 65.1324 66.811 65.1324 52.4399 65.1324Z" fill="#020203"/>
<path d="M52.5034 17.7163C66.1962 17.7163 79.889 17.7163 93.5818 17.6951C94.4296 17.6951 94.7264 17.8222 94.7264 18.7761C94.684 32.7444 94.684 46.7128 94.7264 60.6811C94.7264 61.5502 94.472 61.7197 93.6454 61.7197C66.1962 61.6985 38.747 61.6985 11.2978 61.7197C10.4712 61.7197 10.2168 61.5502 10.2168 60.6811C10.238 46.6916 10.238 32.6808 10.2168 18.6913C10.2168 17.8434 10.4923 17.7163 11.2554 17.7163C24.9694 17.7375 38.7258 17.7163 52.5034 17.7163Z" fill="#DDDDDD"/>
<path d="M28.4888 41.4563C27.1322 41.4563 25.7545 41.4774 24.3979 41.4351C23.7196 41.4139 23.3381 41.5622 22.9778 42.2193C21.918 44.2118 19.65 45.1656 17.5091 44.6993C15.4955 44.2542 13.7998 42.4101 13.5454 40.3752C13.2911 38.2132 14.4145 36.1148 16.3645 35.1398C18.7809 33.9316 21.7272 34.8642 23.0414 37.2806C23.3169 37.7893 23.5925 38.0013 24.186 38.0013C27.111 37.9589 30.0573 37.9589 32.9824 38.0013C33.6607 38.0013 33.8091 37.8105 33.8091 37.1534C33.7879 35.055 34.2966 34.6522 36.4162 34.5887C37.0733 34.5675 38.0271 35.1186 38.3663 33.9104C38.4935 33.4653 38.4723 33.2321 38.1543 32.9353C37.4548 32.2783 36.7766 31.6 36.1195 30.9005C35.2716 29.9679 35.2504 29.0988 36.1195 28.2086C37.688 26.5977 39.2777 25.0079 40.8886 23.4394C41.8213 22.528 42.6903 22.5704 43.6653 23.4818C44.3436 24.1177 45.0007 24.7536 45.6154 25.4319C45.9545 25.8134 46.2513 25.7922 46.6752 25.6226C47.1203 25.4531 47.3323 25.2411 47.2899 24.7324C47.2475 24.1177 47.2475 23.503 47.2899 22.8883C47.3535 21.8285 47.8622 21.1714 48.9008 21.129C51.2112 21.0442 53.5428 21.0442 55.8532 21.129C56.9342 21.1714 57.4429 21.8497 57.5065 22.9731C57.5277 23.4818 57.5277 23.9905 57.5065 24.4992C57.5065 24.9867 57.4641 25.3683 58.0788 25.6226C58.6511 25.8346 58.9479 25.6862 59.3082 25.3047C59.9229 24.6476 60.5376 24.0329 61.1947 23.4182C62.1273 22.5704 62.9963 22.5492 63.8866 23.4182C65.4975 24.9867 67.1084 26.5765 68.6769 28.1874C69.5884 29.12 69.546 29.9891 68.6558 30.9641C68.0411 31.6212 67.4052 32.2359 66.7693 32.8506C66.409 33.1897 66.2606 33.4653 66.4937 33.9952C66.7057 34.4827 66.9601 34.6734 67.4688 34.6311C67.9775 34.5887 68.4862 34.6099 68.9949 34.6311C70.4362 34.6946 71.0933 35.3093 71.0085 36.7295C70.945 37.8317 71.2841 38.0648 72.3227 38.0225C75.0782 37.9377 77.8549 37.9801 80.6105 38.0013C81.1828 38.0013 81.4795 37.8529 81.7762 37.323C82.8785 35.2034 85.2524 34.2071 87.4992 34.7794C89.746 35.3729 91.3358 37.429 91.3146 39.7394C91.3146 42.0497 89.7249 44.0634 87.4569 44.6569C85.2312 45.2292 82.8997 44.2118 81.7551 42.0709C81.5219 41.6258 81.3099 41.4139 80.78 41.4351C77.7702 41.4563 74.7815 41.4774 71.7716 41.4351C71.0721 41.4351 71.0297 41.6894 71.0297 42.2617C71.0297 44.3601 70.5634 44.7629 68.4226 44.8265C67.7655 44.8477 66.8117 44.2966 66.4725 45.5047C66.3454 45.9287 66.3242 46.183 66.6633 46.4798C67.3416 47.1157 67.9775 47.7727 68.6134 48.4298C69.5672 49.4472 69.6096 50.2951 68.6558 51.2913C67.1084 52.881 65.5399 54.4496 63.9502 55.9969C62.9963 56.9295 62.1485 56.9083 61.1735 55.9969C60.474 55.3398 59.7957 54.6827 59.1598 53.9621C58.7995 53.5381 58.4815 53.7077 58.0788 53.8561C57.6761 54.0044 57.4641 54.1952 57.5065 54.6615C57.5489 55.2974 57.5489 55.9545 57.5065 56.6116C57.4429 57.6502 56.8918 58.3073 55.8532 58.3285C53.564 58.3921 51.2748 58.3921 49.0068 58.3285C47.9258 58.3073 47.3747 57.629 47.3111 56.5268C47.2899 55.9757 47.2687 55.4246 47.3111 54.8947C47.3535 54.3648 47.2475 54.0468 46.6752 53.8137C46.1029 53.5593 45.8062 53.8137 45.467 54.174C44.8735 54.7887 44.28 55.4034 43.6653 55.9757C42.6903 56.8871 41.8425 56.9295 40.8886 56.0181C39.2777 54.4496 37.6668 52.8599 36.1195 51.2489C35.2504 50.3587 35.2716 49.4684 36.1195 48.557C36.7342 47.8787 37.3912 47.2216 38.0695 46.607C38.4511 46.2678 38.5358 45.9711 38.3239 45.4623C38.1119 44.9748 37.8576 44.7841 37.3489 44.8265C36.8401 44.8689 36.3314 44.8477 35.8227 44.8265C34.4026 44.7841 33.7455 44.1694 33.8303 42.728C33.8939 41.7318 33.6395 41.3715 32.5797 41.4563C31.2231 41.541 29.8666 41.4563 28.4888 41.4563Z" fill="#020203"/>
<path d="M62.6141 52.6267C61.8299 51.8212 61.1516 51.1006 60.4733 50.3799C59.8162 49.7016 59.0744 49.6168 58.2265 49.9984C57.3575 50.3799 56.4884 50.7614 55.5982 51.0582C54.5384 51.4185 54.0508 52.0968 54.0932 53.199C54.0932 53.4322 54.072 53.6865 54.0932 53.9197C54.1992 54.7039 53.9449 55.0431 53.1182 54.9371C52.4187 54.8523 51.5285 55.1491 51.0198 54.8311C50.4475 54.4496 50.8714 53.5169 50.7866 52.8175C50.7018 51.9272 50.2355 51.3549 49.4089 51.1006C48.455 50.8038 47.5648 50.4435 46.6745 50.0196C45.8055 49.5956 45.0212 49.7228 44.3641 50.4435C44.3429 50.4647 44.3217 50.4859 44.2794 50.5071C43.5799 51.1218 42.9016 52.4571 42.2657 52.2876C41.3755 52.0756 40.7396 50.931 39.9553 50.2103C39.6162 49.8924 39.7433 49.7228 39.9977 49.4685C40.5912 48.8962 41.1635 48.3027 41.7358 47.7304C42.3929 47.0733 42.5413 46.3314 42.1385 45.5048C41.7358 44.6781 41.3755 43.8514 41.0999 42.9612C40.6972 41.6894 40.2097 41.3927 38.7259 41.3715C37.2422 41.3503 37.2422 41.3503 37.2422 39.9513C37.2422 38.0861 37.2422 38.0649 39.1075 38.0225C40.0825 38.0013 40.7184 37.5773 41.0151 36.6447C41.3119 35.7121 41.6722 34.8006 42.1173 33.9104C42.5413 33.0837 42.3929 32.3419 41.7358 31.6848C41.1635 31.1125 40.5912 30.519 39.9977 29.9467C39.6586 29.6287 39.6798 29.438 39.9977 29.1412C40.57 28.6113 41.1211 28.039 41.6722 27.4879C41.863 27.2971 42.0537 27.1276 42.3081 26.8944C42.9652 27.5727 43.6223 28.2086 44.237 28.9081C45 29.7347 45.8691 29.8407 46.8229 29.332C47.586 28.9293 48.3702 28.6325 49.1757 28.357C50.4051 27.933 50.7442 27.4667 50.7654 26.1949C50.7654 25.9194 50.8078 25.6438 50.7654 25.3683C50.6594 24.6688 50.9138 24.3509 51.6345 24.478C51.6769 24.478 51.698 24.478 51.7404 24.478C52.4611 24.478 53.3302 24.2237 53.8389 24.5628C54.4112 24.9232 53.9872 25.877 54.072 26.5765C54.1568 27.4031 54.5596 27.9966 55.3438 28.251C56.34 28.5689 57.3151 28.9717 58.2689 29.4168C59.0744 29.7983 59.795 29.6711 60.4097 29.0564C60.4733 28.9929 60.5581 28.9081 60.6217 28.8445C61.3 28.2298 62.0206 26.9368 62.5505 27.1064C63.4832 27.4243 64.1403 28.5265 64.9245 29.2684C65.2425 29.5651 65.0093 29.7347 64.8185 29.9255C64.2886 30.4554 63.7799 31.0065 63.2288 31.5152C62.4234 32.2571 62.2326 33.0837 62.7625 34.08C63.1017 34.737 63.3984 35.4365 63.6316 36.136C64.225 37.8105 64.4582 38.0013 66.1963 38.0225C67.5953 38.0225 67.5953 38.0225 67.5953 39.4214C67.5953 41.2655 67.5953 41.2867 65.73 41.3715C64.7126 41.4139 64.0555 41.8802 63.7799 42.834C63.5256 43.7243 63.1864 44.5721 62.7413 45.3776C62.2326 46.3314 62.4446 47.1369 63.2076 47.8575C63.7587 48.3662 64.2674 48.9385 64.8185 49.4473C65.1365 49.744 65.1577 49.9348 64.8397 50.2739C64.0979 51.0158 63.3984 51.8 62.6141 52.6267Z" fill="#FFCA41"/>
<path d="M20.285 39.7606C20.2638 40.6296 19.4795 41.3503 18.5893 41.3503C17.6566 41.3503 16.9359 40.5872 16.9783 39.6334C17.0207 38.7431 17.7838 38.0437 18.674 38.0861C19.5431 38.1285 20.3062 38.9127 20.285 39.7606Z" fill="#FFCA41"/>
<path d="M87.9004 39.7605C87.8792 40.6507 87.1585 41.3502 86.2471 41.329C85.3568 41.3078 84.5938 40.566 84.5938 39.6969C84.5938 38.8067 85.4416 38.0012 86.3318 38.0436C87.2433 38.1284 87.9216 38.8703 87.9004 39.7605Z" fill="#FFCA41"/>
<path d="M43.9819 39.6334C44.0667 34.9066 47.9668 31.1125 52.5876 31.2397C57.2295 31.3669 61.0237 35.2882 60.8753 39.8454C60.7269 44.5509 56.8692 48.3239 52.312 48.1967C47.67 48.0907 43.8971 44.2118 43.9819 39.6334Z" fill="#020203"/>
<path d="M52.4405 34.6946C55.2384 34.6946 57.5488 37.005 57.4852 39.7605C57.4428 42.516 55.1748 44.7416 52.4405 44.7416C49.6638 44.7416 47.3322 42.41 47.3958 39.6545C47.4382 36.9202 49.685 34.6946 52.4405 34.6946Z" fill="white"/>
</svg>
