<svg width="130" height="100" viewBox="0 0 130 100" fill="none" xmlns="http://www.w3.org/2000/svg">
<g clip-path="url(#clip0_421_1450)">
<path d="M103.004 54.9289C103.004 56.5118 101.722 57.795 100.141 57.795H29.896C28.3149 57.795 27.0332 56.5118 27.0332 54.9289V16.1283C27.0332 14.5401 28.3149 13.2622 29.896 13.2622H100.136C101.717 13.2622 102.999 14.5454 102.999 16.1283V54.9289H103.004Z" fill="#D8DBD7" stroke="#010200" stroke-width="3"/>
<path d="M103.004 47.6667C103.004 49.2496 101.722 50.5328 100.141 50.5328H29.896C28.3149 50.5328 27.0332 49.2496 27.0332 47.6667V8.86614C27.0332 7.28319 28.3149 6 29.896 6H100.136C101.717 6 102.999 7.28319 102.999 8.86614V47.6667H103.004Z" fill="white" stroke="black" stroke-width="3" stroke-linecap="round" stroke-linejoin="round"/>
<path d="M97.3465 10.6641H48.3145C47.2099 10.6641 46.3145 11.5595 46.3145 12.6641V26.0366C46.3145 27.1412 47.2099 28.0366 48.3145 28.0366H97.3465C98.451 28.0366 99.3465 27.1412 99.3465 26.0366V12.6641C99.3465 11.5595 98.451 10.6641 97.3465 10.6641Z" fill="#FFCA41"/>
<path d="M97.3451 32.6089H33.6836C32.579 32.6089 31.6836 33.5043 31.6836 34.6089V35.1806C31.6836 36.2852 32.579 37.1806 33.6836 37.1806H97.3451C98.4497 37.1806 99.3451 36.2852 99.3451 35.1806V34.6089C99.3451 33.5043 98.4497 32.6089 97.3451 32.6089Z" fill="#D8DBD7"/>
<path d="M97.3451 39.9238H33.6836C32.579 39.9238 31.6836 40.8193 31.6836 41.9238V42.4956C31.6836 43.6001 32.579 44.4956 33.6836 44.4956H97.3451C98.4497 44.4956 99.3451 43.6001 99.3451 42.4956V41.9238C99.3451 40.8193 98.4497 39.9238 97.3451 39.9238Z" fill="#D8DBD7"/>
<path d="M41.9552 30.3689C41.4762 30.4557 41.1606 30.9111 41.2498 31.3865C41.3332 31.8631 41.792 32.1811 42.2709 32.0943L47.8605 31.081C48.3394 30.9942 48.655 30.5388 48.5682 30.0599C48.4824 29.5868 48.0236 29.2688 47.5505 29.3546L41.9552 30.3689Z" fill="#010200"/>
<path d="M39.6382 27.6281C39.3667 28.0272 38.8211 28.1292 38.4186 27.8553C38.0195 27.5837 37.9141 27.0358 38.1914 26.6356L41.407 21.9445C41.6785 21.5454 42.2276 21.4459 42.6267 21.7174C43.0258 21.9889 43.1277 22.5345 42.8562 22.9336L39.6382 27.6281Z" fill="#010200"/>
<path d="M34.7568 25.3248C34.846 25.8003 34.528 26.2591 34.0491 26.3459C33.576 26.4317 33.1206 26.1161 33.0314 25.6406L32.0171 20.0452C31.9279 19.5697 32.2459 19.1109 32.7224 19.0276C33.1955 18.9418 33.6543 19.2598 33.7401 19.7329L34.7568 25.3248Z" fill="#010200"/>
<path d="M37.9551 32.2517C39.8111 33.5381 40.2761 36.087 38.9874 37.9464L38.1554 39.1469L28.0684 32.1558L28.9004 30.9553C30.1867 29.0993 32.7357 28.6342 34.5951 29.9229L37.9551 32.2517Z" fill="#FFCA41"/>
<path d="M19.2855 28.8527L16.716 45.4105C16.5974 46.171 16.3096 46.8958 15.872 47.5271L9.57665 56.6102C8.47203 58.204 8.86802 60.3884 10.4583 61.4907L16.8231 65.902C18.4134 67.0042 20.5968 66.6024 21.6956 65.0097L27.9657 55.9039C28.3974 55.2737 28.9775 54.7463 29.6479 54.3683L44.2443 46.1512L19.2855 28.8527Z" fill="#D8DBD7" stroke="#010200" stroke-width="3"/>
<path d="M46.8331 42.5508C47.4954 43.0099 47.663 43.9176 47.2015 44.5834L46.3145 45.8632C45.8554 46.5256 44.9443 46.6908 44.282 46.2317L19.2611 28.8902C18.5987 28.4311 18.4335 27.5199 18.8926 26.8576L19.7796 25.5778C20.2411 24.912 21.1498 24.7502 21.8122 25.2093L46.8331 42.5508Z" fill="white" stroke="black" stroke-width="3" stroke-linecap="round" stroke-linejoin="round"/>
<path d="M26.2061 56.7723L25.166 58.2729L30.0301 61.6442C30.604 60.8163 30.3975 59.6773 29.5696 59.1035L26.2061 56.7723Z" fill="#010200"/>
<path d="M13.6039 65.6808C14.3663 66.2092 15.4118 66.0197 15.9402 65.2573L10.6966 61.623C10.1682 62.3854 10.3577 63.4309 11.1201 63.9593L13.6039 65.6808Z" fill="white" stroke="black" stroke-width="3" stroke-linecap="round" stroke-linejoin="round"/>
<path d="M39.9923 68.5528C41.0283 69.2759 41.2843 70.7045 40.5577 71.7381L39.4988 73.2512C38.7757 74.2872 37.3495 74.5397 36.3101 73.8142L15.9328 59.6093L19.6116 54.3456L39.9923 68.5528Z" fill="#FFCA41" stroke="#010200" stroke-width="3" stroke-linecap="round" stroke-linejoin="round"/>
<path d="M15.8336 47.5862L9.57891 56.6107C8.47429 58.2044 8.87028 60.3888 10.4606 61.4911L16.8254 65.9024C18.4157 67.0046 20.599 66.6028 21.6978 65.0101L27.9249 55.9664L15.8336 47.5862Z" fill="white" stroke="black" stroke-width="3" stroke-linecap="round" stroke-linejoin="round"/>
<path d="M103.254 35.3906L83.0789 29.6033C81.5514 29.1652 79.95 30.0513 79.5114 31.5803L65.4683 80.5359C65.0301 82.0633 65.9162 83.6647 67.4453 84.1033L87.6218 89.891C89.1492 90.3292 90.7506 89.4431 91.1892 87.914L105.233 38.9569C105.669 37.429 104.783 35.8292 103.254 35.3906Z" fill="#FEFEFE"/>
<path d="M93.6134 79.2134C93.6134 79.2134 69.923 72.4177 68.3969 71.9799C66.8708 71.5422 67.8404 72.1018 67.7486 72.4218C67.6568 72.7417 64.8102 82.6653 64.8102 82.6653C64.7185 82.9849 65.8859 83.6017 67.4136 84.0399L87.5725 89.8226C89.0986 90.2603 90.4169 90.357 90.5086 90.037L93.4472 79.7931L93.6134 79.2134Z" fill="#DDDDDC"/>
<path d="M105.97 38.5657L79.0507 30.8438C79.469 29.3854 80.9907 28.5408 82.4507 28.9596L104.086 35.1656C105.546 35.5844 106.389 37.1057 105.97 38.5657Z" fill="#DDDDDC"/>
<path d="M99.7912 34.2516L86.6191 30.4731L86.6385 31.9024C86.6477 32.5673 87.0901 33.1462 87.7293 33.3295L97.3373 36.0856C97.9766 36.269 98.6585 36.0127 99.0187 35.4537L99.7912 34.2516Z" fill="#0F0C14"/>
<path d="M103.255 35.3892C104.782 35.8273 105.67 37.4275 105.232 38.9566L91.1886 87.9121C90.7505 89.4396 89.1502 90.3277 87.6212 89.8891L67.4463 84.1019C65.9189 83.6637 65.0307 82.0635 65.4693 80.5344L79.5129 31.5773C79.951 30.0498 81.5513 29.1617 83.0803 29.6003L103.255 35.3876L103.255 35.3892ZM103.577 34.2649L83.4024 28.4776C81.2501 27.8602 79.0055 29.1041 78.3881 31.2564L64.345 80.2119C63.7276 82.3642 64.9716 84.6088 67.1238 85.2262L87.3003 91.0139C89.4525 91.6313 91.6972 90.3873 92.3145 88.2351L106.358 39.278C106.974 37.1253 105.73 34.8822 103.577 34.2649Z" fill="#0F0C14"/>
<path d="M80.8722 38.9763C81.7592 39.2307 82.6846 38.7179 82.9391 37.8308C83.1935 36.9438 82.6807 36.0184 81.7937 35.764C80.9066 35.5095 79.9812 36.0223 79.7268 36.9094C79.4723 37.7964 79.9851 38.7218 80.8722 38.9763Z" fill="#DDDDDC"/>
<path d="M80.8722 38.9763C81.7592 39.2307 82.6846 38.7179 82.9391 37.8308C83.1935 36.9438 82.6807 36.0184 81.7937 35.764C80.9066 35.5095 79.9812 36.0223 79.7268 36.9094C79.4723 37.7964 79.9851 38.7218 80.8722 38.9763Z" stroke="#FEFEFE" stroke-width="0.5" stroke-miterlimit="10"/>
<path d="M80.8395 39.0918C79.8902 38.8195 79.3393 37.8253 79.6116 36.8761C79.8839 35.9269 80.878 35.3759 81.8273 35.6482C82.7765 35.9205 83.3274 36.9147 83.0552 37.8639C82.7829 38.8131 81.7887 39.3641 80.8395 39.0918ZM81.8042 35.7285C80.8984 35.4687 79.9513 35.9949 79.6919 36.8991C79.432 37.805 79.9566 38.7516 80.8625 39.0115C81.7684 39.2713 82.715 38.7467 82.9748 37.8409C83.2342 36.9366 82.7085 35.9879 81.8042 35.7285Z" fill="#FEFEFE"/>
<path d="M82.2695 38.8584L82.1954 39.117" stroke="#FEFEFE" stroke-width="0.5" stroke-miterlimit="10"/>
<path d="M85.6945 40.3586C86.5815 40.613 87.5069 40.1002 87.7613 39.2132C88.0158 38.3261 87.503 37.4007 86.6159 37.1463C85.7289 36.8918 84.8035 37.4046 84.549 38.2917C84.2946 39.1788 84.8074 40.1041 85.6945 40.3586Z" fill="#DDDDDC"/>
<path d="M85.6945 40.3586C86.5815 40.613 87.5069 40.1002 87.7613 39.2132C88.0158 38.3261 87.503 37.4007 86.6159 37.1463C85.7289 36.8918 84.8035 37.4046 84.549 38.2917C84.2946 39.1788 84.8074 40.1041 85.6945 40.3586Z" stroke="#FEFEFE" stroke-width="0.5" stroke-miterlimit="10"/>
<path d="M90.5148 41.7404C91.4018 41.9949 92.3272 41.4821 92.5816 40.595C92.8361 39.7079 92.3233 38.7826 91.4362 38.5281C90.5492 38.2737 89.6238 38.7865 89.3693 39.6735C89.1149 40.5606 89.6277 41.486 90.5148 41.7404Z" fill="#DDDDDC"/>
<path d="M90.5148 41.7404C91.4018 41.9949 92.3272 41.4821 92.5816 40.595C92.8361 39.7079 92.3233 38.7826 91.4362 38.5281C90.5492 38.2737 89.6238 38.7865 89.3693 39.6735C89.1149 40.5606 89.6277 41.486 90.5148 41.7404Z" stroke="#FEFEFE" stroke-width="0.5" stroke-miterlimit="10"/>
<path d="M95.3312 43.1227C96.2182 43.3772 97.1436 42.8644 97.3981 41.9773C97.6525 41.0903 97.1397 40.1649 96.2526 39.9104C95.3656 39.656 94.4402 40.1688 94.1858 41.0559C93.9313 41.9429 94.4441 42.8683 95.3312 43.1227Z" fill="#DDDDDC"/>
<path d="M95.3312 43.1227C96.2182 43.3772 97.1436 42.8644 97.3981 41.9773C97.6525 41.0903 97.1397 40.1649 96.2526 39.9104C95.3656 39.656 94.4402 40.1688 94.1858 41.0559C93.9313 41.9429 94.4441 42.8683 95.3312 43.1227Z" stroke="#FEFEFE" stroke-width="0.5" stroke-miterlimit="10"/>
<path d="M100.148 44.506C101.035 44.7605 101.96 44.2477 102.214 43.3606C102.469 42.4736 101.956 41.5482 101.069 41.2937C100.182 41.0393 99.2566 41.5521 99.0022 42.4392C98.7477 43.3262 99.2605 44.2516 100.148 44.506Z" fill="#DDDDDC"/>
<path d="M100.148 44.506C101.035 44.7605 101.96 44.2477 102.214 43.3606C102.469 42.4736 101.956 41.5482 101.069 41.2937C100.182 41.0393 99.2566 41.5521 99.0022 42.4392C98.7477 43.3262 99.2605 44.2516 100.148 44.506Z" stroke="#FEFEFE" stroke-width="0.5" stroke-miterlimit="10"/>
<path d="M102.385 48.8738L76.666 41.4961L69.2883 67.2154L95.0076 74.5931L102.385 48.8738Z" fill="#FFCA41"/>
<path d="M90.4454 69.0042L93.6638 66.8826L90.2772 65.0412C90.2772 65.0412 90.3075 65.0955 90.2772 65.0412L93.7295 59.0718C93.663 57.5449 89.4653 52.0788 88.1092 51.3699L82.0214 51.3635C82.0214 51.3635 82.0093 51.4057 82.0214 51.3635L81.738 47.8024C81.7501 47.7602 81.7501 47.7602 81.738 47.8024L78.5195 49.924C78.0836 50.1645 77.6504 50.6379 77.6564 51.4163L78.164 60.2615C78.2305 61.7884 79.4725 63.7511 80.8589 64.5143L88.7225 68.9449C89.4066 69.2783 89.9973 69.2869 90.4454 69.0042ZM86.6105 56.5947C87.3672 56.9946 88.1649 57.9581 88.1588 58.7788L88.2117 63.1437L87.1212 62.3959L86.604 62.6826L82.1302 57.0494C82.1302 57.0494 83.1525 56.5184 83.1646 56.4762L82.822 54.638C82.8341 54.5958 82.7796 54.6258 82.822 54.638L86.6105 56.5947Z" fill="#FFCA41"/>
<path d="M89.41 69.5776C89.198 69.5168 88.8061 69.4503 88.6062 69.3471L80.3407 64.8012C78.8687 64.0118 77.6745 62.2087 77.6459 60.5483L77.2536 51.3013C77.2424 50.3802 77.6316 49.7396 78.2319 49.407L81.4504 47.2854L81.8523 47.4007L82.1389 47.9179L82.1357 50.9618L88.3388 50.5663L88.2236 50.9682C89.6955 51.7576 94.0594 57.5148 94.1304 59.1873L90.7935 64.7548L94.0648 66.9981L93.9495 67.4L90.731 69.5216C90.3671 69.8302 89.9614 69.7358 89.41 69.5776ZM81.1045 48.4911L78.9205 50.0395C78.5808 50.2633 78.1612 50.53 78.1727 51.1299L78.565 60.377C78.6242 61.7708 79.7435 63.4387 80.9732 64.1127L88.8368 68.5432C89.3517 68.8286 90.2625 68.8385 90.5597 68.6025L92.7438 67.0541L90.161 65.4433L89.8744 64.9261L93.3266 58.9567C93.1099 57.4719 89.3863 52.1957 88.1083 51.3701L81.9051 51.7656L81.5032 51.6503L81.1045 48.4911ZM86.4878 63.0847C86.403 63.0603 86.1464 63.0785 86.0859 62.9694L81.7274 56.9344C81.776 56.7648 81.8989 56.5726 82.3599 56.2459C82.4144 56.2156 82.7194 56.349 82.7618 56.3611L82.4191 54.5229L82.9363 54.2363L86.7248 56.193C87.5971 56.6727 88.5183 57.9187 88.5598 58.8943L88.4973 63.6611L87.005 62.7981C86.9504 62.8283 87.0596 62.7678 87.005 62.7981C86.6654 63.0219 86.6575 63.1333 86.4878 63.0847ZM82.9331 57.2802L86.7184 62.2809C87.1672 61.9966 87.0357 61.891 87.2356 61.9942L87.6375 62.1095L87.756 58.6637C87.7264 57.9668 87.1363 57.3187 86.4942 56.9968L83.1076 55.1554L83.1637 56.4764C83.1877 56.7128 83.3819 56.9959 82.9331 57.2802Z" fill="black"/>
<path d="M91.3219 52.2929L83.4583 47.8623C82.0996 47.1478 80.8106 47.7469 80.8723 49.2954L81.2646 58.5424C81.3262 60.091 82.6007 62.0808 83.9594 62.7953L91.823 67.2259C93.1817 67.9404 94.4707 67.3413 94.409 65.7928L94.0167 56.5457C93.955 54.9972 92.6805 53.0074 91.3219 52.2929ZM91.1969 61.8266C91.2306 62.6712 90.8054 63.2048 90.0473 62.8017L85.455 60.6144C84.7393 60.2236 84.0555 58.8731 84.0219 58.0285L84.0843 53.2616C84.0932 52.4292 84.5183 51.8956 85.234 52.2865L89.8263 54.4738C90.542 54.8646 91.2258 56.2151 91.2594 57.0597L91.1969 61.8266Z" fill="white"/>
<path d="M92.5119 67.8583C92.2987 67.7972 91.9089 67.7319 91.7081 67.6277L83.4426 63.0819C81.9636 62.2856 80.8157 60.5226 80.7477 58.829L80.4707 49.18C80.4491 48.2903 80.8871 47.6361 81.4491 47.2858C82.011 46.9355 82.8131 47.0561 83.5739 47.4603L91.8394 52.0062C93.3184 52.8025 94.4663 54.5655 94.5342 56.2591L94.8112 65.908C94.8329 66.7978 94.3948 67.452 93.8329 67.8023C93.4235 68.1034 93.0662 68.0173 92.5119 67.8583ZM82.5395 48.0336C82.1984 47.9357 81.8526 48.039 81.6204 48.2049C81.2906 48.3893 81.2216 48.7909 81.2745 49.4106L81.6668 58.6577C81.7234 60.069 82.8699 61.7686 84.075 62.3933L91.9386 66.8239C92.4559 67.1118 93.3621 67.1228 93.6616 66.8832C93.9913 66.6988 94.0604 66.2972 94.0074 65.6775L93.6151 56.4304C93.5585 55.0191 92.4121 53.3195 91.2069 52.6947L82.9414 48.1489C82.8258 48.0692 82.71 48.0825 82.5395 48.0336ZM90.3342 63.3189C90.2063 63.2822 90.0479 63.2832 89.9323 63.2036L85.34 61.0163C84.4636 60.5324 83.9039 59.406 83.9069 58.4303L83.6828 53.1463C83.6601 52.5818 83.6742 52.2109 84.0286 51.9406C84.3707 51.7132 84.875 51.6089 85.3496 51.8845L89.9419 54.0718C90.8183 54.5557 91.378 55.6821 91.375 56.6578L91.5992 61.9418C91.6218 62.5063 91.6077 62.8772 91.2533 63.1475C90.9785 63.3012 90.6753 63.4167 90.3342 63.3189ZM84.7172 52.573C84.5892 52.5364 84.3702 52.427 84.3152 52.4578C84.2053 52.5192 84.1763 52.6204 84.2 52.8597L84.4241 58.1437C84.4524 58.8493 84.9803 59.8572 85.5706 60.2125L90.1629 62.3998C90.4064 62.5161 90.8445 62.7348 90.9667 62.6303C91.0766 62.5689 91.1056 62.4677 91.082 62.2284L90.8578 56.9444C90.8295 56.2387 90.3016 55.2309 89.7114 54.8756L85.1191 52.6883C85.0764 52.6761 84.8024 52.5975 84.7172 52.573Z" fill="black"/>
<path d="M102.163 66.0906C102.037 65.8114 101.711 65.688 101.434 65.8148C101.156 65.9382 101.032 66.2667 101.158 66.5458L102.626 69.8036C102.752 70.0827 103.078 70.2061 103.357 70.0803C103.633 69.9559 103.757 69.6275 103.633 69.3517L102.163 66.0906Z" fill="#FFCA41"/>
<path d="M68.4097 50.4192C68.6035 50.6563 68.9503 50.6911 69.1847 50.497C69.4215 50.3058 69.4566 49.9564 69.2628 49.7193L67.0008 46.9527C66.807 46.7157 66.4602 46.6809 66.2231 46.8747C65.989 47.0661 65.9539 47.4156 66.1454 47.6497L68.4097 50.4192Z" fill="#FFCA41"/>
<path d="M103.485 64.261C103.2 64.156 103.055 63.8384 103.16 63.551C103.265 63.2661 103.584 63.1184 103.87 63.2269L107.223 64.4761C107.508 64.5811 107.652 64.9011 107.547 65.186C107.442 65.4709 107.125 65.6161 106.84 65.5111L103.485 64.261Z" fill="#FFCA41"/>
<path d="M67.6072 52.5282C67.9096 52.5559 68.132 52.825 68.1041 53.1301C68.0764 53.4325 67.807 53.6575 67.5022 53.6269L63.9404 53.2881C63.638 53.2604 63.4159 52.9886 63.4436 52.6862C63.4713 52.3838 63.7404 52.1614 64.0428 52.1891L67.6072 52.5282Z" fill="#FFCA41"/>
<path d="M104.148 60.9297C103.872 61.0565 103.543 60.9322 103.417 60.653C103.293 60.3773 103.417 60.0513 103.693 59.9245L106.954 58.4542C107.231 58.3274 107.56 58.4517 107.683 58.7299C107.807 59.0056 107.683 59.3341 107.407 59.4584L104.148 60.9297Z" fill="#FFCA41"/>
<path d="M67.8312 55.9172C68.0656 55.7232 68.415 55.7582 68.6089 55.9953C68.8003 56.2295 68.7655 56.5763 68.5311 56.7703L65.7616 59.0347C65.5271 59.2287 65.1777 59.1937 64.9865 58.9569C64.7951 58.7227 64.8301 58.3733 65.0643 58.1818L67.8312 55.9172Z" fill="#FFCA41"/>
</g>
<defs>
<clipPath id="clip0_421_1450">
<rect width="130" height="100" fill="white"/>
</clipPath>
</defs>
</svg>
