<svg width="130" height="100" viewBox="0 0 130 100" fill="none" xmlns="http://www.w3.org/2000/svg">
<path d="M72.0923 15.1978L31.7459 2.06434C31.3702 1.94292 30.9577 1.99469 30.6254 2.20836L20.6216 8.6165C20.2441 8.85747 20.0156 9.27445 20.0156 9.72061V65.9707C20.0156 66.5393 20.3828 67.0428 20.9246 67.2188L61.272 80.3533C61.4051 80.3966 61.5429 80.4182 61.6808 80.4182C61.9545 80.4182 62.2254 80.3326 62.4538 80.1688C62.7955 79.9212 62.9976 79.5259 62.9976 79.1052V76.7605L68.6998 73.1074L71.2749 73.9461C71.6742 74.076 72.115 74.0073 72.4567 73.7607C72.7984 73.514 73.0004 73.1178 73.0004 72.698V16.4478C73.0013 15.8784 72.6351 15.3739 72.0923 15.1978ZM69.8231 17.7044L68.8839 72.5408L62.9258 76.352L63.8046 21.398L24.4578 8.6165L30.751 4.5907" fill="#939393"/>
<path d="M69.8234 17.7046L68.8832 72.5419L62.9251 76.3531L63.8048 21.3991L24.458 8.61666L30.7512 4.5918L69.8234 17.7046Z" fill="#DDDDDD"/>
<path d="M54.0767 24.2061L13.7302 11.0726C13.3546 10.9512 12.9421 11.003 12.6098 11.2167L2.606 17.6248C2.22843 17.8658 2 18.2827 2 18.7289V74.979C2 75.5476 2.36719 76.0511 2.90901 76.2271L43.2564 89.3616C43.3895 89.4049 43.5273 89.4265 43.6651 89.4265C43.9389 89.4265 44.2098 89.3409 44.4382 89.1771C44.7799 88.9295 44.9819 88.5342 44.9819 88.1135V85.7688L50.6842 82.1157L53.2593 82.9544C53.6585 83.0843 54.0994 83.0156 54.4411 82.769C54.7828 82.5223 54.9848 82.1261 54.9848 81.7063V25.4561C54.9857 24.8867 54.6195 24.3822 54.0767 24.2061ZM51.8075 26.7127L50.8683 81.5491L44.9102 85.3603L45.789 30.4063L6.44214 17.6248L12.7353 13.599" fill="black"/>
<path d="M51.8077 26.7129L50.8676 81.5502L44.9095 85.3614L45.7892 30.4074L6.44238 17.625L12.7356 13.6001L51.8077 26.7129Z" fill="#DDDDDD"/>
<path d="M7.70605 25.8804L38.5465 36.6968V81.3144L7.70605 70.498V25.8804Z" fill="#FFCA41"/>
</svg>
