<svg width="588" height="605" viewBox="0 0 588 605" fill="none" xmlns="http://www.w3.org/2000/svg">
<path d="M216.694 529.144C216.518 529.086 216.341 528.968 216.224 528.793C216.047 528.441 216.224 528.089 216.518 527.913C217.341 527.503 218.106 527.151 218.871 526.741C219.223 526.565 219.576 526.682 219.753 527.034C219.929 527.386 219.812 527.737 219.459 527.913C218.635 528.324 217.871 528.734 217.047 529.144C216.988 529.144 216.812 529.203 216.694 529.144Z" fill="black"/>
<path d="M163.405 535.475C163.052 535.416 162.817 535.064 162.935 534.713C162.993 534.361 163.346 534.127 163.758 534.185C165.405 534.537 167.169 534.83 168.816 535.123C169.169 535.182 169.463 535.533 169.405 535.885C169.346 536.237 168.993 536.53 168.64 536.471C166.817 536.178 165.111 535.827 163.405 535.475ZM155.229 533.306C155.171 533.306 155.171 533.306 155.229 533.306C153.524 532.778 151.877 532.192 150.23 531.548C149.877 531.43 149.701 531.02 149.877 530.668C149.995 530.317 150.406 530.141 150.759 530.317C152.347 530.961 153.994 531.548 155.641 532.016C155.994 532.134 156.171 532.485 156.053 532.837C155.876 533.189 155.582 533.423 155.229 533.306ZM176.933 537.175C176.639 537.116 176.404 536.823 176.404 536.471C176.404 536.12 176.757 535.827 177.11 535.827C178.815 535.885 180.58 535.944 182.286 535.885C182.638 535.885 182.933 536.178 182.991 536.53C182.991 536.882 182.697 537.175 182.344 537.233C180.58 537.292 178.815 537.233 177.11 537.175C176.992 537.233 176.933 537.233 176.933 537.175ZM142.584 528.089C142.525 528.089 142.466 528.031 142.466 528.031C140.937 527.21 139.349 526.389 137.878 525.51C137.584 525.334 137.467 524.924 137.643 524.572C137.819 524.279 138.231 524.162 138.584 524.338C140.055 525.217 141.584 526.038 143.113 526.858C143.466 527.034 143.584 527.444 143.407 527.737C143.231 528.031 142.878 528.206 142.584 528.089ZM190.579 536.706C190.344 536.647 190.108 536.413 190.05 536.12C189.991 535.768 190.285 535.416 190.638 535.358L191.108 535.299C192.637 535.123 194.226 534.889 195.755 534.596C196.108 534.537 196.461 534.771 196.519 535.123C196.578 535.475 196.343 535.827 195.99 535.885C194.461 536.178 192.873 536.413 191.285 536.589L190.814 536.647C190.697 536.706 190.638 536.706 190.579 536.706ZM131.055 520.938C130.997 520.938 130.879 520.879 130.82 520.821C129.409 519.766 128.056 518.71 126.703 517.597C126.409 517.362 126.409 516.952 126.644 516.659C126.879 516.366 127.291 516.366 127.585 516.6C128.879 517.714 130.232 518.769 131.644 519.766C131.938 520 131.996 520.41 131.761 520.703C131.585 520.879 131.291 520.997 131.055 520.938ZM203.93 534.009C203.695 533.951 203.519 533.775 203.46 533.54C203.342 533.189 203.578 532.837 203.93 532.72C205.577 532.251 207.224 531.723 208.812 531.137C209.165 531.02 209.518 531.196 209.695 531.548C209.812 531.899 209.636 532.251 209.283 532.427C207.636 533.013 205.989 533.54 204.283 534.009C204.166 534.009 204.048 534.009 203.93 534.009ZM120.762 511.97C120.645 511.97 120.527 511.852 120.468 511.794C119.233 510.563 118.057 509.215 116.939 507.925C116.704 507.632 116.704 507.222 116.998 506.987C117.292 506.753 117.704 506.753 117.939 507.046C119.057 508.335 120.233 509.625 121.409 510.856C121.645 511.149 121.645 511.559 121.409 511.794C121.233 511.911 120.998 511.97 120.762 511.97ZM112.116 501.419C111.94 501.36 111.822 501.301 111.704 501.126C110.705 499.719 109.763 498.195 108.881 496.729C108.705 496.436 108.764 496.026 109.116 495.791C109.411 495.616 109.822 495.674 110.058 496.026C110.94 497.491 111.881 498.957 112.881 500.364C113.116 500.657 112.998 501.067 112.704 501.301C112.528 501.419 112.293 501.477 112.116 501.419ZM105.293 489.637C105.117 489.578 104.94 489.461 104.823 489.285C104.058 487.702 103.411 486.12 102.764 484.478C102.646 484.127 102.823 483.775 103.117 483.599C103.47 483.482 103.823 483.658 103.999 483.951C104.646 485.534 105.293 487.116 106.058 488.64C106.234 488.992 106.058 489.402 105.764 489.519C105.646 489.695 105.47 489.695 105.293 489.637ZM100.529 476.917C100.294 476.858 100.117 476.682 100.059 476.448C99.588 474.807 99.1763 473.048 98.7645 471.348C98.7057 470.997 98.941 470.645 99.2939 470.528C99.6468 470.469 99.9997 470.704 100.117 471.055C100.47 472.697 100.882 474.396 101.353 476.038C101.47 476.389 101.235 476.741 100.882 476.858C100.764 476.976 100.647 476.976 100.529 476.917ZM97.9411 463.552C97.7058 463.494 97.4705 463.259 97.4117 462.966C97.2353 461.208 97.0588 459.508 97 457.749C97 457.398 97.2941 457.046 97.647 457.046C97.9999 457.046 98.3528 457.339 98.3528 457.691C98.4116 459.391 98.5881 461.09 98.7645 462.79C98.8233 463.142 98.5293 463.494 98.1764 463.552C98.0587 463.611 97.9999 463.611 97.9411 463.552ZM97.5294 449.953C97.2353 449.895 97 449.602 97 449.25C97.1176 447.55 97.2353 445.792 97.4117 444.033C97.4705 443.681 97.7646 443.388 98.1764 443.447C98.5293 443.506 98.8233 443.799 98.7645 444.209C98.5881 445.909 98.4116 447.667 98.3528 449.309C98.3528 449.66 97.9999 449.953 97.647 449.953C97.5882 450.012 97.5294 450.012 97.5294 449.953ZM99.2939 436.53C98.941 436.472 98.7057 436.12 98.8233 435.71C98.9998 434.948 99.1763 434.244 99.3527 433.541C99.588 432.603 99.8821 431.606 100.117 430.669C100.235 430.317 100.588 430.141 100.941 430.2C101.294 430.317 101.529 430.669 101.411 431.02C101.117 431.958 100.882 432.896 100.647 433.834C100.47 434.537 100.294 435.241 100.117 436.003C100.059 436.354 99.7056 436.589 99.2939 436.53C99.3527 436.53 99.3527 436.53 99.2939 436.53Z" fill="black"/>
<path d="M103.352 423.458C103.293 423.458 103.293 423.458 103.235 423.458C102.882 423.341 102.705 422.931 102.882 422.579C103.235 421.759 103.588 420.938 103.94 420.117C104.117 419.766 104.47 419.648 104.823 419.766C105.176 419.941 105.293 420.293 105.176 420.645C104.823 421.466 104.47 422.286 104.117 423.107C103.999 423.4 103.646 423.517 103.352 423.458Z" fill="black"/>
<path d="M148.643 377.679C148.466 377.62 148.29 377.503 148.172 377.268C148.054 376.917 148.172 376.506 148.525 376.389C149.348 376.037 150.172 375.686 151.054 375.393C151.407 375.275 151.76 375.451 151.936 375.803C152.054 376.155 151.878 376.506 151.525 376.682C150.701 376.975 149.878 377.327 149.054 377.679C148.937 377.679 148.76 377.679 148.643 377.679Z" fill="black"/>
<path d="M259.749 480.316C259.749 480.316 259.691 480.316 259.749 480.316C259.338 480.199 259.161 479.789 259.279 479.437C259.867 477.737 260.338 475.979 260.808 474.22C260.926 473.868 261.279 473.634 261.632 473.751C261.984 473.868 262.22 474.22 262.102 474.572C261.632 476.33 261.102 478.147 260.514 479.847C260.455 480.258 260.102 480.433 259.749 480.316ZM263.102 466.365C262.749 466.307 262.573 465.955 262.573 465.603C262.808 463.845 263.043 462.028 263.161 460.211C263.161 459.859 263.514 459.566 263.867 459.625C264.22 459.625 264.514 459.976 264.455 460.328C264.337 462.145 264.102 464.021 263.808 465.838C263.749 466.19 263.396 466.483 263.043 466.424C263.102 466.366 263.102 466.365 263.102 466.365ZM263.925 452.004C263.631 451.946 263.455 451.653 263.396 451.36C263.337 449.543 263.22 447.725 263.043 445.908C262.984 445.557 263.278 445.205 263.631 445.205C263.984 445.146 264.337 445.439 264.337 445.791C264.514 447.608 264.631 449.484 264.69 451.301C264.69 451.653 264.396 452.004 264.043 452.004C264.043 452.063 263.984 452.063 263.925 452.004ZM262.279 437.761C262.043 437.702 261.808 437.526 261.808 437.233C261.455 435.475 261.043 433.658 260.573 431.958C260.455 431.606 260.69 431.254 261.043 431.137C261.396 431.02 261.749 431.254 261.867 431.606C262.337 433.364 262.808 435.182 263.161 436.999C263.22 437.35 262.984 437.702 262.631 437.761C262.455 437.761 262.337 437.761 262.279 437.761ZM258.22 423.986C258.044 423.927 257.867 423.81 257.75 423.575C257.103 421.876 256.338 420.234 255.573 418.593C255.397 418.241 255.573 417.89 255.867 417.714C256.22 417.538 256.632 417.714 256.75 418.007C257.514 419.648 258.279 421.348 258.926 423.048C259.044 423.4 258.867 423.751 258.573 423.927C258.455 423.986 258.338 423.986 258.22 423.986ZM251.809 411.149C251.633 411.09 251.515 411.032 251.397 410.856C250.456 409.332 249.456 407.808 248.398 406.342C248.162 406.049 248.28 405.639 248.574 405.404C248.868 405.17 249.28 405.287 249.515 405.58C250.574 407.104 251.574 408.628 252.574 410.211C252.75 410.504 252.691 410.914 252.338 411.149C252.162 411.149 251.985 411.149 251.809 411.149ZM243.28 399.543C243.163 399.484 243.045 399.425 242.928 399.308C241.751 397.96 240.457 396.612 239.222 395.322C238.987 395.088 238.987 394.619 239.222 394.384C239.457 394.15 239.928 394.15 240.163 394.384C241.457 395.674 242.751 397.022 243.927 398.429C244.163 398.722 244.163 399.132 243.869 399.367C243.692 399.543 243.457 399.601 243.28 399.543ZM159.642 373.986C159.406 373.927 159.23 373.751 159.171 373.517C159.054 373.165 159.289 372.814 159.642 372.696C161.406 372.227 163.23 371.817 165.053 371.465C165.406 371.407 165.759 371.641 165.818 371.993C165.876 372.345 165.641 372.696 165.288 372.755C163.524 373.107 161.7 373.517 159.995 373.927C159.877 374.045 159.759 374.045 159.642 373.986ZM232.87 389.637C232.752 389.637 232.693 389.578 232.634 389.519C231.223 388.406 229.752 387.292 228.282 386.237C227.988 386.002 227.929 385.592 228.105 385.299C228.341 385.006 228.752 384.947 229.047 385.123C230.576 386.178 232.046 387.292 233.458 388.464C233.752 388.699 233.811 389.109 233.576 389.402C233.399 389.637 233.105 389.695 232.87 389.637ZM173.876 371.583C173.582 371.524 173.405 371.29 173.346 370.996C173.287 370.645 173.582 370.293 173.934 370.293C175.758 370.117 177.64 370.059 179.463 370C179.816 370 180.11 370.293 180.169 370.645C180.169 370.996 179.875 371.29 179.522 371.348C177.699 371.407 175.875 371.465 174.052 371.641C173.993 371.641 173.934 371.583 173.876 371.583ZM220.871 381.606C220.812 381.606 220.753 381.547 220.694 381.547C219.106 380.668 217.46 379.848 215.813 379.086C215.46 378.91 215.342 378.558 215.519 378.206C215.695 377.855 216.048 377.737 216.401 377.913C218.048 378.675 219.753 379.554 221.341 380.434C221.694 380.61 221.812 381.02 221.577 381.372C221.459 381.547 221.165 381.723 220.871 381.606ZM188.286 371.641C187.992 371.583 187.757 371.29 187.757 370.938C187.815 370.586 188.11 370.293 188.462 370.352C190.286 370.528 192.168 370.762 193.932 371.055C194.285 371.114 194.521 371.465 194.462 371.817C194.403 372.169 194.05 372.403 193.697 372.345C191.933 372.052 190.109 371.817 188.286 371.7C188.345 371.641 188.286 371.641 188.286 371.641ZM207.696 375.803C205.931 375.217 204.167 374.689 202.402 374.162C202.049 374.045 201.814 373.693 201.932 373.341C202.049 372.989 202.402 372.814 202.755 372.872C204.52 373.341 206.284 373.927 208.049 374.513C208.402 374.631 208.578 375.041 208.46 375.393C208.402 375.686 208.049 375.862 207.696 375.803Z" fill="black"/>
<path d="M255.338 491.102C255.28 491.102 255.221 491.102 255.221 491.043C254.868 490.867 254.75 490.457 254.927 490.164C255.338 489.402 255.691 488.581 256.044 487.76C256.221 487.409 256.574 487.291 256.927 487.409C257.279 487.585 257.397 487.936 257.279 488.288C256.927 489.109 256.515 489.929 256.103 490.75C255.927 491.043 255.633 491.16 255.338 491.102Z" fill="black"/>
<path d="M232.885 488.4L232.883 488.402L223.592 499.654C223.591 499.655 223.591 499.655 223.591 499.655C223.424 499.854 223.243 499.889 223.054 499.808L223.044 499.804L223.033 499.8L211.623 495.521L211.366 495.425L211.147 495.589C206.661 498.957 201.591 501.629 196.112 503.488L195.852 503.576L195.786 503.842L192.907 515.613C192.845 515.819 192.664 515.974 192.448 516.008L177.934 517.355L177.922 517.356L177.909 517.358C177.734 517.383 177.532 517.284 177.439 517.07L177.439 517.069L177.435 517.06L172.436 506.041L172.321 505.787L172.045 505.751C166.28 504.997 160.805 503.256 155.793 500.759L155.548 500.636L155.312 500.778L144.907 507.046C144.765 507.127 144.652 507.15 144.568 507.147C144.488 507.144 144.401 507.117 144.303 507.035L144.301 507.034L133.069 497.773C133.068 497.773 133.068 497.773 133.068 497.773C132.868 497.606 132.835 497.427 132.914 497.242L132.919 497.232L132.923 497.221L137.216 485.849L137.314 485.591L137.148 485.371C133.769 480.901 131.088 475.849 129.223 470.388L129.134 470.129L128.868 470.064L117.056 467.194C116.847 467.131 116.694 466.951 116.659 466.738L115.308 452.273L115.306 452.261L115.305 452.249C115.28 452.077 115.377 451.876 115.594 451.783L115.594 451.783L115.603 451.779L126.661 446.797L126.915 446.683L126.951 446.406C127.708 440.662 129.455 435.205 131.961 430.211L132.085 429.964L131.941 429.728L125.651 419.358C125.571 419.217 125.548 419.105 125.551 419.022C125.554 418.944 125.581 418.858 125.663 418.76L125.664 418.759L134.956 407.565C134.956 407.564 134.956 407.564 134.957 407.564C135.124 407.365 135.305 407.33 135.494 407.411L135.504 407.415L135.514 407.419L146.925 411.698L147.182 411.794L147.401 411.63C151.887 408.262 156.957 405.59 162.436 403.731L162.696 403.643L162.761 403.377L165.641 391.606C165.703 391.4 165.883 391.245 166.1 391.211L180.614 389.864L180.626 389.863L180.638 389.861C180.814 389.836 181.016 389.935 181.108 390.15L181.108 390.15L181.112 390.159L186.112 401.178L186.227 401.432L186.502 401.468C192.267 402.222 197.743 403.963 202.754 406.46L203 406.583L203.235 406.441L213.64 400.173C213.783 400.092 213.896 400.069 213.98 400.072C214.059 400.075 214.146 400.102 214.245 400.184L214.248 400.186L225.479 409.387C225.48 409.387 225.48 409.388 225.48 409.388C225.68 409.554 225.713 409.733 225.633 409.919L225.629 409.929L225.625 409.939L221.331 421.311L221.234 421.569L221.4 421.789C224.779 426.26 227.46 431.312 229.325 436.772L229.414 437.032L229.68 437.097L241.492 439.966C241.7 440.029 241.854 440.209 241.889 440.423L243.24 454.887L243.241 454.899L243.243 454.911C243.268 455.083 243.17 455.284 242.953 455.377L242.944 455.381L231.887 460.363L231.633 460.478L231.596 460.754C230.839 466.499 229.092 471.955 226.587 476.949L226.463 477.196L226.606 477.433L232.896 487.802C232.977 487.944 233 488.055 232.997 488.138C232.994 488.216 232.967 488.302 232.885 488.4Z" stroke="black"/>
<path d="M176.932 466.893C172.638 465.838 168.933 462.731 167.344 458.218C166.109 454.818 166.345 451.125 167.874 447.843C169.462 444.56 172.168 442.098 175.638 440.867C179.049 439.636 182.755 439.871 186.048 441.395C189.342 442.977 191.813 445.674 193.048 449.132C195.577 456.166 191.813 463.962 184.754 466.483C182.108 467.42 179.402 467.538 176.932 466.893ZM183.108 441.805C180.814 441.219 178.343 441.336 176.049 442.157C172.932 443.27 170.462 445.498 169.05 448.429C167.639 451.36 167.462 454.701 168.58 457.807C170.815 464.197 177.873 467.538 184.284 465.252C190.695 463.024 194.048 455.99 191.754 449.601C190.636 446.494 188.401 444.032 185.46 442.626C184.696 442.333 183.931 442.04 183.108 441.805Z" fill="black"/>
<path d="M171.344 488.229C156.934 484.653 145.7 472.344 144.229 456.811C143.818 452.707 144.171 448.722 145.112 444.911C148.7 430.55 161.051 419.355 176.638 417.889C186.166 417.01 195.518 419.882 202.871 425.978C210.223 432.074 214.811 440.691 215.693 450.187C215.928 452.532 215.928 454.818 215.693 457.162C215.693 457.397 215.634 457.573 215.634 457.807V457.866C215.575 458.217 215.222 458.393 214.928 458.393C214.575 458.335 214.281 458.042 214.34 457.631C214.634 455.228 214.634 452.766 214.458 450.304C213.575 441.16 209.223 432.895 202.106 427.033C194.989 421.172 186.049 418.417 176.873 419.237C161.875 420.644 149.994 431.43 146.523 445.263C145.641 448.897 145.288 452.766 145.641 456.693C147.406 475.568 164.286 489.519 183.226 487.76C189.46 487.174 195.401 484.947 200.4 481.254C200.694 481.019 201.106 481.078 201.341 481.371C201.459 481.547 201.518 481.723 201.459 481.899C201.4 482.074 201.341 482.192 201.224 482.25C195.989 486.06 189.813 488.405 183.343 488.991C179.167 489.519 175.109 489.167 171.344 488.229Z" fill="black"/>
<path d="M452.615 332.161L423.15 302.668C421.469 300.985 421.442 298.22 423.096 296.509L549.826 164.598C551.623 162.746 554.646 162.804 556.327 164.772L586.132 199.226C587.642 200.966 587.526 203.589 585.9 205.214L458.831 332.164C457.119 333.874 454.325 333.873 452.615 332.161Z" fill="white"/>
<path d="M507.511 221.355L492.818 237.288C491.42 238.799 491.447 241.108 492.9 242.563L513.19 263.442C514.671 264.982 517.152 265.011 518.664 263.501L533.984 248.195C535.468 246.713 535.498 244.289 534.016 242.806L513.1 221.3C511.561 219.702 508.966 219.73 507.511 221.355Z" fill="#656989" fill-opacity="0.6"/>
<path d="M510.906 265.892L490.959 245.355C489.42 243.758 486.854 243.814 485.37 245.41L470.677 261.343C469.279 262.854 469.306 265.164 470.76 266.618L490.08 286.527C491.562 288.068 494.042 288.097 495.554 286.586L510.875 271.281C512.358 269.798 512.388 267.375 510.906 265.892Z" fill="#656989" fill-opacity="0.4"/>
<path d="M564.823 217.383L576.349 205.868C577.719 204.5 577.834 202.333 576.694 200.793L556.608 174.696C555.155 172.785 552.36 172.67 550.706 174.437L537.068 189.259C535.67 190.769 535.697 193.079 537.15 194.534L559.32 217.352C560.831 218.864 563.311 218.893 564.823 217.383Z" fill="#656989"/>
<path d="M529.621 197.325L514.928 213.258C513.53 214.769 513.557 217.078 515.011 218.533L536.24 240.41C537.722 241.95 540.203 241.98 541.715 240.469L557.035 225.163C558.518 223.681 558.548 221.258 557.066 219.774L535.21 197.27C533.671 195.672 531.133 195.7 529.621 197.325Z" fill="#656989" fill-opacity="0.8"/>
<path d="M463.201 269.438L452.502 281.039C451.104 282.55 451.16 284.888 452.613 286.342L471.421 305.168C472.931 306.679 475.355 306.652 476.838 305.17L487.708 294.31C489.192 292.828 489.222 290.405 487.74 288.921L468.704 269.355C467.251 267.786 464.713 267.813 463.201 269.438Z" fill="#656989" fill-opacity="0.2"/>
<path d="M456.494 332.621L418.41 315.727C416.244 314.757 415.191 312.219 416.104 309.995L486.77 141.31C487.798 138.916 490.621 137.919 492.902 139.117L533.093 160.517C535.145 161.601 535.97 164.082 535.057 166.191L462.255 330.399C461.313 332.594 458.689 333.62 456.494 332.621Z" fill="white"/>
<path opacity="0.6" d="M467.742 209.508L459.776 229.663C459.033 231.545 459.887 233.712 461.769 234.568L488.222 246.724C490.16 247.638 492.47 246.754 493.355 244.787L502.091 225.003C502.948 223.064 502.094 220.84 500.184 219.955L472.904 207.428C470.937 206.486 468.57 207.426 467.742 209.508Z" fill="black"/>
<path opacity="0.4" d="M486.966 249.803L460.94 237.847C458.945 236.933 456.578 237.873 455.778 239.926L447.811 260.082C447.069 261.963 447.923 264.131 449.805 264.987L475.003 276.572C476.942 277.485 479.252 276.602 480.137 274.635L488.873 254.851C489.73 252.912 488.904 250.659 486.966 249.803Z" fill="black"/>
<path d="M519.764 185.119L526.359 170.209C527.158 168.442 526.504 166.36 524.822 165.362L496.661 148.244C494.637 147.017 491.985 147.9 491.071 150.123L483.676 168.854C482.933 170.735 483.787 172.902 485.669 173.759L514.573 187.056C516.597 187.941 518.907 187.058 519.764 185.119Z" fill="black"/>
<path opacity="0.8" d="M479.734 179.059L471.768 199.215C471.025 201.096 471.88 203.264 473.761 204.12L501.44 216.875C503.378 217.788 505.688 216.905 506.573 214.938L515.366 195.153C516.223 193.215 515.369 190.991 513.459 190.106L484.954 176.98C482.901 176.066 480.534 177.006 479.734 179.059Z" fill="black"/>
<path opacity="0.2" d="M443.756 270.287L437.959 284.969C437.188 286.879 438.099 289.046 439.981 289.902L464.325 300.689C466.263 301.545 468.544 300.691 469.401 298.752L475.653 284.698C476.51 282.759 475.656 280.535 473.746 279.65L448.946 268.236C446.922 267.294 444.555 268.234 443.756 270.287Z" fill="black"/>
<path d="M461.255 331.282L419.767 335.116C417.372 335.343 415.234 333.603 414.979 331.236L394.468 149.459C394.184 146.892 396.182 144.612 398.748 144.556L444.283 143.632C446.593 143.604 448.559 145.344 448.758 147.654L465.193 326.493C465.448 328.916 463.651 331.054 461.255 331.282Z" fill="white"/>
<path opacity="0.6" d="M411.108 218.266L414.004 239.766C414.26 241.79 416.055 243.245 418.108 243.075L447.136 240.804C449.274 240.663 450.844 238.753 450.645 236.614L448.662 215.058C448.463 212.976 446.611 211.407 444.558 211.578L414.589 213.933C412.394 214.075 410.796 216.07 411.108 218.266Z" fill="#FFCA41"/>
<path opacity="0.4" d="M447.505 244.083L418.933 246.297C416.709 246.467 415.111 248.462 415.424 250.658L418.32 272.158C418.575 274.182 420.371 275.637 422.424 275.467L450.082 273.31C452.221 273.168 453.79 271.258 453.592 269.12L451.637 247.592C451.439 245.453 449.615 243.913 447.505 244.083Z" fill="#FFCA41"/>
<path d="M444.666 171.631L443.164 155.407C442.994 153.468 441.398 151.985 439.488 151.898L406.585 150.689C404.218 150.602 402.307 152.683 402.619 155.05L405.288 175.01C405.543 177.034 407.339 178.489 409.392 178.319L441.128 175.85C443.267 175.651 444.864 173.77 444.666 171.631Z" fill="#FFCA41"/>
<path opacity="0.8" d="M406.736 185.874L409.632 207.373C409.887 209.398 411.683 210.853 413.736 210.682L444.103 208.327C446.242 208.185 447.811 206.275 447.613 204.137L445.629 182.58C445.431 180.499 443.578 178.93 441.525 179.1L410.217 181.541C408.05 181.711 406.452 183.706 406.736 185.874Z" fill="#FFCA41"/>
<path opacity="0.2" d="M419.796 283.05L421.898 298.676C422.181 300.729 424.034 302.184 426.058 301.985L452.577 299.543C454.715 299.344 456.256 297.463 456.058 295.381L454.669 280.069C454.471 277.988 452.619 276.419 450.566 276.589L423.335 278.718C421.082 278.859 419.484 280.855 419.796 283.05Z" fill="#FFCA41"/>
<path d="M381.68 543.85V516.453H338.478H336.37H293.168V543.85C293.168 558.903 281.878 571.096 267.427 572.903V573.204H336.37H338.478H407.421V572.903C392.97 571.096 381.68 558.753 381.68 543.85Z" fill="#939393" stroke="black" stroke-width="3" stroke-linecap="round" stroke-linejoin="round"/>
<path d="M527.846 520.066C527.846 528.044 521.373 534.366 513.545 534.366H161.301C153.322 534.366 147 527.894 147 520.066V325.729C147 317.751 153.473 311.429 161.301 311.429H513.545C521.523 311.429 527.846 317.902 527.846 325.729V520.066Z" fill="#DDDDDD" stroke="black" stroke-width="3" stroke-linecap="round" stroke-linejoin="round"/>
<path d="M527.846 483.637C527.846 491.615 521.373 497.938 513.545 497.938H161.301C153.322 497.938 147 491.465 147 483.637V289.301C147 281.322 153.473 275 161.301 275H513.545C521.523 275 527.846 281.473 527.846 289.301V483.637Z" fill="#939393" stroke="black" stroke-width="3" stroke-linecap="round" stroke-linejoin="round"/>
<path d="M510.084 291.257H164.613V480.777H510.084V291.257Z" fill="white" stroke="black" stroke-width="3" stroke-linecap="round" stroke-linejoin="round"/>
<path d="M432.559 585.096C432.559 589.762 428.796 593.525 424.13 593.525H250.717C246.05 593.525 242.287 589.762 242.287 585.096V581.633C242.287 576.967 246.05 573.204 250.717 573.204H424.13C428.796 573.204 432.559 576.967 432.559 581.633V585.096Z" fill="#DDDDDD" stroke="black" stroke-width="3" stroke-linecap="round" stroke-linejoin="round"/>
<path d="M503.106 304.042C503.106 302.357 501.745 300.996 500.061 300.996H429.072C427.387 300.996 426.026 302.357 426.026 304.042V440.93C426.026 442.615 427.387 443.976 429.072 443.976H500.061C501.745 443.976 503.106 442.615 503.106 440.93V304.042Z" fill="#DDDDDD"/>
<path d="M498.141 308.232C498.141 309.01 497.514 309.636 496.737 309.636H433.22C432.443 309.636 431.816 309.01 431.816 308.232V308.211C431.816 307.433 432.443 306.807 433.22 306.807H496.737C497.514 306.807 498.141 307.433 498.141 308.232Z" fill="#939393"/>
<path d="M457.104 318.256C457.104 319.098 456.435 319.768 455.593 319.768H433.348C432.505 319.768 431.836 319.098 431.836 318.256C431.836 317.413 432.505 316.744 433.348 316.744H455.593C456.435 316.744 457.104 317.435 457.104 318.256Z" fill="#939393"/>
<path d="M498.141 361.804C498.141 362.582 497.514 363.208 496.737 363.208H433.22C432.443 363.208 431.816 362.582 431.816 361.804V361.783C431.816 361.005 432.443 360.378 433.22 360.378H496.737C497.514 360.378 498.141 361.005 498.141 361.804Z" fill="#939393"/>
<path d="M457.104 371.827C457.104 372.669 456.435 373.339 455.593 373.339H433.348C432.505 373.339 431.836 372.669 431.836 371.827C431.836 370.985 432.505 370.315 433.348 370.315H455.593C456.435 370.315 457.104 371.006 457.104 371.827Z" fill="#939393"/>
<path d="M447.17 334.241C447.17 332.577 445.809 331.216 444.146 331.216H434.86C433.197 331.216 431.836 332.577 431.836 334.241V343.529C431.836 345.192 433.197 346.553 434.86 346.553H444.146C445.809 346.553 447.17 345.192 447.17 343.529V334.241Z" fill="#939393"/>
<path d="M466.606 334.241C466.606 332.577 465.246 331.216 463.583 331.216H454.296C452.633 331.216 451.272 332.577 451.272 334.241V343.529C451.272 345.192 452.633 346.553 454.296 346.553H463.583C465.246 346.553 466.606 345.192 466.606 343.529V334.241Z" fill="#939393"/>
<path d="M486.044 334.241C486.044 332.577 484.683 331.216 483.02 331.216H473.734C472.071 331.216 470.71 332.577 470.71 334.241V343.529C470.71 345.192 472.071 346.553 473.734 346.553H483.02C484.683 346.553 486.044 345.192 486.044 343.529V334.241Z" fill="#939393"/>
<path d="M447.17 388.028C447.17 386.365 445.809 385.004 444.146 385.004H434.86C433.197 385.004 431.836 386.365 431.836 388.028V397.317C431.836 398.98 433.197 400.341 434.86 400.341H444.146C445.809 400.341 447.17 398.98 447.17 397.317V388.028Z" fill="#FFCA41"/>
<path d="M466.606 388.028C466.606 386.365 465.246 385.004 463.583 385.004H454.296C452.633 385.004 451.272 386.365 451.272 388.028V397.317C451.272 398.98 452.633 400.341 454.296 400.341H463.583C465.246 400.341 466.606 398.98 466.606 397.317V388.028Z" fill="black"/>
<path d="M486.044 388.028C486.044 386.365 484.683 385.004 483.02 385.004H473.734C472.071 385.004 470.71 386.365 470.71 388.028V397.317C470.71 398.98 472.071 400.341 473.734 400.341H483.02C484.683 400.341 486.044 398.98 486.044 397.317V388.028Z" fill="white"/>
<path d="M252.877 317.734C252.877 317.734 228.316 345.379 225.555 359.071C231.824 365.342 257.105 380.214 257.105 380.214L268.666 368.736L252.877 317.734Z" fill="#FFCA41"/>
<path d="M375.939 318.856C375.939 318.856 400.242 345.378 402.974 359.071C396.704 365.342 371.424 380.214 371.424 380.214L359.862 368.736L375.939 318.856Z" fill="#FFCA41"/>
<path d="M375.796 318.856L362.624 368.305V473.617H264.84V371.181L252.214 317.964L288.222 301.884L291.098 300.618L291.558 300.417C291.558 300.417 292.018 301.194 294.031 302.114C296.821 303.38 302.63 304.904 314.393 304.904C327.997 304.904 333.634 302.862 335.877 301.539C336.97 300.877 337.258 300.417 337.258 300.417L338.753 301.136L341.457 302.459L375.796 318.856Z" fill="#FFCA41"/>
<path d="M338.754 301.481C338.754 314.627 328.084 325.3 314.94 325.3C301.797 325.3 291.127 314.627 291.127 301.481C291.127 301.194 291.127 300.906 291.156 300.618L291.587 300.417C291.587 300.417 292.047 301.194 294.06 302.114C296.85 303.38 302.66 304.904 314.423 304.904C328.026 304.904 333.663 302.862 335.906 301.539C336.999 300.877 337.258 300.417 337.258 300.417L338.754 301.136C338.754 301.251 338.754 301.366 338.754 301.481Z" fill="#FFCA41"/>
<path d="M337.229 300.417C337.229 300.417 336.941 300.906 335.877 301.539C335.302 312.585 326.127 321.387 314.939 321.387C303.953 321.387 294.894 312.901 294.031 302.114C292.018 301.194 291.558 300.417 291.558 300.417L288.308 301.884C289.055 315.922 300.703 327.083 314.939 327.083C328.946 327.083 340.479 316.21 341.514 302.459L337.229 300.417Z" fill="#FFCA41"/>
<path d="M360.44 469.59H340.193C339.905 469.59 339.646 469.446 339.646 469.159C339.646 468.871 339.877 468.727 340.193 468.727H360.44C360.728 468.727 360.986 468.871 360.986 469.159C360.986 469.446 360.728 469.59 360.44 469.59Z" fill="white"/>
<path d="M329.523 469.59H268.378C268.091 469.59 267.832 469.446 267.832 469.159C267.832 468.871 268.062 468.727 268.378 468.727H329.523C329.81 468.727 330.069 468.871 330.069 469.159C330.069 469.446 329.81 469.59 329.523 469.59Z" fill="white"/>
<path d="M256.817 376.849C256.702 376.849 256.616 376.82 256.501 376.762L228.431 357.374C228.201 357.201 228.115 356.885 228.287 356.626C228.46 356.396 228.776 356.31 229.035 356.482L257.105 375.871C257.335 376.043 257.421 376.36 257.249 376.618C257.163 376.762 256.99 376.849 256.817 376.849Z" fill="white"/>
<path d="M370.562 376.848C370.39 376.848 370.217 376.762 370.131 376.618C369.958 376.388 370.016 376.043 370.275 375.87L398.345 356.482C398.575 356.309 398.92 356.367 399.092 356.626C399.265 356.856 399.207 357.201 398.948 357.374L370.879 376.762C370.764 376.82 370.677 376.848 370.562 376.848Z" fill="white"/>
<path d="M350.939 414.891H349.316C348.977 414.891 348.687 414.625 348.687 414.286C348.687 413.947 348.953 413.68 349.316 413.68H350.261V412.881C350.261 412.542 350.527 412.275 350.866 412.275C351.205 412.275 351.471 412.542 351.471 412.881V414.213C351.471 414.576 351.278 414.891 350.939 414.891Z" fill="white"/>
<path d="M346.337 414.891H343.359C343.02 414.891 342.729 414.625 342.729 414.286C342.729 413.947 342.996 413.68 343.359 413.68H346.337C346.676 413.68 346.967 413.947 346.967 414.286C346.967 414.625 346.676 414.891 346.337 414.891ZM340.38 414.891H337.402C337.063 414.891 336.772 414.625 336.772 414.286C336.772 413.947 337.039 413.68 337.402 413.68H340.38C340.719 413.68 341.01 413.947 341.01 414.286C341.01 414.625 340.719 414.891 340.38 414.891ZM334.399 414.891H331.421C331.082 414.891 330.791 414.625 330.791 414.286C330.791 413.947 331.057 413.68 331.421 413.68H334.399C334.738 413.68 335.029 413.947 335.029 414.286C335.029 414.625 334.738 414.891 334.399 414.891ZM328.418 414.891H325.439C325.1 414.891 324.81 414.625 324.81 414.286C324.81 413.947 325.076 413.68 325.439 413.68H328.418C328.757 413.68 329.047 413.947 329.047 414.286C329.047 414.625 328.781 414.891 328.418 414.891ZM322.461 414.891H319.482C319.143 414.891 318.853 414.625 318.853 414.286C318.853 413.947 319.119 413.68 319.482 413.68H322.461C322.8 413.68 323.09 413.947 323.09 414.286C323.09 414.625 322.8 414.891 322.461 414.891ZM316.48 414.891H313.501C313.162 414.891 312.872 414.625 312.872 414.286C312.872 413.947 313.138 413.68 313.501 413.68H316.48C316.819 413.68 317.109 413.947 317.109 414.286C317.109 414.625 316.819 414.891 316.48 414.891ZM310.523 414.891H307.544C307.205 414.891 306.915 414.625 306.915 414.286C306.915 413.947 307.181 413.68 307.544 413.68H310.523C310.862 413.68 311.152 413.947 311.152 414.286C311.152 414.625 310.862 414.891 310.523 414.891ZM304.541 414.891H301.563C301.224 414.891 300.933 414.625 300.933 414.286C300.933 413.947 301.2 413.68 301.563 413.68H304.541C304.88 413.68 305.171 413.947 305.171 414.286C305.171 414.625 304.88 414.891 304.541 414.891ZM298.584 414.891H295.606C295.267 414.891 294.976 414.625 294.976 414.286C294.976 413.947 295.243 413.68 295.606 413.68H298.584C298.923 413.68 299.214 413.947 299.214 414.286C299.214 414.625 298.923 414.891 298.584 414.891ZM292.603 414.891H289.625C289.286 414.891 288.995 414.625 288.995 414.286C288.995 413.947 289.261 413.68 289.625 413.68H292.603C292.942 413.68 293.233 413.947 293.233 414.286C293.233 414.625 292.942 414.891 292.603 414.891ZM286.646 414.891H283.668C283.329 414.891 283.038 414.625 283.038 414.286C283.038 413.947 283.304 413.68 283.668 413.68H286.646C286.985 413.68 287.276 413.947 287.276 414.286C287.276 414.625 286.985 414.891 286.646 414.891Z" fill="white"/>
<path d="M280.667 414.891H279.287C278.948 414.891 278.585 414.552 278.585 414.213V412.881C278.585 412.542 278.851 412.275 279.19 412.275C279.529 412.275 279.796 412.542 279.796 412.881V413.68H280.667C281.006 413.68 281.297 413.947 281.297 414.286C281.297 414.625 281.006 414.891 280.667 414.891Z" fill="white"/>
<path d="M279.19 410.604C278.851 410.604 278.585 410.338 278.585 409.999V407.092C278.585 406.753 278.851 406.487 279.19 406.487C279.529 406.487 279.796 406.753 279.796 407.092V409.999C279.796 410.338 279.554 410.604 279.19 410.604ZM279.19 404.791C278.851 404.791 278.585 404.525 278.585 404.186V401.279C278.585 400.94 278.851 400.674 279.19 400.674C279.529 400.674 279.796 400.94 279.796 401.279V404.186C279.796 404.525 279.554 404.791 279.19 404.791ZM279.19 398.979C278.851 398.979 278.585 398.712 278.585 398.373V395.467C278.585 395.127 278.851 394.861 279.19 394.861C279.529 394.861 279.796 395.127 279.796 395.467V398.373C279.796 398.712 279.554 398.979 279.19 398.979ZM279.19 393.166C278.851 393.166 278.585 392.899 278.585 392.56V389.654C278.585 389.315 278.851 389.048 279.19 389.048C279.529 389.048 279.796 389.315 279.796 389.654V392.56C279.796 392.899 279.554 393.166 279.19 393.166ZM279.19 387.353C278.851 387.353 278.585 387.086 278.585 386.747V383.841C278.585 383.502 278.851 383.235 279.19 383.235C279.529 383.235 279.796 383.502 279.796 383.841V386.747C279.796 387.086 279.554 387.353 279.19 387.353ZM279.19 381.54C278.851 381.54 278.585 381.273 278.585 380.934V378.028C278.585 377.689 278.851 377.422 279.19 377.422C279.529 377.422 279.796 377.689 279.796 378.028V380.934C279.796 381.273 279.554 381.54 279.19 381.54ZM279.19 375.727C278.851 375.727 278.585 375.461 278.585 375.121V372.215C278.585 371.876 278.851 371.609 279.19 371.609C279.529 371.609 279.796 371.876 279.796 372.215V375.121C279.796 375.461 279.554 375.727 279.19 375.727ZM279.19 369.914C278.851 369.914 278.585 369.648 278.585 369.309V366.402C278.585 366.063 278.851 365.797 279.19 365.797C279.529 365.797 279.796 366.063 279.796 366.402V369.309C279.796 369.648 279.554 369.914 279.19 369.914ZM279.19 364.101C278.851 364.101 278.585 363.835 278.585 363.496V360.589C278.585 360.25 278.851 359.984 279.19 359.984C279.529 359.984 279.796 360.25 279.796 360.589V363.496C279.796 363.835 279.554 364.101 279.19 364.101ZM279.19 358.288C278.851 358.288 278.585 358.022 278.585 357.683V354.776C278.585 354.437 278.851 354.171 279.19 354.171C279.529 354.171 279.796 354.437 279.796 354.776V357.683C279.796 358.022 279.554 358.288 279.19 358.288ZM279.19 352.475C278.851 352.475 278.585 352.209 278.585 351.87V348.963C278.585 348.624 278.851 348.358 279.19 348.358C279.529 348.358 279.796 348.624 279.796 348.963V351.87C279.796 352.209 279.554 352.475 279.19 352.475Z" fill="white"/>
<path d="M279.19 346.662C278.851 346.662 278.585 346.396 278.585 346.057V344.483C278.585 344.143 278.948 343.95 279.287 343.95H280.667C281.006 343.95 281.297 344.216 281.297 344.555C281.297 344.894 281.031 345.161 280.667 345.161H279.796V346.057C279.796 346.396 279.554 346.662 279.19 346.662Z" fill="white"/>
<path d="M346.338 345.137H343.36C343.021 345.137 342.73 344.87 342.73 344.531C342.73 344.192 342.996 343.926 343.36 343.926H346.338C346.677 343.926 346.968 344.192 346.968 344.531C346.968 344.87 346.677 345.137 346.338 345.137ZM340.381 345.137H337.403C337.064 345.137 336.773 344.87 336.773 344.531C336.773 344.192 337.039 343.926 337.403 343.926H340.381C340.72 343.926 341.011 344.192 341.011 344.531C341.011 344.87 340.72 345.137 340.381 345.137ZM334.4 345.137H331.422C331.082 345.137 330.792 344.87 330.792 344.531C330.792 344.192 331.058 343.926 331.422 343.926H334.4C334.739 343.926 335.03 344.192 335.03 344.531C335.03 344.87 334.739 345.137 334.4 345.137ZM328.419 345.137H325.44C325.101 345.137 324.811 344.87 324.811 344.531C324.811 344.192 325.077 343.926 325.44 343.926H328.419C328.758 343.926 329.048 344.192 329.048 344.531C329.048 344.87 328.782 345.137 328.419 345.137ZM322.462 345.137H319.483C319.144 345.137 318.854 344.87 318.854 344.531C318.854 344.192 319.12 343.926 319.483 343.926H322.462C322.801 343.926 323.091 344.192 323.091 344.531C323.091 344.87 322.801 345.137 322.462 345.137ZM316.481 345.137H313.502C313.163 345.137 312.872 344.87 312.872 344.531C312.872 344.192 313.139 343.926 313.502 343.926H316.481C316.82 343.926 317.11 344.192 317.11 344.531C317.11 344.87 316.82 345.137 316.481 345.137ZM310.524 345.137H307.545C307.206 345.137 306.915 344.87 306.915 344.531C306.915 344.192 307.182 343.926 307.545 343.926H310.524C310.863 343.926 311.153 344.192 311.153 344.531C311.153 344.87 310.863 345.137 310.524 345.137ZM304.542 345.137H301.564C301.225 345.137 300.934 344.87 300.934 344.531C300.934 344.192 301.201 343.926 301.564 343.926H304.542C304.881 343.926 305.172 344.192 305.172 344.531C305.172 344.87 304.881 345.137 304.542 345.137ZM298.585 345.137H295.607C295.268 345.137 294.977 344.87 294.977 344.531C294.977 344.192 295.244 343.926 295.607 343.926H298.585C298.924 343.926 299.215 344.192 299.215 344.531C299.215 344.87 298.924 345.137 298.585 345.137ZM292.604 345.137H289.626C289.287 345.137 288.996 344.87 288.996 344.531C288.996 344.192 289.262 343.926 289.626 343.926H292.604C292.943 343.926 293.234 344.192 293.234 344.531C293.234 344.87 292.943 345.137 292.604 345.137ZM286.647 345.137H283.669C283.33 345.137 283.039 344.87 283.039 344.531C283.039 344.192 283.305 343.926 283.669 343.926H286.647C286.986 343.926 287.277 344.192 287.277 344.531C287.277 344.87 286.986 345.137 286.647 345.137Z" fill="white"/>
<path d="M350.866 346.662C350.527 346.662 350.261 346.396 350.261 346.057V345.161H349.316C348.977 345.161 348.687 344.894 348.687 344.555C348.687 344.216 348.953 343.95 349.316 343.95H350.939C351.278 343.95 351.471 344.168 351.471 344.483V346.057C351.471 346.396 351.229 346.662 350.866 346.662Z" fill="white"/>
<path d="M350.869 410.604C350.53 410.604 350.264 410.338 350.264 409.999V407.092C350.264 406.753 350.53 406.487 350.869 406.487C351.208 406.487 351.474 406.753 351.474 407.092V409.999C351.474 410.338 351.232 410.604 350.869 410.604ZM350.869 404.791C350.53 404.791 350.264 404.525 350.264 404.186V401.279C350.264 400.94 350.53 400.674 350.869 400.674C351.208 400.674 351.474 400.94 351.474 401.279V404.186C351.474 404.525 351.232 404.791 350.869 404.791ZM350.869 398.979C350.53 398.979 350.264 398.712 350.264 398.373V395.467C350.264 395.127 350.53 394.861 350.869 394.861C351.208 394.861 351.474 395.127 351.474 395.467V398.373C351.474 398.712 351.232 398.979 350.869 398.979ZM350.869 393.166C350.53 393.166 350.264 392.899 350.264 392.56V389.654C350.264 389.315 350.53 389.048 350.869 389.048C351.208 389.048 351.474 389.315 351.474 389.654V392.56C351.474 392.899 351.232 393.166 350.869 393.166ZM350.869 387.353C350.53 387.353 350.264 387.086 350.264 386.747V383.841C350.264 383.502 350.53 383.235 350.869 383.235C351.208 383.235 351.474 383.502 351.474 383.841V386.747C351.474 387.086 351.232 387.353 350.869 387.353ZM350.869 381.54C350.53 381.54 350.264 381.273 350.264 380.934V378.028C350.264 377.689 350.53 377.422 350.869 377.422C351.208 377.422 351.474 377.689 351.474 378.028V380.934C351.474 381.273 351.232 381.54 350.869 381.54ZM350.869 375.727C350.53 375.727 350.264 375.461 350.264 375.121V372.215C350.264 371.876 350.53 371.609 350.869 371.609C351.208 371.609 351.474 371.876 351.474 372.215V375.121C351.474 375.461 351.232 375.727 350.869 375.727ZM350.869 369.914C350.53 369.914 350.264 369.648 350.264 369.309V366.402C350.264 366.063 350.53 365.797 350.869 365.797C351.208 365.797 351.474 366.063 351.474 366.402V369.309C351.474 369.648 351.232 369.914 350.869 369.914ZM350.869 364.101C350.53 364.101 350.264 363.835 350.264 363.496V360.589C350.264 360.25 350.53 359.984 350.869 359.984C351.208 359.984 351.474 360.25 351.474 360.589V363.496C351.474 363.835 351.232 364.101 350.869 364.101ZM350.869 358.288C350.53 358.288 350.264 358.022 350.264 357.683V354.776C350.264 354.437 350.53 354.171 350.869 354.171C351.208 354.171 351.474 354.437 351.474 354.776V357.683C351.474 358.022 351.232 358.288 350.869 358.288ZM350.869 352.475C350.53 352.475 350.264 352.209 350.264 351.87V348.963C350.264 348.624 350.53 348.358 350.869 348.358C351.208 348.358 351.474 348.624 351.474 348.963V351.87C351.474 352.209 351.232 352.475 350.869 352.475Z" fill="white"/>
<path d="M278.944 435.141L281.803 413.758C281.875 413.181 281.154 412.604 280.602 412.796L260.376 420.293C259.92 420.461 259.944 421.085 260.4 421.47L263.211 423.728C263.571 424.017 263.691 424.473 263.475 424.761L251.056 440.282C250.84 440.547 250.96 441.003 251.32 441.315L260.448 448.619C260.808 448.908 261.289 448.932 261.505 448.643L273.924 433.123C274.14 432.858 274.621 432.858 274.981 433.147L277.791 435.405C278.272 435.765 278.896 435.645 278.944 435.141Z" fill="white"/>
<path d="M261.049 449.653C260.665 449.653 260.28 449.508 259.92 449.244L250.792 441.94C250.48 441.676 250.239 441.34 250.167 440.979C250.047 440.523 250.143 440.09 250.408 439.754L262.706 424.377L259.896 422.119C259.391 421.71 259.127 421.11 259.223 420.557C259.295 420.076 259.632 419.692 260.088 419.5L280.338 412.004C280.866 411.812 281.491 411.932 281.971 412.316C282.476 412.7 282.716 413.277 282.644 413.854L279.785 435.237C279.713 435.717 279.401 436.126 278.945 436.318C278.416 436.534 277.768 436.414 277.263 436.006L274.453 433.747L262.154 449.124C261.89 449.484 261.481 449.653 261.049 449.653ZM251.849 440.643L260.977 447.947L273.276 432.57C273.78 431.921 274.765 431.873 275.51 432.474L278.2 434.612L280.986 413.686C280.962 413.662 280.914 413.613 280.866 413.589L261.073 420.917L263.763 423.056C264.508 423.632 264.676 424.617 264.148 425.242L251.849 440.643Z" fill="black"/>
<path d="M102.71 557.368L102.813 557.112C103.971 554.227 104.722 551.115 104.895 547.893L104.91 547.616L105.153 547.482L111.093 544.199L111.103 544.194L111.111 544.19C111.117 544.176 111.126 544.145 111.128 544.089L109.729 536.13C109.715 536.087 109.685 536.056 109.641 536.041L102.964 534.99L102.692 534.947L102.583 534.695C101.31 531.754 99.5748 529.045 97.4948 526.742L97.3082 526.536L97.3856 526.268L99.2646 519.773C99.2664 519.764 99.2676 519.757 99.2683 519.751L99.2566 519.746L99.2262 519.724L92.5344 515.044C92.533 515.044 92.531 515.043 92.5284 515.043C92.5177 515.04 92.5023 515.037 92.4841 515.037C92.4659 515.037 92.4504 515.04 92.4397 515.043C92.4377 515.043 92.436 515.044 92.4347 515.044L86.9241 519.017L86.7015 519.177L86.4466 519.076C83.5511 517.921 80.4284 517.173 77.1942 517L76.9183 516.986L76.784 516.744L73.4902 510.824L73.485 510.814L73.4808 510.806C73.4808 510.806 73.4807 510.806 73.4807 510.806C73.4666 510.8 73.4346 510.791 73.3772 510.788L65.39 512.183C65.3449 512.197 65.3145 512.228 65.2996 512.271L64.2455 518.924L64.2024 519.196L63.9491 519.305C60.9979 520.574 58.2798 522.303 55.9687 524.376L55.7627 524.561L55.4967 524.484L48.9787 522.612C48.9692 522.61 48.9611 522.608 48.9543 522.608L48.9481 522.62L48.9267 522.65L44.2309 529.319C44.2304 529.32 44.2299 529.322 44.2293 529.324C44.2266 529.335 44.2242 529.35 44.2242 529.367C44.2242 529.385 44.2266 529.4 44.2293 529.41C44.2298 529.412 44.2302 529.413 44.2306 529.414C44.2325 529.42 44.2328 529.419 44.2281 529.412L43.8125 529.69L102.71 557.368ZM102.71 557.368L102.872 557.592L106.851 563.072L102.162 569.73L102.141 569.76L102.135 569.773C102.128 569.772 102.12 569.771 102.11 569.769L95.5924 567.896L95.3265 567.82L95.1205 568.004C92.8094 570.077 90.0913 571.807 87.14 573.075L86.8868 573.184L86.8437 573.457L85.7896 580.11C85.7747 580.153 85.7443 580.183 85.6992 580.197L77.712 581.592C77.6545 581.589 77.6226 581.58 77.6084 581.574L77.6042 581.566L77.599 581.557L74.3052 575.636L74.1709 575.395L73.8949 575.38C70.6608 575.208 67.5381 574.459 64.6426 573.305L64.3877 573.203L64.1651 573.364L58.6545 577.336C58.6532 577.337 58.6515 577.337 58.6495 577.338C58.6388 577.341 58.6233 577.343 58.6051 577.343C58.5869 577.343 58.5714 577.341 58.5607 577.338C58.5582 577.337 58.5562 577.337 58.5548 577.336L51.8629 572.656L51.8326 572.635L51.8209 572.629C51.8216 572.623 51.8227 572.616 51.8246 572.608L53.7036 566.112L53.781 565.845L53.5944 565.638C51.5144 563.335 49.7791 560.626 48.5062 557.686L48.3969 557.433L48.1251 557.39L41.4485 556.34C41.4038 556.324 41.374 556.294 41.3598 556.25L39.9609 548.408L102.71 557.368Z" stroke="black"/>
<path d="M74.5271 553.993C72.2332 553.406 70.2334 551.824 69.1747 549.538C67.4101 545.552 69.1747 540.862 73.1743 539.104C77.1739 537.345 81.8793 539.104 83.6438 543.09C85.4083 547.076 83.6438 551.765 79.6442 553.524C77.9973 554.286 76.174 554.403 74.5271 553.993ZM77.9973 539.983C76.5857 539.632 75.1152 539.749 73.7624 540.335C70.4686 541.8 68.9394 545.728 70.4098 549.01C71.8803 552.293 75.8211 553.817 79.1148 552.351C80.7029 551.648 81.9381 550.358 82.5851 548.717C83.2321 547.076 83.1733 545.317 82.4674 543.676C81.7616 542.093 80.4676 540.862 78.8208 540.218C78.5267 540.1 78.2914 540.042 77.9973 539.983Z" fill="black"/>
<path d="M104.934 580.018C104.816 579.96 104.698 579.901 104.581 579.784C104.346 579.491 104.346 579.08 104.64 578.846C105.287 578.26 105.934 577.674 106.581 577.087C106.816 576.853 107.286 576.853 107.522 577.087C107.757 577.381 107.757 577.791 107.522 578.025C106.875 578.67 106.228 579.256 105.522 579.842C105.345 580.018 105.11 580.077 104.934 580.018Z" fill="black"/>
<path d="M67.1723 589.69C66.8194 589.632 66.5841 589.28 66.7018 588.928C66.7606 588.577 67.1135 588.342 67.5252 588.401C69.1721 588.752 70.819 588.987 72.5247 589.163C72.8776 589.221 73.1717 589.514 73.1129 589.866C73.0541 590.218 72.76 590.511 72.4071 590.452C70.6425 590.335 68.878 590.101 67.1723 589.69C67.2311 589.69 67.1723 589.69 67.1723 589.69ZM59.2319 587.228C59.1731 587.228 59.1731 587.228 59.1143 587.17C57.5262 586.525 55.9381 585.704 54.4677 584.884C54.1736 584.708 54.056 584.298 54.2324 583.946C54.4089 583.653 54.8206 583.536 55.1735 583.711C56.6439 584.532 58.1732 585.294 59.7025 585.939C60.0554 586.056 60.2318 586.466 60.0554 586.818C59.8789 587.17 59.5848 587.287 59.2319 587.228ZM80.5827 590.452C80.2886 590.394 80.1122 590.159 80.0534 589.866C79.9945 589.514 80.2886 589.163 80.6415 589.163C82.2884 588.987 83.9941 588.752 85.641 588.401C85.9939 588.342 86.3469 588.577 86.4645 588.928C86.5233 589.28 86.288 589.632 85.9351 589.749C84.2294 590.101 82.5237 590.394 80.818 590.57C80.7004 590.511 80.6415 590.452 80.5827 590.452ZM47.8213 580.253C47.7037 580.253 47.6448 580.194 47.5272 580.136C46.2332 579.022 44.9392 577.791 43.7629 576.56C43.5276 576.267 43.5276 575.857 43.8217 575.622C44.1158 575.388 44.5275 575.388 44.7628 575.681C45.8803 576.912 47.1155 578.084 48.4095 579.139C48.7036 579.374 48.7036 579.784 48.4683 580.077C48.3507 580.194 48.0566 580.312 47.8213 580.253ZM93.5814 587.111C93.405 587.053 93.2285 586.935 93.1109 586.701C92.9932 586.349 93.1109 585.997 93.4638 585.822C93.6402 585.763 93.8167 585.646 93.9931 585.587C95.346 585.001 96.6988 584.298 97.9339 583.594C98.228 583.418 98.6397 583.536 98.875 583.829C99.0515 584.122 98.9338 584.532 98.6397 584.767C97.3458 585.529 95.9341 586.232 94.5813 586.818C94.4049 586.877 94.2284 586.994 93.9931 587.053C93.8167 587.17 93.6991 587.17 93.5814 587.111ZM39.0575 570.112C38.881 570.054 38.7634 569.995 38.6457 569.819C37.7635 568.354 36.8812 566.83 36.1754 565.247C35.999 564.896 36.1754 564.485 36.4695 564.368C36.8224 564.192 37.2341 564.368 37.3518 564.661C38.0576 566.185 38.881 567.651 39.7633 569.057C39.9397 569.35 39.8809 569.761 39.528 569.995C39.4692 570.112 39.2339 570.171 39.0575 570.112ZM33.8227 557.803C33.5874 557.744 33.411 557.568 33.3522 557.334C32.9404 555.634 32.5875 553.934 32.3523 552.234C32.2934 551.883 32.5875 551.531 32.9404 551.472C33.2933 551.414 33.6462 551.707 33.7051 552.059C33.9403 553.7 34.2344 555.4 34.6461 556.982C34.7638 557.334 34.5285 557.686 34.1756 557.803C33.9992 557.862 33.9403 557.862 33.8227 557.803Z" fill="black"/>
<path d="M32.5294 544.497C32.1765 544.438 32 544.145 32 543.793C32.0588 542.914 32.1176 541.976 32.2353 541.097C32.2941 540.745 32.5882 540.452 32.9999 540.511C33.3528 540.57 33.6469 540.863 33.5881 541.273C33.4704 542.152 33.4116 543.031 33.3528 543.911C33.3528 544.262 32.9999 544.555 32.647 544.555C32.5882 544.497 32.5294 544.497 32.5294 544.497Z" fill="black"/>
<path d="M48.4112 513.255C48.2935 513.196 48.1759 513.137 48.0583 513.02C47.823 512.727 47.8818 512.317 48.1759 512.082C48.8817 511.496 49.5875 510.969 50.3521 510.441C50.6462 510.207 51.058 510.265 51.2932 510.617C51.5285 510.91 51.4697 511.32 51.1168 511.555C50.411 512.082 49.7052 512.61 48.9993 513.137C48.8229 513.313 48.5876 513.313 48.4112 513.255Z" fill="black"/>
<path d="M119.934 543.325C119.639 543.266 119.463 543.032 119.404 542.738C119.287 541.097 119.051 539.456 118.698 537.815C118.64 537.463 118.875 537.111 119.228 537.053C119.581 536.994 119.934 537.229 119.992 537.58C120.345 539.221 120.581 540.921 120.698 542.621C120.757 542.973 120.463 543.325 120.11 543.325C120.11 543.325 119.992 543.325 119.934 543.325ZM116.875 530.546C116.699 530.488 116.522 530.37 116.404 530.136C116.228 529.726 116.052 529.257 115.816 528.846C115.346 527.791 114.816 526.736 114.228 525.681C114.052 525.329 114.169 524.978 114.522 524.802C114.875 524.626 115.228 524.743 115.405 525.095C115.993 526.15 116.522 527.264 117.051 528.377C117.228 528.846 117.463 529.257 117.64 529.726C117.757 530.077 117.64 530.429 117.287 530.605C117.169 530.546 116.993 530.546 116.875 530.546ZM57.5868 507.51C57.4104 507.451 57.2339 507.334 57.1163 507.158C56.9398 506.807 57.1163 506.396 57.4104 506.279C57.7045 506.162 57.9986 505.986 58.2927 505.869C59.5278 505.283 60.8806 504.814 62.1746 504.345C62.5275 504.227 62.8804 504.403 62.9981 504.755C63.1745 505.107 62.9392 505.458 62.5863 505.576C61.2924 505.986 60.0572 506.513 58.822 507.041C58.5279 507.158 58.2338 507.275 57.9986 507.451C57.8809 507.51 57.7045 507.51 57.5868 507.51ZM110.111 519.233C109.993 519.175 109.876 519.116 109.758 518.999C108.699 517.709 107.582 516.537 106.405 515.365C106.111 515.13 106.111 514.661 106.405 514.427C106.641 514.134 107.111 514.134 107.347 514.427C108.582 515.599 109.758 516.889 110.817 518.178C111.052 518.471 110.993 518.882 110.699 519.116C110.523 519.233 110.287 519.292 110.111 519.233ZM70.1738 503.7C69.9385 503.641 69.7033 503.407 69.6445 503.172C69.5856 502.821 69.8209 502.469 70.2326 502.41C71.9383 502.176 73.6441 502.059 75.3498 502C75.7027 502 76.0556 502.293 76.0556 502.645C76.0556 502.996 75.7615 503.348 75.4086 503.348C73.7617 503.348 72.1148 503.524 70.4679 503.758C70.3503 503.758 70.2915 503.758 70.1738 503.7ZM100.288 510.441C100.23 510.441 100.171 510.382 100.112 510.324C98.7592 509.444 97.2887 508.624 95.8183 507.862C95.4654 507.686 95.3478 507.275 95.5242 506.982C95.7007 506.631 96.1124 506.513 96.4065 506.689C97.9357 507.451 99.4062 508.331 100.818 509.21C101.112 509.386 101.23 509.855 100.994 510.148C100.877 510.441 100.583 510.499 100.288 510.441ZM83.4078 503.876C83.0549 503.817 82.8784 503.465 82.8784 503.114C82.9372 502.762 83.2901 502.528 83.6431 502.586C84.8194 502.762 85.9369 502.996 87.1133 503.29C87.6427 503.407 88.1132 503.524 88.6426 503.7C88.9955 503.817 89.2307 504.169 89.1131 504.521C88.9955 504.872 88.6426 505.107 88.2896 504.989C87.8191 504.872 87.2897 504.696 86.7604 504.579C85.7017 504.345 84.5841 504.11 83.4078 503.876Z" fill="black"/>
<path d="M119.522 554.169C119.169 554.11 118.992 553.758 119.051 553.407C119.169 552.527 119.286 551.648 119.404 550.769C119.463 550.417 119.757 550.124 120.169 550.183C120.522 550.241 120.816 550.534 120.757 550.945C120.639 551.824 120.522 552.762 120.404 553.641C120.286 553.993 119.933 554.227 119.522 554.169Z" fill="black"/>
<path d="M71.4096 566.009C63.8221 564.134 57.6463 557.92 56.1759 549.714C55.7053 546.842 55.8229 544.028 56.4699 541.39C58.3521 533.829 64.5868 527.674 72.7624 526.209C83.8201 524.274 94.4073 531.719 96.3483 542.739C96.4071 543.208 96.5247 543.735 96.5247 544.204C96.5836 545.025 96.6424 545.904 96.6424 546.725C96.6424 546.842 96.6424 546.959 96.6424 547.076C96.6424 547.135 96.6424 547.193 96.6424 547.193C96.5836 547.487 96.2895 547.721 95.9366 547.721C95.5837 547.721 95.2896 547.369 95.2896 547.018C95.3484 545.669 95.2308 544.321 94.9955 542.973C93.5251 534.415 86.4669 528.202 78.2325 527.322C76.7032 527.205 75.0563 527.205 73.4094 527.498C73.3506 527.498 73.2918 527.498 73.1742 527.557C73.1153 527.557 73.0565 527.557 72.9977 527.616C65.3514 528.964 59.5285 534.708 57.7639 541.801C57.1758 544.263 56.9993 546.9 57.4698 549.597C59.2932 559.913 69.1746 566.83 79.5265 565.071C82.9379 564.485 86.114 562.961 88.702 560.734C88.9961 560.499 89.4078 560.499 89.6431 560.792C89.8195 560.968 89.8195 561.203 89.7607 561.379C89.7019 561.496 89.6431 561.613 89.5255 561.73C86.761 564.134 83.3496 565.716 79.7029 566.361C76.9385 566.771 74.0564 566.654 71.4096 566.009Z" fill="black"/>
</svg>
