<svg width="130" height="100" viewBox="0 0 130 100" fill="none" xmlns="http://www.w3.org/2000/svg">
<path d="M71.1984 58.3661C71.1984 60.3543 71.1984 62.3564 71.1984 64.3446C70.9203 64.3446 70.8786 64.1082 70.8091 63.9275C70.1418 62.3147 68.8765 61.6334 67.1942 61.6334C64.066 61.6334 60.9377 61.6334 57.8095 61.6334C55.6822 61.6334 53.5411 61.6195 51.4139 61.6473C49.9262 61.6612 48.6888 62.1757 48.0076 63.6216C47.7573 64.1499 47.6461 64.72 47.6461 65.3039C47.6322 70.6706 47.6183 76.0512 47.6461 81.4179C47.66 82.9056 48.3273 84.0318 49.6899 84.7131C49.8984 84.8243 50.2043 84.866 50.2043 85.1997C48.2578 85.1997 46.3114 85.1997 44.3649 85.1997C44.3232 84.9077 44.5734 84.7409 44.6708 84.5184C44.9905 83.8232 44.6568 83.1976 43.9061 83.0864C43.5585 83.0307 43.2109 83.0585 42.8633 83.0585C30.2112 83.0585 17.5731 83.0585 4.92097 83.0585C4.50387 83.0585 4.08677 83.0724 3.66967 83.0168C2.80766 82.9056 2.27933 82.4468 2.22372 81.5987C2.11249 79.8191 2.1542 78.0394 2.19591 76.2459C2.20981 75.8149 2.44617 75.5646 2.89108 75.5368C3.23866 75.509 3.58625 75.5229 3.93383 75.5229C16.864 75.5229 29.7802 75.5229 42.7104 75.5229C43.0858 75.5229 43.4473 75.5507 43.8226 75.4951C44.4205 75.4117 44.7681 75.078 44.7959 74.5775C44.8376 74.0631 44.5456 73.7155 43.9478 73.5625C43.5446 73.4513 43.1275 73.4652 42.7104 73.4652C29.808 73.4652 16.9057 73.4652 4.00335 73.4652C2.18201 73.4652 2.18201 73.4652 2.18201 71.6717C2.18201 56.9341 2.18201 42.2104 2.18201 27.4728C2.18201 25.7627 2.18201 25.7627 3.93383 25.7627C25.067 25.7627 46.1862 25.7627 67.3194 25.7627C69.0851 25.7627 69.0851 25.7627 69.0851 27.5423C69.0851 37.3164 69.0851 47.0905 69.0851 56.8646C69.0851 57.2122 69.0573 57.5597 69.1129 57.9073C69.2241 58.6581 69.8498 58.9918 70.545 58.672C70.7535 58.5608 70.9203 58.3244 71.1984 58.3661Z" fill="#EBEBEB"/>
<path d="M71.1992 58.3657C70.8516 58.755 70.518 59.1582 69.8923 59.0748C69.2806 58.9914 68.933 58.6577 68.8496 58.0598C68.8079 57.8096 68.8357 57.5454 68.8357 57.2951C68.8357 47.0762 68.8357 36.8711 68.8496 26.6521C68.8496 26.0403 68.7105 25.9013 68.0988 25.9013C46.4373 25.9152 24.7897 25.9152 3.12826 25.9013C2.57213 25.9013 2.39138 26.0125 2.39138 26.6104C2.40529 41.9458 2.40529 57.2812 2.39138 72.6167C2.39138 73.2006 2.54432 73.3257 3.11436 73.3257C16.4755 73.3118 29.8506 73.3118 43.2117 73.3118C43.5315 73.3118 43.8652 73.3257 44.1711 73.3814C44.7411 73.4926 45.047 73.868 45.0748 74.438C45.1165 75.0081 44.8523 75.3974 44.3101 75.6198C43.9764 75.7588 43.6288 75.7171 43.2812 75.7171C29.9201 75.7171 16.545 75.731 3.18388 75.7032C2.50261 75.7032 2.34967 75.8701 2.36358 76.5235C2.41919 78.0529 2.37748 79.5823 2.37748 81.1116C2.37748 82.3908 2.79458 82.8079 4.0876 82.8079C17.1012 82.8079 30.1286 82.8079 43.1422 82.8079C43.3508 82.8079 43.5593 82.8218 43.7679 82.8079C44.3657 82.78 44.8245 83.0303 45.0053 83.6003C45.186 84.1704 45.0331 84.6987 44.463 85.0324C44.4074 85.0602 44.3796 85.1297 44.3379 85.1714C30.4901 85.1714 16.6284 85.1714 2.78068 85.1714C1.2235 84.8795 0.291971 83.9479 0 82.3908C0 60.5207 0 38.6507 0 16.7807C0.319778 15.1679 1.27911 14.2225 2.91971 14C24.6924 14 46.479 14 68.2517 14C69.8228 14.139 71.0324 15.3486 71.1714 16.9197C71.1992 30.7536 71.1992 44.5596 71.1992 58.3657Z" fill="#020203"/>
<path d="M50.2184 85.1853C49.8013 84.9629 49.3564 84.796 48.9671 84.518C47.9521 83.795 47.4655 82.78 47.4516 81.5426C47.4377 76.0647 47.4238 70.5729 47.4516 65.0949C47.4655 62.9955 48.9949 61.4522 51.0943 61.4383C56.5722 61.4105 62.0641 61.4105 67.542 61.4383C69.4607 61.4522 70.6146 62.5645 71.1847 64.3302C71.1847 70.3504 71.1847 76.3706 71.1847 82.4046C70.8649 84.0174 69.9056 84.9629 68.265 85.1853C62.2587 85.1853 56.2385 85.1853 50.2184 85.1853Z" fill="#020203"/>
<path d="M36.914 69.7668C35.8852 69.7946 35.0232 69.3636 34.3141 68.6545C30.4489 64.7894 26.5699 60.9382 22.7326 57.0591C21.1893 55.5019 21.2032 53.4164 22.7465 51.8593C26.5977 47.9802 30.4628 44.1151 34.3419 40.2638C35.913 38.7067 38.0263 38.7623 39.6391 40.3751C42.5866 43.2948 45.5063 46.2284 48.4399 49.162C49.3019 50.024 50.1778 50.886 51.0399 51.7619C52.6665 53.4303 52.6805 55.5019 51.0259 57.1703C47.2442 60.9799 43.4347 64.7755 39.6391 68.5711C38.8744 69.3219 38.0124 69.7946 36.914 69.7668Z" fill="#020203"/>
<path d="M9.49586 57.3789C8.45311 58.074 7.64671 57.9906 7.27132 57.212C7.00715 56.6698 7.17399 56.211 7.54939 55.8217C8.28627 55.057 9.03705 54.2923 9.80173 53.5693C10.3857 53.0132 11.053 53.041 11.637 53.6111C12.36 54.2923 13.0551 55.0014 13.7503 55.7105C14.3203 56.3083 14.3899 56.9896 13.9449 57.4901C13.4722 58.0323 12.8883 58.0462 12.1653 57.5318C12.1097 57.4901 12.0541 57.4623 11.915 57.365C11.915 58.5189 11.915 59.5895 11.915 60.6601C11.915 61.6055 11.929 62.5509 11.915 63.5103C11.9011 64.4974 11.4562 65.0396 10.6916 65.0396C9.94077 65.0396 9.48196 64.4696 9.48196 63.4964C9.49586 61.4804 9.49586 59.4644 9.49586 57.3789Z" fill="#020304"/>
<path d="M60.5091 32.3944C60.5091 33.1034 60.5369 33.6874 60.5091 34.2574C60.4674 34.9109 59.9391 35.3975 59.3412 35.3975C58.7434 35.3975 58.2012 34.9109 58.1594 34.2574C58.1177 33.6874 58.1455 33.1034 58.1455 32.5195C57.8675 32.45 57.798 32.7002 57.6311 32.7976C57.075 33.1034 56.5467 33.0617 56.1156 32.6168C55.7124 32.1858 55.6012 31.6436 56.0044 31.1709C56.8247 30.1976 57.7145 29.2939 58.7017 28.4875C59.23 28.0565 59.8 28.2373 60.2589 28.6822C61.0096 29.4051 61.7465 30.142 62.4695 30.8928C63.0117 31.4628 63.0395 32.1302 62.5807 32.6307C62.1219 33.1313 61.5102 33.1452 60.8428 32.6585C60.7733 32.589 60.7038 32.5334 60.5091 32.3944Z" fill="white"/>
<path d="M60.5366 41.9181C60.5366 42.8357 60.5505 43.7672 60.5366 44.6849C60.5227 45.5469 60.0221 46.0752 59.3131 46.0474C58.6179 46.0196 58.1591 45.4913 58.1452 44.6849C58.1313 42.8079 58.1313 40.9448 58.1452 39.0679C58.1452 38.2615 58.6318 37.7471 59.3409 37.7471C60.05 37.7471 60.5088 38.2476 60.5227 39.0679C60.5505 40.0272 60.5366 40.9727 60.5366 41.9181Z" fill="white"/>
<path d="M9.49636 69.3215C9.51027 68.8488 9.46856 68.5012 9.60759 68.1675C9.83005 67.6531 10.2193 67.3612 10.7894 67.4029C11.3455 67.4446 11.7209 67.7504 11.846 68.3205C11.9573 68.8488 11.9573 69.3771 11.8738 69.8916C11.7626 70.5311 11.3038 70.9621 10.7338 70.976C10.1776 70.9899 9.6493 70.545 9.52417 69.9333C9.48246 69.6969 9.49636 69.4328 9.49636 69.3215Z" fill="#040506"/>
<path d="M35.6207 23.4823C24.8038 23.4823 13.987 23.4823 3.17018 23.4962C2.54453 23.4962 2.36378 23.3433 2.37769 22.7176C2.4333 21.1466 2.39159 19.5755 2.39159 17.9905C2.39159 16.8365 2.8365 16.3916 3.99048 16.3916C25.068 16.3916 46.1316 16.3916 67.2092 16.3916C68.3632 16.3916 68.8081 16.8365 68.8081 17.9905C68.8081 19.5894 68.7803 21.1883 68.822 22.7872C68.8359 23.3711 68.6829 23.5101 68.1129 23.5101C60.0489 23.4823 51.9989 23.4962 43.9349 23.4962C41.182 23.4823 38.4014 23.4823 35.6207 23.4823Z" fill="#FFCA41"/>
<path d="M59.3949 63.8716C61.9809 63.8716 64.5809 63.8716 67.1669 63.8716C68.446 63.8716 68.8214 64.247 68.8214 65.5122C68.8214 70.7259 68.8214 75.9258 68.8214 81.1396C68.8214 82.3909 68.4043 82.8219 67.1669 82.8219C61.9392 82.8219 56.6977 82.8219 51.47 82.8219C50.2882 82.8219 49.885 82.4187 49.8711 81.2508C49.8711 75.9675 49.8711 70.6981 49.8711 65.4149C49.8711 64.2053 50.2187 63.8716 51.4561 63.8716C54.1116 63.8716 56.7533 63.8716 59.3949 63.8716Z" fill="#FFCA41"/>
<path d="M49.8028 54.4589C49.8445 54.8621 49.6221 55.1541 49.3579 55.4182C45.5345 59.2556 41.6972 63.079 37.8598 66.9024C37.2203 67.542 36.6224 67.542 35.9829 66.9024C32.1455 63.079 28.3082 59.2556 24.4848 55.4182C23.8452 54.7787 23.8591 54.1391 24.5126 53.4857C28.3221 49.6622 32.1316 45.8527 35.9551 42.0432C36.6224 41.3758 37.2203 41.3897 37.8876 42.0432C41.7111 45.8527 45.5206 49.6622 49.3301 53.4857C49.5943 53.7637 49.8445 54.0418 49.8028 54.4589Z" fill="#FFCA41"/>
<path d="M15.4189 21.1185C14.7793 21.1046 14.2232 20.5206 14.251 19.9089C14.2788 19.2832 14.8767 18.7271 15.5023 18.7549C16.1419 18.7827 16.6841 19.3667 16.6563 19.9923C16.6285 20.6458 16.0862 21.1463 15.4189 21.1185Z" fill="#060607"/>
<path d="M10.7057 21.1187C10.0523 21.1187 9.49612 20.5765 9.51002 19.9369C9.51002 19.3112 10.094 18.7412 10.7196 18.7412C11.3592 18.7412 11.9014 19.2973 11.9014 19.9369C11.8875 20.6182 11.3731 21.1326 10.7057 21.1187Z" fill="#050507"/>
<path d="M7.14703 19.9369C7.16094 20.6182 6.66042 21.1187 5.99305 21.1326C5.32569 21.1465 4.78346 20.6321 4.78346 19.9786C4.76955 19.353 5.32569 18.769 5.96525 18.7551C6.5909 18.7412 7.13313 19.2835 7.14703 19.9369Z" fill="#050507"/>
<path d="M54.5978 72.1299C55.2374 72.1299 55.7796 72.6721 55.7796 73.3256C55.7796 73.9929 55.2791 74.5074 54.6117 74.5074C53.9443 74.5074 53.4299 73.9929 53.416 73.3395C53.416 72.686 53.9582 72.1299 54.5978 72.1299Z" fill="#050507"/>
<path d="M54.6117 80.4583C53.9722 80.4583 53.416 79.9161 53.416 79.2765C53.416 78.6092 53.9304 78.0947 54.5839 78.0947C55.2513 78.0947 55.7657 78.5952 55.7657 79.2626C55.7796 79.9022 55.2513 80.4583 54.6117 80.4583Z" fill="#050507"/>
<path d="M55.7816 67.4029C55.7816 68.0564 55.2254 68.6125 54.5998 68.5986C53.9602 68.5986 53.418 68.0286 53.4319 67.3751C53.4319 66.7356 53.988 66.1655 54.6276 66.1794C55.2393 66.1934 55.7816 66.7634 55.7816 67.4029Z" fill="#050507"/>
<path d="M65.2761 73.3256C65.2761 73.9929 64.7617 74.5074 64.0944 74.5074C63.4409 74.5074 62.8848 73.979 62.8848 73.3395C62.8848 72.7138 63.4548 72.1438 64.0805 72.1299C64.72 72.1299 65.2761 72.6721 65.2761 73.3256Z" fill="#050507"/>
<path d="M65.2761 79.2624C65.2761 79.9158 64.7339 80.458 64.0944 80.458C63.4687 80.458 62.8848 79.888 62.8848 79.2624C62.8848 78.6228 63.427 78.0806 64.0805 78.0806C64.7478 78.0806 65.2761 78.595 65.2761 79.2624Z" fill="#050507"/>
<path d="M65.2622 67.403C65.2622 68.0564 64.7061 68.6126 64.0805 68.5986C63.4687 68.5986 62.8848 68.0008 62.8848 67.3891C62.8848 66.7773 63.4826 66.1934 64.0944 66.1934C64.72 66.1934 65.2761 66.7495 65.2622 67.403Z" fill="#040406"/>
<path d="M36.817 60.2981C37.4844 60.2981 37.9849 60.8126 37.9849 61.4799C37.9849 62.1195 37.4288 62.6756 36.7892 62.6617C36.1497 62.6617 35.6075 62.0917 35.6214 61.4521C35.6214 60.7987 36.1497 60.2842 36.817 60.2981Z" fill="#050507"/>
<path d="M43.9066 53.1519C44.5601 53.1519 45.0884 53.6802 45.0884 54.3336C45.0884 54.9871 44.5601 55.5432 43.9205 55.5432C43.3088 55.5432 42.7109 54.9593 42.7109 54.3475C42.7109 53.7358 43.281 53.1658 43.9066 53.1519Z" fill="#070608"/>
<path d="M37.9847 47.243C37.9847 47.8965 37.4424 48.4526 36.8029 48.4387C36.1633 48.4387 35.6211 47.8826 35.6211 47.2291C35.6211 46.5896 36.1772 46.0195 36.8029 46.0195C37.4424 46.0195 37.9847 46.5896 37.9847 47.243Z" fill="#050506"/>
<path d="M28.5159 54.2921C28.5437 53.6387 29.086 53.1242 29.7394 53.1659C30.379 53.1937 30.9073 53.7777 30.8795 54.4033C30.8378 55.029 30.2399 55.5851 29.6282 55.5434C28.9886 55.5156 28.502 54.9595 28.5159 54.2921Z" fill="#050507"/>
<path d="M37.9849 54.3751C37.971 55.0147 37.401 55.5708 36.7753 55.5569C36.1358 55.543 35.6075 54.973 35.6214 54.3195C35.6353 53.6661 36.1775 53.1377 36.831 53.1516C37.4844 53.1794 37.9988 53.7078 37.9849 54.3751Z" fill="#040506"/>
</svg>
