<svg width="130" height="100" viewBox="0 0 130 100" fill="none" xmlns="http://www.w3.org/2000/svg">
<path d="M36.8486 49.1351C36.8486 53.5569 36.8486 57.9787 36.8486 62.4248C36.8486 66.4822 39.3169 68.9118 43.4636 68.9118C50.8438 68.9118 58.2487 68.9361 65.6289 68.8875C66.9371 68.8875 67.8751 69.2762 68.739 70.1751C70.4174 71.9001 72.1699 73.5522 73.8731 75.2772C74.3174 75.7145 74.5395 75.7631 75.0085 75.3015C76.8103 73.4551 78.6862 71.6815 80.4881 69.8593C81.1545 69.2033 81.8703 68.8875 82.833 68.8875C84.5114 68.9118 86.1899 69.0575 87.8436 68.8146C91.1265 68.3287 93.1258 66.1421 93.1505 62.8864C93.1998 53.7027 93.1998 44.5189 93.1505 35.3594C93.1505 31.7151 90.5341 29.3584 86.7576 29.3584C76.5141 29.3584 66.2707 29.3584 56.0273 29.3584C51.8558 29.3584 47.6844 29.3584 43.513 29.3584C39.2428 29.3584 36.8239 31.7394 36.8239 35.9668C36.8486 40.3643 36.8486 44.7376 36.8486 49.1351Z" fill="#DDDDDD"/>
<path d="M5.14689 99.9999C4.27278 99.5169 3.30666 99.2868 2.52456 98.6427C0.914364 97.3316 0.040255 95.6524 0.0172522 93.5821C-0.00575072 91.0058 -0.00575072 88.4525 0.0172522 85.8762C0.040255 82.0347 2.8236 79.2513 6.68808 79.2513C21.916 79.2513 37.1439 79.2743 52.3718 79.2053C54.258 79.2053 55.9142 79.5734 57.5704 80.5165C61.987 82.9778 66.4495 85.3241 70.9121 87.7164C71.6942 88.1304 72.3613 88.6135 72.3613 89.6256C72.3613 90.6377 71.6712 91.1208 70.8891 91.5349C65.7824 94.2722 60.6988 97.0095 55.6152 99.7469C55.5002 99.8159 55.2931 99.7699 55.2931 99.9999C38.5701 99.9999 21.87 99.9999 5.14689 99.9999Z" fill="#020203"/>
<path d="M94.0063 64.3916C93.7762 64.5296 93.8452 64.7596 93.7992 64.9667C92.6721 69.4522 88.7156 72.3276 84.3911 72.0975C83.4249 72.0515 82.7579 72.3506 82.0908 73.0407C80.2966 74.9269 78.4333 76.7441 76.5931 78.5614C75.3509 79.7805 74.4538 79.7805 73.2117 78.5384C71.2334 76.5831 69.2552 74.6279 67.3229 72.6266C66.9319 72.2126 66.5178 72.0745 65.9658 72.0745C58.5128 72.0975 51.0369 72.0975 43.584 72.0745C38.1783 72.0745 34.1758 68.049 34.1758 62.6434C34.1758 60.6191 34.1758 58.5949 34.1758 56.5936C34.1758 55.2594 34.8889 54.4543 36.016 54.4543C37.1432 54.4543 37.8332 55.2824 37.8332 56.6166C37.8332 58.5719 37.8332 60.5271 37.8332 62.4823C37.8562 66.0478 40.2025 68.3941 43.768 68.3941C51.4509 68.4171 59.1339 68.4171 66.7939 68.3711C67.898 68.3711 68.7031 68.6931 69.4622 69.4752C71.0724 71.1544 72.7516 72.7646 74.3848 74.4208C74.7989 74.8579 75.0289 74.8809 75.4429 74.4208C77.1221 72.6956 78.8704 70.9934 80.5496 69.2912C81.1707 68.6701 81.8377 68.3481 82.7349 68.3941C83.609 68.4401 84.5061 68.4631 85.3802 68.3251C88.3706 67.819 90.2798 65.8178 90.2798 62.7814C90.3258 54.0633 90.3258 45.3452 90.2798 36.6271C90.2568 33.2457 87.8415 30.9914 84.3911 30.9684C80.6876 30.9454 76.9841 30.9684 73.2807 30.9684C71.7855 30.9684 70.8654 29.7723 71.3714 28.4841C71.6705 27.725 72.2225 27.288 73.0506 27.288C77.2372 27.288 81.4467 27.1039 85.6102 27.334C89.5897 27.564 92.9021 30.4853 93.7762 34.6719C93.8222 34.8329 93.7532 35.0399 93.9603 35.1549C94.0063 44.9312 94.0063 54.6614 94.0063 64.3916Z" fill="#020203"/>
<path d="M29.99 6.01022C36.8448 6.01022 43.6997 6.01022 50.5545 6.01022C55.7762 6.01022 59.8477 10.0357 59.8707 15.2574C59.8937 24.0445 59.8937 32.8086 59.8707 41.5957C59.8477 46.7713 55.7762 50.7968 50.6005 50.7968C43.7457 50.7968 36.8908 50.7968 30.036 50.7968C29.5069 50.7968 29.1389 50.9348 28.7708 51.3259C26.8156 53.3041 24.8373 55.2824 22.8591 57.2376C21.5709 58.5028 20.7198 58.5028 19.4316 57.2146C18.0975 55.8805 16.6253 54.6383 15.4291 53.1661C13.888 51.2799 12.1167 50.4058 9.65543 50.7738C8.45928 50.9578 7.30914 50.6358 6.15899 50.2677C2.80058 49.1866 0.0402333 45.5982 0.0402333 42.0557C0.0172304 32.9466 -0.00577243 23.8375 0.0402333 14.7053C0.0632362 10.2197 4.27276 6.03323 8.78132 6.01022C15.8432 5.98722 22.9281 6.01022 29.99 6.01022Z" fill="#020203"/>
<path d="M66.494 40.1467C67.2301 40.1697 67.7822 40.5838 68.1042 41.3199C70.2665 46.4035 72.4288 51.4871 74.545 56.5938C75.0051 57.6979 74.568 58.687 73.5789 59.1241C72.6128 59.5382 71.4397 59.1471 71.1636 58.02C70.7036 56.1567 69.6224 55.7657 67.8742 55.9267C66.31 56.0877 64.6998 55.9727 63.1126 55.9497C62.6296 55.9497 62.3995 56.0877 62.2615 56.5248C62.1005 57.0078 61.8935 57.4909 61.6634 57.951C61.1344 59.0781 60.0992 59.5382 59.1331 59.1011C58.121 58.641 57.753 57.6289 58.236 56.4788C59.3171 53.8334 60.4443 51.2111 61.5484 48.5888C62.5375 46.2655 63.5037 43.9422 64.4928 41.6189C64.8608 40.7678 65.3899 40.1467 66.494 40.1467Z" fill="#020203"/>
<path d="M66.3578 27.311C67.37 27.288 68.2441 28.1851 68.2441 29.1742C68.2211 30.1403 67.37 30.9684 66.4038 30.9914C65.3917 31.0144 64.5176 30.1173 64.5176 29.1282C64.5406 28.1621 65.3917 27.311 66.3578 27.311Z" fill="#030405"/>
<path d="M34.2437 82.9319C40.1094 82.9319 45.9981 82.9319 51.8639 82.9089C52.508 82.9089 52.738 83.0009 52.738 83.737C52.692 87.6935 52.715 91.627 52.738 95.5835C52.738 96.1586 52.623 96.3426 52.0019 96.3426C40.1554 96.3196 28.3089 96.3196 16.4855 96.3426C15.8644 96.3426 15.6344 96.2046 15.6804 95.5375C15.7264 94.4334 15.7494 93.3292 15.6804 92.2251C15.6344 91.489 15.8874 91.328 16.5775 91.328C23.8924 91.351 31.2073 91.351 38.5222 91.351C39.9024 91.351 40.6385 90.8449 40.8225 89.7638C41.0065 88.7977 40.3624 87.8546 39.3733 87.6935C38.9823 87.6245 38.5912 87.6245 38.1772 87.6245C30.9773 87.6245 23.8004 87.6015 16.6005 87.6475C15.8414 87.6475 15.5883 87.4405 15.6574 86.6814C15.7264 85.7153 15.7264 84.7262 15.6574 83.737C15.6114 83.0009 15.8874 82.9089 16.5315 82.9089C22.4432 82.9319 28.3549 82.9319 34.2437 82.9319Z" fill="#FFCA41"/>
<path d="M11.9574 89.6487C11.9574 91.673 11.9344 93.6742 11.9804 95.6985C11.9804 96.2046 11.8423 96.3656 11.3363 96.3656C9.81809 96.3426 8.2769 96.3656 6.75871 96.3426C4.89548 96.3196 3.72233 95.1464 3.72233 93.3062C3.69933 90.8679 3.69933 88.4296 3.72233 85.9683C3.74533 84.1511 4.89548 82.9779 6.6897 82.9549C8.2539 82.9319 9.79509 82.9779 11.3593 82.9319C11.9114 82.9089 12.0034 83.1159 12.0034 83.599C11.9574 85.6002 11.9574 87.6245 11.9574 89.6487Z" fill="#FFCA41"/>
<path d="M66.5885 89.6257C63.3451 91.3509 60.1937 93.0531 57.0423 94.7554C56.5592 95.0314 56.4902 94.8474 56.4902 94.3873C56.4902 91.2129 56.4902 88.0385 56.4902 84.8641C56.4902 84.4271 56.5362 84.22 57.0423 84.4961C60.1707 86.2213 63.3451 87.9005 66.5885 89.6257Z" fill="#FFCA41"/>
<path d="M56.1896 28.415C56.1896 32.6015 56.1896 36.7881 56.1896 40.9976C56.1896 44.8391 53.8893 47.1394 50.0248 47.1394C43.147 47.1394 36.2461 47.1624 29.3683 47.1163C28.1491 47.1163 27.275 47.4844 26.4699 48.3355C24.9057 49.9687 23.2725 51.5329 21.6853 53.1661C21.2712 53.5802 21.0642 53.6262 20.6272 53.1891C18.948 51.4409 17.1997 49.7617 15.5205 48.0365C14.8994 47.4154 14.2324 47.1163 13.3353 47.1163C11.7711 47.1394 10.2069 47.2774 8.66567 47.0473C5.60629 46.5873 3.74305 44.517 3.72005 41.4346C3.67405 32.7396 3.67405 24.0445 3.72005 15.3724C3.72005 11.922 6.15836 9.69067 9.6778 9.69067C19.224 9.69067 28.7702 9.69067 38.3164 9.69067C42.2039 9.69067 46.0913 9.69067 49.9788 9.69067C53.9583 9.69067 56.2126 11.945 56.2126 15.9475C56.1896 20.111 56.1896 24.2515 56.1896 28.415Z" fill="white"/>
<path d="M66.3804 46.7715C67.1855 48.6807 67.9216 50.4289 68.6807 52.2462C67.1165 52.2462 65.6443 52.2462 64.0801 52.2462C64.8392 50.4749 65.5523 48.7267 66.3804 46.7715Z" fill="white"/>
<path d="M47.9314 89.4418C47.9544 90.4309 47.0803 91.351 46.0912 91.351C45.148 91.351 44.2969 90.4999 44.2739 89.5338C44.2509 88.5447 45.033 87.7166 46.0221 87.6706C47.0573 87.6246 47.9084 88.4297 47.9314 89.4418Z" fill="#040405"/>
<path d="M37.6049 28.4152C37.6279 30.1174 37.5589 31.6816 36.9148 33.1308C36.7308 33.5218 36.9378 33.6599 37.1909 33.8669C37.6969 34.2579 38.249 34.603 38.686 35.063C39.3531 35.7301 39.3761 36.7423 38.8011 37.4783C38.249 38.1684 37.3059 38.3525 36.5008 37.9154C35.7417 37.5243 35.1666 36.5352 34.4075 36.6042C33.6714 36.6732 32.9813 37.4553 32.1762 37.7774C26.8396 39.8016 21.2039 36.0982 20.7668 30.7155C20.5828 28.5072 20.4908 26.322 21.1579 24.1827C22.193 20.9163 25.5514 18.501 29.1169 18.501C32.6823 18.501 36.0637 20.8933 37.0989 24.1367C37.2369 24.5507 37.4209 24.9418 37.4439 25.3558C37.5359 26.437 37.7199 27.4951 37.6049 28.4152Z" fill="#020203"/>
<path d="M31.1624 34.0507C28.172 35.6378 24.5836 33.4526 24.4456 30.3242C24.3766 28.737 24.1696 27.1498 24.6066 25.5856C25.2047 23.4463 27.39 21.9511 29.4602 22.2042C31.9905 22.5262 33.7157 24.2744 33.8078 26.6897C33.8538 27.8859 33.8308 29.082 33.8078 30.2552C33.8078 30.5542 33.8768 30.8763 33.5547 31.1523C33.0257 30.7612 32.4966 30.3702 31.9445 29.9791C30.9094 29.2661 29.8283 29.3581 29.1842 30.2092C28.5171 31.0833 28.7471 32.1874 29.7823 32.9925C30.2193 33.3376 30.6564 33.6596 31.1624 34.0507Z" fill="white"/>
</svg>
