<svg width="130" height="100" viewBox="0 0 130 100" fill="none" xmlns="http://www.w3.org/2000/svg">
<path d="M110.098 26.3761C109.721 27.38 108.973 28.025 108.096 28.6022C105.502 30.3118 102.94 32.0708 100.364 33.8064C98.8763 34.8084 97.647 34.7374 96.314 33.5705C95.2801 32.6656 94.2559 31.7483 93.1087 30.7307C93.1087 31.1633 93.1087 31.4343 93.1087 31.706C93.1119 43.4844 93.1093 55.2621 93.1269 67.0405C93.1288 68.2523 92.7855 69.2628 91.803 70.0042C91.16 70.4902 90.4043 70.6199 89.6199 70.6199C76.9164 70.6211 64.2122 70.627 51.5086 70.6146C49.3164 70.6127 48.0479 69.2967 48.0407 67.0783C48.0296 63.684 48.0381 60.2891 48.0407 56.8948C48.0414 55.7963 48.1984 55.5866 49.2505 55.2328C50.0121 55.2608 50.3998 55.569 50.5333 56.2674C50.5965 56.5977 50.5789 56.9339 50.5789 57.2681C50.5803 60.3803 50.5763 63.4918 50.5816 66.604C50.5835 67.9025 50.8096 68.1376 52.1113 68.1383C64.4044 68.1435 76.6981 68.1435 88.9912 68.1383C90.375 68.1376 90.5756 67.92 90.5763 66.503C90.5776 54.081 90.5769 41.6589 90.5776 29.2374C90.5776 28.8517 90.5528 28.4641 90.6147 28.0817C90.7991 26.9429 91.8591 26.477 92.8083 27.1272C93.2533 27.4321 93.6859 27.7637 94.0527 28.1605C94.4351 28.5742 94.7993 28.5912 95.269 28.281C96.3427 27.5729 97.3844 26.8191 98.4503 26.0998C100.327 24.8346 102.229 23.6085 104.082 22.3088C104.587 21.955 104.716 21.6534 104.327 21.1283C101.832 17.76 99.4848 14.2843 96.9342 10.9571C96.1068 9.87822 95.028 9.08208 93.7627 8.57522C91.5659 7.69505 89.3098 6.97906 87.0771 6.19726C86.4536 5.97901 86.195 6.19791 86.0119 6.77383C85.348 8.86383 84.2099 10.6926 82.8033 12.3559C82.0117 13.2921 81.4214 13.38 80.4644 12.7969C79.9158 12.0861 80.0461 11.391 80.583 10.7623C81.6599 9.50035 82.5342 8.12243 83.1824 6.59207C83.7545 5.24086 83.7479 5.19656 82.3029 4.96658C80.8338 4.73335 80.8364 4.73465 80.1667 6.09954C78.5731 9.3492 75.9886 11.4203 72.4412 11.9832C67.783 12.7227 64.0845 11.0099 61.4733 7.0429C61.1697 6.45004 60.8361 5.86956 60.6283 5.23305C60.4993 4.83889 60.2517 4.72553 59.8621 4.79654C59.2569 4.90665 58.649 5.00111 58.0425 5.1047C57.6268 5.17506 57.5278 5.4083 57.6764 5.76336C57.963 6.44743 58.1155 7.18818 58.5481 7.81036C60.7749 11.8959 64.177 14.3371 68.7883 14.9671C71.1265 15.2863 73.4491 15.0785 75.6511 14.1129C76.074 13.9273 76.5027 13.7559 76.9248 13.5689C77.6662 13.2406 78.3229 13.3305 78.8604 13.9794C79.2337 14.8954 79.037 15.4713 78.1425 15.9443C75.8538 17.1535 73.4237 17.7463 70.8216 17.8017C66.7478 17.8884 63.2043 16.5619 60.0895 14.0126C58.2946 12.5441 56.903 10.7427 55.9232 8.6332C55.5974 7.9348 55.2547 7.24096 55.0658 6.48783C54.9616 6.07282 54.7368 5.94839 54.3283 6.08781C51.8207 6.94257 49.274 7.70026 46.855 8.78175C45.4243 9.42152 44.3676 10.5734 43.4594 11.8516C41.2684 14.9332 39.0579 18.0004 36.8434 21.0651C36.3007 21.8162 36.317 21.8208 37.078 22.3453C37.8194 22.856 38.538 23.3994 39.3172 23.8567C41.4854 25.2425 43.5734 26.7455 45.7188 28.1625C46.5006 28.6791 46.5305 28.6719 47.2296 28.0328C47.5912 27.7025 47.9638 27.3846 48.3691 27.1129C49.289 26.4966 50.3281 26.9461 50.534 28.0348C50.577 28.2628 50.577 28.4954 50.577 28.7267C50.5796 36.2098 50.5789 43.6928 50.577 51.1759C50.577 51.6144 50.5874 52.0613 50.334 52.445C50.0519 52.8711 49.7274 53.2405 49.1346 52.9604C48.2362 52.6913 48.0407 52.417 48.0407 51.3818C48.0414 44.7971 48.0446 38.2131 48.0472 31.6284C48.0472 31.3828 48.0472 31.1372 48.0472 30.7313C46.8993 31.7496 45.8751 32.6669 44.8406 33.5725C43.5076 34.74 42.2756 34.8116 40.7889 33.8096C38.063 31.9724 35.3385 30.1339 32.6191 28.2882C30.8647 27.0973 30.5702 25.5213 31.7963 23.8098C35.0733 19.237 38.3653 14.6745 41.6424 10.101C43.0952 8.07292 44.9956 6.66112 47.3482 5.8448C49.9385 4.94573 52.5061 3.97175 55.1231 3.15868C57.133 2.53455 59.2491 2.34757 61.3254 2.01596C62.0062 1.90716 62.4101 2.36711 62.5737 3.01861C62.8746 4.21997 63.2831 5.37116 64.0552 6.36795C66.1041 9.01303 68.8365 10.09 72.0686 9.49774C75.2433 8.91595 77.3802 6.96538 78.3451 3.82777C78.4128 3.60756 78.4689 3.38345 78.5347 3.16259C78.8389 2.13844 79.2481 1.95602 80.2892 2.0583C84.761 2.49871 88.8804 4.17762 93.0884 5.57117C95.9817 6.52953 98.2314 8.2169 99.9774 10.7193C102.918 14.9319 105.96 19.0734 108.964 23.2417C109.397 23.843 109.826 24.4444 110.095 25.1415C110.098 25.5526 110.098 25.9643 110.098 26.3761Z" fill="black"/>
<path d="M80.5237 12.6314C81.3908 13.1748 81.8651 13.1246 82.5303 12.3428C84.0593 10.544 85.2842 8.56415 85.9435 6.2787C86.0907 5.76988 86.2542 5.64088 86.7859 5.83503C88.883 6.60054 90.9991 7.31327 93.1073 8.05012C94.9569 8.69705 96.458 9.80916 97.602 11.4066C99.9826 14.7293 102.364 18.0506 104.766 21.3582C105.052 21.7517 105.084 21.929 104.631 22.2299C101.442 24.3499 98.2724 26.4992 95.1074 28.6557C94.7524 28.898 94.5185 28.9423 94.1927 28.6068C93.7464 28.1462 93.2422 27.7416 92.7562 27.3214C92.3744 26.9917 91.949 26.8816 91.4727 27.1142C91.0089 27.3403 90.7887 27.7142 90.7945 28.2276C90.7971 28.485 90.7939 28.7423 90.7939 28.9996C90.7971 41.6048 90.8004 54.21 90.8036 66.8145C90.8036 68.1344 90.6284 68.309 89.2837 68.309C76.8075 68.3096 64.3307 68.3096 51.8546 68.309C50.5262 68.309 50.3548 68.1337 50.3548 66.7969C50.3555 63.5042 50.3372 60.2109 50.3692 56.9189C50.3776 56.055 50.1033 55.4784 49.2518 55.2341C49.1691 54.4784 49.3567 53.709 49.1359 52.9604C50.0428 52.7982 50.3522 52.4744 50.3529 51.5838C50.3613 43.8401 50.3594 36.0964 50.3672 28.3527C50.3679 27.7872 50.1972 27.3474 49.6571 27.1018C49.1385 26.8666 48.7091 27.0334 48.3189 27.3904C48.2622 27.4426 48.2075 27.4979 48.1456 27.5435C47.5723 27.9657 47.1364 28.8465 46.4986 28.8166C45.879 28.7879 45.281 28.1279 44.6875 27.7247C42.819 26.4549 40.9563 25.1747 39.0917 23.8991C39.0012 23.6066 39.1927 23.4072 39.3393 23.2052C41.6958 19.964 43.9864 16.6746 46.3794 13.4595C47.5443 11.8946 49.0375 10.7447 50.8552 10.047C52.3419 9.47624 53.8481 8.95504 55.3687 8.47945C55.5805 8.413 55.8033 8.28401 56.0215 8.47555C57.6425 11.6548 59.9351 14.2068 63.147 15.8166C68.1544 18.3262 73.1833 18.2317 78.1776 15.7339C78.8702 15.3873 78.9953 14.9469 78.7412 14.0471C79.1816 13.3826 79.8246 12.9715 80.5237 12.6314Z" fill="white"/>
<path d="M80.5247 12.6315C80.0172 13.2132 79.3683 13.6172 78.7416 14.0478C78.0647 13.2934 77.348 13.5651 76.5819 13.9143C71.6096 16.1854 66.8583 15.7332 62.3923 12.6191C60.6463 11.4014 59.2872 9.79939 58.3882 7.8423C58.2957 7.72307 58.3054 7.6019 58.4051 7.49961C58.9042 6.98558 60.8801 6.63508 61.6105 6.92695C63.2607 9.47951 65.541 11.092 68.5294 11.7741C73.1159 12.821 78.4438 10.0541 80.1599 5.65262C80.6244 4.46104 80.6244 4.46104 81.9313 4.70795C82.057 4.73206 82.1847 4.74704 82.3118 4.76659C84.0356 5.02849 84.0519 5.035 83.3711 6.68134C82.7392 8.2091 81.8766 9.6007 80.7547 10.8216C80.242 11.378 80.1058 11.9643 80.5247 12.6315Z" fill="#DDDDDC"/>
<path d="M56.021 8.47625C54.0717 9.10103 52.1179 9.71539 50.237 10.5337C48.3314 11.3624 47.0075 12.8432 45.8303 14.4817C43.578 17.6167 41.3369 20.7596 39.0912 23.8991C38.1915 23.3063 37.2976 22.7049 36.3894 22.1257C36.1119 21.9485 36.0617 21.8195 36.2728 21.5322C38.9642 17.8643 41.5037 14.0843 44.3123 10.5031C45.2706 9.28084 46.6199 8.55702 48.0727 8.04625C50.1797 7.3055 52.297 6.59342 54.3955 5.82986C54.8932 5.64875 55.0476 5.75559 55.1916 6.24161C55.4164 7.00191 55.7395 7.73289 56.021 8.47625Z" fill="#DDDDDC"/>
<path d="M107.776 25.8412C107.772 25.9995 107.585 26.1351 107.391 26.2667C104.566 28.1755 101.739 30.0831 98.9172 31.9959C98.568 32.2331 98.2657 32.222 97.9536 31.9308C97.5595 31.5633 97.1601 31.2004 96.7425 30.8604C96.4552 30.6258 96.5015 30.4903 96.7894 30.2975C99.9173 28.1951 103.038 26.0829 106.163 23.9767C106.26 23.9109 106.384 23.8477 106.496 23.8477C106.63 23.8483 107.778 25.5761 107.776 25.8412Z" fill="#DDDDDC"/>
<path d="M37.7473 25.8867C39.965 27.3669 42.18 28.8497 44.4023 30.3228C44.6688 30.4993 44.7046 30.642 44.4388 30.8329C44.4179 30.8479 44.4003 30.8674 44.3814 30.8837C42.3664 32.6154 43.0973 32.5255 41.0621 31.1853C39.4574 30.1293 37.888 29.0191 36.3029 27.9331C36.2899 27.2692 37.0899 26.1356 37.7473 25.8867Z" fill="#DDDDDC"/>
<path d="M37.7453 25.8866C37.1752 26.5062 36.6709 27.172 36.3009 27.9336C35.4442 27.3707 34.5881 26.8078 33.7314 26.2449C33.446 26.058 33.2421 25.8182 33.4617 25.4801C33.7965 24.9634 34.1731 24.4742 34.5217 23.966C34.6787 23.7373 34.8239 23.8598 34.9679 23.9588C35.895 24.5992 36.8195 25.2429 37.7453 25.8866Z" fill="#DDDDDC"/>
<path d="M61.6091 6.9263C60.5849 6.92174 59.6142 7.17452 58.6617 7.52697C58.4956 7.58822 58.4076 7.67486 58.3874 7.8423C57.8643 7.12695 57.6851 6.26633 57.3665 5.46303C57.2258 5.10732 57.3828 5.00373 57.6864 4.95422C58.519 4.8187 59.3556 4.70209 60.1804 4.53009C60.5498 4.45321 60.6064 4.65778 60.712 4.9047C61.0006 5.58291 61.3087 6.2533 61.6091 6.9263Z" fill="#DDDDDC"/>
<circle cx="70.5958" cy="37.8975" r="13.1602" fill="#FFCA41"/>
<path d="M72.4211 37.839L32.3496 28.2754L18.9414 84.2222L59.0129 93.7857L72.4211 37.839Z" fill="#C4C4C4"/>
<path d="M14.3041 56.07L12.5762 56.5029L12.7025 57.0089L14.4304 56.5759L14.3041 56.07Z" fill="#E6E7E8"/>
<path d="M17.2572 55.3302L15.5293 55.7632L15.6556 56.2692L17.3835 55.8362L17.2572 55.3302Z" fill="#E6E7E8"/>
<path d="M20.2103 54.59L18.4824 55.0229L18.6087 55.5289L20.3366 55.0959L20.2103 54.59Z" fill="#E6E7E8"/>
<path d="M23.1635 53.8502L21.4355 54.2832L21.5618 54.7892L23.2897 54.3562L23.1635 53.8502Z" fill="#E6E7E8"/>
<path d="M26.1166 53.11L24.3887 53.543L24.515 54.0489L26.2429 53.616L26.1166 53.11Z" fill="#E6E7E8"/>
<path d="M29.0677 52.3702L27.3398 52.8032L27.4661 53.3092L29.194 52.8762L29.0677 52.3702Z" fill="#E6E7E8"/>
<path d="M32.0209 51.6305L30.293 52.0635L30.4192 52.5695L32.1472 52.1365L32.0209 51.6305Z" fill="#E6E7E8"/>
<path d="M32.183 42.3893L31.375 42.5918L31.5771 43.4014L32.3851 43.199L32.183 42.3893Z" fill="#468FCD"/>
<path d="M32.5814 43.9826L31.7734 44.1851L31.9756 44.9949L32.7836 44.7925L32.5814 43.9826Z" fill="#42B662"/>
<path d="M32.9779 45.5763L32.1699 45.7788L32.372 46.5887L33.18 46.3862L32.9779 45.5763Z" fill="#F79720"/>
<path d="M35.2998 41.828L32.9238 42.4233L33.0228 42.8201L35.3988 42.2247L35.2998 41.828Z" fill="#E6E7E8"/>
<path d="M35.6982 43.4217L33.3223 44.0171L33.4213 44.4138L35.7972 43.8185L35.6982 43.4217Z" fill="#E6E7E8"/>
<path d="M36.0947 45.0145L33.7188 45.6099L33.8178 46.0066L36.1937 45.4112L36.0947 45.0145Z" fill="#E6E7E8"/>
<path d="M11.8867 64.4285C11.9893 64.461 12.0734 64.5447 12.1014 64.657C12.1131 64.7042 12.1139 64.7514 12.1052 64.7961L15.8226 65.9856C16.0441 65.2707 16.0792 64.488 15.8847 63.7088C15.4757 62.0704 14.1645 60.8967 12.6149 60.5864L11.8867 64.4285Z" fill="#8BC53F"/>
<path d="M17.1 59.0453L16.1875 59.2739L16.4381 60.2779L17.3506 60.0493L17.1 59.0453Z" fill="#A87C4F"/>
<path d="M17.6117 61.0961L16.6992 61.3247L16.9498 62.3287L17.8623 62.1001L17.6117 61.0961Z" fill="#8BC53F"/>
<path d="M18.1235 63.1473L17.2109 63.376L17.4615 64.38L18.374 64.1513L18.1235 63.1473Z" fill="#EB008B"/>
<path d="M18.6352 65.1986L17.7227 65.4272L17.9732 66.4313L18.8858 66.2026L18.6352 65.1986Z" fill="#F6921E"/>
<path d="M19.1469 67.2499L18.2344 67.4785L18.485 68.4825L19.3975 68.2539L19.1469 67.2499Z" fill="#704C9E"/>
<path d="M22.1662 57.7756L18.4668 58.7026L18.7174 59.7067L22.4168 58.7797L22.1662 57.7756Z" fill="#D0D2D3"/>
<path d="M22.678 59.8264L18.9785 60.7534L19.2291 61.7574L22.9285 60.8304L22.678 59.8264Z" fill="#D0D2D3"/>
<path d="M23.1897 61.8777L19.4902 62.8047L19.7408 63.8087L23.4403 62.8817L23.1897 61.8777Z" fill="#D0D2D3"/>
<path d="M23.7014 63.9285L20.002 64.8555L20.2525 65.8595L23.952 64.9325L23.7014 63.9285Z" fill="#D0D2D3"/>
<path d="M24.2131 65.9802L20.5137 66.9072L20.7643 67.9112L24.4637 66.9842L24.2131 65.9802Z" fill="#D0D2D3"/>
<path d="M38.2175 63.3231C40.1269 61.4099 40.1269 58.3079 38.2175 56.3947C36.3081 54.4815 33.2124 54.4815 31.303 56.3947C29.3936 58.3079 29.3936 61.4099 31.303 63.3231C33.2124 65.2363 36.3081 65.2363 38.2175 63.3231Z" fill="white"/>
<path d="M37.9564 63.0597C39.7206 61.292 39.7206 58.4258 37.9564 56.658C36.1921 54.8903 33.3317 54.8903 31.5675 56.658C29.8032 58.4258 29.8032 61.292 31.5675 63.0597C33.3317 64.8275 36.1921 64.8275 37.9564 63.0597Z" fill="#E85C49"/>
<path d="M39.2708 60.1461L30.2512 59.5703C30.2224 60.0248 30.2621 60.4913 30.3783 60.9564C30.9837 63.3819 33.4367 64.8564 35.8573 64.2497C37.8131 63.7595 39.1494 62.0604 39.2708 60.1461Z" fill="#00B2B7"/>
<path d="M33.6649 55.4673C31.2444 56.0739 29.7728 58.5318 30.3783 60.957C30.6125 61.8952 31.123 62.691 31.8013 63.2791L34.761 59.8585L33.6649 55.4673Z" fill="#F2A246"/>
<path d="M36.1832 61.2818C36.968 60.4954 36.968 59.2204 36.1832 58.434C35.3983 57.6476 34.1258 57.6476 33.341 58.434C32.5562 59.2204 32.5562 60.4954 33.341 61.2818C34.1258 62.0682 35.3983 62.0683 36.1832 61.2818Z" fill="white"/>
<path d="M35.8199 60.9198C36.4052 60.3333 36.4051 59.3825 35.8199 58.796C35.2346 58.2096 34.2857 58.2096 33.7004 58.796C33.1151 59.3825 33.1151 60.3333 33.7004 60.9198C34.2857 61.5062 35.2346 61.5062 35.8199 60.9198Z" fill="#0BA14A"/>
<path d="M36.2161 59.4937C36.0153 58.6891 35.2014 58.2 34.3984 58.4012L35.1258 61.3149C35.9287 61.1137 36.4169 60.2982 36.2161 59.4937Z" fill="#5CAF65"/>
<path d="M14.3633 83.4224C14.3633 83.4224 14.9954 82.9573 15.1793 82.3321C15.3632 81.707 15.2672 81.0496 16.1072 80.7369C16.9471 80.4242 16.7727 78.5508 17.7009 78.3183C18.6287 78.0857 19.7435 80.4176 20.6716 80.1851C21.5995 79.9525 21.7579 79.1506 22.7807 78.8944C23.3262 78.7578 24.5575 79.7777 25.2756 79.5978C25.9155 79.4375 26.1675 78.0115 27.2254 77.7462C28.2833 77.4812 28.8354 78.7398 29.6993 78.523C30.5633 78.3065 30.5072 75.6292 31.403 75.4045C32.299 75.1798 32.8111 76.4144 34.1231 76.0856C35.4352 75.7568 34.571 73.5203 35.787 73.2157C36.4352 73.0532 37.4452 73.8101 37.8038 73.8376C38.1625 73.8651 38.0969 73.7176 38.4898 73.7665C39.2506 73.8611 40.2206 76.0698 41.4505 76.6341L14.3633 83.4224Z" fill="#B0C536"/>
<path d="M14.3633 83.4228C14.3633 83.4228 15.0027 83.0869 15.2462 82.5989C15.4898 82.1106 15.5472 81.6081 16.1632 81.4538C17.0688 81.2269 17.7237 81.9192 18.4986 81.5108C18.8516 81.3248 20.1944 81.8063 20.8379 81.64C21.7339 81.4085 21.686 78.239 22.4819 78.0397C23.2778 77.8401 24.1891 78.7813 25.0911 78.5553C25.9931 78.3293 26.0714 76.5868 26.8845 76.3828C27.6975 76.1792 28.9113 78.1062 29.7072 77.9069C30.5031 77.7076 30.1148 75.3615 30.8941 74.7568C31.2334 74.4934 31.3877 74.5624 31.5341 74.4411C32.0712 73.9958 32.3929 72.291 33.0426 72.1282C34.0641 71.8722 35.5098 75.9725 36.3723 75.7566C36.9424 75.6137 37.7916 74.5537 38.5211 74.3707C39.2506 74.1878 39.8416 75.9131 41.4497 76.6353L14.3633 83.4228Z" fill="#F05D61"/>
<path opacity="0.1" d="M38.5216 74.3704C37.7921 74.5534 36.9429 75.6134 36.3729 75.7563C36.0066 75.8482 35.5353 75.1619 35.036 74.3614C34.9122 75.0809 34.8758 75.8978 34.1229 76.0865C32.8108 76.4153 32.2987 75.1807 31.4027 75.4054C30.5067 75.6301 30.563 78.3074 29.6991 78.5239C28.8352 78.7404 28.2831 77.4819 27.2251 77.7471C26.1672 78.0121 25.9153 79.4381 25.2753 79.5987C24.5572 79.7786 23.326 78.7584 22.7804 78.8952C22.3249 79.0095 22.0411 79.2317 21.784 79.4637C21.5543 80.4133 21.3508 81.508 20.8379 81.6405C20.1944 81.8068 18.8516 81.3253 18.4986 81.5113C17.7237 81.9197 17.0685 81.2274 16.1632 81.4543C15.5472 81.6086 15.4898 82.1114 15.2462 82.5994C15.0027 83.0877 14.3633 83.4233 14.3633 83.4233L41.4502 76.6356C39.8424 75.9125 39.2514 74.1875 38.5216 74.3704Z" fill="#231F20"/>
<path d="M14.3633 83.4226C15.1935 83.1314 15.5856 82.5637 15.9651 82.4165C16.345 82.2693 16.5409 82.3244 16.8718 82.1894C17.2026 82.0544 17.3618 81.4404 18.5378 81.1457C19.236 80.9707 19.941 81.7158 21.1424 81.4148C21.6822 81.2796 21.6983 79.5712 22.7886 79.2977C23.8789 79.0245 24.3727 79.2658 25.2143 79.0551C26.0557 78.8443 25.4606 74.5065 26.3601 74.2813C27.2597 74.0559 28.8588 77.5942 29.5448 77.4222C30.2308 77.2502 30.6177 76.475 31.7744 76.1852C32.9311 75.8954 33.4255 78.2104 34.5463 77.9558C35.6673 77.7008 35.5476 76.857 36.5674 76.6146C37.5872 76.372 38.1693 77.0871 38.7725 76.9489C39.3757 76.8107 39.2533 76.6329 39.6821 76.5252C40.111 76.4178 41.45 76.6348 41.45 76.6348L14.3633 83.4226Z" fill="#10AEB9"/>
<path opacity="0.3" d="M39.6821 76.5253C39.2533 76.6327 39.376 76.8108 38.7725 76.949C38.1693 77.0872 37.5872 76.3721 36.5674 76.6147C35.5476 76.8574 35.667 77.7012 34.5463 77.9559C33.4252 78.2108 32.9311 75.8955 31.7744 76.1853C31.0296 76.3721 30.6041 76.7598 30.2123 77.0583C30.123 77.4954 29.9897 77.8359 29.7075 77.9065C28.9116 78.1058 27.6978 76.1788 26.8848 76.3824C26.2755 76.5351 26.0788 77.5518 25.6391 78.147C25.5637 78.6418 25.4413 78.9985 25.2143 79.0552C24.373 79.2659 23.8789 79.0246 22.7886 79.2978C21.6983 79.571 21.6822 81.2794 21.1424 81.4149C21.0542 81.5305 20.9541 81.6098 20.8379 81.6398C20.1944 81.8061 18.8516 81.3247 18.4986 81.5106C18.171 81.6832 17.8652 81.6592 17.5526 81.591C17.2108 81.8479 17.0731 82.1071 16.8718 82.1895C16.5409 82.3244 16.345 82.2694 15.9651 82.4166C15.5853 82.5638 15.1935 83.1317 14.3633 83.4227L41.4502 76.6349C41.4502 76.6349 40.111 76.4179 39.6821 76.5253Z" fill="#231F20"/>
<path d="M13.6734 85.0042L11.4199 75.9756L11.7375 75.9898L43.9393 77.4198L13.6734 85.0042ZM12.0338 76.4783L14.0182 84.4287L40.6698 77.75L12.0338 76.4783Z" fill="#231F20"/>
<path d="M36.7501 82.2328C36.1023 82.395 35.7083 83.0529 35.8704 83.7024C36.0323 84.3516 36.6892 84.7463 37.3371 84.5838C37.9849 84.4214 38.3789 83.7635 38.2168 83.1143C38.0549 82.4651 37.3983 82.0703 36.7501 82.2328ZM37.1999 84.0342C36.8549 84.1206 36.5055 83.9104 36.419 83.565C36.3327 83.2193 36.5425 82.8692 36.8873 82.7827C37.2323 82.6963 37.5817 82.9065 37.6679 83.252C37.7545 83.5974 37.545 83.9478 37.1999 84.0342Z" fill="#B0C536"/>
<path d="M35.8704 83.7027C35.9117 83.8687 35.9857 84.0179 36.0834 84.1457C36.2396 84.0258 36.3941 83.9072 36.5324 83.8011C36.4804 83.7332 36.4409 83.6536 36.4189 83.5653C36.3327 83.2196 36.5424 82.8695 36.8872 82.783L36.7501 82.2334C36.1022 82.3953 35.7085 83.0532 35.8704 83.7027Z" fill="#E0DD6F"/>
<path d="M26.8419 84.7156C26.1941 84.8779 25.8001 85.5358 25.9622 86.1852C26.1241 86.8344 26.7807 87.2292 27.4289 87.0667C28.0767 86.9042 28.4707 86.2463 28.3086 85.5971C28.1464 84.9479 27.4898 84.5534 26.8419 84.7156ZM27.2914 86.517C26.9464 86.6034 26.5971 86.3932 26.5108 86.0478C26.4245 85.7021 26.6343 85.352 26.9791 85.2656C27.3241 85.1791 27.6735 85.3894 27.76 85.7348C27.8463 86.0802 27.6365 86.4306 27.2914 86.517Z" fill="#F05D61"/>
<path d="M28.3205 86.133L27.7663 86.0199C27.7181 86.2557 27.5399 86.4547 27.2914 86.5169C26.9464 86.6033 26.5971 86.3931 26.5108 86.0477C26.4245 85.702 26.6343 85.3519 26.9791 85.2655L26.8419 84.7158C26.1941 84.878 25.8001 85.5359 25.9622 86.1854C26.1241 86.8345 26.7807 87.2293 27.4289 87.0668C27.8952 86.9499 28.2302 86.5758 28.3205 86.133Z" fill="#F9B086"/>
<path d="M32.1479 83.8071L28.5039 84.7202L28.6691 85.3822L32.3131 84.4691L32.1479 83.8071Z" fill="#808184"/>
<path d="M30.8556 85.0734L28.7246 85.6074L28.8921 86.2787L31.0231 85.7447L30.8556 85.0734Z" fill="#808184"/>
<path d="M42.0542 81.3242L38.4102 82.2373L38.5754 82.8993L42.2194 81.9862L42.0542 81.3242Z" fill="#808184"/>
<path d="M40.7618 82.5905L38.6309 83.1245L38.7984 83.7958L40.9294 83.2618L40.7618 82.5905Z" fill="#808184"/>
<path d="M11.5 86.8032V25.5H54.4808V86.8032H11.5Z" fill="white" stroke="black"/>
<path d="M22.466 66.2144C26.3261 66.2144 29.4554 63.0789 29.4554 59.211C29.4554 55.3431 26.3261 52.2075 22.466 52.2075C18.6058 52.2075 15.4766 55.3431 15.4766 59.211C15.4766 63.0789 18.6058 66.2144 22.466 66.2144Z" fill="#E0E0E0"/>
<path d="M22.4658 65.2964C25.82 65.2964 28.5391 62.5718 28.5391 59.2109C28.5391 55.85 25.82 53.1255 22.4658 53.1255C19.1117 53.1255 16.3926 55.85 16.3926 59.2109C16.3926 62.5718 19.1117 65.2964 22.4658 65.2964Z" fill="white"/>
<path d="M27.9842 59.2107C27.9842 61.2037 26.932 62.9505 25.3535 63.9236C24.5135 64.4416 23.5245 64.7402 22.4657 64.7402C19.4179 64.7402 16.9473 62.2646 16.9473 59.2107C16.9473 58.5836 17.0515 57.981 17.2433 57.4191C17.8068 55.7696 19.1265 54.4718 20.7882 53.9413C21.0345 53.8627 21.2881 53.8008 21.5477 53.7572C21.8461 53.7071 22.1531 53.6812 22.4657 53.6812C22.5076 53.6812 22.5492 53.6817 22.5906 53.6825C23.4714 53.7021 24.3016 53.9284 25.0341 54.3153C25.5815 54.6043 26.0746 54.9828 26.4939 55.4313C27.4182 56.4199 27.9842 57.749 27.9842 59.2107Z" fill="#373737"/>
<path d="M26.493 55.4313L22.4648 59.2107V53.6812C22.5067 53.6812 22.5484 53.6817 22.5897 53.6825C23.4705 53.7021 24.3007 53.9284 25.0332 54.3153C25.5807 54.6043 26.0737 54.9828 26.493 55.4313Z" fill="#888888"/>
<path d="M27.9833 59.2106C27.9833 61.2036 26.9311 62.9504 25.3526 63.9235L22.4648 59.2106L25.0332 54.3149C25.5807 54.6039 26.0737 54.9824 26.493 55.4309C27.4173 56.4198 27.9833 57.7489 27.9833 59.2106Z" fill="#FFCA41"/>
<path d="M22.4646 59.2108L17.2422 57.4192C17.8057 55.7697 19.1254 54.4719 20.7871 53.9414C21.0333 53.8628 21.2869 53.8009 21.5465 53.7573L22.4646 59.2108Z" fill="#585858"/>
<path d="M22.5914 53.6825L22.4666 59.2107L20.7891 53.9413C21.0353 53.8627 21.2889 53.8008 21.5485 53.7572C21.847 53.7071 22.1539 53.6812 22.4666 53.6812C22.5082 53.6812 22.5498 53.6817 22.5914 53.6825Z" fill="#A5A5A5"/>
<path d="M51.1273 69.6191H15.4766V72.0342H51.1273V69.6191Z" fill="#C8C8C8"/>
<path d="M50.4762 73.5366H15.5938V74.3385H50.4762V73.5366Z" fill="#E0E0E0"/>
<path d="M50.4762 75.1406H15.5938V75.9425H50.4762V75.1406Z" fill="#E0E0E0"/>
<path d="M50.4762 76.3433H15.5938V77.1452H50.4762V76.3433Z" fill="#E0E0E0"/>
<path d="M50.4762 77.9473H15.5938V78.7492H50.4762V77.9473Z" fill="#E0E0E0"/>
<path d="M50.4762 79.1499H15.5938V79.9518H50.4762V79.1499Z" fill="#E0E0E0"/>
<path d="M50.4762 80.7539H15.5938V81.5558H50.4762V80.7539Z" fill="#E0E0E0"/>
<path d="M36.0299 52.1079H32.9922V66.2148H36.0299V52.1079Z" fill="#DDDDDC"/>
<path d="M36.0299 60.0737H32.9922V66.2148H36.0299V60.0737Z" fill="#939393"/>
<path d="M36.0299 63.9951H32.9922V66.2147H36.0299V63.9951Z" fill="#FFCA41"/>
<path d="M39.7526 52.1079H36.7148V66.2148H39.7526V52.1079Z" fill="#DDDDDC"/>
<path d="M39.7526 60.7559H36.7148V66.215H39.7526V60.7559Z" fill="#939393"/>
<path d="M39.7526 61.7607H36.7148V66.2144H39.7526V61.7607Z" fill="#FFCA41"/>
<path d="M43.4752 52.1079H40.4375V66.2148H43.4752V52.1079Z" fill="#DDDDDC"/>
<path d="M43.4733 55.2964H40.4355V66.2147H43.4733V55.2964Z" fill="#939393"/>
<path d="M43.4752 63.1709H40.4375V66.2147H43.4752V63.1709Z" fill="#FFCA41"/>
<path d="M47.1979 52.1079H44.1602V66.2148H47.1979V52.1079Z" fill="#DDDDDC"/>
<path d="M47.1979 57.3071H44.1602V66.2147H47.1979V57.3071Z" fill="#939393"/>
<path d="M47.1979 59.1611H44.1602V66.2145H47.1979V59.1611Z" fill="#FFCA41"/>
<path d="M50.9205 52.1079H47.8828V66.2148H50.9205V52.1079Z" fill="#DDDDDC"/>
<path d="M50.9205 61.4106H47.8828V66.2149H50.9205V61.4106Z" fill="#939393"/>
<path d="M50.9205 62.9424H47.8828V66.2147H50.9205V62.9424Z" fill="#FFCA41"/>
<path d="M15.5405 38.3389L19.8549 31.7014L24.5127 37.2165L31.2779 33.0976L37.297 33.8267L41.9537 28.7896L46.888 33.3626L50.9178 30.9105V41.648H15.4766L15.5405 38.3389Z" fill="#939393"/>
<path d="M15.596 40.2904L19.8549 36.5304L24.4363 40.5884L30.9378 38.1213L37.2883 37.0364L42.0721 32.5337L46.8142 38.5551L50.9178 35.0118V41.5282L15.4766 41.7676L15.596 40.2904Z" fill="#FFCA41"/>
<path d="M15.7152 31.5391H15.4766V41.7679H15.7152V31.5391Z" fill="black"/>
<path d="M15.7168 41.5285V41.7676H50.9194V41.5285H15.7168Z" fill="black"/>
</svg>
