<svg width="130" height="100" viewBox="0 0 130 100" fill="none" xmlns="http://www.w3.org/2000/svg">
<path d="M109 8.87212V82.9319C109 83.9648 108.161 84.804 107.128 84.804H1.87212C0.839247 84.804 0 83.9654 0 82.9319V8.87212C0 7.83925 0.838599 7 1.87212 7H107.128C108.161 7 109 7.83925 109 8.87212Z" fill="black"/>
<path d="M105.69 13.1904H3.3125V75.254H105.69V13.1904Z" fill="white"/>
<path d="M105.69 9.33154H3.3125V13.1911H105.69V9.33154Z" fill="white"/>
<path d="M105.837 13.3371H3.16406V9.18359H105.836V13.3371H105.837ZM3.45871 13.0431H105.542V9.47824H3.45871V13.0431Z" fill="black"/>
<path d="M8.12412 12.1521C7.63262 12.1521 7.23242 11.7519 7.23242 11.2604C7.23242 10.7689 7.63262 10.3687 8.12412 10.3687C8.61562 10.3687 9.01582 10.7689 9.01582 11.2604C9.01582 11.7519 8.61562 12.1521 8.12412 12.1521ZM8.12412 10.6633C7.79516 10.6633 7.52706 10.9314 7.52706 11.2604C7.52706 11.5893 7.79516 11.8574 8.12412 11.8574C8.45373 11.8574 8.72117 11.5893 8.72117 11.2604C8.72182 10.9314 8.45373 10.6633 8.12412 10.6633Z" fill="black"/>
<path d="M11.1026 12.1521C10.6111 12.1521 10.2109 11.7519 10.2109 11.2604C10.2109 10.7689 10.6111 10.3687 11.1026 10.3687C11.5941 10.3687 11.9943 10.7689 11.9943 11.2604C11.9943 11.7519 11.5941 12.1521 11.1026 12.1521ZM11.1026 10.6633C10.7737 10.6633 10.5056 10.9314 10.5056 11.2604C10.5056 11.5893 10.7737 11.8574 11.1026 11.8574C11.4316 11.8574 11.6997 11.5893 11.6997 11.2604C11.6997 10.9314 11.4323 10.6633 11.1026 10.6633Z" fill="black"/>
<path d="M14.0792 12.1521C13.5877 12.1521 13.1875 11.7519 13.1875 11.2604C13.1875 10.7689 13.5877 10.3687 14.0792 10.3687C14.5707 10.3687 14.9709 10.7689 14.9709 11.2604C14.9709 11.7519 14.5713 12.1521 14.0792 12.1521ZM14.0792 10.6633C13.7502 10.6633 13.4821 10.9314 13.4821 11.2604C13.4821 11.5893 13.7502 11.8574 14.0792 11.8574C14.4082 11.8574 14.6763 11.5893 14.6763 11.2604C14.6769 10.9314 14.4088 10.6633 14.0792 10.6633Z" fill="black"/>
<path d="M59.7717 80.9985H49.2273C48.5694 80.9985 48.0312 80.4603 48.0312 79.8024V79.0881C48.0312 78.4302 48.5694 77.8921 49.2273 77.8921H59.7717C60.4296 77.8921 60.9677 78.4302 60.9677 79.0881V79.8024C60.9677 80.4603 60.4296 80.9985 59.7717 80.9985Z" fill="white"/>
<path d="M59.607 81.1455H49.3891C48.5582 81.1455 47.8828 80.4694 47.8828 79.6393V79.2514C47.8828 78.4205 48.5589 77.7451 49.3891 77.7451H59.607C60.4379 77.7451 61.1133 78.4212 61.1133 79.2514V79.6393C61.1139 80.4701 60.4379 81.1455 59.607 81.1455ZM49.3891 78.0385C48.7208 78.0385 48.1768 78.5824 48.1768 79.2507V79.6386C48.1768 80.3069 48.7208 80.8509 49.3891 80.8509H59.607C60.2753 80.8509 60.8193 80.3069 60.8193 79.6386V79.2507C60.8193 78.5824 60.2753 78.0385 59.607 78.0385H49.3891Z" fill="black"/>
<path d="M64 20H8V49H64V20Z" fill="#FFCA41"/>
<path d="M100 20H69V49H100V20Z" fill="#FFCA41"/>
<path d="M100 52H8V54H100V52Z" fill="#939393"/>
<path d="M100 55H8V57H100V55Z" fill="#939393"/>
<path d="M100 58H8V60H100V58Z" fill="#939393"/>
<path d="M100 61H8V63H100V61Z" fill="#939393"/>
<path d="M100 64H8V66H100V64Z" fill="#939393"/>
<path d="M100 67H8V69H100V67Z" fill="#939393"/>
<path d="M46 70H8V72H46V70Z" fill="#939393"/>
<path d="M100 70H48V72H100V70Z" fill="#939393"/>
</svg>
