<svg width="460" height="461" viewBox="0 0 460 461" fill="none" xmlns="http://www.w3.org/2000/svg">
<g clip-path="url(#clip0_303_874)">
<path d="M417.021 457.826L416.915 457.773C416.756 457.703 416.58 457.65 416.421 457.579L284.906 381.818C277.185 376.724 272.549 368.069 272.584 358.815L272.672 18.1004C272.708 17.4835 272.813 16.8842 272.937 16.3025C274.682 3.66382 289.718 -3.36939 301.246 3.2584L301.44 3.38179C301.581 3.4523 301.704 3.50518 301.828 3.57569L433.22 79.3899C440.8 84.4136 445.347 92.9275 445.312 102.023L445.065 441.539C445.065 442.191 444.995 442.808 444.889 443.39C443.99 456.786 428.884 464.665 417.021 457.826Z" fill="#939393"/>
<path d="M435.6 458.69C441.417 455.588 445.153 449.876 445.577 443.425C445.7 442.773 445.753 442.156 445.753 441.521L446 102.006C446.017 97.0171 444.73 92.2402 442.315 88.0625C440.2 84.3961 437.257 81.2232 433.59 78.7907L302.162 2.95889C302.074 2.90601 301.986 2.87076 301.898 2.81788L301.598 2.6416C295.834 -0.672291 288.801 -0.883815 282.737 2.09517C277.009 4.89787 273.078 10.1684 272.249 16.1792C272.108 16.8138 272.02 17.4307 271.985 18.0124L271.897 358.762C271.861 368.281 276.568 377.094 284.518 382.329L416.069 458.108C416.245 458.196 416.351 458.232 416.457 458.267L416.633 458.337L416.915 457.879L416.65 458.355C422.52 461.792 429.606 461.898 435.6 458.69ZM292.785 382.523C292.714 382.841 292.591 383.052 292.432 383.246C291.569 382.876 290.652 382.47 289.594 382.012C278.278 377.112 274.823 367.805 273.906 364.473C273.518 362.64 273.272 360.754 273.272 358.832L273.36 18.1182C273.395 17.6423 273.465 17.0958 273.607 16.4613C274.382 10.8558 278.013 5.97313 283.337 3.36432C283.39 3.34669 283.425 3.32906 283.478 3.31144C287.955 2.32432 292.82 2.81788 297.192 5.33855L297.385 5.46194C297.526 5.53245 297.65 5.58533 297.773 5.65584L429.166 81.47C433.079 84.0612 436.181 87.5866 438.261 91.6232C438.314 91.7466 441.152 99.3263 435.794 105.954C430.4 112.635 414.024 117.553 414.024 117.553L292.785 382.523Z" fill="black"/>
<path d="M442.157 144.472L442.139 139.36C442.139 137.879 440.94 137.368 439.46 138.232C437.979 139.078 436.78 140.981 436.78 142.462L436.798 147.574C436.798 149.055 437.997 149.566 439.477 148.702C440.94 147.838 442.157 145.952 442.157 144.472Z" fill="#939393"/>
<path d="M436.815 142.444C436.815 140.964 438.014 139.078 439.495 138.214C439.847 138.02 440.2 137.932 440.499 137.879C440.552 138.073 440.588 138.231 440.588 138.461L440.605 143.572C440.605 145.053 439.407 146.939 437.926 147.803C437.573 147.997 437.238 148.12 436.939 148.173C436.886 147.979 436.833 147.785 436.833 147.539L436.815 142.444Z" fill="white"/>
<path d="M440.817 137.773C440.887 138.002 440.923 138.196 440.923 138.461L440.94 143.573C440.94 145.194 439.689 147.168 438.085 148.085C437.714 148.297 437.344 148.438 436.974 148.508L436.674 148.561L436.586 148.279C436.516 148.032 436.463 147.785 436.463 147.539L436.445 142.427C436.445 140.805 437.697 138.831 439.301 137.914C439.706 137.685 440.094 137.597 440.411 137.544L440.711 137.491L440.817 137.773ZM437.168 147.539C437.168 147.609 437.168 147.68 437.186 147.75C437.38 147.697 437.556 147.609 437.75 147.486C439.125 146.693 440.253 144.93 440.27 143.555L440.253 138.443C440.253 138.373 440.253 138.32 440.253 138.267C440.059 138.32 439.865 138.373 439.671 138.496C438.279 139.289 437.168 141.052 437.15 142.427L437.168 147.539Z" fill="black"/>
<path d="M444.536 145.388C444.536 143.907 443.338 143.396 441.857 144.26C440.376 145.106 439.178 147.01 439.178 148.49C439.178 149.971 440.376 150.482 441.857 149.618C443.338 148.755 444.536 146.869 444.536 145.388Z" fill="white"/>
<path d="M444.96 145.388C444.96 147.027 443.69 149.037 442.069 149.971C441.152 150.5 440.271 150.588 439.636 150.218C439.072 149.9 438.772 149.284 438.772 148.49C438.772 146.851 440.042 144.841 441.663 143.907C442.58 143.378 443.461 143.29 444.096 143.66C444.343 143.801 444.536 143.995 444.677 144.242C444.854 144.559 444.96 144.947 444.96 145.388ZM440.042 149.495C440.412 149.707 441.029 149.618 441.663 149.248C443.003 148.473 444.149 146.71 444.149 145.388C444.149 145.035 444.078 144.577 443.708 144.366C443.338 144.154 442.739 144.242 442.086 144.612C440.747 145.388 439.601 147.151 439.601 148.473C439.601 148.702 439.636 148.984 439.76 149.195C439.812 149.319 439.918 149.425 440.042 149.495Z" fill="black"/>
<path d="M441.91 144.296C440.429 145.142 439.231 147.045 439.231 148.526C439.231 149.161 439.46 149.601 439.813 149.848L437.997 149.055C437.944 149.037 437.856 148.984 437.803 148.967L437.662 148.879L437.539 148.808C437.133 148.579 436.992 148.191 436.992 147.521C436.992 146.041 438.191 144.154 439.671 143.291C440.394 142.885 441.046 142.797 441.522 142.973L441.417 142.938L441.54 142.973C441.558 142.973 441.681 143.044 441.699 143.044L443.726 143.961C443.25 143.802 442.615 143.89 441.91 144.296Z" fill="#939393"/>
<path d="M443.585 144.348C443.197 144.207 442.686 144.313 442.122 144.648C440.782 145.424 439.636 147.186 439.636 148.508C439.636 148.826 439.707 149.249 440.042 149.495L440.394 149.742L439.918 150.341L437.838 149.425C437.768 149.407 437.662 149.354 437.574 149.301L437.292 149.143C436.622 148.755 436.534 148.05 436.534 147.504C436.534 145.864 437.803 143.855 439.425 142.92C440.2 142.48 440.958 142.339 441.575 142.55L441.646 142.568C441.663 142.568 441.822 142.638 441.839 142.656L443.867 143.573L443.585 144.348ZM441.381 143.361L441.293 143.326C440.923 143.22 440.412 143.326 439.865 143.643C438.526 144.419 437.38 146.181 437.38 147.504C437.38 148.173 437.556 148.332 437.715 148.438L437.997 148.579C438.032 148.596 438.085 148.632 438.155 148.649L438.86 148.967C438.843 148.826 438.825 148.667 438.825 148.508C438.825 146.869 440.094 144.859 441.716 143.925C441.875 143.837 442.016 143.767 442.174 143.696L441.522 143.396L441.381 143.361Z" fill="black"/>
<path d="M442.262 154.502C440.782 155.348 439.583 157.252 439.583 158.732L439.565 174.05C439.565 174.755 439.847 175.249 440.306 175.46L437.891 174.315L437.662 174.209C437.115 173.98 436.763 173.521 436.763 172.728L436.78 157.41C436.78 155.929 437.979 154.043 439.46 153.18C440.182 152.774 440.694 152.633 441.169 152.809L441.311 152.862H441.328C441.363 152.88 441.381 152.88 441.399 152.898L444.148 154.184C443.673 153.99 443.003 154.061 442.262 154.502Z" fill="#939393"/>
<path d="M443.99 154.572C443.62 154.413 443.056 154.519 442.457 154.854C441.117 155.63 439.989 157.392 439.971 158.714L439.953 174.032C439.953 174.402 440.042 174.878 440.447 175.072L440.094 175.813L437.468 174.561C436.939 174.35 436.322 173.838 436.322 172.693L436.34 157.375C436.34 155.735 437.609 153.726 439.231 152.792C439.865 152.421 440.57 152.122 441.293 152.386L444.307 153.796L443.99 154.572ZM437.838 173.821L439.195 174.455C439.178 174.314 439.16 174.173 439.16 174.032L439.178 158.714C439.178 157.075 440.447 155.066 442.069 154.131C442.245 154.026 442.404 153.955 442.58 153.884L441.187 153.232L441.046 153.179C440.711 153.056 440.324 153.162 439.689 153.532C438.349 154.308 437.221 156.07 437.204 157.392L437.186 172.71C437.186 173.01 437.257 173.239 437.345 173.398C437.468 173.644 437.662 173.75 437.838 173.821Z" fill="black"/>
<path d="M444.925 170.948L444.942 155.63C444.942 154.149 443.744 153.638 442.263 154.502C440.782 155.348 439.584 157.251 439.584 158.732L439.566 174.05C439.566 175.531 440.765 176.042 442.245 175.178C443.726 174.314 444.925 172.428 444.925 170.948Z" fill="white"/>
<path d="M445.347 155.63L445.33 170.948C445.33 172.587 444.061 174.596 442.439 175.531C441.522 176.059 440.641 176.148 440.006 175.777C439.46 175.46 439.143 174.843 439.143 174.05L439.16 158.732C439.16 157.093 440.429 155.083 442.051 154.149C442.968 153.62 443.849 153.532 444.484 153.902C444.73 154.043 444.924 154.237 445.065 154.484C445.259 154.801 445.347 155.189 445.347 155.63ZM440.412 175.055C440.782 175.266 441.381 175.178 442.033 174.808C443.373 174.032 444.519 172.27 444.519 170.948L444.536 155.63C444.536 155.277 444.466 154.819 444.096 154.607C443.726 154.396 443.126 154.484 442.474 154.854C441.134 155.63 440.006 157.392 439.989 158.714L439.971 174.032C439.971 174.261 440.006 174.544 440.13 174.755C440.2 174.878 440.288 174.984 440.412 175.055Z" fill="black"/>
<path d="M442.139 177.414C440.659 178.26 439.46 180.164 439.46 181.645L439.442 196.963C439.442 197.668 439.724 198.161 440.183 198.373L437.768 197.227L437.539 197.121C436.992 196.892 436.64 196.434 436.64 195.641L436.657 180.323C436.657 178.842 437.856 176.956 439.337 176.092C440.059 175.687 440.57 175.546 441.046 175.722L441.187 175.775H441.205C441.24 175.793 441.258 175.793 441.276 175.81L444.025 177.097C443.549 176.903 442.88 176.974 442.139 177.414Z" fill="#939393"/>
<path d="M443.867 177.485C443.496 177.326 442.932 177.432 442.333 177.767C440.993 178.543 439.865 180.305 439.848 181.627L439.83 196.945C439.83 197.316 439.918 197.791 440.323 197.985L439.971 198.726L437.345 197.474C436.816 197.263 436.199 196.751 436.199 195.606L436.216 180.288C436.216 178.648 437.486 176.639 439.107 175.705C439.742 175.335 440.447 175.035 441.17 175.299L444.184 176.692L443.867 177.485ZM437.697 196.734L439.054 197.368C439.037 197.227 439.019 197.086 439.019 196.945L439.037 181.627C439.037 179.988 440.306 177.979 441.928 177.044C442.104 176.939 442.262 176.868 442.439 176.798L441.046 176.145L440.905 176.092C440.57 175.969 440.182 176.075 439.548 176.445C438.208 177.221 437.08 178.983 437.062 180.305L437.045 195.623C437.045 195.923 437.115 196.152 437.203 196.311C437.327 196.558 437.521 196.663 437.697 196.734Z" fill="black"/>
<path d="M444.801 193.861L444.819 178.543C444.819 177.062 443.62 176.551 442.139 177.415C440.659 178.261 439.46 180.164 439.46 181.645L439.442 196.963C439.442 198.444 440.641 198.955 442.122 198.091C443.585 197.227 444.783 195.341 444.801 193.861Z" fill="white"/>
<path d="M445.224 178.543L445.207 193.861C445.207 195.5 443.937 197.509 442.316 198.444C441.399 198.973 440.518 199.061 439.883 198.69C439.337 198.373 439.02 197.756 439.02 196.963L439.037 181.645C439.037 180.006 440.306 177.996 441.928 177.062C442.845 176.533 443.726 176.445 444.361 176.815C444.607 176.956 444.801 177.15 444.942 177.397C445.136 177.714 445.224 178.102 445.224 178.543ZM440.289 197.968C440.659 198.179 441.258 198.091 441.91 197.721C443.25 196.945 444.396 195.183 444.396 193.861L444.413 178.543C444.413 178.19 444.343 177.732 443.973 177.52C443.603 177.309 443.003 177.397 442.351 177.767C441.011 178.543 439.883 180.305 439.866 181.627L439.848 196.945C439.848 197.175 439.883 197.457 440.007 197.668C440.077 197.792 440.165 197.897 440.289 197.968Z" fill="black"/>
<path d="M274.665 16.7258L274.576 357.44C274.541 366.694 279.177 375.332 286.898 380.443L418.414 456.205C426.081 459.607 435.3 455.817 435.353 447.144L435.6 107.629C435.635 98.5332 431.105 90.0193 423.508 84.9956L292.115 9.18141C282.544 3.8404 275.211 8.68785 274.665 16.7258Z" fill="white"/>
<path d="M434.013 109.003L433.767 448.519C433.749 452.238 432.092 455.358 429.078 457.297C425.482 459.624 420.564 459.871 416.21 457.932L284.677 382.153C276.815 376.971 272.144 368.228 272.179 358.815L272.267 18.1005V18.0652C272.531 14.0286 274.47 10.75 277.555 9.07543C281.081 7.1717 285.611 7.55949 290.317 10.2036L421.727 86.0177C425.341 88.415 428.267 91.5703 430.365 95.1838C432.744 99.3438 434.031 104.086 434.013 109.003ZM273.007 358.815C272.972 367.963 277.502 376.424 285.117 381.448L416.598 457.192C420.67 459.007 425.288 458.778 428.637 456.592C431.405 454.812 432.92 451.939 432.938 448.501L433.185 108.986C433.238 99.996 428.778 91.676 421.304 86.7228L289.929 10.9086C285.487 8.42322 281.239 8.0178 277.961 9.78051C275.123 11.3141 273.36 14.3459 273.095 18.1005L273.007 358.815Z" fill="black"/>
<path d="M414.324 447.25L287.479 373.586C282.068 370.008 278.824 363.962 278.842 357.475L278.895 39.3411C279.265 33.7005 284.412 30.2984 291.11 34.053L417.867 107.752C423.19 111.277 426.363 117.235 426.345 123.599L426.187 440.887C426.169 446.968 419.4 450.581 414.324 447.25Z" fill="#DDDDDD"/>
<path d="M335.23 46.3743L335.072 46.2862C334.226 45.7926 333.556 46.3038 333.538 47.4319C333.538 48.5601 334.208 49.8645 335.054 50.3404L335.213 50.4286C336.059 50.9221 336.729 50.4109 336.746 49.2828C336.746 48.1723 336.076 46.8679 335.23 46.3743Z" fill="#939393"/>
<path d="M369.022 66.1165L339.972 49.1592C339.126 48.6657 338.456 49.1769 338.438 50.305C338.438 51.4331 339.108 52.7375 339.954 53.2135L369.004 70.1707C369.85 70.6643 370.52 70.1531 370.537 69.025C370.537 67.8968 369.868 66.5924 369.022 66.1165Z" fill="#939393"/>
<path d="M335.936 50.0057C335.936 50.746 335.672 51.3277 335.196 51.5921C334.79 51.8213 334.279 51.8036 333.786 51.504L333.627 51.4158C332.657 50.8518 331.917 49.4063 331.917 48.1372C331.917 47.3969 332.181 46.8152 332.657 46.5508C333.063 46.3216 333.574 46.3392 334.068 46.6389L334.226 46.727C334.667 46.9914 335.055 47.4145 335.354 47.9433C335.707 48.5602 335.936 49.3182 335.936 50.0057ZM334.032 50.6931L334.191 50.7813C334.332 50.8518 334.579 50.9752 334.773 50.8694C334.967 50.746 335.09 50.4287 335.09 49.988C335.09 49.0186 334.508 47.8375 333.786 47.4321L333.627 47.344C333.486 47.2735 333.239 47.1501 333.045 47.2558C332.851 47.3792 332.728 47.6965 332.728 48.1372C332.728 48.6836 332.904 49.283 333.204 49.7941C333.433 50.1819 333.715 50.5169 334.032 50.6931Z" fill="black"/>
<path d="M369.727 69.7303C369.727 70.4706 369.463 71.0523 368.987 71.3167C368.581 71.5459 368.07 71.5282 367.577 71.2286L338.527 54.2713C337.558 53.7072 336.8 52.2618 336.817 50.9927C336.817 50.2523 337.082 49.6706 337.558 49.4062C337.963 49.1771 338.474 49.1947 338.968 49.4944L368.017 66.4516C368.458 66.716 368.846 67.1391 369.145 67.6679C369.516 68.3025 369.727 69.0428 369.727 69.7303ZM338.932 53.5662L367.982 70.5235C368.123 70.6116 368.37 70.7174 368.564 70.6116C368.758 70.4882 368.881 70.1709 368.881 69.7303C368.881 68.7608 368.282 67.5798 367.577 67.1743L338.509 50.2171C338.368 50.1466 338.122 50.0232 337.928 50.1289C337.734 50.2523 337.61 50.5696 337.61 51.0103C337.61 51.5567 337.787 52.1561 338.086 52.6672C338.333 53.0374 338.633 53.3723 338.932 53.5662Z" fill="black"/>
<path d="M432.357 85.7537C432.973 86.1062 432.973 86.6703 432.357 87.0228C431.74 87.3754 430.752 87.3754 430.153 87.0228C429.536 86.6703 429.536 86.1062 430.153 85.7537C430.752 85.4011 431.74 85.4011 432.357 85.7537Z" fill="black"/>
<path d="M426.592 82.4221C427.209 82.7747 427.209 83.3387 426.592 83.6913C425.975 84.0438 424.988 84.0438 424.389 83.6913C423.772 83.3387 423.772 82.7747 424.389 82.4221C424.988 82.0696 425.975 82.0696 426.592 82.4221Z" fill="black"/>
<path d="M420.828 79.0906C421.445 79.4431 421.445 80.0072 420.828 80.3597C420.211 80.7123 419.224 80.7123 418.625 80.3597C418.008 80.0072 418.008 79.4431 418.625 79.0906C419.224 78.738 420.211 78.738 420.828 79.0906Z" fill="black"/>
<path d="M412.861 77.0458C412.244 76.6932 412.244 76.1292 412.861 75.7766C413.478 75.4241 414.465 75.4241 415.064 75.7766C415.681 76.1292 415.681 76.6932 415.064 77.0458C414.447 77.3983 413.46 77.3983 412.861 77.0458C412.244 76.6932 413.46 77.3983 412.861 77.0458Z" fill="black"/>
<path d="M409.247 72.4099C409.864 72.7625 409.864 73.3265 409.247 73.6791C408.63 74.0316 407.643 74.0316 407.044 73.6791C406.427 73.3265 406.427 72.7625 407.044 72.4099C407.643 72.0574 408.63 72.0574 409.247 72.4099Z" fill="black"/>
<path d="M403.483 69.0784C404.1 69.4309 404.1 69.995 403.483 70.3475C402.867 70.7001 401.879 70.7001 401.28 70.3475C400.663 69.995 400.663 69.4309 401.28 69.0784C401.879 68.7258 402.867 68.7258 403.483 69.0784Z" fill="black"/>
<path d="M397.719 65.7468C398.336 66.0994 398.336 66.6634 397.719 67.016C397.102 67.3685 396.115 67.3685 395.516 67.016C394.899 66.6634 394.899 66.0994 395.516 65.7468C396.115 65.3943 397.102 65.3943 397.719 65.7468Z" fill="black"/>
<path d="M391.955 62.4329C392.572 62.7854 392.572 63.3495 391.955 63.702C391.338 64.0546 390.351 64.0546 389.752 63.702C389.135 63.3495 389.135 62.7854 389.752 62.4329C390.351 62.0803 391.338 62.0803 391.955 62.4329Z" fill="black"/>
<path d="M291.692 213.85L291.604 231.036C291.551 240.308 298.02 251.66 306.041 256.349L319.472 264.21L319.437 270.151L306.005 262.289C295.182 255.961 286.422 240.59 286.492 228.057L286.58 210.871L291.692 213.85Z" fill="black"/>
<path d="M410.71 213.814L410.851 196.663C410.922 187.409 404.47 176.039 396.468 171.315L383.036 163.418L383.089 157.496L396.52 165.393C407.343 171.756 416.086 187.144 415.981 199.66L415.84 216.811L410.71 213.814Z" fill="black"/>
<path d="M381.114 299.694L395.956 308.26C403.959 312.879 410.481 309.071 410.481 299.782V284.164L415.611 287.125V302.743C415.611 315.329 406.797 320.476 395.956 314.218L381.114 305.652V299.694Z" fill="black"/>
<path d="M321.218 127.248L306.376 118.628C298.373 113.974 291.833 117.747 291.798 127.036L291.763 142.618L286.633 139.639L286.669 124.057C286.704 111.489 295.553 106.395 306.376 112.688L321.218 121.307V127.248Z" fill="black"/>
<path d="M271.209 220.953L271.103 240.29C271.05 250.725 278.33 263.505 287.338 268.776L302.462 277.607L302.427 284.287L287.303 275.456C275.122 268.335 265.269 251.043 265.339 236.923L265.445 217.586L271.209 220.953Z" fill="white"/>
<path d="M405.122 220.918L405.281 201.617C405.369 191.199 398.107 178.402 389.099 173.096L373.975 164.194L374.028 157.531L389.152 166.433C401.332 173.607 411.168 190.899 411.045 205.001L410.886 224.303L405.122 220.918Z" fill="white"/>
<path d="M371.824 317.55L388.517 327.192C397.525 332.392 404.857 328.109 404.857 317.638V300.064L410.621 303.395V320.97C410.621 335.124 400.697 340.924 388.517 333.89L371.824 324.248V317.55Z" fill="white"/>
<path d="M304.436 123.511L287.743 113.816C278.736 108.581 271.385 112.829 271.35 123.282L271.297 140.821L265.533 137.471L265.586 119.932C265.621 105.796 275.581 100.049 287.761 107.135L304.454 116.83L304.436 123.511Z" fill="white"/>
<path d="M391.109 359.766L312.862 314.13C305.335 309.776 299.219 314.377 299.219 324.424C299.201 334.472 305.3 346.141 312.827 350.495L391.074 396.131C398.6 400.485 404.717 395.884 404.717 385.837C404.735 375.807 398.636 364.138 391.109 359.766Z" fill="white"/>
<path d="M400.805 388.464C400.805 393.981 398.954 398.211 395.746 400.045C393.066 401.596 389.664 401.331 386.174 399.322L307.927 353.685C300.224 349.226 293.984 337.274 294.002 327.051C294.002 321.533 295.853 317.303 299.061 315.47C301.74 313.919 305.142 314.183 308.632 316.192L386.879 361.829C390.369 363.856 393.56 367.417 396.01 371.665C398.954 376.777 400.805 382.876 400.805 388.464ZM307.98 317.321C304.913 315.54 301.969 315.293 299.713 316.598C296.928 318.202 295.324 322.009 295.306 327.051C295.289 336.869 301.247 348.309 308.58 352.557L386.826 398.194C389.893 399.974 392.837 400.221 395.093 398.916C397.879 397.312 399.483 393.505 399.5 388.464C399.518 378.645 393.56 367.205 386.227 362.957L307.98 317.321Z" fill="black"/>
<path d="M312.351 344.414C311.963 344.184 311.752 343.832 311.752 343.373V329.378C311.752 328.919 311.963 328.814 312.351 329.043L318.327 332.498C318.715 332.727 318.926 333.079 318.926 333.538V333.661C318.926 334.119 318.715 334.225 318.327 334.014L313.109 330.999V335.3L317.904 338.068C318.292 338.297 318.503 338.649 318.503 339.108V339.231C318.503 339.689 318.292 339.795 317.904 339.566L313.109 336.799V344.167C313.109 344.625 312.898 344.731 312.51 344.519L312.351 344.414Z" fill="black"/>
<path d="M333.645 348.908C333.645 353.298 330.525 355.078 326.717 352.874C322.892 350.671 319.79 345.295 319.79 340.906C319.79 336.693 322.91 334.912 326.717 337.116C330.525 339.319 333.645 344.695 333.645 348.908ZM332.235 348.097C332.235 344.713 329.785 340.465 326.717 338.702C323.633 336.922 321.2 338.35 321.2 341.734C321.2 345.295 323.633 349.543 326.717 351.306C329.785 353.086 332.235 351.641 332.235 348.097Z" fill="black"/>
<path d="M336.394 358.286C336.006 358.057 335.795 357.704 335.795 357.246V343.25C335.795 342.792 336.006 342.686 336.394 342.897L336.571 342.986C336.958 343.215 337.17 343.567 337.17 344.026V357.193L342.705 360.384C343.093 360.613 343.304 360.965 343.304 361.424V361.547C343.304 362.005 343.093 362.111 342.705 361.899L336.394 358.286Z" fill="black"/>
<path d="M345.949 363.803C345.561 363.574 345.35 363.221 345.35 362.763V348.767C345.35 348.309 345.561 348.203 345.949 348.432L346.125 348.52C346.513 348.75 346.725 349.102 346.725 349.56V362.728L352.259 365.918C352.647 366.148 352.859 366.5 352.859 366.958V367.082C352.859 367.54 352.647 367.646 352.259 367.417L345.949 363.803Z" fill="black"/>
<path d="M366.996 368.157C366.996 372.547 363.876 374.327 360.068 372.123C356.243 369.92 353.141 364.544 353.141 360.155C353.141 355.942 356.261 354.161 360.068 356.365C363.876 358.568 366.996 363.944 366.996 368.157ZM365.568 367.347C365.568 363.962 363.135 359.714 360.05 357.934C356.983 356.153 354.533 357.581 354.533 360.966C354.533 364.526 356.983 368.774 360.05 370.537C363.135 372.335 365.568 370.89 365.568 367.347Z" fill="black"/>
<path d="M372.16 378.945C371.808 378.734 371.578 378.434 371.473 377.993L367.418 361.618C367.295 361.071 367.471 360.877 367.894 361.124L368.018 361.195C368.37 361.406 368.6 361.706 368.705 362.147L372.319 376.689L375.915 366.307C376.021 365.989 376.25 365.936 376.602 366.148L376.919 366.324C377.272 366.536 377.501 366.835 377.607 367.276L381.22 381.818L384.816 371.436C384.922 371.119 385.151 371.066 385.504 371.277L385.627 371.348C386.05 371.595 386.244 372 386.121 372.406L382.049 384.092C381.943 384.41 381.714 384.462 381.362 384.251L381.044 384.075C380.692 383.863 380.463 383.564 380.357 383.123L376.761 368.58L373.147 378.945C373.042 379.263 372.812 379.315 372.46 379.104L372.16 378.945Z" fill="black"/>
<path d="M335.848 229.255L362.183 214.008C337.787 199.959 298.161 199.994 273.836 214.078L266.608 226.77V248.592L300.241 229.29C310.059 223.615 326.029 223.597 335.848 229.255Z" fill="#939393"/>
<path d="M265.851 249.914V226.576L273.272 213.532L273.448 213.426C297.985 199.219 337.963 199.183 362.553 213.356L363.699 214.026L335.83 230.154L335.442 229.943C325.818 224.408 310.2 224.426 300.611 229.978L265.851 249.914ZM267.384 226.981V247.27L299.871 228.621C309.76 222.892 325.783 222.821 335.848 228.374L360.649 214.026C336.447 200.788 298.161 201.017 274.417 214.642L267.384 226.981Z" fill="black"/>
<path d="M340.783 205.97L335.848 207.45V229.255L362.183 214.008C355.907 210.394 348.592 207.715 340.783 205.97Z" fill="#939393"/>
<path d="M335.09 230.577V206.869L340.766 205.177L340.96 205.212C349.121 207.045 356.401 209.777 362.57 213.338L363.716 214.008L335.09 230.577ZM336.623 208.015V227.933L360.649 214.026C354.903 210.888 348.257 208.455 340.819 206.763L336.623 208.015Z" fill="black"/>
<path d="M380.426 239.215L380.444 217.745L374.891 214.061L368.881 218.679C366.889 217.058 364.65 215.524 362.129 214.061L335.795 229.308C340.219 231.847 342.634 235.125 343.092 238.457L333.503 245.807L335.742 250.056L328.532 262.606L328.62 284.376L362.253 265.074C374.098 258.217 380.144 249.28 380.426 240.29L380.444 240.273V239.938C380.426 239.708 380.426 239.462 380.426 239.215Z" fill="#DDDDDD"/>
<path d="M327.827 285.697L327.739 262.394L334.843 250.02L332.499 245.578L342.229 238.122C341.647 235.055 339.232 232.181 335.389 229.96L334.244 229.291L362.112 213.162L362.5 213.373C364.774 214.678 366.907 216.123 368.881 217.674L374.857 213.091L381.22 217.304L381.202 239.179C381.202 239.426 381.202 239.691 381.202 239.937L381.185 240.642C380.726 250.161 374.151 259.045 362.641 265.708L327.827 285.697ZM329.273 262.8L329.361 283.053L361.865 264.404C373.041 257.935 379.369 249.368 379.651 240.255L379.669 239.92C379.669 239.673 379.669 239.444 379.669 239.232L379.686 218.168L374.927 215.013L368.863 219.666L368.387 219.278C366.466 217.727 364.351 216.264 362.112 214.96L337.276 229.344C341.065 231.811 343.375 234.984 343.833 238.369L343.886 238.809L334.473 246.036L336.606 250.073L329.273 262.8Z" fill="black"/>
<path d="M335.83 228.057L278.842 260.772C278.771 260.808 278.771 260.896 278.842 260.931L305.053 276.02C305.089 276.038 305.124 276.038 305.142 276.02L362.236 243.251C386.561 229.167 386.508 206.287 362.112 192.238L335.777 207.486C345.613 213.162 345.631 222.381 335.83 228.057Z" fill="#FFCA41"/>
<path d="M305.159 276.901L304.683 276.707L278.066 261.389L278.013 260.42L278.454 260.103L335.442 227.387C339.937 224.796 342.405 221.376 342.405 217.78C342.405 214.166 339.92 210.764 335.407 208.156L334.261 207.486L362.13 191.357L362.518 191.568C374.574 198.514 381.22 207.803 381.22 217.745C381.237 227.669 374.627 236.958 362.623 243.903L305.159 276.901ZM280.217 260.861L305.088 275.174L361.848 242.581C373.358 235.918 379.686 227.105 379.669 217.762C379.651 208.49 373.429 199.765 362.112 193.137L337.275 207.521C341.577 210.324 343.921 213.937 343.939 217.78C343.939 221.94 341.206 225.836 336.218 228.709L280.217 260.861Z" fill="black"/>
<path d="M335.848 207.451L362.183 192.203C337.787 178.154 298.161 178.19 273.836 192.274L217.024 224.884C216.883 224.972 216.883 225.166 217.024 225.254L243.006 240.219C243.077 240.255 243.147 240.255 243.218 240.219L300.259 207.468C310.06 201.792 326.03 201.792 335.848 207.451Z" fill="#FFCA41"/>
<path d="M243.112 241.013C242.936 241.013 242.777 240.977 242.619 240.889L216.636 225.924C216.336 225.748 216.143 225.413 216.143 225.078C216.143 224.725 216.336 224.408 216.636 224.232L273.466 191.604C298.003 177.396 337.981 177.361 362.571 191.533L363.717 192.203L335.848 208.332L335.46 208.121C325.854 202.586 310.218 202.603 300.629 208.138L243.588 240.889C243.447 240.96 243.288 241.013 243.112 241.013ZM218.24 225.078L243.112 239.391L299.871 206.798C309.76 201.07 325.783 200.999 335.848 206.552L360.65 192.203C336.395 178.948 297.968 179.194 274.241 192.926L218.24 225.078Z" fill="black"/>
<path d="M328.497 262.606L302.162 247.358L278.895 260.72C278.824 260.755 278.824 260.843 278.895 260.878L305.106 275.967C305.141 275.985 305.177 275.985 305.194 275.967L328.497 262.606Z" fill="#FFCA41"/>
<path d="M305.212 276.866L304.736 276.637L278.154 261.337L278.102 260.367L278.525 260.067L302.18 246.495L330.049 262.623L305.212 276.866ZM280.305 260.79L305.177 275.103L326.982 262.588L302.18 248.222L280.305 260.79Z" fill="black"/>
<path d="M217.025 225.254L243.007 240.219C243.077 240.255 243.148 240.255 243.218 240.219L266.627 226.787L240.292 211.54L217.042 224.884C216.884 224.954 216.884 225.166 217.025 225.254Z" fill="#FFCA41"/>
<path d="M243.112 240.995C242.936 240.995 242.777 240.96 242.619 240.872L216.636 225.906C216.336 225.73 216.143 225.395 216.143 225.06C216.143 224.708 216.336 224.39 216.636 224.214L240.274 210.641L268.143 226.77L243.588 240.872C243.447 240.96 243.288 240.995 243.112 240.995ZM218.24 225.06L243.112 239.373L265.093 226.752L240.292 212.386L218.24 225.06Z" fill="black"/>
<path d="M216.706 225.431V246.759C216.706 246.83 216.741 246.9 216.812 246.953L242.794 261.919C242.935 262.007 243.111 261.901 243.111 261.725V240.396C243.111 240.325 243.076 240.255 243.006 240.202L217.023 225.237C216.882 225.166 216.706 225.272 216.706 225.431Z" fill="white"/>
<path d="M242.9 262.694C242.724 262.694 242.565 262.659 242.407 262.571L216.424 247.605C216.125 247.429 215.931 247.112 215.931 246.759V225.43C215.931 225.078 216.125 224.761 216.424 224.584C216.724 224.408 217.094 224.408 217.411 224.584L243.394 239.55C243.693 239.726 243.887 240.043 243.887 240.396V261.725C243.887 262.077 243.693 262.394 243.394 262.571C243.235 262.659 243.076 262.694 242.9 262.694ZM217.464 246.442L242.336 260.773V240.713L217.464 226.382V246.442Z" fill="black"/>
<path d="M266.626 226.77V248.592L243.446 261.901C243.305 261.989 243.129 261.883 243.129 261.707V240.378C243.129 240.308 243.164 240.237 243.235 240.184L266.626 226.77Z" fill="#DDDDDD"/>
<path d="M243.323 262.694C243.147 262.694 242.988 262.659 242.829 262.571C242.53 262.395 242.336 262.077 242.336 261.725V240.396C242.336 240.043 242.53 239.726 242.829 239.55L267.366 225.466V249.051L243.799 262.589C243.658 262.659 243.499 262.694 243.323 262.694ZM243.869 240.713V260.773L265.85 248.152V228.092L243.869 240.713Z" fill="black"/>
<path d="M278.683 261.019V282.612C278.683 282.648 278.7 282.683 278.735 282.7L304.947 297.789C305.017 297.825 305.088 297.772 305.088 297.701V276.108C305.088 276.073 305.07 276.037 305.035 276.02L278.824 260.931C278.753 260.896 278.683 260.931 278.683 261.019Z" fill="white"/>
<path d="M305.053 298.671L304.577 298.459L277.96 283.141L277.907 282.613V260.579L278.718 260.05L279.194 260.261L305.793 275.579L305.846 276.108V298.142L305.053 298.671ZM279.441 282.225L304.313 296.556V276.496L279.441 262.165V282.225Z" fill="black"/>
<path d="M328.586 262.553V284.376L305.23 297.79C305.159 297.825 305.089 297.772 305.089 297.702V276.108C305.089 276.073 305.107 276.038 305.142 276.02L328.586 262.553Z" fill="#DDDDDD"/>
<path d="M305.23 298.671L304.366 298.23L304.313 297.701V275.668L304.737 275.368L329.362 261.231V284.816L305.23 298.671ZM305.847 276.496V296.556L327.828 283.935V263.875L305.847 276.496Z" fill="black"/>
<path d="M329.749 256.789C330.366 257.141 330.366 257.705 329.749 258.058C329.132 258.411 328.145 258.411 327.546 258.058C326.929 257.705 326.929 257.141 327.546 256.789C328.163 256.436 329.15 256.436 329.749 256.789Z" fill="white"/>
<path d="M335.513 253.457C336.13 253.81 336.13 254.374 335.513 254.726C334.896 255.079 333.909 255.079 333.309 254.726C332.692 254.374 332.692 253.81 333.309 253.457C333.926 253.105 334.913 253.105 335.513 253.457Z" fill="white"/>
<path d="M341.277 250.126C341.894 250.478 341.894 251.042 341.277 251.395C340.66 251.747 339.673 251.747 339.074 251.395C338.457 251.042 338.457 250.478 339.074 250.126C339.691 249.791 340.678 249.791 341.277 250.126Z" fill="white"/>
<path d="M345.949 248.345C346.805 248.345 347.5 247.943 347.5 247.446C347.5 246.95 346.805 246.547 345.949 246.547C345.092 246.547 344.397 246.95 344.397 247.446C344.397 247.943 345.092 248.345 345.949 248.345Z" fill="white"/>
<path d="M352.805 243.48C353.422 243.833 353.422 244.397 352.805 244.749C352.188 245.102 351.201 245.102 350.601 244.749C349.984 244.397 349.984 243.833 350.601 243.48C351.218 243.128 352.205 243.128 352.805 243.48Z" fill="white"/>
<path d="M358.569 240.149C359.186 240.501 359.186 241.065 358.569 241.418C357.952 241.77 356.965 241.77 356.366 241.418C355.749 241.065 355.749 240.501 356.366 240.149C356.983 239.796 357.97 239.796 358.569 240.149Z" fill="white"/>
<path d="M364.333 236.835C364.95 237.187 364.95 237.751 364.333 238.104C363.716 238.456 362.729 238.456 362.13 238.104C361.513 237.751 361.513 237.187 362.13 236.835C362.747 236.482 363.734 236.482 364.333 236.835Z" fill="white"/>
<path d="M369.004 235.037C369.861 235.037 370.556 234.634 370.556 234.138C370.556 233.641 369.861 233.239 369.004 233.239C368.148 233.239 367.453 233.641 367.453 234.138C367.453 234.634 368.148 235.037 369.004 235.037Z" fill="white"/>
<path d="M375.861 230.172C376.478 230.524 376.478 231.088 375.861 231.441C375.244 231.793 374.257 231.793 373.658 231.441C373.041 231.088 373.041 230.524 373.658 230.172C374.275 229.819 375.262 229.819 375.861 230.172Z" fill="white"/>
<path d="M323.985 253.457C324.602 253.81 324.602 254.374 323.985 254.726C323.368 255.079 322.381 255.079 321.782 254.726C321.165 254.374 321.165 253.81 321.782 253.457C322.399 253.105 323.386 253.105 323.985 253.457Z" fill="white"/>
<path d="M329.749 250.126C330.366 250.478 330.366 251.042 329.749 251.395C329.132 251.747 328.145 251.747 327.546 251.395C326.929 251.042 326.929 250.478 327.546 250.126C328.163 249.791 329.15 249.791 329.749 250.126Z" fill="white"/>
<path d="M334.42 248.345C335.277 248.345 335.972 247.943 335.972 247.446C335.972 246.95 335.277 246.547 334.42 246.547C333.564 246.547 332.869 246.95 332.869 247.446C332.869 247.943 333.564 248.345 334.42 248.345Z" fill="white"/>
<path d="M341.277 243.48C341.894 243.833 341.894 244.397 341.277 244.749C340.66 245.102 339.673 245.102 339.074 244.749C338.457 244.397 338.457 243.833 339.074 243.48C339.691 243.128 340.678 243.128 341.277 243.48Z" fill="white"/>
<path d="M347.041 240.149C347.658 240.501 347.658 241.065 347.041 241.418C346.424 241.77 345.437 241.77 344.838 241.418C344.221 241.065 344.221 240.501 344.838 240.149C345.455 239.796 346.442 239.796 347.041 240.149Z" fill="white"/>
<path d="M352.805 236.835C353.422 237.187 353.422 237.751 352.805 238.104C352.188 238.456 351.201 238.456 350.601 238.104C349.984 237.751 349.984 237.187 350.601 236.835C351.218 236.482 352.205 236.482 352.805 236.835Z" fill="white"/>
<path d="M358.569 233.503C359.186 233.856 359.186 234.42 358.569 234.772C357.952 235.125 356.965 235.125 356.366 234.772C355.749 234.42 355.749 233.856 356.366 233.503C356.983 233.151 357.97 233.151 358.569 233.503Z" fill="white"/>
<path d="M364.333 230.172C364.95 230.524 364.95 231.088 364.333 231.441C363.716 231.793 362.729 231.793 362.13 231.441C361.513 231.088 361.513 230.524 362.13 230.172C362.747 229.819 363.734 229.819 364.333 230.172Z" fill="white"/>
<path d="M370.097 226.841C370.714 227.193 370.714 227.757 370.097 228.11C369.48 228.462 368.493 228.462 367.894 228.11C367.277 227.757 367.277 227.193 367.894 226.841C368.511 226.488 369.498 226.488 370.097 226.841Z" fill="white"/>
<path d="M374.768 225.06C375.625 225.06 376.32 224.658 376.32 224.161C376.32 223.665 375.625 223.262 374.768 223.262C373.912 223.262 373.217 223.665 373.217 224.161C373.217 224.658 373.912 225.06 374.768 225.06Z" fill="white"/>
<path d="M318.221 250.126C318.838 250.478 318.838 251.042 318.221 251.395C317.604 251.747 316.617 251.747 316.017 251.395C315.4 251.042 315.4 250.478 316.017 250.126C316.634 249.791 317.621 249.791 318.221 250.126Z" fill="white"/>
<path d="M323.985 246.812C324.602 247.164 324.602 247.728 323.985 248.081C323.368 248.433 322.381 248.433 321.782 248.081C321.165 247.728 321.165 247.164 321.782 246.812C322.399 246.459 323.386 246.459 323.985 246.812Z" fill="white"/>
<path d="M329.749 243.48C330.366 243.833 330.366 244.397 329.749 244.749C329.132 245.102 328.145 245.102 327.546 244.749C326.929 244.397 326.929 243.833 327.546 243.48C328.163 243.128 329.15 243.128 329.749 243.48Z" fill="white"/>
<path d="M335.513 240.149C336.13 240.501 336.13 241.065 335.513 241.418C334.896 241.77 333.909 241.77 333.309 241.418C332.692 241.065 332.692 240.501 333.309 240.149C333.926 239.796 334.913 239.796 335.513 240.149Z" fill="white"/>
<path d="M341.277 236.835C341.894 237.187 341.894 237.751 341.277 238.104C340.66 238.456 339.673 238.456 339.074 238.104C338.457 237.751 338.457 237.187 339.074 236.835C339.691 236.482 340.678 236.482 341.277 236.835Z" fill="white"/>
<path d="M347.041 233.503C347.658 233.856 347.658 234.42 347.041 234.772C346.424 235.125 345.437 235.125 344.838 234.772C344.221 234.42 344.221 233.856 344.838 233.503C345.455 233.151 346.442 233.151 347.041 233.503Z" fill="white"/>
<path d="M352.805 230.172C353.422 230.524 353.422 231.088 352.805 231.441C352.188 231.793 351.201 231.793 350.601 231.441C349.984 231.088 349.984 230.524 350.601 230.172C351.218 229.819 352.205 229.819 352.805 230.172Z" fill="white"/>
<path d="M358.569 226.841C359.186 227.193 359.186 227.757 358.569 228.11C357.952 228.462 356.965 228.462 356.366 228.11C355.749 227.757 355.749 227.193 356.366 226.841C356.983 226.488 357.97 226.488 358.569 226.841Z" fill="white"/>
<path d="M364.333 223.527C364.95 223.879 364.95 224.443 364.333 224.796C363.716 225.148 362.729 225.148 362.13 224.796C361.513 224.443 361.513 223.879 362.13 223.527C362.747 223.174 363.734 223.174 364.333 223.527Z" fill="white"/>
<path d="M370.097 220.195C370.714 220.548 370.714 221.112 370.097 221.464C369.48 221.817 368.493 221.817 367.894 221.464C367.277 221.112 367.277 220.548 367.894 220.195C368.511 219.843 369.498 219.843 370.097 220.195Z" fill="white"/>
<path d="M375.861 216.864C376.478 217.216 376.478 217.78 375.861 218.133C375.244 218.485 374.257 218.485 373.658 218.133C373.041 217.78 373.041 217.216 373.658 216.864C374.275 216.511 375.262 216.511 375.861 216.864Z" fill="white"/>
<path d="M312.421 246.777C313.038 247.129 313.038 247.693 312.421 248.046C311.805 248.398 310.817 248.398 310.218 248.046C309.601 247.693 309.601 247.129 310.218 246.777C310.817 246.424 311.805 246.424 312.421 246.777Z" fill="white"/>
<path d="M318.186 243.445C318.803 243.798 318.803 244.362 318.186 244.714C317.569 245.067 316.582 245.067 315.982 244.714C315.365 244.362 315.365 243.798 315.982 243.445C316.582 243.093 317.569 243.093 318.186 243.445Z" fill="white"/>
<path d="M323.95 240.114C324.567 240.466 324.567 241.03 323.95 241.383C323.333 241.735 322.346 241.735 321.746 241.383C321.129 241.03 321.129 240.466 321.746 240.114C322.346 239.761 323.333 239.761 323.95 240.114Z" fill="white"/>
<path d="M329.714 236.8C330.331 237.152 330.331 237.716 329.714 238.069C329.097 238.421 328.11 238.421 327.511 238.069C326.894 237.716 326.894 237.152 327.511 236.8C328.11 236.447 329.097 236.447 329.714 236.8Z" fill="white"/>
<path d="M335.478 233.468C336.095 233.821 336.095 234.385 335.478 234.737C334.861 235.09 333.874 235.09 333.274 234.737C332.657 234.385 332.657 233.821 333.274 233.468C333.874 233.115 334.861 233.115 335.478 233.468Z" fill="white"/>
<path d="M341.225 230.136C341.842 230.489 341.842 231.053 341.225 231.406C340.608 231.758 339.621 231.758 339.021 231.406C338.404 231.053 338.404 230.489 339.021 230.136C339.638 229.784 340.625 229.784 341.225 230.136Z" fill="white"/>
<path d="M346.988 226.805C347.605 227.157 347.605 227.722 346.988 228.074C346.371 228.427 345.384 228.427 344.785 228.074C344.168 227.722 344.168 227.157 344.785 226.805C345.402 226.47 346.389 226.47 346.988 226.805Z" fill="white"/>
<path d="M352.752 223.491C353.369 223.844 353.369 224.408 352.752 224.76C352.135 225.113 351.148 225.113 350.549 224.76C349.932 224.408 349.932 223.844 350.549 223.491C351.166 223.138 352.153 223.138 352.752 223.491Z" fill="white"/>
<path d="M357.423 221.693C358.28 221.693 358.974 221.29 358.974 220.794C358.974 220.297 358.28 219.895 357.423 219.895C356.567 219.895 355.872 220.297 355.872 220.794C355.872 221.29 356.567 221.693 357.423 221.693Z" fill="white"/>
<path d="M364.28 216.828C364.897 217.181 364.897 217.745 364.28 218.098C363.663 218.45 362.676 218.45 362.077 218.098C361.46 217.745 361.46 217.181 362.077 216.828C362.694 216.476 363.681 216.476 364.28 216.828Z" fill="white"/>
<path d="M370.044 213.514C370.661 213.867 370.661 214.431 370.044 214.784C369.427 215.136 368.44 215.136 367.841 214.784C367.224 214.431 367.224 213.867 367.841 213.514C368.458 213.162 369.445 213.162 370.044 213.514Z" fill="white"/>
<path d="M375.809 210.183C376.426 210.535 376.426 211.099 375.809 211.452C375.192 211.805 374.205 211.805 373.605 211.452C372.988 211.099 372.988 210.535 373.605 210.183C374.222 209.83 375.209 209.83 375.809 210.183Z" fill="white"/>
<path d="M346.988 220.159C347.605 220.512 347.605 221.076 346.988 221.429C346.371 221.781 345.384 221.781 344.785 221.429C344.168 221.076 344.168 220.512 344.785 220.159C345.402 219.807 346.389 219.807 346.988 220.159Z" fill="white"/>
<path d="M352.752 216.828C353.369 217.181 353.369 217.745 352.752 218.098C352.135 218.45 351.148 218.45 350.549 218.098C349.932 217.745 349.932 217.181 350.549 216.828C351.166 216.476 352.153 216.476 352.752 216.828Z" fill="white"/>
<path d="M358.516 213.514C359.133 213.867 359.133 214.431 358.516 214.784C357.899 215.136 356.912 215.136 356.313 214.784C355.696 214.431 355.696 213.867 356.313 213.514C356.93 213.162 357.917 213.162 358.516 213.514Z" fill="white"/>
<path d="M364.28 210.183C364.897 210.535 364.897 211.099 364.28 211.452C363.663 211.805 362.676 211.805 362.077 211.452C361.46 211.099 361.46 210.535 362.077 210.183C362.694 209.83 363.681 209.83 364.28 210.183Z" fill="white"/>
<path d="M370.044 206.851C370.661 207.204 370.661 207.768 370.044 208.12C369.427 208.473 368.44 208.473 367.841 208.12C367.224 207.768 367.224 207.204 367.841 206.851C368.458 206.499 369.445 206.499 370.044 206.851Z" fill="white"/>
<path d="M375.809 203.52C376.426 203.872 376.426 204.436 375.809 204.789C375.192 205.141 374.205 205.141 373.605 204.789C372.988 204.436 372.988 203.872 373.605 203.52C374.222 203.167 375.209 203.167 375.809 203.52Z" fill="white"/>
<path d="M346.988 213.514C347.605 213.867 347.605 214.431 346.988 214.784C346.371 215.136 345.384 215.136 344.785 214.784C344.168 214.431 344.168 213.867 344.785 213.514C345.402 213.162 346.389 213.162 346.988 213.514Z" fill="white"/>
<path d="M352.752 210.183C353.369 210.535 353.369 211.099 352.752 211.452C352.135 211.805 351.148 211.805 350.549 211.452C349.932 211.099 349.932 210.535 350.549 210.183C351.166 209.83 352.153 209.83 352.752 210.183Z" fill="white"/>
<path d="M358.516 206.851C359.133 207.204 359.133 207.768 358.516 208.12C357.899 208.473 356.912 208.473 356.313 208.12C355.696 207.768 355.696 207.204 356.313 206.851C356.93 206.499 357.917 206.499 358.516 206.851Z" fill="white"/>
<path d="M364.28 203.52C364.897 203.872 364.897 204.436 364.28 204.789C363.663 205.141 362.676 205.141 362.077 204.789C361.46 204.436 361.46 203.872 362.077 203.52C362.694 203.167 363.681 203.167 364.28 203.52Z" fill="white"/>
<path d="M370.044 200.206C370.661 200.558 370.661 201.122 370.044 201.475C369.427 201.827 368.44 201.827 367.841 201.475C367.224 201.122 367.224 200.558 367.841 200.206C368.458 199.853 369.445 199.853 370.044 200.206Z" fill="white"/>
<path d="M346.988 206.851C347.605 207.204 347.605 207.768 346.988 208.12C346.371 208.473 345.384 208.473 344.785 208.12C344.168 207.768 344.168 207.204 344.785 206.851C345.402 206.499 346.389 206.499 346.988 206.851Z" fill="white"/>
<path d="M352.752 203.52C353.369 203.872 353.369 204.436 352.752 204.789C352.135 205.141 351.148 205.141 350.549 204.789C349.932 204.436 349.932 203.872 350.549 203.52C351.166 203.167 352.153 203.167 352.752 203.52Z" fill="white"/>
<path d="M358.516 200.206C359.133 200.558 359.133 201.122 358.516 201.475C357.899 201.827 356.912 201.827 356.313 201.475C355.696 201.122 355.696 200.558 356.313 200.206C356.93 199.853 357.917 199.853 358.516 200.206Z" fill="white"/>
<path d="M364.28 196.874C364.897 197.227 364.897 197.791 364.28 198.143C363.663 198.496 362.676 198.496 362.077 198.143C361.46 197.791 361.46 197.227 362.077 196.874C362.694 196.522 363.681 196.522 364.28 196.874Z" fill="white"/>
<path d="M127.795 156.56L117.236 150.32C117.148 150.267 117.06 150.214 116.954 150.161L116.796 150.091C113.059 148.099 108 148.451 102.43 151.677C90.9721 158.287 81.6826 174.381 81.6826 187.619C81.6826 193.753 83.6921 198.16 86.9707 200.504L87.3409 200.769C87.5877 200.927 87.8345 201.068 88.0813 201.209L97.9172 207.044L103.487 197.754C112.935 191.25 120.515 178.488 121.943 166.942L122.683 165.726L127.795 156.56Z" fill="#DDDDDD"/>
<path d="M102.183 151.501C91.7301 157.529 83.1281 171.42 81.665 183.864C81.7532 189.769 83.745 194.053 86.9532 196.344L87.3234 196.609C87.5701 196.767 87.8169 196.908 88.0637 197.049L97.8996 202.884L103.47 193.594C112.918 187.09 120.498 174.328 121.925 162.782L122.666 161.566L126.05 155.52L117.007 150.179C116.919 150.126 116.831 150.073 116.725 150.02L116.549 149.95C112.83 147.923 107.771 148.275 102.183 151.501Z" fill="white"/>
<path d="M98.1112 207.819L87.7993 201.703C87.5526 201.579 87.2881 201.421 87.0414 201.245L86.6536 200.98C83.0753 198.424 81.1187 193.7 81.1187 187.636C81.1187 174.257 90.5492 157.917 102.148 151.219C107.7 148.011 113.006 147.447 117.06 149.615L117.483 149.844L128.536 156.366L122.472 167.136C120.974 178.858 113.359 191.585 103.893 198.16L98.1112 207.819ZM111.649 149.421C108.899 149.421 105.849 150.338 102.694 152.171C91.4129 158.693 82.2292 174.592 82.2292 187.619C82.2292 193.312 84.0271 197.719 87.2881 200.064L87.6583 200.31C87.8698 200.451 88.099 200.592 88.3458 200.716L97.7234 206.286L103.17 197.296C112.46 190.897 119.969 178.382 121.397 166.872L121.467 166.66L122.207 165.444L127.055 156.789L116.567 150.62C115.086 149.809 113.429 149.421 111.649 149.421Z" fill="black"/>
<path d="M128.105 190.423C136.21 176.386 136.212 161.215 128.11 156.537C120.008 151.859 106.87 159.446 98.7659 173.484C90.6613 187.521 90.6592 202.692 98.761 207.37C106.863 212.047 120.001 204.46 128.105 190.423Z" fill="#DDDDDD"/>
<path d="M104.175 209.3C102.095 209.3 100.191 208.807 98.4991 207.837C94.392 205.475 92.1357 200.522 92.1357 193.929C92.1357 180.55 101.566 164.21 113.165 157.512C118.894 154.215 124.288 153.687 128.395 156.066C132.502 158.428 134.758 163.381 134.758 169.974C134.758 183.353 125.328 199.693 113.729 206.392C110.362 208.331 107.119 209.3 104.175 209.3ZM122.719 155.714C119.969 155.714 116.919 156.648 113.729 158.481C102.448 165.003 93.2639 180.903 93.2639 193.929C93.2639 200.116 95.3263 204.717 99.0632 206.885C102.8 209.036 107.806 208.525 113.183 205.44C124.464 198.918 133.648 183.018 133.648 169.992C133.648 163.805 131.585 159.204 127.848 157.036C126.315 156.137 124.587 155.714 122.719 155.714Z" fill="black"/>
<path d="M118.242 189.858L104.792 189.77C103.999 189.77 103.523 189.135 103.523 188.113C103.523 187.09 104.017 185.892 104.81 184.975L118.259 169.481L119.934 172.389L109.005 184.958L119.934 185.028L118.242 189.858Z" fill="#DDDDDD"/>
<path d="M118.647 190.422L104.792 190.334C103.699 190.334 102.959 189.435 102.959 188.113C102.959 186.967 103.505 185.61 104.387 184.605L118.365 168.511L120.621 172.442L110.239 184.393L120.745 184.464L118.647 190.422ZM118.171 170.433L105.233 185.327C104.528 186.138 104.087 187.214 104.087 188.095C104.087 188.43 104.158 189.205 104.81 189.205L117.872 189.294L119.176 185.574L107.789 185.504L119.246 172.301L118.171 170.433Z" fill="black"/>
<path d="M108.388 185.292C108.388 187.919 106.537 191.127 104.263 192.449C101.989 193.771 100.138 192.695 100.138 190.069C100.138 187.443 101.989 184.234 104.263 182.912C106.554 181.59 108.388 182.648 108.388 185.292Z" fill="#DDDDDD"/>
<path d="M102.43 193.559C101.936 193.559 101.478 193.436 101.072 193.207C100.121 192.66 99.5918 191.532 99.5918 190.051C99.5918 187.196 101.531 183.847 103.999 182.419C105.285 181.678 106.519 181.573 107.471 182.137C108.423 182.683 108.952 183.811 108.952 185.292C108.952 188.148 107.013 191.497 104.545 192.925C103.805 193.348 103.082 193.559 102.43 193.559ZM106.114 182.895C105.656 182.895 105.109 183.053 104.545 183.388C102.43 184.622 100.702 187.601 100.702 190.051C100.702 191.109 101.037 191.902 101.637 192.237C102.236 192.59 103.082 192.484 103.999 191.955C106.114 190.721 107.841 187.742 107.841 185.292C107.841 184.234 107.506 183.441 106.907 183.106C106.678 182.965 106.413 182.895 106.114 182.895Z" fill="black"/>
<path d="M123.811 167.542C123.811 170.168 121.961 173.376 119.687 174.698C117.413 176.02 115.562 174.945 115.562 172.319C115.562 169.692 117.413 166.484 119.687 165.162C121.961 163.84 123.811 164.898 123.811 167.542Z" fill="#DDDDDD"/>
<path d="M117.836 175.809C117.342 175.809 116.884 175.685 116.479 175.456C115.527 174.91 114.998 173.782 114.998 172.301C114.998 169.445 116.937 166.096 119.405 164.668C120.692 163.928 121.926 163.822 122.877 164.386C123.829 164.933 124.358 166.061 124.358 167.542C124.358 170.397 122.419 173.746 119.951 175.174C119.229 175.597 118.506 175.809 117.836 175.809ZM121.52 165.144C121.062 165.144 120.515 165.303 119.951 165.638C117.836 166.872 116.109 169.851 116.109 172.301C116.109 173.358 116.443 174.152 117.043 174.487C117.642 174.839 118.471 174.733 119.405 174.205C121.52 172.971 123.248 169.992 123.248 167.542C123.248 166.484 122.913 165.691 122.313 165.356C122.084 165.215 121.82 165.144 121.52 165.144Z" fill="black"/>
<path d="M122.603 189.464C124.214 186.673 124.214 183.658 122.604 182.728C120.994 181.798 118.382 183.307 116.771 186.097C115.16 188.888 115.159 191.904 116.77 192.833C118.38 193.763 120.991 192.254 122.603 189.464Z" fill="#DDDDDD"/>
<path d="M117.835 193.665C117.341 193.665 116.883 193.541 116.478 193.312C115.526 192.766 114.997 191.637 114.997 190.157C114.997 187.301 116.936 183.952 119.404 182.524C120.691 181.784 121.925 181.678 122.876 182.242C123.828 182.789 124.357 183.917 124.357 185.397C124.357 188.253 122.418 191.602 119.95 193.03C119.228 193.453 118.505 193.665 117.835 193.665ZM121.519 183C121.061 183 120.514 183.159 119.95 183.494C117.835 184.728 116.108 187.707 116.108 190.157C116.108 191.214 116.442 192.008 117.042 192.343C117.641 192.695 118.47 192.589 119.404 192.061C121.519 190.827 123.247 187.848 123.247 185.397C123.247 184.34 122.912 183.547 122.312 183.212C122.083 183.071 121.819 183 121.519 183Z" fill="black"/>
<path d="M210.572 377.922L200.33 371.876C200.242 371.823 200.154 371.771 200.066 371.718L199.907 371.647C196.276 369.708 191.376 370.061 185.947 373.198C174.824 379.632 165.799 395.25 165.799 408.1C165.799 414.058 167.755 418.341 170.946 420.615L171.299 420.862C171.528 421.021 171.774 421.162 172.021 421.285L181.557 426.961L186.969 417.936C196.153 411.608 203.503 399.234 204.896 388.005L205.601 386.824L210.572 377.922Z" fill="#DDDDDD"/>
<path d="M185.699 373.004C175.546 378.857 167.191 392.359 165.781 404.434C165.869 410.18 167.79 414.322 170.91 416.543L171.263 416.79C171.492 416.949 171.739 417.09 171.986 417.213L181.522 422.889L186.933 413.864C196.117 407.536 203.468 395.162 204.86 383.933L205.565 382.752L208.861 376.865L200.083 371.682C199.995 371.63 199.907 371.577 199.819 371.524L199.66 371.453C196.046 369.514 191.129 369.867 185.699 373.004Z" fill="white"/>
<path d="M181.751 427.701L171.739 421.761C171.492 421.638 171.246 421.479 170.999 421.32L170.629 421.056C167.156 418.588 165.252 413.97 165.252 408.082C165.252 395.074 174.419 379.209 185.682 372.705C191.076 369.585 196.223 369.038 200.172 371.154L200.595 371.383L211.33 377.728L205.442 388.181C203.979 399.568 196.593 411.925 187.392 418.306L181.751 427.701ZM194.901 370.977C192.24 370.977 189.278 371.876 186.211 373.639C175.247 379.967 166.328 395.408 166.328 408.065C166.328 413.6 168.073 417.883 171.246 420.139L171.598 420.386C171.81 420.527 172.039 420.65 172.268 420.774L181.381 426.185L186.669 417.46C195.694 411.238 202.974 399.092 204.367 387.917L204.438 387.705L205.143 386.524L209.849 378.116L199.678 372.123C198.233 371.365 196.629 370.977 194.901 370.977Z" fill="black"/>
<path d="M210.693 410.844C218.564 397.212 218.568 382.479 210.702 377.937C202.837 373.396 190.079 380.766 182.209 394.398C174.338 408.03 174.334 422.763 182.199 427.305C190.065 431.846 202.822 424.476 210.693 410.844Z" fill="#FFCA41"/>
<path d="M187.462 429.199C185.453 429.199 183.584 428.724 181.945 427.772C177.961 425.48 175.775 420.668 175.775 414.252C175.775 401.243 184.941 385.379 196.205 378.874C201.758 375.666 207.011 375.172 210.994 377.464C214.978 379.755 217.164 384.568 217.164 390.984C217.164 403.993 207.998 419.857 196.734 426.362C193.473 428.248 190.318 429.199 187.462 429.199ZM205.459 377.129C202.798 377.129 199.819 378.028 196.734 379.808C185.77 386.136 176.851 401.578 176.851 414.234C176.851 420.245 178.843 424.722 182.474 426.802C186.105 428.9 190.97 428.389 196.188 425.392C207.152 419.064 216.071 403.623 216.071 390.966C216.071 384.955 214.079 380.478 210.448 378.398C208.967 377.552 207.293 377.129 205.459 377.129Z" fill="black"/>
<path d="M207.24 396.836C207.222 396.854 207.204 396.854 207.187 396.871C207.222 396.519 207.24 396.184 207.24 395.849C207.24 390.949 203.802 388.974 199.554 391.424C195.941 393.504 192.926 398.123 192.116 402.477C191.745 402.6 191.34 402.776 190.952 403.005C187.832 404.803 185.312 409.175 185.312 412.771C185.312 416.367 187.832 417.83 190.952 416.032L207.24 406.619C209.584 405.262 211.47 401.983 211.47 399.286C211.47 396.572 209.584 395.479 207.24 396.836Z" fill="white"/>
<path d="M186.493 416.261C185.858 416.261 185.276 416.12 184.748 415.803C183.514 415.08 182.826 413.617 182.826 411.678C182.826 407.924 185.47 403.323 188.731 401.437C189.049 401.26 189.366 401.102 189.701 400.961C190.653 396.448 193.755 391.918 197.351 389.856C199.572 388.569 201.687 388.375 203.327 389.309C204.948 390.244 205.847 392.183 205.847 394.756C205.847 394.809 205.847 394.844 205.847 394.897C206.852 394.509 207.804 394.545 208.562 394.985C209.531 395.549 210.078 396.695 210.078 398.193C210.078 401.102 208.103 404.539 205.583 405.985L189.295 415.397C188.326 415.979 187.374 416.261 186.493 416.261ZM201.07 389.838C200.118 389.838 199.043 390.173 197.915 390.808C194.495 392.782 191.552 397.171 190.723 401.49L190.67 401.807L190.371 401.913C190.018 402.036 189.648 402.195 189.295 402.406C186.334 404.116 183.919 408.294 183.919 411.696C183.919 413.229 184.413 414.357 185.294 414.869C186.193 415.38 187.409 415.239 188.731 414.481L205.019 405.068C207.204 403.816 208.985 400.732 208.985 398.211C208.985 397.1 208.65 396.307 208.015 395.937C207.398 395.585 206.535 395.673 205.583 396.219L204.631 396.942L204.701 395.743C204.737 395.408 204.754 395.091 204.754 394.756C204.754 392.588 204.049 391.002 202.78 390.261C202.287 389.979 201.705 389.838 201.07 389.838Z" fill="black"/>
<path d="M190.194 235.048L171.915 224.243C171.756 224.155 171.598 224.049 171.439 223.961L171.157 223.82C164.688 220.365 155.927 221 146.25 226.587C126.402 238.045 110.291 265.931 110.291 288.864C110.291 299.493 113.781 307.143 119.474 311.197L120.109 311.638C120.532 311.903 120.955 312.167 121.396 312.414L138.423 322.532L148.065 306.421C164.441 295.139 177.556 273.052 180.059 253.028L181.328 250.913L190.194 235.048Z" fill="#DDDDDD"/>
<path d="M145.827 226.27C127.724 236.723 112.794 260.802 110.291 282.342C110.449 292.583 113.886 300.004 119.439 303.953L120.074 304.394C120.497 304.658 120.92 304.922 121.36 305.169L138.388 315.287L148.03 299.176C164.406 287.895 177.52 265.808 180.023 245.783L181.292 243.668L187.162 233.18L171.492 223.926C171.333 223.838 171.175 223.732 171.016 223.644L170.734 223.503C164.265 220.065 155.504 220.682 145.827 226.27Z" fill="white"/>
<path d="M138.759 323.854L120.902 313.242C120.479 313.013 120.021 312.749 119.58 312.449L118.91 311.991C112.723 307.566 109.321 299.37 109.321 288.864C109.321 265.667 125.662 237.357 145.757 225.759C155.381 220.206 164.565 219.219 171.598 222.991L172.338 223.397L191.499 234.713L180.993 253.363C178.402 273.687 165.199 295.721 148.788 307.108L138.759 323.854ZM162.22 222.674C157.461 222.674 152.19 224.278 146.708 227.433C127.16 238.732 111.243 266.284 111.243 288.864C111.243 298.717 114.363 306.385 120.021 310.422L120.656 310.862C121.026 311.109 121.431 311.356 121.854 311.568L138.089 321.21L147.519 305.627C163.63 294.522 176.622 272.858 179.089 252.905L179.213 252.534L180.482 250.419L188.872 235.418L170.716 224.719C168.178 223.344 165.305 222.674 162.22 222.674Z" fill="black"/>
<path d="M189.806 293.712C203.844 269.398 203.845 243.117 189.808 235.013C175.771 226.908 153.012 240.049 138.973 264.363C124.935 288.677 124.934 314.957 138.972 323.062C153.009 331.166 175.768 318.026 189.806 293.712Z" fill="#FFCA41"/>
<path d="M148.348 326.445C144.752 326.445 141.438 325.599 138.494 323.907C131.39 319.799 127.477 311.25 127.477 299.793C127.477 276.595 143.817 248.286 163.912 236.688C173.819 230.959 183.196 230.06 190.3 234.167C197.404 238.274 201.317 246.823 201.317 258.281C201.317 281.478 184.977 309.787 164.882 321.386C159.065 324.735 153.442 326.445 148.348 326.445ZM180.464 233.568C175.705 233.568 170.417 235.172 164.899 238.362C145.351 249.661 129.434 277.212 129.434 299.793C129.434 310.528 132.994 318.495 139.481 322.232C145.95 325.969 154.64 325.07 163.93 319.711C183.496 308.412 199.396 280.861 199.396 258.281C199.396 247.546 195.835 239.578 189.348 235.841C186.704 234.326 183.708 233.568 180.464 233.568Z" fill="black"/>
<path d="M186.475 259.303C183.76 254.35 177.52 254.896 171.844 260.572C169.218 263.199 167.367 267.042 166.961 270.549C166.944 270.69 166.803 270.761 166.785 270.637C166.38 267.606 164.511 265.913 161.902 266.319C156.227 267.2 149.987 273.881 147.272 281.936C145.65 286.766 145.58 291.314 146.955 294.416C147.519 295.703 148.435 296.567 149.44 297.254L163.877 307.126C165.516 308.254 168.248 306.667 169.888 303.653L184.324 277.107C185.329 275.273 186.228 273.334 186.81 271.395C188.167 266.724 188.096 262.265 186.475 259.303Z" fill="white"/>
<path d="M162.608 306.367C161.955 306.367 161.374 306.191 160.845 305.839L146.408 295.967C145.086 295.068 144.152 293.993 143.588 292.724C142.09 289.357 142.195 284.545 143.87 279.539C146.726 271.043 153.195 264.203 159.276 263.269C160.704 263.04 161.991 263.34 163.031 264.115C163.471 264.45 163.859 264.856 164.176 265.331C165.058 262.546 166.662 259.814 168.689 257.805C172.25 254.244 176.216 252.481 179.565 252.957C181.839 253.292 183.672 254.597 184.853 256.765C186.58 259.92 186.721 264.609 185.241 269.615C184.73 271.378 183.901 273.264 182.685 275.502L168.248 302.049C167.032 304.27 165.269 305.856 163.507 306.279C163.207 306.332 162.907 306.367 162.608 306.367ZM160.175 265.12C159.981 265.12 159.787 265.138 159.576 265.173C154.27 265.984 148.312 272.435 145.721 280.156C144.187 284.704 144.064 289.005 145.368 291.948C145.791 292.9 146.479 293.676 147.501 294.381L161.938 304.252C162.22 304.446 162.608 304.499 163.048 304.393C164.247 304.111 165.622 302.824 166.556 301.115L180.993 274.568C182.156 272.435 182.914 270.69 183.39 269.051C184.712 264.521 184.641 260.378 183.161 257.664C182.262 256.042 180.975 255.09 179.3 254.843C176.568 254.438 173.201 256.024 170.064 259.144C167.614 261.595 165.833 265.208 165.446 268.54L165.34 269.386L164.37 269.544H163.507L163.348 268.645C163.172 267.27 162.643 266.23 161.867 265.649C161.391 265.296 160.827 265.12 160.175 265.12Z" fill="black"/>
<path d="M87.9232 237.759L74.8263 230.02C74.7205 229.95 74.5971 229.879 74.4737 229.809L74.2622 229.703C69.6439 227.235 63.351 227.676 56.4236 231.677C42.2161 239.892 30.688 259.845 30.688 276.256C30.688 283.871 33.191 289.336 37.2629 292.244L37.7212 292.561C38.0209 292.755 38.3205 292.949 38.6554 293.108L50.8534 300.352L57.7632 288.824C69.4852 280.751 78.8805 264.94 80.6608 250.591L81.5775 249.075L87.9232 237.759Z" fill="#DDDDDD"/>
<path d="M56.1405 231.466C43.1846 238.94 32.4849 256.179 30.7046 271.603C30.8104 278.936 33.2781 284.242 37.2618 287.079L37.7202 287.397C38.0198 287.591 38.3195 287.785 38.6544 287.943L50.8524 295.188L57.7622 283.66C69.4842 275.587 78.8795 259.775 80.6598 245.427L81.5764 243.911L85.7716 236.402L74.5608 229.774C74.455 229.703 74.3317 229.633 74.2083 229.562L73.9967 229.456C69.3432 227.024 63.0679 227.465 56.1405 231.466Z" fill="white"/>
<path d="M51.082 301.322L38.3024 293.725C38.0027 293.566 37.6678 293.372 37.3505 293.161L36.8746 292.826C32.4502 289.671 30 283.783 30 276.256C30 259.652 41.7044 239.381 56.0881 231.078C62.9803 227.094 69.5552 226.389 74.5966 229.086L75.1254 229.368L88.8393 237.477L81.3125 250.838C79.4617 265.381 69.9959 281.157 58.2562 289.318L51.082 301.322ZM67.8983 228.892C64.4962 228.892 60.7064 230.038 56.7932 232.294C42.7973 240.385 31.4102 260.11 31.4102 276.274C31.4102 283.343 33.6488 288.807 37.6854 291.698L38.1437 292.015C38.4081 292.191 38.6902 292.368 38.9898 292.526L50.6237 299.436L57.3749 288.278C68.903 280.328 78.2101 264.816 79.9728 250.539L80.061 250.274L80.9776 248.758L86.9884 238.006L73.9796 230.356C72.1464 229.368 70.1017 228.892 67.8983 228.892Z" fill="black"/>
<path d="M87.8566 279.924C97.9081 262.515 97.9099 243.698 87.8606 237.896C77.8112 232.094 61.5162 241.503 51.4646 258.913C41.4131 276.322 41.4112 295.139 51.4606 300.941C61.51 306.743 77.805 297.334 87.8566 279.924Z" fill="#FFCA41"/>
<path d="M58.1684 303.349C55.5949 303.349 53.2152 302.75 51.1176 301.534C46.041 298.59 43.2383 292.474 43.2383 284.277C43.2383 267.672 54.9427 247.401 69.3264 239.099C76.4301 234.992 83.1284 234.357 88.2226 237.301C93.2992 240.244 96.1019 246.361 96.1019 254.558C96.1019 271.162 84.3975 291.434 70.0138 299.736C65.8362 302.133 61.8172 303.349 58.1684 303.349ZM81.1542 236.86C77.7521 236.86 73.9623 238.006 70.0138 240.297C56.0179 248.388 44.6132 268.113 44.6132 284.277C44.6132 291.962 47.1691 297.656 51.805 300.335C56.441 303.015 62.6633 302.38 69.3088 298.537C83.3047 290.446 94.6918 270.722 94.6918 254.558C94.6918 246.872 92.1358 241.179 87.4999 238.499C85.6314 237.407 83.4809 236.86 81.1542 236.86Z" fill="black"/>
<path d="M57.8693 279.606L58.8212 283.343C59.1737 284.753 59.8612 285.846 60.8307 286.533L64.7791 289.389C66.1717 290.394 68.1107 290.411 70.1907 289.442L72.7466 288.243C74.3859 287.485 76.0252 286.145 77.4707 284.418C79.3568 282.162 80.7669 279.377 81.4368 276.644L83.7283 267.179C84.0456 265.892 84.028 264.693 83.693 263.794L80.9608 256.497C80.3439 254.857 79.4802 253.482 78.3696 252.425L75.1263 249.287C74.2978 248.476 72.729 249.076 71.5832 250.644C71.1954 251.173 70.9486 251.826 70.9486 252.372V253.007C70.9486 253.676 70.5961 254.487 70.0673 255.034L69.8558 255.263C69.3446 255.809 68.992 256.567 68.9744 257.219L68.9391 257.977C68.9215 258.665 69.2212 259.105 69.7147 259.158C70.4374 259.229 71.548 259.493 72.5527 260.375C73.5574 261.238 72.2707 264.041 70.7724 264.253L69.3093 264.464C68.3398 264.605 67.2822 265.169 66.2951 266.086L62.2937 269.805C61.4653 270.581 61.0069 271.85 61.2361 272.661L61.571 273.754C61.7825 274.459 62.47 274.617 63.228 274.106L67.7758 271.004C68.0931 270.792 68.428 270.687 68.71 270.704L72.2883 271.021C73.2578 271.11 73.5927 272.361 73.0463 273.806C72.8171 274.388 72.4646 274.952 72.0415 275.393L68.9039 278.689C67.67 279.994 66.2598 280.646 65.1493 280.417C64.4619 280.276 63.933 279.8 63.651 279.077L62.611 276.415C62.4347 275.992 62.0822 275.798 61.6063 275.887L59.8964 276.239C59.2795 276.362 58.6097 276.979 58.2042 277.79C57.8517 278.442 57.7459 279.112 57.8693 279.606Z" fill="white"/>
<path d="M65.7131 289.741C64.6378 289.741 63.6507 289.442 62.8222 288.842L58.8737 285.987C57.7809 285.193 57.0053 283.959 56.5998 282.391L55.648 278.654C55.4893 278.002 55.6127 277.173 56.0182 276.38C56.5293 275.375 57.3578 274.635 58.1863 274.458L59.8961 274.106C60.6893 273.93 61.3944 274.317 61.6764 275.058L62.7164 277.719C62.9103 278.231 63.2452 278.548 63.7036 278.636C64.5673 278.812 65.7659 278.231 66.8236 277.12L69.9612 273.824C70.3137 273.454 70.6134 272.96 70.8073 272.467C71.107 271.691 71.0717 271.056 70.8954 270.792C70.8249 270.686 70.7544 270.633 70.631 270.633L67.0527 270.316C66.9646 270.298 66.7883 270.351 66.5768 270.492L62.029 273.595C61.4297 274 60.8127 274.124 60.2839 273.93C59.8256 273.771 59.4907 273.383 59.332 272.872L58.9971 271.779C58.6798 270.704 59.2087 269.17 60.2487 268.218L64.25 264.499C65.3605 263.477 66.5239 262.842 67.6344 262.684L69.0975 262.472C69.6439 262.402 70.2961 261.608 70.5605 260.762C70.7015 260.251 70.6487 259.898 70.5253 259.81C69.6615 259.052 68.7097 258.823 68.0574 258.753C67.1761 258.665 66.612 257.907 66.6649 256.849L66.7002 256.091C66.7354 255.263 67.1409 254.346 67.7754 253.676L67.987 253.447C68.3924 253.024 68.6744 252.372 68.6744 251.896V251.261C68.6744 250.574 68.9564 249.781 69.4324 249.128C70.2961 247.965 71.4066 247.225 72.4113 247.136C73.0459 247.084 73.5924 247.277 74.0154 247.683L77.2588 250.821C78.4398 251.949 79.3564 253.412 80.0086 255.157L82.7408 262.454C83.1286 263.494 83.1639 264.799 82.8114 266.244L80.5198 275.71C79.8324 278.548 78.3693 281.421 76.4127 283.766C74.8968 285.581 73.187 286.974 71.4595 287.785L68.9036 288.983C67.8107 289.494 66.7178 289.741 65.7131 289.741ZM56.9876 278.301L57.9395 282.038C58.2568 283.29 58.8561 284.259 59.6846 284.841L63.6331 287.696C64.8141 288.56 66.4887 288.543 68.3571 287.679L70.9131 286.48C72.4642 285.757 74.0154 284.488 75.3903 282.831C77.2235 280.646 78.5632 277.984 79.2154 275.34L81.5069 265.874C81.789 264.728 81.7714 263.671 81.4893 262.895L78.7571 255.597C78.1754 254.046 77.3646 252.76 76.3422 251.772L73.0988 248.635C72.9754 248.511 72.7992 248.459 72.57 248.476C72.0941 248.511 71.3185 248.917 70.5781 249.904C70.2785 250.309 70.0846 250.821 70.0846 251.208V251.843C70.0846 252.689 69.6615 253.658 69.0093 254.364L68.7978 254.593C68.3924 255.016 68.128 255.615 68.1103 256.109L68.0751 256.867C68.0751 257.025 68.0927 257.325 68.2337 257.343C69.0798 257.431 70.3137 257.73 71.4595 258.717C72.0412 259.229 72.2175 260.092 71.9178 261.115C71.5652 262.313 70.5605 263.635 69.3266 263.812L67.8636 264.023C67.0351 264.147 66.1008 264.658 65.2195 265.469L61.2182 269.188C60.5307 269.84 60.2134 270.845 60.3544 271.338L60.6893 272.431C60.8303 272.59 61.0066 272.59 61.2886 272.396L65.8364 269.294C66.2947 268.976 66.7707 268.835 67.2114 268.871L70.7897 269.188C71.3361 269.241 71.812 269.523 72.0941 269.999C72.5524 270.722 72.5524 271.779 72.1293 272.907C71.8649 273.577 71.4771 274.212 70.9836 274.723L67.8459 278.019C66.4358 279.5 64.7964 280.223 63.4392 279.94C62.5225 279.747 61.8175 279.112 61.4297 278.16L60.3897 275.498C60.3544 275.41 60.3368 275.357 60.1781 275.393L58.4683 275.745C58.1334 275.816 57.6046 276.256 57.2521 276.944C57.0053 277.473 56.8995 277.984 56.9876 278.301Z" fill="black"/>
<path d="M124.921 322.546L111.824 314.807C111.719 314.737 111.595 314.666 111.472 314.596L111.26 314.49C106.624 312.022 100.349 312.463 93.4216 316.464C79.2141 324.679 67.686 344.633 67.686 361.043C67.686 368.658 70.1891 374.123 74.2609 377.031L74.7192 377.348C75.0189 377.542 75.3186 377.736 75.6535 377.895L87.8514 385.14L94.7613 373.611C106.483 365.538 115.879 349.727 117.659 335.378L118.575 333.862L124.921 322.546Z" fill="#DDDDDD"/>
<path d="M93.1571 316.253C80.2012 323.727 69.5015 340.966 67.7212 356.39C67.827 363.723 70.2948 369.029 74.2785 371.867L74.7368 372.184C75.0365 372.378 75.3361 372.572 75.671 372.73L87.869 379.975L94.7788 368.447C106.501 360.374 115.896 344.562 117.676 330.214L118.593 328.698L122.788 321.189L111.577 314.561C111.472 314.49 111.348 314.42 111.225 314.349L111.013 314.244C106.36 311.811 100.085 312.252 93.1571 316.253Z" fill="white"/>
<path d="M88.0986 386.127L75.319 378.53C75.0193 378.371 74.6844 378.177 74.3671 377.966L73.8912 377.631C69.4668 374.475 67.0166 368.588 67.0166 361.061C67.0166 344.456 78.721 324.185 93.1047 315.883C99.9969 311.899 106.572 311.194 111.613 313.891L112.142 314.173L125.856 322.282L118.329 335.643C116.478 350.185 107.012 365.962 95.2728 374.123L88.0986 386.127ZM104.897 313.68C101.495 313.68 97.7054 314.825 93.7922 317.082C79.7963 325.172 68.4091 344.897 68.4091 361.061C68.4091 368.13 70.6478 373.594 74.6844 376.485L75.1427 376.802C75.4071 376.978 75.6891 377.155 75.9888 377.313L87.6227 384.223L94.3739 373.065C105.902 365.115 115.209 349.604 116.972 335.326L117.06 335.061L117.977 333.545L123.987 322.793L110.979 315.143C109.163 314.155 107.118 313.68 104.897 313.68Z" fill="black"/>
<path d="M125.087 364.534C135.139 347.125 135.14 328.308 125.091 322.506C115.042 316.704 98.7467 326.113 88.6951 343.523C78.6435 360.932 78.6417 379.749 88.6911 385.551C98.7404 391.353 115.035 381.943 125.087 364.534Z" fill="#FFCA41"/>
<path d="M95.396 387.96C92.8224 387.96 90.4427 387.361 88.3451 386.145C83.2685 383.201 80.4658 377.084 80.4658 368.888C80.4658 352.283 92.1702 332.012 106.554 323.71C113.658 319.602 120.356 318.968 125.45 321.912C130.527 324.855 133.329 330.972 133.329 339.169C133.329 355.773 121.625 376.044 107.241 384.347C103.081 386.762 99.0448 387.96 95.396 387.96ZM118.399 321.471C114.997 321.471 111.207 322.617 107.259 324.908C93.2631 332.999 81.8583 352.724 81.8583 368.888C81.8583 376.573 84.4143 382.267 89.0502 384.946C93.6861 387.625 99.9085 386.991 106.554 383.148C120.55 375.057 131.955 355.333 131.955 339.169C131.955 331.483 129.399 325.79 124.763 323.11C122.859 322.017 120.726 321.471 118.399 321.471Z" fill="black"/>
<path d="M99.839 376.097L95.3793 378.67C94.5156 379.164 93.8281 378.635 93.8281 377.507V358.752C93.8281 357.606 94.5156 356.284 95.3793 355.79L99.839 353.217C100.703 352.723 101.39 353.252 101.39 354.38V373.136C101.39 374.281 100.685 375.603 99.839 376.097Z" fill="white"/>
<path d="M93.4401 378.618C93.1757 378.618 92.9289 378.547 92.6997 378.424C92.1356 378.107 91.8184 377.419 91.8184 376.573V357.818C91.8184 356.443 92.6468 354.874 93.7221 354.257L98.1817 351.683C98.7634 351.349 99.398 351.313 99.8916 351.595C100.456 351.913 100.773 352.6 100.773 353.446V372.201C100.773 373.576 99.9445 375.145 98.8692 375.762L94.4095 378.336C94.0746 378.53 93.7397 378.618 93.4401 378.618ZM99.116 352.776C99.0631 352.776 98.9573 352.812 98.8516 352.865L94.3919 355.438C93.7574 355.808 93.1933 356.919 93.1933 357.8V376.555C93.1933 376.961 93.299 377.172 93.3872 377.208C93.4401 377.225 93.5458 377.225 93.7045 377.119L98.1641 374.546C98.7987 374.176 99.3628 373.065 99.3628 372.184V353.429C99.3628 353.023 99.257 352.812 99.1689 352.776C99.1689 352.794 99.1512 352.776 99.116 352.776Z" fill="black"/>
<path d="M110.133 370.157L105.674 372.73C104.81 373.224 104.123 372.695 104.123 371.567V339.203C104.123 338.058 104.81 336.736 105.674 336.242L110.133 333.669C110.997 333.175 111.685 333.704 111.685 334.832V367.195C111.667 368.341 110.979 369.663 110.133 370.157Z" fill="white"/>
<path d="M103.717 372.677C103.453 372.677 103.206 372.607 102.977 372.484C102.413 372.166 102.096 371.479 102.096 370.633V338.269C102.096 336.894 102.924 335.326 103.999 334.709L108.459 332.135C109.041 331.8 109.675 331.765 110.169 332.047C110.733 332.364 111.05 333.052 111.05 333.898V366.261C111.05 367.636 110.222 369.205 109.147 369.822L104.687 372.395C104.37 372.589 104.035 372.677 103.717 372.677ZM109.411 333.246C109.358 333.246 109.252 333.281 109.147 333.334L104.687 335.907C104.052 336.278 103.488 337.388 103.488 338.269V370.633C103.488 371.038 103.594 371.25 103.682 371.285C103.735 371.303 103.841 371.303 103.999 371.197L108.459 368.623C109.094 368.253 109.658 367.143 109.658 366.261V333.898C109.658 333.492 109.552 333.281 109.464 333.246C109.446 333.246 109.429 333.246 109.411 333.246Z" fill="black"/>
<path d="M120.409 364.216L115.95 366.79C115.086 367.283 114.398 366.755 114.398 365.626V355.209C114.398 354.063 115.086 352.741 115.95 352.247L120.409 349.674C121.273 349.18 121.96 349.709 121.96 350.837V361.255C121.96 362.401 121.273 363.723 120.409 364.216Z" fill="white"/>
<path d="M114.01 366.737C113.746 366.737 113.499 366.667 113.27 366.543C112.706 366.226 112.389 365.538 112.389 364.692V354.275C112.389 352.9 113.217 351.331 114.292 350.714L118.752 348.141C119.334 347.806 119.968 347.77 120.462 348.052C121.026 348.37 121.343 349.057 121.343 349.903V360.321C121.343 361.696 120.515 363.265 119.44 363.882L114.98 366.455C114.645 366.649 114.31 366.737 114.01 366.737ZM119.704 349.251C119.651 349.251 119.545 349.286 119.44 349.339L114.98 351.913C114.345 352.283 113.781 353.393 113.781 354.275V364.692C113.781 365.098 113.887 365.309 113.975 365.345C114.028 365.362 114.134 365.362 114.292 365.256L118.752 362.683C119.387 362.313 119.951 361.202 119.951 360.321V349.903C119.951 349.498 119.845 349.286 119.757 349.251C119.739 349.251 119.722 349.251 119.704 349.251Z" fill="black"/>
<path d="M256.632 288.782L243.535 281.044C243.429 280.973 243.306 280.903 243.182 280.832L242.971 280.727C238.335 278.259 232.06 278.699 225.132 282.701C210.925 290.915 199.396 310.869 199.396 327.28C199.396 334.895 201.9 340.359 205.971 343.267L206.43 343.585C206.729 343.779 207.029 343.973 207.364 344.131L219.562 351.376L226.472 339.848C238.194 331.775 247.589 315.963 249.369 301.615L250.286 300.099L256.632 288.782Z" fill="#FFCA41"/>
<path d="M224.85 282.507C211.894 289.981 201.194 307.22 199.414 322.644C199.52 329.977 201.988 335.283 205.971 338.121L206.43 338.438C206.729 338.632 207.029 338.826 207.364 338.984L219.562 346.229L226.472 334.701C238.194 326.628 247.589 310.816 249.369 296.468L250.286 294.952L254.481 287.443L243.27 280.815C243.165 280.744 243.041 280.674 242.918 280.603L242.706 280.498C238.053 278.065 231.777 278.506 224.85 282.507Z" fill="#FFCA41"/>
<path d="M219.791 352.363L207.011 344.766C206.712 344.607 206.377 344.413 206.059 344.202L205.584 343.867C201.159 340.712 198.709 334.824 198.709 327.298C198.709 310.693 210.413 290.422 224.797 282.119C231.689 278.136 238.264 277.43 243.306 280.127L243.834 280.409L257.548 288.518L250.021 301.879C248.171 316.422 238.705 332.198 226.965 340.359L219.791 352.363ZM236.607 279.916C233.205 279.916 229.415 281.062 225.502 283.318C211.506 291.409 200.119 311.133 200.119 327.298C200.119 334.366 202.358 339.83 206.394 342.721L206.853 343.039C207.117 343.215 207.399 343.391 207.699 343.55L219.333 350.46L226.084 339.302C237.612 331.352 246.919 315.84 248.682 301.562L248.77 301.298L249.687 299.782L255.697 289.029L242.689 281.379C240.855 280.409 238.811 279.916 236.607 279.916Z" fill="black"/>
<path d="M256.791 330.791C266.843 313.382 266.845 294.565 256.795 288.763C246.746 282.961 230.451 292.371 220.399 309.78C210.348 327.189 210.346 346.006 220.395 351.808C230.445 357.61 246.74 348.201 256.791 330.791Z" fill="white"/>
<path d="M227.107 354.214C224.533 354.214 222.154 353.615 220.056 352.399C214.979 349.455 212.177 343.338 212.177 335.142C212.177 318.537 223.881 298.266 238.265 289.963C245.369 285.856 252.067 285.222 257.161 288.165C262.238 291.109 265.04 297.226 265.04 305.422C265.04 322.027 253.336 342.298 238.952 350.601C234.775 352.998 230.756 354.214 227.107 354.214ZM250.093 287.725C246.691 287.725 242.901 288.871 238.952 291.162C224.956 299.253 213.552 318.978 213.552 335.142C213.552 342.827 216.108 348.521 220.744 351.2C225.379 353.879 231.602 353.245 238.247 349.402C252.243 341.311 263.63 321.586 263.63 305.422C263.63 297.737 261.074 292.043 256.438 289.364C254.57 288.271 252.419 287.725 250.093 287.725Z" fill="black"/>
<path d="M236.52 338.086L225.044 329.078C224.375 328.549 224.48 327.139 225.256 325.923L228.517 320.846C229.31 319.63 230.473 319.048 231.143 319.577L236.467 323.755L245.633 302.62C246.197 301.298 247.36 300.364 248.224 300.54L251.785 301.227C252.648 301.386 252.878 302.602 252.296 303.924L237.824 337.257C237.507 337.945 236.854 338.368 236.52 338.086Z" fill="#FFCA41"/>
<path d="M236.766 338.861C236.52 338.861 236.273 338.791 236.079 338.632L224.604 329.625C223.634 328.867 223.652 327.104 224.657 325.553L227.918 320.476C228.535 319.524 229.398 318.872 230.209 318.731C230.72 318.643 231.179 318.749 231.549 319.048L236.167 322.662L244.981 302.356C245.703 300.699 247.149 299.623 248.33 299.87L251.891 300.558C252.384 300.646 252.79 300.963 253.019 301.421C253.389 302.126 253.354 303.184 252.895 304.206L238.423 337.522C238.141 338.174 237.613 338.685 237.066 338.826C236.978 338.861 236.872 338.861 236.766 338.861ZM230.544 320.088C230.509 320.088 230.491 320.088 230.456 320.106C230.121 320.159 229.575 320.494 229.099 321.234L225.838 326.311C225.185 327.316 225.185 328.32 225.467 328.549L236.819 337.451C236.925 337.381 237.066 337.24 237.19 336.975L251.661 303.642C251.979 302.92 251.961 302.32 251.82 302.056C251.767 301.95 251.697 301.915 251.644 301.915L248.083 301.227C247.66 301.139 246.761 301.774 246.267 302.902L236.731 324.848L230.703 320.124C230.685 320.124 230.65 320.088 230.544 320.088Z" fill="#FFCA41"/>
<path d="M96.6308 382.188L84.8206 375.208C84.7149 375.137 84.6091 375.084 84.5034 375.032L84.3095 374.943C80.1318 372.705 74.4559 373.11 68.2159 376.724C55.3834 384.127 44.9834 402.16 44.9834 416.966C44.9834 423.841 47.2397 428.777 50.9237 431.403L51.3291 431.685C51.5935 431.861 51.8756 432.038 52.1576 432.179L63.1569 438.718L69.3969 428.301C79.9908 421.003 88.4695 406.725 90.0735 393.787L90.902 392.412L96.6308 382.188Z" fill="#DDDDDD"/>
<path d="M67.9515 376.512C56.2471 383.263 46.6051 398.828 44.9834 412.753C45.0892 419.381 47.3102 424.158 50.8885 426.732L51.2939 427.014C51.5583 427.19 51.8403 427.366 52.1224 427.507L63.1217 434.047L69.3617 423.629C79.9379 416.332 88.4342 402.054 90.0383 389.116L90.8667 387.741L94.6566 380.954L84.5386 374.979C84.4329 374.908 84.3271 374.855 84.2213 374.802L84.0274 374.714C79.8851 372.493 74.2091 372.899 67.9515 376.512Z" fill="white"/>
<path d="M63.3864 439.6L51.8406 432.743C51.5586 432.602 51.2766 432.425 50.9769 432.231L50.5539 431.932C46.5525 429.076 44.3491 423.77 44.3491 416.984C44.3491 401.983 54.9078 383.686 67.8989 376.195C74.1213 372.599 80.044 371.964 84.6094 374.397L85.0854 374.661L97.4596 381.977L90.6731 394.034C88.9986 407.166 80.4671 421.408 69.8555 428.777L63.3864 439.6ZM78.5633 374.185C75.4962 374.185 72.0766 375.225 68.5335 377.27C55.8949 384.568 45.6006 402.389 45.6006 416.984C45.6006 423.365 47.6101 428.301 51.2766 430.909L51.682 431.191C51.9288 431.35 52.1755 431.509 52.4576 431.65L62.9633 437.89L69.0623 427.825C79.4799 420.65 87.8704 406.637 89.4745 393.752L89.5626 393.505L90.3911 392.13L95.8203 382.435L84.0806 375.525C82.406 374.626 80.5552 374.185 78.5633 374.185Z" fill="black"/>
<path d="M96.772 420.221C105.845 404.506 105.847 387.521 96.7753 382.283C87.7039 377.046 72.9948 385.539 63.9216 401.254C54.8484 416.969 54.847 433.954 63.9184 439.191C72.9898 444.429 87.6989 435.935 96.772 420.221Z" fill="#DDDDDD"/>
<path d="M69.9794 441.38C67.6526 441.38 65.5197 440.834 63.616 439.741C59.0329 437.097 56.4946 431.562 56.4946 424.158C56.4946 409.158 67.0533 390.861 80.0444 383.369C86.4607 379.667 92.5068 379.086 97.1075 381.747C101.691 384.392 104.229 389.926 104.229 397.33C104.229 412.33 93.6702 430.627 80.679 438.119C76.9244 440.269 73.2756 441.38 69.9794 441.38ZM90.7441 381.342C87.677 381.342 84.2397 382.382 80.679 384.444C68.0404 391.742 57.7461 409.563 57.7461 424.158C57.7461 431.086 60.0553 436.25 64.2329 438.665C68.4282 441.08 74.0336 440.499 80.0444 437.044C92.6831 429.746 102.977 411.925 102.977 397.33C102.977 390.402 100.668 385.238 96.4905 382.823C94.7807 381.836 92.8417 381.342 90.7441 381.342Z" fill="black"/>
<path d="M72.4819 406.637V425.586C72.4819 427.772 74.6501 427.842 76.3423 425.727L90.1972 408.241C91.7836 406.231 91.7836 403.693 90.1972 403.517L76.3423 402.036C74.6501 401.878 72.4819 404.469 72.4819 406.637Z" fill="#DDDDDD"/>
<path d="M73.8219 427.913C73.5928 427.913 73.3636 427.878 73.1521 427.807C72.3236 427.508 71.8477 426.714 71.8477 425.604V406.655C71.8477 405.245 72.6585 403.552 73.8748 402.459C74.7033 401.719 75.6022 401.349 76.3955 401.437L90.2504 402.918C90.9554 402.988 91.5195 403.411 91.8015 404.081C92.3127 405.297 91.8544 407.166 90.6734 408.647L76.8185 426.133C75.9195 427.261 74.809 427.913 73.8219 427.913ZM76.1663 402.671C75.7433 402.671 75.2321 402.918 74.7209 403.376C73.769 404.24 73.0992 405.579 73.0992 406.637V425.586C73.0992 425.904 73.1521 426.45 73.5751 426.609C74.0687 426.785 75.0029 426.397 75.849 425.339L89.7039 407.853C90.691 406.602 90.9378 405.227 90.6558 404.557C90.55 404.31 90.3914 404.169 90.127 404.152L76.2721 402.671C76.2368 402.671 76.2016 402.671 76.1663 402.671Z" fill="black"/>
<path d="M168.019 341.893L154.922 334.155C154.817 334.084 154.693 334.014 154.57 333.943L154.358 333.837C149.74 331.37 143.447 331.81 136.52 335.812C122.312 344.026 110.784 363.98 110.784 380.391C110.784 388.005 113.287 393.47 117.359 396.378L117.817 396.696C118.117 396.889 118.417 397.083 118.752 397.242L130.95 404.487L137.859 392.959C149.581 384.885 158.977 369.074 160.757 354.725L161.674 353.21L168.019 341.893Z" fill="#DDDDDD"/>
<path d="M136.255 335.6C123.299 343.074 112.6 360.313 110.819 375.737C110.925 383.07 113.393 388.376 117.377 391.214L117.835 391.531C118.135 391.725 118.434 391.919 118.769 392.077L130.967 399.322L137.877 387.794C149.599 379.721 158.994 363.909 160.775 349.561L161.691 348.045L165.886 340.536L154.676 333.908C154.57 333.838 154.446 333.767 154.323 333.697L154.112 333.591C149.458 331.158 143.183 331.599 136.255 335.6Z" fill="white"/>
<path d="M131.197 405.474L118.417 397.877C118.117 397.718 117.783 397.524 117.465 397.313L116.989 396.978C112.565 393.823 110.115 387.935 110.115 380.408C110.115 363.804 121.819 343.532 136.203 335.23C143.095 331.246 149.67 330.541 154.711 333.238L155.24 333.52L168.954 341.629L161.427 354.99C159.576 369.532 150.111 385.309 138.371 393.47L131.197 405.474ZM147.995 333.027C144.593 333.027 140.804 334.172 136.89 336.429C122.894 344.52 111.507 364.244 111.507 380.408C111.507 387.477 113.746 392.941 117.783 395.832L118.241 396.149C118.505 396.326 118.787 396.502 119.087 396.661L130.721 403.57L137.472 392.412C149 384.463 158.307 368.951 160.07 354.673L160.158 354.408L161.075 352.892L167.086 342.14L154.077 334.49C152.261 333.503 150.199 333.027 147.995 333.027Z" fill="black"/>
<path d="M168.172 383.627C178.224 366.218 178.226 347.401 168.176 341.599C158.127 335.797 141.832 345.206 131.781 362.615C121.729 380.025 121.727 398.841 131.777 404.643C141.826 410.446 158.121 401.036 168.172 383.627Z" fill="#DDDDDD"/>
<path d="M138.495 407.043C135.921 407.043 133.541 406.444 131.444 405.227C126.367 402.284 123.564 396.167 123.564 387.97C123.564 371.366 135.269 351.094 149.653 342.792C156.756 338.685 163.455 338.05 168.549 340.994C173.625 343.938 176.428 350.054 176.428 358.251C176.428 374.856 164.724 395.127 150.34 403.429C146.18 405.844 142.143 407.043 138.495 407.043ZM161.48 340.553C158.078 340.553 154.288 341.699 150.34 343.991C136.344 352.082 124.957 371.806 124.957 387.97C124.957 395.656 127.513 401.349 132.149 404.029C136.785 406.708 143.007 406.073 149.653 402.231C163.648 394.14 175.053 374.415 175.053 358.251C175.053 350.566 172.497 344.872 167.861 342.193C165.958 341.1 163.807 340.553 161.48 340.553Z" fill="black"/>
<path d="M153.848 367.135L168.478 356.382C167.703 350.23 163.666 347.146 158.29 348.291L153.848 367.135Z" fill="#DDDDDD"/>
<path d="M152.737 368.809L157.708 347.71L158.131 347.622C160.846 347.04 163.296 347.463 165.217 348.838C167.368 350.354 168.725 352.945 169.148 356.312L169.201 356.717L152.737 368.809ZM158.854 348.873L154.941 365.443L167.72 356.047C167.297 353.28 166.152 351.165 164.424 349.931C162.926 348.873 161.004 348.503 158.854 348.873Z" fill="black"/>
<path d="M150.128 372.917L154.571 354.073C153.16 354.373 151.68 354.955 150.128 355.854C141.967 360.56 135.339 372.035 135.339 381.448C135.339 390.879 141.95 394.686 150.128 389.98C158.29 385.273 164.918 373.798 164.918 364.385C164.918 363.592 164.847 362.869 164.759 362.164L150.128 372.917Z" fill="#DDDDDD"/>
<path d="M143.518 392.712C141.985 392.712 140.575 392.359 139.323 391.637C136.309 389.892 134.652 386.278 134.652 381.466C134.652 371.841 141.438 360.084 149.776 355.272C151.345 354.355 152.914 353.738 154.412 353.421L155.487 353.192L151.221 371.277L165.288 360.93L165.429 362.094C165.535 362.94 165.587 363.68 165.587 364.403C165.587 374.027 158.801 385.784 150.463 390.597C148.031 392.007 145.669 392.712 143.518 392.712ZM153.636 355.043C152.596 355.36 151.539 355.836 150.481 356.453C142.514 361.054 136.044 372.264 136.044 381.448C136.044 385.749 137.455 388.94 140.028 390.42C142.602 391.901 146.057 391.531 149.794 389.38C157.761 384.78 164.23 373.569 164.23 364.385C164.23 364.068 164.212 363.768 164.195 363.433L149.036 374.591L153.636 355.043Z" fill="black"/>
<path d="M141.739 344.238C142.356 344.59 142.356 345.154 141.739 345.507C141.122 345.859 140.135 345.859 139.535 345.507C138.919 345.154 138.919 344.59 139.535 344.238C140.152 343.885 141.14 343.885 141.739 344.238Z" fill="black"/>
<path d="M147.503 340.906C148.119 341.259 148.119 341.823 147.503 342.175C146.886 342.528 145.898 342.528 145.299 342.175C144.682 341.823 144.682 341.259 145.299 340.906C145.916 340.553 146.903 340.553 147.503 340.906Z" fill="black"/>
<path d="M153.267 337.574C153.884 337.927 153.884 338.491 153.267 338.844C152.65 339.196 151.663 339.196 151.063 338.844C150.446 338.491 150.446 337.927 151.063 337.574C151.68 337.222 152.667 337.222 153.267 337.574Z" fill="black"/>
<path d="M135.975 340.906C136.592 341.259 136.592 341.823 135.975 342.175C135.358 342.528 134.371 342.528 133.771 342.175C133.154 341.823 133.154 341.259 133.771 340.906C134.388 340.553 135.375 340.553 135.975 340.906Z" fill="black"/>
<path d="M141.739 337.574C142.356 337.927 142.356 338.491 141.739 338.844C141.122 339.196 140.135 339.196 139.535 338.844C138.919 338.491 138.919 337.927 139.535 337.574C140.152 337.222 141.14 337.222 141.739 337.574Z" fill="black"/>
<path d="M147.503 334.243C148.119 334.595 148.119 335.159 147.503 335.512C146.886 335.865 145.898 335.865 145.299 335.512C144.682 335.159 144.682 334.595 145.299 334.243C145.916 333.908 146.903 333.908 147.503 334.243Z" fill="black"/>
<path d="M200.49 163.418L187.393 155.68C187.287 155.61 187.164 155.539 187.04 155.469L186.829 155.363C182.193 152.895 175.917 153.336 168.99 157.337C154.783 165.551 143.254 185.505 143.254 201.916C143.254 209.531 145.757 214.995 149.829 217.904L150.288 218.221C150.587 218.415 150.887 218.609 151.222 218.767L163.42 226.012L170.33 214.484C182.052 206.411 191.447 190.599 193.227 176.251L194.144 174.735L200.49 163.418Z" fill="#DDDDDD"/>
<path d="M168.726 157.143C155.77 164.617 145.07 181.857 143.29 197.28C143.396 204.613 145.864 209.919 149.847 212.757L150.306 213.074C150.605 213.268 150.905 213.462 151.24 213.621L163.438 220.865L170.348 209.337C182.07 201.264 191.465 185.453 193.245 171.104L194.162 169.588L198.357 162.079L187.146 155.451C187.041 155.381 186.917 155.31 186.794 155.24L186.582 155.134C181.929 152.684 175.653 153.142 168.726 157.143Z" fill="white"/>
<path d="M163.667 226.999L150.887 219.402C150.588 219.244 150.253 219.05 149.935 218.838L149.46 218.503C145.035 215.348 142.585 209.461 142.585 201.934C142.585 185.329 154.289 165.058 168.673 156.755C175.565 152.772 182.14 152.067 187.182 154.764L187.71 155.046L201.424 163.154L193.897 176.515C192.047 191.058 182.581 206.834 170.841 214.995L163.667 226.999ZM180.483 154.552C177.081 154.552 173.291 155.698 169.378 157.954C155.382 166.045 143.995 185.77 143.995 201.934C143.995 209.002 146.234 214.467 150.27 217.357L150.729 217.675C150.993 217.851 151.275 218.027 151.575 218.186L163.209 225.096L169.96 213.938C181.488 205.988 190.795 190.476 192.558 176.198L192.646 175.934L193.563 174.418L199.573 163.665L186.565 156.015C184.731 155.046 182.687 154.552 180.483 154.552Z" fill="black"/>
<path d="M200.623 205.641C210.674 188.232 210.676 169.415 200.627 163.613C190.577 157.811 174.282 167.22 164.231 184.629C154.179 202.039 154.177 220.855 164.227 226.658C174.276 232.46 190.571 223.05 200.623 205.641Z" fill="#FFCA41"/>
<path d="M170.929 229.079C168.355 229.079 165.975 228.48 163.878 227.264C158.801 224.32 155.999 218.204 155.999 210.007C155.999 193.402 167.703 173.131 182.087 164.829C189.19 160.722 195.889 160.087 200.983 163.031C206.059 165.974 208.862 172.091 208.862 180.288C208.862 196.892 197.158 217.164 182.774 225.466C178.614 227.863 174.578 229.079 170.929 229.079ZM193.932 162.572C190.53 162.572 186.74 163.718 182.792 166.01C168.796 174.101 157.409 193.825 157.409 209.989C157.409 217.675 159.965 223.368 164.601 226.048C169.236 228.727 175.459 228.092 182.104 224.25C196.1 216.159 207.505 196.434 207.505 180.27C207.505 172.585 204.949 166.891 200.313 164.212C198.409 163.119 196.259 162.572 193.932 162.572Z" fill="black"/>
<path d="M189.72 204.737L194.849 201.775C195.783 201.229 196.559 199.766 196.559 198.514V187.832C196.559 186.581 195.801 185.999 194.849 186.545L189.72 189.507C188.785 190.053 188.01 191.516 188.01 192.768V203.45C188.01 204.701 188.768 205.265 189.72 204.737Z" fill="white"/>
<path d="M189.032 205.618C188.75 205.618 188.486 205.548 188.256 205.407C187.657 205.072 187.322 204.349 187.322 203.432V192.75C187.322 191.252 188.221 189.56 189.367 188.89L194.497 185.929C195.131 185.558 195.783 185.541 196.312 185.841C196.911 186.193 197.246 186.898 197.246 187.815V198.497C197.246 199.995 196.347 201.687 195.184 202.357L190.054 205.318C189.72 205.53 189.367 205.618 189.032 205.618ZM195.519 187.022C195.431 187.022 195.307 187.057 195.184 187.127L190.054 190.089C189.332 190.512 188.697 191.746 188.697 192.75V203.432C188.697 203.873 188.821 204.137 188.944 204.208C189.032 204.261 189.191 204.226 189.367 204.12L194.497 201.158C195.219 200.735 195.854 199.502 195.854 198.497V187.815C195.854 187.374 195.73 187.11 195.607 187.039C195.589 187.039 195.554 187.022 195.519 187.022Z" fill="black"/>
<path d="M190.83 190.335V201.793C190.83 202.851 190.302 204.102 189.473 205.019L187.446 207.257C187.111 207.628 186.758 207.927 186.388 208.139L178.015 212.969C174.79 214.819 171.952 214.079 170.947 211.118L168.462 203.714C167.827 201.793 169.29 198.602 171.37 197.404L177.751 193.72C178.403 193.35 178.914 192.38 178.826 191.693L178.597 189.701C178.28 186.951 178.562 183.813 179.426 180.535L179.443 180.447C179.761 179.23 180.607 178.067 181.559 177.52C182.845 176.78 183.868 177.432 183.815 178.966L183.639 182.826C183.621 183.39 183.709 183.884 183.938 184.236L185.683 187.039C186.335 188.097 187.358 188.661 188.609 188.678L189.561 188.696C190.337 188.678 190.83 189.331 190.83 190.335Z" fill="white"/>
<path d="M174.684 214.678C174.102 214.678 173.538 214.59 173.027 214.379C171.74 213.885 170.788 212.845 170.295 211.329L167.809 203.926C167.069 201.705 168.655 198.162 171.035 196.804L177.416 193.12C177.839 192.874 178.209 192.204 178.156 191.763L177.927 189.771C177.592 186.951 177.892 183.69 178.773 180.341C179.161 178.842 180.131 177.538 181.241 176.886C182.07 176.41 182.916 176.357 183.55 176.745C184.22 177.15 184.555 177.943 184.52 178.948L184.344 182.808C184.326 183.232 184.396 183.584 184.537 183.831L186.283 186.634C186.811 187.48 187.622 187.938 188.627 187.956L189.579 187.973C190.742 187.991 191.518 188.943 191.518 190.318V201.775C191.518 203.009 190.919 204.419 189.984 205.477L187.957 207.716C187.569 208.139 187.164 208.474 186.723 208.72L178.35 213.55C177.081 214.308 175.83 214.678 174.684 214.678ZM182.581 177.873C182.405 177.873 182.175 177.943 181.929 178.084C181.153 178.543 180.413 179.565 180.131 180.605C179.267 183.884 178.985 186.968 179.285 189.613L179.514 191.604C179.637 192.592 178.985 193.808 178.104 194.319L171.723 198.003C169.942 199.025 168.585 201.899 169.114 203.485L171.599 210.888C171.969 211.981 172.622 212.739 173.521 213.074C174.649 213.497 176.129 213.251 177.663 212.352L186.036 207.522C186.335 207.345 186.653 207.099 186.935 206.781L188.962 204.543C189.667 203.767 190.143 202.657 190.143 201.775V190.318C190.143 190.036 190.09 189.348 189.561 189.348L188.609 189.331C187.129 189.313 185.895 188.608 185.119 187.356L183.374 184.554C183.074 184.078 182.933 183.443 182.969 182.738L183.145 178.878C183.163 178.402 183.057 178.049 182.845 177.908C182.757 177.891 182.687 177.873 182.581 177.873Z" fill="black"/>
</g>
<defs>
<clipPath id="clip0_303_874">
<rect width="460" height="461" fill="white"/>
</clipPath>
</defs>
</svg>
