<svg width="130" height="100" viewBox="0 0 130 100" fill="none" xmlns="http://www.w3.org/2000/svg">
<g clip-path="url(#clip0_395_4920)">
<path d="M61.6824 76.2897V69.4771H50.9521H50.4156H39.6853V76.2897C39.6853 80.0169 36.8915 83.0826 33.293 83.528V83.587H50.4156H50.9521H68.0748V83.528C64.4762 83.0826 61.6824 80.0104 61.6824 76.2897Z" fill="#D8DBD7" stroke="#010200" stroke-width="3"/>
<path d="M98.0024 70.3675C98.0024 72.3393 96.4059 73.9376 94.4365 73.9376H6.9389C4.9695 73.9376 3.37305 72.3393 3.37305 70.3675V22.0374C3.37305 20.0591 4.9695 18.4673 6.9389 18.4673H94.43C96.3994 18.4673 97.9958 20.0656 97.9958 22.0374V70.3675H98.0024Z" fill="#D8DBD7" stroke="#010200" stroke-width="3"/>
<path d="M98.0024 61.3212C98.0024 63.2929 96.4059 64.8912 94.4365 64.8912H6.9389C4.9695 64.8912 3.37305 63.2929 3.37305 61.3212V12.991C3.37305 11.0192 4.9695 9.4209 6.9389 9.4209H94.43C96.3994 9.4209 97.9958 11.0192 97.9958 12.991V61.3212H98.0024Z" fill="white" stroke="black" stroke-width="3" stroke-linecap="round" stroke-linejoin="round"/>
<path d="M74.3295 86.5412C74.3295 87.7007 73.3874 88.644 72.2293 88.644H29.138C27.98 88.644 27.0312 87.7007 27.0312 86.5412V85.6897C27.0312 84.5237 27.9734 83.5869 29.138 83.5869H72.2293C73.3874 83.5869 74.3295 84.5302 74.3295 85.6897V86.5412Z" fill="#D8DBD7" stroke="#010200" stroke-width="3"/>
<path d="M50.0663 18.604C49.6438 18.7703 49.194 18.7426 48.7578 18.8119C46.5907 19.1306 44.5463 19.8374 42.6245 20.8907C39.6941 22.5122 37.3361 24.7712 35.5643 27.64C34.7874 28.8873 34.1877 30.2316 33.697 31.6313C33.6288 31.8253 33.697 31.8669 33.8742 31.8669C34.7465 31.8669 35.6188 31.8531 36.4775 31.8669C36.6819 31.8669 36.7501 31.7699 36.8182 31.6175C37.1589 30.7444 37.6087 29.9128 38.0858 29.109C38.1812 28.9566 38.263 28.915 38.4538 28.915C39.2716 28.9427 40.0893 28.9427 40.9208 28.9288C41.1797 28.9288 41.207 28.9981 41.1388 29.2199C40.9071 30.0098 40.7163 30.8275 40.5527 31.6313C40.5119 31.8392 40.5527 31.8669 40.7299 31.8669C41.575 31.8669 42.42 31.8531 43.2651 31.8669C43.524 31.8669 43.5377 31.7145 43.5785 31.562C43.7557 30.7582 43.9738 29.9821 44.2191 29.206C44.2737 29.012 44.3418 28.9288 44.5599 28.9288C49.2076 28.9427 53.8417 28.9427 58.4895 28.9288C58.7075 28.9288 58.7757 29.012 58.8302 29.206C59.0755 29.9821 59.3073 30.7721 59.4708 31.562C59.5117 31.7976 59.6207 31.8808 59.8661 31.8669C60.752 31.8531 61.6243 31.8531 62.5375 31.8531C62.3876 30.9661 62.1831 30.1207 61.9378 29.2753C61.856 28.9843 61.8696 28.9011 62.1968 28.9011C63.0282 28.915 63.8596 28.9011 64.691 28.8873C64.8682 28.8873 64.8954 28.9981 64.95 29.0952C65.4543 29.8713 65.8768 30.7028 66.2175 31.562C66.2993 31.7838 66.4083 31.8669 66.64 31.8531C67.4851 31.8392 68.3301 31.8392 69.1752 31.8531C69.3796 31.8531 69.4205 31.8115 69.3524 31.6036C67.2398 25.6582 63.2462 21.6252 57.3718 19.5464C56.0089 19.0613 54.5914 18.798 53.1466 18.6733C53.0921 18.6733 53.0239 18.6872 52.9967 18.604C52.874 18.604 52.7514 18.604 52.6287 18.604C52.5878 18.6456 52.5333 18.6456 52.4788 18.6456C52.4242 18.6456 52.3697 18.6594 52.3288 18.604C51.7836 18.604 51.2521 18.604 50.7069 18.604C50.666 18.6594 50.5979 18.6456 50.5433 18.6456C50.5025 18.6456 50.4616 18.6456 50.4207 18.6456C50.3662 18.6456 50.3116 18.6594 50.2571 18.604C50.2026 18.604 50.1344 18.604 50.0663 18.604Z" fill="#FFCA41"/>
<path d="M61.8896 46.0389C62.094 45.1952 62.2849 44.3792 62.4758 43.5631C62.5848 43.1067 62.5848 43.1067 62.1349 43.1067C61.3988 43.1067 60.6626 43.1205 59.9265 43.0928C59.6266 43.079 59.5312 43.2035 59.4766 43.4663C59.313 44.2547 59.0813 45.0154 58.8359 45.79C58.7678 45.9836 58.6996 46.0389 58.5087 46.0389C53.8601 46.0389 49.2251 46.0389 44.5765 46.0389C44.3583 46.0389 44.2902 45.9698 44.222 45.7623C43.9766 44.9877 43.7449 44.1993 43.5813 43.411C43.5404 43.1897 43.445 43.0928 43.1996 43.0928C42.3135 43.1067 41.4138 43.1067 40.514 43.1067C40.6776 44.0195 40.8685 44.8633 41.1275 45.707C41.2229 46.0251 41.1275 46.0528 40.8548 46.0389C40.0233 46.0251 39.1917 46.0389 38.3601 46.0666C38.1829 46.0666 38.1556 45.9559 38.1011 45.8591C37.6103 45.0707 37.1741 44.2547 36.8333 43.3971C36.7515 43.1758 36.6424 43.0928 36.4107 43.1067C35.5927 43.1205 34.7748 43.1205 33.9432 43.1067C33.7251 43.1067 33.6024 43.0928 33.7115 43.3971C35.5791 48.7222 39.0826 52.5259 44.1539 54.8081C47.0985 56.1221 50.2066 56.5923 53.3966 56.2466C58.8495 55.638 63.2528 53.0791 66.5927 48.6669C67.806 47.0625 68.7057 45.2782 69.3465 43.3695C69.4146 43.1758 69.401 43.1067 69.1829 43.1067C68.3104 43.1205 67.4379 43.1205 66.5791 43.1067C66.3746 43.1067 66.3064 43.1897 66.2383 43.3556C65.8975 44.227 65.4612 45.0569 64.9705 45.8591C64.875 46.0113 64.7933 46.0528 64.6024 46.0528C63.8254 46.0251 63.0619 46.0389 62.2849 46.0389C62.1758 46.0389 62.0395 46.0389 61.8896 46.0389Z" fill="#FFCA41"/>
<path d="M38.2857 37.0248C38.4435 37.2745 38.5093 37.571 38.6013 37.8207C38.9563 38.7258 39.3113 39.6153 39.6532 40.5205C39.7978 40.9106 40.0214 41.0511 40.3632 41.0511C41.8622 41.0354 41.5203 41.2071 42.0595 39.709C42.6512 38.0547 43.2166 36.3849 43.7951 34.7151C43.9792 34.1845 43.8477 33.9504 43.3743 33.9348C43.0325 33.9192 42.6906 33.9348 42.3487 33.9348C42.0332 33.9348 41.8359 34.0753 41.7176 34.4654C41.3757 35.6827 40.9944 36.8843 40.6262 38.1328C40.2055 37.0092 39.7715 35.9324 39.4165 34.8087C39.2061 34.1377 38.8906 33.81 38.2857 33.9348C38.1937 33.9504 38.1016 33.9504 37.9964 33.9348C37.5888 33.888 37.3522 34.1065 37.1944 34.559C36.8393 35.6515 36.4317 36.7283 36.0504 37.8051C36.0241 37.8831 36.0241 37.9767 35.9321 38.0235C35.5376 36.8375 35.1431 35.6671 34.775 34.4654C34.6566 34.0909 34.4726 33.9348 34.1438 33.9348C33.802 33.9348 33.4601 33.9192 33.1182 33.9348C32.6843 33.9504 32.5528 34.2157 32.7237 34.6839C33.4469 36.6502 34.1833 38.6166 34.9065 40.5829C35.0248 40.895 35.1957 41.0355 35.4719 41.0355C35.485 41.0355 35.4982 41.0355 35.5113 41.0355C37.0892 41.0198 36.7079 41.2227 37.2996 39.709C37.6414 38.835 37.957 37.9455 38.2857 37.0248Z" fill="#030405"/>
<path d="M48.5132 38.082C48.0679 36.8475 47.637 35.6755 47.2347 34.4722C47.0911 34.0659 46.8756 33.894 46.4877 33.9097C46.143 33.9253 45.7839 33.9097 45.4391 33.9097C44.9363 33.9253 44.7783 34.1753 44.9794 34.6754C45.7695 36.6443 46.5739 38.6133 47.364 40.5823C47.4789 40.8792 47.6657 41.0198 47.953 41.0354C48.0104 41.0354 48.0535 41.0354 48.111 41.0354C49.6912 41.0198 49.3464 41.1917 49.9497 39.7384C50.3232 38.8321 50.6824 37.9257 51.0559 36.9881C51.4581 37.9413 51.8459 38.8946 52.2625 39.8322C52.8515 41.1761 52.5211 41.0354 54.0151 41.0511C54.6184 41.0511 54.6615 41.0198 54.9057 40.4104C55.624 38.5195 56.3422 36.6443 57.0461 34.7535C57.2616 34.1909 57.1036 33.9409 56.5433 33.9253C54.9775 33.894 54.9775 33.894 54.446 35.488C54.1731 36.3318 53.9002 37.1756 53.6272 38.0195C53.6272 38.0351 53.6128 38.0351 53.5841 38.0507C53.4405 37.8788 53.4117 37.6601 53.3255 37.4569C52.9233 36.4412 52.4924 35.4411 52.1045 34.4253C51.9609 34.0659 51.7454 33.9097 51.4006 33.9253C49.8923 33.9409 50.1796 33.7847 49.6193 35.2067C49.2602 36.1443 48.9011 37.0819 48.5132 38.082Z" fill="#030405"/>
<path d="M67.1615 38.1033C66.7002 36.8403 66.2521 35.6396 65.8171 34.4389C65.6853 34.0646 65.4744 33.9087 65.1449 33.9087C63.7741 33.9243 64.0377 33.7839 63.5369 35.1562C63.1942 36.1074 62.8647 37.043 62.4956 38.0566C62.3375 37.5888 62.2056 37.1677 62.0607 36.7467C61.7971 35.9514 61.5203 35.1718 61.283 34.3765C61.1908 34.0646 61.0062 33.9399 60.7558 33.9243C60.3867 33.9087 60.0177 33.9087 59.6486 33.9243C59.2137 33.9399 59.0819 34.205 59.2532 34.6728C59.9781 36.6375 60.7031 38.6023 61.4412 40.5671C61.7312 41.3312 62.3243 40.9413 62.7856 41.0193C63.1151 41.0817 63.3787 40.9725 63.5237 40.5515C63.8928 39.4756 64.2882 38.4308 64.6836 37.3704C64.7231 37.2457 64.7363 37.0898 64.8417 37.0274C65.2899 38.1969 65.7512 39.3508 66.1993 40.5203C66.3443 40.8946 66.5552 41.0349 66.8847 41.0349C68.3741 41.0193 68.0578 41.2064 68.585 39.7095C69.1781 38.0566 69.7449 36.3881 70.3248 34.7351C70.5094 34.1894 70.3776 33.9555 69.8767 33.9399C68.4137 33.8775 68.4137 33.8775 67.926 35.5148C67.7019 36.3413 67.4383 37.1833 67.1615 38.1033Z" fill="#030405"/>
<path d="M45.9161 26.7667C50.0213 26.7667 54.0693 26.7667 58.1602 26.7667C57.8455 26.0725 57.4593 25.4752 57.0445 24.894C56.2291 23.7639 55.3137 22.8114 54.1122 22.1979C52.4672 21.3584 50.8938 21.536 49.3776 22.5531C47.8757 23.554 46.8459 25.0393 45.9161 26.7667Z" fill="white"/>
<path d="M60.1996 23.7056C60.4696 24.6369 60.7197 25.5481 60.9498 26.5199C60.9998 26.7224 61.0598 26.7831 61.1599 26.7629C61.5 26.7629 61.8401 26.7629 62.2402 26.7629C61.6 25.5076 60.9298 24.5155 60.1996 23.7056Z" fill="#FEFEFE"/>
<path d="M42.8535 23.7056C42.4077 24.1718 42.0016 24.7394 41.6152 25.3881C41.3676 25.7935 41.1199 26.2395 40.8128 26.7666C41.2388 26.7666 41.5954 26.7666 41.9421 26.7666C42.0412 26.7666 42.0808 26.6449 42.1106 26.4828C42.3483 25.53 42.596 24.6178 42.8535 23.7056Z" fill="#FEFEFE"/>
<path d="M58.1602 49.2139C54.055 49.2139 50.007 49.2139 45.9161 49.2139C46.5455 50.1839 47.2464 51.0375 48.1475 51.7618C48.8341 52.3308 49.6065 52.7835 50.4933 53.0551C51.8951 53.4819 53.2253 53.3267 54.4984 52.693C56.1004 51.8911 57.2018 50.6365 58.1602 49.2139Z" fill="white"/>
<path d="M60.1996 51.2545C60.9362 50.714 61.5832 50.0382 62.2402 49.2139C61.8221 49.2139 61.4638 49.2139 61.0955 49.2139C61.0258 49.2139 60.986 49.2679 60.9561 49.349C60.7271 49.9977 60.4783 50.6329 60.1996 51.2545Z" fill="#FEFEFE"/>
<path d="M42.8535 51.2545C42.5934 50.6428 42.3433 50.0447 42.1233 49.4195C42.0733 49.2699 42.0032 49.202 41.8732 49.2156C41.5431 49.2292 41.213 49.2156 40.8128 49.2156C41.4531 50.0447 42.1233 50.7108 42.8535 51.2545Z" fill="#FEFEFE"/>
</g>
<defs>
<clipPath id="clip0_395_4920">
<rect width="130" height="100" fill="white"/>
</clipPath>
</defs>
</svg>
