<svg width="130" height="100" viewBox="0 0 130 100" fill="none" xmlns="http://www.w3.org/2000/svg">
<path d="M54.04 26.978C40.84 26.978 27.72 26.9578 14.52 26.9982C11.72 26.9982 11 26.7964 11 26.1103C11.16 23.0227 11.16 19.9351 11 16.8274C11 16.1413 11.8 16 14.36 16C40.84 16.0202 67.32 16.0202 93.72 16C96.36 16 97 16.1816 97 16.8476C96.84 19.9755 96.84 23.1034 97 26.2313C97 26.8771 96.2 27.0184 93.88 26.9982C80.6 26.9578 67.32 26.978 54.04 26.978Z" fill="#DDDDDC"/>
<path d="M54.04 40.978C40.84 40.978 27.72 40.9578 14.52 40.9982C11.72 40.9982 11 40.7964 11 40.1103C11.16 37.0227 11.16 33.9351 11 30.8274C11 30.1413 11.8 30 14.36 30C40.84 30.0202 67.32 30.0202 93.72 30C96.36 30 97 30.1816 97 30.8476C96.84 33.9755 96.84 37.1034 97 40.2313C97 40.8771 96.2 41.0184 93.88 40.9982C80.6 40.9578 67.32 40.978 54.04 40.978Z" fill="#DDDDDC"/>
<path d="M54.04 54.978C40.84 54.978 27.72 54.9578 14.52 54.9982C11.72 54.9982 11 54.7964 11 54.1103C11.16 51.0227 11.16 47.9351 11 44.8274C11 44.1413 11.8 44 14.36 44C40.84 44.0202 67.32 44.0202 93.72 44C96.36 44 97 44.1816 97 44.8476C96.84 47.9755 96.84 51.1034 97 54.2313C97 54.8771 96.2 55.0184 93.88 54.9982C80.6 54.9578 67.32 54.978 54.04 54.978Z" fill="#DDDDDC"/>
<path d="M54.04 68.978C40.84 68.978 27.72 68.9578 14.52 68.9982C11.72 68.9982 11 68.7964 11 68.1103C11.16 65.0227 11.16 61.9351 11 58.8274C11 58.1413 11.8 58 14.36 58C40.84 58.0202 67.32 58.0202 93.72 58C96.36 58 97 58.1816 97 58.8476C96.84 61.9755 96.84 65.1034 97 68.2313C97 68.8771 96.2 69.0184 93.88 68.9982C80.6 68.9578 67.32 68.978 54.04 68.978Z" fill="#DDDDDC"/>
<path d="M106.979 75.4575C106.281 76.585 105.232 76.872 103.958 76.872C92.8596 76.8515 81.7404 76.872 70.6418 76.831C69.8608 76.831 69.6141 76.9949 69.6347 77.8149C69.6964 80.8897 69.6964 83.9645 69.6347 87.0394C69.6141 87.9003 69.9019 88.0233 70.6623 88.0028C72.8821 87.9618 75.1018 88.0028 77.3215 87.9823C77.8148 87.9823 78.2875 88.0233 78.7397 88.1873C79.644 88.5153 80.0962 89.1917 80.1167 90.1347C80.1373 91.0366 79.4796 91.8361 78.5752 92.0411C78.1436 92.1436 77.6915 92.1846 77.2598 92.1846C62.0918 92.1846 46.9237 92.1846 31.7556 92.1846C31.5911 92.1846 31.4062 92.1846 31.2417 92.1846C29.7619 92.1026 28.837 91.2621 28.8781 90.0322C28.8987 88.8228 29.8647 88.0028 31.3445 87.9823C33.7287 87.9618 36.1334 87.9413 38.5175 87.9823C39.1957 88.0028 39.3602 87.7978 39.3602 87.1419C39.3191 84.067 39.3191 80.9922 39.3602 77.9174C39.3807 77.0564 39.1957 76.79 38.2709 76.79C27.1723 76.831 16.0531 76.8105 4.95449 76.8105C4.50232 76.8105 4.07071 76.8105 3.6391 76.6875C2.61145 76.4005 2.03597 75.7855 2.01541 74.7401C1.99486 72.6902 1.99486 70.6403 2.01541 68.5904C2.03597 67.381 2.96085 66.4791 4.07071 66.4995C5.20113 66.5201 6.06435 67.4015 6.10546 68.6314C6.12601 69.6154 6.18767 70.6198 6.0849 71.6038C6.00269 72.5057 6.35209 72.7517 7.15366 72.6082C7.19476 72.6082 7.21532 72.6082 7.25642 72.6082C38.7641 72.6082 70.2513 72.6082 101.759 72.6287C102.704 72.6287 102.91 72.3827 102.91 71.4808C102.869 58.9765 102.889 46.4927 102.889 33.9884C102.889 33.1275 102.972 32.3485 103.712 31.7951C104.821 30.9546 105.993 31.3031 107 32.7995C106.979 47.0257 106.979 61.2519 106.979 75.4575Z" fill="#020203"/>
<path d="M107 17.6519C106.075 19.0287 105.13 19.4397 104.061 18.8849C103.3 18.4944 102.91 17.8574 102.91 16.9943C102.91 15.8641 102.868 14.7338 102.93 13.6036C102.951 13.0487 102.766 12.8638 102.231 12.946C102.067 12.9665 101.882 12.946 101.717 12.946C70.2271 12.946 38.7575 12.946 7.28777 12.9254C6.28058 12.9254 6.09558 13.172 6.09558 14.1379C6.13669 26.735 6.11614 39.3321 6.11614 51.9292C6.11614 53.6554 4.9445 54.6623 3.46454 54.2308C2.62179 53.9842 2.16958 53.3882 2.02569 52.5457C1.98458 52.2374 2.00514 51.9292 2.00514 51.6209C2.00514 38.2635 2.00514 24.906 2.00514 11.5691C2.00514 9.47303 2.64234 8.83598 4.75951 8.83598C37.9147 8.83598 71.0699 8.83598 104.225 8.81543C105.479 8.81543 106.424 9.12368 107 10.2745C107 12.7199 107 15.1859 107 17.6519Z" fill="#020203"/>
<path d="M106.979 25.8523C106.068 27.1758 105.198 27.5768 104.166 27.0956C103.337 26.7146 102.871 26.0528 102.952 25.1104C103.013 24.208 103.539 23.6064 104.369 23.3457C105.259 23.065 106.028 23.3257 106.594 24.0877C106.736 24.2681 106.858 24.4687 106.999 24.6491C106.979 25.0502 106.979 25.4512 106.979 25.8523Z" fill="#040405"/>
<path d="M51.1143 20.9829C60.7317 20.9829 68.7291 28.3939 69.4879 37.9749C69.8365 42.5402 68.6881 46.6552 65.9813 50.3402C65.5917 50.8725 65.6942 51.1386 66.1249 51.548C69.2213 54.6189 72.2972 57.7102 75.3937 60.8015C76.0909 61.4976 76.624 62.2755 76.2139 63.3401C75.7423 64.5889 74.3273 65.0802 73.22 64.3637C72.8714 64.1385 72.5843 63.8519 72.2972 63.5653C69.2828 60.5559 66.2684 57.5464 63.2745 54.5165C62.8233 54.0661 62.5568 53.9433 61.9621 54.3732C50.8067 62.4598 35.1399 55.9905 32.8842 42.356C31.2232 32.2427 38.3799 22.6002 48.592 21.1876C49.4123 21.0443 50.253 21.0034 51.1143 20.9829Z" fill="#020203"/>
<path d="M2 60.3941C2 59.2904 2.97828 58.3473 4.07885 58.3875C5.15904 58.4276 6.05579 59.3506 6.05579 60.4141C6.05579 61.5178 5.05713 62.4809 3.97694 62.4408C2.89676 62.3806 2 61.4576 2 60.3941Z" fill="#030405"/>
<path d="M54.51 88.1064C51.1208 88.1064 47.752 88.0857 44.3628 88.127C43.6439 88.127 43.459 87.9203 43.459 87.2176C43.5001 84.0554 43.5001 80.8931 43.459 77.7102C43.459 77.0075 43.6644 76.8628 44.3217 76.8628C51.1208 76.8835 57.9198 76.8835 64.6983 76.8628C65.3762 76.8628 65.5405 77.0488 65.5405 77.7309C65.4994 80.9344 65.4994 84.138 65.5405 87.3416C65.5405 88.003 65.3351 88.1477 64.7394 88.127C61.3296 88.0857 57.9198 88.1064 54.51 88.1064Z" fill="#DDDDDC"/>
<path d="M36.6994 39.4594C36.7408 31.487 43.2945 24.9772 51.1921 25.039C59.1723 25.1214 65.602 31.6312 65.54 39.5624C65.4779 47.576 59.0689 53.9003 51.0267 53.8797C43.1291 53.8385 36.6581 47.3288 36.6994 39.4594Z" fill="#FFCA41"/>
</svg>
