<svg width="517" height="572" viewBox="0 0 517 572" fill="none" xmlns="http://www.w3.org/2000/svg">
<path opacity="0.55" d="M465.856 385.187C493.711 385.187 516.291 362.607 516.291 334.752C516.291 306.898 493.711 284.318 465.856 284.318C438.002 284.318 415.422 306.898 415.422 334.752C415.422 362.607 438.002 385.187 465.856 385.187Z" fill="white"/>
<path d="M493.72 258.741H484.11C483.429 257.153 482.644 255.611 481.759 254.126L487.549 247.128C487.79 246.831 487.904 246.451 487.868 246.071C487.831 245.69 487.646 245.339 487.353 245.093L472.116 232.512C471.97 232.39 471.802 232.298 471.62 232.242C471.438 232.186 471.247 232.166 471.058 232.184C470.868 232.202 470.685 232.258 470.517 232.348C470.349 232.438 470.201 232.56 470.081 232.707L465.086 238.857C463.009 237.858 460.85 237.042 458.632 236.419V228.408C458.629 228.025 458.475 227.659 458.204 227.388C457.934 227.117 457.567 226.964 457.184 226.961H437.409C437.026 226.964 436.659 227.117 436.388 227.388C436.117 227.659 435.964 228.025 435.961 228.408V236.821C433.751 237.524 431.61 238.423 429.561 239.51L423.956 232.74C423.836 232.593 423.688 232.47 423.521 232.381C423.353 232.291 423.169 232.235 422.98 232.217C422.79 232.199 422.599 232.218 422.418 232.274C422.236 232.331 422.067 232.422 421.921 232.544L406.684 245.126C406.39 245.371 406.206 245.724 406.171 246.105C406.136 246.487 406.254 246.866 406.499 247.161L413.356 255.465C412.779 256.553 412.267 257.642 411.745 258.73H398.696C398.312 258.73 397.943 258.883 397.672 259.154C397.401 259.426 397.248 259.794 397.248 260.178V279.91C397.251 280.293 397.404 280.659 397.675 280.93C397.946 281.201 398.313 281.354 398.696 281.357H409.198C409.864 285.052 411.063 288.63 412.757 291.98L404.867 301.514C404.626 301.811 404.511 302.191 404.548 302.571C404.585 302.952 404.769 303.303 405.062 303.549L420.3 316.13C420.594 316.375 420.974 316.493 421.355 316.458C421.737 316.424 422.089 316.239 422.335 315.945L428.495 308.512C430.87 309.859 433.38 310.953 435.983 311.777V322.29C435.986 322.673 436.139 323.04 436.41 323.311C436.681 323.582 437.047 323.735 437.43 323.738H457.141C457.524 323.735 457.89 323.582 458.161 323.311C458.432 323.04 458.585 322.673 458.588 322.29V312.169C461.413 311.392 464.14 310.296 466.718 308.904L472.552 315.956C472.797 316.25 473.15 316.435 473.531 316.469C473.913 316.504 474.292 316.386 474.587 316.141L489.824 303.56C489.972 303.44 490.094 303.292 490.184 303.124C490.273 302.956 490.329 302.772 490.347 302.583C490.365 302.394 490.346 302.203 490.29 302.021C490.234 301.839 490.142 301.67 490.02 301.525L482.761 292.752C484.653 289.182 485.985 285.343 486.711 281.368H493.753C494.136 281.365 494.503 281.212 494.773 280.941C495.044 280.67 495.198 280.304 495.2 279.921V260.221C495.205 260.026 495.17 259.831 495.097 259.65C495.024 259.468 494.915 259.303 494.777 259.165C494.639 259.026 494.474 258.917 494.292 258.845C494.11 258.772 493.916 258.737 493.72 258.741V258.741Z" stroke="black" stroke-width="0.5" stroke-miterlimit="10"/>
<path d="M49.1371 247.444C50.4836 247.444 51.5751 246.353 51.5751 245.006C51.5751 243.66 50.4836 242.568 49.1371 242.568C47.7907 242.568 46.6992 243.66 46.6992 245.006C46.6992 246.353 47.7907 247.444 49.1371 247.444Z" stroke="black" stroke-width="0.5" stroke-miterlimit="10"/>
<path d="M497.31 271.846C497.312 272.33 497.17 272.805 496.902 273.209C496.635 273.613 496.253 273.929 495.806 274.116C495.358 274.303 494.866 274.353 494.39 274.26C493.914 274.166 493.477 273.934 493.133 273.592C492.79 273.25 492.555 272.814 492.46 272.338C492.365 271.863 492.412 271.37 492.597 270.922C492.782 270.474 493.096 270.091 493.499 269.821C493.902 269.552 494.376 269.408 494.861 269.408C495.182 269.406 495.5 269.468 495.797 269.59C496.094 269.712 496.364 269.891 496.592 270.118C496.819 270.344 497 270.614 497.123 270.91C497.246 271.207 497.31 271.525 497.31 271.846V271.846Z" stroke="black" stroke-width="0.5" stroke-miterlimit="10"/>
<path d="M51.6395 98.2739C51.6395 98.756 51.4965 99.2274 51.2287 99.6283C50.9608 100.029 50.58 100.342 50.1346 100.526C49.6891 100.711 49.1989 100.759 48.726 100.665C48.2531 100.571 47.8187 100.339 47.4777 99.9977C47.1368 99.6568 46.9046 99.2224 46.8105 98.7495C46.7164 98.2766 46.7647 97.7864 46.9492 97.3409C47.1338 96.8954 47.4462 96.5147 47.8472 96.2468C48.2481 95.9789 48.7194 95.8359 49.2016 95.8359C49.8482 95.8359 50.4683 96.0928 50.9255 96.55C51.3827 97.0072 51.6395 97.6273 51.6395 98.2739V98.2739Z" stroke="black" stroke-width="0.5" stroke-miterlimit="10"/>
<path d="M81.7758 158.645C83.1222 158.645 84.2137 157.553 84.2137 156.207C84.2137 154.861 83.1222 153.769 81.7758 153.769C80.4294 153.769 79.3379 154.861 79.3379 156.207C79.3379 157.553 80.4294 158.645 81.7758 158.645Z" stroke="black" stroke-width="0.5" stroke-miterlimit="10"/>
<path d="M417.349 224.948C417.351 225.432 417.209 225.907 416.941 226.311C416.674 226.715 416.292 227.031 415.845 227.218C415.397 227.405 414.905 227.455 414.429 227.362C413.953 227.268 413.516 227.036 413.172 226.694C412.829 226.352 412.594 225.916 412.499 225.44C412.404 224.965 412.452 224.472 412.637 224.024C412.822 223.576 413.135 223.193 413.538 222.923C413.941 222.654 414.415 222.51 414.9 222.51C415.221 222.508 415.539 222.57 415.836 222.692C416.133 222.814 416.403 222.993 416.631 223.22C416.858 223.446 417.039 223.716 417.162 224.012C417.285 224.309 417.349 224.627 417.349 224.948V224.948Z" stroke="black" stroke-width="0.5" stroke-miterlimit="10"/>
<path d="M197.979 92.8973C199.325 92.8973 200.417 91.8058 200.417 90.4594C200.417 89.113 199.325 88.0215 197.979 88.0215C196.633 88.0215 195.541 89.113 195.541 90.4594C195.541 91.8058 196.633 92.8973 197.979 92.8973Z" stroke="black" stroke-width="0.5" stroke-miterlimit="10"/>
<path d="M170.739 57.4383C170.739 57.9223 170.595 58.3954 170.325 58.7972C170.055 59.199 169.672 59.5114 169.224 59.6945C168.776 59.8777 168.283 59.9234 167.809 59.8257C167.335 59.7281 166.901 59.4915 166.562 59.1462C166.223 58.8009 165.994 58.3624 165.905 57.8867C165.816 57.4109 165.87 56.9194 166.062 56.4748C166.253 56.0302 166.572 55.6525 166.979 55.3899C167.385 55.1273 167.861 54.9917 168.345 55.0004C168.984 55.0118 169.593 55.2737 170.041 55.7297C170.488 56.1856 170.739 56.7992 170.739 57.4383V57.4383Z" stroke="black" stroke-width="0.5" stroke-miterlimit="10"/>
<path d="M275.222 61.5086C275.228 61.9965 275.088 62.4753 274.821 62.8834C274.553 63.2915 274.17 63.6103 273.72 63.799C273.27 63.9877 272.774 64.0376 272.295 63.9423C271.816 63.847 271.377 63.611 271.034 63.2643C270.69 62.9177 270.458 62.4763 270.367 61.9969C270.276 61.5174 270.331 61.0217 270.523 60.5734C270.716 60.1251 271.038 59.7446 271.449 59.4807C271.859 59.2168 272.339 59.0816 272.827 59.0924C273.462 59.1037 274.068 59.3626 274.515 59.8139C274.963 60.2652 275.216 60.8732 275.222 61.5086Z" stroke="black" stroke-width="0.5" stroke-miterlimit="10"/>
<path d="M489.736 487.537H39.427C38.0866 487.537 37 488.623 37 489.964V491.531C37 492.871 38.0866 493.958 39.427 493.958H489.736C491.077 493.958 492.163 492.871 492.163 491.531V489.964C492.163 488.623 491.077 487.537 489.736 487.537Z" fill="black"/>
<path d="M367.917 455.321H304.096V480.441H367.917V455.321Z" fill="black"/>
<path d="M466.162 273.206H211.421C205.924 273.206 199.111 276.471 199.111 283.414V457.432C199.111 463.734 205.924 470.123 211.421 470.123H466.162C471.669 470.123 472.899 463.734 472.899 457.432V283.414C472.899 276.482 471.669 273.206 466.162 273.206Z" fill="black"/>
<path opacity="0.55" d="M199.109 444.372V457.432C199.109 463.734 205.923 470.123 211.419 470.123H466.16C471.667 470.123 472.897 463.734 472.897 457.432V444.372" fill="white"/>
<path d="M462.177 284.361H206.619V433.26H462.177V284.361Z" fill="black"/>
<path d="M462.177 284.361H206.619V433.26H462.177V284.361Z" fill="#DDDDDC"/>
<path d="M384.426 484.086C384.428 484.606 384.327 485.12 384.128 485.6C383.93 486.08 383.639 486.516 383.272 486.883C382.905 487.25 382.469 487.541 381.989 487.739C381.509 487.937 380.995 488.039 380.476 488.037H291.535C290.487 488.037 289.482 487.621 288.741 486.88C288 486.139 287.584 485.134 287.584 484.086C287.587 483.04 288.004 482.036 288.744 481.296C289.485 480.556 290.488 480.139 291.535 480.136H380.476C381.523 480.136 382.528 480.552 383.269 481.293C384.01 482.034 384.426 483.039 384.426 484.086Z" fill="white"/>
<path opacity="0.55" d="M384.426 484.086C384.428 484.606 384.327 485.12 384.128 485.6C383.93 486.08 383.639 486.516 383.272 486.883C382.905 487.25 382.469 487.541 381.989 487.739C381.509 487.937 380.995 488.039 380.476 488.037H291.535C290.487 488.037 289.482 487.621 288.741 486.88C288 486.139 287.584 485.134 287.584 484.086C287.587 483.04 288.004 482.036 288.744 481.296C289.485 480.556 290.488 480.139 291.535 480.136H380.476C381.523 480.136 382.528 480.552 383.269 481.293C384.01 482.034 384.426 483.039 384.426 484.086Z" fill="white"/>
<path opacity="0.38" d="M384.426 484.086C384.428 484.606 384.327 485.12 384.128 485.6C383.93 486.08 383.639 486.516 383.272 486.883C382.905 487.25 382.469 487.541 381.989 487.739C381.509 487.937 380.995 488.039 380.476 488.037H291.535C290.487 488.037 289.482 487.621 288.741 486.88C288 486.139 287.584 485.134 287.584 484.086C287.587 483.04 288.004 482.036 288.744 481.296C289.485 480.556 290.488 480.139 291.535 480.136H380.476C381.523 480.136 382.528 480.552 383.269 481.293C384.01 482.034 384.426 483.039 384.426 484.086Z" fill="black"/>
<path d="M342.198 462.156C341.186 463.169 339.896 463.859 338.492 464.139C337.088 464.419 335.632 464.276 334.309 463.728C332.986 463.181 331.856 462.253 331.06 461.063C330.265 459.872 329.84 458.473 329.84 457.041C329.84 455.609 330.265 454.209 331.06 453.019C331.856 451.829 332.986 450.901 334.309 450.353C335.632 449.806 337.088 449.663 338.492 449.943C339.896 450.223 341.186 450.913 342.198 451.926C342.87 452.597 343.404 453.394 343.768 454.272C344.132 455.15 344.32 456.091 344.32 457.041C344.32 457.991 344.132 458.932 343.768 459.81C343.404 460.688 342.87 461.485 342.198 462.156Z" stroke="black" stroke-width="0.5" stroke-miterlimit="10"/>
<path opacity="0.55" d="M78.4118 361.32C86.9472 361.32 93.8665 354.4 93.8665 345.865C93.8665 337.329 86.9472 330.41 78.4118 330.41C69.8763 330.41 62.957 337.329 62.957 345.865C62.957 354.4 69.8763 361.32 78.4118 361.32Z" fill="white"/>
<path d="M424.643 157.655C426.663 157.655 428.3 156.017 428.3 153.998C428.3 151.978 426.663 150.341 424.643 150.341C422.624 150.341 420.986 151.978 420.986 153.998C420.986 156.017 422.624 157.655 424.643 157.655Z" fill="white"/>
<path d="M491.588 434.12C491.588 435.328 491.23 436.508 490.559 437.512C489.888 438.517 488.935 439.299 487.819 439.761C486.704 440.223 485.476 440.344 484.291 440.109C483.107 439.873 482.019 439.292 481.165 438.438C480.311 437.584 479.73 436.496 479.494 435.312C479.259 434.127 479.38 432.899 479.842 431.784C480.304 430.668 481.086 429.715 482.091 429.044C483.095 428.373 484.275 428.015 485.483 428.015C487.102 428.015 488.655 428.658 489.8 429.803C490.945 430.948 491.588 432.501 491.588 434.12Z" fill="white"/>
<path d="M356.76 125.003H290.969C282.98 125.003 276.439 118.19 276.439 109.875C276.439 101.56 282.97 94.7466 290.969 94.7466H356.76C364.749 94.7466 371.279 101.56 371.279 109.875C371.279 118.19 364.749 125.003 356.76 125.003Z" fill="#FFCA41"/>
<path d="M338.813 119.67C352.5 119.67 363.595 108.117 363.595 93.8651C363.595 79.6134 352.5 68.0601 338.813 68.0601C325.127 68.0601 314.031 79.6134 314.031 93.8651C314.031 108.117 325.127 119.67 338.813 119.67Z" fill="#FFCA41"/>
<path d="M305.915 109.875C313.699 109.875 320.009 103.302 320.009 95.1932C320.009 87.0846 313.699 80.5112 305.915 80.5112C298.131 80.5112 291.82 87.0846 291.82 95.1932C291.82 103.302 298.131 109.875 305.915 109.875Z" fill="#FFCA41"/>
<path d="M64.9508 196.607C64.9508 198.135 64.4976 199.629 63.6485 200.9C62.7994 202.171 61.5926 203.161 60.1806 203.746C58.7686 204.331 57.2149 204.484 55.7159 204.186C54.217 203.887 52.8401 203.152 51.7594 202.071C50.6787 200.99 49.9427 199.613 49.6446 198.114C49.3464 196.615 49.4994 195.062 50.0843 193.65C50.6692 192.238 51.6596 191.031 52.9304 190.182C54.2011 189.333 55.6951 188.879 57.2235 188.879C59.2729 188.879 61.2384 189.694 62.6875 191.143C64.1367 192.592 64.9508 194.557 64.9508 196.607Z" fill="white"/>
<path d="M177.647 336.918H56.4473V488.211H177.647V336.918Z" fill="black"/>
<path d="M184.473 449.161H47.176C43.7619 449.161 40.9941 451.928 40.9941 455.343V475.51C40.9941 478.924 43.7619 481.692 47.176 481.692H184.473C187.887 481.692 190.655 478.924 190.655 475.51V455.343C190.655 451.928 187.887 449.161 184.473 449.161Z" fill="black"/>
<path opacity="0.28" d="M184.473 449.161H47.176C43.7619 449.161 40.9941 451.928 40.9941 455.343V475.51C40.9941 478.924 43.7619 481.692 47.176 481.692H184.473C187.887 481.692 190.655 478.924 190.655 475.51V455.343C190.655 451.928 187.887 449.161 184.473 449.161Z" fill="white"/>
<path d="M184.473 408.5H47.176C43.7619 408.5 40.9941 411.268 40.9941 414.682V434.849C40.9941 438.263 43.7619 441.031 47.176 441.031H184.473C187.887 441.031 190.655 438.263 190.655 434.849V414.682C190.655 411.268 187.887 408.5 184.473 408.5Z" fill="black"/>
<path opacity="0.28" d="M184.473 408.5H47.176C43.7619 408.5 40.9941 411.268 40.9941 414.682V434.849C40.9941 438.263 43.7619 441.031 47.176 441.031H184.473C187.887 441.031 190.655 438.263 190.655 434.849V414.682C190.655 411.268 187.887 408.5 184.473 408.5Z" fill="white"/>
<path d="M184.473 367.828H47.176C43.7619 367.828 40.9941 370.595 40.9941 374.01V394.177C40.9941 397.591 43.7619 400.359 47.176 400.359H184.473C187.887 400.359 190.655 397.591 190.655 394.177V374.01C190.655 370.595 187.887 367.828 184.473 367.828Z" fill="black"/>
<path opacity="0.28" d="M184.473 367.828H47.176C43.7619 367.828 40.9941 370.595 40.9941 374.01V394.177C40.9941 397.591 43.7619 400.359 47.176 400.359H184.473C187.887 400.359 190.655 397.591 190.655 394.177V374.01C190.655 370.595 187.887 367.828 184.473 367.828Z" fill="white"/>
<path d="M184.473 327.156H47.176C43.7619 327.156 40.9941 329.924 40.9941 333.338V353.505C40.9941 356.92 43.7619 359.687 47.176 359.687H184.473C187.887 359.687 190.655 356.92 190.655 353.505V333.338C190.655 329.924 187.887 327.156 184.473 327.156Z" fill="black"/>
<path opacity="0.28" d="M184.473 327.156H47.176C43.7619 327.156 40.9941 329.924 40.9941 333.338V353.505C40.9941 356.92 43.7619 359.687 47.176 359.687H184.473C187.887 359.687 190.655 356.92 190.655 353.505V333.338C190.655 329.924 187.887 327.156 184.473 327.156Z" fill="white"/>
<path d="M389.706 339.194H378.3C377.487 337.321 376.552 335.503 375.503 333.752L382.371 325.448C382.66 325.095 382.799 324.642 382.756 324.187C382.713 323.732 382.493 323.313 382.142 323.021L364.086 308.077C363.735 307.788 363.284 307.65 362.831 307.693C362.378 307.735 361.961 307.956 361.67 308.306L355.651 315.576C353.201 314.391 350.652 313.422 348.033 312.681V303.158C348.03 302.704 347.848 302.269 347.525 301.949C347.203 301.629 346.767 301.449 346.313 301.449H322.826C322.372 301.449 321.936 301.629 321.614 301.949C321.292 302.269 321.11 302.704 321.107 303.158V313.16C318.478 313.996 315.929 315.063 313.488 316.349L306.86 308.328C306.568 307.977 306.148 307.756 305.694 307.713C305.239 307.671 304.786 307.809 304.433 308.099L286.377 323.042C286.027 323.333 285.807 323.75 285.764 324.203C285.721 324.656 285.859 325.107 286.149 325.458L294.301 335.319C293.604 336.592 292.962 337.898 292.385 339.248H276.876C276.422 339.248 275.986 339.428 275.664 339.748C275.342 340.068 275.159 340.503 275.156 340.957V364.4C275.156 364.856 275.337 365.293 275.66 365.616C275.982 365.938 276.42 366.12 276.876 366.12H289.348C290.138 370.507 291.561 374.755 293.571 378.734L284.201 389.955C283.914 390.307 283.777 390.758 283.82 391.21C283.863 391.662 284.082 392.079 284.429 392.371L302.496 407.368C302.847 407.658 303.298 407.796 303.751 407.753C304.204 407.71 304.621 407.49 304.912 407.14L312.215 398.302C315.033 399.915 318.013 401.224 321.107 402.21V414.704C321.11 415.158 321.292 415.593 321.614 415.913C321.936 416.233 322.372 416.413 322.826 416.413H346.27C346.724 416.413 347.16 416.233 347.482 415.913C347.804 415.593 347.986 415.158 347.989 414.704V402.732C351.343 401.789 354.581 400.475 357.643 398.814L364.565 407.183C364.856 407.533 365.273 407.754 365.726 407.797C366.179 407.84 366.63 407.701 366.981 407.412L385.048 392.458C385.398 392.167 385.618 391.75 385.661 391.297C385.704 390.844 385.566 390.393 385.277 390.042L376.646 379.626C378.9 375.391 380.483 370.83 381.337 366.109H389.706C390.162 366.109 390.6 365.928 390.922 365.605C391.245 365.283 391.426 364.845 391.426 364.389V340.902C391.423 340.448 391.24 340.014 390.918 339.693C390.596 339.373 390.16 339.194 389.706 339.194ZM335.343 380.551C330.822 380.551 326.403 379.211 322.645 376.699C318.886 374.188 315.957 370.618 314.227 366.442C312.497 362.266 312.044 357.67 312.926 353.237C313.808 348.803 315.985 344.731 319.181 341.534C322.378 338.338 326.45 336.161 330.884 335.279C335.317 334.397 339.913 334.85 344.089 336.58C348.265 338.31 351.835 341.239 354.346 344.998C356.858 348.756 358.198 353.175 358.198 357.696C358.192 363.754 355.782 369.561 351.496 373.843C347.211 378.125 341.4 380.53 335.343 380.53V380.551Z" fill="white"/>
<path d="M359.237 364.904C362.358 351.547 354.06 338.189 340.703 335.069C327.345 331.948 313.988 340.246 310.867 353.603C307.747 366.961 316.045 380.318 329.402 383.439C342.759 386.559 356.117 378.261 359.237 364.904Z" fill="white"/>
<path d="M335.059 378.145C345.488 378.145 353.942 369.691 353.942 359.262C353.942 348.834 345.488 340.379 335.059 340.379C324.63 340.379 316.176 348.834 316.176 359.262C316.176 369.691 324.63 378.145 335.059 378.145Z" stroke="black" stroke-width="0.5" stroke-miterlimit="10"/>
<path d="M371.623 367.793C376.316 347.612 363.76 327.448 343.579 322.755C323.398 318.062 303.234 330.618 298.542 350.799C293.849 370.98 306.405 391.144 326.586 395.837C346.767 400.53 366.931 387.974 371.623 367.793Z" stroke="black" stroke-width="0.5" stroke-linecap="round" stroke-linejoin="round"/>
<path d="M62.1404 279.17C62.1404 280.461 61.7574 281.724 61.0399 282.798C60.3223 283.872 59.3025 284.709 58.1092 285.203C56.916 285.697 55.603 285.826 54.3363 285.574C53.0695 285.323 51.906 284.701 50.9927 283.787C50.0795 282.874 49.4575 281.711 49.2056 280.444C48.9536 279.177 49.0829 277.864 49.5772 276.671C50.0714 275.478 50.9084 274.458 51.9823 273.74C53.0562 273.023 54.3187 272.64 55.6102 272.64C57.3421 272.64 59.0031 273.328 60.2278 274.552C61.4524 275.777 62.1404 277.438 62.1404 279.17Z" stroke="black" stroke-width="0.5" stroke-miterlimit="10"/>
<path d="M508.794 293.548C512.388 293.548 515.302 290.634 515.302 287.039C515.302 283.445 512.388 280.531 508.794 280.531C505.199 280.531 502.285 283.445 502.285 287.039C502.285 290.634 505.199 293.548 508.794 293.548Z" stroke="black" stroke-width="0.5" stroke-miterlimit="10"/>
<path d="M412.462 206.239C416.056 206.239 418.97 203.325 418.97 199.731C418.97 196.136 416.056 193.222 412.462 193.222C408.867 193.222 405.953 196.136 405.953 199.731C405.953 203.325 408.867 206.239 412.462 206.239Z" stroke="black" stroke-width="0.5" stroke-miterlimit="10"/>
<path d="M70.3482 73.7414C73.9427 73.7414 76.8566 70.8275 76.8566 67.233C76.8566 63.6385 73.9427 60.7246 70.3482 60.7246C66.7538 60.7246 63.8398 63.6385 63.8398 67.233C63.8398 70.8275 66.7538 73.7414 70.3482 73.7414Z" stroke="black" stroke-width="0.5" stroke-miterlimit="10"/>
<path d="M58.4853 351.067C62.3022 351.067 65.3964 347.973 65.3964 344.156C65.3964 340.339 62.3022 337.245 58.4853 337.245C54.6684 337.245 51.5742 340.339 51.5742 344.156C51.5742 347.973 54.6684 351.067 58.4853 351.067Z" fill="white"/>
<path d="M80.0326 344.156C80.0326 344.909 79.8092 345.646 79.3906 346.272C78.972 346.899 78.3771 347.387 77.6811 347.675C76.985 347.964 76.2191 348.039 75.4802 347.892C74.7413 347.745 74.0625 347.382 73.5298 346.849C72.997 346.317 72.6342 345.638 72.4873 344.899C72.3403 344.16 72.4157 343.394 72.704 342.698C72.9923 342.002 73.4806 341.407 74.107 340.989C74.7334 340.57 75.4699 340.347 76.2233 340.347C77.2336 340.347 78.2025 340.748 78.9169 341.462C79.6313 342.177 80.0326 343.146 80.0326 344.156Z" fill="#FFCA41"/>
<path d="M94.8568 344.156C94.8568 344.909 94.6334 345.646 94.2148 346.272C93.7963 346.899 93.2013 347.387 92.5053 347.675C91.8092 347.964 91.0433 348.039 90.3044 347.892C89.5655 347.745 88.8867 347.382 88.354 346.849C87.8213 346.317 87.4585 345.638 87.3115 344.899C87.1645 344.16 87.2399 343.394 87.5282 342.698C87.8166 342.002 88.3048 341.407 88.9312 340.989C89.5577 340.57 90.2941 340.347 91.0476 340.347C92.0578 340.347 93.0267 340.748 93.7411 341.462C94.4555 342.177 94.8568 343.146 94.8568 344.156Z" fill="#FFCA41"/>
<path d="M109.853 344.156C109.853 344.909 109.629 345.646 109.211 346.272C108.792 346.899 108.197 347.387 107.501 347.675C106.805 347.964 106.039 348.039 105.3 347.892C104.562 347.745 103.883 347.382 103.35 346.849C102.817 346.317 102.455 345.638 102.308 344.899C102.161 344.16 102.236 343.394 102.524 342.698C102.813 342.002 103.301 341.407 103.927 340.989C104.554 340.57 105.29 340.347 106.044 340.347C107.054 340.347 108.023 340.748 108.737 341.462C109.452 342.177 109.853 343.146 109.853 344.156Z" fill="#FFCA41"/>
<path d="M124.079 344.156C124.079 344.909 123.856 345.646 123.437 346.272C123.019 346.899 122.424 347.387 121.728 347.675C121.032 347.964 120.266 348.039 119.527 347.892C118.788 347.745 118.109 347.382 117.577 346.849C117.044 346.317 116.681 345.638 116.534 344.899C116.387 344.16 116.463 343.394 116.751 342.698C117.039 342.002 117.527 341.407 118.154 340.989C118.78 340.57 119.517 340.347 120.27 340.347C121.28 340.347 122.249 340.748 122.964 341.462C123.678 342.177 124.079 343.146 124.079 344.156Z" fill="#FFCA41"/>
<path d="M176.549 338.736H134.974C134.396 338.736 133.843 338.506 133.434 338.098C133.026 337.69 132.797 337.136 132.797 336.559C132.797 335.982 133.026 335.428 133.434 335.02C133.843 334.612 134.396 334.382 134.974 334.382H176.549C177.126 334.382 177.68 334.612 178.088 335.02C178.496 335.428 178.726 335.982 178.726 336.559C178.726 337.136 178.496 337.69 178.088 338.098C177.68 338.506 177.126 338.736 176.549 338.736Z" fill="#FFCA41"/>
<path d="M176.549 349.217H134.974C134.396 349.217 133.843 348.988 133.434 348.58C133.026 348.171 132.797 347.618 132.797 347.04C132.797 346.463 133.026 345.91 133.434 345.501C133.843 345.093 134.396 344.864 134.974 344.864H176.549C177.126 344.864 177.68 345.093 178.088 345.501C178.496 345.91 178.726 346.463 178.726 347.04C178.726 347.618 178.496 348.171 178.088 348.58C177.68 348.988 177.126 349.217 176.549 349.217Z" fill="#FFCA41"/>
<path d="M58.4853 391.554C62.3022 391.554 65.3964 388.46 65.3964 384.643C65.3964 380.826 62.3022 377.732 58.4853 377.732C54.6684 377.732 51.5742 380.826 51.5742 384.643C51.5742 388.46 54.6684 391.554 58.4853 391.554Z" fill="white"/>
<path d="M80.0326 384.643C80.0347 385.397 79.8131 386.134 79.3959 386.762C78.9786 387.39 78.3845 387.88 77.6886 388.17C76.9928 388.46 76.2265 388.537 75.4869 388.391C74.7472 388.246 74.0675 387.884 73.5336 387.351C72.9998 386.819 72.6359 386.14 72.4881 385.401C72.3402 384.662 72.415 383.895 72.703 383.199C72.991 382.502 73.4792 381.907 74.1059 381.487C74.7325 381.068 75.4694 380.845 76.2233 380.845C77.2317 380.845 78.199 381.245 78.913 381.957C79.6271 382.669 80.0297 383.635 80.0326 384.643Z" fill="#FFCA41"/>
<path d="M94.8568 384.643C94.8589 385.397 94.6374 386.134 94.2201 386.762C93.8029 387.39 93.2087 387.88 92.5128 388.17C91.817 388.46 91.0507 388.537 90.3111 388.391C89.5714 388.246 88.8917 387.884 88.3578 387.351C87.824 386.819 87.4601 386.14 87.3123 385.401C87.1644 384.662 87.2392 383.895 87.5272 383.199C87.8152 382.502 88.3034 381.907 88.9301 381.487C89.5568 381.068 90.2937 380.845 91.0475 380.845C92.0559 380.845 93.0232 381.245 93.7372 381.957C94.4513 382.669 94.8539 383.635 94.8568 384.643Z" fill="#FFCA41"/>
<path d="M109.853 384.643C109.855 385.397 109.633 386.134 109.216 386.762C108.799 387.39 108.205 387.88 107.509 388.17C106.813 388.46 106.047 388.537 105.307 388.391C104.568 388.246 103.888 387.884 103.354 387.351C102.82 386.819 102.456 386.14 102.308 385.401C102.161 384.662 102.235 383.895 102.523 383.199C102.811 382.502 103.3 381.907 103.926 381.487C104.553 381.068 105.29 380.845 106.044 380.845C107.052 380.845 108.019 381.245 108.733 381.957C109.447 382.669 109.85 383.635 109.853 384.643Z" fill="#FFCA41"/>
<path d="M124.079 384.643C124.082 385.397 123.86 386.134 123.443 386.762C123.026 387.39 122.431 387.88 121.735 388.17C121.04 388.46 120.273 388.537 119.534 388.391C118.794 388.246 118.114 387.884 117.58 387.351C117.047 386.819 116.683 386.14 116.535 385.401C116.387 384.662 116.462 383.895 116.75 383.199C117.038 382.502 117.526 381.907 118.153 381.487C118.779 381.068 119.516 380.845 120.27 380.845C121.279 380.845 122.246 381.245 122.96 381.957C123.674 382.669 124.077 383.635 124.079 384.643Z" fill="#FFCA41"/>
<path d="M176.549 379.223H134.974C134.396 379.223 133.843 378.993 133.434 378.585C133.026 378.177 132.797 377.623 132.797 377.046C132.797 376.469 133.026 375.915 133.434 375.507C133.843 375.098 134.396 374.869 134.974 374.869H176.549C177.126 374.869 177.68 375.098 178.088 375.507C178.496 375.915 178.726 376.469 178.726 377.046C178.726 377.623 178.496 378.177 178.088 378.585C177.68 378.993 177.126 379.223 176.549 379.223Z" fill="#FFCA41"/>
<path d="M176.549 389.704H134.974C134.396 389.704 133.843 389.475 133.434 389.066C133.026 388.658 132.797 388.105 132.797 387.527C132.797 386.95 133.026 386.396 133.434 385.988C133.843 385.58 134.396 385.351 134.974 385.351H176.549C177.126 385.351 177.68 385.58 178.088 385.988C178.496 386.396 178.726 386.95 178.726 387.527C178.726 388.105 178.496 388.658 178.088 389.066C177.68 389.475 177.126 389.704 176.549 389.704Z" fill="#FFCA41"/>
<path d="M58.4853 432.052C62.3022 432.052 65.3964 428.957 65.3964 425.141C65.3964 421.324 62.3022 418.229 58.4853 418.229C54.6684 418.229 51.5742 421.324 51.5742 425.141C51.5742 428.957 54.6684 432.052 58.4853 432.052Z" fill="white"/>
<path d="M80.0326 425.141C80.0326 425.894 79.8092 426.631 79.3906 427.257C78.972 427.884 78.3771 428.372 77.6811 428.66C76.985 428.948 76.2191 429.024 75.4802 428.877C74.7413 428.73 74.0625 428.367 73.5298 427.834C72.997 427.302 72.6342 426.623 72.4873 425.884C72.3403 425.145 72.4157 424.379 72.704 423.683C72.9923 422.987 73.4806 422.392 74.107 421.974C74.7334 421.555 75.4699 421.332 76.2233 421.332C77.2336 421.332 78.2025 421.733 78.9169 422.447C79.6313 423.162 80.0326 424.131 80.0326 425.141Z" fill="#FFCA41"/>
<path d="M91.0475 428.95C93.1513 428.95 94.8568 427.245 94.8568 425.141C94.8568 423.037 93.1513 421.332 91.0475 421.332C88.9437 421.332 87.2383 423.037 87.2383 425.141C87.2383 427.245 88.9437 428.95 91.0475 428.95Z" fill="#FFCA41"/>
<path d="M109.853 425.141C109.853 425.894 109.629 426.631 109.211 427.257C108.792 427.884 108.197 428.372 107.501 428.66C106.805 428.948 106.039 429.024 105.3 428.877C104.562 428.73 103.883 428.367 103.35 427.834C102.817 427.302 102.455 426.623 102.308 425.884C102.161 425.145 102.236 424.379 102.524 423.683C102.813 422.987 103.301 422.392 103.927 421.974C104.554 421.555 105.29 421.332 106.044 421.332C107.054 421.332 108.023 421.733 108.737 422.447C109.452 423.162 109.853 424.131 109.853 425.141Z" fill="#FFCA41"/>
<path d="M120.27 428.95C122.374 428.95 124.079 427.245 124.079 425.141C124.079 423.037 122.374 421.332 120.27 421.332C118.166 421.332 116.461 423.037 116.461 425.141C116.461 427.245 118.166 428.95 120.27 428.95Z" fill="#FFCA41"/>
<path d="M176.549 419.71H134.974C134.396 419.71 133.843 419.481 133.434 419.073C133.026 418.665 132.797 418.111 132.797 417.534C132.797 416.956 133.026 416.403 133.434 415.994C133.843 415.586 134.396 415.357 134.974 415.357H176.549C177.126 415.357 177.68 415.586 178.088 415.994C178.496 416.403 178.726 416.956 178.726 417.534C178.726 418.111 178.496 418.665 178.088 419.073C177.68 419.481 177.126 419.71 176.549 419.71Z" fill="#FFCA41"/>
<path d="M176.549 430.224H134.974C134.396 430.224 133.843 429.994 133.434 429.586C133.026 429.178 132.797 428.624 132.797 428.047C132.797 427.47 133.026 426.916 133.434 426.508C133.843 426.099 134.396 425.87 134.974 425.87H176.549C177.126 425.87 177.68 426.099 178.088 426.508C178.496 426.916 178.726 427.47 178.726 428.047C178.726 428.624 178.496 429.178 178.088 429.586C177.68 429.994 177.126 430.224 176.549 430.224Z" fill="#FFCA41"/>
<path d="M58.4853 475.064C62.3022 475.064 65.3964 471.97 65.3964 468.153C65.3964 464.336 62.3022 461.242 58.4853 461.242C54.6684 461.242 51.5742 464.336 51.5742 468.153C51.5742 471.97 54.6684 475.064 58.4853 475.064Z" fill="white"/>
<path d="M80.0326 468.153C80.0347 468.907 79.8131 469.644 79.3959 470.272C78.9786 470.9 78.3845 471.39 77.6886 471.68C76.9928 471.97 76.2265 472.047 75.4869 471.901C74.7472 471.755 74.0675 471.393 73.5336 470.861C72.9998 470.329 72.6359 469.65 72.4881 468.911C72.3402 468.172 72.415 467.405 72.703 466.709C72.991 466.012 73.4792 465.416 74.1059 464.997C74.7325 464.578 75.4694 464.354 76.2233 464.354C77.2317 464.354 78.199 464.754 78.913 465.466C79.6271 466.178 80.0297 467.145 80.0326 468.153Z" fill="#FFCA41"/>
<path d="M94.8568 468.153C94.8589 468.907 94.6374 469.644 94.2201 470.272C93.8029 470.9 93.2087 471.39 92.5128 471.68C91.817 471.97 91.0507 472.047 90.3111 471.901C89.5714 471.755 88.8917 471.393 88.3578 470.861C87.824 470.329 87.4601 469.65 87.3123 468.911C87.1644 468.172 87.2392 467.405 87.5272 466.709C87.8152 466.012 88.3034 465.416 88.9301 464.997C89.5568 464.578 90.2937 464.354 91.0475 464.354C92.0559 464.354 93.0232 464.754 93.7372 465.466C94.4513 466.178 94.8539 467.145 94.8568 468.153Z" fill="#FFCA41"/>
<path d="M109.853 468.153C109.855 468.907 109.633 469.644 109.216 470.272C108.799 470.9 108.205 471.39 107.509 471.68C106.813 471.97 106.047 472.047 105.307 471.901C104.568 471.755 103.888 471.393 103.354 470.861C102.82 470.329 102.456 469.65 102.308 468.911C102.161 468.172 102.235 467.405 102.523 466.709C102.811 466.012 103.3 465.416 103.926 464.997C104.553 464.578 105.29 464.354 106.044 464.354C107.052 464.354 108.019 464.754 108.733 465.466C109.447 466.178 109.85 467.145 109.853 468.153Z" fill="#FFCA41"/>
<path d="M124.079 468.153C124.082 468.907 123.86 469.644 123.443 470.272C123.026 470.9 122.431 471.39 121.735 471.68C121.04 471.97 120.273 472.047 119.534 471.901C118.794 471.755 118.114 471.393 117.58 470.861C117.047 470.329 116.683 469.65 116.535 468.911C116.387 468.172 116.462 467.405 116.75 466.709C117.038 466.012 117.526 465.416 118.153 464.997C118.779 464.578 119.516 464.354 120.27 464.354C121.279 464.354 122.246 464.754 122.96 465.466C123.674 466.178 124.077 467.145 124.079 468.153Z" fill="#FFCA41"/>
<path d="M176.549 462.733H134.974C134.396 462.733 133.843 462.504 133.434 462.095C133.026 461.687 132.797 461.133 132.797 460.556C132.797 459.979 133.026 459.425 133.434 459.017C133.843 458.609 134.396 458.379 134.974 458.379H176.549C177.126 458.379 177.68 458.609 178.088 459.017C178.496 459.425 178.726 459.979 178.726 460.556C178.726 461.133 178.496 461.687 178.088 462.095C177.68 462.504 177.126 462.733 176.549 462.733Z" fill="#FFCA41"/>
<path d="M176.549 473.214H134.974C134.396 473.214 133.843 472.984 133.434 472.576C133.026 472.168 132.797 471.614 132.797 471.037C132.797 470.46 133.026 469.906 133.434 469.498C133.843 469.09 134.396 468.86 134.974 468.86H176.549C177.126 468.86 177.68 469.09 178.088 469.498C178.496 469.906 178.726 470.46 178.726 471.037C178.726 471.614 178.496 472.168 178.088 472.576C177.68 472.984 177.126 473.214 176.549 473.214Z" fill="#FFCA41"/>
<path d="M144.303 262.083V316.588H65.3965V327.972" stroke="black" stroke-linecap="round" stroke-linejoin="round"/>
<path d="M336.658 130.282V114.871H313.171V130.282H305.422L324.914 153.508L344.407 130.282H336.658Z" fill="#16110D"/>
<path d="M298.893 114.425H350.949" stroke="black" stroke-linecap="round" stroke-linejoin="round"/>
<path d="M507 386.947C512.522 363.121 497.684 339.328 473.858 333.806C450.031 328.283 426.239 343.121 420.716 366.948C415.194 390.774 430.032 414.566 453.858 420.089C477.685 425.612 501.477 410.774 507 386.947Z" fill="#FFCA41"/>
<path d="M500.462 385.492C505.159 365.294 492.592 345.112 472.393 340.416C452.195 335.719 432.013 348.286 427.317 368.484C422.62 388.683 435.187 408.865 455.385 413.561C475.584 418.258 495.765 405.691 500.462 385.492Z" stroke="black" stroke-width="0.5" stroke-linecap="round" stroke-linejoin="round"/>
<path d="M442 380.029L458.26 394.667L487.548 358.065" stroke="white" stroke-width="5.48" stroke-linecap="round" stroke-linejoin="round"/>
<path d="M111.749 88.8379C111.749 89.7226 111.487 90.5875 110.995 91.3231C110.504 92.0587 109.805 92.632 108.988 92.9706C108.17 93.3091 107.271 93.3977 106.403 93.2251C105.536 93.0525 104.738 92.6265 104.113 92.0009C103.487 91.3753 103.061 90.5783 102.889 89.7106C102.716 88.8429 102.805 87.9435 103.143 87.1261C103.482 86.3087 104.055 85.6101 104.791 85.1186C105.526 84.6271 106.391 84.3647 107.276 84.3647C108.462 84.3647 109.6 84.836 110.439 85.6749C111.278 86.5138 111.749 87.6516 111.749 88.8379Z" fill="white"/>
<path d="M130.064 88.8379C130.064 89.7226 129.801 90.5875 129.31 91.3231C128.818 92.0587 128.12 92.632 127.302 92.9706C126.485 93.3091 125.585 93.3977 124.718 93.2251C123.85 93.0525 123.053 92.6265 122.427 92.0009C121.802 91.3753 121.376 90.5783 121.203 89.7106C121.031 88.8429 121.119 87.9435 121.458 87.1261C121.796 86.3087 122.37 85.6101 123.105 85.1186C123.841 84.6271 124.706 84.3647 125.59 84.3647C126.777 84.3647 127.914 84.836 128.753 85.6749C129.592 86.5138 130.064 87.6516 130.064 88.8379Z" fill="white"/>
<path d="M148.36 88.8379C148.36 89.7226 148.098 90.5875 147.607 91.3231C147.115 92.0587 146.416 92.632 145.599 92.9706C144.782 93.3091 143.882 93.3977 143.015 93.2251C142.147 93.0525 141.35 92.6265 140.724 92.0009C140.099 91.3753 139.673 90.5783 139.5 89.7106C139.327 88.8429 139.416 87.9435 139.755 87.1261C140.093 86.3087 140.666 85.6101 141.402 85.1186C142.138 84.6271 143.003 84.3647 143.887 84.3647C144.475 84.3647 145.056 84.4804 145.599 84.7052C146.142 84.93 146.635 85.2595 147.05 85.6749C147.466 86.0903 147.795 86.5834 148.02 87.1261C148.245 87.6688 148.36 88.2505 148.36 88.8379Z" fill="white"/>
<path d="M202.05 168.549V134.385H169.508" stroke="black" stroke-linecap="round" stroke-linejoin="round"/>
<path d="M175.471 134.386C175.471 135.565 175.122 136.718 174.466 137.699C173.811 138.68 172.879 139.444 171.79 139.896C170.7 140.347 169.501 140.465 168.344 140.235C167.187 140.005 166.124 139.437 165.29 138.603C164.456 137.769 163.888 136.706 163.658 135.549C163.427 134.392 163.546 133.193 163.997 132.103C164.448 131.013 165.213 130.082 166.194 129.427C167.174 128.771 168.328 128.421 169.507 128.421C171.089 128.421 172.606 129.05 173.725 130.168C174.843 131.287 175.471 132.804 175.471 134.386Z" fill="black"/>
<path d="M246.456 262.083H109.91C101.924 262.06 94.2724 258.877 88.6257 253.23C82.9789 247.584 79.7964 239.932 79.7734 231.946C79.7935 223.958 82.9748 216.304 88.6218 210.654C94.2689 205.005 101.923 201.821 109.91 201.798H246.456C254.443 201.821 262.097 205.005 267.744 210.654C273.391 216.304 276.572 223.958 276.593 231.946C276.57 239.932 273.387 247.584 267.74 253.23C262.094 258.877 254.442 262.06 246.456 262.083Z" fill="#FFCA41"/>
<path d="M209.21 251.449C237.611 251.449 260.635 228.425 260.635 200.024C260.635 171.623 237.611 148.599 209.21 148.599C180.809 148.599 157.785 171.623 157.785 200.024C157.785 228.425 180.809 251.449 209.21 251.449Z" fill="#FFCA41"/>
<path d="M140.948 231.936C157.106 231.936 170.204 218.838 170.204 202.68C170.204 186.523 157.106 173.425 140.948 173.425C124.791 173.425 111.693 186.523 111.693 202.68C111.693 218.838 124.791 231.936 140.948 231.936Z" fill="#FFCA41"/>
</svg>
