<svg width="130" height="100" viewBox="0 0 130 100" fill="none" xmlns="http://www.w3.org/2000/svg">
<path d="M88.7577 94.62H31.8479C30.3171 94.62 29.0767 93.3795 29.0767 91.8487V7.77123C29.0767 6.24046 30.3171 5 31.8479 5H88.7553C90.2861 5 91.5266 6.24046 91.5266 7.77123V91.8512C91.529 93.3795 90.2885 94.62 88.7577 94.62Z" fill="black"/>
<path d="M89.5292 11.394H31.0166V86.2389H89.5292V11.394Z" fill="white"/>
<path d="M83.7277 20.1035H36.7007V53.9342H83.7277V20.1035Z" fill="#DDDDDD"/>
<path d="M62.6368 90.658C62.9325 89.3677 62.1263 88.082 60.836 87.7862C59.5457 87.4905 58.2599 88.2967 57.9642 89.587C57.6685 90.8773 58.4747 92.1631 59.765 92.4588C61.0553 92.7545 62.341 91.9483 62.6368 90.658Z" fill="#939393"/>
<path d="M69.4165 8.56999H51.1912C51.0304 8.56999 50.8984 8.44042 50.8984 8.27727V7.86938C50.8984 7.70862 51.028 7.57666 51.1912 7.57666H69.4165C69.5773 7.57666 69.7092 7.70622 69.7092 7.86938V8.27727C69.7068 8.44042 69.5773 8.56999 69.4165 8.56999Z" fill="#939393"/>
<path d="M58.6631 80.8093C58.6631 81.1093 58.4208 81.3516 58.1209 81.3516C57.8209 81.3516 57.5786 81.1093 57.5786 80.8093C57.5786 80.5094 57.8209 80.2671 58.1209 80.2671C58.4208 80.2695 58.6631 80.5118 58.6631 80.8093Z" fill="black"/>
<path d="M60.8418 80.8093C60.8418 81.1093 60.5995 81.3516 60.2996 81.3516C59.9997 81.3516 59.7573 81.1093 59.7573 80.8093C59.7573 80.5094 59.9997 80.2671 60.2996 80.2671C60.5995 80.2695 60.8418 80.5118 60.8418 80.8093Z" fill="black"/>
<path d="M63.0201 80.8093C63.0201 81.1093 62.7777 81.3516 62.4778 81.3516C62.1779 81.3516 61.9355 81.1093 61.9355 80.8093C61.9355 80.5094 62.1779 80.2671 62.4778 80.2671C62.7777 80.2695 63.0201 80.5118 63.0201 80.8093Z" fill="black"/>
<path d="M38.8927 17.6662H36.1358C36.0783 17.6662 36.0303 17.6182 36.0303 17.5606C36.0303 17.5031 36.0783 17.4551 36.1358 17.4551H38.8927C38.9503 17.4551 38.9983 17.5031 38.9983 17.5606C38.9983 17.6182 38.9503 17.6662 38.8927 17.6662Z" fill="black"/>
<path d="M37.206 18.5469C37.1844 18.5469 37.1628 18.5397 37.146 18.5277L35.9079 17.6471C35.8791 17.6279 35.8647 17.5943 35.8647 17.5607C35.8647 17.5271 35.8815 17.4935 35.9103 17.4743L37.1844 16.6034C37.2324 16.5698 37.2971 16.5842 37.3307 16.6298C37.3643 16.6778 37.3499 16.7426 37.3043 16.7761L36.1551 17.5607L37.2708 18.3549C37.3187 18.3885 37.3283 18.4533 37.2947 18.5013C37.2732 18.5301 37.2396 18.5469 37.206 18.5469Z" fill="black"/>
<path d="M83.3981 17.676H80.6412C80.5836 17.676 80.5356 17.628 80.5356 17.5704C80.5356 17.5128 80.5836 17.4648 80.6412 17.4648H83.3981C83.4556 17.4648 83.5036 17.5128 83.5036 17.5704C83.5012 17.628 83.4556 17.676 83.3981 17.676Z" fill="black"/>
<path d="M82.2918 18.5469C82.2582 18.5469 82.2246 18.5301 82.2054 18.5013C82.1719 18.4533 82.1862 18.3885 82.2318 18.3549L83.3811 17.5704L82.2654 16.7762C82.2174 16.7426 82.2078 16.6778 82.2414 16.6298C82.275 16.5818 82.3398 16.5722 82.3878 16.6058L83.6258 17.4864C83.6546 17.5056 83.6714 17.5392 83.669 17.5728C83.669 17.6063 83.6522 17.6399 83.6235 17.6591L82.3494 18.5301C82.3326 18.5397 82.311 18.5469 82.2918 18.5469Z" fill="black"/>
<path d="M53.2096 16.9323L7 22.4897L14.3159 83.3204L60.5255 77.763L53.2096 16.9323Z" fill="#FAFAFA" stroke="black" stroke-width="2"/>
<path d="M49.7293 22.552L11.8105 27.1123L17.2412 72.2674L55.16 67.7071L49.7293 22.552Z" fill="#FFCA41"/>
<path d="M55.1483 67.7138C55.0981 67.2952 52.9315 49.4459 49.6702 22.562L49.7246 22.6039C38.5089 23.9541 25.5536 25.5135 11.8218 27.1672H11.8176L11.8658 27.1065C13.869 43.7899 15.732 59.3219 17.2852 72.2646L17.235 72.2248C40.0705 69.5078 54.7673 67.7599 55.1483 67.7138C54.7694 67.7599 40.0767 69.5434 17.2455 72.3169L17.1994 72.3232L17.1931 72.2772C15.6336 59.3345 13.7644 43.8024 11.7548 27.1212L11.7485 27.0667L11.803 27.0605H11.8071C25.539 25.411 38.4942 23.8557 49.7121 22.5097L49.7602 22.5034L49.7665 22.5516C52.9713 49.4417 55.0981 67.2952 55.1483 67.7138Z" fill="#263238"/>
</svg>
