<svg width="130" height="100" viewBox="0 0 130 100" fill="none" xmlns="http://www.w3.org/2000/svg">
<g clip-path="url(#clip0_338_1029)">
<path d="M60.4515 69.5357V62.8589H49.9351H49.4093H38.8929V69.5357C38.8929 73.1887 36.1548 76.1932 32.6279 76.6298V76.6876H49.4093H49.9351H66.7165V76.6298C63.1896 76.1932 60.4515 73.1823 60.4515 69.5357Z" fill="#D8DBD7" stroke="#010200" stroke-width="3"/>
<path d="M96.0469 63.732C96.0469 65.6644 94.4822 67.2309 92.5521 67.2309H6.79849C4.86834 67.2309 3.30371 65.6644 3.30371 63.732V16.3651C3.30371 14.4263 4.86834 12.8662 6.79849 12.8662H92.5457C94.4758 12.8662 96.0405 14.4327 96.0405 16.3651V63.732H96.0469Z" fill="#D8DBD7" stroke="#010200" stroke-width="3"/>
<path d="M96.0469 54.8658C96.0469 56.7982 94.4822 58.3647 92.5521 58.3647H6.79849C4.86834 58.3647 3.30371 56.7982 3.30371 54.8658V7.49892C3.30371 5.56649 4.86834 4 6.79849 4H92.5457C94.4758 4 96.0405 5.56649 96.0405 7.49892V54.8658H96.0469Z" fill="white" stroke="black" stroke-width="3" stroke-linecap="round" stroke-linejoin="round"/>
<path d="M72.8468 79.5829C72.8468 80.7193 71.9234 81.6438 70.7884 81.6438H28.556C27.421 81.6438 26.4912 80.7193 26.4912 79.5829V78.7483C26.4912 77.6056 27.4146 76.6875 28.556 76.6875H70.7884C71.9234 76.6875 72.8468 77.612 72.8468 78.7483V79.5829Z" fill="#D8DBD7" stroke="#010200" stroke-width="3"/>
<path d="M58.0967 11.9268H10.0996V30.9024H58.0967V11.9268Z" fill="#FFCA41"/>
<path d="M89.3506 11.9268H62.5615V30.9024H89.3506V11.9268Z" fill="#FFCA41"/>
<path d="M89.3506 35.3672H73.7236V49.8779H89.3506V35.3672Z" fill="#FFCA41"/>
<path d="M68.1426 35.3672H52.5156V49.8779H68.1426V35.3672Z" fill="#FFCA41"/>
<path d="M46.9346 35.3672H31.3076V49.8779H46.9346V35.3672Z" fill="#FFCA41"/>
<path d="M25.7266 35.3672H10.0996V49.8779H25.7266V35.3672Z" fill="#FFCA41"/>
<path d="M89.3506 50.9941H73.7236V53.2266H89.3506V50.9941Z" fill="#FFCA41"/>
<path d="M68.1426 50.9941H52.5156V53.2266H68.1426V50.9941Z" fill="#FFCA41"/>
<path d="M46.9346 50.9941H31.3076V53.2266H46.9346V50.9941Z" fill="#FFCA41"/>
<path d="M25.7266 50.9941H10.0996V53.2266H25.7266V50.9941Z" fill="#FFCA41"/>
<path d="M109.523 31.0986H89.8077C88.315 31.0986 87.0986 32.3135 87.0986 33.8077V81.648C87.0986 83.1407 88.3135 84.3571 89.8077 84.3571H109.525C111.017 84.3571 112.234 83.1422 112.234 81.648V33.8061C112.232 32.3135 111.017 31.0986 109.523 31.0986Z" fill="#FEFEFE"/>
<path d="M112.453 78.5938C112.453 78.5938 89.1172 78.5938 87.6139 78.5938C86.1107 78.5938 87.1393 78.7288 87.1393 78.8949C87.1393 79.061 87.1393 84.2134 87.1393 84.2134C87.1393 84.3793 88.3627 84.5146 89.8676 84.5146H109.724C111.228 84.5146 112.453 84.3795 112.453 84.2134V78.8947V78.5938Z" fill="#DDDDDC"/>
<path d="M112.798 33.2616H86.4922C86.4922 31.8365 87.6474 30.6797 89.0741 30.6797H110.216C111.643 30.6797 112.798 31.8349 112.798 33.2616Z" fill="#DDDDDC"/>
<path d="M106.102 30.9688H93.2305L93.6182 32.2542C93.7987 32.8522 94.348 33.2603 94.9727 33.2603H104.362C104.986 33.2603 105.536 32.8522 105.716 32.2542L106.102 30.9688Z" fill="#0F0C14"/>
<path d="M109.523 31.0987C111.016 31.0987 112.232 32.3135 112.232 33.8078V81.6481C112.232 83.1407 111.017 84.3571 109.523 84.3571H89.8078C88.3151 84.3571 87.0987 83.1423 87.0987 81.6481V33.8062C87.0987 32.3135 88.3135 31.0971 89.8078 31.0971H109.523V31.0987ZM109.523 30H89.8078C87.7045 30 86 31.7045 86 33.8078V81.6481C86 83.7513 87.7045 85.4558 89.8078 85.4558H109.525C111.628 85.4558 113.332 83.7513 113.332 81.6481V33.8062C113.331 31.703 111.626 30 109.523 30Z" fill="#0F0C14" stroke="black"/>
<path d="M90.2502 83.0488C91.1171 83.0488 91.8198 82.3461 91.8198 81.4792C91.8198 80.6124 91.1171 79.9097 90.2502 79.9097C89.3834 79.9097 88.6807 80.6124 88.6807 81.4792C88.6807 82.3461 89.3834 83.0488 90.2502 83.0488Z" fill="white"/>
<path d="M94.9582 83.0488C95.8251 83.0488 96.5278 82.3461 96.5278 81.4792C96.5278 80.6124 95.8251 79.9097 94.9582 79.9097C94.0914 79.9097 93.3887 80.6124 93.3887 81.4792C93.3887 82.3461 94.0914 83.0488 94.9582 83.0488Z" fill="white"/>
<path d="M94.9582 83.0488C95.8251 83.0488 96.5278 82.3461 96.5278 81.4792C96.5278 80.6124 95.8251 79.9097 94.9582 79.9097C94.0914 79.9097 93.3887 80.6124 93.3887 81.4792C93.3887 82.3461 94.0914 83.0488 94.9582 83.0488Z" fill="white"/>
<path d="M99.6682 83.0483C100.535 83.0483 101.238 82.3456 101.238 81.4787C101.238 80.6119 100.535 79.9092 99.6682 79.9092C98.8013 79.9092 98.0986 80.6119 98.0986 81.4787C98.0986 82.3456 98.8013 83.0483 99.6682 83.0483Z" fill="white"/>
<path d="M99.6248 83.8565C100.896 83.8565 101.927 82.8257 101.927 81.554C101.927 80.2823 100.896 79.2515 99.6248 79.2515C98.3531 79.2515 97.3223 80.2823 97.3223 81.554C97.3223 82.8257 98.3531 83.8565 99.6248 83.8565Z" fill="#FFCA41"/>
<path d="M104.374 83.0488C105.241 83.0488 105.944 82.3461 105.944 81.4792C105.944 80.6124 105.241 79.9097 104.374 79.9097C103.507 79.9097 102.805 80.6124 102.805 81.4792C102.805 82.3461 103.507 83.0488 104.374 83.0488Z" fill="white"/>
<path d="M109.085 83.0488C109.952 83.0488 110.655 82.3461 110.655 81.4792C110.655 80.6124 109.952 79.9097 109.085 79.9097C108.218 79.9097 107.516 80.6124 107.516 81.4792C107.516 82.3461 108.218 83.0488 109.085 83.0488Z" fill="white"/>
<path d="M97.2961 37.1479H90.1123C89.0077 37.1479 88.1123 38.0434 88.1123 39.1479V48.3053C88.1123 49.4099 89.0077 50.3053 90.1123 50.3053H97.2961C98.4006 50.3053 99.2961 49.4099 99.2961 48.3053V39.1479C99.2961 38.0434 98.4006 37.1479 97.2961 37.1479Z" fill="#FFCA41"/>
<path d="M109.138 56.8843H90.1123C89.0077 56.8843 88.1123 57.7797 88.1123 58.8843V68.0416C88.1123 69.1462 89.0077 70.0416 90.1123 70.0416H109.138C110.242 70.0416 111.138 69.1462 111.138 68.0416V58.8843C111.138 57.7797 110.242 56.8843 109.138 56.8843Z" fill="#FFCA41"/>
<path d="M110.48 71.3574H88.7702C88.4068 71.3574 88.1123 71.652 88.1123 72.0153C88.1123 72.3786 88.4068 72.6732 88.7702 72.6732H110.48C110.843 72.6732 111.138 72.3786 111.138 72.0153C111.138 71.652 110.843 71.3574 110.48 71.3574Z" fill="#FFCA41"/>
<path d="M110.48 73.9883H88.7702C88.4068 73.9883 88.1123 74.2828 88.1123 74.6461C88.1123 75.0095 88.4068 75.304 88.7702 75.304H110.48C110.843 75.304 111.138 75.0095 111.138 74.6461C111.138 74.2828 110.843 73.9883 110.48 73.9883Z" fill="#FFCA41"/>
<path d="M109.137 37.1479H101.953C100.849 37.1479 99.9531 38.0434 99.9531 39.1479V48.3053C99.9531 49.4099 100.849 50.3053 101.953 50.3053H109.137C110.241 50.3053 111.137 49.4099 111.137 48.3053V39.1479C111.137 38.0434 110.241 37.1479 109.137 37.1479Z" fill="#FFCA41"/>
<path d="M98.6382 51.6211H88.7702C88.4068 51.6211 88.1123 51.9156 88.1123 52.279C88.1123 52.6423 88.4068 52.9368 88.7702 52.9368H98.6382C99.0015 52.9368 99.2961 52.6423 99.2961 52.279C99.2961 51.9156 99.0015 51.6211 98.6382 51.6211Z" fill="#FFCA41"/>
<path d="M110.479 51.6211H100.611C100.248 51.6211 99.9531 51.9156 99.9531 52.279C99.9531 52.6423 100.248 52.9368 100.611 52.9368H110.479C110.842 52.9368 111.137 52.6423 111.137 52.279C111.137 51.9156 110.842 51.6211 110.479 51.6211Z" fill="#FFCA41"/>
</g>
<defs>
<clipPath id="clip0_338_1029">
<rect width="130" height="100" fill="white"/>
</clipPath>
</defs>
</svg>
