<svg width="130" height="100" viewBox="0 0 130 100" fill="none" xmlns="http://www.w3.org/2000/svg">
<path d="M94.9814 50.7891C94.6939 50.825 94.6939 51.1306 94.5501 51.2923C93.9929 51.8674 93.31 52.0471 92.5911 51.7776C91.8543 51.5259 91.4229 50.9868 91.4049 50.1601C91.4049 49.6748 91.4049 49.2075 91.4049 48.7223C91.4049 41.9647 91.387 35.1892 91.4229 28.4316C91.4229 27.7128 91.2252 27.551 90.5423 27.569C62.8651 27.5869 35.1879 27.5869 7.49266 27.569C6.80972 27.569 6.61202 27.7307 6.61202 28.4316C6.64797 35.5486 6.62999 42.6656 6.62999 49.8006C6.62999 51.2384 5.73138 52.0651 4.45536 51.8674C3.79038 51.7596 3.46688 51.2024 3.01758 50.7891C3.01758 37.6154 3.01758 24.4418 3.01758 11.2682C3.43094 10.1 3.8443 9.79445 5.12033 9.72256C5.47977 9.70459 5.83922 9.70459 6.19866 9.70459C34.7385 9.70459 63.2784 9.70459 91.8183 9.70459C92.1778 9.70459 92.5372 9.70459 92.8966 9.72256C94.1547 9.77648 94.586 10.1 94.9994 11.2682C94.9814 24.4418 94.9814 37.6154 94.9814 50.7891Z" fill="#020203"/>
<path d="M94.9818 89.4117C94.4427 90.3822 93.6339 90.6698 92.5376 90.6698C63.5125 90.6518 34.4694 90.6518 5.44422 90.6698C4.34792 90.6698 3.52119 90.3822 3 89.4117C3 80.9108 3 72.41 3 63.9091C3.39539 63.2981 3.84469 62.7409 4.63547 62.669C5.74975 62.5612 6.59444 63.4239 6.59444 64.6999C6.59444 70.5409 6.59444 76.3639 6.59444 82.2048C6.59444 83.5887 6.61242 84.9546 6.57647 86.3385C6.5585 86.8956 6.72025 87.0573 7.27739 87.0394C8.31978 87.0034 9.38014 87.0214 10.4225 87.0214C37.0574 87.0214 63.6922 87.0214 90.327 87.0394C91.2077 87.0394 91.4054 86.8237 91.3874 85.961C91.3514 78.862 91.3694 71.781 91.3694 64.6819C91.3694 63.6216 91.8367 62.9566 92.7173 62.705C93.5081 62.4713 94.2629 62.8308 94.8021 63.6935C94.856 63.7653 94.9099 63.8193 94.9638 63.8912C94.9818 72.41 94.9818 80.9108 94.9818 89.4117Z" fill="#020203"/>
<path d="M3 56.7198C3.68294 55.6594 4.40183 55.2461 5.24653 55.5156C6.01933 55.7493 6.52255 56.2525 6.59444 57.1152C6.66633 57.9958 6.28892 58.6428 5.48017 58.9663C4.72533 59.2539 4.02442 59.1101 3.43133 58.499C3.26958 58.3373 3.28756 58.0317 3 57.9958C3 57.5465 3 57.1331 3 56.7198Z" fill="#040405"/>
<path d="M94.9823 57.9775C94.4971 58.4808 94.1196 59.0738 93.2929 59.0738C92.3943 59.0738 91.6035 58.5526 91.4058 57.7259C91.2082 56.8633 91.6035 56.0186 92.3943 55.6411C93.1851 55.2637 94.0837 55.4794 94.6229 56.1983C94.7487 56.36 94.8565 56.5398 94.9643 56.7195C94.9823 57.1328 94.9823 57.5462 94.9823 57.9775Z" fill="#040405"/>
<path d="M35.656 56.2164C28.1795 56.2164 20.6851 56.2164 13.2087 56.2164C11.2497 56.2164 10.7285 55.6772 10.7285 53.7003C10.7285 47.1224 10.7285 40.5266 10.7285 33.9488C10.7285 32.2774 11.3575 31.6304 13.0649 31.6304C28.1256 31.6304 43.1863 31.6304 58.2291 31.6304C59.9364 31.6304 60.6014 32.3133 60.6014 34.0387C60.6014 40.6524 60.6014 47.2662 60.6014 53.88C60.6014 55.5694 59.9724 56.2164 58.283 56.2164C50.7347 56.2164 43.2043 56.2164 35.656 56.2164Z" fill="#020203"/>
<path d="M48.989 59.7212C52.0982 59.7212 55.2073 59.7212 58.3345 59.7212C59.97 59.7212 60.617 60.3682 60.617 62.0037C60.617 68.2041 60.617 74.4045 60.617 80.5869C60.617 82.2404 59.9161 82.9054 58.2447 82.9054C52.0802 82.9054 45.9157 82.9054 39.7512 82.9054C38.0798 82.9054 37.3789 82.2224 37.3789 80.5869C37.3789 74.3865 37.3789 68.1861 37.3789 62.0037C37.3789 60.3502 38.0259 59.7212 39.6614 59.7212C42.7706 59.7212 45.8798 59.7212 48.989 59.7212Z" fill="#020203"/>
<path d="M33.8931 71.3491C33.8931 74.4943 33.8931 77.6394 33.8931 80.7845C33.8931 82.2043 33.1922 82.9232 31.7365 82.9232C25.4462 82.9232 19.1559 82.9232 12.8657 82.9232C11.4279 82.9232 10.709 82.2043 10.709 80.7845C10.709 74.4763 10.709 68.1501 10.709 61.8418C10.709 60.422 11.356 59.757 12.7758 59.7391C19.12 59.7211 25.4642 59.7211 31.8084 59.7391C33.2461 59.7391 33.8572 60.404 33.8572 61.8418C33.8931 65.0049 33.8931 68.186 33.8931 71.3491Z" fill="#020203"/>
<path d="M64.0879 71.3315C64.0879 68.1505 64.0879 64.9873 64.0879 61.8063C64.0879 60.3685 64.7169 59.7215 66.1727 59.7215C72.5169 59.7035 78.8611 59.7035 85.2232 59.7215C86.643 59.7215 87.2721 60.4044 87.2721 61.8422C87.2721 68.1505 87.2721 74.4767 87.2721 80.7849C87.2721 82.1508 86.5532 82.9056 85.1873 82.9056C78.8431 82.9236 72.4989 82.9236 66.1367 82.9056C64.8248 82.9056 64.1059 82.1508 64.1059 80.8388C64.0879 77.6757 64.0879 74.5126 64.0879 71.3315Z" fill="#020203"/>
<path d="M75.7159 38.604C78.861 38.604 82.0062 38.604 85.1513 38.604C86.4453 38.604 87.308 39.4128 87.254 40.527C87.2181 41.5874 86.3734 42.2883 85.0794 42.3063C82.9767 42.3243 80.8919 42.3063 78.7891 42.3063C74.6375 42.3063 70.468 42.3063 66.3164 42.3063C65.0404 42.3063 64.1957 41.6773 64.0879 40.6888C63.9441 39.4846 64.8067 38.622 66.1906 38.604C69.3717 38.604 72.5348 38.604 75.7159 38.604Z" fill="#030304"/>
<path d="M75.6431 35.3149C72.5519 35.3149 69.4786 35.3149 66.3874 35.3149C65.992 35.3149 65.6146 35.3149 65.2372 35.1531C64.4464 34.8116 64.0151 34.2185 64.069 33.3379C64.1409 32.4573 64.6081 31.9001 65.4708 31.7204C65.8123 31.6485 66.1897 31.6305 66.5312 31.6305C72.6058 31.6305 78.6804 31.6305 84.755 31.6305C84.9707 31.6305 85.1684 31.6126 85.384 31.6305C86.4803 31.7384 87.2172 32.4573 87.2172 33.4637C87.2172 34.4881 86.4264 35.2609 85.3121 35.3149C84.6831 35.3508 84.0541 35.3149 83.4251 35.3149C80.855 35.3149 78.2491 35.3149 75.6431 35.3149Z" fill="#030304"/>
<path d="M75.5901 49.2617C72.4809 49.2617 69.3717 49.2617 66.2445 49.2617C64.9865 49.2617 64.2137 48.6686 64.0879 47.6981C63.9441 46.494 64.8067 45.5954 66.1726 45.5954C70.1445 45.5774 74.1343 45.5954 78.1062 45.5954C80.4965 45.5954 82.8868 45.5954 85.2951 45.5954C86.1038 45.5954 86.7329 45.9548 87.0923 46.7097C87.4158 47.4106 87.272 48.0576 86.8047 48.6327C86.3195 49.2258 85.6365 49.2797 84.9356 49.2797C81.8085 49.2617 78.6993 49.2617 75.5901 49.2617Z" fill="#030304"/>
<path d="M75.68 52.5864C78.915 52.5864 82.15 52.5864 85.385 52.5864C86.2117 52.5864 86.8048 52.9818 87.1283 53.7366C87.4338 54.4555 87.2541 55.0846 86.7688 55.6417C86.3914 56.073 85.8702 56.1988 85.3131 56.1988C78.879 56.1988 72.445 56.1988 66.0109 56.1988C64.8248 56.1988 64.1059 55.48 64.0879 54.4196C64.0879 53.3413 64.8607 52.5864 66.0648 52.5864C69.2639 52.5864 72.4629 52.5864 75.68 52.5864Z" fill="#020203"/>
<path d="M48.9015 23.8845C35.1348 23.8845 21.3681 23.8845 7.60139 23.9025C6.77466 23.9025 6.57697 23.6868 6.59494 22.8781C6.64886 20.0924 6.64886 17.3067 6.59494 14.521C6.57697 13.7841 6.75669 13.5864 7.51153 13.5864C28.1616 13.6044 48.8117 13.6044 69.4618 13.6044C76.4709 13.6044 83.4621 13.6224 90.4713 13.5864C91.2261 13.5864 91.4059 13.7841 91.3879 14.521C91.334 17.3246 91.334 20.1463 91.3879 22.9679C91.4059 23.7048 91.2261 23.9025 90.4713 23.9025C76.6147 23.8665 62.7581 23.8845 48.9015 23.8845Z" fill="#FFCA41"/>
<path d="M35.7088 35.3147C42.5023 35.3147 49.2958 35.3147 56.0893 35.2967C56.7183 35.2967 56.952 35.3866 56.934 36.1055C56.8981 41.3354 56.8981 46.5833 56.934 51.8132C56.934 52.4422 56.7723 52.586 56.1432 52.586C42.5023 52.568 28.8434 52.568 15.2025 52.586C14.4656 52.586 14.3398 52.3703 14.3398 51.6874C14.3758 46.5114 14.3758 41.3354 14.3398 36.1594C14.3398 35.4405 14.5555 35.2787 15.2385 35.2967C22.0499 35.3327 28.8794 35.3147 35.7088 35.3147Z" fill="#FFCA41"/>
<path d="M56.9164 71.3495C56.9164 73.7039 56.8984 76.0762 56.9343 78.4306C56.9343 79.0236 56.8445 79.2393 56.1795 79.2393C51.3989 79.2034 46.6183 79.2034 41.8197 79.2393C41.1727 79.2393 41.0469 79.0416 41.0469 78.4306C41.0648 73.6499 41.0648 68.8693 41.0469 64.0707C41.0469 63.5136 41.1367 63.3159 41.7658 63.3159C46.5823 63.3519 51.3989 63.3519 56.2154 63.3159C56.8265 63.3159 56.9523 63.4956 56.9343 64.0707C56.8984 66.515 56.9164 68.9412 56.9164 71.3495Z" fill="#FFCA41"/>
<path d="M14.3582 71.2598C14.3582 68.8695 14.3762 66.4792 14.3402 64.0889C14.3402 63.4958 14.502 63.3521 15.0771 63.3521C19.9296 63.37 24.7641 63.37 29.6166 63.3521C30.1738 63.3521 30.2996 63.5138 30.2996 64.053C30.2816 68.8695 30.2816 73.6861 30.2996 78.5026C30.2996 79.0777 30.1738 79.2575 29.5627 79.2575C24.7462 79.2395 19.9296 79.2395 15.113 79.2575C14.466 79.2575 14.3223 79.0598 14.3223 78.4487C14.3762 76.0584 14.3582 73.6501 14.3582 71.2598Z" fill="#FFCA41"/>
<path d="M83.6246 71.2597C83.6246 73.686 83.6067 76.1122 83.6426 78.5205C83.6426 79.0597 83.4988 79.2394 82.9417 79.2394C78.0712 79.2214 73.1828 79.2214 68.3123 79.2394C67.7911 79.2394 67.6653 79.0597 67.6833 78.5744C67.7012 73.704 67.7012 68.8155 67.6833 63.945C67.6833 63.4778 67.8091 63.334 68.2763 63.334C73.1828 63.352 78.0892 63.352 82.9956 63.334C83.4988 63.334 83.6426 63.4778 83.6426 63.981C83.6246 66.4252 83.6246 68.8515 83.6246 71.2597Z" fill="#FFCA41"/>
<path d="M64.5003 20.5957C63.9251 20.5957 63.368 20.6137 62.7929 20.5957C61.6786 20.5598 60.8699 19.8049 60.8519 18.7985C60.8339 17.7921 61.5528 17.0193 62.6491 16.9833C63.9072 16.9294 65.1473 16.9294 66.4053 16.9833C67.5016 17.0193 68.2025 17.7921 68.2025 18.7985C68.1846 19.787 67.4118 20.5598 66.3694 20.5957C65.7403 20.6137 65.1113 20.5957 64.5003 20.5957Z" fill="#020304"/>
<path d="M83.7311 20.5958C83.1021 20.5958 82.4731 20.6138 81.844 20.5958C80.8556 20.5419 80.1007 19.7511 80.0648 18.8166C80.0468 17.8461 80.7298 17.0373 81.7542 17.0014C83.0662 16.9475 84.3781 16.9475 85.6901 17.0014C86.7325 17.0373 87.4154 17.8101 87.4154 18.7986C87.4154 19.7871 86.6426 20.5778 85.6002 20.6138C84.9892 20.6318 84.3602 20.5958 83.7311 20.5958Z" fill="#020304"/>
<path d="M74.1151 20.5958C73.522 20.5958 72.911 20.6138 72.3179 20.5958C71.2396 20.5599 70.5027 19.805 70.4847 18.7986C70.4667 17.8101 71.1497 17.0373 72.2101 17.0014C73.522 16.9475 74.852 16.9475 76.1639 17.0014C77.1344 17.0373 77.8354 17.8281 77.8354 18.7627C77.8354 19.7332 77.1165 20.5239 76.11 20.5958C75.4451 20.6318 74.7801 20.5958 74.1151 20.5958Z" fill="#020203"/>
</svg>
