<svg width="556" height="581" viewBox="0 0 556 581" fill="none" xmlns="http://www.w3.org/2000/svg">
<path d="M481.598 539.718L481.6 539.726L481.603 539.734C483.162 545.193 488.628 548.316 494.087 546.951C499.574 545.58 502.682 539.908 501.32 534.463L501.318 534.455L501.316 534.447C499.756 528.988 494.291 525.864 488.832 527.229L488.824 527.231L488.816 527.234C483.357 528.793 480.233 534.259 481.598 539.718ZM513.334 536.885L512.96 536.983V537.369C512.96 539.163 512.602 540.782 512.23 542.459L512.151 542.815L512.465 542.999L519.647 547.203L514.209 556.55L507.029 552.347L506.696 552.152L506.423 552.425C505.344 553.505 503.891 554.596 502.427 555.511L502.115 555.706L502.208 556.061L504.31 564.119L493.952 566.836L491.85 558.78L491.753 558.406H491.367C489.573 558.406 487.953 558.048 486.276 557.675L485.921 557.596L485.736 557.91L481.532 565.092L472.185 559.654L476.388 552.474L476.583 552.141L476.31 551.868C475.231 550.789 474.139 549.336 473.224 547.872L473.029 547.561L472.674 547.653L464.617 549.755L461.9 539.397L469.956 537.296L470.33 537.198V536.812C470.33 535.018 470.688 533.399 471.06 531.722L471.139 531.366L470.825 531.182L463.643 526.978L469.081 517.631L476.261 521.833L476.594 522.028L476.867 521.755C477.946 520.676 479.399 519.585 480.863 518.669L481.175 518.475L481.082 518.119L478.98 510.062L489.338 507.345L491.44 515.401L491.537 515.775H491.923C493.717 515.775 495.337 516.133 497.014 516.506L497.369 516.585L497.554 516.27L501.758 509.088L511.105 514.527L506.902 521.706L506.707 522.039L506.98 522.312C508.059 523.392 509.151 524.844 510.066 526.308L510.261 526.62L510.616 526.527L518.673 524.425L521.39 534.783L513.334 536.885Z" stroke="#DBDBDB"/>
<path d="M410.227 184.579C414.431 184.584 418.461 186.256 421.433 189.228C424.405 192.2 426.077 196.23 426.082 200.433V482.133C426.077 486.336 424.405 490.366 421.433 493.338C418.461 496.311 414.431 497.982 410.227 497.987H290.153C285.949 497.982 281.919 496.311 278.947 493.338C275.975 490.366 274.303 486.336 274.298 482.133V200.425C274.305 196.223 275.978 192.195 278.95 189.225C281.922 186.254 285.951 184.584 290.153 184.579H410.227ZM410.227 176.322H290.153C283.758 176.322 277.625 178.862 273.103 183.384C268.581 187.906 266.041 194.039 266.041 200.433V482.133C266.041 488.527 268.581 494.66 273.103 499.182C277.625 503.704 283.758 506.244 290.153 506.244H410.227C416.616 506.235 422.74 503.691 427.255 499.17C431.769 494.649 434.305 488.522 434.305 482.133V200.425C434.305 197.259 433.681 194.123 432.47 191.198C431.258 188.273 429.482 185.615 427.243 183.376C425.004 181.137 422.346 179.361 419.421 178.149C416.495 176.937 413.36 176.313 410.194 176.313L410.227 176.322Z" fill="#EBEBEB"/>
<path d="M195.245 505.015C194.946 504.965 194.747 504.667 194.847 504.369C194.896 504.072 195.195 503.873 195.544 503.923C196.939 504.22 198.433 504.469 199.828 504.717C200.127 504.766 200.376 505.064 200.326 505.362C200.276 505.66 199.977 505.908 199.678 505.859C198.134 505.61 196.69 505.313 195.245 505.015ZM188.321 503.178C188.271 503.178 188.271 503.178 188.321 503.178C186.876 502.731 185.482 502.235 184.087 501.689C183.788 501.589 183.639 501.242 183.788 500.944C183.888 500.646 184.236 500.497 184.535 500.646C185.88 501.192 187.275 501.689 188.67 502.086C188.969 502.185 189.118 502.483 189.018 502.781C188.869 503.079 188.62 503.277 188.321 503.178ZM206.702 506.454C206.453 506.405 206.254 506.157 206.254 505.859C206.254 505.561 206.553 505.313 206.852 505.313C208.296 505.362 209.79 505.412 211.235 505.362C211.534 505.362 211.783 505.61 211.833 505.908C211.833 506.206 211.584 506.454 211.285 506.504C209.79 506.554 208.296 506.504 206.852 506.454C206.752 506.504 206.702 506.504 206.702 506.454ZM177.611 498.76C177.561 498.76 177.511 498.71 177.511 498.71C176.216 498.015 174.871 497.32 173.626 496.575C173.377 496.426 173.277 496.079 173.427 495.781C173.576 495.533 173.925 495.434 174.224 495.583C175.469 496.327 176.764 497.022 178.059 497.717C178.358 497.866 178.458 498.214 178.309 498.462C178.159 498.71 177.86 498.859 177.611 498.76ZM218.259 506.057C218.059 506.008 217.86 505.809 217.81 505.561C217.761 505.263 218.01 504.965 218.309 504.915L218.707 504.866C220.002 504.717 221.347 504.518 222.642 504.27C222.941 504.22 223.24 504.419 223.29 504.717C223.34 505.015 223.14 505.313 222.842 505.362C221.546 505.61 220.201 505.809 218.856 505.958L218.458 506.008C218.358 506.057 218.309 506.057 218.259 506.057ZM167.848 492.703C167.798 492.703 167.698 492.654 167.648 492.604C166.453 491.71 165.307 490.817 164.162 489.874C163.912 489.675 163.912 489.328 164.112 489.079C164.311 488.831 164.66 488.831 164.909 489.03C166.005 489.973 167.15 490.867 168.346 491.71C168.595 491.909 168.645 492.257 168.445 492.505C168.296 492.654 168.047 492.753 167.848 492.703ZM229.566 503.774C229.367 503.724 229.218 503.575 229.168 503.377C229.068 503.079 229.267 502.781 229.566 502.682C230.961 502.284 232.356 501.838 233.701 501.341C234 501.242 234.299 501.391 234.448 501.689C234.548 501.987 234.398 502.284 234.099 502.433C232.705 502.93 231.31 503.377 229.865 503.774C229.766 503.774 229.666 503.774 229.566 503.774ZM159.13 485.108C159.031 485.108 158.931 485.009 158.881 484.959C157.835 483.916 156.839 482.775 155.893 481.683C155.693 481.434 155.693 481.087 155.942 480.888C156.191 480.69 156.54 480.69 156.739 480.938C157.686 482.03 158.682 483.122 159.678 484.165C159.878 484.413 159.878 484.76 159.678 484.959C159.529 485.058 159.33 485.108 159.13 485.108ZM151.808 476.172C151.658 476.123 151.559 476.073 151.459 475.924C150.612 474.733 149.815 473.442 149.068 472.201C148.919 471.953 148.969 471.605 149.267 471.406C149.516 471.258 149.865 471.307 150.064 471.605C150.812 472.846 151.609 474.087 152.455 475.279C152.655 475.527 152.555 475.874 152.306 476.073C152.157 476.172 151.957 476.222 151.808 476.172ZM146.03 466.194C145.88 466.144 145.731 466.045 145.631 465.896C144.983 464.556 144.436 463.215 143.888 461.825C143.788 461.528 143.937 461.23 144.186 461.081C144.485 460.981 144.784 461.13 144.934 461.379C145.482 462.719 146.03 464.059 146.677 465.35C146.827 465.648 146.677 465.995 146.428 466.095C146.328 466.244 146.179 466.244 146.03 466.194ZM141.995 455.421C141.795 455.372 141.646 455.223 141.596 455.024C141.198 453.634 140.849 452.145 140.5 450.705C140.45 450.408 140.65 450.11 140.949 450.01C141.247 449.961 141.546 450.159 141.646 450.457C141.945 451.847 142.294 453.287 142.692 454.677C142.792 454.975 142.592 455.273 142.294 455.372C142.194 455.471 142.094 455.471 141.995 455.421ZM139.803 444.103C139.604 444.053 139.404 443.855 139.355 443.606C139.205 442.117 139.056 440.678 139.006 439.188C139.006 438.89 139.255 438.593 139.554 438.593C139.853 438.593 140.152 438.841 140.152 439.139C140.201 440.578 140.351 442.018 140.5 443.458C140.55 443.755 140.301 444.053 140.002 444.103C139.902 444.153 139.853 444.153 139.803 444.103ZM139.454 432.586C139.205 432.536 139.006 432.288 139.006 431.99C139.105 430.55 139.205 429.061 139.355 427.572C139.404 427.274 139.653 427.026 140.002 427.075C140.301 427.125 140.55 427.373 140.5 427.721C140.351 429.16 140.201 430.65 140.152 432.04C140.152 432.338 139.853 432.586 139.554 432.586C139.504 432.635 139.454 432.635 139.454 432.586ZM140.949 421.218C140.65 421.168 140.45 420.87 140.55 420.523C140.7 419.877 140.849 419.281 140.998 418.686C141.198 417.891 141.447 417.048 141.646 416.253C141.746 415.955 142.044 415.806 142.343 415.856C142.642 415.955 142.841 416.253 142.742 416.551C142.493 417.345 142.294 418.14 142.094 418.934C141.945 419.53 141.795 420.125 141.646 420.771C141.596 421.069 141.297 421.267 140.949 421.218C140.998 421.218 140.998 421.218 140.949 421.218Z" fill="black"/>
<path d="M254.028 465.097L254.026 465.1L246.157 474.629C246.157 474.629 246.157 474.629 246.157 474.629C246.035 474.775 245.917 474.791 245.791 474.738L245.781 474.733L245.77 474.729L236.106 471.105L235.85 471.009L235.631 471.174C231.838 474.021 227.552 476.28 222.918 477.852L222.659 477.94L222.593 478.206L220.155 488.173C220.111 488.317 219.984 488.426 219.83 488.452L207.541 489.593L207.529 489.594L207.517 489.595C207.404 489.611 207.265 489.548 207.2 489.396L207.2 489.396L207.196 489.387L202.961 480.055L202.847 479.801L202.571 479.765C197.697 479.128 193.068 477.656 188.831 475.544L188.585 475.422L188.35 475.564L179.539 480.872C179.428 480.934 179.347 480.949 179.293 480.947C179.244 480.945 179.186 480.929 179.114 480.869L179.113 480.868L169.6 473.026C169.6 473.026 169.6 473.025 169.6 473.025C169.453 472.904 169.438 472.787 169.491 472.665L169.495 472.654L169.499 472.644L173.136 463.013L173.233 462.755L173.067 462.535C170.21 458.756 167.944 454.484 166.367 449.867L166.278 449.607L166.011 449.543L156.01 447.113C155.864 447.068 155.755 446.942 155.73 446.79L154.585 434.543L154.584 434.531L154.583 434.519C154.567 434.409 154.628 434.271 154.782 434.206L154.782 434.206L154.791 434.202L164.156 429.982L164.41 429.868L164.446 429.591C165.086 424.735 166.563 420.122 168.682 415.9L168.806 415.653L168.662 415.416L163.336 406.635C163.273 406.525 163.259 406.445 163.261 406.392C163.263 406.345 163.278 406.288 163.338 406.217L163.339 406.215L171.208 396.735C171.209 396.735 171.209 396.735 171.209 396.734C171.331 396.589 171.449 396.572 171.575 396.626L171.585 396.63L171.596 396.634L181.26 400.258L181.516 400.354L181.735 400.19C185.528 397.343 189.814 395.084 194.448 393.512L194.707 393.424L194.773 393.157L197.211 383.191C197.255 383.047 197.382 382.937 197.536 382.911L209.825 381.771L209.837 381.77L209.849 381.768C209.962 381.752 210.101 381.815 210.166 381.967L210.166 381.967L210.17 381.976L214.404 391.309L214.519 391.562L214.795 391.598C219.669 392.236 224.298 393.708 228.535 395.819L228.781 395.942L229.016 395.8L237.827 390.492C237.938 390.43 238.019 390.415 238.073 390.417C238.122 390.419 238.18 390.435 238.251 390.494L238.254 390.496L247.766 398.288C247.766 398.288 247.766 398.289 247.767 398.289C247.913 398.411 247.928 398.527 247.875 398.649L247.871 398.66L247.867 398.67L244.23 408.301L244.133 408.559L244.299 408.779C247.156 412.558 249.422 416.83 250.999 421.447L251.088 421.706L251.355 421.771L261.356 424.201C261.502 424.246 261.611 424.372 261.636 424.524L262.78 436.771L262.782 436.783L262.783 436.795C262.799 436.904 262.738 437.043 262.584 437.108L262.584 437.108L262.575 437.112L253.21 441.332L252.956 441.446L252.92 441.723C252.28 446.579 250.803 451.192 248.684 455.414L248.56 455.661L248.704 455.898L254.03 464.678C254.093 464.789 254.107 464.869 254.105 464.921C254.103 464.969 254.087 465.026 254.028 465.097Z" stroke="black"/>
<path d="M386.674 142.9L386.777 142.644C388.01 139.571 388.81 136.258 388.994 132.826L389.009 132.549L389.252 132.415L395.572 128.923L395.581 128.917L395.591 128.913C395.6 128.908 395.601 128.906 395.6 128.907C395.599 128.908 395.6 128.908 395.601 128.905C395.602 128.903 395.603 128.901 395.605 128.898C395.613 128.878 395.623 128.84 395.626 128.775L394.136 120.303C394.118 120.244 394.078 120.203 394.019 120.184L386.913 119.066L386.641 119.023L386.532 118.77C385.176 115.639 383.328 112.754 381.113 110.301L380.927 110.095L381.004 109.827L383.003 102.916C383.008 102.894 383.009 102.878 383.009 102.867C383.009 102.867 383.009 102.866 383.009 102.866L382.98 102.851L382.95 102.83L375.827 97.849C375.825 97.8481 375.821 97.8465 375.814 97.8446C375.8 97.8409 375.781 97.838 375.759 97.838C375.737 97.838 375.717 97.8409 375.703 97.8446C375.697 97.8462 375.693 97.8477 375.691 97.8486L369.825 102.078L369.602 102.238L369.347 102.137C366.264 100.907 362.938 100.11 359.494 99.9264L359.218 99.9117L359.084 99.6702L355.579 93.3718L355.574 93.3625L355.569 93.3529C355.567 93.348 355.565 93.3455 355.564 93.3446M386.674 142.9L376.103 97.4316C375.915 97.3069 375.602 97.3069 375.414 97.4316L369.532 101.672C366.404 100.425 363.025 99.6142 359.521 99.4271L356.016 93.1287C355.891 92.8793 355.641 92.8169 355.391 92.8169M386.674 142.9L386.836 143.124M386.674 142.9L386.836 143.124M355.564 93.3446C355.564 93.3442 355.564 93.344 355.564 93.3441C355.564 93.3441 355.564 93.3443 355.564 93.3446ZM355.564 93.3446C355.565 93.3455 355.563 93.3431 355.554 93.3391C355.534 93.3305 355.495 93.3206 355.429 93.3177M355.429 93.3177L355.477 93.3094L355.391 92.8169M355.429 93.3177C355.417 93.3172 355.404 93.3169 355.391 93.3169V92.8169M355.429 93.3177L346.926 94.8022M355.391 92.8169L346.818 94.3135M346.818 94.3135L346.939 94.7987C346.935 94.7998 346.93 94.8009 346.926 94.8022M346.818 94.3135C346.568 94.3759 346.38 94.563 346.317 94.8124M346.818 94.3135L346.904 94.8061L346.926 94.8022M346.926 94.8022C346.867 94.8207 346.826 94.8614 346.807 94.9189M346.317 94.8124L346.811 94.8907L346.807 94.9189M346.317 94.8124L345.191 101.922C342 103.293 339.059 105.164 336.556 107.409L329.61 105.414M346.317 94.8124L346.802 94.9341C346.804 94.9289 346.805 94.9238 346.807 94.9189M346.807 94.9189L345.685 102L345.642 102.272L345.388 102.381C342.246 103.732 339.351 105.574 336.89 107.781L336.684 107.966L336.418 107.89L329.482 105.897M329.482 105.897C329.485 105.898 329.487 105.898 329.489 105.899L329.61 105.414M329.482 105.897L329.472 105.894L329.61 105.414M329.482 105.897C329.46 105.892 329.444 105.891 329.432 105.891C329.431 105.891 329.43 105.891 329.429 105.891M329.61 105.414C329.36 105.351 329.109 105.414 328.984 105.663L323.978 112.772M329.429 105.891L329.431 105.887C329.436 105.878 329.437 105.879 329.432 105.884C329.431 105.885 329.43 105.886 329.429 105.886C329.424 105.89 329.42 105.892 329.418 105.893C329.417 105.893 329.417 105.893 329.417 105.893C329.418 105.892 329.422 105.892 329.429 105.891ZM329.429 105.891L329.414 105.921L329.393 105.951L324.395 113.049M324.395 113.049C324.395 113.048 324.396 113.047 324.396 113.047C324.396 113.047 324.395 113.048 324.394 113.05L323.978 112.772M324.395 113.049L324.387 113.06L323.978 112.772M324.395 113.049C324.394 113.051 324.392 113.055 324.391 113.061C324.387 113.075 324.384 113.094 324.384 113.115C324.384 113.137 324.387 113.155 324.391 113.169C324.392 113.175 324.394 113.178 324.394 113.181M323.978 112.772C323.853 112.959 323.853 113.271 323.978 113.458M323.978 113.458L324.383 113.165L324.394 113.181M323.978 113.458L328.233 119.32M323.978 113.458L324.394 113.18C324.395 113.182 324.396 113.183 324.396 113.183C324.396 113.183 324.395 113.182 324.394 113.181M324.394 113.181L328.638 119.026L328.8 119.25L328.697 119.506C327.464 122.579 326.664 125.893 326.48 129.325L326.465 129.601L326.222 129.735L319.902 133.228L319.893 133.233L319.884 133.238C319.878 133.24 319.876 133.242 319.875 133.243L328.233 119.32M328.233 119.32C326.982 122.438 326.168 125.806 325.981 129.298L328.233 119.32ZM386.836 143.124L391.082 148.973L386.081 156.074L386.06 156.105L386.045 156.134C386.044 156.134 386.043 156.134 386.042 156.134C386.031 156.134 386.014 156.133 385.992 156.128L379.057 154.136L378.791 154.059L378.585 154.244C376.123 156.452 373.229 158.293 370.086 159.645L369.833 159.753L369.79 160.026L368.668 167.107C368.649 167.164 368.608 167.205 368.548 167.223L360.045 168.708C359.979 168.705 359.94 168.695 359.92 168.686C359.911 168.682 359.909 168.68 359.91 168.681C359.911 168.682 359.909 168.681 359.905 168.673L359.9 168.663L359.895 168.654L356.391 162.355L356.256 162.114L355.98 162.099C352.536 161.915 349.21 161.118 346.127 159.889L345.872 159.787L345.649 159.948L339.783 164.177C339.781 164.178 339.777 164.179 339.771 164.181C339.757 164.185 339.738 164.187 339.716 164.187C339.694 164.187 339.674 164.185 339.66 164.181C339.653 164.179 339.649 164.177 339.647 164.176L332.525 159.195L332.494 159.174L332.465 159.16C332.465 159.159 332.465 159.159 332.465 159.158C332.465 159.148 332.466 159.131 332.471 159.11L334.47 152.198L334.548 151.931L334.361 151.724C332.146 149.271 330.298 146.387 328.942 143.255L328.833 143.003M386.836 143.124L328.833 143.003M328.833 143.003L328.561 142.96L328.833 143.003ZM319.849 133.374L319.84 133.326L319.348 133.414H319.848C319.848 133.399 319.848 133.386 319.849 133.374ZM320.849 141.832L321.342 141.744L321.338 141.723C321.337 141.719 321.335 141.715 321.334 141.711L320.849 141.832ZM321.456 141.842L321.428 141.837L321.35 142.331L321.471 141.846C321.466 141.845 321.461 141.843 321.456 141.842Z" stroke="black"/>
<path d="M356.652 139.314C354.211 138.69 352.084 137.006 350.958 134.574C349.08 130.334 350.958 125.345 355.213 123.474C359.468 121.603 364.474 123.474 366.351 127.715C368.228 131.955 366.351 136.944 362.096 138.815C360.344 139.626 358.404 139.75 356.652 139.314ZM360.344 124.41C358.842 124.035 357.278 124.16 355.838 124.784C352.334 126.343 350.707 130.521 352.272 134.013C353.836 137.505 358.028 139.127 361.533 137.568C363.222 136.819 364.536 135.447 365.225 133.701C365.913 131.955 365.85 130.084 365.099 128.338C364.349 126.655 362.972 125.345 361.22 124.659C360.907 124.534 360.657 124.472 360.344 124.41Z" fill="black"/>
<path d="M388.999 167.001C388.874 166.939 388.749 166.877 388.624 166.752C388.374 166.44 388.374 166.004 388.686 165.754C389.375 165.131 390.063 164.507 390.751 163.883C391.002 163.634 391.502 163.634 391.753 163.883C392.003 164.195 392.003 164.632 391.753 164.881C391.064 165.567 390.376 166.191 389.625 166.814C389.437 167.001 389.187 167.064 388.999 167.001Z" fill="black"/>
<path d="M348.826 177.292C348.45 177.229 348.2 176.855 348.325 176.481C348.388 176.107 348.763 175.857 349.201 175.92C350.953 176.294 352.705 176.543 354.52 176.73C354.895 176.793 355.208 177.104 355.146 177.479C355.083 177.853 354.77 178.165 354.395 178.102C352.517 177.978 350.64 177.728 348.826 177.292C348.888 177.292 348.826 177.292 348.826 177.292ZM340.378 174.672C340.315 174.672 340.315 174.672 340.253 174.61C338.563 173.924 336.874 173.051 335.309 172.178C334.997 171.991 334.871 171.554 335.059 171.18C335.247 170.868 335.685 170.744 336.06 170.931C337.625 171.804 339.252 172.615 340.879 173.301C341.254 173.425 341.442 173.862 341.254 174.236C341.066 174.61 340.753 174.735 340.378 174.672ZM363.093 178.102C362.78 178.04 362.592 177.79 362.529 177.479C362.467 177.104 362.78 176.73 363.155 176.73C364.907 176.543 366.722 176.294 368.474 175.92C368.849 175.857 369.225 176.107 369.35 176.481C369.413 176.855 369.162 177.229 368.787 177.354C366.972 177.728 365.158 178.04 363.343 178.227C363.218 178.165 363.155 178.102 363.093 178.102ZM328.239 167.252C328.113 167.252 328.051 167.189 327.926 167.127C326.549 165.942 325.172 164.632 323.921 163.323C323.671 163.011 323.671 162.574 323.983 162.325C324.296 162.076 324.734 162.076 324.985 162.387C326.174 163.697 327.488 164.944 328.864 166.067C329.177 166.316 329.177 166.753 328.927 167.064C328.802 167.189 328.489 167.314 328.239 167.252ZM376.922 174.548C376.734 174.485 376.546 174.361 376.421 174.111C376.296 173.737 376.421 173.363 376.796 173.176C376.984 173.113 377.172 172.989 377.36 172.926C378.799 172.303 380.238 171.554 381.552 170.806C381.865 170.619 382.303 170.744 382.553 171.056C382.741 171.367 382.616 171.804 382.303 172.053C380.926 172.864 379.425 173.612 377.985 174.236C377.798 174.298 377.61 174.423 377.36 174.485C377.172 174.61 377.047 174.61 376.922 174.548ZM318.915 156.463C318.727 156.401 318.602 156.338 318.477 156.151C317.538 154.592 316.6 152.971 315.849 151.287C315.661 150.913 315.849 150.477 316.162 150.352C316.537 150.165 316.975 150.352 317.1 150.664C317.851 152.285 318.727 153.844 319.666 155.341C319.854 155.652 319.791 156.089 319.416 156.338C319.353 156.463 319.103 156.526 318.915 156.463ZM313.346 143.367C313.096 143.305 312.908 143.118 312.845 142.869C312.407 141.06 312.032 139.252 311.781 137.443C311.719 137.069 312.032 136.695 312.407 136.632C312.783 136.57 313.158 136.882 313.221 137.256C313.471 139.002 313.784 140.811 314.222 142.494C314.347 142.869 314.097 143.243 313.721 143.367C313.534 143.43 313.471 143.43 313.346 143.367Z" fill="black"/>
<path d="M404.959 127.964C404.646 127.902 404.459 127.652 404.396 127.341C404.271 125.594 404.021 123.848 403.645 122.102C403.583 121.728 403.833 121.354 404.208 121.292C404.584 121.229 404.959 121.479 405.022 121.853C405.397 123.599 405.648 125.407 405.773 127.216C405.835 127.59 405.522 127.964 405.147 127.964C405.147 127.964 405.022 127.964 404.959 127.964ZM401.705 114.37C401.518 114.307 401.33 114.183 401.205 113.933C401.017 113.497 400.829 112.998 400.579 112.561C400.078 111.439 399.515 110.316 398.889 109.194C398.702 108.82 398.827 108.445 399.202 108.258C399.578 108.071 399.953 108.196 400.141 108.57C400.767 109.693 401.33 110.877 401.893 112.062C402.081 112.561 402.331 112.998 402.519 113.497C402.644 113.871 402.519 114.245 402.143 114.432C402.018 114.37 401.83 114.37 401.705 114.37ZM338.63 89.8619C338.442 89.7995 338.255 89.6748 338.13 89.4877C337.942 89.1136 338.13 88.677 338.442 88.5523C338.755 88.4276 339.068 88.2405 339.381 88.1158C340.695 87.4922 342.134 86.9933 343.511 86.4944C343.886 86.3697 344.262 86.5568 344.387 86.9309C344.575 87.3051 344.324 87.6793 343.949 87.804C342.572 88.2405 341.258 88.8018 339.944 89.363C339.631 89.4877 339.319 89.6125 339.068 89.7995C338.943 89.8619 338.755 89.8619 338.63 89.8619ZM394.509 102.334C394.384 102.272 394.259 102.209 394.134 102.085C393.007 100.713 391.819 99.4654 390.567 98.2182C390.254 97.9688 390.254 97.4699 390.567 97.2204C390.817 96.9086 391.318 96.9086 391.568 97.2204C392.882 98.4677 394.134 99.8396 395.26 101.212C395.51 101.523 395.448 101.96 395.135 102.209C394.947 102.334 394.697 102.396 394.509 102.334ZM352.021 85.8085C351.771 85.7461 351.521 85.4967 351.458 85.2472C351.395 84.873 351.646 84.4989 352.084 84.4365C353.898 84.1871 355.713 84.0624 357.528 84C357.903 84 358.279 84.3118 358.279 84.686C358.279 85.0601 357.966 85.4343 357.59 85.4343C355.838 85.4343 354.086 85.6214 352.334 85.8708C352.209 85.8708 352.146 85.8708 352.021 85.8085ZM384.059 92.9799C383.997 92.9799 383.934 92.9176 383.872 92.8552C382.432 91.9198 380.868 91.0467 379.304 90.2361C378.928 90.049 378.803 89.6125 378.991 89.3006C379.178 88.9265 379.617 88.8018 379.929 88.9888C381.556 89.7995 383.121 90.7349 384.622 91.6703C384.935 91.8574 385.06 92.3563 384.81 92.6681C384.685 92.9799 384.372 93.0423 384.059 92.9799ZM366.1 85.9955C365.725 85.9332 365.537 85.559 365.537 85.1849C365.6 84.8107 365.975 84.5612 366.351 84.6236C367.602 84.8107 368.791 85.0601 370.043 85.3719C370.606 85.4967 371.106 85.6214 371.67 85.8085C372.045 85.9332 372.295 86.3073 372.17 86.6815C372.045 87.0557 371.67 87.3051 371.294 87.1804C370.793 87.0557 370.23 86.8686 369.667 86.7439C368.541 86.4944 367.352 86.245 366.1 85.9955Z" fill="black"/>
<path d="M353.336 152.098C345.263 150.102 338.693 143.492 337.129 134.762C336.628 131.706 336.753 128.713 337.442 125.907C339.444 117.862 346.077 111.314 354.775 109.755C366.539 107.697 377.802 115.617 379.867 127.341C379.93 127.84 380.055 128.401 380.055 128.9C380.117 129.773 380.18 130.708 380.18 131.581C380.18 131.706 380.18 131.831 380.18 131.955C380.18 132.018 380.18 132.08 380.18 132.08C380.117 132.392 379.805 132.641 379.429 132.641C379.054 132.641 378.741 132.267 378.741 131.893C378.803 130.459 378.678 129.025 378.428 127.59C376.864 118.486 369.355 111.875 360.594 110.94C358.967 110.815 357.215 110.815 355.463 111.127C355.4 111.127 355.338 111.127 355.213 111.189C355.15 111.189 355.088 111.189 355.025 111.252C346.89 112.686 340.695 118.797 338.818 126.343C338.192 128.962 338.005 131.768 338.505 134.637C340.445 145.612 350.958 152.971 361.971 151.1C365.6 150.477 368.979 148.855 371.732 146.485C372.045 146.236 372.483 146.236 372.734 146.548C372.921 146.735 372.921 146.984 372.859 147.171C372.796 147.296 372.734 147.421 372.608 147.546C369.667 150.102 366.038 151.786 362.159 152.472C359.218 152.909 356.151 152.784 353.336 152.098Z" fill="black"/>
<path d="M141.916 255.452C143.057 255.452 143.981 254.528 143.981 253.387C143.981 252.247 143.057 251.323 141.916 251.323C140.776 251.323 139.852 252.247 139.852 253.387C139.852 254.528 140.776 255.452 141.916 255.452Z" stroke="black" stroke-width="0.5" stroke-miterlimit="10"/>
<path d="M144.036 129.118C144.036 129.527 143.915 129.926 143.688 130.266C143.461 130.605 143.138 130.87 142.761 131.026C142.384 131.182 141.969 131.223 141.568 131.143C141.168 131.064 140.8 130.867 140.511 130.578C140.222 130.29 140.026 129.922 139.946 129.521C139.866 129.121 139.907 128.706 140.063 128.328C140.22 127.951 140.484 127.629 140.824 127.402C141.163 127.175 141.563 127.054 141.971 127.054C142.519 127.054 143.044 127.271 143.431 127.658C143.818 128.046 144.036 128.571 144.036 129.118V129.118Z" stroke="black" stroke-width="0.5" stroke-miterlimit="10"/>
<path d="M169.559 180.247C170.699 180.247 171.624 179.322 171.624 178.182C171.624 177.042 170.699 176.117 169.559 176.117C168.419 176.117 167.494 177.042 167.494 178.182C167.494 179.322 168.419 180.247 169.559 180.247Z" stroke="black" stroke-width="0.5" stroke-miterlimit="10"/>
<path d="M267.971 124.564C269.111 124.564 270.036 123.64 270.036 122.5C270.036 121.359 269.111 120.435 267.971 120.435C266.831 120.435 265.906 121.359 265.906 122.5C265.906 123.64 266.831 124.564 267.971 124.564Z" stroke="black" stroke-width="0.5" stroke-miterlimit="10"/>
<path d="M244.903 94.5338C244.903 94.9437 244.781 95.3443 244.552 95.6846C244.324 96.0249 243.999 96.2895 243.62 96.4446C243.24 96.5997 242.823 96.6384 242.422 96.5557C242.02 96.473 241.652 96.2727 241.365 95.9802C241.078 95.6878 240.884 95.3164 240.809 94.9135C240.733 94.5106 240.779 94.0943 240.941 93.7178C241.103 93.3412 241.374 93.0214 241.718 92.799C242.062 92.5766 242.465 92.4618 242.875 92.4691C243.416 92.4787 243.932 92.7005 244.311 93.0867C244.69 93.4729 244.903 93.9925 244.903 94.5338V94.5338Z" stroke="black" stroke-width="0.5" stroke-miterlimit="10"/>
<path d="M152.928 282.32C152.928 283.414 152.604 284.484 151.996 285.393C151.388 286.303 150.525 287.011 149.514 287.43C148.504 287.849 147.392 287.958 146.319 287.745C145.246 287.531 144.26 287.005 143.487 286.231C142.714 285.458 142.187 284.472 141.973 283.399C141.76 282.327 141.87 281.215 142.288 280.204C142.707 279.194 143.416 278.33 144.325 277.722C145.235 277.114 146.304 276.79 147.398 276.79C148.864 276.79 150.271 277.373 151.308 278.41C152.345 279.447 152.928 280.854 152.928 282.32Z" stroke="black" stroke-width="0.5" stroke-miterlimit="10"/>
<path d="M159.879 108.341C162.923 108.341 165.391 105.874 165.391 102.829C165.391 99.7852 162.923 97.3174 159.879 97.3174C156.835 97.3174 154.367 99.7852 154.367 102.829C154.367 105.874 156.835 108.341 159.879 108.341Z" stroke="black" stroke-width="0.5" stroke-miterlimit="10"/>
<path d="M327.492 131.63H207.426C194.11 131.63 183.314 142.425 183.314 155.742V437.441C183.314 450.758 194.11 461.553 207.426 461.553H327.492C340.809 461.553 351.604 450.758 351.604 437.441V155.742C351.604 142.425 340.809 131.63 327.492 131.63Z" fill="#DBDBDB"/>
<path d="M327.501 139.896C331.704 139.901 335.734 141.572 338.706 144.545C341.679 147.517 343.351 151.547 343.355 155.75V437.45C343.351 441.653 341.679 445.683 338.706 448.655C335.734 451.627 331.704 453.299 327.501 453.304H207.426C203.223 453.299 199.193 451.627 196.22 448.655C193.248 445.683 191.576 441.653 191.572 437.45V155.742C191.579 151.54 193.251 147.512 196.223 144.542C199.195 141.571 203.224 139.901 207.426 139.896H327.501ZM327.501 131.639H207.426C201.031 131.639 194.898 134.179 190.377 138.701C185.855 143.223 183.314 149.356 183.314 155.75V437.45C183.314 443.844 185.855 449.977 190.377 454.499C194.898 459.021 201.031 461.561 207.426 461.561H327.501C333.89 461.552 340.014 459.008 344.528 454.487C349.043 449.966 351.579 443.839 351.579 437.45V155.742C351.579 152.576 350.955 149.44 349.743 146.515C348.531 143.589 346.755 140.931 344.516 138.692C342.277 136.454 339.619 134.677 336.694 133.466C333.769 132.254 330.633 131.63 327.467 131.63L327.501 131.639Z" fill="#060000"/>
<path d="M304.998 132.46H229.902V141.201C229.901 142.122 230.082 143.034 230.434 143.885C230.786 144.737 231.302 145.51 231.954 146.162C232.605 146.813 233.379 147.329 234.23 147.681C235.081 148.033 235.994 148.214 236.915 148.213H298.019C299.873 148.204 301.648 147.461 302.956 146.147C304.264 144.833 304.998 143.055 304.998 141.201V132.46Z" fill="#060000"/>
<path d="M253.48 139.016H282.292" stroke="white" stroke-width="0.76" stroke-linecap="round" stroke-linejoin="round"/>
<path d="M297.462 340.216H211.661C207.952 340.216 204.945 343.223 204.945 346.932V418.597C204.945 422.306 207.952 425.313 211.661 425.313H297.462C301.171 425.313 304.178 422.306 304.178 418.597V346.932C304.178 343.223 301.171 340.216 297.462 340.216Z" fill="#555555"/>
<path d="M241.217 352.123H221.492C220.019 352.123 218.824 353.317 218.824 354.791V374.515C218.824 375.989 220.019 377.183 221.492 377.183H241.217C242.69 377.183 243.884 375.989 243.884 374.515V354.791C243.884 353.317 242.69 352.123 241.217 352.123Z" fill="white"/>
<path d="M252.439 360.025H275.086" stroke="black" stroke-width="1.3" stroke-linecap="round" stroke-linejoin="round"/>
<path d="M252.439 368.088H288.958" stroke="black" stroke-width="1.3" stroke-linecap="round" stroke-linejoin="round"/>
<path d="M218.824 387.609H243.884" stroke="white" stroke-width="1.3" stroke-linecap="round" stroke-linejoin="round"/>
<path d="M218.824 395.934H288.957" stroke="white" stroke-width="1.3" stroke-linecap="round" stroke-linejoin="round"/>
<path d="M218.824 405.106H288.957" stroke="white" stroke-width="1.3" stroke-linecap="round" stroke-linejoin="round"/>
<path d="M167.761 217.902C170.337 207.105 163.673 196.265 152.877 193.689C142.081 191.113 131.24 197.777 128.664 208.573C126.088 219.369 132.752 230.21 143.548 232.786C154.345 235.362 165.185 228.698 167.761 217.902Z" fill="#FFCA41"/>
<path d="M140.123 214.196L146.433 218.871L157.239 207.658" stroke="white" stroke-width="2.14" stroke-linecap="round" stroke-linejoin="round"/>
<path d="M159.44 266.983H226.727C228.879 266.983 230.623 268.727 230.623 270.879V317.755C230.623 319.907 228.879 321.651 226.727 321.651H159.44C157.289 321.651 155.545 319.907 155.545 317.755V270.879C155.545 268.727 157.289 266.983 159.44 266.983Z" fill="white" stroke="black"/>
<path d="M204.811 289.799C204.814 287.951 204.391 286.127 203.574 284.468C202.758 282.81 201.57 281.362 200.102 280.238C198.635 279.114 196.928 278.343 195.115 277.986C193.301 277.629 191.429 277.695 189.645 278.179C187.862 278.663 186.213 279.553 184.829 280.778C183.445 282.002 182.362 283.53 181.664 285.242C180.966 286.954 180.673 288.803 180.807 290.647C180.941 292.491 181.498 294.279 182.435 295.872C182.891 296.648 183.434 297.37 184.053 298.023L192.768 309.558L201.465 298.031C202.091 297.371 202.642 296.644 203.108 295.863C204.209 294.031 204.797 291.937 204.811 289.799ZM192.793 295.033C191.746 295.035 190.722 294.726 189.85 294.145C188.978 293.565 188.299 292.739 187.897 291.772C187.495 290.805 187.389 289.74 187.592 288.713C187.795 287.685 188.299 286.741 189.039 286C189.779 285.259 190.722 284.754 191.749 284.549C192.776 284.344 193.841 284.449 194.808 284.849C195.776 285.249 196.603 285.928 197.185 286.799C197.767 287.669 198.078 288.693 198.078 289.74C198.076 291.141 197.518 292.484 196.527 293.475C195.537 294.465 194.194 295.023 192.793 295.025V295.033Z" fill="#FFCA41"/>
<path d="M325.461 173.197H209.417C205.708 173.197 202.701 176.204 202.701 179.913V251.578C202.701 255.287 205.708 258.294 209.417 258.294H325.461C329.17 258.294 332.177 255.287 332.177 251.578V179.913C332.177 176.204 329.17 173.197 325.461 173.197Z" fill="white"/>
<path d="M232.977 193.489H215.683C214.392 193.489 213.346 194.535 213.346 195.826V213.12C213.346 214.411 214.392 215.458 215.683 215.458H232.977C234.268 215.458 235.315 214.411 235.315 213.12V195.826C235.315 194.535 234.268 193.489 232.977 193.489Z" fill="#939393"/>
<path d="M260.969 193.489H243.675C242.384 193.489 241.338 194.535 241.338 195.826V213.12C241.338 214.411 242.384 215.458 243.675 215.458H260.969C262.26 215.458 263.307 214.411 263.307 213.12V195.826C263.307 194.535 262.26 193.489 260.969 193.489Z" fill="#939393"/>
<path d="M288.958 193.489H271.664C270.373 193.489 269.326 194.535 269.326 195.826V213.12C269.326 214.411 270.373 215.458 271.664 215.458H288.958C290.248 215.458 291.295 214.411 291.295 213.12V195.826C291.295 194.535 290.248 193.489 288.958 193.489Z" fill="#939393"/>
<path d="M316.948 193.489H299.654C298.363 193.489 297.316 194.535 297.316 195.826V213.12C297.316 214.411 298.363 215.458 299.654 215.458H316.948C318.239 215.458 319.285 214.411 319.285 213.12V195.826C319.285 194.535 318.239 193.489 316.948 193.489Z" fill="#FFCA41"/>
<path d="M232.977 223.122H215.683C214.392 223.122 213.346 224.169 213.346 225.46V242.753C213.346 244.044 214.392 245.091 215.683 245.091H232.977C234.268 245.091 235.315 244.044 235.315 242.753V225.46C235.315 224.169 234.268 223.122 232.977 223.122Z" fill="#939393"/>
<path d="M260.969 223.122H243.675C242.384 223.122 241.338 224.169 241.338 225.46V242.753C241.338 244.044 242.384 245.091 243.675 245.091H260.969C262.26 245.091 263.307 244.044 263.307 242.753V225.46C263.307 224.169 262.26 223.122 260.969 223.122Z" fill="#939393"/>
<path d="M288.958 223.122H271.664C270.373 223.122 269.326 224.169 269.326 225.46V242.753C269.326 244.044 270.373 245.091 271.664 245.091H288.958C290.248 245.091 291.295 244.044 291.295 242.753V225.46C291.295 224.169 290.248 223.122 288.958 223.122Z" fill="#939393"/>
<path d="M316.948 223.122H299.654C298.363 223.122 297.316 224.169 297.316 225.46V242.753C297.316 244.044 298.363 245.091 299.654 245.091H316.948C318.239 245.091 319.285 244.044 319.285 242.753V225.46C319.285 224.169 318.239 223.122 316.948 223.122Z" fill="#939393"/>
<path d="M327.781 266.483H251.864C249.437 266.483 247.469 268.451 247.469 270.879V317.755C247.469 320.183 249.437 322.151 251.864 322.151H327.781C330.209 322.151 332.177 320.183 332.177 317.755V270.879C332.177 268.451 330.209 266.483 327.781 266.483Z" fill="white"/>
<path d="M320.665 272.802H260.484C259.193 272.802 258.146 273.848 258.146 275.139V283.117C258.146 284.408 259.193 285.455 260.484 285.455H320.665C321.956 285.455 323.003 284.408 323.003 283.117V275.139C323.003 273.848 321.956 272.802 320.665 272.802Z" fill="#939393"/>
<path d="M258.994 293.746H288.551" stroke="black" stroke-width="1.3" stroke-linecap="round" stroke-linejoin="round"/>
<path d="M258.994 300.945H322.157" stroke="black" stroke-width="1.3" stroke-linecap="round" stroke-linejoin="round"/>
<path d="M258.994 308.88H322.157" stroke="black" stroke-width="1.3" stroke-linecap="round" stroke-linejoin="round"/>
<path d="M324.487 358.832H368.5C371.176 358.832 373.344 361 373.344 363.676V401.846C373.344 404.521 371.176 406.69 368.5 406.69H324.487C321.811 406.69 319.643 404.521 319.643 401.846V363.676C319.643 361 321.811 358.832 324.487 358.832Z" fill="#FFCA41" stroke="black"/>
<path d="M357.329 380.63L355.534 380.317C355.324 379.535 355.013 378.784 354.611 378.081L355.653 376.582C355.841 376.317 355.929 375.993 355.902 375.669C355.874 375.345 355.731 375.041 355.5 374.812L354.425 373.737C354.191 373.512 353.886 373.377 353.562 373.354C353.239 373.33 352.918 373.421 352.654 373.61L351.164 374.66C350.461 374.252 349.706 373.941 348.92 373.737L348.615 371.899C348.561 371.583 348.399 371.296 348.156 371.087C347.914 370.878 347.605 370.761 347.285 370.755H345.727C345.401 370.751 345.085 370.865 344.836 371.075C344.587 371.285 344.423 371.577 344.372 371.899L344.05 373.686C343.267 373.899 342.516 374.212 341.814 374.617L340.323 373.643C340.057 373.46 339.735 373.375 339.414 373.405C339.092 373.434 338.79 373.576 338.562 373.804L337.486 374.88C337.257 375.11 337.115 375.412 337.086 375.736C337.056 376.059 337.141 376.383 337.325 376.65L338.376 378.141C337.969 378.841 337.658 379.593 337.452 380.376L335.657 380.69C335.337 380.747 335.047 380.915 334.838 381.164C334.629 381.414 334.514 381.728 334.514 382.053V383.578C334.514 383.903 334.629 384.217 334.838 384.467C335.047 384.716 335.337 384.884 335.657 384.941L337.452 385.255C337.658 386.038 337.969 386.79 338.376 387.49L337.325 388.989C337.142 389.255 337.057 389.577 337.087 389.899C337.116 390.221 337.257 390.523 337.486 390.751L338.562 391.827C338.79 392.055 339.092 392.197 339.414 392.226C339.735 392.256 340.057 392.171 340.323 391.988L341.823 390.937C342.524 391.343 343.276 391.656 344.058 391.869L344.372 393.656C344.429 393.976 344.597 394.266 344.846 394.475C345.095 394.684 345.41 394.798 345.735 394.799H347.285C347.61 394.8 347.924 394.685 348.172 394.476C348.42 394.267 348.586 393.976 348.64 393.656L348.962 391.869C349.744 391.656 350.496 391.343 351.198 390.937L352.654 391.962C352.921 392.147 353.244 392.234 353.567 392.206C353.89 392.178 354.194 392.038 354.425 391.81L355.5 390.734C355.731 390.505 355.874 390.201 355.902 389.877C355.929 389.553 355.841 389.229 355.653 388.964L354.611 387.457C355.01 386.753 355.321 386.002 355.534 385.221L357.329 384.907C357.65 384.851 357.941 384.684 358.15 384.434C358.359 384.185 358.474 383.869 358.473 383.544V382.019C358.481 381.689 358.371 381.367 358.16 381.111C357.95 380.856 357.655 380.685 357.329 380.63ZM346.497 387.524C345.553 387.524 344.629 387.244 343.844 386.719C343.058 386.194 342.446 385.448 342.084 384.576C341.723 383.703 341.628 382.742 341.813 381.816C341.997 380.889 342.452 380.038 343.12 379.37C343.788 378.702 344.639 378.247 345.566 378.063C346.492 377.879 347.453 377.973 348.325 378.335C349.198 378.696 349.944 379.308 350.469 380.094C350.994 380.879 351.274 381.803 351.274 382.748C351.272 384.014 350.768 385.228 349.873 386.123C348.977 387.018 347.764 387.522 346.497 387.524Z" fill="white"/>
</svg>
