<svg width="130" height="100" viewBox="0 0 130 100" fill="none" xmlns="http://www.w3.org/2000/svg">
<path d="M43.6026 94.9456C41.6909 94.4416 40.092 93.5205 39.1709 91.6609C38.7365 90.792 38.5453 89.8709 38.5453 88.8977C38.5453 82.6239 38.5453 76.3327 38.5453 70.0589C38.5453 69.2247 38.7886 68.5643 39.6923 68.3557C39.953 68.2862 40.0051 68.1472 40.0051 67.9213C40.0051 67.8691 40.0051 67.7996 40.0051 67.7475C40.0051 66.8438 40.2832 65.7836 39.9008 65.1059C39.5185 64.4455 38.3367 64.654 37.5025 64.4281C25.737 61.1608 18.1424 53.6531 15.5529 41.7138C13.2241 31.0083 16.3697 21.6585 24.2598 14.0117C28.2569 10.1362 33.1057 7.77265 38.5279 6.59088C39.5185 6.38234 40.5786 6.45185 41.5171 6C41.6909 6 41.8647 6 42.0385 6C42.1427 6.12165 42.2818 6.08689 42.4208 6.08689C42.5251 6.08689 42.6293 6.08689 42.7336 6.08689C42.8379 6.08689 42.9422 6.08689 43.0464 6.08689C43.1855 6.08689 43.3245 6.12165 43.4288 6C44.1239 6 44.8191 6 45.5143 6C45.6185 6.12165 45.7576 6.08689 45.8966 6.08689C46.0009 6.08689 46.1051 6.08689 46.2094 6.08689C46.3137 6.08689 46.418 6.08689 46.5222 6.08689C46.6613 6.08689 46.8003 6.12165 46.9046 6C47.0262 6 47.1305 6 47.2522 6C47.6519 6.3302 48.1559 6.24331 48.6251 6.3302C60.0431 8.25927 68.0374 14.5678 72.1736 25.3428C76.7443 37.23 73.0599 50.4728 63.206 58.5714C59.3479 61.7517 54.9337 63.8372 49.998 64.7062C49.1117 64.8626 48.7294 65.1754 48.8858 66.0791C48.9379 66.4093 48.9032 66.7742 48.8858 67.1218C48.851 67.7649 48.8336 68.3036 49.6504 68.5643C50.2935 68.7728 50.363 69.468 50.363 70.111C50.363 74.5079 50.363 78.9048 50.363 83.319C50.363 85.0917 50.363 86.847 50.363 88.6196C50.3456 91.8869 48.6946 94.0245 45.5316 94.8413C45.4621 94.8587 45.3926 94.9282 45.3231 94.9629C44.767 94.9456 44.1761 94.9456 43.6026 94.9456Z" fill="black"/>
<path d="M85.9917 94.9452C76.0857 94.9452 66.1797 94.9452 56.291 94.9452C54.9702 91.9908 56.6734 88.2717 59.7842 87.4027C61.9044 86.8119 64.042 86.3252 66.1797 85.7865C67.6221 85.4215 67.8654 85.1087 67.8654 83.6141C67.8654 83.4056 67.848 83.2144 67.8654 83.0059C68.0218 81.5808 67.709 80.4512 66.3708 79.617C65.3281 78.9739 64.9979 77.74 64.9631 76.5583C64.911 73.4474 64.7025 70.3018 65.0848 67.2084C65.4845 64.028 68.0566 61.9599 71.2196 61.9252C74.2956 61.8904 76.9199 64.3408 77.2153 67.3648C77.5281 70.6147 77.5108 73.8819 77.2327 77.1491C77.1284 78.3831 76.4854 79.3389 75.4774 79.9993C74.6085 80.5728 74.2956 81.3375 74.2783 82.3455C74.2261 85.1782 74.3304 85.3346 77.0241 85.995C78.6751 86.4121 80.3435 86.8119 81.9945 87.2463C85.0532 88.0631 86.2698 89.6446 86.2524 92.8076C86.2176 93.5375 86.4262 94.2848 85.9917 94.9452Z" fill="#DDDDDC"/>
<path d="M32.6543 94.9453C22.7483 94.9453 12.8423 94.9453 2.95363 94.9453C2.15419 91.4695 2.95363 88.2892 6.51631 87.3681C8.65393 86.812 10.7915 86.308 12.9118 85.7692C14.25 85.4216 14.5106 85.0914 14.5106 83.7011C14.5106 83.4752 14.4933 83.2319 14.5106 83.006C14.6671 81.5809 14.3542 80.4513 12.9987 79.6171C12.0602 79.0262 11.6605 77.9313 11.6257 76.8191C11.5215 73.5866 11.3129 70.3367 11.73 67.1042C12.1123 64.1672 14.3716 62.1338 17.4129 61.9427C19.9503 61.7862 22.5223 63.1592 23.5651 66.1136C23.7736 66.6871 23.8431 67.2954 23.8431 67.9036C23.8431 70.8059 23.8258 73.6908 23.8431 76.5931C23.8431 78.0356 23.287 79.2 22.0879 79.982C21.2189 80.5555 20.854 81.3028 20.8713 82.3282C20.8887 82.8496 20.854 83.3709 20.8887 83.8923C20.9582 84.9524 21.3058 85.4043 22.3312 85.6823C24.156 86.1689 25.9808 86.6034 27.8056 87.0553C28.2226 87.1595 28.6397 87.2812 29.0568 87.3855C31.264 87.9937 32.4979 89.4536 32.7586 91.6955C32.9324 92.7903 33.1235 93.8852 32.6543 94.9453Z" fill="#DDDDDC"/>
<path d="M32.6551 94.9458C32.6377 93.9031 32.6551 92.8604 32.5856 91.835C32.4118 89.6279 31.1952 88.2028 29.0576 87.6467C26.7984 87.0558 24.5217 86.4997 22.2625 85.9262C21.0807 85.6307 20.7505 85.1962 20.7331 83.9797C20.7331 83.58 20.7679 83.1629 20.7331 82.7632C20.5767 81.3729 20.9417 80.3475 22.2625 79.5828C23.3052 78.9746 23.7049 77.7928 23.7049 76.5763C23.7049 73.5697 23.7571 70.5631 23.6354 67.5566C23.5137 64.5674 20.9764 62.2734 17.883 62.1691C14.9807 62.0648 12.2348 64.3762 11.9915 67.3133C11.7134 70.5979 11.7829 73.8999 11.9741 77.1845C12.0436 78.3489 12.6693 79.27 13.6772 79.8435C14.5636 80.3475 14.9112 81.06 14.8416 82.068C14.7895 82.7632 14.8416 83.4583 14.8243 84.1535C14.8069 85.2136 14.4593 85.6481 13.3992 85.9262C11.1399 86.4997 8.86327 87.0558 6.60401 87.6467C4.18833 88.2723 2.98918 89.8538 2.9718 92.3738C2.9718 93.2427 2.9718 94.1117 2.9718 94.9806C2.13761 94.9806 1.28604 94.9632 0.451853 94.998C0.0695159 95.0154 0 94.9285 0 94.5461C0.0347579 93.2427 0.017379 91.9393 0.017379 90.6359C0.399716 90.3057 0.3302 89.8017 0.50399 89.3846C1.51197 86.8994 3.37152 85.3874 5.94361 84.7444C7.69888 84.2925 9.47154 83.8754 11.2268 83.4236C11.922 83.2498 12.1653 82.5546 11.6265 82.1202C9.40202 80.3823 8.77638 78.0361 8.88065 75.3424C9.00231 72.4575 8.61997 69.5378 9.05444 66.6703C9.55843 63.3509 11.5223 61.0395 14.6331 59.8229C17.7265 58.6064 20.6636 59.1104 23.2704 61.1611C25.4081 62.8469 26.5898 65.0714 26.642 67.7999C26.6941 70.9281 26.6767 74.0563 26.6246 77.1672C26.5898 79.0962 25.6861 80.6603 24.2089 81.8769C23.8266 82.1897 23.6528 82.5025 23.7223 82.9717C23.7918 83.4757 24.261 83.3541 24.5391 83.441C26.2075 83.8928 27.8932 84.2752 29.579 84.6923C33.3155 85.6133 35.5226 88.394 35.5921 92.2521C35.6095 93.1558 35.6095 94.0421 35.6269 94.9458C34.6363 94.9458 33.6457 94.9458 32.6551 94.9458Z" fill="black"/>
<path d="M85.9904 94.9457C85.973 94.0246 85.973 93.0861 85.9557 92.1651C85.9035 89.8363 84.6349 88.22 82.393 87.6465C80.1337 87.0556 77.8571 86.4995 75.5978 85.926C74.4334 85.6306 74.1206 85.2308 74.0858 84.0665C74.0685 83.632 74.1206 83.1975 74.0684 82.763C73.9294 81.3901 74.2596 80.3474 75.5804 79.5827C76.6405 78.9744 77.0229 77.7927 77.0229 76.5761C77.0229 73.5174 77.1793 70.4413 76.936 67.3826C76.7274 64.5151 74.0511 62.1516 71.0966 62.1516C68.177 62.1516 65.5006 64.4456 65.2747 67.2958C65.014 70.5804 65.0661 73.8824 65.2573 77.167C65.3268 78.2966 65.9177 79.2177 66.8909 79.7739C67.8294 80.3126 68.2117 81.0599 68.1248 82.12C68.0727 82.7804 68.1248 83.4582 68.1075 84.1186C68.0901 85.1787 67.7425 85.6132 66.6824 85.8912C64.4231 86.4648 62.1465 87.0209 59.8872 87.6118C57.4889 88.2374 56.2724 89.8363 56.255 92.3388C56.255 93.2078 56.255 94.0767 56.2376 94.9457C55.247 94.9457 54.2738 94.9457 53.2832 94.9457C53.2832 94.042 53.2832 93.1557 53.2832 92.252C53.318 88.446 55.5251 85.6479 59.2094 84.7095C60.9647 84.2576 62.7374 83.8405 64.51 83.3887C65.2052 83.2149 65.4311 82.5197 64.8924 82.0853C62.7026 80.3647 62.0596 78.0533 62.1639 75.3944C62.2681 72.5268 61.9379 69.6593 62.3203 66.8091C62.7895 63.4376 64.7359 61.0915 67.8642 59.8402C70.9924 58.5889 73.9468 59.0929 76.5884 61.1784C78.8998 63.0031 79.9599 65.4536 79.9773 68.3559C79.9947 71.0149 79.9773 73.6912 79.9773 76.3502C79.9773 78.6095 79.1952 80.5385 77.3878 81.9636C77.0229 82.2417 77.0055 82.5719 77.0229 82.9542C77.0403 83.4582 77.4747 83.3539 77.718 83.4234C79.369 83.8579 81.02 84.275 82.671 84.6747C85.973 85.4568 88.0585 87.4206 88.7363 90.7921C88.7537 90.8616 88.8406 90.9138 88.8927 90.9659C88.8927 91.1918 88.8927 91.4351 88.8927 91.6611C88.7015 92.4431 88.858 93.2426 88.8058 94.042C88.7884 94.3548 88.8927 94.6676 88.7189 94.9631C87.85 94.9457 86.9115 94.9457 85.9904 94.9457Z" fill="black"/>
<path d="M88.7726 94.9456C88.8768 93.8507 88.564 92.721 88.9464 91.6436C88.9464 92.6515 88.9464 93.6769 88.9464 94.6849C88.9464 94.7891 89.0506 95.0151 88.7726 94.9456Z" fill="#373737"/>
<path d="M42.3886 6.15661C42.2496 6.17399 42.0932 6.22613 42.041 6.01758C42.1627 6.01758 42.2669 6.01758 42.3886 6.01758C42.4407 6.05234 42.4581 6.08709 42.4407 6.12185C42.4234 6.13923 42.406 6.15661 42.3886 6.15661Z" fill="#A7A7A7"/>
<path d="M42.3867 6.15661C42.3867 6.10447 42.3867 6.05234 42.3867 6.01758C42.5084 6.01758 42.6126 6.01758 42.7343 6.01758C42.7864 6.05234 42.8038 6.08709 42.7864 6.12185C42.7691 6.13923 42.7517 6.15661 42.7343 6.15661C42.6126 6.15661 42.491 6.15661 42.3867 6.15661Z" fill="#8D8D8D"/>
<path d="M42.7344 6.15661C42.7344 6.10447 42.7344 6.05234 42.7344 6.01758C42.856 6.01758 42.9603 6.01758 43.082 6.01758C43.1341 6.05234 43.1515 6.08709 43.1341 6.12185C43.1167 6.13923 43.0993 6.15661 43.082 6.15661C42.9603 6.15661 42.8386 6.15661 42.7344 6.15661Z" fill="#747474"/>
<path d="M43.082 6.15661C43.082 6.10447 43.082 6.05234 43.082 6.01758C43.2037 6.01758 43.308 6.01758 43.4296 6.01758C43.3601 6.17399 43.2211 6.17399 43.082 6.15661Z" fill="#5A5A5A"/>
<path d="M45.8632 6.15661C45.7068 6.19137 45.5851 6.17399 45.5156 6.01758C45.6373 6.01758 45.7416 6.01758 45.8632 6.01758C45.9153 6.05234 45.9327 6.08709 45.9153 6.10447C45.898 6.13923 45.8806 6.15661 45.8632 6.15661Z" fill="#5B5B5B"/>
<path d="M45.8613 6.15661C45.8613 6.10447 45.8613 6.05234 45.8613 6.01758C45.983 6.01758 46.0873 6.01758 46.2089 6.01758C46.261 6.05234 46.2784 6.08709 46.261 6.10447C46.2437 6.13923 46.2263 6.15661 46.2089 6.15661C46.1046 6.15661 45.983 6.15661 45.8613 6.15661Z" fill="#767676"/>
<path d="M46.209 6.15661C46.209 6.10447 46.209 6.05234 46.209 6.01758C46.3306 6.01758 46.4349 6.01758 46.5566 6.01758C46.6087 6.05234 46.6261 6.08709 46.6087 6.10447C46.5913 6.13923 46.5739 6.15661 46.5566 6.15661C46.4523 6.15661 46.3306 6.15661 46.209 6.15661Z" fill="#909090"/>
<path d="M46.5586 6.15661C46.5586 6.10447 46.5586 6.05234 46.5586 6.01758C46.6802 6.01758 46.7845 6.01758 46.9062 6.01758C46.8714 6.22613 46.715 6.17399 46.5586 6.15661Z" fill="#ABABAB"/>
<path d="M80.0116 35.5789C79.9595 42.7564 78.0478 49.2561 74.1897 55.1824C73.8421 55.7037 73.6162 55.7559 73.1643 55.3735C72.6082 54.9217 71.7045 54.6089 71.5307 54.0701C71.3917 53.6356 72.139 52.9231 72.4866 52.3322C77.1615 44.2162 78.2564 35.631 75.7364 26.6113C75.5452 25.9162 75.6669 25.6207 76.3447 25.4991C77.0225 25.3948 77.7524 24.717 78.2737 25.0646C78.6908 25.3427 78.7256 26.2464 78.882 26.8894C79.6641 29.7743 79.9769 32.7287 80.0116 35.5789Z" fill="black"/>
<path d="M8.86328 35.2841C8.91542 25.6387 12.7562 16.4452 20.8548 9.09394C21.828 8.22499 22.8707 7.44294 23.8961 6.66089C24.261 6.38282 24.4696 6.27855 24.7477 6.76516C25.13 7.44294 25.9642 8.08596 25.912 8.69423C25.8773 9.19822 24.8519 9.63269 24.261 10.1019C18.0568 15.1071 14.1117 21.4851 12.5129 29.2883C11.4527 34.4846 11.6439 39.6288 13.1733 44.7208C13.3992 45.4507 13.2602 45.7462 12.5302 45.8852C11.8872 46.0069 11.1399 46.5456 10.6707 46.3545C10.1667 46.1459 10.2188 45.1901 10.0451 44.5644C9.31513 41.9228 9.00231 39.2291 8.86328 35.2841Z" fill="black"/>
<path d="M15.745 51.1333C15.8319 51.3419 15.5886 51.3593 15.467 51.4462C13.312 52.906 13.312 52.906 12.1823 50.5598C11.7131 49.5866 11.7131 49.5866 12.7211 49.1521C14.4416 48.4222 14.4416 48.4222 15.2584 50.0732C15.4148 50.4208 15.5712 50.7684 15.745 51.1333Z" fill="#010101"/>
<path d="M44.4562 8.98877C59.3674 9.1278 71.0461 20.9803 71.1156 35.6307C71.1851 50.2986 59.1067 62.377 44.4215 62.3248C29.7362 62.2553 17.7795 50.4897 17.7969 35.6481C17.8317 20.8586 29.5798 9.14518 44.4562 8.98877Z" fill="#FFCA41"/>
<path d="M47.426 80.4519C47.426 83.3194 47.4434 86.1696 47.4086 89.0371C47.3913 90.6012 46.2443 91.8003 44.7497 91.9741C43.342 92.1305 41.9864 91.2095 41.6041 89.8018C41.4998 89.4542 41.4998 89.0545 41.4998 88.6895C41.4998 83.1456 41.4998 77.5843 41.4824 72.0405C41.4824 71.3801 41.6388 71.2236 42.2992 71.241C43.7764 71.2932 45.2537 71.2758 46.7309 71.241C47.287 71.2236 47.4608 71.3801 47.4434 71.9536C47.4086 74.769 47.426 77.6017 47.426 80.4519Z" fill="#939393"/>
<path d="M44.4729 65.2974C45.9327 65.2974 45.9327 65.2974 45.9327 66.7572C45.9327 68.2866 45.9327 68.2865 44.386 68.2865C42.9609 68.2865 42.9609 68.2865 42.9609 66.8962C42.9609 66.8615 42.9609 66.8441 42.9609 66.8093C42.9609 65.2974 42.9609 65.2974 44.4729 65.2974Z" fill="#FCFCFC"/>
<path d="M53.3351 26.9244C53.2482 28.4364 53.5089 30.2959 53.1961 32.1207C52.9354 33.7543 52.1186 35.1099 50.8325 36.1352C50.4676 36.4307 50.3459 36.7261 50.3807 37.1606C50.4154 37.6994 50.8673 37.5777 51.1627 37.6472C53.1092 38.1686 55.0904 38.5857 57.0194 39.1939C60.1998 40.1845 62.1288 42.7914 62.1984 46.1108C62.2505 48.37 62.1984 50.6293 62.2331 52.8886C62.2331 53.3752 62.0593 53.4621 61.6249 53.4447C61.0513 53.4099 60.4605 53.3926 59.887 53.4447C59.3134 53.4968 59.2266 53.2535 59.2439 52.7495C59.2613 50.6988 59.2613 48.6307 59.2613 46.58C59.2613 44.0253 58.0274 42.4438 55.577 41.8182C53.4567 41.2794 51.3191 40.7581 49.1815 40.2193C47.6695 39.837 47.4089 39.5241 47.4089 37.9427C47.4089 37.6298 47.4436 37.2996 47.4089 36.9868C47.2351 35.5965 47.6 34.5711 48.9208 33.8065C49.9809 33.1982 50.3459 32.0164 50.3633 30.7999C50.3807 27.9324 50.4328 25.0648 50.3459 22.1973C50.259 18.8953 47.6348 16.3754 44.4197 16.3927C41.2046 16.4101 38.6151 18.9301 38.5456 22.2321C38.4761 25.0996 38.5108 27.9671 38.5282 30.8347C38.5456 32.225 39.1191 33.372 40.3356 34.0845C41.2219 34.6059 41.5695 35.3184 41.4826 36.309C41.4305 36.9173 41.4826 37.5256 41.4652 38.1338C41.4652 39.4025 41.1177 39.8543 39.9011 40.1498C37.7809 40.6885 35.6433 41.2099 33.5057 41.7487C30.8293 42.4091 29.6128 43.921 29.6128 46.7017C29.6128 48.735 29.5954 50.751 29.6128 52.7843C29.6128 53.2535 29.5085 53.4795 28.9871 53.4273C28.2225 53.3578 27.2145 53.7401 26.7453 53.2535C26.3803 52.8886 26.641 51.8806 26.641 51.1681C26.641 49.3954 26.5888 47.6401 26.6931 45.8675C26.9017 42.3743 28.9871 39.8891 32.3934 38.9854C34.2008 38.4988 36.0256 38.0643 37.8504 37.6125C38.1111 37.5429 38.4761 37.5951 38.4934 37.1954C38.5108 36.8478 38.5456 36.535 38.198 36.2743C36.2516 34.7449 35.4695 32.7116 35.5216 30.2612C35.5738 27.4805 35.4521 24.6999 35.5738 21.9192C35.7302 18.2523 37.6419 15.6281 40.9439 14.1682C44.1416 12.7605 47.2351 13.2471 49.9809 15.4543C52.1881 17.2269 53.2829 19.5731 53.3003 22.4059C53.3351 23.8136 53.3351 25.2039 53.3351 26.9244Z" fill="black"/>
<path d="M35.5753 52.7322C35.5753 53.7402 35.5579 54.7482 35.5927 55.7561C35.6101 56.2254 35.5058 56.4513 34.9844 56.3992C34.3762 56.347 33.7679 56.3644 33.1596 56.3992C32.673 56.4339 32.6035 56.2254 32.6035 55.8083C32.6209 53.7228 32.6209 51.6547 32.6035 49.5692C32.6035 49.1 32.7425 48.9783 33.1944 48.9957C33.8027 49.0305 34.4109 49.0305 35.0192 48.9957C35.4884 48.9783 35.6101 49.1695 35.5927 49.604C35.5579 50.6641 35.5753 51.6895 35.5753 52.7322Z" fill="#010101"/>
<path d="M53.3352 52.7321C53.3352 51.6894 53.3526 50.6467 53.3352 49.6039C53.3178 49.1694 53.4047 48.9783 53.8914 48.9957C54.656 49.0478 55.664 48.7524 56.1506 49.1347C56.6199 49.4996 56.2723 50.5424 56.2897 51.2897C56.307 52.7669 56.2723 54.2441 56.307 55.7213C56.3244 56.2253 56.2375 56.4686 55.664 56.3991C54.9167 56.3296 53.9435 56.625 53.4916 56.2601C53.0224 55.8603 53.3874 54.8524 53.3526 54.1051C53.3178 53.6532 53.3352 53.2014 53.3352 52.7321Z" fill="black"/>
</svg>
