<svg width="130" height="100" viewBox="0 0 130 100" fill="none" xmlns="http://www.w3.org/2000/svg">
<path d="M109 6.87212V80.9319C109 81.9648 108.161 82.804 107.128 82.804H1.87212C0.839247 82.804 0 81.9654 0 80.9319V6.87212C0 5.83925 0.838599 5 1.87212 5H107.128C108.161 5 109 5.83925 109 6.87212Z" fill="black"/>
<path d="M105.689 11.1904H3.31152V73.254H105.689V11.1904Z" fill="white"/>
<path d="M105.689 7.33154H3.31152V11.1911H105.689V7.33154Z" fill="white"/>
<path d="M105.837 11.3371H3.16406V7.18359H105.836V11.3371H105.837ZM3.45871 11.0431H105.542V7.47824H3.45871V11.0431Z" fill="black"/>
<path d="M8.12412 10.1521C7.63262 10.1521 7.23242 9.75186 7.23242 9.26035C7.23242 8.76885 7.63262 8.36865 8.12412 8.36865C8.61562 8.36865 9.01582 8.76885 9.01582 9.26035C9.01582 9.75186 8.61562 10.1521 8.12412 10.1521ZM8.12412 8.6633C7.79516 8.6633 7.52706 8.93139 7.52706 9.26035C7.52706 9.58932 7.79516 9.85741 8.12412 9.85741C8.45373 9.85741 8.72117 9.58932 8.72117 9.26035C8.72182 8.93139 8.45373 8.6633 8.12412 8.6633Z" fill="black"/>
<path d="M11.1017 10.1521C10.6102 10.1521 10.21 9.75186 10.21 9.26035C10.21 8.76885 10.6102 8.36865 11.1017 8.36865C11.5932 8.36865 11.9934 8.76885 11.9934 9.26035C11.9934 9.75186 11.5932 10.1521 11.1017 10.1521ZM11.1017 8.6633C10.7727 8.6633 10.5046 8.93139 10.5046 9.26035C10.5046 9.58932 10.7727 9.85741 11.1017 9.85741C11.4306 9.85741 11.6987 9.58932 11.6987 9.26035C11.6987 8.93139 11.4313 8.6633 11.1017 8.6633Z" fill="black"/>
<path d="M14.0792 10.1521C13.5877 10.1521 13.1875 9.75186 13.1875 9.26035C13.1875 8.76885 13.5877 8.36865 14.0792 8.36865C14.5707 8.36865 14.9709 8.76885 14.9709 9.26035C14.9709 9.75186 14.5713 10.1521 14.0792 10.1521ZM14.0792 8.6633C13.7502 8.6633 13.4821 8.93139 13.4821 9.26035C13.4821 9.58932 13.7502 9.85741 14.0792 9.85741C14.4082 9.85741 14.6763 9.58932 14.6763 9.26035C14.6769 8.93139 14.4088 8.6633 14.0792 8.6633Z" fill="black"/>
<path d="M59.7717 78.9985H49.2273C48.5694 78.9985 48.0312 78.4603 48.0312 77.8024V77.0881C48.0312 76.4302 48.5694 75.8921 49.2273 75.8921H59.7717C60.4296 75.8921 60.9677 76.4302 60.9677 77.0881V77.8024C60.9677 78.4603 60.4296 78.9985 59.7717 78.9985Z" fill="white"/>
<path d="M59.608 79.1455H49.39C48.5592 79.1455 47.8838 78.4694 47.8838 77.6393V77.2514C47.8838 76.4205 48.5599 75.7451 49.39 75.7451H59.608C60.4388 75.7451 61.1143 76.4212 61.1143 77.2514V77.6393C61.1149 78.4701 60.4388 79.1455 59.608 79.1455ZM49.39 76.0385C48.7217 76.0385 48.1778 76.5824 48.1778 77.2507V77.6386C48.1778 78.3069 48.7217 78.8509 49.39 78.8509H59.608C60.2763 78.8509 60.8203 78.3069 60.8203 77.6386V77.2507C60.8203 76.5824 60.2763 76.0385 59.608 76.0385H49.39Z" fill="black"/>
<path d="M64 18H8V40H64V18Z" fill="#FFCA41"/>
<path d="M100 18H69V40H100V18Z" fill="#FFCA41"/>
<path d="M100 45H82V62H100V45Z" fill="#FFCA41"/>
<path d="M75 45H57V62H75V45Z" fill="#FFCA41"/>
<path d="M51 45H33V62H51V45Z" fill="#FFCA41"/>
<path d="M26 45H8V62H26V45Z" fill="#FFCA41"/>
<path d="M100 63H82V66H100V63Z" fill="#FFCA41"/>
<path d="M75 63H57V66H75V63Z" fill="#FFCA41"/>
<path d="M51 63H33V66H51V63Z" fill="#FFCA41"/>
<path d="M26 63H8V66H26V63Z" fill="#FFCA41"/>
</svg>
