<svg width="130" height="103" viewBox="0 0 130 103" fill="none" xmlns="http://www.w3.org/2000/svg">
<path d="M50.3125 51.825L44.9688 55.0312V39L50.3125 42.2062V51.825Z" fill="white" stroke="black" stroke-width="2" stroke-linecap="round" stroke-linejoin="round"/>
<path d="M48.175 85.3125L44.9688 79.9687L61 79.9688L57.7937 85.3125L48.175 85.3125Z" fill="white" stroke="black" stroke-width="2" stroke-linecap="round" stroke-linejoin="round"/>
<path d="M14.6875 83.175L20.0313 79.9688L20.0312 96L14.6875 92.7937L14.6875 83.175Z" fill="white" stroke="black" stroke-width="2" stroke-linecap="round" stroke-linejoin="round"/>
<path d="M16.825 49.6875L20.0312 55.0312L4 55.0312L7.20625 49.6875L16.825 49.6875Z" fill="white" stroke="black" stroke-width="2" stroke-linecap="round" stroke-linejoin="round"/>
<path d="M44.9688 39H20.0312V55.0312H4V79.9688H20.0312V96H44.9688V79.9688H61V55.0312H44.9688V39Z" fill="white" stroke="black" stroke-width="3" stroke-linejoin="round"/>
<rect x="20.9219" y="55.9219" width="23.1562" height="23.1562" stroke="black" stroke-linecap="round" stroke-dasharray="5 5"/>
<path d="M91 43C91 31.5703 82.2844 22 71 22C59.7156 22 50 31.5703 50 43C50 50.0623 53.6399 56.1901 59 60C59.8463 60.5575 60 60.9778 60 62V69C60 72.0665 62.9908 72 66 72H75C78.0092 72 81 72.0665 81 69V62C81 60.9778 81.1537 60.5575 82 60C87.3601 56.283 91 50.0623 91 43Z" fill="#FFCA41"/>
<path d="M59 60L58.131 61.2226C58.1454 61.2329 58.16 61.2429 58.1748 61.2526L59 60ZM82 60L82.8252 61.2526C82.8351 61.2461 82.845 61.2394 82.8548 61.2326L82 60ZM92.5 43C92.5 30.8317 83.1999 20.5 71 20.5V23.5C81.3689 23.5 89.5 32.3089 89.5 43H92.5ZM71 20.5C58.8939 20.5 48.5 30.7352 48.5 43H51.5C51.5 32.4054 60.5373 23.5 71 23.5V20.5ZM48.5 43C48.5 50.6001 52.4196 57.163 58.131 61.2226L59.869 58.7774C54.8602 55.2172 51.5 49.5244 51.5 43H48.5ZM58.1748 61.2526C58.5008 61.4674 58.4897 61.5266 58.4633 61.4712C58.4538 61.4511 58.5 61.5211 58.5 62H61.5C61.5 61.4567 61.4694 60.8055 61.1714 60.1803C60.8566 59.5199 60.3455 59.0902 59.8252 58.7474L58.1748 61.2526ZM58.5 62V69H61.5V62H58.5ZM58.5 69C58.5 70.0172 58.7523 70.9331 59.3261 71.6779C59.8921 72.4126 60.6561 72.8312 61.4063 73.076C62.811 73.5343 64.5983 73.5 66 73.5V70.5C64.3925 70.5 63.1798 70.499 62.3368 70.2239C61.9632 70.102 61.7914 69.9622 61.7026 69.847C61.6216 69.7418 61.5 69.5161 61.5 69H58.5ZM66 73.5H75V70.5H66V73.5ZM75 73.5C76.4017 73.5 78.189 73.5343 79.5937 73.076C80.3439 72.8312 81.1079 72.4126 81.6739 71.6779C82.2477 70.9331 82.5 70.0172 82.5 69H79.5C79.5 69.5161 79.3784 69.7418 79.2974 69.847C79.2086 69.9622 79.0368 70.102 78.6632 70.2239C77.8202 70.499 76.6075 70.5 75 70.5V73.5ZM82.5 69V62H79.5V69H82.5ZM82.5 62C82.5 61.5211 82.5462 61.4511 82.5367 61.4712C82.5103 61.5266 82.4992 61.4674 82.8252 61.2526L81.1748 58.7474C80.6545 59.0902 80.1434 59.5199 79.8286 60.1803C79.5306 60.8055 79.5 61.4567 79.5 62H82.5ZM82.8548 61.2326C88.5884 57.2566 92.5 50.5902 92.5 43H89.5C89.5 49.5344 86.1318 55.3094 81.1452 58.7674L82.8548 61.2326Z" fill="black"/>
<path d="M75.5 52C75.5 51.1716 74.8284 50.5 74 50.5C73.1716 50.5 72.5 51.1716 72.5 52H75.5ZM72.5 66C72.5 66.8284 73.1716 67.5 74 67.5C74.8284 67.5 75.5 66.8284 75.5 66H72.5ZM72.5 52V66H75.5V52H72.5Z" fill="black"/>
<path d="M68.5 50C68.5 49.1716 67.8284 48.5 67 48.5C66.1716 48.5 65.5 49.1716 65.5 50H68.5ZM65.5 65C65.5 65.8284 66.1716 66.5 67 66.5C67.8284 66.5 68.5 65.8284 68.5 65H65.5ZM65.5 50V65H68.5V50H65.5Z" fill="black"/>
<path d="M76 77.0001C76 80.24 73.3333 83.0001 70 83.0001C66.6667 83.0001 64 80.24 64 77.0001C64 73.7602 66.6667 74.0001 70 74.0001C73.3333 74.0001 76 73.8502 76 77.0001Z" fill="white"/>
<path d="M74.5 77.0001C74.5 79.4268 72.4898 81.5001 70 81.5001V84.5001C74.1769 84.5001 77.5 81.0532 77.5 77.0001H74.5ZM70 81.5001C67.5102 81.5001 65.5 79.4268 65.5 77.0001H62.5C62.5 81.0532 65.8231 84.5001 70 84.5001V81.5001ZM65.5 77.0001C65.5 76.3874 65.6262 76.127 65.6991 76.0226C65.7628 75.9313 65.8831 75.817 66.2052 75.7144C66.5528 75.6037 67.0381 75.5386 67.7149 75.5121C68.3946 75.4855 69.1252 75.5001 70 75.5001V72.5001C69.2082 72.5001 68.3554 72.4847 67.5976 72.5144C66.8369 72.5441 66.0306 72.6215 65.2948 72.8559C64.5335 73.0983 63.7789 73.5315 63.2384 74.3064C62.7071 75.0682 62.5 75.9928 62.5 77.0001H65.5ZM70 75.5001C70.8624 75.5001 71.5994 75.4913 72.2705 75.5241C72.9428 75.557 73.4306 75.6284 73.7814 75.7438C74.1099 75.8518 74.238 75.9712 74.3049 76.0662C74.3776 76.1694 74.5 76.4189 74.5 77.0001H77.5C77.5 76.0063 77.2891 75.0933 76.7576 74.3387C76.2203 73.5759 75.4734 73.1422 74.7186 72.8939C73.986 72.653 73.1822 72.5651 72.417 72.5277C71.6506 72.4902 70.8043 72.5001 70 72.5001V75.5001Z" fill="black"/>
<path d="M60 65V71C60 73.0721 61.8899 75 64 75H76C78.1101 75 80 73.0721 80 71V65H60Z" fill="white"/>
<path d="M60 65V63.5C59.1716 63.5 58.5 64.1716 58.5 65H60ZM80 65H81.5C81.5 64.1716 80.8284 63.5 80 63.5V65ZM58.5 65V71H61.5V65H58.5ZM58.5 71C58.5 73.8914 61.0524 76.5 64 76.5V73.5C62.7274 73.5 61.5 72.2528 61.5 71H58.5ZM64 76.5H76V73.5H64V76.5ZM76 76.5C78.9476 76.5 81.5 73.8914 81.5 71H78.5C78.5 72.2528 77.2726 73.5 76 73.5V76.5ZM81.5 71V65H78.5V71H81.5ZM80 63.5H60V66.5H80V63.5Z" fill="black"/>
<path d="M66.9762 51.1389C67.6052 50.5998 67.678 49.6528 67.1389 49.0238C66.5998 48.3948 65.6528 48.322 65.0238 48.8611L66.9762 51.1389ZM70 47L68.9019 48.0218L68.9113 48.032L68.9209 48.0419L70 47ZM73.1 42.8C72.4373 43.2971 72.3029 44.2373 72.8 44.9C73.2971 45.5627 74.2373 45.6971 74.9 45.2L73.1 42.8ZM65.0238 48.8611C64.8279 49.029 64.7223 49.1247 64.589 49.2347C64.4719 49.3313 64.3954 49.3858 64.3366 49.4209C64.2619 49.4654 64.1894 49.5 64 49.5V52.5C65.5804 52.5 66.4215 51.6143 66.9762 51.1389L65.0238 48.8611ZM64 49.5C62.6662 49.5 61.5 48.3816 61.5 47H58.5C58.5 50.0835 61.0548 52.5 64 52.5V49.5ZM61.5 47C61.5 46.8189 61.5964 46.4205 61.9047 45.9908C62.1972 45.5832 62.613 45.2442 63.1255 45.078C64.0395 44.7816 65.9633 44.8639 68.9019 48.0218L71.0981 45.9782C67.8042 42.4384 64.7279 41.4045 62.2 42.2243C60.9917 42.6162 60.076 43.3936 59.4674 44.2418C58.8745 45.0679 58.5 46.0649 58.5 47H61.5ZM68.9209 48.0419C70.187 49.3532 71.2537 50.4659 72.2894 51.2227C73.4039 52.0372 74.5559 52.5 76 52.5V49.5C75.3046 49.5 74.7589 49.3117 74.0594 48.8005C73.2811 48.2318 72.4176 47.3444 71.0791 45.9581L68.9209 48.0419ZM76 52.5C78.9452 52.5 81.5 50.0835 81.5 47H78.5C78.5 48.3816 77.3338 49.5 76 49.5V52.5ZM81.5 47C81.5 43.9165 78.9452 41.5 76 41.5V44.5C77.3338 44.5 78.5 45.6184 78.5 47H81.5ZM76 41.5C74.5335 41.5 73.6252 42.4061 73.1 42.8L74.9 45.2C75.081 45.0643 75.3074 44.8857 75.4193 44.8003C75.5635 44.6901 75.6573 44.6244 75.7332 44.5791C75.8407 44.515 75.8924 44.5 76 44.5V41.5Z" fill="black"/>
<path d="M30 42H39.6519" stroke="black" stroke-width="3" stroke-linecap="round" stroke-linejoin="round"/>
<path d="M101.348 42H111" stroke="black" stroke-width="3" stroke-linecap="round" stroke-linejoin="round"/>
<path d="M41.8281 70.611L48.7358 63.7593" stroke="black" stroke-width="3" stroke-linecap="round" stroke-linejoin="round"/>
<path d="M92.2639 20.5841L99.1716 13.7324" stroke="black" stroke-width="3" stroke-linecap="round" stroke-linejoin="round"/>
<path d="M70.5 11.5736V2" stroke="black" stroke-width="3" stroke-linecap="round" stroke-linejoin="round"/>
<path d="M99.1716 70.611L92.2639 63.7593" stroke="black" stroke-width="3" stroke-linecap="round" stroke-linejoin="round"/>
<path d="M48.7358 20.5841L41.8281 13.7324" stroke="black" stroke-width="3" stroke-linecap="round" stroke-linejoin="round"/>
</svg>
