<svg width="130" height="100" viewBox="0 0 130 100" fill="none" xmlns="http://www.w3.org/2000/svg">
<path d="M64.0211 78.4011V71.3306H52.8845H52.3277H41.1911V78.4011C41.1911 82.2696 38.2915 85.4513 34.5566 85.9136V85.9748H52.3277H52.8845H70.6556V85.9136C66.9207 85.4513 64.0211 82.2628 64.0211 78.4011Z" fill="#D8DBD7" stroke="#010200" stroke-width="3"/>
<path d="M101.717 72.2548C101.717 74.3012 100.06 75.96 98.0157 75.96H7.20479C5.16082 75.96 3.50391 74.3012 3.50391 72.2548V22.0944C3.50391 20.0412 5.16082 18.3892 7.20479 18.3892H98.0089C100.053 18.3892 101.71 20.048 101.71 22.0944V72.2548H101.717Z" fill="#6C6C6C" stroke="#010200" stroke-width="3"/>
<path d="M101.717 62.8656C101.717 64.912 100.06 66.5709 98.0157 66.5709H7.20479C5.16082 66.5709 3.50391 64.912 3.50391 62.8656V12.7053C3.50391 10.6589 5.16082 9 7.20479 9H98.0089C100.053 9 101.71 10.6589 101.71 12.7053V62.8656H101.717Z" fill="white" stroke="black" stroke-width="3" stroke-linecap="round" stroke-linejoin="round"/>
<path d="M77.148 89.0408C77.148 90.2442 76.1701 91.2232 74.9682 91.2232H30.2452C29.0432 91.2232 28.0586 90.2442 28.0586 89.0408V88.157C28.0586 86.9468 29.0364 85.9746 30.2452 85.9746H74.9682C76.1701 85.9746 77.148 86.9536 77.148 88.157V89.0408Z" fill="#D8DBD7" stroke="#010200" stroke-width="3"/>
<path d="M47.6556 27.0029C51.9162 27.0029 56.1175 27.0029 60.3633 27.0029C60.0367 26.2824 59.6359 25.6624 59.2053 25.0593C58.3591 23.8864 57.409 22.8978 56.162 22.2611C54.4548 21.3898 52.8218 21.5741 51.2482 22.6297C49.6894 23.6685 48.6205 25.21 47.6556 27.0029Z" fill="white"/>
<path d="M44.4766 23.8257C44.0139 24.3096 43.5924 24.8987 43.1914 25.5719C42.9344 25.9927 42.6773 26.4556 42.3586 27.0026C42.8007 27.0026 43.1708 27.0026 43.5307 27.0026C43.6335 27.0026 43.6746 26.8764 43.7055 26.7081C43.9522 25.7192 44.2092 24.7724 44.4766 23.8257Z" fill="#FEFEFE"/>
<path d="M60.3633 50.2998C56.1026 50.2998 51.9014 50.2998 47.6556 50.2998C48.3088 51.3065 49.0362 52.1925 49.9715 52.9442C50.684 53.5348 51.4857 54.0046 52.4061 54.2865C53.861 54.7295 55.2416 54.5684 56.5628 53.9107C58.2255 53.0784 59.3686 51.7764 60.3633 50.2998Z" fill="white"/>
<path d="M62.4797 52.4178C63.2442 51.8567 63.9158 51.1554 64.5977 50.2998C64.1637 50.2998 63.7918 50.2998 63.4095 50.2998C63.3372 50.2998 63.2959 50.3559 63.2649 50.4401C63.0273 51.1133 62.769 51.7726 62.4797 52.4178Z" fill="#FEFEFE"/>
<path d="M44.4766 52.4178C44.2066 51.7829 43.9471 51.1622 43.7187 50.5132C43.6668 50.358 43.5941 50.2875 43.4591 50.3016C43.1165 50.3157 42.7739 50.3016 42.3586 50.3016C43.0231 51.1622 43.7187 51.8534 44.4766 52.4178Z" fill="#FEFEFE"/>
<rect x="10.3789" y="14.1895" width="22.8331" height="25.9467" rx="3" fill="#FFCA41"/>
<rect x="37.3633" y="14.1895" width="22.8331" height="25.9467" rx="3" fill="#FFCA41"/>
<path d="M10.3789 51.439C10.3789 49.7821 11.7221 48.439 13.3789 48.439H94.5598C96.2167 48.439 97.5598 49.7821 97.5598 51.439V65.0448H10.3789V51.439Z" fill="#D8DBD7"/>
<rect x="62.2734" y="18.3408" width="35.2875" height="9.34081" rx="3" fill="#C4C4C4"/>
<rect x="62.2734" y="30.7954" width="35.2875" height="9.34081" rx="3" fill="#C4C4C4"/>
</svg>
