<svg width="554" height="523" viewBox="0 0 554 523" fill="none" xmlns="http://www.w3.org/2000/svg">
<path d="M63.2711 522.897C63.1406 522.897 63.005 522.887 62.8694 522.872L49.1122 521.205C47.7164 521.034 46.5868 520 46.2905 518.629L44.1366 508.583C39.6228 506.805 35.3852 504.415 31.5141 501.463L21.7937 504.822C20.4632 505.284 18.9921 504.847 18.1285 503.737L9.57793 492.832C8.71434 491.728 8.64405 490.196 9.40722 489.016L14.9904 480.38C13.0473 475.917 11.7419 471.232 11.0892 466.422L1.85081 461.929C0.590567 461.316 -0.14248 459.971 0.0232091 458.575L1.69014 444.813C1.86085 443.422 2.89514 442.287 4.26584 441.991L14.3126 439.837C16.09 435.323 18.4799 431.086 21.4322 427.214L18.0732 417.494C17.6163 416.163 18.0481 414.692 19.1527 413.829L30.0631 405.278C31.1677 404.41 32.699 404.339 33.8789 405.108L42.5148 410.691C46.9784 408.748 51.6628 407.442 56.4728 406.79L60.9665 397.546C61.5791 396.286 62.9297 395.553 64.3205 395.719L78.0827 397.385C79.4734 397.551 80.6082 398.585 80.9044 399.961L83.0583 410.008C87.5721 411.785 91.8097 414.175 95.6808 417.128L105.401 413.769C106.732 413.312 108.203 413.743 109.066 414.848L117.617 425.758C118.481 426.863 118.551 428.394 117.793 429.574L112.21 438.21C114.153 442.674 115.458 447.358 116.111 452.168L125.349 456.662C126.609 457.274 127.342 458.625 127.177 460.016L125.51 473.778C125.344 475.174 124.305 476.303 122.929 476.6L112.882 478.754C111.105 483.267 108.715 487.505 105.763 491.376L109.122 501.096C109.584 502.422 109.147 503.893 108.042 504.762L97.1318 513.312C96.0272 514.176 94.4909 514.246 93.316 513.483L84.6801 507.9C80.2165 509.843 75.5321 511.148 70.7221 511.801L66.2284 521.044C65.6711 522.189 64.5163 522.897 63.2711 522.897ZM50.6587 516.676L62.4527 518.107L67.6342 507.453L68.9196 507.312C74.1061 506.745 79.1471 505.334 83.8968 503.13L85.0667 502.588L95.0231 509.024L104.372 501.699L100.501 490.492L101.309 489.483C104.588 485.396 107.159 480.842 108.951 475.937L109.393 474.722L120.976 472.237L122.407 460.448L111.753 455.266L111.612 453.981C111.04 448.794 109.634 443.753 107.43 439.003L106.887 437.834L113.324 427.877L105.999 418.528L94.7921 422.399L93.7829 421.591C89.6959 418.312 85.137 415.742 80.2366 413.949L79.0216 413.507L76.5362 401.924L64.7422 400.493L59.5607 411.148L58.2753 411.288C53.0888 411.856 48.0478 413.266 43.2981 415.471L42.1282 416.013L32.1718 409.576L22.823 416.902L26.6941 428.108L25.8857 429.117C22.6071 433.204 20.0364 437.763 18.2439 442.664L17.8021 443.879L6.21897 446.364L4.78802 458.148L15.4423 463.33L15.5829 464.615C16.1553 469.801 17.5611 474.842 19.7653 479.592L20.3075 480.762L13.8708 490.718L21.1962 500.067L32.4028 496.196L33.412 497.005C37.499 500.283 42.0579 502.854 46.9583 504.646L48.1733 505.088L50.6587 516.676ZM6.33946 445.37C6.33946 445.375 6.33946 445.37 6.33946 445.37V445.37ZM4.0148 445.089H4.02485H4.0148ZM63.9188 494.926C62.4678 494.926 61.0017 494.836 59.5406 494.66C53.0988 493.877 47.0035 491.371 41.9073 487.41C40.8881 486.616 40.7023 485.145 41.4956 484.126C42.2889 483.107 43.76 482.921 44.7792 483.714C49.2076 487.154 54.5047 489.333 60.1029 490.01C68.3522 491.01 76.4961 488.74 83.0332 483.614C89.5754 478.488 93.7277 471.122 94.7268 462.873C95.726 454.623 93.4566 446.479 88.3303 439.942C83.2039 433.4 75.8383 429.248 67.589 428.249C59.3448 427.25 51.1959 429.519 44.6587 434.645C38.1165 439.772 33.9643 447.137 32.9651 455.387C32.699 457.591 32.6639 459.82 32.8647 462.009C32.9852 463.294 32.0363 464.434 30.7459 464.555C29.4556 464.67 28.3208 463.726 28.2003 462.436C27.9694 459.915 28.0095 457.355 28.3158 454.819C29.4656 445.33 34.2455 436.854 41.7667 430.96C49.288 425.06 58.6619 422.45 68.1514 423.599C77.6408 424.749 86.116 429.529 92.0105 437.05C97.905 444.572 100.521 453.946 99.3711 463.435C98.2214 472.924 93.4415 481.4 85.9202 487.294C79.5638 492.29 71.8769 494.926 63.9188 494.926Z" fill="#707070"/>
<path d="M63.5875 473.944C61.8402 473.944 60.0628 473.627 58.3356 472.965C54.6855 471.559 51.7985 468.812 50.2119 465.237C48.6253 461.663 48.5249 457.681 49.9357 454.031C52.8428 446.494 61.3381 442.729 68.8744 445.631C72.5246 447.037 75.4116 449.783 76.9982 453.358C78.5848 456.933 78.6852 460.914 77.2743 464.565C75.03 470.374 69.4669 473.944 63.5875 473.944ZM54.2988 455.708C53.3399 458.193 53.4102 460.899 54.4896 463.334C55.5691 465.77 57.5323 467.637 60.0176 468.591C65.1439 470.57 70.928 468.004 72.9062 462.878C74.8844 457.751 72.3188 451.967 67.1924 449.994C62.0561 448.016 56.2771 450.581 54.2988 455.708Z" fill="#707070"/>
<path d="M162.197 433.561C161.559 433.561 160.937 433.284 160.505 432.777L157.528 429.258C155.369 429.484 153.2 429.433 151.056 429.112L147.923 432.491C147.285 433.184 146.276 433.39 145.412 433.013L139.307 430.322C138.443 429.941 137.916 429.052 137.997 428.118L138.378 423.524C136.701 422.158 135.2 420.587 133.91 418.844L129.3 419.02C128.346 419.05 127.493 418.488 127.151 417.609L124.741 411.393C124.4 410.515 124.656 409.516 125.374 408.903L128.894 405.926C128.673 403.767 128.718 401.598 129.039 399.459L125.66 396.326C124.967 395.683 124.762 394.674 125.138 393.815L127.829 387.71C128.211 386.846 129.115 386.324 130.038 386.4L134.628 386.781C135.993 385.104 137.56 383.603 139.307 382.313L139.131 377.703C139.096 376.765 139.663 375.901 140.537 375.56L146.758 373.15C147.637 372.808 148.641 373.064 149.248 373.787L152.226 377.307C154.385 377.086 156.554 377.131 158.698 377.452L161.831 374.073C162.473 373.38 163.482 373.175 164.346 373.556L170.446 376.247C171.31 376.624 171.837 377.513 171.757 378.452L171.37 383.046C173.052 384.411 174.548 385.983 175.839 387.725L180.448 387.549C181.397 387.514 182.256 388.082 182.597 388.96L185.007 395.176C185.348 396.06 185.092 397.059 184.369 397.666L180.85 400.644C181.071 402.803 181.025 404.972 180.704 407.116L184.083 410.249C184.776 410.891 184.982 411.901 184.605 412.759L181.914 418.865C181.533 419.728 180.659 420.255 179.71 420.175L175.116 419.793C173.75 421.475 172.179 422.972 170.436 424.262L170.612 428.871C170.647 429.815 170.08 430.679 169.201 431.02L162.985 433.43C162.734 433.51 162.463 433.561 162.197 433.561ZM145.352 430.101C145.352 430.106 145.352 430.106 145.352 430.101V430.101ZM158.974 425.527L162.594 429.805L167.082 428.063L166.872 422.464L167.67 421.917C169.693 420.531 171.461 418.844 172.932 416.891L173.514 416.118L179.092 416.585L181.035 412.182L176.928 408.376L177.109 407.422C177.561 405.022 177.616 402.572 177.27 400.147L177.134 399.188L181.412 395.568L179.67 391.079L174.071 391.29L173.524 390.492C172.138 388.468 170.451 386.696 168.498 385.23L167.725 384.647L168.192 379.069L163.789 377.126L159.983 381.233L159.029 381.052C156.629 380.606 154.184 380.55 151.754 380.892L150.795 381.027L147.18 376.749L142.691 378.492L142.902 384.09L142.104 384.637C140.08 386.023 138.308 387.715 136.842 389.663L136.259 390.436L130.681 389.969L128.738 394.373L132.845 398.179L132.664 399.133C132.212 401.532 132.157 403.978 132.504 406.408L132.639 407.367L128.361 410.987L130.104 415.475L135.702 415.265L136.249 416.063C137.635 418.086 139.322 419.859 141.275 421.325L142.048 421.907L141.581 427.485L145.985 429.428L149.791 425.321L150.745 425.502C153.145 425.949 155.59 426.004 158.02 425.663L158.974 425.527ZM182.115 394.97C182.115 394.975 182.115 394.975 182.115 394.97V394.97ZM169.036 379.446C169.041 379.446 169.041 379.446 169.036 379.446V379.446ZM148.043 376.413C148.043 376.418 148.043 376.418 148.043 376.413V376.413ZM155.012 421.089C152.567 421.089 150.122 420.577 147.817 419.562C144.86 418.257 142.314 416.178 140.452 413.547C139.889 412.754 140.08 411.66 140.873 411.102C141.667 410.545 142.761 410.731 143.319 411.524C144.81 413.633 146.853 415.3 149.233 416.349C152.738 417.896 156.629 417.981 160.199 416.6C163.769 415.214 166.585 412.523 168.127 409.024C171.315 401.794 168.026 393.318 160.796 390.13C157.292 388.584 153.401 388.498 149.831 389.879C146.261 391.265 143.444 393.956 141.903 397.456C141.491 398.389 141.175 399.368 140.974 400.363C140.778 401.312 139.849 401.924 138.9 401.728C137.951 401.532 137.339 400.604 137.535 399.655C137.791 398.42 138.177 397.199 138.689 396.04C140.612 391.677 144.117 388.328 148.56 386.605C153.004 384.883 157.854 384.994 162.212 386.917C171.215 390.888 175.307 401.442 171.335 410.445C169.412 414.803 165.908 418.157 161.464 419.879C159.38 420.682 157.196 421.089 155.012 421.089Z" fill="#707070"/>
<path d="M257.804 395.159C257.703 393.874 256.388 392.762 254.169 391.869C256.585 390.537 257.917 389.109 257.804 387.711C257.465 383.475 244.056 381.101 227.856 382.41C211.657 383.719 198.8 388.205 199.145 392.44C199.247 393.725 200.561 394.838 202.78 395.73C200.365 397.063 199.032 398.491 199.145 399.889C199.247 401.174 200.561 402.286 202.78 403.179C200.365 404.511 199.032 405.939 199.145 407.337C199.247 408.622 200.561 409.735 202.78 410.627C200.365 411.96 199.032 413.387 199.145 414.786C199.294 416.66 202.007 418.165 206.38 419.152C206.32 420.538 206.356 422.055 206.493 423.727C207.129 431.526 215.904 437.648 227.511 437.648C239.118 437.648 249.166 429.307 249.279 421.478C249.309 419.563 249.226 417.873 249.053 416.374C254.61 414.518 257.989 412.251 257.81 410.056C257.709 408.771 256.394 407.658 254.175 406.766C256.591 405.433 257.923 404.006 257.81 402.608C257.709 401.323 256.394 400.21 254.175 399.318C256.585 397.985 257.917 396.563 257.804 395.159Z" fill="black"/>
<path d="M220.359 420.83C215.546 420.83 211.144 420.479 207.509 419.777C207.301 419.735 207.158 419.533 207.2 419.319C207.241 419.11 207.444 418.968 207.658 419.009C213.351 420.098 220.948 420.342 229.063 419.688C235.702 419.152 241.907 418.081 247.012 416.594C247.22 416.534 247.434 416.653 247.493 416.856C247.553 417.064 247.434 417.278 247.232 417.338C242.074 418.843 235.815 419.925 229.122 420.461C226.106 420.711 223.161 420.83 220.359 420.83Z" fill="white"/>
<path d="M220.437 413.381C214.185 413.381 208.598 412.793 204.66 411.674C204.452 411.615 204.333 411.4 204.392 411.192C204.452 410.984 204.666 410.865 204.874 410.924C210.49 412.525 219.527 413.019 229.058 412.251C238.481 411.49 247.274 409.58 252.575 407.135C252.771 407.046 253.003 407.129 253.092 407.325C253.181 407.522 253.098 407.754 252.902 407.843C247.524 410.324 238.636 412.263 229.123 413.03C226.154 413.263 223.233 413.381 220.437 413.381Z" fill="white"/>
<path d="M220.359 405.945C213.613 405.945 207.705 405.255 203.731 403.946C203.529 403.881 203.416 403.661 203.481 403.452C203.547 403.25 203.767 403.137 203.975 403.203C209.508 405.029 218.884 405.624 229.063 404.803C238.486 404.041 247.279 402.132 252.58 399.687C252.776 399.597 253.008 399.681 253.098 399.877C253.187 400.073 253.104 400.305 252.907 400.395C247.529 402.875 238.641 404.815 229.128 405.582C226.106 405.826 223.161 405.945 220.359 405.945Z" fill="white"/>
<path d="M220.413 398.497C215.059 398.497 210.192 398.062 206.403 397.223C206.194 397.176 206.058 396.968 206.105 396.759C206.153 396.551 206.361 396.414 206.569 396.462C212.263 397.729 220.461 398.056 229.057 397.36C238.397 396.605 247.143 394.713 252.449 392.297C252.646 392.208 252.878 392.297 252.967 392.488C253.056 392.684 252.967 392.916 252.776 393.005C247.392 395.456 238.546 397.372 229.122 398.134C226.142 398.378 223.209 398.497 220.413 398.497Z" fill="white"/>
<path d="M188.471 358.021C186.502 351.055 183.165 344.54 178.661 338.871C169.017 326.717 153.288 301.998 151.348 268.266C148.534 219.197 192.053 194.627 231.763 197.965C271.474 201.302 310.661 230.869 306.372 276.517C303.73 304.604 288.013 325.913 276.305 338.145C268.874 345.915 263.568 355.433 260.7 365.791C257.19 378.474 248.826 394.281 228.955 395.245C203.243 396.488 192.564 372.525 188.471 358.021Z" fill="#FFCA41"/>
<path d="M235.323 385.022L249.22 294.648C249.505 292.78 250.428 291.524 251.272 291.846C252.117 292.167 252.569 293.94 252.284 295.808C252.278 295.855 252.266 295.921 252.26 295.968L236.435 385.503C236.316 386.176 235.977 386.604 235.674 386.455C235.37 386.307 235.221 385.67 235.323 385.022Z" fill="black"/>
<path d="M220.896 385.736L206.999 295.362C206.713 293.494 205.791 292.239 204.947 292.56C204.102 292.881 203.65 294.654 203.935 296.522C203.941 296.57 203.953 296.635 203.959 296.683L219.784 386.218C219.903 386.89 220.242 387.318 220.545 387.17C220.849 387.021 220.997 386.39 220.896 385.736Z" fill="black"/>
<path d="M249.119 286.884C248.768 286.319 247.947 286.105 247.292 286.408L239.552 290.026L236.869 282.375C236.727 281.976 236.399 281.619 235.929 281.429C235.037 281.06 233.972 281.387 233.55 282.161L233.538 282.185L227.172 293.785L221.271 277.27L221.259 277.241C221.116 276.836 220.807 276.473 220.366 276.235C219.379 275.694 218.07 275.95 217.445 276.812L208.551 289.056C208.188 289.556 208.313 290.228 208.867 290.603C209.456 291.001 210.3 290.906 210.758 290.394L218.594 281.655L225.643 297.367L225.649 297.379C225.762 297.629 225.976 297.849 226.268 297.986C226.928 298.295 227.755 298.081 228.112 297.51L234.918 286.587L237.482 292.108L237.506 292.155C237.524 292.197 237.548 292.233 237.571 292.274C237.922 292.84 238.737 293.054 239.392 292.75L248.577 288.461C249.226 288.157 249.47 287.45 249.119 286.884Z" fill="white"/>
<path d="M276.4 326.369C275.972 326.369 275.532 326.238 275.163 325.958C274.241 325.274 274.05 323.971 274.735 323.049C277.09 319.872 279.256 316.588 281.16 313.286C281.737 312.293 283.01 311.948 284.003 312.525C284.997 313.102 285.342 314.369 284.765 315.369C282.778 318.807 280.529 322.228 278.078 325.53C277.668 326.077 277.037 326.369 276.4 326.369Z" fill="white"/>
<path d="M287.836 306.754C287.562 306.754 287.277 306.701 287.009 306.582C285.956 306.124 285.474 304.898 285.932 303.845C300.561 270.161 287.955 241.903 287.824 241.623C287.348 240.576 287.806 239.344 288.847 238.862C289.894 238.387 291.126 238.845 291.608 239.886C292.167 241.105 305.106 270.125 289.751 305.499C289.406 306.284 288.639 306.754 287.836 306.754Z" fill="white"/>
<path d="M353.108 98.6414L352.018 97.6975C351.988 97.6724 351.928 97.6172 351.843 97.5369C351.541 97.2557 350.914 96.6682 349.995 95.9101C349.749 95.7042 349.694 95.3126 349.879 95.0365C350.06 94.7603 350.412 94.7001 350.658 94.9059C351.049 95.2272 351.391 95.5235 351.677 95.7745C351.747 95.5888 351.903 95.4432 352.094 95.403C352.395 95.3427 352.686 95.5687 352.741 95.9101C352.862 96.6883 352.917 97.1151 352.917 97.1151L353.108 98.6414ZM351.737 92.5562C351.692 92.5813 351.642 92.6064 351.592 92.6164C351.29 92.6917 350.994 92.4808 350.924 92.1444C350.663 90.839 350.376 89.5085 350.07 88.193C349.995 87.8616 350.171 87.5152 350.467 87.4298C350.763 87.3445 351.069 87.5403 351.15 87.8767C351.461 89.2122 351.752 90.5579 352.013 91.8733C352.069 92.1495 351.948 92.4256 351.737 92.5562ZM347.555 93.6808C347.384 93.7813 347.173 93.7863 346.997 93.6658C345.948 92.9578 344.879 92.3152 343.829 91.7629C343.548 91.6173 343.433 91.2457 343.563 90.9294C343.694 90.6181 344.025 90.4825 344.306 90.6332C345.391 91.2055 346.49 91.8683 347.575 92.5963C347.841 92.7721 347.926 93.1587 347.766 93.4549C347.71 93.5553 347.64 93.6306 347.555 93.6808ZM340.947 90.2315C340.817 90.3118 340.661 90.3319 340.505 90.2767C339.336 89.8499 338.171 89.5286 337.046 89.3277C336.745 89.2725 336.534 88.9512 336.584 88.6098C336.634 88.2683 336.921 88.0374 337.222 88.0926C338.402 88.3085 339.622 88.6399 340.847 89.0867C341.138 89.1922 341.299 89.5487 341.203 89.875C341.163 90.0357 341.068 90.1562 340.947 90.2315ZM349.889 84.6433C349.854 84.6634 349.819 84.6784 349.784 84.6935C349.488 84.7939 349.177 84.6031 349.091 84.2767C348.745 82.9814 348.368 81.6759 347.982 80.4057C347.881 80.0793 348.037 79.7228 348.328 79.6124C348.619 79.5019 348.935 79.6776 349.036 80.004C349.428 81.2893 349.804 82.6048 350.156 83.9203C350.231 84.2014 350.115 84.5027 349.889 84.6433ZM333.767 88.9813C333.692 89.0265 333.607 89.0516 333.516 89.0566C332.668 89.0867 331.829 89.1871 331.021 89.3528C330.659 89.4281 330.308 89.4934 329.967 89.5537C329.66 89.6039 329.379 89.3679 329.334 89.0315C329.289 88.6901 329.495 88.3738 329.801 88.3185C330.132 88.2633 330.469 88.198 330.815 88.1277C331.684 87.947 332.577 87.8365 333.481 87.8064C333.788 87.7964 334.049 88.0675 334.054 88.4139C334.064 88.6549 333.948 88.8708 333.767 88.9813ZM321.155 95.5436L320.171 96.121C319.734 95.3628 319.112 94.8909 318.082 94.5494C317.786 94.449 317.62 94.1026 317.706 93.7712C317.791 93.4398 318.102 93.249 318.399 93.3495C319.212 93.6206 319.845 93.9771 320.347 94.4591C320.578 94.444 320.809 94.5896 320.899 94.8457L321.155 95.5436ZM326.517 89.7796C326.437 89.8298 326.342 89.8549 326.241 89.8549C324.881 89.8298 323.62 89.634 322.496 89.2725C322.199 89.1771 322.029 88.8307 322.114 88.4993C322.199 88.1679 322.506 87.9771 322.802 88.0725C323.831 88.4039 324.996 88.5846 326.256 88.6047C326.562 88.6098 326.809 88.8959 326.804 89.2374C326.804 89.4733 326.688 89.6742 326.517 89.7796ZM347.525 76.9061C347.505 76.9212 347.479 76.9312 347.459 76.9412C347.173 77.0668 346.847 76.9061 346.736 76.5848C346.3 75.3145 345.838 74.0492 345.361 72.8241C345.24 72.5078 345.371 72.1413 345.652 72.0007C345.933 71.8652 346.264 72.0108 346.385 72.3271C346.867 73.5672 347.334 74.8476 347.776 76.1329C347.881 76.4291 347.766 76.7605 347.525 76.9061ZM319.302 91.8231C319.282 91.8382 319.257 91.8482 319.237 91.8583C318.951 91.9838 318.625 91.8231 318.514 91.5018C317.997 90.0156 317.565 88.7202 317.224 87.6508C317.118 87.3244 317.274 86.973 317.56 86.8525C317.851 86.737 318.168 86.9027 318.273 87.229C318.614 88.2884 319.046 89.5738 319.553 91.0499C319.659 91.3411 319.543 91.6725 319.302 91.8231ZM314.929 93.7361C314.824 93.8013 314.698 93.8264 314.573 93.8064C313.488 93.6105 312.303 93.3746 310.948 93.003C310.646 92.9177 310.466 92.5813 310.541 92.2449C310.616 91.9085 310.917 91.7076 311.219 91.788C312.534 92.1545 313.694 92.3804 314.753 92.5712C315.06 92.6264 315.266 92.9478 315.215 93.2892C315.18 93.485 315.075 93.6507 314.929 93.7361ZM319.679 87.3947C319.488 87.5102 319.247 87.4951 319.061 87.3344C317.997 86.3905 317.359 85.3713 316.978 84.7587C316.857 84.568 316.762 84.4123 316.681 84.3069C316.45 84.0759 316.41 83.6491 316.616 83.3981C316.822 83.142 317.148 83.0918 317.379 83.3228C317.42 83.3629 317.465 83.4182 317.515 83.4784C317.615 83.609 317.741 83.7998 317.891 84.0357C318.263 84.6232 318.82 85.5169 319.759 86.3504C320 86.5663 320.04 86.9579 319.85 87.229C319.804 87.3043 319.744 87.3545 319.679 87.3947ZM344.613 69.4099C344.608 69.415 344.597 69.42 344.592 69.425C344.316 69.5756 343.98 69.4501 343.844 69.1388C343.367 68.0493 342.87 66.9748 342.368 65.9455L342.167 65.5389C342.017 65.2376 342.117 64.856 342.388 64.6903C342.659 64.5246 342.996 64.6351 343.146 64.9364L343.347 65.3481C343.859 66.3974 344.361 67.487 344.843 68.5916C344.979 68.8878 344.874 69.2493 344.613 69.4099ZM307.865 91.7478C307.729 91.8332 307.564 91.8532 307.403 91.788C306.273 91.321 305.128 90.7687 303.999 90.1511C303.723 90.0005 303.607 89.624 303.743 89.3127C303.878 89.0064 304.215 88.8759 304.491 89.0265C305.585 89.629 306.695 90.1612 307.789 90.6131C308.081 90.7336 308.226 91.0901 308.121 91.4164C308.071 91.562 307.975 91.6775 307.865 91.7478ZM301.318 88.1729C301.147 88.2784 300.936 88.2784 300.76 88.1579C300.534 88.0073 300.308 87.8516 300.082 87.6909C299.249 87.1085 298.451 86.4709 297.697 85.793C297.456 85.5771 297.416 85.1855 297.612 84.9144C297.808 84.6433 298.154 84.6031 298.395 84.819C299.113 85.4617 299.882 86.0742 300.675 86.6315C300.896 86.7872 301.117 86.9378 301.338 87.0884C301.599 87.2692 301.684 87.6508 301.523 87.947C301.473 88.0474 301.398 88.1227 301.318 88.1729ZM341.073 62.2653C340.817 62.4209 340.49 62.3305 340.335 62.0494C339.682 60.8895 339.004 59.7598 338.321 58.6904C338.141 58.4092 338.201 58.0226 338.447 57.8218C338.698 57.6109 339.044 57.6862 339.225 57.9624C339.923 59.0519 340.616 60.2067 341.279 61.3866C341.444 61.6778 341.364 62.0644 341.103 62.2452C341.093 62.2502 341.083 62.2602 341.073 62.2653ZM295.644 83.0717C295.423 83.2073 295.142 83.1621 294.966 82.9462C294.128 81.927 293.349 80.8274 292.652 79.6676C292.481 79.3814 292.546 78.9948 292.802 78.799C293.068 78.6132 293.405 78.6835 293.575 78.9697C294.238 80.0743 294.981 81.1287 295.785 82.0977C295.995 82.3487 295.98 82.7454 295.754 82.9813C295.719 83.0215 295.684 83.0517 295.644 83.0717ZM336.81 55.6377C336.579 55.7783 336.288 55.7231 336.112 55.4871C335.334 54.4377 334.526 53.4285 333.707 52.4796C333.491 52.2336 333.496 51.8369 333.717 51.5959C333.938 51.3599 334.29 51.3599 334.506 51.611C335.344 52.58 336.172 53.6143 336.971 54.6888C337.167 54.9549 337.136 55.3465 336.895 55.5674C336.87 55.5975 336.84 55.6176 336.81 55.6377ZM291.572 76.3237C291.562 76.3287 291.557 76.3337 291.547 76.3388C291.271 76.4894 290.934 76.3588 290.804 76.0475C290.272 74.8074 289.81 73.502 289.428 72.1714C289.333 71.84 289.498 71.4886 289.79 71.3882C290.086 71.2827 290.397 71.4635 290.493 71.7949C290.854 73.0702 291.301 74.3204 291.808 75.5103C291.939 75.8065 291.833 76.168 291.572 76.3237ZM331.729 49.7834C331.528 49.9039 331.277 49.8838 331.096 49.7081C330.183 48.8194 329.234 47.9809 328.275 47.2177C328.024 47.0169 327.963 46.6252 328.144 46.3441C328.325 46.0629 328.671 45.9976 328.922 46.1985C329.911 46.9868 330.885 47.8503 331.829 48.7641C332.06 48.9901 332.085 49.3867 331.885 49.6428C331.839 49.703 331.784 49.7532 331.729 49.7834ZM289.358 68.5614C289.308 68.5915 289.247 68.6166 289.187 68.6267C288.886 68.6869 288.595 68.456 288.544 68.1196C288.404 67.2108 288.098 64.6702 288.303 63.7966H288.293L288.69 62.0845C288.765 61.7531 289.072 61.5473 289.368 61.6376C289.664 61.723 289.845 62.0644 289.77 62.3958L289.363 64.1581C289.333 64.4694 289.333 65.8602 289.644 67.9087C289.684 68.1798 289.564 68.4359 289.358 68.5614ZM325.789 45.0587C325.624 45.1591 325.423 45.1642 325.247 45.0537C324.203 44.391 323.123 43.7885 322.039 43.2613C321.758 43.1257 321.627 42.7592 321.747 42.4429C321.873 42.1265 322.199 41.9809 322.481 42.1165C323.605 42.6588 324.72 43.2813 325.799 43.9692C326.065 44.1399 326.161 44.5215 326.01 44.8227C325.955 44.9282 325.88 45.0085 325.789 45.0587ZM319.106 41.8253C318.981 41.9006 318.825 41.9257 318.675 41.8755C317.545 41.4839 316.375 41.1625 315.195 40.9065C314.894 40.8412 314.693 40.5149 314.753 40.1734C314.814 39.837 315.105 39.6111 315.406 39.6764C316.621 39.9374 317.831 40.2739 319.001 40.6755C319.297 40.7759 319.463 41.1274 319.373 41.4588C319.327 41.6245 319.232 41.75 319.106 41.8253ZM290.407 58.831C290.287 58.9063 290.141 58.9314 290.001 58.8862C289.704 58.8008 289.524 58.4594 289.599 58.123L290.513 54.1666C290.588 53.8302 290.894 53.6294 291.19 53.7197C291.487 53.8051 291.667 54.1465 291.592 54.4779L290.678 58.4343C290.638 58.6151 290.538 58.7506 290.407 58.831ZM311.957 40.2889C311.861 40.3441 311.756 40.3743 311.64 40.3642C310.476 40.2538 309.266 40.2036 308.051 40.2186C307.744 40.2236 307.488 39.9475 307.488 39.601C307.483 39.2546 307.729 38.9734 308.041 38.9684C309.291 38.9534 310.536 39.0036 311.736 39.119C312.042 39.1492 312.273 39.4504 312.243 39.7969C312.228 40.0077 312.117 40.1885 311.957 40.2889ZM292.235 50.9181C292.114 50.9934 291.974 51.0185 291.828 50.9733C291.532 50.888 291.351 50.5465 291.426 50.2152L292.34 46.2587C292.416 45.9223 292.722 45.7215 293.018 45.8119C293.314 45.8972 293.495 46.2386 293.42 46.57L292.506 50.5265C292.466 50.7022 292.365 50.8378 292.235 50.9181ZM304.677 40.3692C304.611 40.4094 304.541 40.4345 304.466 40.4395C303.301 40.5701 302.101 40.7609 300.901 41.0019C300.6 41.0621 300.308 40.8362 300.253 40.4998C300.198 40.1584 300.399 39.832 300.705 39.7768C301.935 39.5308 303.165 39.3349 304.36 39.1994C304.666 39.1642 304.943 39.4153 304.973 39.7567C304.988 40.0178 304.867 40.2538 304.677 40.3692ZM297.502 41.8102C297.462 41.8353 297.416 41.8554 297.371 41.8655C296.332 42.1617 295.267 42.4981 294.203 42.8747C294.067 43.0404 293.857 43.1207 293.651 43.0604C293.354 42.9751 293.174 42.6336 293.249 42.2973L293.349 41.8655L293.641 41.76C294.8 41.3433 295.96 40.9717 297.095 40.6504C297.391 40.5651 297.698 40.7659 297.773 41.1023C297.843 41.3885 297.723 41.6747 297.502 41.8102Z" fill="#838383"/>
<path d="M257.961 60.6787C257.961 60.6787 253.648 77.7898 257.514 81.9823C261.194 85.9688 295.467 98.1444 298.8 99.3193C298.951 99.3745 299.107 99.2842 299.167 99.1235C299.654 97.7729 299.539 96.2465 298.851 95.0114C295.537 89.0366 285.495 71.2878 280.926 67.01C275.408 61.8435 257.961 60.6787 257.961 60.6787Z" fill="black"/>
<path d="M287.319 92.717C287.234 92.7672 287.129 92.7823 287.028 92.7471C286.842 92.6768 268.175 85.6476 260.242 82.2686C258.831 81.6661 257.867 80.1899 257.787 78.5079C257.636 75.2645 257.601 70.3892 258.299 65.6093C258.329 65.3884 258.52 65.2328 258.72 65.2729C258.921 65.3081 259.057 65.519 259.022 65.7449C258.294 70.7005 258.394 75.8469 258.515 78.4678C258.58 79.8284 259.358 81.0234 260.498 81.5104C268.416 84.8844 287.068 91.9086 287.259 91.9789C287.45 92.0492 287.555 92.2802 287.49 92.4961C287.46 92.5865 287.4 92.6668 287.319 92.717Z" fill="white"/>
<path d="M271.789 22.3845C271.789 22.3845 279.305 6.7244 284.688 6.71436C289.809 6.70934 322.018 24.6037 325.146 26.351C325.286 26.4313 325.347 26.6121 325.286 26.7778C324.799 28.1284 323.77 29.1376 322.505 29.489C316.41 31.2062 298.174 36.1668 292.234 35.6898C285.059 35.1124 271.789 22.3845 271.789 22.3845Z" fill="black"/>
<path d="M312.614 22.6506C312.514 22.7108 312.393 22.7209 312.283 22.6606C312.102 22.5652 294.328 13.1109 286.541 9.38043C285.416 8.8432 284.116 9.09424 283.227 10.0231C281.51 11.8156 278.246 15.4356 275.691 19.5678C275.58 19.7535 275.349 19.7987 275.184 19.6732C275.018 19.5427 274.978 19.2916 275.093 19.1059C277.689 14.9134 280.993 11.2432 282.73 9.43064C283.835 8.28086 285.441 7.96957 286.832 8.63232C294.634 12.3729 312.423 21.8322 312.599 21.9276C312.78 22.023 312.86 22.269 312.77 22.4698C312.735 22.5502 312.679 22.6104 312.614 22.6506Z" fill="white"/>
<path d="M208.581 38.0951C214.491 43.6583 221.736 48.9352 230.497 52.9318C257.7 65.3384 279.616 69.1944 285.872 70.1032C287.002 70.2689 288.117 69.7116 288.789 68.6823C294.081 60.5435 297.415 51.5059 298.796 41.5746C299.057 39.7068 298.349 37.829 296.984 36.7144C291.064 31.8743 273.32 18.3029 247.227 6.59923C238.51 2.68798 230.085 0.845318 222.429 0.237793C213.2 13.6435 209.962 29.1781 208.581 38.0951Z" fill="#FFBD12"/>
<path d="M222.429 0.237588C205.514 -1.10298 192.339 3.5865 188.001 5.389C187.152 5.74046 186.761 6.82497 187.152 7.73877C189.146 12.3931 195.673 25.9344 208.581 38.0899C209.962 29.1779 213.201 13.6433 222.429 0.237588Z" fill="#FFBD12"/>
<path d="M242.598 13.6384C249.652 16.8317 252.891 26.286 249.833 34.7612C246.775 43.2365 238.571 47.5193 231.517 44.331C224.463 41.1377 221.224 31.6834 224.282 23.2082C227.345 14.728 235.544 10.4452 242.598 13.6384Z" fill="white"/>
<path d="M241.273 16.1637C246.896 18.7043 249.477 26.2406 247.037 32.9987C244.596 39.7518 238.064 43.166 232.441 40.6254C226.817 38.0848 224.237 30.5485 226.677 23.7904C229.117 17.0323 235.649 13.6181 241.273 16.1637Z" fill="black"/>
<path d="M231.873 36.102C231.748 36.1773 231.587 36.1673 231.467 36.0618C228.439 33.3154 227.385 28.4452 228.906 24.2276C229.293 23.1632 229.815 22.1841 230.468 21.3256C230.598 21.1549 230.829 21.1298 230.98 21.2754C231.135 21.421 231.155 21.677 231.025 21.8528C230.422 22.6511 229.94 23.5548 229.584 24.5389C228.178 28.4251 229.142 32.9087 231.924 35.4292C232.079 35.5698 232.104 35.8309 231.979 36.0016C231.949 36.0417 231.914 36.0769 231.873 36.102Z" fill="url(#paint0_linear_318_6521)"/>
<path d="M266.392 30.4582C271.051 32.567 273.19 38.8129 271.172 44.4162C269.148 50.0145 263.731 52.8462 259.071 50.7375C254.412 48.6287 252.273 42.3828 254.291 36.7795C256.315 31.1762 261.732 28.3494 266.392 30.4582Z" fill="white"/>
<path d="M265.514 32.1254C269.229 33.8074 270.931 38.783 269.32 43.2466C267.708 47.7101 263.395 49.9645 259.68 48.2825C255.964 46.6005 254.262 41.6248 255.874 37.1613C257.485 32.7028 261.803 30.4484 265.514 32.1254Z" fill="black"/>
<path d="M259.363 45.4205C259.237 45.4959 259.077 45.4858 258.956 45.3804C256.913 43.5277 256.2 40.244 257.229 37.4022C257.49 36.6842 257.842 36.0265 258.278 35.4491C258.404 35.2784 258.64 35.2533 258.79 35.3989C258.946 35.5445 258.966 35.8006 258.836 35.9763C258.449 36.4934 258.133 37.0759 257.902 37.7135C256.993 40.224 257.616 43.121 259.413 44.7478C259.569 44.8883 259.594 45.1494 259.468 45.3201C259.443 45.3603 259.408 45.3954 259.363 45.4205Z" fill="url(#paint1_linear_318_6521)"/>
<path d="M364.475 404.764C364.053 404.558 363.857 404.006 364.043 403.529L364.876 401.38C365.062 400.903 365.549 400.687 365.976 400.893C366.403 401.099 366.594 401.651 366.413 402.123L365.579 404.277C365.494 404.493 365.348 404.653 365.178 404.749C364.957 404.859 364.706 404.874 364.475 404.764ZM367.608 396.575C367.181 396.374 366.98 395.827 367.156 395.35C367.477 394.486 367.799 393.617 368.12 392.754C368.296 392.277 368.788 392.046 369.214 392.247C369.641 392.443 369.847 392.99 369.671 393.472C369.35 394.34 369.029 395.209 368.707 396.078C368.627 396.299 368.476 396.464 368.301 396.56C368.085 396.665 367.839 396.68 367.608 396.575ZM370.781 387.894C370.349 387.703 370.143 387.156 370.314 386.679C370.625 385.81 370.932 384.936 371.233 384.063C371.404 383.581 371.886 383.345 372.317 383.531C372.749 383.721 372.96 384.264 372.794 384.746C372.488 385.619 372.182 386.498 371.87 387.371C371.79 387.597 371.64 387.768 371.459 387.869C371.253 387.974 371.012 387.994 370.781 387.894ZM373.819 379.152C373.387 378.972 373.166 378.429 373.332 377.947C373.623 377.074 373.919 376.195 374.205 375.316C374.366 374.834 374.848 374.583 375.28 374.759C375.711 374.94 375.937 375.477 375.777 375.964C375.486 376.848 375.194 377.726 374.898 378.605C374.818 378.841 374.667 379.017 374.481 379.117C374.275 379.228 374.039 379.248 373.819 379.152ZM376.695 370.351C376.259 370.18 376.033 369.643 376.183 369.156C376.459 368.272 376.736 367.388 377.007 366.505C377.157 366.013 377.634 365.757 378.071 365.922C378.508 366.093 378.739 366.625 378.588 367.112C378.317 368.001 378.041 368.885 377.76 369.773C377.685 370.014 377.529 370.2 377.333 370.306C377.147 370.416 376.916 370.436 376.695 370.351ZM379.407 361.484C378.965 361.323 378.729 360.796 378.87 360.304C379.131 359.415 379.387 358.527 379.638 357.638C379.778 357.146 380.25 356.875 380.692 357.03C381.134 357.186 381.375 357.713 381.234 358.21C380.978 359.104 380.722 359.998 380.461 360.891C380.386 361.142 380.23 361.338 380.029 361.444C379.844 361.539 379.618 361.564 379.407 361.484ZM381.927 352.557C381.485 352.406 381.234 351.884 381.365 351.392C381.606 350.498 381.842 349.599 382.073 348.706C382.203 348.209 382.665 347.922 383.112 348.068C383.554 348.214 383.81 348.731 383.68 349.228C383.444 350.127 383.208 351.025 382.967 351.929C382.896 352.19 382.736 352.396 382.53 352.507C382.349 352.602 382.138 352.627 381.927 352.557ZM384.247 343.559C383.8 343.424 383.539 342.912 383.659 342.41C383.875 341.506 384.091 340.607 384.302 339.708C384.418 339.206 384.88 338.905 385.321 339.041C385.768 339.171 386.034 339.683 385.919 340.185C385.708 341.094 385.492 341.998 385.271 342.907C385.206 343.178 385.04 343.394 384.829 343.504C384.654 343.595 384.448 343.62 384.247 343.559ZM386.336 334.492C385.884 334.371 385.608 333.864 385.718 333.362C385.914 332.453 386.1 331.549 386.285 330.641C386.391 330.134 386.838 329.822 387.29 329.938C387.741 330.053 388.023 330.555 387.917 331.062C387.731 331.976 387.541 332.89 387.345 333.804C387.285 334.09 387.114 334.311 386.893 334.431C386.727 334.517 386.531 334.547 386.336 334.492ZM388.178 325.364C387.726 325.258 387.435 324.766 387.526 324.259C387.691 323.345 387.857 322.432 388.013 321.518C388.098 321.011 388.54 320.679 388.992 320.775C389.443 320.875 389.74 321.362 389.654 321.874C389.494 322.793 389.333 323.712 389.162 324.636C389.107 324.932 388.931 325.168 388.705 325.293C388.55 325.379 388.364 325.409 388.178 325.364ZM389.745 316.176C389.288 316.09 388.982 315.608 389.057 315.096C389.198 314.172 389.328 313.253 389.459 312.33C389.529 311.817 389.961 311.466 390.413 311.546C390.869 311.627 391.181 312.104 391.111 312.616C390.98 313.545 390.849 314.473 390.709 315.402C390.664 315.714 390.483 315.965 390.247 316.09C390.096 316.176 389.92 316.206 389.745 316.176ZM391 306.912C390.543 306.847 390.217 306.38 390.277 305.863C390.382 304.934 390.483 304.01 390.578 303.086C390.628 302.574 391.045 302.202 391.507 302.263C391.969 302.323 392.295 302.785 392.245 303.302C392.15 304.236 392.049 305.17 391.944 306.104C391.909 306.43 391.723 306.696 391.477 306.832C391.326 306.902 391.166 306.932 391 306.912ZM391.909 297.593C391.447 297.553 391.105 297.096 391.146 296.584C391.216 295.65 391.276 294.721 391.331 293.793C391.362 293.275 391.763 292.884 392.225 292.919C392.687 292.954 393.033 293.401 393.003 293.918C392.948 294.857 392.883 295.796 392.813 296.735C392.787 297.076 392.602 297.362 392.341 297.503C392.21 297.578 392.064 297.608 391.909 297.593ZM392.431 288.244C391.969 288.229 391.607 287.793 391.623 287.275C391.648 286.342 391.673 285.408 391.683 284.479C391.693 283.962 392.069 283.55 392.536 283.56C392.998 283.57 393.365 283.997 393.36 284.514C393.345 285.453 393.325 286.397 393.295 287.341C393.284 287.702 393.094 288.008 392.823 288.154C392.707 288.214 392.572 288.249 392.431 288.244ZM392.526 278.876C392.064 278.886 391.683 278.479 391.673 277.962C391.653 277.028 391.628 276.099 391.598 275.165C391.582 274.648 391.939 274.211 392.401 274.191C392.863 274.171 393.254 274.573 393.269 275.09C393.299 276.034 393.325 276.973 393.345 277.917C393.35 278.293 393.159 278.624 392.873 278.78C392.767 278.84 392.652 278.876 392.526 278.876ZM392.155 269.517C391.693 269.557 391.291 269.175 391.251 268.658C391.186 267.729 391.11 266.8 391.025 265.876C390.98 265.359 391.311 264.902 391.773 264.852C392.235 264.802 392.642 265.174 392.692 265.691C392.777 266.63 392.853 267.569 392.923 268.507C392.953 268.904 392.757 269.266 392.451 269.426C392.361 269.476 392.26 269.507 392.155 269.517ZM391.256 260.203C390.799 260.278 390.372 259.927 390.302 259.415C390.207 258.712 390.106 258.004 390.001 257.306C389.86 257.2 389.75 257.045 389.685 256.849C389.529 256.362 389.75 255.82 390.187 255.649C390.965 255.333 391.738 255.001 392.501 254.655C392.928 254.459 393.42 254.69 393.591 255.172C393.767 255.654 393.551 256.196 393.129 256.392C392.642 256.613 392.15 256.829 391.653 257.04C391.758 257.738 391.859 258.436 391.949 259.133C392.004 259.55 391.808 259.942 391.487 260.118C391.422 260.158 391.341 260.188 391.256 260.203ZM397.397 253.219C397.186 252.757 397.346 252.195 397.753 251.954C398.486 251.527 399.214 251.085 399.927 250.628C400.329 250.372 400.841 250.528 401.067 250.975C401.298 251.421 401.157 251.999 400.756 252.255C400.018 252.727 399.274 253.179 398.521 253.616C398.516 253.621 398.506 253.626 398.501 253.626C398.095 253.852 397.607 253.671 397.397 253.219ZM404.596 248.459C404.33 248.037 404.416 247.455 404.792 247.154C405.465 246.616 406.123 246.064 406.771 245.497C407.137 245.175 407.659 245.251 407.945 245.657C408.232 246.064 408.166 246.652 407.805 246.973C407.142 247.555 406.459 248.128 405.766 248.685C405.726 248.715 405.686 248.745 405.646 248.765C405.284 248.951 404.837 248.836 404.596 248.459ZM385.1 259.4C384.282 259.646 383.464 259.877 382.635 260.087C382.183 260.203 381.736 259.892 381.631 259.384C381.526 258.882 381.807 258.38 382.259 258.26C383.067 258.049 383.87 257.828 384.669 257.587C385.116 257.451 385.572 257.748 385.693 258.25C385.798 258.692 385.603 259.143 385.251 259.334C385.201 259.359 385.151 259.379 385.1 259.4ZM411.098 242.57C410.777 242.198 410.782 241.606 411.114 241.244L411.515 240.802C411.967 240.3 412.409 239.783 412.846 239.266C413.162 238.889 413.689 238.864 414.031 239.221C414.367 239.572 414.387 240.165 414.071 240.546C413.624 241.083 413.167 241.611 412.695 242.133L412.283 242.585C412.218 242.655 412.143 242.715 412.063 242.76C411.746 242.931 411.36 242.866 411.098 242.57ZM376.821 261.328C375.988 261.468 375.149 261.594 374.306 261.709C373.849 261.769 373.432 261.403 373.377 260.891C373.322 260.379 373.653 259.912 374.11 259.851C374.933 259.741 375.752 259.62 376.57 259.48C377.027 259.405 377.454 259.756 377.524 260.268C377.579 260.685 377.383 261.077 377.062 261.252C376.987 261.287 376.906 261.318 376.821 261.328ZM389.75 250.985C389.298 251.105 388.851 250.789 388.746 250.287C388.555 249.383 388.359 248.479 388.148 247.58C388.033 247.078 388.299 246.566 388.746 246.436C389.192 246.305 389.649 246.601 389.77 247.103C389.986 248.017 390.187 248.936 390.382 249.855C390.473 250.292 390.277 250.723 389.931 250.914C389.865 250.944 389.81 250.97 389.75 250.985ZM368.406 262.251C367.563 262.297 366.714 262.322 365.871 262.337C365.409 262.347 365.027 261.93 365.022 261.413C365.017 260.896 365.384 260.469 365.845 260.464C366.674 260.449 367.502 260.419 368.331 260.379C368.793 260.354 369.184 260.755 369.204 261.272C369.219 261.659 369.024 262 368.732 262.161C368.632 262.211 368.522 262.246 368.406 262.251ZM416.702 235.626C416.33 235.319 416.255 234.732 416.531 234.315C417.018 233.577 417.5 232.819 417.957 232.061C418.213 231.634 418.735 231.519 419.117 231.805C419.498 232.096 419.604 232.678 419.343 233.105C418.871 233.889 418.374 234.672 417.872 235.43C417.786 235.555 417.681 235.651 417.565 235.716C417.294 235.862 416.963 235.842 416.702 235.626ZM359.956 262.211C359.112 262.161 358.269 262.096 357.425 262.02C356.964 261.975 356.622 261.523 356.662 261.011C356.702 260.494 357.104 260.113 357.566 260.153C358.389 260.228 359.218 260.293 360.046 260.343C360.508 260.369 360.865 260.81 360.84 261.328C360.825 261.679 360.634 261.98 360.368 262.121C360.242 262.186 360.102 262.221 359.956 262.211ZM421.266 227.788C420.859 227.547 420.703 226.98 420.919 226.523C421.306 225.71 421.672 224.881 422.029 224.048C422.225 223.581 422.727 223.38 423.144 223.601C423.56 223.822 423.741 224.379 423.54 224.846C423.179 225.705 422.792 226.563 422.4 227.397C422.315 227.577 422.18 227.718 422.024 227.803C421.788 227.929 421.507 227.934 421.266 227.788ZM387.546 241.947C387.109 242.113 386.632 241.847 386.486 241.355C386.225 240.476 385.949 239.597 385.663 238.729C385.502 238.242 385.718 237.709 386.16 237.524C386.592 237.343 387.074 237.594 387.234 238.081C387.525 238.97 387.807 239.863 388.073 240.762C388.208 241.214 388.018 241.701 387.646 241.902C387.616 241.922 387.581 241.937 387.546 241.947ZM351.551 261.252C350.713 261.112 349.879 260.956 349.051 260.785C348.594 260.695 348.292 260.203 348.378 259.696C348.458 259.189 348.895 258.847 349.352 258.943C350.165 259.108 350.984 259.259 351.807 259.4C352.264 259.475 352.58 259.957 352.51 260.464C352.465 260.78 352.284 261.036 352.048 261.167C351.892 261.247 351.722 261.282 351.551 261.252ZM424.74 219.273C424.303 219.097 424.078 218.56 424.233 218.073C424.509 217.204 424.775 216.326 425.021 215.442C425.162 214.95 425.629 214.674 426.071 214.829C426.513 214.985 426.759 215.507 426.618 216.004C426.362 216.913 426.096 217.812 425.81 218.705C425.734 218.946 425.579 219.132 425.388 219.233C425.192 219.343 424.961 219.363 424.74 219.273ZM343.262 259.379C342.443 259.143 341.625 258.897 340.811 258.631C340.37 258.486 340.114 257.969 340.239 257.472C340.37 256.974 340.831 256.688 341.278 256.834C342.072 257.095 342.875 257.336 343.673 257.567C344.12 257.692 344.391 258.205 344.276 258.707C344.21 258.983 344.045 259.204 343.829 259.319C343.663 259.405 343.462 259.435 343.262 259.379ZM427.135 210.3C426.683 210.19 426.397 209.693 426.493 209.186C426.668 208.282 426.824 207.373 426.97 206.46C427.05 205.947 427.482 205.606 427.938 205.696C428.395 205.787 428.697 206.274 428.616 206.781C428.471 207.72 428.305 208.649 428.129 209.577C428.074 209.874 427.898 210.105 427.677 210.225C427.512 210.316 427.321 210.346 427.135 210.3ZM384.573 233.196C384.152 233.412 383.654 233.201 383.464 232.734C383.233 232.161 382.992 231.594 382.746 231.027C382.63 230.761 382.515 230.489 382.394 230.223C382.188 229.761 382.359 229.199 382.771 228.968C382.776 228.968 382.776 228.963 382.781 228.963C383.193 228.742 383.69 228.928 383.895 229.39C384.016 229.661 384.136 229.937 384.257 230.208C384.508 230.786 384.749 231.368 384.99 231.955C385.181 232.417 385 232.965 384.593 233.186C384.583 233.191 384.578 233.191 384.573 233.196ZM335.193 256.503C334.4 256.156 333.617 255.795 332.838 255.413C332.417 255.202 332.221 254.65 332.406 254.178C332.592 253.701 333.089 253.49 333.511 253.696C334.264 254.067 335.027 254.419 335.801 254.755C336.232 254.941 336.443 255.488 336.278 255.97C336.197 256.201 336.047 256.372 335.861 256.472C335.66 256.583 335.419 256.603 335.193 256.503ZM428.481 201.052C428.019 201.007 427.682 200.55 427.723 200.038C427.798 199.114 427.853 198.19 427.898 197.266C427.923 196.749 428.315 196.353 428.777 196.383C429.239 196.408 429.595 196.85 429.57 197.367C429.525 198.316 429.465 199.265 429.39 200.209C429.364 200.55 429.174 200.831 428.918 200.967C428.787 201.032 428.636 201.067 428.481 201.052ZM379.603 224.55C379.171 223.761 378.729 222.978 378.272 222.21C378.016 221.778 378.121 221.196 378.508 220.91C378.895 220.623 379.412 220.739 379.668 221.171C380.14 221.964 380.592 222.762 381.034 223.576C381.275 224.017 381.149 224.595 380.752 224.861C380.727 224.876 380.707 224.891 380.682 224.906C380.301 225.112 379.829 224.961 379.603 224.55ZM327.531 252.405C326.788 251.923 326.055 251.416 325.357 250.899C324.971 250.613 324.865 250.036 325.116 249.604C325.367 249.172 325.889 249.052 326.276 249.338C326.949 249.835 327.657 250.322 328.375 250.789C328.776 251.05 328.912 251.622 328.676 252.069C328.591 252.235 328.465 252.36 328.319 252.441C328.073 252.566 327.782 252.566 327.531 252.405ZM428.827 191.688C428.365 191.703 427.979 191.297 427.969 190.779C427.944 189.851 427.908 188.927 427.858 187.998C427.828 187.481 428.18 187.039 428.641 187.004C429.103 186.974 429.5 187.365 429.53 187.882C429.58 188.831 429.621 189.775 429.646 190.724C429.656 191.106 429.46 191.437 429.174 191.593C429.068 191.653 428.948 191.683 428.827 191.688ZM320.607 246.842C319.965 246.205 319.337 245.542 318.745 244.869C318.418 244.503 318.423 243.91 318.75 243.544C319.076 243.177 319.608 243.182 319.935 243.554C320.502 244.196 321.104 244.829 321.717 245.442C322.063 245.783 322.094 246.375 321.787 246.762C321.712 246.857 321.622 246.933 321.526 246.983C321.23 247.144 320.868 247.103 320.607 246.842ZM374.858 216.983C374.341 216.26 373.809 215.552 373.266 214.859C372.96 214.468 373 213.875 373.347 213.539C373.693 213.198 374.225 213.238 374.527 213.629C375.084 214.342 375.631 215.07 376.163 215.813C376.455 216.215 376.394 216.808 376.038 217.129C375.988 217.174 375.932 217.214 375.877 217.244C375.531 217.425 375.109 217.33 374.858 216.983ZM428.22 182.344C427.763 182.415 427.336 182.058 427.276 181.546C427.16 180.627 427.03 179.713 426.889 178.8C426.809 178.287 427.115 177.805 427.572 177.715C428.029 177.625 428.461 177.966 428.541 178.478C428.687 179.412 428.817 180.346 428.938 181.285C428.988 181.697 428.792 182.088 428.476 182.259C428.39 182.299 428.305 182.329 428.22 182.344ZM314.909 239.698C314.427 238.904 313.97 238.081 313.548 237.247C313.322 236.796 313.463 236.223 313.864 235.972C314.271 235.716 314.778 235.877 315.004 236.324C315.406 237.117 315.838 237.895 316.294 238.643C316.556 239.07 316.455 239.652 316.074 239.944C316.038 239.969 316.003 239.994 315.968 240.014C315.597 240.215 315.145 240.089 314.909 239.698ZM369.265 210.195C368.662 209.557 368.055 208.94 367.432 208.332C367.086 207.991 367.045 207.398 367.352 207.012C367.658 206.62 368.185 206.58 368.532 206.921C369.169 207.544 369.802 208.182 370.414 208.834C370.751 209.191 370.766 209.783 370.45 210.16C370.379 210.245 370.294 210.311 370.204 210.361C369.902 210.521 369.526 210.466 369.265 210.195ZM426.683 173.131C426.236 173.262 425.78 172.955 425.664 172.458C425.458 171.559 425.237 170.666 425.006 169.777C424.876 169.28 425.132 168.763 425.574 168.612C426.016 168.467 426.482 168.753 426.613 169.25C426.849 170.159 427.075 171.072 427.286 171.991C427.386 172.428 427.19 172.875 426.839 173.066C426.789 173.096 426.739 173.116 426.683 173.131ZM362.893 204.346C362.215 203.814 361.522 203.296 360.84 202.809C360.448 202.533 360.332 201.951 360.584 201.514C360.835 201.077 361.347 200.947 361.738 201.228C362.446 201.73 363.159 202.267 363.857 202.814C364.234 203.111 364.329 203.698 364.063 204.12C363.978 204.255 363.867 204.356 363.742 204.426C363.471 204.567 363.149 204.547 362.893 204.346ZM312.142 231.699C311.705 231.865 311.228 231.604 311.078 231.117C310.802 230.208 310.551 229.274 310.345 228.351C310.229 227.848 310.505 227.336 310.952 227.211C311.399 227.085 311.856 227.387 311.972 227.889C312.172 228.767 312.403 229.646 312.669 230.509C312.81 230.961 312.619 231.453 312.243 231.654C312.208 231.669 312.177 231.684 312.142 231.699ZM424.238 164.174C423.806 164.36 423.324 164.114 423.159 163.632C422.862 162.768 422.556 161.904 422.235 161.056C422.054 160.579 422.26 160.022 422.682 159.831C423.108 159.63 423.6 159.856 423.776 160.333C424.103 161.206 424.419 162.085 424.72 162.974C424.876 163.431 424.69 163.943 424.303 164.149C424.288 164.154 424.263 164.164 424.238 164.174ZM355.809 199.661C355.076 199.26 354.317 198.878 353.564 198.517C353.138 198.316 352.942 197.763 353.123 197.286C353.303 196.809 353.795 196.588 354.222 196.789C355.005 197.161 355.789 197.558 356.547 197.974C356.964 198.2 357.134 198.763 356.933 199.224C356.848 199.42 356.707 199.571 356.547 199.656C356.316 199.782 356.05 199.792 355.809 199.661ZM310.325 222.576C309.863 222.602 309.471 222.2 309.451 221.683C309.411 220.709 309.411 219.735 309.451 218.781C309.476 218.264 309.868 217.867 310.33 217.892C310.792 217.917 311.148 218.354 311.123 218.871C311.083 219.765 311.083 220.679 311.123 221.592C311.138 221.979 310.942 222.32 310.651 222.481C310.556 222.536 310.445 222.571 310.325 222.576ZM348.142 196.378C347.354 196.127 346.55 195.901 345.752 195.7C345.3 195.589 345.019 195.087 345.119 194.58C345.22 194.073 345.667 193.757 346.118 193.872C346.947 194.078 347.78 194.314 348.599 194.575C349.046 194.716 349.302 195.233 349.176 195.73C349.106 195.996 348.945 196.207 348.734 196.317C348.554 196.413 348.343 196.443 348.142 196.378ZM419.775 155.191C419.393 154.368 418.996 153.555 418.59 152.751C418.359 152.299 418.499 151.732 418.906 151.476C419.298 151.215 419.82 151.376 420.046 151.827C420.462 152.651 420.869 153.484 421.261 154.323C421.477 154.78 421.316 155.347 420.904 155.588C420.899 155.593 420.889 155.598 420.879 155.603C420.477 155.819 419.985 155.638 419.775 155.191ZM311.028 213.278C310.586 213.127 310.335 212.605 310.47 212.108C310.721 211.174 311.023 210.255 311.364 209.372C311.55 208.9 312.042 208.679 312.464 208.885C312.89 209.09 313.081 209.643 312.9 210.12C312.584 210.938 312.303 211.792 312.072 212.655C312.002 212.916 311.841 213.117 311.635 213.228C311.449 213.323 311.238 213.348 311.028 213.278ZM340.083 194.761C339.27 194.701 338.447 194.666 337.628 194.666C337.166 194.666 336.79 194.244 336.795 193.727C336.795 193.209 337.171 192.793 337.633 192.793C338.487 192.793 339.35 192.828 340.199 192.893C340.661 192.928 341.007 193.375 340.977 193.892C340.957 194.239 340.766 194.53 340.505 194.671C340.375 194.741 340.234 194.771 340.083 194.761ZM314.648 204.888C314.291 204.562 314.241 203.969 314.532 203.567C315.079 202.819 315.677 202.101 316.299 201.424C316.631 201.062 317.163 201.077 317.484 201.449C317.806 201.82 317.796 202.413 317.464 202.774C316.887 203.402 316.335 204.07 315.828 204.757C315.747 204.868 315.652 204.948 315.546 205.008C315.26 205.164 314.909 205.129 314.648 204.888ZM331.929 195.168C331.121 195.313 330.313 195.494 329.529 195.705C329.078 195.825 328.626 195.514 328.52 195.012C328.415 194.51 328.691 193.998 329.138 193.882C329.961 193.661 330.81 193.471 331.658 193.32C332.115 193.24 332.547 193.586 332.617 194.093C332.678 194.51 332.482 194.912 332.155 195.087C332.085 195.122 332.01 195.153 331.929 195.168ZM320.838 198.652C320.607 198.205 320.748 197.633 321.145 197.372C321.878 196.9 322.651 196.458 323.444 196.051C323.866 195.835 324.363 196.041 324.554 196.513C324.745 196.985 324.554 197.547 324.142 197.753C323.394 198.135 322.666 198.557 321.978 198.999C321.958 199.009 321.943 199.019 321.923 199.029C321.536 199.24 321.054 199.084 320.838 198.652ZM415.542 147.233C415.08 146.46 414.613 145.697 414.131 144.944C413.865 144.522 413.95 143.94 414.327 143.638C414.704 143.337 415.226 143.438 415.492 143.859C415.984 144.628 416.461 145.406 416.933 146.194C417.189 146.626 417.088 147.208 416.702 147.494C416.667 147.52 416.636 147.54 416.601 147.56C416.23 147.756 415.773 147.625 415.542 147.233ZM410.601 139.787C410.074 139.069 409.542 138.361 408.995 137.659C408.694 137.267 408.729 136.674 409.08 136.338C409.432 136.002 409.959 136.042 410.26 136.433C410.812 137.146 411.36 137.869 411.897 138.602C412.188 139.004 412.138 139.592 411.781 139.923C411.731 139.973 411.671 140.008 411.616 140.043C411.274 140.224 410.852 140.129 410.601 139.787ZM405.053 132.899C404.471 132.236 403.879 131.588 403.281 130.941C402.95 130.584 402.935 129.992 403.256 129.615C403.577 129.244 404.104 129.229 404.441 129.59C405.048 130.243 405.651 130.911 406.243 131.583C406.57 131.95 406.565 132.542 406.238 132.909C406.173 132.984 406.098 133.044 406.012 133.085C405.701 133.255 405.309 133.19 405.053 132.899ZM398.968 126.583C398.335 125.98 397.698 125.388 397.05 124.8C396.689 124.474 396.633 123.886 396.925 123.485C397.216 123.083 397.743 123.023 398.1 123.344C398.757 123.942 399.405 124.544 400.048 125.157C400.399 125.493 400.444 126.085 400.143 126.477C400.063 126.577 399.972 126.658 399.872 126.713C399.586 126.869 399.229 126.834 398.968 126.583ZM392.431 120.849C391.758 120.306 391.08 119.769 390.392 119.242C390.011 118.951 389.915 118.363 390.177 117.937C390.438 117.51 390.96 117.399 391.341 117.696C392.039 118.233 392.727 118.775 393.41 119.327C393.787 119.629 393.867 120.216 393.596 120.638C393.51 120.768 393.405 120.869 393.284 120.934C393.018 121.075 392.692 121.055 392.431 120.849ZM385.517 115.687C384.809 115.2 384.096 114.718 383.378 114.251C382.982 113.99 382.846 113.418 383.082 112.971C383.313 112.524 383.83 112.373 384.227 112.635C384.955 113.112 385.678 113.599 386.396 114.091C386.787 114.362 386.913 114.939 386.672 115.381C386.587 115.537 386.461 115.657 386.326 115.732C386.075 115.868 385.773 115.863 385.517 115.687ZM378.292 111.093C377.554 110.661 376.816 110.235 376.073 109.823C375.661 109.592 375.49 109.03 375.696 108.568C375.902 108.106 376.404 107.915 376.821 108.146C377.574 108.568 378.327 108.994 379.07 109.436C379.482 109.677 379.638 110.245 379.422 110.702C379.337 110.887 379.201 111.023 379.045 111.108C378.814 111.229 378.533 111.234 378.292 111.093ZM370.801 107.041C370.043 106.665 369.28 106.293 368.512 105.932C368.085 105.731 367.889 105.179 368.065 104.702C368.245 104.225 368.737 104.004 369.164 104.205C369.942 104.571 370.716 104.948 371.484 105.329C371.906 105.54 372.096 106.092 371.911 106.564C371.825 106.775 371.68 106.936 371.509 107.026C371.293 107.147 371.037 107.157 370.801 107.041Z" fill="#838383"/>
<path d="M385 480C393.837 480 401 472.837 401 464C401 455.163 393.837 448 385 448C376.163 448 369 455.163 369 464C369 472.837 376.163 480 385 480Z" fill="#CFCFCF"/>
<path d="M93 480C101.837 480 109 472.837 109 464C109 455.163 101.837 448 93 448C84.1635 448 77 455.163 77 464C77 472.837 84.1635 480 93 480Z" fill="#CFCFCF"/>
<path d="M93 193C101.837 193 109 185.837 109 177C109 168.163 101.837 161 93 161C84.1635 161 77 168.163 77 177C77 185.837 84.1635 193 93 193Z" fill="#CFCFCF"/>
<path d="M385 193C393.837 193 401 185.837 401 177C401 168.163 393.837 161 385 161C376.163 161 369 168.163 369 177C369 185.837 376.163 193 385 193Z" fill="#CFCFCF"/>
<path d="M384.918 468H371.055C369.907 468 368.974 467.067 368.974 465.919C368.974 464.772 369.907 463.839 371.055 463.839H384.918C386.066 463.839 387 464.772 387 465.919C387 467.067 386.066 468 384.918 468ZM357.192 468H343.329C342.181 468 341.247 467.067 341.247 465.919C341.247 464.772 342.181 463.839 343.329 463.839H357.192C358.34 463.839 359.273 464.772 359.273 465.919C359.273 467.067 358.34 468 357.192 468ZM329.465 468H315.602C314.454 468 313.52 467.067 313.52 465.919C313.52 464.772 314.454 463.839 315.602 463.839H329.465C330.613 463.839 331.547 464.772 331.547 465.919C331.541 467.067 330.613 468 329.465 468ZM301.733 468H287.869C286.722 468 285.788 467.067 285.788 465.919C285.788 464.772 286.722 463.839 287.869 463.839H301.733C302.881 463.839 303.814 464.772 303.814 465.919C303.814 467.067 302.887 468 301.733 468ZM274.006 468H260.143C258.995 468 258.061 467.067 258.061 465.919C258.061 464.772 258.995 463.839 260.143 463.839H274.006C275.154 463.839 276.088 464.772 276.088 465.919C276.088 467.067 275.154 468 274.006 468ZM246.28 468H232.416C231.268 468 230.335 467.067 230.335 465.919C230.335 464.772 231.268 463.839 232.416 463.839H246.28C247.427 463.839 248.361 464.772 248.361 465.919C248.361 467.067 247.427 468 246.28 468ZM218.553 468H204.69C203.542 468 202.608 467.067 202.608 465.919C202.608 464.772 203.536 463.839 204.69 463.839H218.553C219.701 463.839 220.635 464.772 220.635 465.919C220.629 467.067 219.701 468 218.553 468ZM190.826 468H176.963C175.815 468 174.882 467.067 174.882 465.919C174.882 464.772 175.815 463.839 176.963 463.839H190.826C191.974 463.839 192.908 464.772 192.908 465.919C192.902 467.067 191.974 468 190.826 468ZM163.094 468H149.231C148.083 468 147.149 467.067 147.149 465.919C147.149 464.772 148.083 463.839 149.231 463.839H163.094C164.242 463.839 165.175 464.772 165.175 465.919C165.175 467.067 164.242 468 163.094 468ZM135.367 468H121.504C120.356 468 119.422 467.067 119.422 465.919C119.422 464.772 120.356 463.839 121.504 463.839H135.367C136.515 463.839 137.449 464.772 137.449 465.919C137.449 467.067 136.515 468 135.367 468ZM107.641 468H93.7774C92.6296 468 91.6958 467.067 91.6958 465.919C91.6958 464.772 92.6296 463.839 93.7774 463.839H107.641C108.789 463.839 109.722 464.772 109.722 465.919C109.716 467.067 108.789 468 107.641 468ZM93.0816 454.833C91.9337 454.833 91 453.9 91 452.753V438.896C91 437.749 91.9337 436.816 93.0816 436.816C94.2294 436.816 95.1632 437.749 95.1632 438.896V452.753C95.1632 453.906 94.2294 454.833 93.0816 454.833ZM93.0816 427.121C91.9337 427.121 91 426.187 91 425.04V411.184C91 410.037 91.9337 409.103 93.0816 409.103C94.2294 409.103 95.1632 410.037 95.1632 411.184V425.04C95.1632 426.193 94.2294 427.121 93.0816 427.121ZM93.0816 399.408C91.9337 399.408 91 398.475 91 397.328V383.471C91 382.324 91.9337 381.391 93.0816 381.391C94.2294 381.391 95.1632 382.324 95.1632 383.471V397.328C95.1632 398.475 94.2294 399.408 93.0816 399.408ZM93.0816 371.695C91.9337 371.695 91 370.762 91 369.615V355.759C91 354.611 91.9337 353.678 93.0816 353.678C94.2294 353.678 95.1632 354.611 95.1632 355.759V369.615C95.1632 370.762 94.2294 371.695 93.0816 371.695ZM93.0816 343.977C91.9337 343.977 91 343.044 91 341.896V328.04C91 326.893 91.9337 325.96 93.0816 325.96C94.2294 325.96 95.1632 326.893 95.1632 328.04V341.896C95.1632 343.05 94.2294 343.977 93.0816 343.977ZM93.0816 316.264C91.9337 316.264 91 315.331 91 314.184V300.328C91 299.18 91.9337 298.247 93.0816 298.247C94.2294 298.247 95.1632 299.18 95.1632 300.328V314.184C95.1632 315.337 94.2294 316.264 93.0816 316.264ZM93.0816 288.552C91.9337 288.552 91 287.619 91 286.471V272.615C91 271.468 91.9337 270.534 93.0816 270.534C94.2294 270.534 95.1632 271.468 95.1632 272.615V286.471C95.1632 287.619 94.2294 288.552 93.0816 288.552ZM93.0816 260.839C91.9337 260.839 91 259.906 91 258.759V244.902C91 243.755 91.9337 242.822 93.0816 242.822C94.2294 242.822 95.1632 243.755 95.1632 244.902V258.759C95.1632 259.906 94.2294 260.839 93.0816 260.839ZM93.0816 233.121C91.9337 233.121 91 232.187 91 231.04V217.184C91 216.037 91.9337 215.103 93.0816 215.103C94.2294 215.103 95.1632 216.037 95.1632 217.184V231.04C95.1632 232.193 94.2294 233.121 93.0816 233.121ZM93.0816 205.408C91.9337 205.408 91 204.475 91 203.328V189.471C91 188.324 91.9337 187.391 93.0816 187.391C94.2294 187.391 95.1632 188.324 95.1632 189.471V203.328C95.1632 204.481 94.2294 205.408 93.0816 205.408ZM384.918 181.161H373.827C372.679 181.161 371.745 180.228 371.745 179.081C371.745 177.933 372.679 177 373.827 177H384.918C386.066 177 387 177.933 387 179.081C387 180.228 386.066 181.161 384.918 181.161ZM359.963 181.161H346.1C344.952 181.161 344.019 180.228 344.019 179.081C344.019 177.933 344.952 177 346.1 177H359.963C361.111 177 362.045 177.933 362.045 179.081C362.045 180.228 361.111 181.161 359.963 181.161ZM332.237 181.161H318.374C317.226 181.161 316.292 180.228 316.292 179.081C316.292 177.933 317.226 177 318.374 177H332.237C333.385 177 334.318 177.933 334.318 179.081C334.318 180.228 333.385 181.161 332.237 181.161ZM304.51 181.161H290.647C289.499 181.161 288.565 180.228 288.565 179.081C288.565 177.933 289.493 177 290.647 177H304.51C305.658 177 306.592 177.933 306.592 179.081C306.586 180.228 305.658 181.161 304.51 181.161ZM276.778 181.161H262.914C261.767 181.161 260.833 180.228 260.833 179.081C260.833 177.933 261.767 177 262.914 177H276.778C277.925 177 278.859 177.933 278.859 179.081C278.859 180.228 277.931 181.161 276.778 181.161ZM249.051 181.161H235.188C234.04 181.161 233.106 180.228 233.106 179.081C233.106 177.933 234.04 177 235.188 177H249.051C250.199 177 251.133 177.933 251.133 179.081C251.133 180.228 250.199 181.161 249.051 181.161ZM221.324 181.161H207.461C206.313 181.161 205.38 180.228 205.38 179.081C205.38 177.933 206.313 177 207.461 177H221.324C222.472 177 223.406 177.933 223.406 179.081C223.406 180.228 222.472 181.161 221.324 181.161ZM193.598 181.161H179.735C178.587 181.161 177.653 180.228 177.653 179.081C177.653 177.933 178.587 177 179.735 177H193.598C194.746 177 195.679 177.933 195.679 179.081C195.674 180.228 194.746 181.161 193.598 181.161ZM165.871 181.161H152.008C150.86 181.161 149.926 180.228 149.926 179.081C149.926 177.933 150.86 177 152.008 177H165.871C167.019 177 167.953 177.933 167.953 179.081C167.947 180.228 167.019 181.161 165.871 181.161ZM138.139 181.161H124.275C123.128 181.161 122.194 180.228 122.194 179.081C122.194 177.933 123.128 177 124.275 177H138.139C139.287 177 140.22 177.933 140.22 179.081C140.22 180.228 139.287 181.161 138.139 181.161ZM110.412 181.161H96.5489C95.401 181.161 94.4673 180.228 94.4673 179.081C94.4673 177.933 95.401 177 96.5489 177H110.412C111.56 177 112.494 177.933 112.494 179.081C112.494 180.228 111.56 181.161 110.412 181.161Z" fill="black"/>
<path d="M425.113 349.944C425.602 350.6 424.501 352.789 423.74 354.126C423.372 354.778 422.591 355.079 421.883 354.837C420.863 354.49 419.549 353.916 419.398 353.242C419.148 352.126 423.096 347.235 425.113 349.944Z" fill="#FFCA41"/>
<path d="M458.766 241.754L394.884 409.278L419.502 418.775L485.06 251.347C486.452 247.79 485.087 243.755 481.833 241.759C478.487 239.709 473.235 237.702 465.306 237.409C462.423 237.304 459.793 239.058 458.766 241.754Z" fill="#939393"/>
<path d="M387.289 461.379L390.681 438.115C393.893 438.213 398.022 439.358 402.707 443.024L389.414 462.215C388.709 463.235 387.112 462.605 387.289 461.379Z" fill="black"/>
<path d="M394.885 409.278C410.464 408.561 419.503 418.775 419.503 418.775L402.708 443.027C398.022 439.361 393.893 438.216 390.682 438.118L394.885 409.278Z" fill="#FFCA41"/>
<path d="M466.329 244.019C466.334 243.814 466.21 243.62 466.007 243.542C465.753 243.445 465.464 243.573 465.368 243.831L404.615 404.115C404.518 404.373 404.646 404.659 404.904 404.755C405.158 404.852 405.447 404.724 405.543 404.466L466.296 244.182C466.318 244.129 466.328 244.075 466.329 244.019Z" fill="white"/>
<path d="M476.003 247.026C476.008 246.822 475.883 246.628 475.681 246.552C475.426 246.456 475.138 246.584 475.042 246.841L414.288 407.126C414.192 407.383 414.32 407.669 414.577 407.765C414.832 407.862 415.121 407.734 415.217 407.476L475.97 247.192C475.991 247.136 476.004 247.082 476.003 247.026Z" fill="white"/>
<defs>
<linearGradient id="paint0_linear_318_6521" x1="228.217" y1="28.6633" x2="232.063" y2="28.6633" gradientUnits="userSpaceOnUse">
<stop stop-color="#DAE3FE"/>
<stop offset="1" stop-color="#E9EFFD"/>
</linearGradient>
<linearGradient id="paint1_linear_318_6521" x1="256.767" y1="40.3843" x2="259.555" y2="40.3843" gradientUnits="userSpaceOnUse">
<stop stop-color="#DAE3FE"/>
<stop offset="1" stop-color="#E9EFFD"/>
</linearGradient>
</defs>
</svg>
