<svg width="130" height="100" viewBox="0 0 130 100" fill="none" xmlns="http://www.w3.org/2000/svg">
<path d="M107.207 12.8287V85.1713C107.207 86.1802 106.388 87 105.378 87H2.56308C1.55416 87 0.734375 86.1808 0.734375 85.1713V12.8287C0.734375 11.8198 1.55353 11 2.56308 11H105.378C106.387 11 107.207 11.8198 107.207 12.8287Z" fill="black"/>
<path d="M103.973 17.0469H3.96875V77.6714H103.973V17.0469Z" fill="white"/>
<path d="M103.973 13.2773H3.96875V17.0474H103.973V13.2773Z" fill="white"/>
<path d="M104.116 17.19H3.82422V13.1328H104.116V17.19H104.116ZM4.11203 16.9028H103.828V13.4206H4.11203V16.9028Z" fill="#DDDDDC"/>
<path d="M8.6718 16.0326C8.1917 16.0326 7.80078 15.6417 7.80078 15.1616C7.80078 14.6814 8.1917 14.2905 8.6718 14.2905C9.15191 14.2905 9.54282 14.6814 9.54282 15.1616C9.54282 15.6417 9.15191 16.0326 8.6718 16.0326ZM8.6718 14.5783C8.35047 14.5783 8.08859 14.8402 8.08859 15.1616C8.08859 15.4829 8.35047 15.7448 8.6718 15.7448C8.99377 15.7448 9.25501 15.4829 9.25501 15.1616C9.25565 14.8402 8.99377 14.5783 8.6718 14.5783Z" fill="black"/>
<path d="M11.58 16.0326C11.0999 16.0326 10.709 15.6417 10.709 15.1616C10.709 14.6814 11.0999 14.2905 11.58 14.2905C12.0601 14.2905 12.451 14.6814 12.451 15.1616C12.451 15.6417 12.0601 16.0326 11.58 16.0326ZM11.58 14.5783C11.2587 14.5783 10.9968 14.8402 10.9968 15.1616C10.9968 15.4829 11.2587 15.7448 11.58 15.7448C11.9013 15.7448 12.1632 15.4829 12.1632 15.1616C12.1632 14.8402 11.902 14.5783 11.58 14.5783Z" fill="black"/>
<path d="M14.4882 16.0326C14.0081 16.0326 13.6172 15.6417 13.6172 15.1616C13.6172 14.6814 14.0081 14.2905 14.4882 14.2905C14.9683 14.2905 15.3592 14.6814 15.3592 15.1616C15.3592 15.6417 14.9689 16.0326 14.4882 16.0326ZM14.4882 14.5783C14.1669 14.5783 13.905 14.8402 13.905 15.1616C13.905 15.4829 14.1669 15.7448 14.4882 15.7448C14.8095 15.7448 15.0714 15.4829 15.0714 15.1616C15.0721 14.8402 14.8102 14.5783 14.4882 14.5783Z" fill="black"/>
<path d="M59.1186 83.2829H48.8187C48.176 83.2829 47.6504 82.7572 47.6504 82.1146V81.4169C47.6504 80.7742 48.176 80.2485 48.8187 80.2485H59.1186C59.7612 80.2485 60.2869 80.7742 60.2869 81.4169V82.1146C60.2869 82.7572 59.7612 83.2829 59.1186 83.2829Z" fill="white"/>
<path d="M58.9582 83.4265H48.9772C48.1656 83.4265 47.5059 82.7661 47.5059 81.9552V81.5763C47.5059 80.7647 48.1662 80.105 48.9772 80.105H58.9582C59.7698 80.105 60.4296 80.7654 60.4296 81.5763V81.9552C60.4302 82.7668 59.7698 83.4265 58.9582 83.4265ZM48.9772 80.3915C48.3244 80.3915 47.793 80.9229 47.793 81.5757V81.9546C47.793 82.6074 48.3244 83.1387 48.9772 83.1387H58.9582C59.611 83.1387 60.1424 82.6074 60.1424 81.9546V81.5757C60.1424 80.9229 59.611 80.3915 58.9582 80.3915H48.9772Z" fill="black"/>
<rect x="22" y="34" width="64" height="14" fill="#FFCA41"/>
<path d="M78 44L82.0526 57L83.2401 52.7894C83.4106 52.1847 83.6979 51.6353 84.0793 51.1846C84.4606 50.7339 84.9255 50.3943 85.4372 50.1928L89 48.7895L78 44Z" fill="white" stroke="black" stroke-linejoin="round"/>
</svg>
