<svg width="130" height="100" viewBox="0 0 130 100" fill="none" xmlns="http://www.w3.org/2000/svg">
<path d="M19 52C19 58.7246 20.9941 65.2981 24.73 70.8894C28.466 76.4807 33.7761 80.8385 39.9888 83.4119C46.2014 85.9853 53.0377 86.6586 59.6331 85.3467C66.2284 84.0348 72.2866 80.7966 77.0416 76.0416C81.7966 71.2866 85.0348 65.2284 86.3467 58.6331C87.6586 52.0377 86.9853 45.2015 84.4119 38.9888C81.8385 32.7761 77.4807 27.466 71.8894 23.73C66.2981 19.9941 59.7246 18 53 18L53 42.3786C54.9029 42.3786 56.7631 42.9429 58.3454 44.0001C59.9276 45.0573 61.1608 46.56 61.889 48.3181C62.6172 50.0761 62.8077 52.0107 62.4365 53.877C62.0653 55.7434 61.1489 57.4578 59.8033 58.8033C58.4578 60.1489 56.7434 61.0653 54.877 61.4365C53.0107 61.8077 51.0761 61.6172 49.3181 60.889C47.56 60.1608 46.0573 58.9276 45.0001 57.3454C43.9429 55.7631 43.3786 53.9029 43.3786 52L19 52Z" fill="#DDDDDD" stroke="black" stroke-width="3" stroke-linejoin="round"/>
<path d="M78.2529 20.0658C87.8369 27.4762 94.0132 39.1194 94.0132 52.2125C94.0132 63.5279 89.4002 73.7604 81.9612 81.1137C76.433 86.5783 69.344 90.4528 61.4278 92M23.0921 78.6226C25.7131 81.6871 28.7821 84.3534 32.1969 86.5188C33.58 87.3958 35.0198 88.1907 36.5096 88.8967" stroke="black" stroke-width="2" stroke-linecap="round" stroke-linejoin="round"/>
<path d="M18 47C18 43.0603 18.776 39.1593 20.2836 35.5195C21.7913 31.8797 24.001 28.5726 26.7868 25.7868C29.5726 23.001 32.8797 20.7913 36.5195 19.2836C40.1593 17.776 44.0603 17 48 17L48 38.5105C46.8852 38.5105 45.7812 38.7301 44.7512 39.1568C43.7212 39.5834 42.7854 40.2087 41.9971 40.9971C41.2087 41.7854 40.5834 42.7212 40.1568 43.7512C39.7301 44.7812 39.5106 45.8851 39.5106 47L18 47Z" fill="#FFCA41" stroke="black" stroke-width="3" stroke-linejoin="round"/>
<path d="M43.7166 21.542C40.9889 22.0331 38.348 22.9261 35.8901 24.196C34.8946 24.7103 33.9291 25.2865 33 25.9229" stroke="white" stroke-width="2" stroke-linecap="round" stroke-linejoin="round"/>
</svg>
