<svg width="130" height="100" viewBox="0 0 130 100" fill="none" xmlns="http://www.w3.org/2000/svg">
<path d="M78.318 9.31252L50.7886 2.7937C48.7044 2.30015 46.6042 3.59429 46.1101 5.68074L30.2918 72.4822C29.7983 74.5665 31.0924 76.6667 33.1789 77.1607L60.7103 83.6801C62.7946 84.1736 64.8948 82.8795 65.3889 80.793L81.2077 13.9894C81.6991 11.9046 80.4044 9.80658 78.318 9.31252Z" fill="#FEFEFE"/>
<path d="M66.7066 76.6001C66.7066 76.6001 34.1222 68.8842 32.0231 68.3872C29.9241 67.8901 31.3157 68.4188 31.2608 68.6508C31.2058 68.8827 29.5022 76.0772 29.5022 76.0772C29.4474 76.3089 31.111 76.9023 33.2123 77.3998L60.9393 83.9655C63.0383 84.4625 64.7936 84.679 64.8485 84.447L66.6071 77.0204L66.7066 76.6001Z" fill="#DDDDDC"/>
<path d="M82.1772 13.4151L45.4451 4.71708C45.9163 2.72706 47.9119 1.49378 49.9041 1.96553L79.4256 8.95609C81.4178 9.42784 82.6489 11.4229 82.1772 13.4151Z" fill="#DDDDDC"/>
<path d="M73.585 7.99926L55.6113 3.74316L55.7276 5.66631C55.7819 6.56101 56.4141 7.31248 57.2864 7.51903L70.3968 10.6235C71.2691 10.8301 72.1711 10.4419 72.6209 9.66656L73.585 7.99926Z" fill="#0F0C14"/>
<path d="M78.3189 9.312C80.4032 9.80555 81.7 11.9041 81.2059 13.9905L65.3876 80.792C64.8941 82.8763 62.7956 84.1731 60.7091 83.679L33.1798 77.1602C31.0955 76.6667 29.7987 74.5681 30.2928 72.4817L46.1116 5.67803C46.6051 3.59377 48.7037 2.29693 50.7901 2.79099L78.3194 9.30981L78.3189 9.312ZM78.6822 7.77785L51.1529 1.25903C48.2161 0.563604 45.2723 2.38013 44.5769 5.31694L28.7586 72.1184C28.0632 75.0552 29.8797 77.999 32.8165 78.6944L60.348 85.2137C63.2848 85.9091 66.2286 84.0926 66.924 81.1558L82.7428 14.3521C83.436 11.4148 81.619 8.47327 78.6822 7.77785Z" fill="#0F0C14"/>
<path d="M34.2318 75.4799C35.4422 75.7665 36.6558 75.0176 36.9425 73.8072C37.2291 72.5968 36.4802 71.3832 35.2698 71.0966C34.0594 70.81 32.8458 71.5589 32.5592 72.7693C32.2725 73.9797 33.0214 75.1933 34.2318 75.4799Z" fill="white"/>
<path d="M40.8041 77.0365C42.0145 77.3232 43.2281 76.5743 43.5147 75.3639C43.8013 74.1535 43.0525 72.9399 41.842 72.6533C40.6316 72.3666 39.418 73.1155 39.1314 74.3259C38.8448 75.5363 39.5937 76.7499 40.8041 77.0365Z" fill="white"/>
<path d="M40.8041 77.0365C42.0145 77.3232 43.2281 76.5743 43.5147 75.3639C43.8013 74.1535 43.0525 72.9399 41.842 72.6533C40.6316 72.3666 39.418 73.1155 39.1314 74.3259C38.8448 75.5363 39.5937 76.7499 40.8041 77.0365Z" fill="white"/>
<path d="M47.3783 78.5927C48.5887 78.8793 49.8023 78.1304 50.0889 76.92C50.3756 75.7096 49.6267 74.496 48.4163 74.2094C47.2058 73.9228 45.9923 74.6717 45.7056 75.8821C45.419 77.0925 46.1679 78.3061 47.3783 78.5927Z" fill="white"/>
<path d="M47.0518 79.7072C48.8275 80.1277 50.6078 79.0291 51.0283 77.2534C51.4488 75.4777 50.3502 73.6974 48.5745 73.277C46.7988 72.8565 45.0185 73.9551 44.598 75.7308C44.1776 77.5064 45.2762 79.2867 47.0518 79.7072Z" fill="#FFCA41"/>
<path d="M53.9525 80.1493C55.1629 80.436 56.3765 79.6871 56.6632 78.4767C56.9498 77.2663 56.2009 76.0527 54.9905 75.766C53.7801 75.4794 52.5665 76.2283 52.2799 77.4387C51.9932 78.6491 52.7421 79.8627 53.9525 80.1493Z" fill="white"/>
<path d="M60.5307 81.7074C61.7411 81.9941 62.9547 81.2452 63.2413 80.0348C63.5279 78.8244 62.779 77.6108 61.5686 77.3241C60.3582 77.0375 59.1446 77.7864 58.858 78.9968C58.5714 80.2072 59.3202 81.4208 60.5307 81.7074Z" fill="white"/>
<path d="M44.2403 19.0247C43.2792 23.0833 45.7903 27.1526 49.849 28.1137C53.9076 29.0748 57.977 26.5637 58.938 22.505C59.8991 18.4463 57.388 14.377 53.3293 13.416C49.2707 12.4549 45.2014 14.966 44.2403 19.0247Z" fill="#FFCA41"/>
<path d="M71.4024 39.0377L43.1434 32.3461C42.0686 32.0916 40.9909 32.7566 40.7364 33.8314L39.4829 39.1252C39.2284 40.2 39.8934 41.2777 40.9682 41.5322L69.2272 48.2238C70.302 48.4783 71.3797 47.8133 71.6342 46.7385L72.8877 41.4447C73.1422 40.3699 72.4772 39.2922 71.4024 39.0377Z" fill="#FFCA41"/>
<path d="M68.7911 50.0611L40.5321 43.3695C39.4573 43.115 38.3796 43.78 38.1251 44.8549L36.8716 50.1486C36.617 51.2234 37.282 52.3011 38.3569 52.5556L66.6158 59.2472C67.6907 59.5017 68.7683 58.8367 69.0229 57.7619L70.2764 52.4682C70.5309 51.3933 69.8659 50.3157 68.7911 50.0611Z" fill="#FFCA41"/>
<path d="M66.1817 61.0841L37.9227 54.3925C36.8479 54.138 35.7702 54.803 35.5157 55.8778L34.2622 61.1715C34.0077 62.2464 34.6727 63.3241 35.7475 63.5786L64.0065 70.2702C65.0813 70.5247 66.159 69.8597 66.4135 68.7848L67.667 63.4911C67.9215 62.4163 67.2565 61.3386 66.1817 61.0841Z" fill="#FFCA41"/>
<path d="M76.9966 19.9901L63.2174 16.7273C62.7101 16.6072 62.2014 16.921 62.0813 17.4284C61.9612 17.9357 62.2751 18.4444 62.7824 18.5645L76.5615 21.8273C77.0689 21.9475 77.5775 21.6336 77.6977 21.1263C77.8178 20.6189 77.5039 20.1103 76.9966 19.9901Z" fill="#FFCA41"/>
<path d="M76.1274 23.6644L62.3483 20.4016C61.841 20.2815 61.3323 20.5954 61.2122 21.1027C61.092 21.61 61.4059 22.1187 61.9133 22.2388L75.6924 25.5017C76.1997 25.6218 76.7084 25.3079 76.8285 24.8006C76.9487 24.2932 76.6348 23.7846 76.1274 23.6644Z" fill="#FFCA41"/>
<path d="M75.2563 27.3392L61.4772 24.0764C60.9699 23.9563 60.4612 24.2702 60.3411 24.7775C60.2209 25.2848 60.5348 25.7935 61.0422 25.9136L74.8213 29.1765C75.3286 29.2966 75.8373 28.9827 75.9574 28.4754C76.0776 27.968 75.7637 27.4594 75.2563 27.3392Z" fill="#FFCA41"/>
<path d="M74.3852 31.0136L60.6061 27.7507C60.0988 27.6306 59.5901 27.9445 59.47 28.4518C59.3498 28.9591 59.6637 29.4678 60.1711 29.5879L73.9502 32.8508C74.4575 32.9709 74.9662 32.657 75.0863 32.1497C75.2065 31.6424 74.8926 31.1337 74.3852 31.0136Z" fill="#FFCA41"/>
<path d="M36.7542 14.3384L8.46357 14.3384C6.32167 14.3384 4.57617 16.0816 4.57617 18.2258L4.57617 86.8746C4.57617 89.0165 6.31942 90.762 8.46357 90.762H36.7564C38.8983 90.762 40.6438 89.0187 40.6438 86.8746L40.6438 18.2235C40.6416 16.0816 38.8983 14.3384 36.7542 14.3384Z" fill="#FEFEFE"/>
<path d="M40.9571 82.4912C40.9571 82.4912 7.47159 82.4912 5.31449 82.4912C3.15739 82.4912 4.63337 82.685 4.63337 82.9234C4.63337 83.1617 4.63337 90.5552 4.63337 90.5552C4.63337 90.7933 6.38899 90.9873 8.54836 90.9873H37.0421C39.1992 90.9873 40.9571 90.7935 40.9571 90.5552V82.9231V82.4912Z" fill="#DDDDDC"/>
<path d="M41.4549 17.4423L3.70703 17.4423C3.70703 15.3972 5.36469 13.7373 7.41199 13.7373L37.7499 13.7373C39.7972 13.7373 41.4549 15.395 41.4549 17.4423Z" fill="#DDDDDC"/>
<path d="M31.8458 14.1514L13.375 14.1514L13.9313 15.996C14.1903 16.8541 14.9786 17.4397 15.875 17.4397H29.348C30.2444 17.4397 31.0327 16.8541 31.2917 15.996L31.8458 14.1514Z" fill="#0F0C14"/>
<path d="M36.7546 14.3383C38.8965 14.3383 40.642 16.0815 40.642 18.2257L40.642 86.8745C40.642 89.0164 38.8987 90.7619 36.7546 90.7619H8.46397C6.32208 90.7619 4.57658 89.0186 4.57658 86.8745L4.57658 18.2234C4.57658 16.0815 6.31982 14.336 8.46397 14.336L36.7546 14.336V14.3383ZM36.7546 12.7617L8.46397 12.7617C5.44595 12.7617 3 15.2077 3 18.2257L3 86.8745C3 89.8925 5.44595 92.3384 8.46397 92.3384H36.7568C39.7748 92.3384 42.2208 89.8925 42.2208 86.8745L42.2208 18.2234C42.2185 15.2054 39.7726 12.7617 36.7546 12.7617Z" fill="#0F0C14"/>
<path d="M9.09796 88.8844C10.3418 88.8844 11.3502 87.876 11.3502 86.6321C11.3502 85.3883 10.3418 84.3799 9.09796 84.3799C7.85407 84.3799 6.8457 85.3883 6.8457 86.6321C6.8457 87.876 7.85407 88.8844 9.09796 88.8844Z" fill="white"/>
<path d="M15.8538 88.8844C17.0977 88.8844 18.1061 87.876 18.1061 86.6321C18.1061 85.3883 17.0977 84.3799 15.8538 84.3799C14.6099 84.3799 13.6016 85.3883 13.6016 86.6321C13.6016 87.876 14.6099 88.8844 15.8538 88.8844Z" fill="white"/>
<path d="M15.8538 88.8844C17.0977 88.8844 18.1061 87.876 18.1061 86.6321C18.1061 85.3883 17.0977 84.3799 15.8538 84.3799C14.6099 84.3799 13.6016 85.3883 13.6016 86.6321C13.6016 87.876 14.6099 88.8844 15.8538 88.8844Z" fill="white"/>
<path d="M22.6116 88.8839C23.8555 88.8839 24.8639 87.8755 24.8639 86.6317C24.8639 85.3878 23.8555 84.3794 22.6116 84.3794C21.3677 84.3794 20.3594 85.3878 20.3594 86.6317C20.3594 87.8755 21.3677 88.8839 22.6116 88.8839Z" fill="white"/>
<path d="M22.5501 90.0436C24.3749 90.0436 25.8542 88.5644 25.8542 86.7396C25.8542 84.9148 24.3749 83.4355 22.5501 83.4355C20.7254 83.4355 19.2461 84.9148 19.2461 86.7396C19.2461 88.5644 20.7254 90.0436 22.5501 90.0436Z" fill="#FFCA41"/>
<path d="M29.3675 88.8839C30.6114 88.8839 31.6197 87.8755 31.6197 86.6317C31.6197 85.3878 30.6114 84.3794 29.3675 84.3794C28.1236 84.3794 27.1152 85.3878 27.1152 86.6317C27.1152 87.8755 28.1236 88.8839 29.3675 88.8839Z" fill="white"/>
<path d="M36.1253 88.8844C37.3692 88.8844 38.3776 87.876 38.3776 86.6321C38.3776 85.3883 37.3692 84.3799 36.1253 84.3799C34.8814 84.3799 33.873 85.3883 33.873 86.6321C33.873 87.876 34.8814 88.8844 36.1253 88.8844Z" fill="white"/>
<path d="M20.0795 23.0186H8.03125C6.92668 23.0186 6.03125 23.914 6.03125 25.0186L6.03125 39.8988C6.03125 41.0034 6.92668 41.8988 8.03125 41.8988H20.0795C21.184 41.8988 22.0795 41.0034 22.0795 39.8988V25.0186C22.0795 23.914 21.184 23.0186 20.0795 23.0186Z" fill="#FFCA41"/>
<path d="M37.0717 51.3394H8.03125C6.92668 51.3394 6.03125 52.2348 6.03125 53.3394L6.03125 68.2196C6.03125 69.3242 6.92668 70.2196 8.03125 70.2196H37.0717C38.1762 70.2196 39.0717 69.3242 39.0717 68.2196V53.3394C39.0717 52.2348 38.1762 51.3394 37.0717 51.3394Z" fill="#FFCA41"/>
<path d="M38.1277 72.1074H6.97526C6.4539 72.1074 6.03125 72.5301 6.03125 73.0514C6.03125 73.5728 6.4539 73.9954 6.97526 73.9954H38.1277C38.649 73.9954 39.0717 73.5728 39.0717 73.0514C39.0717 72.5301 38.649 72.1074 38.1277 72.1074Z" fill="#FFCA41"/>
<path d="M38.1277 75.8833H6.97526C6.4539 75.8833 6.03125 76.3059 6.03125 76.8273C6.03125 77.3487 6.4539 77.7713 6.97526 77.7713H38.1277C38.649 77.7713 39.0717 77.3487 39.0717 76.8273C39.0717 76.3059 38.649 75.8833 38.1277 75.8833Z" fill="#FFCA41"/>
<path d="M37.0697 23.0186H25.0215C23.9169 23.0186 23.0215 23.914 23.0215 25.0186V39.8988C23.0215 41.0034 23.9169 41.8988 25.0215 41.8988H37.0697C38.1743 41.8988 39.0697 41.0034 39.0697 39.8988V25.0186C39.0697 23.914 38.1743 23.0186 37.0697 23.0186Z" fill="#FFCA41"/>
<path d="M21.1354 43.7871H6.97526C6.4539 43.7871 6.03125 44.2098 6.03125 44.7311C6.03125 45.2525 6.4539 45.6751 6.97526 45.6751H21.1354C21.6568 45.6751 22.0795 45.2525 22.0795 44.7311C22.0795 44.2098 21.6568 43.7871 21.1354 43.7871Z" fill="#FFCA41"/>
<path d="M38.1257 43.7871H23.9655C23.4441 43.7871 23.0215 44.2098 23.0215 44.7311C23.0215 45.2525 23.4441 45.6751 23.9655 45.6751H38.1257C38.647 45.6751 39.0697 45.2525 39.0697 44.7311C39.0697 44.2098 38.647 43.7871 38.1257 43.7871Z" fill="#FFCA41"/>
</svg>
