<svg width="130" height="100" viewBox="0 0 130 100" fill="none" xmlns="http://www.w3.org/2000/svg">
<rect x="33.0737" y="21.9141" width="53.4975" height="53.4975" rx="4" fill="white" stroke="black" stroke-width="3"/>
<path d="M67.847 28.6011C65.2018 28.6011 62.616 29.3855 60.4166 30.8551C58.2172 32.3247 56.503 34.4135 55.4907 36.8573C54.4784 39.3011 54.2136 41.9903 54.7296 44.5847C55.2457 47.179 56.5195 49.5621 58.3899 51.4326C60.2604 53.303 62.6434 54.5768 65.2378 55.0929C67.8322 55.6089 70.5213 55.344 72.9652 54.3318C75.409 53.3195 77.4978 51.6053 78.9674 49.4059C80.437 47.2065 81.2214 44.6207 81.2214 41.9755H67.847V28.6011Z" fill="#DDDDDD"/>
<rect x="54.4727" y="60.6997" width="26.7488" height="2.67488" rx="1.33744" fill="#DDDDDD"/>
<rect x="54.4727" y="66.0493" width="26.7488" height="2.67488" rx="1.33744" fill="#DDDDDD"/>
<path d="M69.8531 28.6011C71.346 28.6011 72.8243 28.8951 74.2035 29.4664C75.5828 30.0377 76.836 30.8751 77.8916 31.9308C78.9473 32.9864 79.7846 34.2396 80.356 35.6189C80.9273 36.9981 81.2213 38.4764 81.2213 39.9693L69.8531 39.9693V28.6011Z" fill="#DDDDDD"/>
<path d="M89.3013 19.9769C89.3102 19.8513 89.492 19.611 89.5454 19.5086L94.9637 13.4003C95.1149 13.2187 95.4958 13.0171 95.6471 13.161C95.7984 13.3049 95.9936 13.6767 95.8424 13.8583L90.4241 19.9666C90.2729 20.1482 89.892 20.3498 89.7407 20.2059C89.7229 20.1315 89.3192 20.0513 89.3013 19.9769Z" fill="black"/>
<path d="M86.2395 13.1486C86.1631 13.0893 86.0875 12.8706 86.045 12.7929L84.4634 6.72669C84.4121 6.55265 84.4462 6.22349 84.6027 6.18848C84.7591 6.15347 85.0797 6.18775 85.1309 6.36179L86.7126 12.428C86.7638 12.602 86.7297 12.9312 86.5733 12.9662C86.5182 12.9458 86.2945 13.169 86.2395 13.1486Z" fill="#FFCA41"/>
<path d="M89.1766 13.7324C89.1727 13.615 89.1294 13.823 89.1766 13.7324C89.3223 13.5778 89.6935 13.3822 89.8748 13.5343L95.9708 18.959C96.152 19.1111 96.354 19.4901 96.2083 19.6447C96.0626 19.7992 95.6914 19.9948 95.5102 19.8427L89.4142 14.4181C89.3629 14.3914 89.1806 13.8497 89.1766 13.7324Z" fill="black"/>
<path d="M82.2026 10.5604C82.126 10.5128 82.2402 10.6292 82.2026 10.5604C82.1662 10.4014 82.2 10.0811 82.3745 10.0304L88.4395 8.45934C88.6139 8.40868 88.942 8.44181 88.9784 8.60078C89.0147 8.75976 88.9809 9.08009 88.8065 9.13075L82.7415 10.7018C82.7025 10.7231 82.2791 10.608 82.2026 10.5604Z" fill="#FFCA41"/>
<path d="M9 25.7964C9 23.9192 10.3053 22.2946 12.1384 21.8903L49.6112 13.6242C52.1077 13.0735 54.4729 14.9738 54.4729 17.5303V82.6806C54.4729 85.1678 52.2271 87.052 49.7778 86.6197L12.3049 80.0069C10.3934 79.6696 9 78.0087 9 76.0677V25.7964Z" fill="#FFCA41" stroke="black" stroke-width="3"/>
<path fill-rule="evenodd" clip-rule="evenodd" d="M22.3743 36.2881C22.3743 35.7358 22.822 35.2881 23.3743 35.2881H35.1914C37.008 35.2881 39.4491 35.9946 41.4692 37.7422C43.5898 39.5767 45.1107 42.4413 45.1107 46.4223C45.1107 54.4274 39.0202 57.8529 35.0762 57.5564H27.724V64.7117C27.724 66.189 26.5264 67.3866 25.0491 67.3866C23.5719 67.3866 22.3743 66.189 22.3743 64.7117V36.2881ZM27.724 52.2067H35.3268L35.4616 52.2204C36.3541 52.311 39.761 51.2578 39.761 46.4223C39.761 43.93 38.8671 42.5649 37.9691 41.7881C36.9707 40.9244 35.7896 40.6378 35.1914 40.6378H27.724V52.2067Z" fill="white"/>
<path d="M90.5 50V76C90.5 78.2091 88.7091 80 86.5 80H75" stroke="black" stroke-width="2" stroke-linecap="round"/>
<path d="M70 80H67" stroke="black" stroke-width="2" stroke-linecap="round"/>
</svg>
