<svg width="130" height="100" viewBox="0 0 130 100" fill="none" xmlns="http://www.w3.org/2000/svg">
<path d="M60.4515 71.5357V64.8589H49.9351H49.4093H38.8929V71.5357C38.8929 75.1887 36.1548 78.1932 32.6279 78.6298V78.6876H49.4093H49.9351H66.7165V78.6298C63.1896 78.1932 60.4515 75.1823 60.4515 71.5357Z" fill="#D8DBD7" stroke="#010200" stroke-width="3"/>
<path d="M96.0469 65.732C96.0469 67.6644 94.4822 69.2309 92.5521 69.2309H6.79849C4.86834 69.2309 3.30371 67.6644 3.30371 65.732V18.3651C3.30371 16.4263 4.86834 14.8662 6.79849 14.8662H92.5457C94.4758 14.8662 96.0405 16.4327 96.0405 18.3651V65.732H96.0469Z" fill="#D8DBD7" stroke="#010200" stroke-width="3"/>
<path d="M96.0469 56.8658C96.0469 58.7982 94.4822 60.3647 92.5521 60.3647H6.79849C4.86834 60.3647 3.30371 58.7982 3.30371 56.8658V9.49892C3.30371 7.56649 4.86834 6 6.79849 6H92.5457C94.4758 6 96.0405 7.56649 96.0405 9.49892V56.8658H96.0469Z" fill="white" stroke="black" stroke-width="3" stroke-linecap="round" stroke-linejoin="round"/>
<path d="M72.8468 81.5829C72.8468 82.7193 71.9234 83.6438 70.7884 83.6438H28.556C27.421 83.6438 26.4912 82.7193 26.4912 81.5829V80.7483C26.4912 79.6056 27.4146 78.6875 28.556 78.6875H70.7884C71.9234 78.6875 72.8468 79.612 72.8468 80.7483V81.5829Z" fill="#D8DBD7" stroke="#010200" stroke-width="3"/>
<path d="M58.0967 13.9268H10.0996V32.9024H58.0967V13.9268Z" fill="#FFCA41"/>
<path d="M89.3506 13.9268H62.5615V32.9024H89.3506V13.9268Z" fill="#FFCA41"/>
<path d="M89.3506 37.3672H73.7236V51.8779H89.3506V37.3672Z" fill="#FFCA41"/>
<path d="M68.1426 37.3672H52.5156V51.8779H68.1426V37.3672Z" fill="#FFCA41"/>
<path d="M46.9346 37.3672H31.3076V51.8779H46.9346V37.3672Z" fill="#FFCA41"/>
<path d="M25.7266 37.3672H10.0996V51.8779H25.7266V37.3672Z" fill="#FFCA41"/>
<path d="M89.3506 52.9941H73.7236V55.2266H89.3506V52.9941Z" fill="#FFCA41"/>
<path d="M68.1426 52.9941H52.5156V55.2266H68.1426V52.9941Z" fill="#FFCA41"/>
<path d="M46.9346 52.9941H31.3076V55.2266H46.9346V52.9941Z" fill="#FFCA41"/>
<path d="M25.7266 52.9941H10.0996V55.2266H25.7266V52.9941Z" fill="#FFCA41"/>
</svg>
