<svg width="130" height="100" viewBox="0 0 130 100" fill="none" xmlns="http://www.w3.org/2000/svg">
<g clip-path="url(#clip0_388_1555)">
<path d="M17.4636 36.3866L38.7087 27.3326L20.2451 13.4607L17.4636 36.3866ZM28.4464 24.9588C32.5978 21.8914 37.5547 20.1032 42.7082 19.8137L42.4839 15.82C36.5525 16.1532 30.8474 18.2113 26.0694 21.7417L28.4464 24.9588ZM42.7082 19.8137C47.8618 19.5243 52.9877 20.7462 57.4565 23.3294L59.4583 19.8664C54.315 16.8932 48.4154 15.4869 42.4839 15.82L42.7082 19.8137ZM57.4565 23.3294C61.9252 25.9126 65.5423 29.7447 67.8635 34.355L71.4362 32.5562C68.7647 27.25 64.6016 22.8395 59.4583 19.8664L57.4565 23.3294Z" fill="#939393"/>
<path d="M45.3327 85.5594L26.1066 72.7652L24.6396 95.8126L45.3327 85.5594ZM29.7526 82.6474C24.9104 80.8596 20.6958 77.6966 17.6262 73.5468L14.4103 75.9256C17.9433 80.7017 22.7941 84.3422 28.3672 86.3998L29.7526 82.6474ZM17.6262 73.5468C14.5566 69.3971 12.7657 64.4412 12.4735 59.2878L8.47996 59.5142C8.81626 65.4455 10.8774 71.1494 14.4103 75.9256L17.6262 73.5468ZM12.4735 59.2878C12.1814 54.1344 13.4005 49.0078 15.9814 44.5376L12.5173 42.5376C9.54688 47.6825 8.14367 53.5829 8.47996 59.5142L12.4735 59.2878Z" fill="#FFCA41"/>
<path d="M69.8502 37.5376L68.3832 60.585L89.0763 50.3317L69.8502 37.5376ZM75.1184 52.4864C75.9912 57.5737 75.3593 62.8052 73.3003 67.5384L76.9683 69.1341C79.3381 63.6864 80.0653 57.6652 79.0608 51.81L75.1184 52.4864ZM73.3003 67.5384C71.2413 72.2717 67.8448 76.3005 63.5279 79.1303L65.7208 82.4756C70.6893 79.2187 74.5984 74.5817 76.9683 69.1341L73.3003 67.5384ZM63.5279 79.1303C59.211 81.96 54.1617 83.4675 49 83.4675L49 87.4675C54.9408 87.4675 60.7523 85.7325 65.7208 82.4756L63.5279 79.1303Z" fill="black"/>
</g>
<defs>
<clipPath id="clip0_388_1555">
<rect width="130" height="100" fill="white"/>
</clipPath>
</defs>
</svg>
