<svg width="130" height="100" viewBox="0 0 130 100" fill="none" xmlns="http://www.w3.org/2000/svg">
<path d="M112.447 65.0458H22.0489C20.7358 65.0458 19.6699 63.9811 19.6699 62.6668V13.379C19.6699 12.0659 20.7346 11 22.0489 11H112.447C113.76 11 114.826 12.0647 114.826 13.379V62.6668C114.826 63.9811 113.761 65.0458 112.447 65.0458Z" fill="black"/>
<path d="M109.122 62.7505H24.1036C22.7905 62.7505 21.7246 61.6858 21.7246 60.3716V15.6734C21.7246 14.3603 22.7893 13.2944 24.1036 13.2944H109.122C110.435 13.2944 111.501 14.3591 111.501 15.6734V60.3716C111.5 61.6858 110.435 62.7505 109.122 62.7505Z" fill="#DDDDDC"/>
<path d="M102.882 73.5301H12.4845C11.1713 73.5301 10.1055 72.4654 10.1055 71.1512V21.8634C10.1055 20.5502 11.1702 19.4844 12.4845 19.4844H102.882C104.196 19.4844 105.261 20.5491 105.261 21.8634V71.1512C105.261 72.4654 104.197 73.5301 102.882 73.5301Z" fill="black"/>
<path d="M99.5575 71.2349H14.5391C13.226 71.2349 12.1602 70.1702 12.1602 68.8559V24.1578C12.1602 22.8447 13.2249 21.7788 14.5391 21.7788H99.5575C100.871 21.7788 101.936 22.8435 101.936 24.1578V68.8559C101.935 70.1702 100.871 71.2349 99.5575 71.2349Z" fill="#DDDDDC"/>
<path d="M92.7769 82.015H2.37899C1.06585 82.015 0 80.9503 0 79.636V30.3482C0 29.0351 1.06471 27.9692 2.37899 27.9692H92.7769C94.0901 27.9692 95.1559 29.0339 95.1559 30.3482V79.636C95.1559 80.9503 94.0912 82.015 92.7769 82.015Z" fill="black"/>
<path d="M89.452 79.7198H4.43367C3.12054 79.7198 2.05469 78.6551 2.05469 77.3408V32.6427C2.05469 31.3295 3.11939 30.2637 4.43367 30.2637H89.452C90.7651 30.2637 91.831 31.3284 91.831 32.6427V77.3408C91.8298 78.6551 90.7651 79.7198 89.452 79.7198Z" fill="#FFCA41"/>
<path d="M86.817 47.7146H44.5333C44.1841 47.7146 43.9014 47.4318 43.9014 47.0826V43.4156C43.9014 43.0665 44.1841 42.7837 44.5333 42.7837H86.817C87.1662 42.7837 87.4489 43.0665 87.4489 43.4156V47.0826C87.4489 47.4318 87.1662 47.7146 86.817 47.7146Z" fill="white"/>
<path d="M86.817 58.2789H44.5333C44.1841 58.2789 43.9014 57.9962 43.9014 57.647V53.9801C43.9014 53.6309 44.1841 53.3481 44.5333 53.3481H86.817C87.1662 53.3481 87.4489 53.6309 87.4489 53.9801V57.647C87.4489 57.9962 87.1662 58.2789 86.817 58.2789Z" fill="white"/>
<path d="M86.817 68.4118H44.5333C44.1841 68.4118 43.9014 68.129 43.9014 67.7799V64.1129C43.9014 63.7637 44.1841 63.481 44.5333 63.481H86.817C87.1662 63.481 87.4489 63.7637 87.4489 64.1129V67.7799C87.4489 68.129 87.1662 68.4118 86.817 68.4118Z" fill="white"/>
<path d="M25.3971 51.0014H8.72588C8.26222 51.0014 7.88672 50.6259 7.88672 50.1622V36.5042C7.88672 36.0405 8.26222 35.665 8.72588 35.665H25.3971C25.8607 35.665 26.2362 36.0405 26.2362 36.5042V50.1622C26.2362 50.6259 25.8607 51.0014 25.3971 51.0014Z" fill="white"/>
</svg>
