<svg width="130" height="100" viewBox="0 0 130 100" fill="none" xmlns="http://www.w3.org/2000/svg">
<path d="M82.9834 76.1177C82.9834 76.1665 82.9834 76.2316 82.9834 76.2803C82.8208 78.5245 81.6337 80.0205 79.601 80.8824C79.2432 81.0288 79.0806 81.3052 78.9993 81.6792C78.5277 83.4843 77.6659 84.151 75.8283 84.151C69.2748 84.151 62.7051 84.151 56.1516 84.151C55.8752 84.151 55.615 84.1185 55.3386 84.151C54.9483 84.1998 54.3303 83.9559 54.3466 84.6388C54.3791 85.2893 54.9808 85.0617 55.3711 85.0942C55.8752 85.1267 56.3956 85.0779 56.9159 85.1104C57.8916 85.1755 58.8673 85.2405 59.7455 85.7284C61.1115 86.4927 62.0059 87.6147 62.2173 89.2246C62.3799 90.4118 62.4449 91.5989 62.2335 92.7697C61.9896 93.9893 61.3229 94.5097 60.087 94.5097C47.7281 94.5097 35.3692 94.5097 23.0103 94.5097C21.4817 94.5097 20.7824 93.8267 20.7337 92.3144C20.7011 91.485 20.7174 90.6394 20.7337 89.8101C20.7824 87.5172 22.2785 85.7772 24.5389 85.3056C25.6284 85.0779 26.7342 85.143 27.84 85.1104C28.7344 85.0942 28.7995 85.0291 28.8157 84.1347C28.832 83.5331 28.832 82.9476 28.8157 82.346C28.7995 81.5003 28.7182 81.419 27.8888 81.4028C26.1813 81.3865 24.4901 81.4028 22.7826 81.4028C21.3191 81.4028 19.8718 81.4028 18.4082 81.4028C17.8879 81.4028 17.3838 81.3702 16.8959 81.1588C16.2617 80.8824 15.9202 80.297 16.0015 79.679C16.0828 79.0448 16.5544 78.5895 17.2537 78.4919C17.6277 78.4431 18.0017 78.4594 18.392 78.4594C26.0838 78.4594 33.7755 78.4594 41.4673 78.4594C41.7438 78.4594 42.004 78.4431 42.2804 78.4594C42.817 78.4757 43.0772 78.2317 43.0772 77.6951C43.0772 77.1747 43.0772 76.6706 43.0772 76.1502C43.126 74.2639 43.9066 73.3044 45.7604 72.9792C46.3784 72.8654 46.4759 72.5564 46.4759 72.036C46.4597 71.4831 46.1344 71.353 45.6791 71.3693C45.4677 71.3693 45.24 71.3693 45.0286 71.3693C31.4339 71.3693 17.8228 71.3693 4.22804 71.3693C2.78075 71.3693 2.78075 71.3693 2.78075 72.7841C2.78075 73.6947 2.76449 74.6216 2.78075 75.5323C2.81327 77.0772 3.65888 78.0529 5.17122 78.3456C6.21197 78.557 7.26898 78.4594 8.32599 78.4757C8.91141 78.4919 9.51309 78.4431 10.0985 78.5082C10.7978 78.5895 11.2694 79.0286 11.3832 79.6628C11.4808 80.297 11.1067 80.9149 10.44 81.1914C10.1961 81.2889 9.91964 81.3702 9.65945 81.3702C7.8544 81.4353 6.03309 81.5166 4.2443 81.1751C1.77253 80.6873 0.0162617 78.5407 0.0162617 75.9714C-6.05795e-09 71.8734 0.0162617 67.7592 0.0162617 63.6613C0.0162617 48.1151 0.0325234 32.5689 0 17.0227C0 14.8111 0.926917 13.2012 2.81327 12.1117C3.62636 11.6401 4.52075 11.6238 5.39888 11.6076C11.871 11.5913 18.3595 11.6076 24.8316 11.6076C42.4268 11.6076 60.0219 11.6238 77.6171 11.5913C79.7961 11.5913 81.3898 12.4369 82.5118 14.2908C82.8859 14.9087 82.772 15.5917 82.9834 16.2259C82.9834 17.2992 82.9834 18.3887 82.9834 19.462C82.7883 20.6003 82.9509 21.7386 82.9021 22.8769C82.9021 23.7388 82.9021 24.6007 82.9021 25.4625C82.9021 26.3732 82.9021 27.3001 82.9021 28.2108C82.9021 29.3328 82.9021 30.4711 82.9021 31.5932C82.9021 32.5689 82.9021 33.5446 82.9021 34.5203C82.9021 35.5936 82.9021 36.6831 82.9021 37.7564C82.9021 38.8296 82.9021 39.9192 82.9021 40.9925C82.9021 41.9682 82.9021 42.9439 82.9021 43.9196C82.9021 44.944 82.9021 45.9685 82.9021 46.993C82.9021 48.1801 82.9021 49.3672 82.9021 50.5543C82.9021 51.9041 82.9021 53.2375 82.9021 54.5872C82.9021 55.5629 82.9021 56.5386 82.9021 57.5143C82.9021 58.4413 82.9021 59.3519 82.9021 60.2788C82.9021 61.2545 82.9021 62.214 82.9021 63.1897C82.9021 64.1166 82.9021 65.0272 82.9021 65.9542C82.9021 67.0274 82.9021 68.1007 82.9021 69.1902C82.9021 70.2635 82.9021 71.3368 82.9021 72.4101C82.9509 73.6134 82.8046 74.8818 82.9834 76.1177Z" fill="black"/>
<path d="M41.5164 28.1779C54.2005 28.1779 66.8846 28.1779 79.5687 28.1616C80.3005 28.1616 80.4794 28.3405 80.4794 29.0723C80.4631 42.0003 80.4631 54.9284 80.4469 67.8564C80.4469 68.1329 80.642 68.5557 80.3005 68.637C79.8452 68.7508 79.3248 68.702 78.8532 68.6207C78.6255 68.5882 78.7394 68.2467 78.7394 68.0353C78.7394 66.2791 78.7556 64.5228 78.7556 62.7665C78.7556 60.929 77.8775 59.9858 76.0725 59.9695C75.487 59.9695 75.2919 59.7744 75.3895 59.2377C75.4057 59.189 75.3895 59.1239 75.3895 59.0751C75.3895 58.5873 75.2431 58.0344 75.4383 57.6278C75.6659 57.1237 76.3164 57.4815 76.7555 57.3676C77.8775 57.1075 78.7069 56.2944 78.7394 55.1235C78.7882 53.1071 78.7882 51.0744 78.7394 49.0579C78.7069 47.7245 77.7312 46.7813 76.3977 46.765C74.1536 46.7325 71.9257 46.7488 69.6816 46.7488C68.836 46.7488 68.3319 47.2203 68.3156 47.9196C68.2994 48.6351 68.836 49.1555 69.7141 49.1555C71.7143 49.1718 73.7145 49.1718 75.6984 49.1555C76.17 49.1555 76.3489 49.2368 76.3489 49.7572C76.3164 51.302 76.3164 52.8306 76.3489 54.3755C76.3652 54.8959 76.1863 54.9934 75.6984 54.9934C65.9252 54.9772 56.1519 54.9772 46.3949 54.9934C45.907 54.9934 45.7444 54.8633 45.7607 54.3592C45.7932 52.8794 45.8094 51.3833 45.7607 49.9035C45.7444 49.2856 45.9233 49.1392 46.525 49.1555C51.4685 49.188 56.3958 49.1717 61.3394 49.1717C61.6646 49.1717 61.9898 49.1555 62.2988 49.0742C62.9167 48.9278 63.1932 48.4562 63.1607 47.8708C63.1282 47.2854 62.7867 46.8626 62.1687 46.7813C61.9248 46.7488 61.6809 46.7488 61.4369 46.7488C56.3633 46.7488 51.2896 46.7488 46.216 46.7488C44.2321 46.7488 43.3539 47.6269 43.3539 49.6108C43.3539 51.2858 43.3539 52.9607 43.3539 54.6357C43.3702 56.4407 44.2646 57.4002 46.0859 57.4002C46.6388 57.4002 46.8014 57.579 46.7201 58.0832C46.7038 58.2133 46.7201 58.3596 46.7201 58.4897C46.7038 58.945 46.8502 59.4979 46.6388 59.8394C46.4436 60.1809 45.842 59.9207 45.4354 60.002C44.1345 60.246 43.3702 61.1404 43.3702 62.5877C43.3702 64.3927 43.3865 66.1977 43.4352 68.0191C43.4515 68.5557 43.2889 68.6858 42.7685 68.6858C29.564 68.6695 16.3758 68.6695 3.17127 68.6858C2.6509 68.6858 2.50454 68.5557 2.50454 68.0191C2.5208 54.9609 2.5208 41.9028 2.48828 28.8284C2.48828 28.0966 2.82978 28.1616 3.30137 28.1616C16.0343 28.1779 28.7834 28.1779 41.5164 28.1779Z" fill="#DDDDDC"/>
<path d="M82.8535 54.5872C82.8535 53.2375 82.8535 51.8878 82.8535 50.538C82.9023 50.4567 82.9511 50.4567 82.9836 50.538C82.9836 51.8878 82.9836 53.2375 82.9836 54.5872C82.9511 54.6522 82.9023 54.6522 82.8535 54.5872Z" fill="#565656"/>
<path d="M82.9842 76.1179C82.6264 75.7439 82.8541 75.2723 82.8378 74.8495C82.8053 74.0364 82.8378 73.2071 82.8541 72.394C82.9029 72.3127 82.9354 72.3127 82.9842 72.394C82.9842 73.6461 82.9842 74.882 82.9842 76.1179Z" fill="#8B8B8B"/>
<path d="M82.9836 50.5378C82.9348 50.5378 82.886 50.5378 82.8535 50.5378C82.8535 49.3507 82.8535 48.1636 82.8535 46.9765C82.9023 46.8952 82.9511 46.8952 82.9999 46.9765C82.9836 48.1636 82.9836 49.3507 82.9836 50.5378Z" fill="#4D4D4D"/>
<path d="M82.8379 31.5935C82.8379 30.4551 82.8379 29.3331 82.8379 28.1948C82.8867 28.1135 82.9355 28.1135 83.0005 28.1948C83.0005 29.3331 83.0005 30.4551 83.0005 31.5935C82.9355 31.6585 82.8867 31.6585 82.8379 31.5935Z" fill="#1F1F1F"/>
<path d="M82.8372 22.844C82.8372 21.9659 82.8372 21.0715 82.8372 20.1934C82.8372 19.9332 82.7559 19.6567 82.9998 19.4453C82.9998 20.5836 82.9998 21.7057 82.9998 22.844C82.9348 22.9091 82.886 22.9091 82.8372 22.844Z" fill="#0B0B0B"/>
<path d="M82.8535 40.9763C82.8535 39.903 82.8535 38.8135 82.8535 37.7402C82.9023 37.6589 82.9511 37.6589 82.9999 37.7402C82.9999 38.8135 82.9999 39.903 82.9999 40.9763C82.9511 41.0576 82.9023 41.0576 82.8535 40.9763Z" fill="#363636"/>
<path d="M82.9842 37.7399C82.9355 37.7399 82.8867 37.7399 82.8379 37.7399C82.8379 36.6667 82.8379 35.5771 82.8379 34.5039C82.8867 34.4225 82.9355 34.4225 82.9842 34.5039C82.9842 35.5771 82.9842 36.6667 82.9842 37.7399Z" fill="#2E2E2E"/>
<path d="M82.8535 69.1578C82.8535 68.0846 82.8535 66.995 82.8535 65.9218C82.9023 65.8567 82.9348 65.8404 82.9836 65.9218C82.9836 66.995 82.9836 68.0846 82.9836 69.1578C82.9511 69.2391 82.9023 69.2229 82.8535 69.1578Z" fill="#7B7B7B"/>
<path d="M82.8535 69.1577C82.9023 69.1577 82.9511 69.1577 82.9836 69.1577C82.9836 70.231 82.9836 71.3205 82.9836 72.3938C82.9348 72.3938 82.886 72.3938 82.8535 72.3938C82.8535 71.3205 82.8535 70.2472 82.8535 69.1577Z" fill="#838383"/>
<path d="M82.9842 46.9767C82.9355 46.9767 82.8867 46.9767 82.8379 46.9767C82.8379 45.9522 82.8379 44.9278 82.8379 43.9033C82.8867 43.822 82.9355 43.822 82.9842 43.9033C82.9842 44.9278 82.9842 45.9522 82.9842 46.9767Z" fill="#454545"/>
<path d="M82.8535 54.5869C82.9023 54.5869 82.9511 54.5869 82.9836 54.5869C82.9836 55.5626 82.9836 56.5383 82.9836 57.4978C82.9348 57.5791 82.9023 57.5628 82.8535 57.4978C82.8535 56.5221 82.8535 55.5626 82.8535 54.5869Z" fill="#606060"/>
<path d="M82.9842 43.903C82.9355 43.903 82.8867 43.903 82.8379 43.903C82.8379 42.9273 82.8379 41.9516 82.8379 40.9922C82.8867 40.9922 82.9355 40.9922 82.9842 40.9922C82.9842 41.9516 82.9842 42.9273 82.9842 43.903Z" fill="#3D3D3D"/>
<path d="M82.8535 63.1735C82.8535 62.1978 82.8535 61.2383 82.8535 60.2626C82.9023 60.1813 82.9348 60.1813 82.9836 60.2626C82.9836 61.2383 82.9836 62.214 82.9836 63.1735C82.9511 63.2385 82.9023 63.2385 82.8535 63.1735Z" fill="#6C6C6C"/>
<path d="M82.9842 34.5041C82.9355 34.5041 82.8867 34.5041 82.8379 34.5041C82.8379 33.5284 82.8379 32.5527 82.8379 31.5933C82.8867 31.5933 82.9355 31.5933 82.9842 31.5933C82.9842 32.5527 82.9842 33.5284 82.9842 34.5041Z" fill="#272727"/>
<path d="M82.9836 60.2463C82.9348 60.2463 82.886 60.2463 82.8535 60.2463C82.8535 59.3356 82.8535 58.4087 82.8535 57.498C82.9023 57.498 82.9511 57.498 82.9836 57.498C82.9836 58.4087 82.9836 59.3356 82.9836 60.2463Z" fill="#666666"/>
<path d="M82.8535 63.1733C82.9023 63.1733 82.9511 63.1733 82.9836 63.1733C82.9836 64.084 82.9836 65.0109 82.9836 65.9216C82.9348 65.9216 82.886 65.9216 82.8535 65.9216C82.8535 65.0109 82.8535 64.084 82.8535 63.1733Z" fill="#747474"/>
<path d="M82.9829 28.1945C82.9341 28.1945 82.8854 28.1945 82.8203 28.1945C82.8203 27.2838 82.8203 26.3569 82.8203 25.4462C82.8691 25.3649 82.9179 25.3649 82.9829 25.4462C82.9829 26.3569 82.9829 27.2675 82.9829 28.1945Z" fill="#171717"/>
<path d="M82.9829 25.4298C82.9341 25.4298 82.8691 25.4298 82.8203 25.4298C82.8203 24.568 82.8203 23.7061 82.8203 22.8442C82.8691 22.8442 82.9341 22.8442 82.9829 22.8442C82.9829 23.7061 82.9829 24.568 82.9829 25.4298Z" fill="#111111"/>
<path d="M41.5485 25.7553C28.8644 25.7553 16.1803 25.7553 3.49613 25.7716C2.76436 25.7716 2.55296 25.609 2.56922 24.8609C2.618 22.4054 2.58548 19.9499 2.58548 17.4944C2.58548 15.2178 3.70754 14.0957 5.95165 14.0957C29.6775 14.0957 53.4033 14.0957 77.1128 14.0957C79.3082 14.0957 80.4302 15.2178 80.4465 17.4456C80.4465 19.9337 80.414 22.4054 80.4627 24.8935C80.479 25.5927 80.3164 25.7716 79.5846 25.7716C66.9167 25.7391 54.2326 25.7553 41.5485 25.7553Z" fill="#FEFEFE"/>
<path d="M41.4667 92.0706C35.6938 92.0706 29.9209 92.0544 24.148 92.0869C23.5138 92.0869 23.2861 91.9243 23.3674 91.2901C23.4162 90.8835 23.3674 90.477 23.3837 90.0704C23.3999 88.6882 24.1967 87.8588 25.579 87.8426C27.2214 87.8101 28.8638 87.8426 30.5063 87.8426C39.3039 87.8426 48.0852 87.8426 56.8827 87.8426C58.8992 87.8426 59.631 88.5581 59.631 90.542C59.631 92.0706 59.631 92.0706 58.1349 92.0706C52.5734 92.0706 47.0119 92.0706 41.4667 92.0706Z" fill="#DDDDDC"/>
<path d="M61.0957 75.6461C65.9255 75.6461 70.7552 75.6624 75.5686 75.6299C76.2029 75.6299 76.3655 75.7925 76.3492 76.4267C76.3004 77.874 76.3167 79.3376 76.3492 80.8011C76.3655 81.289 76.2842 81.5004 75.715 81.5004C65.958 81.4841 56.201 81.4841 46.4277 81.5004C45.8911 81.5004 45.7447 81.3703 45.761 80.8336C45.7935 79.3213 45.8097 77.809 45.761 76.2966C45.7447 75.7275 45.9561 75.6461 46.4602 75.6461C51.3387 75.6461 56.2172 75.6461 61.0957 75.6461Z" fill="#FFCA41"/>
<path d="M61.0459 68.2149C56.2162 68.2149 51.3864 68.1987 46.5567 68.2312C45.9388 68.2312 45.7274 68.1011 45.7436 67.4344C45.7924 66.0359 45.7924 64.6211 45.7436 63.2226C45.7111 62.5559 45.9062 62.377 46.5892 62.377C53.9721 62.4095 61.3711 62.3932 68.7539 62.3932C71.0468 62.3932 73.3397 62.4095 75.6326 62.377C76.2018 62.3607 76.3481 62.5396 76.3481 63.0925C76.3156 64.556 76.2994 66.0033 76.3481 67.4669C76.3644 68.0686 76.2181 68.2312 75.6001 68.2149C70.7541 68.1987 65.9081 68.2149 61.0459 68.2149Z" fill="#FFCA41"/>
<path d="M61.0469 55.0587C56.223 55.0587 51.3991 55.042 46.5753 55.0754C45.9581 55.0754 45.7469 54.9417 45.7632 54.2566C45.8119 52.8195 45.8119 51.3657 45.7632 49.9286C45.7307 49.2434 45.9256 49.0596 46.6077 49.0596C53.9816 49.093 61.3717 49.0763 68.7456 49.0763C71.0357 49.0763 73.3258 49.093 75.6159 49.0596C76.1844 49.0429 76.3306 49.2267 76.3306 49.7949C76.2981 51.2988 76.2818 52.7861 76.3306 54.29C76.3468 54.9083 76.2006 55.0754 75.5834 55.0587C70.7433 55.042 65.9032 55.0587 61.0469 55.0587Z" fill="#FFCA41"/>
<path d="M41.4515 85.4031C38.378 85.4031 35.3045 85.3868 32.2311 85.4193C31.5643 85.4356 31.4343 85.2242 31.4505 84.6062C31.4993 83.6143 31.483 82.606 31.4505 81.6141C31.4505 81.2238 31.4993 81.0449 31.9709 81.0449C35.581 81.0612 39.1911 81.0612 42.8012 81.0449C43.2402 81.0449 43.3053 81.2075 43.3703 81.5978C43.5817 83.1102 44.4599 83.8582 46.0047 83.8745C47.6472 83.8907 49.2896 83.907 50.932 83.8582C51.5825 83.8419 51.5337 84.1672 51.5337 84.6062C51.5337 85.0453 51.615 85.4193 50.9158 85.4193C47.761 85.3868 44.6062 85.4031 41.4515 85.4031Z" fill="#DDDDDC"/>
<path d="M61.0618 73.2066C57.3379 73.2066 53.614 73.1903 49.9063 73.2228C49.3534 73.2228 49.1095 73.174 49.1258 72.5073C49.1745 70.6535 49.142 70.6535 51.0284 70.6535C58.0372 70.6535 65.046 70.6697 72.0548 70.6372C72.754 70.6372 73.0305 70.751 72.9979 71.5316C72.9329 73.2066 72.9817 73.2066 71.3392 73.2066C67.908 73.2066 64.4768 73.2066 61.0618 73.2066Z" fill="#FFCA41"/>
<path d="M61.0459 59.9694C57.2895 59.9694 53.5493 59.9532 49.7928 59.9857C49.2724 59.9857 49.1098 59.8719 49.1261 59.3352C49.1424 57.4489 49.1098 57.4489 50.9962 57.4489C58.07 57.4489 65.1276 57.4489 72.2014 57.4326C72.8194 57.4326 73.0145 57.5627 72.9983 58.2132C72.9495 59.9694 72.982 59.9694 71.242 59.9694C67.8433 59.9694 64.4446 59.9694 61.0459 59.9694Z" fill="#FFCA41"/>
<path d="M78.7716 78.3455C78.7716 77.4023 78.7878 76.5893 78.7716 75.7924C78.7553 74.1988 77.7796 73.2068 76.2022 73.2393C75.4867 73.2556 75.3078 73.0117 75.4054 72.3775C75.4379 72.1661 75.4379 71.9384 75.4054 71.727C75.3241 71.2066 75.5518 71.0928 76.0396 71.1091C77.308 71.1416 78.5764 71.1416 79.8286 71.1091C80.3002 71.0928 80.4953 71.1904 80.4791 71.7107C80.4303 73.158 80.4628 74.6216 80.3978 76.0689C80.349 77.0771 79.7798 77.7926 78.7716 78.3455Z" fill="#FEFEFE"/>
<path d="M49.6964 38.1954C45.7123 38.1954 41.7119 38.1954 37.7278 38.1954C37.5164 38.1954 37.2887 38.2116 37.0773 38.1954C36.2642 38.1303 35.7439 37.6262 35.7601 36.9432C35.7764 36.244 36.2968 35.7886 37.1424 35.7724C39.7117 35.7561 42.2648 35.7724 44.8342 35.7724C50.4932 35.7724 56.1523 35.7724 61.8276 35.7724C62.1203 35.7724 62.4293 35.7561 62.722 35.8049C63.34 35.9025 63.6977 36.2765 63.7303 36.8944C63.779 37.4961 63.4863 37.9514 62.8846 38.114C62.5757 38.1954 62.2504 38.2116 61.9252 38.2116C57.8273 38.1954 53.7618 38.1954 49.6964 38.1954Z" fill="white"/>
<path d="M27.2881 46.944C29.6135 46.944 31.9227 46.944 34.2481 46.944C34.8498 46.944 35.3051 47.1879 35.5002 47.7734C35.6628 48.2287 35.549 48.684 35.175 49.0255C34.8335 49.3345 34.3944 49.367 33.9554 49.367C32.4755 49.367 30.9795 49.367 29.4997 49.367C26.5563 49.367 23.6129 49.367 20.6696 49.367C20.4256 49.367 20.1817 49.3833 19.9378 49.3507C19.2385 49.2532 18.7995 48.8791 18.7832 48.1311C18.7832 47.4319 19.2548 46.9765 20.0516 46.9603C21.5314 46.9277 23.0112 46.944 24.5073 46.944C25.4505 46.944 26.3612 46.944 27.2881 46.944Z" fill="white"/>
<path d="M10.4082 32.2277C10.9936 32.2277 11.3676 32.4879 11.579 32.927C11.8067 33.4311 11.6928 33.8864 11.3351 34.2767C10.5708 35.0735 9.82275 35.9029 8.9934 36.6184C8.42424 37.1225 8.52181 37.3989 9.02593 37.8543C9.79023 38.5373 10.4895 39.2853 11.205 40.0171C11.8229 40.6675 11.8717 41.3505 11.3351 41.8709C10.8147 42.3913 10.1317 42.3425 9.48125 41.7083C8.31041 40.5537 7.13957 39.3991 5.98499 38.212C5.31826 37.529 5.302 36.9111 5.95247 36.2281C7.12331 35.0247 8.31041 33.8539 9.49752 32.683C9.7577 32.4229 10.0667 32.1952 10.4082 32.2277Z" fill="white"/>
<path d="M35.0271 59.563C33.3521 59.563 31.6772 59.563 30.0185 59.563C29.2867 59.563 28.6687 59.3516 28.5061 58.5223C28.3435 57.7417 28.9127 57.14 29.8559 57.14C32.0674 57.1238 34.279 57.14 36.4906 57.14C37.6777 57.14 38.8648 57.1238 40.0519 57.14C41.0276 57.1563 41.548 57.5791 41.5318 58.3434C41.5318 59.1077 41.0114 59.5468 40.0357 59.563C38.377 59.5793 36.702 59.563 35.0271 59.563Z" fill="white"/>
<path d="M24.556 37.2036C24.5885 37.6427 24.3446 37.9679 24.0519 38.2607C22.9136 39.399 21.7752 40.5536 20.6207 41.6756C19.9377 42.3423 19.2384 42.3911 18.7018 41.8545C18.1814 41.3179 18.2464 40.6349 18.9294 39.9356C19.6612 39.1876 20.393 38.4233 21.1573 37.7078C21.5638 37.3337 21.6126 37.1223 21.1736 36.7158C20.3767 36.0003 19.6287 35.2197 18.8807 34.4392C18.2139 33.7562 18.1814 33.0569 18.7343 32.5365C19.2547 32.0324 19.9377 32.0975 20.5881 32.7317C21.759 33.8863 22.9136 35.0571 24.0681 36.2117C24.3608 36.4881 24.5885 36.7971 24.556 37.2036Z" fill="white"/>
<path d="M20.2444 54.4576C18.6345 54.4576 17.0083 54.4576 15.3984 54.4576C14.439 54.4576 13.9023 54.0022 13.9023 53.2542C13.9023 52.5224 14.4552 52.0346 15.4147 52.0346C18.667 52.0183 21.9356 52.0346 25.188 52.0346C25.3506 52.0346 25.5132 52.0508 25.6758 52.0834C26.3588 52.2135 26.7166 52.62 26.7166 53.303C26.7166 53.9535 26.245 54.4413 25.5132 54.4413C23.7569 54.4738 22.0007 54.4576 20.2444 54.4576Z" fill="white"/>
<path d="M53.4362 43.5458C51.7938 43.5458 50.1514 43.5621 48.5089 43.5458C47.4357 43.5295 46.8665 42.7815 47.1755 41.9359C47.3706 41.383 47.7934 41.1391 48.3626 41.1391C51.7613 41.1391 55.16 41.1228 58.5587 41.1391C59.3392 41.1391 59.8271 41.6269 59.8434 42.2936C59.8596 43.0254 59.3392 43.5295 58.4611 43.5458C56.7699 43.5621 55.1112 43.5458 53.4362 43.5458Z" fill="white"/>
<path d="M32.5074 41.1225C33.8571 41.1225 35.2069 41.1062 36.5403 41.1225C37.451 41.1225 37.9713 41.5615 37.9876 42.277C38.0039 43.0413 37.4835 43.5292 36.5403 43.5292C33.8246 43.5455 31.1089 43.5455 28.3769 43.5292C27.4338 43.5292 26.8809 43.0413 26.8809 42.3096C26.8809 41.5615 27.4175 41.1225 28.3769 41.1225C29.7592 41.1062 31.1252 41.1225 32.5074 41.1225Z" fill="white"/>
<path d="M68.9986 53.3029C67.7302 53.3029 66.4618 53.3029 65.1934 53.3029C64.299 53.3029 63.7461 52.8475 63.7298 52.1483C63.6973 51.4002 64.2665 50.8961 65.1934 50.8799C67.779 50.8636 70.3646 50.8636 72.9502 50.8799C73.8284 50.8799 74.3813 51.384 74.3813 52.0995C74.3813 52.815 73.8284 53.3029 72.9502 53.3029C71.633 53.3191 70.3158 53.3029 68.9986 53.3029Z" fill="black"/>
<path d="M17.8878 33.4472C17.8228 33.6586 17.774 33.9188 17.6764 34.1789C16.7658 36.5044 15.8551 38.8298 14.9444 41.1552C14.5704 42.0821 14.0013 42.4074 13.302 42.1472C12.554 41.8707 12.3263 41.2203 12.7003 40.2771C13.6272 37.9029 14.5542 35.5287 15.4973 33.1545C15.7575 32.504 16.1966 32.13 16.9284 32.2601C17.5138 32.3576 17.774 32.813 17.8878 33.4472Z" fill="white"/>
<path d="M11.4311 46.9442C12.732 46.9442 14.0167 46.928 15.3177 46.9442C16.1958 46.9605 16.7487 47.4321 16.7487 48.1313C16.7487 48.8469 16.212 49.351 15.3339 49.351C12.7483 49.3672 10.1627 49.3672 7.56082 49.351C6.66643 49.351 6.16232 48.8469 6.19484 48.0988C6.2111 47.3508 6.69895 46.9442 7.64213 46.9442C8.89428 46.928 10.1627 46.9442 11.4311 46.9442Z" fill="white"/>
<path d="M21.4669 59.5632C20.3123 59.5632 19.1414 59.5632 17.9869 59.5632C17.7429 59.5632 17.499 59.5632 17.2551 59.5307C16.5721 59.4331 16.1981 59.0103 16.1656 58.3273C16.133 57.6931 16.6371 57.1565 17.3527 57.1565C20.0846 57.1402 22.8003 57.1239 25.5323 57.1565C26.2641 57.1565 26.7357 57.6606 26.7519 58.3111C26.7682 58.9778 26.2315 59.5307 25.4347 59.5469C24.1013 59.5795 22.7841 59.5632 21.4669 59.5632Z" fill="white"/>
<path d="M10.6029 57.1403C11.5786 57.1403 12.538 57.124 13.5137 57.1403C14.3268 57.1565 14.7984 57.5794 14.8309 58.2623C14.8634 58.9779 14.4081 59.5145 13.5625 59.5308C11.5135 59.5633 9.46455 59.5633 7.41558 59.5308C6.61875 59.5145 6.17969 58.9941 6.17969 58.3111C6.19595 57.5793 6.66754 57.1403 7.52941 57.124C8.5539 57.124 9.57838 57.1403 10.6029 57.1403Z" fill="white"/>
<path d="M51.8581 53.3024C50.9474 53.3024 50.0368 53.3186 49.1098 53.3024C48.2805 53.2861 47.7601 52.8308 47.7601 52.1153C47.7439 51.4323 48.2805 50.8956 49.0773 50.8794C50.9637 50.8468 52.85 50.8468 54.7201 50.8794C55.5332 50.8956 56.0048 51.4323 55.9723 52.1478C55.9398 52.8308 55.4682 53.2698 54.6713 53.2861C53.7444 53.3186 52.8013 53.3024 51.8581 53.3024Z" fill="black"/>
<path d="M30.1657 38.1954C29.5478 38.1954 28.9298 38.2117 28.3119 38.1954C27.4338 38.1629 26.8971 37.6913 26.8809 36.9758C26.8809 36.244 27.4012 35.7725 28.2956 35.7725C29.564 35.7562 30.8325 35.7562 32.0846 35.7725C32.9465 35.7887 33.4343 36.2115 33.4506 36.927C33.4831 37.6751 32.979 38.1629 32.1009 38.1954C31.4504 38.228 30.7999 38.1954 30.1657 38.1954Z" fill="white"/>
<path d="M37.9231 54.457C37.2564 54.457 36.5734 54.4732 35.9067 54.457C35.2237 54.4407 34.8009 54.083 34.7196 53.3837C34.6383 52.7007 35.0286 52.1641 35.7441 52.099C37.1588 51.9689 38.5899 51.9689 40.0046 52.099C40.7364 52.1641 41.1267 52.717 41.0291 53.3837C40.9478 54.0667 40.525 54.4082 39.842 54.457C39.7932 54.457 39.7282 54.457 39.6794 54.457C39.1103 54.457 38.5086 54.457 37.9231 54.457Z" fill="white"/>
<path d="M42.6377 41.1227C43.2231 41.1227 43.8248 41.1064 44.4102 41.1227C45.0932 41.1552 45.516 41.5455 45.5648 42.2285C45.6136 42.9278 45.2396 43.3993 44.5566 43.4644C43.2719 43.5945 41.971 43.5782 40.6863 43.4807C40.0033 43.4319 39.6456 42.944 39.6293 42.261C39.613 41.6106 40.1171 41.1552 40.8489 41.1064C41.4506 41.1064 42.0523 41.1227 42.6377 41.1227Z" fill="white"/>
<path d="M9.05805 54.4572C8.48889 54.4572 7.91973 54.4734 7.36683 54.4572C6.68384 54.4246 6.24478 54.0669 6.19599 53.3676C6.14721 52.6684 6.4887 52.1968 7.17169 52.1155C8.45637 51.9854 9.7573 51.9691 11.042 52.1155C11.725 52.1968 12.0827 52.7009 12.0177 53.3676C11.9526 54.0344 11.5298 54.4409 10.8306 54.4572C10.2452 54.4572 9.65973 54.4572 9.05805 54.4572Z" fill="white"/>
<path d="M30.9291 54.4248C30.5225 54.4248 30.116 54.4735 29.7257 54.4085C29.1565 54.3272 28.815 53.9532 28.75 53.384C28.6849 52.7823 28.9451 52.2945 29.5306 52.1481C30.4737 51.9205 31.4494 51.9367 32.4089 52.1319C33.0106 52.262 33.287 52.7498 33.2382 53.3515C33.1894 53.9369 32.8479 54.3597 32.2137 54.4085C31.7909 54.4573 31.3519 54.4248 30.9291 54.4248Z" fill="white"/>
<path d="M59.8771 53.2866C59.5356 53.2866 59.1778 53.3191 58.8363 53.2866C58.1859 53.2215 57.7956 52.8475 57.7468 52.197C57.698 51.5466 58.0395 51.0913 58.6574 50.9612C59.4543 50.7985 60.2674 50.8148 61.0642 50.9449C61.6984 51.0587 62.0399 51.5141 61.9911 52.1645C61.9423 52.8475 61.5358 53.2378 60.8528 53.2866C60.5275 53.3191 60.2023 53.3028 59.8771 53.2866Z" fill="#010101"/>
<path d="M18.1314 16.3394C20.0828 16.3556 21.6602 17.9493 21.644 19.9169C21.6277 21.8521 19.9853 23.4782 18.0664 23.4457C16.1312 23.4132 14.5051 21.7545 14.5376 19.8519C14.5539 17.9167 16.18 16.3394 18.1314 16.3394Z" fill="#939393"/>
<path d="M12.5703 19.9333C12.5541 21.8847 10.8954 23.4946 8.9765 23.4458C7.02509 23.3971 5.41519 21.7384 5.46397 19.8357C5.51276 17.8843 7.12266 16.3232 9.07407 16.3395C11.0417 16.372 12.5866 17.9657 12.5703 19.9333Z" fill="#939393"/>
<path d="M30.7022 19.9007C30.7022 21.8521 29.076 23.462 27.1409 23.4457C25.2057 23.4295 23.5796 21.787 23.5958 19.8681C23.6121 17.933 25.222 16.3394 27.1734 16.3394C29.1411 16.3556 30.7022 17.933 30.7022 19.9007Z" fill="#939393"/>
<path d="M68.9987 79.7602C67.7303 79.7602 66.4618 79.7765 65.1934 79.7602C64.2502 79.744 63.6974 79.2561 63.7299 78.5243C63.7461 77.8251 64.2828 77.3535 65.1934 77.3535C67.779 77.3372 70.3646 77.3372 72.9503 77.3535C73.8447 77.3535 74.3813 77.8576 74.3813 78.5569C74.3813 79.2561 73.8447 79.744 72.9503 79.7602C71.6331 79.7765 70.3159 79.7602 68.9987 79.7602Z" fill="#010101"/>
<path d="M51.8743 79.7602C50.9637 79.7602 50.053 79.7765 49.1261 79.7602C48.2805 79.7277 47.7764 79.2886 47.7601 78.5894C47.7439 77.8739 48.2642 77.3698 49.1424 77.3535C50.9637 77.321 52.8013 77.321 54.6226 77.3535C55.4844 77.3698 55.956 77.8088 55.9723 78.5243C55.9886 79.2724 55.517 79.7277 54.6063 79.7602C53.6957 79.7765 52.785 79.7602 51.8743 79.7602Z" fill="#010101"/>
<path d="M59.8263 79.7762C59.4685 79.7436 59.0457 79.7599 58.6554 79.6948C58.0537 79.581 57.7285 79.1582 57.7285 78.5565C57.7285 77.9548 58.0537 77.532 58.6554 77.4182C59.4197 77.2881 60.2166 77.3044 60.9809 77.4019C61.6476 77.4833 61.9728 77.9223 61.9728 78.5565C61.9728 79.207 61.6313 79.6298 60.9809 79.7111C60.6068 79.7599 60.2328 79.7599 59.8263 79.7762Z" fill="black"/>
<path d="M69.0637 64.1168C70.3646 64.1168 71.6493 64.1006 72.9503 64.1168C73.8284 64.1168 74.3813 64.6047 74.3813 65.304C74.3813 66.0195 73.8447 66.5236 72.9503 66.5236C70.3321 66.5398 67.714 66.5398 65.1121 66.5236C64.2503 66.5236 63.6974 65.9869 63.7299 65.2714C63.7461 64.5559 64.299 64.1168 65.1934 64.1006C66.4781 64.1168 67.779 64.1168 69.0637 64.1168Z" fill="black"/>
<path d="M51.9221 64.1166C52.8328 64.1166 53.7434 64.1003 54.6703 64.1166C55.4672 64.1329 55.9388 64.5557 55.9875 65.2387C56.0363 65.9542 55.5647 66.5071 54.7517 66.5233C52.849 66.5559 50.9302 66.5559 49.0275 66.5233C48.2795 66.5071 47.7754 65.9542 47.7754 65.3037C47.7754 64.6045 48.2958 64.1329 49.1251 64.1166C50.0358 64.1166 50.9789 64.1166 51.9221 64.1166Z" fill="black"/>
<path d="M59.7626 66.572C59.4536 66.5394 59.0471 66.5557 58.6568 66.4744C58.0226 66.328 57.6811 65.889 57.7461 65.2385C57.7949 64.588 58.1852 64.1977 58.8357 64.149C59.5024 64.1002 60.1854 64.1164 60.8521 64.149C61.5351 64.1815 61.9417 64.5718 61.9904 65.271C62.0392 65.9703 61.649 66.3931 60.9822 66.5232C60.6082 66.5719 60.2342 66.5394 59.7626 66.572Z" fill="#010101"/>
<path d="M19.2054 19.885C19.2054 20.503 18.685 21.0233 18.0833 21.0233C17.4979 21.0071 16.945 20.4379 16.9613 19.8688C16.9775 19.2996 17.4817 18.8117 18.0671 18.7955C18.7013 18.763 19.2054 19.2508 19.2054 19.885Z" fill="black"/>
<path d="M9.04102 18.7788C9.67523 18.7788 10.1468 19.2829 10.1306 19.9171C10.1143 20.5025 9.62644 21.0067 9.05728 21.0229C8.47186 21.0392 7.9027 20.4863 7.9027 19.9009C7.88644 19.2992 8.42308 18.7788 9.04102 18.7788Z" fill="black"/>
<path d="M27.1723 18.7788C27.8065 18.7788 28.2943 19.2829 28.2781 19.9171C28.2618 20.5025 27.774 21.0067 27.2048 21.0229C26.6194 21.0392 26.0502 20.4863 26.0502 19.9009C26.0177 19.2992 26.5543 18.7788 27.1723 18.7788Z" fill="black"/>
</svg>
