<svg width="130" height="100" viewBox="0 0 130 100" fill="none" xmlns="http://www.w3.org/2000/svg">
<g clip-path="url(#clip0_318_6785)">
<circle cx="52.0579" cy="50.5164" r="35.7708" fill="#DDDDDD"/>
<path d="M53.8056 20.652C53.497 20.8617 53.0942 20.8711 52.7761 20.6762C52.1878 20.3155 52.1688 19.4675 52.7404 19.0809L69.9051 7.46929C70.2099 7.26313 70.6077 7.2567 70.9189 7.45291C71.4842 7.80923 71.4983 8.62838 70.9457 9.00395L53.8056 20.652Z" fill="black"/>
<path d="M45.4033 26.3395C45.0946 26.552 44.6897 26.5628 44.3701 26.3669C43.7828 26.0069 43.7632 25.1605 44.3333 24.7738L48.5376 21.9213C48.8437 21.7136 49.2438 21.7069 49.5567 21.9042C50.1223 22.2607 50.1388 23.0794 49.5882 23.4585L45.4033 26.3395Z" fill="black"/>
<path d="M33.2399 84.6033C32.8458 84.8777 32.3263 84.8916 31.9182 84.6386C31.1817 84.1821 31.1545 83.1203 31.8666 82.6267L53.4693 67.6518C53.8585 67.382 54.3716 67.3721 54.771 67.6267C55.4783 68.0777 55.4992 69.1032 54.8107 69.5826L33.2399 84.6033Z" fill="black"/>
<path d="M22.6717 91.9324C22.2775 92.2105 21.7553 92.226 21.3453 91.9719C20.6101 91.5162 20.5823 90.4565 21.2925 89.9628L26.5952 86.2763C26.9861 86.0046 27.502 85.9943 27.9035 86.2502C28.6111 86.7015 28.6351 87.7263 27.9492 88.21L22.6717 91.9324Z" fill="black"/>
<path d="M86.4258 6.20312L61.7633 40.7616L83.678 40.8378L7.73083 92.98L44.7521 52.2888L19.9128 52.9712L86.4258 6.20312Z" fill="#FFCA41" stroke="black" stroke-width="3" stroke-linejoin="round"/>
<path d="M95.3036 83.6176C92.6341 86.643 86.7613 93.0141 84.6257 94.2955L79.8207 90.5582L80.8885 88.4227C77.8631 87.7108 71.4919 86.2871 70.2106 86.2871C68.9293 86.2871 66.8293 71.694 65.9395 64.3975L87.2952 70.2703C87.8291 73.4736 88.8969 80.0939 88.8969 80.9481C88.8969 81.8024 89.9646 80.2363 90.4985 79.3465L95.3036 83.6176Z" fill="white"/>
<path d="M89.1105 80.895L86.7881 69.2828L64.3379 63.8638L69.7569 86.314L81.3691 88.6364L89.1105 80.895Z" stroke="black" stroke-width="2" stroke-linecap="round" stroke-linejoin="round"/>
<path d="M64.3379 63.8638L76.0832 75.6091" stroke="black" stroke-width="2" stroke-linecap="round" stroke-linejoin="round"/>
<path d="M78.2724 80.8948C79.9826 80.8948 81.3689 79.5084 81.3689 77.7982C81.3689 76.088 79.9826 74.7017 78.2724 74.7017C76.5622 74.7017 75.1758 76.088 75.1758 77.7982C75.1758 79.5084 76.5622 80.8948 78.2724 80.8948Z" stroke="black" stroke-width="2" stroke-linecap="round" stroke-linejoin="round"/>
<path d="M79.8203 90.1847L90.6583 79.3467L95.3032 83.9916L84.4652 94.8296L79.8203 90.1847Z" stroke="black" stroke-width="2" stroke-linecap="round" stroke-linejoin="round"/>
</g>
<defs>
<clipPath id="clip0_318_6785">
<rect width="130" height="100" fill="white"/>
</clipPath>
</defs>
</svg>
