<svg width="130" height="100" viewBox="0 0 130 100" fill="none" xmlns="http://www.w3.org/2000/svg">
<path d="M72.1322 8.72561V85.7085C72.1322 89.1837 69.3157 92.0002 65.8417 92.0002H8.29015C8.25211 92.0002 8.21407 91.9998 8.1764 91.9991C5.59746 91.9536 3.39669 90.3551 2.46991 88.0984C2.16708 87.3618 2 86.5547 2 85.7085V8.72561C2 5.25048 4.81651 2.43359 8.29015 2.43359H65.8417C69.3157 2.43359 72.1322 5.25048 72.1322 8.72561Z" fill="black"/>
<path d="M70.4828 10.5142V83.8883C70.4828 87.2005 67.7988 89.885 64.4882 89.885H9.64458C9.60833 89.885 9.57208 89.8847 9.53618 89.8839C7.07858 89.8406 4.98137 88.3171 4.09819 86.1661C3.80961 85.4641 3.65039 84.6949 3.65039 83.8883V10.5142C3.65039 7.20192 6.33438 4.51709 9.64458 4.51709H64.4882C67.7988 4.51709 70.4828 7.20192 70.4828 10.5142Z" fill="white"/>
<path d="M9.0332 7.4209V81.4911L13.3012 85.7591H65.0974V7.4209H9.0332Z" fill="#EAEAEA"/>
<path d="M13.3016 85.7592L9.0332 81.4912H13.3016V85.7592Z" fill="#DBDBDB"/>
<path d="M24.6702 77.2338C26.9826 74.9214 26.9826 71.1723 24.6702 68.8599C22.3578 66.5475 18.6087 66.5475 16.2963 68.8599C13.9839 71.1723 13.9839 74.9214 16.2963 77.2338C18.6087 79.5462 22.3578 79.5462 24.6702 77.2338Z" fill="#939393"/>
<path d="M19.6035 76.1513L17.1387 73.481L18.2777 72.4297L19.5244 73.7805L22.6206 69.9429L23.8271 70.9163L19.6035 76.1513Z" fill="white"/>
<path d="M51.24 71.4872H31.1049C30.5362 71.4872 30.0752 71.0262 30.0752 70.4574C30.0752 69.8887 30.5362 69.4277 31.1049 69.4277H51.24C51.8088 69.4277 52.2697 69.8887 52.2697 70.4574C52.2697 71.0262 51.8084 71.4872 51.24 71.4872Z" fill="black"/>
<path d="M54.9516 76.6659H31.1049C30.5362 76.6659 30.0752 76.2049 30.0752 75.6362C30.0752 75.0674 30.5362 74.6064 31.1049 74.6064H54.9516C55.5204 74.6064 55.9813 75.0674 55.9813 75.6362C55.9809 76.2049 55.52 76.6659 54.9516 76.6659Z" fill="#939393"/>
<path d="M20.4867 61.4818C23.757 61.4818 26.408 58.8307 26.408 55.5605C26.408 52.2902 23.757 49.6392 20.4867 49.6392C17.2165 49.6392 14.5654 52.2902 14.5654 55.5605C14.5654 58.8307 17.2165 61.4818 20.4867 61.4818Z" fill="#FFCA41"/>
<path d="M19.6045 58.6645L17.1396 55.9946L18.2786 54.9429L19.5254 56.2937L22.6216 52.4561L23.8281 53.4295L19.6045 58.6645Z" fill="white"/>
<path d="M31.1049 57.1201H51.24C51.8088 57.1201 52.2697 57.5811 52.2697 58.1498C52.2697 58.7186 51.8088 59.1795 51.24 59.1795H31.1049C30.5362 59.1795 30.0752 58.7186 30.0752 58.1498C30.0752 57.5811 30.5362 57.1201 31.1049 57.1201Z" fill="#939393"/>
<path d="M31.1049 51.9414H54.9516C55.5204 51.9414 55.9813 52.4024 55.9813 52.9711C55.9813 53.5399 55.5204 54.0008 54.9516 54.0008H31.1049C30.5362 54.0008 30.0752 53.5399 30.0752 52.9711C30.0752 52.4024 30.5362 51.9414 31.1049 51.9414Z" fill="black"/>
<path d="M20.4829 62.7416C16.5233 62.7416 13.3018 59.5201 13.3018 55.5605C13.3018 51.6005 16.5233 48.3794 20.4829 48.3794C24.4429 48.3794 27.6644 51.6009 27.6644 55.5605C27.6644 59.5201 24.4429 62.7416 20.4829 62.7416ZM20.4829 48.8534C16.7847 48.8534 13.7758 51.8624 13.7758 55.5605C13.7758 59.2587 16.7847 62.2676 20.4829 62.2676C24.181 62.2676 27.19 59.2587 27.19 55.5605C27.19 51.862 24.181 48.8534 20.4829 48.8534Z" fill="black"/>
<path d="M24.6702 42.2617C26.9826 39.9493 26.9826 36.2001 24.6702 33.8878C22.3578 31.5754 18.6087 31.5754 16.2963 33.8878C13.9839 36.2001 13.9839 39.9493 16.2963 42.2617C18.6087 44.5741 22.3578 44.5741 24.6702 42.2617Z" fill="#939393"/>
<path d="M19.6045 41.1786L17.1396 38.5083L18.2786 37.4569L19.5254 38.8074L22.6216 34.9697L23.8281 35.9431L19.6045 41.1786Z" fill="white"/>
<path d="M44.967 36.5145H31.1049C30.5362 36.5145 30.0752 36.0535 30.0752 35.4848C30.0752 34.916 30.5362 34.4551 31.1049 34.4551H44.967C45.5358 34.4551 45.9967 34.916 45.9967 35.4848C45.9967 36.0535 45.5358 36.5145 44.967 36.5145Z" fill="#939393"/>
<path d="M51.24 41.6932H31.1049C30.5362 41.6932 30.0752 41.2322 30.0752 40.6635C30.0752 40.0948 30.5362 39.6338 31.1049 39.6338H51.24C51.8088 39.6338 52.2697 40.0948 52.2697 40.6635C52.2697 41.2322 51.8084 41.6932 51.24 41.6932Z" fill="black"/>
<path d="M24.6702 26.0356C26.9826 23.7232 26.9826 19.9741 24.6702 17.6617C22.3578 15.3493 18.6087 15.3493 16.2963 17.6617C13.9839 19.9741 13.9839 23.7232 16.2963 26.0356C18.6087 28.348 22.3578 28.348 24.6702 26.0356Z" fill="#939393"/>
<path d="M19.6035 24.9526L17.1387 22.2823L18.2777 21.231L19.5244 22.5818L22.6206 18.7441L23.8271 19.7175L19.6035 24.9526Z" fill="white"/>
<path d="M51.241 20.2884H31.1059C30.5371 20.2884 30.0762 19.8275 30.0762 19.2587C30.0762 18.69 30.5371 18.229 31.1059 18.229H51.241C51.8097 18.229 52.2707 18.69 52.2707 19.2587C52.2707 19.8275 51.8094 20.2884 51.241 20.2884Z" fill="black"/>
<path d="M54.9526 25.4671H31.1059C30.5371 25.4671 30.0762 25.0062 30.0762 24.4374C30.0762 23.8687 30.5371 23.4077 31.1059 23.4077H54.9526C55.5213 23.4077 55.9823 23.8687 55.9823 24.4374C55.9819 25.0062 55.521 25.4671 54.9526 25.4671Z" fill="#939393"/>
</svg>
