<svg width="130" height="100" viewBox="0 0 130 100" fill="none" xmlns="http://www.w3.org/2000/svg">
<rect x="2" y="17" width="122" height="65.0667" rx="8" fill="#EBEBEB" stroke="black" stroke-width="3"/>
<circle cx="35.8882" cy="49.5332" r="23.0444" fill="white"/>
<path d="M35.89 28.5225C32.1572 28.5225 28.4918 29.5169 25.2709 31.4035C22.0499 33.2901 19.3897 36.0007 17.5639 39.2564C15.7381 42.5122 14.8126 46.1957 14.8826 49.9278C14.9526 53.6599 16.0157 57.306 17.9624 60.491C19.909 63.676 22.6691 66.2849 25.9586 68.0493C29.248 69.8137 32.9482 70.6699 36.6783 70.5299C40.4085 70.3898 44.034 69.2586 47.1819 67.2525C50.3298 65.2464 52.8865 62.4379 54.5888 59.1159L35.89 49.5336V28.5225Z" fill="#FFCA41"/>
<rect x="69.7773" y="30.5557" width="43.3778" height="4.74444" rx="2.37222" fill="#939393"/>
<rect x="69.7773" y="41.3999" width="43.3778" height="4.74444" rx="2.37222" fill="#939393"/>
<rect x="69.7773" y="52.2446" width="43.3778" height="4.74444" rx="2.37222" fill="#939393"/>
<rect x="69.7773" y="63.0889" width="43.3778" height="4.74444" rx="2.37222" fill="#939393"/>
<rect x="18.9453" y="54.9556" width="17.6222" height="2.03333" rx="1.01667" fill="white"/>
<rect x="18.9453" y="58.3442" width="12.8778" height="2.03333" rx="1.01667" fill="white"/>
</svg>
