<svg width="130" height="100" viewBox="0 0 130 100" fill="none" xmlns="http://www.w3.org/2000/svg">
<path d="M112.473 7.82871V80.1713C112.473 81.1802 111.653 82 110.644 82H7.82871C6.81979 82 6 81.1808 6 80.1713V7.82871C6 6.81979 6.81915 6 7.82871 6H110.644C111.653 6 112.473 6.81979 112.473 7.82871Z" fill="black"/>
<path d="M109.239 12.0469H9.23438V72.6714H109.239V12.0469Z" fill="white"/>
<path d="M109.239 8.27734H9.23438V12.0474H109.239V8.27734Z" fill="white"/>
<path d="M109.382 12.19H9.08984V8.13281H109.381V12.19H109.382ZM9.37765 11.9028H109.094V8.42062H9.37765V11.9028Z" fill="#DDDDDC"/>
<path d="M13.9374 11.0326C13.4573 11.0326 13.0664 10.6417 13.0664 10.1616C13.0664 9.68145 13.4573 9.29053 13.9374 9.29053C14.4175 9.29053 14.8084 9.68145 14.8084 10.1616C14.8084 10.6417 14.4175 11.0326 13.9374 11.0326ZM13.9374 9.57834C13.6161 9.57834 13.3542 9.84022 13.3542 10.1616C13.3542 10.4829 13.6161 10.7448 13.9374 10.7448C14.2594 10.7448 14.5206 10.4829 14.5206 10.1616C14.5213 9.84022 14.2594 9.57834 13.9374 9.57834Z" fill="black"/>
<path d="M16.8476 11.0326C16.3675 11.0326 15.9766 10.6417 15.9766 10.1616C15.9766 9.68145 16.3675 9.29053 16.8476 9.29053C17.3277 9.29053 17.7186 9.68145 17.7186 10.1616C17.7186 10.6417 17.3277 11.0326 16.8476 11.0326ZM16.8476 9.57834C16.5263 9.57834 16.2644 9.84022 16.2644 10.1616C16.2644 10.4829 16.5263 10.7448 16.8476 10.7448C17.1689 10.7448 17.4308 10.4829 17.4308 10.1616C17.4308 9.84022 17.1696 9.57834 16.8476 9.57834Z" fill="black"/>
<path d="M19.7538 11.0326C19.2737 11.0326 18.8828 10.6417 18.8828 10.1616C18.8828 9.68145 19.2737 9.29053 19.7538 9.29053C20.2339 9.29053 20.6249 9.68145 20.6249 10.1616C20.6249 10.6417 20.2346 11.0326 19.7538 11.0326ZM19.7538 9.57834C19.4325 9.57834 19.1706 9.84022 19.1706 10.1616C19.1706 10.4829 19.4325 10.7448 19.7538 10.7448C20.0752 10.7448 20.337 10.4829 20.337 10.1616C20.3377 9.84022 20.0758 9.57834 19.7538 9.57834Z" fill="black"/>
<path d="M64.3862 78.2829H54.0863C53.4436 78.2829 52.918 77.7572 52.918 77.1146V76.4169C52.918 75.7742 53.4436 75.2485 54.0863 75.2485H64.3862C65.0288 75.2485 65.5545 75.7742 65.5545 76.4169V77.1146C65.5545 77.7572 65.0288 78.2829 64.3862 78.2829Z" fill="white"/>
<path d="M64.2258 78.4265H54.2448C53.4332 78.4265 52.7734 77.7661 52.7734 76.9552V76.5763C52.7734 75.7647 53.4338 75.105 54.2448 75.105H64.2258C65.0374 75.105 65.6971 75.7654 65.6971 76.5763V76.9552C65.6978 77.7668 65.0374 78.4265 64.2258 78.4265ZM54.2448 75.3915C53.592 75.3915 53.0606 75.9229 53.0606 76.5757V76.9546C53.0606 77.6074 53.592 78.1387 54.2448 78.1387H64.2258C64.8786 78.1387 65.41 77.6074 65.41 76.9546V76.5757C65.41 75.9229 64.8786 75.3915 64.2258 75.3915H54.2448Z" fill="black"/>
<rect x="72" y="18" width="26" height="20" fill="#FFCA41"/>
<rect x="20" y="18" width="26" height="20" fill="#939393"/>
<rect x="72" y="46" width="26" height="20" fill="#FFCA41"/>
<rect x="20" y="46" width="26" height="20" fill="#939393"/>
<path d="M63.5 29L58.5 26.1132V31.8868L63.5 29ZM55 29.5H59V28.5H55V29.5Z" fill="black"/>
<path d="M63.5 56L58.5 53.1132V58.8868L63.5 56ZM55 56.5H59V55.5H55V56.5Z" fill="black"/>
</svg>
