<svg width="130" height="100" viewBox="0 0 130 100" fill="none" xmlns="http://www.w3.org/2000/svg">
<path d="M109 17.586V91.6458C109 92.6787 108.161 93.5179 107.128 93.5179H1.87212C0.839247 93.5179 0 92.6793 0 91.6458V17.586C0 16.5531 0.838599 15.7139 1.87212 15.7139H107.128C108.161 15.7139 109 16.5531 109 17.586Z" fill="black"/>
<path d="M105.689 21.9043H3.31055V83.9679H105.689V21.9043Z" fill="white"/>
<path d="M105.689 18.0454H3.31152V21.9049H105.689V18.0454Z" fill="white"/>
<path d="M105.837 22.051H3.16406V17.8975H105.836V22.051H105.837ZM3.45871 21.757H105.542V18.1921H3.45871V21.757Z" fill="black"/>
<path d="M8.12412 20.8659C7.63262 20.8659 7.23242 20.4657 7.23242 19.9742C7.23242 19.4827 7.63262 19.0825 8.12412 19.0825C8.61562 19.0825 9.01582 19.4827 9.01582 19.9742C9.01582 20.4657 8.61562 20.8659 8.12412 20.8659ZM8.12412 19.3772C7.79516 19.3772 7.52706 19.6453 7.52706 19.9742C7.52706 20.3032 7.79516 20.5713 8.12412 20.5713C8.45373 20.5713 8.72117 20.3032 8.72117 19.9742C8.72182 19.6453 8.45373 19.3772 8.12412 19.3772Z" fill="black"/>
<path d="M11.1017 20.8659C10.6102 20.8659 10.21 20.4657 10.21 19.9742C10.21 19.4827 10.6102 19.0825 11.1017 19.0825C11.5932 19.0825 11.9934 19.4827 11.9934 19.9742C11.9934 20.4657 11.5932 20.8659 11.1017 20.8659ZM11.1017 19.3772C10.7727 19.3772 10.5046 19.6453 10.5046 19.9742C10.5046 20.3032 10.7727 20.5713 11.1017 20.5713C11.4306 20.5713 11.6987 20.3032 11.6987 19.9742C11.6987 19.6453 11.4313 19.3772 11.1017 19.3772Z" fill="black"/>
<path d="M14.0792 20.8659C13.5877 20.8659 13.1875 20.4657 13.1875 19.9742C13.1875 19.4827 13.5877 19.0825 14.0792 19.0825C14.5707 19.0825 14.9709 19.4827 14.9709 19.9742C14.9709 20.4657 14.5713 20.8659 14.0792 20.8659ZM14.0792 19.3772C13.7502 19.3772 13.4821 19.6453 13.4821 19.9742C13.4821 20.3032 13.7502 20.5713 14.0792 20.5713C14.4082 20.5713 14.6763 20.3032 14.6763 19.9742C14.6769 19.6453 14.4088 19.3772 14.0792 19.3772Z" fill="black"/>
<path d="M59.7717 89.7123H49.2273C48.5694 89.7123 48.0312 89.1742 48.0312 88.5163V87.802C48.0312 87.1441 48.5694 86.606 49.2273 86.606H59.7717C60.4296 86.606 60.9677 87.1441 60.9677 87.802V88.5163C60.9677 89.1742 60.4296 89.7123 59.7717 89.7123Z" fill="white"/>
<path d="M59.608 89.8594H49.39C48.5592 89.8594 47.8838 89.1833 47.8838 88.3531V87.9652C47.8838 87.1344 48.5599 86.459 49.39 86.459H59.608C60.4388 86.459 61.1143 87.135 61.1143 87.9652V88.3531C61.1149 89.184 60.4388 89.8594 59.608 89.8594ZM49.39 86.7523C48.7217 86.7523 48.1778 87.2963 48.1778 87.9646V88.3525C48.1778 89.0208 48.7217 89.5647 49.39 89.5647H59.608C60.2763 89.5647 60.8203 89.0208 60.8203 88.3525V87.9646C60.8203 87.2963 60.2763 86.7523 59.608 86.7523H49.39Z" fill="black"/>
<path d="M76.6227 81.5458L58.8157 23.2686L41.0088 81.5458H76.6227Z" fill="#DDDDDD"/>
<path d="M85.16 48.0903H60.4346V50.6793H85.16V48.0903Z" fill="#767676"/>
<path d="M85.16 43.7734H60.4346V46.3624H85.16V43.7734Z" fill="#767676"/>
<path d="M85.161 39.4565H60.4355V42.0455H85.161V39.4565Z" fill="#767676"/>
<circle cx="41.0095" cy="64.2786" r="17.2673" fill="#FFCA41"/>
</svg>
