<svg width="130" height="100" viewBox="0 0 130 100" fill="none" xmlns="http://www.w3.org/2000/svg">
<path d="M83 15.2488C83 38.8443 83 62.4195 83 86.0149C82.8174 88.8147 79.8959 91.8986 76.8526 92C53.2572 92 29.682 92 6.08653 92C3.63163 91.7363 1.96798 90.3363 0.750672 88.2669C0.182596 87.3134 0.0202884 86.299 0.0202884 85.2439C0.0202884 62.1151 0.0202884 38.9863 0 15.8575C0 12.6316 2.41432 10.1767 4.78807 9.28404C5.47788 9.02029 6.20826 9.02029 6.93864 9.02029C30.0066 9.02029 53.0746 9.02029 76.1628 9C79.3075 9 81.661 11.2114 82.6551 13.4432C82.9188 14.0112 82.8377 14.6605 83 15.2488Z" fill="#020203"/>
<path d="M41.5503 33.3868C53.4799 33.3868 65.4095 33.3868 77.3188 33.3665C77.9681 33.3665 78.1507 33.4882 78.1507 34.178C78.1304 50.8348 78.1304 67.4714 78.1304 84.1282C78.1304 86.2179 77.2174 87.1308 75.1277 87.1308C52.7292 87.1308 30.3308 87.1308 7.95266 87.1308C5.86296 87.1308 4.94998 86.2179 4.94998 84.1282C4.94998 67.4714 4.94998 50.8348 4.92969 34.178C4.92969 33.5085 5.09199 33.3462 5.76151 33.3462C17.6911 33.3868 29.6207 33.3868 41.5503 33.3868Z" fill="white"/>
<path d="M51.3282 28.5378C42.6651 28.5378 34.0019 28.5378 25.3387 28.5581C24.6489 28.5581 24.5069 28.3755 24.5272 27.7263C24.5678 23.3845 24.5678 19.0428 24.5272 14.7011C24.5272 14.0721 24.6895 13.9707 25.2779 13.9707C41.9347 13.991 58.5712 13.991 75.228 13.991C77.196 13.991 78.1495 14.9445 78.1495 16.9125C78.1495 20.5644 78.1293 24.1961 78.1698 27.848C78.1698 28.4769 77.9872 28.5784 77.3989 28.5784C68.7154 28.5175 60.032 28.5378 51.3282 28.5378Z" fill="#FFCA41"/>
<path d="M12.255 28.5378C10.0436 28.5378 7.83213 28.5175 5.62069 28.5581C5.09319 28.5581 4.95117 28.4364 4.95117 27.9089C4.97146 24.1961 4.95117 20.463 4.97146 16.7502C4.97146 15.0054 5.98588 13.991 7.73069 13.991C11.5043 13.991 15.278 13.991 19.0516 13.9707C19.5791 13.9707 19.7212 14.1127 19.7009 14.6402C19.6806 19.0631 19.6806 23.486 19.7009 27.9089C19.7009 28.4364 19.5791 28.5784 19.0313 28.5784C16.7793 28.5175 14.507 28.5378 12.255 28.5378Z" fill="#FFCA41"/>
<path d="M32.4811 57.8342C34.4694 57.8342 36.4779 57.8139 38.4662 57.8545C39.014 57.8545 39.1357 57.7125 39.1154 57.185C39.0749 55.8662 39.0749 54.5475 39.1154 53.2287C39.1357 52.7621 38.9937 52.5389 38.5474 52.336C35.565 50.997 33.8404 47.8726 34.3071 44.7279C34.8143 41.4006 37.3503 38.9051 40.6776 38.479C43.8021 38.0733 46.9671 39.8992 48.2452 42.8613C49.7872 46.4118 48.1438 50.7333 44.6136 52.336C44.1267 52.5592 43.9238 52.7621 43.9441 53.3302C43.9847 54.6489 43.9847 55.9677 43.9441 57.2864C43.9238 57.8139 44.1064 57.8951 44.573 57.8951C48.3061 57.8748 52.0189 57.8748 55.752 57.8951C60.2966 57.8951 63.3804 61.0195 63.4007 65.5641C63.4007 65.6655 63.421 65.7873 63.4007 65.8887C63.2181 67.3292 63.5427 68.2625 65.0238 69.0943C68.0467 70.7782 69.1018 74.9171 67.6207 78.0212C66.0179 81.3891 62.3863 83.073 58.9778 82.0383C55.9548 81.105 53.9057 78.6096 53.7028 75.6069C53.4999 72.4825 55.123 69.7232 58.0243 68.4248C58.43 68.2422 58.5721 68.0393 58.5518 67.5929C58.5112 66.8423 58.5518 66.0916 58.5315 65.3206C58.4909 63.799 57.4968 62.7846 55.9751 62.7643C52.1406 62.744 48.3061 62.7643 44.4716 62.744C44.0455 62.744 43.9441 62.8657 43.9441 63.2918C43.9644 64.7526 43.9847 66.2133 43.9441 67.6538C43.9238 68.1002 44.1267 68.2422 44.4716 68.4045C49.5437 70.7377 50.3755 77.2908 46.0135 80.7601C43.7818 82.5455 41.2254 82.8498 38.6488 81.7137C35.9707 80.537 34.4694 78.3864 34.2665 75.4446C34.0636 72.3607 35.7476 69.6827 38.5677 68.4045C38.9531 68.2219 39.1357 68.0393 39.1154 67.5727C39.0749 66.1525 39.0749 64.712 39.1154 63.2918C39.1357 62.8049 38.9531 62.7237 38.5271 62.7237C34.7534 62.744 30.9798 62.7237 27.1858 62.744C25.5628 62.744 24.5686 63.7584 24.5281 65.3612C24.5281 65.5235 24.5483 65.6858 24.5281 65.8481C24.2846 67.3495 24.7309 68.2828 26.1917 69.1146C29.1741 70.8188 30.2088 74.8968 28.7683 78.0009C27.1858 81.4094 23.5339 83.0933 20.0646 82.0383C17.0619 81.1253 15.0128 78.5893 14.8302 75.5663C14.6476 72.4622 16.2909 69.7029 19.1313 68.4451C19.5777 68.2422 19.6994 67.9987 19.6994 67.5524C19.7197 66.051 19.5371 64.5294 20.0037 63.0483C20.937 60.0659 23.6759 57.9559 26.8206 57.9154C28.7075 57.8139 30.5943 57.8342 32.4811 57.8342Z" fill="#020203"/>
<path d="M68.3308 18.8196C69.1829 18.8196 70.0553 18.7993 70.9074 18.8196C72.2667 18.8399 73.2812 19.8949 73.2812 21.2542C73.2812 22.5932 72.2667 23.6685 70.9074 23.6685C69.1829 23.6888 67.4584 23.6888 65.7339 23.6685C64.3948 23.6482 63.3804 22.5526 63.4007 21.2136C63.421 19.9151 64.4354 18.8601 65.7339 18.8399C66.6063 18.7993 67.4584 18.8196 68.3308 18.8196Z" fill="#020203"/>
<path d="M39.118 23.6686C38.2862 23.6686 37.4544 23.6889 36.6225 23.6686C35.2835 23.628 34.2691 22.573 34.2894 21.2137C34.3096 19.9152 35.3038 18.8399 36.6225 18.8197C38.3268 18.7994 40.0107 18.7994 41.7149 18.8197C43.0134 18.8399 44.0075 19.9152 44.0075 21.234C44.0075 22.5527 43.0134 23.628 41.7149 23.6686C40.8425 23.6889 39.9701 23.6686 39.118 23.6686Z" fill="#020203"/>
<path d="M53.6829 23.6686C52.8511 23.6686 52.0193 23.6889 51.1874 23.6686C49.8484 23.628 48.834 22.573 48.834 21.2137C48.834 19.9152 49.8484 18.8399 51.1469 18.8197C52.8511 18.7994 54.535 18.7994 56.2393 18.8197C57.5377 18.8399 58.5521 19.9152 58.5521 21.234C58.5521 22.5527 57.558 23.628 56.2798 23.6686C55.4074 23.6889 54.5553 23.6686 53.6829 23.6686Z" fill="#020203"/>
<path d="M41.551 43.2671C42.8292 43.2671 43.9654 44.4032 43.9654 45.6814C43.9654 46.9596 42.8292 48.0957 41.551 48.0957C40.2729 48.0957 39.1367 46.9596 39.1367 45.6814C39.1367 44.4235 40.2729 43.2874 41.551 43.2671Z" fill="#FFCA41"/>
<path d="M22.0936 72.584C23.3515 72.5637 24.5282 73.6796 24.5485 74.9578C24.5688 76.2156 23.4529 77.3924 22.1747 77.4127C20.9168 77.433 19.7401 76.3171 19.7198 75.0389C19.6792 73.781 20.7951 72.6246 22.0936 72.584Z" fill="#FFCA41"/>
<path d="M41.4913 77.4328C40.1928 77.3923 39.0972 76.2155 39.1378 74.9576C39.1784 73.6592 40.3551 72.5433 41.613 72.6042C42.9115 72.6448 44.007 73.8215 43.9665 75.0794C43.9259 76.3575 42.7492 77.4734 41.4913 77.4328Z" fill="#FFCA41"/>
<path d="M60.9666 72.584C62.2447 72.5637 63.3809 73.6999 63.4012 74.978C63.4215 76.2562 62.2853 77.3924 61.0071 77.4127C59.729 77.4329 58.5928 76.2968 58.5725 75.0186C58.5522 73.7404 59.6884 72.6043 60.9666 72.584Z" fill="#FFCA41"/>
</svg>
