<svg width="130" height="100" viewBox="0 0 130 100" fill="none" xmlns="http://www.w3.org/2000/svg">
<path fill-rule="evenodd" clip-rule="evenodd" d="M101 73.6376V7.65614C100.991 7.61648 100.981 7.57682 100.972 7.53718C100.772 6.68799 100.573 5.84452 99.9471 5.12919C98.6836 3.72533 97.0926 3 95.174 3H17.1895C13.5394 3.0234 11.1061 5.48015 11.0827 9.15359C11.0593 12.5697 11.0593 15.9857 11.0827 19.4018C11.1061 20.2441 10.8253 20.8056 10.1 21.2736C4.25055 25.1108 0.647304 30.3753 0.132555 37.4648C-0.0546263 39.945 -0.124819 42.4719 0.483521 44.9053C1.91078 50.5207 5.04607 54.9663 9.95959 58.0782C10.8253 58.6397 11.1295 59.2714 11.1295 60.2542C11.1027 62.5269 11.1065 64.7921 11.1104 67.0583C11.1132 68.7582 11.1161 70.4588 11.1061 72.1636C11.0827 74.7373 12.2526 76.5857 14.4987 77.7088C15.3878 78.13 15.6452 78.6681 15.6452 79.604C15.6101 83.0259 15.6145 86.4479 15.6189 89.8698C15.6204 91.0104 15.6218 92.151 15.6218 93.2917C15.6218 93.8766 15.6218 94.4616 15.7622 95.0465C16.0664 96.193 16.8385 96.8481 18.0084 96.9417C18.2888 96.9768 18.5824 96.9724 18.8792 96.9681C18.9787 96.9666 19.0785 96.9651 19.1783 96.9651H86.7274C86.8502 96.9651 86.9731 96.968 87.0959 96.971C87.4644 96.9797 87.8329 96.9885 88.2015 96.9183C89.1374 96.7311 89.8627 96.193 89.9563 95.2805C90.1669 93.3151 90.3307 91.3263 89.8393 89.4077C89.1608 86.8105 86.8444 85.1493 84.0133 85.1493C80.5513 85.1337 77.0997 85.1389 73.6446 85.1441C71.9158 85.1467 70.1861 85.1493 68.4538 85.1493C67.1903 85.1493 67.0967 85.0791 66.699 83.8858C66.4767 83.219 66.2544 82.5463 66.0322 81.8736C65.8099 81.2009 65.5876 80.5282 65.3653 79.8614C64.8506 78.2938 64.874 78.2704 66.4884 78.2704H95.0336C98.3561 78.2704 100.251 76.7963 101 73.6376ZM40.8173 77.527C39.767 77.5244 38.7159 77.5218 37.6621 77.5218H28.1158C28.0589 77.5218 27.9994 77.5174 27.9398 77.5131C27.6322 77.4908 27.3203 77.4681 27.3203 78.0365C27.3359 79.4863 27.3307 80.9257 27.3255 82.3686C27.3229 83.0913 27.3203 83.8149 27.3203 84.5411C27.3203 84.8686 27.3905 84.9856 27.7649 84.9856C33.4973 84.9622 39.2531 84.9622 44.9856 84.9622C45.4301 84.9856 45.5939 84.775 45.7109 84.3773C46.3426 82.3651 46.9978 80.3295 47.7231 78.3407C48.0039 77.5919 47.7699 77.5218 47.1148 77.5218C45.0098 77.5373 42.9153 77.5322 40.8173 77.527Z" fill="#020203"/>
<path d="M15.1308 19.2849C15.1308 15.7752 15.1075 12.3124 15.1542 8.87291C15.1542 7.89021 15.903 7.18828 16.9091 7.09469C17.1898 7.07129 17.494 7.07129 17.7982 7.07129C43.3953 7.07129 68.9923 7.07129 94.5894 7.07129C96.6952 7.07129 97.2567 7.65623 97.2567 9.76202C97.2567 27.1465 97.2567 44.5544 97.2801 61.9389C97.2801 62.8514 97.0462 63.0386 96.1571 63.0386C73.5783 63.0152 50.9995 63.0152 28.4207 63.0386C27.438 63.0386 27.321 62.7578 27.2509 61.8687C27.1807 60.7222 27.6018 60.3478 28.6313 59.9969C29.8948 59.5757 31.1349 59.3885 32.4685 59.3885C45.0331 59.4119 57.5977 59.4119 70.1856 59.4119C72.502 59.4119 73.0401 58.8738 73.0401 56.5808C73.0401 52.0417 73.0401 47.5259 73.0401 42.9867C73.0401 41.3489 72.3616 40.6704 70.7004 40.647C69.2965 40.6236 67.8692 40.5768 66.4654 40.6704C65.6465 40.7172 65.4827 40.413 65.5295 39.6877C65.5763 38.7986 65.5529 37.9094 65.5295 37.0203C65.5061 35.8271 64.7574 35.0549 63.5407 35.0549C61.9964 35.0315 60.4522 35.0081 58.9079 35.0783C58.1358 35.1251 57.9954 34.8444 58.0188 34.1424C58.0656 32.645 58.0422 31.1241 58.0422 29.6033C58.0422 28.3398 57.2935 27.5911 56.03 27.5677C53.6434 27.5443 51.2335 27.5443 48.8469 27.5677C47.5367 27.5911 46.8347 28.3632 46.8347 29.6969C46.8347 34.2594 46.8113 38.822 46.8581 43.3845C46.8581 44.2268 46.6241 44.4608 45.8286 44.3672C45.1501 44.297 44.4482 44.3204 43.7696 44.3672C43.2549 44.3906 43.0911 44.2034 43.1145 43.6887C43.1379 42.3082 43.1379 40.9277 43.1145 39.5473C43.0911 28.9481 35.1125 19.8698 24.6069 18.4426C22.9925 18.232 21.4014 18.232 19.787 18.3256C18.2193 18.4192 16.6751 18.7701 15.1308 19.2849Z" fill="#EBEBEB"/>
<path d="M62.3234 66.852C73.6011 66.852 84.9022 66.8754 96.1798 66.8286C97.0924 66.8286 97.3263 67.086 97.2795 67.9517C97.2093 69.3322 97.2795 70.7126 97.2561 72.0931C97.2327 73.5671 96.5542 74.2457 95.0802 74.2457C72.7588 74.2457 50.4608 74.2457 28.1394 74.2691C27.4374 74.2691 27.2736 74.0819 27.297 73.4034C27.3438 71.5316 27.3672 69.6597 27.297 67.7879C27.2736 66.9924 27.531 66.8286 28.2797 66.8286C39.6042 66.852 50.9521 66.852 62.3234 66.852Z" fill="#EBEBEB"/>
<path d="M30.924 36.7397C30.6666 36.9737 30.4326 36.8801 30.1987 36.9035C28.7246 37.0205 28.1163 37.699 28.1163 39.1964C28.1163 40.2727 28.0695 41.3724 28.1397 42.4487C28.1865 43.2443 28.0227 43.525 27.157 43.5016C25.2618 43.4314 23.3431 43.5016 21.4479 43.4548C20.7928 43.4314 20.6056 43.642 20.6524 44.2737C20.7226 45.2097 20.3482 46.4497 20.8396 47.0347C21.3309 47.643 22.6178 47.1985 23.5537 47.2219C24.864 47.2453 26.1743 47.2453 27.4845 47.2219C27.9993 47.1985 28.1631 47.3388 28.1397 47.877C28.1163 50.4741 28.1163 53.0713 28.1397 55.645C28.1397 56.0896 27.9993 56.2768 27.6015 56.4172C23.6239 57.7976 19.6463 57.821 15.6687 56.4172C15.1072 56.23 15.1072 55.9024 15.1072 55.4578C15.1072 53.0011 15.1306 50.5443 15.0838 48.0642C15.0604 47.3622 15.2709 47.1049 15.9495 47.2219C16.8152 47.3856 17.1194 47.0581 17.0258 46.169C16.9556 45.5138 16.979 44.8587 17.0258 44.2036C17.0726 43.5718 16.8386 43.3612 16.2536 43.4548C15.2709 43.642 15.0838 43.2209 15.1072 42.3083C15.1774 39.875 15.154 37.4416 15.1072 35.0317C15.0838 34.3531 15.2709 34.049 15.9495 34.1893C16.8152 34.3531 17.1428 34.0022 17.0258 33.113C16.9556 32.6919 17.0258 32.2707 17.0258 31.8262C17.0258 30.4457 17.0258 30.4223 15.6219 30.3287C15.2475 30.3053 15.1306 30.1883 15.1306 29.814C15.154 27.7784 15.154 25.7428 15.1306 23.7072C15.1306 23.1222 15.5283 23.0988 15.8559 22.9818C21.3075 21.1802 26.5018 21.7652 31.3452 24.8771C35.3696 27.4508 37.8029 31.1944 38.926 35.8038C39.1132 36.5291 39.0664 36.8099 38.1305 36.9035C36.3289 37.1141 35.2058 36.4589 34.3167 34.9147C33.5913 33.6512 32.5852 32.5281 31.7429 31.3114C31.2516 30.5861 30.573 30.2819 29.7541 30.2819C26.9698 30.2819 24.1855 30.2819 21.3777 30.2585C20.8162 30.2585 20.629 30.4223 20.6524 30.9839C20.6992 31.7326 20.6992 32.5047 20.6524 33.2534C20.6056 33.932 20.8162 34.1659 21.5181 34.1425C23.7409 34.0958 25.9871 34.1659 28.2099 34.1192C28.8884 34.0958 29.3096 34.3063 29.6605 34.8679C30.0583 35.5464 30.5028 36.1547 30.924 36.7397Z" fill="white"/>
<path d="M56.6843 92.9404C47.2083 92.9404 37.7322 92.9404 28.2327 92.9638C27.484 92.9638 27.1798 92.8001 27.2734 92.0045C27.3436 91.4898 27.3436 90.9516 27.2734 90.4369C27.1096 89.4074 27.6478 89.2202 28.5135 89.2202C31.719 89.2436 34.9479 89.2202 38.1534 89.2202C53.1747 89.2202 68.196 89.2202 83.2407 89.2202C85.5805 89.2202 86.4228 90.2263 86.0484 92.5661C86.0016 92.8703 85.908 92.9638 85.6273 92.9404C85.3933 92.917 85.1593 92.9404 84.9487 92.9404C75.5195 92.9404 66.0902 92.9404 56.6843 92.9404Z" fill="#EBEBEB"/>
<path d="M11.3386 25.3447C11.3386 34.9846 11.3386 44.4606 11.3386 54.1239C6.63569 50.5674 4.10874 45.9581 3.96836 40.2023C3.80457 34.0721 6.35492 29.1585 11.3386 25.3447Z" fill="white"/>
<path d="M54.322 43.595C54.322 47.2918 54.2986 51.012 54.3454 54.7089C54.3454 55.3874 54.205 55.6448 53.5031 55.5746C52.7777 55.5044 52.0524 55.5278 51.3505 55.5746C50.7421 55.6214 50.5783 55.4108 50.6017 54.8259C50.6251 51.0588 50.6251 47.2918 50.6251 43.5014C50.6251 39.711 50.6485 35.9673 50.6017 32.1769C50.6017 31.5452 50.7187 31.2878 51.3973 31.3346C52.3332 31.4048 53.5733 31.0304 54.1582 31.5218C54.7665 32.0131 54.3454 33.3 54.3454 34.2359C54.322 37.3478 54.322 40.4831 54.322 43.595Z" fill="white"/>
<path d="M62.862 85.4299C58.3697 85.4299 53.9943 85.4299 49.502 85.4299C50.0869 83.6283 50.6718 81.8734 51.2568 80.1186C51.9587 78.0362 51.9587 78.0362 54.1581 78.0362C56.0299 78.0362 57.9017 78.0362 59.7735 78.0362C60.1011 78.0362 60.4287 77.9894 60.5691 78.4106C61.3178 80.7269 62.0899 83.0433 62.862 85.4299Z" fill="#EBEBEB"/>
<path d="M31.9297 53.9599C31.9297 49.7249 31.9297 45.5601 31.9297 41.3953C31.9297 40.904 32.0467 40.7168 32.5848 40.7168C34.6438 40.7402 36.7262 40.7168 38.7852 40.7402C39.0894 40.7402 39.3468 40.6934 39.3 41.1848C38.7618 46.4492 36.4454 50.7076 32.2339 53.9131C32.1637 53.9365 32.0935 53.9365 31.9297 53.9599Z" fill="white"/>
<path d="M61.7846 47.2689C61.7846 49.749 61.7612 52.2526 61.7846 54.7327C61.7846 55.3177 61.7144 55.6452 61.0125 55.575C60.0532 55.4581 58.7429 55.9728 58.2048 55.3645C57.7368 54.8263 58.0644 53.5628 58.041 52.6269C58.041 48.2984 58.0644 43.9698 58.0176 39.6646C58.0176 38.9627 58.2048 38.7287 58.8833 38.8223C59.8192 38.9393 61.0593 38.4245 61.5974 39.0329C62.0654 39.5476 61.7378 40.7643 61.7612 41.6768C61.7846 43.5252 61.7846 45.3971 61.7846 47.2689Z" fill="white"/>
<path d="M69.2477 50.0764C69.2477 51.6908 69.2243 53.2819 69.2477 54.8963C69.2477 55.411 69.1073 55.5982 68.5926 55.5748C67.6099 55.528 66.3698 55.9024 65.7147 55.4344C65.1063 54.9899 65.5509 53.6562 65.5275 52.7203C65.5041 50.2168 65.5275 47.7366 65.5041 45.233C65.5041 44.6481 65.5977 44.3907 66.2528 44.4609C67.2121 44.5779 68.5224 44.0398 69.0605 44.6715C69.5285 45.2096 69.2009 46.4731 69.2243 47.4324C69.2477 48.2981 69.2477 49.1873 69.2477 50.0764Z" fill="white"/>
<path d="M43.1135 51.7837C43.1135 50.7776 43.1369 49.7481 43.1135 48.742C43.1135 48.3209 43.2539 48.1805 43.6751 48.1805C44.5642 48.2039 45.4533 48.2039 46.319 48.1805C46.787 48.1571 46.8338 48.3677 46.8338 48.7654C46.8104 50.8244 46.8104 52.8834 46.8338 54.9658C46.8338 55.4338 46.7402 55.5975 46.2488 55.5741C45.2427 55.5273 43.9559 55.8783 43.3007 55.387C42.6924 54.919 43.1837 53.5385 43.1135 52.5792C43.0901 52.3219 43.1135 52.0645 43.1135 51.7837Z" fill="white"/>
<path d="M16.0187 73.9186C15.3635 73.4741 15.1295 73.0061 15.1295 72.4446C15.1061 70.7365 15.1295 69.0519 15.1295 67.3439C15.1295 67.0631 15.1061 66.8057 15.5273 66.8291C15.8081 66.8525 16.042 66.8759 16.042 67.2503C16.0187 69.4263 16.0187 71.6023 16.0187 73.9186Z" fill="#F3F3F3"/>
<path d="M36.1641 55.5509C37.3807 54.381 38.34 53.3047 39.3461 51.9009C39.3461 53.141 39.3461 54.1705 39.3461 55.1766C39.3461 55.5041 39.1824 55.5509 38.9016 55.5509C38.0827 55.5509 37.2404 55.5509 36.1641 55.5509Z" fill="#FEFEFE"/>
<path d="M15.1074 60.2776C15.8561 60.2308 16.0901 60.535 16.0199 61.2135C15.9731 61.6347 15.9965 62.0559 16.0199 62.477C16.0199 62.8046 15.9965 63.0386 15.5754 63.0386C15.1542 63.0386 15.1074 62.8514 15.1074 62.5004C15.1308 61.7751 15.1074 61.0263 15.1074 60.2776Z" fill="#F1F1F2"/>
<path d="M92.5317 23.9407C92.5317 31.1238 86.6588 37.02 79.4758 36.9966C72.2693 36.9732 66.373 31.0536 66.373 23.8471C66.373 16.6874 72.3161 10.8146 79.5693 10.838C86.7524 10.838 92.5317 16.664 92.5317 23.9407Z" fill="#020203"/>
<path d="M85.0665 51.9246C83.7796 51.9246 82.5161 51.8778 81.2292 51.948C80.5507 51.9714 80.3869 51.7374 80.4103 51.1057C80.4571 50.3335 80.4571 49.538 80.4103 48.7425C80.3869 48.2277 80.5741 48.064 81.0889 48.064C83.7796 48.0874 86.4469 48.0874 89.1377 48.064C89.6758 48.064 89.7928 48.2745 89.7694 48.7659C89.7226 49.772 90.097 51.1057 89.6056 51.714C89.0909 52.3691 87.7104 51.8544 86.7043 51.9246C86.1662 51.948 85.628 51.9246 85.0665 51.9246Z" fill="#040405"/>
<path d="M85.138 55.5512C86.4482 55.5512 87.7585 55.5746 89.0688 55.5512C89.6069 55.5278 89.8409 55.6682 89.7941 56.2532C89.7239 57.2593 90.1217 58.5461 89.6303 59.2013C89.1624 59.833 87.8053 59.3651 86.8226 59.3885C84.9976 59.4119 83.1492 59.3651 81.3241 59.4119C80.669 59.4353 80.3648 59.2949 80.4116 58.5695C80.4818 57.8208 80.4584 57.0721 80.4116 56.3234C80.3648 55.6916 80.6222 55.5512 81.2072 55.5746C82.5174 55.5746 83.8277 55.5512 85.138 55.5512Z" fill="#040405"/>
<path d="M86.1892 30.2112C83.7792 32.9254 79.5442 33.9081 76.175 32.5744C72.5015 31.1238 70.1384 27.7077 70.2086 23.9407C70.232 22.9112 70.3723 21.9285 70.6531 20.9458C70.8403 20.2672 71.0275 20.0332 71.7294 20.5714C73.6012 21.9987 75.5198 23.3557 77.4384 24.7128C80.2462 26.7016 83.2879 28.3394 86.1892 30.2112Z" fill="white"/>
<path d="M88.7868 23.7769C88.74 24.7362 88.5996 25.6253 88.389 26.4676C88.272 26.9355 88.0849 26.9589 87.7105 26.725C85.8621 25.5785 83.9903 24.432 82.1184 23.2855C81.7909 23.0983 81.6739 22.9345 81.8143 22.5134C82.446 20.431 83.0544 18.3252 83.6393 16.2194C83.7797 15.7047 83.9669 15.7047 84.3646 15.962C87.1957 17.8572 88.6698 20.4778 88.7868 23.7769Z" fill="white"/>
<path d="M73.2246 17.0154C75.0964 15.3541 77.2256 14.6054 79.6356 14.5586C80.1035 14.5586 80.1971 14.7224 80.0801 15.1435C79.5888 16.8048 79.0506 18.4426 78.6061 20.1038C78.4423 20.7122 78.3019 20.6888 77.8573 20.3612C76.3599 19.2615 74.8391 18.1852 73.2246 17.0154Z" fill="white"/>
<circle cx="21.3539" cy="39.7343" r="18.1332" fill="#FFCA41"/>
<rect x="18.1953" y="61.3774" width="6.0834" height="33.2247" rx="2" fill="#FFCA41"/>
</svg>
