<svg width="129" height="100" viewBox="0 0 129 100" fill="none" xmlns="http://www.w3.org/2000/svg">
<g clip-path="url(#clip0_279_1110)">
<path d="M60.1109 76.6111V70.6294H50.6894H50.2183H40.7968V76.6111C40.7968 79.8837 38.3437 82.5755 35.1841 82.9666V83.0183H50.2183H50.6894H65.7236V82.9666C62.5639 82.5755 60.1109 79.878 60.1109 76.6111Z" fill="#D8DBD7" stroke="#010200" stroke-width="3"/>
<path d="M92.0002 71.4113C92.0002 73.1425 90.5985 74.5459 88.8693 74.5459H12.0438C10.3146 74.5459 8.91284 73.1425 8.91284 71.4113V28.9759C8.91284 27.239 10.3146 25.8413 12.0438 25.8413H88.8635C90.5927 25.8413 91.9945 27.2447 91.9945 28.9759V71.4113H92.0002Z" fill="#D8DBD7" stroke="#010200" stroke-width="3"/>
<path d="M92.0002 63.4684C92.0002 65.1997 90.5985 66.6031 88.8693 66.6031H12.0438C10.3146 66.6031 8.91284 65.1997 8.91284 63.4684V21.0331C8.91284 19.3018 10.3146 17.8984 12.0438 17.8984H88.8635C90.5927 17.8984 91.9945 19.3018 91.9945 21.0331V63.4684H92.0002Z" fill="white" stroke="black" stroke-width="3" stroke-linecap="round" stroke-linejoin="round"/>
<path d="M71.2154 85.612C71.2154 86.6301 70.3881 87.4583 69.3713 87.4583H31.5359C30.519 87.4583 29.686 86.6301 29.686 85.612V84.8643C29.686 83.8406 30.5133 83.0181 31.5359 83.0181H69.3713C70.3881 83.0181 71.2154 83.8463 71.2154 84.8643V85.612Z" fill="#D8DBD7" stroke="#010200" stroke-width="3"/>
<path d="M65.8323 60.5123H32.2366V25.0767" stroke="black" stroke-width="3" stroke-linecap="round" stroke-linejoin="round"/>
<path d="M40.9457 45.8975H35.7351V56.8255H40.9457V45.8975Z" fill="#939393"/>
<path d="M49.0632 48.8135H43.8469V56.8255H49.0632V48.8135Z" fill="#939393"/>
<path d="M57.1807 44.4424H51.9644V56.8256H57.1807V44.4424Z" fill="#939393"/>
<path d="M65.2922 40.0713H60.0759V56.8257H65.2922V40.0713Z" fill="#939393"/>
<path d="M57.7897 35.4696L61.6042 26.2383L52.3838 30.0574C56.635 34.3135 53.5442 31.2192 57.7897 35.4696Z" fill="white" stroke="black" stroke-width="3" stroke-linecap="round" stroke-linejoin="round"/>
<path d="M35.0977 41.8828L41.934 35.0327L47.2824 40.3817L54.7622 32.8931" stroke="black" stroke-width="3" stroke-linecap="round" stroke-linejoin="round"/>
<path d="M44.6469 19.4447C44.7685 18.7753 45.023 18.5338 44.9285 17.8943C44.7398 14.6788 42.1941 11.8598 39.0108 11.2112C38.4668 11.1122 37.2536 10.8913 36.7097 10.7923L29.0395 9.39616C28.0877 9.2229 26.6952 9.49366 25.8307 9.61292C22.5766 10.1271 20.5573 12.4721 19.9616 15.7522C19.5726 17.8943 19.2244 19.8119 18.8354 21.954L18.2723 25.0549C18.1021 25.992 18.4787 26.7343 18.617 27.5201C19.1578 30.7305 21.4119 32.834 24.6755 33.428C25.9673 33.6631 27.1507 33.8786 28.5106 34.1261C29.2584 34.2622 30.0637 34.4088 30.8116 34.5449L33.8797 35.1034C35.1035 35.3262 36.0515 35.182 37.0885 34.8866C40.0512 34.0428 42.3426 31.7473 42.9576 28.7473C43.5168 25.6681 44.1557 22.5364 44.6469 19.4447Z" fill="#FFCA41"/>
<path fill-rule="evenodd" clip-rule="evenodd" d="M29.4484 13.5288C30.3558 13.6509 30.6444 13.6939 32.9367 14.1114C35.2289 14.529 35.514 14.5913 36.4056 14.7962C37.2973 15.0011 37.8847 15.2578 38.3836 15.5657C38.9069 15.8828 39.3562 16.3114 39.6994 16.8223C40.0518 17.326 40.2898 17.9011 40.3983 18.5086C40.5085 19.0891 40.5387 19.7352 40.4155 20.6496C40.2917 21.5679 40.2483 21.8594 39.8282 24.1746C39.4079 26.4906 39.3454 26.7787 39.1397 27.6804C38.9345 28.5799 38.6786 29.1738 38.3714 29.6784C38.0565 30.2088 37.631 30.6638 37.1246 31.0118C36.6239 31.369 36.053 31.6109 35.4518 31.7224C34.8766 31.8354 34.2367 31.8678 33.3315 31.7461C32.4233 31.6239 32.1347 31.581 29.8425 31.1634C27.5502 30.7459 27.2652 30.6835 26.3727 30.4785C25.4826 30.2739 24.8952 30.0172 24.3965 29.7085C23.8721 29.392 23.4228 28.9637 23.0796 28.4534C22.7276 27.9494 22.4889 27.3736 22.3801 26.7661C22.2707 26.1857 22.2405 25.5396 22.3636 24.6252C22.4874 23.707 22.5308 23.4154 22.9509 21.1002C23.3712 18.7842 23.4338 18.4962 23.6393 17.5952C23.8448 16.6942 24.1007 16.1002 24.4071 15.5955C24.7226 15.0654 25.1486 14.6107 25.6553 14.2631C26.1552 13.9062 26.7258 13.6634 27.3275 13.5516C27.9026 13.4394 28.5424 13.407 29.4476 13.5287L29.4484 13.5288ZM36.0589 16.3184C35.1764 16.1153 34.911 16.0581 32.6579 15.6477C30.4048 15.2372 30.1363 15.1971 29.2389 15.0761C28.4089 14.9641 27.9372 15.0215 27.6184 15.0843C27.1967 15.1677 26.8818 15.3001 26.5323 15.5447C26.2024 15.7689 25.9261 16.0647 25.7238 16.4103C25.5534 16.6899 25.3342 17.116 25.1457 17.9409C24.9419 18.8326 24.8845 19.1007 24.4714 21.3772C24.0584 23.6536 24.0179 23.9249 23.8954 24.8314C23.782 25.6699 23.8375 26.146 23.8988 26.4679C23.9667 26.8622 24.1214 27.2371 24.3515 27.5632C24.5725 27.8958 24.8651 28.1741 25.2063 28.3771C25.4827 28.5484 25.904 28.7685 26.7203 28.9564C27.6027 29.1596 27.8674 29.2166 30.1212 29.6272C32.3751 30.0378 32.6429 30.0777 33.5402 30.1988C34.3702 30.3107 34.8419 30.2533 35.1608 30.1905C35.5825 30.1072 35.8973 29.9748 36.2468 29.7302C36.5768 29.506 36.8533 29.2097 37.0554 28.8645C37.2258 28.5849 37.4449 28.1588 37.6334 27.334C37.8373 26.4423 37.8946 26.1741 38.3077 23.8977C38.7208 21.6212 38.7613 21.3499 38.8838 20.4434C38.9971 19.6049 38.9416 19.1288 38.8804 18.807C38.7991 18.3814 38.6689 18.0638 38.4277 17.7116C38.2066 17.3791 37.9145 17.101 37.5729 16.8977C37.2964 16.7264 36.8751 16.5064 36.0589 16.3184ZM29.8348 25.0694C30.3908 25.4322 31.0549 25.5885 31.7136 25.5115C32.3723 25.4345 32.9848 25.1291 33.4464 24.6474C33.9081 24.1656 34.1903 23.5375 34.2448 22.8702C34.2993 22.2029 34.1227 21.5379 33.7453 20.9887C33.5048 20.6378 33.1902 20.3453 32.8239 20.1324C32.4577 19.9194 32.049 19.7912 31.6273 19.757C31.2056 19.7229 30.7814 19.7835 30.3852 19.9347C29.9889 20.0859 29.6306 20.3238 29.3359 20.6313C29.0412 20.9389 28.8175 21.3084 28.6809 21.7132C28.5443 22.118 28.4982 22.5481 28.5459 22.9726C28.5936 23.397 28.734 23.8052 28.9568 24.1678C29.1797 24.5304 29.4796 24.8383 29.8348 25.0694ZM28.8848 18.9799C29.3614 18.6463 29.8982 18.4106 30.4644 18.2863C31.0306 18.1619 31.6152 18.1513 32.1848 18.255C32.7544 18.3588 33.2978 18.5749 33.7841 18.891C34.2704 19.2071 34.69 19.617 35.0189 20.0973C35.3479 20.5776 35.5797 21.1189 35.7012 21.6903C35.8227 22.2617 35.8315 22.8521 35.727 23.4276C35.6226 24.0031 35.407 24.5525 35.0926 25.0445C34.7781 25.5365 34.3709 25.9614 33.8943 26.2949C32.9318 26.9686 31.7447 27.2294 30.5944 27.0198C29.444 26.8102 28.4245 26.1476 27.7602 25.1775C27.0959 24.2075 26.8412 23.0096 27.0521 21.8473C27.263 20.685 27.9223 19.6536 28.8848 18.9799ZM37.3658 19.8731C37.4829 19.7961 37.5835 19.6963 37.6618 19.5795C37.7401 19.4626 37.7945 19.3312 37.8216 19.193C37.8488 19.0547 37.8482 18.9124 37.8199 18.7746C37.7916 18.6367 37.7363 18.5061 37.657 18.3904C37.5778 18.2747 37.4763 18.1763 37.3586 18.101C37.2409 18.0257 37.1094 17.9751 36.9719 17.9521C36.8343 17.9291 36.6935 17.9343 36.5578 17.9673C36.422 18.0002 36.2942 18.0603 36.1817 18.144C35.963 18.3068 35.8155 18.549 35.7705 18.8193C35.7255 19.0896 35.7865 19.3667 35.9406 19.5917C36.0947 19.8167 36.3297 19.972 36.5958 20.0245C36.8619 20.077 37.1381 20.0227 37.3658 19.8731Z" fill="black"/>
<path d="M22.0217 34.2521C21.6771 33.7578 21.6858 33.4459 21.2237 33.1072C19.0815 31.2226 15.7022 31.0795 13.2864 32.6937C12.881 32.9768 11.9769 33.6084 11.5715 33.8916L5.85547 37.8848C5.14611 38.3803 4.43824 39.432 3.96803 40.0545C2.23917 42.4383 2.44105 45.1804 4.12923 47.6027C5.23171 49.1846 6.2186 50.6006 7.32108 52.1825L8.91701 54.4725C9.39935 55.1645 10.1039 55.3884 10.6856 55.7906C13.0466 57.4488 15.7918 57.3306 18.2239 55.6316C19.1866 54.9591 20.0686 54.3429 21.082 53.635C21.6393 53.2457 22.2394 52.8264 22.7968 52.4371L25.0832 50.8398C25.9952 50.2027 26.5024 49.5117 26.9706 48.6701C28.3083 46.2655 28.3091 43.3818 26.8094 41.1219C25.2246 38.8479 23.6571 36.4907 22.0217 34.2521Z" fill="#FFCA41"/>
<g clip-path="url(#clip1_279_1110)">
<path d="M17.9803 49.8433L19.6551 48.6734L16.7425 44.4943L18.143 43.5159L17.2213 41.7424L15.6094 42.8684L14.8833 41.8265C14.5561 41.3571 14.4641 40.9447 15.1386 40.4735L16.0018 39.8705L14.9844 38.4107C14.8238 38.4973 14.2831 38.8069 13.6887 39.2222C12.4426 40.0927 12.1272 41.4451 13.0968 42.8362L13.9346 44.0384L12.5285 45.0207L13.6616 46.6466L15.0677 45.6643L17.9803 49.8433Z" fill="black"/>
</g>
<path d="M36.212 65.377C36.3874 64.9298 36.5968 64.7974 36.6181 64.3412C36.9245 62.0873 35.5421 59.7853 33.4222 58.9C33.0584 58.7569 32.247 58.4377 31.8832 58.2947L26.7529 56.277C26.1162 56.0266 25.1135 56.0235 24.4977 55.9878C22.1707 55.8985 20.4512 57.247 19.592 59.4383C19.0309 60.8694 18.5287 62.1505 17.9676 63.5816L17.1554 65.6532C16.9099 66.2793 17.0702 66.8452 17.0593 67.4087C16.9979 69.7073 18.2753 71.4736 20.4582 72.3321C21.3223 72.6719 22.1138 72.9832 23.0234 73.3409C23.5236 73.5376 24.0622 73.7495 24.5624 73.9462L26.6146 74.7533C27.4331 75.0752 28.1103 75.1051 28.8697 75.0425C31.0395 74.8634 32.9409 73.5865 33.7754 71.5919C34.582 69.5347 35.451 67.4521 36.212 65.377Z" fill="#FFCA41"/>
<path d="M23.5476 63.0605C23.7057 62.6575 23.9247 62.3042 24.2016 62.0029C24.4683 61.7094 24.7876 61.4694 25.1427 61.2956C25.4958 61.1251 25.8705 61.005 26.2559 60.9387C26.652 60.8691 27.0557 60.8579 27.4543 60.9053C27.8582 60.9521 28.2541 61.0513 28.6322 61.2004C29.2165 61.4301 29.7112 61.7688 30.118 62.2157C30.5199 62.6554 30.7966 63.1966 30.9191 63.7826C31.0481 64.3804 30.9943 64.9781 30.7599 65.5758C30.6193 65.9343 30.4469 66.2713 30.2411 66.5861C30.0367 66.9013 29.7949 67.1904 29.5212 67.4468C29.2584 67.6959 28.9606 67.9046 28.6377 68.0662C28.3151 68.2233 27.9643 68.3121 27.607 68.327C27.2191 68.3433 26.8327 68.2763 26.4733 68.1305C26.2225 68.0319 25.9955 67.8739 25.7952 67.6571C25.5947 67.4407 25.4814 67.2072 25.457 66.9555C25.3625 67.0863 25.2287 67.2765 25.0526 67.5247C24.8793 67.7734 24.7657 67.9332 24.7147 68.0059C24.6629 68.0776 24.5727 68.1958 24.445 68.3584C24.354 68.48 24.2535 68.5943 24.1447 68.7001L23.8313 68.9798C23.6962 69.0996 23.5541 69.2111 23.4056 69.3135C23.2595 69.4127 23.081 69.5296 22.871 69.6623L22.7838 69.6597L22.7549 69.5838C22.9302 68.9753 23.0397 68.613 23.0852 68.4969C23.2199 68.1535 23.4116 67.784 23.6594 67.3876C23.9055 66.9911 24.2402 66.5028 24.6603 65.9224C25.0801 65.3425 25.3244 65.0003 25.3942 64.898C25.3716 64.6099 25.436 64.2705 25.5883 63.882C25.71 63.5717 25.9199 63.3189 26.2195 63.121C26.5192 62.9244 26.8163 62.8839 27.1118 63.0001C27.338 63.089 27.4838 63.2336 27.5499 63.4348C27.6168 63.6357 27.6036 63.8505 27.5124 64.0831C27.4157 64.3297 27.1947 64.6547 26.8485 65.0573C26.5022 65.4604 26.2844 65.7771 26.1936 66.0087C26.1016 66.2434 26.1077 66.4723 26.2135 66.6915C26.3172 66.91 26.5014 67.0787 26.7271 67.1619C26.9302 67.2418 27.1368 67.2692 27.3484 67.2442C27.5563 67.2209 27.7563 67.1495 27.9329 67.0357C28.317 66.7888 28.6481 66.4665 28.9065 66.0883C29.0415 65.8891 29.1609 65.6963 29.2611 65.5103C29.3632 65.3238 29.4467 65.1426 29.5158 64.9665C29.7691 64.3205 29.7634 63.7372 29.5011 63.2179C29.2368 62.6978 28.7787 62.3109 28.1288 62.0553C27.3896 61.7647 26.6769 61.7631 25.9919 62.0528C25.3071 62.3407 24.817 62.8565 24.5251 63.6009C24.4607 63.7651 24.4232 63.9333 24.4097 64.105C24.3955 64.2757 24.3975 64.417 24.416 64.5283C24.4346 64.6379 24.451 64.7442 24.4653 64.8419C24.4802 64.9398 24.482 65.0063 24.4686 65.0405C24.4275 65.1451 24.3469 65.2706 24.226 65.4174C24.103 65.5634 24.0029 65.6209 23.9219 65.589C23.9142 65.586 23.8846 65.5678 23.8339 65.5341C23.6647 65.4008 23.5339 65.2245 23.4546 65.0232C23.3691 64.8133 23.3248 64.5884 23.3242 64.3609C23.3235 64.1343 23.3426 63.9079 23.3811 63.6844C23.4118 63.4707 23.4677 63.2612 23.5476 63.0605Z" fill="black"/>
</g>
<defs>
<clipPath id="clip0_279_1110">
<rect width="129" height="100" fill="white"/>
</clipPath>
<clipPath id="clip1_279_1110">
<rect width="13.9454" height="13.9559" fill="white" transform="matrix(0.819776 -0.572684 0.571775 0.82041 5.96289 42.917)"/>
</clipPath>
</defs>
</svg>
