<svg width="130" height="100" viewBox="0 0 130 100" fill="none" xmlns="http://www.w3.org/2000/svg">
<g clip-path="url(#clip0_279_1928)">
<path d="M39.0639 6.14729L10.6143 15.567C8.46039 16.2801 7.28551 18.6144 7.99943 20.7706L30.8568 89.8052C31.57 91.9591 33.9042 93.134 36.0604 92.4201L64.5123 82.9996C66.6662 82.2865 67.8411 79.9522 67.1272 77.796L44.269 8.75916C43.5536 6.60598 41.2201 5.43337 39.0639 6.14729Z" fill="#FEFEFE"/>
<path d="M62.9831 65.5818C62.9831 65.5818 29.5761 76.6429 27.424 77.3554C25.272 78.068 26.866 77.9472 27.0153 78.3984C27.1647 78.8495 31.7981 92.8433 31.7981 92.8433C31.9473 93.294 33.8204 93.0814 35.9747 92.3681L64.4017 82.9559C66.5538 82.2433 68.1861 81.2958 68.0367 80.8447L63.2538 66.3993L62.9831 65.5818Z" fill="#DDDDDC"/>
<path d="M44.8244 7.7031L6.86447 20.2717C6.18355 18.2151 7.29784 15.994 9.35664 15.3123L39.865 5.21093C41.9238 4.52926 44.1428 5.6443 44.8244 7.7031Z" fill="#DDDDDC"/>
<path d="M34.0648 7.5936L15.4902 13.7437L16.6638 15.4134C17.21 16.1901 18.1977 16.5165 19.0992 16.218L32.6479 11.732C33.5493 11.4336 34.1471 10.5822 34.1218 9.63304L34.0648 7.5936Z" fill="#0F0C14"/>
<path d="M39.0639 6.14675C41.2179 5.43358 43.5536 6.60545 44.2675 8.76164L67.1249 77.7962C67.8381 79.9502 66.6663 82.2859 64.5101 82.9998L36.0605 92.4195C33.9065 93.1327 31.5708 91.9608 30.8569 89.8046L7.99871 20.7678C7.28554 18.6138 8.4574 16.2781 10.6136 15.5642L39.0632 6.14449L39.0639 6.14675ZM38.539 4.56131L10.0894 13.981C7.05442 14.9859 5.40913 18.26 6.41402 21.295L29.2714 90.3296C30.2763 93.3645 33.5504 95.0098 36.5854 94.005L65.0373 84.5845C68.0722 83.5796 69.7175 80.3055 68.7127 77.2705L45.8545 8.23369C44.8473 5.19945 41.574 3.55643 38.539 4.56131Z" fill="#0F0C14"/>
<path d="M15.5694 28.3917C16.8203 27.9776 17.4986 26.6278 17.0844 25.3769C16.6703 24.126 15.3205 23.4477 14.0696 23.8619C12.8187 24.2761 12.1404 25.6259 12.5546 26.8767C12.9688 28.1276 14.3186 28.8059 15.5694 28.3917Z" fill="#DDDDDC"/>
<path d="M15.5694 28.3917C16.8203 27.9776 17.4986 26.6278 17.0844 25.3769C16.6703 24.126 15.3205 23.4477 14.0696 23.8619C12.8187 24.2761 12.1404 25.6259 12.5546 26.8767C12.9688 28.1276 14.3186 28.8059 15.5694 28.3917Z" stroke="#FEFEFE" stroke-width="0.5" stroke-miterlimit="10"/>
<path d="M15.6237 28.5545C14.2851 28.9977 12.835 28.269 12.3918 26.9304C11.9486 25.5919 12.6773 24.1417 14.0159 23.6985C15.3544 23.2553 16.8046 23.984 17.2478 25.3226C17.691 26.6612 16.9623 28.1113 15.6237 28.5545ZM14.0534 23.8118C12.776 24.2347 12.0828 25.6178 12.505 26.8929C12.928 28.1703 14.3088 28.8642 15.5862 28.4413C16.8636 28.0183 17.5575 26.6375 17.1345 25.3601C16.7123 24.085 15.3285 23.3896 14.0534 23.8118Z" fill="#FEFEFE"/>
<path d="M17.1172 27.1304L17.2379 27.495" stroke="#FEFEFE" stroke-width="0.5" stroke-miterlimit="10"/>
<path d="M22.3634 26.1422C23.6143 25.7281 24.2925 24.3783 23.8784 23.1274C23.4642 21.8765 22.1144 21.1982 20.8635 21.6124C19.6127 22.0266 18.9344 23.3763 19.3485 24.6272C19.7627 25.8781 21.1125 26.5564 22.3634 26.1422Z" fill="#DDDDDC"/>
<path d="M22.3634 26.1422C23.6143 25.7281 24.2925 24.3783 23.8784 23.1274C23.4642 21.8765 22.1144 21.1982 20.8635 21.6124C19.6127 22.0266 18.9344 23.3763 19.3485 24.6272C19.7627 25.8781 21.1125 26.5564 22.3634 26.1422Z" stroke="#FEFEFE" stroke-width="0.5" stroke-miterlimit="10"/>
<path d="M29.1578 23.8922C30.4087 23.4781 31.087 22.1283 30.6728 20.8774C30.2586 19.6265 28.9089 18.9482 27.658 19.3624C26.4071 19.7766 25.7288 21.1263 26.143 22.3772C26.5571 23.6281 27.9069 24.3064 29.1578 23.8922Z" fill="#DDDDDC"/>
<path d="M29.1578 23.8922C30.4087 23.4781 31.087 22.1283 30.6728 20.8774C30.2586 19.6265 28.9089 18.9482 27.658 19.3624C26.4071 19.7766 25.7288 21.1263 26.143 22.3772C26.5571 23.6281 27.9069 24.3064 29.1578 23.8922Z" stroke="#FEFEFE" stroke-width="0.5" stroke-miterlimit="10"/>
<path d="M35.9518 21.6427C37.2026 21.2285 37.8809 19.8788 37.4668 18.6279C37.0526 17.377 35.7028 16.6987 34.4519 17.1129C33.201 17.527 32.5228 18.8768 32.9369 20.1277C33.3511 21.3786 34.7009 22.0569 35.9518 21.6427Z" fill="#DDDDDC"/>
<path d="M35.9518 21.6427C37.2026 21.2285 37.8809 19.8788 37.4668 18.6279C37.0526 17.377 35.7028 16.6987 34.4519 17.1129C33.201 17.527 32.5228 18.8768 32.9369 20.1277C33.3511 21.3786 34.7009 22.0569 35.9518 21.6427Z" stroke="#FEFEFE" stroke-width="0.5" stroke-miterlimit="10"/>
<path d="M42.7477 19.3927C43.9985 18.9785 44.6768 17.6288 44.2627 16.3779C43.8485 15.127 42.4987 14.4487 41.2478 14.8629C39.9969 15.277 39.3187 16.6268 39.7328 17.8777C40.147 19.1286 41.4968 19.8069 42.7477 19.3927Z" fill="#DDDDDC"/>
<path d="M42.7477 19.3927C43.9985 18.9785 44.6768 17.6288 44.2627 16.3779C43.8485 15.127 42.4987 14.4487 41.2478 14.8629C39.9969 15.277 39.3187 16.6268 39.7328 17.8777C40.147 19.1286 41.4968 19.8069 42.7477 19.3927Z" stroke="#FEFEFE" stroke-width="0.5" stroke-miterlimit="10"/>
<path d="M48.898 22.745L12.6299 34.7534L24.6383 71.0215L60.9063 59.0131L48.898 22.745Z" fill="#FFCA41"/>
<path d="M51.0244 56.0971L53.1113 51.0039L47.6353 51.5593C47.6353 51.5593 47.7147 51.599 47.6353 51.5593L46.8998 41.7407C45.592 39.9938 36.2411 36.9279 34.0713 37.184L26.8874 42.0781C26.8874 42.0781 26.9071 42.1376 26.8874 42.0781L23.6859 38.107C23.6662 38.0475 23.6662 38.0475 23.6859 38.107L21.599 43.2002C21.2786 43.8347 21.149 44.7417 21.7829 45.6548L29.5031 55.6762C30.811 57.4232 33.8557 58.7376 36.1051 58.5214L48.945 57.4144C50.0201 57.2567 50.7237 56.7912 51.0244 56.0971ZM36.5107 44.5517C37.725 44.4139 39.4415 44.9078 40.0951 45.8804L43.6718 50.985L41.7839 50.9812L41.4048 51.7356L31.5939 48.6952C31.5939 48.6952 32.3718 47.2459 32.352 47.1864L30.4679 45.2947C30.4482 45.2352 30.4082 45.3145 30.4679 45.2947L36.5107 44.5517Z" fill="#FFCA41"/>
<path d="M50.2663 57.6061C49.9672 57.7051 49.4516 57.9421 49.1328 57.9814L35.7261 59.2759C33.3547 59.5303 30.4947 58.3656 29.1241 56.4308L21.2162 45.8427C20.4614 44.7656 20.4046 43.6968 20.8447 42.8213L22.9316 37.7281L23.4984 37.5405L24.2528 37.9196L26.6998 41.5115L33.6961 36.0507L33.8837 36.6174C36.255 36.3631 46.0362 39.6383 47.4667 41.5533L48.0145 50.8051L53.6781 50.8165L53.8658 51.3832L51.7789 56.4764C51.5982 57.1333 51.0438 57.3486 50.2663 57.6061ZM23.4946 39.4284L22.1659 43.0127C21.9456 43.5501 21.6654 44.2025 22.1621 44.9006L30.07 55.4888C31.262 57.0846 33.9248 58.1501 35.9175 57.9548L48.7575 56.8479C49.5944 56.7698 50.6763 56.0481 50.8368 55.5305L52.1655 51.9462L47.823 52.1262L47.0686 51.7471L46.3332 41.9286C44.8821 40.3522 36.243 37.1286 34.0714 37.1842L27.0751 42.645L26.5084 42.8327L23.4946 39.4284ZM41.5926 52.3025C41.473 52.3421 41.185 52.5701 41.0258 52.4901L31.0272 48.883C30.948 48.6439 30.9381 48.3183 31.2186 47.5619C31.2586 47.4823 31.7256 47.394 31.7854 47.3742L29.9013 45.4825L30.2804 44.7281L36.3232 43.9851C37.738 43.8484 39.8275 44.5759 40.6619 45.693L44.4263 51.3642L41.9717 51.5481C41.9317 51.6277 42.0117 51.4685 41.9717 51.5481C41.7514 52.0855 41.8318 52.2233 41.5926 52.3025ZM32.7274 48.3201L41.2173 51.169C41.5176 50.4724 41.2775 50.4538 41.5964 50.4146L42.1631 50.227L39.5284 46.0683C38.9324 45.2704 37.7148 44.9812 36.6985 45.1186L31.2224 45.674L32.3521 47.1866C32.5707 47.4459 33.0277 47.6235 32.7274 48.3201Z" fill="black"/>
<path d="M38.6053 35.6831L25.7654 36.79C23.588 37.0414 22.5503 38.7856 23.8699 40.562L31.7778 51.1501C33.0973 52.9265 36.2023 54.2467 38.3797 53.9953L51.2197 52.8883C53.3971 52.6369 54.4347 50.8927 53.1152 49.1163L45.2073 38.5282C43.8877 36.7518 40.7827 35.4316 38.6053 35.6831ZM46.1341 47.0256C46.8539 47.9945 46.7821 48.966 45.5636 49.1012L38.3873 50.2195C37.2287 50.3348 35.3351 49.2929 34.6153 48.324L30.8509 42.6527C30.1911 41.6639 30.2628 40.6925 31.4215 40.5772L38.5977 39.4589C39.7564 39.3435 41.65 40.3854 42.3697 41.3543L46.1341 47.0256Z" fill="white"/>
<path d="M52.541 53.0798C52.2404 53.1793 51.7282 53.4161 51.4075 53.4551L38.0008 54.7497C35.6157 55.0015 32.8425 53.8468 31.3988 51.9045L23.3033 40.7496C22.5614 39.7179 22.5512 38.5938 22.9318 37.7282C23.3124 36.8627 24.3552 36.3591 25.5779 36.2232L38.9846 34.9287C41.3697 34.6768 44.1428 35.8315 45.5865 37.7738L53.6821 48.9287C54.424 49.9604 54.4342 51.0845 54.0536 51.9501C53.8133 52.6347 53.3226 52.821 52.541 53.0798ZM24.8197 37.732C24.3387 37.8913 24.014 38.2915 23.8738 38.6741C23.6334 39.1571 23.8754 39.6862 24.4368 40.3743L32.3447 50.9625C33.5478 52.5811 36.2681 53.6622 38.1922 53.4285L51.0322 52.3216C51.874 52.2446 52.9513 51.5279 53.1115 51.0042C53.3519 50.5213 53.11 49.9921 52.5486 49.304L44.6407 38.7158C43.4376 37.0973 40.7173 36.0161 38.7931 36.2498L25.3864 37.5444C25.186 37.5435 25.0602 37.6524 24.8197 37.732ZM46.3181 49.4803C46.1378 49.54 45.9518 49.6688 45.7514 49.6679L38.5751 50.7862C37.1521 50.9212 35.5852 50.0436 34.8031 48.8907L30.2843 42.8404C29.8031 42.1929 29.5211 41.7443 29.7214 41.1401C29.9417 40.5966 30.4523 40.0675 31.234 40.0104L38.4102 38.8921C39.8333 38.7571 41.4002 39.6347 42.1822 40.7876L46.701 46.838C47.1823 47.4854 47.4643 47.9341 47.264 48.5382C47.0637 48.9407 46.7991 49.321 46.3181 49.4803ZM31.0425 41.3316C30.8621 41.3913 30.5158 41.4387 30.4758 41.5192C30.3956 41.6802 30.4429 41.8228 30.6634 42.086L35.1822 48.1363C35.7838 48.9456 37.2177 49.709 38.1998 49.6527L45.3761 48.5344C45.7569 48.4756 46.4495 48.3807 46.5096 48.1591C46.5897 47.9981 46.5425 47.8555 46.3219 47.5924L41.8031 41.542C41.2016 40.7327 39.7677 39.9693 38.7855 40.0256L31.6093 41.1439C31.5491 41.1638 31.1628 41.2917 31.0425 41.3316Z" fill="black"/>
<path d="M62.4996 43.2229C62.1264 42.9951 61.6427 43.1121 61.4185 43.4843C61.1898 43.8538 61.3077 44.3412 61.6809 44.5691L66.0359 47.228C66.4091 47.4558 66.8928 47.3388 67.1206 46.9657C67.3457 46.597 67.2278 46.1097 66.8592 45.8846L62.4996 43.2229Z" fill="#010200"/>
<path d="M10.0819 51.9187C10.5014 52.0422 10.9383 51.804 11.0585 51.3864C11.1838 50.9703 10.9438 50.53 10.5244 50.4065L5.62954 48.9654C5.21013 48.8419 4.77316 49.0801 4.64968 49.4995C4.5277 49.9138 4.76769 50.3541 5.18199 50.4761L10.0819 51.9187Z" fill="#010200"/>
<path d="M62.5852 40.0012C62.1646 40.1068 61.7378 39.8493 61.6313 39.4251C61.5257 39.0046 61.7823 38.574 62.2074 38.4712L67.1667 37.2448C67.5872 37.1392 68.015 37.4004 68.1206 37.8209C68.2262 38.2415 67.9687 38.6684 67.5481 38.7739L62.5852 40.0012Z" fill="#010200"/>
<path d="M10.8333 55.0526C11.2122 54.8418 11.6912 54.98 11.9038 55.3622C12.1146 55.7411 11.9782 56.2234 11.5942 56.4327L7.12133 58.9009C6.74245 59.1117 6.26166 58.9702 6.05084 58.5913C5.84001 58.2124 5.97826 57.7334 6.35714 57.5226L10.8333 55.0526Z" fill="#010200"/>
<path d="M60.6846 35.5395C60.4605 35.9118 59.9731 36.0296 59.5999 35.8018C59.2313 35.5767 59.1143 35.093 59.3385 34.7207L62.0002 30.3611C62.2243 29.9889 62.7117 29.871 63.0812 30.0997C63.4498 30.3248 63.5677 30.8122 63.3426 31.1808L60.6846 35.5395Z" fill="#010200"/>
<path d="M13.824 58.8704C13.9442 58.4528 14.3845 58.2128 14.8039 58.3363C15.2182 58.4583 15.4564 58.8953 15.3362 59.3129L13.8936 64.2128C13.7734 64.6304 13.3331 64.8704 12.917 64.7451C12.5027 64.6232 12.2628 64.1829 12.3847 63.7686L13.824 58.8704Z" fill="#010200"/>
</g>
<defs>
<clipPath id="clip0_279_1928">
<rect width="130" height="100" fill="white"/>
</clipPath>
</defs>
</svg>
