<svg width="130" height="100" viewBox="0 0 130 100" fill="none" xmlns="http://www.w3.org/2000/svg">
<g clip-path="url(#clip0_392_3057)">
<path d="M22.654 31.1738H60.2591C68.3524 31.1738 74.913 37.7344 74.913 45.8278V83.4329C74.913 91.5263 68.3524 98.0869 60.2591 98.0869H22.654C14.5606 98.0869 8 91.5263 8 83.4329V45.8278C8 37.7344 14.5606 31.1738 22.654 31.1738Z" fill="black"/>
<path d="M29.4449 79.7408L29.4511 79.7429L27.1633 83.7054C26.3282 85.1518 24.4786 85.6474 23.0322 84.8123C21.586 83.9772 21.0901 82.1277 21.9252 80.6812L23.6106 77.7621L23.7724 77.4819C24.0612 77.0669 24.774 76.3502 26.1998 76.485C26.1998 76.485 29.5552 76.8491 29.798 78.5931C29.798 78.5931 29.8309 79.1668 29.4449 79.7408ZM61.8932 69.6202H54.7592C54.2733 69.5875 54.0613 69.4139 53.9776 69.313L53.9724 69.3039L46.3357 56.0766L46.3258 56.0831L45.8678 55.4265C45.1171 54.2785 43.9253 57.2143 43.9253 57.2143C42.502 60.4858 44.1273 64.2049 44.6937 65.3291L55.301 83.7014C56.1358 85.1477 57.9854 85.6435 59.4321 84.8081C60.8783 83.973 61.3741 82.1235 60.5388 80.677L57.8866 76.083C57.8351 75.9717 57.7457 75.6695 58.2896 75.6682H61.8932C63.5634 75.6682 64.9174 74.3143 64.9174 72.6441C64.9174 70.9739 63.5634 69.6199 61.8932 69.6199V69.6202ZM48.0365 73.7311C48.0365 73.7311 48.4173 75.6682 46.9439 75.6682H20.571C18.9008 75.6682 17.5469 74.3143 17.5469 72.6441C17.5469 70.9739 18.9008 69.6199 20.571 69.6199H27.3512C28.4459 69.5567 28.7051 68.9246 28.7051 68.9246L28.7114 68.9278L37.5617 53.5984L37.5591 53.5979C37.7204 53.3018 37.586 53.0218 37.5628 52.9776L34.6398 47.915C33.8047 46.4688 34.3002 44.619 35.7467 43.7842C37.1932 42.949 39.0427 43.4444 39.8778 44.8908L41.2333 47.2388L42.5865 44.895C43.4216 43.4488 45.2711 42.953 46.7176 43.7883C48.164 44.6234 48.6596 46.4727 47.8245 47.9192L35.5088 69.2503C35.455 69.3802 35.4385 69.5841 35.8392 69.6199H43.2007L43.2023 69.6918C43.2023 69.6918 47.457 69.7579 48.0365 73.7311Z" fill="white"/>
<path d="M59.0508 8.51144C59.0508 3.86635 64.1021 0.983049 68.1018 3.34508L113.25 30.0075C117.182 32.3296 117.182 38.0182 113.25 40.3403L68.1018 67.0027C64.1021 69.3648 59.0508 66.4815 59.0508 61.8364V8.51144Z" fill="#FFCA41"/>
<path d="M62.7695 59.4608V11.1347C62.9347 10.3912 63.6121 8.70602 65 7.91298C66.3878 7.11993 68.0565 7.58254 68.7174 7.91298L110.352 32.1999C110.765 32.4478 111.641 33.3399 111.839 34.926C112.037 36.5121 110.93 37.8999 110.352 38.3956C100.026 44.5086 78.4122 56.2192 72.4347 60.2043C70.2043 61.6913 68.0417 63.0525 66.7347 62.9304C64.5432 62.7258 62.9248 60.651 62.7695 59.4608Z" fill="white"/>
<path d="M94.6829 32.8636L71.1806 9.29828L101.082 26.4641L94.6829 32.8636ZM65.0486 7.91309C63.6634 8.6372 62.7383 9.95765 62.7383 11.6717V58.6643C62.7383 60.3783 63.6652 61.6988 65.0486 62.4229L92.3743 35.162L65.0486 7.91309ZM110.326 31.9367L104.054 28.3059L97.058 35.174L104.054 42.042L110.453 38.4112C112.37 36.8897 112.37 33.4599 110.326 31.9367ZM71.1823 61.0513L101.084 43.8855L94.6846 37.486L71.1823 61.0513Z" fill="black"/>
</g>
<defs>
<clipPath id="clip0_392_3057">
<rect width="130" height="100" fill="white"/>
</clipPath>
</defs>
</svg>
