<svg width="130" height="100" viewBox="0 0 130 100" fill="none" xmlns="http://www.w3.org/2000/svg">
<g clip-path="url(#clip0_392_3016)">
<path d="M26.1168 93.7775H92.4398C96.6322 93.7775 99.9999 90.4098 99.9999 86.2174V29.6538H18.5566V86.2174C18.5566 90.4098 21.9243 93.7775 26.1168 93.7775Z" fill="white" stroke="black" stroke-width="3" stroke-linecap="round" stroke-linejoin="round"/>
<path d="M99.9999 19.8946C99.9999 15.7022 96.6322 12.3345 92.4398 12.3345H26.1168C21.9243 12.3345 18.5566 15.7022 18.5566 19.8946V29.6541H99.9999V19.8946Z" fill="#FFCA41" stroke="black" stroke-width="3" stroke-linecap="round" stroke-linejoin="round"/>
<path d="M71.958 22.1625C71.958 24.0182 70.446 25.5302 68.5904 25.5302C66.7347 25.5302 65.2227 24.0182 65.2227 22.1625C65.2227 20.3068 66.7347 18.8635 68.5904 18.8635C70.446 18.8635 71.958 20.3068 71.958 22.1625Z" fill="black" stroke="black" stroke-miterlimit="10"/>
<path d="M92.7139 22.1626C92.7139 24.0182 91.2019 25.5302 89.3462 25.5302C87.4905 25.5302 85.9785 24.0182 85.9785 22.1626C85.9785 20.3069 87.4905 18.8636 89.3462 18.8636C91.2706 18.7949 92.7139 20.3069 92.7139 22.1626Z" fill="black" stroke="black" stroke-miterlimit="10"/>
<path d="M82.337 22.1626C82.337 24.0182 80.8249 25.5302 78.9693 25.5302C77.1136 25.5302 75.6016 24.0182 75.6016 22.1626C75.6016 20.3069 77.1136 18.8636 78.9693 18.8636C80.8249 18.7949 82.337 20.3069 82.337 22.1626Z" fill="black" stroke="black" stroke-miterlimit="10"/>
<path d="M86.0477 42.8496H32.4395V81.6125H86.0477V42.8496Z" fill="#DDDDDD"/>
<path d="M53.6074 56.664C53.6074 54.3273 56.2191 52.9527 58.1435 54.3273L64.5353 58.7946C66.7346 60.3066 66.7346 63.6056 64.5353 65.1176L58.1435 69.585C56.2191 70.8908 53.6074 69.585 53.6074 67.2482V56.664Z" fill="#FFCA41" stroke="black" stroke-width="3" stroke-linecap="round" stroke-linejoin="round"/>
<path d="M45.4648 82.9639V91.1074H37.3214L11.7276 65.5136L19.8711 57.3701L45.4648 82.9639Z" fill="#FFCA41"/>
<path d="M45.4648 91.1074H45.9648V91.6074H45.4648V91.1074ZM45.4648 82.9639L45.8184 82.6103L45.9648 82.7568V82.9639H45.4648ZM19.8711 57.3701L19.5175 57.0166L19.8711 56.663L20.2246 57.0166L19.8711 57.3701ZM11.7276 65.5136L11.374 65.8671L11.0205 65.5136L11.374 65.16L11.7276 65.5136ZM37.3214 91.1074V91.6074H37.1143L36.9678 91.4609L37.3214 91.1074ZM44.9648 91.1074V82.9639H45.9648V91.1074H44.9648ZM45.1113 83.3175L19.5175 57.7237L20.2246 57.0166L45.8184 82.6103L45.1113 83.3175ZM20.2246 57.7237L12.0811 65.8671L11.374 65.16L19.5175 57.0166L20.2246 57.7237ZM12.0811 65.16L37.6749 90.7538L36.9678 91.4609L11.374 65.8671L12.0811 65.16ZM37.3214 90.6074H45.4648V91.6074H37.3214V90.6074Z" fill="black"/>
<path d="M8.49644 46.0902L15.1211 52.7167L6.97762 60.8602L0.352866 54.2336C0.157649 54.0383 0.157672 53.7218 0.352915 53.5265L7.78928 46.0902C7.98457 45.8949 8.30119 45.8949 8.49644 46.0902Z" fill="black" stroke="black"/>
<path d="M39 90L14 65" stroke="black" stroke-linecap="round" stroke-linejoin="round"/>
</g>
<defs>
<clipPath id="clip0_392_3016">
<rect width="130" height="100" fill="white"/>
</clipPath>
</defs>
</svg>
