<svg width="130" height="100" viewBox="0 0 130 100" fill="none" xmlns="http://www.w3.org/2000/svg">
<path d="M100.194 14.0762H3.87785C1.78687 14.0762 0.0917969 15.7712 0.0917969 17.8622V82.6807C0.0917969 84.7717 1.78687 86.4668 3.87785 86.4668H100.194C102.285 86.4668 103.98 84.7717 103.98 82.6807V17.8622C103.98 15.7712 102.285 14.0762 100.194 14.0762Z" fill="black"/>
<path d="M103.98 17.8621C103.98 17.8621 103.98 17.7867 103.964 17.6392C103.951 17.418 103.917 17.1984 103.862 16.9836C103.655 16.1292 103.154 15.375 102.446 14.8529C102.204 14.6695 101.939 14.5165 101.66 14.3973C101.345 14.2684 101.014 14.1813 100.676 14.1383C100.307 14.1027 99.9358 14.0907 99.565 14.1023H98.3587H92.5403L55.4599 14.1318H29.8525H4.32041C4.00409 14.1217 3.68746 14.1348 3.37307 14.1711C3.06129 14.2129 2.75615 14.2944 2.46508 14.4137C1.87884 14.6575 1.36441 15.0467 0.970324 15.5446C0.573084 16.0447 0.314223 16.6404 0.21967 17.2721C0.17673 17.5903 0.160286 17.9115 0.170502 18.2325V19.2159C0.170502 20.5271 0.170502 21.8448 0.170502 23.1691V31.2264C0.170502 36.6459 0.170502 42.1726 0.170502 47.8063V82.674C0.175236 83.0389 0.228139 83.4015 0.327843 83.7525C0.539433 84.4542 0.953941 85.0777 1.51917 85.5444C2.08439 86.011 2.77506 86.3 3.50419 86.3749C3.86477 86.4011 4.23846 86.3912 4.60887 86.3912H65.284L94.6874 86.4109H99.7977C100.075 86.4181 100.353 86.4105 100.63 86.388C100.901 86.3545 101.168 86.2929 101.427 86.2044C101.938 86.026 102.405 85.7383 102.794 85.3613C103.183 84.9842 103.485 84.5269 103.679 84.0213C103.864 83.5181 103.947 82.9834 103.925 82.4479C103.925 81.9103 103.925 81.3727 103.925 80.8384C103.925 76.5683 103.925 72.473 103.925 68.5526C103.925 52.897 103.948 40.2277 103.954 31.4722C103.954 27.0961 103.954 23.6969 103.954 21.3925C103.954 20.2386 103.954 19.3601 103.954 18.7701C103.954 18.1801 103.954 17.8752 103.954 17.8752C103.954 17.8752 103.954 18.1801 103.954 18.7701C103.954 19.3601 103.954 20.2386 103.954 21.3925C103.954 23.687 103.954 27.0961 103.971 31.4722C103.971 40.2277 103.987 52.897 103.997 68.5526C103.997 72.4664 103.997 76.5617 103.997 80.8384V82.4479C104.018 82.9992 103.931 83.5493 103.741 84.0672C103.542 84.5926 103.229 85.0677 102.826 85.4591C102.423 85.8505 101.938 86.1486 101.407 86.3322C101.14 86.4268 100.863 86.4906 100.581 86.5224C100.3 86.5469 100.018 86.5567 99.7354 86.5519H94.6874H65.2971H32.8125H4.62198C4.24829 86.5519 3.88444 86.5519 3.50091 86.5355C3.12411 86.4919 2.7548 86.3982 2.4028 86.2569C2.04926 86.1094 1.71822 85.913 1.41941 85.6734C1.1274 85.4289 0.8704 85.1454 0.65564 84.8309C0.446955 84.512 0.283677 84.1656 0.170502 83.8017C0.064136 83.4351 0.00789904 83.0557 0.00332553 82.674C0.00332553 70.7324 0.00332553 59.0727 0.00332553 47.8063V31.2264C0.00332553 28.5188 0.00332553 25.8396 0.00332553 23.1888V18.2718C-0.00771154 17.9432 0.00873604 17.6143 0.0524955 17.2885C0.152164 16.6299 0.423498 16.0092 0.839205 15.4888C1.25001 14.9628 1.78973 14.5518 2.40607 14.2957C2.70955 14.1708 3.02801 14.0859 3.35341 14.0433C3.67428 14.0058 3.99754 13.9926 4.32041 14.0039H15.5868H29.8525H55.4599L92.5403 14.0302H98.3587H99.5748C99.9479 14.0198 100.321 14.0329 100.693 14.0695C101.031 14.1139 101.361 14.2032 101.676 14.335C101.957 14.4584 102.223 14.6135 102.469 14.7972C102.878 15.1037 103.22 15.4894 103.476 15.9314C103.658 16.2579 103.79 16.6106 103.866 16.977C103.918 17.192 103.95 17.4116 103.961 17.6326C103.977 17.7867 103.98 17.8621 103.98 17.8621Z" fill="#2C2C2C"/>
<path d="M6.82031 17.41L6.82031 85.2344H93.5782V17.41H6.82031Z" fill="#E6E6E6"/>
<path d="M98.7589 52.756C100.292 52.756 101.535 51.5129 101.535 49.9796C101.535 48.4462 100.292 47.2031 98.7589 47.2031C97.2255 47.2031 95.9824 48.4462 95.9824 49.9796C95.9824 51.5129 97.2255 52.756 98.7589 52.756Z" fill="#DDDDDC"/>
<path d="M3.08203 39.772L3.08203 60.7739C3.08203 60.9948 3.26108 61.1738 3.48194 61.1738H3.82941C4.05027 61.1738 4.22932 60.9948 4.22932 60.7739L4.22932 39.772C4.22932 39.5511 4.05027 39.3721 3.82941 39.3721H3.48194C3.26108 39.3721 3.08203 39.5511 3.08203 39.772Z" fill="#DDDDDC"/>
<path d="M94.2611 84.444C94.2611 83.8572 94.2349 57.4401 94.1923 16.3836L94.2611 16.4557H7.50975L7.59498 16.3705C7.59498 40.9191 7.59498 64.1271 7.59498 84.4308L7.51958 84.3555L94.2611 84.444L7.49336 84.5292H7.41797V84.444C7.41797 64.1402 7.41797 40.9322 7.41797 16.3836V16.2983H7.50975H94.2611H94.3332V16.3672C94.2906 57.4499 94.2611 83.867 94.2611 84.444Z" fill="#2C2C2C"/>
<path d="M87.5085 54.0654H46.3281C45.2236 54.0654 44.3281 54.9609 44.3281 56.0654V76.7867C44.3281 77.8913 45.2236 78.7867 46.3281 78.7867H87.5085C88.613 78.7867 89.5085 77.8913 89.5085 76.7867V56.0654C89.5085 54.9609 88.613 54.0654 87.5085 54.0654Z" fill="white"/>
<path d="M65.6403 68.5571H62.2305V76.2293H65.6403V68.5571Z" fill="#FFCA41"/>
<path d="M50.2957 66.8525H47.7383V76.2296H50.2957V66.8525Z" fill="#FFCA41"/>
<path d="M54.5583 64.2949H51.1484V76.2293H54.5583V64.2949Z" fill="#FFCA41"/>
<path d="M57.9675 64.2949H55.4102V76.2293H57.9675V64.2949Z" fill="#FFCA41"/>
<path d="M61.3768 61.7378H59.6719V76.2296H61.3768V61.7378Z" fill="#FFCA41"/>
<path d="M69.0487 61.7378H67.3438V76.2296H69.0487V61.7378Z" fill="#FFCA41"/>
<path d="M72.4597 66.8525H69.9023V76.2296H72.4597V66.8525Z" fill="#FFCA41"/>
<path d="M76.7214 62.5898H74.1641V76.2292H76.7214V62.5898Z" fill="#FFCA41"/>
<path d="M80.9841 59.1802H77.5742V76.2294H80.9841V59.1802Z" fill="#FFCA41"/>
<path d="M84.3933 62.5898H81.8359V76.2292H84.3933V62.5898Z" fill="#FFCA41"/>
<path d="M12.2305 53.2129C11.1259 53.2129 10.2305 54.1083 10.2305 55.2129V76.833C10.2305 77.9376 11.1259 78.833 12.2305 78.833H13.3321H17.6008H35.4924C36.597 78.833 37.4924 77.9376 37.4924 76.833V55.2129C37.4924 54.1083 36.597 53.2129 35.4924 53.2129H12.2305Z" fill="white"/>
<path d="M23.6962 55.7705C21.7082 55.7705 19.7648 56.36 18.1118 57.4645C16.4588 58.569 15.1705 60.1389 14.4097 61.9756C13.6489 63.8123 13.4498 65.8333 13.8377 67.7832C14.2255 69.733 15.1829 71.524 16.5886 72.9298C17.9944 74.3356 19.7854 75.2929 21.7352 75.6807C23.6851 76.0686 25.7061 75.8695 27.5428 75.1087C29.3795 74.3479 30.9494 73.0596 32.0539 71.4066C33.1584 69.7536 33.7479 67.8102 33.7479 65.8222C33.7479 63.1563 32.6889 60.5996 30.8038 58.7146C28.9188 56.8295 26.3621 55.7705 23.6962 55.7705ZM23.8475 71.8456C22.6267 71.8456 21.4332 71.4837 20.418 70.8056C19.4028 70.1276 18.6113 69.1638 18.1437 68.036C17.6761 66.9083 17.5532 65.6673 17.7907 64.4697C18.0282 63.2722 18.6154 62.172 19.478 61.308C20.3406 60.4441 21.4399 59.8553 22.6371 59.616C23.8342 59.3766 25.0755 59.4976 26.2039 59.9635C27.3324 60.4294 28.2974 61.2193 28.977 62.2335C29.6567 63.2477 30.0204 64.4406 30.0222 65.6614C30.0235 66.4731 29.8647 67.2771 29.5549 68.0273C29.2452 68.7776 28.7906 69.4594 28.2171 70.0337C27.6436 70.6081 26.9624 71.0638 26.2127 71.3747C25.4629 71.6856 24.6592 71.8456 23.8475 71.8456Z" fill="#2C2C2C"/>
<path d="M23.8516 55.7754V59.5152C24.8212 59.5171 25.7767 59.7471 26.641 60.1867C27.5053 60.6262 28.254 61.263 28.8266 62.0455C29.3991 62.8279 29.7796 63.7342 29.9371 64.6909C30.0946 65.6477 30.0247 66.628 29.7332 67.5528L33.3784 68.5409C33.7931 67.0592 33.8623 65.5021 33.5806 63.9894C33.2989 62.4768 32.6739 61.049 31.7536 59.8158C30.8333 58.5827 29.6424 57.5772 28.2724 56.8767C26.9025 56.1763 25.39 55.7995 23.8516 55.7754Z" fill="#FFCA41"/>
<path d="M17.6736 65.6616C17.6733 64.4684 18.0188 63.3006 18.6683 62.2996C19.3177 61.2986 20.2433 60.5072 21.333 60.0211L19.787 56.5508C17.9651 57.319 16.4102 58.6074 15.317 60.2549C14.2237 61.9024 13.6406 63.8357 13.6406 65.8129C13.6406 65.9547 13.6406 66.0966 13.6406 66.2337H17.6878C17.6735 66.0433 17.6688 65.8524 17.6736 65.6616Z" fill="#8F8F8F"/>
<path d="M23.8767 71.8536C23.4438 71.8547 23.0121 71.8077 22.5895 71.7134C22.4356 72.6015 22.1232 74.3169 21.918 75.6678C22.5149 75.7784 23.1205 75.8347 23.7275 75.8361C25.8916 75.836 27.9963 75.1265 29.7207 73.816C31.4451 72.5054 32.6946 70.6655 33.2786 68.5769L29.683 67.6094C29.2893 68.8425 28.5146 69.9183 27.4709 70.6812C26.4272 71.4441 25.1685 71.8547 23.8767 71.8536Z" fill="#FFCA41"/>
<path d="M9.96445 45.1408L9.83398 44.7703L21.5484 40.6669L33.3933 32.6927L45.1788 36.5911L57.0514 28.7825L68.9437 28.751L68.9951 28.7865L80.2905 36.7409L91.2379 29.5314L91.4553 29.8626L80.2825 37.2218L80.1719 37.143L68.8172 29.1452L57.17 29.1767L45.2382 37.0247L33.4526 33.1303L21.7065 41.0295L9.96445 45.1408Z" fill="#FFCA41" stroke="#FFCA41" stroke-width="2"/>
<path d="M80.2832 40.8791L68.7279 33.0551H56.816L44.8962 25.2193L33.3408 25.1167L21.5359 37.0203H9.83398V36.6258H21.3695L33.1784 24.7182L45.019 24.8247L56.9348 32.6605H68.8467L80.1525 40.3109L91.4385 20.5557L91.7831 20.749L80.2832 40.8791Z" fill="#8F8F8F" stroke="#8F8F8F"/>
</svg>
