<svg width="130" height="100" viewBox="0 0 130 100" fill="none" xmlns="http://www.w3.org/2000/svg">
<path d="M101 14.7347V83.3589C101 84.316 100.223 85.0937 99.2653 85.0937H1.73472C0.777651 85.0937 0 84.3166 0 83.3589V14.7347C0 13.7777 0.777051 13 1.73472 13H99.2653C100.222 13 101 13.7777 101 14.7347Z" fill="black"/>
<path d="M97.9319 18.7363H3.06787V76.2448H97.9319V18.7363Z" fill="white"/>
<path d="M97.9314 15.1602H3.06738V18.7364H97.9314V15.1602Z" fill="white"/>
<path d="M98.0682 18.8721H2.93115V15.0234H98.0676V18.8721H98.0682ZM3.20417 18.5997H97.7952V15.2965H3.20417V18.5997Z" fill="black"/>
<path d="M7.52742 17.7736C7.072 17.7736 6.70117 17.4028 6.70117 16.9473C6.70117 16.4919 7.072 16.1211 7.52742 16.1211C7.98285 16.1211 8.35367 16.4919 8.35367 16.9473C8.35367 17.4028 7.98285 17.7736 7.52742 17.7736ZM7.52742 16.3941C7.22261 16.3941 6.97419 16.6425 6.97419 16.9473C6.97419 17.2522 7.22261 17.5006 7.52742 17.5006C7.83284 17.5006 8.08066 17.2522 8.08066 16.9473C8.08126 16.6425 7.83284 16.3941 7.52742 16.3941Z" fill="black"/>
<path d="M10.2867 17.7736C9.83128 17.7736 9.46045 17.4028 9.46045 16.9473C9.46045 16.4919 9.83128 16.1211 10.2867 16.1211C10.7421 16.1211 11.113 16.4919 11.113 16.9473C11.113 17.4028 10.7421 17.7736 10.2867 17.7736ZM10.2867 16.3941C9.98189 16.3941 9.73347 16.6425 9.73347 16.9473C9.73347 17.2522 9.98189 17.5006 10.2867 17.5006C10.5915 17.5006 10.8399 17.2522 10.8399 16.9473C10.8399 16.6425 10.5921 16.3941 10.2867 16.3941Z" fill="black"/>
<path d="M13.045 17.7736C12.5896 17.7736 12.2188 17.4028 12.2188 16.9473C12.2188 16.4919 12.5896 16.1211 13.045 16.1211C13.5004 16.1211 13.8713 16.4919 13.8713 16.9473C13.8713 17.4028 13.501 17.7736 13.045 17.7736ZM13.045 16.3941C12.7402 16.3941 12.4918 16.6425 12.4918 16.9473C12.4918 17.2522 12.7402 17.5006 13.045 17.5006C13.3498 17.5006 13.5982 17.2522 13.5982 16.9473C13.5988 16.6425 13.3504 16.3941 13.045 16.3941Z" fill="black"/>
<path d="M55.3846 81.5673H45.6141C45.0045 81.5673 44.5059 81.0687 44.5059 80.4591V79.7972C44.5059 79.1876 45.0045 78.689 45.6141 78.689H55.3846C55.9942 78.689 56.4929 79.1876 56.4929 79.7972V80.4591C56.4929 81.0687 55.9942 81.5673 55.3846 81.5673Z" fill="white"/>
<path d="M55.2334 81.7035H45.7653C44.9955 81.7035 44.3696 81.0771 44.3696 80.3079V79.9484C44.3696 79.1786 44.9961 78.5527 45.7653 78.5527H55.2334C56.0032 78.5527 56.6291 79.1792 56.6291 79.9484V80.3079C56.6297 81.0777 56.0032 81.7035 55.2334 81.7035ZM45.7653 78.8246C45.1461 78.8246 44.642 79.3286 44.642 79.9478V80.3073C44.642 80.9265 45.1461 81.4305 45.7653 81.4305H55.2334C55.8526 81.4305 56.3566 80.9265 56.3566 80.3073V79.9478C56.3566 79.3286 55.8526 78.8246 55.2334 78.8246H45.7653Z" fill="black"/>
<path d="M61.9552 25.7119H39.0444V28.1109H61.9552V25.7119Z" fill="#767676"/>
<path d="M32.7345 40.1064H9.82373V59.0296H32.7345V40.1064Z" fill="#DDDDDD"/>
<path d="M61.8468 40.1064H38.936V59.0296H61.8468V40.1064Z" fill="#DDDDDD"/>
<path d="M90.9591 40.1064H68.0483V59.0296H90.9591V40.1064Z" fill="#DDDDDD"/>
<path d="M47.2397 51.6485C46.2712 51.4169 45.3988 51.4547 44.6103 51.7439C44.0895 51.9347 43.604 52.2377 43.1564 52.647L41.3755 48.5175C41.9947 48.4083 42.5594 48.2229 43.0694 47.9528C43.8087 47.5628 44.4249 46.9982 44.9049 46.2319L47.2397 51.6485Z" fill="black"/>
<path d="M43.162 52.643L41.3823 48.5142L15.1611 60.9614L16.1086 63.1594L43.162 52.643L41.3823 48.5142L43.162 52.643Z" fill="black"/>
<path d="M47.2396 51.6485C46.2711 51.4169 45.3987 51.4547 44.6102 51.7439L43.0693 47.9528C43.8086 47.5628 44.4248 46.9982 44.9049 46.2319L47.2396 51.6485Z" fill="black"/>
<path d="M67.661 53.8085C73.1314 48.3381 73.1316 39.469 67.6614 33.9989C62.1912 28.5287 53.3222 28.5289 47.8518 33.9993C42.3814 39.4697 42.3812 48.3387 47.8514 53.8089C53.3215 59.2791 62.1906 59.2789 67.661 53.8085Z" fill="black"/>
<path d="M66.0079 52.1558C70.5654 47.5983 70.5654 40.2093 66.0079 35.6518C61.4505 31.0944 54.0614 31.0944 49.5039 35.6518C44.9465 40.2093 44.9465 47.5983 49.5039 52.1558C54.0614 56.7132 61.4505 56.7132 66.0079 52.1558Z" fill="white"/>
<path fill-rule="evenodd" clip-rule="evenodd" d="M65.4325 52.6947V36.937H48.3921C44.9829 41.5069 45.3536 48.0058 49.504 52.1563C53.8743 56.5266 60.8484 56.706 65.4325 52.6947Z" fill="#FFCA41"/>
</svg>
