<svg width="669" height="544" viewBox="0 0 669 544" fill="none" xmlns="http://www.w3.org/2000/svg">
<path d="M327.438 46.1895L317.881 40.2731L316.06 43.1858C315.514 44.005 314.513 44.5511 313.511 44.4601C312.965 44.3691 312.419 44.3691 311.782 44.3691C310.781 44.3691 309.871 43.823 309.324 43.0037L307.686 40L297.765 45.3703L299.403 48.3741C299.858 49.2843 299.767 50.3766 299.221 51.1958C298.857 51.6509 298.584 52.106 298.311 52.6522C297.856 53.5624 296.854 54.1085 295.853 54.1085L292.485 53.8355L292.121 65.1223L295.58 65.2133C296.581 65.2133 297.491 65.8505 297.947 66.7607C298.038 67.0338 298.22 67.2158 298.311 67.4889C298.402 67.7619 298.584 67.944 298.766 68.2171C299.312 69.1273 299.312 70.1285 298.766 71.0388L296.945 73.9515L306.503 79.868L308.323 76.9552C308.869 76.136 309.871 75.5899 310.872 75.6809C311.418 75.7719 311.964 75.7719 312.51 75.7719C313.511 75.7719 314.422 76.3181 314.968 77.1373L316.606 80.141L326.528 74.7707L324.889 71.7669C324.434 70.8567 324.525 69.7644 325.071 68.9452C325.435 68.4901 325.708 68.035 325.982 67.4889C326.437 66.5786 327.438 66.0325 328.439 66.0325L331.898 66.1235L332.262 54.8367L328.803 54.7457C327.802 54.7457 326.892 54.1085 326.437 53.1983C326.346 52.9252 326.164 52.7432 326.073 52.4701C325.982 52.197 325.8 52.015 325.617 51.7419C325.071 50.8317 325.071 49.8305 325.617 48.9202L327.438 46.1895ZM320.338 55.7469C322.705 60.207 321.066 65.8505 316.606 68.2171C312.146 70.5836 306.503 68.9452 304.136 64.4851C301.77 60.025 303.408 54.3816 307.959 51.924C312.328 49.5574 317.881 51.2868 320.338 55.7469Z" fill="#EBEBEB"/>
<path d="M297.944 100.348L294.03 93.5211L291.936 94.7044C291.299 95.0685 290.571 95.0685 289.934 94.6134C289.57 94.4313 289.297 94.1582 288.933 94.0672C288.296 93.7031 287.931 93.066 287.931 92.4288V89.9712H280.013V92.4288C280.013 93.157 279.648 93.7941 279.011 94.0672C278.647 94.2493 278.283 94.4313 278.01 94.6134C277.373 94.9774 276.645 95.0685 276.008 94.7044L273.914 93.5211L270 100.348L272.094 101.531C272.731 101.895 273.095 102.532 273.004 103.261C273.004 103.443 273.004 103.625 273.004 103.807C273.004 103.989 273.004 104.171 273.004 104.353C273.004 105.081 272.731 105.718 272.094 106.082L270 107.266L273.914 114.092L276.008 112.909C276.645 112.545 277.373 112.545 278.01 113C278.374 113.182 278.647 113.455 279.011 113.546C279.648 113.91 280.013 114.547 280.013 115.184V117.642H287.931V115.184C287.931 114.456 288.296 113.819 288.933 113.546C289.297 113.364 289.661 113.182 289.934 113C290.571 112.636 291.299 112.545 291.936 112.909L294.03 114.092L297.944 107.266L295.85 106.082C295.213 105.718 294.94 105.081 294.94 104.353C294.94 104.171 294.94 103.989 294.94 103.807C294.94 103.625 294.94 103.443 294.94 103.261C294.94 102.532 295.213 101.895 295.85 101.531L297.944 100.348ZM290.389 103.898C290.389 107.448 287.476 110.36 283.926 110.36C280.377 110.36 277.464 107.448 277.464 103.898C277.464 100.348 280.377 97.4351 283.926 97.4351C287.567 97.4351 290.389 100.348 290.389 103.898Z" fill="#EBEBEB"/>
<path d="M580.328 293.31L576.414 286.483L574.32 287.667C573.683 288.031 572.955 288.031 572.318 287.576C571.954 287.394 571.681 287.121 571.317 287.03C570.68 286.666 570.315 286.028 570.315 285.391V282.934H562.305V285.391C562.305 286.119 561.941 286.757 561.304 287.03C560.94 287.212 560.576 287.394 560.303 287.576C559.666 287.94 558.938 288.031 558.3 287.667L556.207 286.483L552.293 293.31L554.386 294.493C555.024 294.858 555.388 295.495 555.297 296.223C555.297 296.405 555.297 296.587 555.297 296.769C555.297 296.951 555.297 297.133 555.297 297.315C555.297 298.043 555.024 298.681 554.386 299.045L552.293 300.228L556.207 307.055L558.3 305.871C558.938 305.507 559.666 305.507 560.303 305.962C560.667 306.144 560.94 306.417 561.304 306.508C561.941 306.873 562.305 307.51 562.305 308.147V310.605H570.224V308.147C570.224 307.419 570.589 306.782 571.226 306.508C571.59 306.326 571.954 306.144 572.227 305.962C572.864 305.598 573.592 305.507 574.229 305.871L576.323 307.055L580.237 300.228L578.143 299.045C577.506 298.681 577.233 298.043 577.233 297.315C577.233 297.133 577.233 296.951 577.233 296.769C577.233 296.587 577.233 296.405 577.233 296.223C577.233 295.495 577.506 294.858 578.143 294.493L580.328 293.31ZM572.773 296.86C572.773 300.41 569.86 303.323 566.31 303.323C562.761 303.323 559.848 300.41 559.848 296.86C559.848 293.31 562.761 290.397 566.31 290.397C569.86 290.397 572.773 293.31 572.773 296.86Z" fill="#EBEBEB"/>
<path d="M493.418 149.151C487.78 155.421 483.36 162.387 480.008 170.117C479.9 170.077 479.792 170.037 479.683 169.997C473.09 167.557 466.605 165.158 460.012 162.718C459.904 162.678 459.796 162.638 459.796 162.638L459.996 162.098C460.304 161.597 460.504 161.057 460.772 160.664C461.988 158.042 463.38 155.608 465.028 153.146C467.709 149.223 470.742 145.675 474.059 142.356C474.247 142.18 474.395 142.112 474.611 142.192C480.772 144.471 486.825 146.711 492.986 148.991L493.418 149.151Z" fill="#EBEBEB"/>
<path d="M473.933 199.818L473.609 199.698C467.556 197.459 461.503 195.219 455.45 192.979C455.234 192.899 455.166 192.751 455.138 192.495C454.616 187.264 454.862 181.948 455.689 176.724C456.137 174.187 456.692 171.689 457.464 169.271C457.504 169.163 457.504 169.163 457.544 169.055L457.744 168.514C457.852 168.554 457.96 168.594 458.068 168.634C464.554 171.034 471.039 173.433 477.632 175.873C477.956 175.993 477.956 175.993 477.836 176.317C477.344 177.979 476.853 179.64 476.469 181.341C475.725 184.015 475.238 186.661 474.818 189.455C474.307 192.83 474.092 196.068 474.053 199.494C474.013 199.602 473.973 199.71 473.933 199.818Z" fill="#EBEBEB"/>
<path d="M549.702 234.491C549.554 234.559 549.514 234.667 549.474 234.775C547.081 236.593 544.404 238.183 541.659 239.624C538.429 241.379 534.955 242.797 531.345 243.919C527.883 244.972 524.285 245.73 520.59 246.083C517.004 246.477 513.538 246.546 509.975 246.211C507.209 246.048 504.415 245.628 501.701 244.992C501.485 244.912 501.121 244.901 500.905 244.821L500.472 244.661C500.404 244.513 500.336 244.364 500.16 244.176C500.416 244.148 500.564 244.08 500.82 244.052C507.989 242.281 514.612 239.325 520.651 235.292C524.081 232.997 527.266 230.367 530.275 227.548C530.463 227.372 530.611 227.304 530.827 227.384C536.988 229.663 543.257 231.983 549.418 234.262L549.742 234.382L549.702 234.491Z" fill="#EBEBEB"/>
<path d="M543.778 193.713L517.729 184.074L526.168 161.268C526.276 161.308 526.384 161.348 526.492 161.388C533.194 163.868 539.787 166.307 546.488 168.787C546.704 168.867 546.772 169.015 546.84 169.163C547.078 174.166 546.844 179.118 546.028 183.977C545.581 186.515 545.025 189.013 544.322 191.579C544.15 192.376 543.91 193.024 543.778 193.713Z" fill="#EBEBEB"/>
<path d="M541.326 199.685C541.126 200.226 540.926 200.766 540.618 201.267C540.03 202.524 539.482 203.673 538.786 204.89C537.93 206.539 536.966 208.148 536.002 209.758C533.845 213.261 531.296 216.496 528.532 219.651C528.343 219.827 528.195 219.895 527.979 219.815C521.17 217.296 514.36 214.776 507.443 212.216L507.119 212.096L515.277 190.047L541.326 199.685Z" fill="#EBEBEB"/>
<path d="M520.252 159.324L511.813 182.13L486.413 172.732C486.613 172.191 486.961 171.583 487.161 171.042C487.749 169.785 488.337 168.528 488.993 167.419C490.037 165.594 491.081 163.768 492.194 162.091C494.498 158.52 497.047 155.285 500.028 152.21C500.216 152.034 500.364 151.965 500.58 152.045C507.065 154.445 513.55 156.845 519.927 159.204L520.252 159.324Z" fill="#EBEBEB"/>
<path d="M509.533 188.291C506.894 195.425 504.254 202.558 501.615 209.692L501.495 210.016L501.17 209.896C494.469 207.417 487.876 204.977 481.174 202.497C480.958 202.418 480.89 202.269 480.862 202.013C480.709 197.778 480.959 193.447 481.643 189.276C481.97 187.063 482.514 184.929 482.909 182.864C483.173 181.487 483.693 180.082 484.065 178.745L484.105 178.636C484.213 178.676 484.321 178.716 484.429 178.756C492.752 181.836 500.966 184.875 509.289 187.955C509.545 187.927 509.653 187.967 509.533 188.291Z" fill="#EBEBEB"/>
<path d="M571.3 204.019L550.007 196.141C552.494 188.09 553.712 179.816 553.514 171.387L553.838 171.507C560.323 173.906 566.916 176.346 573.401 178.746C573.618 178.826 573.686 178.974 573.714 179.23C574.304 184.609 574.165 189.965 573.299 195.297C572.879 198.091 572.204 200.913 571.42 203.695C571.38 203.803 571.34 203.911 571.3 204.019Z" fill="#EBEBEB"/>
<path d="M569.182 209.748C568.982 210.288 568.822 210.72 568.514 211.221C567.686 213.126 566.75 214.992 565.746 216.709C563.349 220.861 560.384 224.556 557.135 228.024C556.571 228.552 556.007 229.081 555.551 229.649C555.403 229.717 555.363 229.826 555.146 229.746C548.661 227.346 542.068 224.906 535.583 222.507C535.475 222.467 535.475 222.467 535.367 222.427C535.823 221.858 536.279 221.29 536.775 220.613C539.204 217.702 541.348 214.564 543.209 211.197C544.601 208.763 545.885 206.289 546.953 203.735C547.193 203.086 547.501 202.586 547.741 201.937C547.821 201.721 547.821 201.721 548.037 201.801C548.145 201.841 548.145 201.841 548.253 201.881L569.222 209.64L569.182 209.748Z" fill="#EBEBEB"/>
<path d="M572.28 171.817C572.28 171.817 572.172 171.777 572.28 171.817L571.916 171.805C565.647 169.486 559.486 167.206 553.217 164.886C553.001 164.806 552.933 164.658 552.865 164.51C552.218 158.619 550.872 152.959 548.649 147.344C547.367 144.166 545.789 141.125 543.954 138.111C543.017 136.658 542.08 135.206 541.103 133.861C540.995 133.821 541.035 133.713 540.967 133.565C541.115 133.497 541.223 133.537 541.263 133.429C541.303 133.321 541.235 133.173 541.315 132.956C547.628 136.153 553.326 140.35 558.042 145.536C565.049 153.167 569.835 161.819 572.28 171.817Z" fill="#EBEBEB"/>
<path d="M486.501 239.245C486.285 239.165 486.029 239.193 485.921 239.153C483.947 238.177 482.054 236.985 480.308 235.725C476.885 233.352 473.798 230.735 470.979 227.726C467.7 224.301 464.945 220.455 462.634 216.405C461.016 213.471 459.546 210.47 458.48 207.372C457.647 204.975 456.962 202.509 456.493 200.124C456.493 200.124 456.533 200.016 456.465 199.868L456.789 199.988C462.626 202.147 468.354 204.267 474.191 206.427C474.407 206.507 474.475 206.655 474.503 206.911C474.981 211.266 475.755 215.484 477.041 219.647C478.191 223.513 479.677 227.135 481.419 230.729C482.889 233.73 484.547 236.556 486.501 239.245C486.433 239.097 486.433 239.097 486.501 239.245Z" fill="#EBEBEB"/>
<path d="M527.238 128.485C526.282 128.746 525.069 129.035 523.925 129.471C520.018 130.729 516.248 132.283 512.614 134.134C507.756 136.637 503.17 139.733 499.072 143.5C498.844 143.785 498.548 143.921 498.32 144.205C498.28 144.313 498.064 144.233 498.024 144.341C497.699 144.221 497.375 144.101 497.051 143.981L480.081 137.702C494.552 127.819 510.158 124.5 527.29 128.013C527.25 128.121 527.142 128.081 527.102 128.189C527.102 128.189 527.17 128.337 527.238 128.485Z" fill="#EBEBEB"/>
<path d="M523.44 224.773C519.502 228.108 515.144 230.919 510.474 233.246C506.395 235.301 502.113 236.911 497.558 237.929L504.957 217.934L523.44 224.773Z" fill="#EBEBEB"/>
<path d="M499.337 215.854L492.098 235.417C486.56 227.47 483.123 218.825 481.719 209.335L499.337 215.854Z" fill="#EBEBEB"/>
<path d="M545.946 161.951L528.22 155.392L535.139 136.693C537.934 140.431 540.136 144.441 542.003 148.695C543.87 152.95 545.076 157.328 545.946 161.951Z" fill="#EBEBEB"/>
<path d="M529.171 135.221L522.412 153.488L505.442 147.209C512.417 141.311 520.209 137.189 529.171 135.221Z" fill="#EBEBEB"/>
<path d="M80.4291 394.254C78.6087 406.997 67.5949 416.737 54.3966 416.737C39.833 416.737 28 404.904 28 390.34C28 375.776 39.833 363.943 54.3966 363.943V390.34L80.4291 394.254Z" fill="#DBDBDB"/>
<path d="M86.0732 384.97C86.0732 386.244 85.9821 387.61 85.8001 388.793L59.7676 384.97V358.573C69.507 358.573 78.0632 363.944 82.6143 371.863C84.7988 375.777 86.0732 380.237 86.0732 384.97Z" fill="#EBEBEB"/>
<path d="M95.8104 404.539H67.7754V405.449H95.8104V404.539Z" fill="#C7C7C7"/>
<path d="M97.7213 407.361C96.3559 407.361 95.2637 406.269 95.2637 404.903C95.2637 403.538 96.3559 402.446 97.7213 402.446C99.0866 402.446 100.179 403.538 100.179 404.903C100.179 406.269 99.0866 407.361 97.7213 407.361ZM97.7213 403.447C96.9021 403.447 96.1739 404.084 96.1739 404.994C96.1739 405.814 96.8111 406.542 97.7213 406.542C98.5405 406.542 99.2687 405.905 99.2687 404.994C99.2687 404.175 98.5405 403.447 97.7213 403.447Z" fill="#C7C7C7"/>
<path d="M126.669 403.538H104.914V404.539H126.669V403.538Z" fill="#C7C7C7"/>
<path d="M117.202 405.449H104.914V406.45H117.202V405.449Z" fill="#C7C7C7"/>
<path d="M146.472 163.829H137.916V224.905H146.472V163.829Z" fill="#EBEBEB"/>
<path d="M161.218 178.574H152.662V224.905H161.218V178.574Z" fill="#EBEBEB"/>
<path d="M175.964 201.694H167.408V224.814H175.964V201.694Z" fill="#EBEBEB"/>
<path d="M190.708 188.496H182.152V224.905H190.708V188.496Z" fill="#EBEBEB"/>
<path d="M205.455 174.66H196.898V224.904H205.455V174.66Z" fill="#EBEBEB"/>
<path d="M220.201 166.468H211.645V224.904H220.201V166.468Z" fill="#EBEBEB"/>
<path d="M132.911 156L133.002 173.203L133.093 190.407L133.184 224.813L133.002 224.631C140.921 224.631 148.749 224.631 156.668 224.631L180.334 224.722L204 224.813L227.666 224.904L204 224.995L180.334 225.086L156.668 225.177C148.749 225.177 140.921 225.177 133.002 225.177H132.82V224.995L132.911 190.589L133.002 173.385L132.911 156Z" fill="#EBEBEB"/>
<path d="M131 159.459C131.637 159.277 132.274 159.186 132.911 159.186C133.549 159.186 134.186 159.277 134.823 159.459C134.186 159.641 133.549 159.732 132.911 159.732C132.274 159.732 131.637 159.641 131 159.459Z" fill="#EBEBEB"/>
<path d="M131 164.738C131.637 164.556 132.274 164.465 132.911 164.465C133.549 164.465 134.186 164.556 134.823 164.738C134.186 164.92 133.549 165.011 132.911 165.011C132.274 164.92 131.637 164.92 131 164.738Z" fill="#EBEBEB"/>
<path d="M131 169.926C131.637 169.744 132.274 169.653 132.911 169.653C133.549 169.653 134.186 169.744 134.823 169.926C134.186 170.108 133.549 170.199 132.911 170.199C132.274 170.199 131.637 170.108 131 169.926Z" fill="#EBEBEB"/>
<path d="M131 175.205C131.637 175.023 132.274 174.932 132.911 174.932C133.549 174.932 134.186 175.023 134.823 175.205C134.186 175.387 133.549 175.478 132.911 175.478C132.274 175.387 131.637 175.387 131 175.205Z" fill="#EBEBEB"/>
<path d="M131 180.394C131.637 180.212 132.274 180.121 132.911 180.121C133.549 180.121 134.186 180.212 134.823 180.394C134.186 180.576 133.549 180.667 132.911 180.667C132.274 180.667 131.637 180.576 131 180.394Z" fill="#EBEBEB"/>
<path d="M131 185.673C131.637 185.491 132.274 185.4 132.911 185.4C133.549 185.4 134.186 185.491 134.823 185.673C134.186 185.856 133.549 185.947 132.911 185.947C132.274 185.856 131.637 185.856 131 185.673Z" fill="#EBEBEB"/>
<path d="M131 190.862C131.637 190.68 132.274 190.589 132.911 190.589C133.549 190.589 134.186 190.68 134.823 190.862C134.186 191.044 133.549 191.135 132.911 191.135C132.274 191.135 131.637 191.044 131 190.862Z" fill="#EBEBEB"/>
<path d="M131 196.141C131.637 195.959 132.274 195.868 132.911 195.868C133.549 195.868 134.186 195.959 134.823 196.141C134.186 196.323 133.549 196.414 132.911 196.414C132.274 196.323 131.637 196.323 131 196.141Z" fill="#EBEBEB"/>
<path d="M131 201.329C131.637 201.147 132.274 201.056 132.911 201.056C133.549 201.056 134.186 201.147 134.823 201.329C134.186 201.511 133.549 201.602 132.911 201.602C132.274 201.602 131.637 201.511 131 201.329Z" fill="#EBEBEB"/>
<path d="M131 206.609C131.637 206.426 132.274 206.335 132.911 206.335C133.549 206.335 134.186 206.426 134.823 206.609C134.186 206.791 133.549 206.882 132.911 206.882C132.274 206.791 131.637 206.791 131 206.609Z" fill="#EBEBEB"/>
<path d="M131 211.797C131.637 211.615 132.274 211.524 132.911 211.524C133.549 211.524 134.186 211.615 134.823 211.797C134.186 211.979 133.549 212.07 132.911 212.07C132.274 212.07 131.637 211.979 131 211.797Z" fill="#EBEBEB"/>
<path d="M131 217.076C131.637 216.894 132.274 216.803 132.911 216.803C133.549 216.803 134.186 216.894 134.823 217.076C134.186 217.258 133.549 217.349 132.911 217.349C132.274 217.258 131.637 217.258 131 217.076Z" fill="#EBEBEB"/>
<path d="M28.5469 444.044L103.277 443.862L178.006 443.771L327.557 443.589L477.016 443.771L551.746 443.862L626.475 444.044L551.746 444.317H477.016L327.557 444.499L178.006 444.317H103.277L28.5469 444.044Z" fill="#263238"/>
<path d="M526.895 216.214H179.461V448.686H526.895V216.214Z" fill="#DBDBDB"/>
<path d="M524.439 219.127H182.012V445.865H524.439V219.127Z" fill="#263238"/>
<path d="M572.226 466.071H134.225V482H572.226V466.071Z" fill="#C7C7C7"/>
<path d="M134.225 466.071L179.463 448.686H526.897L572.226 466.071H134.225Z" fill="#DBDBDB"/>
<path d="M183.467 459.973L212.685 448.686H493.672L522.891 459.973H183.467Z" fill="#263238"/>
<path d="M505.052 236.33H201.309V428.661H505.052V236.33Z" fill="white"/>
<path d="M505.051 236.33H201.035V243.702H505.051V236.33Z" fill="black"/>
<path d="M205.131 241.883C206.136 241.883 206.951 241.068 206.951 240.062C206.951 239.057 206.136 238.242 205.131 238.242C204.126 238.242 203.311 239.057 203.311 240.062C203.311 241.068 204.126 241.883 205.131 241.883Z" fill="#C7C7C7"/>
<path d="M212.594 241.883C213.599 241.883 214.414 241.068 214.414 240.062C214.414 239.057 213.599 238.242 212.594 238.242C211.588 238.242 210.773 239.057 210.773 240.062C210.773 241.068 211.588 241.883 212.594 241.883Z" fill="white"/>
<path d="M220.149 241.883C221.154 241.883 221.969 241.068 221.969 240.062C221.969 239.057 221.154 238.242 220.149 238.242C219.143 238.242 218.328 239.057 218.328 240.062C218.328 241.068 219.143 241.883 220.149 241.883Z" fill="#FFCA41"/>
<path d="M260.93 361.122H214.781V392.707H260.93V361.122Z" fill="#EBEBEB"/>
<path d="M214.781 363.398C216.784 364.49 218.695 365.674 220.698 366.857C222.609 368.04 224.612 369.223 226.523 370.407C230.437 372.773 234.26 375.231 238.083 377.598H237.537C241.36 375.14 245.274 372.773 249.097 370.407C251.008 369.223 253.011 368.04 254.922 366.857C256.925 365.674 258.836 364.49 260.839 363.398C259.018 364.672 257.107 365.947 255.195 367.221C253.284 368.495 251.372 369.77 249.461 370.953C245.638 373.41 241.815 375.868 237.992 378.326L237.719 378.508L237.446 378.326C233.623 375.868 229.8 373.41 225.977 370.953C224.066 369.679 222.154 368.404 220.243 367.221C218.604 365.947 216.693 364.672 214.781 363.398Z" fill="white"/>
<path d="M214.871 387.064C216.236 385.88 217.693 384.697 219.24 383.605C220.697 382.513 222.244 381.42 223.7 380.328C225.248 379.236 226.704 378.235 228.342 377.233C229.89 376.232 231.437 375.231 233.076 374.412C231.71 375.595 230.254 376.778 228.707 377.87C227.25 378.963 225.703 380.055 224.246 381.147C222.699 382.24 221.243 383.241 219.604 384.242C218.148 385.152 216.51 386.154 214.871 387.064Z" fill="white"/>
<path d="M260.837 387.063C259.199 386.153 257.652 385.152 256.104 384.151C254.557 383.15 253.009 382.148 251.462 381.056C249.915 379.964 248.458 378.871 247.002 377.779C245.546 376.687 244.089 375.504 242.633 374.32C244.271 375.231 245.819 376.232 247.366 377.142C248.913 378.143 250.461 379.145 252.008 380.237C253.556 381.329 255.012 382.421 256.468 383.514C258.016 384.697 259.472 385.789 260.837 387.063Z" fill="white"/>
<path d="M263.931 399.807L266.844 406.907L263.931 408.09L260.928 400.99L256.104 404.722V384.788L270.03 398.897L263.931 399.807Z" fill="#263238"/>
<path d="M256.104 382.603C255.922 382.239 255.922 381.966 255.922 381.602C255.922 381.238 255.922 380.965 256.104 380.601C256.286 380.965 256.286 381.238 256.286 381.602C256.286 381.966 256.195 382.239 256.104 382.603Z" fill="#263238"/>
<path d="M254.375 383.331C254.011 383.149 253.738 382.967 253.556 382.785C253.283 382.512 253.101 382.33 253.01 381.966C253.374 382.148 253.647 382.33 253.829 382.512C254.011 382.694 254.193 382.967 254.375 383.331Z" fill="#263238"/>
<path d="M253.647 385.061C253.283 385.243 253.01 385.243 252.646 385.243C252.282 385.243 252.009 385.243 251.645 385.061C252.009 384.879 252.282 384.879 252.646 384.879C253.01 384.879 253.283 384.879 253.647 385.061Z" fill="#263238"/>
<path d="M254.375 386.79C254.193 387.154 254.011 387.427 253.829 387.609C253.556 387.882 253.374 388.064 253.01 388.155C253.192 387.791 253.374 387.518 253.556 387.336C253.738 387.154 254.011 386.881 254.375 386.79Z" fill="#263238"/>
<path d="M258.561 385.061C258.925 384.879 259.198 384.879 259.562 384.879C259.926 384.879 260.199 384.879 260.563 385.061C260.199 385.243 259.926 385.243 259.562 385.243C259.198 385.243 258.834 385.152 258.561 385.061Z" fill="#263238"/>
<path d="M257.836 383.331C258.018 382.967 258.2 382.694 258.382 382.512C258.655 382.239 258.837 382.057 259.201 381.966C259.019 382.33 258.837 382.603 258.655 382.785C258.382 382.967 258.2 383.149 257.836 383.331Z" fill="#263238"/>
<path d="M396.642 405.45L362.326 396.621L373.613 352.566L399.099 359.12L405.744 369.769L396.642 405.45Z" fill="#EBEBEB"/>
<path d="M399.099 359.12L405.743 369.77L396.914 367.494L399.099 359.12Z" fill="#DBDBDB"/>
<path d="M374.783 361.961L393.826 366.851L394.12 365.705L375.077 360.815L374.783 361.961Z" fill="#DBDBDB"/>
<path d="M374.037 364.847L393.08 369.737L393.374 368.591L374.331 363.701L374.037 364.847Z" fill="#DBDBDB"/>
<path d="M373.29 367.733L392.334 372.623L392.628 371.477L373.585 366.587L373.29 367.733Z" fill="#DBDBDB"/>
<path d="M372.564 370.579L400.512 377.755L400.806 376.609L372.858 369.433L372.564 370.579Z" fill="#DBDBDB"/>
<path d="M371.839 373.377L399.787 380.553L400.081 379.407L372.133 372.231L371.839 373.377Z" fill="#DBDBDB"/>
<path d="M371.091 376.263L399.039 383.439L399.333 382.293L371.385 375.117L371.091 376.263Z" fill="#DBDBDB"/>
<path d="M370.347 379.15L398.295 386.326L398.589 385.18L370.641 378.004L370.347 379.15Z" fill="#DBDBDB"/>
<path d="M369.622 381.947L397.57 389.123L397.865 387.976L369.916 380.8L369.622 381.947Z" fill="#DBDBDB"/>
<path d="M368.874 384.832L396.822 392.008L397.117 390.862L369.168 383.686L368.874 384.832Z" fill="#DBDBDB"/>
<path d="M368.151 387.631L396.1 394.807L396.394 393.661L368.446 386.484L368.151 387.631Z" fill="#DBDBDB"/>
<path d="M367.405 390.516L395.354 397.692L395.648 396.546L367.7 389.37L367.405 390.516Z" fill="#DBDBDB"/>
<path d="M366.657 393.402L394.605 400.578L394.9 399.432L366.952 392.256L366.657 393.402Z" fill="#DBDBDB"/>
<path d="M290.695 343.283L335.023 344.921L336.116 315.339L291.788 313.7L290.695 343.283Z" fill="#EBEBEB"/>
<path d="M292.605 341.553L333.202 343.01L334.203 317.068L293.516 315.612L292.605 341.553Z" fill="white"/>
<path d="M296.976 323.803C296.885 326.261 298.796 328.263 301.254 328.354C303.711 328.445 305.714 326.534 305.805 324.076C305.896 321.619 303.985 319.616 301.527 319.525C299.069 319.434 296.976 321.346 296.976 323.803Z" fill="#DBDBDB"/>
<path d="M305.26 342.008L333.204 343.101L319.914 323.531L305.26 342.008Z" fill="#DBDBDB"/>
<path d="M294.246 341.644L317.366 342.463L306.261 329.72L294.246 341.644Z" fill="#EBEBEB"/>
<path d="M273.944 364.399L317.362 355.297L311.264 326.261L267.846 335.363L273.944 364.399Z" fill="#EBEBEB"/>
<path d="M275.402 362.215L315.179 353.932L309.808 328.445L270.031 336.819L275.402 362.215Z" fill="white"/>
<path d="M275.309 343.919C275.764 346.286 278.131 347.833 280.588 347.378C282.955 346.923 284.502 344.556 284.047 342.099C283.592 339.732 281.225 338.185 278.768 338.64C276.31 339.186 274.763 341.553 275.309 343.919Z" fill="#DBDBDB"/>
<path d="M287.779 359.666L315.177 353.932L297.61 338.185L287.779 359.666Z" fill="#DBDBDB"/>
<path d="M276.949 361.941L299.614 357.208L285.778 347.469L276.949 361.941Z" fill="#EBEBEB"/>
<path d="M624.25 356.66C631.077 342.552 643.092 335.361 656.654 339.366C670.216 343.371 672.31 362.213 662.207 366.946C652.103 371.679 641.999 357.844 636.72 354.931C631.35 352.109 624.25 356.66 624.25 356.66Z" fill="#FFCA41"/>
<path d="M617.607 394.253C617.607 392.524 617.698 390.885 617.789 389.156C617.88 385.788 618.062 382.329 618.153 378.961C618.426 372.772 619.063 366.673 621.612 360.939C623.887 355.841 627.619 351.29 632.534 348.378C634.355 347.285 636.266 346.466 638.269 345.92C639.907 344.008 642.547 342.825 644.914 342.279C648.008 341.551 651.285 341.642 654.471 342.006C654.562 342.006 654.562 342.188 654.471 342.188C651.467 341.824 648.372 342.006 645.46 342.825C644.185 343.189 643.002 343.644 641.819 344.19C641.091 344.555 640.362 345.01 639.725 345.556C642.456 345.01 645.187 345.01 648.008 345.647C649.01 345.92 649.92 346.193 650.921 346.557C651.649 346.375 652.468 346.375 653.197 346.375C654.198 346.375 655.199 346.557 656.109 346.83C658.112 347.285 659.932 348.287 661.662 349.288C661.753 349.379 661.662 349.47 661.571 349.47C659.841 348.56 658.021 347.831 656.109 347.467C655.199 347.285 654.289 347.103 653.288 347.103C652.742 347.103 652.286 347.103 651.74 347.103C655.563 348.924 658.749 351.927 660.478 355.841C660.569 355.932 660.387 356.023 660.296 355.932C658.294 351.381 653.925 348.195 649.192 347.012C648.919 346.921 648.555 346.921 648.281 346.83C648.372 347.285 648.372 347.74 648.463 348.195C648.554 348.924 648.646 349.561 648.828 350.198C649.101 351.563 649.465 353.02 649.92 354.294C650.375 355.659 650.921 357.025 651.558 358.299C652.195 359.573 652.924 361.03 653.834 362.122C653.925 362.213 653.743 362.304 653.652 362.213C652.833 360.939 651.922 359.755 651.194 358.481C650.466 357.207 649.829 355.932 649.374 354.567C648.828 353.202 648.463 351.745 648.19 350.38C648.008 349.652 647.917 348.833 647.826 348.104C647.735 347.649 647.644 347.194 647.735 346.739C646.188 346.466 644.549 346.466 642.911 346.648C643.548 350.016 644.185 353.475 646.006 356.479C646.097 356.57 645.915 356.661 645.824 356.57C645.005 355.022 644.094 353.475 643.457 351.745C642.911 350.107 642.456 348.469 642.274 346.739C639.452 347.103 636.721 348.013 634.355 349.379C629.713 352.018 626.163 356.114 623.796 360.939C621.248 366.127 620.246 371.77 619.882 377.505C619.427 384.696 619.336 391.977 618.608 399.168C618.517 399.623 617.789 399.805 617.698 399.259C617.516 397.439 617.607 395.8 617.607 394.253Z" fill="#263238"/>
<path d="M633.538 347.285C633.902 346.739 634.539 346.284 635.085 345.829C635.631 345.374 636.177 344.919 636.814 344.464C637.998 343.644 639.272 343.007 640.728 342.643C640.819 342.643 640.91 342.825 640.728 342.825C639.363 343.098 637.998 343.826 636.906 344.737C636.359 345.192 635.813 345.647 635.267 346.102C634.812 346.557 634.266 347.103 633.72 347.467C633.538 347.467 633.447 347.376 633.538 347.285Z" fill="#263238"/>
<path d="M655.381 352.382C656.473 353.748 657.565 355.113 658.567 356.569C659.477 358.026 660.296 359.573 660.933 361.212C660.933 361.303 660.842 361.303 660.842 361.212C659.204 358.208 657.474 355.113 655.29 352.473C655.199 352.382 655.29 352.291 655.381 352.382Z" fill="#263238"/>
<path d="M640.635 351.017C640.817 351.927 640.999 352.746 641.454 353.565C641.818 354.385 642.274 355.113 642.729 355.841C642.729 355.932 642.729 355.932 642.638 355.932C641.454 354.658 640.726 352.837 640.453 351.108C640.453 350.926 640.635 350.835 640.635 351.017Z" fill="#263238"/>
<path d="M618.608 357.024C618.608 357.024 608.868 344.827 590.118 349.105C572.277 353.201 564.085 385.878 582.108 389.792C600.13 393.706 596.944 363.487 603.498 358.298C608.322 354.658 615.24 355.477 618.608 357.024Z" fill="#FFCA41"/>
<path d="M575.644 367.037C576.918 365.944 578.101 364.943 579.467 364.033C580.741 363.214 582.106 362.394 583.563 361.939C584.291 360.847 585.11 359.755 586.02 358.754C587.659 356.933 589.57 355.477 591.664 354.202C591.482 354.202 591.3 354.202 591.118 354.202C590.116 354.202 589.115 354.202 588.114 354.202C586.111 354.384 584.2 354.84 582.288 355.659C582.197 355.75 582.106 355.568 582.197 355.477C584.018 354.658 586.02 354.111 587.932 353.747C588.933 353.565 589.843 353.474 590.845 353.474C591.391 353.474 591.937 353.474 592.392 353.565C592.483 353.565 592.574 353.565 592.665 353.565C594.394 352.655 596.215 352.018 598.035 351.563C597.853 351.472 597.671 351.472 597.489 351.381C596.579 351.199 595.669 351.017 594.668 350.926C592.756 350.744 590.936 350.744 589.024 351.017C588.933 351.017 588.842 350.835 589.024 350.835C590.936 350.562 592.847 350.562 594.668 350.562C596.215 350.653 597.853 350.835 599.401 351.199C600.493 351.017 601.676 350.835 602.86 350.835C609.413 350.562 616.513 353.019 620.518 358.389C624.523 363.76 625.342 370.951 626.07 377.413C627.072 386.424 627.527 395.618 626.799 404.629C626.799 405.175 625.979 405.084 625.979 404.538C625.706 396.801 625.433 389.155 624.705 381.418C624.341 377.868 623.977 374.318 623.431 370.769C622.885 367.765 622.247 364.761 620.882 362.03C619.426 359.118 617.332 356.842 614.602 355.204C611.871 353.565 608.776 352.746 605.681 352.473C602.86 352.2 600.038 352.564 597.307 353.292C597.398 353.838 597.398 354.384 597.398 354.931C597.307 355.659 597.216 356.296 596.943 356.933C596.761 357.57 596.488 358.207 596.124 358.754C595.76 359.391 595.305 359.937 594.941 360.574C594.85 360.665 594.759 360.574 594.759 360.483C595.578 359.482 595.942 358.025 596.215 356.751C596.306 356.114 596.397 355.477 596.397 354.84C596.397 354.384 596.397 353.838 596.397 353.383C593.484 354.293 590.663 355.75 588.205 357.661C587.75 358.025 587.295 358.389 586.84 358.845C587.477 359.391 588.023 360.119 588.387 360.756C589.024 361.666 589.57 362.668 590.025 363.76C590.936 365.853 591.391 368.038 591.755 370.313C591.755 370.404 591.573 370.496 591.573 370.313C591.3 368.129 590.48 366.126 589.479 364.124C589.024 363.214 588.387 362.212 587.841 361.393C587.568 360.938 587.204 360.483 586.84 360.028C586.658 359.755 586.475 359.573 586.293 359.3C584.109 361.484 582.288 364.033 581.014 366.764C581.924 367.583 582.562 368.857 583.199 369.949C583.836 371.133 584.473 372.407 584.928 373.681C585.929 376.139 586.566 378.779 587.204 381.327C587.204 381.418 587.022 381.509 587.022 381.327C586.475 378.688 585.474 376.23 584.382 373.772C583.836 372.589 583.199 371.406 582.652 370.313C582.106 369.221 581.378 368.22 580.923 367.037C579.649 369.767 578.921 372.68 578.83 375.684C578.83 375.775 578.648 375.775 578.648 375.684C579.012 371.042 580.377 366.399 582.835 362.394C581.651 362.85 580.559 363.396 579.467 363.942C578.101 364.67 576.736 365.58 575.553 366.673C575.735 367.219 575.553 367.128 575.644 367.037Z" fill="#263238"/>
<path d="M589.389 367.674C589.935 369.494 590.663 371.315 591.21 373.226C591.665 375.047 592.029 376.867 592.029 378.779C592.029 378.87 591.938 378.87 591.938 378.779C591.392 375.047 590.572 371.315 589.207 367.765C589.207 367.674 589.389 367.583 589.389 367.674Z" fill="#263238"/>
<path d="M577.556 363.122C578.284 362.394 579.103 361.848 580.014 361.393C580.924 360.938 581.925 360.665 582.926 360.392C583.017 360.392 583.108 360.574 582.926 360.574C581.925 360.756 581.015 361.211 580.196 361.757C579.285 362.121 578.466 362.576 577.556 363.122C577.556 363.213 577.465 363.122 577.556 363.122Z" fill="#263238"/>
<path d="M609.414 340.731C609.414 340.731 607.593 318.795 591.3 311.695C577.647 305.779 569.91 321.071 579.558 330.446C587.295 338.001 599.765 334.633 609.414 340.731Z" fill="#FFCA41"/>
<path d="M582.472 315.973C584.93 317.066 587.388 318.067 589.754 319.432C591.666 320.524 593.577 321.799 595.398 323.164C595.125 322.618 594.852 322.072 594.578 321.526C594.123 320.706 593.668 319.887 593.213 319.068C592.212 317.43 591.029 315.882 589.663 314.517C589.572 314.426 589.754 314.335 589.754 314.426C591.12 315.791 592.394 317.248 593.577 318.795C594.123 319.614 594.669 320.433 595.125 321.253C595.58 322.072 596.035 322.891 596.217 323.801C596.308 323.892 596.308 323.892 596.399 323.892C599.221 326.168 601.86 328.716 604.227 331.538C604.227 331.356 604.136 331.083 604.045 330.901C603.772 329.809 603.408 328.807 603.044 327.715C602.315 325.531 601.405 323.255 600.131 321.344C600.04 321.253 600.222 321.162 600.313 321.253C601.587 323.255 602.771 325.258 603.681 327.533C604.136 328.625 604.5 329.627 604.773 330.81C604.955 331.447 605.228 332.266 605.319 332.995C606.047 333.905 606.684 334.815 607.413 335.725C614.421 345.647 617.88 357.753 618.791 369.768C619.064 373.409 619.064 376.959 618.973 380.599C618.882 384.24 618.699 387.881 618.062 391.431C618.062 391.613 617.698 391.613 617.698 391.34C617.789 388.154 618.062 385.06 618.153 381.874C618.244 378.688 618.062 375.502 617.88 372.316C617.334 366.036 616.151 359.664 614.33 353.657C612.419 347.467 609.688 341.551 606.047 336.089C605.319 335.998 604.682 335.725 604.045 335.634C603.226 335.452 602.406 335.179 601.587 334.997C600.04 334.542 598.492 334.087 597.036 333.359C596.945 333.268 597.036 333.177 597.127 333.177C598.583 333.996 600.131 334.451 601.769 334.724C603.044 334.997 604.409 335.179 605.683 335.452C604.5 333.723 603.226 332.084 601.86 330.446C598.766 330.719 595.58 330.446 592.576 329.718C590.938 329.354 589.39 328.807 587.843 328.261C586.204 327.624 584.657 326.805 583.019 326.168C582.928 326.077 583.019 325.895 583.11 325.986C585.84 327.624 589.39 328.534 592.485 329.081C595.398 329.536 598.31 329.718 601.314 329.809C600.131 328.443 598.948 327.169 597.673 325.986C593.395 321.89 588.298 318.158 582.654 316.246C582.381 316.064 582.381 315.882 582.472 315.973Z" fill="#263238"/>
<path d="M595.76 316.064C596.488 316.974 597.125 317.975 597.762 318.977C598.399 320.069 598.854 321.161 599.218 322.344C599.218 322.344 599.127 322.435 599.127 322.344C598.581 321.252 598.126 320.16 597.58 319.068C597.034 317.975 596.397 317.065 595.669 316.064C595.578 316.064 595.669 315.973 595.76 316.064Z" fill="#263238"/>
<path d="M580.65 323.346C581.742 323.983 582.835 324.347 584.018 324.711C585.11 325.076 586.294 325.44 587.386 325.622C587.477 325.622 587.386 325.713 587.386 325.713C586.203 325.531 585.019 325.349 583.836 324.985C582.744 324.62 581.651 324.074 580.559 323.528C580.468 323.437 580.559 323.255 580.65 323.346Z" fill="#263238"/>
<path d="M622.068 336.817C622.159 337.727 624.526 328.898 638.361 320.979C650.922 313.788 665.85 295.129 653.562 283.296C643.549 273.738 617.517 294.491 622.068 336.817Z" fill="#FFCA41"/>
<path d="M612.602 387.881C612.784 378.596 613.512 369.312 614.787 360.21C615.97 351.745 617.79 343.461 620.612 335.36C621.613 332.448 622.797 329.626 624.071 326.804C623.98 325.712 624.071 324.529 624.162 323.527C624.253 322.162 624.344 320.706 624.526 319.34C624.617 317.975 624.799 316.519 624.981 315.153C625.163 313.788 625.436 312.332 625.527 310.966C625.527 310.875 625.709 310.875 625.709 310.966C625.345 312.423 625.345 313.97 625.254 315.426C625.163 316.792 625.072 318.157 625.072 319.522C625.072 320.888 625.072 322.253 625.072 323.618C625.072 324.074 625.072 324.62 625.072 325.166C626.346 322.435 627.803 319.705 629.259 317.065C628.349 311.33 629.532 305.414 630.716 299.771C630.716 299.68 630.898 299.679 630.898 299.862C630.26 302.774 630.078 305.778 629.987 308.691C629.896 311.057 630.078 313.424 630.078 315.7C630.442 315.153 630.716 314.607 631.08 314.061C632.9 311.148 634.812 308.327 636.814 305.505C636.632 304.14 636.723 302.774 636.905 301.409C637.087 299.953 637.451 298.405 637.906 296.949C638.361 295.492 638.817 294.036 639.454 292.671C640.091 291.214 640.819 289.849 641.456 288.393C641.547 288.302 641.729 288.393 641.638 288.484C640.819 289.758 640.364 291.396 639.909 292.853C639.454 294.218 639.09 295.674 638.817 297.131C638.543 298.587 638.27 300.044 638.088 301.5C637.997 302.501 637.906 303.502 637.724 304.413C640.728 300.499 643.914 296.676 647.373 293.217C647.464 293.126 647.555 293.217 647.464 293.308C642.275 299.224 637.542 305.596 633.446 312.332C633.264 312.605 633.173 312.878 632.991 313.06C633.719 312.605 634.63 312.241 635.358 311.786C636.723 311.057 637.997 310.329 639.363 309.601C640.637 308.873 642.002 308.145 643.277 307.507C643.914 307.143 644.642 306.779 645.279 306.415C646.007 306.051 646.918 305.687 647.646 305.141C647.737 305.05 647.828 305.232 647.737 305.323C646.371 306.051 645.279 307.143 643.914 307.963C642.639 308.782 641.274 309.601 640 310.329C637.542 311.695 634.903 312.696 632.445 314.061C630.807 316.974 629.259 319.978 627.803 323.072C629.259 322.162 630.807 321.252 632.263 320.433C633.264 319.887 634.174 319.34 635.176 318.794C636.177 318.248 637.087 317.793 637.906 317.156C637.997 317.065 638.088 317.247 637.997 317.247C636.45 318.794 634.538 319.796 632.718 320.888C630.989 321.889 629.168 322.89 627.348 323.801C625.891 326.986 624.526 330.354 623.343 333.631C617.517 350.015 615.424 367.491 614.422 384.786C614.149 389.974 613.967 395.071 613.876 400.26C613.785 405.448 614.058 410.545 614.058 415.734C614.058 415.916 613.785 415.916 613.785 415.734C613.148 411.182 613.057 406.54 612.875 401.898C612.42 397.256 612.42 392.523 612.602 387.881Z" fill="#263238"/>
<path d="M637.632 313.515C640.181 312.514 642.548 311.058 644.914 309.693C647.281 308.327 649.647 306.871 651.832 305.232C651.832 305.232 651.923 305.232 651.923 305.323C649.83 307.053 647.554 308.6 645.278 309.966C642.821 311.422 640.272 312.423 637.723 313.607C637.541 313.698 637.45 313.515 637.632 313.515Z" fill="#263238"/>
<path d="M633.627 294.947C633.809 294.127 634.082 293.399 634.355 292.58C634.355 292.58 634.264 292.489 634.355 292.489C634.537 292.034 634.719 291.579 634.901 291.124C634.901 291.033 634.901 291.033 634.992 290.942C634.992 290.85 635.083 290.759 635.083 290.668C635.083 290.668 635.174 290.668 635.083 290.668C634.992 290.851 634.992 290.942 634.992 291.124C634.992 291.215 634.992 291.306 634.901 291.397C633.991 294.491 633.354 297.586 632.899 300.772C632.899 300.863 632.717 300.863 632.717 300.772C632.717 298.86 633.081 296.858 633.627 294.947Z" fill="#263238"/>
<path d="M598.033 391.249L598.943 402.9L601.947 438.399H634.26L637.264 402.9L638.265 391.249H598.033Z" fill="black"/>
<path d="M598.033 391.249L598.943 402.9H637.264L638.265 391.249H598.033Z" fill="#263238"/>
<path d="M594.773 397.723H641.377V386.527H594.773V397.723Z" fill="black"/>
<path d="M424.86 361.94H410.205V419.194H424.86V361.94Z" fill="#FFCA41"/>
<path d="M424.86 422.016H410.205V431.482H424.86V422.016Z" fill="#FFCA41"/>
<path d="M424.86 434.304H410.205V440.129H424.86V434.304Z" fill="#FFCA41"/>
<path d="M424.86 442.951H410.205V445.863H424.86V442.951Z" fill="#FFCA41"/>
<path d="M429.774 361.94H405.289L417.486 345.01L429.774 361.94Z" fill="#FFCA41"/>
<path d="M454.077 343.736H439.422V419.194H454.077V343.736Z" fill="#FFCA41"/>
<path d="M454.077 422.016H439.422V431.482H454.077V422.016Z" fill="#FFCA41"/>
<path d="M454.077 434.304H439.422V440.13H454.077V434.304Z" fill="#FFCA41"/>
<path d="M454.077 442.951H439.422V445.864H454.077V442.951Z" fill="#FFCA41"/>
<path d="M458.991 343.736H434.506L446.703 326.806L458.991 343.736Z" fill="#FFCA41"/>
<path d="M483.295 325.532H468.641V419.194H483.295V325.532Z" fill="#FFCA41"/>
<path d="M483.295 422.016H468.641V431.482H483.295V422.016Z" fill="#FFCA41"/>
<path d="M483.295 434.304H468.641V440.13H483.295V434.304Z" fill="#FFCA41"/>
<path d="M483.295 442.951H468.641V445.864H483.295V442.951Z" fill="#FFCA41"/>
<path d="M488.21 325.532H463.725L475.922 308.602L488.21 325.532Z" fill="#FFCA41"/>
<path d="M512.514 307.327H497.859V419.194H512.514V307.327Z" fill="#FFCA41"/>
<path d="M512.514 422.016H497.859V431.482H512.514V422.016Z" fill="#FFCA41"/>
<path d="M512.514 434.304H497.859V440.13H512.514V434.304Z" fill="#FFCA41"/>
<path d="M512.514 442.951H497.859V445.864H512.514V442.951Z" fill="#FFCA41"/>
<path d="M517.429 307.327H492.943L505.14 290.397L517.429 307.327Z" fill="#FFCA41"/>
<path opacity="0.6" d="M267.294 407.27C267.294 410.82 264.382 413.733 260.832 413.733C257.282 413.733 254.369 410.82 254.369 407.27C254.369 403.72 257.282 400.808 260.832 400.808C264.382 400.808 267.294 403.72 267.294 407.27Z" fill="#FFCA41"/>
<path opacity="0.6" d="M275.213 394.983C275.213 396.712 273.848 398.168 272.028 398.168C270.298 398.168 268.842 396.803 268.842 394.983C268.842 393.253 270.207 391.797 272.028 391.797C273.757 391.797 275.213 393.253 275.213 394.983Z" fill="#FFCA41"/>
<path opacity="0.6" d="M413.295 404.176C413.295 405.905 411.93 407.361 410.11 407.361C408.38 407.361 406.924 405.996 406.924 404.176C406.924 402.446 408.289 400.99 410.11 400.99C411.93 400.99 413.295 402.446 413.295 404.176Z" fill="#FFCA41"/>
<path opacity="0.6" d="M476.374 432.938C476.374 434.668 475.008 436.124 473.188 436.124C471.367 436.124 470.002 434.759 470.002 432.938C470.002 431.209 471.367 429.752 473.188 429.752C475.008 429.752 476.374 431.118 476.374 432.938Z" fill="#FFCA41"/>
<path opacity="0.6" d="M471.551 442.132C471.551 444.226 469.912 445.864 467.819 445.864H233.89C231.797 445.864 230.158 444.226 230.158 442.132C230.158 440.038 231.797 438.4 233.89 438.4C234.163 438.4 234.527 438.4 234.8 438.491C234.8 434.395 238.077 431.118 242.173 431.118C244.267 431.118 246.087 431.937 247.453 433.303H247.544C247.544 432.848 247.453 432.393 247.453 431.937C247.453 424.2 253.733 418.011 261.379 418.011C263.564 418.011 265.657 418.557 267.569 419.467C267.842 414.188 272.211 410.092 277.49 410.092C281.768 410.092 285.318 412.732 286.774 416.464C289.232 412.55 293.601 409.91 298.607 409.91C299.518 409.91 300.428 410.001 301.247 410.183C301.065 409.091 300.974 407.998 300.974 406.906C300.974 396.439 309.439 387.973 319.907 387.973C324.64 387.973 328.918 389.703 332.286 392.525C332.923 391.341 334.197 390.522 335.654 390.522C336.2 390.522 336.655 390.613 337.11 390.795L340.66 296.951H361.231L364.781 390.795C365.236 390.613 365.691 390.522 366.237 390.522C367.694 390.522 368.968 391.341 369.605 392.525C372.882 389.703 377.251 387.973 381.984 387.973C392.452 387.973 400.917 396.439 400.917 406.906C400.917 407.998 400.826 409.091 400.644 410.183C401.463 410.001 402.373 409.91 403.283 409.91C408.29 409.91 412.659 412.55 415.116 416.464C416.573 412.732 420.214 410.092 424.401 410.092C429.68 410.092 434.049 414.279 434.322 419.467C436.143 418.557 438.236 418.011 440.512 418.011C448.249 418.011 454.438 424.292 454.438 431.937C454.438 432.393 454.438 432.848 454.347 433.303H454.438C455.804 431.937 457.624 431.118 459.718 431.118C463.814 431.118 467.09 434.395 467.09 438.491C467.363 438.4 467.637 438.4 468.001 438.4C469.821 438.309 471.551 440.038 471.551 442.132Z" fill="#FFCA41"/>
<path d="M412.203 411.185L407.288 412.095L406.196 417.284L405.195 412.095L400.279 411.185L405.103 410.002L406.196 405.178L407.379 410.002L412.203 411.185Z" fill="#FCFCFC"/>
<path d="M364.873 370.042L359.958 370.952L358.957 376.141L357.864 370.952L352.949 370.042L357.773 368.859L358.957 364.035L360.049 368.859L364.873 370.042Z" fill="#FCFCFC"/>
<path d="M294.149 421.015L291.418 421.47L290.872 424.383L290.235 421.47L287.504 421.015L290.235 420.287L290.872 417.647L291.418 420.287L294.149 421.015Z" fill="#FCFCFC"/>
<path d="M440.514 429.571L437.783 430.027L437.146 432.939L436.509 430.027L433.869 429.571L436.509 428.843L437.146 426.204L437.783 428.843L440.514 429.571Z" fill="#FCFCFC"/>
<path d="M256.738 439.584L254.008 440.039L253.371 442.952L252.824 440.039L250.094 439.584L252.824 438.947L253.371 436.216L254.008 438.947L256.738 439.584Z" fill="#FCFCFC"/>
<path d="M375.068 437.217L372.337 437.673L371.7 440.585L371.063 437.673L368.332 437.217L371.063 436.489L371.7 433.85L372.337 436.489L375.068 437.217Z" fill="#FCFCFC"/>
<path d="M355.133 362.306L352.402 362.761L351.765 365.674L351.219 362.761L348.488 362.306L351.128 361.578L351.765 358.938L352.402 361.578L355.133 362.306Z" fill="#FCFCFC"/>
<path d="M446.884 435.761C445.882 435.761 445.882 437.309 446.884 437.309C447.885 437.309 447.885 435.761 446.884 435.761Z" fill="#FCFCFC"/>
<path d="M344.575 352.384C343.574 352.384 343.574 353.932 344.575 353.932C345.576 353.932 345.576 352.384 344.575 352.384Z" fill="#FCFCFC"/>
<path d="M277.308 439.584C276.306 439.584 276.306 441.131 277.308 441.131C278.309 441.131 278.309 439.584 277.308 439.584Z" fill="#FCFCFC"/>
<path d="M327.28 428.752C326.279 428.752 326.279 430.3 327.28 430.3C328.281 430.3 328.281 428.752 327.28 428.752Z" fill="#FCFCFC"/>
<path d="M427.132 421.562C426.404 421.562 426.404 422.654 427.132 422.654C427.86 422.654 427.86 421.562 427.132 421.562Z" fill="#FCFCFC"/>
<path d="M358.228 413.188C357.5 413.188 357.5 414.28 358.228 414.28C358.956 414.28 358.956 413.188 358.228 413.188Z" fill="#FCFCFC"/>
<path d="M307.802 402.265C307.074 402.265 307.074 403.357 307.802 403.357C308.53 403.448 308.53 402.265 307.802 402.265Z" fill="#FCFCFC"/>
<path d="M394.09 404.541C392.178 404.541 392.178 407.544 394.09 407.544C396.092 407.635 396.092 404.541 394.09 404.541Z" fill="#FCFCFC"/>
<path d="M314.994 397.167C313.083 397.167 313.083 400.171 314.994 400.171C316.906 400.171 316.906 397.167 314.994 397.167Z" fill="#FCFCFC"/>
<path d="M315.721 222.676C314.993 222.676 287.504 235.328 285.865 266.64C284.409 295.403 304.252 322.619 306.801 320.89C309.895 318.705 304.616 300.774 310.715 280.294C312.899 273.012 322.365 266.549 322.365 266.549L315.721 222.676Z" fill="#FFCA41"/>
<path opacity="0.1" d="M322.275 266.549C322.275 266.549 318.179 269.371 314.72 273.285C310.624 264.183 302.978 247.07 298.062 236.057C306.073 226.772 315.175 222.676 315.63 222.676L322.275 266.549Z" fill="black"/>
<path d="M385.72 222.767C386.448 222.767 413.937 235.51 415.485 266.731C416.941 295.494 397.007 322.71 394.458 320.889C391.363 318.705 396.643 300.773 390.635 280.293C388.451 273.011 378.984 266.549 378.984 266.549L385.72 222.767Z" fill="#FFCA41"/>
<path opacity="0.1" d="M403.287 236.329C398.281 247.434 390.635 264.546 386.63 273.557C383.171 269.461 378.984 266.64 378.984 266.64L385.629 222.767C386.084 222.767 395.277 226.954 403.287 236.329Z" fill="black"/>
<path d="M371.516 294.584H330.009C330.009 294.584 310.439 259.631 312.806 217.943C313.989 197.19 319.451 176.164 325.913 158.869C334.925 134.93 346.029 118 350.854 118C355.678 118 366.782 135.021 375.794 158.96C382.256 176.255 387.718 197.281 388.81 218.034C391.086 259.722 371.516 294.584 371.516 294.584Z" fill="#EBEBEB"/>
<path d="M375.614 212.664C375.614 225.862 364.874 236.603 351.675 236.603C338.477 236.603 327.736 225.862 327.736 212.664C327.736 199.466 338.477 188.725 351.675 188.725C364.965 188.725 375.614 199.375 375.614 212.664Z" fill="#C7C7C7"/>
<path d="M374.794 210.207C374.794 223.405 364.053 234.146 350.855 234.146C337.657 234.146 326.916 223.405 326.916 210.207C326.916 197.008 337.657 186.268 350.855 186.268C364.053 186.268 374.794 197.008 374.794 210.207Z" fill="#FFCA41"/>
<path d="M367.421 210.206C367.421 219.4 359.957 226.773 350.855 226.773C341.662 226.773 334.289 219.309 334.289 210.206C334.289 201.104 341.662 193.549 350.855 193.549C360.049 193.549 367.421 201.013 367.421 210.206Z" fill="white"/>
<path d="M367.421 210.206C367.421 212.3 367.057 214.393 366.329 216.214L356.862 225.68C355.042 226.408 352.948 226.772 350.855 226.772C349.307 226.772 347.851 226.59 346.395 226.135L366.784 205.746C367.239 207.111 367.421 208.659 367.421 210.206Z" fill="#EBEBEB"/>
<path d="M353.311 193.731L334.469 212.573C334.378 211.754 334.287 210.935 334.287 210.115C334.287 200.922 341.751 193.549 350.853 193.549C351.672 193.549 352.492 193.64 353.311 193.731Z" fill="#EBEBEB"/>
<path d="M365.325 202.105L342.751 224.679C342.296 224.406 341.932 224.224 341.477 223.86L364.596 200.831C364.869 201.286 365.142 201.741 365.325 202.105Z" fill="#EBEBEB"/>
<path d="M375.797 158.96H325.916C334.927 134.93 346.032 118 350.856 118C355.68 118 366.785 135.021 375.797 158.96Z" fill="#FFCA41"/>
<path d="M334.473 153.772C334.473 154.5 333.836 155.137 333.108 155.137C332.379 155.137 331.742 154.5 331.742 153.772C331.742 153.044 332.379 152.407 333.108 152.407C333.836 152.316 334.473 152.953 334.473 153.772Z" fill="white"/>
<path d="M343.395 153.772C343.395 154.5 342.758 155.137 342.029 155.137C341.301 155.137 340.664 154.5 340.664 153.772C340.664 153.044 341.301 152.407 342.029 152.407C342.758 152.407 343.395 152.953 343.395 153.772Z" fill="white"/>
<path d="M352.221 153.772C352.221 154.5 351.584 155.137 350.856 155.137C350.127 155.137 349.49 154.5 349.49 153.772C349.49 153.044 350.127 152.407 350.856 152.407C351.584 152.407 352.221 152.953 352.221 153.772Z" fill="white"/>
<path d="M361.143 153.772C361.143 154.5 360.506 155.137 359.777 155.137C359.049 155.137 358.412 154.5 358.412 153.772C358.412 153.044 359.049 152.407 359.777 152.407C360.506 152.407 361.143 153.044 361.143 153.772Z" fill="white"/>
<path d="M369.973 153.772C369.973 154.5 369.336 155.137 368.608 155.137C367.879 155.137 367.242 154.5 367.242 153.772C367.242 153.044 367.879 152.407 368.608 152.407C369.336 152.407 369.973 153.044 369.973 153.772Z" fill="white"/>
<path d="M334.473 288.213C334.473 288.941 333.836 289.578 333.108 289.578C332.379 289.578 331.742 288.941 331.742 288.213C331.742 287.485 332.379 286.848 333.108 286.848C333.836 286.757 334.473 287.394 334.473 288.213Z" fill="#C7C7C7"/>
<path d="M343.301 288.213C343.301 288.941 342.664 289.578 341.936 289.578C341.207 289.578 340.57 288.941 340.57 288.213C340.57 287.485 341.207 286.848 341.936 286.848C342.664 286.848 343.301 287.394 343.301 288.213Z" fill="#C7C7C7"/>
<path d="M352.221 288.213C352.221 288.941 351.584 289.578 350.856 289.578C350.127 289.578 349.49 288.941 349.49 288.213C349.49 287.485 350.127 286.848 350.856 286.848C351.584 286.848 352.221 287.394 352.221 288.213Z" fill="#C7C7C7"/>
<path d="M361.051 288.213C361.051 288.941 360.414 289.578 359.686 289.578C358.957 289.578 358.32 288.941 358.32 288.213C358.32 287.485 358.957 286.848 359.686 286.848C360.414 286.848 361.051 287.485 361.051 288.213Z" fill="#C7C7C7"/>
<path d="M369.973 288.213C369.973 288.941 369.336 289.578 368.608 289.578C367.879 289.578 367.242 288.941 367.242 288.213C367.242 287.485 367.879 286.848 368.608 286.848C369.336 286.848 369.973 287.485 369.973 288.213Z" fill="#C7C7C7"/>
<path d="M367.694 307.054H333.924L332.377 294.583H369.241L367.694 307.054Z" fill="#FFCA41"/>
<path opacity="0.1" d="M369.241 294.583L368.422 300.682L332.923 299.317L332.377 294.583H369.241Z" fill="black"/>
</svg>
