<svg width="130" height="100" viewBox="0 0 130 100" fill="none" xmlns="http://www.w3.org/2000/svg">
<g clip-path="url(#clip0_303_502)">
<path d="M79.0862 60.3466C77.2185 57.9122 72.2541 50.1605 72.2541 50.1605C71.5231 49.469 69.751 48.369 68.3428 49.4719C66.9078 50.5976 68.3905 53.9778 68.3905 53.9778C67.4776 52.9777 64.5807 49.3262 62.6533 51.2919C61.2631 52.7091 62.5221 54.3521 62.5221 54.3521C62.5221 54.3521 61.3914 53.4149 60.1741 54.4463C58.7092 55.6893 60.371 57.8179 60.371 57.8179L61.2959 59.2437C61.2959 59.2437 60.3352 58.5322 59.2075 59.6808C58.1871 60.7237 59.5864 62.5952 59.5864 62.5952L65.061 70.8069C65.0461 73.5699 65.061 74.5928 65.061 76.8329C65.061 82.3274 68.128 83.0445 68.128 83.0445V92.0677L81.267 92.0991V67.3725C81.267 67.3754 81.5356 63.5381 79.0862 60.3466Z" fill="white" stroke="black" stroke-width="3" stroke-linecap="round" stroke-linejoin="round"/>
<path d="M66.8661 93.9278C66.6304 93.9278 66.4394 93.745 66.4424 93.5192L66.4633 87.0962C66.4633 86.8704 66.6542 86.6904 66.8899 86.6904L82.6843 86.7333C82.92 86.7333 83.1109 86.919 83.108 87.1447L83.0871 93.5678C83.0871 93.7936 82.8931 93.9736 82.6604 93.9736L66.8661 93.9278Z" fill="white" stroke="black" stroke-width="3" stroke-linecap="round" stroke-linejoin="round"/>
<g opacity="0.12">
<path opacity="0.12" d="M72.2692 53.9804C71.5322 53.1746 69.5065 50.6431 67.7373 50.726C67.791 50.2202 67.967 49.7688 68.343 49.4745C69.5542 48.5259 71.031 49.2031 71.8873 49.8517C71.0549 51.2117 72.2692 53.9804 72.2692 53.9804Z" fill="#030A0F"/>
<path opacity="0.12" d="M59.2078 59.6806C60.3355 58.532 61.2962 59.2435 61.2962 59.2435L60.3713 57.8177C60.3713 57.8177 58.7095 55.6891 60.1744 54.4462C61.3887 53.4147 62.5224 54.3519 62.5224 54.3519C62.5224 54.3519 61.2634 52.709 62.6537 51.2918C63.7038 50.2232 65.0374 50.8175 66.1861 51.7404C65.3984 53.0347 66.4009 54.3519 66.4009 54.3519C66.4009 54.3519 65.2701 53.4147 64.0529 54.4462C62.588 55.6891 64.2498 57.8177 64.2498 57.8177L65.1747 59.2435C65.1747 59.2435 64.214 58.532 63.0863 59.6806C62.0659 60.7235 63.4652 62.595 63.4652 62.595L68.9398 70.8068C68.9249 73.5697 68.9398 74.5926 68.9398 76.8327C68.9398 82.3272 72.0068 83.0443 72.0068 83.0443V86.6902L70.7686 86.6873C70.5329 86.6873 70.342 86.8673 70.342 87.0931L70.3211 93.5162C70.3211 93.7419 70.5091 93.9247 70.7448 93.9247L82.7561 93.959C82.7263 93.9647 82.6935 93.9705 82.6606 93.9705L66.8663 93.9247C66.6306 93.9247 66.4396 93.7419 66.4426 93.5162L66.4635 87.0931C66.4635 86.8673 66.6544 86.6873 66.8901 86.6873L68.1283 86.6902V83.0443C68.1283 83.0443 65.0613 82.3272 65.0613 76.8327C65.0613 74.5955 65.0464 73.5697 65.0613 70.8068L59.5867 62.595C59.5867 62.5979 58.1845 60.7235 59.2078 59.6806Z" fill="#030A0F"/>
</g>
<path d="M64 99.346L64.0388 92.4057C64.0388 92.18 64.2297 92 64.4654 92L83.112 92.0514C83.3476 92.0514 83.5356 92.2371 83.5356 92.46L83.4968 99.4031L64 99.346Z" fill="#D8DBD7" stroke="#010200" stroke-width="3"/>
<path d="M6.91664 60.3466C8.78428 57.9122 13.7487 50.1605 13.7487 50.1605C14.4797 49.469 16.2518 48.369 17.66 49.4719C19.0951 50.5976 17.6123 53.9778 17.6123 53.9778C18.5252 52.9777 21.4221 49.3262 23.3494 51.2919C24.7397 52.7091 23.4807 54.3521 23.4807 54.3521C23.4807 54.3521 24.6144 53.4149 25.8287 54.4463C27.2936 55.6893 25.6318 57.8179 25.6318 57.8179L24.7069 59.2437C24.7069 59.2437 25.6676 58.5322 26.7953 59.6808C27.8157 60.7237 26.4164 62.5952 26.4164 62.5952L20.9418 70.8069C20.9567 73.5699 20.9418 74.5928 20.9418 76.8329C20.9418 82.3274 17.8748 83.0445 17.8748 83.0445V92.0677L4.73573 92.0991V67.3725C4.73573 67.3754 4.46723 63.5381 6.91664 60.3466Z" fill="white" stroke="black" stroke-width="3" stroke-linecap="round" stroke-linejoin="round"/>
<path d="M19.1369 93.9278C19.3726 93.9278 19.5636 93.745 19.5606 93.5192L19.5397 87.0962C19.5397 86.8704 19.3487 86.6904 19.1131 86.6904L3.3187 86.7333C3.08301 86.7333 2.89207 86.919 2.89505 87.1447L2.91594 93.5678C2.91594 93.7936 3.10986 93.9736 3.34257 93.9736L19.1369 93.9278Z" fill="white" stroke="black" stroke-width="3" stroke-linecap="round" stroke-linejoin="round"/>
<g opacity="0.12">
<path opacity="0.12" d="M13.7339 53.9804C14.4708 53.1746 16.4966 50.6431 18.2657 50.726C18.212 50.2202 18.036 49.7688 17.6601 49.4745C16.4488 48.5259 14.972 49.2031 14.1158 49.8517C14.9481 51.2117 13.7339 53.9804 13.7339 53.9804Z" fill="#030A0F"/>
<path opacity="0.12" d="M26.7955 59.6806C25.6677 58.532 24.707 59.2435 24.707 59.2435L25.6319 57.8177C25.6319 57.8177 27.2937 55.6891 25.8288 54.4462C24.6146 53.4147 23.4808 54.3519 23.4808 54.3519C23.4808 54.3519 24.7399 52.709 23.3496 51.2918C22.2994 50.2232 20.9658 50.8175 19.8172 51.7404C20.6048 53.0347 19.5994 54.3519 19.5994 54.3519C19.5994 54.3519 20.7331 53.4147 21.9474 54.4462C23.4122 55.6891 21.7504 57.8177 21.7504 57.8177L20.8256 59.2435C20.8256 59.2435 21.7863 58.532 22.914 59.6806C23.9343 60.7235 22.5351 62.595 22.5351 62.595L17.0605 70.8068C17.0754 73.5697 17.0605 74.5926 17.0605 76.8327C17.0605 82.3272 13.9935 83.0443 13.9935 83.0443V86.6902L15.2316 86.6873C15.4673 86.6873 15.6583 86.8673 15.6583 87.0931L15.6791 93.5162C15.6791 93.7419 15.4912 93.9247 15.2555 93.9247L3.24414 93.959C3.27398 93.9647 3.3068 93.9705 3.33961 93.9705L19.134 93.9247C19.3697 93.9247 19.5606 93.7419 19.5576 93.5162L19.5367 87.0931C19.5367 86.8673 19.3458 86.6873 19.1101 86.6873L17.872 86.6902V83.0443C17.872 83.0443 20.939 82.3272 20.939 76.8327C20.939 74.5955 20.9539 73.5697 20.939 70.8068L26.4136 62.595C26.4166 62.5979 27.8158 60.7235 26.7955 59.6806Z" fill="#030A0F"/>
</g>
<path d="M21.5356 99.4534L21.4968 92.5131C21.4968 92.2874 21.3059 92.1074 21.0702 92.1074L2.42364 92.1589C2.18795 92.1589 2 92.3446 2 92.5674L2.03879 99.5105L21.5356 99.4534Z" fill="#D8DBD7" stroke="#010200" stroke-width="3"/>
<path d="M15.3242 31.6682L41.4473 7.71588C42.5213 6.73013 44.2159 6.73013 45.2899 7.71588L71.413 31.6682L53.8673 65.7751H32.2493L15.3242 31.6682Z" fill="#FFCA41" stroke="#010200" stroke-width="3" stroke-linecap="round" stroke-linejoin="round"/>
<path d="M24.8232 11.1646H55.5915L61.9074 16.4305V56.0119H24.8232V11.1646Z" fill="white" stroke="black" stroke-width="3" stroke-linecap="round" stroke-linejoin="round"/>
<path d="M55.5884 16.4305H61.9073L55.5884 11.1646V16.4305Z" fill="white" stroke="black" stroke-width="3" stroke-linecap="round" stroke-linejoin="round"/>
<path d="M45.287 55.6174C44.213 56.6032 42.5214 56.6032 41.4443 55.6174L15.3213 31.668V70.3608H71.4071V31.668L45.287 55.6174Z" fill="#FFCA41" stroke="#010200" stroke-width="3" stroke-linecap="round" stroke-linejoin="round"/>
<path d="M71.41 70.3608H15.3242L35.9965 56.286C40.3971 53.2888 46.3341 53.2888 50.7347 56.286L71.41 70.3608Z" fill="#FFCA41" stroke="#010200" stroke-width="3" stroke-linecap="round" stroke-linejoin="round"/>
<path d="M53.5304 32.2052C53.4528 33.9624 52.9248 35.4739 51.9462 36.7425C50.9706 38.0111 49.5117 38.6454 47.5695 38.6454C46.928 38.6454 46.3731 38.474 45.9077 38.134C45.4423 37.794 45.1081 37.3111 44.9053 36.6882C44.4667 37.3454 43.9297 37.8368 43.2972 38.1597C42.6647 38.4826 41.9248 38.6454 41.0805 38.6454C39.9826 38.6454 39.1293 38.1511 38.5207 37.1625C37.9151 36.1739 37.6913 34.8739 37.8494 33.2652C38.0523 31.1395 38.6549 29.4337 39.6634 28.1479C40.6688 26.8622 41.898 26.2221 43.3479 26.2221C44.2728 26.2221 45.0127 26.3279 45.5765 26.5421C46.1404 26.7564 46.749 27.085 47.4084 27.5279L47.3547 27.5765H47.4352L46.764 34.7796C46.6864 35.6825 46.7789 36.3054 47.0474 36.6454C47.3159 36.9854 47.6739 37.1568 48.1214 37.1568C49.2014 37.1568 50.0696 36.6911 50.72 35.7625C51.3704 34.831 51.7314 33.651 51.8 32.2166C51.9402 29.0851 51.3077 26.645 49.8995 24.8964C48.4914 23.1449 46.3135 22.2706 43.3598 22.2706C40.6509 22.2706 38.473 23.2163 36.8261 25.1107C35.1763 27.005 34.2872 29.4737 34.1559 32.5167C33.9978 35.5996 34.6571 38.0369 36.1339 39.8283C37.6107 41.6198 39.729 42.517 42.4917 42.517C43.2644 42.517 44.049 42.4284 44.8456 42.2513C45.6422 42.0741 46.3105 41.8427 46.8564 41.557L47.3577 42.8742C46.7699 43.2199 46.0181 43.4885 45.1081 43.6799C44.1982 43.8714 43.3091 43.9685 42.438 43.9685C39.0965 43.9685 36.5158 42.9427 34.69 40.897C32.8641 38.8483 32.0317 36.0511 32.1898 32.5052C32.3569 29.0337 33.4518 26.2079 35.4746 24.0335C37.4974 21.8591 40.1437 20.7705 43.4135 20.7705C46.7461 20.7705 49.3029 21.7963 51.081 23.8478C52.8651 25.8964 53.6796 28.6851 53.5304 32.2052ZM40.1855 33.2652C40.09 34.431 40.1825 35.3168 40.4689 35.9253C40.7553 36.5339 41.2237 36.8368 41.8741 36.8368C42.435 36.8368 42.9511 36.7368 43.4165 36.5339C43.8819 36.3339 44.3086 35.9739 44.6964 35.4568C44.6875 35.3596 44.6845 35.2539 44.6905 35.1425C44.6934 35.031 44.7054 34.911 44.7233 34.7796L45.3438 28.1536C45.1141 28.0565 44.8754 27.9765 44.6248 27.9193C44.3742 27.8622 44.1117 27.8336 43.8402 27.8336C42.7423 27.8336 41.9009 28.2822 41.3221 29.1822C40.7374 30.0823 40.3615 31.4423 40.1855 33.2652Z" fill="#FFCA41"/>
<path d="M7.94287 69.4553L17.5018 60.8864C17.5018 60.8864 19.271 58.9292 21.082 60.6036C22.6184 62.0265 21.6727 64.0123 20.6911 65.0837L14.8734 71.9611V76.6756C14.8734 76.6756 15.1658 79.7128 13.8948 81.0414C13.0804 81.89 12.2301 82.4072 11.4812 82.6386" fill="white"/>
<path d="M7.94287 69.4553L17.5018 60.8864C17.5018 60.8864 19.271 58.9292 21.082 60.6036C22.6184 62.0265 21.6727 64.0123 20.6911 65.0837L14.8734 71.9611V76.6756C14.8734 76.6756 15.1658 79.7128 13.8948 81.0414C13.0804 81.89 12.2301 82.4072 11.4812 82.6386" stroke="black" stroke-width="3" stroke-linecap="round" stroke-linejoin="round"/>
<path d="M78.0567 69.4553L68.4978 60.8864C68.4978 60.8864 66.7286 58.9292 64.9176 60.6036C63.3811 62.0265 64.3269 64.0123 65.3055 65.0837L71.1232 71.9611V76.6756C71.1232 76.6756 70.8308 79.7128 72.1018 81.0414C72.9133 81.89 73.7665 82.4072 74.5154 82.6386" fill="white"/>
<path d="M78.0567 69.4553L68.4978 60.8864C68.4978 60.8864 66.7286 58.9292 64.9176 60.6036C63.3811 62.0265 64.3269 64.0123 65.3055 65.0837L71.1232 71.9611V76.6756C71.1232 76.6756 70.8308 79.7128 72.1018 81.0414C72.9133 81.89 73.7665 82.4072 74.5154 82.6386" stroke="black" stroke-width="3" stroke-linecap="round" stroke-linejoin="round"/>
</g>
<defs>
<clipPath id="clip0_303_502">
<rect width="130" height="100" fill="white"/>
</clipPath>
</defs>
</svg>
