<svg width="130" height="100" viewBox="0 0 130 100" fill="none" xmlns="http://www.w3.org/2000/svg">
<rect x="5" y="14.0503" width="89.3534" height="63.2524" rx="3" fill="white" stroke="black" stroke-width="2"/>
<path d="M104.548 88.2521C102.971 89.8297 100.39 89.8297 98.8157 88.2521L71.4663 60.9027L76.4066 54.3774L104.548 82.5193C106.126 84.0938 106.126 86.6745 104.548 88.2521Z" fill="#FFCA41" stroke="black"/>
<path d="M79.7517 54.4584L70.7621 63.448C70.7621 63.448 65.223 57.2359 57.8872 57.9374C55.1764 51.9825 52.0751 39.2948 51.2212 35.6761L63.4613 47.9162C63.0676 48.6336 63.1756 49.551 63.785 50.1573C64.5246 50.8969 65.7182 50.8969 66.4578 50.1573C67.1974 49.4176 67.2006 48.2209 66.461 47.4813C65.8547 46.875 64.9341 46.7703 64.2167 47.1639L51.9767 34.9238C55.5985 35.7777 68.2862 38.8758 74.238 41.5898C73.5396 48.9193 79.7517 54.4584 79.7517 54.4584Z" fill="#FFCA41" stroke="black"/>
<path d="M49.1512 92.3466C32.7465 75.9419 32.7465 49.2525 49.1512 32.8509C65.5559 16.4462 92.2454 16.4462 108.65 32.8509L108.164 33.3366C92.0295 17.2017 65.775 17.2017 49.64 33.3366C33.5051 49.4715 33.5051 75.7261 49.64 91.861L49.1512 92.3466Z" fill="black"/>
<path d="M78.653 3.34649L19.644 62.3555L20.1311 62.8425L79.1401 3.83355L78.653 3.34649Z" fill="black"/>
<path d="M49.3936 28.6874L44.9854 33.0957L49.3936 37.504L53.8019 33.0957L49.3936 28.6874Z" fill="#FFCA41"/>
<path d="M49.393 37.9897L44.4951 33.0918L49.393 28.1938L54.291 33.0918L49.393 37.9897ZM45.4728 33.095L49.3962 37.0184L53.3165 33.095L49.393 29.1715L45.4728 33.095Z" fill="black"/>
<path d="M49.3931 87.6972L44.9849 92.1055L49.3931 96.5138L53.8014 92.1055L49.3931 87.6972Z" fill="#FFCA41"/>
<path d="M49.393 97L44.4951 92.102L49.393 87.2041L54.291 92.102L49.393 97ZM45.4728 92.1052L49.3962 96.0286L53.3165 92.1052L49.393 88.1818L45.4728 92.1052Z" fill="black"/>
<path d="M108.531 28.5571L104.123 32.9653L108.531 37.3736L112.939 32.9653L108.531 28.5571Z" fill="#FFCA41"/>
<path d="M108.533 37.8628L103.635 32.9648L108.533 28.0669L113.431 32.9648L108.533 37.8628ZM104.61 32.9648L108.533 36.8883L112.457 32.9648L108.533 29.0414L104.61 32.9648Z" fill="black"/>
<path d="M79.0283 6.57708C80.7498 6.57708 82.1454 5.18148 82.1454 3.45993C82.1454 1.73837 80.7498 0.342773 79.0283 0.342773C77.3067 0.342773 75.9111 1.73837 75.9111 3.45993C75.9111 5.18148 77.3067 6.57708 79.0283 6.57708Z" fill="#FFCA41"/>
<path d="M79.028 6.92313C78.1043 6.92313 77.2346 6.56443 76.5807 5.91053C75.2316 4.56146 75.2316 2.36485 76.5807 1.0126C77.2346 0.358696 78.1043 0 79.028 0C79.9517 0 80.8215 0.358696 81.4754 1.0126C82.1293 1.6665 82.488 2.53626 82.488 3.45998C82.488 4.3837 82.1293 5.25345 81.4754 5.90736C80.8215 6.56443 79.9517 6.92313 79.028 6.92313ZM79.028 0.688823C78.2884 0.688823 77.5901 0.977683 77.0663 1.50144C75.9839 2.58387 75.9839 4.34243 77.0663 5.42486C78.1488 6.5073 79.9073 6.5073 80.9897 5.42486C81.5135 4.90111 81.8024 4.20594 81.8024 3.46315C81.8024 2.72354 81.5135 2.0252 80.9897 1.50144C80.466 0.977683 79.7676 0.688823 79.028 0.688823Z" fill="black"/>
<path d="M19.8877 65.7172C21.6092 65.7172 23.0048 64.3216 23.0048 62.6001C23.0048 60.8785 21.6092 59.4829 19.8877 59.4829C18.1661 59.4829 16.7705 60.8785 16.7705 62.6001C16.7705 64.3216 18.1661 65.7172 19.8877 65.7172Z" fill="#FFCA41"/>
<path d="M19.8879 66.06C19.0023 66.06 18.1135 65.7236 17.4405 65.0474C16.0914 63.6984 16.0914 61.5017 17.4405 60.1495C18.7896 58.8004 20.9862 58.8004 22.3384 60.1495C23.6875 61.4986 23.6875 63.6952 22.3384 65.0474C21.6623 65.7236 20.7767 66.06 19.8879 66.06ZM19.8879 59.8257C19.1769 59.8257 18.469 60.0955 17.9262 60.6352C16.8437 61.7176 16.8437 63.4762 17.9262 64.5586C19.0086 65.641 20.7672 65.641 21.8496 64.5586C22.932 63.4762 22.932 61.7176 21.8496 60.6352C21.31 60.0987 20.5989 59.8257 19.8879 59.8257Z" fill="black"/>
</svg>
