<svg width="130" height="100" viewBox="0 0 130 100" fill="none" xmlns="http://www.w3.org/2000/svg">
<path d="M91.9919 37.619C91.5091 39.0897 90.9036 40.5366 89.4314 41.2422C88.4895 41.6942 87.3972 42.0707 86.3722 42.0747C75.3862 42.1342 64.3962 42.1223 53.4063 42.1025C50.0978 42.0985 47.8104 39.8033 47.8024 36.4972C47.7827 27.5461 47.7827 18.5951 47.8024 9.64802C47.8104 6.34192 50.0978 4.04668 53.4063 4.04272C64.3962 4.0229 75.3823 4.02686 86.3722 4.04272C89.1187 4.04668 91.0025 5.49756 91.8177 8.12578C91.8613 8.26453 91.9365 8.39138 91.9958 8.52616C91.9919 18.2185 91.9919 27.9188 91.9919 37.619ZM69.8932 7.62234C64.5347 7.62234 59.1763 7.62234 53.8139 7.62234C51.9895 7.62234 51.3879 8.22489 51.3879 10.0484C51.3879 18.7299 51.3879 27.4113 51.3879 36.0889C51.3879 37.9124 51.9895 38.5149 53.8139 38.5149C64.5308 38.5149 75.2516 38.5149 85.9686 38.5149C87.793 38.5149 88.3945 37.9124 88.3945 36.0889C88.3945 27.4074 88.3945 18.7259 88.3945 10.0484C88.3945 8.22489 87.793 7.62234 85.9686 7.62234C80.6101 7.61837 75.2517 7.62234 69.8932 7.62234Z" fill="black"/>
<path d="M0.00395834 50.1935C0.486773 48.7228 1.09227 47.2758 2.56446 46.5702C3.50635 46.1183 4.59861 45.7417 5.62361 45.7378C16.6096 45.6783 27.5996 45.6902 38.5896 45.71C41.898 45.714 44.1855 48.0092 44.1934 51.3153C44.2132 60.2663 44.2132 69.2174 44.1934 78.1645C44.1855 81.4706 41.898 83.7658 38.5896 83.7698C27.5996 83.7896 16.6136 83.7856 5.62361 83.7698C2.8771 83.7658 0.993333 82.3149 0.178088 79.6867C0.134555 79.5479 0.0593625 79.4211 0 79.2863C0.0039575 69.59 0.00395834 59.8898 0.00395834 50.1935ZM22.1026 80.1901C27.4611 80.1901 32.8195 80.1901 38.182 80.1901C40.0064 80.1901 40.6079 79.5876 40.6079 77.7641C40.6079 69.0826 40.6079 60.4011 40.6079 51.7236C40.6079 49.9001 40.0064 49.2976 38.182 49.2976C27.465 49.2976 16.7442 49.2976 6.02727 49.2976C4.20287 49.2976 3.60132 49.9001 3.60132 51.7236C3.60132 60.4051 3.60132 69.0866 3.60132 77.7641C3.60132 79.5876 4.20287 80.1901 6.02727 80.1901C11.3818 80.1901 16.7442 80.1901 22.1026 80.1901Z" fill="black"/>
<path d="M91.9922 79.2904C91.822 79.7344 91.6875 80.1903 91.4817 80.6144C90.4686 82.7075 88.755 83.7421 86.4636 83.7699C83.262 83.8095 80.0564 83.7857 76.8548 83.7778C75.5171 83.7738 74.7296 83.0999 74.7217 81.9939C74.7177 80.8879 75.5053 80.1982 76.835 80.1903C79.8902 80.1784 82.9414 80.1903 85.9966 80.1863C87.7735 80.1863 88.3988 79.5758 88.4028 77.8316C88.4067 69.0907 88.4067 60.3537 88.4028 51.6127C88.4028 49.9201 87.7656 49.2937 86.052 49.2937C75.2757 49.2898 64.4995 49.2898 53.7232 49.2937C52.0254 49.2937 51.3962 49.928 51.3962 51.6365C51.3922 60.3775 51.3922 69.1144 51.3962 77.8554C51.3962 79.556 52.0294 80.1823 53.7351 80.1863C56.3391 80.1903 58.9431 80.1863 61.5472 80.1863C61.7846 80.1863 62.026 80.1744 62.2635 80.1982C63.3241 80.3052 64.0087 81.0307 63.9929 82.0138C63.9771 82.9572 63.3043 83.7342 62.2872 83.7461C59.0856 83.7818 55.8761 83.8571 52.6824 83.7025C50.0506 83.5756 48.1194 81.4905 47.8424 78.8662C47.8028 78.4817 47.8028 78.0893 47.8028 77.7008C47.7988 69.051 47.7988 60.4013 47.8028 51.7515C47.8028 47.8785 49.9873 45.6982 53.8696 45.6982C64.3174 45.6982 74.7652 45.6982 85.213 45.6982C89.2734 45.6982 90.4884 46.503 92.0001 50.1896C91.9922 59.8899 91.9922 69.5901 91.9922 79.2904Z" fill="black"/>
<path d="M0.00395834 8.51847C0.455113 7.17462 0.961674 5.7951 2.26765 5.09741C3.24119 4.57811 4.36908 4.12224 5.44552 4.07863C8.67484 3.94781 11.9081 4.0152 15.1414 4.03502C16.5978 4.04295 17.4526 5.11724 17.0687 6.37387C16.8233 7.17859 16.1229 7.61465 15.0108 7.61861C12.0466 7.62654 9.08246 7.61861 6.11829 7.62257C4.16329 7.62257 3.59341 8.18945 3.59341 10.1319C3.59341 18.7499 3.59341 27.3719 3.59341 35.99C3.59341 37.9483 4.15933 38.5151 6.09851 38.5191C16.7561 38.5191 27.4136 38.5191 38.0711 38.5191C40.0341 38.5191 40.6039 37.9562 40.6039 36.0217C40.6039 27.4036 40.6039 18.7816 40.6039 10.1636C40.6039 8.19737 40.042 7.6305 38.1068 7.62654C35.384 7.62654 32.6573 7.6424 29.9345 7.61861C28.4742 7.60672 27.6075 6.52451 28.0112 5.28373C28.2763 4.47108 28.8937 4.05485 29.705 4.05088C32.8789 4.03106 36.0568 3.94781 39.2228 4.09449C42.0959 4.2253 44.1261 6.5364 44.1855 9.47779C44.2251 11.333 44.1934 13.1882 44.1934 15.0435C44.1934 22.0481 44.1934 29.0488 44.1934 36.0534C44.1934 39.9303 42.0089 42.1106 38.1305 42.1106C27.6827 42.1106 17.2349 42.1106 6.78711 42.1106C2.72672 42.1106 1.51176 41.3059 0 37.6192C0.0039575 27.919 0.00395834 18.2187 0.00395834 8.51847Z" fill="black"/>
<path d="M14.5321 23.0709C14.5321 21.1879 14.5124 19.301 14.5361 17.418C14.5796 13.997 17.7219 12.225 20.6267 14.0168C23.6265 15.868 26.5986 17.7748 29.539 19.7212C32.147 21.4496 32.1509 24.6803 29.5429 26.4087C26.6025 28.3551 23.6344 30.2658 20.6306 32.1131C17.714 33.9089 14.5796 32.1409 14.5361 28.7198C14.5124 26.8408 14.5321 24.9578 14.5321 23.0709ZM28.1143 23.0669C24.7069 20.8827 21.533 18.853 18.2126 16.7243C18.2126 21.0492 18.2126 25.1085 18.2126 29.4135C21.5567 27.2689 24.7306 25.2393 28.1143 23.0669Z" fill="black"/>
<path d="M63.0308 64.6784C63.0308 62.5259 62.8765 60.3615 63.0704 58.2288C63.3039 55.6719 66.0464 54.2765 68.3893 55.3429C68.6861 55.4776 68.9829 55.6283 69.256 55.8067C72.1014 57.6262 74.9548 59.4378 77.7883 61.2772C80.6338 63.1245 80.618 66.3632 77.7606 68.2144C74.9271 70.0538 72.0737 71.8615 69.2322 73.6889C67.8788 74.561 66.4541 74.8147 64.9898 74.0457C63.4859 73.2529 62.9279 71.8773 62.92 70.2401C62.9121 68.3849 62.92 66.5297 62.92 64.6745C62.9556 64.6784 62.9913 64.6784 63.0308 64.6784ZM66.6203 58.3873C66.6203 62.74 66.6203 66.7992 66.6203 71.0964C69.9762 68.9478 73.1462 66.9142 76.5338 64.7419C73.1422 62.5655 69.9723 60.5359 66.6203 58.3873Z" fill="black"/>
<path d="M71.6702 81.99C71.6662 82.9176 70.8074 83.7699 69.8814 83.7659C68.9474 83.762 68.1045 82.9097 68.1084 81.9781C68.1124 81.0465 68.9632 80.1982 69.8932 80.2022C70.8233 80.2061 71.6741 81.0624 71.6702 81.99Z" fill="black"/>
<path d="M23.8833 5.85078C23.8674 6.78632 23.0087 7.62275 22.0786 7.6069C21.1447 7.59104 20.3057 6.73082 20.3215 5.80321C20.3373 4.86767 21.1961 4.03124 22.1261 4.0471C23.0601 4.05899 23.8991 4.91921 23.8833 5.85078Z" fill="black"/>
<path d="M69.8934 7.62237C75.2519 7.62237 80.6103 7.62237 85.9727 7.62237C87.7971 7.62237 88.3987 8.22492 88.3987 10.0484C88.3987 18.7299 88.3987 27.4114 88.3987 36.0889C88.3987 37.9124 87.7971 38.5149 85.9727 38.5149C75.2558 38.5149 64.5349 38.5149 53.818 38.5149C51.9936 38.5149 51.3921 37.9124 51.3921 36.0889C51.3921 27.4074 51.3921 18.7259 51.3921 10.0484C51.3921 8.22492 51.9936 7.62237 53.818 7.62237C59.1725 7.6184 64.5349 7.62237 69.8934 7.62237ZM63.0311 23.0032C62.9955 23.0032 62.9599 23.0032 62.9203 23.0032C62.9203 24.8585 62.9163 26.7137 62.9203 28.5689C62.9242 30.2061 63.4823 31.5817 64.9861 32.3784C66.4464 33.1515 67.8711 32.8977 69.2285 32.0296C72.0977 30.1863 74.9788 28.3667 77.8321 26.5036C80.6222 24.684 80.6024 21.4414 77.7926 19.6139C74.959 17.7706 72.1096 15.9629 69.2602 14.1434C68.9832 13.969 68.6903 13.8144 68.3935 13.6796C66.0507 12.6093 63.3042 14.0007 63.0707 16.5575C62.8768 18.6863 63.0311 20.8507 63.0311 23.0032Z" fill="#FFCA41"/>
<path d="M22.1024 80.1904C16.744 80.1904 11.3855 80.1904 6.02311 80.1904C4.19871 80.1904 3.59717 79.5879 3.59717 77.7644C3.59717 69.0829 3.59717 60.4014 3.59717 51.7239C3.59717 49.9004 4.19871 49.2979 6.02311 49.2979C16.74 49.2979 27.4609 49.2979 38.1778 49.2979C40.0022 49.2979 40.6037 49.9004 40.6037 51.7239C40.6037 60.4054 40.6037 69.0869 40.6037 77.7644C40.6037 79.5879 40.0022 80.1904 38.1778 80.1904C32.8193 80.1904 27.4609 80.1904 22.1024 80.1904ZM14.5317 64.6589C14.5317 66.5736 14.512 68.4883 14.5357 70.403C14.5832 73.82 17.7215 75.5841 20.6342 73.7883C23.6379 71.9371 26.6061 70.0303 29.5465 68.0839C32.1545 66.3556 32.1466 63.1208 29.5346 61.3964C26.5942 59.45 23.6261 57.5433 20.6223 55.692C17.7136 53.9002 14.5792 55.6762 14.5357 59.1012C14.512 60.9485 14.5317 62.8037 14.5317 64.6589Z" fill="white"/>
<path d="M28.1146 23.0668C24.7269 25.2352 21.557 27.2688 18.2129 29.4094C18.2129 25.1083 18.2129 21.0451 18.2129 16.7202C21.5332 18.8529 24.7071 20.8826 28.1146 23.0668Z" fill="#FFCA41"/>
<path d="M66.6206 58.3877C69.9726 60.5363 73.1426 62.5699 76.5341 64.7422C73.1426 66.9146 69.9726 68.9482 66.6206 71.0967C66.6206 66.7996 66.6206 62.7364 66.6206 58.3877Z" fill="#FFCA41"/>
<path d="M63.0308 23.0033C63.0308 20.8507 62.8765 18.6863 63.0704 16.5536C63.3039 14.0007 66.0504 12.6053 68.3932 13.6756C68.6901 13.8104 68.9869 13.965 69.2599 14.1394C72.1054 15.959 74.9587 17.7706 77.7923 19.61C80.6021 21.4374 80.6219 24.6801 77.8319 26.4996C74.9785 28.3628 72.0935 30.1823 69.2283 32.0257C67.8748 32.8978 66.4462 33.1475 64.9858 32.3745C63.482 31.5777 62.9279 30.2022 62.92 28.565C62.9121 26.7097 62.92 24.8545 62.92 22.9993C62.9556 23.0033 62.9952 23.0033 63.0308 23.0033ZM66.5886 29.441C69.9842 27.2647 73.1541 25.2351 76.5338 23.0667C73.1264 20.8825 69.9446 18.8449 66.5886 16.6924C66.5886 21.0569 66.5886 25.1003 66.5886 29.441Z" fill="black"/>
<path d="M14.5321 64.6586C14.5321 62.8034 14.5124 60.9481 14.5361 59.0969C14.5796 55.6758 17.7179 53.8959 20.6227 55.6877C23.6265 57.539 26.5946 59.4457 29.535 61.3921C32.147 63.1205 32.1549 66.3513 29.5469 68.0796C26.6065 70.03 23.6383 71.9328 20.6346 73.784C17.7179 75.5798 14.5796 73.8197 14.5361 70.3987C14.5124 68.4879 14.5321 66.5733 14.5321 64.6586ZM18.2245 58.4032C18.2245 62.732 18.2245 66.7913 18.2245 71.0805C21.5686 68.9359 24.7425 66.9023 28.1182 64.7418C24.7385 62.5774 21.5646 60.5438 18.2245 58.4032Z" fill="black"/>
<path d="M66.5889 29.4411C66.5889 25.1003 66.5889 21.0569 66.5889 16.6924C69.9448 18.8449 73.1227 20.8825 76.5341 23.0667C73.1544 25.2351 69.9844 27.2648 66.5889 29.4411Z" fill="white"/>
<path d="M18.2241 58.4033C21.5682 60.5479 24.7382 62.5776 28.1179 64.742C24.7421 66.9064 21.5722 68.936 18.2241 71.0807C18.2241 66.7914 18.2241 62.7322 18.2241 58.4033Z" fill="#FFCA41"/>
</svg>
