<svg width="130" height="100" viewBox="0 0 130 100" fill="none" xmlns="http://www.w3.org/2000/svg">
<path d="M47.6452 9C48.8216 9.3267 50.0634 9.30492 51.2834 9.50094C62.1108 11.2434 71.1519 16.2746 78.3193 24.551C84.0054 31.1068 87.5564 38.7299 88.6022 47.333C90.5193 63.189 85.5086 76.562 73.5483 87.1907C67.0126 93.006 59.2787 96.469 50.6298 97.5798C36.8177 99.344 24.6395 95.5542 14.3349 86.1888C7.10212 79.6112 2.65785 71.3783 0.762497 61.795C0.479284 60.314 0.239642 58.8329 0.174285 57.3301C0.174285 57.1994 0.174285 57.0252 0 56.9816C0 56.4589 0 55.9362 0 55.4135C0.152499 54.9996 0.152499 54.6076 0 54.1938C0 53.7364 0 53.2572 0 52.7998C0.152499 52.386 0.152499 51.994 0 51.5802C0 51.0574 0 50.5347 0 50.012C0.217856 48.5963 0.174285 47.137 0.413927 45.7213C1.87356 37.5755 5.33748 30.3881 10.7185 24.1372C14.5964 19.6287 19.2367 16.0568 24.5742 13.4214C28.8006 11.3305 33.2449 9.87121 37.9506 9.23958C38.9745 9.1089 40.0202 9.17424 41.0441 9C41.567 9 42.0898 9 42.6127 9C43.0266 9.15246 43.4188 9.15246 43.8327 9C44.2902 9 44.7695 9 45.227 9C45.6409 9.15246 46.033 9.15246 46.447 9C46.8173 9 47.2312 9 47.6452 9Z" fill="#020203"/>
<path d="M86.7479 52.9803C86.5738 76.1523 68.0889 94.642 45.0101 94.6202C21.8006 94.5985 3.31571 75.9345 3.38103 52.8496C3.44635 29.6341 22.1054 11.2097 45.1189 11.2533C68.3066 11.3186 86.6391 29.9607 86.7479 52.9803Z" fill="#EBEBEB"/>
<path d="M44.3258 69.8356C39.8769 69.7033 35.6042 68.425 31.4858 66.5295C24.9226 63.532 19.3065 59.168 14.1749 54.1428C13.3159 53.3053 13.2939 52.5559 14.1528 51.7183C19.4826 46.4727 25.341 41.9545 32.2566 38.957C36.3531 37.1717 40.5817 35.9154 45.1186 36.0476C49.1931 36.1578 53.0473 37.348 56.7473 38.957C63.6629 41.9765 69.4993 46.4948 74.8511 51.7183C75.688 52.5338 75.688 53.2832 74.8731 54.0767C69.1909 59.6529 62.9581 64.4136 55.492 67.3891C51.9461 68.7997 48.3121 69.7474 44.3258 69.8356Z" fill="#020203"/>
<path d="M46.9267 15.764C54.166 16.1514 61.1467 18.4762 67.2872 23.1689C75.1513 29.153 80.0205 36.9884 81.7226 46.7612C82.0458 48.5909 82.2397 50.4421 82.2397 52.2933C82.2397 52.7023 82.1751 52.9175 81.7011 52.8745C81.0116 52.8314 80.1714 53.0897 79.6758 52.7884C79.1372 52.444 79.4388 51.5184 79.3957 50.8726C79.0941 45.9647 77.8014 41.3367 75.5175 36.9884C72.7382 31.6931 68.8169 27.4094 63.8183 24.116C59.6601 21.3822 55.0924 19.7032 50.1801 18.9068C48.6719 18.67 47.1637 18.5623 45.6555 18.5193C45.2246 18.5193 45.0092 18.4117 45.0738 17.9381C45.1169 17.6798 45.0738 17.4215 45.0738 17.1632C45.0738 15.7425 45.0738 15.7425 46.9267 15.764Z" fill="#020203"/>
<path d="M43.1047 91.2359C35.5827 90.8364 28.3269 88.3735 21.9588 83.4475C13.9708 77.2789 9.00053 69.2464 7.29199 59.2391C6.98135 57.3975 6.80384 55.5558 6.75946 53.6919C6.73727 53.0928 6.93697 52.9374 7.49169 52.9818C8.15735 53.0262 9.00053 52.7821 9.46649 53.115C9.91027 53.4256 9.644 54.3132 9.68838 54.9567C9.99902 60.038 11.3303 64.853 13.6824 69.3574C16.5447 74.8159 20.5831 79.2315 25.7309 82.6265C30.0133 85.4445 34.7173 87.1974 39.7763 87.9962C41.1964 88.2181 42.6387 88.3513 44.081 88.3735C44.9241 88.3956 45.146 88.6841 45.0351 89.4385C45.0129 89.5717 45.0351 89.727 45.0351 89.8823C45.0351 91.258 45.0351 91.258 43.1047 91.2359Z" fill="#020203"/>
<path d="M44.5002 39.4177C52.2034 39.4177 58.6264 45.8407 58.5823 53.5218C58.5602 61.2471 52.1372 67.648 44.4561 67.5818C36.7529 67.5376 30.4403 61.225 30.4182 53.5218C30.3741 45.8186 36.775 39.4177 44.5002 39.4177Z" fill="white"/>
<path d="M58.582 63.0502C62.8433 56.7453 62.8433 50.4193 58.9082 43.9241C59.7995 44.4107 60.7127 44.855 61.5606 45.3628C65.2349 47.5631 68.6265 50.102 71.7572 53.0005C71.9964 53.2332 72.3225 53.3602 71.8877 53.7622C67.9525 57.3801 63.6477 60.5113 58.8429 62.9656C58.7342 63.0502 58.6473 63.1137 58.582 63.0502Z" fill="white"/>
<path d="M31.5444 63.076C26.5679 60.5668 22.2462 57.3985 18.2956 53.7837C17.9245 53.4434 17.9463 53.2733 18.2956 52.9544C22.0279 49.5521 26.0659 46.5327 30.584 44.1724C30.7804 44.0661 30.9551 43.8109 31.1733 43.981C31.4789 44.2149 31.1078 44.3638 31.0205 44.5126C27.31 50.6579 27.3973 56.7393 31.3916 62.7358C31.4352 62.7783 31.4571 62.8633 31.5444 63.076Z" fill="white"/>
<path d="M49.4638 54.8892C48.5219 54.8892 47.58 54.9319 46.6596 54.8678C46.0388 54.8251 45.8461 54.9747 45.8675 55.6373C45.9317 57.5611 45.8889 59.5063 45.8889 61.4301C45.8889 62.6057 45.3966 63.076 44.2193 63.076C39.3601 63.076 35.0789 58.7795 34.929 53.9273C34.7792 49.4171 37.8831 44.8 43.3416 44.0091C48.1366 43.3251 53.0386 46.852 53.8948 51.5974C54.0018 52.2386 54.1089 52.8799 54.0661 53.5425C54.0233 54.3334 53.5095 54.8678 52.7175 54.8892C51.6258 54.9106 50.5341 54.8892 49.4638 54.8892Z" fill="#020203"/>
<path d="M51.8214 51.6485C49.5325 51.6485 47.2903 51.6485 45.0715 51.6485C43.5533 51.6485 43.1095 52.08 43.1095 53.504C43.1095 55.5537 43.1095 57.625 43.1095 59.6962C39.8163 59.1784 37.107 56.4383 37.1771 52.943C37.2472 49.2104 40.1433 46.4487 44.3474 46.1898C47.6406 45.9956 51.0039 48.0669 51.8214 51.6485Z" fill="#FFCA41"/>
</svg>
