<svg width="130" height="100" viewBox="0 0 130 100" fill="none" xmlns="http://www.w3.org/2000/svg">
<path d="M87.8268 67.1684V60.9365H78.0112H77.5205H67.7049V67.1684C67.7049 70.5779 65.1492 73.3823 61.8574 73.7897V73.8437H77.5205H78.0112H93.6743V73.7897C90.3825 73.3823 87.8268 70.5719 87.8268 67.1684Z" fill="#D8DBD7" stroke="#010200" stroke-width="3"/>
<path d="M121.051 61.7514C121.051 63.5551 119.591 65.0172 117.789 65.0172H37.7502C35.9486 65.0172 34.4883 63.5551 34.4883 61.7514V17.5411C34.4883 15.7315 35.9486 14.2754 37.7502 14.2754H117.783C119.585 14.2754 121.045 15.7375 121.045 17.5411V61.7514H121.051Z" fill="#D8DBD7" stroke="#010200" stroke-width="3"/>
<path d="M121.051 53.4761C121.051 55.2797 119.591 56.7418 117.789 56.7418H37.7502C35.9486 56.7418 34.4883 55.2797 34.4883 53.4761V9.26575C34.4883 7.4621 35.9486 6 37.7502 6H117.783C119.585 6 121.045 7.4621 121.045 9.26575V53.4761H121.051Z" fill="white" stroke="black" stroke-width="3" stroke-linecap="round" stroke-linejoin="round"/>
<path d="M99.3972 76.5462C99.3972 77.6068 98.5354 78.4697 97.476 78.4697H58.0581C56.9987 78.4697 56.1309 77.6068 56.1309 76.5462V75.7673C56.1309 74.7006 56.9927 73.8438 58.0581 73.8438H97.476C98.5354 73.8438 99.3972 74.7066 99.3972 75.7673V76.5462Z" fill="#D8DBD7" stroke="#010200" stroke-width="3"/>
<path d="M85.5356 13.4668H40.7344V31.2006H85.5356V13.4668Z" fill="#FFCA41"/>
<path d="M114.47 34.9341H40.7344V52.6679H114.47V34.9341Z" fill="#DDDDDC"/>
<path d="M114.47 13.4668H90.2031V31.2006H114.47V13.4668Z" fill="#FFCA41"/>
<rect x="10" y="44.6582" width="52.5408" height="36.9578" rx="3" fill="white" stroke="black" stroke-width="2"/>
<path d="M69.0304 88.5558C68.0885 89.4977 66.5477 89.4977 65.6077 88.5558L49.2793 72.2273L52.2288 68.3315L69.0304 85.1331C69.9723 86.0731 69.9723 87.6139 69.0304 88.5558Z" fill="#FFCA41" stroke="black"/>
<path d="M54.227 68.3796L48.8599 73.7466C48.8599 73.7466 45.5529 70.0378 41.1732 70.4566C39.5547 66.9013 37.7032 59.3264 37.1934 57.1659L44.5011 64.4737C44.2661 64.902 44.3305 65.4497 44.6944 65.8116C45.1359 66.2532 45.8485 66.2532 46.2901 65.8116C46.7317 65.3701 46.7336 64.6556 46.292 64.214C45.93 63.852 45.3804 63.7895 44.9521 64.0245L37.6444 56.7168C39.8068 57.2266 47.3817 59.0763 50.9351 60.6966C50.5182 65.0725 54.227 68.3796 54.227 68.3796Z" fill="#FFCA41" stroke="black"/>
<path d="M35.955 91.0007C26.1608 81.2066 26.1608 65.2721 35.955 55.4799C45.7491 45.6857 61.6836 45.6857 71.4777 55.4799L71.1878 55.7698C61.5547 46.1368 45.8799 46.1368 36.2468 55.7698C26.6138 65.4029 26.6138 81.0777 36.2468 90.7108L35.955 91.0007Z" fill="black"/>
<path d="M53.5681 37.8645L18.3379 73.0947L18.6287 73.3855L53.8589 38.1553L53.5681 37.8645Z" fill="black"/>
<path d="M36.1006 52.9936L33.4688 55.6255L36.1006 58.2574L38.7325 55.6255L36.1006 52.9936Z" fill="#FFCA41"/>
<path d="M36.1 58.5477L33.1758 55.6234L36.1 52.6992L39.0242 55.6234L36.1 58.5477ZM33.7595 55.6253L36.1019 57.9677L38.4424 55.6253L36.1 53.2829L33.7595 55.6253Z" fill="black"/>
<path d="M36.1006 88.2241L33.4688 90.856L36.1006 93.4878L38.7325 90.856L36.1006 88.2241Z" fill="#FFCA41"/>
<path d="M36.1 93.7781L33.1758 90.8539L36.1 87.9297L39.0242 90.8539L36.1 93.7781ZM33.7595 90.8558L36.1019 93.1982L38.4424 90.8558L36.1 88.5134L33.7595 90.8558Z" fill="black"/>
<path d="M71.4092 52.9155L68.7773 55.5474L71.4092 58.1792L74.0411 55.5474L71.4092 52.9155Z" fill="#FFCA41"/>
<path d="M71.4106 58.4715L68.4863 55.5473L71.4106 52.623L74.3348 55.5473L71.4106 58.4715ZM69.0681 55.5473L71.4106 57.8897L73.753 55.5473L71.4106 53.2049L69.0681 55.5473Z" fill="black"/>
<path d="M53.7946 39.7929C54.8225 39.7929 55.6557 38.9597 55.6557 37.9318C55.6557 36.904 54.8225 36.0708 53.7946 36.0708C52.7668 36.0708 51.9336 36.904 51.9336 37.9318C51.9336 38.9597 52.7668 39.7929 53.7946 39.7929Z" fill="#FFCA41"/>
<path d="M53.7938 39.9995C53.2423 39.9995 52.723 39.7854 52.3326 39.395C51.5272 38.5895 51.5272 37.2781 52.3326 36.4708C52.723 36.0804 53.2423 35.8662 53.7938 35.8662C54.3452 35.8662 54.8645 36.0804 55.2549 36.4708C55.6453 36.8612 55.8595 37.3804 55.8595 37.9319C55.8595 38.4834 55.6453 39.0027 55.2549 39.3931C54.8645 39.7854 54.3452 39.9995 53.7938 39.9995ZM53.7938 36.2775C53.3522 36.2775 52.9353 36.4499 52.6226 36.7626C51.9763 37.4089 51.9763 38.4588 52.6226 39.105C53.2688 39.7513 54.3187 39.7513 54.965 39.105C55.2777 38.7923 55.4501 38.3773 55.4501 37.9338C55.4501 37.4923 55.2777 37.0753 54.965 36.7626C54.6523 36.4499 54.2353 36.2775 53.7938 36.2775Z" fill="black"/>
<path d="M18.4841 75.102C19.5119 75.102 20.3451 74.2687 20.3451 73.2409C20.3451 72.2131 19.5119 71.3799 18.4841 71.3799C17.4563 71.3799 16.623 72.2131 16.623 73.2409C16.623 74.2687 17.4563 75.102 18.4841 75.102Z" fill="#FFCA41"/>
<path d="M18.4832 75.3067C17.9545 75.3067 17.4238 75.1058 17.022 74.7021C16.2166 73.8967 16.2166 72.5852 17.022 71.7779C17.8275 70.9725 19.1389 70.9725 19.9463 71.7779C20.7517 72.5833 20.7517 73.8948 19.9463 74.7021C19.5426 75.1058 19.0139 75.3067 18.4832 75.3067ZM18.4832 71.5846C18.0587 71.5846 17.6361 71.7457 17.312 72.0679C16.6658 72.7141 16.6658 73.764 17.312 74.4103C17.9583 75.0565 19.0082 75.0565 19.6544 74.4103C20.3007 73.764 20.3007 72.7141 19.6544 72.0679C19.3322 71.7476 18.9077 71.5846 18.4832 71.5846Z" fill="black"/>
</svg>
