<svg width="130" height="100" viewBox="0 0 130 100" fill="none" xmlns="http://www.w3.org/2000/svg">
<path d="M42 90.4288C40.8895 89.9989 39.711 90.0442 38.5779 89.7727C28.9688 87.465 22.102 81.8315 18.0906 72.827C15.847 67.7365 15.2351 62.3972 16.1416 56.8768C16.4589 54.9764 16.9348 53.1438 17.6374 51.3565C17.864 50.7909 17.796 50.4968 17.2748 50.1348C12.1076 46.5149 7.84702 42.0126 4.42493 36.6959C3.85836 35.8135 3.85836 35.1122 4.42493 34.2298C6.64589 30.8136 9.16147 27.6235 12.1076 24.8181C12.6969 24.2525 12.5836 24.0263 11.9943 23.619C10.204 22.3521 8.50425 21.0172 6.73654 19.7276C6.35127 19.4561 6.10198 19.2299 6.55524 18.7774C7.07649 18.2344 7.34844 17.1937 8.00566 17.1258C8.54957 17.0806 9.18413 17.8724 9.77337 18.3249C11.3371 19.4788 12.9008 20.6552 14.4419 21.8317C14.8045 22.1258 15.0538 22.1484 15.4391 21.8317C18.204 19.5693 21.2408 17.7593 24.4816 16.2887C24.9802 16.0625 25.0482 15.8815 24.7989 15.3837C23.7337 13.3476 22.7365 11.2661 21.6714 9.22992C21.4221 8.75481 21.4901 8.55119 21.9887 8.37019C22.6912 8.0987 23.4164 7.30685 24.0057 7.53309C24.5042 7.73671 24.7082 8.73218 25.0482 9.36566C25.8867 11.0172 26.7252 12.6688 27.5411 14.3204C27.745 14.7276 27.8583 14.9086 28.4023 14.7503C31.8244 13.619 35.3598 12.9177 38.9632 12.5331C40.1416 12.42 41.3428 12.3521 42.5212 12.3521C43.1331 12.3521 43.2464 12.1258 43.2464 11.5829C43.2238 9.22992 43.2691 6.89961 43.2011 4.54667C43.1785 3.75482 43.4277 3.57383 44.153 3.66432C44.6289 3.70957 45.1275 3.70957 45.6034 3.66432C46.17 3.59645 46.2379 3.84532 46.2379 4.34305C46.2153 6.76386 46.2379 9.20729 46.2153 11.6281C46.2153 12.239 46.3513 12.4652 46.9858 12.4878C51.4957 12.6688 55.8697 13.5285 60.1303 14.9991C60.7422 15.2028 61.0368 15.1123 61.3088 14.4788C62.3513 12.3068 63.4844 10.1575 64.5269 7.98558C64.7762 7.48784 64.9575 7.28422 65.5014 7.62359C66.1133 8.0082 67.1331 8.1892 67.3144 8.70956C67.4957 9.18467 66.8158 9.97652 66.4986 10.6326C65.66 12.3521 64.7988 14.0489 63.9377 15.7457C63.6884 16.1982 63.779 16.3792 64.2549 16.5828C67.7903 18.1439 71.0991 20.1575 74.0906 22.6009C74.4986 22.9403 74.7252 22.8498 75.0651 22.5557C77.0141 20.8362 78.9858 19.1394 80.9348 17.4199C81.3201 17.0806 81.5467 17.0127 81.8413 17.4652C81.932 17.6236 82.0906 17.7593 82.2266 17.9177C83.3597 19.2073 83.3597 19.2299 82.0226 20.3611C80.4362 21.7412 78.8272 23.1439 77.2181 24.524C76.8328 24.8407 76.8555 24.9991 77.1954 25.3385C79.9377 27.9629 82.3173 30.8814 84.4022 34.0715C85.1954 35.2706 85.1954 35.6099 84.4249 36.809C81.0481 42.0126 77.0141 46.6054 71.983 50.2931C71.6204 50.542 71.6204 50.7909 71.7563 51.1302C73.0255 54.2977 73.6374 57.6008 73.7054 60.9945C73.7733 64.6596 73.1841 68.2343 71.8697 71.6506C69.1501 78.6641 64.4589 83.9356 57.7054 87.3292C54.4872 88.9582 51.0878 89.9537 47.4617 90.2478C47.3937 90.2478 47.3484 90.3383 47.3031 90.4062C47.1898 90.4062 47.0765 90.4062 46.9632 90.4062C46.8498 90.293 46.7365 90.293 46.6232 90.4062C45.0368 90.4288 43.5184 90.4288 42 90.4288Z" fill="#020203"/>
<path d="M52.649 22.9614C50.7995 24.3336 50.168 25.9531 50.6868 27.8651C51.0927 29.4397 52.6039 30.7444 54.2052 30.9693C56.1449 31.2392 57.7237 30.3395 58.8514 28.36C60.7685 30.7893 62.0766 34.8158 61.9638 38.0099C50.5063 30.4969 39.0488 30.4744 27.5462 38.0099C27.4785 36.9752 27.6138 35.963 27.8394 34.9507C27.9522 34.4109 27.9296 34.006 27.2304 34.006C26.9823 34.006 26.7342 33.8935 26.4861 33.8485C25.0427 33.5336 25.0652 33.5336 24.8397 35.0182C24.5916 36.6378 24.5465 38.2573 24.6818 39.8769C24.7269 40.3718 24.6141 40.7092 24.2533 41.0691C22.4038 42.8686 20.8927 44.9156 19.6522 47.1425C19.4041 47.5699 19.2688 47.6823 18.8177 47.3449C14.4197 44.1733 10.7208 40.3268 7.69852 35.828C7.47298 35.5131 7.36021 35.2656 7.63086 34.8832C11.5553 29.0348 16.3142 24.0186 22.4941 20.4871C26.7793 18.0577 31.3578 16.5506 36.2295 15.8083C40.6276 15.1335 45.0257 15.0211 49.4237 15.5384C61.6706 16.978 71.7523 22.4441 79.3757 32.184C80.0748 33.0612 80.7063 34.006 81.3604 34.9057C81.5408 35.1532 81.6085 35.3331 81.4055 35.648C78.3607 40.2143 74.752 44.2632 70.3314 47.5474C70.2863 47.5699 70.2187 47.5924 70.151 47.6148C68.7752 45.1405 67.1287 42.8461 65.0763 40.8666C64.7605 40.5517 64.8057 40.2143 64.8282 39.8544C65.1214 36.2104 64.5576 32.7013 62.9111 29.4397C59.7761 23.2539 54.8142 19.4749 47.9126 18.3502C38.936 16.8881 30.2076 21.5668 26.3959 29.7546C26.1027 30.362 26.238 30.5644 26.8019 30.7668C27.4334 30.9693 28.11 31.5316 28.6513 31.4192C29.2603 31.3067 29.3054 30.362 29.6437 29.7996C32.5758 24.7834 36.9738 21.9042 42.7251 21.0719C45.8376 20.6445 50.2357 21.4768 52.649 22.9614Z" fill="#EBEBEB"/>
<path d="M43.32 69.4323C43.32 71.4241 43.2971 73.4159 43.3429 75.3843C43.3429 75.9233 43.1825 76.0639 42.6785 76.0873C40.021 76.2045 37.3635 76.2045 34.7289 76.5325C34.3395 76.5794 34.1333 76.4857 33.9958 76.0404C32.69 71.9162 31.934 67.6983 31.7736 63.3631C31.7507 62.7773 31.911 62.6367 32.4609 62.6601C35.8515 62.6836 39.265 62.6836 42.6556 62.6601C43.2513 62.6601 43.3429 62.871 43.3429 63.41C43.32 65.4018 43.32 67.4171 43.32 69.4323Z" fill="#FFCA41"/>
<path d="M46.8353 69.2821C46.8353 67.2925 46.8559 65.3028 46.8147 63.3365C46.8147 62.7982 46.9177 62.6577 47.392 62.6577C50.4847 62.6811 53.5568 62.6811 56.6495 62.6577C57.1443 62.6577 57.2268 62.8216 57.2268 63.3365C57.0825 67.6904 56.3814 71.9272 55.2062 76.0938C55.0825 76.5151 54.8969 76.5619 54.5877 76.5385C52.1754 76.2108 49.763 76.2108 47.3507 76.0938C46.9177 76.0704 46.794 75.9065 46.8147 75.415C46.8559 73.3551 46.8353 71.3186 46.8353 69.2821Z" fill="#FFCA41"/>
<path d="M46.8149 53.6037C46.8149 51.5912 46.8356 49.5787 46.8149 47.5662C46.8149 47.0981 46.8974 46.9343 47.3508 46.9109C49.7831 46.8407 52.2359 46.7471 54.6681 46.4663C54.9979 46.4195 55.1215 46.5599 55.204 46.8875C56.3789 51.0295 57.0797 55.2652 57.224 59.6412C57.2446 60.156 57.1621 60.3432 56.6468 60.3432C53.555 60.3198 50.4839 60.3198 47.3921 60.3432C46.8974 60.3432 46.7943 60.156 46.8149 59.6412C46.8356 57.6521 46.8149 55.6396 46.8149 53.6037Z" fill="#FFCA41"/>
<path d="M43.3429 53.5904C43.3429 55.6069 43.32 57.6234 43.3429 59.6398C43.3429 60.1557 43.2513 60.3432 42.7013 60.3432C39.2643 60.3198 35.8501 60.3198 32.4131 60.3432C31.8631 60.3432 31.7715 60.1791 31.7715 59.6633C31.909 55.3021 32.7109 51.0581 34.017 46.8845C34.1545 46.4859 34.3378 46.439 34.7044 46.4625C37.3166 46.6266 39.9517 46.7907 42.5638 46.8845C43.2283 46.908 43.3429 47.0956 43.3429 47.7286C43.32 49.6747 43.3429 51.6443 43.3429 53.5904Z" fill="#FFCA41"/>
<path d="M30.6124 76.6227C28.6153 76.9683 26.6393 77.1988 24.7059 77.6827C24.4297 77.7518 24.281 77.6136 24.111 77.3831C21.6251 73.8573 20.0104 69.9398 19.3305 65.5613C19.203 64.7778 19.1605 63.9712 19.0543 63.1647C19.0118 62.796 19.0543 62.6577 19.4367 62.6577C22.305 62.6808 25.1521 62.6808 28.0204 62.6577C28.4878 62.6577 28.4453 62.9573 28.4665 63.2569C28.5728 65.1926 28.7003 67.1514 28.9765 69.0871C29.3376 71.6451 29.9113 74.1339 30.6124 76.6227Z" fill="#FFCA41"/>
<path d="M58.3867 76.6976C58.9714 74.7054 59.5327 72.7132 59.9069 70.6746C60.3513 68.2885 60.6086 65.8793 60.7021 63.4701C60.7255 62.8678 60.8659 62.6361 61.5441 62.6593C64.5144 62.7056 67.4847 62.6824 70.4784 62.6824C70.8993 62.6824 71.1566 62.6361 71.1098 63.2616C70.7122 67.802 69.2388 71.9255 66.8064 75.7942C65.8943 77.2305 65.0289 78.1107 63.1111 77.5084C61.5909 77.022 59.9771 76.9525 58.3867 76.6976Z" fill="#FFCA41"/>
<path d="M23.7122 60.3414C22.3277 60.3414 20.9432 60.3414 19.5586 60.3414C19.1752 60.3414 19.0048 60.3183 19.0474 59.7863C19.4734 54.6514 21.0497 50.0253 23.904 45.885C24.2022 45.4455 24.4578 45.2142 25.0542 45.3299C26.7582 45.7 28.5049 45.9544 30.2302 46.2088C30.8693 46.3014 30.5285 46.7177 30.4646 46.949C29.9533 48.73 29.5699 50.5342 29.2504 52.3846C28.8244 54.767 28.6114 57.1726 28.5262 59.5781C28.5049 60.1564 28.3558 60.3646 27.7807 60.3414C26.4174 60.2952 25.0755 60.3414 23.7122 60.3414Z" fill="#FFCA41"/>
<path d="M65.9033 60.3185C64.4581 60.3185 63.0128 60.2723 61.5675 60.3416C60.8567 60.3647 60.6671 60.1336 60.6434 59.4866C60.5487 56.2517 60.0985 53.0861 59.3166 49.9437C59.056 48.9039 58.748 47.9103 58.4399 46.8936C58.3215 46.4546 58.3689 46.2928 58.9138 46.2235C60.8804 45.9924 62.8232 45.6689 64.7661 45.3224C65.1689 45.253 65.3347 45.3455 65.5479 45.6227C68.6992 49.6433 70.5946 54.149 71.0685 59.1863C71.187 60.3185 71.1633 60.3185 69.9786 60.3185C68.6281 60.3185 67.2539 60.3185 65.9033 60.3185Z" fill="#FFCA41"/>
<path d="M53.7554 79.232C52.3588 82.2287 50.8425 84.9389 48.0893 86.5033C46.8324 87.2084 46.8324 87.2084 46.8324 85.666C46.8324 83.6168 46.8524 81.5456 46.8125 79.4964C46.8125 78.9896 46.9322 78.8574 47.3911 78.8574C49.4659 78.8795 51.5608 79.0117 53.7554 79.232Z" fill="#FFCA41"/>
<path d="M35.2422 79.2337C37.8333 79.0123 40.3309 78.8796 42.8753 78.8574C43.2955 78.8574 43.3422 79.0123 43.3422 79.3443C43.3422 81.7347 43.3188 84.1471 43.3422 86.5374C43.3422 86.9801 43.2488 87.0243 42.8053 86.8916C41.7082 86.5596 40.7511 86.0063 39.8874 85.298C37.8333 83.6602 36.4093 81.5576 35.2422 79.2337Z" fill="#FFCA41"/>
<path d="M43.3381 36.043C43.3381 38.6555 43.3381 41.1591 43.3381 43.6627C43.3381 43.9022 43.4083 44.1635 42.9638 44.1417C40.4367 44.0546 37.8862 44.0764 35.3592 43.7716C35.3358 43.7716 35.3124 43.7281 35.2422 43.6845C37.0907 40.3971 39.1498 37.3492 43.3381 36.043Z" fill="#FFCA41"/>
<path d="M53.7554 43.7723C52.1287 43.8599 50.5219 43.9475 48.9151 44.0132C48.2803 44.0351 47.4075 44.3197 47.0504 43.9694C46.614 43.5534 46.9115 42.5899 46.9115 41.8674C46.8917 39.9405 46.9115 37.9917 46.9115 36.043C49.5499 36.4809 52.4461 40.2032 53.7554 43.7723Z" fill="#FFCA41"/>
<path d="M63.015 80.6484C60.2738 82.9678 57.3303 84.6509 53.7578 85.8004C55.3306 84.0967 56.5439 82.3931 57.4202 80.5047C57.6224 80.0532 57.937 79.9711 58.3864 80.0326C59.8693 80.2379 61.3747 80.4226 63.015 80.6484Z" fill="#FFCA41"/>
<path d="M36.3978 85.8004C32.9001 84.7638 29.8688 83.029 27.1406 80.7231C28.8661 80.3846 30.5217 80.2153 32.2006 80.0249C32.5037 79.9826 32.6669 80.0673 32.7835 80.3423C33.7395 82.2886 34.9288 84.1079 36.3978 85.8004Z" fill="#FFCA41"/>
<path d="M36.3978 37.2002C34.7721 38.964 33.5755 40.7277 32.6272 42.6761C32.5143 42.8811 32.424 43.0042 32.1305 42.9837C30.4822 42.8401 28.8566 42.6145 27.1406 42.3479C29.8275 40.0099 32.8304 38.3487 36.3978 37.2002Z" fill="#FFCA41"/>
<path d="M63.015 42.3253C61.2764 42.6135 59.6734 42.8193 58.0477 42.984C57.709 43.0045 57.6187 42.8605 57.5058 42.6341C56.5801 40.6993 55.3609 38.9291 53.7578 37.2002C57.3252 38.3117 60.3055 39.9995 63.015 42.3253Z" fill="#FFCA41"/>
<path d="M56.0716 26.8229C56.0531 27.4101 55.4793 27.9606 54.9055 27.9423C54.3131 27.9239 53.7578 27.3734 53.7578 26.7862C53.7578 26.1623 54.3687 25.5934 54.9795 25.6301C55.5718 25.6668 56.0901 26.2173 56.0716 26.8229Z" fill="#FEFEFE"/>
</svg>
