<svg width="130" height="100" viewBox="0 0 130 100" fill="none" xmlns="http://www.w3.org/2000/svg">
<path d="M46.0734 7.73462L14.9504 7.73462C12.5941 7.73462 10.6738 9.65239 10.6738 12.0112L10.6738 87.5329C10.6738 89.8892 12.5916 91.8095 14.9504 91.8095H46.0759C48.4322 91.8095 50.3524 89.8917 50.3524 87.5329L50.3524 12.0087C50.35 9.65239 48.4322 7.73462 46.0734 7.73462Z" fill="#FEFEFE"/>
<path d="M50.6977 82.7107C50.6977 82.7107 13.8598 82.7107 11.4867 82.7107C9.11364 82.7107 10.7374 82.9239 10.7374 83.1861C10.7374 83.4484 10.7374 91.582 10.7374 91.582C10.7374 91.8439 12.6688 92.0574 15.0443 92.0574H46.3908C48.7638 92.0574 50.6977 91.8442 50.6977 91.582V83.1859V82.7107Z" fill="#DDDDDC"/>
<path d="M51.2438 11.1489L9.7168 11.1489C9.7168 8.8991 11.5404 7.073 13.7927 7.073L47.1679 7.073C49.4202 7.073 51.2438 8.89662 51.2438 11.1489Z" fill="#DDDDDC"/>
<path d="M40.6735 7.52905L20.3535 7.52905L20.9655 9.55833C21.2505 10.5023 22.1177 11.1466 23.1038 11.1466H37.9257C38.9118 11.1466 39.779 10.5023 40.064 9.55833L40.6735 7.52905Z" fill="#0F0C14"/>
<path d="M46.0734 7.73442C48.4298 7.73442 50.35 9.6522 50.35 12.011L50.35 87.5327C50.35 89.889 48.4322 91.8093 46.0734 91.8093H14.9505C12.5941 91.8093 10.6739 89.8915 10.6739 87.5327L10.6739 12.0085C10.6739 9.6522 12.5916 7.73194 14.9505 7.73194L46.0734 7.73194V7.73442ZM46.0734 6L14.9505 6C11.6303 6 8.93945 8.69083 8.93945 12.011L8.93945 87.5327C8.93945 90.8529 11.6303 93.5437 14.9505 93.5437H46.0759C49.3961 93.5437 52.0869 90.8529 52.0869 87.5327L52.0869 12.0085C52.0844 8.68835 49.3936 6 46.0734 6Z" fill="#0F0C14"/>
<path d="M15.6477 89.7438C17.0161 89.7438 18.1254 88.6345 18.1254 87.2661C18.1254 85.8977 17.0161 84.7883 15.6477 84.7883C14.2792 84.7883 13.1699 85.8977 13.1699 87.2661C13.1699 88.6345 14.2792 89.7438 15.6477 89.7438Z" fill="white"/>
<path d="M23.0813 89.7438C24.4497 89.7438 25.559 88.6345 25.559 87.2661C25.559 85.8977 24.4497 84.7883 23.0813 84.7883C21.7128 84.7883 20.6035 85.8977 20.6035 87.2661C20.6035 88.6345 21.7128 89.7438 23.0813 89.7438Z" fill="white"/>
<path d="M23.0813 89.7438C24.4497 89.7438 25.559 88.6345 25.559 87.2661C25.559 85.8977 24.4497 84.7883 23.0813 84.7883C21.7128 84.7883 20.6035 85.8977 20.6035 87.2661C20.6035 88.6345 21.7128 89.7438 23.0813 89.7438Z" fill="white"/>
<path d="M30.5149 89.7431C31.8833 89.7431 32.9926 88.6338 32.9926 87.2653C32.9926 85.8969 31.8833 84.7876 30.5149 84.7876C29.1464 84.7876 28.0371 85.8969 28.0371 87.2653C28.0371 88.6338 29.1464 89.7431 30.5149 89.7431Z" fill="white"/>
<path d="M30.4454 91.0187C32.4528 91.0187 34.0802 89.3913 34.0802 87.3839C34.0802 85.3764 32.4528 83.749 30.4454 83.749C28.4379 83.749 26.8105 85.3764 26.8105 87.3839C26.8105 89.3913 28.4379 91.0187 30.4454 91.0187Z" fill="#939393"/>
<path d="M37.9465 89.7433C39.3149 89.7433 40.4242 88.634 40.4242 87.2656C40.4242 85.8972 39.3149 84.7878 37.9465 84.7878C36.5781 84.7878 35.4688 85.8972 35.4688 87.2656C35.4688 88.634 36.5781 89.7433 37.9465 89.7433Z" fill="white"/>
<path d="M45.3801 89.7438C46.7485 89.7438 47.8578 88.6345 47.8578 87.2661C47.8578 85.8977 46.7485 84.7883 45.3801 84.7883C44.0117 84.7883 42.9023 85.8977 42.9023 87.2661C42.9023 88.6345 44.0117 89.7438 45.3801 89.7438Z" fill="white"/>
<path d="M27.9283 17.2839H14.2734C13.1689 17.2839 12.2734 18.1794 12.2734 19.2839L12.2734 36.0544C12.2734 37.159 13.1689 38.0544 14.2734 38.0544H27.9283C29.0329 38.0544 29.9283 37.159 29.9283 36.0544V19.2839C29.9283 18.1794 29.0329 17.2839 27.9283 17.2839Z" fill="#939393"/>
<path d="M46.6217 48.4399H14.2734C13.1689 48.4399 12.2734 49.3354 12.2734 50.4399L12.2734 67.2104C12.2734 68.315 13.1689 69.2104 14.2734 69.2104H46.6218C47.7263 69.2104 48.6218 68.315 48.6218 67.2104V50.4399C48.6218 49.3354 47.7263 48.4399 46.6217 48.4399Z" fill="#939393"/>
<path d="M47.5832 71.2871H13.312C12.7384 71.2871 12.2734 71.7521 12.2734 72.3256C12.2734 72.8992 12.7384 73.3642 13.312 73.3642H47.5832C48.1568 73.3642 48.6218 72.8992 48.6218 72.3256C48.6218 71.7521 48.1568 71.2871 47.5832 71.2871Z" fill="#939393"/>
<path d="M47.5832 75.4412H13.312C12.7384 75.4412 12.2734 75.9061 12.2734 76.4797C12.2734 77.0532 12.7384 77.5182 13.312 77.5182H47.5832C48.1568 77.5182 48.6218 77.0532 48.6218 76.4797C48.6218 75.9061 48.1568 75.4412 47.5832 75.4412Z" fill="#939393"/>
<path d="M46.6217 17.2839H32.9668C31.8622 17.2839 30.9668 18.1794 30.9668 19.2839V36.0544C30.9668 37.159 31.8622 38.0544 32.9668 38.0544H46.6217C47.7263 38.0544 48.6217 37.159 48.6217 36.0544V19.2839C48.6217 18.1794 47.7263 17.2839 46.6217 17.2839Z" fill="#939393"/>
<path d="M28.8898 40.1316H13.312C12.7384 40.1316 12.2734 40.5966 12.2734 41.1701C12.2734 41.7437 12.7384 42.2086 13.312 42.2086H28.8898C29.4634 42.2086 29.9283 41.7437 29.9283 41.1701C29.9283 40.5966 29.4634 40.1316 28.8898 40.1316Z" fill="#939393"/>
<path d="M47.5832 40.1316H32.0053C31.4318 40.1316 30.9668 40.5966 30.9668 41.1701C30.9668 41.7437 31.4318 42.2086 32.0053 42.2086H47.5832C48.1567 42.2086 48.6217 41.7437 48.6217 41.1701C48.6217 40.5966 48.1567 40.1316 47.5832 40.1316Z" fill="#939393"/>
<path d="M55.0663 44.8253C55.0663 44.307 51.4384 44.8253 50.9201 44.8253L48.3287 47.4167L44.7007 50.5264L40.5545 49.4898C39.1724 51.2174 36.4082 54.7763 36.4082 55.1909C36.4082 55.7092 38.9996 56.7457 39.5179 58.3006C40.0362 59.8554 39.5179 60.892 39.5179 61.4103C39.5179 61.9285 37.963 65.0382 37.963 66.0748C37.963 67.1113 40.0362 69.7028 40.5545 70.221C40.9691 70.6357 42.1093 69.7028 42.6276 69.1845C43.6641 69.7028 45.8409 70.843 46.2555 71.2576C46.7738 71.7759 47.2921 72.8124 47.8104 73.3307L50.9201 76.4404L54.548 75.9221L55.5846 72.2942L59.2126 70.221H64.3954L66.9868 65.0382C66.2957 64.8655 64.81 64.4163 64.3954 64.0017C63.9808 63.587 63.5316 61.0647 63.3588 59.8554L65.9502 56.7457V52.5995C65.9502 52.1849 64.2226 51.0446 63.3588 50.5264C62.495 50.6991 60.5601 51.0446 59.7309 51.0446C58.9016 51.0446 57.3122 49.6626 56.6212 48.9715C56.1029 47.7622 55.0663 45.2399 55.0663 44.8253Z" fill="white"/>
<path d="M55.1667 77.9953H48.7497C48.3476 77.9954 47.9576 77.8581 47.6444 77.6061C47.3311 77.3542 47.1134 77.0028 47.0273 76.6103L46.3098 73.2904C45.3527 72.8711 44.4451 72.3469 43.6038 71.7273L40.3653 72.7582C39.982 72.8804 39.5684 72.8678 39.1932 72.7226C38.818 72.5774 38.5038 72.3083 38.3027 71.9599L35.0871 66.4074C34.8882 66.0587 34.8135 65.6529 34.8753 65.2563C34.9371 64.8596 35.1318 64.4957 35.4274 64.2241L37.9395 61.9333C37.8253 60.8955 37.8253 59.8484 37.9395 58.8107L35.4274 56.5252C35.1313 56.2534 34.9364 55.8892 34.8746 55.4922C34.8128 55.0952 34.8877 54.689 35.0871 54.3401L38.2956 48.7841C38.4967 48.4357 38.8109 48.1666 39.1861 48.0214C39.5613 47.8762 39.9749 47.8636 40.3582 47.9858L43.5967 49.0167C44.0269 48.6995 44.4746 48.4034 44.9365 48.1356C45.3825 47.8854 45.8409 47.658 46.3098 47.4554L47.0291 44.139C47.1147 43.7464 47.332 43.3948 47.645 43.1426C47.9579 42.8904 48.3477 42.7526 48.7497 42.7522H55.1667C55.5687 42.7526 55.9585 42.8904 56.2714 43.1426C56.5844 43.3948 56.8017 43.7464 56.8873 44.139L57.6136 47.4572C58.5702 47.8764 59.4772 48.4006 60.3179 49.0202L63.5582 47.9893C63.9413 47.8676 64.3545 47.8804 64.7293 48.0256C65.1041 48.1707 65.418 48.4396 65.619 48.7876L68.8275 54.3437C69.2365 55.0609 69.0955 55.9684 68.4873 56.527L65.9751 58.8178C66.0894 59.8555 66.0894 60.9026 65.9751 61.9403L68.4873 64.2311C69.0955 64.7915 69.2365 65.6972 68.8275 66.4144L65.619 71.9705C65.418 72.3189 65.1037 72.588 64.7285 72.7332C64.3533 72.8784 63.9397 72.8909 63.5564 72.7688L60.3179 71.7379C59.4773 72.357 58.5702 72.8807 57.6136 73.2992L56.8873 76.6103C56.8013 77.0025 56.5839 77.3537 56.271 77.6056C55.9581 77.8575 55.5685 77.995 55.1667 77.9953ZM44.2367 67.8259L45.6822 68.8832C46.0084 69.1229 46.3469 69.3431 46.6994 69.544C47.0309 69.7361 47.3693 69.9088 47.7202 70.0656L49.365 70.7863L50.1706 74.471H53.7493L54.555 70.7846L56.1998 70.0639C56.9173 69.7467 57.5995 69.3537 58.2324 68.8903L59.678 67.833L63.2779 68.9784L65.0672 65.8805L62.2765 63.3377L62.474 61.5544C62.5621 60.7738 62.5621 59.9861 62.474 59.2072L62.2765 57.4239L65.069 54.8758L63.2779 51.7762L59.6798 52.9216L58.2324 51.8643C57.5992 51.3986 56.9177 51.0021 56.1998 50.6819L54.555 49.9612L53.7493 46.2765H50.1706L49.3597 49.9629L47.7202 50.6819C47.0012 50.9966 46.3195 51.3902 45.6875 51.8555L44.2402 52.9128L40.6438 51.7674L38.851 54.8758L41.6416 57.4151L41.4442 59.2002C41.3561 59.9808 41.3561 60.7685 41.4442 61.5473L41.6416 63.3307L38.851 65.8734L40.6403 68.9713L44.2367 67.8259ZM51.9512 67.4224C50.0809 67.4224 48.2873 66.6798 46.9649 65.3579C45.6424 64.036 44.8995 62.2432 44.8995 60.3738C44.8995 58.5043 45.6424 56.7115 46.9649 55.3896C48.2873 54.0678 50.0809 53.3251 51.9512 53.3251C53.8214 53.3251 55.615 54.0678 56.9374 55.3896C58.2599 56.7115 59.0028 58.5043 59.0028 60.3738C59.0028 62.2432 58.2599 64.036 56.9374 65.3579C55.615 66.6798 53.8214 67.4224 51.9512 67.4224ZM51.9512 56.8494C51.2607 56.8501 50.5857 57.0535 50.0098 57.4341C49.4339 57.8148 48.9825 58.3562 48.7116 58.991C48.4407 59.6258 48.3623 60.3261 48.4859 61.0051C48.6096 61.684 48.93 62.3118 49.4074 62.8104C49.8847 63.309 50.498 63.6566 51.1712 63.8099C51.8443 63.9633 52.5477 63.9157 53.1941 63.6731C53.8405 63.4306 54.4014 63.0036 54.8072 62.4453C55.213 61.8869 55.4459 61.2218 55.477 60.5323V61.2372V60.3738C55.477 59.439 55.1055 58.5426 54.4443 57.8817C53.7831 57.2208 52.8863 56.8494 51.9512 56.8494Z" fill="#FFCA41"/>
</svg>
