<svg width="130" height="100" viewBox="0 0 130 100" fill="none" xmlns="http://www.w3.org/2000/svg">
<path d="M82.9351 9.88334L53.7178 2.96483C51.5058 2.44102 49.2768 3.8145 48.7525 6.02888L31.9643 76.9262C31.4405 79.1382 32.814 81.3672 35.0283 81.8915L64.2479 88.8106C66.4599 89.3344 68.6889 87.9609 69.2133 85.7465L86.002 14.847C86.5235 12.6343 85.1494 10.4077 82.9351 9.88334Z" fill="#FEFEFE"/>
<path d="M70.6102 81.2965C70.6102 81.2965 36.028 73.1076 33.8002 72.58C31.5724 72.0525 33.0494 72.6136 32.9911 72.8598C32.9328 73.106 31.1247 80.7415 31.1247 80.7415C31.0665 80.9874 32.8322 81.6172 35.0623 82.1453L64.4893 89.1135C66.717 89.641 68.5799 89.8707 68.6382 89.6246L70.5046 81.7426L70.6102 81.2965Z" fill="#DDDDDC"/>
<path d="M87.0303 14.2378L48.0461 5.00649C48.5462 2.89446 50.6641 1.58556 52.7785 2.08623L84.11 9.50541C86.2244 10.0061 87.531 12.1234 87.0303 14.2378Z" fill="#DDDDDC"/>
<path d="M77.9117 8.48971L58.8359 3.97266L58.9594 6.01372C59.017 6.96328 59.6879 7.76082 60.6137 7.98004L74.528 11.2749C75.4537 11.4941 76.411 11.0821 76.8884 10.2592L77.9117 8.48971Z" fill="#0F0C14"/>
<path d="M82.9355 9.88295C85.1476 10.4068 86.5239 12.634 85.9996 14.8483L69.2114 85.7456C68.6876 87.9577 66.4604 89.334 64.246 88.8097L35.0288 81.8912C32.8168 81.3674 31.4404 79.1401 31.9648 76.9258L48.7535 6.02617C49.2773 3.81412 51.5045 2.43776 53.7189 2.96211L82.9361 9.88062L82.9355 9.88295ZM83.3211 8.25473L54.1039 1.33622C50.987 0.598161 47.8628 2.52606 47.1247 5.64294L30.3365 76.5402C29.5985 79.6571 31.5264 82.7813 34.6433 83.5194L63.8628 90.4384C66.9797 91.1765 70.1039 89.2486 70.842 86.1317L87.6307 15.2321C88.3664 12.1147 86.438 8.99279 83.3211 8.25473Z" fill="#0F0C14"/>
<path d="M36.1444 80.1076C37.429 80.4118 38.717 79.617 39.0212 78.3324C39.3254 77.0478 38.5306 75.7598 37.2459 75.4556C35.9613 75.1514 34.6733 75.9462 34.3691 77.2308C34.0649 78.5154 34.8597 79.8034 36.1444 80.1076Z" fill="white"/>
<path d="M43.1209 81.76C44.4056 82.0642 45.6935 81.2694 45.9977 79.9847C46.3019 78.7001 45.5071 77.4121 44.2225 77.1079C42.9379 76.8037 41.6499 77.5985 41.3457 78.8832C41.0415 80.1678 41.8363 81.4558 43.1209 81.76Z" fill="white"/>
<path d="M43.1209 81.76C44.4056 82.0642 45.6935 81.2694 45.9977 79.9847C46.3019 78.7001 45.5071 77.4121 44.2225 77.1079C42.9379 76.8037 41.6499 77.5985 41.3457 78.8832C41.0415 80.1678 41.8363 81.4558 43.1209 81.76Z" fill="white"/>
<path d="M50.0994 83.4118C51.3841 83.716 52.6721 82.9212 52.9763 81.6366C53.2805 80.352 52.4857 79.064 51.201 78.7598C49.9164 78.4556 48.6284 79.2504 48.3242 80.535C48.02 81.8196 48.8148 83.1076 50.0994 83.4118Z" fill="white"/>
<path d="M49.7523 84.5944C51.6368 85.0407 53.5263 83.8747 53.9726 81.9902C54.4188 80.1057 53.2529 78.2162 51.3683 77.7699C49.4838 77.3237 47.5943 78.4896 47.148 80.3742C46.7018 82.2587 47.8678 84.1482 49.7523 84.5944Z" fill="#FFCA41"/>
<path d="M57.075 85.0637C58.3597 85.3679 59.6476 84.5731 59.9518 83.2885C60.256 82.0038 59.4612 80.7158 58.1766 80.4116C56.892 80.1074 55.604 80.9022 55.2998 82.1869C54.9956 83.4715 55.7904 84.7595 57.075 85.0637Z" fill="white"/>
<path d="M64.0555 86.717C65.3401 87.0212 66.6281 86.2264 66.9323 84.9418C67.2365 83.6571 66.4417 82.3691 65.1571 82.065C63.8725 81.7608 62.5845 82.5556 62.2803 83.8402C61.9761 85.1248 62.7709 86.4128 64.0555 86.717Z" fill="white"/>
<path d="M46.7684 20.1911C45.7484 24.4986 48.4134 28.8174 52.7209 29.8374C57.0285 30.8574 61.3473 28.1923 62.3673 23.8848C63.3873 19.5773 60.7222 15.2585 56.4147 14.2385C52.1072 13.2185 47.7884 15.8835 46.7684 20.1911Z" fill="#FFCA41"/>
<path d="M75.7135 41.4596L45.4833 34.3012C44.4084 34.0467 43.3308 34.7117 43.0763 35.7865L41.6894 41.6435C41.4348 42.7183 42.0999 43.796 43.1747 44.0505L73.4049 51.2089C74.4798 51.4634 75.5574 50.7984 75.812 49.7235L77.1989 43.8666C77.4534 42.7918 76.7884 41.7141 75.7135 41.4596Z" fill="#FFCA41"/>
<path d="M72.942 53.1588L42.7118 46.0004C41.637 45.7459 40.5593 46.4109 40.3048 47.4857L38.9179 53.3427C38.6634 54.4175 39.3284 55.4952 40.4032 55.7497L70.6335 62.9081C71.7083 63.1626 72.786 62.4976 73.0405 61.4228L74.4274 55.5658C74.6819 54.491 74.0169 53.4133 72.942 53.1588Z" fill="#FFCA41"/>
<path d="M70.1725 64.8575L39.9423 57.6991C38.8674 57.4446 37.7898 58.1096 37.5352 59.1845L36.1483 65.0414C35.8938 66.1163 36.5588 67.1939 37.6337 67.4484L67.8639 74.6068C68.9388 74.8614 70.0164 74.1963 70.2709 73.1215L71.6578 67.2645C71.9124 66.1897 71.2474 65.112 70.1725 64.8575Z" fill="#FFCA41"/>
<path d="M81.5325 21.2157L66.9085 17.7528C66.3701 17.6253 65.8302 17.9585 65.7027 18.4969C65.5752 19.0353 65.9084 19.5752 66.4468 19.7027L81.0708 23.1656C81.6092 23.2931 82.1491 22.96 82.2766 22.4215C82.4041 21.8831 82.0709 21.3432 81.5325 21.2157Z" fill="#FFCA41"/>
<path d="M80.6087 25.1156L65.9847 21.6527C65.4463 21.5252 64.9064 21.8584 64.7789 22.3968C64.6514 22.9352 64.9845 23.4751 65.523 23.6026L80.147 27.0655C80.6854 27.193 81.2252 26.8599 81.3527 26.3214C81.4802 25.783 81.1471 25.2431 80.6087 25.1156Z" fill="#FFCA41"/>
<path d="M79.6858 29.0155L65.0618 25.5526C64.5234 25.4251 63.9836 25.7583 63.8561 26.2967C63.7286 26.8351 64.0617 27.375 64.6001 27.5025L79.2241 30.9654C79.7625 31.0929 80.3024 30.7598 80.4299 30.2213C80.5574 29.6829 80.2243 29.143 79.6858 29.0155Z" fill="#FFCA41"/>
<path d="M78.761 32.9149L64.137 29.4521C63.5986 29.3246 63.0588 29.6577 62.9312 30.1961C62.8037 30.7346 63.1369 31.2744 63.6753 31.4019L78.2993 34.8648C78.8377 34.9923 79.3776 34.6592 79.5051 34.1207C79.6326 33.5823 79.2995 33.0424 78.761 32.9149Z" fill="#FFCA41"/>
<path d="M38.8238 15.2173L8.79859 15.2173C6.52537 15.2173 4.67285 17.0674 4.67285 19.343L4.67285 92.2009C4.67285 94.4741 6.52298 96.3266 8.79859 96.3266H38.8262C41.0994 96.3266 42.9519 94.4765 42.9519 92.2009L42.9519 19.3406C42.9495 17.0674 41.0994 15.2173 38.8238 15.2173Z" fill="#FEFEFE"/>
<path d="M43.2857 87.5488C43.2857 87.5488 7.74711 87.5488 5.45775 87.5488C3.16839 87.5488 4.73487 87.7545 4.73487 88.0075C4.73487 88.2605 4.73487 96.1072 4.73487 96.1072C4.73487 96.3599 6.59813 96.5659 8.8899 96.5659H39.1307C41.42 96.5659 43.2857 96.3602 43.2857 96.1072V88.0072V87.5488Z" fill="#DDDDDC"/>
<path d="M43.8123 18.5112L3.75 18.5112C3.75 16.3408 5.5093 14.5791 7.68212 14.5791L39.8801 14.5791C42.053 14.5791 43.8123 16.3384 43.8123 18.5112Z" fill="#DDDDDC"/>
<path d="M33.615 15.019L14.0117 15.019L14.6021 16.9767C14.877 17.8875 15.7136 18.509 16.665 18.509H30.9641C31.9154 18.509 32.7521 17.8875 33.0269 16.9767L33.615 15.019Z" fill="#0F0C14"/>
<path d="M38.8242 15.2172C41.0974 15.2172 42.9499 17.0673 42.9499 19.3429L42.9499 92.2008C42.9499 94.474 41.0998 96.3265 38.8242 96.3265H8.79899C6.52576 96.3265 4.67324 94.4764 4.67324 92.2008L4.67324 19.3405C4.67324 17.0673 6.52337 15.2148 8.79899 15.2148L38.8242 15.2148V15.2172ZM38.8242 13.5439L8.79899 13.5439C5.59592 13.5439 3 16.1399 3 19.3429L3 92.2008C3 95.4038 5.59592 97.9998 8.79899 97.9998H38.8266C42.0296 97.9998 44.6255 95.4038 44.6255 92.2008L44.6255 19.3405C44.6231 16.1375 42.0272 13.5439 38.8242 13.5439Z" fill="#0F0C14"/>
<path d="M9.47336 94.3339C10.7935 94.3339 11.8637 93.2637 11.8637 91.9436C11.8637 90.6234 10.7935 89.5532 9.47336 89.5532C8.1532 89.5532 7.08301 90.6234 7.08301 91.9436C7.08301 93.2637 8.1532 94.3339 9.47336 94.3339Z" fill="white"/>
<path d="M16.6423 94.3339C17.9625 94.3339 19.0327 93.2637 19.0327 91.9436C19.0327 90.6234 17.9625 89.5532 16.6423 89.5532C15.3221 89.5532 14.252 90.6234 14.252 91.9436C14.252 93.2637 15.3221 94.3339 16.6423 94.3339Z" fill="white"/>
<path d="M16.6423 94.3339C17.9625 94.3339 19.0327 93.2637 19.0327 91.9436C19.0327 90.6234 17.9625 89.5532 16.6423 89.5532C15.3221 89.5532 14.252 90.6234 14.252 91.9436C14.252 93.2637 15.3221 94.3339 16.6423 94.3339Z" fill="white"/>
<path d="M23.8142 94.3334C25.1343 94.3334 26.2045 93.2632 26.2045 91.9431C26.2045 90.6229 25.1343 89.5527 23.8142 89.5527C22.494 89.5527 21.4238 90.6229 21.4238 91.9431C21.4238 93.2632 22.494 94.3334 23.8142 94.3334Z" fill="white"/>
<path d="M23.7488 95.564C25.6855 95.564 27.2554 93.9941 27.2554 92.0574C27.2554 90.1207 25.6855 88.5508 23.7488 88.5508C21.8122 88.5508 20.2422 90.1207 20.2422 92.0574C20.2422 93.9941 21.8122 95.564 23.7488 95.564Z" fill="#FFCA41"/>
<path d="M30.9831 94.3334C32.3033 94.3334 33.3735 93.2632 33.3735 91.9431C33.3735 90.6229 32.3033 89.5527 30.9831 89.5527C29.663 89.5527 28.5928 90.6229 28.5928 91.9431C28.5928 93.2632 29.663 94.3334 30.9831 94.3334Z" fill="white"/>
<path d="M38.157 94.3339C39.4771 94.3339 40.5473 93.2637 40.5473 91.9436C40.5473 90.6234 39.4771 89.5532 38.157 89.5532C36.8368 89.5532 35.7666 90.6234 35.7666 91.9436C35.7666 93.2637 36.8368 94.3339 38.157 94.3339Z" fill="white"/>
<path d="M21.249 24.4297H8.2168C7.11223 24.4297 6.2168 25.3251 6.2168 26.4297L6.2168 42.4675C6.2168 43.5721 7.11223 44.4675 8.2168 44.4675H21.249C22.3535 44.4675 23.249 43.5721 23.249 42.4675V26.4297C23.249 25.3251 22.3535 24.4297 21.249 24.4297Z" fill="#FFCA41"/>
<path d="M39.283 54.4868H8.2168C7.11223 54.4868 6.2168 55.3822 6.2168 56.4868L6.2168 72.5247C6.2168 73.6292 7.11223 74.5247 8.2168 74.5247H39.283C40.3876 74.5247 41.283 73.6292 41.283 72.5247V56.4868C41.283 55.3822 40.3876 54.4868 39.283 54.4868Z" fill="#FFCA41"/>
<path d="M40.2811 76.5283H7.21869C6.66536 76.5283 6.2168 76.9769 6.2168 77.5302C6.2168 78.0835 6.66536 78.5321 7.21869 78.5321H40.2811C40.8345 78.5321 41.283 78.0835 41.283 77.5302C41.283 76.9769 40.8345 76.5283 40.2811 76.5283Z" fill="#FFCA41"/>
<path d="M40.2811 80.5356H7.21869C6.66536 80.5356 6.2168 80.9842 6.2168 81.5375C6.2168 82.0909 6.66536 82.5394 7.21869 82.5394H40.2811C40.8345 82.5394 41.283 82.0909 41.283 81.5375C41.283 80.9842 40.8345 80.5356 40.2811 80.5356Z" fill="#FFCA41"/>
<path d="M39.2822 24.4297H26.25C25.1454 24.4297 24.25 25.3251 24.25 26.4297V42.4675C24.25 43.5721 25.1454 44.4675 26.25 44.4675H39.2822C40.3867 44.4675 41.2822 43.5721 41.2822 42.4675V26.4297C41.2822 25.3251 40.3867 24.4297 39.2822 24.4297Z" fill="#FFCA41"/>
<path d="M22.2471 46.4717H7.21869C6.66536 46.4717 6.2168 46.9202 6.2168 47.4736C6.2168 48.0269 6.66536 48.4755 7.21869 48.4755H22.2471C22.8004 48.4755 23.249 48.0269 23.249 47.4736C23.249 46.9202 22.8004 46.4717 22.2471 46.4717Z" fill="#FFCA41"/>
<path d="M40.2803 46.4717H25.2519C24.6986 46.4717 24.25 46.9202 24.25 47.4736C24.25 48.0269 24.6986 48.4755 25.2519 48.4755H40.2803C40.8336 48.4755 41.2822 48.0269 41.2822 47.4736C41.2822 46.9202 40.8336 46.4717 40.2803 46.4717Z" fill="#FFCA41"/>
</svg>
