<svg width="130" height="100" viewBox="0 0 130 100" fill="none" xmlns="http://www.w3.org/2000/svg">
<path d="M85.9883 83.2689L85.9883 57.1114C85.9883 55.131 84.3765 53.5171 82.394 53.5171L18.9213 53.5171C16.9409 53.5171 15.327 55.1289 15.327 57.1114L15.327 83.271C15.327 85.2514 16.9388 86.8653 18.9213 86.8653L82.3961 86.8653C84.3765 86.8632 85.9883 85.2514 85.9883 83.2689Z" fill="#FEFEFE"/>
<path d="M22.9727 87.1548C22.9727 87.1548 22.9727 56.1941 22.9727 54.1996C22.9727 52.2052 22.7935 53.5698 22.5731 53.5698C22.3527 53.5698 15.5167 53.5698 15.5167 53.5698C15.2966 53.5698 15.1171 55.1931 15.1171 57.1897L15.1171 83.535C15.1171 85.5294 15.2963 87.1548 15.5167 87.1548L22.5733 87.1548L22.9727 87.1548Z" fill="#DDDDDC"/>
<path d="M83.1174 87.6151L83.1174 52.7134C85.0082 52.7134 86.543 54.2461 86.543 56.139L86.543 84.1894C86.543 86.0824 85.0103 87.6151 83.1174 87.6151Z" fill="#DDDDDC"/>
<path d="M86.1602 78.7304L86.1602 61.6523L84.4546 62.1667C83.6612 62.4062 83.1198 63.135 83.1198 63.9639L83.1198 76.421C83.1198 77.2498 83.6612 77.9787 84.4546 78.2181L86.1602 78.7304Z" fill="#0F0C14"/>
<path d="M85.9876 83.2691C85.9876 85.2495 84.3758 86.8634 82.3933 86.8634L18.9206 86.8634C16.9402 86.8634 15.3263 85.2516 15.3263 83.2691L15.3263 57.1116C15.3263 55.1312 16.9381 53.5173 18.9206 53.5173L82.3954 53.5173C84.3758 53.5173 85.9897 55.1291 85.9897 57.1116L85.9897 83.2691L85.9876 83.2691ZM87.4453 83.2691L87.4453 57.1116C87.4453 54.3211 85.1838 52.0596 82.3933 52.0596L18.9206 52.0596C16.1301 52.0596 13.8686 54.3211 13.8686 57.1116L13.8686 83.2712C13.8686 86.0616 16.1301 88.3232 18.9206 88.3232L82.3954 88.3232C85.1859 88.3211 87.4453 86.0596 87.4453 83.2691Z" fill="#0F0C14"/>
<path d="M17.0617 57.6977C17.0617 58.8478 17.994 59.7801 19.1441 59.7801C20.2942 59.7801 21.2266 58.8478 21.2266 57.6977C21.2266 56.5476 20.2942 55.6152 19.1441 55.6152C17.994 55.6152 17.0617 56.5476 17.0617 57.6977Z" fill="white"/>
<path d="M17.0617 63.9443C17.0617 65.0944 17.994 66.0267 19.1441 66.0267C20.2942 66.0267 21.2266 65.0944 21.2266 63.9443C21.2266 62.7942 20.2942 61.8618 19.1441 61.8618C17.994 61.8618 17.0617 62.7942 17.0617 63.9443Z" fill="white"/>
<path d="M17.0617 63.9443C17.0617 65.0944 17.994 66.0267 19.1441 66.0267C20.2942 66.0267 21.2266 65.0944 21.2266 63.9443C21.2266 62.7942 20.2942 61.8618 19.1441 61.8618C17.994 61.8618 17.0617 62.7942 17.0617 63.9443Z" fill="white"/>
<path d="M17.0636 70.1923C17.0636 71.3424 17.996 72.2747 19.1461 72.2747C20.2962 72.2747 21.2285 71.3424 21.2285 70.1923C21.2285 69.0422 20.2962 68.1099 19.1461 68.1099C17.996 68.1099 17.0636 69.0422 17.0636 70.1923Z" fill="white"/>
<path d="M15.9917 70.1355C15.9917 71.8227 17.3595 73.1904 19.0466 73.1904C20.7338 73.1904 22.1016 71.8227 22.1016 70.1355C22.1016 68.4483 20.7338 67.0806 19.0466 67.0806C17.3595 67.0806 15.9917 68.4483 15.9917 70.1355Z" fill="black"/>
<path d="M17.0636 76.4389C17.0636 77.589 17.996 78.5213 19.1461 78.5213C20.2962 78.5213 21.2285 77.589 21.2285 76.4389C21.2285 75.2888 20.2962 74.3564 19.1461 74.3564C17.996 74.3564 17.0636 75.2888 17.0636 76.4389Z" fill="white"/>
<path d="M17.0617 82.6874C17.0617 83.8375 17.994 84.7699 19.1441 84.7699C20.2942 84.7699 21.2266 83.8375 21.2266 82.6874C21.2266 81.5373 20.2942 80.605 19.1441 80.605C17.994 80.605 17.0617 81.5373 17.0617 82.6874Z" fill="white"/>
<path d="M77.666 83.3454L77.666 66.0796C77.666 64.975 76.7706 64.0796 75.666 64.0796L68.5708 64.0796C67.4662 64.0796 66.5708 64.975 66.5708 66.0796L66.5708 83.3454C66.5708 84.45 67.4662 85.3454 68.5708 85.3454L75.666 85.3454C76.7706 85.3454 77.666 84.45 77.666 83.3454Z" fill="#939393"/>
<path d="M77.666 61.1549L77.666 56.8335C77.666 55.7289 76.7706 54.8335 75.666 54.8335L68.5708 54.8335C67.4662 54.8335 66.5708 55.7289 66.5708 56.8335L66.5708 61.1549C66.5708 62.2595 67.4662 63.1549 68.5708 63.1549L75.666 63.1549C76.7706 63.1549 77.666 62.2595 77.666 61.1549Z" fill="#FFCA41"/>
<path d="M62.873 83.3453L62.873 56.8335C62.873 55.7289 61.9776 54.8335 60.873 54.8335L55.627 54.8335C54.5225 54.8335 53.627 55.7289 53.627 56.8335L53.627 83.3453C53.627 84.4499 54.5225 85.3453 55.627 85.3453L60.873 85.3453C61.9776 85.3453 62.873 84.4499 62.873 83.3453Z" fill="#939393"/>
<path d="M51.7773 83.3453L51.7773 56.8335C51.7773 55.7289 50.8819 54.8335 49.7773 54.8335L36.2099 54.8335C35.1054 54.8335 34.2099 55.7289 34.2099 56.8335L34.2099 83.3453C34.2099 84.4499 35.1054 85.3453 36.2099 85.3453L49.7773 85.3453C50.8819 85.3453 51.7773 84.4499 51.7773 83.3453Z" fill="#939393"/>
<path d="M31.2088 17.458H5.05132C3.07092 17.458 1.45703 19.0698 1.45703 21.0523L1.45703 84.525C1.45703 86.5054 3.06884 88.1193 5.05132 88.1193H31.2109C33.1913 88.1193 34.8052 86.5075 34.8052 84.525L34.8052 21.0502C34.8031 19.0698 33.1913 17.458 31.2088 17.458Z" fill="#FEFEFE"/>
<path d="M35.0952 80.4722C35.0952 80.4722 4.1345 80.4722 2.14004 80.4722C0.145584 80.4722 1.51028 80.6514 1.51028 80.8717C1.51028 81.0921 1.51028 87.9281 1.51028 87.9281C1.51028 88.1483 3.13353 88.3277 5.13008 88.3277H31.4754C33.4699 88.3277 35.0952 88.1485 35.0952 87.9281V80.8715V80.4722Z" fill="#DDDDDC"/>
<path d="M35.556 20.3275H0.654297C0.654297 18.4366 2.18697 16.9019 4.07991 16.9019H32.1304C34.0233 16.9019 35.556 18.4345 35.556 20.3275Z" fill="#DDDDDC"/>
<path d="M26.6699 17.2847H9.5918L10.1062 18.9902C10.3456 19.7836 11.0745 20.325 11.9033 20.325H24.3605C25.1893 20.325 25.9181 19.7836 26.1576 18.9902L26.6699 17.2847Z" fill="#0F0C14"/>
<path d="M31.2095 17.4577C33.1899 17.4577 34.8038 19.0695 34.8038 21.052L34.8038 84.5247C34.8038 86.5051 33.192 88.119 31.2095 88.119H5.052C3.0716 88.119 1.45771 86.5072 1.45771 84.5247L1.45771 21.0499C1.45771 19.0695 3.06951 17.4556 5.052 17.4556H31.2095V17.4577ZM31.2095 16L5.052 16C2.26153 16 0 18.2615 0 21.052L0 84.5247C0 87.3152 2.26153 89.5767 5.052 89.5767H31.2116C34.0021 89.5767 36.2636 87.3152 36.2636 84.5247L36.2636 21.0499C36.2615 18.2594 34 16 31.2095 16Z" fill="#0F0C14"/>
<path d="M5.63908 86.3831C6.78918 86.3831 7.72152 85.4508 7.72152 84.3007C7.72152 83.1506 6.78918 82.2183 5.63908 82.2183C4.48898 82.2183 3.55664 83.1506 3.55664 84.3007C3.55664 85.4508 4.48898 86.3831 5.63908 86.3831Z" fill="white"/>
<path d="M11.8852 86.3831C13.0353 86.3831 13.9676 85.4508 13.9676 84.3007C13.9676 83.1506 13.0353 82.2183 11.8852 82.2183C10.7351 82.2183 9.80273 83.1506 9.80273 84.3007C9.80273 85.4508 10.7351 86.3831 11.8852 86.3831Z" fill="white"/>
<path d="M11.8852 86.3831C13.0353 86.3831 13.9676 85.4508 13.9676 84.3007C13.9676 83.1506 13.0353 82.2183 11.8852 82.2183C10.7351 82.2183 9.80273 83.1506 9.80273 84.3007C9.80273 85.4508 10.7351 86.3831 11.8852 86.3831Z" fill="white"/>
<path d="M18.1332 86.3822C19.2833 86.3822 20.2157 85.4498 20.2157 84.2997C20.2157 83.1496 19.2833 82.2173 18.1332 82.2173C16.9831 82.2173 16.0508 83.1496 16.0508 84.2997C16.0508 85.4498 16.9831 86.3822 18.1332 86.3822Z" fill="white"/>
<path d="M18.0764 87.4546C19.7636 87.4546 21.1313 86.0868 21.1313 84.3996C21.1313 82.7125 19.7636 81.3447 18.0764 81.3447C16.3892 81.3447 15.0215 82.7125 15.0215 84.3996C15.0215 86.0868 16.3892 87.4546 18.0764 87.4546Z" fill="black"/>
<path d="M24.3793 86.3827C25.5294 86.3827 26.4618 85.4503 26.4618 84.3002C26.4618 83.1501 25.5294 82.2178 24.3793 82.2178C23.2292 82.2178 22.2969 83.1501 22.2969 84.3002C22.2969 85.4503 23.2292 86.3827 24.3793 86.3827Z" fill="white"/>
<path d="M30.6274 86.3831C31.7775 86.3831 32.7098 85.4508 32.7098 84.3007C32.7098 83.1506 31.7775 82.2183 30.6274 82.2183C29.4773 82.2183 28.5449 83.1506 28.5449 84.3007C28.5449 85.4508 29.4773 86.3831 30.6274 86.3831Z" fill="white"/>
<path d="M15.5671 25.4663H4.77344C3.66887 25.4663 2.77344 26.3617 2.77344 27.4663L2.77344 37.3353C2.77344 38.4399 3.66887 39.3353 4.77344 39.3353H15.5671C16.6716 39.3353 17.5671 38.4399 17.5671 37.3353V27.4663C17.5671 26.3617 16.6716 25.4663 15.5671 25.4663Z" fill="#FFCA41"/>
<path d="M15.5671 43.0337H4.77344C3.66887 43.0337 2.77344 43.9291 2.77344 45.0337L2.77344 55.8273C2.77344 56.9319 3.66887 57.8273 4.77344 57.8273H15.5671C16.6716 57.8273 17.5671 56.9319 17.5671 55.8273V45.0337C17.5671 43.9291 16.6716 43.0337 15.5671 43.0337Z" fill="#DDDDDC"/>
<path d="M15.5671 61.5259H4.77344C3.66887 61.5259 2.77344 62.4213 2.77344 63.5259L2.77344 73.3949C2.77344 74.4995 3.66887 75.3949 4.77344 75.3949H15.5671C16.6716 75.3949 17.5671 74.4995 17.5671 73.3949V63.5259C17.5671 62.4213 16.6716 61.5259 15.5671 61.5259Z" fill="#FFCA41"/>
<path d="M32.2096 25.4663H21.416C20.3114 25.4663 19.416 26.3617 19.416 27.4663V37.3353C19.416 38.4399 20.3114 39.3353 21.416 39.3353H32.2096C33.3142 39.3353 34.2096 38.4399 34.2096 37.3353V27.4663C34.2096 26.3617 33.3142 25.4663 32.2096 25.4663Z" fill="#DDDDDC"/>
<path d="M32.2096 43.0337H21.416C20.3114 43.0337 19.416 43.9291 19.416 45.0337V55.8273C19.416 56.9319 20.3114 57.8273 21.416 57.8273H32.2096C33.3142 57.8273 34.2096 56.9319 34.2096 55.8273V45.0337C34.2096 43.9291 33.3142 43.0337 32.2096 43.0337Z" fill="#FFCA41"/>
<path d="M32.2096 61.5259H21.416C20.3114 61.5259 19.416 62.4213 19.416 63.5259V73.3949C19.416 74.4995 20.3114 75.3949 21.416 75.3949H32.2096C33.3142 75.3949 34.2096 74.4995 34.2096 73.3949V63.5259C34.2096 62.4213 33.3142 61.5259 32.2096 61.5259Z" fill="#DDDDDC"/>
</svg>
