<svg width="130" height="100" viewBox="0 0 130 100" fill="none" xmlns="http://www.w3.org/2000/svg">
<path d="M103.405 73.4457C103.405 75.4336 101.795 77.0451 99.8098 77.0451H11.5951C9.60954 77.0451 8 75.4336 8 73.4457V24.7195C8 22.725 9.60954 21.1201 11.5951 21.1201H99.8032C101.789 21.1201 103.398 22.7316 103.398 24.7195V73.4457H103.405Z" fill="#D8DBD7" stroke="#010200" stroke-width="3"/>
<path d="M103.405 64.3256C103.405 66.3135 101.795 67.925 99.8098 67.925H11.5951C9.60954 67.925 8 66.3135 8 64.3256V15.5993C8 13.6114 9.60954 12 11.5951 12H99.8032C101.789 12 103.398 13.6114 103.398 15.5993V64.3256H103.405Z" fill="white" stroke="black" stroke-width="3" stroke-linecap="round" stroke-linejoin="round"/>
<path d="M75.3008 18.7793H96.4171C97.2455 18.7793 97.9171 19.4509 97.9171 20.2793V41.3956C97.9171 42.224 97.2455 42.8956 96.4171 42.8956H75.3008C74.4724 42.8956 73.8008 42.224 73.8008 41.3956V20.2793C73.8008 19.4509 74.4724 18.7793 75.3008 18.7793Z" fill="white" stroke="#FFCA41"/>
<path d="M96.4171 55.9536H75.3008C74.1962 55.9536 73.3008 56.849 73.3008 57.9536V66.0001H98.4171V57.9536C98.4171 56.849 97.5216 55.9536 96.4171 55.9536Z" fill="#C4C4C4"/>
<path d="M66.2803 55.9536H45.1641C44.0595 55.9536 43.1641 56.849 43.1641 57.9536V66.0001H68.2803V57.9536C68.2803 56.849 67.3849 55.9536 66.2803 55.9536Z" fill="#C4C4C4"/>
<path d="M36.1397 55.9536H15.0234C13.9189 55.9536 13.0234 56.849 13.0234 57.9536V66.0001H38.1397V57.9536C38.1397 56.849 37.2443 55.9536 36.1397 55.9536Z" fill="#C4C4C4"/>
<path d="M66.2803 18.2793H45.1641C44.0595 18.2793 43.1641 19.1747 43.1641 20.2793V41.3956C43.1641 42.5001 44.0595 43.3956 45.1641 43.3956H66.2803C67.3849 43.3956 68.2803 42.5001 68.2803 41.3956V20.2793C68.2803 19.1747 67.3849 18.2793 66.2803 18.2793Z" fill="#FFCA41"/>
<path d="M36.1397 18.2793H15.0234C13.9189 18.2793 13.0234 19.1747 13.0234 20.2793V41.3956C13.0234 42.5001 13.9189 43.3956 15.0234 43.3956H36.1397C37.2443 43.3956 38.1397 42.5001 38.1397 41.3956V20.2793C38.1397 19.1747 37.2443 18.2793 36.1397 18.2793Z" fill="#C4C4C4"/>
<path d="M96.4171 45.9067H75.3008C74.1962 45.9067 73.3008 46.8022 73.3008 47.9067V48.93C73.3008 50.0346 74.1962 50.93 75.3008 50.93H96.4171C97.5216 50.93 98.4171 50.0346 98.4171 48.93V47.9067C98.4171 46.8022 97.5216 45.9067 96.4171 45.9067Z" fill="#D8DBD7"/>
<path d="M66.2803 45.9067H45.1641C44.0595 45.9067 43.1641 46.8022 43.1641 47.9067V48.93C43.1641 50.0346 44.0595 50.93 45.1641 50.93H66.2803C67.3849 50.93 68.2803 50.0346 68.2803 48.93V47.9067C68.2803 46.8022 67.3849 45.9067 66.2803 45.9067Z" fill="#D8DBD7"/>
<path d="M36.1397 45.9067H15.0234C13.9189 45.9067 13.0234 46.8022 13.0234 47.9067V48.93C13.0234 50.0346 13.9189 50.93 15.0234 50.93H36.1397C37.2443 50.93 38.1397 50.0346 38.1397 48.93V47.9067C38.1397 46.8022 37.2443 45.9067 36.1397 45.9067Z" fill="#D8DBD7"/>
<path d="M87.2607 29.6534C87.3195 29.6536 87.3782 29.6511 87.4368 29.6457C87.4368 29.6457 87.4369 29.6457 87.4369 29.6457L91.2528 29.2986L91.4331 29.2822L91.5611 29.1543L107.591 13.1275L107.944 12.7739L107.591 12.4203L102.58 7.41099L102.226 7.0576L101.873 7.41098L85.8391 23.4391L85.711 23.5672L85.6946 23.7475L85.3475 27.564L85.3475 27.5645C85.3235 27.8311 85.3561 28.0998 85.4433 28.353C85.5301 28.6051 85.669 28.8361 85.8509 29.031C86.0297 29.2263 86.2471 29.3825 86.4893 29.4896C86.7323 29.5971 86.995 29.6529 87.2607 29.6534ZM87.2607 29.6534C87.2605 29.6534 87.2603 29.6534 87.2601 29.6534L87.2621 29.1534L87.2613 29.6534C87.2611 29.6534 87.2609 29.6534 87.2607 29.6534ZM108.238 12.4797L107.884 12.1259L102.874 7.11657L102.521 6.76301L102.874 6.40946L105.879 3.40491C105.879 3.40484 105.879 3.40477 105.879 3.40471C106.057 3.2266 106.268 3.0853 106.501 2.98888L106.692 3.44948L106.501 2.98887C106.734 2.89242 106.983 2.84277 107.235 2.84277C107.487 2.84277 107.736 2.89242 107.969 2.98888C108.202 3.08529 108.413 3.2266 108.591 3.40471L108.238 12.4797ZM108.238 12.4797L108.591 12.1257L108.592 12.1245L108.593 12.1242L111.595 9.12135L108.238 12.4797ZM111.595 6.40926L108.591 3.40491L111.596 9.12115C111.774 8.94318 111.915 8.73187 112.011 8.49927C112.108 8.26659 112.158 8.01718 112.158 7.7653C112.158 7.51342 112.108 7.26401 112.011 7.03134C111.915 6.79874 111.774 6.58742 111.596 6.40946C111.596 6.40939 111.595 6.40933 111.595 6.40926Z" fill="#FFCA41" stroke="black"/>
</svg>
