<svg width="130" height="100" viewBox="0 0 130 100" fill="none" xmlns="http://www.w3.org/2000/svg">
<path d="M4.05664 24.1928C4.94679 24.1928 5.85717 24.2131 6.74731 24.1928C7.17216 24.1726 7.41492 24.2737 7.334 24.7593C7.31377 24.9616 7.334 25.1639 7.334 25.3662C7.334 46.1633 7.334 66.9806 7.31377 87.7777C7.31377 88.5667 7.51608 88.7487 8.30507 88.7487C34.5847 88.7285 60.8845 88.7285 87.164 88.7083C88.034 88.7083 88.2565 88.9308 88.1756 89.7603C88.0947 90.5088 88.1553 91.2573 88.1553 92.0059C60.4799 92.0059 32.7841 92.0059 5.10863 92.0059C4.54218 91.8643 4.19825 91.5203 4.05664 90.9741C4.05664 68.7002 4.05664 46.4465 4.05664 24.1928Z" fill="black"/>
<path d="M4.05607 90.9541C4.35953 91.3587 4.70345 91.7026 5.10806 91.9859C4.19768 92.1882 3.85376 91.8442 4.05607 90.9541Z" fill="#F3F4F4"/>
<path d="M66.3885 25.8518C65.4983 25.8518 64.8105 25.8721 64.1226 25.8518C62.9493 25.8114 62.2412 25.1235 62.2614 24.1322C62.2817 23.1814 62.9897 22.5542 64.1429 22.5542C66.1457 22.534 68.1485 22.534 70.1311 22.5542C71.3854 22.5745 71.9721 23.1814 71.9721 24.4155C71.9721 26.4385 71.9721 28.4616 71.9721 30.4846C71.9721 31.5366 71.3247 32.2649 70.3941 32.3054C69.4838 32.3459 68.715 31.5569 68.6745 30.5049C68.6543 29.817 68.6543 29.109 68.6543 28.4211C68.6543 28.4009 68.6138 28.4009 68.3711 28.239C68.2295 28.4413 68.0878 28.7448 67.8855 28.9471C64.9319 31.921 61.958 34.8747 58.9841 37.8486C57.8714 38.9613 57.3656 39.022 56.0304 38.1723C53.6027 36.6348 51.1548 35.077 48.7271 33.5395C44.7822 31.0713 39.9673 33.0135 38.8546 37.5249C38.2275 40.0942 39.4211 42.886 41.8083 44.3628C43.2446 45.253 44.8429 45.9004 46.1781 46.9928C49.1318 49.3598 50.4872 53.5071 49.3138 57.1891C48.1 61.0329 45.4498 63.3392 41.4239 64.0472C39.1985 64.4316 37.135 63.9461 35.1726 62.8941C32.5426 61.4577 29.9127 60.0214 27.3029 58.5445C26.7769 58.2411 26.4735 58.322 26.0486 58.7064C21.8811 62.5906 17.6731 66.4345 13.4854 70.2985C12.8785 70.8447 12.2513 71.1684 11.4623 70.8245C10.2283 70.3187 10.1069 68.9228 11.1791 67.9315C13.3236 65.9489 15.468 63.9663 17.6124 61.9837C19.9794 59.7988 22.3262 57.6341 24.6932 55.4492C26.0082 54.2354 26.2914 54.2152 27.8087 55.0446C30.8837 56.744 33.9588 58.4434 37.0338 60.1427C39.2592 61.3768 41.5048 61.4173 43.6897 60.1023C45.8746 58.7671 46.9064 56.744 46.7445 54.1949C46.6029 51.8279 45.3891 50.0881 43.3256 48.9147C42.2331 48.2876 41.1002 47.7211 40.0077 47.0535C36.609 44.9495 34.8692 40.8629 35.6582 36.9787C36.4674 32.973 39.7447 29.9182 43.7909 29.291C46.2185 28.9067 48.4237 29.4529 50.467 30.7274C52.49 32.0019 54.5333 33.2562 56.5362 34.5712C56.961 34.8545 57.2038 34.9151 57.6084 34.4903C60.5014 31.6985 63.3539 28.8662 66.3885 25.8518Z" fill="#FFCA41"/>
<path d="M70.4109 38.6777C70.4109 40.3164 70.4109 40.3164 68.752 40.3164C67.1133 40.3164 67.1133 40.3164 67.1133 38.6575C67.1133 37.0391 67.1133 37.0391 68.7115 37.0391C68.7317 37.0391 68.7722 37.0391 68.7924 37.0391C70.4109 37.0593 70.4109 37.0593 70.4109 38.6777Z" fill="#939393"/>
<path d="M67.1133 51.5858C67.1133 50.0078 67.1133 50.0078 68.6508 50.0078C70.3906 50.0078 70.3906 50.0078 70.3906 51.7274C70.3906 53.2852 70.3906 53.2852 68.8733 53.2852C68.8531 53.2852 68.8127 53.2852 68.7924 53.2852C67.1133 53.2852 67.1133 53.2852 67.1133 51.5858Z" fill="#939393"/>
<path d="M68.7128 59.7183C67.1348 59.7183 67.1348 59.7183 67.1348 58.1808C67.1348 56.4409 67.1348 56.4409 68.8746 56.4409C70.4324 56.4409 70.4324 56.4409 70.4324 58.0189C70.4121 59.7183 70.4121 59.7183 68.7128 59.7183Z" fill="#939393"/>
<path d="M25.0762 64.513C25.0762 62.8945 25.0762 62.8945 26.7553 62.8945C28.3738 62.8945 28.3738 62.8945 28.3738 64.513C28.3738 66.1719 28.3738 66.1719 26.7351 66.1719C25.0762 66.1517 25.0762 66.1517 25.0762 64.513Z" fill="#939393"/>
<path d="M68.6913 66.1514C67.1133 66.1514 67.1133 66.1514 67.1133 64.6139C67.1133 62.874 67.1133 62.874 68.8531 62.874C70.4109 62.874 70.4109 62.874 70.4109 64.3913C70.4109 64.4116 70.4109 64.452 70.4109 64.4722C70.4109 66.1514 70.4109 66.1514 68.6913 66.1514Z" fill="#939393"/>
<path d="M25.0762 77.44C25.0762 75.8418 25.0762 75.8418 26.6744 75.8418C28.3535 75.8418 28.3535 75.8418 28.3535 77.5412C28.3535 79.1192 28.3535 79.1192 26.7755 79.1192C25.0762 79.1192 25.0762 79.1192 25.0762 77.44Z" fill="#939393"/>
<path d="M47.7344 79.1192C46.0957 79.1192 46.0957 79.1192 46.0957 77.4602C46.0957 75.8418 46.0957 75.8418 47.6939 75.8418C49.3933 75.8418 49.3933 75.8418 49.3933 77.5412C49.3731 79.1192 49.3731 79.1192 47.7344 79.1192Z" fill="#939393"/>
<path d="M67.1133 77.4198C67.1133 75.8418 67.1133 75.8418 68.6508 75.8418C70.3906 75.8418 70.3906 75.8418 70.3906 77.5816C70.3906 79.1394 70.3906 79.1394 68.8733 79.1394C68.8531 79.1394 68.8127 79.1394 68.7924 79.1394C67.1133 79.1192 67.1133 79.1192 67.1133 77.4198Z" fill="#939393"/>
<path d="M26.6542 85.5528C25.0762 85.5528 25.0762 85.5528 25.0762 84.0152C25.0762 82.2754 25.0762 82.2754 26.7958 82.2754C28.3535 82.2754 28.3535 82.2754 28.3535 83.8534C28.3535 85.5528 28.3535 85.5528 26.6542 85.5528Z" fill="#939393"/>
<path d="M46.0957 83.8736C46.0957 82.2754 46.0957 82.2754 47.7142 82.2754C49.3933 82.2754 49.3933 82.2754 49.3933 83.9141C49.3933 85.5528 49.3933 85.5528 47.7142 85.5528C46.0957 85.5528 46.0957 85.5528 46.0957 83.8736Z" fill="#939393"/>
<path d="M68.7344 82.2754C70.3933 82.2754 70.3933 82.2754 70.3933 83.9141C70.3933 85.5528 70.3933 85.5528 68.7142 85.5528C67.0957 85.5528 67.0957 85.5528 67.0957 83.9545C67.0957 83.9343 67.0957 83.8938 67.0957 83.8736C67.1159 82.2754 67.1159 82.2754 68.7344 82.2754Z" fill="#939393"/>
<path d="M68.7108 43.5332C70.4101 43.5332 70.4101 43.5332 70.4101 45.2326C70.4101 46.8106 70.4102 46.8106 68.8524 46.8106C67.1328 46.8106 67.1328 46.8106 67.1328 45.0505C67.1126 43.5332 67.1126 43.5332 68.7108 43.5332Z" fill="#939393"/>
<path d="M26.6307 72.6457C25.0527 72.6457 25.0527 72.6457 25.0527 71.088C25.0527 69.3481 25.0527 69.3481 26.7926 69.3481C28.3503 69.3481 28.3503 69.3481 28.3503 70.8654C28.3503 70.8857 28.3503 70.9261 28.3503 70.9464C28.3503 72.6457 28.3503 72.6457 26.6307 72.6457Z" fill="#939393"/>
<path d="M47.7344 72.645C46.0957 72.645 46.0957 72.645 46.0957 71.0064C46.0957 69.3677 46.0957 69.3677 47.7546 69.3677C49.3731 69.3677 49.3731 69.3677 49.3731 70.9659C49.3731 70.9861 49.3731 71.0266 49.3731 71.0468C49.3731 72.645 49.3731 72.645 47.7344 72.645Z" fill="#939393"/>
<path d="M68.7722 72.645C67.1133 72.645 67.1133 72.645 67.1133 71.0064C67.1133 69.3677 67.1133 69.3677 68.7722 69.3677C70.3906 69.3677 70.3906 69.3677 70.3906 70.9659C70.3906 70.9861 70.3906 71.0266 70.3906 71.0468C70.4109 72.645 70.4109 72.645 68.7722 72.645Z" fill="#939393"/>
<circle cx="82.7948" cy="11.2049" r="9.20493" fill="#FFCA41" stroke="black" stroke-width="3"/>
</svg>
