<svg width="130" height="100" viewBox="0 0 130 100" fill="none" xmlns="http://www.w3.org/2000/svg">
<path d="M37.507 39.95C35.2047 39.95 32.9163 39.9041 30.614 39.9959C30.1256 39.9959 30 39.5372 30 37.9778C30.0279 30.9607 30.0279 23.9435 30 16.8804C30 15.321 30.1395 15 30.586 15C35.2046 15.0459 39.8233 15.0459 44.4279 15C44.8884 15 45 15.4128 45 16.9263C44.9721 24.0352 44.9721 31.1441 45 38.253C45 39.7207 44.8605 40.0417 44.4558 39.9959C42.1395 39.9041 39.8233 39.95 37.507 39.95Z" fill="#939393"/>
<path d="M20.507 39.95C18.2047 39.95 15.9163 39.9041 13.614 39.9959C13.1256 39.9959 13 39.5372 13 37.9778C13.0279 30.9607 13.0279 23.9435 13 16.8804C13 15.321 13.1395 15 13.586 15C18.2046 15.0459 22.8233 15.0459 27.4279 15C27.8884 15 28 15.4128 28 16.9263C27.9721 24.0352 27.9721 31.1441 28 38.253C28 39.7207 27.8605 40.0417 27.4558 39.9959C25.1395 39.9041 22.8233 39.95 20.507 39.95Z" fill="#939393"/>
<path d="M37.507 67.95C35.2047 67.95 32.9163 67.9041 30.614 67.9959C30.1256 67.9959 30 67.5372 30 65.9778C30.0279 58.9607 30.0279 51.9435 30 44.8804C30 43.321 30.1395 43 30.586 43C35.2046 43.0459 39.8233 43.0459 44.4279 43C44.8884 43 45 43.4128 45 44.9263C44.9721 52.0352 44.9721 59.1441 45 66.253C45 67.7207 44.8605 68.0417 44.4558 67.9959C42.1395 67.9041 39.8233 67.95 37.507 67.95Z" fill="#939393"/>
<path d="M20.507 67.95C18.2047 67.95 15.9163 67.9041 13.614 67.9959C13.1256 67.9959 13 67.5372 13 65.9778C13.0279 58.9607 13.0279 51.9435 13 44.8804C13 43.321 13.1395 43 13.586 43C18.2046 43.0459 22.8233 43.0459 27.4279 43C27.8884 43 28 43.4128 28 44.9263C27.9721 52.0352 27.9721 59.1441 28 66.253C28 67.7207 27.8605 68.0417 27.4558 67.9959C25.1395 67.9041 22.8233 67.95 20.507 67.95Z" fill="#939393"/>
<path d="M54.507 39.95C52.2047 39.95 49.9163 39.9041 47.614 39.9959C47.1256 39.9959 47 39.5372 47 37.9778C47.0279 30.9607 47.0279 23.9435 47 16.8804C47 15.321 47.1395 15 47.586 15C52.2046 15.0459 56.8233 15.0459 61.4279 15C61.8884 15 62 15.4128 62 16.9263C61.9721 24.0352 61.9721 31.1441 62 38.253C62 39.7207 61.8605 40.0417 61.4558 39.9959C59.1395 39.9041 56.8233 39.95 54.507 39.95Z" fill="#939393"/>
<path d="M54.507 67.95C52.2047 67.95 49.9163 67.9041 47.614 67.9959C47.1256 67.9959 47 67.5372 47 65.9778C47.0279 58.9607 47.0279 51.9435 47 44.8804C47 43.321 47.1395 43 47.586 43C52.2046 43.0459 56.8233 43.0459 61.4279 43C61.8884 43 62 43.4128 62 44.9263C61.9721 52.0352 61.9721 59.1441 62 66.253C62 67.7207 61.8605 68.0417 61.4558 67.9959C59.1395 67.9041 56.8233 67.95 54.507 67.95Z" fill="#939393"/>
<path d="M71.507 39.95C69.2047 39.95 66.9163 39.9041 64.614 39.9959C64.1256 39.9959 64 39.5372 64 37.9778C64.0279 30.9607 64.0279 23.9435 64 16.8804C64 15.321 64.1395 15 64.586 15C69.2046 15.0459 73.8233 15.0459 78.4279 15C78.8884 15 79 15.4128 79 16.9263C78.9721 24.0352 78.9721 31.1441 79 38.253C79 39.7207 78.8605 40.0417 78.4558 39.9959C76.1395 39.9041 73.8233 39.95 71.507 39.95Z" fill="#939393"/>
<path d="M71.507 67.95C69.2047 67.95 66.9163 67.9041 64.614 67.9959C64.1256 67.9959 64 67.5372 64 65.9778C64.0279 58.9607 64.0279 51.9435 64 44.8804C64 43.321 64.1395 43 64.586 43C69.2046 43.0459 73.8233 43.0459 78.4279 43C78.8884 43 79 43.4128 79 44.9263C78.9721 52.0352 78.9721 59.1441 79 66.253C79 67.7207 78.8605 68.0417 78.4558 67.9959C76.1395 67.9041 73.8233 67.95 71.507 67.95Z" fill="#939393"/>
<path d="M88.507 39.95C86.2047 39.95 83.9163 39.9041 81.614 39.9959C81.1256 39.9959 81 39.5372 81 37.9778C81.0279 30.9607 81.0279 23.9435 81 16.8804C81 15.321 81.1395 15 81.586 15C86.2046 15.0459 90.8233 15.0459 95.4279 15C95.8884 15 96 15.4128 96 16.9263C95.9721 24.0352 95.9721 31.1441 96 38.253C96 39.7207 95.8605 40.0417 95.4558 39.9959C93.1395 39.9041 90.8233 39.95 88.507 39.95Z" fill="#FFCA41"/>
<path d="M88.507 67.95C86.2047 67.95 83.9163 67.9041 81.614 67.9959C81.1256 67.9959 81 67.5372 81 65.9778C81.0279 58.9607 81.0279 51.9435 81 44.8804C81 43.321 81.1395 43 81.586 43C86.2046 43.0459 90.8233 43.0459 95.4279 43C95.8884 43 96 43.4128 96 44.9263C95.9721 52.0352 95.9721 59.1441 96 66.253C96 67.7207 95.8605 68.0417 95.4558 67.9959C93.1395 67.9041 90.8233 67.95 88.507 67.95Z" fill="#939393"/>
<path d="M106.979 74.6421C106.281 75.7695 105.232 76.0565 103.958 76.0565C92.8596 76.036 81.7404 76.0565 70.6418 76.0155C69.8608 76.0155 69.6141 76.1795 69.6347 76.9995C69.6964 80.0743 69.6964 83.1491 69.6347 86.2239C69.6141 87.0849 69.9019 87.2079 70.6623 87.1874C72.8821 87.1464 75.1018 87.1874 77.3215 87.1669C77.8148 87.1669 78.2875 87.2079 78.7397 87.3719C79.644 87.6998 80.0962 88.3763 80.1167 89.3193C80.1373 90.2212 79.4796 91.0207 78.5752 91.2256C78.1436 91.3281 77.6915 91.3691 77.2598 91.3691C62.0918 91.3691 46.9237 91.3691 31.7556 91.3691C31.5911 91.3691 31.4062 91.3691 31.2417 91.3691C29.7619 91.2871 28.837 90.4467 28.8781 89.2168C28.8987 88.0073 29.8647 87.1874 31.3445 87.1669C33.7287 87.1464 36.1334 87.1259 38.5175 87.1669C39.1957 87.1874 39.3602 86.9824 39.3602 86.3264C39.3191 83.2516 39.3191 80.1768 39.3602 77.102C39.3807 76.241 39.1957 75.9745 38.2709 75.9745C27.1723 76.0155 16.0531 75.995 4.95449 75.995C4.50232 75.995 4.07071 75.995 3.6391 75.872C2.61145 75.585 2.03597 74.9701 2.01541 73.9246C1.99486 71.8748 1.99486 69.8249 2.01541 67.775C2.03597 66.5656 2.96085 65.6636 4.07071 65.6841C5.20113 65.7046 6.06435 66.5861 6.10546 67.816C6.12601 68.7999 6.18767 69.8044 6.0849 70.7883C6.00269 71.6903 6.35209 71.9363 7.15366 71.7928C7.19476 71.7928 7.21532 71.7928 7.25642 71.7928C38.7641 71.7928 70.2513 71.7928 101.759 71.8133C102.704 71.8133 102.91 71.5673 102.91 70.6653C102.869 58.1611 102.889 45.6773 102.889 33.173C102.889 32.3121 102.972 31.5331 103.712 30.9796C104.821 30.1392 105.993 30.4877 107 31.9841C106.979 46.2103 106.979 60.4364 106.979 74.6421Z" fill="#020203"/>
<path d="M107 16.8365C106.075 18.2133 105.13 18.6243 104.061 18.0695C103.3 17.679 102.91 17.042 102.91 16.1789C102.91 15.0486 102.868 13.9184 102.93 12.7881C102.951 12.2333 102.766 12.0483 102.231 12.1305C102.067 12.1511 101.882 12.1305 101.717 12.1305C70.2271 12.1305 38.7575 12.1305 7.28777 12.11C6.28058 12.11 6.09558 12.3566 6.09558 13.3224C6.13669 25.9195 6.11614 38.5166 6.11614 51.1138C6.11614 52.84 4.9445 53.8469 3.46454 53.4154C2.62179 53.1688 2.16958 52.5728 2.02569 51.7303C1.98458 51.422 2.00514 51.1138 2.00514 50.8055C2.00514 37.448 2.00514 24.0906 2.00514 10.7537C2.00514 8.6576 2.64234 8.02055 4.75951 8.02055C37.9147 8.02055 71.0699 8.02055 104.225 8C105.479 8 106.424 8.30825 107 9.45905C107 11.9045 107 14.3705 107 16.8365Z" fill="#020203"/>
<path d="M106.979 25.0369C106.068 26.3603 105.198 26.7614 104.166 26.2801C103.337 25.8991 102.871 25.2374 102.952 24.2949C103.013 23.3926 103.539 22.791 104.369 22.5303C105.259 22.2496 106.028 22.5102 106.594 23.2722C106.736 23.4527 106.858 23.6532 106.999 23.8337C106.979 24.2348 106.979 24.6358 106.979 25.0369Z" fill="#040405"/>
<path d="M2 59.5786C2 58.475 2.97828 57.5319 4.07885 57.572C5.15904 57.6122 6.05579 58.5352 6.05579 59.5987C6.05579 60.7023 5.05713 61.6655 3.97694 61.6254C2.89676 61.5652 2 60.6421 2 59.5786Z" fill="#030405"/>
<path d="M54.51 87.2909C51.1208 87.2909 47.752 87.2703 44.3628 87.3116C43.6439 87.3116 43.459 87.1049 43.459 86.4022C43.5001 83.2399 43.5001 80.0777 43.459 76.8948C43.459 76.192 43.6644 76.0474 44.3217 76.0474C51.1208 76.068 57.9198 76.068 64.6983 76.0474C65.3762 76.0474 65.5405 76.2334 65.5405 76.9154C65.4994 80.119 65.4994 83.3226 65.5405 86.5262C65.5405 87.1876 65.3351 87.3323 64.7394 87.3116C61.3296 87.2703 57.9198 87.2909 54.51 87.2909Z" fill="#DDDDDC"/>
</svg>
