<svg width="130" height="100" viewBox="0 0 130 100" fill="none" xmlns="http://www.w3.org/2000/svg">
<g clip-path="url(#clip0_279_1942)">
<path d="M74.026 69.2246C88.7583 54.4923 88.7583 30.6064 74.026 15.874C59.2936 1.14161 35.4077 1.14162 20.6753 15.874C5.94295 30.6064 5.94295 54.4923 20.6753 69.2246C35.4077 83.957 59.2936 83.957 74.026 69.2246Z" fill="#FFCA41"/>
<path d="M84.1244 53.8673C87.7707 40.2592 83.6163 26.3987 74.4023 17.0333C69.7706 12.3255 63.8604 8.75363 57.0198 6.9207C52.4258 5.68976 47.8031 5.34783 43.3343 5.78946M10.0732 34.0253C9.3622 36.6789 8.9478 39.3421 8.80969 41.9797" stroke="black" stroke-width="3" stroke-linecap="round"/>
<path d="M73.4737 53.6176L46.0979 69.7595L18.7222 53.6176C18.7222 53.6055 18.7222 53.5873 18.7282 53.5752C18.7525 53.4722 20.2612 52.2119 22.5637 50.3396C22.588 50.3214 22.6062 50.3032 22.6243 50.285C30.1863 44.147 46.0979 31.5801 46.0979 31.5801C46.0979 31.5801 62.0095 44.147 69.5715 50.285C71.9104 52.1816 73.4494 53.4661 73.4737 53.5752C73.4737 53.5813 73.4737 53.5994 73.4737 53.6176Z" fill="black"/>
<path d="M57.3562 18.207H27.8173C25.2846 18.207 23.2305 20.2611 23.2305 22.7939V67.4507C23.2305 69.9834 25.2846 72.0375 27.8173 72.0375H64.8273C67.3601 72.0375 69.4142 69.9834 69.4142 67.4507V30.265L57.3562 18.207Z" fill="white"/>
<path d="M57.356 25.6783C57.356 28.2111 59.41 30.2652 61.9428 30.2652H69.4139L57.356 18.2012V25.6783Z" fill="#E6E8E8"/>
<path d="M42.0445 25.751H31.8528C30.95 25.751 30.2168 26.4841 30.2168 27.387V37.5787C30.2168 38.4815 30.95 39.2147 31.8528 39.2147H42.0445C42.9473 39.2147 43.6805 38.4815 43.6805 37.5787V27.387C43.6805 26.4841 42.9473 25.751 42.0445 25.751Z" fill="#FFCA41"/>
<path d="M56.0052 42.9531H31.5561C30.829 42.9531 30.2412 43.5409 30.2412 44.268C30.2412 44.9951 30.829 45.5828 31.5561 45.5828H56.0052C56.7323 45.5828 57.3201 44.9951 57.3201 44.268C57.3201 43.5409 56.7323 42.9531 56.0052 42.9531Z" fill="#D9DBDB"/>
<path d="M56.0052 49.5093H31.5561C30.829 49.5093 30.2412 50.097 30.2412 50.8241C30.2412 51.5512 30.829 52.139 31.5561 52.139H56.0052C56.7323 52.139 57.3201 51.5512 57.3201 50.8241C57.3201 50.1031 56.7323 49.5093 56.0052 49.5093Z" fill="#D9DBDB"/>
<path d="M44.8988 55.8716H31.5502C30.8231 55.8716 30.2354 56.4593 30.2354 57.1864C30.2354 57.9136 30.8231 58.5013 31.5502 58.5013H44.8988C45.6259 58.5013 46.2136 57.9136 46.2136 57.1864C46.2197 56.4654 45.6259 55.8716 44.8988 55.8716Z" fill="#D9DBDB"/>
<path d="M72.9805 54.4866V79.8722C72.9805 81.432 71.7017 82.7108 70.1418 82.7108H22.0555C20.4981 82.7108 19.229 81.4344 19.229 79.8722V54.4866L45.8508 70.1839L46.1048 70.3337L46.3587 70.1839L72.9805 54.4866Z" fill="#D8DBD7" stroke="black"/>
<path d="M45.8506 70.1841L46.1046 70.3339L46.3586 70.1842L54.8533 65.176L71.8272 82.1498C71.3567 82.503 70.7747 82.7111 70.1417 82.7111H22.0554C21.4287 82.7111 20.8471 82.5001 20.3756 82.1442L37.3499 65.17L45.8506 70.1841Z" fill="#ADADAD" stroke="black"/>
</g>
<defs>
<clipPath id="clip0_279_1942">
<rect width="130" height="100" fill="white"/>
</clipPath>
</defs>
</svg>
