<svg width="130" height="100" viewBox="0 0 130 100" fill="none" xmlns="http://www.w3.org/2000/svg">
<path d="M4.81469 78.9279H76.0312V14.062L63.7836 1.81445H4.81469C2.27448 1.81445 3.75627 53.2234 4.81469 78.9279Z" fill="#DDDDDC"/>
<path d="M91 73.4172V76.1719C90.927 76.3531 90.8691 76.54 90.8269 76.7307C90.4433 79.4224 89.233 81.9284 87.3633 83.9023C85.4937 85.8762 83.057 87.2205 80.3902 87.7494C77.7233 88.2782 74.9581 87.9656 72.4766 86.8546C69.9952 85.7436 67.9202 83.8891 66.5385 81.5476C66.394 81.2477 66.1601 81.0001 65.8691 80.8387C65.578 80.6773 65.2441 80.6101 64.9132 80.6464C45.0061 80.6647 25.0977 80.6647 5.188 80.6464C3.40533 80.6464 3 80.2528 3 78.4898C3 53.0415 3 27.6036 3 2.17623C3 1.24356 3.19283 0.491914 4.0271 0H64.87C65.3178 0.301836 65.7451 0.633134 66.1489 0.991699C69.6906 4.53348 73.2324 8.07526 76.7741 11.617C77.1047 11.9253 77.3642 12.3018 77.5348 12.7204C77.7053 13.139 77.7828 13.5897 77.7618 14.0412C77.7382 29.5201 77.7382 44.9846 77.7618 60.4346V61.6152C78.1042 61.6546 78.3836 61.6978 78.663 61.7215C83.6647 62.1465 87.3442 64.6021 89.5833 69.0687C90.2641 70.4027 90.5396 71.9493 91 73.4172ZM5.93569 77.7067H64.8778C64.8778 77.4548 64.8778 77.2541 64.8385 77.0613C64.2677 73.8694 64.9053 70.5793 66.6271 67.8316C68.349 65.0841 71.0318 63.0757 74.1532 62.1976C74.8261 62.0009 74.8773 61.6585 74.8773 61.0957C74.8773 45.9422 74.8773 30.786 74.8773 15.6271C74.8773 15.3241 74.8497 15.0211 74.8301 14.6472H73.803C70.9381 14.6472 68.0732 14.6472 65.2084 14.6472C63.5949 14.6472 63.1581 14.2144 63.1542 12.6284V3.86841C63.1542 3.56933 63.1266 3.27025 63.1148 2.99084H5.93569V77.7067ZM67.5853 74.8221C67.5853 76.8469 68.1861 78.8262 69.3115 80.5095C70.437 82.1927 72.0366 83.5041 73.9078 84.2777C75.779 85.0513 77.8377 85.2523 79.8232 84.8553C81.8087 84.4582 83.6317 83.481 85.0615 82.0473C86.4913 80.6136 87.4636 78.7879 87.8553 76.8013C88.247 74.8147 88.0404 72.7566 87.2618 70.8874C86.4832 69.0183 85.1675 67.4222 83.4813 66.3013C81.7951 65.1803 79.8142 64.5848 77.7894 64.5903C75.0805 64.5976 72.4852 65.6788 70.5723 67.5968C68.6595 69.5149 67.5853 72.1132 67.5853 74.8221ZM66.1017 11.6367H72.1974L66.1017 5.55666V11.6367Z" fill="black"/>
<path d="M17.9692 24.4951H58.3403C61.818 24.6463 68.7733 26.8539 68.7733 34.4745C68.7733 44.0003 61.062 45.3611 58.3403 45.3611C56.163 45.3611 35.0551 45.3611 22.9589 45.3611C17.5156 45.3611 12.9795 49.8972 12.9795 55.3405C12.9795 60.7838 15.7011 66.2271 22.9589 66.2271C28.7651 66.2271 45.9417 66.2271 53.8042 66.2271" stroke="black" stroke-width="3"/>
<path d="M38.381 65.8465C38.3666 67.0118 38.0071 68.1467 37.3481 69.1079C36.6891 70.0691 35.76 70.8135 34.6783 71.247C33.5965 71.6806 32.4105 71.7839 31.27 71.5439C30.1296 71.3039 29.0858 70.7313 28.2705 69.8986C27.4552 69.0658 26.905 68.0101 26.6893 66.8649C26.4736 65.7196 26.6021 64.5361 27.0585 63.4638C27.515 62.3915 28.2789 61.4785 29.2539 60.84C30.2289 60.2016 31.3713 59.8664 32.5366 59.8767C34.1021 59.897 35.5959 60.5365 36.6912 61.6552C37.7864 62.774 38.394 64.2809 38.381 65.8465Z" fill="white"/>
<path d="M60.1546 65.818C60.1458 66.9836 59.7918 68.1204 59.1372 69.0848C58.4826 70.0493 57.5569 70.7981 56.477 71.2368C55.3971 71.6754 54.2114 71.7842 53.0697 71.5493C51.928 71.3145 50.8815 70.7466 50.0624 69.9173C49.2433 69.088 48.6883 68.0346 48.4676 66.8901C48.2468 65.7456 48.3702 64.5613 48.8222 63.4869C49.2741 62.4125 50.0343 61.4961 51.0068 60.8535C51.9793 60.2109 53.1204 59.871 54.286 59.8765C55.8508 59.8904 57.3465 60.5232 58.4461 61.6365C59.5458 62.7498 60.16 64.2532 60.1546 65.818Z" fill="white"/>
<path d="M55.5254 24.4257C55.5346 25.3803 55.353 26.3271 54.9912 27.2105C54.6294 28.0939 54.0947 28.8961 53.4186 29.57C52.7424 30.2438 51.9384 30.7758 51.0538 31.1346C50.1692 31.4934 49.2218 31.6718 48.2672 31.6594C47.3127 31.6469 46.3703 31.4438 45.4953 31.062C44.6204 30.6803 43.8305 30.1275 43.1722 29.4362C42.5139 28.7449 42.0003 27.929 41.6617 27.0365C41.3231 26.1439 41.1662 25.1927 41.2004 24.2387C41.2674 22.3679 42.0639 20.5975 43.4196 19.3065C44.7752 18.0154 46.5824 17.3063 48.4543 17.3307C50.3262 17.3551 52.1142 18.1112 53.4357 19.4372C54.7572 20.7632 55.5073 22.5537 55.5254 24.4257Z" fill="white" stroke="black" stroke-width="2"/>
<path d="M26.4946 24.4257C26.5038 25.3803 26.3222 26.3271 25.9604 27.2105C25.5986 28.0939 25.064 28.8961 24.3878 29.57C23.7117 30.2438 22.9076 30.7758 22.023 31.1346C21.1384 31.4934 20.191 31.6718 19.2365 31.6594C18.2819 31.6469 17.3395 31.4438 16.4646 31.062C15.5896 30.6803 14.7998 30.1275 14.1414 29.4362C13.4831 28.7449 12.9695 27.929 12.6309 27.0365C12.2923 26.1439 12.1355 25.1927 12.1696 24.2387C12.2366 22.3679 13.0331 20.5975 14.3888 19.3065C15.7445 18.0154 17.5516 17.3063 19.4235 17.3307C21.2954 17.3551 23.0834 18.1112 24.4049 19.4372C25.7264 20.7632 26.4765 22.5537 26.4946 24.4257Z" fill="white" stroke="black" stroke-width="2"/>
<path d="M46.4531 45.2914C46.4623 46.246 46.2807 47.1928 45.9189 48.0762C45.5571 48.9596 45.0225 49.7618 44.3463 50.4357C43.6701 51.1096 42.8661 51.6415 41.9815 52.0003C41.0969 52.3591 40.1495 52.5375 39.195 52.5251C38.2404 52.5126 37.298 52.3095 36.4231 51.9278C35.5481 51.546 34.7583 50.9932 34.0999 50.3019C33.4416 49.6106 32.928 48.7948 32.5894 47.9022C32.2508 47.0097 32.094 46.0584 32.1281 45.1044C32.1951 43.2336 32.9916 41.4632 34.3473 40.1722C35.703 38.8811 37.5101 38.172 39.382 38.1964C41.2539 38.2208 43.0419 38.977 44.3634 40.3029C45.6849 41.6289 46.435 43.4195 46.4531 45.2914Z" fill="white" stroke="black" stroke-width="2"/>
<path d="M39.1958 65.2504C39.205 66.205 39.0234 67.1518 38.6616 68.0352C38.2998 68.9186 37.7651 69.7208 37.089 70.3947C36.4128 71.0685 35.6088 71.6005 34.7242 71.9593C33.8396 72.3181 32.8922 72.4965 31.9376 72.4841C30.9831 72.4716 30.0407 72.2685 29.1657 71.8868C28.2908 71.505 27.5009 70.9522 26.8426 70.2609C26.1843 69.5696 25.6707 68.7537 25.3321 67.8612C24.9935 66.9686 24.8366 66.0174 24.8708 65.0634C24.9378 63.1926 25.7343 61.4222 27.09 60.1312C28.4457 58.8401 30.2528 58.131 32.1247 58.1554C33.9966 58.1798 35.7846 58.9359 37.1061 60.2619C38.4276 61.5879 39.1777 63.3784 39.1958 65.2504Z" fill="white" stroke="black" stroke-width="2"/>
<path d="M60.9687 65.2504C60.978 66.205 60.7963 67.1518 60.4345 68.0352C60.0727 68.9186 59.5381 69.7208 58.8619 70.3947C58.1858 71.0685 57.3818 71.6005 56.4971 71.9593C55.6125 72.3181 54.6651 72.4965 53.7106 72.4841C52.7561 72.4716 51.8136 72.2685 50.9387 71.8868C50.0637 71.505 49.2739 70.9522 48.6155 70.2609C47.9572 69.5696 47.4437 68.7537 47.105 67.8612C46.7664 66.9686 46.6096 66.0174 46.6437 65.0634C46.7107 63.1926 47.5073 61.4222 48.8629 60.1312C50.2186 58.8401 52.0257 58.131 53.8976 58.1554C55.7695 58.1798 57.5575 58.9359 58.879 60.2619C60.2006 61.5879 60.9506 63.3784 60.9687 65.2504Z" fill="white" stroke="black" stroke-width="2"/>
<circle cx="76.9383" cy="74.8451" r="13.1546" fill="#FFCA41" stroke="black" stroke-width="3"/>
<path d="M74.6403 77.1771L82.6426 68.9482L84.6492 71.185C84.8338 70.9962 84.5409 71.3081 84.6492 71.185C81.9898 73.9211 78.8703 77.1607 76.2055 79.8694C75.0617 81.035 74.3795 81.0309 73.2398 79.8694L69.2266 75.8022L71.3897 73.7173L74.6403 77.1771Z" fill="black"/>
</svg>
