<svg width="130" height="100" viewBox="0 0 130 100" fill="none" xmlns="http://www.w3.org/2000/svg">
<path d="M0 70.5566C0 50.425 0 30.2703 0 10.1388C0.162538 7.16665 1.74148 5.16976 4.31887 3.84623C5.43342 3.26574 6.64085 3.05676 7.89471 3.01032C8.9396 2.9871 9.98449 3.01032 11.0526 3.01032C36.1299 3.01032 61.2072 3.01032 86.2613 3.01032C88.2582 3.01032 90.139 3.38184 91.7644 4.58926C93.8542 6.14499 94.9688 8.18832 94.9688 10.8354C94.9688 30.5257 94.9455 50.2393 94.9688 69.9296C94.9688 74.4575 91.1375 77.7315 86.7954 77.7315C79.9456 77.7315 73.0957 77.7315 66.2227 77.7315C64.1097 77.7315 64.2258 77.5921 64.5741 79.7051C64.876 81.5627 65.2243 83.4203 65.5261 85.2779C65.7351 86.555 65.7815 86.5782 67.0586 86.6014C67.8249 86.6014 68.6143 86.5782 69.3806 86.6246C70.7273 86.7175 71.6561 87.5766 71.7026 88.6912C71.7258 89.8522 70.7738 90.7345 69.3806 90.8506C69.0787 90.8738 68.7537 90.8738 68.4518 90.8738C54.3806 90.8738 40.2863 90.8738 26.2151 90.8738C25.9132 90.8738 25.5882 90.8738 25.2863 90.8506C23.9396 90.7345 23.0572 89.8754 23.0804 88.6912C23.1036 87.5302 23.9396 86.6943 25.2631 86.6014C26.1222 86.5317 26.9813 86.6014 27.8637 86.5782C28.8854 86.555 29.0247 86.4621 29.1872 85.4404C29.5587 83.2578 29.9535 81.0519 30.325 78.8692C30.5107 77.7315 30.4875 77.7082 29.3498 77.7082C22.2677 77.7082 15.2089 77.7082 8.12691 77.7082C5.34054 77.7082 3.04179 76.6634 1.30031 74.411C0.441175 73.2501 0.116099 71.9497 0 70.5566Z" fill="black"/>
<path d="M47.4374 62.569C33.1805 62.569 18.9003 62.569 4.64342 62.5922C3.87716 62.5922 3.69141 62.4297 3.69141 61.6402C3.71463 44.9685 3.69141 28.2967 3.69141 11.6249C3.69141 8.62956 5.34001 6.98096 8.31214 6.98096C34.3879 6.98096 60.4405 6.98096 86.5162 6.98096C89.5116 6.98096 91.1602 8.62956 91.1602 11.6249C91.1602 28.2967 91.1602 44.9917 91.1834 61.6634C91.1834 62.4297 90.9976 62.6155 90.2314 62.6155C75.9745 62.569 61.6943 62.569 47.4374 62.569Z" fill="#FEFEFE"/>
<path d="M47.4388 66.284C61.6957 66.284 75.9758 66.284 90.2328 66.2607C90.999 66.2607 91.2544 66.4233 91.1848 67.2128C91.1151 68.0487 91.1848 68.8846 91.1615 69.7205C91.0687 71.9264 89.3968 73.5982 87.191 73.6911C86.982 73.6911 86.7498 73.6911 86.5408 73.6911C60.465 73.6911 34.4125 73.6911 8.33671 73.6911C5.87541 73.6911 4.13393 72.4836 3.80886 70.3474C3.6231 69.14 3.7392 67.8861 3.71598 66.6555C3.71598 66.3768 3.80886 66.2607 4.08749 66.284C4.29647 66.3072 4.52867 66.284 4.73765 66.284C18.9714 66.284 33.2051 66.284 47.4388 66.284Z" fill="#6C6C6C"/>
<path d="M33.041 86.7868C33.5286 83.8843 34.0395 81.0283 34.4806 78.1723C34.5735 77.5918 34.7825 77.3828 35.4094 77.3828C43.397 77.406 51.3846 77.406 59.3722 77.3828C59.9991 77.3828 60.1849 77.5453 60.2778 78.1723C60.6957 80.8426 61.2066 83.5128 61.6709 86.1831C61.7406 86.5314 61.8567 86.8797 61.2066 86.8797C51.849 86.8565 42.5147 86.8565 33.1571 86.8333C33.1571 86.8333 33.1339 86.81 33.041 86.7868Z" fill="#D8DBD7"/>
<path d="M83.4509 54.7204C83.4509 54.1399 83.4509 53.8381 83.4509 53.5362C83.4509 40.8118 83.4509 28.0874 83.4741 15.363C83.4741 14.5271 83.2652 14.3645 82.4757 14.3645C65.6646 14.3877 48.8767 14.3877 32.0656 14.3877C31.6477 14.3877 31.1833 14.3877 30.7885 14.2949C29.9294 14.0859 29.4186 13.3893 29.4186 12.5534C29.4186 11.6942 29.9294 11.0209 30.7653 10.7887C31.1136 10.6958 31.5083 10.6958 31.8566 10.6958C49.0857 10.6958 66.3147 10.6958 83.5438 10.6958C85.9819 10.6958 87.1196 11.8336 87.1196 14.2484C87.1196 27.9248 87.1196 41.6245 87.1196 55.3009C87.1196 57.739 85.9819 58.8768 83.567 58.8768C59.3953 58.8768 35.2003 58.8768 11.0285 58.8768C8.59046 58.8768 7.40625 57.6926 7.40625 55.2313C7.40625 41.6013 7.40625 27.9945 7.40625 14.3645C7.40625 11.8336 8.56724 10.6958 11.0982 10.6958C12.7236 10.6958 14.3722 10.6958 15.9976 10.6958C17.3675 10.6958 18.1802 11.4156 18.2034 12.5302C18.2034 13.6679 17.3907 14.3877 16.0208 14.3877C14.6044 14.411 13.188 14.411 11.7483 14.3877C11.3072 14.3877 11.0982 14.4574 11.0982 14.9682C11.1214 28.1803 11.1214 41.4155 11.1214 54.6275C11.1214 54.6508 11.1678 54.674 11.2375 54.7436C11.4233 54.5347 11.6322 54.3257 11.7948 54.0935C17.414 46.5935 23.0564 39.0935 28.6755 31.5703C28.8149 31.3614 28.9774 31.1756 29.1167 30.9899C30.0455 29.8521 31.3226 29.8289 32.2514 30.9899C33.1105 32.0812 33.9232 33.1957 34.7591 34.3103C36.6863 36.8877 38.6136 39.4418 40.5408 42.0192C40.7266 42.2514 40.8427 42.5533 41.191 42.7158C44.3953 38.4434 47.5764 34.1942 50.7807 29.9217C52.499 27.623 54.2173 25.3242 55.9355 23.0255C57.1662 21.3769 58.3968 21.3769 59.6275 23.0255C67.3132 33.2654 74.9989 43.5053 82.6614 53.7684C82.8936 54.0006 83.0794 54.2328 83.4509 54.7204Z" fill="black"/>
<path d="M33.3439 25.4869C33.3439 21.4234 36.734 18.0566 40.7742 18.103C44.7912 18.1495 48.1116 21.4699 48.1581 25.4869C48.2045 29.4807 44.7912 32.9172 40.751 32.9172C36.6875 32.9404 33.3206 29.5503 33.3439 25.4869Z" fill="black"/>
<path d="M25.5889 12.5302C25.5656 13.5286 24.753 14.3413 23.7777 14.3645C22.7793 14.3877 21.8737 13.4822 21.8969 12.4837C21.9201 11.4621 22.7793 10.6726 23.8242 10.6958C24.8458 10.719 25.6121 11.5085 25.5889 12.5302Z" fill="#010101"/>
<path d="M47.368 68.1187C48.4361 68.0954 49.272 68.8849 49.272 69.9298C49.272 70.905 48.4361 71.7642 47.4609 71.7874C46.4624 71.8106 45.5801 70.9515 45.5801 69.9298C45.5801 68.9081 46.3231 68.1419 47.368 68.1187Z" fill="#010101"/>
<path d="M79.1106 55.1383C64.8769 55.1383 50.7825 55.1383 36.5488 55.1383C37.4312 53.9541 38.2671 52.8627 39.0798 51.7482C39.3352 51.3999 39.6835 51.4928 40.0086 51.4928C44.072 51.4928 48.1587 51.4928 52.2222 51.4928C52.5937 51.4928 52.9652 51.4928 53.3367 51.4463C54.1262 51.307 54.7531 50.5872 54.8228 49.7745C54.8692 48.985 54.3119 48.1956 53.5457 47.9402C53.1277 47.8008 52.7098 47.8008 52.2686 47.8008C48.9482 47.8008 45.6045 47.8008 42.0751 47.8008C43.0039 46.5702 43.8398 45.4324 44.699 44.3411C44.9312 44.0625 45.2795 44.1786 45.5581 44.1786C48.1123 44.1786 50.6897 44.1786 53.2438 44.1786C54.428 44.1786 55.1246 43.7374 55.4033 42.9479C55.8212 41.6708 54.9621 40.5331 53.476 40.4866C51.8739 40.4402 50.2717 40.4866 48.6695 40.4634C48.3677 40.4634 48.0658 40.5563 47.7175 40.3241C48.5534 39.2095 49.3893 38.1182 50.202 37.0037C50.411 36.725 50.6897 36.7715 50.9451 36.7715C55.5426 36.7715 60.1401 36.7715 64.7376 36.7715C65.1323 36.7715 65.411 36.8876 65.6664 37.2126C70.1014 43.1104 74.5595 49.0547 79.1106 55.1383Z" fill="#FFCA41"/>
<path d="M15.6738 55.1616C18.4138 51.5161 21.0376 48.0332 23.6614 44.527C23.9401 44.1555 24.2419 44.1555 24.6134 44.1323C26.0531 44.109 27.5159 44.2484 28.9555 44.0626C29.8611 43.9465 30.488 43.157 30.488 42.2515C30.4648 41.3923 29.8611 40.6493 29.002 40.51C28.3286 40.4171 27.6552 40.4171 26.7961 40.3707C28.1428 38.5827 29.3967 36.8877 30.6738 35.1694C30.9989 35.2623 31.0917 35.5409 31.2543 35.7499C33.6227 38.9078 35.9679 42.0889 38.3827 45.2236C38.7775 45.7576 38.7543 46.0595 38.3595 46.5703C36.3394 49.2174 34.3425 51.8876 32.3456 54.5579C32.1134 54.8598 31.9276 55.1848 31.4168 55.1848C26.2156 55.1616 21.0376 55.1616 15.6738 55.1616Z" fill="#FFCA41"/>
<path d="M53.1738 32.9636C54.776 30.8506 56.2621 28.8537 57.841 26.7407C59.3967 28.8305 60.9292 30.8506 62.5082 32.9636C59.3503 32.9636 56.3549 32.9636 53.1738 32.9636Z" fill="#FFCA41"/>
<path d="M40.7505 21.8186C42.7706 21.8186 44.4657 23.5369 44.4425 25.5338C44.4425 27.5539 42.7242 29.2257 40.7273 29.2257C38.684 29.2257 37.0586 27.5539 37.0586 25.5105C37.0586 23.4672 38.7072 21.7954 40.7505 21.8186Z" fill="#FEFEFE"/>
</svg>
