<svg width="130" height="100" viewBox="0 0 130 100" fill="none" xmlns="http://www.w3.org/2000/svg">
<path d="M114.447 66.0458H24.0489C22.7358 66.0458 21.6699 64.9811 21.6699 63.6668V14.379C21.6699 13.0659 22.7346 12 24.0489 12H114.447C115.76 12 116.826 13.0647 116.826 14.379V63.6668C116.826 64.9811 115.761 66.0458 114.447 66.0458Z" fill="black"/>
<path d="M111.122 63.7505H26.1036C24.7905 63.7505 23.7246 62.6858 23.7246 61.3716V16.6734C23.7246 15.3603 24.7893 14.2944 26.1036 14.2944H111.122C112.435 14.2944 113.501 15.3591 113.501 16.6734V61.3716C113.5 62.6858 112.435 63.7505 111.122 63.7505Z" fill="#DDDDDC"/>
<path d="M104.882 74.5301H14.4845C13.1713 74.5301 12.1055 73.4654 12.1055 72.1512V22.8634C12.1055 21.5502 13.1702 20.4844 14.4845 20.4844H104.882C106.196 20.4844 107.261 21.5491 107.261 22.8634V72.1512C107.261 73.4654 106.197 74.5301 104.882 74.5301Z" fill="black"/>
<path d="M101.557 72.2349H16.5391C15.226 72.2349 14.1602 71.1702 14.1602 69.8559V25.1578C14.1602 23.8447 15.2249 22.7788 16.5391 22.7788H101.557C102.871 22.7788 103.936 23.8435 103.936 25.1578V69.8559C103.935 71.1702 102.871 72.2349 101.557 72.2349Z" fill="#DDDDDC"/>
<path d="M94.7769 83.015H4.37899C3.06585 83.015 2 81.9503 2 80.636V31.3482C2 30.0351 3.06471 28.9692 4.37899 28.9692H94.7769C96.0901 28.9692 97.1559 30.0339 97.1559 31.3482V80.636C97.1559 81.9503 96.0912 83.015 94.7769 83.015Z" fill="black"/>
<path d="M91.452 80.7198H6.43367C5.12054 80.7198 4.05469 79.6551 4.05469 78.3408V33.6427C4.05469 32.3295 5.11939 31.2637 6.43367 31.2637H91.452C92.7651 31.2637 93.831 32.3284 93.831 33.6427V78.3408C93.8298 79.6551 92.7651 80.7198 91.452 80.7198Z" fill="white"/>
<path d="M88.818 41.9309H46.5343C46.1851 41.9309 45.9023 41.6481 45.9023 41.2989V37.632C45.9023 37.2828 46.1851 37 46.5343 37H88.818C89.1671 37 89.4499 37.2828 89.4499 37.632V41.2989C89.4499 41.6481 89.1671 41.9309 88.818 41.9309Z" fill="#FFCA41"/>
<path d="M88.818 52.4957H46.5343C46.1851 52.4957 45.9023 52.213 45.9023 51.8638V48.1969C45.9023 47.8477 46.1851 47.5649 46.5343 47.5649H88.818C89.1671 47.5649 89.4499 47.8477 89.4499 48.1969V51.8638C89.4499 52.213 89.1671 52.4957 88.818 52.4957Z" fill="#FFCA41"/>
<path d="M88.818 62.6286H46.5343C46.1851 62.6286 45.9023 62.3458 45.9023 61.9967V58.3297C45.9023 57.9805 46.1851 57.6978 46.5343 57.6978H88.818C89.1671 57.6978 89.4499 57.9805 89.4499 58.3297V61.9967C89.4499 62.3458 89.1671 62.6286 88.818 62.6286Z" fill="#FFCA41"/>
<path d="M88.818 72.9309H46.5343C46.1851 72.9309 45.9023 72.6481 45.9023 72.2989V68.632C45.9023 68.2828 46.1851 68 46.5343 68H88.818C89.1671 68 89.4499 68.2828 89.4499 68.632V72.2989C89.4499 72.6481 89.1671 72.9309 88.818 72.9309Z" fill="#FFCA41"/>
<path d="M38.628 52H11.372C10.6139 52 10 51.6327 10 51.1792V37.8208C10 37.3673 10.6139 37 11.372 37H38.628C39.3861 37 40 37.3673 40 37.8208V51.1792C40 51.6327 39.3861 52 38.628 52Z" fill="#FFCA41"/>
<path d="M38.628 73H11.372C10.6139 73 10 72.6327 10 72.1792V58.8208C10 58.3673 10.6139 58 11.372 58H38.628C39.3861 58 40 58.3673 40 58.8208V72.1792C40 72.6327 39.3861 73 38.628 73Z" fill="#FFCA41"/>
</svg>
