<svg width="130" height="100" viewBox="0 0 130 100" fill="none" xmlns="http://www.w3.org/2000/svg">
<rect x="3" y="17.3335" width="122" height="65.0667" rx="8" fill="#EBEBEB" stroke="black" stroke-width="3"/>
<rect x="11.8125" y="27.5" width="51.5111" height="44.7333" fill="#DBDBDB"/>
<rect x="15.1992" y="32.9224" width="19.6556" height="15.5889" fill="#939393"/>
<rect x="15.1992" y="51.2222" width="19.6556" height="15.5889" fill="#939393"/>
<rect x="38.9219" y="32.9224" width="19.6556" height="15.5889" fill="#939393"/>
<rect x="38.9219" y="51.2222" width="19.6556" height="15.5889" fill="#939393"/>
<path d="M65.3555 27.5H107.867C112.837 27.5 116.867 31.5294 116.867 36.5V63.2333C116.867 68.2039 112.837 72.2333 107.867 72.2333H65.3555V27.5Z" fill="#FFCA41"/>
<rect x="69.4219" y="32.9224" width="15.5889" height="15.5889" rx="7.79444" fill="white"/>
<rect x="91.1113" y="34.2778" width="18.9778" height="2.03333" rx="1.01667" fill="white"/>
<rect x="91.1113" y="38.3442" width="14.9111" height="2.03333" rx="1.01667" fill="white"/>
<rect x="91.1113" y="42.4111" width="17.6222" height="2.03333" rx="1.01667" fill="white"/>
<rect x="91.1113" y="46.478" width="22.3667" height="2.03333" rx="1.01667" fill="white"/>
<rect x="69" y="57" width="18" height="13" rx="4" fill="white"/>
<rect x="91.1113" y="56.6445" width="16.2667" height="5.42222" rx="2.71111" fill="white"/>
<rect x="91.1113" y="64.1001" width="4.06667" height="4.06667" rx="2.03333" fill="white"/>
<rect x="97.2109" y="64.1001" width="4.06667" height="4.06667" rx="2.03333" fill="white"/>
<rect x="103.312" y="64.1001" width="4.06667" height="4.06667" rx="2.03333" fill="white"/>
<rect x="63" y="4" width="3" height="92" rx="1.5" fill="black"/>
</svg>
