<svg width="130" height="100" viewBox="0 0 130 100" fill="none" xmlns="http://www.w3.org/2000/svg">
<rect x="4" y="65" width="94" height="10" fill="#DDDDDC"/>
<path d="M0.0586692 8.36895C0.625805 7.29335 1.50584 7 2.69878 7C34.2433 7.01956 65.7877 7.01956 97.3322 7.01956C99.3465 7.01956 99.9528 7.62581 99.9528 9.62056C99.9528 31.8366 99.9528 54.0331 99.9528 76.2492C99.9528 78.1853 99.327 78.8307 97.4104 78.8307C96.3935 78.8307 95.3961 78.8502 94.3792 78.8111C93.2449 78.772 92.3649 77.8724 92.3649 76.8555C92.3649 75.819 93.2449 74.9585 94.3988 74.8998C96.0024 74.8216 96.0024 74.8216 96.0024 73.1593C96.0024 70.7539 95.9828 68.3484 96.0219 65.943C96.0219 65.3563 95.885 65.1607 95.2788 65.1803C93.2645 65.2194 91.2502 65.1998 89.2359 65.1998C61.2115 65.1998 33.1677 65.1998 5.14333 65.1803C4.22418 65.1803 3.95039 65.3759 3.96995 66.3341C4.04818 68.8764 4.02862 71.3992 3.96995 73.9416C3.95039 74.7629 4.20463 74.9389 4.98688 74.9389C29.2368 74.9194 53.5063 74.9194 77.7563 74.9194C78.1865 74.9194 78.5972 74.8998 79.0274 74.9585C79.9857 75.0563 80.7484 75.9363 80.7484 76.875C80.7484 77.8137 79.9857 78.7133 79.0274 78.8111C78.6363 78.8502 78.2452 78.8307 77.854 78.8307C72.3587 78.8307 66.8633 78.8307 61.2507 78.8307C62.248 81.549 63.2258 84.2087 64.1646 86.8879C64.321 87.3572 64.6535 87.2399 64.9468 87.2399C66.4331 87.2595 67.9389 87.2595 69.4252 87.2399C70.3835 87.2204 71.1071 87.5724 71.6742 88.3546C72.5151 89.5085 73.4147 90.6232 74.2557 91.777C75.1161 92.9504 75.0184 94.1238 74.0014 94.8669C73.0432 95.5709 71.948 95.3167 71.0484 94.1629C70.5986 93.5957 70.1293 93.0677 69.7772 92.4419C69.2492 91.5228 68.5452 91.2685 67.4891 91.2685C55.6771 91.3076 43.8846 91.3076 32.0725 91.2685C31.2511 91.2685 30.7427 91.5032 30.332 92.1681C29.8822 92.8722 29.3346 93.5371 28.8066 94.202C27.907 95.3167 26.7923 95.5318 25.8536 94.8278C24.8953 94.1042 24.7975 92.9504 25.6384 91.8161C26.5185 90.6036 27.4572 89.4302 28.3372 88.2373C28.8457 87.5528 29.5106 87.2595 30.3515 87.2595C31.7792 87.2595 33.2068 87.2595 34.6344 87.2595C34.9473 87.2595 35.2406 87.3181 35.3971 86.8683C36.3358 84.2282 37.3136 81.5881 38.311 78.8502C37.8612 78.8502 37.5092 78.8502 37.1767 78.8502C25.658 78.8502 14.1588 78.8307 2.64011 78.8698C1.44717 78.8698 0.547579 78.5569 0 77.4813C0.0586692 54.4243 0.0586692 31.4064 0.0586692 8.36895Z" fill="#020203"/>
<path d="M50.1228 68.0551C51.2962 68.0551 52.45 68.0355 53.6234 68.0551C54.8946 68.0746 55.6768 68.8569 55.6768 70.0107C55.6768 71.1645 54.8946 71.9468 53.6234 71.9664C51.2571 71.9859 48.8907 71.9859 46.5244 71.9664C45.3315 71.9468 44.5297 71.1645 44.5101 70.0498C44.4906 68.896 45.2924 68.0746 46.5244 68.0551C47.7174 68.0355 48.9299 68.0551 50.1228 68.0551Z" fill="#020203"/>
<path d="M88.4329 76.7968C88.4329 77.9115 87.4942 78.8306 86.3794 78.8111C85.2843 78.7915 84.4434 77.9115 84.4434 76.7968C84.4434 75.7016 85.3038 74.8802 86.4577 74.8802C87.6115 74.8411 88.4329 75.6625 88.4329 76.7968Z" fill="#030305"/>
<path d="M50.024 10.9503C64.9846 10.9503 79.9453 10.9503 94.9059 10.9308C95.7468 10.9308 96.0598 11.0677 96.0598 12.0064C96.0206 28.0622 96.0206 44.1375 96.0598 60.1933C96.0598 61.0538 95.8642 61.2494 95.0037 61.2494C84.2477 61.2103 73.4721 61.2103 62.7161 61.2494C61.9143 61.2494 61.7578 61.0538 61.6992 60.252C61.3667 56.3016 62.0316 52.6641 64.1828 49.2418C65.4344 47.247 65.2193 45.0176 64.0459 42.9446C60.1346 36.0803 56.2038 29.2356 52.2534 22.3713C51.1974 20.5525 49.4764 20.5525 48.4204 22.3908C44.5286 29.1964 40.6369 36.0021 36.7452 42.7881C35.474 44.998 35.298 47.2666 36.6083 49.4373C38.4857 52.5077 39.2289 55.754 38.916 59.3329C38.74 61.2103 38.8768 61.2103 37.0385 61.2103C26.3803 61.2103 15.7025 61.2103 5.04428 61.2298C4.24246 61.2298 4.02734 61.0538 4.02734 60.2325C4.0469 44.1375 4.0469 28.0426 4.02734 11.9477C4.02734 11.0481 4.28158 10.8917 5.10295 10.9112C20.044 10.9503 35.0242 10.9503 50.024 10.9503Z" fill="white"/>
<path d="M48.2853 30.9371C48.2853 33.7728 48.2657 36.5889 48.3048 39.4246C48.3048 39.9331 48.0115 40.07 47.679 40.2851C45.8016 41.5171 45.078 43.2968 45.3518 45.4675C45.5865 47.384 47.1706 49.0463 49.1653 49.5548C51.5708 50.1806 54.074 48.929 55.0909 46.6213C56.1078 44.3137 55.2669 41.5367 53.057 40.2655C52.4508 39.9135 52.2943 39.5419 52.3139 38.8966C52.3334 36.2369 52.3335 33.5772 52.3335 30.8784C52.6855 30.9176 52.705 31.2305 52.8224 31.4065C55.3451 35.7871 57.8288 40.1677 60.3711 44.5288C61.0165 45.6435 61.1338 46.6605 60.4689 47.8143C59.8822 48.8117 59.3933 49.8677 58.9044 50.9238C58.6893 51.3736 58.4155 51.5104 57.9266 51.5104C52.8615 51.4909 47.7964 51.4909 42.7117 51.5104C42.2423 51.5104 41.949 51.4127 41.7339 50.9433C41.1863 49.7504 40.5605 48.577 39.9542 47.384C39.5827 46.6409 39.524 45.8978 39.9347 45.1546C42.653 40.3829 45.3714 35.6111 48.0897 30.8589C48.1679 30.9176 48.2266 30.9176 48.2853 30.9371Z" fill="#FFCA41"/>
<path d="M49.7906 87.2203C46.6811 87.2203 43.5521 87.2007 40.4426 87.2398C39.6799 87.2398 39.5821 87.0834 39.8559 86.3794C40.736 84.0913 41.5769 81.7836 42.3787 79.476C42.5547 78.9479 42.8089 78.811 43.337 78.811C47.6589 78.8306 51.9809 78.8306 56.3029 78.811C56.8896 78.811 57.1438 78.987 57.3394 79.5542C58.1412 81.8814 58.9625 84.189 59.8426 86.4771C60.1359 87.2203 59.8817 87.2594 59.2559 87.2594C56.0877 87.2203 52.9392 87.2203 49.7906 87.2203Z" fill="white"/>
<path d="M50.1834 55.5782C52.452 55.5782 54.7205 55.5977 56.9891 55.5586C57.5366 55.5586 57.7126 55.6955 57.6931 56.2626C57.654 57.6316 57.6735 58.981 57.6931 60.3499C57.6931 60.7997 57.6735 61.0539 57.0868 61.0539C52.5106 61.0344 47.9344 61.0344 43.3582 61.0539C42.8693 61.0539 42.752 60.8975 42.7715 60.4477C42.7911 59.0592 42.8107 57.6511 42.7715 56.2626C42.752 55.6955 42.928 55.5586 43.4756 55.5782C45.7246 55.5782 47.954 55.5782 50.1834 55.5782Z" fill="white"/>
<path d="M50.4361 45.702C49.732 45.7216 49.3605 45.3109 49.2627 44.6656C49.1649 44.0593 49.7516 43.4726 50.3969 43.4922C51.101 43.5117 51.5117 43.9615 51.5117 44.5873C51.5508 45.2131 51.1596 45.6629 50.4361 45.702Z" fill="#FDFCFD"/>
<path d="M77.6196 23.9945C81.6873 23.9945 85.7355 23.9945 89.8032 23.9945C91.4851 23.9945 92.2673 24.7181 92.2869 26.4C92.3065 28.8054 92.326 31.2108 92.2869 33.6163C92.2673 35.2003 91.5046 35.9435 89.9401 35.9435C81.6873 35.963 73.4345 35.963 65.1817 35.9435C63.5195 35.9435 62.8545 35.2395 62.835 33.5576C62.8154 31.1522 62.8154 28.7467 62.835 26.3413C62.8545 24.6986 63.5781 24.0141 65.2404 23.9945C69.3668 23.975 73.4932 23.9945 77.6196 23.9945Z" fill="#020203"/>
<path d="M77.6207 21.2564C73.4943 21.2564 69.3679 21.2564 65.2415 21.2564C64.3419 21.2564 63.5792 21.0413 63.0903 20.2004C62.4449 19.1052 63.0903 17.6189 64.3223 17.3647C64.6939 17.2865 65.1046 17.2669 65.4761 17.2669C73.4943 17.2669 81.5124 17.2669 89.5305 17.2669C90.0781 17.2669 90.6452 17.2474 91.1341 17.5211C91.8577 17.9123 92.2293 18.5381 92.1902 19.3399C92.1511 20.1613 91.7208 20.7871 90.8995 21.1195C90.4888 21.276 90.0781 21.276 89.6479 21.276C85.6779 21.2564 81.6493 21.2564 77.6207 21.2564Z" fill="#020203"/>
<path d="M92.2863 50.415C92.2863 52.136 92.3059 53.857 92.2863 55.5779C92.2667 57.2793 91.4649 58.0811 89.7831 58.0811C86.9474 58.1007 84.1313 58.1007 81.2956 58.0811C79.3791 58.0616 78.3426 56.5362 79.1835 55.0695C79.6724 54.2285 80.4742 54.0525 81.3543 54.0525C83.3686 54.0525 85.3829 54.0134 87.3972 54.0721C88.0621 54.0916 88.2772 53.9352 88.2577 53.2312C88.2186 50.5324 88.2186 47.8336 88.2381 45.1348C88.2577 43.5312 89.2746 42.612 90.6827 42.8858C91.68 43.0814 92.2472 43.9027 92.2667 45.2326C92.3058 46.9731 92.2863 48.6941 92.2863 50.415Z" fill="#020304"/>
<path d="M15.6436 14.2362C17.4233 14.2362 19.2224 14.2362 21.0021 14.2362C22.3319 14.2362 23.2119 14.9989 23.2511 16.1528C23.2902 17.3066 22.3906 18.1475 21.0021 18.1671C18.2642 18.1866 15.5458 18.1866 12.8079 18.1671C12.143 18.1671 11.9083 18.304 11.9279 19.008C11.9866 21.081 11.9475 23.1735 11.9475 25.2465C11.9475 26.6937 11.2239 27.5346 10.0114 27.5346C8.77932 27.5541 8.01662 26.7132 8.01662 25.3052C7.99706 22.3521 7.99706 19.3796 8.01662 16.4265C8.05573 14.9598 8.79888 14.2362 10.2852 14.2362C12.0648 14.2167 13.864 14.2362 15.6436 14.2362Z" fill="#020203"/>
<path d="M17.9533 50.9232C20.4956 50.9232 23.0184 50.9037 25.5607 50.9232C26.695 50.9232 27.4968 51.549 27.7119 52.5269C27.8879 53.3482 27.4577 54.2087 26.695 54.639C26.3039 54.8541 25.8932 54.8932 25.4825 54.8932C20.4174 54.9127 15.3523 54.9127 10.2872 54.8932C9.01603 54.8932 8.23377 54.2283 8.09688 53.2505C7.90131 51.9206 8.80091 50.9232 10.2872 50.9232C12.8295 50.9037 15.3914 50.9232 17.9533 50.9232Z" fill="#030304"/>
<path d="M13.2219 43.6879C14.2388 43.6879 15.2362 43.6683 16.2531 43.6879C17.5243 43.7074 18.3652 44.4701 18.4043 45.6044C18.4434 46.7387 17.6416 47.5992 16.39 47.6187C14.2779 47.6578 12.1658 47.6578 10.0537 47.6187C8.78256 47.5992 8.03941 46.7582 8.05897 45.5849C8.09808 44.4897 8.8999 43.7466 10.1124 43.7074C10.1515 43.7074 10.1711 43.7074 10.2102 43.7074C11.2075 43.6879 12.2245 43.6879 13.2219 43.6879Z" fill="#020203"/>
<path d="M24.1724 47.6384C23.0577 47.6188 22.2559 46.7583 22.2559 45.6241C22.2559 44.5289 23.1163 43.688 24.2506 43.688C25.424 43.688 26.2454 44.5485 26.2063 45.7414C26.1867 46.8366 25.3067 47.6579 24.1724 47.6384Z" fill="#030405"/>
<path d="M77.4816 31.993C74.1962 31.993 70.9107 31.9735 67.6448 32.0126C66.9994 32.0126 66.7061 31.9148 66.7843 31.1912C66.9016 30.1352 66.3345 28.7271 66.9994 28.1208C67.5861 27.5928 68.9746 27.9644 70.0111 27.9644C75.7998 27.9644 81.5885 27.984 87.3576 27.9448C88.0616 27.9448 88.3354 28.0817 88.2768 28.8444C88.1985 29.6462 88.2181 30.4676 88.2768 31.2694C88.3159 31.8757 88.1203 32.0126 87.5336 32.0126C84.1699 31.9735 80.8258 31.993 77.4816 31.993Z" fill="#FFCA41"/>
</svg>
