<svg width="460" height="541" viewBox="0 0 460 541" fill="none" xmlns="http://www.w3.org/2000/svg">
<g clip-path="url(#clip0_309_3788)">
<path d="M329.598 211.574L340.515 308.606C325.128 274.222 293.525 215.608 293.525 215.608L329.598 211.574Z" fill="#DBDBDB"/>
<path d="M362.326 236.17C361.222 235.978 360.089 236.069 358.999 236.027C358.105 235.989 357.221 235.935 356.327 235.828C354.651 235.62 352.9 235.162 351.323 233.938C349.551 232.569 348.339 230.207 347.171 227.933C346.484 226.58 345.773 225.246 345.077 223.923C344.733 223.281 344.39 222.639 344.046 221.997C343.639 221.243 343.133 220.48 342.788 219.686C342.738 219.57 342.617 219.663 342.664 219.765C342.932 220.296 343.132 220.91 343.364 221.475C343.641 222.13 343.907 222.8 344.184 223.455C344.686 224.635 345.174 225.817 345.674 226.984C346.584 229.071 347.477 231.286 348.694 233.093C350.931 236.397 353.989 237.313 356.871 237.305C357.702 237.299 358.52 237.227 359.336 237.141C360.341 237.033 361.424 236.966 362.379 236.59C362.518 236.522 362.5 236.206 362.326 236.17Z" fill="#DBDBDB"/>
<path d="M287.412 247.886C288.951 247.524 290.584 247.435 292.138 247.222C293.395 247.052 294.661 246.853 295.903 246.603C298.255 246.142 300.64 245.411 302.582 243.96C304.767 242.324 305.923 239.802 307.014 237.376C307.669 235.935 308.34 234.504 309.013 233.086C309.34 232.4 309.678 231.698 310.007 231.025C310.407 230.214 310.944 229.391 311.241 228.544C311.287 228.425 311.481 228.499 311.432 228.605C311.179 229.166 311.052 229.814 310.86 230.405C310.632 231.101 310.419 231.806 310.188 232.488C309.773 233.732 309.372 234.973 308.927 236.208C308.142 238.423 307.432 240.736 306.131 242.716C303.754 246.33 299.608 247.715 295.477 248.154C294.295 248.282 293.1 248.343 291.914 248.374C290.441 248.433 288.878 248.522 287.424 248.313C287.219 248.255 287.157 247.934 287.412 247.886Z" fill="#DBDBDB"/>
<path d="M340.113 259.544C334.228 262.064 328.629 265.431 323.278 268.931C323.068 269.068 323.241 269.395 323.469 269.282C329.161 266.328 334.971 263.489 340.478 260.223C340.916 259.974 340.577 259.359 340.113 259.544Z" fill="#DBDBDB"/>
<path d="M338.956 219.208C338.931 219.005 338.568 218.991 338.582 219.21C339.144 226.174 339.139 232.345 339.027 238.897C338.969 241.945 337.758 258.827 332.428 257.997C331.543 257.86 331.024 257.03 330.788 255.716C330.501 254.135 330.968 252.146 331.106 250.539C331.431 246.997 331.646 243.463 331.69 239.905C331.771 233.262 331.32 226.664 330.04 220.156C329.999 219.941 329.689 219.987 329.703 220.206C330.373 229.34 330.806 238.464 330.105 247.61C329.762 252.001 328.056 258.704 332.653 259.036C337.336 259.379 339.522 248.203 339.871 245.156C340.822 236.67 340.225 227.632 338.956 219.208Z" fill="#DBDBDB"/>
<path d="M332.608 258.434C332.218 259.59 331.919 260.784 331.675 261.981C331.492 262.917 331.226 263.925 331.391 264.864C331.427 265.051 331.675 265.045 331.762 264.918C332.326 264.09 332.507 263.002 332.772 262.064C333.09 260.963 333.436 259.871 333.725 258.763C333.929 258.017 332.845 257.71 332.608 258.434Z" fill="#DBDBDB"/>
<path opacity="0.1" d="M300.792 151.472C302.857 153.728 308.488 155.415 319.805 155.647C345.41 156.211 371.937 152.579 382.65 143.885C384.056 142.744 385.341 141.266 386.503 139.575L300.792 151.472Z" fill="black"/>
<path d="M309.157 109.449C307.418 116.56 304.44 123.352 300.614 129.626C296.773 135.889 291.815 141.533 285.891 145.96C282.91 148.149 279.687 150.01 276.265 151.41C275.426 151.805 274.552 152.096 273.681 152.401C272.81 152.705 271.944 153.036 271.042 153.249C270.144 153.49 269.263 153.74 268.361 153.954L265.64 154.444C258.344 155.596 250.888 155.032 243.774 153.349C245.591 153.571 247.386 153.895 249.203 154.049C251.016 154.175 252.831 154.385 254.65 154.33C258.28 154.457 261.913 154.099 265.47 153.478C272.564 152.142 279.387 149.305 285.142 144.938C290.989 140.692 295.831 135.167 299.794 129.103C301.783 126.076 303.547 122.885 305.111 119.592C306.694 116.324 308.045 112.933 309.157 109.449Z" fill="#DBDBDB"/>
<path d="M155.999 184.191C163.427 189.198 167.538 190.107 176.353 190.385C176.522 190.395 176.557 190.652 176.378 190.658C167.728 191.18 162.397 190.78 155.748 184.544C155.411 184.234 155.636 183.955 155.999 184.191Z" fill="#A6A6A6"/>
<path d="M206.902 184.947C206.902 184.947 198.925 177.051 194.657 174.368C190.387 171.673 170.778 167.5 169.646 171.681C168.164 177.079 179.017 181.726 184.614 183.309C184.614 183.309 181.182 195.803 188.251 200.822C195.302 205.817 206.902 184.947 206.902 184.947Z" fill="#DBDBDB"/>
<path d="M282.42 187.621C282.783 186.761 282.875 185.787 283.148 184.889C283.437 183.933 283.729 182.99 284.035 182.045C284.629 180.212 285.207 178.369 285.786 176.526C286.942 172.839 288.296 169.24 289.559 165.603C289.575 165.545 289.652 165.585 289.633 165.631C288.671 169.391 287.76 173.128 286.549 176.824C286.522 176.899 286.497 176.987 286.47 177.061C286.795 176.514 287.124 175.98 287.449 175.433C288.123 174.306 288.782 173.183 289.439 172.045C289.483 171.982 289.592 172.044 289.562 172.105C289.011 173.292 288.41 174.432 287.737 175.558C287.403 176.135 287.053 176.701 286.674 177.258C286.5 177.513 286.327 177.768 286.154 178.023C285.694 179.399 285.235 180.776 284.776 182.153C284.455 183.088 284.12 184.025 283.77 184.951C283.432 185.875 282.879 186.757 282.627 187.692C282.583 187.825 282.362 187.756 282.42 187.621Z" fill="#A6A6A6"/>
<path d="M330.38 379.888C330.38 379.888 306.311 427.851 306.29 427.883C301.638 437.031 297.718 445.14 296.095 449.511C296.085 449.527 296.076 449.556 296.068 449.585C295.454 451.241 295.166 452.35 295.312 452.752C295.319 452.792 295.324 452.819 295.34 452.83C297.118 456.055 369.152 495.357 372.123 495.887C375.097 496.431 376.83 487.976 375.243 484.229C373.639 480.458 352.805 453.086 352.805 453.086L376.403 404.908L330.38 379.888Z" fill="#DDDDDD"/>
<path d="M313.469 413.581L361.126 436.113C361.126 436.113 396.372 377.011 401.699 342.554C404.176 326.568 368.388 245.513 360.502 230.666C355.659 221.535 346.565 209.663 346.565 209.663L293.536 215.592C293.536 215.592 350.105 320.535 348.686 331.953C346.955 345.884 313.469 413.581 313.469 413.581Z" fill="black"/>
<path d="M295.314 452.765C295.322 452.805 295.314 452.835 295.33 452.845C297.124 456.081 369.144 495.386 372.115 495.917C375.089 496.46 376.822 488.005 375.246 484.243C374.373 482.204 367.922 473.296 362.148 465.535C367.54 473.105 379.206 495.51 301.917 436.673C299.272 442.085 297.186 446.641 296.101 449.538C296.092 449.567 296.082 449.583 296.073 449.612C295.457 451.255 295.153 452.352 295.314 452.765Z" fill="black"/>
<path d="M255.871 299.502C255.871 299.502 220.555 267.426 220.536 267.402C212.499 261.014 200.99 251.099 199.083 251.129C195.562 252.229 141.836 315.499 140.733 318.301C139.604 321.109 147.541 324.493 151.534 323.692C155.551 322.872 186.525 307.926 186.525 307.926L223.685 339.707L255.871 299.502Z" fill="#DDDDDD"/>
<path d="M151.537 323.705C153.552 323.294 162.301 319.356 170.554 315.512C160.877 318.143 141.776 319.337 219.081 266.237C211.177 259.893 200.894 251.104 199.085 251.143C195.565 252.242 141.836 315.499 140.736 318.315C139.62 321.12 147.541 324.493 151.537 323.705Z" fill="black"/>
<path d="M339.582 210.479C339.582 210.479 344.44 226.761 342.507 240.579C341.101 250.677 339.484 259.595 338.092 260.663C336.518 261.864 328.661 266.479 326.029 267.95C326.029 267.95 319.501 333.915 308.199 357.085C304.329 365.017 282.098 376.359 269.198 370.938C238.94 358.24 197.83 317.574 197.83 317.574L230.154 276.124L271.05 310.563C271.05 310.563 272.538 271.596 271.628 258.653C270.886 248.118 275.407 227.499 280.218 217.294L339.582 210.479Z" fill="black"/>
<path d="M307.738 97.5462C314.941 116.239 302.612 150.045 276.411 164.569C254.222 176.86 220.938 165.819 212.441 148.481C203.41 130.095 214.306 112.008 229.12 107.595C244.406 103.037 256.285 111.619 266.806 106.138C271.84 103.516 276.994 95.4088 284.265 91.2109C292.358 86.5238 304.042 87.9613 307.738 97.5462Z" fill="black"/>
<path d="M311.812 151.968C321.935 155.769 365.792 161.096 378.223 149.913C390.891 138.518 397.531 96.0198 398.735 90.6883C401.548 78.2153 363.598 79.5978 362.74 83.0332C359.693 95.2182 357.563 126.806 352.664 128.82C342.35 133.056 332.192 134.323 315.423 138.664C303.715 141.696 300.628 147.773 311.812 151.968Z" fill="#DDDDDD"/>
<path d="M397.991 92.9785C399.439 88.9316 404.657 69.5676 404.859 63.9275C405.062 58.2874 404.461 42.0129 400.161 41.4168C395.86 40.8208 395.647 45.6033 395.647 45.6033C395.647 45.6033 394.306 38.7732 389.913 38.569C385.521 38.3648 385.453 45.8094 385.453 45.8094C385.453 45.8094 383.568 38.8888 379.181 39.0025C374.793 39.1162 375.97 46.6152 375.97 46.6152C375.97 46.6152 374.543 40.2038 370.956 41.829C366.653 43.7708 370.618 55.287 369.927 61.4915C369.767 62.9086 364.716 89.8529 364.716 89.8529L397.991 92.9785Z" fill="#DDDDDD"/>
<path d="M375.875 45.9679C378.776 54.4421 378.579 58.6531 376.549 67.2199C376.512 67.3932 376.752 67.4862 376.802 67.3104C379.564 59.0897 380.564 53.8525 376.272 45.7953C376.059 45.406 375.742 45.5633 375.875 45.9679Z" fill="black"/>
<path d="M385.214 45.134C387.463 54.1898 387.279 58.7589 385.817 67.9107C385.8 68.0388 386.019 68.0943 386.049 67.9636C388.248 59.1153 389.134 53.8582 385.692 45.0984C385.533 44.6989 385.108 44.7243 385.214 45.134Z" fill="black"/>
<path d="M395.554 46.0647C397.1 54.9911 397.125 60.0055 394.551 68.7035C394.493 68.9086 394.777 69.0208 394.862 68.8106C398.341 60.204 398.357 53.9477 395.827 46.0406C395.669 45.5022 395.46 45.5002 395.554 46.0647Z" fill="black"/>
<path d="M363.314 95.3058C363.314 95.3058 357.782 85.5433 356.297 80.7235C354.811 75.9037 355.897 55.8838 360.22 55.8656C365.819 55.8541 367.472 67.533 367.54 73.3573C367.54 73.3573 380.495 73.3053 383.496 81.4278C386.483 89.5529 363.314 95.3058 363.314 95.3058Z" fill="#DDDDDD"/>
<path d="M361.757 56.3633C366.878 60.0338 366.461 67.6835 366.94 73.3327C366.979 73.7551 367.336 73.8814 367.652 73.7935C373.082 74.133 380.644 76.2023 383.617 81.1135C383.701 81.2639 383.915 81.1537 383.858 80.9982C381.374 75.3009 374.119 72.6601 368.146 72.6735C367.735 66.8727 367.81 59.1771 361.778 56.3315C361.757 56.2939 361.725 56.3416 361.757 56.3633Z" fill="black"/>
<path d="M360.419 91.239C360.419 91.239 355.893 125.39 353.008 127.132C348.207 130.028 319.763 136.701 309.673 139.633C299.582 142.565 293.096 149.65 318.684 156.609C343.395 163.332 370.005 166.187 382.522 160.339C397.763 153.211 409.297 116.035 409.297 116.035L360.419 91.239Z" fill="#7A7A7A"/>
<path d="M346.948 209.633L279.63 217.421C279.63 217.421 279.15 170.148 287.79 149.967C291.715 140.79 300.133 139.854 307.039 142.339C308.764 142.954 321.534 150.022 325.568 156.797C329.132 162.775 335.957 179.335 335.957 179.335L346.948 209.633Z" fill="#7A7A7A"/>
<path d="M294.821 158.793C280.942 182.259 259.338 217.233 245.015 218.031C232.062 218.748 210.565 209.166 187.15 198.91C182.492 196.871 199.139 162.812 203.861 165.477C213.194 170.731 234.436 183.855 240.621 184.37C243.269 184.587 271.052 160.666 286.84 148.983C300.697 138.735 297.517 154.231 294.821 158.793Z" fill="#DDDDDD"/>
<path d="M190.111 200.191C185.83 199.771 166.1 196.204 160.907 193.975C155.713 191.747 141.254 184.251 142.559 180.107C143.864 175.962 148.265 177.815 148.265 177.815C148.265 177.815 142.654 173.683 144.351 169.63C146.048 165.577 152.809 168.686 152.809 168.686C152.809 168.686 147.361 164.024 149.345 160.097C151.316 156.173 157.605 160.439 157.605 160.439C157.605 160.439 152.428 156.405 155.412 153.869C159.001 150.801 167.721 159.319 173.627 161.357C174.964 161.823 201.506 168.767 201.506 168.767L190.111 200.191Z" fill="#DDDDDD"/>
<path d="M157.065 160.085C163.48 166.324 167.367 167.955 175.992 169.781C176.165 169.817 176.144 170.071 175.96 170.05C167.349 169.026 162.174 167.695 156.734 160.383C156.473 160.031 156.758 159.783 157.065 160.085Z" fill="black"/>
<path d="M152.323 168.169C159.56 174.071 163.756 175.866 172.649 178.444C172.78 178.475 172.724 178.694 172.596 178.676C163.659 176.883 158.53 175.432 152.084 168.589C151.788 168.271 151.994 167.899 152.323 168.169Z" fill="black"/>
<path d="M148.729 177.921C156.141 183.138 160.671 185.299 169.615 186.689C169.828 186.718 169.79 187.03 169.58 187.015C160.312 186.476 154.65 183.824 148.58 178.157C148.188 177.774 148.265 177.593 148.729 177.921Z" fill="black"/>
<path d="M207.031 169.824C207.031 169.824 200.573 160.654 196.846 157.245C193.119 153.836 174.568 146.259 172.691 150.166C170.285 155.227 180.129 161.714 185.368 164.253C185.368 164.253 179.784 175.936 185.844 182.132C191.93 188.323 207.031 169.824 207.031 169.824Z" fill="#DDDDDD"/>
<path d="M172.499 151.782C173.622 157.975 180.719 160.881 185.613 163.721C185.988 163.941 185.947 164.309 185.718 164.561C183.712 169.615 182.339 177.336 185.51 182.126C185.605 182.261 185.414 182.422 185.305 182.29C181.211 177.606 181.941 169.925 184.492 164.531C179.416 161.684 172.439 158.463 172.432 151.795C172.438 151.753 172.492 151.742 172.499 151.782Z" fill="black"/>
<path d="M209.693 166.835C209.693 166.835 238.139 183.497 241.331 182.418C246.63 180.606 279.478 152.99 288.212 147.155C296.946 141.32 300.586 148.212 295.976 157.574C283.827 182.195 263.728 220.848 243.917 226.253C233.252 229.156 194.147 217.836 194.147 217.836L209.693 166.835Z" fill="#7A7A7A"/>
<path d="M292.584 144.84C293.295 145.953 301.82 151.776 307.256 149.592C309.018 148.868 305.539 139.034 305.539 139.034L305.444 138.248L304.159 127.262L289.504 123.769L287.416 123.362C287.416 123.362 287.97 126.348 288.689 130.052C288.722 130.226 288.755 130.4 288.788 130.574C288.829 130.788 288.854 130.991 288.903 131.176C289.007 131.725 289.117 132.3 289.224 132.862C289.305 133.29 289.397 133.703 289.497 134.155C289.597 134.607 289.695 135.046 289.792 135.485C290.843 139.916 292.3 144.367 292.584 144.84Z" fill="#DDDDDD"/>
<path d="M288.689 130.052C294.446 137.137 302.09 138.179 305.444 138.248L304.159 127.262L289.504 123.769L287.416 123.362C287.416 123.362 287.97 126.348 288.689 130.052Z" fill="black"/>
<path d="M312.381 103.069C323.933 118.674 315.893 127.358 312.525 129.843C309.474 132.101 298.774 139.406 285.677 125.079C272.58 110.752 276.179 100.445 282.891 94.9113C289.613 89.3618 300.83 87.4637 312.381 103.069Z" fill="#DDDDDD"/>
<path d="M286.405 125.481C288.138 124.167 289.52 116.056 283.836 107.238C283.836 107.238 288.39 115.509 288.571 117.041C288.754 118.587 289.327 112.488 284.842 105.313C284.842 105.313 290.621 105.517 294.55 104.229C298.491 102.938 300.5 101.544 300.578 101.155C300.654 100.752 294.745 102.486 292.405 101.85C292.405 101.85 303.987 100.049 308.257 97.6419C308.759 97.3662 303.059 89.05 294.013 89.1627C284.977 89.2594 277.759 98.619 276.804 103.002C276.804 103.002 274.429 105.02 274.474 111.958C274.508 119.425 284.525 126.893 286.405 125.481Z" fill="black"/>
<path d="M289.908 130.846C290.243 130.783 290.53 130.686 290.8 130.579C291.109 130.451 291.372 130.304 291.587 130.125C291.94 129.863 292.186 129.553 292.347 129.231C292.515 128.95 292.609 128.641 292.681 128.364C292.834 127.641 292.736 127.05 292.736 127.05L289.104 123.193C289.104 123.193 282.32 120.255 280.771 122.976C279.221 125.683 286.526 131.504 289.908 130.846Z" fill="#DDDDDD"/>
<path d="M282.906 124.58C282.855 124.604 282.895 124.665 282.935 124.658C285.34 124.256 287.461 125.419 289.312 126.842C288.3 126.479 287.277 126.563 286.744 127.843C286.714 127.904 286.807 127.956 286.855 127.919C287.534 127.263 288.202 127.053 289.118 127.35C289.77 127.572 290.373 127.971 290.968 128.329C291.17 128.443 291.421 128.16 291.225 128.003C291.209 127.992 291.193 127.981 291.177 127.97C289.718 125.475 285.695 123.204 282.906 124.58Z" fill="black"/>
<path d="M289.705 129.997C290.038 130.364 290.609 130.38 290.976 130.047C291.342 129.714 291.358 129.142 291.025 128.776C290.692 128.409 290.12 128.393 289.754 128.726C289.39 129.073 289.374 129.644 289.705 129.997Z" fill="white"/>
<path d="M287.423 129.808C287.666 130.067 288.07 130.073 288.318 129.846C288.576 129.602 288.583 129.199 288.355 128.951C288.112 128.692 287.709 128.686 287.461 128.913C287.202 129.157 287.182 129.562 287.423 129.808Z" fill="white"/>
<path d="M281.331 152.236C281.331 152.236 303.018 162.668 311.711 157.784C320.404 152.899 311.475 139.124 311.475 139.124C311.475 139.124 306.4 139.05 298.74 140.84C289.249 143.062 281.331 152.236 281.331 152.236Z" fill="#DDDDDD"/>
<path d="M194.537 285.396L287.276 348.989L299.745 239.036L345.425 234.339L378.843 334.203L330.805 448.357" stroke="#FFCA41" stroke-width="0.5" stroke-miterlimit="10"/>
<path d="M325.896 236.349L304.765 149.69" stroke="#FFCA41" stroke-width="0.5" stroke-miterlimit="10"/>
<path d="M304.764 149.691L294.013 107.534" stroke="#FFCA41" stroke-width="0.5" stroke-miterlimit="10"/>
<path d="M183.074 176.531L179.048 174.935L177.451 178.961L181.477 180.558L183.074 176.531Z" fill="#FFCA41"/>
<path d="M195.999 283.825L192.28 281.604L190.059 285.322L193.777 287.544L195.999 283.825Z" fill="#FFCA41"/>
<path d="M290.222 348.264L286.503 346.042L284.282 349.761L288 351.982L290.222 348.264Z" fill="#FFCA41"/>
<path d="M333.233 448.451L329.327 446.578L327.454 450.483L331.36 452.356L333.233 448.451Z" fill="#FFCA41"/>
<path d="M381.746 333.33L377.84 331.458L375.967 335.363L379.873 337.236L381.746 333.33Z" fill="#FFCA41"/>
<path d="M347.207 232.125L342.886 232.421L343.182 236.742L347.503 236.446L347.207 232.125Z" fill="#FFCA41"/>
<path d="M301.732 236.715L297.411 237.011L297.707 241.332L302.028 241.036L301.732 236.715Z" fill="#FFCA41"/>
<path d="M327.949 234.014L323.628 234.31L323.924 238.631L328.245 238.336L327.949 234.014Z" fill="#FFCA41"/>
<path d="M306.144 146.97L301.969 148.125L303.124 152.299L307.299 151.144L306.144 146.97Z" fill="#FFCA41"/>
<path d="M295.624 105.557L291.449 106.711L292.604 110.886L296.779 109.731L295.624 105.557Z" fill="#FFCA41"/>
<path d="M319.989 143.124L315.815 144.279L316.97 148.454L321.144 147.299L319.989 143.124Z" fill="#FFCA41"/>
<path d="M374.968 140.593L370.637 140.662L370.707 144.993L375.038 144.924L374.968 140.593Z" fill="#FFCA41"/>
<path d="M383.975 71.5023L379.68 70.9434L379.121 75.2388L383.416 75.7977L383.975 71.5023Z" fill="#FFCA41"/>
<path d="M288.968 151.72L284.794 152.875L285.949 157.049L290.123 155.894L288.968 151.72Z" fill="#FFCA41"/>
<path d="M243.59 202.476L240.814 205.802L244.14 208.577L246.915 205.251L243.59 202.476Z" fill="#FFCA41"/>
<path d="M75.0954 74.0185L67 75.5586L68.5401 83.6541L76.6356 82.1139L75.0954 74.0185Z" fill="white" stroke="#FFCA41" stroke-width="0.5" stroke-miterlimit="10"/>
<path d="M401.082 12.0004L392.986 13.5405L394.526 21.636L402.622 20.0958L401.082 12.0004Z" fill="white" stroke="#FFCA41" stroke-width="0.5" stroke-miterlimit="10"/>
<path d="M238.089 43.0092L229.993 44.5493L231.533 52.6448L239.629 51.1046L238.089 43.0092Z" fill="white" stroke="#FFCA41" stroke-width="0.5" stroke-miterlimit="10"/>
<path d="M120.281 311.53L112.186 313.07L113.726 321.165L121.822 319.625L120.281 311.53Z" fill="white" stroke="#FFCA41" stroke-width="0.5" stroke-miterlimit="10"/>
<path d="M446.268 249.512L438.172 251.052L439.713 259.147L447.808 257.607L446.268 249.512Z" fill="white" stroke="#FFCA41" stroke-width="0.5" stroke-miterlimit="10"/>
<path d="M328.461 518.032L320.365 519.572L321.905 527.668L330.001 526.128L328.461 518.032Z" fill="white" stroke="#FFCA41" stroke-width="0.5" stroke-miterlimit="10"/>
<path d="M381.785 73.3093L372.849 142.949L318.594 145.645L287.658 154.303L244.033 205.585L180.451 177.472" stroke="#FFCA41"/>
<path d="M160.873 417.173H43V528.254H160.873V417.173Z" fill="#EBEBEB"/>
<path d="M160.873 405H43V417.173H160.873V405Z" fill="#DBDBDB"/>
<path d="M50.2626 413.327L46.1504 409.225L46.5391 408.836L50.6411 412.938L50.2626 413.327Z" fill="white"/>
<path d="M46.5391 413.327L46.1504 412.938L50.2626 408.836L50.6411 409.225L46.5391 413.327Z" fill="white"/>
<path d="M152.637 410.693L152.254 411.077L154.691 413.515L155.075 413.131L152.637 410.693Z" fill="white"/>
<path d="M154.688 408.651L152.25 411.088L152.634 411.472L155.071 409.034L154.688 408.651Z" fill="white"/>
<path d="M155.326 410.703L154.942 411.086L157.38 413.524L157.763 413.141L155.326 410.703Z" fill="white"/>
<path d="M157.378 408.643L154.941 411.082L155.325 411.465L157.761 409.026L157.378 408.643Z" fill="white"/>
<path d="M45.6699 428.251H158.214" stroke="#DBDBDB" stroke-width="0.5" stroke-miterlimit="10"/>
<path d="M45.6699 439.36H158.214" stroke="#DBDBDB" stroke-width="0.5" stroke-miterlimit="10"/>
<path d="M45.6699 450.48H158.214" stroke="#DBDBDB" stroke-width="0.5" stroke-miterlimit="10"/>
<path d="M45.6699 461.589H158.214" stroke="#DBDBDB" stroke-width="0.5" stroke-miterlimit="10"/>
<path d="M45.6699 472.698H158.214" stroke="#DBDBDB" stroke-width="0.5" stroke-miterlimit="10"/>
<path d="M45.6699 483.817H158.214" stroke="#DBDBDB" stroke-width="0.5" stroke-miterlimit="10"/>
<path d="M45.6699 494.926H158.214" stroke="#DBDBDB" stroke-width="0.5" stroke-miterlimit="10"/>
<path d="M45.6699 506.036H158.214" stroke="#DBDBDB" stroke-width="0.5" stroke-miterlimit="10"/>
<path d="M45.6699 517.145H158.214" stroke="#DBDBDB" stroke-width="0.5" stroke-miterlimit="10"/>
<path d="M53.833 421.091H60.4105L57.1166 424.374L53.833 421.091Z" fill="#DBDBDB"/>
<path d="M118.923 421.377H65.8525V424.098H118.923V421.377Z" fill="#DBDBDB"/>
<path d="M53.833 487.725H60.4105L57.1166 491.009L53.833 487.725Z" fill="#DBDBDB"/>
<path d="M118.923 488.012H65.8525V490.733H118.923V488.012Z" fill="#DBDBDB"/>
<path d="M67.4888 437.1V430.522L70.7826 433.806L67.4888 437.1Z" fill="#DBDBDB"/>
<path d="M128.477 432.446H75.4067V435.167H128.477V432.446Z" fill="#DBDBDB"/>
<path d="M67.4888 448.209V441.631L70.7826 444.915L67.4888 448.209Z" fill="#DBDBDB"/>
<path d="M105.645 443.555H75.4067V446.276H105.645V443.555Z" fill="#DBDBDB"/>
<path d="M67.4888 459.318V452.741L70.7826 456.035L67.4888 459.318Z" fill="#DBDBDB"/>
<path d="M116.989 454.674H75.4067V457.395H116.989V454.674Z" fill="#DBDBDB"/>
<path d="M67.4888 470.437V463.86L70.7826 467.143L67.4888 470.437Z" fill="#DBDBDB"/>
<path d="M128.477 465.783H75.4067V468.504H128.477V465.783Z" fill="#DBDBDB"/>
<path d="M67.4888 481.546V474.969L70.7826 478.252L67.4888 481.546Z" fill="#DBDBDB"/>
<path d="M111.097 476.892H75.4067V479.613H111.097V476.892Z" fill="#DBDBDB"/>
<path d="M67.4888 503.765V497.197L70.7826 500.481L67.4888 503.765Z" fill="#DBDBDB"/>
<path d="M92.3875 499.121H75.4067V501.842H92.3875V499.121Z" fill="#DBDBDB"/>
<path d="M67.4888 514.884V508.307L70.7826 511.59L67.4888 514.884Z" fill="#DBDBDB"/>
<path d="M111.097 510.23H75.4067V512.951H111.097V510.23Z" fill="#DBDBDB"/>
<path d="M67.4888 525.993V519.416L70.7826 522.709L67.4888 525.993Z" fill="#DBDBDB"/>
<path d="M128.477 521.349H75.4067V524.07H128.477V521.349Z" fill="#DBDBDB"/>
<path d="M242 398.755H84V420.443H242V398.755Z" fill="#6C6C6C"/>
<path d="M242 389H84V398.747H242V389Z" fill="#FFCA41"/>
<path d="M89.8073 395.667L86.5229 392.383L86.826 392.071L90.1185 395.364L89.8073 395.667Z" fill="black"/>
<path d="M86.826 395.667L86.5229 395.364L89.8073 392.071L90.1185 392.383L86.826 395.667Z" fill="black"/>
<path d="M235.393 393.546L235.086 393.853L237.038 395.805L237.345 395.498L235.393 393.546Z" fill="black"/>
<path d="M237.05 391.932L235.099 393.883L235.406 394.19L237.357 392.239L237.05 391.932Z" fill="black"/>
<path d="M237.55 393.556L237.243 393.863L239.195 395.815L239.502 395.508L237.55 393.556Z" fill="black"/>
<path d="M239.202 391.928L237.251 393.88L237.559 394.187L239.509 392.235L239.202 391.928Z" fill="black"/>
<path d="M104.893 402.269H89.7085V417.453H104.893V402.269Z" fill="black"/>
<path d="M97.7025 411.262L99.1522 414.759L97.7025 415.357L96.2446 411.835L93.853 413.694V403.833L100.757 410.803L97.7025 411.262Z" fill="#EBEBEB"/>
<path d="M168.917 408.648C168.917 408.648 171.317 406.339 175.494 405.176L177.615 407.297C176.452 411.474 174.143 413.874 174.143 413.874C170.744 412.916 167.951 415.586 167.951 415.586L167.73 415.365L172.054 411.04C172.423 411.269 172.898 411.22 173.217 410.901C173.586 410.532 173.586 409.934 173.217 409.566C172.849 409.197 172.251 409.197 171.882 409.566C171.563 409.885 171.522 410.36 171.743 410.729L167.418 415.053L167.197 414.832C167.205 414.84 169.875 412.047 168.917 408.648Z" fill="#EBEBEB"/>
<path d="M174.724 404.928L177.863 408.067L179.183 406.747L176.044 403.608L174.724 404.928Z" fill="#EBEBEB"/>
<path d="M196.814 403.833V406.56H196.749H196.56H195.905C195.7 406.56 195.569 406.445 195.52 406.257C195.504 406.159 195.471 405.954 195.438 405.602H193.096V413.784C193.284 413.817 193.448 413.849 193.554 413.866C193.669 413.882 193.743 413.915 193.792 413.915C193.841 413.915 193.874 413.931 193.89 413.931C194.16 413.997 194.308 414.152 194.308 414.423V415.365H193.096H190.942H189.746V414.423C189.746 414.152 189.877 413.989 190.147 413.931C190.163 413.931 190.196 413.915 190.245 413.915C190.295 413.915 190.376 413.882 190.483 413.866C190.598 413.849 190.753 413.817 190.942 413.784V405.585H188.599C188.566 405.937 188.534 406.159 188.517 406.257C188.468 406.445 188.353 406.56 188.149 406.56H187.477H187.289H187.223V403.833H187.461H187.477H196.552H196.814Z" fill="#EBEBEB"/>
<path d="M207.822 411.343C206.077 411.048 205.832 412.891 205.807 413.612C205.783 414.333 204.923 415.045 204.398 415.16C204.398 415.16 207.109 415.905 208.461 414.521C209.73 413.227 208.985 411.54 207.822 411.343Z" fill="#EBEBEB"/>
<path d="M214.219 404.783L209.419 411.916C209.141 411.368 208.649 410.974 208.059 410.876C207.953 410.86 207.846 410.852 207.756 410.852L213.039 403.833L214.219 404.783Z" fill="#EBEBEB"/>
<path d="M159.065 404.39H148.098V415.357H159.065V404.39Z" stroke="#EBEBEB" stroke-miterlimit="10"/>
<path d="M229.461 405.995C229.461 407.035 228.617 407.87 227.585 407.87C226.553 407.87 225.709 407.027 225.709 405.995C225.709 404.963 226.553 404.119 227.585 404.119C228.617 404.119 229.461 404.955 229.461 405.995Z" fill="#EBEBEB"/>
<path d="M228.297 405.675H226.864V411.916H228.297V405.675Z" fill="#EBEBEB"/>
<path d="M232.516 410.942L234.276 413.342H220.885L222.638 410.942H232.516Z" fill="#EBEBEB"/>
<path d="M234.276 413.898H220.885V414.98H234.276V413.898Z" fill="#EBEBEB"/>
<path d="M120.684 411.958C120.635 413.137 120.234 414.161 119.276 414.914C118.727 415.34 118.072 415.529 117.384 415.602C116.548 415.684 115.754 415.586 115.033 415.119C114.583 414.832 114.206 414.464 113.903 414.03C113.305 413.17 112.723 412.302 112.142 411.442C111.994 411.221 111.847 410.999 111.708 410.77C111.511 410.459 111.552 410.049 111.806 409.787C112.068 409.525 112.494 409.451 112.789 409.656C112.961 409.779 113.092 409.967 113.215 410.139C113.485 410.5 113.739 410.868 113.993 411.237C114.001 411.245 114.009 411.245 114.034 411.253V405.659C114.034 405.356 114.214 405.111 114.484 405.029C114.763 404.939 115.049 405.037 115.213 405.266C115.312 405.397 115.344 405.545 115.344 405.708C115.336 406.773 115.344 407.838 115.344 408.903C115.344 408.944 115.336 408.993 115.344 409.034C115.361 409.14 115.459 409.222 115.565 409.222C115.68 409.214 115.77 409.14 115.787 409.026V404.799C115.787 404.341 116.131 404.038 116.556 404.103C116.851 404.152 117.072 404.398 117.097 404.693V408.919C117.097 408.96 117.097 409.001 117.113 409.042C117.146 409.165 117.244 409.23 117.359 409.222C117.482 409.206 117.548 409.124 117.572 409.009C117.58 408.976 117.572 408.935 117.572 408.894V405.25C117.572 404.979 117.662 404.758 117.9 404.627C118.334 404.39 118.85 404.693 118.858 405.184C118.866 405.758 118.858 406.331 118.858 406.904C118.858 407.756 118.858 408.6 118.866 409.451C118.866 409.533 118.899 409.648 118.956 409.697C119.022 409.746 119.136 409.746 119.218 409.738C119.317 409.722 119.366 409.623 119.374 409.525V406.56C119.374 406.192 119.62 405.913 119.964 405.88C120.349 405.839 120.676 406.134 120.684 406.527C120.693 406.757 120.684 406.994 120.684 407.232V410.172C120.684 410.762 120.709 411.36 120.684 411.958Z" fill="#EBEBEB"/>
<path d="M133.077 412.4C130.709 412.4 128.793 410.475 128.793 408.116C128.793 405.749 130.718 403.833 133.077 403.833C135.444 403.833 137.36 405.757 137.36 408.116C137.36 410.475 135.444 412.4 133.077 412.4ZM133.077 405.413C131.586 405.413 130.374 406.625 130.374 408.116C130.374 409.607 131.586 410.819 133.077 410.819C134.567 410.819 135.779 409.607 135.779 408.116C135.779 406.625 134.567 405.413 133.077 405.413Z" fill="#EBEBEB"/>
<path d="M135.702 410.131L134.584 411.249L138.69 415.355L139.808 414.237L135.702 410.131Z" fill="#EBEBEB"/>
<path d="M439.923 430.922H438.587V430.032H439.032V429.587H439.923V430.922Z" fill="#EBEBEB"/>
<path d="M436.807 430.922H435.026V430.032H436.807V430.922ZM433.246 430.922H431.466V430.032H433.246V430.922ZM429.695 430.922H427.914V430.032H429.695V430.922ZM426.134 430.922H424.354V430.032H426.134V430.922ZM422.574 430.922H420.793V430.032H422.574V430.922ZM419.013 430.922H417.233V430.032H419.013V430.922ZM415.462 430.922H413.681V430.032H415.462V430.922ZM411.901 430.922H410.121V430.032H411.901V430.922ZM408.341 430.922H406.56V430.032H408.341V430.922ZM404.789 430.922H403.009V430.032H404.789V430.922ZM401.228 430.922H399.448V430.032H401.228V430.922ZM397.668 430.922H395.888V430.032H397.668V430.922ZM394.116 430.922H392.336V430.032H394.116V430.922ZM390.556 430.922H388.776V430.032H390.556V430.922ZM386.995 430.922H385.215V430.032H386.995V430.922ZM383.444 430.922H381.664V430.032H383.444V430.922ZM379.883 430.922H378.103V430.032H379.883V430.922Z" fill="#EBEBEB"/>
<path d="M376.323 430.922H374.988V429.587H375.878V430.032H376.323V430.922Z" fill="#EBEBEB"/>
<path d="M375.878 427.807H374.988V426.026H375.878V427.807ZM375.878 424.246H374.988V422.466H375.878V424.246ZM375.878 420.695H374.988V418.914H375.878V420.695ZM375.878 417.134H374.988V415.354H375.878V417.134ZM375.878 413.574H374.988V411.793H375.878V413.574ZM375.878 410.022H374.988V408.242H375.878V410.022ZM375.878 406.462H374.988V404.681H375.878V406.462ZM375.878 402.901H374.988V401.121H375.878V402.901ZM375.878 399.349H374.988V397.569H375.878V399.349ZM375.878 395.789H374.988V394.009H375.878V395.789ZM375.878 392.228H374.988V390.448H375.878V392.228ZM375.878 388.677H374.988V386.897H375.878V388.677ZM375.878 385.116H374.988V383.336H375.878V385.116ZM375.878 381.556H374.988V379.776H375.878V381.556ZM375.878 377.995H374.988V376.215H375.878V377.995ZM375.878 374.444H374.988V372.664H375.878V374.444ZM375.878 370.883H374.988V369.103H375.878V370.883Z" fill="#EBEBEB"/>
<path d="M375.878 367.323H374.988V365.988H376.323V366.878H375.878V367.323Z" fill="#EBEBEB"/>
<path d="M436.807 366.878H435.026V365.988H436.807V366.878ZM433.246 366.878H431.466V365.988H433.246V366.878ZM429.695 366.878H427.914V365.988H429.695V366.878ZM426.134 366.878H424.354V365.988H426.134V366.878ZM422.574 366.878H420.793V365.988H422.574V366.878ZM419.013 366.878H417.233V365.988H419.013V366.878ZM415.462 366.878H413.681V365.988H415.462V366.878ZM411.901 366.878H410.121V365.988H411.901V366.878ZM408.341 366.878H406.56V365.988H408.341V366.878ZM404.789 366.878H403.009V365.988H404.789V366.878ZM401.228 366.878H399.448V365.988H401.228V366.878ZM397.668 366.878H395.888V365.988H397.668V366.878ZM394.116 366.878H392.336V365.988H394.116V366.878ZM390.556 366.878H388.776V365.988H390.556V366.878ZM386.995 366.878H385.215V365.988H386.995V366.878ZM383.444 366.878H381.664V365.988H383.444V366.878ZM379.883 366.878H378.103V365.988H379.883V366.878Z" fill="#EBEBEB"/>
<path d="M439.923 367.323H439.032V366.878H438.587V365.988H439.923V367.323Z" fill="#EBEBEB"/>
<path d="M439.922 427.807H439.032V426.026H439.922V427.807ZM439.922 424.246H439.032V422.466H439.922V424.246ZM439.922 420.695H439.032V418.914H439.922V420.695ZM439.922 417.134H439.032V415.354H439.922V417.134ZM439.922 413.574H439.032V411.793H439.922V413.574ZM439.922 410.022H439.032V408.242H439.922V410.022ZM439.922 406.462H439.032V404.681H439.922V406.462ZM439.922 402.901H439.032V401.121H439.922V402.901ZM439.922 399.349H439.032V397.569H439.922V399.349ZM439.922 395.789H439.032V394.009H439.922V395.789ZM439.922 392.228H439.032V390.448H439.922V392.228ZM439.922 388.677H439.032V386.897H439.922V388.677ZM439.922 385.116H439.032V383.336H439.922V385.116ZM439.922 381.556H439.032V379.776H439.922V381.556ZM439.922 378.004H439.032V376.224H439.922V378.004ZM439.922 374.444H439.032V372.664H439.922V374.444ZM439.922 370.883H439.032V369.103H439.922V370.883Z" fill="#EBEBEB"/>
<path d="M379.429 426.489H371.445V434.474H379.429V426.489Z" fill="black"/>
<path d="M379.875 434.91H371V426.044H379.875V434.91ZM371.89 434.02H378.984V426.935H371.89V434.02Z" fill="#EBEBEB"/>
<path d="M379.465 394.463H371.48V402.447H379.465V394.463Z" fill="black"/>
<path d="M379.875 402.892H371V394.018H379.875V402.892ZM371.89 402.002H378.984V394.908H371.89V402.002Z" fill="#EBEBEB"/>
<path d="M379.465 362.445H371.48V370.429H379.465V362.445Z" fill="black"/>
<path d="M379.875 370.875H371V362H379.875V370.875ZM371.89 369.984H378.984V362.89H371.89V369.984Z" fill="#EBEBEB"/>
<path d="M443.5 426.489H435.516V434.474H443.5V426.489Z" fill="black"/>
<path d="M443.91 434.91H435.035V426.044H443.91V434.91ZM435.925 434.02H443.02V426.935H435.925V434.02Z" fill="#EBEBEB"/>
<path d="M443.5 394.463H435.516V402.447H443.5V394.463Z" fill="black"/>
<path d="M443.91 402.892H435.035V394.018H443.91V402.892ZM435.925 402.002H443.02V394.908H435.925V402.002Z" fill="#EBEBEB"/>
<path d="M443.5 362.445H435.516V370.429H443.5V362.445Z" fill="black"/>
<path d="M443.91 370.875H435.035V362H443.91V370.875ZM435.925 369.984H443.02V362.89H435.925V369.984Z" fill="#EBEBEB"/>
<path d="M411.482 362.445H403.498V370.429H411.482V362.445Z" fill="black"/>
<path d="M411.892 370.875H403.026V362H411.892V370.875ZM403.908 369.984H410.993V362.89H403.908V369.984Z" fill="#EBEBEB"/>
<path d="M411.447 426.489H403.463V434.474H411.447V426.489Z" fill="black"/>
<path d="M411.892 434.91H403.026V426.044H411.892V434.91ZM403.908 434.02H410.993V426.935H403.908V434.02Z" fill="#EBEBEB"/>
</g>
<defs>
<clipPath id="clip0_309_3788">
<rect width="460" height="541" fill="white"/>
</clipPath>
</defs>
</svg>
