<svg width="130" height="100" viewBox="0 0 130 100" fill="none" xmlns="http://www.w3.org/2000/svg">
<path d="M74 7.63902V88.8675C74 92.5343 71.0282 95.5062 67.3626 95.5062H6.63705C6.59691 95.5062 6.55677 95.5058 6.51703 95.505C3.79586 95.457 1.47372 93.7703 0.49583 91.3892C0.176294 90.612 0 89.7604 0 88.8675V7.63902C0 3.97223 2.97184 1 6.63705 1H67.3626C71.0282 1 74 3.97223 74 7.63902Z" fill="black"/>
<path d="M72.2594 9.52653V86.9473C72.2594 90.4421 69.4274 93.2747 65.9342 93.2747H8.06598C8.02773 93.2747 7.98947 93.2743 7.9516 93.2735C5.35847 93.2278 3.14559 91.6202 2.21371 89.3507C1.90921 88.6099 1.74121 87.7983 1.74121 86.9473V9.52653C1.74121 6.03163 4.57322 3.19873 8.06598 3.19873H65.9342C69.4274 3.19873 72.2594 6.03163 72.2594 9.52653Z" fill="white"/>
<path d="M7 6V84.478L11.5676 89H67V6H7Z" fill="#EAEAEA"/>
<path d="M11.9247 88.9204L7.4209 84.417H11.9247V88.9204Z" fill="#DBDBDB"/>
<rect x="7" y="6" width="60" height="13" fill="#FFCA41"/>
<rect x="10" y="24" width="47" height="5" rx="2.5" fill="black"/>
<rect x="10" y="32" width="44" height="2" rx="1" fill="#939393"/>
<rect x="10" y="52" width="44" height="2" rx="1" fill="#939393"/>
<rect x="10" y="36" width="50" height="2" rx="1" fill="#939393"/>
<rect x="10" y="56" width="50" height="2" rx="1" fill="#939393"/>
<rect x="10" y="40" width="46" height="2" rx="1" fill="#939393"/>
<rect x="10" y="60" width="46" height="2" rx="1" fill="#939393"/>
<rect x="10" y="44" width="43" height="2" rx="1" fill="#939393"/>
<rect x="10" y="64" width="43" height="2" rx="1" fill="#939393"/>
<rect x="10" y="48" width="48" height="2" rx="1" fill="#939393"/>
<rect x="10" y="68" width="48" height="2" rx="1" fill="#939393"/>
</svg>
