<svg width="130" height="100" viewBox="0 0 130 100" fill="none" xmlns="http://www.w3.org/2000/svg">
<circle cx="44.5" cy="49.5" r="44.5" fill="#FFCA41"/>
<circle r="19.5" transform="matrix(1 0 0 -1 44.5 49.5)" fill="white"/>
<path d="M78.2609 54.4443L70.0241 62.5369L81.1508 65.6238L78.2609 54.4443ZM74.9355 62.7231C73.3048 66.5351 70.9554 70.0279 67.9879 72.9988L69.403 74.4122C72.5515 71.26 75.0442 67.5541 76.7743 63.5097L74.9355 62.7231ZM67.9879 72.9988C62.9407 78.0518 56.3815 81.3186 49.3075 82.3025L49.5831 84.2835C57.0885 83.2395 64.0478 79.7735 69.403 74.4122L67.9879 72.9988Z" fill="black"/>
<path d="M10.7137 46.21L18.9505 38.1174L7.82376 35.0304L10.7137 46.21ZM14.0391 37.9312C15.6698 34.1192 18.0192 30.6264 20.9867 27.6555L19.5716 26.2421C16.4231 29.3943 13.9304 33.1002 12.2003 37.1446L14.0391 37.9312ZM20.9867 27.6555C26.0339 22.6025 32.5931 19.3357 39.6671 18.3518L39.3915 16.3708C31.8861 17.4148 24.9268 20.8808 19.5716 26.2421L20.9867 27.6555Z" fill="black"/>
<path d="M49.4453 17.3612L57.5378 25.5979L60.6248 14.4712L49.4453 17.3612ZM57.724 20.6865C61.536 22.3172 65.0288 24.6667 67.9997 27.6341L69.4131 26.2191C66.261 23.0706 62.5551 20.5779 58.5107 18.8477L57.724 20.6865ZM67.9997 27.6341C73.0528 32.6814 76.3196 39.2406 77.3035 46.3145L79.2844 46.039C78.2405 38.5336 74.7744 31.5743 69.4131 26.2191L67.9997 27.6341Z" fill="black"/>
<path d="M39.5547 83.2599L31.4622 75.0232L28.3752 86.1499L39.5547 83.2599ZM31.276 79.9346C27.464 78.3039 23.9712 75.9544 21.0003 72.987L19.5869 74.402C22.739 77.5505 26.4449 80.0432 30.4893 81.7734L31.276 79.9346ZM21.0003 72.987C15.9472 67.9397 12.6804 61.3805 11.6965 54.3066L9.71555 54.5821C10.7595 62.0875 14.2256 69.0468 19.5869 74.402L21.0003 72.987Z" fill="black"/>
</svg>
