<svg width="130" height="100" viewBox="0 0 130 100" fill="none" xmlns="http://www.w3.org/2000/svg">
<rect x="5" y="31.4111" width="72.311" height="41.3206" rx="5" transform="rotate(-12.3052 5 31.4111)" fill="#FFCA41" stroke="black" stroke-width="3"/>
<rect x="34.4561" y="29" width="72.311" height="41.3206" rx="5" fill="white" stroke="black" stroke-width="3"/>
<rect x="66.1846" y="43.7573" width="3.14824" height="2.95147" rx="1" fill="black"/>
<rect x="66.1846" y="48.1846" width="3.14824" height="2.95147" rx="1" fill="black"/>
<rect x="66.1846" y="52.6118" width="3.14824" height="2.95147" rx="1" fill="black"/>
<rect x="71.6943" y="43.7573" width="29.9082" height="2.95147" rx="1" fill="black"/>
<rect x="71.6934" y="48.1846" width="29.9082" height="2.95147" rx="1" fill="black"/>
<rect x="71.6934" y="52.6118" width="29.9082" height="2.95147" rx="1" fill="black"/>
<rect x="39.6211" y="38.5923" width="21.3982" height="21.3982" rx="10.6991" fill="#FFCA41"/>
<rect x="20.4561" y="57" width="29" height="29" rx="14.5" fill="white" stroke="black" stroke-width="2"/>
<rect x="26.4561" y="63" width="17" height="17" rx="8.5" fill="#FFCA41"/>
</svg>
