<svg width="130" height="100" viewBox="0 0 130 100" fill="none" xmlns="http://www.w3.org/2000/svg">
<path d="M78.3938 3.61279C80.0959 4.23175 81.4112 5.23755 81.8947 7.09442C82.0108 7.57798 82.0108 8.04219 82.0108 8.52575C82.0108 36.108 81.9914 63.6902 82.0495 91.2724C82.0495 94.2124 79.709 96.2627 77.0785 96.2434C62.8812 96.166 48.6839 96.166 34.4866 96.2434C31.9721 96.2627 29.5156 94.2898 29.5156 91.253C29.5737 63.7095 29.535 36.1466 29.5543 8.60312C29.5543 6.1273 30.4827 4.73465 32.7458 3.80622C32.8619 3.76753 32.9779 3.74819 32.9972 3.61279C48.123 3.61279 63.268 3.61279 78.3938 3.61279Z" fill="#020203"/>
<path d="M78.9363 49.9184C78.9363 63.5741 78.9363 77.2298 78.9363 90.8855C78.9363 92.665 78.4527 93.1486 76.6926 93.1486C62.7274 93.1486 48.7815 93.1486 34.8164 93.1486C33.1142 93.1486 32.6307 92.6457 32.6113 90.9242C32.6113 63.5741 32.6113 36.2434 32.6113 8.89326C32.6113 7.17179 33.1142 6.68823 34.797 6.68823C48.7815 6.68823 62.7661 6.68823 76.7506 6.68823C78.3947 6.68823 78.8976 7.21048 78.8976 8.85458C78.9363 22.549 78.9363 36.224 78.9363 49.9184Z" fill="#EBEBEB"/>
<path d="M35.7051 43.6901C35.7051 34.0383 35.7051 24.4058 35.7051 14.7539C35.7051 11.7365 37.6587 9.78296 40.6761 9.78296C50.7534 9.78296 60.8115 9.78296 70.8888 9.78296C73.9062 9.78296 75.8598 11.7365 75.8598 14.7539C75.8598 34.1156 75.8598 53.458 75.8598 72.8197C75.8598 75.7791 73.9062 77.7714 70.9275 77.7714C60.8308 77.7907 50.7341 77.7907 40.6374 77.7714C37.678 77.7714 35.7051 75.7791 35.7051 72.8197C35.7051 63.0905 35.7051 53.4 35.7051 43.6901Z" fill="#020203"/>
<path d="M55.7638 80.8275C56.8856 80.8275 57.9881 80.8082 59.11 80.8275C61.5471 80.9049 63.52 82.9165 63.5587 85.3923C63.5974 87.7714 61.5665 89.9958 59.168 90.0538C56.9049 90.1118 54.6419 90.1118 52.3982 90.0538C49.9997 89.9764 47.9881 87.7521 48.0461 85.373C48.1042 82.8971 50.0771 80.9049 52.5142 80.8275C53.5781 80.7888 54.6612 80.8275 55.7638 80.8275Z" fill="#020203"/>
<path d="M72.7853 43.7481C72.7853 53.2839 72.7853 62.8003 72.7853 72.3361C72.7853 74.1736 72.3598 74.6185 70.4836 74.6185C60.677 74.6185 50.8898 74.6185 41.0832 74.6185C39.2263 74.6185 38.8008 74.193 38.8008 72.3361C38.8008 53.2839 38.8008 34.2317 38.8008 15.1794C38.8008 13.3419 39.2457 12.8777 41.0832 12.8777C50.8898 12.8777 60.677 12.8777 70.4836 12.8777C72.3211 12.8777 72.7853 13.3419 72.7853 15.1794C72.7853 24.6959 72.7853 34.2123 72.7853 43.7481Z" fill="white"/>
<path d="M72.8726 31.0835C72.8726 36.7521 72.8726 42.4092 72.8726 48.0778C72.8726 49.1701 72.4464 49.4346 70.567 49.4346C60.7436 49.4346 50.9397 49.4346 41.1164 49.4346C39.2563 49.4346 38.8301 49.1816 38.8301 48.0778C38.8301 36.7521 38.8301 25.4264 38.8301 14.1007C38.8301 13.0084 39.2757 12.7324 41.1164 12.7324C50.9397 12.7324 60.7436 12.7324 70.567 12.7324C72.4076 12.7324 72.8726 13.0084 72.8726 14.1007C72.8726 19.7578 72.8726 25.4149 72.8726 31.0835Z" fill="#FFCA41"/>
<path d="M55.8602 83.9029C56.8467 83.9029 57.8525 83.8835 58.8389 83.9029C59.748 83.9222 60.3476 84.5025 60.4057 85.3149C60.4443 86.1466 59.9221 86.8816 59.0323 86.9203C56.9047 86.9977 54.7577 86.9783 52.63 86.9203C51.7016 86.9009 51.1407 86.1273 51.218 85.2762C51.2954 84.4445 51.8757 83.9029 52.8041 83.9029C53.8099 83.9029 54.8351 83.9029 55.8602 83.9029Z" fill="#EBEBEB"/>
<path d="M54.216 68.4678C53.7711 68.4097 53.3649 68.255 53.0361 67.9068C52.0883 66.9397 51.1212 65.9919 50.1735 65.0248C49.4578 64.2705 49.4384 63.3614 50.0961 62.7037C50.7537 62.0654 51.5854 62.0848 52.3398 62.7811C52.7847 63.1873 53.2295 63.6128 53.6164 64.0577C53.9839 64.4832 54.1773 64.4832 54.5448 64.019C56.0342 62.0848 57.5622 60.1892 59.0903 58.2937C59.6899 57.5393 60.4443 57.3459 61.1599 57.7521C61.8949 58.1583 62.127 58.8159 61.9143 59.5896C61.8369 59.8604 61.6435 60.1312 61.4694 60.3633C59.5352 62.7811 57.6009 65.1989 55.6667 67.636C55.2992 68.1196 54.8543 68.4484 54.216 68.4678Z" fill="#020203"/>
<path d="M19.0537 8.81592L19.8606 13.715L24.7596 14.5219L19.8606 15.3289L19.0537 20.2279L18.2467 15.3289L13.3477 14.5219L18.2467 13.715L19.0537 8.81592Z" fill="#FFCA41"/>
<path d="M92.1657 55.2375L93.2735 61.9634L99.9993 63.0712L93.2735 64.1791L92.1657 70.9049L91.0578 64.1791L84.332 63.0712L91.0578 61.9634L92.1657 55.2375Z" fill="#FFCA41"/>
<path d="M11.6054 38.2163L13.2467 48.1805L23.2108 49.8217L13.2467 51.463L11.6054 61.4271L9.96416 51.463L0 49.8217L9.96416 48.1805L11.6054 38.2163Z" fill="#FFCA41"/>
</svg>
