<svg width="526" height="520" viewBox="0 0 526 520" fill="none" xmlns="http://www.w3.org/2000/svg">
<g clip-path="url(#clip0_420_467)">
<path d="M440.25 134.255C442.835 136.841 446.918 136.841 449.368 134.255L465.834 117.789C466.787 116.836 468.284 116.836 469.236 117.789C470.189 118.741 470.189 120.238 469.236 121.191L466.787 123.641C465.154 125.274 465.154 127.995 466.787 129.628L466.923 129.764C468.556 131.398 471.278 131.398 472.911 129.764L505.027 97.6478C506.66 96.0148 506.66 93.293 505.027 91.66C503.394 90.0269 500.673 90.0269 499.04 91.66L477.129 113.57C476.177 114.523 474.68 114.523 473.727 113.57L473.591 113.434C472.639 112.481 472.639 110.984 473.591 110.032L482.845 100.778C485.431 98.1922 485.431 94.1095 482.845 91.66C480.26 89.0743 476.177 89.0743 473.727 91.66L440.25 125.137C437.664 127.723 437.664 131.806 440.25 134.255Z" fill="#DBDBDB"/>
<path d="M402.049 119.83V398.537C402.049 404.933 396.826 410.285 390.301 410.285H171.472C165.077 410.285 159.725 405.062 159.725 398.537V119.83C159.725 113.434 164.948 108.082 171.472 108.082H390.296C396.835 108.215 402.049 113.445 402.049 119.83Z" fill="white" stroke="black"/>
<path d="M382.408 120.102C382.408 122.552 384.45 124.593 386.899 124.593C389.349 124.593 391.39 122.552 391.39 120.102C391.39 117.653 389.349 115.611 386.899 115.611C384.313 115.611 382.408 117.517 382.408 120.102Z" fill="#FFCA41"/>
<path d="M369.891 120.102C369.891 122.552 371.932 124.593 374.381 124.593C376.831 124.593 378.872 122.552 378.872 120.102C378.872 117.653 376.831 115.611 374.381 115.611C371.796 115.611 369.891 117.517 369.891 120.102Z" fill="#FFCA41"/>
<path d="M357.367 120.102C357.367 122.552 359.409 124.593 361.858 124.593C364.308 124.593 366.349 122.552 366.349 120.102C366.349 117.653 364.308 115.611 361.858 115.611C359.272 115.611 357.367 117.517 357.367 120.102Z" fill="black"/>
<path d="M389.621 131.397H364.717V136.704H389.621V131.397Z" fill="#DDDDDD"/>
<path d="M359.547 131.397H334.643V136.704H359.547V131.397Z" fill="#DDDDDD"/>
<path d="M329.472 131.397H304.568V136.704H329.472V131.397Z" fill="#DDDDDD"/>
<path d="M299.394 131.397H274.49V136.704H299.394V131.397Z" fill="#DDDDDD"/>
<path d="M195.757 136.295C197.3 129.787 193.274 123.26 186.765 121.718C180.257 120.175 173.73 124.201 172.188 130.709C170.645 137.218 174.671 143.745 181.179 145.287C187.688 146.83 194.215 142.804 195.757 136.295Z" fill="#DDDDDD"/>
<path d="M384.72 224.073H177.051C174.465 224.073 172.424 222.032 172.424 219.446V155.349C172.424 152.763 174.465 150.722 177.051 150.722H384.72C387.306 150.722 389.347 152.763 389.347 155.349V219.446C389.347 222.032 387.306 224.073 384.72 224.073Z" fill="#DDDDDD"/>
<path d="M386.082 189.37L375.604 179.027V182.974L382 189.37L375.604 195.766V199.713L386.082 189.37Z" fill="#8D8D8D"/>
<path d="M175.826 189.37L186.169 179.027V182.974L179.773 189.37L186.169 195.766V199.713L175.826 189.37Z" fill="#8D8D8D"/>
<path d="M389.484 230.061H229.309V233.871H389.484V230.061Z" fill="#DDDDDD"/>
<path d="M389.484 237.818H229.309V241.629H389.484V237.818Z" fill="#DDDDDD"/>
<path d="M337.906 245.438H229.309V249.249H337.906V245.438Z" fill="#DDDDDD"/>
<path d="M220.055 230.061H172.152V233.871H220.055V230.061Z" fill="#DDDDDD"/>
<path d="M220.055 237.954H172.152V241.765H220.055V237.954Z" fill="#DDDDDD"/>
<path d="M220.055 245.847H172.152V249.657H220.055V245.847Z" fill="#DDDDDD"/>
<path d="M202.228 253.604H172.152V257.414H202.228V253.604Z" fill="#DDDDDD"/>
<path d="M390.845 351.723H172.152V355.533H390.845V351.723Z" fill="#DDDDDD"/>
<path d="M390.845 359.48H172.152V363.29H390.845V359.48Z" fill="#DDDDDD"/>
<path d="M390.845 367.373H172.152V371.183H390.845V367.373Z" fill="#DDDDDD"/>
<path d="M309.601 375.266H172.152V379.076H309.601V375.266Z" fill="#DDDDDD"/>
<path d="M220.192 275.651V330.222C220.192 331.991 218.831 333.352 217.062 333.352H175.011C173.242 333.352 171.881 331.991 171.881 330.222V275.651C171.881 273.881 173.242 272.521 175.011 272.521H217.062C218.831 272.521 220.192 273.881 220.192 275.651Z" fill="#535353"/>
<path d="M276.669 275.651V330.222C276.669 331.991 275.308 333.352 273.538 333.352H231.487C229.718 333.352 228.357 331.991 228.357 330.222V275.651C228.357 273.881 229.718 272.521 231.487 272.521H273.538C275.308 272.521 276.669 273.881 276.669 275.651Z" fill="#535353"/>
<path d="M389.758 277.42V328.18C389.758 330.494 388.261 332.399 386.22 332.943C385.812 333.079 385.267 333.079 384.859 333.079H289.87C287.148 333.079 284.971 330.902 284.971 328.18V277.42C284.971 276.875 285.107 276.467 285.107 276.059C285.651 274.017 287.556 272.521 289.87 272.521H384.859C387.581 272.521 389.758 274.698 389.758 277.42Z" fill="#535353"/>
<path d="M216.926 278.917V333.216H175.148C173.378 333.216 172.018 331.855 172.018 330.086V275.787H213.796C215.43 275.923 216.926 277.284 216.926 278.917Z" fill="#535353"/>
<path d="M273.266 278.917V333.216H231.487C229.718 333.216 228.357 331.855 228.357 330.086V275.787H270.136C271.905 275.923 273.266 277.284 273.266 278.917Z" fill="#535353"/>
<path d="M386.491 280.822V331.583C386.491 332.127 386.491 332.535 386.355 332.944C385.946 333.08 385.402 333.08 384.994 333.08H290.005C287.283 333.08 285.105 330.902 285.105 328.18V277.42C285.105 276.875 285.242 276.467 285.242 276.059C285.65 275.923 286.194 275.923 286.602 275.923H381.455C384.177 275.923 386.491 278.1 386.491 280.822Z" fill="#535353"/>
<path d="M211.89 318.109H182.768V321.92H211.89V318.109Z" fill="#DDDDDD"/>
<path d="M202.364 324.641H182.768V328.452H202.364V324.641Z" fill="#DDDDDD"/>
<path d="M267.414 318.109H238.291V321.92H267.414V318.109Z" fill="#DDDDDD"/>
<path d="M257.888 324.641H238.291V328.452H257.888V324.641Z" fill="#DDDDDD"/>
<path d="M318.991 389.827H243.734V393.91H318.991V389.827Z" fill="#DDDDDC"/>
<path d="M298.984 397.449H263.602V401.531H298.984V397.449Z" fill="#DDDDDC"/>
<path d="M450.32 433.375H109.148" stroke="#DDDDDD" stroke-width="2" stroke-miterlimit="10" stroke-linecap="round"/>
<path d="M106.832 428.611V87.4399" stroke="#DDDDDD" stroke-width="2" stroke-miterlimit="10" stroke-linecap="round"/>
<path d="M111.596 84.9907H452.767" stroke="#DDDDDD" stroke-width="2" stroke-miterlimit="10" stroke-linecap="round"/>
<path d="M455.08 89.7539V430.925" stroke="#DDDDDD" stroke-width="2" stroke-miterlimit="10" stroke-linecap="round"/>
<path d="M116.631 75.0576H96.8984V94.7903H116.631V75.0576Z" fill="#D2D0D0"/>
<path d="M112.275 79.4126H101.252V90.4357H112.275V79.4126Z" fill="white"/>
<path d="M290.824 75.0576H271.092V94.7903H290.824V75.0576Z" fill="#D2D0D0"/>
<path d="M465.014 75.0576H445.281V94.7903H465.014V75.0576Z" fill="#D2D0D0"/>
<path d="M460.66 79.5479H449.637V90.5709H460.66V79.5479Z" fill="white"/>
<path d="M116.631 249.249H96.8984V268.982H116.631V249.249Z" fill="#D2D0D0"/>
<path d="M465.014 249.249H445.281V268.982H465.014V249.249Z" fill="#D2D0D0"/>
<path d="M116.631 423.441H96.8984V443.174H116.631V423.441Z" fill="#D2D0D0"/>
<path d="M112.142 427.932H101.391V438.683H112.142V427.932Z" fill="white"/>
<path d="M290.824 423.441H271.092V443.174H290.824V423.441Z" fill="#D2D0D0"/>
<path d="M465.014 423.441H445.281V443.174H465.014V423.441Z" fill="#D2D0D0"/>
<path d="M460.255 428.205H449.912V438.547H460.255V428.205Z" fill="white"/>
<path d="M337.77 484H247.68C245.367 484 243.598 482.231 243.598 479.917V423.577C243.598 421.263 245.367 419.494 247.68 419.494H337.77C340.084 419.494 341.853 421.263 341.853 423.577V479.917C341.853 482.094 339.948 484 337.77 484Z" fill="white"/>
<path d="M339.674 423.985V470.799C339.674 471.752 338.993 472.432 338.041 472.432H247.406C246.454 472.432 245.773 471.752 245.773 470.799V423.985C245.773 423.033 246.454 422.352 247.406 422.352H338.041C338.857 422.352 339.674 423.033 339.674 423.985Z" fill="#DDDDDC"/>
<path d="M339.675 462.498V470.935C339.675 471.888 338.994 472.568 338.042 472.568H298.304L292.725 451.747L294.902 449.569L309.327 435.144C310.144 434.328 311.505 434.328 312.321 435.144L339.675 462.498Z" fill="white"/>
<path d="M325.658 472.433H298.304L292.725 451.747L294.902 449.57L325.658 472.433Z" fill="black"/>
<path d="M316.267 472.432H247.406C246.454 472.432 245.773 471.752 245.773 470.799V451.203L268.772 429.157C270.269 427.66 272.719 427.796 274.216 429.293L316.267 472.432Z" fill="white"/>
<path d="M339.54 476.107H319.943V478.557H339.54V476.107Z" fill="#DDDDDC"/>
<path d="M317.766 476.107H312.867V478.557H317.766V476.107Z" fill="#DDDDDC"/>
<path d="M311.37 476.107H299.258V478.557H311.37V476.107Z" fill="#DDDDDC"/>
<path d="M377.517 289.667V296.879C377.517 298.512 376.156 299.873 374.523 299.873H301.988C301.852 299.873 301.716 299.873 301.58 299.873C300.083 299.601 298.994 298.376 298.994 296.879V289.667C298.994 288.034 300.355 286.673 301.988 286.673H374.523C376.02 286.673 377.381 287.762 377.517 289.259C377.517 289.395 377.517 289.531 377.517 289.667Z" fill="white"/>
<path d="M377.517 308.311V315.524C377.517 317.157 376.156 318.518 374.523 318.518H301.988C301.852 318.518 301.716 318.518 301.58 318.518C300.083 318.246 298.994 317.021 298.994 315.524V308.311C298.994 306.678 300.355 305.317 301.988 305.317H374.523C376.02 305.317 377.381 306.406 377.517 307.903C377.517 308.039 377.517 308.175 377.517 308.311Z" fill="white"/>
<path d="M323.213 293.614C323.213 294.43 322.532 295.111 321.716 295.111C320.899 295.111 320.219 294.43 320.219 293.614C320.219 292.797 320.899 292.117 321.716 292.117C322.532 292.117 323.213 292.797 323.213 293.614Z" fill="#959595"/>
<path d="M331.379 293.614C331.379 294.43 330.698 295.111 329.882 295.111C329.065 295.111 328.385 294.43 328.385 293.614C328.385 292.797 329.065 292.117 329.882 292.117C330.698 292.117 331.379 292.797 331.379 293.614Z" fill="#959595"/>
<path d="M339.679 293.614C339.679 294.43 338.999 295.111 338.183 295.111C337.366 295.111 336.686 294.43 336.686 293.614C336.686 292.797 337.366 292.117 338.183 292.117C338.999 292.117 339.679 292.797 339.679 293.614Z" fill="#959595"/>
<path d="M347.98 293.614C347.98 294.43 347.3 295.111 346.483 295.111C345.667 295.111 344.986 294.43 344.986 293.614C344.986 292.797 345.667 292.117 346.483 292.117C347.3 292.117 347.98 292.797 347.98 293.614Z" fill="#959595"/>
<path d="M356.144 293.614C356.144 294.43 355.464 295.111 354.647 295.111C353.831 295.111 353.15 294.43 353.15 293.614C353.15 292.797 353.831 292.117 354.647 292.117C355.464 292.117 356.144 292.797 356.144 293.614Z" fill="#959595"/>
<path d="M323.213 312.531C323.213 313.347 322.532 314.028 321.716 314.028C320.899 314.028 320.219 313.347 320.219 312.531C320.219 311.714 320.899 311.034 321.716 311.034C322.532 311.034 323.213 311.714 323.213 312.531Z" fill="#959595"/>
<path d="M331.379 312.531C331.379 313.347 330.698 314.028 329.882 314.028C329.065 314.028 328.385 313.347 328.385 312.531C328.385 311.714 329.065 311.034 329.882 311.034C330.698 311.034 331.379 311.714 331.379 312.531Z" fill="#959595"/>
<path d="M339.679 312.531C339.679 313.347 338.999 314.028 338.183 314.028C337.366 314.028 336.686 313.347 336.686 312.531C336.686 311.714 337.366 311.034 338.183 311.034C338.999 311.034 339.679 311.714 339.679 312.531Z" fill="#959595"/>
<path d="M347.98 312.531C347.98 313.347 347.3 314.028 346.483 314.028C345.667 314.028 344.986 313.347 344.986 312.531C344.986 311.714 345.667 311.034 346.483 311.034C347.3 311.034 347.98 311.714 347.98 312.531Z" fill="#959595"/>
<path d="M354.647 314.028C355.474 314.028 356.144 313.357 356.144 312.531C356.144 311.704 355.474 311.034 354.647 311.034C353.821 311.034 353.15 311.704 353.15 312.531C353.15 313.357 353.821 314.028 354.647 314.028Z" fill="#959595"/>
<path d="M8.1705 455.966C12.117 459.913 18.3771 459.913 22.3236 455.966L47.9081 430.382C49.405 428.885 51.7185 428.885 53.2155 430.382C54.7124 431.879 54.7124 434.192 53.2155 435.689L49.405 439.5C46.8194 442.085 46.8194 446.168 49.405 448.753L49.6772 449.026C52.2629 451.611 56.3455 451.611 58.9312 449.026L108.739 399.218C111.325 396.632 111.325 392.549 108.739 389.964C106.154 387.378 102.071 387.378 99.4853 389.964L65.4634 423.986C63.9664 425.483 61.6529 425.483 60.1559 423.986L59.8838 423.713C58.3868 422.216 58.3868 419.903 59.8838 418.406L74.3091 403.981C78.2556 400.034 78.2556 393.774 74.3091 389.828C70.3625 385.881 64.1025 385.881 60.1559 389.828L8.03441 441.949C4.22396 445.623 4.22396 452.02 8.1705 455.966Z" fill="#DBDBDB"/>
<path d="M132.828 410.148H24.3665C19.8796 410.148 16.293 406.561 16.293 402.074V305.588C16.293 301.101 19.8796 297.515 24.3665 297.515H132.828C137.315 297.515 140.902 301.101 140.902 305.588V402.074C140.902 406.561 137.315 410.148 132.828 410.148Z" fill="white" stroke="black"/>
<path d="M127.792 312.256C130.197 312.256 132.147 310.306 132.147 307.901C132.147 305.496 130.197 303.546 127.792 303.546C125.387 303.546 123.438 305.496 123.438 307.901C123.438 310.306 125.387 312.256 127.792 312.256Z" fill="black"/>
<path d="M119.219 307.901C119.219 310.351 117.314 312.256 114.865 312.256C112.415 312.256 110.51 310.351 110.51 307.901C110.51 305.452 112.415 303.546 114.865 303.546C117.314 303.546 119.219 305.452 119.219 307.901Z" fill="#FFCA41"/>
<path d="M125.071 341.517H31.8515C29.8102 341.517 28.041 339.883 28.041 337.706V324.778C28.041 322.736 29.6741 320.967 31.8515 320.967H125.071C127.113 320.967 128.882 322.6 128.882 324.778V337.706C128.882 339.883 127.249 341.517 125.071 341.517Z" fill="#8D8D8D"/>
<path d="M112.553 351.723H125.073C127.114 351.723 128.883 350.09 128.883 347.913C128.883 345.871 127.25 344.102 125.073 344.102H112.553C110.511 344.102 108.742 345.735 108.742 347.913C108.742 349.954 110.511 351.723 112.553 351.723Z" fill="#FFCA41"/>
<path d="M124.121 346.688H113.506V349.273H124.121V346.688Z" fill="#8D8D8D"/>
<path d="M71.5882 324.233H33.7559V328.86H71.5882V324.233Z" fill="#CFCFCF"/>
<path d="M104.25 324.233H74.3105V328.86H104.25V324.233Z" fill="#CFCFCF"/>
<path d="M106.428 322.737H105.748V330.222H106.428V322.737Z" fill="#CFCFCF"/>
<path d="M105.747 321.785H103.842V322.601H105.747V321.785Z" fill="#CFCFCF"/>
<path d="M108.198 321.785H106.293V322.601H108.198V321.785Z" fill="#CFCFCF"/>
<path d="M105.747 330.085H103.842V330.902H105.747V330.085Z" fill="#CFCFCF"/>
<path d="M108.198 330.085H106.293V330.902H108.198V330.085Z" fill="#CFCFCF"/>
<path d="M125.071 380.438H31.8515C29.8102 380.438 28.041 378.805 28.041 376.627V363.699C28.041 361.658 29.6741 359.889 31.8515 359.889H125.071C127.113 359.889 128.882 361.522 128.882 363.699V376.627C128.882 378.805 127.249 380.438 125.071 380.438Z" fill="#8D8D8D"/>
<path d="M112.553 390.644H125.073C127.114 390.644 128.883 389.011 128.883 386.834C128.883 384.793 127.25 383.023 125.073 383.023H112.553C110.511 383.023 108.742 384.656 108.742 386.834C108.742 389.011 110.511 390.644 112.553 390.644Z" fill="#FFCA41"/>
<path d="M124.121 385.609H113.506V388.195H124.121V385.609Z" fill="#8D8D8D"/>
<path d="M71.5882 363.291H33.7559V367.917H71.5882V363.291Z" fill="#CFCFCF"/>
<path d="M116.088 363.291H91.5918V367.917H116.088V363.291Z" fill="#CFCFCF"/>
<path d="M90.0975 363.291H73.6309V367.917H90.0975V363.291Z" fill="#CFCFCF"/>
<path d="M118.132 361.659H117.451V369.144H118.132V361.659Z" fill="#CFCFCF"/>
<path d="M117.448 360.842H115.543V361.658H117.448V360.842Z" fill="#CFCFCF"/>
<path d="M119.899 360.842H117.994V361.658H119.899V360.842Z" fill="#CFCFCF"/>
<path d="M117.448 369.007H115.543V369.824H117.448V369.007Z" fill="#CFCFCF"/>
<path d="M119.899 369.007H117.994V369.824H119.899V369.007Z" fill="#CFCFCF"/>
<path d="M161.814 368.325C164.399 370.91 164.399 374.993 161.814 377.578L132.555 406.837H128.608H123.301V397.583L152.56 368.325C155.145 365.739 159.364 365.739 161.814 368.325Z" fill="#8D8D8D"/>
<path d="M151.878 369.004L149.428 371.454L123.436 397.447L132.689 406.701L161.132 378.258L151.878 369.004Z" fill="#FFCA41"/>
<path d="M123.436 406.838H128.607L123.436 401.531V406.838Z" fill="white"/>
<path d="M416.569 462.906H392.617V422.216H410.445C412.894 424.665 414.119 425.89 416.569 428.34V462.906Z" fill="#FFCA41"/>
<path d="M413.167 427.523H396.02V428.748H413.167V427.523Z" fill="#D9DFE6"/>
<path d="M413.167 430.381H396.02V431.606H413.167V430.381Z" fill="#D9DFE6"/>
<path d="M413.167 433.24H396.02V434.465H413.167V433.24Z" fill="#D9DFE6"/>
<path d="M413.167 436.232H396.02V437.457H413.167V436.232Z" fill="#D9DFE6"/>
<path d="M413.167 439.091H396.02V440.316H413.167V439.091Z" fill="#D9DFE6"/>
<path d="M406.09 441.949H396.02V443.174H406.09V441.949Z" fill="#D9DFE6"/>
<path d="M413.167 447.8H396.02V449.025H413.167V447.8Z" fill="#D9DFE6"/>
<path d="M413.167 450.794H396.02V452.019H413.167V450.794Z" fill="#D9DFE6"/>
<path d="M413.167 453.652H396.02V454.877H413.167V453.652Z" fill="#D9DFE6"/>
<path d="M406.09 456.51H396.02V457.735H406.09V456.51Z" fill="#D9DFE6"/>
<path d="M404.731 457.054H380.779V416.364H398.607C401.056 418.814 402.281 420.039 404.731 422.488V457.054Z" fill="white"/>
<path d="M401.329 421.672H384.182V422.897H401.329V421.672Z" fill="#D6D6D6"/>
<path d="M401.329 424.666H384.182V425.891H401.329V424.666Z" fill="#D6D6D6"/>
<path d="M401.329 427.523H384.182V428.748H401.329V427.523Z" fill="#D6D6D6"/>
<path d="M401.329 430.381H384.182V431.606H401.329V430.381Z" fill="#D6D6D6"/>
<path d="M401.329 433.376H384.182V434.601H401.329V433.376Z" fill="#D6D6D6"/>
<path d="M394.252 436.233H384.182V437.458H394.252V436.233Z" fill="#D6D6D6"/>
<path d="M401.329 442.084H384.182V443.309H401.329V442.084Z" fill="#D6D6D6"/>
<path d="M401.329 444.942H384.182V446.167H401.329V444.942Z" fill="#D6D6D6"/>
<path d="M401.329 447.936H384.182V449.161H401.329V447.936Z" fill="#D6D6D6"/>
<path d="M394.252 450.793H384.182V452.018H394.252V450.793Z" fill="#D6D6D6"/>
<path d="M404.729 422.624H398.605V416.5C400.919 418.814 402.28 420.175 404.729 422.624Z" fill="#DDDDDC"/>
<path d="M410.717 91.2515C410.717 96.1507 406.771 100.097 401.871 100.097H339.679C330.97 100.097 324.029 93.0207 324.029 84.4471C324.029 81.4532 324.846 78.7315 326.207 76.418C326.071 79.4119 326.751 82.1336 328.52 84.5832C329.473 85.9441 330.698 87.0328 332.195 87.8493C336.685 90.2989 342.673 89.3463 346.212 85.6719C347.028 84.7193 347.845 83.7667 349.069 83.3584C351.111 82.678 353.016 84.311 354.921 85.2637C358.868 87.1689 363.495 86.2163 367.713 84.8554C371.932 83.4945 376.287 81.8615 380.506 82.8141C382.547 83.2223 384.452 84.311 386.493 84.9915C388.535 85.6719 390.712 86.0802 392.753 85.2637C396.564 87.8493 400.647 89.8906 405.001 91.5237C406.362 92.068 407.859 92.4763 409.22 92.068C409.764 91.932 410.309 91.6598 410.717 91.1154V91.2515Z" fill="#DDDDDC"/>
<path d="M489.644 203.252C489.644 223.12 473.45 239.315 453.581 239.315C426.091 239.315 395.199 203.252 395.199 203.252C395.199 203.252 426.772 167.188 453.581 167.188C471.136 167.188 485.834 179.709 488.964 196.447C489.508 198.625 489.644 200.938 489.644 203.252Z" fill="black"/>
<path d="M489.644 203.252C489.644 223.12 473.45 239.315 453.581 239.315C426.091 239.315 395.199 203.252 395.199 203.252C448.137 222.304 484.2 210.056 488.964 196.447C489.508 198.625 489.644 200.938 489.644 203.252Z" fill="black"/>
<path d="M440.112 216.724L451.135 205.701L448.957 203.523L437.934 214.41L435.757 215.635L433.035 219.854L434.804 221.487L438.887 218.901L440.112 216.724Z" fill="white"/>
<path d="M461.069 204.612L472.364 193.317C472.636 193.045 472.908 192.636 473.044 192.092C473.453 190.595 473.997 187.057 470.731 183.927C467.601 180.797 464.063 181.205 462.566 181.613C462.157 181.749 461.749 181.885 461.341 182.294L450.046 193.589C451.815 195.358 451.815 198.216 450.046 199.985L449.093 200.938L447.324 199.169L445.555 200.938L453.584 208.967L455.353 207.198L453.584 205.429L454.536 204.476C456.442 202.843 459.3 202.843 461.069 204.612Z" fill="#FFCA41"/>
<path d="M166.047 174.127C164.478 175.88 157.144 183.882 147.231 191.769C141.796 196.094 135.596 200.375 129.154 203.574C122.709 206.774 116.051 208.876 109.693 208.876C90.5108 208.876 75.082 193.316 75.082 174.129C75.082 154.945 90.5082 139.519 109.693 139.519C122.911 139.519 137.048 148.193 147.943 156.963C153.376 161.337 157.976 165.712 161.218 168.994C162.839 170.635 164.119 172.002 164.994 172.958C165.431 173.436 165.767 173.811 165.993 174.066C166.012 174.087 166.03 174.108 166.047 174.127Z" fill="white" stroke="black"/>
<path d="M108.059 183.248L122.076 169.231C122.892 168.414 124.117 168.006 125.206 168.006C127.383 168.006 129.697 167.189 131.33 165.556C133.643 163.243 134.324 160.113 133.507 157.255L129.288 161.474L124.661 160.249L123.437 155.622L127.519 151.539C124.661 150.723 121.531 151.403 119.218 153.717C117.585 155.35 116.768 157.663 116.768 159.841C116.768 161.065 116.36 162.154 115.543 162.971L101.663 176.988C100.846 177.804 99.6212 178.212 98.5325 178.212C96.3551 178.212 94.0416 179.029 92.4086 180.662C89.0064 184.064 89.1425 189.78 92.8168 193.046C96.0829 195.904 100.982 195.768 104.112 192.91C106.017 191.141 106.834 188.827 106.834 186.514C106.834 185.153 107.242 184.064 108.059 183.248ZM97.3077 190.188L94.7221 187.603L95.6747 184.064L99.213 183.112L101.799 185.697L100.846 189.236L97.3077 190.188Z" fill="#FFCA41"/>
<path d="M171.88 306.542H141.396V309.264H171.88V306.542Z" fill="white"/>
<path d="M291.409 182.43C291.409 183.465 291.407 184.445 291.258 185.332H285.513H285.136L285.032 185.695C284.756 186.662 284.502 187.536 284.008 188.277L283.785 188.612L284.065 188.902L288.004 192.968C286.912 194.553 285.424 195.949 283.795 197.153L279.879 193.236L279.624 192.981L279.302 193.142C278.502 193.542 277.58 193.936 276.666 194.197L276.303 194.301V194.678V200.355C275.253 200.473 274.311 200.574 273.265 200.574C272.177 200.574 271.15 200.572 270.227 200.399V194.678V194.301L269.864 194.197C268.898 193.921 268.023 193.667 267.282 193.173L266.941 192.946L266.651 193.236L262.722 197.165C261.139 196.074 259.745 194.587 258.543 192.961L262.459 189.044L262.714 188.789L262.553 188.467C262.154 187.667 261.759 186.745 261.498 185.831L261.394 185.469H261.017H255.34C255.223 184.419 255.121 183.476 255.121 182.43C255.121 181.342 255.123 180.315 255.296 179.392H261.017H261.394L261.498 179.029C261.774 178.063 262.028 177.188 262.522 176.448L262.749 176.107L262.459 175.817L258.53 171.888C259.62 170.306 261.105 168.913 262.729 167.712L266.646 171.755L266.901 172.018L267.229 171.854C268.028 171.455 268.951 171.06 269.864 170.799L270.227 170.696V170.318V164.642C271.277 164.524 272.22 164.422 273.265 164.422C274.353 164.422 275.38 164.425 276.303 164.597V170.318V170.696L276.666 170.799C277.633 171.075 278.507 171.329 279.248 171.823L279.594 172.054L279.884 171.755L283.813 167.699C285.394 168.79 286.787 170.275 287.988 171.9L284.071 175.817L283.816 176.072L283.977 176.394C284.377 177.193 284.771 178.116 285.032 179.029L285.136 179.392H285.513H291.19C291.307 180.442 291.409 181.385 291.409 182.43ZM268.819 182.43C268.819 184.895 270.823 186.741 273.129 186.741C275.583 186.741 277.439 184.884 277.439 182.43C277.439 179.965 275.435 178.12 273.129 178.12C270.664 178.12 268.819 180.125 268.819 182.43Z" fill="#FFCA41" stroke="black"/>
<path d="M305.035 195.343L305.13 195.722H305.52H308.767C308.83 196.255 308.831 196.85 308.831 197.399C308.831 198.049 308.83 198.578 308.769 199.077H305.52H305.13L305.035 199.455C304.915 199.937 304.671 200.43 304.393 200.986L304.232 201.308L304.486 201.563L306.777 203.854C306.129 204.754 305.391 205.493 304.49 206.141L302.2 203.85L301.945 203.595L301.622 203.756C301.067 204.034 300.573 204.279 300.092 204.399L299.713 204.494V204.884V208.131C299.18 208.193 298.585 208.195 298.036 208.195C297.385 208.195 296.857 208.193 296.358 208.132V204.884V204.494L295.979 204.399C295.498 204.279 295.004 204.034 294.449 203.756L294.126 203.595L293.871 203.85L291.581 206.141C290.68 205.493 289.942 204.754 289.294 203.854L291.585 201.563L291.84 201.308L291.678 200.986C291.4 200.43 291.156 199.937 291.036 199.455L290.941 199.077H290.551H287.304C287.241 198.544 287.24 197.949 287.24 197.399C287.24 196.749 287.241 196.221 287.302 195.722H290.551H290.941L291.036 195.343C291.156 194.862 291.4 194.368 291.678 193.812L291.84 193.49L291.585 193.235L289.294 190.945C289.942 190.044 290.68 189.306 291.581 188.658L293.871 190.948L294.126 191.203L294.449 191.042C295.004 190.764 295.498 190.52 295.979 190.4L296.358 190.305V189.914V186.668C296.891 186.605 297.486 186.604 298.036 186.604C298.686 186.604 299.214 186.605 299.713 186.666V189.914V190.305L300.092 190.4C300.573 190.52 301.067 190.764 301.622 191.042L301.945 191.203L302.2 190.948L304.49 188.658C305.391 189.306 306.129 190.044 306.777 190.945L304.486 193.235L304.232 193.49L304.393 193.812C304.671 194.368 304.915 194.862 305.035 195.343ZM300.846 197.591L300.849 197.563V197.535C300.849 196.034 299.536 194.722 298.036 194.722C296.535 194.722 295.222 196.034 295.222 197.535C295.222 199.036 296.535 200.349 298.036 200.349C299.58 200.349 300.69 198.998 300.846 197.591Z" fill="#FFCA41" stroke="black"/>
<path d="M62.4681 36.9526L19.0561 80.3646C19.1922 81.1811 19.4644 81.9976 19.7366 82.678L64.7816 37.497C63.965 37.3609 63.2846 37.0887 62.4681 36.9526ZM66.1424 38.0413L20.1448 84.0389C20.417 84.7194 20.6892 85.3998 20.9614 86.0802L68.1837 38.7218C67.5033 38.4496 66.8229 38.1774 66.1424 38.0413ZM77.982 44.9818L27.0853 95.8785C27.4936 96.2868 27.7657 96.6951 28.174 96.9672L79.2068 45.9344C78.7986 45.6622 78.3903 45.39 77.982 44.9818ZM69.4085 39.4022L21.5057 87.305C21.7779 87.8494 22.0501 88.5298 22.4583 89.0742L71.1777 40.2187C70.6333 39.9465 70.089 39.6744 69.4085 39.4022ZM72.5385 41.0352L23.1388 90.435C23.4109 90.9794 23.8192 91.5237 24.0914 91.932L74.0355 41.9879C73.6272 41.5796 73.0829 41.3074 72.5385 41.0352ZM75.3964 42.9405L25.044 93.2929C25.3162 93.7011 25.7244 94.2455 26.1327 94.6537L76.7573 44.0292C76.349 43.6209 75.8046 43.2126 75.3964 42.9405ZM42.5993 37.9052L20.0087 60.4958C19.4644 61.9927 19.0561 63.6258 18.784 65.2588L47.3623 36.5444C45.7293 36.9526 44.0962 37.3609 42.5993 37.9052ZM58.3854 36.2722L18.3757 76.2819C18.5118 77.2345 18.6479 78.0511 18.784 79.0037L61.1072 36.6804C60.2907 36.4083 59.3381 36.2722 58.3854 36.2722ZM32.6649 43.0766L25.3162 50.4253C23.4109 53.0109 21.7779 55.7327 20.6892 58.8627L41.1023 38.4496C37.9723 39.6744 35.1145 41.1713 32.6649 43.0766ZM48.8593 36.4083L18.5118 66.7558C18.3757 67.9806 18.2396 69.2054 18.1035 70.5662L52.5337 36C51.3089 36 50.0841 36.1361 48.8593 36.4083ZM54.1667 36H53.8945L18.1035 71.791V72.0632C18.1035 73.0158 18.1035 73.9684 18.2396 75.0571L57.0246 36.1361C56.0719 36 55.1193 36 54.1667 36ZM89.0051 62.5371L44.6406 106.766C44.9128 106.902 45.321 106.902 45.7293 107.038L89.2773 63.4897C89.1412 63.2175 89.0051 62.8093 89.0051 62.5371ZM72.6746 102.955L85.1947 90.435C85.4669 90.0268 85.739 89.6185 85.8751 89.2102L71.4498 103.636C71.8581 103.499 72.2664 103.227 72.6746 102.955ZM90.2299 70.7023L52.8058 107.99C53.078 107.99 53.4863 107.99 53.7585 107.99L90.2299 71.6549C90.2299 71.3828 90.2299 70.9745 90.2299 70.7023ZM64.5094 106.629L88.733 82.4059C88.8691 82.1337 88.869 81.7254 89.0051 81.4533L63.5568 106.902C63.8289 106.766 64.1011 106.629 64.5094 106.629ZM80.4316 47.2953L29.5349 98.3281C29.9431 98.6003 30.2153 99.0085 30.6236 99.2807L81.5203 48.384C81.1121 47.9757 80.7038 47.7035 80.4316 47.2953ZM89.8217 66.3475L48.5871 107.582C48.8593 107.582 49.2676 107.718 49.5397 107.718L89.9578 67.3001C89.8217 67.028 89.8217 66.7558 89.8217 66.3475ZM58.6576 107.854L89.9578 76.5541C89.9578 76.2819 90.0938 75.8737 90.0938 75.6015L57.705 107.854C57.9772 107.854 58.3854 107.854 58.6576 107.854ZM84.6503 52.6027L34.8423 102.411C35.2505 102.683 35.5227 102.819 35.931 103.091L85.3308 53.6914C85.0586 53.4192 84.7864 53.0109 84.6503 52.6027ZM82.609 49.8809L31.9844 100.506C32.3927 100.778 32.6649 101.05 33.0731 101.322L83.4256 50.9696C83.1534 50.5614 82.8812 50.2892 82.609 49.8809ZM87.7804 58.9988L41.1023 105.677C41.5106 105.813 41.7828 105.949 42.191 106.085L88.1886 60.0875C88.0525 59.6792 87.9164 59.271 87.7804 58.9988ZM86.2834 55.7327L37.8362 104.18C38.2445 104.316 38.5167 104.588 38.9249 104.724L86.8277 56.8214C86.6917 56.4131 86.4195 56.0049 86.2834 55.7327Z" fill="#DDDDDD"/>
<path d="M49.2696 180.389H47.0921C45.8674 180.389 44.9148 179.436 44.9148 178.211V176.034C44.9148 174.945 44.2343 173.992 43.1456 173.72C41.6487 173.448 40.4239 174.537 40.4239 175.898V178.211C40.4239 179.436 39.4712 180.389 38.2465 180.389H35.7969C34.7082 180.389 33.7556 181.069 33.4834 182.158C33.2112 183.655 34.2999 184.879 35.6608 184.879H37.9743C39.1991 184.879 40.1517 185.832 40.1517 187.057V189.234C40.1517 190.323 40.8321 191.276 41.9208 191.548C43.4178 191.82 44.6426 190.731 44.6426 189.37V187.057C44.6426 185.832 45.5952 184.879 46.82 184.879H49.4056C50.7665 184.879 51.8552 183.655 51.583 182.158C51.447 181.069 50.4943 180.389 49.2696 180.389Z" fill="black"/>
<path d="M187.803 469.711H185.626C184.401 469.711 183.449 468.759 183.449 467.534V465.357C183.449 464.268 182.768 463.315 181.679 463.179C180.319 462.907 179.094 463.996 179.094 465.357V467.534C179.094 468.759 178.141 469.711 176.916 469.711H174.739C173.65 469.711 172.698 470.392 172.562 471.481C172.289 472.841 173.378 474.066 174.739 474.066H176.916C178.141 474.066 179.094 475.019 179.094 476.244V478.421C179.094 479.51 179.774 480.462 180.863 480.598C182.224 480.871 183.449 479.782 183.449 478.421V476.244C183.449 475.019 184.401 474.066 185.626 474.066H187.803C189.164 474.066 190.253 472.841 189.981 471.481C189.845 470.392 188.892 469.711 187.803 469.711Z" stroke="white" stroke-width="1.5" stroke-miterlimit="10"/>
<path d="M505.706 148.68H503.937C502.984 148.68 502.031 147.864 502.031 146.775V145.006C502.031 144.053 501.487 143.237 500.534 143.101C499.31 142.829 498.357 143.781 498.357 144.87V146.775C498.357 147.728 497.541 148.68 496.452 148.68H494.683C493.73 148.68 492.914 149.225 492.777 150.177C492.505 151.402 493.458 152.355 494.547 152.355H496.452C497.404 152.355 498.357 153.171 498.357 154.26V156.029C498.357 156.982 498.901 157.798 499.854 157.934C501.079 158.206 502.031 157.254 502.031 156.165V154.26C502.031 153.307 502.848 152.355 503.937 152.355H505.842C506.931 152.355 507.883 151.266 507.611 150.177C507.475 149.361 506.658 148.68 505.706 148.68Z" fill="#DBDBDB"/>
<path d="M488.287 290.892L476.039 303.14C475.359 303.821 474.27 303.821 473.454 303.14C472.773 302.46 472.773 301.371 473.454 300.555L485.702 288.307C486.382 287.626 487.471 287.626 488.287 288.307C488.968 289.123 488.968 290.212 488.287 290.892Z" fill="white"/>
<path d="M494.002 285.176L492.641 286.537C491.961 287.217 490.872 287.217 490.055 286.537C489.375 285.857 489.375 284.768 490.055 283.951L491.416 282.59C492.097 281.91 493.185 281.91 494.002 282.59C494.682 283.271 494.682 284.496 494.002 285.176Z" fill="white"/>
<path d="M501.216 277.964L500.944 278.236C500.263 278.916 499.175 278.916 498.358 278.236C497.678 277.555 497.678 276.467 498.358 275.65L498.63 275.378C499.311 274.698 500.399 274.698 501.216 275.378C501.896 276.195 501.896 277.283 501.216 277.964Z" fill="white"/>
<path d="M61.923 250.475L45.7286 266.67C44.776 267.622 43.279 267.622 42.4625 266.67C41.5099 265.717 41.5099 264.22 42.4625 263.404L58.6569 247.209C59.6095 246.256 61.1065 246.256 61.923 247.209C62.8756 248.162 62.8756 249.659 61.923 250.475Z" fill="white"/>
<path d="M69.6788 242.854L67.7735 244.759C66.8209 245.711 65.324 245.711 64.5074 244.759C63.5548 243.806 63.5548 242.309 64.5074 241.493L66.4127 239.588C67.3653 238.635 68.8622 238.635 69.6788 239.588C70.4953 240.404 70.4953 241.901 69.6788 242.854Z" fill="white"/>
<path d="M79.0711 233.328L78.7989 233.6C77.8463 234.553 76.3493 234.553 75.5328 233.6C74.5802 232.647 74.5802 231.15 75.5328 230.334L75.805 230.062C76.7576 229.109 78.2546 229.109 79.0711 230.062C80.0237 230.878 80.0237 232.375 79.0711 233.328Z" fill="white"/>
<path d="M502.304 248.977C502.304 251.018 500.671 252.651 498.629 252.651C496.588 252.651 494.955 251.018 494.955 248.977C494.955 246.935 496.588 245.302 498.629 245.302C500.671 245.438 502.304 247.071 502.304 248.977Z" fill="#DBDBDB"/>
<path d="M428.408 303.82C428.408 305.045 427.32 306.134 426.095 306.134C424.87 306.134 423.781 305.045 423.781 303.82C423.781 302.596 424.87 301.507 426.095 301.507C427.456 301.507 428.408 302.459 428.408 303.82Z" fill="#DBDBDB"/>
<path d="M448.14 480.054C449.643 480.054 450.861 478.835 450.861 477.332C450.861 475.829 449.643 474.61 448.14 474.61C446.637 474.61 445.418 475.829 445.418 477.332C445.418 478.835 446.637 480.054 448.14 480.054Z" fill="#DBDBDB"/>
<path d="M140.309 456.102C140.309 457.736 138.949 458.96 137.452 458.96C135.819 458.96 134.594 457.599 134.594 456.102C134.594 454.469 135.955 453.245 137.452 453.245C139.085 453.245 140.309 454.606 140.309 456.102Z" fill="#DBDBDB"/>
<path d="M84.9237 119.15C84.9237 120.238 84.1072 121.055 83.0185 121.055C81.9298 121.055 81.1133 120.238 81.1133 119.15C81.1133 118.061 81.9298 117.244 83.0185 117.244C84.1072 117.108 84.9237 118.061 84.9237 119.15Z" fill="#DBDBDB"/>
<path d="M430.042 56.9574C430.042 58.5905 428.681 59.8153 427.184 59.8153C425.551 59.8153 424.326 58.4544 424.326 56.9574C424.326 55.3244 425.687 54.0996 427.184 54.0996C428.681 54.0996 430.042 55.3244 430.042 56.9574Z" fill="#DBDBDB"/>
<path d="M249.861 94.9264C249.861 96.1512 248.908 97.1038 247.683 97.1038C246.458 97.1038 245.506 96.1512 245.506 94.9264C245.506 93.7016 246.458 92.749 247.683 92.749C248.908 92.749 249.861 93.7016 249.861 94.9264Z" fill="#DBDBDB"/>
</g>
<defs>
<clipPath id="clip0_420_467">
<rect width="526" height="520" fill="white"/>
</clipPath>
</defs>
</svg>
