<svg width="520" height="520" viewBox="0 0 520 520" fill="none" xmlns="http://www.w3.org/2000/svg">
<path d="M423.217 199.1C423.217 199.925 422.547 200.604 421.713 200.604C420.879 200.604 420.209 199.933 420.209 199.1C420.209 198.274 420.879 197.596 421.713 197.596C422.547 197.596 423.217 198.266 423.217 199.1Z" fill="black"/>
<path d="M436.182 199.1C436.182 199.925 435.511 200.604 434.678 200.604C433.852 200.604 433.174 199.933 433.174 199.1C433.174 198.274 433.844 197.596 434.678 197.596C435.511 197.596 436.182 198.266 436.182 199.1Z" fill="black"/>
<path d="M449.145 199.1C449.145 199.925 448.474 200.604 447.641 200.604C446.815 200.604 446.137 199.933 446.137 199.1C446.137 198.274 446.807 197.596 447.641 197.596C448.474 197.596 449.145 198.266 449.145 199.1Z" fill="black"/>
<path d="M462.108 199.1C462.108 199.925 461.437 200.604 460.604 200.604C459.778 200.604 459.1 199.933 459.1 199.1C459.1 198.274 459.77 197.596 460.604 197.596C461.437 197.596 462.108 198.266 462.108 199.1Z" fill="black"/>
<path d="M475.068 199.1C475.068 199.925 474.398 200.604 473.565 200.604C472.739 200.604 472.061 199.933 472.061 199.1C472.061 198.274 472.731 197.596 473.565 197.596C474.398 197.596 475.068 198.266 475.068 199.1Z" fill="black"/>
<path d="M488.033 199.1C488.033 199.925 487.363 200.604 486.529 200.604C485.704 200.604 485.025 199.933 485.025 199.1C485.025 198.274 485.696 197.596 486.529 197.596C487.363 197.596 488.033 198.266 488.033 199.1Z" fill="black"/>
<path d="M500.996 199.1C500.996 199.925 500.326 200.604 499.492 200.604C498.667 200.604 497.988 199.933 497.988 199.1C497.988 198.274 498.659 197.596 499.492 197.596C500.326 197.596 500.996 198.266 500.996 199.1Z" fill="black"/>
<path d="M423.217 212.176C423.217 213.002 422.547 213.68 421.713 213.68C420.879 213.68 420.209 213.01 420.209 212.176C420.209 211.351 420.879 210.672 421.713 210.672C422.547 210.672 423.217 211.343 423.217 212.176Z" fill="black"/>
<path d="M436.182 212.176C436.182 213.002 435.511 213.68 434.678 213.68C433.852 213.68 433.174 213.01 433.174 212.176C433.174 211.351 433.844 210.672 434.678 210.672C435.511 210.672 436.182 211.343 436.182 212.176Z" fill="black"/>
<path d="M449.145 212.176C449.145 213.002 448.474 213.68 447.641 213.68C446.815 213.68 446.137 213.01 446.137 212.176C446.137 211.351 446.807 210.672 447.641 210.672C448.474 210.672 449.145 211.343 449.145 212.176Z" fill="black"/>
<path d="M462.108 212.176C462.108 213.002 461.437 213.68 460.604 213.68C459.778 213.68 459.1 213.01 459.1 212.176C459.1 211.351 459.77 210.672 460.604 210.672C461.437 210.672 462.108 211.343 462.108 212.176Z" fill="black"/>
<path d="M475.068 212.176C475.068 213.002 474.398 213.68 473.565 213.68C472.739 213.68 472.061 213.01 472.061 212.176C472.061 211.351 472.731 210.672 473.565 210.672C474.398 210.672 475.068 211.343 475.068 212.176Z" fill="black"/>
<path d="M488.033 212.176C488.033 213.002 487.363 213.68 486.529 213.68C485.704 213.68 485.025 213.01 485.025 212.176C485.025 211.351 485.696 210.672 486.529 210.672C487.363 210.672 488.033 211.343 488.033 212.176Z" fill="black"/>
<path d="M500.996 212.176C500.996 213.002 500.326 213.68 499.492 213.68C498.667 213.68 497.988 213.01 497.988 212.176C497.988 211.351 498.659 210.672 499.492 210.672C500.326 210.672 500.996 211.343 500.996 212.176Z" fill="black"/>
<path d="M423.217 185.011C423.217 185.836 422.547 186.515 421.713 186.515C420.879 186.515 420.209 185.844 420.209 185.011C420.209 184.185 420.879 183.507 421.713 183.507C422.547 183.507 423.217 184.177 423.217 185.011Z" fill="black"/>
<path d="M436.182 185.011C436.182 185.836 435.511 186.515 434.678 186.515C433.852 186.515 433.174 185.844 433.174 185.011C433.174 184.185 433.844 183.507 434.678 183.507C435.511 183.507 436.182 184.177 436.182 185.011Z" fill="black"/>
<path d="M449.145 185.011C449.145 185.836 448.474 186.515 447.641 186.515C446.815 186.515 446.137 185.844 446.137 185.011C446.137 184.185 446.807 183.507 447.641 183.507C448.474 183.507 449.145 184.177 449.145 185.011Z" fill="black"/>
<path d="M462.108 185.011C462.108 185.836 461.437 186.515 460.604 186.515C459.778 186.515 459.1 185.844 459.1 185.011C459.1 184.185 459.77 183.507 460.604 183.507C461.437 183.507 462.108 184.177 462.108 185.011Z" fill="black"/>
<path d="M475.068 185.011C475.068 185.836 474.398 186.515 473.565 186.515C472.739 186.515 472.061 185.844 472.061 185.011C472.061 184.185 472.731 183.507 473.565 183.507C474.398 183.507 475.068 184.177 475.068 185.011Z" fill="black"/>
<path d="M488.033 185.011C488.033 185.836 487.363 186.515 486.529 186.515C485.704 186.515 485.025 185.844 485.025 185.011C485.025 184.185 485.696 183.507 486.529 183.507C487.363 183.507 488.033 184.177 488.033 185.011Z" fill="black"/>
<path d="M500.996 185.011C500.996 185.836 500.326 186.515 499.492 186.515C498.667 186.515 497.988 185.844 497.988 185.011C497.988 184.185 498.659 183.507 499.492 183.507C500.326 183.507 500.996 184.177 500.996 185.011Z" fill="black"/>
<path d="M423.217 170.922C423.217 171.747 422.547 172.426 421.713 172.426C420.879 172.426 420.209 171.756 420.209 170.922C420.209 170.096 420.879 169.418 421.713 169.418C422.547 169.418 423.217 170.088 423.217 170.922Z" fill="black"/>
<path d="M436.182 170.922C436.182 171.747 435.511 172.426 434.678 172.426C433.852 172.426 433.174 171.756 433.174 170.922C433.174 170.096 433.844 169.418 434.678 169.418C435.511 169.418 436.182 170.088 436.182 170.922Z" fill="black"/>
<path d="M449.145 170.922C449.145 171.747 448.474 172.426 447.641 172.426C446.815 172.426 446.137 171.756 446.137 170.922C446.137 170.096 446.807 169.418 447.641 169.418C448.474 169.418 449.145 170.088 449.145 170.922Z" fill="black"/>
<path d="M462.108 170.922C462.108 171.747 461.437 172.426 460.604 172.426C459.778 172.426 459.1 171.756 459.1 170.922C459.1 170.096 459.77 169.418 460.604 169.418C461.437 169.418 462.108 170.088 462.108 170.922Z" fill="black"/>
<path d="M475.068 170.922C475.068 171.747 474.398 172.426 473.565 172.426C472.739 172.426 472.061 171.756 472.061 170.922C472.061 170.096 472.731 169.418 473.565 169.418C474.398 169.418 475.068 170.088 475.068 170.922Z" fill="black"/>
<path d="M488.033 170.922C488.033 171.747 487.363 172.426 486.529 172.426C485.704 172.426 485.025 171.756 485.025 170.922C485.025 170.096 485.696 169.418 486.529 169.418C487.363 169.418 488.033 170.088 488.033 170.922Z" fill="black"/>
<path d="M500.996 170.922C500.996 171.747 500.326 172.426 499.492 172.426C498.667 172.426 497.988 171.756 497.988 170.922C497.988 170.096 498.659 169.418 499.492 169.418C500.326 169.418 500.996 170.088 500.996 170.922Z" fill="black"/>
<path d="M423.217 156.833C423.217 157.659 422.547 158.337 421.713 158.337C420.879 158.337 420.209 157.667 420.209 156.833C420.209 156.008 420.879 155.329 421.713 155.329C422.547 155.329 423.217 155.999 423.217 156.833Z" fill="black"/>
<path d="M436.182 156.833C436.182 157.659 435.511 158.337 434.678 158.337C433.852 158.337 433.174 157.667 433.174 156.833C433.174 156.008 433.844 155.329 434.678 155.329C435.511 155.329 436.182 155.999 436.182 156.833Z" fill="black"/>
<path d="M449.145 156.833C449.145 157.659 448.474 158.337 447.641 158.337C446.815 158.337 446.137 157.667 446.137 156.833C446.137 156.008 446.807 155.329 447.641 155.329C448.474 155.329 449.145 155.999 449.145 156.833Z" fill="black"/>
<path d="M462.108 156.833C462.108 157.659 461.437 158.337 460.604 158.337C459.778 158.337 459.1 157.667 459.1 156.833C459.1 156.008 459.77 155.329 460.604 155.329C461.437 155.329 462.108 155.999 462.108 156.833Z" fill="black"/>
<path d="M475.068 156.833C475.068 157.659 474.398 158.337 473.565 158.337C472.739 158.337 472.061 157.667 472.061 156.833C472.061 156.008 472.731 155.329 473.565 155.329C474.398 155.329 475.068 155.999 475.068 156.833Z" fill="black"/>
<path d="M488.033 156.833C488.033 157.659 487.363 158.337 486.529 158.337C485.704 158.337 485.025 157.667 485.025 156.833C485.025 156.008 485.696 155.329 486.529 155.329C487.363 155.329 488.033 155.999 488.033 156.833Z" fill="black"/>
<path d="M500.996 156.833C500.996 157.659 500.326 158.337 499.492 158.337C498.667 158.337 497.988 157.667 497.988 156.833C497.988 156.008 498.659 155.329 499.492 155.329C500.326 155.329 500.996 155.999 500.996 156.833Z" fill="black"/>
<path d="M423.217 142.744C423.217 143.57 422.547 144.248 421.713 144.248C420.879 144.248 420.209 143.578 420.209 142.744C420.209 141.919 420.879 141.24 421.713 141.24C422.547 141.24 423.217 141.91 423.217 142.744Z" fill="black"/>
<path d="M436.182 142.744C436.182 143.57 435.511 144.248 434.678 144.248C433.852 144.248 433.174 143.578 433.174 142.744C433.174 141.919 433.844 141.24 434.678 141.24C435.511 141.24 436.182 141.91 436.182 142.744Z" fill="black"/>
<path d="M449.145 142.744C449.145 143.57 448.474 144.248 447.641 144.248C446.815 144.248 446.137 143.578 446.137 142.744C446.137 141.919 446.807 141.24 447.641 141.24C448.474 141.24 449.145 141.91 449.145 142.744Z" fill="black"/>
<path d="M462.108 142.744C462.108 143.57 461.437 144.248 460.604 144.248C459.778 144.248 459.1 143.578 459.1 142.744C459.1 141.919 459.77 141.24 460.604 141.24C461.437 141.24 462.108 141.91 462.108 142.744Z" fill="black"/>
<path d="M475.068 142.744C475.068 143.57 474.398 144.248 473.565 144.248C472.739 144.248 472.061 143.578 472.061 142.744C472.061 141.919 472.731 141.24 473.565 141.24C474.398 141.24 475.068 141.91 475.068 142.744Z" fill="black"/>
<path d="M488.033 142.744C488.033 143.57 487.363 144.248 486.529 144.248C485.704 144.248 485.025 143.578 485.025 142.744C485.025 141.919 485.696 141.24 486.529 141.24C487.363 141.24 488.033 141.91 488.033 142.744Z" fill="black"/>
<path d="M500.996 142.744C500.996 143.57 500.326 144.248 499.492 144.248C498.667 144.248 497.988 143.578 497.988 142.744C497.988 141.919 498.659 141.24 499.492 141.24C500.326 141.24 500.996 141.91 500.996 142.744Z" fill="black"/>
<path d="M423.217 128.655C423.217 129.481 422.547 130.159 421.713 130.159C420.879 130.159 420.209 129.489 420.209 128.655C420.209 127.83 420.879 127.151 421.713 127.151C422.547 127.151 423.217 127.83 423.217 128.655Z" fill="black"/>
<path d="M436.182 128.655C436.182 129.481 435.511 130.159 434.678 130.159C433.852 130.159 433.174 129.489 433.174 128.655C433.174 127.83 433.844 127.151 434.678 127.151C435.511 127.151 436.182 127.83 436.182 128.655Z" fill="black"/>
<path d="M449.145 128.655C449.145 129.481 448.474 130.159 447.641 130.159C446.815 130.159 446.137 129.489 446.137 128.655C446.137 127.83 446.807 127.151 447.641 127.151C448.474 127.151 449.145 127.83 449.145 128.655Z" fill="black"/>
<path d="M462.108 128.655C462.108 129.481 461.437 130.159 460.604 130.159C459.778 130.159 459.1 129.489 459.1 128.655C459.1 127.83 459.77 127.151 460.604 127.151C461.437 127.151 462.108 127.83 462.108 128.655Z" fill="black"/>
<path d="M475.068 128.655C475.068 129.481 474.398 130.159 473.565 130.159C472.739 130.159 472.061 129.489 472.061 128.655C472.061 127.83 472.731 127.151 473.565 127.151C474.398 127.151 475.068 127.83 475.068 128.655Z" fill="black"/>
<path d="M488.033 128.655C488.033 129.481 487.363 130.159 486.529 130.159C485.704 130.159 485.025 129.489 485.025 128.655C485.025 127.83 485.696 127.151 486.529 127.151C487.363 127.151 488.033 127.83 488.033 128.655Z" fill="black"/>
<path d="M500.996 128.655C500.996 129.481 500.326 130.159 499.492 130.159C498.667 130.159 497.988 129.489 497.988 128.655C497.988 127.83 498.659 127.151 499.492 127.151C500.326 127.151 500.996 127.83 500.996 128.655Z" fill="black"/>
<path d="M158.313 419.857C158.313 420.683 157.642 421.361 156.809 421.361C155.975 421.361 155.305 420.691 155.305 419.857C155.305 419.031 155.975 418.353 156.809 418.353C157.642 418.353 158.313 419.023 158.313 419.857Z" fill="black"/>
<path d="M171.277 419.857C171.277 420.683 170.607 421.361 169.773 421.361C168.948 421.361 168.27 420.691 168.27 419.857C168.27 419.031 168.94 418.353 169.773 418.353C170.607 418.353 171.277 419.023 171.277 419.857Z" fill="black"/>
<path d="M184.24 419.857C184.24 420.683 183.57 421.361 182.736 421.361C181.911 421.361 181.232 420.691 181.232 419.857C181.232 419.031 181.903 418.353 182.736 418.353C183.57 418.353 184.24 419.023 184.24 419.857Z" fill="black"/>
<path d="M197.203 419.857C197.203 420.683 196.533 421.361 195.699 421.361C194.874 421.361 194.195 420.691 194.195 419.857C194.195 419.031 194.866 418.353 195.699 418.353C196.533 418.353 197.203 419.023 197.203 419.857Z" fill="black"/>
<path d="M210.164 419.857C210.164 420.683 209.494 421.361 208.66 421.361C207.835 421.361 207.156 420.691 207.156 419.857C207.156 419.031 207.826 418.353 208.66 418.353C209.494 418.353 210.164 419.023 210.164 419.857Z" fill="black"/>
<path d="M223.129 419.857C223.129 420.683 222.459 421.361 221.625 421.361C220.8 421.361 220.121 420.691 220.121 419.857C220.121 419.031 220.791 418.353 221.625 418.353C222.459 418.353 223.129 419.023 223.129 419.857Z" fill="black"/>
<path d="M236.092 419.857C236.092 420.683 235.422 421.361 234.588 421.361C233.762 421.361 233.084 420.691 233.084 419.857C233.084 419.031 233.754 418.353 234.588 418.353C235.422 418.353 236.092 419.023 236.092 419.857Z" fill="black"/>
<path d="M158.313 432.934C158.313 433.759 157.642 434.438 156.809 434.438C155.975 434.438 155.305 433.767 155.305 432.934C155.305 432.108 155.975 431.43 156.809 431.43C157.642 431.43 158.313 432.1 158.313 432.934Z" fill="black"/>
<path d="M171.277 432.934C171.277 433.759 170.607 434.438 169.773 434.438C168.948 434.438 168.27 433.767 168.27 432.934C168.27 432.108 168.94 431.43 169.773 431.43C170.607 431.43 171.277 432.1 171.277 432.934Z" fill="black"/>
<path d="M184.24 432.934C184.24 433.759 183.57 434.438 182.736 434.438C181.911 434.438 181.232 433.767 181.232 432.934C181.232 432.108 181.903 431.43 182.736 431.43C183.57 431.43 184.24 432.1 184.24 432.934Z" fill="black"/>
<path d="M197.203 432.934C197.203 433.759 196.533 434.438 195.699 434.438C194.874 434.438 194.195 433.767 194.195 432.934C194.195 432.108 194.866 431.43 195.699 431.43C196.533 431.43 197.203 432.1 197.203 432.934Z" fill="black"/>
<path d="M210.164 432.934C210.164 433.759 209.494 434.438 208.66 434.438C207.835 434.438 207.156 433.767 207.156 432.934C207.156 432.108 207.826 431.43 208.66 431.43C209.494 431.43 210.164 432.1 210.164 432.934Z" fill="black"/>
<path d="M223.129 432.934C223.129 433.759 222.459 434.438 221.625 434.438C220.8 434.438 220.121 433.767 220.121 432.934C220.121 432.108 220.791 431.43 221.625 431.43C222.459 431.43 223.129 432.1 223.129 432.934Z" fill="black"/>
<path d="M236.092 432.934C236.092 433.759 235.422 434.438 234.588 434.438C233.762 434.438 233.084 433.767 233.084 432.934C233.084 432.108 233.754 431.43 234.588 431.43C235.422 431.43 236.092 432.1 236.092 432.934Z" fill="black"/>
<path d="M158.313 405.769C158.313 406.594 157.642 407.273 156.809 407.273C155.975 407.273 155.305 406.602 155.305 405.769C155.305 404.943 155.975 404.265 156.809 404.265C157.642 404.265 158.313 404.935 158.313 405.769Z" fill="black"/>
<path d="M171.277 405.769C171.277 406.594 170.607 407.273 169.773 407.273C168.948 407.273 168.27 406.602 168.27 405.769C168.27 404.943 168.94 404.265 169.773 404.265C170.607 404.265 171.277 404.935 171.277 405.769Z" fill="black"/>
<path d="M184.24 405.769C184.24 406.594 183.57 407.273 182.736 407.273C181.911 407.273 181.232 406.602 181.232 405.769C181.232 404.943 181.903 404.265 182.736 404.265C183.57 404.265 184.24 404.935 184.24 405.769Z" fill="black"/>
<path d="M197.203 405.769C197.203 406.594 196.533 407.273 195.699 407.273C194.874 407.273 194.195 406.602 194.195 405.769C194.195 404.943 194.866 404.265 195.699 404.265C196.533 404.265 197.203 404.935 197.203 405.769Z" fill="black"/>
<path d="M210.164 405.769C210.164 406.594 209.494 407.273 208.66 407.273C207.835 407.273 207.156 406.602 207.156 405.769C207.156 404.943 207.826 404.265 208.66 404.265C209.494 404.265 210.164 404.935 210.164 405.769Z" fill="black"/>
<path d="M223.129 405.769C223.129 406.594 222.459 407.273 221.625 407.273C220.8 407.273 220.121 406.602 220.121 405.769C220.121 404.943 220.791 404.265 221.625 404.265C222.459 404.265 223.129 404.935 223.129 405.769Z" fill="black"/>
<path d="M236.092 405.769C236.092 406.594 235.422 407.273 234.588 407.273C233.762 407.273 233.084 406.602 233.084 405.769C233.084 404.943 233.754 404.265 234.588 404.265C235.422 404.265 236.092 404.935 236.092 405.769Z" fill="black"/>
<path d="M158.313 391.679C158.313 392.505 157.642 393.183 156.809 393.183C155.975 393.183 155.305 392.513 155.305 391.679C155.305 390.854 155.975 390.175 156.809 390.175C157.642 390.175 158.313 390.846 158.313 391.679Z" fill="black"/>
<path d="M171.277 391.679C171.277 392.505 170.607 393.183 169.773 393.183C168.948 393.183 168.27 392.513 168.27 391.679C168.27 390.854 168.94 390.175 169.773 390.175C170.607 390.175 171.277 390.846 171.277 391.679Z" fill="black"/>
<path d="M184.24 391.679C184.24 392.505 183.57 393.183 182.736 393.183C181.911 393.183 181.232 392.513 181.232 391.679C181.232 390.854 181.903 390.175 182.736 390.175C183.57 390.175 184.24 390.846 184.24 391.679Z" fill="black"/>
<path d="M197.203 391.679C197.203 392.505 196.533 393.183 195.699 393.183C194.874 393.183 194.195 392.513 194.195 391.679C194.195 390.854 194.866 390.175 195.699 390.175C196.533 390.175 197.203 390.846 197.203 391.679Z" fill="black"/>
<path d="M210.164 391.679C210.164 392.505 209.494 393.183 208.66 393.183C207.835 393.183 207.156 392.513 207.156 391.679C207.156 390.854 207.826 390.175 208.66 390.175C209.494 390.175 210.164 390.846 210.164 391.679Z" fill="black"/>
<path d="M223.129 391.679C223.129 392.505 222.459 393.183 221.625 393.183C220.8 393.183 220.121 392.513 220.121 391.679C220.121 390.854 220.791 390.175 221.625 390.175C222.459 390.175 223.129 390.846 223.129 391.679Z" fill="black"/>
<path d="M236.092 391.679C236.092 392.505 235.422 393.183 234.588 393.183C233.762 393.183 233.084 392.513 233.084 391.679C233.084 390.854 233.754 390.175 234.588 390.175C235.422 390.175 236.092 390.846 236.092 391.679Z" fill="black"/>
<path d="M158.313 377.591C158.313 378.416 157.642 379.095 156.809 379.095C155.975 379.095 155.305 378.425 155.305 377.591C155.305 376.765 155.975 376.087 156.809 376.087C157.642 376.087 158.313 376.757 158.313 377.591Z" fill="black"/>
<path d="M171.277 377.591C171.277 378.416 170.607 379.095 169.773 379.095C168.948 379.095 168.27 378.425 168.27 377.591C168.27 376.765 168.94 376.087 169.773 376.087C170.607 376.087 171.277 376.757 171.277 377.591Z" fill="black"/>
<path d="M184.24 377.591C184.24 378.416 183.57 379.095 182.736 379.095C181.911 379.095 181.232 378.425 181.232 377.591C181.232 376.765 181.903 376.087 182.736 376.087C183.57 376.087 184.24 376.757 184.24 377.591Z" fill="black"/>
<path d="M197.203 377.591C197.203 378.416 196.533 379.095 195.699 379.095C194.874 379.095 194.195 378.425 194.195 377.591C194.195 376.765 194.866 376.087 195.699 376.087C196.533 376.087 197.203 376.757 197.203 377.591Z" fill="black"/>
<path d="M210.164 377.591C210.164 378.416 209.494 379.095 208.66 379.095C207.835 379.095 207.156 378.425 207.156 377.591C207.156 376.765 207.826 376.087 208.66 376.087C209.494 376.087 210.164 376.757 210.164 377.591Z" fill="black"/>
<path d="M223.129 377.591C223.129 378.416 222.459 379.095 221.625 379.095C220.8 379.095 220.121 378.425 220.121 377.591C220.121 376.765 220.791 376.087 221.625 376.087C222.459 376.087 223.129 376.757 223.129 377.591Z" fill="black"/>
<path d="M236.092 377.591C236.092 378.416 235.422 379.095 234.588 379.095C233.762 379.095 233.084 378.425 233.084 377.591C233.084 376.765 233.754 376.087 234.588 376.087C235.422 376.087 236.092 376.757 236.092 377.591Z" fill="black"/>
<path d="M158.313 363.502C158.313 364.327 157.642 365.005 156.809 365.005C155.975 365.005 155.305 364.335 155.305 363.502C155.305 362.676 155.975 361.998 156.809 361.998C157.642 361.998 158.313 362.668 158.313 363.502Z" fill="black"/>
<path d="M171.277 363.502C171.277 364.327 170.607 365.005 169.773 365.005C168.948 365.005 168.27 364.335 168.27 363.502C168.27 362.676 168.94 361.998 169.773 361.998C170.607 361.998 171.277 362.668 171.277 363.502Z" fill="black"/>
<path d="M184.24 363.502C184.24 364.327 183.57 365.005 182.736 365.005C181.911 365.005 181.232 364.335 181.232 363.502C181.232 362.676 181.903 361.998 182.736 361.998C183.57 361.998 184.24 362.668 184.24 363.502Z" fill="black"/>
<path d="M197.203 363.502C197.203 364.327 196.533 365.005 195.699 365.005C194.874 365.005 194.195 364.335 194.195 363.502C194.195 362.676 194.866 361.998 195.699 361.998C196.533 361.998 197.203 362.668 197.203 363.502Z" fill="black"/>
<path d="M210.164 363.502C210.164 364.327 209.494 365.005 208.66 365.005C207.835 365.005 207.156 364.335 207.156 363.502C207.156 362.676 207.826 361.998 208.66 361.998C209.494 361.998 210.164 362.668 210.164 363.502Z" fill="black"/>
<path d="M223.129 363.502C223.129 364.327 222.459 365.005 221.625 365.005C220.8 365.005 220.121 364.335 220.121 363.502C220.121 362.676 220.791 361.998 221.625 361.998C222.459 361.998 223.129 362.668 223.129 363.502Z" fill="black"/>
<path d="M236.092 363.502C236.092 364.327 235.422 365.005 234.588 365.005C233.762 365.005 233.084 364.335 233.084 363.502C233.084 362.676 233.754 361.998 234.588 361.998C235.422 361.998 236.092 362.668 236.092 363.502Z" fill="black"/>
<path d="M158.313 349.413C158.313 350.239 157.642 350.917 156.809 350.917C155.975 350.917 155.305 350.247 155.305 349.413C155.305 348.588 155.975 347.909 156.809 347.909C157.642 347.909 158.313 348.588 158.313 349.413Z" fill="black"/>
<path d="M171.277 349.413C171.277 350.239 170.607 350.917 169.773 350.917C168.948 350.917 168.27 350.247 168.27 349.413C168.27 348.588 168.94 347.909 169.773 347.909C170.607 347.909 171.277 348.588 171.277 349.413Z" fill="black"/>
<path d="M184.24 349.413C184.24 350.239 183.57 350.917 182.736 350.917C181.911 350.917 181.232 350.247 181.232 349.413C181.232 348.588 181.903 347.909 182.736 347.909C183.57 347.909 184.24 348.588 184.24 349.413Z" fill="black"/>
<path d="M197.203 349.413C197.203 350.239 196.533 350.917 195.699 350.917C194.874 350.917 194.195 350.247 194.195 349.413C194.195 348.588 194.866 347.909 195.699 347.909C196.533 347.909 197.203 348.588 197.203 349.413Z" fill="black"/>
<path d="M210.164 349.413C210.164 350.239 209.494 350.917 208.66 350.917C207.835 350.917 207.156 350.247 207.156 349.413C207.156 348.588 207.826 347.909 208.66 347.909C209.494 347.909 210.164 348.588 210.164 349.413Z" fill="black"/>
<path d="M223.129 349.413C223.129 350.239 222.459 350.917 221.625 350.917C220.8 350.917 220.121 350.247 220.121 349.413C220.121 348.588 220.791 347.909 221.625 347.909C222.459 347.909 223.129 348.588 223.129 349.413Z" fill="black"/>
<path d="M236.092 349.413C236.092 350.239 235.422 350.917 234.588 350.917C233.762 350.917 233.084 350.247 233.084 349.413C233.084 348.588 233.754 347.909 234.588 347.909C235.422 347.909 236.092 348.588 236.092 349.413Z" fill="black"/>
<path d="M70.0079 462.13C70.0079 462.955 69.3377 463.634 68.504 463.634C67.6702 463.634 67 462.964 67 462.13C67 461.304 67.6702 460.626 68.504 460.626C69.3377 460.626 70.0079 461.296 70.0079 462.13Z" fill="black"/>
<path d="M82.9727 462.13C82.9727 462.955 82.3025 463.634 81.4688 463.634C80.6433 463.634 79.9648 462.964 79.9648 462.13C79.9648 461.304 80.6351 460.626 81.4688 460.626C82.3025 460.626 82.9727 461.296 82.9727 462.13Z" fill="black"/>
<path d="M95.9356 462.13C95.9356 462.955 95.2654 463.634 94.4317 463.634C93.6061 463.634 92.9277 462.964 92.9277 462.13C92.9277 461.304 93.598 460.626 94.4317 460.626C95.2654 460.626 95.9356 461.296 95.9356 462.13Z" fill="black"/>
<path d="M108.899 462.13C108.899 462.955 108.228 463.634 107.395 463.634C106.569 463.634 105.891 462.964 105.891 462.13C105.891 461.304 106.561 460.626 107.395 460.626C108.228 460.626 108.899 461.296 108.899 462.13Z" fill="black"/>
<path d="M121.859 462.13C121.859 462.955 121.189 463.634 120.356 463.634C119.53 463.634 118.852 462.964 118.852 462.13C118.852 461.304 119.522 460.626 120.356 460.626C121.189 460.626 121.859 461.296 121.859 462.13Z" fill="black"/>
<path d="M134.824 462.13C134.824 462.955 134.154 463.634 133.32 463.634C132.495 463.634 131.816 462.964 131.816 462.13C131.816 461.304 132.487 460.626 133.32 460.626C134.154 460.626 134.824 461.296 134.824 462.13Z" fill="black"/>
<path d="M147.787 462.13C147.787 462.955 147.117 463.634 146.283 463.634C145.458 463.634 144.779 462.964 144.779 462.13C144.779 461.304 145.45 460.626 146.283 460.626C147.117 460.626 147.787 461.296 147.787 462.13Z" fill="black"/>
<path d="M70.0079 475.207C70.0079 476.032 69.3377 476.711 68.504 476.711C67.6702 476.711 67 476.04 67 475.207C67 474.381 67.6702 473.703 68.504 473.703C69.3377 473.703 70.0079 474.373 70.0079 475.207Z" fill="black"/>
<path d="M82.9727 475.207C82.9727 476.032 82.3025 476.711 81.4688 476.711C80.6433 476.711 79.9648 476.04 79.9648 475.207C79.9648 474.381 80.6351 473.703 81.4688 473.703C82.3025 473.703 82.9727 474.373 82.9727 475.207Z" fill="black"/>
<path d="M95.9356 475.207C95.9356 476.032 95.2654 476.711 94.4317 476.711C93.6061 476.711 92.9277 476.04 92.9277 475.207C92.9277 474.381 93.598 473.703 94.4317 473.703C95.2654 473.703 95.9356 474.373 95.9356 475.207Z" fill="black"/>
<path d="M108.899 475.207C108.899 476.032 108.228 476.711 107.395 476.711C106.569 476.711 105.891 476.04 105.891 475.207C105.891 474.381 106.561 473.703 107.395 473.703C108.228 473.703 108.899 474.373 108.899 475.207Z" fill="black"/>
<path d="M121.859 475.207C121.859 476.032 121.189 476.711 120.356 476.711C119.53 476.711 118.852 476.04 118.852 475.207C118.852 474.381 119.522 473.703 120.356 473.703C121.189 473.703 121.859 474.373 121.859 475.207Z" fill="black"/>
<path d="M134.824 475.207C134.824 476.032 134.154 476.711 133.32 476.711C132.495 476.711 131.816 476.04 131.816 475.207C131.816 474.381 132.487 473.703 133.32 473.703C134.154 473.703 134.824 474.373 134.824 475.207Z" fill="black"/>
<path d="M147.787 475.207C147.787 476.032 147.117 476.711 146.283 476.711C145.458 476.711 144.779 476.04 144.779 475.207C144.779 474.381 145.45 473.703 146.283 473.703C147.117 473.703 147.787 474.373 147.787 475.207Z" fill="black"/>
<path d="M70.0079 448.041C70.0079 448.867 69.3377 449.545 68.504 449.545C67.6702 449.545 67 448.875 67 448.041C67 447.216 67.6702 446.537 68.504 446.537C69.3377 446.537 70.0079 447.207 70.0079 448.041Z" fill="black"/>
<path d="M82.9727 448.041C82.9727 448.867 82.3025 449.545 81.4688 449.545C80.6433 449.545 79.9648 448.875 79.9648 448.041C79.9648 447.216 80.6351 446.537 81.4688 446.537C82.3025 446.537 82.9727 447.207 82.9727 448.041Z" fill="black"/>
<path d="M95.9356 448.041C95.9356 448.867 95.2654 449.545 94.4317 449.545C93.6061 449.545 92.9277 448.875 92.9277 448.041C92.9277 447.216 93.598 446.537 94.4317 446.537C95.2654 446.537 95.9356 447.207 95.9356 448.041Z" fill="black"/>
<path d="M108.899 448.041C108.899 448.867 108.228 449.545 107.395 449.545C106.569 449.545 105.891 448.875 105.891 448.041C105.891 447.216 106.561 446.537 107.395 446.537C108.228 446.537 108.899 447.207 108.899 448.041Z" fill="black"/>
<path d="M121.859 448.041C121.859 448.867 121.189 449.545 120.356 449.545C119.53 449.545 118.852 448.875 118.852 448.041C118.852 447.216 119.522 446.537 120.356 446.537C121.189 446.537 121.859 447.207 121.859 448.041Z" fill="black"/>
<path d="M134.824 448.041C134.824 448.867 134.154 449.545 133.32 449.545C132.495 449.545 131.816 448.875 131.816 448.041C131.816 447.216 132.487 446.537 133.32 446.537C134.154 446.537 134.824 447.207 134.824 448.041Z" fill="black"/>
<path d="M147.787 448.041C147.787 448.867 147.117 449.545 146.283 449.545C145.458 449.545 144.779 448.875 144.779 448.041C144.779 447.216 145.45 446.537 146.283 446.537C147.117 446.537 147.787 447.207 147.787 448.041Z" fill="black"/>
<path d="M70.0079 433.952C70.0079 434.778 69.3377 435.456 68.504 435.456C67.6702 435.456 67 434.786 67 433.952C67 433.127 67.6702 432.448 68.504 432.448C69.3377 432.448 70.0079 433.118 70.0079 433.952Z" fill="black"/>
<path d="M82.9727 433.952C82.9727 434.778 82.3025 435.456 81.4688 435.456C80.6433 435.456 79.9648 434.786 79.9648 433.952C79.9648 433.127 80.6351 432.448 81.4688 432.448C82.3025 432.448 82.9727 433.118 82.9727 433.952Z" fill="black"/>
<path d="M95.9356 433.952C95.9356 434.778 95.2654 435.456 94.4317 435.456C93.6061 435.456 92.9277 434.786 92.9277 433.952C92.9277 433.127 93.598 432.448 94.4317 432.448C95.2654 432.448 95.9356 433.118 95.9356 433.952Z" fill="black"/>
<path d="M108.899 433.952C108.899 434.778 108.228 435.456 107.395 435.456C106.569 435.456 105.891 434.786 105.891 433.952C105.891 433.127 106.561 432.448 107.395 432.448C108.228 432.448 108.899 433.118 108.899 433.952Z" fill="black"/>
<path d="M121.859 433.952C121.859 434.778 121.189 435.456 120.356 435.456C119.53 435.456 118.852 434.786 118.852 433.952C118.852 433.127 119.522 432.448 120.356 432.448C121.189 432.448 121.859 433.118 121.859 433.952Z" fill="black"/>
<path d="M134.824 433.952C134.824 434.778 134.154 435.456 133.32 435.456C132.495 435.456 131.816 434.786 131.816 433.952C131.816 433.127 132.487 432.448 133.32 432.448C134.154 432.448 134.824 433.118 134.824 433.952Z" fill="black"/>
<path d="M147.787 433.952C147.787 434.778 147.117 435.456 146.283 435.456C145.458 435.456 144.779 434.786 144.779 433.952C144.779 433.127 145.45 432.448 146.283 432.448C147.117 432.448 147.787 433.118 147.787 433.952Z" fill="black"/>
<path d="M70.0079 419.863C70.0079 420.689 69.3377 421.367 68.504 421.367C67.6702 421.367 67 420.697 67 419.863C67 419.038 67.6702 418.359 68.504 418.359C69.3377 418.359 70.0079 419.03 70.0079 419.863Z" fill="black"/>
<path d="M82.9727 419.863C82.9727 420.689 82.3025 421.367 81.4688 421.367C80.6433 421.367 79.9648 420.697 79.9648 419.863C79.9648 419.038 80.6351 418.359 81.4688 418.359C82.3025 418.359 82.9727 419.03 82.9727 419.863Z" fill="black"/>
<path d="M95.9356 419.863C95.9356 420.689 95.2654 421.367 94.4317 421.367C93.6061 421.367 92.9277 420.697 92.9277 419.863C92.9277 419.038 93.598 418.359 94.4317 418.359C95.2654 418.359 95.9356 419.03 95.9356 419.863Z" fill="black"/>
<path d="M108.899 419.863C108.899 420.689 108.228 421.367 107.395 421.367C106.569 421.367 105.891 420.697 105.891 419.863C105.891 419.038 106.561 418.359 107.395 418.359C108.228 418.359 108.899 419.03 108.899 419.863Z" fill="black"/>
<path d="M121.859 419.863C121.859 420.689 121.189 421.367 120.356 421.367C119.53 421.367 118.852 420.697 118.852 419.863C118.852 419.038 119.522 418.359 120.356 418.359C121.189 418.359 121.859 419.03 121.859 419.863Z" fill="black"/>
<path d="M134.824 419.863C134.824 420.689 134.154 421.367 133.32 421.367C132.495 421.367 131.816 420.697 131.816 419.863C131.816 419.038 132.487 418.359 133.32 418.359C134.154 418.359 134.824 419.03 134.824 419.863Z" fill="black"/>
<path d="M147.787 419.863C147.787 420.689 147.117 421.367 146.283 421.367C145.458 421.367 144.779 420.697 144.779 419.863C144.779 419.038 145.45 418.359 146.283 418.359C147.117 418.359 147.787 419.03 147.787 419.863Z" fill="black"/>
<path d="M70.0079 405.774C70.0079 406.6 69.3377 407.278 68.504 407.278C67.6702 407.278 67 406.608 67 405.774C67 404.949 67.6702 404.271 68.504 404.271C69.3377 404.271 70.0079 404.941 70.0079 405.774Z" fill="black"/>
<path d="M82.9727 405.774C82.9727 406.6 82.3025 407.278 81.4688 407.278C80.6433 407.278 79.9648 406.608 79.9648 405.774C79.9648 404.949 80.6351 404.271 81.4688 404.271C82.3025 404.271 82.9727 404.941 82.9727 405.774Z" fill="black"/>
<path d="M95.9356 405.774C95.9356 406.6 95.2654 407.278 94.4317 407.278C93.6061 407.278 92.9277 406.608 92.9277 405.774C92.9277 404.949 93.598 404.271 94.4317 404.271C95.2654 404.271 95.9356 404.941 95.9356 405.774Z" fill="black"/>
<path d="M108.899 405.774C108.899 406.6 108.228 407.278 107.395 407.278C106.569 407.278 105.891 406.608 105.891 405.774C105.891 404.949 106.561 404.271 107.395 404.271C108.228 404.271 108.899 404.941 108.899 405.774Z" fill="black"/>
<path d="M121.859 405.774C121.859 406.6 121.189 407.278 120.356 407.278C119.53 407.278 118.852 406.608 118.852 405.774C118.852 404.949 119.522 404.271 120.356 404.271C121.189 404.271 121.859 404.941 121.859 405.774Z" fill="black"/>
<path d="M134.824 405.774C134.824 406.6 134.154 407.278 133.32 407.278C132.495 407.278 131.816 406.608 131.816 405.774C131.816 404.949 132.487 404.271 133.32 404.271C134.154 404.271 134.824 404.941 134.824 405.774Z" fill="black"/>
<path d="M147.787 405.774C147.787 406.6 147.117 407.278 146.283 407.278C145.458 407.278 144.779 406.608 144.779 405.774C144.779 404.949 145.45 404.271 146.283 404.271C147.117 404.271 147.787 404.941 147.787 405.774Z" fill="black"/>
<path d="M70.0079 391.686C70.0079 392.511 69.3377 393.19 68.504 393.19C67.6702 393.19 67 392.519 67 391.686C67 390.86 67.6702 390.182 68.504 390.182C69.3377 390.182 70.0079 390.86 70.0079 391.686Z" fill="black"/>
<path d="M82.9727 391.686C82.9727 392.511 82.3025 393.19 81.4688 393.19C80.6433 393.19 79.9648 392.519 79.9648 391.686C79.9648 390.86 80.6351 390.182 81.4688 390.182C82.3025 390.182 82.9727 390.86 82.9727 391.686Z" fill="black"/>
<path d="M95.9356 391.686C95.9356 392.511 95.2654 393.19 94.4317 393.19C93.6061 393.19 92.9277 392.519 92.9277 391.686C92.9277 390.86 93.598 390.182 94.4317 390.182C95.2654 390.182 95.9356 390.86 95.9356 391.686Z" fill="black"/>
<path d="M108.899 391.686C108.899 392.511 108.228 393.19 107.395 393.19C106.569 393.19 105.891 392.519 105.891 391.686C105.891 390.86 106.561 390.182 107.395 390.182C108.228 390.182 108.899 390.86 108.899 391.686Z" fill="black"/>
<path d="M121.859 391.686C121.859 392.511 121.189 393.19 120.356 393.19C119.53 393.19 118.852 392.519 118.852 391.686C118.852 390.86 119.522 390.182 120.356 390.182C121.189 390.182 121.859 390.86 121.859 391.686Z" fill="black"/>
<path d="M134.824 391.686C134.824 392.511 134.154 393.19 133.32 393.19C132.495 393.19 131.816 392.519 131.816 391.686C131.816 390.86 132.487 390.182 133.32 390.182C134.154 390.182 134.824 390.86 134.824 391.686Z" fill="black"/>
<path d="M147.787 391.686C147.787 392.511 147.117 393.19 146.283 393.19C145.458 393.19 144.779 392.519 144.779 391.686C144.779 390.86 145.45 390.182 146.283 390.182C147.117 390.182 147.787 390.86 147.787 391.686Z" fill="black"/>
<path d="M519.871 422.463C519.871 426.625 516.007 430 511.241 430H92.6298C87.8641 430 84 426.625 84 422.463V419.538C84 415.375 87.8641 412 92.6298 412H511.37C516.136 412 520 415.375 520 419.538V422.463H519.871Z" fill="#EBEBEB"/>
<path d="M212.316 401.855H322.033V373.894H212.316V401.855Z" fill="#6C6C6C"/>
<path d="M212.316 401.904H322.033V392.512H212.316V401.904Z" fill="black"/>
<path d="M211.277 401.891H322.94C336.02 401.891 346.613 410.959 346.613 422.079H187.604C187.604 410.959 198.197 401.891 211.277 401.891Z" fill="#6C6C6C"/>
<path d="M96.5858 373.929H438.17C441.304 373.929 443.791 371.446 443.791 368.315V173.987C443.791 170.857 441.304 168.374 438.17 168.374H96.5858C93.4511 168.374 90.9648 170.857 90.9648 173.987V368.315C90.9648 371.338 93.4511 373.929 96.5858 373.929Z" fill="black"/>
<path d="M99.9355 371.122H434.925C438.06 371.122 440.546 368.639 440.546 365.508V176.686C440.546 173.555 438.06 171.072 434.925 171.072H99.9355C96.8007 171.072 94.3145 173.555 94.3145 176.686V365.508C94.3145 368.639 96.8007 371.122 99.9355 371.122Z" fill="#ECECEC"/>
<path d="M112.585 354.604H422.172C424.875 354.604 427.037 352.445 427.037 349.746V192.449C427.037 189.75 424.875 187.59 422.172 187.59H112.585C109.883 187.59 107.721 189.75 107.721 192.449V349.746C107.721 352.445 109.883 354.604 112.585 354.604Z" fill="#ECECEC"/>
<path d="M131.821 86.5H402.926C405.468 86.5 407.512 88.4455 407.614 90.9761V313.148V326.103V331.501C407.614 334.031 405.569 336.075 403.034 336.075H131.821C129.286 336.075 127.24 334.031 127.24 331.501V326.103V313.148V91.0741C127.24 88.5439 129.286 86.5 131.821 86.5Z" fill="#BABABA" stroke="black"/>
<path d="M131.821 86H403.034C405.844 86 408.114 88.2672 408.114 91.0741V109.427H126.74V91.0741C126.74 88.1592 129.01 86 131.821 86Z" fill="#6C6C6C"/>
<path d="M390.604 97.984C390.604 99.9273 392.117 101.439 394.063 101.439C396.008 101.439 397.522 99.9273 397.522 97.984C397.522 96.0407 396.008 94.5293 394.063 94.5293C392.225 94.5293 390.604 96.0407 390.604 97.984Z" fill="#FFCA41"/>
<path d="M376.982 97.984C376.982 99.9273 378.496 101.439 380.441 101.439C382.387 101.439 383.901 99.9273 383.901 97.984C383.901 96.0407 382.387 94.5293 380.441 94.5293C378.604 94.5293 376.982 96.0407 376.982 97.984Z" fill="black"/>
<path d="M363.363 97.984C363.363 99.9273 364.877 101.439 366.822 101.439C368.768 101.439 370.281 99.9273 370.281 97.984C370.281 96.0407 368.768 94.5293 366.822 94.5293C364.985 94.5293 363.363 96.0407 363.363 97.984Z" fill="#F8BD31"/>
<path d="M142.09 103.381H352.336C353.201 103.381 353.85 102.734 353.85 101.87V93.989C353.85 93.1253 353.201 92.4775 352.336 92.4775H142.09C141.225 92.4775 140.576 93.1253 140.576 93.989V101.87C140.576 102.734 141.225 103.381 142.09 103.381Z" fill="black"/>
<path d="M197.869 125.729H126.742V325.995H197.869V125.729Z" fill="#BABABA"/>
<path d="M408.008 109.319H126.742V136.309H408.008V109.319Z" fill="#FFCA41"/>
<path d="M203.705 200.545H345.744C346.609 200.545 347.365 199.79 347.365 198.926V147.321C347.365 146.457 346.609 145.702 345.744 145.702H203.705C202.841 145.702 202.084 146.457 202.084 147.321V198.926C202.084 199.79 202.841 200.545 203.705 200.545Z" fill="white"/>
<path d="M203.705 145.81C202.841 145.81 202.084 146.565 202.084 147.429V199.034C202.084 199.897 202.841 200.653 203.705 200.653H256.889V145.918H203.705V145.81Z" fill="white"/>
<path d="M342.392 169.993H262.076V171.828H342.392V169.993Z" fill="#343434"/>
<path d="M303.045 174.743H262.076V176.578H303.045V174.743Z" fill="#343434"/>
<path d="M342.391 174.743H305.963V176.578H342.391V174.743Z" fill="#343434"/>
<path d="M279.372 179.493H262.076V181.328H279.372V179.493Z" fill="#343434"/>
<path d="M313.744 179.493H282.072V181.328H313.744V179.493Z" fill="#343434"/>
<path d="M328.555 152.179H262.076V156.714H328.555V152.179Z" fill="#6C6C6C"/>
<path d="M293.856 159.521H262.076V164.055H293.856V159.521Z" fill="#6C6C6C"/>
<path d="M342.392 159.521H297.748V164.055H342.392V159.521Z" fill="#6C6C6C"/>
<path d="M342.393 191.153C342.393 193.204 340.771 194.824 338.717 194.824H318.503C316.45 194.824 314.828 193.204 314.828 191.153C314.828 189.102 316.45 187.482 318.503 187.482H338.717C340.771 187.59 342.393 189.21 342.393 191.153Z" fill="#FFCA41"/>
<path d="M309.638 190.289H262.076V192.124H309.638V190.289Z" fill="#343434"/>
<path d="M207.104 195.843H251.748V151.256H207.104V195.843Z" stroke="#343434" stroke-width="1.8647" stroke-miterlimit="10"/>
<path d="M251.808 151.208L207.164 195.795" stroke="#343434" stroke-width="1.8647" stroke-miterlimit="10"/>
<path d="M207.164 151.208L251.808 195.795" stroke="#343434" stroke-width="1.8647" stroke-miterlimit="10"/>
<path d="M203.705 262.19H345.744C346.609 262.19 347.365 261.435 347.365 260.571V209.074C347.365 208.21 346.609 207.455 345.744 207.455H203.705C202.841 207.455 202.084 208.21 202.084 209.074V260.679C202.084 261.435 202.841 262.19 203.705 262.19Z" fill="white"/>
<path d="M203.705 207.455C202.841 207.455 202.084 208.21 202.084 209.074V260.679C202.084 261.542 202.841 262.298 203.705 262.298H256.889V207.563H203.705V207.455Z" fill="white"/>
<path d="M342.392 231.638H262.076V233.473H342.392V231.638Z" fill="#343434"/>
<path d="M303.045 236.388H262.076V238.223H303.045V236.388Z" fill="#343434"/>
<path d="M342.391 236.388H305.963V238.223H342.391V236.388Z" fill="#343434"/>
<path d="M279.372 241.138H262.076V242.973H279.372V241.138Z" fill="#343434"/>
<path d="M313.744 241.138H282.072V242.973H313.744V241.138Z" fill="#343434"/>
<path d="M328.555 213.932H262.076V218.466H328.555V213.932Z" fill="#6C6C6C"/>
<path d="M293.856 221.166H262.076V225.7H293.856V221.166Z" fill="#6C6C6C"/>
<path d="M342.392 221.166H297.748V225.7H342.392V221.166Z" fill="#6C6C6C"/>
<path d="M342.393 252.798C342.393 254.849 340.771 256.469 338.717 256.469H318.503C316.45 256.469 314.828 254.849 314.828 252.798C314.828 250.855 316.45 249.127 318.503 249.127H338.717C340.771 249.235 342.393 250.855 342.393 252.798Z" fill="#F8BD31"/>
<path d="M309.638 251.934H262.076V253.769H309.638V251.934Z" fill="#343434"/>
<path d="M207.104 257.5H251.748V212.913H207.104V257.5Z" stroke="#343434" stroke-width="1.8647" stroke-miterlimit="10"/>
<path d="M251.808 212.853L207.164 257.44" stroke="#343434" stroke-width="1.8647" stroke-miterlimit="10"/>
<path d="M207.164 212.853L251.808 257.44" stroke="#343434" stroke-width="1.8647" stroke-miterlimit="10"/>
<path d="M203.705 323.835H345.744C346.609 323.835 347.365 323.08 347.365 322.216V270.611C347.365 269.747 346.609 268.992 345.744 268.992H203.705C202.841 268.992 202.084 269.747 202.084 270.611V322.216C202.084 323.08 202.841 323.835 203.705 323.835Z" fill="white"/>
<path d="M203.705 269.1C202.841 269.1 202.084 269.855 202.084 270.719V322.324C202.084 323.187 202.841 323.943 203.705 323.943H256.889V269.208H203.705V269.1Z" fill="white"/>
<path d="M342.392 293.283H262.076V295.118H342.392V293.283Z" fill="#343434"/>
<path d="M303.045 298.033H262.076V299.868H303.045V298.033Z" fill="#343434"/>
<path d="M342.391 298.033H305.963V299.868H342.391V298.033Z" fill="#343434"/>
<path d="M279.372 302.783H262.076V304.619H279.372V302.783Z" fill="#343434"/>
<path d="M313.744 302.783H282.072V304.619H313.744V302.783Z" fill="#343434"/>
<path d="M328.555 275.577H262.076V280.111H328.555V275.577Z" fill="#6C6C6C"/>
<path d="M293.856 282.81H262.076V287.344H293.856V282.81Z" fill="#6C6C6C"/>
<path d="M342.392 282.81H297.748V287.344H342.392V282.81Z" fill="#6C6C6C"/>
<path d="M342.393 314.551C342.393 316.602 340.771 318.221 338.717 318.221H318.503C316.45 318.221 314.828 316.602 314.828 314.551C314.828 312.607 316.45 310.88 318.503 310.88H338.717C340.771 310.88 342.393 312.499 342.393 314.551Z" fill="#FFCA41"/>
<path d="M309.638 313.579H262.076V315.414H309.638V313.579Z" fill="#343434"/>
<path d="M207.104 319.155H251.748V274.568H207.104V319.155Z" stroke="#343434" stroke-width="1.8647" stroke-miterlimit="10"/>
<path d="M251.808 274.498L207.164 319.085" stroke="#343434" stroke-width="1.8647" stroke-miterlimit="10"/>
<path d="M207.164 274.498L251.808 319.085" stroke="#343434" stroke-width="1.8647" stroke-miterlimit="10"/>
<path d="M137.768 176.254H192.465C193.005 176.254 193.33 175.822 193.33 175.39V146.673C193.33 146.133 192.897 145.809 192.465 145.809H137.768C137.228 145.809 136.903 146.241 136.903 146.673V175.39C136.795 175.93 137.228 176.254 137.768 176.254Z" fill="#F8BD31"/>
<path d="M180.466 155.958H141.768V159.844H180.466V155.958Z" fill="#6C6C6C"/>
<path d="M160.252 162.219H141.768V166.106H160.252V162.219Z" fill="#6C6C6C"/>
<path d="M188.573 162.219H162.521V166.106H188.573V162.219Z" fill="#6C6C6C"/>
<path d="M137.768 281.623H192.465C193.005 281.623 193.33 281.191 193.33 280.759V252.042C193.33 251.502 192.897 251.178 192.465 251.178H137.768C137.228 251.178 136.903 251.61 136.903 252.042V280.759C136.795 281.299 137.228 281.623 137.768 281.623Z" fill="#FFCA41"/>
<path d="M180.466 261.327H141.768V265.214H180.466V261.327Z" fill="white"/>
<path d="M160.252 267.589H141.768V271.475H160.252V267.589Z" fill="white"/>
<path d="M188.573 267.589H162.521V271.475H188.573V267.589Z" fill="white"/>
<path d="M185.007 184.458H152.254V188.345H185.007V184.458Z" fill="#343434"/>
<path d="M167.928 190.72H152.254V192.232H167.928V190.72Z" fill="white"/>
<path d="M191.817 190.72H169.766V192.232H191.817V190.72Z" fill="white"/>
<path d="M149.875 188.345C149.875 191.908 146.957 194.931 143.281 194.931C139.714 194.931 136.688 192.016 136.688 188.345C136.688 184.783 139.606 181.76 143.281 181.76C146.957 181.868 149.875 184.783 149.875 188.345Z" fill="white"/>
<path d="M185.007 204.431H152.254V208.318H185.007V204.431Z" fill="#343434"/>
<path d="M167.928 210.693H152.254V212.204H167.928V210.693Z" fill="white"/>
<path d="M191.817 210.693H169.766V212.204H191.817V210.693Z" fill="white"/>
<path d="M149.875 208.318C149.875 211.881 146.957 214.904 143.281 214.904C139.714 214.904 136.688 211.989 136.688 208.318C136.688 204.647 139.606 201.732 143.281 201.732C146.957 201.84 149.875 204.755 149.875 208.318Z" fill="white"/>
<path d="M185.007 290.368H152.254V294.254H185.007V290.368Z" fill="#343434"/>
<path d="M167.928 296.629H152.254V298.141H167.928V296.629Z" fill="white"/>
<path d="M191.817 296.629H169.766V298.141H191.817V296.629Z" fill="white"/>
<path d="M149.875 294.254C149.875 297.817 146.957 300.84 143.281 300.84C139.714 300.84 136.688 297.925 136.688 294.254C136.688 290.691 139.606 287.776 143.281 287.776C146.957 287.776 149.875 290.691 149.875 294.254Z" fill="white"/>
<path d="M185.007 310.34H152.254V314.227H185.007V310.34Z" fill="#343434"/>
<path d="M167.928 316.602H152.254V318.113H167.928V316.602Z" fill="white"/>
<path d="M191.817 316.602H169.766V318.113H191.817V316.602Z" fill="white"/>
<path d="M149.875 314.227C149.875 317.789 146.957 320.812 143.281 320.812C139.714 320.812 136.688 317.897 136.688 314.227C136.688 310.556 139.606 307.641 143.281 307.641C146.957 307.749 149.875 310.664 149.875 314.227Z" fill="white"/>
<path d="M185.007 224.404H152.254V228.29H185.007V224.404Z" fill="#343434"/>
<path d="M167.928 230.666H152.254V232.177H167.928V230.666Z" fill="white"/>
<path d="M191.817 230.666H169.766V232.177H191.817V230.666Z" fill="white"/>
<path d="M149.875 228.291C149.875 231.853 146.957 234.876 143.281 234.876C139.714 234.876 136.688 231.961 136.688 228.291C136.688 224.728 139.606 221.705 143.281 221.705C146.957 221.705 149.875 224.62 149.875 228.291Z" fill="white"/>
<path d="M152.469 242.326H136.795V243.837H152.469V242.326Z" fill="white"/>
<path d="M358.176 176.47H396.766C397.631 176.47 398.388 175.715 398.388 174.851V147.321C398.388 146.457 397.631 145.702 396.766 145.702H358.176C357.311 145.702 356.555 146.457 356.555 147.321V174.851C356.555 175.822 357.311 176.47 358.176 176.47Z" fill="white"/>
<path d="M358.176 306.67H396.766C397.631 306.67 398.388 305.914 398.388 305.05V185.863C398.388 184.999 397.631 184.243 396.766 184.243H358.176C357.311 184.243 356.555 184.999 356.555 185.863V305.05C356.555 305.914 357.311 306.67 358.176 306.67Z" fill="white"/>
<path d="M391.254 313.58H356.555V317.466H391.254V313.58Z" fill="#343434"/>
<path d="M373.093 319.841H356.555V323.728H373.093V319.841Z" fill="#343434"/>
<path d="M398.603 319.841H375.254V323.728H398.603V319.841Z" fill="#343434"/>
<path d="M192.356 129.076H342.286C343.259 129.076 344.015 128.32 344.015 127.349V118.28C344.015 117.308 343.259 116.553 342.286 116.553H192.356C191.384 116.553 190.627 117.308 190.627 118.28V127.349C190.735 128.32 191.492 129.076 192.356 129.076Z" fill="white"/>
<path d="M180.466 120.872H141.768V124.758H180.466V120.872Z" fill="white"/>
<path d="M364.662 122.815C364.662 126.377 361.744 129.4 358.068 129.4C354.501 129.4 351.475 126.485 351.475 122.815C351.475 119.252 354.393 116.229 358.068 116.229C361.744 116.337 364.662 119.252 364.662 122.815Z" fill="#F8BD31"/>
<path d="M385.414 242.865C385.414 256.36 396.332 267.264 409.844 267.264C423.356 267.264 434.274 256.36 434.274 242.865C434.274 229.37 423.356 218.466 409.844 218.466C396.332 218.466 385.414 229.37 385.414 242.865Z" fill="#F8BD31"/>
<path d="M399.25 237.036C399.25 242.865 403.898 247.508 409.735 247.508C415.572 247.508 420.221 242.865 420.221 237.036C420.221 231.206 415.572 226.563 409.735 226.563C404.006 226.563 399.25 231.206 399.25 237.036Z" fill="#FFFCFF"/>
<path d="M409.845 267.156C403.683 267.156 398.062 264.889 393.738 261.11C394.495 252.905 401.413 246.536 409.845 246.536C418.276 246.536 425.194 252.905 425.951 261.11C421.627 264.889 416.006 267.156 409.845 267.156Z" fill="#FFFCFF"/>
<path d="M142.198 257.656H81.3394C80.6909 257.656 80.1504 257.116 80.1504 256.468V209.83C80.1504 209.182 80.6909 208.642 81.3394 208.642H142.198C142.846 208.642 143.387 209.182 143.387 209.83V256.468C143.387 257.116 142.846 257.656 142.198 257.656Z" fill="white"/>
<path d="M138.414 253.769H85.1227C84.4741 253.769 83.9336 253.229 83.9336 252.582V213.5C83.9336 212.852 84.4741 212.312 85.1227 212.312H138.522C139.171 212.312 139.711 212.852 139.711 213.5V252.582C139.603 253.229 139.171 253.769 138.414 253.769Z" fill="#FFCA41"/>
<path d="M105.336 223.972V242.11C105.336 243.945 107.39 244.917 108.903 243.837L121.118 234.768C122.307 233.905 122.307 232.069 121.118 231.206L108.903 222.137C107.498 221.165 105.336 222.245 105.336 223.972Z" fill="#FFFCFF"/>
<path d="M280.021 363.781H227.378C226.837 363.781 226.297 363.349 226.297 362.701V310.125C226.297 309.585 226.729 309.045 227.378 309.045H280.021C280.561 309.045 281.102 309.477 281.102 310.125V362.701C281.102 363.241 280.669 363.781 280.021 363.781Z" fill="white"/>
<path d="M276.236 359.894H231.16C230.62 359.894 230.188 359.462 230.188 358.922V313.903C230.188 313.363 230.62 312.931 231.16 312.931H276.236C276.777 312.931 277.209 313.363 277.209 313.903V358.922C277.209 359.462 276.777 359.894 276.236 359.894Z" fill="#F8BD31"/>
<path d="M271.048 340.677C271.048 350.286 263.265 357.951 253.752 357.951C244.132 357.951 236.457 350.178 236.457 340.677C236.457 331.069 244.24 323.404 253.752 323.404C263.265 323.404 271.048 331.177 271.048 340.677Z" fill="#F7AB32"/>
<path d="M264.022 328.37C264.022 332.796 260.454 336.359 256.023 336.359C251.591 336.359 248.023 332.796 248.023 328.37C248.023 323.944 251.591 320.381 256.023 320.381C260.454 320.381 264.022 323.944 264.022 328.37Z" fill="#FFFCFF"/>
<path d="M277.208 358.49V348.126L269.317 337.654C268.452 336.466 266.614 336.466 265.75 337.654L248.887 359.894H275.803C276.559 359.894 277.208 359.246 277.208 358.49Z" fill="#FFCA41"/>
<path d="M264.886 359.894L256.887 349.422L271.804 359.894H264.886Z" fill="#BF3C2B"/>
<path d="M237.97 330.637L230.188 340.893V358.49C230.188 359.246 230.836 359.894 231.593 359.894H264.886L242.619 330.529C241.538 329.017 239.159 329.017 237.97 330.637Z" fill="#FFCA41"/>
</svg>
