<svg width="131" height="102" viewBox="0 0 131 102" fill="none" xmlns="http://www.w3.org/2000/svg">
<path d="M42.5416 70.2559H34.4385V94.5653H42.5416V70.2559Z" fill="black"/>
<path d="M42.4501 69.9214H34.5293V72.6461H42.4501V69.9214Z" fill="#A5A5A5"/>
<path d="M40.5157 40.5981H36.4844V69.9213H40.5157V40.5981Z" fill="#7C7B7A"/>
<path d="M40.5157 40.5981H36.4844V59.5595H40.5157V40.5981Z" fill="black"/>
<path d="M75.6833 0.366211H1.30664V53.5025H75.6833V0.366211Z" fill="#939393"/>
<path d="M71.7739 4.27588H5.2168V49.6028H71.7739V4.27588Z" fill="white"/>
<path d="M34.7932 93.5522H41.5998C45.1449 93.5522 48.0317 96.4289 48.0317 99.9841H28.3613C28.3613 96.439 31.2379 93.5522 34.7932 93.5522Z" fill="black"/>
<path d="M0 53.1275C0 53.7352 0.496317 54.2315 1.10405 54.2315H75.896C76.5037 54.2315 77 53.7352 77 53.1275C77 52.5198 76.5037 52.0234 75.896 52.0234H1.10405C0.496317 52.0234 0 52.5198 0 53.1275Z" fill="black"/>
<path d="M61.4922 48.2761C61.4922 49.0763 62.1404 49.7245 62.9406 49.7245H68.8053C69.6054 49.7245 70.2537 49.0763 70.2537 48.2761C70.2537 47.4759 69.6054 46.8276 68.8053 46.8276H62.9406C62.1303 46.8276 61.4922 47.4759 61.4922 48.2761Z" fill="#FFCA41"/>
<path d="M34.1035 48.2761C34.1035 49.0763 34.7518 49.7245 35.552 49.7245H41.4166C42.2168 49.7245 42.865 49.0763 42.865 48.2761C42.865 47.4759 42.2168 46.8276 41.4166 46.8276H35.552C34.7518 46.8276 34.1035 47.4759 34.1035 48.2761Z" fill="#FFCA41"/>
<path d="M6.75586 48.2761C6.75586 49.0763 7.40411 49.7245 8.20429 49.7245H14.0689C14.8691 49.7245 15.5174 49.0763 15.5174 48.2761C15.5174 47.4759 14.8691 46.8276 14.0689 46.8276H8.19417C7.39398 46.8276 6.75586 47.4759 6.75586 48.2761Z" fill="#FFCA41"/>
<path d="M60.3984 49.5218C60.3984 50.5144 61.2087 51.3247 62.2014 51.3247H69.5347C70.5274 51.3247 71.3377 50.5144 71.3377 49.5218C71.3377 48.519 70.5274 47.7188 69.5347 47.7188H62.2014C61.1986 47.7087 60.3984 48.519 60.3984 49.5218Z" fill="black"/>
<path d="M33.0098 49.5218C33.0098 50.5144 33.8201 51.3247 34.8127 51.3247H42.146C43.1488 51.3247 43.949 50.5144 43.949 49.5218C43.949 48.519 43.1387 47.7188 42.146 47.7188H34.8127C33.8099 47.7087 33.0098 48.519 33.0098 49.5218Z" fill="black"/>
<path d="M5.65137 49.5218C5.65137 50.5144 6.46168 51.3247 7.45431 51.3247H14.7775C15.7803 51.3247 16.5906 50.5144 16.5906 49.5218C16.5906 48.519 15.7803 47.7188 14.7775 47.7188H7.46444C6.46168 47.7087 5.65137 48.519 5.65137 49.5218Z" fill="black"/>
<path d="M65.1787 52.996C65.1787 53.3707 65.4826 53.6847 65.8573 53.6847C66.2422 53.6847 66.5461 53.3809 66.5461 52.996V49.8661C66.5461 49.4914 66.2422 49.1875 65.8573 49.1875C65.4826 49.1875 65.1787 49.4914 65.1787 49.8661V52.996Z" fill="black"/>
<path d="M37.791 52.996C37.791 53.3707 38.0949 53.6847 38.4798 53.6847C38.8546 53.6847 39.1685 53.3809 39.1685 52.996V49.8661C39.1685 49.4914 38.8647 49.1875 38.4798 49.1875C38.105 49.1875 37.791 49.4914 37.791 49.8661V52.996Z" fill="black"/>
<path d="M10.4424 52.996C10.4424 53.3707 10.7462 53.6847 11.121 53.6847C11.4958 53.6847 11.8098 53.3809 11.8098 52.996V49.8661C11.8098 49.4914 11.5059 49.1875 11.121 49.1875C10.7462 49.1875 10.4424 49.4914 10.4424 49.8661V52.996Z" fill="black"/>
<circle cx="38.9961" cy="26.1948" r="17.7256" fill="#FFCA41"/>
</svg>
