<svg width="360" height="443" viewBox="0 0 360 443" fill="none" xmlns="http://www.w3.org/2000/svg">
<g clip-path="url(#clip0_303_870)">
<path d="M176.54 99.6788H175.408V88.3048C175.408 85.6381 173.241 83.4722 170.574 83.4722C167.907 83.4722 165.741 85.6381 165.741 88.3048V99.6788H164.609L109.895 202.034L113.096 204.81C123.96 214.224 131.46 226.72 134.781 240.423H122.795C120.128 240.423 117.962 242.589 117.962 245.255C117.962 247.922 120.128 250.088 122.795 250.088H136.403C136.609 252.232 136.729 254.387 136.729 256.553V270.844H204.419H204.702V250.6C204.713 250.425 204.724 250.262 204.746 250.088H218.353C221.02 250.088 223.187 247.922 223.187 245.255C223.187 242.589 221.02 240.423 218.353 240.423H206.368C209.688 226.709 217.188 214.224 228.053 204.81L231.253 202.034L176.54 99.6788Z" fill="#FFCA41"/>
<path d="M177.269 99.4068H176.137V88.0328C176.137 85.3662 173.97 83.2002 171.303 83.2002C168.636 83.2002 166.47 85.3662 166.47 88.0328V99.4068H165.338L110.624 201.762L113.836 204.538C124.7 213.952 132.201 226.448 135.521 240.151H123.535C120.868 240.151 118.702 242.317 118.702 244.983C118.702 247.65 120.868 249.816 123.535 249.816H137.143C137.35 251.96 137.469 254.115 137.469 256.281V270.572H147.147V256.281C147.147 254.115 147.038 251.96 146.853 249.816H162.78V270.572H195.481H205.159H205.442V250.328C205.453 250.153 205.464 249.99 205.486 249.816H219.093C221.76 249.816 223.927 247.65 223.927 244.983C223.927 242.317 221.76 240.151 219.093 240.151H207.108C210.428 226.437 217.929 213.952 228.793 204.538L231.993 201.762L177.269 99.4068ZM197.158 240.151H145.438C142.183 224.728 134.334 210.557 122.741 199.574L166.459 117.801V197.876C164.227 199.411 162.769 201.98 162.769 204.897C162.769 209.61 166.59 213.43 171.303 213.43C176.017 213.43 179.838 209.61 179.838 204.897C179.838 201.98 178.368 199.422 176.148 197.876V117.801L219.866 199.574C208.262 210.557 200.413 224.739 197.158 240.151Z" fill="#282A2B"/>
<path d="M11.3215 241.348C11.3215 153.469 82.5711 82.2314 170.465 82.2314C258.36 82.2314 329.609 153.469 329.609 241.348" stroke="#282A2B" stroke-width="2.8347" stroke-miterlimit="10" stroke-linecap="round" stroke-linejoin="round"/>
<path d="M11.8332 231.988C18.3648 231.988 23.6664 237.288 23.6664 243.819C23.6664 250.349 18.3648 255.65 11.8332 255.65C5.30153 255.65 0 250.349 0 243.819C0 237.288 5.29064 231.988 11.8332 231.988Z" fill="#282A2B"/>
<path d="M328.967 231.988C335.499 231.988 340.8 237.288 340.8 243.819C340.8 250.349 335.499 255.65 328.967 255.65C322.435 255.65 317.134 250.349 317.134 243.819C317.134 237.288 322.424 231.988 328.967 231.988Z" fill="#282A2B"/>
<path d="M160.722 92.9453H181.874V71.7973H160.722V92.9453Z" fill="white" stroke="black" stroke-width="2.126" stroke-miterlimit="10"/>
<path d="M114 8H91V32H114V8Z" fill="#FFCA41"/>
<path d="M102 0V40" stroke="#282A2B" stroke-width="2.8347" stroke-miterlimit="10" stroke-linecap="round" stroke-linejoin="round"/>
<path d="M122 20H82" stroke="#282A2B" stroke-width="2.8347" stroke-miterlimit="10" stroke-linecap="round" stroke-linejoin="round"/>
<path d="M36.1478 115.769H18.1423V133.771H36.1478V115.769Z" fill="#FFCA41"/>
<path d="M27.1406 109.178V140.37" stroke="#282A2B" stroke-width="2.8347" stroke-miterlimit="10" stroke-linecap="round" stroke-linejoin="round"/>
<path d="M42.7484 124.774H11.542" stroke="#282A2B" stroke-width="2.8347" stroke-miterlimit="10" stroke-linecap="round" stroke-linejoin="round"/>
<path d="M353.4 319.036H335.394V337.038H353.4V319.036Z" fill="#FFCA41"/>
<path d="M344.401 312.437V343.638" stroke="#282A2B" stroke-width="2.8347" stroke-miterlimit="10" stroke-linecap="round" stroke-linejoin="round"/>
<path d="M360 328.042H328.803" stroke="#282A2B" stroke-width="2.8347" stroke-miterlimit="10" stroke-linecap="round" stroke-linejoin="round"/>
<path d="M123.692 332.691H13.3652V443H123.692V332.691Z" fill="#DDDDDD"/>
<path d="M69.75 396.239C69.75 397.431 68.7826 398.41 67.5791 398.41C66.3757 398.41 65.4082 397.443 65.4082 396.239C65.4082 395.048 66.3757 394.068 67.5791 394.068C68.7826 394.068 69.75 395.036 69.75 396.239Z" fill="#939393"/>
<path d="M88.4627 396.239C88.4627 397.431 87.4952 398.41 86.2918 398.41C85.1001 398.41 84.1208 397.443 84.1208 396.239C84.1208 395.048 85.0883 394.068 86.2918 394.068C87.4952 394.068 88.4627 395.036 88.4627 396.239Z" fill="#939393"/>
<path d="M107.175 396.239C107.175 397.431 106.207 398.41 105.004 398.41C103.812 398.41 102.833 397.443 102.833 396.239C102.833 395.048 103.8 394.068 105.004 394.068C106.207 394.068 107.175 395.036 107.175 396.239Z" fill="#939393"/>
<path d="M125.887 396.239C125.887 397.431 124.92 398.41 123.716 398.41C122.525 398.41 121.545 397.443 121.545 396.239C121.545 395.048 122.513 394.068 123.716 394.068C124.92 394.068 125.887 395.036 125.887 396.239Z" fill="#939393"/>
<path d="M144.599 396.239C144.599 397.431 143.632 398.41 142.428 398.41C141.237 398.41 140.258 397.443 140.258 396.239C140.258 395.048 141.225 394.068 142.428 394.068C143.632 394.068 144.599 395.036 144.599 396.239Z" fill="#939393"/>
<path d="M163.312 396.239C163.312 397.431 162.344 398.41 161.141 398.41C159.949 398.41 158.97 397.443 158.97 396.239C158.97 395.048 159.937 394.068 161.141 394.068C162.344 394.068 163.312 395.036 163.312 396.239Z" fill="#939393"/>
<path d="M182.024 396.239C182.024 397.431 181.056 398.41 179.853 398.41C178.661 398.41 177.682 397.443 177.682 396.239C177.682 395.048 178.65 394.068 179.853 394.068C181.056 394.068 182.024 395.036 182.024 396.239Z" fill="#939393"/>
<path d="M69.75 415.114C69.75 416.305 68.7826 417.285 67.5791 417.285C66.3757 417.285 65.4082 416.317 65.4082 415.114C65.4082 413.922 66.3757 412.943 67.5791 412.943C68.7826 412.943 69.75 413.91 69.75 415.114Z" fill="#939393"/>
<path d="M88.4627 415.114C88.4627 416.305 87.4952 417.285 86.2918 417.285C85.1001 417.285 84.1208 416.317 84.1208 415.114C84.1208 413.922 85.0883 412.943 86.2918 412.943C87.4952 412.943 88.4627 413.91 88.4627 415.114Z" fill="#939393"/>
<path d="M107.175 415.114C107.175 416.305 106.207 417.285 105.004 417.285C103.812 417.285 102.833 416.317 102.833 415.114C102.833 413.922 103.8 412.943 105.004 412.943C106.207 412.943 107.175 413.91 107.175 415.114Z" fill="#939393"/>
<path d="M125.887 415.114C125.887 416.305 124.92 417.285 123.716 417.285C122.525 417.285 121.545 416.317 121.545 415.114C121.545 413.922 122.513 412.943 123.716 412.943C124.92 412.943 125.887 413.91 125.887 415.114Z" fill="#939393"/>
<path d="M144.599 415.114C144.599 416.305 143.632 417.285 142.428 417.285C141.237 417.285 140.258 416.317 140.258 415.114C140.258 413.922 141.225 412.943 142.428 412.943C143.632 412.943 144.599 413.91 144.599 415.114Z" fill="#939393"/>
<path d="M163.312 415.114C163.312 416.305 162.344 417.285 161.141 417.285C159.949 417.285 158.97 416.317 158.97 415.114C158.97 413.922 159.937 412.943 161.141 412.943C162.344 412.943 163.312 413.91 163.312 415.114Z" fill="#939393"/>
<path d="M182.024 415.114C182.024 416.305 181.056 417.285 179.853 417.285C178.661 417.285 177.682 416.317 177.682 415.114C177.682 413.922 178.65 412.943 179.853 412.943C181.056 412.943 182.024 413.91 182.024 415.114Z" fill="#939393"/>
<path d="M69.75 375.902C69.75 377.094 68.7826 378.073 67.5791 378.073C66.3757 378.073 65.4082 377.106 65.4082 375.902C65.4082 374.711 66.3757 373.731 67.5791 373.731C68.7826 373.731 69.75 374.699 69.75 375.902Z" fill="#939393"/>
<path d="M88.4627 375.902C88.4627 377.094 87.4952 378.073 86.2918 378.073C85.1001 378.073 84.1208 377.106 84.1208 375.902C84.1208 374.711 85.0883 373.731 86.2918 373.731C87.4952 373.731 88.4627 374.699 88.4627 375.902Z" fill="#939393"/>
<path d="M107.175 375.902C107.175 377.094 106.207 378.073 105.004 378.073C103.812 378.073 102.833 377.106 102.833 375.902C102.833 374.711 103.8 373.731 105.004 373.731C106.207 373.731 107.175 374.699 107.175 375.902Z" fill="#939393"/>
<path d="M125.887 375.902C125.887 377.094 124.92 378.073 123.716 378.073C122.525 378.073 121.545 377.106 121.545 375.902C121.545 374.711 122.513 373.731 123.716 373.731C124.92 373.731 125.887 374.699 125.887 375.902Z" fill="#939393"/>
<path d="M144.599 375.902C144.599 377.094 143.632 378.073 142.428 378.073C141.237 378.073 140.258 377.106 140.258 375.902C140.258 374.711 141.225 373.731 142.428 373.731C143.632 373.731 144.599 374.699 144.599 375.902Z" fill="#939393"/>
<path d="M163.312 375.902C163.312 377.094 162.344 378.073 161.141 378.073C159.949 378.073 158.97 377.106 158.97 375.902C158.97 374.711 159.937 373.731 161.141 373.731C162.344 373.731 163.312 374.699 163.312 375.902Z" fill="#939393"/>
<path d="M182.024 375.902C182.024 377.094 181.056 378.073 179.853 378.073C178.661 378.073 177.682 377.106 177.682 375.902C177.682 374.711 178.65 373.731 179.853 373.731C181.056 373.731 182.024 374.699 182.024 375.902Z" fill="#939393"/>
<path d="M69.75 355.565C69.75 356.757 68.7826 357.736 67.5791 357.736C66.3757 357.736 65.4082 356.769 65.4082 355.565C65.4082 354.374 66.3757 353.395 67.5791 353.395C68.7826 353.395 69.75 354.362 69.75 355.565Z" fill="#939393"/>
<path d="M88.4627 355.565C88.4627 356.757 87.4952 357.736 86.2918 357.736C85.1001 357.736 84.1208 356.769 84.1208 355.565C84.1208 354.374 85.0883 353.395 86.2918 353.395C87.4952 353.395 88.4627 354.362 88.4627 355.565Z" fill="#939393"/>
<path d="M107.175 355.565C107.175 356.757 106.207 357.736 105.004 357.736C103.812 357.736 102.833 356.769 102.833 355.565C102.833 354.374 103.8 353.395 105.004 353.395C106.207 353.395 107.175 354.362 107.175 355.565Z" fill="#939393"/>
<path d="M125.887 355.565C125.887 356.757 124.92 357.736 123.716 357.736C122.525 357.736 121.545 356.769 121.545 355.565C121.545 354.374 122.513 353.395 123.716 353.395C124.92 353.395 125.887 354.362 125.887 355.565Z" fill="#939393"/>
<path d="M144.599 355.565C144.599 356.757 143.632 357.736 142.428 357.736C141.237 357.736 140.258 356.769 140.258 355.565C140.258 354.374 141.225 353.395 142.428 353.395C143.632 353.395 144.599 354.362 144.599 355.565Z" fill="#939393"/>
<path d="M163.312 355.565C163.312 356.757 162.344 357.736 161.141 357.736C159.949 357.736 158.97 356.769 158.97 355.565C158.97 354.374 159.937 353.395 161.141 353.395C162.344 353.395 163.312 354.362 163.312 355.565Z" fill="#939393"/>
<path d="M182.024 355.565C182.024 356.757 181.056 357.736 179.853 357.736C178.661 357.736 177.682 356.769 177.682 355.565C177.682 354.374 178.65 353.395 179.853 353.395C181.056 353.395 182.024 354.362 182.024 355.565Z" fill="#939393"/>
<path d="M69.75 335.228C69.75 336.42 68.7826 337.399 67.5791 337.399C66.3757 337.399 65.4082 336.431 65.4082 335.228C65.4082 334.036 66.3757 333.057 67.5791 333.057C68.7826 333.057 69.75 334.025 69.75 335.228Z" fill="#939393"/>
<path d="M88.4627 335.228C88.4627 336.42 87.4952 337.399 86.2918 337.399C85.1001 337.399 84.1208 336.431 84.1208 335.228C84.1208 334.036 85.0883 333.057 86.2918 333.057C87.4952 333.057 88.4627 334.025 88.4627 335.228Z" fill="#939393"/>
<path d="M107.175 335.228C107.175 336.42 106.207 337.399 105.004 337.399C103.812 337.399 102.833 336.431 102.833 335.228C102.833 334.036 103.8 333.057 105.004 333.057C106.207 333.057 107.175 334.025 107.175 335.228Z" fill="#939393"/>
<path d="M125.887 335.228C125.887 336.42 124.92 337.399 123.716 337.399C122.525 337.399 121.545 336.431 121.545 335.228C121.545 334.036 122.513 333.057 123.716 333.057C124.92 333.057 125.887 334.025 125.887 335.228Z" fill="#939393"/>
<path d="M144.599 335.228C144.599 336.42 143.632 337.399 142.428 337.399C141.237 337.399 140.258 336.431 140.258 335.228C140.258 334.036 141.225 333.057 142.428 333.057C143.632 333.057 144.599 334.025 144.599 335.228Z" fill="#939393"/>
<path d="M163.312 335.228C163.312 336.42 162.344 337.399 161.141 337.399C159.949 337.399 158.97 336.431 158.97 335.228C158.97 334.036 159.937 333.057 161.141 333.057C162.344 333.057 163.312 334.025 163.312 335.228Z" fill="#939393"/>
<path d="M182.024 335.228C182.024 336.42 181.056 337.399 179.853 337.399C178.661 337.399 177.682 336.431 177.682 335.228C177.682 334.036 178.65 333.057 179.853 333.057C181.056 333.057 182.024 334.025 182.024 335.228Z" fill="#939393"/>
<path d="M69.75 314.891C69.75 316.083 68.7826 317.062 67.5791 317.062C66.3757 317.062 65.4082 316.095 65.4082 314.891C65.4082 313.699 66.3757 312.72 67.5791 312.72C68.7826 312.72 69.75 313.688 69.75 314.891Z" fill="#939393"/>
<path d="M88.4627 314.891C88.4627 316.083 87.4952 317.062 86.2918 317.062C85.1001 317.062 84.1208 316.095 84.1208 314.891C84.1208 313.699 85.0883 312.72 86.2918 312.72C87.4952 312.72 88.4627 313.688 88.4627 314.891Z" fill="#939393"/>
<path d="M107.175 314.891C107.175 316.083 106.207 317.062 105.004 317.062C103.812 317.062 102.833 316.095 102.833 314.891C102.833 313.699 103.8 312.72 105.004 312.72C106.207 312.72 107.175 313.688 107.175 314.891Z" fill="#939393"/>
<path d="M125.887 314.891C125.887 316.083 124.92 317.062 123.716 317.062C122.525 317.062 121.545 316.095 121.545 314.891C121.545 313.699 122.513 312.72 123.716 312.72C124.92 312.72 125.887 313.688 125.887 314.891Z" fill="#939393"/>
<path d="M144.599 314.891C144.599 316.083 143.632 317.062 142.428 317.062C141.237 317.062 140.258 316.095 140.258 314.891C140.258 313.699 141.225 312.72 142.428 312.72C143.632 312.72 144.599 313.688 144.599 314.891Z" fill="#939393"/>
<path d="M163.312 314.891C163.312 316.083 162.344 317.062 161.141 317.062C159.949 317.062 158.97 316.095 158.97 314.891C158.97 313.699 159.937 312.72 161.141 312.72C162.344 312.72 163.312 313.688 163.312 314.891Z" fill="#939393"/>
<path d="M182.024 314.891C182.024 316.083 181.056 317.062 179.853 317.062C178.661 317.062 177.682 316.095 177.682 314.891C177.682 313.699 178.65 312.72 179.853 312.72C181.056 312.72 182.024 313.688 182.024 314.891Z" fill="#939393"/>
<path d="M69.75 294.554C69.75 295.746 68.7826 296.725 67.5791 296.725C66.3757 296.725 65.4082 295.758 65.4082 294.554C65.4082 293.363 66.3757 292.383 67.5791 292.383C68.7826 292.383 69.75 293.363 69.75 294.554Z" fill="#939393"/>
<path d="M88.4627 294.554C88.4627 295.746 87.4952 296.725 86.2918 296.725C85.1001 296.725 84.1208 295.758 84.1208 294.554C84.1208 293.363 85.0883 292.383 86.2918 292.383C87.4952 292.383 88.4627 293.363 88.4627 294.554Z" fill="#939393"/>
<path d="M107.175 294.554C107.175 295.746 106.207 296.725 105.004 296.725C103.812 296.725 102.833 295.758 102.833 294.554C102.833 293.363 103.8 292.383 105.004 292.383C106.207 292.383 107.175 293.363 107.175 294.554Z" fill="#939393"/>
<path d="M125.887 294.554C125.887 295.746 124.92 296.725 123.716 296.725C122.525 296.725 121.545 295.758 121.545 294.554C121.545 293.363 122.513 292.383 123.716 292.383C124.92 292.383 125.887 293.363 125.887 294.554Z" fill="#939393"/>
<path d="M144.599 294.554C144.599 295.746 143.632 296.725 142.428 296.725C141.237 296.725 140.258 295.758 140.258 294.554C140.258 293.363 141.225 292.383 142.428 292.383C143.632 292.383 144.599 293.363 144.599 294.554Z" fill="#939393"/>
<path d="M163.312 294.554C163.312 295.746 162.344 296.725 161.141 296.725C159.949 296.725 158.97 295.758 158.97 294.554C158.97 293.363 159.937 292.383 161.141 292.383C162.344 292.383 163.312 293.363 163.312 294.554Z" fill="#939393"/>
<path d="M182.024 294.554C182.024 295.746 181.056 296.725 179.853 296.725C178.661 296.725 177.682 295.758 177.682 294.554C177.682 293.363 178.65 292.383 179.853 292.383C181.056 292.383 182.024 293.363 182.024 294.554Z" fill="#939393"/>
<path d="M312.18 54.439H224.25V142.354H312.18V54.439Z" fill="white" stroke="#282A2B" stroke-width="2.126" stroke-miterlimit="10"/>
<path d="M312.18 54.439H224.25V142.354H312.18V54.439Z" stroke="#282A2B" stroke-width="2.126" stroke-miterlimit="10"/>
<path d="M264.062 59.1455H272.377V50.8325H264.062V59.1455Z" fill="white" stroke="#282A2B" stroke-width="2.126" stroke-miterlimit="10"/>
<path d="M264.062 146.411H272.377V138.098H264.062V146.411Z" fill="white" stroke="#282A2B" stroke-width="2.126" stroke-miterlimit="10"/>
<path d="M307.801 59.1455H316.116V50.8325H307.801V59.1455Z" fill="white" stroke="#282A2B" stroke-width="2.126" stroke-miterlimit="10"/>
<path d="M307.801 146.411H316.116V138.098H307.801V146.411Z" fill="white" stroke="#282A2B" stroke-width="2.126" stroke-miterlimit="10"/>
<path d="M220.314 59.1455H228.629V50.8325H220.314V59.1455Z" fill="white" stroke="#282A2B" stroke-width="2.126" stroke-miterlimit="10"/>
<path d="M220.314 146.411H228.629V138.098H220.314V146.411Z" fill="white" stroke="#282A2B" stroke-width="2.126" stroke-miterlimit="10"/>
<path d="M308.338 94.4658V102.779H316.652V94.4658H308.338Z" fill="white" stroke="#282A2B" stroke-width="2.126" stroke-miterlimit="10"/>
<path d="M220.314 94.4639V102.777H228.628V94.4639H220.314Z" fill="white" stroke="#282A2B" stroke-width="2.126" stroke-miterlimit="10"/>
</g>
<defs>
<clipPath id="clip0_303_870">
<rect width="360" height="443" fill="white"/>
</clipPath>
</defs>
</svg>
