<svg width="130" height="100" viewBox="0 0 130 100" fill="none" xmlns="http://www.w3.org/2000/svg">
<path d="M92 36.3705C91.5617 37.5389 90.6905 38.2896 89.6699 38.9614C86.6513 40.9511 83.6698 42.9984 80.6709 45.0183C78.9398 46.1845 77.509 46.1019 75.9576 44.7439C74.7543 43.6906 73.5623 42.623 72.227 41.4386C72.227 41.9421 72.227 42.2575 72.227 42.5737C72.2308 56.2822 72.2278 69.9899 72.2482 83.6984C72.2505 85.1088 71.8509 86.2848 70.7075 87.1477C69.9591 87.7134 69.0795 87.8643 68.1666 87.8643C53.3814 87.8658 38.5954 87.8726 23.8102 87.8582C21.2587 87.8559 19.7823 86.3243 19.774 83.7424C19.7611 79.7919 19.771 75.8406 19.774 71.8901C19.7748 70.6117 19.9575 70.3675 21.1821 69.9558C22.0685 69.9884 22.5196 70.3471 22.6751 71.1599C22.7486 71.5444 22.7282 71.9356 22.7282 72.3246C22.7297 75.9468 22.7251 79.5682 22.7312 83.1904C22.7335 84.7016 22.9966 84.9753 24.5116 84.9761C38.8191 84.9821 53.1273 84.9821 67.4348 84.9761C69.0454 84.9753 69.2789 84.7221 69.2797 83.0729C69.2812 68.6152 69.2804 54.1576 69.2812 39.7007C69.2812 39.2518 69.2524 38.8007 69.3244 38.3556C69.539 37.0301 70.7727 36.488 71.8774 37.2447C72.3953 37.5996 72.8988 37.9855 73.3257 38.4473C73.7708 38.9288 74.1947 38.9485 74.7414 38.5876C75.991 37.7634 77.2034 36.8861 78.4439 36.049C80.6277 34.5764 82.8418 33.1494 84.999 31.6367C85.5859 31.2249 85.7368 30.8739 85.2834 30.2627C82.38 26.3425 79.648 22.2973 76.6795 18.4249C75.7165 17.1692 74.4608 16.2426 72.9883 15.6527C70.4315 14.6283 67.8056 13.795 65.2071 12.885C64.4814 12.631 64.1804 12.8858 63.9673 13.5561C63.1947 15.9886 61.87 18.117 60.2329 20.0528C59.3117 21.1424 58.6247 21.2448 57.5108 20.5662C56.8724 19.7389 57.024 18.9299 57.6488 18.1981C58.9022 16.7294 59.9198 15.1257 60.6742 13.3445C61.34 11.7719 61.3324 11.7204 59.6506 11.4527C57.9407 11.1812 57.9438 11.1828 57.1643 12.7713C55.3096 16.5535 52.3016 18.964 48.1729 19.6191C42.7514 20.4797 38.4468 18.4863 35.4077 13.8693C35.0543 13.1792 34.6661 12.5036 34.4242 11.7628C34.2741 11.3041 33.986 11.1722 33.5325 11.2548C32.8281 11.3829 32.1207 11.4929 31.4147 11.6135C30.931 11.6953 30.8157 11.9668 30.9886 12.38C31.3222 13.1762 31.4996 14.0383 32.0031 14.7625C34.5948 19.5175 38.5544 22.3587 43.9214 23.0919C46.6427 23.4635 49.3459 23.2216 51.9088 22.0978C52.4009 21.8817 52.8999 21.6823 53.3912 21.4647C54.2541 21.0825 55.0184 21.1872 55.644 21.9424C56.0785 23.0085 55.8495 23.6788 54.8084 24.2293C52.1446 25.6366 49.3164 26.3266 46.2879 26.3911C41.5465 26.4919 37.4224 24.9481 33.7972 21.9811C31.7082 20.272 30.0885 18.1754 28.9481 15.7202C28.569 14.9073 28.1702 14.0998 27.9503 13.2232C27.8289 12.7402 27.5673 12.5954 27.0919 12.7577C24.1734 13.7525 21.2094 14.6343 18.394 15.893C16.7288 16.6376 15.499 17.9782 14.442 19.4659C11.8919 23.0525 9.31919 26.6223 6.74188 30.1892C6.11026 31.0634 6.12921 31.0687 7.01485 31.6791C7.87775 32.2736 8.7141 32.906 9.62097 33.4383C12.1444 35.0511 14.5747 36.8004 17.0716 38.4496C17.9815 39.0509 18.0164 39.0425 18.83 38.2987C19.2508 37.9143 19.6845 37.5442 20.1562 37.228C21.2268 36.5107 22.4362 37.0339 22.6758 38.301C22.7259 38.5664 22.7259 38.8371 22.7259 39.1062C22.7289 47.8155 22.7282 56.5249 22.7259 65.2342C22.7259 65.7445 22.738 66.2646 22.4431 66.7112C22.1147 67.2071 21.7371 67.6371 21.0471 67.311C20.0015 66.9979 19.774 66.6786 19.774 65.4738C19.7748 57.8101 19.7786 50.1472 19.7816 42.4835C19.7816 42.1976 19.7816 41.9118 19.7816 41.4394C18.4455 42.6245 17.2536 43.6922 16.0495 44.7461C14.4981 46.1049 13.0642 46.1883 11.3339 45.0221C8.16133 42.8839 4.99031 40.7441 1.82536 38.5959C-0.216618 37.2098 -0.559349 35.3756 0.867685 33.3837C4.6817 28.0615 8.51316 22.7515 12.3272 17.4285C14.0181 15.0681 16.2299 13.4249 18.968 12.4748C21.9828 11.4284 24.9711 10.2948 28.017 9.34855C30.3562 8.62214 32.819 8.40452 35.2356 8.01857C36.0279 7.89194 36.4981 8.42727 36.6884 9.18552C37.0387 10.5837 37.5141 11.9236 38.4127 13.0837C40.7974 16.1622 43.9775 17.4156 47.7392 16.7264C51.4342 16.0492 53.9212 13.779 55.0442 10.1273C55.1231 9.87099 55.1883 9.61015 55.2649 9.3531C55.619 8.16112 56.0951 7.94881 57.3068 8.06786C62.5115 8.58043 67.3059 10.5345 72.2035 12.1564C75.5709 13.2718 78.1892 15.2356 80.2213 18.1481C83.6433 23.051 87.1843 27.8712 90.6806 32.7225C91.1849 33.4224 91.6838 34.1222 91.997 34.9336C92 35.412 92 35.8912 92 36.3705Z" fill="black"/>
<path d="M57.5795 20.3735C58.5887 21.0059 59.1407 20.9475 59.9149 20.0376C61.6945 17.944 63.12 15.6397 63.8874 12.9797C64.0587 12.3876 64.2491 12.2374 64.8678 12.4634C67.3086 13.3543 69.7714 14.1839 72.2252 15.0414C74.3778 15.7944 76.1249 17.0887 77.4563 18.948C80.227 22.8151 82.9992 26.6807 85.7941 30.5303C86.127 30.9883 86.1641 31.1945 85.6372 31.5449C81.9255 34.0122 78.2366 36.5137 74.553 39.0235C74.1397 39.3056 73.8675 39.3571 73.4884 38.9666C72.969 38.4306 72.3821 37.9597 71.8164 37.4706C71.3721 37.0869 70.877 36.9588 70.3227 37.2295C69.7828 37.4926 69.5265 37.9278 69.5333 38.5253C69.5364 38.8249 69.5326 39.1244 69.5326 39.4239C69.5364 54.0946 69.5402 68.7653 69.544 83.4352C69.544 84.9715 69.34 85.1747 67.775 85.1747C53.2544 85.1754 38.7331 85.1754 24.2125 85.1747C22.6664 85.1747 22.467 84.9707 22.467 83.4148C22.4677 79.5825 22.4465 75.7496 22.4837 71.9181C22.4935 70.9127 22.1743 70.2416 21.1833 69.9573C21.087 69.0777 21.3053 68.1822 21.0483 67.311C22.1038 67.1222 22.4639 66.7453 22.4647 65.7088C22.4746 56.6962 22.4723 47.6835 22.4814 38.6709C22.4821 38.0128 22.2835 37.5009 21.6549 37.2151C21.0513 36.9413 20.5516 37.1355 20.0974 37.551C20.0315 37.6116 19.9678 37.6761 19.8957 37.7292C19.2285 38.2205 18.7212 39.2457 17.9789 39.2108C17.2578 39.1774 16.5617 38.4093 15.8709 37.94C13.6963 36.4621 11.5284 34.9722 9.35828 33.4875C9.25288 33.147 9.47581 32.915 9.64641 32.68C12.389 28.9076 15.055 25.0792 17.8401 21.3372C19.1959 19.5159 20.9338 18.1776 23.0493 17.3655C24.7797 16.7013 26.5327 16.0947 28.3025 15.5411C28.5489 15.4638 28.8083 15.3137 29.0623 15.5366C30.9488 19.2369 33.6171 22.2069 37.3553 24.0806C43.1832 27.0014 49.0362 26.8914 54.849 23.9843C55.655 23.5809 55.8006 23.0683 55.5049 22.0212C56.0175 21.2478 56.7659 20.7693 57.5795 20.3735Z" fill="white"/>
<path d="M57.5796 20.3736C56.9889 21.0507 56.2337 21.5208 55.5043 22.022C54.7164 21.1439 53.8824 21.4601 52.9907 21.8666C47.2037 24.5098 41.6737 23.9836 36.4759 20.3592C34.4438 18.942 32.862 17.0774 31.8156 14.7996C31.708 14.6609 31.7193 14.5198 31.8354 14.4008C32.4162 13.8025 34.716 13.3946 35.566 13.7343C37.4866 16.7051 40.1405 18.5818 43.6186 19.3757C48.9567 20.5942 55.1577 17.3739 57.155 12.2511C57.6956 10.8643 57.6956 10.8643 59.2167 11.1517C59.363 11.1797 59.5116 11.1972 59.6595 11.2199C61.6658 11.5247 61.6848 11.5323 60.8924 13.4484C60.1569 15.2265 59.153 16.8462 57.8473 18.2671C57.2505 18.9147 57.0921 19.5971 57.5796 20.3736Z" fill="#DDDDDC"/>
<path d="M29.0616 15.5372C26.7929 16.2644 24.5189 16.9794 22.3298 17.9318C20.1119 18.8963 18.5711 20.6198 17.201 22.5268C14.5797 26.1755 11.9713 29.8334 9.35757 33.4874C8.31042 32.7974 7.2701 32.0975 6.21309 31.4234C5.89007 31.2172 5.83169 31.067 6.07736 30.7326C9.20971 26.4637 12.1654 22.0643 15.4342 17.8962C16.5496 16.4737 18.12 15.6312 19.8109 15.0368C22.2631 14.1746 24.7274 13.3459 27.1697 12.4572C27.749 12.2464 27.9287 12.3708 28.0963 12.9364C28.3579 13.8213 28.734 14.6721 29.0616 15.5372Z" fill="#DDDDDC"/>
<path d="M89.296 35.748C89.2914 35.9322 89.0745 36.09 88.8478 36.2431C85.56 38.4648 82.2707 40.685 78.986 42.9112C78.5795 43.1872 78.2277 43.1743 77.8645 42.8354C77.4058 42.4077 76.9409 41.9854 76.4549 41.5896C76.1205 41.3166 76.1744 41.1589 76.5095 40.9345C80.1499 38.4876 83.7819 36.0293 87.4185 33.5779C87.5323 33.5013 87.6763 33.4277 87.8067 33.4277C87.9629 33.4285 89.2982 35.4394 89.296 35.748Z" fill="#DDDDDC"/>
<path d="M7.79354 35.8008C10.3746 37.5235 12.9527 39.2493 15.5391 40.9637C15.8492 41.1692 15.8909 41.3353 15.5816 41.5574C15.5573 41.5749 15.5368 41.5976 15.5148 41.6166C13.1696 43.632 14.0203 43.5274 11.6515 41.9677C9.78395 40.7385 7.95732 39.4465 6.11249 38.1825C6.09732 37.4098 7.02846 36.0904 7.79354 35.8008Z" fill="#DDDDDC"/>
<path d="M7.79341 35.8008C7.12994 36.5219 6.54305 37.2968 6.11236 38.1832C5.11525 37.5281 4.11891 36.8729 3.1218 36.2178C2.78969 36.0002 2.55236 35.7212 2.80789 35.3276C3.19763 34.7263 3.6359 34.1569 4.04157 33.5654C4.22431 33.2993 4.3934 33.4418 4.56097 33.5571C5.63997 34.3025 6.71593 35.0516 7.79341 35.8008Z" fill="#DDDDDC"/>
<path d="M35.5658 13.7333C34.3738 13.728 33.244 14.0222 32.1354 14.4324C31.9421 14.5036 31.8397 14.6045 31.8162 14.7994C31.2073 13.9668 30.9988 12.9652 30.628 12.0302C30.4642 11.6162 30.647 11.4957 31.0003 11.438C31.9694 11.2803 32.943 11.1446 33.9029 10.9444C34.3328 10.8549 34.3988 11.093 34.5216 11.3804C34.8575 12.1697 35.2162 12.95 35.5658 13.7333Z" fill="#DDDDDC"/>
<circle cx="46.0257" cy="49.7796" r="15.3167" fill="#FFCA41"/>
</svg>
