<svg width="130" height="100" viewBox="0 0 130 100" fill="none" xmlns="http://www.w3.org/2000/svg">
<ellipse cx="50.2348" cy="44.7059" rx="14.1176" ry="13.5294" fill="#FFCA41"/>
<path d="M63.1527 12.2871C63.0657 11.6533 62.7522 11.0726 62.2701 10.6521C61.788 10.2317 61.17 10 60.5303 10L60.1703 10.0247L59.828 10.0953C59.2692 10.2491 58.7763 10.582 58.425 11.043C58.0737 11.5039 57.8834 12.0675 57.8833 12.6471V20.5847H51.7033L51.7068 12.6471L51.6821 12.2871C51.5951 11.6533 51.2816 11.0726 50.7995 10.6521C50.3174 10.2317 49.6994 10 49.0597 10L48.6997 10.0247C48.066 10.1117 47.4852 10.4252 47.0648 10.9073C46.6444 11.3894 46.4127 12.0074 46.4127 12.6471L46.4091 20.5847H40.2362V12.6471L40.2115 12.2871C40.1201 11.6226 39.7799 11.0177 39.2596 10.5945C38.7394 10.1712 38.0778 9.96125 37.4087 10.007C36.7396 10.0527 36.1128 10.3507 35.6549 10.8407C35.1971 11.3308 34.9423 11.9764 34.9421 12.6471V20.8529C32.3998 21.3731 30.0662 22.6284 28.231 24.4631C26.3957 26.2977 25.1396 28.6308 24.6186 31.1729L16.4127 31.1765L16.0527 31.2012C15.419 31.2882 14.8382 31.6017 14.4177 32.0838C13.9973 32.5659 13.7657 33.1839 13.7656 33.8235L13.7903 34.1835C13.8773 34.8172 14.1909 35.398 14.6729 35.8185C15.155 36.2389 15.773 36.4706 16.4127 36.4706L24.3539 36.4671V42.6435L16.4127 42.6471L16.0527 42.6718C15.419 42.7588 14.8382 43.0723 14.4177 43.5544C13.9973 44.0364 13.7657 44.6545 13.7656 45.2941L13.7903 45.6541C13.8604 46.185 14.0921 46.6816 14.4539 47.0765C17.8249 45.5189 21.572 44.9611 25.2506 45.469C28.9292 45.9769 32.3849 47.5293 35.2078 49.942C38.0307 52.3547 40.1023 55.5265 41.1769 59.0811C42.2514 62.6357 42.2839 66.424 41.2703 69.9965H46.4091L46.4127 77.9412L46.4374 78.3012C46.5244 78.9349 46.8379 79.5157 47.32 79.9361C47.8021 80.3566 48.4201 80.5882 49.0597 80.5882L49.4197 80.5635C50.0535 80.4765 50.6342 80.163 51.0547 79.6809C51.4751 79.1989 51.7068 78.5808 51.7068 77.9412L51.7033 69.9965H57.8833V77.9412L57.908 78.3012C57.9994 78.9656 58.3396 79.5705 58.8599 79.9938C59.3801 80.417 60.0416 80.627 60.7108 80.5813C61.3799 80.5356 62.0067 80.2376 62.4645 79.7475C62.9224 79.2574 63.1772 78.6118 63.1774 77.9412V69.7353C65.717 69.215 68.0482 67.9614 69.8825 66.1296C71.7169 64.2978 72.9737 61.9683 73.4974 59.4294H81.7068L82.0668 59.4047C82.7005 59.3177 83.2813 59.0042 83.7017 58.5221C84.1222 58.04 84.3538 57.422 84.3539 56.7823L84.3291 56.4223C84.2421 55.7886 83.9286 55.2079 83.4465 54.7874C82.9645 54.367 82.3465 54.1353 81.7068 54.1353L73.7656 54.1318V47.9553H81.7068L82.0668 47.9341C82.7005 47.8471 83.2813 47.5336 83.7017 47.0515C84.1222 46.5694 84.3538 45.9514 84.3539 45.3118L84.3291 44.9518C84.2421 44.318 83.9286 43.7373 83.4465 43.3168C82.9645 42.8964 82.3465 42.6647 81.7068 42.6647L73.7656 42.6612V36.4847H81.7068L82.0668 36.4635C82.7312 36.3721 83.3362 36.0319 83.7594 35.5116C84.1826 34.9914 84.3926 34.3299 84.3469 33.6607C84.3012 32.9916 84.0032 32.3648 83.5131 31.907C83.0231 31.4491 82.3775 31.1943 81.7068 31.1941H73.5044C72.9875 28.647 71.7328 26.3082 69.8965 24.4688C68.0603 22.6294 65.7236 21.3707 63.1774 20.8494V12.6471L63.1527 12.2871ZM38.4892 45.3118C38.4892 43.9213 38.763 42.5444 39.2951 41.2598C39.8272 39.9752 40.6072 38.808 41.5904 37.8248C42.5736 36.8415 43.7408 36.0616 45.0254 35.5295C46.3101 34.9974 47.6869 34.7235 49.0774 34.7235C50.4679 34.7235 51.8447 34.9974 53.1293 35.5295C54.414 36.0616 55.5812 36.8415 56.5644 37.8248C57.5476 38.808 58.3275 39.9752 58.8596 41.2598C59.3917 42.5444 59.6656 43.9213 59.6656 45.3118C59.6656 48.1199 58.5501 50.8131 56.5644 52.7988C54.5787 54.7845 51.8856 55.9 49.0774 55.9C46.2692 55.9 43.576 54.7845 41.5904 52.7988C39.6047 50.8131 38.4892 48.1199 38.4892 45.3118ZM54.3715 45.3118C54.3715 44.6165 54.2346 43.9281 53.9685 43.2858C53.7025 42.6435 53.3125 42.0599 52.8209 41.5683C52.3293 41.0767 51.7457 40.6867 51.1034 40.4206C50.461 40.1546 49.7726 40.0176 49.0774 40.0176C48.3822 40.0176 47.6937 40.1546 47.0514 40.4206C46.4091 40.6867 45.8255 41.0767 45.3339 41.5683C44.8423 42.0599 44.4523 42.6435 44.1863 43.2858C43.9202 43.9281 43.7833 44.6165 43.7833 45.3118C43.7833 46.7159 44.341 48.0624 45.3339 49.0553C46.3267 50.0481 47.6733 50.6059 49.0774 50.6059C50.4815 50.6059 51.8281 50.0481 52.8209 49.0553C53.8137 48.0624 54.3715 46.7159 54.3715 45.3118Z" fill="#939393"/>
<circle cx="21" cy="65" r="21" fill="white"/>
<circle cx="21" cy="65" r="17" fill="#FFCA41"/>
<path d="M43 87L33.5558 77.5389L43 87ZM38.7895 64.8947C38.7895 69.6407 36.9041 74.1923 33.5482 77.5482C30.1923 80.9041 25.6407 82.7895 20.8947 82.7895C16.1488 82.7895 11.5972 80.9041 8.24125 77.5482C4.88533 74.1923 3 69.6407 3 64.8947C3 60.1488 4.88533 55.5972 8.24125 52.2412C11.5972 48.8853 16.1488 47 20.8947 47C25.6407 47 30.1923 48.8853 33.5482 52.2412C36.9041 55.5972 38.7895 60.1488 38.7895 64.8947V64.8947Z" stroke="black" stroke-width="3" stroke-linecap="round" stroke-linejoin="round"/>
<circle cx="49" cy="45" r="6" fill="black"/>
</svg>
