<svg width="130" height="100" viewBox="0 0 130 100" fill="none" xmlns="http://www.w3.org/2000/svg">
<path d="M100.194 7.07617H3.87785C1.78687 7.07617 0.0917969 8.77124 0.0917969 10.8622V75.6807C0.0917969 77.7717 1.78687 79.4668 3.87785 79.4668H100.194C102.285 79.4668 103.98 77.7717 103.98 75.6807V10.8622C103.98 8.77124 102.285 7.07617 100.194 7.07617Z" fill="black"/>
<path d="M103.98 10.8621C103.98 10.8621 103.98 10.7867 103.964 10.6392C103.951 10.418 103.917 10.1984 103.862 9.9836C103.655 9.12923 103.154 8.375 102.446 7.85292C102.204 7.66948 101.939 7.51646 101.66 7.39728C101.345 7.26835 101.014 7.18129 100.676 7.13832C100.307 7.10274 99.9358 7.0907 99.565 7.10227H98.3587H92.5403L55.4599 7.13177H29.8525H4.32041C4.00409 7.12168 3.68746 7.13483 3.37307 7.1711C3.06129 7.21287 2.75615 7.29439 2.46508 7.41367C1.87884 7.65753 1.36441 8.04674 0.970324 8.54457C0.573084 9.04469 0.314223 9.64041 0.21967 10.2721C0.17673 10.5903 0.160286 10.9115 0.170502 11.2325V12.2159C0.170502 13.5271 0.170502 14.8448 0.170502 16.1691V24.2264C0.170502 29.6459 0.170502 35.1726 0.170502 40.8063V75.674C0.175236 76.0389 0.228139 76.4015 0.327843 76.7525C0.539433 77.4542 0.953941 78.0777 1.51917 78.5444C2.08439 79.011 2.77506 79.3 3.50419 79.3749C3.86477 79.4011 4.23846 79.3912 4.60887 79.3912H65.284L94.6874 79.4109H99.7977C100.075 79.4181 100.353 79.4105 100.63 79.388C100.901 79.3545 101.168 79.2929 101.427 79.2044C101.938 79.026 102.405 78.7383 102.794 78.3613C103.183 77.9842 103.485 77.5269 103.679 77.0213C103.864 76.5181 103.947 75.9834 103.925 75.4479C103.925 74.9103 103.925 74.3727 103.925 73.8384C103.925 69.5683 103.925 65.473 103.925 61.5526C103.925 45.897 103.948 33.2277 103.954 24.4722C103.954 20.0961 103.954 16.6969 103.954 14.3925C103.954 13.2386 103.954 12.3601 103.954 11.7701C103.954 11.1801 103.954 10.8752 103.954 10.8752C103.954 10.8752 103.954 11.1801 103.954 11.7701C103.954 12.3601 103.954 13.2386 103.954 14.3925C103.954 16.687 103.954 20.0961 103.971 24.4722C103.971 33.2277 103.987 45.897 103.997 61.5526C103.997 65.4664 103.997 69.5617 103.997 73.8384V75.4479C104.018 75.9992 103.931 76.5493 103.741 77.0672C103.542 77.5926 103.229 78.0677 102.826 78.4591C102.423 78.8505 101.938 79.1486 101.407 79.3322C101.14 79.4268 100.863 79.4906 100.581 79.5224C100.3 79.5469 100.018 79.5567 99.7354 79.5519H94.6874H65.2971H32.8125H4.62198C4.24829 79.5519 3.88444 79.5519 3.50091 79.5355C3.12411 79.4919 2.7548 79.3982 2.4028 79.2569C2.04926 79.1094 1.71822 78.913 1.41941 78.6734C1.1274 78.4289 0.8704 78.1454 0.65564 77.8309C0.446955 77.512 0.283677 77.1656 0.170502 76.8017C0.064136 76.4351 0.00789904 76.0557 0.00332553 75.674C0.00332553 63.7324 0.00332553 52.0727 0.00332553 40.8063V24.2264C0.00332553 21.5188 0.00332553 18.8396 0.00332553 16.1888V11.2718C-0.00771154 10.9432 0.00873604 10.6143 0.0524955 10.2885C0.152164 9.62991 0.423498 9.00923 0.839205 8.48885C1.25001 7.9628 1.78973 7.5518 2.40607 7.29567C2.70955 7.17076 3.02801 7.08591 3.35341 7.04326C3.67428 7.00576 3.99754 6.99261 4.32041 7.00393H15.5868H29.8525H55.4599L92.5403 7.03015H98.3587H99.5748C99.9479 7.01981 100.321 7.03294 100.693 7.06949C101.031 7.11391 101.361 7.2032 101.676 7.335C101.957 7.45839 102.223 7.61345 102.469 7.7972C102.878 8.10366 103.22 8.48943 103.476 8.93137C103.658 9.25795 103.79 9.6106 103.866 9.97704C103.918 10.192 103.95 10.4116 103.961 10.6326C103.977 10.7867 103.98 10.8621 103.98 10.8621Z" fill="#2C2C2C"/>
<path d="M6.81982 10.41L6.81982 78.2344H93.5778V10.41H6.81982Z" fill="#E6E6E6"/>
<path d="M98.7584 45.756C100.292 45.756 101.535 44.5129 101.535 42.9796C101.535 41.4462 100.292 40.2031 98.7584 40.2031C97.225 40.2031 95.9819 41.4462 95.9819 42.9796C95.9819 44.5129 97.225 45.756 98.7584 45.756Z" fill="#DDDDDC"/>
<path d="M3.08154 32.772L3.08154 53.7739C3.08154 53.9948 3.26059 54.1738 3.48146 54.1738H3.82892C4.04978 54.1738 4.22883 53.9948 4.22883 53.7739L4.22883 32.772C4.22883 32.5511 4.04978 32.3721 3.82892 32.3721H3.48146C3.26059 32.3721 3.08154 32.5511 3.08154 32.772Z" fill="#DDDDDC"/>
<path d="M94.2616 77.444C94.2616 76.8572 94.2354 50.4401 94.1927 9.38357L94.2616 9.45568H7.51024L7.59546 9.37046C7.59546 33.9191 7.59546 57.1271 7.59546 77.4308L7.52007 77.3555L94.2616 77.444L7.49385 77.5292H7.41846V77.444C7.41846 57.1402 7.41846 33.9322 7.41846 9.38357V9.29834H7.51024H94.2616H94.3337V9.36718C94.2911 50.4499 94.2616 76.867 94.2616 77.444Z" fill="#2C2C2C"/>
<path d="M87.5085 47.0654H46.3281C45.2236 47.0654 44.3281 47.9609 44.3281 49.0654V69.7867C44.3281 70.8913 45.2236 71.7867 46.3281 71.7867H87.5085C88.613 71.7867 89.5085 70.8913 89.5085 69.7867V49.0654C89.5085 47.9609 88.613 47.0654 87.5085 47.0654Z" fill="white"/>
<path d="M65.6398 61.5571H62.23V69.2293H65.6398V61.5571Z" fill="#FFCA41"/>
<path d="M50.2952 59.8525H47.7378V69.2296H50.2952V59.8525Z" fill="#FFCA41"/>
<path d="M54.5578 57.2949H51.1479V69.2293H54.5578V57.2949Z" fill="#FFCA41"/>
<path d="M57.9675 57.2949H55.4102V69.2293H57.9675V57.2949Z" fill="#FFCA41"/>
<path d="M61.3773 54.7378H59.6724V69.2296H61.3773V54.7378Z" fill="#FFCA41"/>
<path d="M69.0496 54.7378H67.3447V69.2296H69.0496V54.7378Z" fill="#FFCA41"/>
<path d="M72.4592 59.8525H69.9019V69.2296H72.4592V59.8525Z" fill="#FFCA41"/>
<path d="M76.7214 55.5898H74.1641V69.2292H76.7214V55.5898Z" fill="#FFCA41"/>
<path d="M80.9841 52.1802H77.5742V69.2294H80.9841V52.1802Z" fill="#FFCA41"/>
<path d="M84.3938 55.5898H81.8364V69.2292H84.3938V55.5898Z" fill="#FFCA41"/>
<path d="M12.2295 46.2129C11.1249 46.2129 10.2295 47.1083 10.2295 48.2129V69.833C10.2295 70.9376 11.1249 71.833 12.2295 71.833H13.3311H17.5998H35.4914C36.596 71.833 37.4914 70.9376 37.4914 69.833V48.2129C37.4914 47.1083 36.596 46.2129 35.4914 46.2129H12.2295Z" fill="white"/>
<path d="M23.6962 48.7705C21.7082 48.7705 19.7648 49.36 18.1118 50.4645C16.4588 51.569 15.1705 53.1389 14.4097 54.9756C13.6489 56.8123 13.4498 58.8333 13.8377 60.7832C14.2255 62.733 15.1829 64.524 16.5886 65.9298C17.9944 67.3356 19.7854 68.2929 21.7352 68.6807C23.6851 69.0686 25.7061 68.8695 27.5428 68.1087C29.3795 67.3479 30.9494 66.0596 32.0539 64.4066C33.1584 62.7536 33.7479 60.8102 33.7479 58.8222C33.7479 56.1563 32.6889 53.5996 30.8038 51.7146C28.9188 49.8295 26.3621 48.7705 23.6962 48.7705ZM23.8475 64.8456C22.6267 64.8456 21.4332 64.4837 20.418 63.8056C19.4028 63.1276 18.6113 62.1638 18.1437 61.036C17.6761 59.9083 17.5532 58.6673 17.7907 57.4697C18.0282 56.2722 18.6154 55.172 19.478 54.308C20.3406 53.4441 21.4399 52.8553 22.6371 52.616C23.8342 52.3766 25.0755 52.4976 26.2039 52.9635C27.3324 53.4294 28.2974 54.2193 28.977 55.2335C29.6567 56.2477 30.0204 57.4406 30.0222 58.6614C30.0235 59.4731 29.8647 60.2771 29.5549 61.0273C29.2452 61.7776 28.7906 62.4594 28.2171 63.0337C27.6436 63.6081 26.9624 64.0638 26.2127 64.3747C25.4629 64.6856 24.6592 64.8456 23.8475 64.8456Z" fill="#2C2C2C"/>
<path d="M23.8516 48.7754V52.5152C24.8212 52.5171 25.7767 52.7471 26.641 53.1867C27.5053 53.6262 28.254 54.263 28.8266 55.0455C29.3991 55.8279 29.7796 56.7342 29.9371 57.6909C30.0946 58.6477 30.0247 59.628 29.7332 60.5528L33.3784 61.5409C33.7931 60.0592 33.8623 58.5021 33.5806 56.9894C33.2989 55.4768 32.6739 54.049 31.7536 52.8158C30.8333 51.5827 29.6424 50.5772 28.2724 49.8767C26.9025 49.1763 25.39 48.7995 23.8516 48.7754Z" fill="#FFCA41"/>
<path d="M17.6726 58.6616C17.6724 57.4684 18.0179 56.3006 18.6673 55.2996C19.3168 54.2986 20.2423 53.5072 21.3321 53.0211L19.786 49.5508C17.9641 50.319 16.4093 51.6074 15.316 53.2549C14.2227 54.9024 13.6396 56.8357 13.6396 58.8129C13.6396 58.9547 13.6396 59.0966 13.6396 59.2337H17.6868C17.6725 59.0433 17.6678 58.8524 17.6726 58.6616Z" fill="#8F8F8F"/>
<path d="M23.8752 64.8536C23.4423 64.8547 23.0106 64.8077 22.5881 64.7134C22.4342 65.6015 22.1217 67.3169 21.9165 68.6678C22.5134 68.7784 23.119 68.8347 23.726 68.8361C25.8901 68.836 27.9949 68.1265 29.7193 66.816C31.4437 65.5054 32.6931 63.6655 33.2772 61.5769L29.6815 60.6094C29.2878 61.8425 28.5132 62.9183 27.4694 63.6812C26.4257 64.4441 25.167 64.8547 23.8752 64.8536Z" fill="#FFCA41"/>
<path d="M9.96445 38.1408L9.83398 37.7703L21.5484 33.6669L33.3933 25.6927L45.1788 29.5911L57.0514 21.7825L68.9437 21.751L68.9951 21.7865L80.2905 29.7409L91.2379 22.5314L91.4553 22.8626L80.2825 30.2218L80.1719 30.143L68.8172 22.1452L57.17 22.1767L45.2382 30.0247L33.4526 26.1303L21.7065 34.0295L9.96445 38.1408Z" fill="#FFCA41" stroke="#FFCA41" stroke-width="2"/>
<path d="M80.2832 33.8791L68.7279 26.0551H56.816L44.8962 18.2193L33.3408 18.1167L21.5359 30.0203H9.83398V29.6258H21.3695L33.1784 17.7182L45.019 17.8247L56.9348 25.6605H68.8467L80.1525 33.3109L91.4385 13.5557L91.7831 13.749L80.2832 33.8791Z" fill="#8F8F8F" stroke="#8F8F8F"/>
</svg>
