<svg width="640" height="583" viewBox="0 0 640 583" fill="none" xmlns="http://www.w3.org/2000/svg">
<path d="M455.465 130.955C455.465 131.631 454.915 132.187 454.232 132.187C453.549 132.187 453 131.638 453 130.955C453 130.278 453.549 129.722 454.232 129.722C454.915 129.722 455.465 130.271 455.465 130.955Z" fill="black"/>
<path d="M466.088 130.955C466.088 131.631 465.539 132.187 464.855 132.187C464.179 132.187 463.623 131.638 463.623 130.955C463.623 130.278 464.172 129.722 464.855 129.722C465.539 129.722 466.088 130.271 466.088 130.955Z" fill="black"/>
<path d="M476.709 130.955C476.709 131.631 476.16 132.187 475.476 132.187C474.8 132.187 474.244 131.638 474.244 130.955C474.244 130.278 474.793 129.722 475.476 129.722C476.16 129.722 476.709 130.271 476.709 130.955Z" fill="black"/>
<path d="M487.332 130.955C487.332 131.631 486.783 132.187 486.1 132.187C485.423 132.187 484.867 131.638 484.867 130.955C484.867 130.278 485.416 129.722 486.1 129.722C486.783 129.722 487.332 130.271 487.332 130.955Z" fill="black"/>
<path d="M497.953 130.955C497.953 131.631 497.404 132.187 496.721 132.187C496.044 132.187 495.488 131.638 495.488 130.955C495.488 130.278 496.037 129.722 496.721 129.722C497.404 129.722 497.953 130.271 497.953 130.955Z" fill="black"/>
<path d="M508.576 130.955C508.576 131.631 508.027 132.187 507.344 132.187C506.667 132.187 506.111 131.638 506.111 130.955C506.111 130.278 506.661 129.722 507.344 129.722C508.027 129.722 508.576 130.271 508.576 130.955Z" fill="black"/>
<path d="M519.197 130.955C519.197 131.631 518.648 132.187 517.965 132.187C517.288 132.187 516.732 131.638 516.732 130.955C516.732 130.278 517.282 129.722 517.965 129.722C518.648 129.722 519.197 130.271 519.197 130.955Z" fill="black"/>
<path d="M455.465 141.669C455.465 142.346 454.915 142.902 454.232 142.902C453.549 142.902 453 142.352 453 141.669C453 140.993 453.549 140.437 454.232 140.437C454.915 140.437 455.465 140.986 455.465 141.669Z" fill="black"/>
<path d="M466.088 141.669C466.088 142.346 465.539 142.902 464.855 142.902C464.179 142.902 463.623 142.352 463.623 141.669C463.623 140.993 464.172 140.437 464.855 140.437C465.539 140.437 466.088 140.986 466.088 141.669Z" fill="black"/>
<path d="M476.709 141.669C476.709 142.346 476.16 142.902 475.476 142.902C474.8 142.902 474.244 142.352 474.244 141.669C474.244 140.993 474.793 140.437 475.476 140.437C476.16 140.437 476.709 140.986 476.709 141.669Z" fill="black"/>
<path d="M487.332 141.669C487.332 142.346 486.783 142.902 486.1 142.902C485.423 142.902 484.867 142.352 484.867 141.669C484.867 140.993 485.416 140.437 486.1 140.437C486.783 140.437 487.332 140.986 487.332 141.669Z" fill="black"/>
<path d="M497.953 141.669C497.953 142.346 497.404 142.902 496.721 142.902C496.044 142.902 495.488 142.352 495.488 141.669C495.488 140.993 496.037 140.437 496.721 140.437C497.404 140.437 497.953 140.986 497.953 141.669Z" fill="black"/>
<path d="M508.576 141.669C508.576 142.346 508.027 142.902 507.344 142.902C506.667 142.902 506.111 142.352 506.111 141.669C506.111 140.993 506.661 140.437 507.344 140.437C508.027 140.437 508.576 140.986 508.576 141.669Z" fill="black"/>
<path d="M519.197 141.669C519.197 142.346 518.648 142.902 517.965 142.902C517.288 142.902 516.732 142.352 516.732 141.669C516.732 140.993 517.282 140.437 517.965 140.437C518.648 140.437 519.197 140.986 519.197 141.669Z" fill="black"/>
<path d="M455.465 119.41C455.465 120.087 454.915 120.642 454.232 120.642C453.549 120.642 453 120.093 453 119.41C453 118.734 453.549 118.178 454.232 118.178C454.915 118.178 455.465 118.727 455.465 119.41Z" fill="black"/>
<path d="M466.088 119.41C466.088 120.087 465.539 120.642 464.855 120.642C464.179 120.642 463.623 120.093 463.623 119.41C463.623 118.734 464.172 118.178 464.855 118.178C465.539 118.178 466.088 118.727 466.088 119.41Z" fill="black"/>
<path d="M476.709 119.41C476.709 120.087 476.16 120.642 475.476 120.642C474.8 120.642 474.244 120.093 474.244 119.41C474.244 118.734 474.793 118.178 475.476 118.178C476.16 118.178 476.709 118.727 476.709 119.41Z" fill="black"/>
<path d="M487.332 119.41C487.332 120.087 486.783 120.642 486.1 120.642C485.423 120.642 484.867 120.093 484.867 119.41C484.867 118.734 485.416 118.178 486.1 118.178C486.783 118.178 487.332 118.727 487.332 119.41Z" fill="black"/>
<path d="M497.953 119.41C497.953 120.087 497.404 120.642 496.721 120.642C496.044 120.642 495.488 120.093 495.488 119.41C495.488 118.734 496.037 118.178 496.721 118.178C497.404 118.178 497.953 118.727 497.953 119.41Z" fill="black"/>
<path d="M508.576 119.41C508.576 120.087 508.027 120.642 507.344 120.642C506.667 120.642 506.111 120.093 506.111 119.41C506.111 118.734 506.661 118.178 507.344 118.178C508.027 118.178 508.576 118.727 508.576 119.41Z" fill="black"/>
<path d="M519.197 119.41C519.197 120.087 518.648 120.642 517.965 120.642C517.288 120.642 516.732 120.093 516.732 119.41C516.732 118.734 517.282 118.178 517.965 118.178C518.648 118.178 519.197 118.727 519.197 119.41Z" fill="black"/>
<path d="M455.465 107.866C455.465 108.542 454.915 109.098 454.232 109.098C453.549 109.098 453 108.549 453 107.866C453 107.189 453.549 106.633 454.232 106.633C454.915 106.633 455.465 107.182 455.465 107.866Z" fill="black"/>
<path d="M466.088 107.866C466.088 108.542 465.539 109.098 464.855 109.098C464.179 109.098 463.623 108.549 463.623 107.866C463.623 107.189 464.172 106.633 464.855 106.633C465.539 106.633 466.088 107.182 466.088 107.866Z" fill="black"/>
<path d="M476.709 107.866C476.709 108.542 476.16 109.098 475.476 109.098C474.8 109.098 474.244 108.549 474.244 107.866C474.244 107.189 474.793 106.633 475.476 106.633C476.16 106.633 476.709 107.182 476.709 107.866Z" fill="black"/>
<path d="M487.332 107.866C487.332 108.542 486.783 109.098 486.1 109.098C485.423 109.098 484.867 108.549 484.867 107.866C484.867 107.189 485.416 106.633 486.1 106.633C486.783 106.633 487.332 107.182 487.332 107.866Z" fill="black"/>
<path d="M497.953 107.866C497.953 108.542 497.404 109.098 496.721 109.098C496.044 109.098 495.488 108.549 495.488 107.866C495.488 107.189 496.037 106.633 496.721 106.633C497.404 106.633 497.953 107.182 497.953 107.866Z" fill="black"/>
<path d="M508.576 107.866C508.576 108.542 508.027 109.098 507.344 109.098C506.667 109.098 506.111 108.549 506.111 107.866C506.111 107.189 506.661 106.633 507.344 106.633C508.027 106.633 508.576 107.182 508.576 107.866Z" fill="black"/>
<path d="M519.197 107.866C519.197 108.542 518.648 109.098 517.965 109.098C517.288 109.098 516.732 108.549 516.732 107.866C516.732 107.189 517.282 106.633 517.965 106.633C518.648 106.633 519.197 107.182 519.197 107.866Z" fill="black"/>
<path d="M455.465 96.3212C455.465 96.9977 454.915 97.5536 454.232 97.5536C453.549 97.5536 453 97.0043 453 96.3212C453 95.6448 453.549 95.0889 454.232 95.0889C454.915 95.0889 455.465 95.6381 455.465 96.3212Z" fill="black"/>
<path d="M466.088 96.3212C466.088 96.9977 465.539 97.5536 464.855 97.5536C464.179 97.5536 463.623 97.0043 463.623 96.3212C463.623 95.6448 464.172 95.0889 464.855 95.0889C465.539 95.0889 466.088 95.6381 466.088 96.3212Z" fill="black"/>
<path d="M476.709 96.3212C476.709 96.9977 476.16 97.5536 475.476 97.5536C474.8 97.5536 474.244 97.0043 474.244 96.3212C474.244 95.6448 474.793 95.0889 475.476 95.0889C476.16 95.0889 476.709 95.6381 476.709 96.3212Z" fill="black"/>
<path d="M487.332 96.3212C487.332 96.9977 486.783 97.5536 486.1 97.5536C485.423 97.5536 484.867 97.0043 484.867 96.3212C484.867 95.6448 485.416 95.0889 486.1 95.0889C486.783 95.0889 487.332 95.6381 487.332 96.3212Z" fill="black"/>
<path d="M497.953 96.3212C497.953 96.9977 497.404 97.5536 496.721 97.5536C496.044 97.5536 495.488 97.0043 495.488 96.3212C495.488 95.6448 496.037 95.0889 496.721 95.0889C497.404 95.0889 497.953 95.6381 497.953 96.3212Z" fill="black"/>
<path d="M508.576 96.3212C508.576 96.9977 508.027 97.5536 507.344 97.5536C506.667 97.5536 506.111 97.0043 506.111 96.3212C506.111 95.6448 506.661 95.0889 507.344 95.0889C508.027 95.0889 508.576 95.6381 508.576 96.3212Z" fill="black"/>
<path d="M519.197 96.3212C519.197 96.9977 518.648 97.5536 517.965 97.5536C517.288 97.5536 516.732 97.0043 516.732 96.3212C516.732 95.6448 517.282 95.0889 517.965 95.0889C518.648 95.0889 519.197 95.6381 519.197 96.3212Z" fill="black"/>
<path d="M455.465 84.7768C455.465 85.4532 454.915 86.0091 454.232 86.0091C453.549 86.0091 453 85.4599 453 84.7768C453 84.1003 453.549 83.5444 454.232 83.5444C454.915 83.5444 455.465 84.0936 455.465 84.7768Z" fill="black"/>
<path d="M466.088 84.7768C466.088 85.4532 465.539 86.0091 464.855 86.0091C464.179 86.0091 463.623 85.4599 463.623 84.7768C463.623 84.1003 464.172 83.5444 464.855 83.5444C465.539 83.5444 466.088 84.0936 466.088 84.7768Z" fill="black"/>
<path d="M476.709 84.7768C476.709 85.4532 476.16 86.0091 475.476 86.0091C474.8 86.0091 474.244 85.4599 474.244 84.7768C474.244 84.1003 474.793 83.5444 475.476 83.5444C476.16 83.5444 476.709 84.0936 476.709 84.7768Z" fill="black"/>
<path d="M487.332 84.7768C487.332 85.4532 486.783 86.0091 486.1 86.0091C485.423 86.0091 484.867 85.4599 484.867 84.7768C484.867 84.1003 485.416 83.5444 486.1 83.5444C486.783 83.5444 487.332 84.0936 487.332 84.7768Z" fill="black"/>
<path d="M497.953 84.7768C497.953 85.4532 497.404 86.0091 496.721 86.0091C496.044 86.0091 495.488 85.4599 495.488 84.7768C495.488 84.1003 496.037 83.5444 496.721 83.5444C497.404 83.5444 497.953 84.0936 497.953 84.7768Z" fill="black"/>
<path d="M508.576 84.7768C508.576 85.4532 508.027 86.0091 507.344 86.0091C506.667 86.0091 506.111 85.4599 506.111 84.7768C506.111 84.1003 506.661 83.5444 507.344 83.5444C508.027 83.5444 508.576 84.0936 508.576 84.7768Z" fill="black"/>
<path d="M519.197 84.7768C519.197 85.4532 518.648 86.0091 517.965 86.0091C517.288 86.0091 516.732 85.4599 516.732 84.7768C516.732 84.1003 517.282 83.5444 517.965 83.5444C518.648 83.5444 519.197 84.0936 519.197 84.7768Z" fill="black"/>
<path d="M455.465 73.2323C455.465 73.9088 454.915 74.4647 454.232 74.4647C453.549 74.4647 453 73.9155 453 73.2323C453 72.5559 453.549 72 454.232 72C454.915 72 455.465 72.5559 455.465 73.2323Z" fill="black"/>
<path d="M466.088 73.2323C466.088 73.9088 465.539 74.4647 464.855 74.4647C464.179 74.4647 463.623 73.9155 463.623 73.2323C463.623 72.5559 464.172 72 464.855 72C465.539 72 466.088 72.5559 466.088 73.2323Z" fill="black"/>
<path d="M476.709 73.2323C476.709 73.9088 476.16 74.4647 475.476 74.4647C474.8 74.4647 474.244 73.9155 474.244 73.2323C474.244 72.5559 474.793 72 475.476 72C476.16 72 476.709 72.5559 476.709 73.2323Z" fill="black"/>
<path d="M487.332 73.2323C487.332 73.9088 486.783 74.4647 486.1 74.4647C485.423 74.4647 484.867 73.9155 484.867 73.2323C484.867 72.5559 485.416 72 486.1 72C486.783 72 487.332 72.5559 487.332 73.2323Z" fill="black"/>
<path d="M497.953 73.2323C497.953 73.9088 497.404 74.4647 496.721 74.4647C496.044 74.4647 495.488 73.9155 495.488 73.2323C495.488 72.5559 496.037 72 496.721 72C497.404 72 497.953 72.5559 497.953 73.2323Z" fill="black"/>
<path d="M508.576 73.2323C508.576 73.9088 508.027 74.4647 507.344 74.4647C506.667 74.4647 506.111 73.9155 506.111 73.2323C506.111 72.5559 506.661 72 507.344 72C508.027 72 508.576 72.5559 508.576 73.2323Z" fill="black"/>
<path d="M519.197 73.2323C519.197 73.9088 518.648 74.4647 517.965 74.4647C517.288 74.4647 516.732 73.9155 516.732 73.2323C516.732 72.5559 517.282 72 517.965 72C518.648 72 519.197 72.5559 519.197 73.2323Z" fill="black"/>
<path d="M104.465 470.955C104.465 471.631 103.915 472.187 103.232 472.187C102.549 472.187 102 471.638 102 470.955C102 470.278 102.549 469.722 103.232 469.722C103.915 469.722 104.465 470.271 104.465 470.955Z" fill="black"/>
<path d="M115.088 470.955C115.088 471.631 114.539 472.187 113.855 472.187C113.179 472.187 112.623 471.638 112.623 470.955C112.623 470.278 113.172 469.722 113.855 469.722C114.539 469.722 115.088 470.271 115.088 470.955Z" fill="black"/>
<path d="M125.709 470.955C125.709 471.631 125.16 472.187 124.476 472.187C123.8 472.187 123.244 471.638 123.244 470.955C123.244 470.278 123.793 469.722 124.476 469.722C125.16 469.722 125.709 470.271 125.709 470.955Z" fill="black"/>
<path d="M136.332 470.955C136.332 471.631 135.783 472.187 135.1 472.187C134.423 472.187 133.867 471.638 133.867 470.955C133.867 470.278 134.416 469.722 135.1 469.722C135.783 469.722 136.332 470.271 136.332 470.955Z" fill="black"/>
<path d="M146.953 470.955C146.953 471.631 146.404 472.187 145.721 472.187C145.044 472.187 144.488 471.638 144.488 470.955C144.488 470.278 145.037 469.722 145.721 469.722C146.404 469.722 146.953 470.271 146.953 470.955Z" fill="black"/>
<path d="M157.576 470.955C157.576 471.631 157.027 472.187 156.344 472.187C155.667 472.187 155.111 471.638 155.111 470.955C155.111 470.278 155.661 469.722 156.344 469.722C157.027 469.722 157.576 470.271 157.576 470.955Z" fill="black"/>
<path d="M168.197 470.955C168.197 471.631 167.648 472.187 166.965 472.187C166.288 472.187 165.732 471.638 165.732 470.955C165.732 470.278 166.282 469.722 166.965 469.722C167.648 469.722 168.197 470.271 168.197 470.955Z" fill="black"/>
<path d="M104.465 481.669C104.465 482.346 103.915 482.902 103.232 482.902C102.549 482.902 102 482.352 102 481.669C102 480.993 102.549 480.437 103.232 480.437C103.915 480.437 104.465 480.986 104.465 481.669Z" fill="black"/>
<path d="M115.088 481.669C115.088 482.346 114.539 482.902 113.855 482.902C113.179 482.902 112.623 482.352 112.623 481.669C112.623 480.993 113.172 480.437 113.855 480.437C114.539 480.437 115.088 480.986 115.088 481.669Z" fill="black"/>
<path d="M125.709 481.669C125.709 482.346 125.16 482.902 124.476 482.902C123.8 482.902 123.244 482.352 123.244 481.669C123.244 480.993 123.793 480.437 124.476 480.437C125.16 480.437 125.709 480.986 125.709 481.669Z" fill="black"/>
<path d="M136.332 481.669C136.332 482.346 135.783 482.902 135.1 482.902C134.423 482.902 133.867 482.352 133.867 481.669C133.867 480.993 134.416 480.437 135.1 480.437C135.783 480.437 136.332 480.986 136.332 481.669Z" fill="black"/>
<path d="M146.953 481.669C146.953 482.346 146.404 482.902 145.721 482.902C145.044 482.902 144.488 482.352 144.488 481.669C144.488 480.993 145.037 480.437 145.721 480.437C146.404 480.437 146.953 480.986 146.953 481.669Z" fill="black"/>
<path d="M157.576 481.669C157.576 482.346 157.027 482.902 156.344 482.902C155.667 482.902 155.111 482.352 155.111 481.669C155.111 480.993 155.661 480.437 156.344 480.437C157.027 480.437 157.576 480.986 157.576 481.669Z" fill="black"/>
<path d="M168.197 481.669C168.197 482.346 167.648 482.902 166.965 482.902C166.288 482.902 165.732 482.352 165.732 481.669C165.732 480.993 166.282 480.437 166.965 480.437C167.648 480.437 168.197 480.986 168.197 481.669Z" fill="black"/>
<path d="M104.465 459.41C104.465 460.087 103.915 460.642 103.232 460.642C102.549 460.642 102 460.093 102 459.41C102 458.734 102.549 458.178 103.232 458.178C103.915 458.178 104.465 458.727 104.465 459.41Z" fill="black"/>
<path d="M115.088 459.41C115.088 460.087 114.539 460.642 113.855 460.642C113.179 460.642 112.623 460.093 112.623 459.41C112.623 458.734 113.172 458.178 113.855 458.178C114.539 458.178 115.088 458.727 115.088 459.41Z" fill="black"/>
<path d="M125.709 459.41C125.709 460.087 125.16 460.642 124.476 460.642C123.8 460.642 123.244 460.093 123.244 459.41C123.244 458.734 123.793 458.178 124.476 458.178C125.16 458.178 125.709 458.727 125.709 459.41Z" fill="black"/>
<path d="M136.332 459.41C136.332 460.087 135.783 460.642 135.1 460.642C134.423 460.642 133.867 460.093 133.867 459.41C133.867 458.734 134.416 458.178 135.1 458.178C135.783 458.178 136.332 458.727 136.332 459.41Z" fill="black"/>
<path d="M146.953 459.41C146.953 460.087 146.404 460.642 145.721 460.642C145.044 460.642 144.488 460.093 144.488 459.41C144.488 458.734 145.037 458.178 145.721 458.178C146.404 458.178 146.953 458.727 146.953 459.41Z" fill="black"/>
<path d="M157.576 459.41C157.576 460.087 157.027 460.642 156.344 460.642C155.667 460.642 155.111 460.093 155.111 459.41C155.111 458.734 155.661 458.178 156.344 458.178C157.027 458.178 157.576 458.727 157.576 459.41Z" fill="black"/>
<path d="M168.197 459.41C168.197 460.087 167.648 460.642 166.965 460.642C166.288 460.642 165.732 460.093 165.732 459.41C165.732 458.734 166.282 458.178 166.965 458.178C167.648 458.178 168.197 458.727 168.197 459.41Z" fill="black"/>
<path d="M104.465 447.866C104.465 448.542 103.915 449.098 103.232 449.098C102.549 449.098 102 448.549 102 447.866C102 447.189 102.549 446.633 103.232 446.633C103.915 446.633 104.465 447.182 104.465 447.866Z" fill="black"/>
<path d="M115.088 447.866C115.088 448.542 114.539 449.098 113.855 449.098C113.179 449.098 112.623 448.549 112.623 447.866C112.623 447.189 113.172 446.633 113.855 446.633C114.539 446.633 115.088 447.182 115.088 447.866Z" fill="black"/>
<path d="M125.709 447.866C125.709 448.542 125.16 449.098 124.476 449.098C123.8 449.098 123.244 448.549 123.244 447.866C123.244 447.189 123.793 446.633 124.476 446.633C125.16 446.633 125.709 447.182 125.709 447.866Z" fill="black"/>
<path d="M136.332 447.866C136.332 448.542 135.783 449.098 135.1 449.098C134.423 449.098 133.867 448.549 133.867 447.866C133.867 447.189 134.416 446.633 135.1 446.633C135.783 446.633 136.332 447.182 136.332 447.866Z" fill="black"/>
<path d="M146.953 447.866C146.953 448.542 146.404 449.098 145.721 449.098C145.044 449.098 144.488 448.549 144.488 447.866C144.488 447.189 145.037 446.633 145.721 446.633C146.404 446.633 146.953 447.182 146.953 447.866Z" fill="black"/>
<path d="M157.576 447.866C157.576 448.542 157.027 449.098 156.344 449.098C155.667 449.098 155.111 448.549 155.111 447.866C155.111 447.189 155.661 446.633 156.344 446.633C157.027 446.633 157.576 447.182 157.576 447.866Z" fill="black"/>
<path d="M168.197 447.866C168.197 448.542 167.648 449.098 166.965 449.098C166.288 449.098 165.732 448.549 165.732 447.866C165.732 447.189 166.282 446.633 166.965 446.633C167.648 446.633 168.197 447.182 168.197 447.866Z" fill="black"/>
<path d="M104.465 436.321C104.465 436.998 103.915 437.554 103.232 437.554C102.549 437.554 102 437.004 102 436.321C102 435.645 102.549 435.089 103.232 435.089C103.915 435.089 104.465 435.638 104.465 436.321Z" fill="black"/>
<path d="M115.088 436.321C115.088 436.998 114.539 437.554 113.855 437.554C113.179 437.554 112.623 437.004 112.623 436.321C112.623 435.645 113.172 435.089 113.855 435.089C114.539 435.089 115.088 435.638 115.088 436.321Z" fill="black"/>
<path d="M125.709 436.321C125.709 436.998 125.16 437.554 124.476 437.554C123.8 437.554 123.244 437.004 123.244 436.321C123.244 435.645 123.793 435.089 124.476 435.089C125.16 435.089 125.709 435.638 125.709 436.321Z" fill="black"/>
<path d="M136.332 436.321C136.332 436.998 135.783 437.554 135.1 437.554C134.423 437.554 133.867 437.004 133.867 436.321C133.867 435.645 134.416 435.089 135.1 435.089C135.783 435.089 136.332 435.638 136.332 436.321Z" fill="black"/>
<path d="M146.953 436.321C146.953 436.998 146.404 437.554 145.721 437.554C145.044 437.554 144.488 437.004 144.488 436.321C144.488 435.645 145.037 435.089 145.721 435.089C146.404 435.089 146.953 435.638 146.953 436.321Z" fill="black"/>
<path d="M157.576 436.321C157.576 436.998 157.027 437.554 156.344 437.554C155.667 437.554 155.111 437.004 155.111 436.321C155.111 435.645 155.661 435.089 156.344 435.089C157.027 435.089 157.576 435.638 157.576 436.321Z" fill="black"/>
<path d="M168.197 436.321C168.197 436.998 167.648 437.554 166.965 437.554C166.288 437.554 165.732 437.004 165.732 436.321C165.732 435.645 166.282 435.089 166.965 435.089C167.648 435.089 168.197 435.638 168.197 436.321Z" fill="black"/>
<path d="M104.465 424.777C104.465 425.453 103.915 426.009 103.232 426.009C102.549 426.009 102 425.46 102 424.777C102 424.1 102.549 423.544 103.232 423.544C103.915 423.544 104.465 424.094 104.465 424.777Z" fill="black"/>
<path d="M115.088 424.777C115.088 425.453 114.539 426.009 113.855 426.009C113.179 426.009 112.623 425.46 112.623 424.777C112.623 424.1 113.172 423.544 113.855 423.544C114.539 423.544 115.088 424.094 115.088 424.777Z" fill="black"/>
<path d="M125.709 424.777C125.709 425.453 125.16 426.009 124.476 426.009C123.8 426.009 123.244 425.46 123.244 424.777C123.244 424.1 123.793 423.544 124.476 423.544C125.16 423.544 125.709 424.094 125.709 424.777Z" fill="black"/>
<path d="M136.332 424.777C136.332 425.453 135.783 426.009 135.1 426.009C134.423 426.009 133.867 425.46 133.867 424.777C133.867 424.1 134.416 423.544 135.1 423.544C135.783 423.544 136.332 424.094 136.332 424.777Z" fill="black"/>
<path d="M146.953 424.777C146.953 425.453 146.404 426.009 145.721 426.009C145.044 426.009 144.488 425.46 144.488 424.777C144.488 424.1 145.037 423.544 145.721 423.544C146.404 423.544 146.953 424.094 146.953 424.777Z" fill="black"/>
<path d="M157.576 424.777C157.576 425.453 157.027 426.009 156.344 426.009C155.667 426.009 155.111 425.46 155.111 424.777C155.111 424.1 155.661 423.544 156.344 423.544C157.027 423.544 157.576 424.094 157.576 424.777Z" fill="black"/>
<path d="M168.197 424.777C168.197 425.453 167.648 426.009 166.965 426.009C166.288 426.009 165.732 425.46 165.732 424.777C165.732 424.1 166.282 423.544 166.965 423.544C167.648 423.544 168.197 424.094 168.197 424.777Z" fill="black"/>
<path d="M104.465 413.232C104.465 413.909 103.915 414.465 103.232 414.465C102.549 414.465 102 413.915 102 413.232C102 412.556 102.549 412 103.232 412C103.915 412 104.465 412.556 104.465 413.232Z" fill="black"/>
<path d="M115.088 413.232C115.088 413.909 114.539 414.465 113.855 414.465C113.179 414.465 112.623 413.915 112.623 413.232C112.623 412.556 113.172 412 113.855 412C114.539 412 115.088 412.556 115.088 413.232Z" fill="black"/>
<path d="M125.709 413.232C125.709 413.909 125.16 414.465 124.476 414.465C123.8 414.465 123.244 413.915 123.244 413.232C123.244 412.556 123.793 412 124.476 412C125.16 412 125.709 412.556 125.709 413.232Z" fill="black"/>
<path d="M136.332 413.232C136.332 413.909 135.783 414.465 135.1 414.465C134.423 414.465 133.867 413.915 133.867 413.232C133.867 412.556 134.416 412 135.1 412C135.783 412 136.332 412.556 136.332 413.232Z" fill="black"/>
<path d="M146.953 413.232C146.953 413.909 146.404 414.465 145.721 414.465C145.044 414.465 144.488 413.915 144.488 413.232C144.488 412.556 145.037 412 145.721 412C146.404 412 146.953 412.556 146.953 413.232Z" fill="black"/>
<path d="M157.576 413.232C157.576 413.909 157.027 414.465 156.344 414.465C155.667 414.465 155.111 413.915 155.111 413.232C155.111 412.556 155.661 412 156.344 412C157.027 412 157.576 412.556 157.576 413.232Z" fill="black"/>
<path d="M168.197 413.232C168.197 413.909 167.648 414.465 166.965 414.465C166.288 414.465 165.732 413.915 165.732 413.232C165.732 412.556 166.282 412 166.965 412C167.648 412 168.197 412.556 168.197 413.232Z" fill="black"/>
<path d="M196.465 273.955C196.465 274.631 195.915 275.187 195.232 275.187C194.549 275.187 194 274.638 194 273.955C194 273.278 194.549 272.722 195.232 272.722C195.915 272.722 196.465 273.271 196.465 273.955Z" fill="black"/>
<path d="M207.088 273.955C207.088 274.631 206.539 275.187 205.855 275.187C205.179 275.187 204.623 274.638 204.623 273.955C204.623 273.278 205.172 272.722 205.855 272.722C206.539 272.722 207.088 273.271 207.088 273.955Z" fill="black"/>
<path d="M217.709 273.955C217.709 274.631 217.16 275.187 216.476 275.187C215.8 275.187 215.244 274.638 215.244 273.955C215.244 273.278 215.793 272.722 216.476 272.722C217.16 272.722 217.709 273.271 217.709 273.955Z" fill="black"/>
<path d="M228.332 273.955C228.332 274.631 227.783 275.187 227.1 275.187C226.423 275.187 225.867 274.638 225.867 273.955C225.867 273.278 226.416 272.722 227.1 272.722C227.783 272.722 228.332 273.271 228.332 273.955Z" fill="black"/>
<path d="M238.953 273.955C238.953 274.631 238.404 275.187 237.721 275.187C237.044 275.187 236.488 274.638 236.488 273.955C236.488 273.278 237.037 272.722 237.721 272.722C238.404 272.722 238.953 273.271 238.953 273.955Z" fill="black"/>
<path d="M249.576 273.955C249.576 274.631 249.027 275.187 248.344 275.187C247.667 275.187 247.111 274.638 247.111 273.955C247.111 273.278 247.661 272.722 248.344 272.722C249.027 272.722 249.576 273.271 249.576 273.955Z" fill="black"/>
<path d="M260.197 273.955C260.197 274.631 259.648 275.187 258.965 275.187C258.288 275.187 257.732 274.638 257.732 273.955C257.732 273.278 258.282 272.722 258.965 272.722C259.648 272.722 260.197 273.271 260.197 273.955Z" fill="black"/>
<path d="M196.465 284.669C196.465 285.346 195.915 285.902 195.232 285.902C194.549 285.902 194 285.352 194 284.669C194 283.993 194.549 283.437 195.232 283.437C195.915 283.437 196.465 283.986 196.465 284.669Z" fill="black"/>
<path d="M207.088 284.669C207.088 285.346 206.539 285.902 205.855 285.902C205.179 285.902 204.623 285.352 204.623 284.669C204.623 283.993 205.172 283.437 205.855 283.437C206.539 283.437 207.088 283.986 207.088 284.669Z" fill="black"/>
<path d="M217.709 284.669C217.709 285.346 217.16 285.902 216.476 285.902C215.8 285.902 215.244 285.352 215.244 284.669C215.244 283.993 215.793 283.437 216.476 283.437C217.16 283.437 217.709 283.986 217.709 284.669Z" fill="black"/>
<path d="M228.332 284.669C228.332 285.346 227.783 285.902 227.1 285.902C226.423 285.902 225.867 285.352 225.867 284.669C225.867 283.993 226.416 283.437 227.1 283.437C227.783 283.437 228.332 283.986 228.332 284.669Z" fill="black"/>
<path d="M238.953 284.669C238.953 285.346 238.404 285.902 237.721 285.902C237.044 285.902 236.488 285.352 236.488 284.669C236.488 283.993 237.037 283.437 237.721 283.437C238.404 283.437 238.953 283.986 238.953 284.669Z" fill="black"/>
<path d="M249.576 284.669C249.576 285.346 249.027 285.902 248.344 285.902C247.667 285.902 247.111 285.352 247.111 284.669C247.111 283.993 247.661 283.437 248.344 283.437C249.027 283.437 249.576 283.986 249.576 284.669Z" fill="black"/>
<path d="M260.197 284.669C260.197 285.346 259.648 285.902 258.965 285.902C258.288 285.902 257.732 285.352 257.732 284.669C257.732 283.993 258.282 283.437 258.965 283.437C259.648 283.437 260.197 283.986 260.197 284.669Z" fill="black"/>
<path d="M196.465 262.41C196.465 263.087 195.915 263.642 195.232 263.642C194.549 263.642 194 263.093 194 262.41C194 261.734 194.549 261.178 195.232 261.178C195.915 261.178 196.465 261.727 196.465 262.41Z" fill="black"/>
<path d="M207.088 262.41C207.088 263.087 206.539 263.642 205.855 263.642C205.179 263.642 204.623 263.093 204.623 262.41C204.623 261.734 205.172 261.178 205.855 261.178C206.539 261.178 207.088 261.727 207.088 262.41Z" fill="black"/>
<path d="M217.709 262.41C217.709 263.087 217.16 263.642 216.476 263.642C215.8 263.642 215.244 263.093 215.244 262.41C215.244 261.734 215.793 261.178 216.476 261.178C217.16 261.178 217.709 261.727 217.709 262.41Z" fill="black"/>
<path d="M228.332 262.41C228.332 263.087 227.783 263.642 227.1 263.642C226.423 263.642 225.867 263.093 225.867 262.41C225.867 261.734 226.416 261.178 227.1 261.178C227.783 261.178 228.332 261.727 228.332 262.41Z" fill="black"/>
<path d="M238.953 262.41C238.953 263.087 238.404 263.642 237.721 263.642C237.044 263.642 236.488 263.093 236.488 262.41C236.488 261.734 237.037 261.178 237.721 261.178C238.404 261.178 238.953 261.727 238.953 262.41Z" fill="black"/>
<path d="M249.576 262.41C249.576 263.087 249.027 263.642 248.344 263.642C247.667 263.642 247.111 263.093 247.111 262.41C247.111 261.734 247.661 261.178 248.344 261.178C249.027 261.178 249.576 261.727 249.576 262.41Z" fill="black"/>
<path d="M260.197 262.41C260.197 263.087 259.648 263.642 258.965 263.642C258.288 263.642 257.732 263.093 257.732 262.41C257.732 261.734 258.282 261.178 258.965 261.178C259.648 261.178 260.197 261.727 260.197 262.41Z" fill="black"/>
<path d="M196.465 250.866C196.465 251.542 195.915 252.098 195.232 252.098C194.549 252.098 194 251.549 194 250.866C194 250.189 194.549 249.633 195.232 249.633C195.915 249.633 196.465 250.182 196.465 250.866Z" fill="black"/>
<path d="M207.088 250.866C207.088 251.542 206.539 252.098 205.855 252.098C205.179 252.098 204.623 251.549 204.623 250.866C204.623 250.189 205.172 249.633 205.855 249.633C206.539 249.633 207.088 250.182 207.088 250.866Z" fill="black"/>
<path d="M217.709 250.866C217.709 251.542 217.16 252.098 216.476 252.098C215.8 252.098 215.244 251.549 215.244 250.866C215.244 250.189 215.793 249.633 216.476 249.633C217.16 249.633 217.709 250.182 217.709 250.866Z" fill="black"/>
<path d="M228.332 250.866C228.332 251.542 227.783 252.098 227.1 252.098C226.423 252.098 225.867 251.549 225.867 250.866C225.867 250.189 226.416 249.633 227.1 249.633C227.783 249.633 228.332 250.182 228.332 250.866Z" fill="black"/>
<path d="M238.953 250.866C238.953 251.542 238.404 252.098 237.721 252.098C237.044 252.098 236.488 251.549 236.488 250.866C236.488 250.189 237.037 249.633 237.721 249.633C238.404 249.633 238.953 250.182 238.953 250.866Z" fill="black"/>
<path d="M249.576 250.866C249.576 251.542 249.027 252.098 248.344 252.098C247.667 252.098 247.111 251.549 247.111 250.866C247.111 250.189 247.661 249.633 248.344 249.633C249.027 249.633 249.576 250.182 249.576 250.866Z" fill="black"/>
<path d="M260.197 250.866C260.197 251.542 259.648 252.098 258.965 252.098C258.288 252.098 257.732 251.549 257.732 250.866C257.732 250.189 258.282 249.633 258.965 249.633C259.648 249.633 260.197 250.182 260.197 250.866Z" fill="black"/>
<path d="M196.465 239.321C196.465 239.998 195.915 240.554 195.232 240.554C194.549 240.554 194 240.004 194 239.321C194 238.645 194.549 238.089 195.232 238.089C195.915 238.089 196.465 238.638 196.465 239.321Z" fill="black"/>
<path d="M207.088 239.321C207.088 239.998 206.539 240.554 205.855 240.554C205.179 240.554 204.623 240.004 204.623 239.321C204.623 238.645 205.172 238.089 205.855 238.089C206.539 238.089 207.088 238.638 207.088 239.321Z" fill="black"/>
<path d="M217.709 239.321C217.709 239.998 217.16 240.554 216.476 240.554C215.8 240.554 215.244 240.004 215.244 239.321C215.244 238.645 215.793 238.089 216.476 238.089C217.16 238.089 217.709 238.638 217.709 239.321Z" fill="black"/>
<path d="M228.332 239.321C228.332 239.998 227.783 240.554 227.1 240.554C226.423 240.554 225.867 240.004 225.867 239.321C225.867 238.645 226.416 238.089 227.1 238.089C227.783 238.089 228.332 238.638 228.332 239.321Z" fill="black"/>
<path d="M238.953 239.321C238.953 239.998 238.404 240.554 237.721 240.554C237.044 240.554 236.488 240.004 236.488 239.321C236.488 238.645 237.037 238.089 237.721 238.089C238.404 238.089 238.953 238.638 238.953 239.321Z" fill="black"/>
<path d="M249.576 239.321C249.576 239.998 249.027 240.554 248.344 240.554C247.667 240.554 247.111 240.004 247.111 239.321C247.111 238.645 247.661 238.089 248.344 238.089C249.027 238.089 249.576 238.638 249.576 239.321Z" fill="black"/>
<path d="M260.197 239.321C260.197 239.998 259.648 240.554 258.965 240.554C258.288 240.554 257.732 240.004 257.732 239.321C257.732 238.645 258.282 238.089 258.965 238.089C259.648 238.089 260.197 238.638 260.197 239.321Z" fill="black"/>
<path d="M196.465 227.777C196.465 228.453 195.915 229.009 195.232 229.009C194.549 229.009 194 228.46 194 227.777C194 227.1 194.549 226.544 195.232 226.544C195.915 226.544 196.465 227.094 196.465 227.777Z" fill="black"/>
<path d="M207.088 227.777C207.088 228.453 206.539 229.009 205.855 229.009C205.179 229.009 204.623 228.46 204.623 227.777C204.623 227.1 205.172 226.544 205.855 226.544C206.539 226.544 207.088 227.094 207.088 227.777Z" fill="black"/>
<path d="M217.709 227.777C217.709 228.453 217.16 229.009 216.476 229.009C215.8 229.009 215.244 228.46 215.244 227.777C215.244 227.1 215.793 226.544 216.476 226.544C217.16 226.544 217.709 227.094 217.709 227.777Z" fill="black"/>
<path d="M228.332 227.777C228.332 228.453 227.783 229.009 227.1 229.009C226.423 229.009 225.867 228.46 225.867 227.777C225.867 227.1 226.416 226.544 227.1 226.544C227.783 226.544 228.332 227.094 228.332 227.777Z" fill="black"/>
<path d="M238.953 227.777C238.953 228.453 238.404 229.009 237.721 229.009C237.044 229.009 236.488 228.46 236.488 227.777C236.488 227.1 237.037 226.544 237.721 226.544C238.404 226.544 238.953 227.094 238.953 227.777Z" fill="black"/>
<path d="M249.576 227.777C249.576 228.453 249.027 229.009 248.344 229.009C247.667 229.009 247.111 228.46 247.111 227.777C247.111 227.1 247.661 226.544 248.344 226.544C249.027 226.544 249.576 227.094 249.576 227.777Z" fill="black"/>
<path d="M260.197 227.777C260.197 228.453 259.648 229.009 258.965 229.009C258.288 229.009 257.732 228.46 257.732 227.777C257.732 227.1 258.282 226.544 258.965 226.544C259.648 226.544 260.197 227.094 260.197 227.777Z" fill="black"/>
<path d="M196.465 216.232C196.465 216.909 195.915 217.465 195.232 217.465C194.549 217.465 194 216.915 194 216.232C194 215.556 194.549 215 195.232 215C195.915 215 196.465 215.556 196.465 216.232Z" fill="black"/>
<path d="M207.088 216.232C207.088 216.909 206.539 217.465 205.855 217.465C205.179 217.465 204.623 216.915 204.623 216.232C204.623 215.556 205.172 215 205.855 215C206.539 215 207.088 215.556 207.088 216.232Z" fill="black"/>
<path d="M217.709 216.232C217.709 216.909 217.16 217.465 216.476 217.465C215.8 217.465 215.244 216.915 215.244 216.232C215.244 215.556 215.793 215 216.476 215C217.16 215 217.709 215.556 217.709 216.232Z" fill="black"/>
<path d="M228.332 216.232C228.332 216.909 227.783 217.465 227.1 217.465C226.423 217.465 225.867 216.915 225.867 216.232C225.867 215.556 226.416 215 227.1 215C227.783 215 228.332 215.556 228.332 216.232Z" fill="black"/>
<path d="M238.953 216.232C238.953 216.909 238.404 217.465 237.721 217.465C237.044 217.465 236.488 216.915 236.488 216.232C236.488 215.556 237.037 215 237.721 215C238.404 215 238.953 215.556 238.953 216.232Z" fill="black"/>
<path d="M249.576 216.232C249.576 216.909 249.027 217.465 248.344 217.465C247.667 217.465 247.111 216.915 247.111 216.232C247.111 215.556 247.661 215 248.344 215C249.027 215 249.576 215.556 249.576 216.232Z" fill="black"/>
<path d="M260.197 216.232C260.197 216.909 259.648 217.465 258.965 217.465C258.288 217.465 257.732 216.915 257.732 216.232C257.732 215.556 258.282 215 258.965 215C259.648 215 260.197 215.556 260.197 216.232Z" fill="black"/>
<path d="M196.465 194.955C196.465 195.631 195.915 196.187 195.232 196.187C194.549 196.187 194 195.638 194 194.955C194 194.278 194.549 193.722 195.232 193.722C195.915 193.722 196.465 194.271 196.465 194.955Z" fill="black"/>
<path d="M207.088 194.955C207.088 195.631 206.539 196.187 205.855 196.187C205.179 196.187 204.623 195.638 204.623 194.955C204.623 194.278 205.172 193.722 205.855 193.722C206.539 193.722 207.088 194.271 207.088 194.955Z" fill="black"/>
<path d="M217.709 194.955C217.709 195.631 217.16 196.187 216.476 196.187C215.8 196.187 215.244 195.638 215.244 194.955C215.244 194.278 215.793 193.722 216.476 193.722C217.16 193.722 217.709 194.271 217.709 194.955Z" fill="black"/>
<path d="M228.332 194.955C228.332 195.631 227.783 196.187 227.1 196.187C226.423 196.187 225.867 195.638 225.867 194.955C225.867 194.278 226.416 193.722 227.1 193.722C227.783 193.722 228.332 194.271 228.332 194.955Z" fill="black"/>
<path d="M238.953 194.955C238.953 195.631 238.404 196.187 237.721 196.187C237.044 196.187 236.488 195.638 236.488 194.955C236.488 194.278 237.037 193.722 237.721 193.722C238.404 193.722 238.953 194.271 238.953 194.955Z" fill="black"/>
<path d="M249.576 194.955C249.576 195.631 249.027 196.187 248.344 196.187C247.667 196.187 247.111 195.638 247.111 194.955C247.111 194.278 247.661 193.722 248.344 193.722C249.027 193.722 249.576 194.271 249.576 194.955Z" fill="black"/>
<path d="M260.197 194.955C260.197 195.631 259.648 196.187 258.965 196.187C258.288 196.187 257.732 195.638 257.732 194.955C257.732 194.278 258.282 193.722 258.965 193.722C259.648 193.722 260.197 194.271 260.197 194.955Z" fill="black"/>
<path d="M196.465 205.669C196.465 206.346 195.915 206.902 195.232 206.902C194.549 206.902 194 206.352 194 205.669C194 204.993 194.549 204.437 195.232 204.437C195.915 204.437 196.465 204.986 196.465 205.669Z" fill="black"/>
<path d="M207.088 205.669C207.088 206.346 206.539 206.902 205.855 206.902C205.179 206.902 204.623 206.352 204.623 205.669C204.623 204.993 205.172 204.437 205.855 204.437C206.539 204.437 207.088 204.986 207.088 205.669Z" fill="black"/>
<path d="M217.709 205.669C217.709 206.346 217.16 206.902 216.476 206.902C215.8 206.902 215.244 206.352 215.244 205.669C215.244 204.993 215.793 204.437 216.476 204.437C217.16 204.437 217.709 204.986 217.709 205.669Z" fill="black"/>
<path d="M228.332 205.669C228.332 206.346 227.783 206.902 227.1 206.902C226.423 206.902 225.867 206.352 225.867 205.669C225.867 204.993 226.416 204.437 227.1 204.437C227.783 204.437 228.332 204.986 228.332 205.669Z" fill="black"/>
<path d="M238.953 205.669C238.953 206.346 238.404 206.902 237.721 206.902C237.044 206.902 236.488 206.352 236.488 205.669C236.488 204.993 237.037 204.437 237.721 204.437C238.404 204.437 238.953 204.986 238.953 205.669Z" fill="black"/>
<path d="M249.576 205.669C249.576 206.346 249.027 206.902 248.344 206.902C247.667 206.902 247.111 206.352 247.111 205.669C247.111 204.993 247.661 204.437 248.344 204.437C249.027 204.437 249.576 204.986 249.576 205.669Z" fill="black"/>
<path d="M260.197 205.669C260.197 206.346 259.648 206.902 258.965 206.902C258.288 206.902 257.732 206.352 257.732 205.669C257.732 204.993 258.282 204.437 258.965 204.437C259.648 204.437 260.197 204.986 260.197 205.669Z" fill="black"/>
<path d="M196.465 183.41C196.465 184.087 195.915 184.642 195.232 184.642C194.549 184.642 194 184.093 194 183.41C194 182.734 194.549 182.178 195.232 182.178C195.915 182.178 196.465 182.727 196.465 183.41Z" fill="black"/>
<path d="M207.088 183.41C207.088 184.087 206.539 184.642 205.855 184.642C205.179 184.642 204.623 184.093 204.623 183.41C204.623 182.734 205.172 182.178 205.855 182.178C206.539 182.178 207.088 182.727 207.088 183.41Z" fill="black"/>
<path d="M217.709 183.41C217.709 184.087 217.16 184.642 216.476 184.642C215.8 184.642 215.244 184.093 215.244 183.41C215.244 182.734 215.793 182.178 216.476 182.178C217.16 182.178 217.709 182.727 217.709 183.41Z" fill="black"/>
<path d="M228.332 183.41C228.332 184.087 227.783 184.642 227.1 184.642C226.423 184.642 225.867 184.093 225.867 183.41C225.867 182.734 226.416 182.178 227.1 182.178C227.783 182.178 228.332 182.727 228.332 183.41Z" fill="black"/>
<path d="M238.953 183.41C238.953 184.087 238.404 184.642 237.721 184.642C237.044 184.642 236.488 184.093 236.488 183.41C236.488 182.734 237.037 182.178 237.721 182.178C238.404 182.178 238.953 182.727 238.953 183.41Z" fill="black"/>
<path d="M249.576 183.41C249.576 184.087 249.027 184.642 248.344 184.642C247.667 184.642 247.111 184.093 247.111 183.41C247.111 182.734 247.661 182.178 248.344 182.178C249.027 182.178 249.576 182.727 249.576 183.41Z" fill="black"/>
<path d="M260.197 183.41C260.197 184.087 259.648 184.642 258.965 184.642C258.288 184.642 257.732 184.093 257.732 183.41C257.732 182.734 258.282 182.178 258.965 182.178C259.648 182.178 260.197 182.727 260.197 183.41Z" fill="black"/>
<path d="M196.465 171.866C196.465 172.542 195.915 173.098 195.232 173.098C194.549 173.098 194 172.549 194 171.866C194 171.189 194.549 170.633 195.232 170.633C195.915 170.633 196.465 171.182 196.465 171.866Z" fill="black"/>
<path d="M207.088 171.866C207.088 172.542 206.539 173.098 205.855 173.098C205.179 173.098 204.623 172.549 204.623 171.866C204.623 171.189 205.172 170.633 205.855 170.633C206.539 170.633 207.088 171.182 207.088 171.866Z" fill="black"/>
<path d="M217.709 171.866C217.709 172.542 217.16 173.098 216.476 173.098C215.8 173.098 215.244 172.549 215.244 171.866C215.244 171.189 215.793 170.633 216.476 170.633C217.16 170.633 217.709 171.182 217.709 171.866Z" fill="black"/>
<path d="M228.332 171.866C228.332 172.542 227.783 173.098 227.1 173.098C226.423 173.098 225.867 172.549 225.867 171.866C225.867 171.189 226.416 170.633 227.1 170.633C227.783 170.633 228.332 171.182 228.332 171.866Z" fill="black"/>
<path d="M238.953 171.866C238.953 172.542 238.404 173.098 237.721 173.098C237.044 173.098 236.488 172.549 236.488 171.866C236.488 171.189 237.037 170.633 237.721 170.633C238.404 170.633 238.953 171.182 238.953 171.866Z" fill="black"/>
<path d="M249.576 171.866C249.576 172.542 249.027 173.098 248.344 173.098C247.667 173.098 247.111 172.549 247.111 171.866C247.111 171.189 247.661 170.633 248.344 170.633C249.027 170.633 249.576 171.182 249.576 171.866Z" fill="black"/>
<path d="M260.197 171.866C260.197 172.542 259.648 173.098 258.965 173.098C258.288 173.098 257.732 172.549 257.732 171.866C257.732 171.189 258.282 170.633 258.965 170.633C259.648 170.633 260.197 171.182 260.197 171.866Z" fill="black"/>
<path d="M196.465 160.321C196.465 160.998 195.915 161.554 195.232 161.554C194.549 161.554 194 161.004 194 160.321C194 159.645 194.549 159.089 195.232 159.089C195.915 159.089 196.465 159.638 196.465 160.321Z" fill="black"/>
<path d="M207.088 160.321C207.088 160.998 206.539 161.554 205.855 161.554C205.179 161.554 204.623 161.004 204.623 160.321C204.623 159.645 205.172 159.089 205.855 159.089C206.539 159.089 207.088 159.638 207.088 160.321Z" fill="black"/>
<path d="M217.709 160.321C217.709 160.998 217.16 161.554 216.476 161.554C215.8 161.554 215.244 161.004 215.244 160.321C215.244 159.645 215.793 159.089 216.476 159.089C217.16 159.089 217.709 159.638 217.709 160.321Z" fill="black"/>
<path d="M228.332 160.321C228.332 160.998 227.783 161.554 227.1 161.554C226.423 161.554 225.867 161.004 225.867 160.321C225.867 159.645 226.416 159.089 227.1 159.089C227.783 159.089 228.332 159.638 228.332 160.321Z" fill="black"/>
<path d="M238.953 160.321C238.953 160.998 238.404 161.554 237.721 161.554C237.044 161.554 236.488 161.004 236.488 160.321C236.488 159.645 237.037 159.089 237.721 159.089C238.404 159.089 238.953 159.638 238.953 160.321Z" fill="black"/>
<path d="M249.576 160.321C249.576 160.998 249.027 161.554 248.344 161.554C247.667 161.554 247.111 161.004 247.111 160.321C247.111 159.645 247.661 159.089 248.344 159.089C249.027 159.089 249.576 159.638 249.576 160.321Z" fill="black"/>
<path d="M260.197 160.321C260.197 160.998 259.648 161.554 258.965 161.554C258.288 161.554 257.732 161.004 257.732 160.321C257.732 159.645 258.282 159.089 258.965 159.089C259.648 159.089 260.197 159.638 260.197 160.321Z" fill="black"/>
<path d="M196.465 148.777C196.465 149.453 195.915 150.009 195.232 150.009C194.549 150.009 194 149.46 194 148.777C194 148.1 194.549 147.544 195.232 147.544C195.915 147.544 196.465 148.094 196.465 148.777Z" fill="black"/>
<path d="M207.088 148.777C207.088 149.453 206.539 150.009 205.855 150.009C205.179 150.009 204.623 149.46 204.623 148.777C204.623 148.1 205.172 147.544 205.855 147.544C206.539 147.544 207.088 148.094 207.088 148.777Z" fill="black"/>
<path d="M217.709 148.777C217.709 149.453 217.16 150.009 216.476 150.009C215.8 150.009 215.244 149.46 215.244 148.777C215.244 148.1 215.793 147.544 216.476 147.544C217.16 147.544 217.709 148.094 217.709 148.777Z" fill="black"/>
<path d="M228.332 148.777C228.332 149.453 227.783 150.009 227.1 150.009C226.423 150.009 225.867 149.46 225.867 148.777C225.867 148.1 226.416 147.544 227.1 147.544C227.783 147.544 228.332 148.094 228.332 148.777Z" fill="black"/>
<path d="M238.953 148.777C238.953 149.453 238.404 150.009 237.721 150.009C237.044 150.009 236.488 149.46 236.488 148.777C236.488 148.1 237.037 147.544 237.721 147.544C238.404 147.544 238.953 148.094 238.953 148.777Z" fill="black"/>
<path d="M249.576 148.777C249.576 149.453 249.027 150.009 248.344 150.009C247.667 150.009 247.111 149.46 247.111 148.777C247.111 148.1 247.661 147.544 248.344 147.544C249.027 147.544 249.576 148.094 249.576 148.777Z" fill="black"/>
<path d="M260.197 148.777C260.197 149.453 259.648 150.009 258.965 150.009C258.288 150.009 257.732 149.46 257.732 148.777C257.732 148.1 258.282 147.544 258.965 147.544C259.648 147.544 260.197 148.094 260.197 148.777Z" fill="black"/>
<path d="M196.465 137.232C196.465 137.909 195.915 138.465 195.232 138.465C194.549 138.465 194 137.915 194 137.232C194 136.556 194.549 136 195.232 136C195.915 136 196.465 136.556 196.465 137.232Z" fill="black"/>
<path d="M207.088 137.232C207.088 137.909 206.539 138.465 205.855 138.465C205.179 138.465 204.623 137.915 204.623 137.232C204.623 136.556 205.172 136 205.855 136C206.539 136 207.088 136.556 207.088 137.232Z" fill="black"/>
<path d="M217.709 137.232C217.709 137.909 217.16 138.465 216.476 138.465C215.8 138.465 215.244 137.915 215.244 137.232C215.244 136.556 215.793 136 216.476 136C217.16 136 217.709 136.556 217.709 137.232Z" fill="black"/>
<path d="M228.332 137.232C228.332 137.909 227.783 138.465 227.1 138.465C226.423 138.465 225.867 137.915 225.867 137.232C225.867 136.556 226.416 136 227.1 136C227.783 136 228.332 136.556 228.332 137.232Z" fill="black"/>
<path d="M238.953 137.232C238.953 137.909 238.404 138.465 237.721 138.465C237.044 138.465 236.488 137.915 236.488 137.232C236.488 136.556 237.037 136 237.721 136C238.404 136 238.953 136.556 238.953 137.232Z" fill="black"/>
<path d="M249.576 137.232C249.576 137.909 249.027 138.465 248.344 138.465C247.667 138.465 247.111 137.915 247.111 137.232C247.111 136.556 247.661 136 248.344 136C249.027 136 249.576 136.556 249.576 137.232Z" fill="black"/>
<path d="M260.197 137.232C260.197 137.909 259.648 138.465 258.965 138.465C258.288 138.465 257.732 137.915 257.732 137.232C257.732 136.556 258.282 136 258.965 136C259.648 136 260.197 136.556 260.197 137.232Z" fill="black"/>
<path d="M267.582 449.831V99.0337H499.433V449.831H267.582Z" fill="#DDDDDC" stroke="black" stroke-width="2"/>
<path d="M477.47 117.767H289.18V327.692H477.47V117.767Z" fill="white"/>
<path d="M293.18 394.776C293.18 376.08 308.326 360.898 327.045 360.898C345.734 360.898 360.91 376.05 360.91 394.776C360.91 413.471 345.764 428.653 327.045 428.653C308.356 428.653 293.18 413.501 293.18 394.776Z" fill="white"/>
<path d="M355.658 394.776C355.658 378.952 342.832 366.152 327.045 366.152C311.227 366.152 298.432 378.982 298.432 394.776C298.432 410.599 311.257 423.399 327.045 423.399C333.58 423.399 339.595 421.2 344.39 417.534L327.045 394.776L353.795 404.979C355.016 401.832 355.658 398.38 355.658 394.776Z" fill="#FFCA41"/>
<path d="M408.547 394.776C408.547 376.08 423.693 360.898 442.412 360.898C461.101 360.898 476.278 376.05 476.278 394.776C476.278 413.471 461.131 428.653 442.412 428.653C423.724 428.653 408.547 413.501 408.547 394.776Z" fill="white"/>
<path d="M442.414 366.152C426.596 366.152 413.801 378.982 413.801 394.776C413.801 402.596 416.946 409.683 422.015 414.876L442.414 394.776L469.164 404.979C470.386 401.802 471.027 398.35 471.027 394.776C471.057 378.982 458.232 366.152 442.414 366.152Z" fill="#FFCA41"/>
<path d="M438.23 380.235H426.046C425.557 380.235 425.16 380.632 425.16 381.121C425.16 381.61 425.557 381.976 426.046 381.976H438.23C438.718 381.976 439.115 381.579 439.115 381.121C439.115 380.632 438.718 380.235 438.23 380.235Z" fill="#16110D"/>
<path d="M438.23 383.014H426.046C425.557 383.014 425.16 383.411 425.16 383.9C425.16 384.389 425.557 384.755 426.046 384.755H438.23C438.718 384.755 439.115 384.358 439.115 383.9C439.115 383.381 438.718 383.014 438.23 383.014Z" fill="#16110D"/>
<path d="M431.084 385.764H426.046C425.557 385.764 425.16 386.161 425.16 386.619C425.16 387.108 425.557 387.505 426.046 387.505H431.084C431.573 387.505 431.939 387.108 431.939 386.619C431.97 386.161 431.573 385.764 431.084 385.764Z" fill="#16110D"/>
<path d="M322.617 380.235H310.433C309.945 380.235 309.578 380.632 309.578 381.121C309.578 381.61 309.975 381.976 310.433 381.976H322.617C323.106 381.976 323.503 381.579 323.503 381.121C323.503 380.632 323.106 380.235 322.617 380.235Z" fill="#16110D"/>
<path d="M322.617 383.014H310.433C309.945 383.014 309.578 383.411 309.578 383.9C309.578 384.389 309.975 384.755 310.433 384.755H322.617C323.106 384.755 323.503 384.358 323.503 383.9C323.503 383.381 323.106 383.014 322.617 383.014Z" fill="#16110D"/>
<path d="M315.472 385.764H310.433C309.945 385.764 309.578 386.161 309.578 386.619C309.578 387.108 309.975 387.505 310.433 387.505H315.472C315.96 387.505 316.357 387.108 316.357 386.619C316.357 386.161 315.96 385.764 315.472 385.764Z" fill="#16110D"/>
<path d="M325.825 192.793H305.945V316.604H325.825V192.793Z" fill="#16110D"/>
<path d="M358.378 158.274H338.498V316.604H358.378V158.274Z" fill="#16110D"/>
<path d="M393.891 222.73H374.012V316.603H393.891V222.73Z" fill="#16110D"/>
<path d="M428.458 179.413H408.578V316.603H428.458V179.413Z" fill="#16110D"/>
<path d="M463.21 241.12H443.33V316.603H463.21V241.12Z" fill="#16110D"/>
<path d="M427.514 161.573H410.688C409.741 161.573 408.947 162.367 408.947 163.314C408.947 164.261 409.741 165.056 410.688 165.056H427.514C428.46 165.056 429.254 164.261 429.254 163.314C429.254 162.367 428.46 161.573 427.514 161.573Z" fill="#16110D"/>
<path d="M414.505 167.897H410.688C409.741 167.897 408.947 168.691 408.947 169.638C408.947 170.585 409.741 171.379 410.688 171.379H414.505C415.452 171.379 416.246 170.585 416.246 169.638C416.246 168.691 415.482 167.897 414.505 167.897Z" fill="#16110D"/>
<path d="M358.164 134.6H341.338C340.392 134.6 339.598 135.394 339.598 136.341C339.598 137.288 340.392 138.082 341.338 138.082H358.164C359.111 138.082 359.905 137.288 359.905 136.341C359.905 135.394 359.141 134.6 358.164 134.6Z" fill="#16110D"/>
<path d="M345.187 140.954H341.369C340.423 140.954 339.629 141.748 339.629 142.695C339.629 143.642 340.423 144.436 341.369 144.436H345.187C346.133 144.436 346.927 143.642 346.927 142.695C346.927 141.717 346.133 140.954 345.187 140.954Z" fill="#16110D"/>
<path d="M392.367 204.249H375.541C374.595 204.249 373.801 205.043 373.801 205.99C373.801 206.937 374.595 207.731 375.541 207.731H392.367C393.314 207.731 394.108 206.937 394.108 205.99C394.108 205.043 393.314 204.249 392.367 204.249Z" fill="#16110D"/>
<path d="M379.386 210.603H375.569C374.622 210.603 373.828 211.397 373.828 212.344C373.828 213.291 374.622 214.085 375.569 214.085H379.386C380.332 214.085 381.126 213.291 381.126 212.344C381.126 211.367 380.332 210.603 379.386 210.603Z" fill="#16110D"/>
<path d="M461.652 222.73H444.827C443.88 222.73 443.086 223.524 443.086 224.471C443.086 225.418 443.88 226.212 444.827 226.212H461.652C462.599 226.212 463.393 225.418 463.393 224.471C463.393 223.524 462.629 222.73 461.652 222.73Z" fill="#16110D"/>
<path d="M448.675 229.084H444.858C443.911 229.084 443.117 229.878 443.117 230.825C443.117 231.772 443.911 232.566 444.858 232.566H448.675C449.621 232.566 450.415 231.772 450.415 230.825C450.415 229.848 449.621 229.084 448.675 229.084Z" fill="#16110D"/>
<path d="M214.621 508.866V223.594H383.536V508.866H214.621Z" fill="#DDDDDC" stroke="black" stroke-width="2"/>
<path d="M373.328 238.632H225.285V338.707H373.328V238.632Z" fill="white"/>
<path d="M370.763 432.58H291.307V486.008H370.763V432.58Z" fill="white"/>
<path d="M231.395 289.707C231.395 289.707 256.679 286.561 272.131 300.796C287.582 315.031 316.348 302.049 327.921 300.796C348.076 298.597 363.863 305.195 368.535 312.435V334.185H231.395V289.707Z" fill="#FFCA41"/>
<path d="M252.038 254.73H250.969V288.669H252.038V254.73Z" fill="#16110D"/>
<path d="M293.596 269.271H292.527V303.209H293.596V269.271Z" fill="#16110D"/>
<path d="M336.502 261.604H335.434V295.542H336.502V261.604Z" fill="#16110D"/>
<path d="M263.854 259.923H255.731C255.243 259.923 254.846 259.526 254.846 259.037C254.846 258.548 255.243 258.151 255.731 258.151H263.854C264.343 258.151 264.74 258.548 264.74 259.037C264.74 259.526 264.343 259.923 263.854 259.923Z" fill="#16110D"/>
<path d="M263.854 263.1H255.731C255.243 263.1 254.846 262.703 254.846 262.214C254.846 261.725 255.243 261.328 255.731 261.328H263.854C264.343 261.328 264.74 261.725 264.74 262.214C264.74 262.703 264.343 263.1 263.854 263.1Z" fill="#16110D"/>
<path d="M304.805 277.244H296.682C296.194 277.244 295.797 276.847 295.797 276.358C295.797 275.869 296.194 275.472 296.682 275.472H304.805C305.294 275.472 305.691 275.869 305.691 276.358C305.691 276.847 305.294 277.244 304.805 277.244Z" fill="#16110D"/>
<path d="M304.805 280.329H296.682C296.194 280.329 295.797 279.932 295.797 279.444C295.797 278.955 296.194 278.558 296.682 278.558H304.805C305.294 278.558 305.691 278.955 305.691 279.444C305.691 279.932 305.294 280.329 304.805 280.329Z" fill="#16110D"/>
<path d="M348.411 264.414H340.288C339.799 264.414 339.402 264.017 339.402 263.528C339.402 263.039 339.799 262.642 340.288 262.642H348.411C348.899 262.642 349.296 263.039 349.296 263.528C349.296 264.017 348.899 264.414 348.411 264.414Z" fill="#16110D"/>
<path d="M348.411 267.53H340.288C339.799 267.53 339.402 267.132 339.402 266.644C339.402 266.155 339.799 265.758 340.288 265.758H348.411C348.899 265.758 349.296 266.155 349.296 266.644C349.296 267.132 348.899 267.53 348.411 267.53Z" fill="#16110D"/>
<path d="M373.14 366.625C374.434 358.648 369.019 351.132 361.045 349.837C353.071 348.543 345.557 353.96 344.263 361.937C342.969 369.914 348.384 377.43 356.358 378.724C364.333 380.019 371.846 374.602 373.14 366.625Z" fill="white"/>
<path d="M372.078 364.275C372.078 371.668 366.093 377.655 358.703 377.655C355.222 377.655 352.046 376.311 349.664 374.142L358.703 364.275V350.895C366.093 350.895 372.078 356.913 372.078 364.275Z" fill="#FFCA41"/>
<path d="M353.601 361.923H348.807C348.593 361.923 348.41 361.739 348.41 361.526C348.41 361.312 348.593 361.128 348.807 361.128H353.601C353.815 361.128 353.998 361.312 353.998 361.526C353.998 361.739 353.815 361.923 353.601 361.923Z" fill="#16110D"/>
<path d="M307.797 364.275C307.797 356.21 314.332 349.642 322.424 349.642C330.486 349.642 337.051 356.179 337.051 364.275C337.051 372.339 330.516 378.907 322.424 378.907C314.332 378.907 307.797 372.37 307.797 364.275Z" fill="white"/>
<path d="M322.424 364.274L330.638 374.844C328.379 376.616 325.508 377.654 322.424 377.654C315.034 377.654 309.049 371.667 309.049 364.274C309.049 356.882 315.034 350.895 322.424 350.895C329.386 350.895 335.127 356.24 335.738 363.053L322.424 364.274Z" fill="#FFCA41"/>
<path d="M332.716 367.604H329.387C329.173 367.604 328.99 367.421 328.99 367.207C328.99 366.993 329.173 366.81 329.387 366.81H332.716C332.929 366.81 333.113 366.993 333.113 367.207C333.113 367.421 332.929 367.604 332.716 367.604Z" fill="#16110D"/>
<path d="M344.074 404.568C344.074 396.503 350.609 389.936 358.701 389.936C366.794 389.936 373.329 396.473 373.329 404.568C373.329 412.633 366.794 419.2 358.701 419.2C350.609 419.2 344.074 412.633 344.074 404.568Z" fill="white"/>
<path d="M372.078 404.568C372.078 411.961 366.093 417.948 358.703 417.948C355.222 417.948 352.046 416.604 349.664 414.435L358.703 404.568V391.188C366.093 391.188 372.078 397.175 372.078 404.568Z" fill="#FFCA41"/>
<path d="M353.601 402.216H348.807C348.593 402.216 348.41 402.032 348.41 401.819C348.41 401.605 348.593 401.421 348.807 401.421H353.601C353.815 401.421 353.998 401.605 353.998 401.819C353.998 402.032 353.815 402.216 353.601 402.216Z" fill="#16110D"/>
<path d="M307.797 404.568C307.797 396.503 314.332 389.936 322.424 389.936C330.486 389.936 337.051 396.473 337.051 404.568C337.051 412.633 330.516 419.2 322.424 419.2C314.332 419.2 307.797 412.633 307.797 404.568Z" fill="white"/>
<path d="M335.738 403.346C335.127 396.534 329.386 391.188 322.424 391.188C315.034 391.188 309.049 397.175 309.049 404.568C309.049 411.961 315.034 417.948 322.424 417.948C325.539 417.948 328.379 416.909 330.638 415.137L322.424 404.568L335.738 403.346Z" fill="#FFCA41"/>
<path d="M332.716 407.867H329.387C329.173 407.867 328.99 407.684 328.99 407.47C328.99 407.256 329.173 407.073 329.387 407.073H332.716C332.929 407.073 333.113 407.256 333.113 407.47C333.113 407.684 332.929 407.867 332.716 407.867Z" fill="#16110D"/>
<path d="M367.344 482.281H294.422V439.178H295.307V481.365H367.344V482.281Z" fill="#16110D"/>
<path d="M317.203 466.701C308.286 459.584 298.789 466.701 298.789 466.701V478.859H365.542V447.426C347.404 447.884 326.15 473.789 317.203 466.701Z" fill="#16110D"/>
<path d="M299.552 442.477H330.639C331.066 442.477 331.402 442.141 331.402 441.713C331.402 441.286 331.066 440.95 330.639 440.95H299.552C299.125 440.95 298.789 441.286 298.789 441.713C298.789 442.111 299.125 442.477 299.552 442.477Z" fill="#16110D"/>
<path d="M299.552 446.204H330.639C331.066 446.204 331.402 445.868 331.402 445.44C331.402 445.012 331.066 444.676 330.639 444.676H299.552C299.125 444.676 298.789 445.012 298.789 445.44C298.789 445.868 299.125 446.204 299.552 446.204Z" fill="#16110D"/>
<path d="M299.4 449.717H319.982C320.317 449.717 320.592 449.442 320.592 449.106V448.831C320.592 448.495 320.317 448.22 319.982 448.22H299.4C299.064 448.22 298.789 448.495 298.789 448.831V449.106C298.789 449.442 299.064 449.717 299.4 449.717Z" fill="#16110D"/>
<path d="M52 366.898V266.748H245.729V366.898H52Z" fill="#DDDDDC" stroke="black" stroke-width="2"/>
<path d="M115.304 352.042C133.917 346.074 144.17 326.142 138.205 307.523C132.239 288.903 112.315 278.646 93.7018 284.614C75.0888 290.581 64.8358 310.513 70.801 329.132C76.7662 347.752 96.6908 358.009 115.304 352.042Z" fill="white"/>
<path d="M104.505 285.933C86.6006 285.933 72.0879 300.451 72.0879 318.327C72.0879 330.606 78.9071 341.276 88.9436 346.768C94.1192 337.148 104.505 318.327 104.505 318.327L119.857 346.873C129.999 341.416 136.923 330.676 136.923 318.327C136.923 300.451 122.41 285.933 104.505 285.933Z" fill="#FFCA41"/>
<path d="M224.697 298.562H166.087C163.954 298.562 162.24 300.311 162.24 302.41C162.24 304.544 163.989 306.258 166.087 306.258H224.732C226.865 306.258 228.579 304.509 228.579 302.41C228.579 300.311 226.83 298.562 224.697 298.562Z" fill="white"/>
<path d="M224.697 314.479H166.087C163.954 314.479 162.24 316.228 162.24 318.327C162.24 320.461 163.989 322.175 166.087 322.175H224.732C226.865 322.175 228.579 320.426 228.579 318.327C228.579 316.228 226.83 314.479 224.697 314.479Z" fill="white"/>
<path d="M224.697 330.397H166.087C163.954 330.397 162.24 332.146 162.24 334.245C162.24 336.379 163.989 338.093 166.087 338.093H224.732C226.865 338.093 228.579 336.344 228.579 334.245C228.579 332.111 226.83 330.397 224.697 330.397Z" fill="white"/>
<path d="M105.694 302.865H88.1036C87.0895 302.865 86.2852 303.67 86.2852 304.684C86.2852 305.699 87.0895 306.503 88.1036 306.503H105.694C106.708 306.503 107.512 305.699 107.512 304.684C107.512 303.67 106.708 302.865 105.694 302.865Z" fill="#6D89D0"/>
<path d="M92.1252 309.477H88.1036C87.0895 309.477 86.2852 310.282 86.2852 311.296C86.2852 312.311 87.0895 313.115 88.1036 313.115H92.1252C93.1393 313.115 93.9437 312.311 93.9437 311.296C93.9437 310.317 93.1393 309.477 92.1252 309.477Z" fill="#6D89D0"/>
<path d="M330.084 451.004H136.355V340.289H330.084V451.004Z" fill="white" stroke="black" stroke-width="2"/>
<path d="M220.6 407.863C229.265 390.337 222.086 369.102 204.565 360.435C187.045 351.767 165.818 358.949 157.153 376.475C148.489 394.002 155.668 415.237 173.188 423.904C190.709 432.572 211.936 425.39 220.6 407.863Z" fill="#939393"/>
<path d="M250.443 380.114H309.053C311.186 380.114 312.9 378.365 312.9 376.266C312.9 374.132 311.151 372.418 309.053 372.418H250.443C248.31 372.418 246.596 374.167 246.596 376.266C246.561 378.4 248.31 380.114 250.443 380.114Z" fill="black"/>
<path d="M309.053 388.3H250.442C248.309 388.3 246.596 390.049 246.596 392.148C246.596 394.282 248.344 395.997 250.442 395.997H309.053C311.186 395.997 312.899 394.247 312.899 392.148C312.934 390.049 311.186 388.3 309.053 388.3Z" fill="black"/>
<path d="M309.055 404.217H250.444C248.311 404.217 246.598 405.966 246.598 408.065C246.598 410.199 248.346 411.914 250.444 411.914H309.055C311.188 411.914 312.901 410.164 312.901 408.065C312.936 405.966 311.188 404.217 309.055 404.217Z" fill="black"/>
<path d="M188.859 392.743L156.477 392.358C156.477 392.498 156.477 392.638 156.477 392.778C156.477 410.689 170.989 425.207 188.894 425.207C195.294 425.207 201.239 423.353 206.274 420.135L188.859 392.743Z" fill="#FFCA41"/>
<path d="M190.049 402.958H172.459C171.445 402.958 170.641 403.763 170.641 404.777C170.641 405.792 171.445 406.596 172.459 406.596H190.049C191.063 406.596 191.868 405.792 191.868 404.777C191.868 403.763 191.063 402.958 190.049 402.958Z" fill="#16110D"/>
<path d="M176.481 409.57H172.459C171.445 409.57 170.641 410.374 170.641 411.389C170.641 412.403 171.445 413.208 172.459 413.208H176.481C177.495 413.208 178.299 412.403 178.299 411.389C178.299 410.409 177.495 409.57 176.481 409.57Z" fill="#16110D"/>
</svg>
