<svg width="130" height="100" viewBox="0 0 130 100" fill="none" xmlns="http://www.w3.org/2000/svg">
<g clip-path="url(#clip0_423_2729)">
<path d="M115.993 10.5902V73.4957C115.993 74.373 115.281 75.0859 114.403 75.0859H25.0003C24.123 75.0859 23.4102 74.3736 23.4102 73.4957V10.5902C23.4102 9.71285 24.1225 9 25.0003 9H114.403C115.281 9 115.993 9.71285 115.993 10.5902Z" fill="black"/>
<path d="M113.181 14.2583H26.2227V66.9744H113.181V14.2583Z" fill="white"/>
<path d="M113.181 10.9805H26.2227V14.2587H113.181V10.9805Z" fill="white"/>
<path d="M113.307 14.3829H26.0977V10.855H113.306V14.3829H113.307ZM26.3479 14.1332H113.056V11.1052H26.3479V14.1332Z" fill="black"/>
<path d="M30.3121 13.3756C29.8946 13.3756 29.5547 13.0357 29.5547 12.6182C29.5547 12.2008 29.8946 11.8608 30.3121 11.8608C30.7296 11.8608 31.0695 12.2008 31.0695 12.6182C31.0695 13.0357 30.7296 13.3756 30.3121 13.3756ZM30.3121 12.1111C30.0327 12.1111 29.805 12.3388 29.805 12.6182C29.805 12.8977 30.0327 13.1254 30.3121 13.1254C30.5921 13.1254 30.8192 12.8977 30.8192 12.6182C30.8198 12.3388 30.5921 12.1111 30.3121 12.1111Z" fill="black"/>
<path d="M32.8394 13.3756C32.422 13.3756 32.082 13.0357 32.082 12.6182C32.082 12.2008 32.422 11.8608 32.8394 11.8608C33.2569 11.8608 33.5968 12.2008 33.5968 12.6182C33.5968 13.0357 33.2569 13.3756 32.8394 13.3756ZM32.8394 12.1111C32.56 12.1111 32.3323 12.3388 32.3323 12.6182C32.3323 12.8977 32.56 13.1254 32.8394 13.1254C33.1189 13.1254 33.3466 12.8977 33.3466 12.6182C33.3466 12.3388 33.1194 12.1111 32.8394 12.1111Z" fill="black"/>
<path d="M35.3707 13.3756C34.9532 13.3756 34.6133 13.0357 34.6133 12.6182C34.6133 12.2008 34.9532 11.8608 35.3707 11.8608C35.7882 11.8608 36.1281 12.2008 36.1281 12.6182C36.1281 13.0357 35.7887 13.3756 35.3707 13.3756ZM35.3707 12.1111C35.0913 12.1111 34.8635 12.3388 34.8635 12.6182C34.8635 12.8977 35.0913 13.1254 35.3707 13.1254C35.6501 13.1254 35.8778 12.8977 35.8778 12.6182C35.8784 12.3388 35.6506 12.1111 35.3707 12.1111Z" fill="black"/>
<path d="M74.1792 71.8534H65.2229C64.6641 71.8534 64.207 71.3963 64.207 70.8374V70.2308C64.207 69.6719 64.6641 69.2148 65.2229 69.2148H74.1792C74.738 69.2148 75.1951 69.6719 75.1951 70.2308V70.8374C75.1951 71.3963 74.738 71.8534 74.1792 71.8534Z" fill="white"/>
<path d="M74.0405 71.9781H65.3614C64.6557 71.9781 64.082 71.4038 64.082 70.6987V70.3692C64.082 69.6635 64.6563 69.0898 65.3614 69.0898H74.0405C74.7461 69.0898 75.3198 69.6641 75.3198 70.3692V70.6987C75.3204 71.4044 74.7461 71.9781 74.0405 71.9781ZM65.3614 69.339C64.7938 69.339 64.3317 69.801 64.3317 70.3687V70.6982C64.3317 71.2658 64.7938 71.7278 65.3614 71.7278H74.0405C74.6081 71.7278 75.0701 71.2658 75.0701 70.6982V70.3687C75.0701 69.801 74.6081 69.339 74.0405 69.339H65.3614Z" fill="black"/>
<path d="M80.2007 20.6523H59.1992V22.8514H80.2007V20.6523Z" fill="#767676"/>
<path d="M53.4156 33.8477H32.4141V51.1938H53.4156V33.8477Z" fill="#DDDDDD"/>
<path d="M80.1031 33.8477H59.1016V51.1938H80.1031V33.8477Z" fill="#DDDDDD"/>
<path d="M106.787 33.8477H85.7852V51.1938H106.787V33.8477Z" fill="#DDDDDD"/>
<path d="M86.0425 44.4286C86.9302 44.2163 87.73 44.2509 88.4527 44.516C88.9302 44.6909 89.3751 44.9687 89.7855 45.3438L91.418 41.5585C90.8503 41.4584 90.3327 41.2884 89.8652 41.0409C89.1876 40.6834 88.6227 40.1658 88.1827 39.4634L86.0425 44.4286Z" fill="black"/>
<path d="M89.7817 45.34L91.4131 41.5552L111.363 50.9857L110.495 53.0005L89.7817 45.34Z" fill="black"/>
<path d="M86.0444 44.4286C86.9322 44.2163 87.7319 44.2509 88.4547 44.516L89.8672 41.0409C89.1895 40.6834 88.6247 40.1658 88.1846 39.4634L86.0444 44.4286Z" fill="black"/>
<path d="M67.3245 46.4084C62.31 41.3939 62.3098 33.2639 67.3241 28.2496C72.3384 23.2353 80.4684 23.2355 85.4829 28.25C90.4974 33.2645 90.4976 41.3945 85.4833 46.4088C80.469 51.4231 72.339 51.4229 67.3245 46.4084Z" fill="black"/>
<path d="M68.8383 44.8934C64.6606 40.7158 64.6606 33.9424 68.8383 29.7648C73.0159 25.5871 79.7893 25.5871 83.9669 29.7648C88.1446 33.9424 88.1446 40.7158 83.9669 44.8934C79.7893 49.0711 73.0159 49.0711 68.8383 44.8934Z" fill="white"/>
<path fill-rule="evenodd" clip-rule="evenodd" d="M83.3933 45.3851V30.9429H67.7702C64.6452 35.132 64.9849 41.0893 68.7895 44.8939C72.7964 48.9008 79.1912 49.0646 83.3933 45.3851Z" fill="#FFCA41"/>
<path d="M45.5497 33.0489C44.9861 33.1511 44.6146 33.687 44.7196 34.2466C44.8177 34.8075 45.3577 35.1817 45.9214 35.0795L52.4998 33.887C53.0635 33.7848 53.4349 33.2489 53.3327 32.6853C53.2318 32.1285 52.6918 31.7542 52.135 31.8551L45.5497 33.0489Z" fill="#010200"/>
<path d="M42.8243 29.8218C42.5048 30.2915 41.8627 30.4115 41.3889 30.0891C40.9192 29.7696 40.7952 29.1247 41.1216 28.6537L44.9061 23.1327C45.2256 22.663 45.8718 22.5458 46.3415 22.8654C46.8112 23.1849 46.9311 23.827 46.6116 24.2967L42.8243 29.8218Z" fill="#010200"/>
<path d="M37.0791 27.1118C37.1841 27.6714 36.8098 28.2114 36.2461 28.3136C35.6894 28.4145 35.1534 28.0431 35.0484 27.4835L33.8547 20.8982C33.7497 20.3386 34.1239 19.7986 34.6848 19.7005C35.2416 19.5996 35.7816 19.9738 35.8825 20.5306L37.0791 27.1118Z" fill="#010200"/>
<path d="M40.8468 35.2643C43.0311 36.7782 43.5784 39.7781 42.0617 41.9664L41.0825 43.3793L29.2109 35.1514L30.1902 33.7385C31.7041 31.5542 34.704 31.0068 36.8923 32.5235L40.8468 35.2643Z" fill="#FFCA41"/>
<path d="M18.8745 31.264L15.8504 50.7512C15.7109 51.6462 15.3721 52.4992 14.8571 53.2422L7.44801 63.9323C6.14797 65.808 6.61402 68.3789 8.48569 69.6761L15.9765 74.8679C17.8481 76.1651 20.4178 75.6922 21.7109 73.8177L29.0904 63.101C29.5985 62.3593 30.2811 61.7385 31.0702 61.2938L48.2489 51.6229L18.8745 31.264Z" fill="#D8DBD7" stroke="#010200" stroke-width="3"/>
<path d="M51.2964 47.3863C52.076 47.9266 52.2731 48.9949 51.7301 49.7784L50.6861 51.2847C50.1458 52.0642 49.0735 52.2586 48.2939 51.7184L18.8465 31.3088C18.067 30.7686 17.8726 29.6962 18.4128 28.9167L19.4568 27.4104C19.9999 26.6268 21.0694 26.4365 21.849 26.9768L51.2964 47.3863Z" fill="white" stroke="black" stroke-width="3" stroke-linecap="round" stroke-linejoin="round"/>
<path d="M27.017 64.123L25.793 65.8892L31.5176 69.8568C32.193 68.8824 31.95 67.542 30.9756 66.8666L27.017 64.123Z" fill="#010200"/>
<path d="M12.1879 74.6077C13.0851 75.2295 14.3156 75.0065 14.9375 74.1092L8.7662 69.832C8.14432 70.7293 8.36737 71.9598 9.26464 72.5816L12.1879 74.6077Z" fill="white" stroke="black" stroke-width="3" stroke-linecap="round" stroke-linejoin="round"/>
<path d="M43.24 77.9876C44.4592 78.8386 44.7605 80.52 43.9054 81.7364L42.6591 83.5172C41.808 84.7364 40.1295 85.0336 38.9062 84.1798L14.9239 67.4619L19.2536 61.2669L43.24 77.9876Z" fill="#FFCA41" stroke="#010200" stroke-width="3" stroke-linecap="round" stroke-linejoin="round"/>
<path d="M14.8114 53.3109L7.45011 63.932C6.15007 65.8077 6.61611 68.3786 8.48779 69.6758L15.9786 74.8675C17.8502 76.1648 20.4199 75.6919 21.713 73.8174L29.0418 63.1738L14.8114 53.3109Z" fill="white" stroke="black" stroke-width="3" stroke-linecap="round" stroke-linejoin="round"/>
</g>
<defs>
<clipPath id="clip0_423_2729">
<rect width="130" height="100" fill="white"/>
</clipPath>
</defs>
</svg>
