<svg width="130" height="100" viewBox="0 0 130 100" fill="none" xmlns="http://www.w3.org/2000/svg">
<path d="M86.6197 24.7216C86.2093 25.4533 85.6204 25.7209 84.7638 25.7031C82.5154 25.6496 80.2492 25.6853 77.9829 25.6853C76.8766 25.6853 76.4126 26.0243 76.2163 27.1307C75.5739 30.8423 74.9672 34.5718 74.3426 38.3013C73.5575 42.9766 72.7901 47.6519 72.005 52.3272C71.773 53.7012 71.5053 55.0752 71.3091 56.4493C71.2555 56.8775 71.1306 57.0203 70.6845 57.0203C61.1912 57.0024 51.7157 57.0381 42.2224 56.9846C38.8498 56.9667 36.1374 54.7183 35.3523 51.3992C34.0318 45.7604 32.747 40.1036 31.4443 34.4469C31.4265 34.3934 31.4622 34.3399 31.48 34.2149C31.7834 34.2149 32.1046 34.2149 32.4258 34.2149C45.3631 34.2149 58.2825 34.2149 71.2198 34.2328C71.9336 34.2328 72.1656 34.0187 72.2727 33.3406C72.6117 30.9851 73.0043 28.6296 73.4147 26.292C73.7538 24.3469 75.5025 22.848 77.5011 22.8123C80.035 22.7766 82.5511 22.8123 85.085 22.7944C85.8167 22.7944 86.2449 23.2227 86.6375 23.758C86.6197 24.0792 86.6197 24.4004 86.6197 24.7216Z" fill="#FFCA41"/>
<path d="M52.3944 69.8866C52.4123 73.5091 52.4123 77.1494 52.4479 80.7718C52.4479 81.1287 52.3587 81.2714 52.0018 81.2179C51.8769 81.2001 51.7342 81.2179 51.5914 81.2179C36.031 81.2179 20.4527 81.2179 4.89223 81.2358C4.14276 81.2358 4 81.0216 4 80.3078C4.01784 60.0186 4.01784 39.7293 4 19.4401C4 18.6906 4.21413 18.5479 4.92792 18.5479C20.4705 18.5657 36.0131 18.5657 51.5379 18.5479C52.2338 18.5479 52.4658 18.6728 52.4658 19.4401C52.4123 23.0982 52.4301 26.7563 52.4658 30.4145C52.4658 31.1818 52.3409 31.4316 51.4843 31.4316C44.4357 31.3959 37.405 31.4138 30.3564 31.4138C30.0887 31.4138 29.8211 31.3959 29.5534 31.4316C28.6076 31.5565 28.108 32.2703 28.3221 33.2161C29.6605 39.0334 31.0166 44.8329 32.3193 50.6502C32.8011 52.7915 33.4078 54.8437 34.9246 56.5032C37.0124 58.7873 39.6534 59.858 42.7227 59.858C45.7027 59.858 48.6828 59.8758 51.6806 59.8401C52.3409 59.8401 52.4658 60.0364 52.4479 60.6431C52.3944 62.7666 52.4123 64.8901 52.3944 67.0137C52.3587 67.0493 52.3409 67.0672 52.3052 67.1029C50.9847 67.3884 50.7706 67.2813 50.3423 66.05C49.2895 63.1057 46.3273 61.2677 43.1688 61.5889C40.0817 61.8923 37.6548 64.2299 37.1195 67.2813C36.4235 71.2428 39.3857 75.2757 43.8647 75.2935C46.5414 75.3114 48.6471 74.0622 49.9676 71.6175C50.2174 71.1536 50.3423 70.6004 50.7527 70.2257C51.2345 69.7974 51.7342 69.4405 52.3944 69.8866Z" fill="#DDDDDC"/>
<path d="M28.3039 84.073C36.102 84.073 43.9001 84.0909 51.6803 84.0552C52.3227 84.0552 52.4654 84.2336 52.4476 84.8582C52.4119 87.4635 51.3769 89.0338 49.2534 89.6405C48.7181 89.7833 48.1827 89.7833 47.6653 89.7833C34.7101 89.7833 21.755 89.7833 8.79982 89.7833C6.2659 89.7833 4.67773 88.6412 4.10671 86.482C3.92826 85.7861 4.05317 85.0902 4.01748 84.3942C3.99964 84.1444 4.12455 84.073 4.35653 84.073C4.55282 84.0909 4.73126 84.073 4.92755 84.073C12.7078 84.073 20.5058 84.073 28.3039 84.073Z" fill="#020203"/>
<path d="M28.2128 15.7103C20.6111 15.7103 13.0093 15.7103 5.38966 15.7103C4.01562 15.7103 4.01562 15.7103 4.01562 14.3541C4.01562 12.2841 5.2469 10.6781 7.2098 10.1428C7.74514 10 8.28047 10.0178 8.81581 10.0178C21.7531 10 34.7083 10 47.6634 10C50.1438 10 51.7676 11.1421 52.3208 13.2477C52.5171 13.9615 52.41 14.6931 52.4279 15.4069C52.4457 15.8173 52.1245 15.6924 51.9104 15.6924C51.0539 15.7103 50.1973 15.6924 49.3229 15.6924C42.2922 15.7103 35.2614 15.7103 28.2128 15.7103Z" fill="#020203"/>
<path d="M52.3913 69.8864C51.7667 69.7615 51.2492 70.0292 50.7496 70.3504C50.5533 69.7437 50.9637 69.5652 51.4098 69.5296C52.0522 69.4939 52.195 69.1548 52.195 68.5838C52.195 68.0485 52.0344 67.4596 52.427 66.9599L52.4091 66.9778C53.6939 66.9778 54.9787 66.9421 56.2636 66.9599C56.674 66.9599 56.8346 66.8707 56.9773 66.4246C58.048 62.82 61.5991 60.643 65.2037 61.3568C68.7547 62.0527 71.1994 65.2826 70.9675 68.9764C70.7533 72.2598 68.0588 75.0435 64.6683 75.4896C61.4028 75.9179 58.1372 73.8658 57.1023 70.6538C56.8881 69.9757 56.5848 69.8151 55.9424 69.8329C54.7646 69.9043 53.5869 69.8864 52.3913 69.8864Z" fill="#FFCA41"/>
<path d="M52.4308 66.9778C52.4308 67.6202 52.3772 68.2627 52.4308 68.8872C52.5022 69.601 52.288 69.9044 51.5385 69.7794C51.1281 69.7081 50.6999 69.7259 50.7534 70.3326C49.8433 72.9201 48.1302 74.651 45.4357 75.2934C41.6884 76.2035 37.7626 73.6874 36.9595 69.8865C36.1387 66.0321 38.5834 62.2312 42.3843 61.446C46.096 60.6787 49.54 62.713 50.6642 66.3354C50.8069 66.8172 51.0211 67.0492 51.5385 66.96C51.8241 66.9422 52.1274 66.9778 52.4308 66.9778Z" fill="white"/>
<path d="M6.90832 27.0594C6.90832 25.6854 6.89048 24.3292 6.90832 22.9552C6.92617 21.9737 7.40797 21.4563 8.38942 21.4563C11.1732 21.4384 13.9748 21.4384 16.7585 21.4563C17.6686 21.4563 18.2039 21.9916 18.2218 22.8124C18.2218 23.6333 17.6329 24.2222 16.7228 24.24C14.6172 24.2578 12.5294 24.2757 10.4415 24.2222C9.78129 24.2043 9.65638 24.4184 9.67423 25.0252C9.70992 27.0594 9.69207 29.1116 9.69207 31.1458C9.69207 32.1273 9.13889 32.7697 8.31804 32.7875C7.49719 32.7875 6.92617 32.1451 6.92617 31.1637C6.89048 29.8075 6.90832 28.4335 6.90832 27.0594Z" fill="#020203"/>
<path d="M12.5649 78.3263C11.2266 78.3263 9.88824 78.3263 8.53206 78.3263C7.39001 78.3263 6.9082 77.8623 6.9082 76.7381C6.9082 74.0257 6.9082 71.3134 6.9082 68.601C6.9082 67.6196 7.47923 66.9771 8.31792 66.995C9.13877 67.0128 9.67411 67.6552 9.69195 68.6367C9.69195 70.7245 9.7098 72.8302 9.67411 74.918C9.67411 75.4176 9.79902 75.5604 10.2987 75.5425C12.4222 75.5068 14.5457 75.5247 16.6692 75.5425C17.9004 75.5425 18.5964 76.5954 18.0789 77.5946C17.7934 78.13 17.3473 78.3263 16.7584 78.3263C15.3487 78.3263 13.9568 78.3263 12.5649 78.3263Z" fill="#020203"/>
<path d="M28.2851 85.5358C29.6235 85.5358 30.9797 85.5358 32.318 85.5358C33.2995 85.5358 33.8526 86.0533 33.8705 86.892C33.8883 87.7842 33.3173 88.3017 32.3002 88.3017C29.5521 88.3017 26.8219 88.3017 24.0738 88.3017C23.1281 88.3017 22.5392 87.7485 22.557 86.9098C22.557 86.0711 23.1459 85.5358 24.0917 85.5358C25.5014 85.5179 26.8933 85.5358 28.2851 85.5358Z" fill="white"/>
<path d="M32.5702 14.2469C31.1783 14.2469 29.7686 14.2469 28.3767 14.2469C27.4488 14.2469 26.8242 13.6758 26.8242 12.8728C26.8242 12.0698 27.4309 11.481 28.3588 11.481C31.1248 11.481 33.8907 11.481 36.6566 11.481C37.5666 11.481 38.209 12.1055 38.1733 12.8907C38.1555 13.658 37.5309 14.229 36.6744 14.2469C35.3182 14.2647 33.9442 14.2469 32.5702 14.2469Z" fill="white"/>
<path d="M21.1647 11.4816C21.6465 11.4816 22.1283 11.4637 22.6101 11.4816C23.3774 11.5173 23.8949 12.0704 23.8949 12.8377C23.9128 13.6051 23.4131 14.1939 22.6458 14.2296C21.593 14.2653 20.558 14.2653 19.5052 14.2296C18.7735 14.1939 18.256 13.5337 18.2739 12.8021C18.3096 12.0883 18.8271 11.5351 19.5408 11.4816C20.094 11.4637 20.6294 11.4816 21.1647 11.4816Z" fill="white"/>
<path d="M63.8152 72.6514C61.4776 72.6514 59.5682 70.7242 59.5861 68.3865C59.6039 66.031 61.5311 64.1395 63.8688 64.1574C66.2421 64.193 68.0801 66.0667 68.0801 68.44C68.0622 70.7777 66.1707 72.6514 63.8152 72.6514Z" fill="white"/>
<path d="M43.8982 72.6699C41.507 72.6699 39.6155 70.7783 39.5977 68.405C39.5977 66.0495 41.5249 64.1045 43.8803 64.1045C46.218 64.1045 48.1809 66.0674 48.1987 68.405C48.1987 70.7427 46.2715 72.6699 43.8982 72.6699Z" fill="#FFCA41"/>
</svg>
