<?xml version="1.0" encoding="UTF-8"?> <svg xmlns="http://www.w3.org/2000/svg" width="240" height="140" viewBox="0 0 240 140" fill="none"> <rect width="240" height="140" fill="white"></rect> <path d="M88.1271 77.9037C87.975 77.9037 87.8989 77.829 87.8989 77.7544C87.8989 77.7544 88.8878 75.5146 90.9419 71.1844C91.7026 69.5419 92.9197 68.1233 94.4413 66.9288C96.1148 65.7342 97.8646 65.137 99.6902 65.137H112.851C113.003 65.137 113.079 65.2116 113.079 65.2863C113.079 65.3609 113.079 65.3609 113.079 65.3609L112.318 67.0781C112.242 67.2274 112.09 67.3021 111.862 67.3021H103.037C102.125 67.3021 101.364 67.6007 100.755 68.198C100.375 68.5713 99.9184 69.2432 99.462 70.2138L96.0387 77.6051C95.9626 77.7544 95.8105 77.829 95.5823 77.829H88.1271V77.9037ZM100.223 72.0803C100.071 72.0803 99.9945 72.0056 99.9945 71.931C99.9945 71.931 100.299 71.3337 100.831 70.1391C100.908 69.9898 101.06 69.9152 101.288 69.9152H110.645C110.797 69.9152 110.873 69.9898 110.873 70.1391C110.873 70.1391 110.569 70.7364 110.036 71.931C109.96 72.0803 109.808 72.1549 109.58 72.1549H100.223V72.0803Z" fill="#282828"></path> <path d="M110.246 77.9037C110.094 77.9037 110.019 77.829 110.019 77.7544C110.019 77.6797 111.916 73.5735 115.71 65.3609C115.786 65.2116 115.937 65.137 116.165 65.137H123.146C123.298 65.137 123.374 65.2116 123.374 65.2863C123.374 65.3609 121.477 69.4672 117.683 77.6797C117.607 77.829 117.455 77.9037 117.227 77.9037H110.246Z" fill="#282828"></path> <path d="M132.559 77.6784C132.482 77.8286 132.33 77.9037 132.101 77.9037H125.076C124.923 77.9037 124.846 77.8286 124.846 77.7535C124.846 77.7535 126.45 74.2239 129.657 67.3148H124.236C124.083 67.3148 123.93 67.2397 123.93 67.1646C123.93 67.1646 124.236 66.5638 124.77 65.3623C124.846 65.2121 124.999 65.137 125.228 65.137H144.012C144.165 65.137 144.241 65.2121 144.241 65.2872C144.241 65.3623 143.936 65.963 143.401 67.0895C143.325 67.2397 143.172 67.3148 142.943 67.3148H137.293L132.559 77.6784Z" fill="#282828"></path> <path d="M146.176 77.9037C145.034 77.9037 144.121 77.6051 143.436 77.0825C142.675 76.4852 142.294 75.6639 142.294 74.6187C142.294 73.7974 142.523 72.9015 142.98 71.8563L146.024 65.3609C146.1 65.2116 146.252 65.137 146.48 65.137H153.863C154.015 65.137 154.091 65.2116 154.091 65.2863C154.091 65.3609 154.091 65.3609 154.091 65.3609L150.667 72.7522C150.21 73.6481 150.058 74.3201 150.058 74.6933C150.058 75.2906 150.514 75.6639 151.504 75.6639H159.038C159.191 75.6639 159.267 75.7386 159.267 75.8132C159.267 75.8879 159.267 75.8879 159.267 75.8879L156.831 77.6051C156.679 77.6797 156.451 77.829 156.223 77.829H146.176V77.9037Z" fill="#282828"></path> <path d="M180.038 77.9037C179.886 77.9037 179.81 77.9037 179.81 77.829L174.249 69.6165L164.652 75.7386H175.011C175.163 75.7386 175.24 75.8132 175.24 75.8879C175.24 75.8879 174.935 76.4852 174.402 77.6797C174.326 77.829 174.173 77.9037 173.945 77.9037H159.016C158.787 77.9037 158.711 77.829 158.711 77.7544C158.711 77.6797 158.787 77.6051 158.94 77.5304L178.591 65.2116C178.667 65.137 178.819 65.137 178.896 65.137H180.952C181.028 65.137 181.104 65.137 181.181 65.2116C186.512 73.4241 189.178 77.5304 189.178 77.6051C189.178 77.829 189.026 77.9037 188.721 77.9037H180.038Z" fill="#282828"></path> <path d="M190.24 77.9037C190.088 77.9037 190.012 77.829 190.012 77.7544C190.012 77.6797 191.914 73.5735 195.72 65.3609C195.796 65.2116 195.948 65.137 196.176 65.137H212.843C213.68 65.137 214.366 65.2863 214.898 65.5849C215.583 65.9582 215.888 66.5555 215.888 67.3021C215.888 68.1233 215.507 68.8699 214.822 69.5419C214.213 70.1391 213.528 70.6617 212.615 71.0351C213.148 71.483 213.376 72.0056 213.376 72.6776C213.376 73.1255 213.224 73.5735 212.996 74.0214C212.463 75.0667 211.626 76.0372 210.484 76.7838C209.266 77.5304 208.049 77.9037 206.907 77.9037H190.24ZM206.451 67.3021H202.493L198.612 75.7386H202.569C203.254 75.7386 203.939 75.44 204.548 74.9173C205.157 74.3947 205.461 73.7228 205.461 73.1255C205.461 72.4536 205.081 72.1549 204.319 72.1549H201.808C201.656 72.1549 201.504 72.0803 201.504 72.0056V71.931L202.265 70.2138C202.341 70.0645 202.493 69.9898 202.721 69.9898H205.233C205.766 69.9898 206.222 69.9152 206.679 69.6912C207.212 69.4672 207.592 69.1686 207.744 68.7206C207.82 68.5713 207.82 68.422 207.82 68.3473C207.897 67.6007 207.44 67.3021 206.451 67.3021Z" fill="#282828"></path> <path d="M31.9124 67.924C32.0645 68.0739 32.2165 68.2239 32.4446 68.2989C32.6727 68.3738 32.9008 68.4488 33.1289 68.4488C33.357 68.4488 33.5851 68.3738 33.8132 68.2989C34.0413 68.2239 34.1934 68.0739 34.3454 67.924C34.4975 67.7741 34.6496 67.6241 34.7256 67.3992C34.8016 67.1743 34.8777 66.9493 34.8777 66.7244C34.8777 66.4995 34.8016 66.2746 34.7256 66.0496C34.6496 65.8247 34.4975 65.6748 34.3454 65.5248C34.1934 65.3749 33.9653 65.2249 33.8132 65.1499C33.5851 65.075 33.357 65 33.1289 65C32.9008 65 32.6727 65.075 32.4446 65.1499C32.2165 65.2249 32.0645 65.3749 31.9124 65.5248C31.7603 65.6748 31.6083 65.8247 31.5322 66.0496C31.4562 66.2746 31.3802 66.4995 31.3802 66.7244C31.3802 66.9493 31.4562 67.1743 31.5322 67.3992C31.6843 67.5491 31.7603 67.7741 31.9124 67.924ZM31.8364 66.1996C31.9124 66.0496 31.9884 65.8997 32.1405 65.7497C32.2926 65.5998 32.4446 65.5248 32.5967 65.4498C32.7487 65.3749 32.9768 65.3749 33.1289 65.3749C33.357 65.3749 33.5091 65.3749 33.6611 65.4498C33.8132 65.5248 33.9653 65.5998 34.1173 65.7497C34.2694 65.8997 34.3454 66.0496 34.4215 66.1996C34.4975 66.3495 34.5735 66.5745 34.5735 66.7244C34.5735 66.8744 34.5735 67.0993 34.4215 67.2492C34.3454 67.3992 34.2694 67.5491 34.1173 67.6991C33.9653 67.849 33.8132 67.924 33.6611 67.999C33.5091 68.0739 33.281 68.0739 33.1289 68.0739C32.9008 68.0739 32.7487 68.0739 32.5967 67.999C32.4446 67.924 32.2926 67.849 32.1405 67.6991C31.9884 67.5491 31.9124 67.3992 31.8364 67.2492C31.7603 67.0993 31.6843 66.8744 31.6843 66.7244C31.6843 66.5745 31.7603 66.3495 31.8364 66.1996ZM32.8248 66.8744H33.0529L33.5091 67.6241H33.9653L33.433 66.7994C33.5851 66.7994 33.6611 66.7244 33.7372 66.6494C33.8132 66.5745 33.8892 66.4245 33.8892 66.3495C33.8892 66.2746 33.8892 66.1246 33.8132 66.1246C33.7372 66.0496 33.7372 65.9747 33.6611 65.9747C33.5851 65.8997 33.5091 65.8997 33.433 65.8997C33.357 65.8997 33.281 65.8997 33.1289 65.8997H32.4446V67.6241H32.8248V66.8744ZM32.8248 66.0496H33.1289C33.2049 66.0496 33.281 66.0496 33.357 66.1246C33.433 66.1246 33.5091 66.1996 33.5091 66.3495C33.5091 66.4995 33.433 66.5745 33.357 66.5745C33.281 66.5745 33.2049 66.6494 33.0529 66.6494H32.7487V66.0496H32.8248ZM90.9896 65.075H83.6145C83.3865 65.075 83.2343 65.1499 83.1583 65.2999L78.3683 75.6463H75.4791C74.4906 75.6463 74.0344 75.3464 74.0344 74.6717C74.0344 74.2968 74.2624 73.622 74.6428 72.7223L78.0642 65.2999V65.2249C78.0642 65.075 77.9882 65.075 77.836 65.075H70.4608C70.2329 65.075 70.0807 65.1499 70.0047 65.2999L66.9633 71.8227C66.5071 72.7973 66.2792 73.772 66.2792 74.5967C66.2792 75.6463 66.6593 76.4711 67.4195 77.0709C68.1039 77.5957 69.0162 77.8956 70.1568 77.8956H77.3038L76.6196 79.3951C76.1632 80.3697 75.7831 81.0445 75.3269 81.4194C74.7186 82.0192 73.9584 82.319 73.046 82.319H64.5303C64.3023 82.319 64.1502 82.394 64.0741 82.544L63.3139 84.2684C63.3139 84.2684 63.3139 84.2684 63.3139 84.3434C63.3139 84.4933 63.3899 84.4933 63.5418 84.4933H76.3914C78.2161 84.4933 79.965 83.8935 81.6376 82.619C83.2343 81.4943 84.3749 80.0698 85.1351 78.3454C87.1881 73.9969 91.2178 65.1499 91.2178 65.075C91.2937 65.1499 91.1418 65.075 90.9896 65.075ZM67.6477 65.2249C67.6477 65.075 67.5716 65.075 67.4195 65.075H42.785C40.9603 65.075 39.2115 65.6748 37.5388 66.8744C35.9421 67.999 34.8016 69.4235 34.0413 71.1479C31.9884 75.4964 31 77.6706 31 77.7456C31 77.8206 31.076 77.8956 31.2281 77.8956H38.6032C38.8314 77.8956 38.9834 77.8206 39.0595 77.6706L42.4809 70.2482C42.9371 69.2735 43.3173 68.5988 43.7735 68.2239C44.3817 67.6241 45.142 67.3242 46.0544 67.3242H47.4991C44.3057 74.2218 42.709 77.7456 42.709 77.7456C42.709 77.8206 42.785 77.8956 42.9371 77.8956H49.9321C50.1602 77.8956 50.3123 77.8206 50.3883 77.6706C51.8329 74.5217 52.9734 72.0476 53.8858 70.0983C54.2659 69.1986 54.7221 68.5238 55.1024 68.1489C55.7105 67.5491 56.4709 67.2492 57.3833 67.2492H58.98C55.7866 74.1469 54.1898 77.6706 54.1898 77.6706C54.1898 77.7456 54.2659 77.8206 54.418 77.8206H61.4131C61.6411 77.8206 61.7932 77.7456 61.8693 77.5957C64.7585 71.5977 67.6477 65.2999 67.6477 65.2249C67.6477 65.2999 67.6477 65.2999 67.6477 65.2249Z" fill="#04B9CE"></path> </svg> 