<?xml version="1.0" encoding="UTF-8"?> <svg xmlns="http://www.w3.org/2000/svg" viewBox="0 0 438.28 440.28"> <defs> <style>.cls-1{fill:#d2d2ff;}.cls-2{fill:#383838;}.cls-3{fill:#fff;}</style> </defs> <title>НОВЫЕ</title> <g id="Layer_2" data-name="Layer 2"> <path class="cls-1" d="M404.33,233.93a48.5,48.5,0,0,0-2.62-9.81,134.51,134.51,0,0,0-8.26-18.43,113.53,113.53,0,0,0-6.84-10.75c-4.36-6.11-9-12.06-13.83-17.79A262.46,262.46,0,0,0,351,154.54c-8.41-7.84-17.2-15.28-26.23-22.4Q317,125.95,309,119.94L350.08,302.2a8.08,8.08,0,0,1-5.26,9.55l-1,.32c1.72-.19,3.43-.44,5.15-.67a72,72,0,0,0,8.87-1.47,33.5,33.5,0,0,0,4.23-1.45c4-1.63,8.25-3.14,12-5.38a95.61,95.61,0,0,0,10.52-7.86,35,35,0,0,0,3.47-3.2,95.13,95.13,0,0,0,8.29-10.5,26.29,26.29,0,0,0,2.33-4c1.56-3.27,2.95-6.65,4.25-10,.27-.69.51-1.4.72-2.12,1.24-4.27,1.57-9,2.08-13.27C406.44,246.07,405.22,239.9,404.33,233.93Z"></path> <path class="cls-1" d="M125.5,82.14a7.81,7.81,0,0,1,6.78-5.27l97.81-7c-10.7-5.53-21.63-10.41-32.74-15.06a148.8,148.8,0,0,0-21-7.32,131,131,0,0,0-16.94-2.71,25.88,25.88,0,0,0-13.21,3,25.82,25.82,0,0,0-11,7.09,25.72,25.72,0,0,0-7.09,11,25.88,25.88,0,0,0-2.95,13.21C125.23,80.09,125.37,81.11,125.5,82.14Z"></path> <path class="cls-1" d="M309.08,345.78a34.31,34.31,0,0,0-8.81-15.12L296,327.38l-99.76,31.95c-7.7,2.46-15.88-2.54-17.55-10.75l-14.26-69.82c-3.23-2-6.43-4.12-9.59-6.27q-6.11-4.15-12-8.58a240.32,240.32,0,0,1-30.42-28.38c-1.64-1.84-3.22-3.73-4.78-5.64a113,113,0,0,1-10.3-17,66.53,66.53,0,0,1-2.24-7.74c0-1.16-.06-2.32,0-3.49q.26-1,.54-2c.48-.85,1-1.69,1.5-2.51,1.13-1.24,2.31-2.41,3.54-3.54.44-.28.9-.56,1.36-.82.64-.18,1.28-.36,1.93-.51a53.32,53.32,0,0,1,5.51.09A102.82,102.82,0,0,1,125.24,197l2.08.8c7.2,3.26,14.2,7,21.06,10.92.67.38,1.33.79,2,1.18l-16.79-82.2c-2.66-.71-5.34-1.32-8-1.78a122.3,122.3,0,0,0-19.19-2.18q-2.43,0-4.86.18a136,136,0,0,0-13.63,1.83c-5.93,1.11-11.43,3.7-16.91,6.12a40.79,40.79,0,0,0-8.22,4.88c-5.69,4.31-11.34,8.53-15.91,14-4.28,5.17-8.77,10.61-11.66,16.76a110.47,110.47,0,0,0-5.45,13.23,43.16,43.16,0,0,0-1.34,5.38,118.4,118.4,0,0,0-1.83,14.42,47.45,47.45,0,0,0,.05,5.72,140.84,140.84,0,0,0,1.9,14.62c.35,2,.8,3.89,1.33,5.8a131.82,131.82,0,0,0,7.82,19.76c5.26,11.22,12.84,21.08,20.54,30.72a205.4,205.4,0,0,0,22.37,23.51,367.61,367.61,0,0,0,34.55,27.4,355.6,355.6,0,0,0,31.35,19.81,354.32,354.32,0,0,0,33.37,16.54c13.51,5.82,27.11,11.33,41.22,15.5,5.39,1.59,10.83,3,16.32,4.19,8,1.75,16.18,2.83,24.36,3.89A139.83,139.83,0,0,0,276,389.17a25.72,25.72,0,0,0,13.2-2.95,30.78,30.78,0,0,0,18.12-18.12,25.83,25.83,0,0,0,3-13.2Z"></path> <path class="cls-2" d="M332.89,334.5l-.05-.22-.1-.42-.2-.84-.8-3.36-3-12.61-132,42.28c-7.7,2.46-15.87-2.54-17.55-10.75L128.86,102.13l-15.69.84-3.45.19-.86,0-.22,0-.39,0-.8.1a11.23,11.23,0,0,0-3.06,1.06,11,11,0,0,0-5.79,10.49,13.83,13.83,0,0,0,.19,1.51l.17.85.33,1.69.66,3.39,1.33,6.78c1.87,9,3.67,18.06,5.6,27.07l5.82,27,11.56,54.06c7.69,36,15.25,72.1,21.69,108.4,1.68,9.06,3.28,18.13,5,27.18.86,4.52,1.77,9,2.66,13.56l.34,1.69.17.85c.06.3.08.46.24,1.08a11.39,11.39,0,0,0,3.18,5.48,11.21,11.21,0,0,0,5.74,3,10.62,10.62,0,0,0,3.33.1,8.89,8.89,0,0,0,1.63-.33l.4-.11.21-.07.41-.13,13.15-4.25,13.11-4.36,26.21-8.77,52.45-17.46,52.47-17.4a9.3,9.3,0,0,0,4.47-3.19,9.46,9.46,0,0,0,1.93-5,9.19,9.19,0,0,0-.14-2.67Z"></path> <path class="cls-3" d="M349.8,302.2a8.07,8.07,0,0,1-5.26,9.55L196,359.33c-7.7,2.46-15.87-2.54-17.55-10.75l-53.5-262A8,8,0,0,1,132,76.87l157.5-11.26A8.11,8.11,0,0,1,297.89,72Z"></path> <path class="cls-2" d="M353.27,301.41a12,12,0,0,1-1.72,9.39,11.64,11.64,0,0,1-3.63,3.42,11.46,11.46,0,0,1-2.29,1l-1.62.54-13,4.32-26,8.63-52,17.34-26,8.71-13,4.32-13,4.22-3.26,1.05c-.77.2-1.54.44-2.33.58a19,19,0,0,1-2.39.27,18.37,18.37,0,0,1-9.27-2,19.77,19.77,0,0,1-7.08-6.1,20.4,20.4,0,0,1-2.2-4.12,16.22,16.22,0,0,1-.71-2.21l-.28-1.13-.17-.86c-1.74-9-3.33-18-5-27-6.39-36-13.89-71.8-21.52-107.56l-11.47-53.63-5.78-26.81c-1.92-8.94-3.7-17.9-5.56-26.85l-2.63-13.46-.66-3.36-.32-1.69-.17-.84c-.06-.34-.14-.86-.19-1.28a13.06,13.06,0,0,1,3.24-10.15A12.62,12.62,0,0,1,127.62,73c.44-.16.88-.33,1.32-.47s.91-.22,1.36-.31.93-.12,1.38-.16l.85,0,6.85-.37L153.07,71c18.26-.94,36.51-2,54.76-3.11s36.51-2.15,54.74-3.43l27.62-1.94a11.09,11.09,0,0,1,8.34,4,11.31,11.31,0,0,1,2.24,4.11c.25.85.33,1.29.47,1.87l.39,1.67,3.15,13.34c4.2,17.8,8.37,35.6,12.27,53.46L320,154.31l2.86,13.41,5.73,26.82C336.28,230.28,344.84,265.83,353.27,301.41ZM346.33,303c-7.66-35.75-15.19-71.54-23.57-107.13l-6.34-26.68-3.18-13.34-3.09-13.36c-4.14-17.8-8-35.67-11.86-53.54L295.4,75.52,295,73.85c-.12-.54-.26-1.21-.34-1.47a5,5,0,0,0-1-1.89,4.83,4.83,0,0,0-3.62-1.78l-13.42.9-13.67,1C244.78,72,226.57,73.49,208.35,75s-36.44,3-54.65,4.72L140,81l-6.83.6-.85.08-.33,0a1.58,1.58,0,0,1-.31.09,2.36,2.36,0,0,1-.28.12,2.8,2.8,0,0,0-1,.8,3.43,3.43,0,0,0-.69,2.57c0,.14,0,.19.07.41l.17.84.36,1.67.71,3.36L133.93,105c1.8,9,3.68,17.9,5.42,26.88l5.19,26.93L155,212.61c7,35.89,14.14,71.75,22.39,107.38,2,8.93,4.05,17.83,6,26.77l.18.82.15.53a7.12,7.12,0,0,0,.37,1,9.76,9.76,0,0,0,.47,1c.17.32.39.61.57.91a9.24,9.24,0,0,0,3.24,2.73,8.35,8.35,0,0,0,4,.84,8.66,8.66,0,0,0,1-.11c.34-.05.66-.17,1-.24l3.26-1,13.07-4.15,13.11-4L250,337l52.43-16.12,26.2-8.09,13.1-4.05,1.64-.51a4.81,4.81,0,0,0,.83-.35,4.48,4.48,0,0,0,1.36-1.21A4.8,4.8,0,0,0,346.33,303Z"></path> <path class="cls-2" d="M223.67,144.56c8.33-1.17,16.61-2.75,24.88-4.25,10.07-1.82,20.13-3.68,30.2-5.51,3.46-.63,6.92-1.27,10.39-1.83a1.89,1.89,0,0,0,1.31-2.3,1.92,1.92,0,0,0-2.3-1.31c-7.61,1.23-15.18,2.7-22.76,4.09-10.26,1.88-20.51,3.78-30.79,5.56-4,.69-7.94,1.38-11.93,1.94a1.88,1.88,0,0,0-1.3,2.3,1.92,1.92,0,0,0,2.3,1.31Z"></path> <path class="cls-2" d="M237.76,207.46c8-1.12,16-3.12,23.9-5,9.53-2.2,19-4.52,28.53-6.84,3.5-.85,7-1.72,10.5-2.54,2.34-.55,1.35-4.16-1-3.61-17.09,4-34.08,8.45-51.26,12.13-3.86.82-7.74,1.66-11.66,2.21a1.89,1.89,0,0,0-1.31,2.3,1.91,1.91,0,0,0,2.3,1.3Z"></path> <path class="cls-2" d="M253.54,273a201.86,201.86,0,0,0,22.26-4.93c8.8-2.27,17.56-4.71,26.22-7.44,3.48-1.09,7-2.21,10.36-3.56a1.92,1.92,0,0,0,1.3-2.3,1.89,1.89,0,0,0-2.3-1.31A221.4,221.4,0,0,1,290,260.3c-8.76,2.52-17.58,4.87-26.47,6.91-3.64.83-7.3,1.65-11,2.17a1.88,1.88,0,0,0-1.31,2.3,1.92,1.92,0,0,0,2.3,1.3Z"></path> <path class="cls-2" d="M207.34,169.32c-6.31,1.58-12.59,3.23-18.87,4.9L179,176.67c-1.57.41-3.15.79-4.73,1.17l-.15,0-.28.06a3.68,3.68,0,0,1-.58,0,4.1,4.1,0,0,1-1.15-.13,4.19,4.19,0,0,1-3-3.19l-.26-1.19q-2-9.54-3.76-19.12l-1.83-9.57-1-4.78-.49-2.39-.12-.59-.06-.3c0-.08-.06-.32-.08-.47a3.81,3.81,0,0,1,.39-2.05,3.72,3.72,0,0,1,1.38-1.56,3.79,3.79,0,0,1,1-.44c.17,0,.35-.08.52-.12l.33,0c.8-.12,1.61-.22,2.41-.36l4.82-.75c3.21-.52,6.44-.86,9.67-1.19s6.46-.66,9.7-.94l4.86-.44,1.21-.11.61-.05a3.47,3.47,0,0,1,1,0,3.55,3.55,0,0,1,2.81,2.41l2,9.68c.66,3.18,1.42,6.34,2.13,9.51s1.42,6.34,2.1,9.52l1,4.76.27,1.19a3.92,3.92,0,0,1,.13.77,3.28,3.28,0,0,1-.08.88A3.22,3.22,0,0,1,207.34,169.32Zm-.46-2a1.2,1.2,0,0,0,.91-.87,1.24,1.24,0,0,0,0-.33,1.86,1.86,0,0,0-.07-.42l-.26-1.19-1.11-4.75c-.74-3.16-1.49-6.32-2.17-9.5s-1.39-6.34-2.15-9.5c-.37-1.58-.77-3.16-1.17-4.73l-1.16-4.6a.85.85,0,0,0-.75-.53.84.84,0,0,0-.26,0l-.6.1-1.2.19-4.82.75c-3.21.51-6.42,1-9.64,1.44s-6.43.93-9.67,1.2l-4.85.44c-.81.07-1.62.16-2.43.24l-.27,0-.08,0a.34.34,0,0,0-.14.05.54.54,0,0,0-.23.22.51.51,0,0,0-.06.32l.21,1,.51,2.38,1,4.76,2.14,9.51c1.45,6.33,2.86,12.67,4.18,19l.23,1.2c0,.06,0,.08,0,.11a.2.2,0,0,0,.09.07l.06,0h.05l.14,0c1.59-.35,3.18-.69,4.77-1l9.57-1.89Q197.33,169.29,206.88,167.34Z"></path> <path class="cls-2" d="M221.51,233.41l-18.95,5.74c-3.16.94-6.32,1.91-9.51,2.76-.8.21-1.59.44-2.39.64l-1.2.3-.6.15-.3.07a5.1,5.1,0,0,1-.54.11,4.05,4.05,0,0,1-4-1.86,4.49,4.49,0,0,1-.61-1.82l-.21-1.22c-.52-3.26-1.09-6.51-1.82-9.73s-1.58-6.41-2.36-9.62-1.44-6.44-2-9.69l-.88-4.87c-.14-.81-.31-1.62-.46-2.43,0-.07-.06-.31-.08-.47a3.49,3.49,0,0,1,0-.56,3.62,3.62,0,0,1,.2-1.08A3.86,3.86,0,0,1,177,198a3.91,3.91,0,0,1,.93-.58,4.82,4.82,0,0,1,.92-.28l1.2-.28c.81-.18,1.62-.35,2.42-.55l4.81-1.16c3.2-.8,6.45-1.41,9.69-2s6.49-1.21,9.75-1.77l4.87-.84.61-.11.4-.06a4,4,0,0,1,.49,0,3.36,3.36,0,0,1,1.82.58,3.32,3.32,0,0,1,1.21,1.44,3.37,3.37,0,0,1,.25.86l.11.61c1.13,6.5,2.31,13,3.79,19.43l2.14,9.66,1.11,4.83.28,1.2a4.21,4.21,0,0,1,.13,1.68A3.46,3.46,0,0,1,221.51,233.41Zm-.67-2.45a1,1,0,0,0,.73-.72,8.29,8.29,0,0,0-.28-2l-.9-4.87-1.85-9.72c-1.2-6.49-2.69-12.92-4.23-19.34l-.15-.6a.85.85,0,0,0-.12-.32,1,1,0,0,0-.4-.39,1,1,0,0,0-.52-.1l-.13,0-.21,0-.6.16-4.8,1.22c-3.2.83-6.4,1.64-9.61,2.39s-6.42,1.56-9.67,2.15l-4.86.91c-.81.15-1.62.33-2.43.49l-1.21.24-.27.06-.12.07a.43.43,0,0,0-.14.23.29.29,0,0,0,0,.13s0,0,0,.06,0,0,0,.14c.18.8.35,1.61.55,2.41l1.14,4.82c.76,3.21,1.42,6.44,2,9.69s1,6.53,1.67,9.76,1.4,6.45,2.22,9.65a9.13,9.13,0,0,0,.48,1.71.38.38,0,0,0,.31.07l2.15-.63c.79-.24,1.59-.44,2.38-.66,3.18-.88,6.39-1.65,9.6-2.44Z"></path> <path class="cls-2" d="M236.3,299.3c-6.25,2.34-12.49,4.7-18.83,6.78L208,309.13l-2.39.76-1.19.38-.59.19c-.2.06-.35.12-.76.22a3.74,3.74,0,0,1-3.79-1.42,3.84,3.84,0,0,1-.51-.93,3.28,3.28,0,0,1-.15-.51l-.07-.33-.24-1.23c-.65-3.27-1.32-6.53-2.08-9.78s-1.61-6.47-2.38-9.72-1.48-6.5-2.13-9.77l-.95-4.91-.47-2.46-.11-.61-.06-.31a3.7,3.7,0,0,1-.07-.57,4.07,4.07,0,0,1,.52-2.22,4,4,0,0,1,1.63-1.56,3.54,3.54,0,0,1,.53-.23c.15-.05.41-.13.48-.14l.61-.13,2.44-.56,4.88-1.09,9.77-2.15c3.25-.72,6.52-1.42,9.76-2.2,1.62-.37,3.24-.78,4.86-1.19l.6-.16.3-.07a2.87,2.87,0,0,1,.44-.08,3.21,3.21,0,0,1,1.78.28,3.35,3.35,0,0,1,1.35,1.21,3.31,3.31,0,0,1,.37.84c.08.29.1.43.16.66.77,3.24,1.53,6.49,2.17,9.76s1.19,6.56,1.84,9.83,1.4,6.52,2.25,9.75l1.28,4.84.32,1.21c.06.22.1.35.17.65a3.47,3.47,0,0,1-2.22,3.92Zm-.83-2.49a.92.92,0,0,0,.69-.73.66.66,0,0,0,0-.28c0-.12-.06-.39-.09-.57l-.22-1.24-.85-4.93c-.58-3.28-1.28-6.54-2-9.79s-1.68-6.46-2.43-9.71-1.46-6.5-2.12-9.77l-.12-.57a.86.86,0,0,0-.12-.3,1.16,1.16,0,0,0-.47-.46,1.21,1.21,0,0,0-.65-.13l-.18,0-.3.07-.61.16c-1.61.4-3.23.8-4.84,1.24-3.22.85-6.42,1.79-9.63,2.7l-9.63,2.74-4.81,1.35-2.41.67-.61.17c-.14,0-.07,0-.12,0s0,0,0,0a.4.4,0,0,0-.13.16.32.32,0,0,0,0,.19l.22,1,.55,2.44,1.09,4.88q1.07,4.89,1.95,9.81c.58,3.29,1.07,6.59,1.7,9.86s1.29,6.55,2,9.81l.27,1.22.07.28a.32.32,0,0,0,0,.09.75.75,0,0,0,.09.15.64.64,0,0,0,.65.22l4.57-1.59,9.44-3.3C222.66,300.57,229.07,298.7,235.47,296.81Z"></path> <path class="cls-2" d="M172.31,144.14a53,53,0,0,1,13.15,18.35c1.17,2.68,6.07,2.09,6.5-.85a141.8,141.8,0,0,1,15.66-47.3,143.47,143.47,0,0,1,7.5-12.26A3.56,3.56,0,1,0,209,98.49a147.37,147.37,0,0,0-21.06,46.94,144.92,144.92,0,0,0-2.82,14.32l6.5-.85a58.18,58.18,0,0,0-14.27-19.78,3.62,3.62,0,0,0-5,0,3.58,3.58,0,0,0,0,5Z"></path> <path class="cls-2" d="M186.08,211.74a52.75,52.75,0,0,1,13.16,18.35c1.17,2.68,6.07,2.09,6.5-.85a141.5,141.5,0,0,1,15.66-47.3q3.43-6.31,7.5-12.27a3.55,3.55,0,0,0-6.14-3.58A147.42,147.42,0,0,0,201.7,213a145.69,145.69,0,0,0-2.82,14.33l6.5-.85a58.35,58.35,0,0,0-14.27-19.79,3.65,3.65,0,0,0-5,0,3.59,3.59,0,0,0,0,5Z"></path> </g> </svg> 