<?xml version="1.0" encoding="UTF-8"?> <svg xmlns="http://www.w3.org/2000/svg" viewBox="0 0 438.28 440.28"> <defs> <style>.cls-1{fill:#caffed;}.cls-2{fill:#383838;}.cls-3{fill:#fff;}</style> </defs> <title>НОВЫЕ</title> <g id="Layer_2" data-name="Layer 2"> <path class="cls-1" d="M123.54,244.13a274.87,274.87,0,0,1,16.68-31.8l-18.37-89.94c-6.58,7.65-12.85,15.54-19,23.56a349.53,349.53,0,0,0-20.32,29.33,290.24,290.24,0,0,0-16.26,29.93c-5.57,12-10.77,24.31-14.45,37-1.28,4.4-2.36,8.85-3.2,13.35A26,26,0,0,0,48,269.26,25.54,25.54,0,0,0,52.07,282a25.77,25.77,0,0,0,8.83,9.61,25.79,25.79,0,0,0,11.65,6.14L81.66,299A34.11,34.11,0,0,0,99,294.3q3.48-2.67,6.94-5.36a34.18,34.18,0,0,0,8.82-15.12A161,161,0,0,1,123.54,244.13Z"></path> <path class="cls-1" d="M279.12,65.61A8.1,8.1,0,0,1,287.5,72l12.38,60,8.6,4.47c.71-1,4.17,1.39,9.2,7.48,6.92,8.36,10.9,20.36,13,14.26,1.06-3.1,4.34-17.49,4.93-20.72.81-4.52,1.43-9.09,1.84-13.66.14-1.52.2-3,.19-4.57a42.07,42.07,0,0,0-.27-4.48,123,123,0,0,0-1.95-13.33,39.32,39.32,0,0,0-1.27-4.39A119.22,119.22,0,0,0,329,84.91c-3-6-7.39-11.34-11.51-16.54A50.29,50.29,0,0,0,309.15,60c-5.14-4-10.06-8.15-16.06-10.79s-11.84-5.34-18.3-6.41S261.57,40.68,254.92,41C250,41.21,245,42,240.18,42.73q-3,.42-5.88,1.06a91.14,91.14,0,0,0-12.13,3.67,183.13,183.13,0,0,0-33.31,16.21c-4.68,3-9.24,6.1-13.71,9.38Z"></path> <path class="cls-1" d="M406,188a25.37,25.37,0,0,0-4.07-12.74,25.85,25.85,0,0,0-8.82-9.62,25.92,25.92,0,0,0-11.66-6.14l-9.11-1.22A34.11,34.11,0,0,0,355,163l-6.94,5.36a34.27,34.27,0,0,0-8.82,15.13c-.31,1.12-.67,2.23-1.06,3.33-2.14,4.48-7.43,26.93-10.28,31-4.2,6,11.41,16.84,24.73,28.48,14,12.2,22.56,16.27,11.39,27l-42.57-35.9,17.84,64.57q5.4-6.15,10.63-12.42,12.71-15.29,24.45-31.33c5.3-7.25,10.39-14.66,15.06-22.33A171.68,171.68,0,0,0,401.07,213a95.94,95.94,0,0,0,4.31-11.35A26,26,0,0,0,406,188Z"></path> <path class="cls-1" d="M185.6,359.33c-7.7,2.46-15.88-2.54-17.55-10.75L151,264.87l-1.07,1.29c-7.14,8.87-14.24,17.92-20.24,27.62-2,3.22-3.86,6.52-5.52,9.92-2.05,4.19-3.79,8.55-5.57,12.85-.64,1.56-1.24,3.13-1.78,4.74a52.39,52.39,0,0,0-2.23,9.25c-.84,5.78-2,11.79-1.49,17.69.49,5.57,1,11.82,3,17.22,1.26,3.43,2.75,6.78,4.24,10.11.29.66.61,1.31,1,1.95a34.85,34.85,0,0,0,2.38,3.82,102.57,102.57,0,0,0,8.19,10.4,30.63,30.63,0,0,0,3.26,3c3.27,2.6,6.64,5.56,10.37,7.62.62.34,1.25.65,1.9.94,3.31,1.5,6.65,3,10.07,4.23a29.77,29.77,0,0,0,4.13,1.15c2.19.44,4.45.67,6.64,1s4.46.67,6.7.83c6.12.44,12.42-.74,18.4-1.63,10.28-1.52,20-5.87,29.42-10.1a171.82,171.82,0,0,0,23.77-13.39,393.73,393.73,0,0,0,31.62-23.68c8.69-7.11,17.07-14.58,25.21-22.3q12.53-11.91,24.3-24.57l1.23-1.32Z"></path> <path class="cls-2" d="M321.74,334.5l-.05-.22-.1-.42-.19-.84-.8-3.36-3-12.61-132,42.28c-7.7,2.46-15.88-2.54-17.55-10.75L117.71,102.13,102,103l-3.45.19-.86,0-.22,0-.38,0-.8.1a10.89,10.89,0,0,0-8.86,11.55,13.78,13.78,0,0,0,.2,1.51l.16.85.34,1.69.66,3.39,1.33,6.78c1.86,9,3.66,18.06,5.59,27.07l5.83,27,11.56,54.06c7.68,36,15.24,72.1,21.68,108.4,1.69,9.06,3.29,18.13,5,27.18.85,4.52,1.77,9,2.66,13.56l.33,1.69.17.85c.07.3.09.46.24,1.08a11.56,11.56,0,0,0,3.18,5.48,11.29,11.29,0,0,0,5.74,3,10.69,10.69,0,0,0,3.34.1,9.06,9.06,0,0,0,1.63-.33l.4-.11.2-.07.42-.13,13.14-4.25,13.12-4.36,26.21-8.77,52.44-17.46,52.47-17.4a9.37,9.37,0,0,0,4.48-3.19,9.54,9.54,0,0,0,1.93-5,9.19,9.19,0,0,0-.14-2.67Z"></path> <path class="cls-3" d="M321,237.3l17.94,64.9a8.07,8.07,0,0,1-5.26,9.55L185.11,359.33c-7.7,2.46-15.87-2.54-17.55-10.75l-53.51-262a8,8,0,0,1,7.09-9.73l157.5-11.26A8.09,8.09,0,0,1,287,72l12.39,60"></path> <path class="cls-2" d="M324.42,236.35,338,282.62l3.39,11.57,1.72,5.78.21.73.11.36.12.61a11.58,11.58,0,0,1,.25,2.37,13,13,0,0,1-.79,4.6,12.68,12.68,0,0,1-6.25,7,11.16,11.16,0,0,1-1.12.49l-.54.2-.36.12-1.42.48-2.85,1-11.4,3.86c-15.22,5.1-30.47,10.1-45.78,14.88-7.66,2.39-15.35,4.69-23,7l-23.09,6.82q-11.53,3.45-23,7.06l-11.47,3.65L186.92,363l-.76.24-.94.26q-.94.23-1.92.36a16.59,16.59,0,0,1-3.92.07,17.91,17.91,0,0,1-13-7.71,18.22,18.22,0,0,1-1.84-3.39,16.23,16.23,0,0,1-.65-1.81c-.09-.31-.19-.61-.26-.93l-.2-.87-1.25-5.88-5-23.54q-5-23.53-10.18-47.05c-1.67-7.85-3.41-15.68-5-23.55l-2.43-11.79-2.31-11.81L135,213.74l-2.18-11.84-4.33-23.68q-4.38-23.67-8.93-47.31L115,107.27l-2.33-11.8-1.18-5.9-.3-1.48-.14-.74c0-.24-.11-.64-.16-1a11.74,11.74,0,0,1,.21-4.09,11.29,11.29,0,0,1,4.61-6.7A10.67,10.67,0,0,1,119.58,74c1.57-.26,2.32-.24,3.38-.34l12-.89,24-2c8-.66,16-1.32,24-1.9l12-.89,12-.79c8-.55,16-1,24-1.47l24-1.42,24.23-1.6a10.72,10.72,0,0,1,7.42,3A11.19,11.19,0,0,1,289,69a6.36,6.36,0,0,1,.4.93,10,10,0,0,1,.31,1l.13.5.08.37.15.74,2.47,11.78c3.33,15.7,6.73,31.39,10.32,47.05l-7,1.43c-2.89-15.78-6-31.52-9.12-47.25L284.4,73.75l-.15-.73-.08-.37-.06-.23A3.07,3.07,0,0,0,284,72a2.53,2.53,0,0,0-.19-.45,5.26,5.26,0,0,0-1.12-1.59,5,5,0,0,0-3.44-1.45l-.53,0-.75.05-1.5.1-3,.23-6,.46-12,.92-24,2c-8,.68-16,1.37-24,2l-12,.92-12,.83c-8,.57-16,1.06-24,1.54L135.4,79l-12,.82c-.94.07-2.2.14-2.62.22a4.46,4.46,0,0,0-1.64.68,4.87,4.87,0,0,0-2,3,5.39,5.39,0,0,0-.08,1.88c0,.18,0,.27.09.52l.15.74.31,1.47,1.23,5.89L121.3,106l5.08,23.52q5.12,23.53,10.33,47L142,200l2.62,11.75,2.53,11.76,2.51,11.77,2.39,11.8c1.63,7.85,3.1,15.74,4.64,23.62q4.46,23.65,9.09,47.27l4.6,23.63,1.15,5.9.13.6c0,.18.09.35.13.53a8.75,8.75,0,0,0,.35,1,11.1,11.1,0,0,0,1,1.9,9.83,9.83,0,0,0,7,4.32,9,9,0,0,0,2.08,0,7.21,7.21,0,0,0,1-.2c.17,0,.34-.1.51-.14l.68-.21,5.73-1.85,11.45-3.69q11.44-3.74,22.83-7.62l22.76-7.86c7.58-2.62,15.18-5.22,22.8-7.73q22.88-7.5,45.91-14.48l11.52-3.48,2.88-.87,1.44-.44.36-.11.16-.06a.79.79,0,0,0,.27-.1,3.16,3.16,0,0,0,1.63-1.7,3.78,3.78,0,0,0,.24-1.9v-.13l-.1-.37-.18-.73-1.49-5.81-3-11.63-12.1-46.53Z"></path> <path class="cls-2" d="M170,194.58c14.36-3,28.81-5.65,43.26-8.2l7.09-1.25c2.36-.42,1.36-4-1-3.61-12.58,2.21-25.16,4.45-37.7,6.89-4.22.83-8.43,1.67-12.64,2.56-2.35.5-1.36,4.1,1,3.61Z"></path> <path class="cls-2" d="M165.52,175.5c16.11-3.3,32.36-5.87,48.54-8.78,3.53-.64,7.06-1.29,10.58-2,2.35-.48,1.35-4.09-1-3.6-15,3.1-30.19,5.35-45.26,8.12-4.62.85-9.25,1.73-13.85,2.68-2.36.48-1.36,4.08,1,3.6Z"></path> <path class="cls-2" d="M161.44,158.23c18.21-3.55,36.6-6.09,55-8.76q9.61-1.41,19.23-2.84a1.89,1.89,0,0,0,1.31-2.3,1.92,1.92,0,0,0-2.3-1.31c-19.92,3-39.89,5.63-59.75,9q-7.24,1.22-14.44,2.61c-2.36.46-1.36,4.07,1,3.61Z"></path> <path class="cls-2" d="M155.66,134c27.64-3.59,55.35-6.55,83-10.27q11.35-1.53,22.68-3.29c1.9-.3,2.95-2.67,2.48-4.37-.55-2-2.47-2.78-4.37-2.49-26.79,4.2-53.74,7.18-80.66,10.43q-11.55,1.4-23.09,2.88c-1.9.25-3.55,1.46-3.55,3.55,0,1.73,1.63,3.81,3.55,3.56Z"></path> <path class="cls-2" d="M370.92,269a4.74,4.74,0,0,0-.28-1.58,4.19,4.19,0,0,0-.85-1.38l-.78-.75a7.29,7.29,0,0,1-1.67,3.59,11.63,11.63,0,0,1-6.8,3.56,3.19,3.19,0,0,1-2.66-.8L311.33,229.1a2.87,2.87,0,0,1-.46-.53l-.38.33a4.05,4.05,0,0,0-.59.57,5.68,5.68,0,0,0-.7,6.55,6.75,6.75,0,0,0,.69,1l.39.43.23.22.92.91c2.45,2.41,5.14,4.58,7.71,6.86s5.12,4.59,7.68,6.89l15.36,13.79c2.55,2.3,5.14,4.57,7.73,6.84,1.28,1.15,2.59,2.26,3.9,3.38l2,1.66,1,.83.49.41.34.28.42.29a5.2,5.2,0,0,0,2.94.74,5.08,5.08,0,0,0,.91-.13,12.88,12.88,0,0,0,2.78-1,12.73,12.73,0,0,0,4.51-3.61,9.47,9.47,0,0,0,1.74-5.48C370.94,269.9,370.92,269.44,370.92,269Z"></path> <path class="cls-2" d="M325.76,220.2c4.61,4.44,9.48,8.58,14.37,12.72s9.63,8.42,14.28,12.81,9.19,8.9,13.77,13.36c.28.29.57.52.93,1a4.21,4.21,0,0,1,.71,1.36,3.87,3.87,0,0,1,.15,1.49c0,.42-.08.84-.13,1.26a10.22,10.22,0,0,1-1.53,5,12.48,12.48,0,0,1-4,3.55,13,13,0,0,1-2.48,1.08,9.92,9.92,0,0,1-1.38.35,5.19,5.19,0,0,1-1.84-.06,5.3,5.3,0,0,1-1.73-.74c-.13-.09-.26-.18-.38-.28l-.26-.21-.46-.38L353.92,271c-1.24-1-2.45-2.05-3.68-3.08-2.41-2.11-4.84-4.19-7.23-6.31l-14.32-12.76-7.16-6.39c-2.39-2.12-4.92-4.09-7.22-6.32-.57-.55-1.15-1.11-1.7-1.69l-.5-.51a3.3,3.3,0,0,1-.46-.6,3.17,3.17,0,0,1-.28-.62,3.13,3.13,0,0,1-.15-1,3.27,3.27,0,0,1,.17-1.08,5.53,5.53,0,0,1,.47-1,6.36,6.36,0,0,1,.46-.69,22.9,22.9,0,0,1,3.77-3.69c1.31-1.06,2.64-2,4-3,.68-.49,1.37-1,2.11-1.41a10.1,10.1,0,0,1,1.18-.66,4,4,0,0,1,.77-.29,2.29,2.29,0,0,1,.6-.08A1.5,1.5,0,0,1,325.76,220.2Zm-1.45,1.59a.75.75,0,0,0,.44.21c.07,0,0,0,0,0a1.73,1.73,0,0,0-.33.17,9.5,9.5,0,0,0-.86.59,22,22,0,0,0-1.65,1.57A37.85,37.85,0,0,0,319,228a29.85,29.85,0,0,0-2.29,3.72,3.61,3.61,0,0,0-.14.35c0,.08,0,.16,0,.06a1.68,1.68,0,0,0,.08-.49,2.35,2.35,0,0,0-.33-1.15A2.8,2.8,0,0,0,316,230l-.05,0,0,0,.06,0,.11.09.24.19c.63.5,1.24,1,1.85,1.53,2.43,2.08,4.64,4.41,7,6.58l7.05,6.51,14.07,13c2.35,2.17,4.65,4.38,7,6.58,1.14,1.12,2.29,2.23,3.42,3.37l1.69,1.7.7.72a1.45,1.45,0,0,0,.43.28,1.32,1.32,0,0,0,.53.11c.25,0,.66-.06,1-.11a10.16,10.16,0,0,0,2-.52,10,10,0,0,0,3.56-2.24,7.13,7.13,0,0,0,1.63-3.88,8.5,8.5,0,0,0,0-1.13,2.6,2.6,0,0,0-.16-.88,2.24,2.24,0,0,0-.45-.72,9.48,9.48,0,0,0-.8-.71c-4.86-4.16-9.74-8.3-14.55-12.52s-9.51-8.55-14-13.07S329.15,226,324.31,221.79Z"></path> <path class="cls-2" d="M334,188.18A57.26,57.26,0,1,1,223.3,164.25a56.76,56.76,0,0,0-3.52,7.07,59.47,59.47,0,0,0,.08,45.82,60.15,60.15,0,0,0,13,19.38,59.07,59.07,0,0,0,19.41,12.9,59.52,59.52,0,0,0,82-55.21A57.71,57.71,0,0,0,334,188.18Z"></path> <path class="cls-2" d="M319.07,226.48a59.73,59.73,0,0,1-64.8,13.26,58.92,58.92,0,0,1-19.41-12.9,60,60,0,0,1-17.62-42.26,59.05,59.05,0,0,1,4.55-22.94,60.35,60.35,0,0,1,32.44-32.46,58.29,58.29,0,0,1,22.94-4.43A59.41,59.41,0,0,1,331.45,207,58.44,58.44,0,0,1,326,217.2c-.55.78-1.08,1.59-1.66,2.36s-1.14,1.55-1.69,2.34l-1.72,2.34C320.33,225,319.7,225.74,319.07,226.48Zm-2.91-2.91c.65-.62,1.32-1.24,2-1.84s1.3-1.27,1.95-1.92a27,27,0,0,0,1.77-2.08c.55-.73,1.05-1.49,1.58-2.24a54.77,54.77,0,0,0,9.35-31,55.1,55.1,0,0,0-16.49-39.16,55,55,0,0,0-39.16-15.57,56.88,56.88,0,0,0-20.89,4.33,54.59,54.59,0,0,0-29.58,29.55,56.13,56.13,0,0,0-4.21,20.9,54.83,54.83,0,0,0,4,21,54.29,54.29,0,0,0,11.84,17.79,55,55,0,0,0,77.8.23Z"></path> <path class="cls-2" d="M312.47,218.66a48.71,48.71,0,0,1-15.67,10.61,49.36,49.36,0,0,1-18.58,3.84,48.74,48.74,0,0,1-18.69-3.54A48.18,48.18,0,0,1,243.64,219a49,49,0,0,1-10.79-53.38,47.26,47.26,0,0,1,10.69-15.92,44.92,44.92,0,0,1,16.13-10.15,52.45,52.45,0,0,1,18.59-3.2A49.26,49.26,0,0,1,312,150.69a48.27,48.27,0,0,1,.49,68Zm-3.11-3.11a44.39,44.39,0,0,0,10.22-48.26A44.93,44.93,0,0,0,310,152.71,43.23,43.23,0,0,0,278.26,140a40.93,40.93,0,0,0-16.8,3.88,49.21,49.21,0,0,0-13.87,9.91,46,46,0,0,0-9.37,14.08,43.55,43.55,0,0,0-.24,33.26,43,43,0,0,0,9.4,14.16,43.84,43.84,0,0,0,62,.26Z"></path> <path class="cls-2" d="M315.56,225.49s46.05,44.3,49.69,44.17c2.15-.08-4.47,3.54-4.47,3.54l-16.25-12.06-33.2-32Z"></path> <path class="cls-2" d="M314,176.7a25.09,25.09,0,0,1-2.55,20.44c-1.24,2.07,2,4,3.23,1.89a28.81,28.81,0,0,0,2.92-23.32c-.68-2.3-4.29-1.32-3.6,1Z"></path> <path class="cls-2" d="M237.31,171.32c1.29-.75,2.62-1.44,4-2.08s2.13-1,3.82-1.6a90.8,90.8,0,0,1,9.38-2.91c3.2-.81,6.43-1.48,9.68-2,.79-.14,1.59-.26,2.38-.38l1.09-.16.54-.07.31,0c1.49-.19,3-.36,4.5-.49,3-.27,6-.44,9-.45a3.56,3.56,0,1,0,0-7.11,119.64,119.64,0,0,0-18.22,1.6,106.42,106.42,0,0,0-19.66,4.87,64.8,64.8,0,0,0-10.36,4.7,3.56,3.56,0,0,0,3.59,6.15Z"></path> <path class="cls-2" d="M236,189a115.68,115.68,0,0,1,15-4.45c7.2-1.75,14.48-3.18,21.78-4.46q7.29-1.28,14.62-2.34c1.9-.27,2.95-2.68,2.48-4.37-.56-2-2.46-2.76-4.37-2.48-14.69,2.13-29.48,4.63-43.77,8.72-2.58.74-5.15,1.54-7.66,2.52a3.65,3.65,0,0,0-2.48,4.37c.47,1.71,2.57,3.19,4.37,2.49Z"></path> <path class="cls-2" d="M237.4,205.65c14-2.14,27.9-5.33,41.64-8.76q6.3-1.57,12.55-3.3c4.41-1.23,2.54-8.09-1.89-6.86-14.63,4.07-29.48,7.51-44.4,10.36-3.25.62-6.52,1.2-9.79,1.7-1.9.29-2.95,2.68-2.48,4.38.55,2,2.46,2.77,4.37,2.48Z"></path> </g> </svg> 