<?xml version="1.0" encoding="UTF-8"?> <svg xmlns="http://www.w3.org/2000/svg" viewBox="0 0 438.28 440.28"> <defs> <style>.cls-1{fill:#caffed;}.cls-2{fill:#383838;}</style> </defs> <title>НОВЫЕ</title> <g id="Layer_2" data-name="Layer 2"> <path class="cls-1" d="M102.16,246.62a124.7,124.7,0,0,1-4.69-24.06,121.47,121.47,0,0,1,.21-24.49,124.14,124.14,0,0,1,182.39-95.94,123,123,0,0,1,20.05,13.45c1.53,1.33,3.09,2.6,4.57,4s3,2.72,4.5,4.06l4.45,4.13c1.42,1.44,2.82,2.92,4.2,4.41a122.77,122.77,0,0,1,8.12,11.1,118.51,118.51,0,0,0,5.43-14c1.82-6,2.49-12.23,3.2-18.42a39.74,39.74,0,0,0,0-9.12c-.69-5.88-1.17-12.09-3.32-17.7s-4.38-11.44-7.86-16.38A105.3,105.3,0,0,0,315.1,57a30.73,30.73,0,0,0-3.33-3.12,85.94,85.94,0,0,0-10.44-7.77,86.4,86.4,0,0,0-12-5.32c-5.51-2.15-11.81-2.64-17.55-3.24a42.68,42.68,0,0,0-9.52.13c-6.5.78-13,1.52-19.27,3.34-6.53,1.88-12.75,4.68-19,7.35A161.24,161.24,0,0,0,200.51,61a365.24,365.24,0,0,0-31.42,23.13c-8.5,6.83-16.7,14-24.65,21.52q-12.3,11.58-23.84,23.94-11.3,12.07-21.87,24.8-12.54,15.11-24.1,31c-5.2,7.17-10.18,14.5-14.74,22.09a198.35,198.35,0,0,0-13.11,26.85,58.68,58.68,0,0,0-2.56,7.39,26.35,26.35,0,0,0-.62,13.83,25.77,25.77,0,0,0,4.12,12.89,26.17,26.17,0,0,0,8.93,9.74,26.12,26.12,0,0,0,11.8,6.2l9.22,1.24a34.58,34.58,0,0,0,17.5-4.73l7-5.43A34.51,34.51,0,0,0,109.37,265,122,122,0,0,1,102.16,246.62Z"></path> <path class="cls-1" d="M399.34,188.29a25.86,25.86,0,0,0-4.11-12.9,26.17,26.17,0,0,0-8.94-9.73,26.05,26.05,0,0,0-11.79-6.21l-9.22-1.24A34.53,34.53,0,0,0,347.77,163l-7,5.42c-.54.54-1.05,1.1-1.55,1.66.55,1.58,1.08,3.17,1.57,4.77a124.74,124.74,0,0,1-9,94.82,123.42,123.42,0,0,1-30.86,37.63,125.26,125.26,0,0,1-80.09,28.31c-1.77,1-3.57,2-5.39,2.88-1.21.62-2.43,1.21-3.65,1.78a89.46,89.46,0,0,1-13.52,3.95c-1.87.11-3.74.13-5.62.06-.95-.22-1.89-.48-2.82-.76-.7-.39-1.39-.79-2.07-1.22q-1.68-1.56-3.21-3.27-1.59-2.39-3-4.91c-.26-.87-.51-1.74-.72-2.63,0-.92,0-1.84,0-2.76a123.33,123.33,0,0,1-18.09-7.95,125.48,125.48,0,0,1-37.63-31.06c-.92-1.13-1.81-2.28-2.69-3.43-3.87,8.51-7.67,17.36-9.12,26.66-1,6.07-2,12.42-1.86,18.63,0,1.54.18,3.08.37,4.61a124.79,124.79,0,0,0,2.07,13.68,43.56,43.56,0,0,0,1.37,4.57,133.22,133.22,0,0,0,5.28,12.52,63.63,63.63,0,0,0,6.66,10.71c4.17,5.49,8.2,11.11,13.53,15.55,5,4.15,10.28,8.5,16.21,11.35A120.22,120.22,0,0,0,170,410a44.91,44.91,0,0,0,5.23,1.43,132,132,0,0,0,14.42,2,50.12,50.12,0,0,0,5.48.24c1.91,0,3.83-.12,5.74-.32,5-.51,10-1.14,14.87-2.06a85.58,85.58,0,0,0,12-3.24,190.62,190.62,0,0,0,20.51-8.59c4.3-2.08,8.48-4.39,12.56-6.87A268,268,0,0,0,292.93,369a287.21,287.21,0,0,0,24.63-23.33,419.81,419.81,0,0,0,27.92-33.52A334,334,0,0,0,365.42,283a281,281,0,0,0,15.93-29.93c5.5-12.12,10.68-24.53,14.26-37.37,1.25-4.48,2.3-9,3.11-13.58A26.15,26.15,0,0,0,399.34,188.29Z"></path> <path class="cls-2" d="M241.21,92.34A120.33,120.33,0,0,1,314.88,135C357.06,186.62,349.5,262.59,298,304.7a120.46,120.46,0,0,1-130.17,14.4A124.35,124.35,0,0,0,229,342.31a126.38,126.38,0,0,0,92.23-28,124.17,124.17,0,0,0,31.1-37.94,125.15,125.15,0,0,0-111.09-184Z"></path> <path class="cls-2" d="M317.63,132.14a124.7,124.7,0,0,1,13.94,137.48,123.44,123.44,0,0,1-30.87,37.62A125.19,125.19,0,0,1,209.24,335a123.77,123.77,0,0,1-46.67-14.24,124.55,124.55,0,0,1-65.31-98.17,121.47,121.47,0,0,1,.21-24.49,124.24,124.24,0,0,1,202.44-82.49c1.53,1.33,3.09,2.6,4.57,4s3,2.72,4.5,4.06l4.45,4.13C314.86,129.17,316.25,130.65,317.63,132.14Zm-5.37,4.39c-1.19-1.5-2.37-3-3.52-4.57s-2.45-3-3.69-4.46-2.68-2.78-4.06-4.13-2.91-2.53-4.37-3.8A116.55,116.55,0,0,0,106,198.91a122.18,122.18,0,0,0,.18,22.79,116.41,116.41,0,0,0,60.7,91.12,118.21,118.21,0,0,0,43.3,13.33A116.59,116.59,0,0,0,312.26,136.53Z"></path> <path class="cls-2" d="M287.51,227.48a59.5,59.5,0,0,1,3.71,6.88c1.1,2.34,2.1,4.71,3,7.13s1.5,4.9,2.24,7.36l1.08,3.7.14.46.07.25.17.65a8.35,8.35,0,0,1,.17,2.69,8.51,8.51,0,0,1-6.56,7.53,8.32,8.32,0,0,1-1.3.19l-.32,0h-.5l-1,0c-1.28,0-2.57-.06-3.85-.06l-7.7-.07c-5.13-.16-10.27-.45-15.42-1a3.53,3.53,0,0,1-.17-7c5.12-.81,10.23-1.34,15.36-1.75l7.68-.45c1.28-.06,2.57-.15,3.85-.24l1-.07.24,0h-.1l-.35,0a2.37,2.37,0,0,0-1.91,2,2.54,2.54,0,0,0,0,.78,1.16,1.16,0,0,0,0,.18l-.07-.2-.16-.45-1.31-3.63c-.86-2.41-1.82-4.8-2.55-7.26s-1.32-5-1.81-7.5a58.05,58.05,0,0,1-1.07-7.75,4,4,0,0,1,7.41-2.42Z"></path> <path class="cls-2" d="M196.44,149.17a62.43,62.43,0,0,1,6.11-11.31c1.19-1.75,2.55-3.4,3.83-5.09l1.94-2.53.24-.31.14-.18.35-.43a7.14,7.14,0,0,1,6-2.4,7,7,0,0,1,4,1.69,6.22,6.22,0,0,1,.77.77c.09.12.26.32.29.37l.12.17.46.65c.6.87,1.21,1.75,1.84,2.61l3.71,5.18c2.4,3.51,4.71,7.09,6.85,10.81a2.92,2.92,0,0,1-4.59,3.52c-3-3-5.9-6.18-8.67-9.41l-4.05-4.92c-.67-.83-1.36-1.64-2-2.46l-.52-.6-.12-.16c-.05,0,0,.06,0,.07s.12.15.19.22a1.94,1.94,0,0,0,2.3.28,2,2,0,0,0,.51-.39l.1-.12-.1.15-.22.33-1.79,2.64c-1.19,1.75-2.32,3.56-3.61,5.25a62.14,62.14,0,0,1-8.79,9.37,3.33,3.33,0,0,1-5.24-3.77Z"></path> <path class="cls-2" d="M217.49,140c.87,5.84,1.4,11.67,1.86,17.51s.76,11.67.93,17.51.05,11.67-.05,17.51c-.06,2.92-.08,5.83-.07,8.75v3a1.55,1.55,0,0,0,.05.23,1,1,0,0,0,.62.65l-1.1-.88c6.11,3.16,12.57,5.77,18.57,9.11s12,6.74,17.72,10.46,11.25,7.88,16.63,12.2a156.87,156.87,0,0,1,15.46,14,3.92,3.92,0,0,1-4,6.41,158.33,158.33,0,0,1-19.35-7.89c-6.22-3-12.3-6.2-18.17-9.74s-11.45-7.55-17.08-11.48-10.74-8.68-16.23-12.83l-.94-.71-.16-.17a14.16,14.16,0,0,1-3.38-7,15.73,15.73,0,0,1-.19-1.94v-3.52c0-2.92,0-5.83-.06-8.75-.11-5.84-.25-11.67-.06-17.51s.52-11.67.94-17.51,1-11.67,1.86-17.51a3.13,3.13,0,0,1,6.2,0Z"></path> <path class="cls-2" d="M151.7,217a7.14,7.14,0,0,1-6.51,2.46q-3.21-.06-6.42-.35c-2.13-.19-4.27-.46-6.4-.83a46,46,0,0,1-6.37-1.53,3.94,3.94,0,0,1,.28-7.57,45.53,45.53,0,0,1,6.46-1.06c2.15-.22,4.3-.33,6.44-.36s4.29,0,6.43.12a7.09,7.09,0,0,1,6.32,2.92A4.83,4.83,0,0,1,151.7,217Z"></path> <path class="cls-2" d="M320.86,211.74a7.15,7.15,0,0,1-6.52,2.46q-3.21-.06-6.41-.35c-2.14-.19-4.27-.46-6.4-.83a45.69,45.69,0,0,1-6.37-1.53,4,4,0,0,1-2.52-5,4,4,0,0,1,2.79-2.59,45.9,45.9,0,0,1,6.47-1.06c2.15-.22,4.3-.33,6.44-.36s4.29,0,6.42.11a7.11,7.11,0,0,1,6.32,2.93A4.83,4.83,0,0,1,320.86,211.74Z"></path> <path class="cls-2" d="M215.6,305.36a7.09,7.09,0,0,1-2.47-6.51c0-2.14.15-4.28.33-6.42s.45-4.27.82-6.4a45.93,45.93,0,0,1,1.51-6.37,4,4,0,0,1,5-2.53,4,4,0,0,1,2.6,2.79,47,47,0,0,1,1.07,6.46c.22,2.15.33,4.3.37,6.44s0,4.29-.1,6.43a7.11,7.11,0,0,1-2.91,6.32A4.82,4.82,0,0,1,215.6,305.36Z"></path> <path class="cls-2" d="M173.54,119.38c-19.12,9.69-34.09,26.86-42.17,46.64a62.29,62.29,0,0,0-4.26,15.42c-.2,1.46,2.1,1.45,2.29,0,1.31-9.92,5.7-19.48,10.94-27.9a90.32,90.32,0,0,1,20.92-23.71,81.93,81.93,0,0,1,13.44-8.47c1.32-.67.15-2.65-1.16-2Z"></path> <path class="cls-2" d="M273.42,365.88c15.45-2.79,30.67-7.33,44.45-15a106.34,106.34,0,0,0,36-33,118,118,0,0,0,10.62-19,3.59,3.59,0,0,0-1.25-4.76c-1.48-.87-4-.48-4.76,1.25a109.57,109.57,0,0,1-22.53,33.29C324.67,340,310.6,348,295.73,353.09a168.48,168.48,0,0,1-24.16,6.08c-1.85.33-2.89,2.58-2.43,4.28a3.56,3.56,0,0,0,4.28,2.43Z"></path> <path class="cls-2" d="M301.13,371.19c21-3.83,40.38-16.13,53.5-32.93a60.6,60.6,0,0,0,7.69-12.41c.59-1.32-1.37-2.47-2-1.14-3.77,8.42-9.87,15.74-16.57,22a89.84,89.84,0,0,1-27.29,17.74,82,82,0,0,1-16,4.56c-1.44.27-.83,2.45.6,2.19Z"></path> </g> </svg> 