<?xml version="1.0" encoding="UTF-8"?> <svg xmlns="http://www.w3.org/2000/svg" viewBox="0 0 438.28 440.28"> <defs> <style>.cls-1{fill:#ffe5ab;}.cls-2,.cls-3,.cls-4{fill:#383838;}.cls-3,.cls-4{stroke:#383838;stroke-miterlimit:10;}.cls-3{stroke-width:1.12px;}.cls-4{stroke-width:0.98px;}</style> </defs> <title>НОВЫЕ</title> <g id="Layer_2" data-name="Layer 2"> <path class="cls-1" d="M122.53,212.77l.35-111.93q-10.41,10.84-20,22.43c-10.34,12.47-20.23,25.39-29.29,38.83A327.4,327.4,0,0,0,54,195a281.81,281.81,0,0,0-17,39.87c-1.61,4.84-3,9.75-4.13,14.73a26,26,0,0,0-.61,13.67A25.53,25.53,0,0,0,36.26,276a25.93,25.93,0,0,0,8.83,9.61,25.83,25.83,0,0,0,11.66,6.14L65.86,293a34.11,34.11,0,0,0,17.3-4.68l6.94-5.36a34.12,34.12,0,0,0,8.81-15.12,167.75,167.75,0,0,1,7.92-25A278.74,278.74,0,0,1,122.53,212.77Z"></path> <path class="cls-1" d="M333.07,103.26c3.14.69,17.92-7.88,17.54-11.15-.69-6.13-1.25-10-3.42-15.88a85.74,85.74,0,0,0-8.61-18,135.68,135.68,0,0,0-9.3-12.19,50.33,50.33,0,0,0-4.46-4.66,114.68,114.68,0,0,0-11.54-9.09,44.09,44.09,0,0,0-5.12-3.13,114.63,114.63,0,0,0-13.39-5.76,47,47,0,0,0-5.69-1.69,133,133,0,0,0-14.84-2.19,58,58,0,0,0-6.18-.35,123.44,123.44,0,0,0-21.87,2.4,96.85,96.85,0,0,0-13.71,3.55,211.92,211.92,0,0,0-22,9c-5,2.32-9.87,4.9-14.63,7.67a288.5,288.5,0,0,0-31.75,22Z"></path> <path class="cls-1" d="M189.44,336.86q-2.62,1.32-5.29,2.54a90.63,90.63,0,0,1-14,4.19c.2-.74.42-1.49.65-2.23l-45.35,11a2.8,2.8,0,0,1-3.39-2.82L122.3,288a119,119,0,0,0-11.13,19.17c-2.65,5.89-5.42,12-7.11,18.24a89.14,89.14,0,0,0-2.79,18.71,35,35,0,0,0,.07,4.69,100.55,100.55,0,0,0,1.88,13.5,30.77,30.77,0,0,0,1.32,4.42,94.47,94.47,0,0,0,5.38,12.3,35.88,35.88,0,0,0,2.68,4.12c2.57,3.44,5.36,7.45,8.54,10.59a82,82,0,0,0,10.47,8.32,27.79,27.79,0,0,0,4,2.38,88.24,88.24,0,0,0,12.42,5.09,36.26,36.26,0,0,0,4.73,1c6.47,1,12.78,2,19.3,1.43a111.17,111.17,0,0,0,32.64-7.45,235.21,235.21,0,0,0,34.89-17.26,336.2,336.2,0,0,0,28.75-19.95c12.29-9.43,24.33-19.11,35.9-29.42q14.55-13,28.28-26.8,5.79-5.81,11.43-11.77Z"></path> <path class="cls-1" d="M424,174.25a25.57,25.57,0,0,0-4.07-12.74,26,26,0,0,0-8.83-9.62,25.83,25.83,0,0,0-11.66-6.14l-9.11-1.22a34.13,34.13,0,0,0-17.3,4.68l-6.94,5.36a34.27,34.27,0,0,0-8.81,15.12c-.15.46-.32.91-.48,1.37a147.49,147.49,0,0,1-9.36,16.36l5.39,100.69a10,10,0,0,1,0,1.82q3-3.31,6-6.67c7.86-8.83,15.49-17.86,22.79-27.16,8.06-10.25,16-20.59,23.23-31.47A163.3,163.3,0,0,0,416.79,204a134.75,134.75,0,0,0,6.59-16A26,26,0,0,0,424,174.25Z"></path> <path class="cls-2" d="M347.17,147.22c1.86,37.3,4.12,74.57,6.46,111.84.58,9.32,1.13,18.64,1.86,27.95l.07.87.05,1.06a14.78,14.78,0,0,1-.14,2.2,13.93,13.93,0,0,1-1.32,4.24,13.4,13.4,0,0,1-6.45,6.22,10.28,10.28,0,0,1-1.09.43l-.55.18-.5.15-1.69.46-3.38.93-6.75,1.86c-9,2.47-18.06,4.77-27.13,7s-18.21,4.16-27.31,6.23L224.62,331,170,343.33l-27.32,6.22c-4.54,1.06-9.08,2.15-13.6,3.31l-3.44.88a4,4,0,0,1-2.61-.3,4.26,4.26,0,0,1-1.89-1.77,4.51,4.51,0,0,1-.46-1.22,5.3,5.3,0,0,1-.1-1.17l0-1.75-.05-3.5-.9-56-.82-56-.15-14-.06-14c0-4.67-.07-9.34,0-14s.33-9.34.52-14c.51-9.33.35-18.67.41-28s0-18.67,0-28l-.13-28V69.19c0-.61,0-1.1,0-1.91a13.91,13.91,0,0,1,.94-4.56,12,12,0,0,1,2.64-4.09,13.76,13.76,0,0,1,3.76-2.74,19.33,19.33,0,0,1,8.24-2c.36,0,.71,0,1.11,0a9,9,0,0,1,1.52.18l1.7.43,3.4.85,6.79,1.7q6.79,1.73,13.6,3.37c4.53,1.12,9.07,2.19,13.62,3.25l54.54,12.79q27.29,6.33,54.52,12.87c9.07,2.22,18.16,4.38,27.22,6.64l13.59,3.39,6.78,1.73a8,8,0,0,0,2.89.18,6.18,6.18,0,0,1,1.3.07,4.06,4.06,0,0,1,1.65.67,5.21,5.21,0,0,1,1.67,2.25l-3.6,1.63c-.18-.38-.41-.6-.38-.54s.1.05,0,.05l-.44,0c-.48,0-1.17.14-1.89.15a9.86,9.86,0,0,1-2.19-.22l-6.85-1.45-13.69-3c-9.12-2-18.22-4.08-27.33-6.11q-27.31-6.21-54.58-12.6L175.3,69.51c-4.54-1.06-9.09-2.11-13.65-3.12s-9.11-2-13.68-3l-6.84-1.48-3.42-.75L136,60.79c.25.05-.07,0-.22,0a4.75,4.75,0,0,0-.64,0,13.4,13.4,0,0,0-5.25,1.36,5.84,5.84,0,0,0-3,3.14,7.51,7.51,0,0,0-.43,2.27c0,.36,0,1,0,1.6V71l0,7-.07,14L126,120c-.1,9.34-.21,18.68-.22,28s-.22,18.68.23,28c.16,4.67.39,9.34.43,14s0,9.33-.09,14l-.15,14L126,232l-1.17,56-1.25,56-.07,3.5,0,1.75a2.25,2.25,0,0,0,0,.57,1.48,1.48,0,0,0,.14.42A1.3,1.3,0,0,0,125,351l3.37-.76c4.56-1,9.09-2.15,13.62-3.29l27.12-7,54.23-14.1,54.2-14.19c9-2.33,18.07-4.73,27.13-7s18.17-4.29,27.31-6.23l6.86-1.44,3.43-.72L344,296a2.16,2.16,0,0,0,.34-.08l.29-.07c.19,0,.37-.12.56-.17a7.07,7.07,0,0,0,3.62-3.1,7.74,7.74,0,0,0,1.08-3.65v-.68l0-.88c-.26-9.33-.71-18.66-1.13-28-1.66-37.32-3.39-74.63-5.53-111.92Z"></path> <path class="cls-2" d="M262.68,214.42c1.44-3.52,3-7,4.51-10.47s3.14-6.93,4.79-10.36c3.32-6.85,6.68-13.69,10.37-20.37s7.53-13.32,11.55-19.81,8.38-12.76,13-18.84c9.16-12.23,18.81-24.11,29.79-35a115.79,115.79,0,0,1,8.8-7.66c1.54-1.22,3.14-2.39,4.8-3.54a30.15,30.15,0,0,1,5.58-3.08,10,10,0,0,1,3.9-.79,6.36,6.36,0,0,1,2.58.62,5.91,5.91,0,0,1,2.17,1.8,9.27,9.27,0,0,1,1.6,4.09,22.1,22.1,0,0,1,.22,3.46,71.69,71.69,0,0,1-1.56,12.23,101.29,101.29,0,0,1-3,11.49,94.52,94.52,0,0,1-4.3,10.85c-1.65,3.51-3.34,7-5.11,10.4s-3.61,6.8-5.54,10.13A449.8,449.8,0,0,1,321.59,188c-4.49,6.19-9.09,12.31-13.85,18.3s-9.82,11.76-15,17.4a216.53,216.53,0,0,1-16.46,16.16A87.75,87.75,0,0,1,267,247a31.43,31.43,0,0,1-5.34,2.8,12.75,12.75,0,0,1-3.12.81,5.22,5.22,0,0,1-3.6-.8l1.28-1.95c1,.5,2.67-.06,4.14-.9a29.37,29.37,0,0,0,4.35-3.1,82.34,82.34,0,0,0,7.91-7.73c5.06-5.46,9.71-11.35,14.25-17.31s8.82-12.12,13.09-18.29,8.46-12.39,12.49-18.72c8.09-12.63,15.51-25.68,22.72-38.74,1.79-3.27,3.61-6.53,5.33-9.82s3.5-6.56,5.15-9.87,3.37-6.58,5.12-9.82,3.57-6.45,5.17-9.72c.81-1.63,1.54-3.28,2.17-4.93A26.66,26.66,0,0,0,359.54,94a11.15,11.15,0,0,0,.21-2.2,3.8,3.8,0,0,0-.19-1.24c0-.06,0-.05.06-.05s0,0-.15-.08a4.37,4.37,0,0,0-1.65.26,18.49,18.49,0,0,0-4.34,2.4,44.22,44.22,0,0,0-4.17,3.42c-2.67,2.49-5.21,5.19-7.71,7.94-5,5.45-9.83,11.2-14.47,17.09s-9.13,11.9-13.5,18l-13,18.4C296.18,164,292,170.17,288,176.54c-8.1,12.69-15.77,25.72-23.2,38.9Z"></path> <path class="cls-3" d="M259,262c-1.21,10.25-8.88,14.75-20.11,16.92-7.78,1.5-22.86-.85-26.45-1.45a.27.27,0,0,1-.08-.5c2.45-1.39,10.75-7.08,14.62-21.91,2.61-10,7.81-14.74,17.2-13.63S260.19,251.7,259,262Z"></path> <path class="cls-2" d="M254,255.59a71.09,71.09,0,0,0-4.33-5.73l-2.28-2.78-.28-.35a4.89,4.89,0,0,1-.37-.5,4.13,4.13,0,0,1-.4-3.7l.34-.89c.89-2.22,2-4.35,3-6.53s1.83-4.43,2.75-6.64l5.31-13.34.67-1.67.05-.12.13-.27a2.89,2.89,0,0,1,.35-.51,3.07,3.07,0,0,1,1-.77,3.15,3.15,0,0,1,2.39-.23,3.5,3.5,0,0,1,1,.52l.37.26.74.52,1.46,1L271.7,218c3.95,2.72,7.83,5.52,11.84,8.16l1.51,1,.76.48.38.25.05,0,.15.12.32.29a4.12,4.12,0,0,1,.52.65,4.19,4.19,0,0,1,.58,3.16,4,4,0,0,1-.67,1.53,3.68,3.68,0,0,1-.53.63l-.24.22-.08.08L285,235.87c-1.72,1.66-3.38,3.4-5.1,5.06a70.72,70.72,0,0,1-5.42,4.68c-1.85,1.5-3.79,2.9-5.74,4.29s-3.94,2.73-5.89,4.13c-1,.68-1.93,1.41-2.9,2.12l-.46.35a3.84,3.84,0,0,1-.79.45,4,4,0,0,1-1.76.31A3.92,3.92,0,0,1,254,255.59Zm3-2.21s.07,0,.08-.06,0,0,0,0h0l.07-.08.15-.16c.84-.86,1.7-1.7,2.52-2.59,1.66-1.74,3.28-3.54,4.93-5.31s3.33-3.5,5.08-5.14a71.65,71.65,0,0,1,5.41-4.76c1.88-1.49,3.84-2.9,5.73-4.38l1.42-1.1.09-.06a.46.46,0,0,0-.07.07,2.47,2.47,0,0,0-.24.29,2,2,0,0,0-.3.72,1.9,1.9,0,0,0,.3,1.44,1.68,1.68,0,0,0,.24.29,1.14,1.14,0,0,0,.16.14l.06.05,0,0-.34-.29-.68-.58-1.37-1.17c-3.67-3.07-7.48-6-11.21-9l-5.65-4.43-1.41-1.11-.71-.55-.35-.28a1.16,1.16,0,0,0,.23.1.86.86,0,0,0,.65-.07,1,1,0,0,0,.26-.21.71.71,0,0,0,.1-.14l0-.07,0,.09-.68,1.66-5.46,13.28c-.87,2.23-1.8,4.43-2.63,6.68s-1.48,4.56-2.39,6.78l-.33.77a.33.33,0,0,0,0-.14s0-.08-.06-.11.07.12.14.24l.25.37,2,3A70.38,70.38,0,0,0,257,253.38Z"></path> <path class="cls-4" d="M251,249.5s13.88-12.29,16.58-15.19c3.49-3.73,9.2-11.42,9.2-11.42l3.14,2.19s28.27-39.69,44.91-68.25c17-29.16,30-59.5,31-62.74,2-6.41,6.74-2.14,7.07-.4,3.86,20.5-17.88,55.72-32.4,76.47-12.32,17.6-50.31,68.2-56.94,73.2C267.44,248,258.68,255,254.4,255S251,249.5,251,249.5Z"></path> <path class="cls-2" d="M243.76,141.59a37.36,37.36,0,0,1-2.8,5c-.26.38-.53.77-.8,1.14s-1.36,1.53-.21.3c-.69.74-1.29,1.58-2,2.33a56.21,56.21,0,0,1-4.56,4.44c-.84.73-1.7,1.44-2.57,2.13a5.56,5.56,0,0,1-.54.42c1.18-.65.24-.19-.05,0q-.8.6-1.59,1.17a174.86,174.86,0,0,1-28.61,16.26C191.2,178.93,182,183,175,190a34,34,0,0,0-8.65,14,19.89,19.89,0,0,0,3.5,18.75c3.32,4,8.52,6.61,13.57,7.63,6.3,1.26,12.58.32,18.78-1,3.09-.67,6.15-1.43,9.26-2l1.14-.18c.29,0,1.31-.12.2,0,.49,0,1-.09,1.47-.09s1,0,1.53.06c.88,0-.39,0-.48-.07a8.23,8.23,0,0,0,1.22.24c.5.12,1,.28,1.46.44s.27.37-.43-.19a5.61,5.61,0,0,0,.65.32l.6.36c.85.48-.71-.73-.3-.25a5,5,0,0,0,.48.45c.66.57-.58-1-.19-.26.63,1.21-.36-1.15.06.13.31.94-.07-1.37-.07-.35,0,.67-.21-.2.11-.56l-.07.34c-.14.43-.12.44.05,0l.15-.32a6.55,6.55,0,0,1-.32.58c-.48.94.61-.58.11-.16-.14.12-.7.85-.87.81,0,0,.92-.61.22-.2-.31.18-.6.38-.91.56-.51.29-1,.56-1.56.82-1.12.55-2.25,1.07-3.36,1.63-2.41,1.2-4.79,2.47-7.11,3.83A93.75,93.75,0,0,0,191.54,245c-8.3,7.13-15.68,16.94-17.85,27.87-1.24,6.27-.88,13.25,3,18.59A21.53,21.53,0,0,0,190.35,300a28.59,28.59,0,0,0,16.84-2.14c5.36-2.37,10-6.24,14.11-10.36,1.95-1.95,3.79-4,5.63-6s2.17-5.45,0-7.44c-2-1.84-5.48-2.2-7.44,0-1.84,2-3.69,4.09-5.63,6-1,1-2,1.92-3,2.83-.51.45-1,.9-1.56,1.33l-.63.52c-.93.75.68-.47-.22.16-1.1.78-2.2,1.55-3.36,2.23q-.87.51-1.77,1l-.72.35c-.25.12-.49.23-.74.33l.51-.22a11.65,11.65,0,0,1-3.28,1.05,6.21,6.21,0,0,0-1.63.31c.07-.05,1.34-.13.4-.06-.33,0-.66.07-1,.09a21.65,21.65,0,0,1-3.32,0c-.14,0-1.25-.14-.29,0s-.14,0-.28-.06c-.6-.11-1.18-.24-1.76-.4s-.94-.28-1.4-.45l-.3-.12c-.53-.2-.41-.15.36.16a2.72,2.72,0,0,0-.58-.27c-.48-.24-.95-.5-1.4-.78-.19-.11-.36-.23-.54-.35l-.52-.37c.6.47.74.58.44.33s-.73-.63-1.06-1-.43-.47-.66-.71c-.45-.48.2-.15.22.31,0-.28-.75-1.1-.9-1.37s-.24-.43-.36-.66-.24-.49-.35-.74c.24.57.29.67.15.31-.15-.59-.38-1.16-.52-1.76a5,5,0,0,1-.23-1.2c0,.13.1,1.21,0,.18a33.4,33.4,0,0,1,.06-4.36c.06-.85-.23,1.29,0-.06l.15-.83c.14-.69.3-1.37.49-2.05s.39-1.35.62-2c.09-.26.18-.52.28-.78s.63-1.62.33-.87.16-.36.19-.43l.32-.69c.27-.58.56-1.14.85-1.71.62-1.17,1.29-2.32,2-3.44s1.34-2,2.05-2.94-.52.63,0,0l.59-.73q.66-.81,1.35-1.59a61.74,61.74,0,0,1,5.38-5.35c.9-.8,1.83-1.58,2.78-2.33.2-.16,1.17-1,.15-.12a7.05,7.05,0,0,1,.61-.47c.62-.46,1.24-.91,1.87-1.35,2.1-1.48,4.27-2.87,6.48-4.18s4.47-2.53,6.76-3.68a59.87,59.87,0,0,0,6.52-3.36c2.68-1.79,5.09-4.32,5.61-7.63a10.16,10.16,0,0,0-2.66-8.91c-3.43-3.62-9.3-4.91-14.1-4.3-3.37.43-6.69,1.1-10,1.85-1.43.32-2.86.64-4.29.94l-2,.4-1.36.23c-.27,0-1.63.22-.42.08a42,42,0,0,1-4.34.31q-.78,0-1.56,0l-1-.07c-.4,0-1.39-.32.06,0-1.05-.25-2.11-.38-3.15-.69-.49-.14-1-.3-1.45-.47l-.32-.12c-.52-.21-.42-.16.32.15,0-.11-.82-.38-.91-.43-1-.47-1.78-1.11-2.7-1.62-.62-.35,1,.86.16.12l-.49-.42c-.49-.44-.91-.92-1.35-1.39-.62-.67.22.2.22.3,0-.14-.47-.67-.55-.8-.26-.41-.48-.84-.71-1.27-.48-.9.24,0,.08.2,0,0-.19-.54-.22-.63a10,10,0,0,1-.29-1.07l-.09-.44c-.11-.6-.11-.57,0,.1-.27-.42-.06-1.76,0-2.2a3.57,3.57,0,0,1,.07-.88c-.4,1,0,.25.05-.13q.19-1,.48-1.95c.13-.42.29-.84.42-1.26.34-1.07-.36.72.15-.38a27.6,27.6,0,0,1,1.53-2.9c.26-.44.53-.87.82-1.29s.39-.55.58-.82c.58-.85-.71.85,0,0a36.22,36.22,0,0,1,4.67-4.76,9.23,9.23,0,0,1,1.31-1.06s-.91.67-.26.21c.27-.2.54-.41.82-.6.93-.67,1.88-1.3,2.85-1.9a114.56,114.56,0,0,1,12.48-6.51,222.19,222.19,0,0,0,27.95-15c7.8-5.09,15.27-11,20.44-18.86a37.06,37.06,0,0,0,2.65-4.78c1.15-2.49.79-5.78-1.89-7.2-2.32-1.22-6-.78-7.2,1.89Z"></path> <path class="cls-2" d="M364.69,159.37A61,61,0,0,0,382,127.46a3.55,3.55,0,0,0-2.43-4.28,3.51,3.51,0,0,0-4.28,2.43,54.39,54.39,0,0,1-15.5,28.84c-3.22,3.13,1.71,8.05,4.92,4.92Z"></path> <path class="cls-2" d="M371.2,168.24a11,11,0,0,0,6.76-7.88,1.18,1.18,0,0,0-.8-1.42,1.16,1.16,0,0,0-1.41.8,10.7,10.7,0,0,1-.3,1.11c-.07.19-.14.39-.22.58.07-.16,0,0,0,.06l-.12.23a9.58,9.58,0,0,1-.55,1l-.36.52c-.12.17,0,0,0,.05l-.19.24a10.33,10.33,0,0,1-.79.83c-.13.13-.28.26-.42.38l-.24.2c.13-.1,0,0-.06,0a9.7,9.7,0,0,1-1,.61,4.82,4.82,0,0,1-.5.27l-.29.13-.1,0a1.19,1.19,0,0,0-.81,1.42,1.17,1.17,0,0,0,1.42.8Z"></path> <path class="cls-2" d="M226.57,138.19a48,48,0,0,1-35.13,23.37c-1.35.16-1.37,2.3,0,2.13a50.2,50.2,0,0,0,37-24.43,1.06,1.06,0,0,0-1.84-1.07Z"></path> <path class="cls-2" d="M321.21,305.12,126.37,352.36a2.8,2.8,0,0,1-3.39-2.82V81.88l-24.47-5.4L95,75.71l-1.87-.41a6.12,6.12,0,0,0-4,.63,6.56,6.56,0,0,0-2.83,3A7.11,7.11,0,0,0,85.69,81a4.89,4.89,0,0,0,0,.54c0,.19,0,.36,0,.4V86.2l0,15,.1,30.07c0,20,.17,40.09.13,60.13s.06,40.09-.18,60.14-.65,40.09-.8,60.13c0,10-.13,20.05.09,30.07l.42,15,.23,7.51.09,3.76,0,1.88,0,.94v.31l0,.52A6.4,6.4,0,0,0,92,377.48a5.44,5.44,0,0,0,1-.09l.46-.09.21-.06.88-.22,1.74-.44c2.33-.57,4.66-1.16,7-1.7,4.67-1.1,9.35-2.12,14-3.18,9.37-2.05,18.66-4.42,27.94-6.87s18.53-5,27.8-7.54,18.55-4.91,27.86-7.22c37.21-9.4,74.54-18.23,111.75-27.6a11.77,11.77,0,0,0,6.83-4.83,12.84,12.84,0,0,0,2.13-8.25Z"></path> <path class="cls-2" d="M123.8,90.18c8.1,1.51,16.19,3.09,24.28,4.68s16.18,3.15,24.25,4.8l48.49,9.75c16.16,3.26,32.32,6.48,48.52,9.55,8.09,1.55,16.19,3.09,24.32,4.44,4.06.7,8.12,1.38,12.17,2.16,2,.38,4,.81,6.06,1.21l3,.66,1.52.33a3.39,3.39,0,0,1,.74.2c.23.17.42.58.51,1.54l-.13.72c-.42.87-.74,1.19-1,1.27a3.39,3.39,0,0,1-.78-.08l-1.53-.22-3.06-.44c-2-.32-4.07-.63-6.1-1-4.06-.68-8.11-1.46-12.16-2.23-8.09-1.58-16.21-3-24.33-4.35-16.25-2.79-32.52-5.42-48.8-8L171,107.33c-8.14-1.29-16.27-2.64-24.4-4s-16.27-2.69-24.38-4.11Z"></path> <ellipse class="cls-2" cx="148.32" cy="79.5" rx="5.87" ry="6.37"></ellipse> <path class="cls-2" d="M154.23,79.5a7.7,7.7,0,0,1-1.46,4.61,5.37,5.37,0,0,1-4.45,2.15A6,6,0,0,1,144,84a7.55,7.55,0,0,1-1.78-4.51,6.69,6.69,0,0,1,1.57-4.7,6,6,0,0,1,4.56-2.17,5.63,5.63,0,0,1,4.46,2.26A7.69,7.69,0,0,1,154.23,79.5Zm-.09,0a5.92,5.92,0,0,0-1.82-4.2,5.75,5.75,0,0,0-4-1.67,5.37,5.37,0,0,0-3.91,1.75,6.76,6.76,0,0,0-1.71,4.12,5.94,5.94,0,0,0,1.5,4.31,5.28,5.28,0,0,0,4.12,1.68,6.15,6.15,0,0,0,4-1.77A6,6,0,0,0,154.14,79.5Z"></path> <ellipse class="cls-2" cx="166.78" cy="83.19" rx="5.58" ry="6.01"></ellipse> <path class="cls-2" d="M172.41,83.19a7.11,7.11,0,0,1-1.4,4.36,5.14,5.14,0,0,1-4.23,2,5.78,5.78,0,0,1-4.12-2.12,7.06,7.06,0,0,1-1.7-4.27,6.24,6.24,0,0,1,1.5-4.44,5.63,5.63,0,0,1,4.32-2A5.35,5.35,0,0,1,171,78.83,7.12,7.12,0,0,1,172.41,83.19Zm-.09,0a5.65,5.65,0,0,0-5.54-5.54,5.11,5.11,0,0,0-3.71,1.65,6.33,6.33,0,0,0-1.63,3.89,5.63,5.63,0,0,0,1.43,4.08,5,5,0,0,0,3.91,1.57,5.84,5.84,0,0,0,3.81-1.66A5.53,5.53,0,0,0,172.32,83.19Z"></path> <ellipse class="cls-2" cx="183.58" cy="86.62" rx="5.46" ry="5.83"></ellipse> <path class="cls-2" d="M189.08,86.62a6.89,6.89,0,0,1-1.38,4.23,5,5,0,0,1-4.12,2,5.7,5.7,0,0,1-4-2,6.84,6.84,0,0,1-1.67-4.15,6.12,6.12,0,0,1,1.48-4.32,5.56,5.56,0,0,1,4.22-2,5.26,5.26,0,0,1,4.13,2A6.93,6.93,0,0,1,189.08,86.62Zm-.09,0a5.32,5.32,0,0,0-1.7-3.86,5.41,5.41,0,0,0-3.71-1.51A5,5,0,0,0,180,82.84a6.07,6.07,0,0,0-1.61,3.78,5.43,5.43,0,0,0,1.41,4,4.91,4.91,0,0,0,3.82,1.51,5.79,5.79,0,0,0,3.72-1.6A5.34,5.34,0,0,0,189,86.62Z"></path> <path class="cls-2" d="M116.64,335.11c9.83-2.12,19.64-4.33,29.45-6.53s19.62-4.38,29.42-6.67,19.56-4.67,29.37-6.86,19.64-4.32,29.46-6.49c19.64-4.34,39.31-8.54,59-12.75l29.52-6.26c9.84-2.07,19.68-4.14,29.54-6.12l.42,1.87c-9.74,2.49-19.51,4.88-29.28,7.28l-29.3,7.15c-19.55,4.73-39.1,9.46-58.68,14.06-9.79,2.29-19.56,4.67-29.36,6.91s-19.63,4.36-29.45,6.55-19.61,4.45-29.4,6.73-19.6,4.53-29.37,6.88Z"></path> </g> </svg> 