<?xml version="1.0" encoding="UTF-8"?> <svg xmlns="http://www.w3.org/2000/svg" viewBox="0 0 438.28 440.28"> <defs> <style>.cls-1{fill:#d2d2ff;}.cls-2{fill:#fff;}.cls-3,.cls-4{fill:#383838;}.cls-4{stroke:#383838;stroke-miterlimit:10;stroke-width:0.94px;}</style> </defs> <title>НОВЫЕ</title> <g id="Layer_2" data-name="Layer 2"> <path class="cls-1" d="M252.73,314.34a6.51,6.51,0,0,0-3.6-4.37c-4.8-2.28-9.56-6.32-14.27-8.05-3.06-1.12-6.09-2.31-9.11-3.53q-12.83-5.62-25.17-12.24a15.19,15.19,0,0,1-2.83,6.21c-10.74,13.84-27.74,13.06-34,12.21a2.59,2.59,0,0,1-2.23-2.5,45.44,45.44,0,0,1-37.1,25.09l.71.51a355.6,355.6,0,0,0,31.35,19.81A354.49,354.49,0,0,0,189.82,364c13.76,5.93,27.6,11.58,42,15.82,5.38,1.59,10.82,3,16.31,4.2,8.34,1.81,16.76,2.91,25.22,4a139.83,139.83,0,0,0,14.31,1.15A28.18,28.18,0,0,0,302.1,386a33.68,33.68,0,0,0,19.82-19.82,27.88,27.88,0,0,0,2.91-8.8,80.17,80.17,0,0,1-24.18,7.46C272.39,369.23,259,341.72,252.73,314.34Z"></path> <path class="cls-1" d="M419.06,229.87a44.63,44.63,0,0,0-2.33-9,143.2,143.2,0,0,0-8.87-20A114.76,114.76,0,0,0,401,190.11c-4.51-6.34-9.31-12.5-14.33-18.44a262.46,262.46,0,0,0-21.76-22.61c-8.41-7.85-17.2-15.28-26.23-22.41-11.8-9.32-23.8-18.39-36.17-26.93q-14.53-10-29.64-19.18-14-8.52-28.59-16.16c-11.24-5.87-22.76-11-34.46-15.87a148,148,0,0,0-21-7.32A134,134,0,0,0,171,38.37a28.18,28.18,0,0,0-14.45,3.23,28.07,28.07,0,0,0-12.07,7.75,28.16,28.16,0,0,0-7.75,12.07,28.16,28.16,0,0,0-3.23,14.45c.45,3.32.89,6.64,1.34,10a37.49,37.49,0,0,0,9.64,16.55l7.59,5.87a37.39,37.39,0,0,0,15.58,5A110.73,110.73,0,0,1,181,117.32a23.8,23.8,0,0,1,1.09-5.41c2.84-7,9-22.91,16.07-23.18,9.47-.35,29.06,13.19,50.92,1,7.22-4,7.84,17.33,12.2,24.54a29.45,29.45,0,0,1,3.71,10c.36,2,12.53-6.93,13.32-5,3.94,9.31-12.95,15.22-13.26,17.17-1.45,9.17-6,17-11.11,19.08,4.32,2.82,6.61,6.09,10.86,9Q275,171.65,285,179.17c7.46,5.87,14.76,11.93,21.83,18.27a301.32,301.32,0,0,1,21.67,21.37q3.64,4,7.08,8.2c1.95,2.68,3.82,5.44,5.55,8.28-1.93-.61-3.85-1.28-5.74-2-6.19-2.85-12.21-6.07-18.12-9.46-8.19-4.71-16.16-9.79-24-15-8.46-5.61-16.81-11.41-25.12-17.24-8.5-6-21.66,1.13-30.17-4.81s-36.58-4.49-40.18-6.71c-7.13.89-4.69-27.72-8.26-24.95-5.93,4.6-8.43-7.33-9-19.94-6.73-3.26-13.58-6.23-20.56-9.06A106.89,106.89,0,0,0,138,119.58,129.57,129.57,0,0,0,118,117.3c-1.62,0-3.24,0-4.86.17a144.44,144.44,0,0,0-14.49,2c-6.17,1.15-11.94,3.9-17.63,6.42a41.62,41.62,0,0,0-8.23,4.88c-5.91,4.48-11.85,8.83-16.6,14.57a122.93,122.93,0,0,0-9.75,13A45.29,45.29,0,0,0,44,162.74c-1.74,3.71-3.29,7.52-4.8,11.32-.34.87-.66,1.75-1,2.64a41.43,41.43,0,0,0-1.33,5.38c-.75,4.17-1.25,8.4-1.73,12.61-.1.89-.18,1.78-.22,2.67a47.47,47.47,0,0,0,.05,5.72,149.65,149.65,0,0,0,2,15.48,57.74,57.74,0,0,0,1.33,5.79q.84,3,1.94,5.87c1.88,5,3.95,9.86,6.2,14.66h0a19,19,0,0,1,5.59-4.5,1.67,1.67,0,0,0,.86-1.9c-1.41-5.55-5.3-27.06,13.85-42.31,18.69-14.87,39-2.23,42-.25a.62.62,0,0,0,.72,0c2.58-2.09,13.93-13.33,29-11.41,14.65,1.87,21.23,14.81,21.23,17.18a.53.53,0,0,0,.62.54c3-.46,11.36-4.24,20,2.85,9.06,7.4,6.47,17.27,5.88,19.39a.4.4,0,0,0,.36.5c2.92.23,17.88,2,21.49,13.44a26.66,26.66,0,0,1,.76,2.91l2.88,2c9,6.3,17.9,12.65,26.9,18.89q4.78,3.33,9.6,6.59c4.75-6,25.72-30.53,53.36-33.06,31.52-2.89,52.66,42.83,52.66,42.83l.84,8.9L365,297l-13.14,15.39a88.49,88.49,0,0,0,9.18-1,76.53,76.53,0,0,0,9.29-1.52,34.72,34.72,0,0,0,4.24-1.45c4.22-1.73,8.78-3.33,12.76-5.71a100.33,100.33,0,0,0,11-8.2c.77-.62,1.54-1.25,2.25-1.94a39.46,39.46,0,0,0,3.06-3.28c2.47-3,4.91-6.1,7.16-9.3a27,27,0,0,0,2.35-4c1.67-3.5,3.16-7.12,4.55-10.75.27-.69.51-1.4.71-2.11,1.33-4.55,1.66-9.54,2.2-14.14C421.32,242.6,420,236.07,419.06,229.87Z"></path> <path class="cls-2" d="M247.58,270.12S251,372.64,301,364.8c54-8.47,51-49.9,51-49.9l2.62-36.33S333.48,232.85,302,235.74,247.58,270.12,247.58,270.12Z"></path> <path class="cls-3" d="M249.3,270.65a1.3,1.3,0,0,0,.08-.34c0-.15,0-.22,0-.16v.67l0,.77.09,1.54.22,3.08c.16,2.05.34,4.11.56,6.16q.65,6.15,1.54,12.28a202.34,202.34,0,0,0,5,24.19,113.67,113.67,0,0,0,8.79,22.88c3.78,7.16,8.77,13.85,15.53,18.1a29.66,29.66,0,0,0,5.34,2.61,30.06,30.06,0,0,0,5.78,1.39,32.38,32.38,0,0,0,6,.13,58.26,58.26,0,0,0,6.05-.85A78.63,78.63,0,0,0,316.26,360,61.35,61.35,0,0,0,327.43,355a50.49,50.49,0,0,0,9.69-7.37,44.87,44.87,0,0,0,7.3-9.63,47,47,0,0,0,5.46-17.08c.11-1,.19-2,.23-3a27.22,27.22,0,0,0,0-2.87v-.28c.2-3,.43-6.05.73-9.08s.56-6,.79-9.07.34-6.06.36-9.1a64.26,64.26,0,0,0-.52-9.17l.29,1.56h0c-.58-1.15-1.27-2.42-1.95-3.62s-1.38-2.42-2.1-3.62c-1.45-2.39-3-4.72-4.59-7a93.44,93.44,0,0,0-10.59-12.79A55.48,55.48,0,0,0,319.73,243a32.36,32.36,0,0,0-14.89-4.12,29.25,29.25,0,0,0-3.92.22c-1.34.1-2.67.35-4,.56a60.84,60.84,0,0,0-7.89,2.11A75.85,75.85,0,0,0,274.15,249a102,102,0,0,0-13.38,10.12c-2.11,1.87-4.15,3.81-6.12,5.84-1,1-1.94,2-2.89,3.09-.47.52-.94,1-1.39,1.57l-.68.8-.34.4-.16.2-.08.1c0,.06.06-.07.09-.15A1,1,0,0,0,249.3,270.65Zm-3.44-1a2.87,2.87,0,0,1,.18-.4c.07-.11.19-.28.17-.26l.08-.12.17-.23.32-.45.66-.89c.44-.59.89-1.17,1.34-1.75.91-1.15,1.85-2.27,2.81-3.38,1.91-2.21,3.91-4.36,6-6.42a101,101,0,0,1,13.6-11.26,87.13,87.13,0,0,1,7.6-4.65,79.42,79.42,0,0,1,8.19-3.7,67.85,67.85,0,0,1,8.69-2.58c1.49-.28,3-.6,4.5-.76a33.69,33.69,0,0,1,4.67-.38A37.38,37.38,0,0,1,322.92,237a61,61,0,0,1,14.51,11,100.6,100.6,0,0,1,11.27,13.81c1.67,2.45,3.22,5,4.69,7.52s2.84,5.12,4.11,7.94l.37,1.25-.08.31a65.73,65.73,0,0,0-1.83,9q-.61,4.53-.94,9.07c-.21,3-.38,6.06-.53,9.09s-.33,6.06-.57,9.09v-.28a28.35,28.35,0,0,1-.08,3.36c-.08,1.09-.2,2.16-.36,3.23a48.38,48.38,0,0,1-1.37,6.32,47.42,47.42,0,0,1-13.42,21.55,52.89,52.89,0,0,1-10.25,7.5,77.49,77.49,0,0,1-23.68,8.51,63.05,63.05,0,0,1-6.27,1,36.57,36.57,0,0,1-6.45,0,33,33,0,0,1-6.35-1.36,32.28,32.28,0,0,1-5.92-2.69,38.82,38.82,0,0,1-9.79-8.38,62.9,62.9,0,0,1-7.19-10.54,116,116,0,0,1-9.23-23.51,207,207,0,0,1-5.26-24.57c-.65-4.14-1.17-8.29-1.59-12.45q-.32-3.12-.55-6.26l-.22-3.13-.09-1.58,0-.78,0-.4v-.3a1.35,1.35,0,0,1,0-.26A2,2,0,0,1,245.86,269.6Z"></path> <path class="cls-3" d="M272.78,97a88.07,88.07,0,0,0-2-13.49A53.55,53.55,0,0,0,266,70.61a49.29,49.29,0,0,0-19.36-19.54,13.83,13.83,0,0,0-1.6-.77c-.54-.24-1.07-.51-1.63-.71a33.84,33.84,0,0,0-3.37-1.08l-1.72-.44c-.57-.13-1.15-.22-1.73-.33-1.15-.24-2.32-.36-3.48-.49a89.6,89.6,0,0,0-13.9-.06,60.31,60.31,0,0,0-13.74,2.43,42.51,42.51,0,0,0-12.6,6.24A48.94,48.94,0,0,0,176.1,78a112.86,112.86,0,0,0-3.87,13.28,109,109,0,0,0-2.61,13.52,95.28,95.28,0,0,0-.41,13.72c.1,2.28.21,4.56.4,6.83s.32,4.53.53,6.78c.71,9,1.64,18,3,27,.34,2.24.76,4.47,1.18,6.71.19,1.12.4,2.24.58,3.37s.38,2.25.61,3.37c.11.56.21,1.13.34,1.69l.44,1.66c.3,1.11.68,2.2,1.07,3.28a51.5,51.5,0,0,0,10.74,17.65l1.19,1.27,1.27,1.18c.83.82,1.74,1.53,2.63,2.29s1.86,1.4,2.79,2.11,2,1.26,3,1.83a38.54,38.54,0,0,0,13.3,4.15,78.4,78.4,0,0,0,13.76.47c2.29-.08,4.57-.2,6.86-.45a50.37,50.37,0,0,0,6.85-1.11,33,33,0,0,0,6.6-2.4,21.9,21.9,0,0,0,5.68-4.18,64.72,64.72,0,0,0,4.5-5.33,56.45,56.45,0,0,0,3.68-5.86l.82-1.53.76-1.55c.53-1,.95-2.1,1.4-3.17a37.27,37.27,0,0,0,2.1-6.55A208.52,208.52,0,0,0,270,151.16c1.09-9,1.48-18,2.31-27,.39-4.51.73-9,.8-13.56A131.35,131.35,0,0,0,272.78,97Zm-37.09,75.68c-6.26-2.58-7.32-5.54-15.64-5.83-6.86-.24-14.52,7.58-18.41,3.13-4.76-5.45,3.76-18.53,21.05-16.36,5.13.64,18.53,2.92,20.3,8.31S241.94,175.22,235.69,172.64Zm10.69-17.53c-11.07-8.15-45.24-8.21-55.82,0s-10.25-36.26-7.42-43.2,9-22.91,16.08-23.18c9.46-.35,27.06,13.59,48.92,1.45,7.22-4,7.84,17.33,12.19,24.54C271.87,133.81,257.44,163.26,246.38,155.11Z"></path> <path class="cls-3" d="M220.63,114.23q-.06,12.47-.08,24.92l2-.81a16.06,16.06,0,0,0-5.77-3.53c-1.4-.5-2,1.72-.62,2.21a13.38,13.38,0,0,1,4.77,2.94,1.16,1.16,0,0,0,2-.81q0-12.47.08-24.92a1.15,1.15,0,0,0-2.3,0Z"></path> <circle class="cls-3" cx="197.75" cy="117.87" r="5.05"></circle> <path class="cls-3" d="M203.09,117.87a5.79,5.79,0,0,1-1.58,3.76,5.54,5.54,0,0,1-3.76,1.66,5.34,5.34,0,0,1-5.61-5.42,5.93,5.93,0,0,1,1.44-4.17,5.25,5.25,0,0,1,4.17-1.76,5.6,5.6,0,0,1,4,2A5.84,5.84,0,0,1,203.09,117.87Zm-.57,0a4.35,4.35,0,0,0-1.59-3.17,4.6,4.6,0,0,0-3.18-1,5.09,5.09,0,0,0-3,1.21,4.13,4.13,0,0,0-1.53,3,4.8,4.8,0,0,0,4.49,4.7,4.7,4.7,0,0,0,3.4-1.3A4.48,4.48,0,0,0,202.52,117.87Z"></path> <circle class="cls-3" cx="242.99" cy="119.29" r="5.05"></circle> <path class="cls-3" d="M248.23,119.29a5.53,5.53,0,0,1-1.51,3.73,5.27,5.27,0,0,1-3.73,1.69,5.05,5.05,0,0,1-2.07-.43,6.73,6.73,0,0,1-1.67-1.26,7.93,7.93,0,0,1-1.34-1.63,5,5,0,0,1-.64-2.1,5,5,0,0,1,1.58-4.14,5.37,5.37,0,0,1,4.14-1.48,5.47,5.47,0,0,1,2.08.58,6.18,6.18,0,0,1,1.63,1.32A5.62,5.62,0,0,1,248.23,119.29Zm-.38,0a4.59,4.59,0,0,0-1.43-3.44,4.31,4.31,0,0,0-1.65-.87,4.92,4.92,0,0,0-1.78-.19,4.82,4.82,0,0,0-3,1.49,5,5,0,0,0-1.25,4.77,3.44,3.44,0,0,0,.85,1.65,3.79,3.79,0,0,0,1.61.93,5,5,0,0,0,1.8.34,4.85,4.85,0,0,0,3.41-1.27A4.62,4.62,0,0,0,247.85,119.29Z"></path> <path class="cls-3" d="M213.08,45.09a.4.4,0,0,1-.47-.42c.17-2.58,1.69-14.22,15.38-14.2,15.27,0,15.23,11.74,15,14.24a.4.4,0,0,1-.49.36c-1.86-.45-9.17-2.12-14.07-1.81C221.66,43.69,214.91,44.78,213.08,45.09Z"></path> <path class="cls-3" d="M213.09,45.19a.5.5,0,0,1-.57-.39,4.37,4.37,0,0,1,0-.64c.05-.41.09-.81.15-1.22a22.64,22.64,0,0,1,.47-2.43A16.61,16.61,0,0,1,215,35.86a12.26,12.26,0,0,1,8.3-5.67,24.46,24.46,0,0,1,9.95.55,16.51,16.51,0,0,1,4.6,1.9,6.08,6.08,0,0,1,1,.71c.33.27.68.5,1,.8l.88.92c.28.31.51.67.77,1a13.16,13.16,0,0,1,2,4.7,16.5,16.5,0,0,1,.34,2.54c0,.43,0,.86,0,1.3v.17a1.31,1.31,0,0,1-.12.46,1.24,1.24,0,0,1-.72.63,1.15,1.15,0,0,1-.48.07.93.93,0,0,1-.24,0l-.07,0-.29-.06a92,92,0,0,0-9.53-1.49,31.12,31.12,0,0,0-4.73-.13c-1.62.07-3.25.11-4.88.15A70.71,70.71,0,0,0,213.09,45.19Zm0-.19c3.22-.53,6.41-1.25,9.64-1.86,1.62-.3,3.24-.57,4.88-.73a27.27,27.27,0,0,1,5-.06,61.4,61.4,0,0,1,9.76,1.76l.3.08.08,0h-.08a.63.63,0,0,0-.19,0,.47.47,0,0,0-.26.24.41.41,0,0,0-.05.17v-.13c0-.38,0-.77,0-1.15a15.07,15.07,0,0,0-.15-2.32,13.47,13.47,0,0,0-1.41-4.41,11,11,0,0,0-7.53-5.3c-.78-.15-1.59-.22-2.38-.32s-1.61,0-2.41,0-1.58.16-2.37.22-1.54.34-2.3.48-1.48.47-2.18.77a14.41,14.41,0,0,0-2,1.05,6.87,6.87,0,0,0-.95.64l-.91.7c-.27.27-.54.55-.83.81a10.61,10.61,0,0,0-.78.86,14.78,14.78,0,0,0-2.38,4.12A14.32,14.32,0,0,0,213,43c-.1.4-.13.8-.19,1.2,0,.19,0,.43,0,.58A.3.3,0,0,0,213.06,45Z"></path> <path class="cls-3" d="M179.06,112.51a12.12,12.12,0,0,0-9.69-3.79,11.71,11.71,0,0,0-9.27,5.58,12.25,12.25,0,0,0-1.23,10.1,14.64,14.64,0,0,0,7,7.8c3.51,1.93,7.45,3,11.24,4.2a3.52,3.52,0,0,0,4.28-2.43,3.56,3.56,0,0,0-2.43-4.28c-1.54-.49-3.08-1-4.61-1.47-.59-.2-1.17-.39-1.75-.6l-.81-.3c-.24-.1-1.15-.5-.49-.19a22.87,22.87,0,0,1-3.34-1.81l-.33-.24s.45.38.16.13-.48-.41-.71-.63-.38-.38-.56-.58l-.26-.3c-.32-.35.42.66,0,0-.15-.23-.3-.46-.43-.7s-.32-.72-.11-.15c-.11-.3-.21-.59-.29-.89l-.09-.38c-.11-.45-.08-.06,0,.13a4.73,4.73,0,0,1,0-1.72c0-.42,0,.27,0,.27s.08-.46.1-.53a9,9,0,0,1,.25-.89c0-.13.1-.25.14-.38,0,.12-.32.65,0,.1.13-.23.25-.47.39-.7s.29-.44.44-.66c-.48.67.16-.13.33-.29s.59-.49.1-.15c.26-.18.52-.35.79-.51s.85-.37.44-.23.12,0,.23-.06l.52-.14.39-.09c.43-.1.15,0-.11,0,.36,0,.72,0,1.08,0l.41,0c.1,0,.68.1.22,0s.09,0,.2,0l.53.14c.31.08.61.19.91.3-.77-.29.18.14.38.25l.34.22c.19.13.53.53.06,0,.25.26.52.49.77.76a3.5,3.5,0,0,0,4.92,0,3.56,3.56,0,0,0,0-4.92Z"></path> <path class="cls-3" d="M272.46,122.81c.51-.34,1-.68,1.56-1,.1-.06,1-.41.26-.17a8.65,8.65,0,0,1,.87-.25c-.7.18.09-.14.18,0l-.43-.07.49.11c.6.11-.33-.22,0,0,.08.05.83.47.39.2s.22.22.31.31l.27.29c-.25-.33-.3-.4-.15-.19s.23.37.34.56.16.31.23.47l-.15-.35c.13.11.16.58.21.76.2.75,0-.68,0,.1,0,.29,0,.59,0,.87,0-.78,0,0-.07.22s-.16.55-.25.83c-.2.68.29-.44-.1.23a16,16,0,0,1-.84,1.39c-.08.13-.17.25-.25.37.21-.28.23-.32.08-.13s-.33.38-.49.56a16,16,0,0,1-1.33,1.27c-.24.21-.5.41-.75.62.52-.42-.3.22-.33.24l-1.6,1.12c-1.08.74-2.16,1.47-3.2,2.26-1.45,1.09-2.35,3-1.25,4.76.92,1.43,3.21,2.42,4.76,1.24,2.72-2.05,5.77-3.74,8.21-6.16a14.08,14.08,0,0,0,4.39-9.11,9.73,9.73,0,0,0-4.56-8.56,8,8,0,0,0-5.62-1A12.63,12.63,0,0,0,269,116.8a3.48,3.48,0,1,0,3.51,6Z"></path> <path class="cls-3" d="M206.69,160.48a28.76,28.76,0,0,0,27.59,0c3.16-1.82.32-6.7-2.85-4.89a21.72,21.72,0,0,1-12.28,2.71,24.33,24.33,0,0,1-5.27-.94,17.75,17.75,0,0,1-4.34-1.75c-3.18-1.77-6,3.11-2.85,4.88Z"></path> <path class="cls-3" d="M81.89,281.41a73.5,73.5,0,0,0,2.63,14.35,59,59,0,0,0,5.57,13.38,35.16,35.16,0,0,0,9.28,10.65,28.88,28.88,0,0,0,12.8,5.31,33.83,33.83,0,0,0,3.52.36c1.21.07,2.41.17,3.61.14a53.87,53.87,0,0,0,7.19-.38,46.81,46.81,0,0,0,13.77-3.92,44.56,44.56,0,0,0,11.83-8.14,42.73,42.73,0,0,0,8.6-11.5l1.94.82A44.77,44.77,0,0,1,153.92,315a46.32,46.32,0,0,1-12.32,9A48.36,48.36,0,0,1,127,328.63a57.8,57.8,0,0,1-7.66.56c-1.28.05-2.55,0-3.83-.07a34.28,34.28,0,0,1-3.87-.39,30.71,30.71,0,0,1-14.33-6.18,38.29,38.29,0,0,1-9.85-11.9A60.77,60.77,0,0,1,82,296.46a76.76,76.76,0,0,1-2.31-15Z"></path> <path class="cls-3" d="M110.43,193.73a2.08,2.08,0,0,0-1.88-.21,2.68,2.68,0,0,0-.49.27l.19-.15.86-.72c.59-.49,1.21-1,1.83-1.49q1.86-1.49,3.87-2.82a44.37,44.37,0,0,1,8.57-4.53,33.64,33.64,0,0,1,9.6-2.27,31.08,31.08,0,0,1,9.93.85,29.6,29.6,0,0,1,16.32,11.17,25.49,25.49,0,0,1,2.66,4.43,12.7,12.7,0,0,1,.53,1.33,6.21,6.21,0,0,1,.24.79,5.45,5.45,0,0,1,.17,1.17c0,.27,0-.1,0-.26a2.28,2.28,0,0,0-.17-.58,2.42,2.42,0,0,0-.79-1,2.46,2.46,0,0,0-1.22-.46,3,3,0,0,0-.56,0l.08,0c.23,0,.56-.13.91-.22a41.06,41.06,0,0,1,4.79-1.07,22,22,0,0,1,5.27-.17,20.67,20.67,0,0,1,10,3.65,22.41,22.41,0,0,1,7.18,7.81,20.86,20.86,0,0,1,2.41,10.53,25.17,25.17,0,0,1-.74,5.28l-.08.3a3.18,3.18,0,0,0-1.79-3.74,3.32,3.32,0,0,0-1-.25h.16c.43,0,.85.07,1.27.12.84.09,1.66.21,2.49.35a32.93,32.93,0,0,1,9.65,3.09,22.93,22.93,0,0,1,8.25,6.9,18.71,18.71,0,0,1,2.54,5,30,30,0,0,1,1.18,5,27.5,27.5,0,0,1-.37,10.34,28,28,0,0,1-4.15,9.38,33.11,33.11,0,0,1-6.84,7.38l-.5.39a1.42,1.42,0,0,0,.49-1.34.86.86,0,0,0-.06-.23c0-.05,0-.07,0,0l.06.14.22.58.41,1.16a45.31,45.31,0,0,1,1.3,4.73,31.18,31.18,0,0,1,.61,10,20.47,20.47,0,0,1-1.26,5.1,17.35,17.35,0,0,1-2.7,4.62,33.39,33.39,0,0,1-7.24,6.7,37.81,37.81,0,0,1-18.29,6.32,48.23,48.23,0,0,1-9.61-.12c-.42,0-.74-.08-1.25-.16a4.81,4.81,0,0,1-2-.81,5,5,0,0,1-2.12-3.64,4.87,4.87,0,0,1,0-.54l0-.46.05-.57.1-1.14.19-2.27c.52-6.08,1.06-12.15,1.52-18.23l.72-9.12.33-4.56.17-2.28.08-1.15,0-.57v-.14c0-.12,0,0,0,.21a2.18,2.18,0,0,0,.29,1,2.13,2.13,0,0,0,1.66,1.06c.25,0,.18,0,.07,0h-.25l-.46,0a9.86,9.86,0,0,1-1.58-.3,16.66,16.66,0,0,1-2.61-1,30.52,30.52,0,0,1-4.33-2.57c-.69-.48-1.28-.9-2-1.46a13.83,13.83,0,0,1-2.06-2.06,17.35,17.35,0,0,1-2.69-4.8,23,23,0,0,1-.79-2.52l-.15-.63,0-.14a2.18,2.18,0,0,0,.17.53,2.7,2.7,0,0,0,.78,1,2.46,2.46,0,0,0,2.22.37,2.55,2.55,0,0,0,1.09-.67,2.86,2.86,0,0,0,.37-.51c.07-.1.2-.48.15-.32a21.65,21.65,0,0,1-2.35,4.81,19.55,19.55,0,0,1-8.21,7,25.67,25.67,0,0,1-10.23,2.2,21.16,21.16,0,0,1-5.39-.5,23,23,0,0,1-5.07-1.85,34.36,34.36,0,0,1-8.26-5.93c-1.2-1.14-2.33-2.34-3.4-3.58-.53-.62-1-1.26-1.56-1.91l-.75-1-.09-.13s-.17-.23,0,0a3.11,3.11,0,0,0,1.19.91,3.05,3.05,0,0,0,2.86-.22,3.13,3.13,0,0,0,1.05-1.09c.33-.66.12-.27.12-.22l-.24.6c-.16.39-.33.79-.51,1.18-.35.77-.73,1.54-1.15,2.29a28.54,28.54,0,0,1-3,4.32,18,18,0,0,1-9.31,6.17,15.24,15.24,0,0,1-2.91.42c-.48,0-1,0-1.43,0l-1.17-.06c-1.56-.08-3.13-.18-4.69-.32s-3.13-.31-4.71-.54c-.79-.12-1.58-.24-2.39-.39l-.31-.06-.16,0c.15,0-.56-.06.3,0a2.82,2.82,0,0,0,2.77-2.16c.15-1.33,0-.29.07-.55v.29l0,1.14c-.18,6.1-.31,12.2-.28,18.3v4.57l0,2.29a4.17,4.17,0,0,1-3.2,4.07l-.32.06-.14,0-.3.05-.59.09-1.18.16c-.78.1-1.57.18-2.36.25-1.57.14-3.16.23-4.74.26-6.32.1-12.89-.44-19.14-3.24a23.66,23.66,0,0,1-8.42-6.16,24,24,0,0,1-4.9-9.41,35.12,35.12,0,0,1-1.11-10.17,44.14,44.14,0,0,1,1.42-10.3,26.29,26.29,0,0,1,5-10,22.31,22.31,0,0,1,4.36-4c.42-.29.85-.57,1.3-.83l.34-.19.17-.1c.12-.06.09-.05-.07,0a4.57,4.57,0,0,0-1.12.9,4.36,4.36,0,0,0-1.07,2.72,4.53,4.53,0,0,0,0,.74c0,.12,0,.24.07.36s0,0,0,0l-.16-.66a45,45,0,0,1,0-20.56,43.78,43.78,0,0,1,9.18-18.43,46.55,46.55,0,0,1,7.37-7,38.39,38.39,0,0,1,8.87-5.1,35.83,35.83,0,0,1,10-2.37,36.9,36.9,0,0,1,10,.51,47.1,47.1,0,0,1,9.38,2.83A46.49,46.49,0,0,1,110.43,193.73Zm-3,4.4a38.3,38.3,0,0,0-15.93-5.58,30.33,30.33,0,0,0-8.2.27,26.8,26.8,0,0,0-7.57,2.59,31.32,31.32,0,0,0-6.55,4.65,36.87,36.87,0,0,0-5.43,6.05,32.31,32.31,0,0,0-5.73,14.6,47.32,47.32,0,0,0,.76,15.75l.1.46.06.26c.05.21.09.42.12.64a8.16,8.16,0,0,1,.07,1.31,7.66,7.66,0,0,1-1.89,4.8,8,8,0,0,1-2,1.62l-.4.21-.16.08-.66.35A18.49,18.49,0,0,0,51.42,248,17.35,17.35,0,0,0,47,253.5a21.33,21.33,0,0,0-2.11,7.59,28.16,28.16,0,0,0,.17,8,16.42,16.42,0,0,0,2.91,6.95,17.43,17.43,0,0,0,5.9,5,28.81,28.81,0,0,0,7.88,2.65,44.07,44.07,0,0,0,8.63.81c1.46,0,2.92-.05,4.39-.16.73-.05,1.46-.12,2.19-.19L78,284l.91-.12a.74.74,0,0,0-.57.74v-2.28l0-4.57c-.06-6.1-.28-12.19-.54-18.29l0-1.14v-.29c0-.35-.09.59.07-.83a3,3,0,0,1,3-2.32l1,.1c.69.08,1.42.14,2.15.18,1.45.11,2.93.16,4.41.19s3,0,4.45,0l1.11,0c.33,0,.58,0,.86-.07a9.36,9.36,0,0,0,1.59-.34,11.71,11.71,0,0,0,5.5-4.07,21.18,21.18,0,0,0,2.15-3.24c.31-.59.62-1.18.9-1.79l.41-.92.19-.46a3.76,3.76,0,0,1,.34-.75,4.27,4.27,0,0,1,5.4-1.8,4.18,4.18,0,0,1,1.64,1.25l.26.36.63.83c.43.56.87,1.11,1.33,1.65.91,1.07,1.87,2.1,2.87,3.07a28.85,28.85,0,0,0,6.45,4.82,15.58,15.58,0,0,0,3.48,1.36,13.71,13.71,0,0,0,3.68.4,19.1,19.1,0,0,0,7.59-1.31,12.91,12.91,0,0,0,5.65-4.53,14.89,14.89,0,0,0,1.77-3.32c0,.07.15-.4.27-.59a3.66,3.66,0,0,1,5.4-1.15,3.61,3.61,0,0,1,1.14,1.4,3.4,3.4,0,0,1,.26.8l0,.14.1.48a14.15,14.15,0,0,0,.51,1.86,11.1,11.1,0,0,0,1.64,3.22,7.62,7.62,0,0,0,1.12,1.21c.47.4,1.1.89,1.65,1.3a25.31,25.31,0,0,0,3.45,2.21,11.5,11.5,0,0,0,1.64.7,4.88,4.88,0,0,0,.66.15l.11,0h.39a3.33,3.33,0,0,1,3,3.17c0,.31,0,.52,0,.49l0,.14-.06.57-.12,1.14-.24,2.27-.48,4.55-.9,9.1c-.62,6.07-1.15,12.14-1.72,18.22L164,302a.28.28,0,0,0,.11.18l.09,0,1,.12a43.11,43.11,0,0,0,8.65,0,32.65,32.65,0,0,0,15.86-5.61,28.83,28.83,0,0,0,6-5.84,13.24,13.24,0,0,0,2.64-7.06,25,25,0,0,0-.75-8.15,38.63,38.63,0,0,0-1.25-4l-.39-1-.2-.49-.05-.12-.11-.26a5,5,0,0,1-.21-.78,4.57,4.57,0,0,1,.6-3.16,4.51,4.51,0,0,1,1.08-1.22l.39-.32a24.67,24.67,0,0,0,8.35-13.52,21,21,0,0,0,0-7.83,23.79,23.79,0,0,0-1-3.84,11.49,11.49,0,0,0-1.67-3.08c-2.85-3.8-8.14-5.9-13.5-7.07-.68-.14-1.36-.25-2-.35l-1-.12-.12,0a4.23,4.23,0,0,1-1.27-.31,4,4,0,0,1-2-1.93,3.89,3.89,0,0,1-.38-1.38,4.27,4.27,0,0,1,.13-1.38l.07-.24a16.75,16.75,0,0,0,.65-3.75,14,14,0,0,0-1.37-7.16,15.48,15.48,0,0,0-4.94-5.63,14.47,14.47,0,0,0-6.92-2.76,16.55,16.55,0,0,0-3.85,0,35.52,35.52,0,0,0-4.16.83c-.39.09-.8.19-1.32.28l-.2,0a3.64,3.64,0,0,1-.84,0,3.43,3.43,0,0,1-1.75-.65,3.59,3.59,0,0,1-1.15-1.42,3.83,3.83,0,0,1-.25-.86,3.42,3.42,0,0,1,0-.54c0,.16,0,.1,0,0s0-.17-.09-.3a7.41,7.41,0,0,0-.3-.8,19.41,19.41,0,0,0-2-3.45,23.69,23.69,0,0,0-21.24-10.3,28.68,28.68,0,0,0-8.15,1.86,36.88,36.88,0,0,0-7.54,4.06c-1.19.82-2.33,1.72-3.45,2.65l-1.68,1.45-.87.77-.25.22-.3.23a3.25,3.25,0,0,1-3.64,0Z"></path> <path class="cls-3" d="M119.7,256.83q-.63,10.5-.9,21c-.09,3.46-.15,6.93-.19,10.39,0,1.2-.4,3.07.68,3.93s3,.75,4.27.78a1.15,1.15,0,0,0,0-2.29c-.86,0-1.71-.19-2.56-.22-.41,0-.19-.17-.1,0a3.69,3.69,0,0,1,0-1.24c0-1.48,0-3,0-4.45,0-3.14.12-6.27.21-9.41q.28-9.28.84-18.55c.09-1.48-2.21-1.47-2.3,0Z"></path> <path class="cls-3" d="M135.86,273.5a17,17,0,0,0,7.76,3.62,22.16,22.16,0,0,0,13.46-1.83,3.49,3.49,0,0,0,1.25-4.76,3.59,3.59,0,0,0-4.76-1.25l-.31.14c.28-.12.3-.13.08,0l-.75.28c-.43.15-.87.29-1.31.41s-.94.24-1.42.33a2.42,2.42,0,0,1-.69.11c.19.05.6-.06.12,0a18.1,18.1,0,0,1-2.55.06c-.36,0-.71-.06-1.07-.09s.77.14.13,0l-.54-.1a15.34,15.34,0,0,1-1.91-.51c-.27-.09-.53-.2-.81-.29s.78.35.25.1c-.12-.06-.26-.11-.38-.18a12.19,12.19,0,0,1-1.28-.7l-.54-.36c-.59-.4.71.58.19.15a3.54,3.54,0,0,0-4.92,0c-1.18,1.29-1.48,3.66,0,4.92Z"></path> <path class="cls-3" d="M337.65,301.43c-.1-4-4-6.59-7.49-7.49a13.41,13.41,0,0,0-12.54,3.11,3.5,3.5,0,0,0,0,4.92,3.54,3.54,0,0,0,4.92,0l.46-.41c.5-.45-.68.48,0,0a8.91,8.91,0,0,1,1-.59c.32-.16.87-.21-.07,0a4.6,4.6,0,0,0,.52-.19c.34-.11.69-.2,1.05-.28.17,0,.35,0,.52-.09-1,.24-.53.07-.22,0s.69,0,1,0,.68.05,1,.07c-1.25-.06-.07,0,.3.09s.62.17.92.27l.44.16c.27.08-.91-.42-.2-.08a8.14,8.14,0,0,1,.77.41l.35.22c.3.19.4.46-.27-.23.17.18.39.32.56.5a3.08,3.08,0,0,0,.24.27c-.75-.64-.45-.65-.27-.35a2.54,2.54,0,0,0,.16.28c.31.49-.22-.37-.18-.46a1.09,1.09,0,0,0,.09.33c.12.29-.1-1.14-.08-.5a3.48,3.48,0,0,0,7,0Z"></path> <path class="cls-3" d="M283.11,303.66c-.09-4-4-6.59-7.48-7.49a13.43,13.43,0,0,0-12.55,3.11,3.5,3.5,0,0,0,0,4.92,3.54,3.54,0,0,0,4.92,0l.46-.41c.5-.45-.68.48,0,0a9.94,9.94,0,0,1,1-.59c.32-.16.87-.21-.06,0a5.27,5.27,0,0,0,.51-.19c.35-.11.7-.2,1-.28.17,0,.35-.05.52-.09-1,.24-.53.07-.22,0s.69,0,1,0,.68.05,1,.07c-1.24-.06-.07,0,.3.09l.93.27.44.16c.27.08-.92-.42-.21-.08a7.08,7.08,0,0,1,.77.41l.36.22c.29.19.39.46-.28-.23.18.18.39.32.56.51l.24.26c-.75-.64-.45-.65-.27-.35,0,.1.11.19.16.28.31.49-.22-.37-.18-.46a1.48,1.48,0,0,0,.09.33c.12.29-.09-1.14-.08-.5a3.48,3.48,0,1,0,7,0Z"></path> <path class="cls-3" d="M280.74,286.2c-.81-2.83-4.28-3.37-6.79-3.33a19,19,0,0,0-9.41,2.57,6.9,6.9,0,0,0-3.08,3.45c-.5,1.39,1.72,2,2.21.61a3.84,3.84,0,0,1,1-1.33,8.53,8.53,0,0,1,1.79-1.18,17.32,17.32,0,0,1,4.9-1.57,13.32,13.32,0,0,1,4.71-.1,5.16,5.16,0,0,1,1.71.59,1.54,1.54,0,0,1,.73.9,1.15,1.15,0,0,0,2.22-.61Z"></path> <path class="cls-3" d="M321.67,286.13c.06-.16,0,0,.11-.21s0-.06.14-.19a1.42,1.42,0,0,1,.57-.42,5.62,5.62,0,0,1,1.56-.44,13.68,13.68,0,0,1,4.89.4,16.91,16.91,0,0,1,4.82,1.91,8.48,8.48,0,0,1,1.68,1.3,3.3,3.3,0,0,1,.88,1.39,1.15,1.15,0,0,0,2.22-.61c-.83-2.87-4-4.49-6.59-5.47-2.85-1.07-6.37-1.8-9.37-1a4.37,4.37,0,0,0-3.13,2.69c-.49,1.39,1.73,2,2.22.61Z"></path> <path class="cls-3" d="M86.79,272.58c5.65,5.09,14.4,5.57,21.18,2.76,1.67-.7,3.06-2.34,2.43-4.28-.52-1.61-2.48-3.18-4.28-2.43a23.45,23.45,0,0,1-3.16,1.06c-.45.11-.9.2-1.35.28s-.6.08-.1,0c-.24,0-.47.05-.71.06a16.83,16.83,0,0,1-2.56,0c-.22,0-.43,0-.64-.06-.67-.07-.12.12.07,0-.17.09-1-.18-1.17-.23a17.4,17.4,0,0,1-2-.58l-.48-.18c-.57-.22.57.27.2.08s-.51-.23-.75-.36a15.06,15.06,0,0,1-1.4-.82c-.15-.1-.76-.56-.19-.12s0-.05-.18-.17a3.48,3.48,0,0,0-4.92,4.92Z"></path> <path class="cls-3" d="M105.92,305.81a21.28,21.28,0,0,0,11.27,5.85c8,1.35,15.73-1.76,22.09-6.59a3.59,3.59,0,0,0,1.24-4.76c-.86-1.47-3.25-2.39-4.76-1.25a30.14,30.14,0,0,1-10,5.35c-.73.2-1.47.34-2.21.5-.42.06-.41.07,0,0l-.6.07c-.38,0-.77.06-1.15.07a15.7,15.7,0,0,1-1.94,0c-.26,0-.52,0-.78-.07s-.35,0,.16,0l-.5-.09a20.55,20.55,0,0,1-3.16-.87c-.93-.33.36.2-.16-.06l-.66-.31c-.43-.22-.86-.45-1.28-.7s-.7-.43-1-.67c-.16-.1-.31-.22-.46-.33-.62-.42.6.52.16.13s-.92-.77-1.35-1.2c-3.16-3.18-8.08,1.74-4.92,4.92Z"></path> <path class="cls-3" d="M355.51,287.47s4.44-21.41,3.36-30.64c-.88-7.64-6-23-17.35-30.31-20-12.86-55.83-22-89.95-11.47-16.36,5-32.24,36.09-8.67,52.45s50.42-19.18,57.09-10.67-3.19,20.29,7.4,20.54,26-14.92,29.11-9.63S340.59,287.71,355.51,287.47Z"></path> <path class="cls-3" d="M355.36,287.29c-.12-.08-.06-.36-.07-.61l0-.73,0-1.48c0-1,.06-2,.11-2.93l.25-5.84c.09-1.94.21-3.86.26-5.79s.17-3.82.15-5.71,0-3.74-.14-5.51-.48-3.41-.71-5.23c-.45-3.62-.81-7.54-2.5-10.93a31,31,0,0,0-6.53-9,30.43,30.43,0,0,0-4.25-3.34c-.75-.49-1.48-.92-2.28-1.34l-2.47-1.34-10-5.22a104.66,104.66,0,0,0-10.34-5,76.06,76.06,0,0,0-22.51-4.63,108.25,108.25,0,0,0-22.91.59c-3.78.5-7.52,1.17-11.25,1.93-1.86.38-3.71.83-5.56,1.26l-2.75.69a16.85,16.85,0,0,0-2.48.84,26.51,26.51,0,0,0-8.88,6.43,31.26,31.26,0,0,0-5.9,9.56c-2.72,7-3,14.95.19,21.46a23.71,23.71,0,0,0,2.9,4.53,26.09,26.09,0,0,0,3.8,3.85,27.7,27.7,0,0,0,9.26,5.4,24.07,24.07,0,0,0,10.85,1,33.64,33.64,0,0,0,10.81-3.49,111.52,111.52,0,0,0,9.79-6.17,55.77,55.77,0,0,1,10.47-5.68,15.26,15.26,0,0,1,3.18-.82,7.53,7.53,0,0,1,1.84,0,5.26,5.26,0,0,1,1.93.65,4.94,4.94,0,0,1,1.46,1.37,12.37,12.37,0,0,1,.86,1.39,11.49,11.49,0,0,1,1.13,3c1,4.2-.13,8.24-.09,11.92a5.65,5.65,0,0,0,.48,2.42,2.72,2.72,0,0,0,1.7,1.3,8.74,8.74,0,0,0,2.59.27,13.76,13.76,0,0,0,2.68-.39c3.6-.88,7-2.74,10.35-4.59l5.08-2.89a35.15,35.15,0,0,1,5.51-2.41,8.44,8.44,0,0,1,3.31-.51,3.43,3.43,0,0,1,1.89.76,3.56,3.56,0,0,1,.67.8c.15.27.26.48.38.73a55,55,0,0,1,2,5.59c1.22,3.63,2.71,7.23,5.42,9.88a12.73,12.73,0,0,0,4.75,2.95,15.19,15.19,0,0,0,2.77.7c.47.09.95.11,1.42.17S354.9,287.24,355.36,287.29Zm.29.36c-.51,0-1.09.07-1.62.06s-1,0-1.47-.11a15.25,15.25,0,0,1-2.92-.58,13.57,13.57,0,0,1-5.23-2.9c-3.06-2.7-4.82-6.46-6.24-10.08-.73-1.81-1.37-3.68-2.21-5.28-.11-.19-.23-.4-.33-.55a1.16,1.16,0,0,0-.28-.3,1.4,1.4,0,0,0-.79-.25,6.57,6.57,0,0,0-2.4.54,52,52,0,0,0-5,2.61L322,273.58A44,44,0,0,1,310.92,278a12.63,12.63,0,0,1-6.28-.12,4.56,4.56,0,0,1-2.75-2.22,7.2,7.2,0,0,1-.66-3.25c0-1,.08-2,.16-3s.14-1.93.17-2.88a15.45,15.45,0,0,0-.7-5.43,9.94,9.94,0,0,0-1.89-3.37,2.3,2.3,0,0,0-.7-.56c-.93-.49-2.71,0-4.31.76s-3.26,1.72-4.92,2.68-3.33,1.94-5,2.88c-3.44,1.86-7.07,3.46-10.69,5a69.39,69.39,0,0,1-11.24,4,26.72,26.72,0,0,1-12.27.3,22.51,22.51,0,0,1-5.89-2.26,30.61,30.61,0,0,1-5.09-3.58,26.87,26.87,0,0,1-9.41-22.2,34.52,34.52,0,0,1,3-11.75,46.3,46.3,0,0,1,6.21-10.29,32.65,32.65,0,0,1,9.13-8.18,22.11,22.11,0,0,1,2.9-1.39c1-.37,1.9-.64,2.85-1s1.91-.57,2.87-.84,1.92-.51,2.89-.72A81.08,81.08,0,0,1,271,208.85a118,118,0,0,1,23.7.59c7.83,1.06,15.48,2.81,23.18,4.56a116.05,116.05,0,0,1,11.59,3,49.69,49.69,0,0,1,10.85,5.21c.87.53,1.69,1.12,2.52,1.7a31.69,31.69,0,0,1,2.48,2,34.3,34.3,0,0,1,4.2,4.69,65.35,65.35,0,0,1,6.19,10.48c.88,1.8,1.84,3.57,2.79,5.38a37.12,37.12,0,0,1,2.52,5.64,20.87,20.87,0,0,1,.74,3,24.85,24.85,0,0,1,.25,3.25,47.33,47.33,0,0,1-.39,6.15c-.26,2-.59,4-.95,5.91s-.83,3.86-1.32,5.77-1,3.81-1.64,5.69c-.29.94-.6,1.87-.94,2.8-.16.47-.32.93-.51,1.39l-.26.7A8,8,0,0,1,355.65,287.65Z"></path> <path class="cls-4" d="M282.34,330a2.34,2.34,0,0,0-2.59,3c1.94,6.05,8,16.15,21.35,15.08,16.7-1.34,20.86-14.84,20.54-19.33s-13.65,3.11-21.4,3.37C294.64,332.3,286.82,330.66,282.34,330Z"></path> <path class="cls-3" d="M297.1,292.14a20.76,20.76,0,0,1-1.61,12.14c-1.65,3.54-4.52,6-6.65,9.24-1.86,2.78-3.21,7.1.46,9s8.28.74,12.11-.5c1.4-.45.8-2.67-.61-2.21a26.56,26.56,0,0,1-5.82,1.4c-1.6.14-4.34.11-5.44-1.32s.33-3.74,1.07-4.91a39.5,39.5,0,0,1,3.19-4,23.67,23.67,0,0,0,5.52-19.45c-.25-1.45-2.47-.83-2.22.61Z"></path> <path class="cls-3" d="M357.34,294.26l.46-.22-.13,0c.24-.08.48-.17.73-.24s.49-.12.73-.18.33-.07-.19,0l.49,0a4.18,4.18,0,0,1,.72,0q-.81-.13-.24,0l.34.08.33.11c-.48-.22-.55-.24-.21-.07.52.57-.55-.55.05,0,.2.2.41.38.6.59l.25.27c.24.29.21.25-.09-.13a3.13,3.13,0,0,0,.4.6c.15.25.26.5.4.75s.07.14-.12-.28c.06.15.11.3.16.45s.12.46.17.69c.16.7,0-.78,0,.13,0,.12,0,.23,0,.35,0,.39,0,.31.06-.22a3.42,3.42,0,0,1-.17.69c-.12.36-.09.3.11-.18-.06.14-.13.28-.2.41s-.24.39-.36.59c-.37.61.45-.46,0,0-.24.24-.83,1.07-1.19,1.13l.14-.11-.2.14c-.26.19-.52.36-.79.54-2.23,1.43-4.58,2.68-6.88,4a3.48,3.48,0,0,0,3.52,6c2.19-1.27,4.42-2.47,6.57-3.81a14.07,14.07,0,0,0,5.27-5.09,9.41,9.41,0,0,0,.45-7.8,10.74,10.74,0,0,0-5.43-6.12c-3-1.28-6.37-.53-9.22.9a3.5,3.5,0,0,0-1.25,4.76,3.56,3.56,0,0,0,4.76,1.25Z"></path> <path class="cls-3" d="M252.58,301c0-3.12-4.11-4.17-6.58-3.64-3.44.76-5.12,4.45-4.8,7.7a15,15,0,0,0,4.13,8.39,20.91,20.91,0,0,0,2.93,2.87c.57.44,1.15.86,1.73,1.29l.41.31c-.24-.19-.23-.18,0,0s.45.39.67.61a2.83,2.83,0,0,0,4-4,21,21,0,0,0-2.55-2l-.52-.38c-.12-.1-.61-.49-.23-.17a11.94,11.94,0,0,1-1-1c-.7-.73-1.39-1.48-2-2.26s.27.41-.23-.31c-.16-.22-.32-.45-.47-.68-.26-.42-.48-.86-.72-1.3-.14-.26.09.29-.07-.19-.08-.25-.17-.5-.24-.76s-.12-.52-.16-.78c.06.42,0,.06,0-.16s0-.53,0-.79-.12.33,0-.15c.07-.2.3-.69.06-.28.09-.16.48-.56.13-.24l.18-.18q.38-.35,0,0l.19-.1c-.33.12-.39.15-.19.09a1.37,1.37,0,0,1,.29-.07c-.39,0-.47.06-.25,0,0,0,.48,0,.48,0s-.67-.15,0,0-.08,0-.07-.06l.36.19c-.61,0-1.07-2.28-1.06-2a2.83,2.83,0,1,0,5.65,0Z"></path> </g> </svg> 