<svg width="328" height="290" viewBox="0 0 328 290" fill="none" xmlns="http://www.w3.org/2000/svg">
<rect width="328" height="290" rx="30" fill="#1A1A1A"/>
<path d="M98.0621 117V127.952C94.5201 123.32 89.6144 119.914 84.035 118.213C78.455 116.512 72.4824 116.602 66.9566 118.47C61.4303 120.338 56.6297 123.89 53.229 128.626C49.829 133.363 48 139.045 48 144.875C48 150.704 49.829 156.386 53.229 161.123C56.6297 165.859 61.4303 169.411 66.9566 171.279C72.4824 173.147 78.455 173.237 84.035 171.536C89.6144 169.835 94.5201 166.429 98.0621 161.797V172.749H103.753V117.023L98.0621 117ZM75.0831 167.87C70.53 167.877 66.0776 166.534 62.2887 164.011C58.4997 161.489 55.5449 157.899 53.7977 153.698C52.0505 149.497 51.5902 144.872 52.474 140.409C53.3585 135.946 55.5475 131.845 58.7646 128.626C61.9816 125.407 66.0819 123.214 70.5468 122.324C75.0116 121.433 79.6406 121.887 83.8476 123.626C88.0547 125.366 91.6508 128.313 94.1811 132.095C96.7114 135.878 98.0615 140.325 98.0621 144.875C98.0556 150.966 95.6342 156.806 91.3269 161.116C87.0197 165.426 81.1787 167.855 75.0831 167.87Z" fill="white"/>
<path d="M75.0838 124.904C71.1281 124.904 67.2617 126.077 63.9731 128.273C60.6841 130.469 58.1213 133.59 56.6081 137.242C55.0949 140.894 54.6995 144.912 55.4718 148.789C56.2447 152.665 58.15 156.225 60.9478 159.019C63.7457 161.814 67.3099 163.716 71.1898 164.486C75.0692 165.255 79.0905 164.858 82.744 163.344C86.3981 161.83 89.5204 159.267 91.716 155.979C93.9121 152.692 95.083 148.827 95.0808 144.875C95.0716 139.579 92.9616 134.503 89.2133 130.76C85.4644 127.016 80.3833 124.91 75.0838 124.904ZM75.5507 140.735C78.5549 140.735 82.379 136.186 82.379 136.186L75.5507 147.979L68.7218 136.186C68.7218 136.186 72.5459 140.735 75.5507 140.735ZM82.379 147.16C79.3743 147.16 75.5507 151.71 75.5507 151.71C75.5507 151.71 71.7379 147.16 68.7218 147.16C65.7057 147.16 61.8929 151.71 61.8929 151.71L68.7218 139.916L75.5507 151.71L82.379 139.916L89.1851 151.778C89.1851 151.778 85.3723 147.16 82.3676 147.16H82.379Z" fill="white"/>
<path d="M127.653 134.65H134.664L136.097 139.268H141.595L134.425 118.797H128.028L120.824 139.268H126.196L127.653 134.65ZM131.158 122.743L133.673 131.023H128.643L131.158 122.743Z" fill="white"/>
<path d="M149.278 131.796H152.476L156.801 139.268H162.697L157.347 130.977C158.116 130.729 158.833 130.344 159.464 129.84C160.147 129.254 160.684 128.518 161.034 127.688C161.383 126.86 161.535 125.961 161.479 125.063C161.507 124.201 161.338 123.342 160.985 122.554C160.632 121.766 160.104 121.068 159.441 120.514C157.811 119.281 155.792 118.672 153.751 118.797H143.985V139.268H149.278V131.796ZM149.278 122.834H153.068C153.875 122.788 154.675 123.008 155.344 123.46C155.616 123.704 155.828 124.007 155.962 124.347C156.096 124.686 156.149 125.052 156.118 125.416C156.153 125.785 156.1 126.157 155.966 126.502C155.831 126.848 155.619 127.157 155.344 127.406C154.675 127.859 153.875 128.079 153.068 128.031H149.278V122.834Z" fill="white"/>
<path d="M168.967 138.324C170.621 139.194 172.471 139.625 174.339 139.575C175.69 139.591 177.033 139.375 178.311 138.939C179.494 138.528 180.56 137.837 181.418 136.926C182.33 135.924 182.979 134.713 183.307 133.4L178.459 132.035C178.299 133.016 177.8 133.909 177.048 134.56C176.325 135.115 175.433 135.405 174.521 135.379C173.585 135.411 172.662 135.161 171.869 134.662C171.122 134.14 170.563 133.39 170.276 132.524C169.903 131.399 169.729 130.218 169.764 129.033C169.726 127.832 169.919 126.635 170.333 125.507C170.632 124.649 171.2 123.909 171.952 123.397C172.704 122.885 173.601 122.628 174.51 122.664C175.389 122.63 176.255 122.882 176.98 123.38C177.749 124.064 178.25 125 178.391 126.019L183.08 124.131C182.785 122.929 182.177 121.826 181.316 120.935C180.461 120.093 179.42 119.462 178.277 119.093C177.006 118.68 175.676 118.476 174.339 118.49C172.482 118.443 170.644 118.874 169.001 119.741C167.494 120.559 166.271 121.817 165.496 123.346C164.645 125.119 164.231 127.068 164.29 129.033C164.231 130.997 164.645 132.947 165.496 134.719C166.261 136.244 167.471 137.502 168.967 138.324Z" fill="white"/>
<path d="M191.64 131.023H199.455V139.268H204.795V118.797H199.455V126.894H191.64V118.797H186.289V139.268H191.64V131.023Z" fill="white"/>
<path d="M214.663 118.797H209.323V139.268H214.663V118.797Z" fill="white"/>
<path d="M223.019 138.325C224.671 139.194 226.518 139.625 228.386 139.575C229.74 139.591 231.083 139.376 232.361 138.939C233.542 138.528 234.609 137.837 235.47 136.926C236.38 135.925 237.03 134.713 237.355 133.4L232.508 132.035C232.35 133.016 231.847 133.909 231.099 134.56C230.374 135.115 229.48 135.405 228.57 135.379C227.633 135.411 226.713 135.161 225.916 134.662C225.169 134.14 224.611 133.39 224.324 132.525C223.945 131.396 223.772 130.211 223.804 129.022C223.761 127.821 223.956 126.624 224.373 125.496C224.671 124.637 225.239 123.898 225.987 123.386C226.74 122.874 227.639 122.617 228.548 122.653C229.426 122.619 230.292 122.87 231.018 123.369C231.787 124.053 232.285 124.989 232.426 126.008L237.116 124.12C236.824 122.918 236.212 121.815 235.351 120.924C234.501 120.081 233.455 119.45 232.312 119.082C231.045 118.668 229.713 118.465 228.375 118.479C226.518 118.431 224.682 118.862 223.041 119.73C221.535 120.553 220.316 121.814 219.547 123.346C218.692 125.119 218.28 127.068 218.34 129.033C218.28 130.997 218.692 132.947 219.547 134.719C220.311 136.244 221.519 137.502 223.019 138.325Z" fill="white"/>
<path d="M245.403 118.797L238.2 139.268H243.573L245.03 134.65H252.038L253.473 139.268H258.97L251.799 118.797H245.403ZM246.021 131.023L248.534 122.743L251.047 131.023H246.021Z" fill="white"/>
<path d="M277.416 121.47C276.442 120.539 275.288 119.821 274.015 119.361C272.748 118.901 271.399 118.709 270.056 118.797H261.358V139.268H270.056C271.405 139.358 272.753 139.167 274.026 138.706C275.293 138.246 276.452 137.528 277.433 136.595C279.242 134.508 280.157 131.791 279.978 129.033C280.157 126.273 279.236 123.555 277.416 121.47ZM273.333 133.673C272.873 134.219 272.288 134.647 271.621 134.92C270.961 135.193 270.246 135.304 269.531 135.242H266.709V122.834H269.531C270.246 122.773 270.961 122.884 271.621 123.157C272.288 123.43 272.873 123.858 273.333 124.404C274.199 125.784 274.6 127.407 274.47 129.033C274.6 130.662 274.205 132.289 273.333 133.673Z" fill="white"/>
<path d="M136.19 157.465L135.006 161.786H134.949L133.799 157.442L130.567 147.013H122.965V167.484H127.711V158.09L127.562 151.789H127.62L132.684 167.484H136.998L142.062 151.789H142.119L141.96 158.09V167.484H146.683V147.013H139.388L136.19 157.465Z" fill="white"/>
<path d="M156.277 147.013L149.073 167.484H154.445L155.902 162.867H162.936L164.358 167.484H169.856L162.685 147.013H156.277ZM156.892 159.239L159.407 150.96L161.923 159.239H156.892Z" fill="white"/>
<path d="M178.186 151.084C178.791 150.9 179.421 150.815 180.053 150.834C181.254 150.812 182.446 151.048 183.547 151.528C184.628 152.036 185.602 152.746 186.414 153.621L188.986 150.209C187.925 149.079 186.625 148.194 185.186 147.616C183.578 146.999 181.866 146.698 180.144 146.728C178.519 146.687 176.904 146.982 175.398 147.593C174.184 148.088 173.131 148.911 172.359 149.97C171.657 150.968 171.287 152.161 171.301 153.381C171.261 154.386 171.531 155.379 172.075 156.225C172.615 156.999 173.349 157.618 174.203 158.022C175.186 158.496 176.221 158.855 177.287 159.091L181.077 159.932C181.719 160.038 182.325 160.3 182.841 160.694C182.997 160.839 183.119 161.016 183.2 161.212C183.28 161.408 183.317 161.619 183.308 161.832C183.316 162.202 183.195 162.564 182.967 162.855C182.686 163.177 182.312 163.403 181.897 163.503C181.303 163.662 180.69 163.734 180.076 163.72C179.147 163.721 178.223 163.587 177.333 163.321C176.459 163.054 175.625 162.671 174.852 162.184C174.136 161.755 173.491 161.218 172.94 160.592L170.367 164.163C171.104 164.927 171.951 165.575 172.883 166.085C173.937 166.666 175.067 167.098 176.24 167.37C177.523 167.676 178.837 167.829 180.155 167.825C181.681 167.851 183.197 167.593 184.628 167.063C185.851 166.613 186.912 165.824 187.703 164.788C188.472 163.722 188.873 162.431 188.84 161.115C188.867 160.438 188.754 159.763 188.504 159.134C188.25 158.504 187.871 157.935 187.383 157.464C186.073 156.381 184.505 155.663 182.83 155.383L179.416 154.61C178.716 154.487 178.047 154.228 177.447 153.848C177.258 153.725 177.103 153.556 176.998 153.357C176.893 153.158 176.839 152.936 176.843 152.71C176.838 152.357 176.945 152.01 177.151 151.721C177.422 151.408 177.784 151.186 178.186 151.084Z" fill="white"/>
<path d="M190.296 151.141H197.001V167.484H202.346V151.141H209.019V147.013H190.296V151.141Z" fill="white"/>
<path d="M217.392 159.17H225.841V155.292H217.392V151.141H228.013V147.013H212.058V167.484H228.424V163.367H217.392V159.17Z" fill="white"/>
<path d="M247.157 158.09C247.84 157.503 248.376 156.767 248.728 155.938C249.074 155.109 249.226 154.211 249.172 153.313C249.199 152.45 249.031 151.592 248.679 150.804C248.322 150.015 247.796 149.318 247.13 148.764C245.5 147.53 243.485 146.921 241.444 147.046H231.668V167.517H236.911V160.012H240.111L244.482 167.484H250.374L245.029 159.193C245.798 158.956 246.518 158.582 247.157 158.09ZM236.911 151.05H240.702C241.509 151.004 242.31 151.223 242.976 151.675C243.252 151.919 243.464 152.222 243.599 152.562C243.729 152.902 243.783 153.267 243.751 153.632C243.789 154 243.734 154.373 243.599 154.718C243.464 155.063 243.252 155.373 242.976 155.621C242.31 156.074 241.509 156.295 240.702 156.247H236.911V151.05Z" fill="white"/>
</svg>
