<svg width="328" height="420" viewBox="0 0 328 420" fill="none" xmlns="http://www.w3.org/2000/svg">
<g clip-path="url(#clip0_52_4656)">
<rect width="328" height="420" rx="50" fill="#F7B40D"/>
<path d="M34.14 340.1C34.02 345.77 38.88 350.48 44.67 350.36C48.48 350.36 51.72 348.53 53.43 345.44L50.37 343.28C48.96 345.5 47.07 346.61 44.7 346.61C41.01 346.61 38.31 343.91 38.31 340.13C38.31 336.35 41.01 333.59 44.7 333.59C47.07 333.59 48.96 334.7 50.37 336.92L53.43 334.76C51.66 331.67 48.45 329.84 44.7 329.84C38.94 329.72 34.05 334.43 34.14 340.1ZM69.0588 343.94C69.2388 343.19 69.3288 342.44 69.3288 341.72C69.3288 337.85 66.4488 334.82 62.3388 334.82C58.0488 334.73 54.4788 338.3 54.5688 342.59C54.4788 346.88 58.1088 350.45 62.6988 350.36C64.8888 350.36 66.8688 349.61 68.6388 348.14L66.9588 345.38C65.6688 346.37 64.2888 346.88 62.8188 346.88C60.6588 346.88 59.1288 345.83 58.6488 343.94H69.0588ZM58.6488 341.09C59.0988 339.26 60.4788 338.09 62.1888 338.09C63.9588 338.09 65.3688 339.26 65.3988 341.09H58.6488ZM80.7089 335.15C80.3189 335.03 79.8989 334.97 79.3889 334.97C77.7389 334.97 76.2989 335.69 75.3089 336.92V335.15H71.5889V350H75.6389V342.59C75.6389 340.04 77.1989 338.72 79.6289 338.72H80.7089V335.15ZM94.4768 341.18C94.4768 337.07 91.9868 334.82 88.1168 334.82C85.5068 334.82 83.3468 335.84 81.6368 337.88L83.7368 340.37C85.0568 338.96 86.1368 338.33 87.6668 338.33C89.4668 338.33 90.4268 339.29 90.4268 340.94V341.6H86.7068C83.2568 341.6 81.0968 343.25 81.0968 345.92C81.0968 348.53 83.0768 350.36 86.2268 350.36C88.1168 350.36 89.6768 349.67 90.7568 348.56V350H94.4768V341.18ZM90.4268 344.45C90.4268 346.16 89.0768 347.39 87.3068 347.39C86.0168 347.39 85.1768 346.76 85.1768 345.77C85.1768 344.78 85.9268 344.27 87.2468 344.27H90.4268V344.45ZM105.253 350H109.303V343.01H112.693C116.833 343.01 119.833 340.37 119.833 336.59C119.833 332.78 116.833 330.2 112.693 330.2H105.253V350ZM109.303 339.47V333.77H112.693C114.523 333.77 115.693 334.91 115.693 336.59C115.693 338.3 114.583 339.47 112.693 339.47H109.303ZM131.015 335.15C130.625 335.03 130.205 334.97 129.695 334.97C128.045 334.97 126.605 335.69 125.615 336.92V335.15H121.895V350H125.945V342.59C125.945 340.04 127.505 338.72 129.935 338.72H131.015V335.15ZM131.493 342.56C131.403 346.79 135.063 350.42 139.413 350.33C143.763 350.42 147.513 346.79 147.423 342.56C147.513 338.33 143.793 334.76 139.443 334.82C135.093 334.73 131.403 338.33 131.493 342.56ZM143.283 342.59C143.283 344.9 141.633 346.61 139.443 346.61C137.193 346.61 135.603 344.9 135.603 342.59C135.603 340.22 137.193 338.51 139.443 338.51C141.633 338.51 143.283 340.28 143.283 342.59ZM160.439 350H164.489V333.86H170.849V330.2H154.109V333.86H160.439V350ZM181.228 335.15L177.358 344.9L173.728 335.15H169.438L175.138 349.1L174.688 350.12C173.998 351.68 173.038 352.13 171.598 352.13C171.358 352.13 170.788 352.1 169.858 352.01V355.4C170.758 355.64 171.628 355.76 172.468 355.76C175.228 355.76 177.028 354.38 178.378 351.29L185.488 335.15H181.228ZM202.636 342.56C202.636 338.12 199.576 334.82 195.436 334.82C193.396 334.82 191.656 335.6 190.666 337.01V335.15H186.946V355.4H190.996V348.56C192.076 349.73 193.636 350.36 195.436 350.36C199.576 350.36 202.636 347 202.636 342.56ZM198.526 342.59C198.526 345.02 196.846 346.67 194.686 346.67C192.616 346.67 190.936 345.2 190.936 342.56C190.936 339.89 192.646 338.48 194.686 338.48C196.876 338.48 198.526 340.1 198.526 342.59ZM218.563 343.94C218.743 343.19 218.833 342.44 218.833 341.72C218.833 337.85 215.953 334.82 211.843 334.82C207.553 334.73 203.983 338.3 204.073 342.59C203.983 346.88 207.613 350.45 212.203 350.36C214.393 350.36 216.373 349.61 218.143 348.14L216.463 345.38C215.173 346.37 213.793 346.88 212.323 346.88C210.163 346.88 208.633 345.83 208.153 343.94H218.563ZM208.153 341.09C208.603 339.26 209.983 338.09 211.693 338.09C213.463 338.09 214.873 339.26 214.903 341.09H208.153ZM225.833 333.08C225.833 331.4 226.703 330.77 228.533 330.77C228.893 330.77 229.283 330.8 229.733 330.86V327.47C229.043 327.26 228.293 327.14 227.513 327.14C223.943 327.14 221.783 329 221.783 332.72V335.15H219.683V338.57H221.783V350H225.833V338.57H229.103V335.15H225.833V333.08ZM242.897 341.18C242.897 337.07 240.407 334.82 236.537 334.82C233.927 334.82 231.767 335.84 230.057 337.88L232.157 340.37C233.477 338.96 234.557 338.33 236.087 338.33C237.887 338.33 238.847 339.29 238.847 340.94V341.6H235.127C231.677 341.6 229.517 343.25 229.517 345.92C229.517 348.53 231.497 350.36 234.647 350.36C236.537 350.36 238.097 349.67 239.177 348.56V350H242.897V341.18ZM238.847 344.45C238.847 346.16 237.497 347.39 235.727 347.39C234.437 347.39 233.597 346.76 233.597 345.77C233.597 344.78 234.347 344.27 235.667 344.27H238.847V344.45ZM245.055 342.56C244.995 346.85 248.655 350.45 253.005 350.36C255.885 350.36 258.165 348.95 259.455 346.67L256.635 344.51C255.675 345.86 254.595 346.64 253.065 346.64C250.785 346.64 249.165 344.93 249.165 342.56C249.165 340.25 250.785 338.51 253.065 338.51C254.625 338.51 255.705 339.32 256.635 340.67L259.455 338.48C258.165 336.2 255.915 334.82 253.005 334.82C248.595 334.82 245.055 338.21 245.055 342.56ZM274.905 343.94C275.085 343.19 275.175 342.44 275.175 341.72C275.175 337.85 272.295 334.82 268.185 334.82C263.895 334.73 260.325 338.3 260.415 342.59C260.325 346.88 263.955 350.45 268.545 350.36C270.735 350.36 272.715 349.61 274.485 348.14L272.805 345.38C271.515 346.37 270.135 346.88 268.665 346.88C266.505 346.88 264.975 345.83 264.495 343.94H274.905ZM264.495 341.09C264.945 339.26 266.325 338.09 268.035 338.09C269.805 338.09 271.215 339.26 271.245 341.09H264.495Z" fill="white"/>
<path d="M33.688 379.72C33.64 382.744 36.168 385.224 39.256 385.176C41.384 385.176 43.24 384.072 44.184 382.392V379.416H39.24V380.92H42.488V382.056C41.832 383.064 40.728 383.656 39.336 383.656C37.064 383.656 35.448 381.96 35.448 379.704C35.448 377.48 37.016 375.816 39.24 375.816C40.552 375.816 41.608 376.376 42.392 377.48L43.624 376.472C42.616 375.064 41.096 374.264 39.256 374.264C36.2 374.216 33.624 376.696 33.688 379.72ZM53.2255 381.624C53.3055 381.256 53.3535 380.904 53.3535 380.568C53.3535 378.52 51.8015 376.968 49.7215 376.968C47.4975 376.92 45.6095 378.824 45.6575 381.08C45.6575 383.4 47.4815 385.176 49.8815 385.176C51.0815 385.176 52.1215 384.76 53.0175 383.912L52.2175 382.76C51.5135 383.384 50.7455 383.688 49.9295 383.688C48.5855 383.688 47.5775 382.904 47.3695 381.624H53.2255ZM47.4015 380.312C47.6575 379.144 48.5535 378.392 49.6575 378.392C50.7615 378.392 51.6575 379.112 51.6735 380.312H47.4015ZM54.7825 381.064C54.7345 383.288 56.6705 385.224 58.9265 385.176C61.2145 385.224 63.1505 383.288 63.1025 381.064C63.1505 378.84 61.2145 376.92 58.9265 376.968C56.6705 376.936 54.7345 378.808 54.7825 381.064ZM61.3745 381.08C61.3745 382.504 60.3185 383.624 58.9265 383.624C57.5505 383.624 56.4945 382.536 56.4945 381.08C56.4945 379.624 57.5505 378.504 58.9425 378.504C60.3025 378.504 61.3745 379.624 61.3745 381.08ZM76.8205 380.088C76.8205 378.216 75.7165 376.968 73.9085 376.968C72.8045 376.968 71.8285 377.448 71.2525 378.2C70.7885 377.432 69.9565 376.968 68.8685 376.968C67.9245 376.968 67.1565 377.304 66.5965 377.88V377.144H65.0285V385H66.7085V380.328C66.7085 379.24 67.4125 378.504 68.4365 378.504C69.4445 378.504 70.0845 379.24 70.0845 380.328V385H71.7645V380.248C71.7645 379.24 72.4685 378.504 73.4925 378.504C74.5005 378.504 75.1245 379.224 75.1245 380.328V385H76.8205V380.088ZM86.2255 381.624C86.3055 381.256 86.3535 380.904 86.3535 380.568C86.3535 378.52 84.8015 376.968 82.7215 376.968C80.4975 376.92 78.6095 378.824 78.6575 381.08C78.6575 383.4 80.4815 385.176 82.8815 385.176C84.0815 385.176 85.1215 384.76 86.0175 383.912L85.2175 382.76C84.5135 383.384 83.7455 383.688 82.9295 383.688C81.5855 383.688 80.5775 382.904 80.3695 381.624H86.2255ZM80.4015 380.312C80.6575 379.144 81.5535 378.392 82.6575 378.392C83.7615 378.392 84.6575 379.112 84.6735 380.312H80.4015ZM92.9505 383.576C92.4865 383.624 92.1505 383.656 91.9105 383.656C90.8865 383.656 90.3585 383.304 90.3585 382.296V378.6H92.6945V377.144H90.3585V375.08H88.6625V377.144H87.3825V378.6H88.6625V382.44C88.6625 384.28 89.7505 385.176 91.5585 385.176C91.9585 385.176 92.4225 385.112 92.9505 385V383.576ZM99.1495 377.144C98.9575 377.096 98.7495 377.064 98.5095 377.064C97.6135 377.064 96.7815 377.464 96.2215 378.168V377.144H94.6535V385H96.3335V380.808C96.3335 379.416 97.3095 378.632 98.6375 378.632H99.1495V377.144ZM100.654 385H102.334V377.144H100.654V385ZM100.35 374.216C100.35 374.84 100.862 375.32 101.502 375.32C102.126 375.32 102.638 374.84 102.638 374.216C102.638 373.592 102.126 373.096 101.502 373.096C100.862 373.096 100.35 373.592 100.35 374.216ZM104.267 381.064C104.267 383.352 106.107 385.176 108.427 385.176C109.851 385.176 111.035 384.488 111.739 383.352L110.555 382.44C109.979 383.224 109.275 383.624 108.443 383.624C107.035 383.624 105.979 382.504 105.979 381.064C105.979 379.64 107.035 378.52 108.443 378.52C109.291 378.52 109.995 378.92 110.555 379.72L111.739 378.792C111.051 377.656 109.883 376.968 108.427 376.968C106.171 376.936 104.219 378.808 104.267 381.064ZM117.339 383.656C118.043 384.568 119.163 385.176 120.507 385.176C121.339 385.176 122.027 384.968 122.587 384.552C123.147 384.12 123.419 383.528 123.419 382.776C123.419 381.672 122.763 381.032 121.275 380.408L120.523 380.104C119.755 379.784 119.483 379.576 119.483 379.176C119.483 378.68 119.899 378.424 120.555 378.424C121.243 378.424 121.899 378.712 122.395 379.224L123.307 378.184C122.619 377.368 121.723 376.968 120.587 376.968C118.987 376.968 117.819 377.832 117.819 379.24C117.819 380.344 118.475 380.952 119.867 381.528L120.667 381.864C121.435 382.184 121.771 382.376 121.771 382.84C121.771 383.416 121.227 383.72 120.507 383.72C119.675 383.72 118.987 383.32 118.299 382.6L117.339 383.656ZM131.597 380.248C131.597 378.136 130.317 376.968 128.381 376.968C127.021 376.968 125.853 377.512 125.069 378.648L126.045 379.64C126.701 378.856 127.341 378.472 128.221 378.472C129.293 378.472 129.901 379.064 129.901 380.152V380.664H127.677C125.901 380.664 124.781 381.544 124.781 382.904C124.781 384.264 125.869 385.176 127.517 385.176C128.589 385.176 129.453 384.808 130.029 384.12V385H131.597V380.248ZM129.901 382.024C129.901 383.096 129.005 383.88 127.869 383.88C127.053 383.88 126.493 383.496 126.493 382.84C126.493 382.2 126.989 381.88 127.885 381.88H129.901V382.024ZM140.799 380.088C140.799 378.216 139.695 376.968 137.855 376.968C136.879 376.968 136.095 377.288 135.503 377.912V377.144H133.935V385H135.615V380.312C135.615 379.24 136.367 378.488 137.407 378.488C138.431 378.488 139.119 379.224 139.119 380.312V385H140.799V380.088ZM142.402 383.656C143.106 384.568 144.226 385.176 145.57 385.176C146.402 385.176 147.09 384.968 147.65 384.552C148.21 384.12 148.482 383.528 148.482 382.776C148.482 381.672 147.826 381.032 146.338 380.408L145.586 380.104C144.818 379.784 144.546 379.576 144.546 379.176C144.546 378.68 144.962 378.424 145.618 378.424C146.306 378.424 146.962 378.712 147.458 379.224L148.37 378.184C147.682 377.368 146.786 376.968 145.65 376.968C144.05 376.968 142.882 377.832 142.882 379.24C142.882 380.344 143.538 380.952 144.93 381.528L145.73 381.864C146.498 382.184 146.834 382.376 146.834 382.84C146.834 383.416 146.29 383.72 145.57 383.72C144.738 383.72 144.05 383.32 143.362 382.6L142.402 383.656ZM149.987 380.632H153.923V379.208H149.987V380.632ZM155.183 383.656C155.887 384.568 157.007 385.176 158.351 385.176C159.183 385.176 159.871 384.968 160.431 384.552C160.991 384.12 161.263 383.528 161.263 382.776C161.263 381.672 160.607 381.032 159.119 380.408L158.367 380.104C157.599 379.784 157.327 379.576 157.327 379.176C157.327 378.68 157.743 378.424 158.399 378.424C159.087 378.424 159.743 378.712 160.239 379.224L161.151 378.184C160.463 377.368 159.567 376.968 158.431 376.968C156.831 376.968 155.663 377.832 155.663 379.24C155.663 380.344 156.319 380.952 157.711 381.528L158.511 381.864C159.279 382.184 159.615 382.376 159.615 382.84C159.615 383.416 159.071 383.72 158.351 383.72C157.519 383.72 156.831 383.32 156.143 382.6L155.183 383.656ZM170.272 381.624C170.352 381.256 170.4 380.904 170.4 380.568C170.4 378.52 168.848 376.968 166.768 376.968C164.544 376.92 162.656 378.824 162.704 381.08C162.704 383.4 164.528 385.176 166.928 385.176C168.128 385.176 169.168 384.76 170.064 383.912L169.264 382.76C168.56 383.384 167.792 383.688 166.976 383.688C165.632 383.688 164.624 382.904 164.416 381.624H170.272ZM164.448 380.312C164.704 379.144 165.6 378.392 166.704 378.392C167.808 378.392 168.704 379.112 168.72 380.312H164.448ZM176.821 377.144C176.629 377.096 176.421 377.064 176.181 377.064C175.285 377.064 174.453 377.464 173.893 378.168V377.144H172.325V385H174.005V380.808C174.005 379.416 174.981 378.632 176.309 378.632H176.821V377.144ZM178.325 385H180.005V377.144H178.325V385ZM178.021 374.216C178.021 374.84 178.533 375.32 179.173 375.32C179.797 375.32 180.309 374.84 180.309 374.216C180.309 373.592 179.797 373.096 179.173 373.096C178.533 373.096 178.021 373.592 178.021 374.216ZM184.403 375.704C184.403 374.696 184.915 374.344 185.939 374.344C186.131 374.344 186.355 374.36 186.611 374.392V372.968C186.307 372.872 185.955 372.824 185.523 372.824C183.795 372.824 182.723 373.72 182.723 375.56V377.144H181.603V378.6H182.723V385H184.403V378.6H186.259V377.144H184.403V375.704Z" fill="white"/>
<path d="M126.865 158.152H127.213V157.782L126.843 157.805L126.865 158.152ZM91.9208 145.146L91.7053 144.873L91.4352 145.085L91.6445 145.358L91.9208 145.146ZM102.028 124.305L101.68 124.3V124.305H102.028ZM74.4488 97.5098L74.4415 97.8579L74.4488 97.8581L74.4562 97.8579L74.4488 97.5098ZM47.0265 124.305L47.3749 124.311L47.3747 124.3L47.0265 124.305ZM74.4488 151.101V150.753L74.4415 150.753L74.4488 151.101ZM83.1456 149.769L83.4303 149.568L83.285 149.362L83.0439 149.436L83.1456 149.769ZM126.865 166.457L126.951 166.795L127.213 166.727V166.457H126.865ZM126.843 157.805C123.084 158.04 120.664 158.117 119.656 158.117V158.814C120.686 158.814 123.123 158.735 126.886 158.5L126.843 157.805ZM119.656 158.117C113.586 158.117 108.45 157.067 103.972 154.901C99.4946 152.735 95.6567 149.444 92.197 144.934L91.6445 145.358C95.1579 149.937 99.0766 153.306 103.668 155.528C108.26 157.749 113.504 158.814 119.656 158.814V158.117ZM92.1362 145.42C98.4855 140.42 102.376 132.877 102.376 124.305H101.68C101.68 132.657 97.892 140.001 91.7053 144.873L92.1362 145.42ZM102.376 124.311C102.614 109.295 89.515 96.8443 74.4415 97.1616L74.4562 97.8579C89.1554 97.5485 101.911 109.699 101.68 124.3L102.376 124.311ZM74.4562 97.1616C59.38 96.8443 46.44 109.298 46.6783 124.311L47.3747 124.3C47.1429 109.697 59.7448 97.5485 74.4415 97.8579L74.4562 97.1616ZM46.6783 124.3C46.44 139.313 59.38 151.766 74.4562 151.449L74.4415 150.753C59.7448 151.062 47.1429 138.914 47.3747 124.311L46.6783 124.3ZM74.4488 151.449C77.4633 151.449 80.3965 150.973 83.2474 150.102L83.0439 149.436C80.2536 150.288 77.3889 150.753 74.4488 150.753V151.449ZM82.861 149.969C91.1553 161.74 103.486 167.824 117.619 167.824V167.128C103.704 167.128 91.5893 161.146 83.4303 149.568L82.861 149.969ZM117.619 167.824C121.087 167.824 124.173 167.509 126.951 166.795L126.778 166.12C124.072 166.816 121.047 167.128 117.619 167.128V167.824ZM127.213 166.457V158.152H126.516V166.457H127.213ZM74.5272 140.959C65.1662 140.959 58.2653 134.069 58.2653 124.305H57.5689C57.5689 134.443 64.7709 141.655 74.5272 141.655V140.959ZM58.2653 124.305C58.2653 114.542 65.1662 107.652 74.5272 107.652V106.955C64.7709 106.955 57.5689 114.168 57.5689 124.305H58.2653ZM74.5272 107.652C83.8087 107.652 90.789 114.697 90.789 124.305H91.4855C91.4855 114.326 84.2062 106.955 74.5272 106.955V107.652ZM90.789 124.305C90.789 134.068 83.8109 140.959 74.5272 140.959V141.655C84.2041 141.655 91.4855 134.444 91.4855 124.305H90.789ZM152.04 98.45H152.388V98.1018H152.04V98.45ZM141.463 98.45V98.1018H141.115V98.45H141.463ZM118.741 98.45H119.09V98.1018H118.741V98.45ZM108.164 98.45V98.1018H107.816V98.45H108.164ZM107.816 128.771C107.816 135.708 110.156 141.383 114.128 145.325C118.099 149.266 123.676 151.449 130.102 151.449V150.753C123.836 150.753 118.443 148.626 114.619 144.831C110.795 141.035 108.512 135.546 108.512 128.771H107.816ZM130.102 151.449C136.451 151.449 142.027 149.265 146.017 145.325C150.008 141.384 152.388 135.709 152.388 128.771H151.692C151.692 135.544 149.371 141.034 145.527 144.83C141.682 148.627 136.289 150.753 130.102 150.753V151.449ZM152.388 128.771V98.45H151.692V128.771H152.388ZM152.04 98.1018H141.463V98.7982H152.04V98.1018ZM141.115 98.45V129.555H141.811V98.45H141.115ZM141.115 129.555C141.115 133.245 140.001 136.087 138.092 138.006C136.182 139.925 133.438 140.959 130.102 140.959V141.655C133.583 141.655 136.519 140.574 138.585 138.497C140.652 136.42 141.811 133.386 141.811 129.555H141.115ZM130.102 140.959C126.846 140.959 124.101 139.926 122.17 138.005C120.24 136.084 119.09 133.241 119.09 129.555H118.393C118.393 133.39 119.593 136.423 121.679 138.498C123.763 140.573 126.698 141.655 130.102 141.655V140.959ZM119.09 129.555V98.45H118.393V129.555H119.09ZM118.741 98.1018H108.164V98.7982H118.741V98.1018ZM107.816 98.45V128.771H108.512V98.45H107.816ZM192.531 150.161L192.211 150.298L192.302 150.509H192.531V150.161ZM203.892 150.161V150.509H204.424L204.211 150.021L203.892 150.161ZM180.857 97.5098L181.176 97.3702L181.085 97.1616H180.857V97.5098ZM177.331 97.5098V97.1616H177.104L177.013 97.3698L177.331 97.5098ZM154.218 150.161L153.9 150.021L153.685 150.509H154.218V150.161ZM165.579 150.161V150.509H165.808L165.899 150.298L165.579 150.161ZM168.478 143.423V143.074H168.249L168.158 143.285L168.478 143.423ZM189.632 143.423L189.952 143.285L189.862 143.074H189.632V143.423ZM185.95 134.726V135.074H186.462L186.274 134.598L185.95 134.726ZM172.16 134.726L171.837 134.598L171.649 135.074H172.16V134.726ZM179.055 117.254L179.379 117.126L179.055 116.305L178.731 117.126L179.055 117.254ZM192.531 150.509H203.892V149.812H192.531V150.509ZM204.211 150.021L181.176 97.3702L180.538 97.6494L203.573 150.3L204.211 150.021ZM180.857 97.1616H177.331V97.858H180.857V97.1616ZM177.013 97.3698L153.9 150.021L154.537 150.301L177.65 97.6498L177.013 97.3698ZM154.218 150.509H165.579V149.812H154.218V150.509ZM165.899 150.298L168.798 143.56L168.158 143.285L165.259 150.023L165.899 150.298ZM168.478 143.771H189.632V143.074H168.478V143.771ZM189.312 143.56L192.211 150.298L192.851 150.023L189.952 143.285L189.312 143.56ZM185.95 134.378H172.16V135.074H185.95V134.378ZM172.484 134.854L179.379 117.382L178.731 117.126L171.837 134.598L172.484 134.854ZM178.731 117.382L185.626 134.854L186.274 134.598L179.379 117.126L178.731 117.382ZM242.059 98.45V98.1018H241.71V98.45H242.059ZM242.059 129.32L241.805 129.559L242.407 130.196V129.32H242.059ZM212.051 97.5098L212.304 97.2708L212.201 97.1616H212.051V97.5098ZM208.603 97.5098V97.1616H208.255V97.5098H208.603ZM208.603 150.161H208.255V150.509H208.603V150.161ZM219.181 150.161V150.509H219.529V150.161H219.181ZM219.181 119.134L219.435 118.896L218.832 118.253V119.134H219.181ZM249.11 151.101L248.856 151.339L248.959 151.449H249.11V151.101ZM252.636 151.101V151.449H252.984V151.101H252.636ZM252.636 98.45H252.984V98.1018H252.636V98.45ZM241.71 98.45V129.32H242.407V98.45H241.71ZM242.312 129.081L212.304 97.2708L211.797 97.7487L241.805 129.559L242.312 129.081ZM212.051 97.1616H208.603V97.858H212.051V97.1616ZM208.255 97.5098V150.161H208.952V97.5098H208.255ZM208.603 150.509H219.181V149.812H208.603V150.509ZM219.529 150.161V119.134H218.832V150.161H219.529ZM218.926 119.372L248.856 151.339L249.364 150.863L219.435 118.896L218.926 119.372ZM249.11 151.449H252.636V150.753H249.11V151.449ZM252.984 151.101V98.45H252.288V151.101H252.984ZM252.636 98.1018H242.059V98.7982H252.636V98.1018ZM273.782 150.161H273.433V150.509H273.782V150.161ZM284.359 150.161V150.509H284.707V150.161H284.359ZM284.359 108.009V107.66H284.01V108.009H284.359ZM300.969 108.009V108.357H301.317V108.009H300.969ZM300.969 98.45H301.317V98.1018H300.969V98.45ZM257.25 98.45V98.1018H256.902V98.45H257.25ZM257.25 108.009H256.902V108.357H257.25V108.009ZM273.782 108.009H274.13V107.66H273.782V108.009ZM273.782 150.509H284.359V149.812H273.782V150.509ZM284.707 150.161V108.009H284.01V150.161H284.707ZM284.359 108.357H300.969V107.66H284.359V108.357ZM301.317 108.009V98.45H300.621V108.009H301.317ZM300.969 98.1018H257.25V98.7982H300.969V98.1018ZM256.902 98.45V108.009H257.598V98.45H256.902ZM257.25 108.357H273.782V107.66H257.25V108.357ZM273.433 108.009V150.161H274.13V108.009H273.433ZM348.994 98.45H349.342V98.1018H348.994V98.45ZM338.417 98.45V98.1018H338.069V98.45H338.417ZM315.695 98.45H316.044V98.1018H315.695V98.45ZM305.118 98.45V98.1018H304.77V98.45H305.118ZM304.77 128.771C304.77 135.708 307.11 141.383 311.082 145.325C315.053 149.266 320.63 151.449 327.056 151.449V150.753C320.79 150.753 315.397 148.626 311.573 144.831C307.749 141.035 305.466 135.546 305.466 128.771H304.77ZM327.056 151.449C333.405 151.449 338.981 149.265 342.971 145.325C346.962 141.384 349.342 135.709 349.342 128.771H348.646C348.646 135.544 346.325 141.034 342.481 144.83C338.636 148.627 333.243 150.753 327.056 150.753V151.449ZM349.342 128.771V98.45H348.646V128.771H349.342ZM348.994 98.1018H338.417V98.7982H348.994V98.1018ZM338.069 98.45V129.555H338.765V98.45H338.069ZM338.069 129.555C338.069 133.245 336.955 136.087 335.046 138.006C333.136 139.925 330.392 140.959 327.056 140.959V141.655C330.537 141.655 333.473 140.574 335.539 138.497C337.606 136.42 338.765 133.386 338.765 129.555H338.069ZM327.056 140.959C323.8 140.959 321.055 139.926 319.124 138.005C317.194 136.084 316.044 133.241 316.044 129.555H315.347C315.347 133.39 316.547 136.423 318.633 138.498C320.717 140.573 323.652 141.655 327.056 141.655V140.959ZM316.044 129.555V98.45H315.347V129.555H316.044ZM315.695 98.1018H305.118V98.7982H315.695V98.1018ZM304.77 98.45V128.771H305.466V98.45H304.77ZM405.264 97.5098V97.1616H405.094L404.99 97.2954L405.264 97.5098ZM383.405 125.481L383.13 125.695L383.405 126.046L383.679 125.695L383.405 125.481ZM361.545 97.5098L361.82 97.2954L361.715 97.1616H361.545V97.5098ZM358.098 97.5098V97.1616H357.75V97.5098H358.098ZM358.098 150.161H357.75V150.509H358.098V150.161ZM368.675 150.161V150.509H369.023V150.161H368.675ZM368.675 122.582L368.947 122.364L368.327 121.587V122.582H368.675ZM381.681 138.878L381.409 139.096L381.513 139.227H381.681V138.878ZM385.128 138.878V139.227H385.296L385.401 139.096L385.128 138.878ZM398.134 122.582H398.483V121.587L397.862 122.364L398.134 122.582ZM398.134 150.161H397.786V150.509H398.134V150.161ZM408.712 150.161V150.509H409.06V150.161H408.712ZM408.712 97.5098H409.06V97.1616H408.712V97.5098ZM404.99 97.2954L383.13 125.266L383.679 125.695L405.539 97.7242L404.99 97.2954ZM383.679 125.266L361.82 97.2954L361.271 97.7242L383.13 125.695L383.679 125.266ZM361.545 97.1616H358.098V97.858H361.545V97.1616ZM357.75 97.5098V150.161H358.446V97.5098H357.75ZM358.098 150.509H368.675V149.812H358.098V150.509ZM369.023 150.161V122.582H368.327V150.161H369.023ZM368.403 122.799L381.409 139.096L381.953 138.661L368.947 122.364L368.403 122.799ZM381.681 139.227H385.128V138.53H381.681V139.227ZM385.401 139.096L398.407 122.799L397.862 122.364L384.856 138.661L385.401 139.096ZM397.786 122.582V150.161H398.483V122.582H397.786ZM398.134 150.509H408.712V149.812H398.134V150.509ZM409.06 150.161V97.5098H408.363V150.161H409.06ZM408.712 97.1616H405.264V97.858H408.712V97.1616Z" fill="white"/>
<path d="M121.815 158.152H121.99V157.967L121.805 157.979L121.815 158.152ZM86.8715 145.146L86.7638 145.009L86.6287 145.116L86.7334 145.252L86.8715 145.146ZM96.9786 124.305L96.8045 124.303V124.305H96.9786ZM69.3996 97.5098L69.3959 97.684L69.4033 97.6839L69.3996 97.5098ZM41.9773 124.305L42.1515 124.308L42.1514 124.303L41.9773 124.305ZM69.3996 151.101V150.927L69.3959 150.927L69.3996 151.101ZM78.0964 149.769L78.2387 149.669L78.1661 149.566L78.0455 149.602L78.0964 149.769ZM121.815 166.457L121.859 166.626L121.99 166.592V166.457H121.815ZM121.805 157.979C118.045 158.214 115.62 158.292 114.607 158.292V158.64C115.631 158.64 118.064 158.561 121.826 158.326L121.805 157.979ZM114.607 158.292C108.516 158.292 103.353 157.238 98.8467 155.057C94.3409 152.878 90.4828 149.567 87.0097 145.04L86.7334 145.252C90.2334 149.814 94.1319 153.163 98.695 155.371C103.258 157.578 108.476 158.64 114.607 158.64V158.292ZM86.9793 145.283C93.2879 140.315 97.1527 132.822 97.1527 124.305H96.8045C96.8045 132.712 92.9911 140.105 86.7638 145.009L86.9793 145.283ZM97.1527 124.308C97.3894 109.396 84.3759 97.0204 69.3959 97.3357L69.4033 97.6839C84.1961 97.3724 97.0379 109.598 96.8045 124.303L97.1527 124.308ZM69.4033 97.3357C54.422 97.0203 41.5665 109.398 41.8032 124.308L42.1514 124.303C41.9179 109.597 54.6044 97.3725 69.3959 97.6839L69.4033 97.3357ZM41.8032 124.303C41.5665 139.213 54.422 151.59 69.4033 151.275L69.3959 150.927C54.6044 151.238 41.9179 139.014 42.1514 124.308L41.8032 124.303ZM69.3996 151.275C72.3955 151.275 75.3116 150.802 78.1473 149.935L78.0455 149.602C75.2401 150.46 72.3583 150.927 69.3996 150.927V151.275ZM77.9541 149.869C86.2146 161.591 98.4911 167.65 112.57 167.65V167.302C98.6001 167.302 86.4316 161.295 78.2387 149.669L77.9541 149.869ZM112.57 167.65C116.028 167.65 119.099 167.336 121.859 166.626L121.772 166.289C119.048 166.989 116.007 167.302 112.57 167.302V167.65ZM121.99 166.457V158.152H121.641V166.457H121.99ZM69.4779 141.133C60.0182 141.133 53.042 134.162 53.042 124.305H52.6937C52.6937 134.349 59.8205 141.481 69.4779 141.481V141.133ZM53.042 124.305C53.042 114.448 60.0182 107.478 69.4779 107.478V107.129C59.8205 107.129 52.6937 114.261 52.6937 124.305H53.042ZM69.4779 107.478C78.8589 107.478 85.9139 114.605 85.9139 124.305H86.2621C86.2621 114.419 79.0576 107.129 69.4779 107.129V107.478ZM85.9139 124.305C85.9139 134.162 78.8599 141.133 69.4779 141.133V141.481C79.0565 141.481 86.2621 134.35 86.2621 124.305H85.9139ZM146.991 98.45H147.165V98.2759H146.991V98.45ZM136.414 98.45V98.2759H136.239V98.45H136.414ZM113.692 98.45H113.866V98.2759H113.692V98.45ZM103.115 98.45V98.2759H102.941V98.45H103.115ZM102.941 128.771C102.941 135.667 105.267 141.296 109.202 145.201C113.136 149.106 118.666 151.275 125.053 151.275V150.927C118.747 150.927 113.308 148.786 109.447 144.954C105.586 141.122 103.289 135.586 103.289 128.771H102.941ZM125.053 151.275C131.361 151.275 136.891 149.106 140.845 145.202C144.799 141.297 147.165 135.668 147.165 128.771H146.817C146.817 135.586 144.481 141.122 140.6 144.954C136.719 148.787 131.28 150.927 125.053 150.927V151.275ZM147.165 128.771V98.45H146.817V128.771H147.165ZM146.991 98.2759H136.414V98.6241H146.991V98.2759ZM136.239 98.45V129.555H136.588V98.45H136.239ZM136.239 129.555C136.239 133.28 135.115 136.17 133.166 138.129C131.217 140.087 128.425 141.133 125.053 141.133V141.481C128.497 141.481 131.385 140.412 133.413 138.374C135.44 136.337 136.588 133.351 136.588 129.555H136.239ZM125.053 141.133C121.76 141.133 118.967 140.088 116.998 138.128C115.029 136.169 113.866 133.278 113.866 129.555H113.518C113.518 133.353 114.706 136.338 116.752 138.375C118.798 140.411 121.686 141.481 125.053 141.481V141.133ZM113.866 129.555V98.45H113.518V129.555H113.866ZM113.692 98.2759H103.115V98.6241H113.692V98.2759ZM102.941 98.45V128.771H103.289V98.45H102.941ZM187.482 150.161L187.322 150.229L187.367 150.335H187.482V150.161ZM198.843 150.161V150.335H199.109L199.002 150.091L198.843 150.161ZM175.808 97.5098L175.967 97.44L175.922 97.3357H175.808V97.5098ZM172.282 97.5098V97.3357H172.169L172.123 97.4398L172.282 97.5098ZM149.169 150.161L149.01 150.091L148.903 150.335H149.169V150.161ZM160.53 150.161V150.335H160.644L160.69 150.229L160.53 150.161ZM163.429 143.423V143.248H163.314L163.269 143.354L163.429 143.423ZM184.583 143.423L184.743 143.354L184.698 143.248H184.583V143.423ZM180.901 134.726V134.9H181.157L181.063 134.662L180.901 134.726ZM167.111 134.726L166.949 134.662L166.855 134.9H167.111V134.726ZM174.006 117.254L174.168 117.19L174.006 116.78L173.844 117.19L174.006 117.254ZM187.482 150.335H198.843V149.987H187.482V150.335ZM199.002 150.091L175.967 97.44L175.648 97.5796L198.683 150.23L199.002 150.091ZM175.808 97.3357H172.282V97.6839H175.808V97.3357ZM172.123 97.4398L149.01 150.091L149.329 150.231L172.442 97.5798L172.123 97.4398ZM149.169 150.335H160.53V149.987H149.169V150.335ZM160.69 150.229L163.589 143.491L163.269 143.354L160.37 150.092L160.69 150.229ZM163.429 143.597H184.583V143.248H163.429V143.597ZM184.423 143.491L187.322 150.229L187.642 150.092L184.743 143.354L184.423 143.491ZM180.901 134.552H167.111V134.9H180.901V134.552ZM167.273 134.79L174.168 117.318L173.844 117.19L166.949 134.662L167.273 134.79ZM173.844 117.318L180.739 134.79L181.063 134.662L174.168 117.19L173.844 117.318ZM237.009 98.45V98.2759H236.835V98.45H237.009ZM237.009 129.32L236.883 129.439L237.183 129.758V129.32H237.009ZM207.001 97.5098L207.128 97.3903L207.077 97.3357H207.001V97.5098ZM203.554 97.5098V97.3357H203.38V97.5098H203.554ZM203.554 150.161H203.38V150.335H203.554V150.161ZM214.131 150.161V150.335H214.305V150.161H214.131ZM214.131 119.134L214.258 119.015L213.957 118.694V119.134H214.131ZM244.061 151.101L243.934 151.22L243.985 151.275H244.061V151.101ZM247.587 151.101V151.275H247.761V151.101H247.587ZM247.587 98.45H247.761V98.2759H247.587V98.45ZM236.835 98.45V129.32H237.183V98.45H236.835ZM237.136 129.2L207.128 97.3903L206.875 97.6293L236.883 129.439L237.136 129.2ZM207.001 97.3357H203.554V97.6839H207.001V97.3357ZM203.38 97.5098V150.161H203.728V97.5098H203.38ZM203.554 150.335H214.131V149.987H203.554V150.335ZM214.305 150.161V119.134H213.957V150.161H214.305ZM214.004 119.253L243.934 151.22L244.188 150.982L214.258 119.015L214.004 119.253ZM244.061 151.275H247.587V150.927H244.061V151.275ZM247.761 151.101V98.45H247.412V151.101H247.761ZM247.587 98.2759H237.009V98.6241H247.587V98.2759ZM268.732 150.161H268.558V150.335H268.732V150.161ZM279.309 150.161V150.335H279.484V150.161H279.309ZM279.309 108.009V107.835H279.135V108.009H279.309ZM295.92 108.009V108.183H296.094V108.009H295.92ZM295.92 98.45H296.094V98.2759H295.92V98.45ZM252.201 98.45V98.2759H252.026V98.45H252.201ZM252.201 108.009H252.026V108.183H252.201V108.009ZM268.732 108.009H268.906V107.835H268.732V108.009ZM268.732 150.335H279.309V149.987H268.732V150.335ZM279.484 150.161V108.009H279.135V150.161H279.484ZM279.309 108.183H295.92V107.835H279.309V108.183ZM296.094 108.009V98.45H295.745V108.009H296.094ZM295.92 98.2759H252.201V98.6241H295.92V98.2759ZM252.026 98.45V108.009H252.375V98.45H252.026ZM252.201 108.183H268.732V107.835H252.201V108.183ZM268.558 108.009V150.161H268.906V108.009H268.558ZM343.945 98.45H344.119V98.2759H343.945V98.45ZM333.368 98.45V98.2759H333.193V98.45H333.368ZM310.646 98.45H310.82V98.2759H310.646V98.45ZM300.069 98.45V98.2759H299.895V98.45H300.069ZM299.895 128.771C299.895 135.667 302.221 141.296 306.156 145.201C310.09 149.106 315.621 151.275 322.007 151.275V150.927C315.701 150.927 310.262 148.786 306.401 144.954C302.54 141.122 300.243 135.586 300.243 128.771H299.895ZM322.007 151.275C328.315 151.275 333.845 149.106 337.799 145.202C341.753 141.297 344.119 135.668 344.119 128.771H343.771C343.771 135.586 341.435 141.122 337.554 144.954C333.673 148.787 328.234 150.927 322.007 150.927V151.275ZM344.119 128.771V98.45H343.771V128.771H344.119ZM343.945 98.2759H333.368V98.6241H343.945V98.2759ZM333.193 98.45V129.555H333.542V98.45H333.193ZM333.193 129.555C333.193 133.28 332.069 136.17 330.12 138.129C328.171 140.087 325.379 141.133 322.007 141.133V141.481C325.451 141.481 328.34 140.412 330.367 138.374C332.394 136.337 333.542 133.351 333.542 129.555H333.193ZM322.007 141.133C318.714 141.133 315.921 140.088 313.952 138.128C311.983 136.169 310.82 133.278 310.82 129.555H310.472C310.472 133.353 311.66 136.338 313.706 138.375C315.753 140.411 318.64 141.481 322.007 141.481V141.133ZM310.82 129.555V98.45H310.472V129.555H310.82ZM310.646 98.2759H300.069V98.6241H310.646V98.2759ZM299.895 98.45V128.771H300.243V98.45H299.895ZM400.215 97.5098V97.3357H400.13L400.078 97.4026L400.215 97.5098ZM378.355 125.481L378.218 125.588L378.355 125.763L378.493 125.588L378.355 125.481ZM356.496 97.5098L356.633 97.4026L356.581 97.3357H356.496V97.5098ZM353.049 97.5098V97.3357H352.874V97.5098H353.049ZM353.049 150.161H352.874V150.335H353.049V150.161ZM363.626 150.161V150.335H363.8V150.161H363.626ZM363.626 122.582L363.762 122.473L363.452 122.084V122.582H363.626ZM376.632 138.878L376.496 138.987L376.548 139.052H376.632V138.878ZM380.079 138.878V139.052H380.163L380.215 138.987L380.079 138.878ZM393.085 122.582H393.259V122.084L392.949 122.473L393.085 122.582ZM393.085 150.161H392.911V150.335H393.085V150.161ZM403.662 150.161V150.335H403.836V150.161H403.662ZM403.662 97.5098H403.836V97.3357H403.662V97.5098ZM400.078 97.4026L378.218 125.373L378.493 125.588L400.352 97.617L400.078 97.4026ZM378.493 125.373L356.633 97.4026L356.359 97.617L378.218 125.588L378.493 125.373ZM356.496 97.3357H353.049V97.6839H356.496V97.3357ZM352.874 97.5098V150.161H353.223V97.5098H352.874ZM353.049 150.335H363.626V149.987H353.049V150.335ZM363.8 150.161V122.582H363.452V150.161H363.8ZM363.49 122.69L376.496 138.987L376.768 138.77L363.762 122.473L363.49 122.69ZM376.632 139.052H380.079V138.704H376.632V139.052ZM380.215 138.987L393.221 122.69L392.949 122.473L379.943 138.77L380.215 138.987ZM392.911 122.582V150.161H393.259V122.582H392.911ZM393.085 150.335H403.662V149.987H393.085V150.335ZM403.836 150.161V97.5098H403.488V150.161H403.836ZM403.662 97.3357H400.215V97.6839H403.662V97.3357Z" fill="white"/>
<path d="M131.217 158.152C127.457 158.387 125.028 158.466 124.009 158.466C111.787 158.466 103.247 154.235 96.2735 145.146C102.542 140.21 106.381 132.767 106.381 124.305C106.616 109.497 93.688 97.1964 78.8016 97.5098C63.9152 97.1964 51.1442 109.497 51.3793 124.305C51.1442 139.113 63.9152 151.414 78.8016 151.101C81.7789 151.101 84.6778 150.631 87.4984 149.769C95.7251 161.443 107.948 167.476 121.972 167.476C125.42 167.476 128.475 167.162 131.217 166.457V158.152ZM78.88 141.307C69.3213 141.307 62.2699 134.256 62.2699 124.305C62.2699 114.355 69.3213 107.303 78.88 107.303C88.3602 107.303 95.49 114.512 95.49 124.305C95.49 134.256 88.3602 141.307 78.88 141.307ZM112.517 128.771C112.517 142.482 121.762 151.101 134.455 151.101C146.991 151.101 156.393 142.482 156.393 128.771V98.45H145.816V129.555C145.816 137.076 141.271 141.307 134.455 141.307C127.795 141.307 123.094 137.076 123.094 129.555V98.45H112.517V128.771ZM196.884 150.161H208.245L185.21 97.5098H181.684L158.571 150.161H169.932L172.831 143.423H193.985L196.884 150.161ZM190.303 134.726H176.513L183.408 117.254L190.303 134.726ZM246.411 98.45V129.32L216.403 97.5098H212.956V150.161H223.533V119.134L253.463 151.101H256.989V98.45H246.411ZM278.134 150.161H288.711V108.009H305.322V98.45H261.603V108.009H278.134V150.161ZM309.471 128.771C309.471 142.482 318.716 151.101 331.409 151.101C343.945 151.101 353.347 142.482 353.347 128.771V98.45H342.77V129.555C342.77 137.076 338.225 141.307 331.409 141.307C324.749 141.307 320.048 137.076 320.048 129.555V98.45H309.471V128.771ZM409.617 97.5098L387.757 125.481L365.898 97.5098H362.451V150.161H373.028V122.582L386.034 138.878H389.481L402.487 122.582V150.161H413.064V97.5098H409.617Z" fill="white"/>
<path d="M108.639 180.176L95.7898 211.515L82.8622 180.176H70.8747L93.9878 232.826H97.5135L120.548 180.176H108.639ZM120.752 206.031C120.517 220.839 133.288 233.14 148.174 232.826C163.061 233.14 175.988 220.839 175.753 206.031C175.988 191.223 163.061 178.922 148.174 179.235C133.288 178.922 120.517 191.223 120.752 206.031ZM164.863 206.031C164.863 215.981 157.733 223.033 148.253 223.033C138.694 223.033 131.643 215.981 131.643 206.031C131.643 196.081 138.694 189.029 148.253 189.029C157.733 189.029 164.863 196.237 164.863 206.031ZM193.039 231.886H203.616V189.734H220.227V180.176H176.508V189.734H193.039V231.886ZM224.846 231.886H235.423V180.176H224.846V231.886ZM278.369 180.176V211.045L248.361 179.235H244.914V231.886H255.491V200.86L285.421 232.826H288.946V180.176H278.369ZM295.441 206.031C295.206 220.839 307.898 233.14 323.098 232.826C328.504 232.826 333.362 231.573 337.671 228.987C342.059 226.402 345.428 222.954 347.778 218.802V203.524H322.941V212.691H337.201V216.921C334.302 220.917 329.523 223.346 323.568 223.346C313.305 223.346 306.331 216.06 306.331 206.031C306.331 196.159 313.069 189.029 322.941 189.029C328.896 189.029 333.675 191.536 337.358 196.629L344.879 190.439C339.865 183.31 332.187 179.235 323.098 179.235C307.82 179 295.127 191.144 295.441 206.031Z" fill="#790BF9"/>
</g>
<defs>
<clipPath id="clip0_52_4656">
<rect width="328" height="420" rx="50" fill="white"/>
</clipPath>
</defs>
</svg>
