<svg width="328" height="485" viewBox="0 0 328 485" fill="none" xmlns="http://www.w3.org/2000/svg">
<rect width="164" height="161.667" fill="#D3D7DF"/>
<path d="M20.354 31.14C19.598 31.14 18.8653 31.0327 18.156 30.818C17.456 30.6033 16.9007 30.3187 16.49 29.964L17.12 28.55C17.5213 28.8673 18.0113 29.1287 18.59 29.334C19.178 29.53 19.766 29.628 20.354 29.628C21.082 29.628 21.6233 29.5113 21.978 29.278C22.342 29.0447 22.524 28.7367 22.524 28.354C22.524 28.074 22.4213 27.8453 22.216 27.668C22.02 27.4813 21.768 27.3367 21.46 27.234C21.152 27.1313 20.732 27.0147 20.2 26.884C19.4533 26.7067 18.8467 26.5293 18.38 26.352C17.9227 26.1747 17.526 25.8993 17.19 25.526C16.8633 25.1433 16.7 24.63 16.7 23.986C16.7 23.4447 16.8447 22.9547 17.134 22.516C17.4327 22.068 17.876 21.7133 18.464 21.452C19.0613 21.1907 19.7893 21.06 20.648 21.06C21.2453 21.06 21.8333 21.1347 22.412 21.284C22.9907 21.4333 23.49 21.648 23.91 21.928L23.336 23.342C22.9067 23.09 22.4587 22.8987 21.992 22.768C21.5253 22.6373 21.0727 22.572 20.634 22.572C19.9153 22.572 19.3787 22.6933 19.024 22.936C18.6787 23.1787 18.506 23.5007 18.506 23.902C18.506 24.182 18.604 24.4107 18.8 24.588C19.0053 24.7653 19.262 24.9053 19.57 25.008C19.878 25.1107 20.298 25.2273 20.83 25.358C21.558 25.526 22.1553 25.7033 22.622 25.89C23.0887 26.0673 23.4853 26.3427 23.812 26.716C24.148 27.0893 24.316 27.5933 24.316 28.228C24.316 28.7693 24.1667 29.2593 23.868 29.698C23.5787 30.1367 23.1353 30.4867 22.538 30.748C21.9407 31.0093 21.2127 31.14 20.354 31.14ZM35.1227 31L35.1087 24.504L31.8887 29.88H31.0767L27.8567 24.588V31H26.1207V21.2H27.6187L31.5107 27.696L35.3327 21.2H36.8307L36.8447 31H35.1227ZM44.0698 31.14C43.0711 31.14 42.1704 30.9253 41.3678 30.496C40.5651 30.0573 39.9351 29.4553 39.4778 28.69C39.0204 27.9153 38.7918 27.052 38.7918 26.1C38.7918 25.148 39.0204 24.2893 39.4778 23.524C39.9351 22.7493 40.5651 22.1473 41.3678 21.718C42.1704 21.2793 43.0711 21.06 44.0698 21.06C45.0684 21.06 45.9691 21.2793 46.7718 21.718C47.5744 22.1473 48.2044 22.7447 48.6618 23.51C49.1191 24.2753 49.3478 25.1387 49.3478 26.1C49.3478 27.0613 49.1191 27.9247 48.6618 28.69C48.2044 29.4553 47.5744 30.0573 46.7718 30.496C45.9691 30.9253 45.0684 31.14 44.0698 31.14ZM44.0698 29.544C44.7231 29.544 45.3111 29.3993 45.8338 29.11C46.3564 28.8113 46.7671 28.4007 47.0658 27.878C47.3644 27.346 47.5138 26.7533 47.5138 26.1C47.5138 25.4467 47.3644 24.8587 47.0658 24.336C46.7671 23.804 46.3564 23.3933 45.8338 23.104C45.3111 22.8053 44.7231 22.656 44.0698 22.656C43.4164 22.656 42.8284 22.8053 42.3058 23.104C41.7831 23.3933 41.3724 23.804 41.0738 24.336C40.7751 24.8587 40.6258 25.4467 40.6258 26.1C40.6258 26.7533 40.7751 27.346 41.0738 27.878C41.3724 28.4007 41.7831 28.8113 42.3058 29.11C42.8284 29.3993 43.4164 29.544 44.0698 29.544ZM54.6509 26.898L53.0969 28.494V31H51.2769V21.2H53.0969V26.226L57.9409 21.2H59.9849L55.8689 25.582L60.2369 31H58.1089L54.6509 26.898ZM68.8262 29.474V31H61.4762V21.2H68.6302V22.726H63.2962V25.274H68.0282V26.772H63.2962V29.474H68.8262ZM81.4162 25.988H83.1382V29.894C82.6342 30.2953 82.0462 30.6033 81.3742 30.818C80.7022 31.0327 80.0115 31.14 79.3022 31.14C78.3035 31.14 77.4029 30.9253 76.6002 30.496C75.7975 30.0573 75.1675 29.4553 74.7102 28.69C74.2529 27.9247 74.0242 27.0613 74.0242 26.1C74.0242 25.1387 74.2529 24.2753 74.7102 23.51C75.1675 22.7447 75.7975 22.1473 76.6002 21.718C77.4122 21.2793 78.3222 21.06 79.3302 21.06C80.1515 21.06 80.8982 21.1953 81.5702 21.466C82.2422 21.7367 82.8069 22.1333 83.2642 22.656L82.1162 23.776C81.3695 23.0293 80.4689 22.656 79.4142 22.656C78.7235 22.656 78.1075 22.8007 77.5662 23.09C77.0342 23.3793 76.6142 23.7853 76.3062 24.308C76.0075 24.8307 75.8582 25.428 75.8582 26.1C75.8582 26.7533 76.0075 27.3413 76.3062 27.864C76.6142 28.3867 77.0342 28.7973 77.5662 29.096C78.1075 29.3947 78.7189 29.544 79.4002 29.544C80.1655 29.544 80.8375 29.376 81.4162 29.04V25.988ZM91.9507 31L89.9487 28.13C89.8647 28.1393 89.7387 28.144 89.5707 28.144H87.3587V31H85.5387V21.2H89.5707C90.42 21.2 91.1573 21.34 91.7827 21.62C92.4173 21.9 92.9027 22.3013 93.2387 22.824C93.5747 23.3467 93.7427 23.9673 93.7427 24.686C93.7427 25.4233 93.5607 26.058 93.1967 26.59C92.842 27.122 92.3287 27.5187 91.6567 27.78L93.9107 31H91.9507ZM91.9087 24.686C91.9087 24.0607 91.7033 23.58 91.2927 23.244C90.882 22.908 90.28 22.74 89.4867 22.74H87.3587V26.646H89.4867C90.28 26.646 90.882 26.478 91.2927 26.142C91.7033 25.7967 91.9087 25.3113 91.9087 24.686ZM102.135 28.732H97.2349L96.2689 31H94.3929L98.8029 21.2H100.595L105.019 31H103.115L102.135 28.732ZM101.533 27.304L99.6849 23.02L97.8509 27.304H101.533ZM109.905 27.542V31H108.085V27.57L104.235 21.2H106.181L109.051 25.974L111.949 21.2H113.741L109.905 27.542Z" fill="#333333"/>
<path d="M23.252 46.63L22.888 49.57H24.876V50.34H22.79L22.468 53H21.712L22.034 50.34H19.164L18.828 53H18.072L18.394 50.34H16.406V49.57H18.492L18.856 46.63H16.854V45.86H18.954L19.276 43.2H20.046L19.71 45.86H22.594L22.916 43.2H23.672L23.35 45.86H25.324V46.63H23.252ZM22.496 46.63H19.626L19.248 49.57H22.132L22.496 46.63ZM27.344 43.2H31.334C32.37 43.2 33.2847 43.41 34.078 43.83C34.8714 44.2407 35.4874 44.8193 35.926 45.566C36.3647 46.3033 36.584 47.148 36.584 48.1C36.584 49.052 36.3647 49.9013 35.926 50.648C35.4874 51.3853 34.8714 51.964 34.078 52.384C33.2847 52.7947 32.37 53 31.334 53H27.344V43.2ZM31.278 52.104C32.1367 52.104 32.888 51.936 33.532 51.6C34.176 51.2547 34.6754 50.7833 35.03 50.186C35.3847 49.5793 35.562 48.884 35.562 48.1C35.562 47.316 35.3847 46.6253 35.03 46.028C34.6754 45.4213 34.176 44.95 33.532 44.614C32.888 44.2687 32.1367 44.096 31.278 44.096H28.38V52.104H31.278ZM41.2241 47.4C42.2507 47.456 43.0301 47.736 43.5621 48.24C44.1034 48.7347 44.3741 49.3833 44.3741 50.186C44.3741 50.746 44.2387 51.2453 43.9681 51.684C43.6974 52.1133 43.2961 52.454 42.7641 52.706C42.2321 52.958 41.5834 53.084 40.8181 53.084C40.1087 53.084 39.4367 52.972 38.8021 52.748C38.1767 52.5147 37.6727 52.2067 37.2901 51.824L37.7801 51.026C38.1067 51.362 38.5407 51.6373 39.0821 51.852C39.6234 52.0573 40.2021 52.16 40.8181 52.16C41.6207 52.16 42.2414 51.9873 42.6801 51.642C43.1187 51.2873 43.3381 50.802 43.3381 50.186C43.3381 49.5793 43.1187 49.1033 42.6801 48.758C42.2414 48.4127 41.5787 48.24 40.6921 48.24H39.9921V47.498L42.7081 44.096H37.6961V43.2H43.9961V43.914L41.2241 47.4ZM46.6624 43.2H50.6524C51.6884 43.2 52.6031 43.41 53.3964 43.83C54.1897 44.2407 54.8057 44.8193 55.2444 45.566C55.6831 46.3033 55.9024 47.148 55.9024 48.1C55.9024 49.052 55.6831 49.9013 55.2444 50.648C54.8057 51.3853 54.1897 51.964 53.3964 52.384C52.6031 52.7947 51.6884 53 50.6524 53H46.6624V43.2ZM50.5964 52.104C51.4551 52.104 52.2064 51.936 52.8504 51.6C53.4944 51.2547 53.9937 50.7833 54.3484 50.186C54.7031 49.5793 54.8804 48.884 54.8804 48.1C54.8804 47.316 54.7031 46.6253 54.3484 46.028C53.9937 45.4213 53.4944 44.95 52.8504 44.614C52.2064 44.2687 51.4551 44.096 50.5964 44.096H47.6984V52.104H50.5964ZM64.2768 43.2V43.914L60.1748 53H59.0828L63.1148 44.096H58.0748V45.93H57.0808V43.2H64.2768ZM66.473 43.2H70.463C71.499 43.2 72.4136 43.41 73.207 43.83C74.0003 44.2407 74.6163 44.8193 75.055 45.566C75.4936 46.3033 75.713 47.148 75.713 48.1C75.713 49.052 75.4936 49.9013 75.055 50.648C74.6163 51.3853 74.0003 51.964 73.207 52.384C72.4136 52.7947 71.499 53 70.463 53H66.473V43.2ZM70.407 52.104C71.2656 52.104 72.017 51.936 72.661 51.6C73.305 51.2547 73.8043 50.7833 74.159 50.186C74.5136 49.5793 74.691 48.884 74.691 48.1C74.691 47.316 74.5136 46.6253 74.159 46.028C73.8043 45.4213 73.305 44.95 72.661 44.614C72.017 44.2687 71.2656 44.096 70.407 44.096H67.509V52.104H70.407ZM79.0754 44.096V47.946H84.1434V48.842H79.0754V53H78.0394V43.2H84.7594V44.096H79.0754Z" fill="#333333"/>
<rect width="164" height="161.667" transform="translate(0 161.667)" fill="#2A2A2C"/>
<path d="M24.008 187.655H25.73V191.561C25.226 191.962 24.638 192.27 23.966 192.485C23.294 192.699 22.6033 192.807 21.894 192.807C20.8953 192.807 19.9947 192.592 19.192 192.163C18.3893 191.724 17.7593 191.122 17.302 190.357C16.8447 189.591 16.616 188.728 16.616 187.767C16.616 186.805 16.8447 185.942 17.302 185.177C17.7593 184.411 18.3893 183.814 19.192 183.385C20.004 182.946 20.914 182.727 21.922 182.727C22.7433 182.727 23.49 182.862 24.162 183.133C24.834 183.403 25.3987 183.8 25.856 184.323L24.708 185.443C23.9613 184.696 23.0607 184.323 22.006 184.323C21.3153 184.323 20.6993 184.467 20.158 184.757C19.626 185.046 19.206 185.452 18.898 185.975C18.5993 186.497 18.45 187.095 18.45 187.767C18.45 188.42 18.5993 189.008 18.898 189.531C19.206 190.053 19.626 190.464 20.158 190.763C20.6993 191.061 21.3107 191.211 21.992 191.211C22.7573 191.211 23.4293 191.043 24.008 190.707V187.655ZM34.5425 192.667L32.5405 189.797C32.4565 189.806 32.3305 189.811 32.1625 189.811H29.9505V192.667H28.1305V182.867H32.1625C33.0118 182.867 33.7491 183.007 34.3745 183.287C35.0091 183.567 35.4945 183.968 35.8305 184.491C36.1665 185.013 36.3345 185.634 36.3345 186.353C36.3345 187.09 36.1525 187.725 35.7885 188.257C35.4338 188.789 34.9205 189.185 34.2485 189.447L36.5025 192.667H34.5425ZM34.5005 186.353C34.5005 185.727 34.2951 185.247 33.8845 184.911C33.4738 184.575 32.8718 184.407 32.0785 184.407H29.9505V188.313H32.0785C32.8718 188.313 33.4738 188.145 33.8845 187.809C34.2951 187.463 34.5005 186.978 34.5005 186.353ZM44.7267 190.399H39.8267L38.8607 192.667H36.9847L41.3947 182.867H43.1867L47.6107 192.667H45.7067L44.7267 190.399ZM44.1247 188.971L42.2767 184.687L40.4427 188.971H44.1247ZM52.889 182.867C53.7383 182.867 54.4757 183.007 55.101 183.287C55.7357 183.567 56.221 183.968 56.557 184.491C56.893 185.013 57.061 185.634 57.061 186.353C57.061 187.062 56.893 187.683 56.557 188.215C56.221 188.737 55.7357 189.139 55.101 189.419C54.4757 189.699 53.7383 189.839 52.889 189.839H50.677V192.667H48.857V182.867H52.889ZM52.805 188.299C53.5983 188.299 54.2003 188.131 54.611 187.795C55.0217 187.459 55.227 186.978 55.227 186.353C55.227 185.727 55.0217 185.247 54.611 184.911C54.2003 184.575 53.5983 184.407 52.805 184.407H50.677V188.299H52.805ZM67.5865 182.867V192.667H65.7665V188.467H60.6985V192.667H58.8785V182.867H60.6985V186.913H65.7665V182.867H67.5865ZM70.2125 182.867H72.0325V192.667H70.2125V182.867ZM76.6712 184.407H73.4232V182.867H81.7392V184.407H78.4912V192.667H76.6712V184.407ZM90.4551 191.141V192.667H83.1051V182.867H90.2591V184.393H84.9251V186.941H89.6571V188.439H84.9251V191.141H90.4551ZM103.297 187.571C103.838 187.748 104.268 188.047 104.585 188.467C104.902 188.877 105.061 189.391 105.061 190.007C105.061 190.856 104.734 191.514 104.081 191.981C103.428 192.438 102.476 192.667 101.225 192.667H96.3531V182.867H100.945C102.102 182.867 102.994 183.095 103.619 183.553C104.244 184.001 104.557 184.621 104.557 185.415C104.557 185.9 104.445 186.329 104.221 186.703C103.997 187.076 103.689 187.365 103.297 187.571ZM98.1731 184.295V186.997H100.749C101.384 186.997 101.869 186.885 102.205 186.661C102.55 186.427 102.723 186.091 102.723 185.653C102.723 185.205 102.55 184.869 102.205 184.645C101.869 184.411 101.384 184.295 100.749 184.295H98.1731ZM101.113 191.239C102.522 191.239 103.227 190.767 103.227 189.825C103.227 188.882 102.522 188.411 101.113 188.411H98.1731V191.239H101.113ZM107.004 182.867H108.824V191.127H113.948V192.667H107.004V182.867ZM121.809 190.399H116.909L115.943 192.667H114.067L118.477 182.867H120.269L124.693 192.667H122.789L121.809 190.399ZM121.207 188.971L119.359 184.687L117.525 188.971H121.207ZM130.338 192.807C129.349 192.807 128.453 192.592 127.65 192.163C126.857 191.724 126.232 191.122 125.774 190.357C125.326 189.591 125.102 188.728 125.102 187.767C125.102 186.805 125.331 185.942 125.788 185.177C126.246 184.411 126.871 183.814 127.664 183.385C128.467 182.946 129.363 182.727 130.352 182.727C131.155 182.727 131.888 182.867 132.55 183.147C133.213 183.427 133.773 183.833 134.23 184.365L133.054 185.471C132.345 184.705 131.472 184.323 130.436 184.323C129.764 184.323 129.162 184.472 128.63 184.771C128.098 185.06 127.683 185.466 127.384 185.989C127.086 186.511 126.936 187.104 126.936 187.767C126.936 188.429 127.086 189.022 127.384 189.545C127.683 190.067 128.098 190.478 128.63 190.777C129.162 191.066 129.764 191.211 130.436 191.211C131.472 191.211 132.345 190.823 133.054 190.049L134.23 191.169C133.773 191.701 133.208 192.107 132.536 192.387C131.874 192.667 131.141 192.807 130.338 192.807ZM139.348 188.565L137.794 190.161V192.667H135.974V182.867H137.794V187.893L142.638 182.867H144.682L140.566 187.249L144.934 192.667H142.806L139.348 188.565Z" fill="white"/>
<path d="M23.252 208.297L22.888 211.237H24.876V212.007H22.79L22.468 214.667H21.712L22.034 212.007H19.164L18.828 214.667H18.072L18.394 212.007H16.406V211.237H18.492L18.856 208.297H16.854V207.527H18.954L19.276 204.867H20.046L19.71 207.527H22.594L22.916 204.867H23.672L23.35 207.527H25.324V208.297H23.252ZM22.496 208.297H19.626L19.248 211.237H22.132L22.496 208.297ZM33.168 213.771V214.667H26.294V213.953L30.368 209.963C30.8814 209.459 31.2267 209.025 31.404 208.661C31.5907 208.287 31.684 207.914 31.684 207.541C31.684 206.962 31.4834 206.514 31.082 206.197C30.69 205.87 30.1254 205.707 29.388 205.707C28.24 205.707 27.3487 206.071 26.714 206.799L26 206.183C26.3827 205.735 26.868 205.389 27.456 205.147C28.0534 204.904 28.7254 204.783 29.472 204.783C30.4707 204.783 31.2594 205.021 31.838 205.497C32.426 205.963 32.72 206.607 32.72 207.429C32.72 207.933 32.608 208.418 32.384 208.885C32.16 209.351 31.7354 209.888 31.11 210.495L27.778 213.771H33.168ZM41.4744 212.049H36.0144L34.8384 214.667H33.7604L38.2404 204.867H39.2624L43.7424 214.667H42.6504L41.4744 212.049ZM41.0964 211.209L38.7444 205.945L36.3924 211.209H41.0964ZM51.1876 213.771V214.667H44.3136V213.953L48.3876 209.963C48.9009 209.459 49.2462 209.025 49.4236 208.661C49.6102 208.287 49.7036 207.914 49.7036 207.541C49.7036 206.962 49.5029 206.514 49.1016 206.197C48.7096 205.87 48.1449 205.707 47.4076 205.707C46.2596 205.707 45.3682 206.071 44.7336 206.799L44.0196 206.183C44.4022 205.735 44.8876 205.389 45.4756 205.147C46.0729 204.904 46.7449 204.783 47.4916 204.783C48.4902 204.783 49.2789 205.021 49.8576 205.497C50.4456 205.963 50.7396 206.607 50.7396 207.429C50.7396 207.933 50.6276 208.418 50.4036 208.885C50.1796 209.351 49.7549 209.888 49.1296 210.495L45.7976 213.771H51.1876ZM59.494 212.049H54.034L52.858 214.667H51.78L56.26 204.867H57.282L61.762 214.667H60.67L59.494 212.049ZM59.116 211.209L56.764 205.945L54.412 211.209H59.116ZM69.2071 213.771V214.667H62.3331V213.953L66.4071 209.963C66.9204 209.459 67.2658 209.025 67.4431 208.661C67.6298 208.287 67.7231 207.914 67.7231 207.541C67.7231 206.962 67.5224 206.514 67.1211 206.197C66.7291 205.87 66.1644 205.707 65.4271 205.707C64.2791 205.707 63.3878 206.071 62.7531 206.799L62.0391 206.183C62.4218 205.735 62.9071 205.389 63.4951 205.147C64.0924 204.904 64.7644 204.783 65.5111 204.783C66.5098 204.783 67.2984 205.021 67.8771 205.497C68.4651 205.963 68.7591 206.607 68.7591 207.429C68.7591 207.933 68.6471 208.418 68.4231 208.885C68.1991 209.351 67.7744 209.888 67.1491 210.495L63.8171 213.771H69.2071ZM75.5961 214.751C74.6255 214.751 73.7481 214.536 72.9641 214.107C72.1895 213.677 71.5781 213.085 71.1301 212.329C70.6915 211.563 70.4721 210.709 70.4721 209.767C70.4721 208.824 70.6915 207.975 71.1301 207.219C71.5781 206.453 72.1941 205.856 72.9781 205.427C73.7621 204.997 74.6395 204.783 75.6101 204.783C76.3381 204.783 77.0101 204.904 77.6261 205.147C78.2421 205.389 78.7648 205.744 79.1941 206.211L78.5361 206.869C77.7708 206.094 76.8048 205.707 75.6381 205.707C74.8635 205.707 74.1588 205.884 73.5241 206.239C72.8895 206.593 72.3901 207.079 72.0261 207.695C71.6715 208.311 71.4941 209.001 71.4941 209.767C71.4941 210.532 71.6715 211.223 72.0261 211.839C72.3901 212.455 72.8895 212.94 73.5241 213.295C74.1588 213.649 74.8635 213.827 75.6381 213.827C76.8141 213.827 77.7801 213.435 78.5361 212.651L79.1941 213.309C78.7648 213.775 78.2375 214.135 77.6121 214.387C76.9961 214.629 76.3241 214.751 75.5961 214.751Z" fill="white"/>
<rect width="164" height="161.667" transform="translate(0 323.333)" fill="#ECEFF2"/>
<path d="M23.672 352.065H18.772L17.806 354.333H15.93L20.34 344.533H22.132L26.556 354.333H24.652L23.672 352.065ZM23.07 350.637L21.222 346.353L19.388 350.637H23.07ZM30.8403 354.473C30.0843 354.473 29.3517 354.366 28.6423 354.151C27.9423 353.937 27.387 353.652 26.9763 353.297L27.6063 351.883C28.0077 352.201 28.4977 352.462 29.0763 352.667C29.6643 352.863 30.2523 352.961 30.8403 352.961C31.5683 352.961 32.1097 352.845 32.4643 352.611C32.8283 352.378 33.0103 352.07 33.0103 351.687C33.0103 351.407 32.9077 351.179 32.7023 351.001C32.5063 350.815 32.2543 350.67 31.9463 350.567C31.6383 350.465 31.2183 350.348 30.6863 350.217C29.9397 350.04 29.333 349.863 28.8663 349.685C28.409 349.508 28.0123 349.233 27.6763 348.859C27.3497 348.477 27.1863 347.963 27.1863 347.319C27.1863 346.778 27.331 346.288 27.6203 345.849C27.919 345.401 28.3623 345.047 28.9503 344.785C29.5477 344.524 30.2757 344.393 31.1343 344.393C31.7317 344.393 32.3197 344.468 32.8983 344.617C33.477 344.767 33.9763 344.981 34.3963 345.261L33.8223 346.675C33.393 346.423 32.945 346.232 32.4783 346.101C32.0117 345.971 31.559 345.905 31.1203 345.905C30.4017 345.905 29.865 346.027 29.5103 346.269C29.165 346.512 28.9923 346.834 28.9923 347.235C28.9923 347.515 29.0903 347.744 29.2863 347.921C29.4917 348.099 29.7483 348.239 30.0563 348.341C30.3643 348.444 30.7843 348.561 31.3163 348.691C32.0443 348.859 32.6417 349.037 33.1083 349.223C33.575 349.401 33.9717 349.676 34.2983 350.049C34.6343 350.423 34.8023 350.927 34.8023 351.561C34.8023 352.103 34.653 352.593 34.3543 353.031C34.065 353.47 33.6217 353.82 33.0243 354.081C32.427 354.343 31.699 354.473 30.8403 354.473ZM45.315 344.533V354.333H43.495V350.133H38.427V354.333H36.607V344.533H38.427V348.579H43.495V344.533H45.315ZM66.1321 344.533L62.8841 354.333H60.9521L58.5301 347.081L56.0661 354.333H54.1201L50.8721 344.533H52.7621L55.1981 351.981L57.7321 344.533H59.4121L61.8901 352.023L64.3961 344.533H66.1321ZM76.3228 344.533V354.333H74.5028V350.133H69.4348V354.333H67.6148V344.533H69.4348V348.579H74.5028V344.533H76.3228ZM78.9488 344.533H80.7688V354.333H78.9488V344.533ZM85.4075 346.073H82.1595V344.533H90.4755V346.073H87.2275V354.333H85.4075V346.073ZM99.1914 352.807V354.333H91.8414V344.533H98.9954V346.059H93.6614V348.607H98.3934V350.105H93.6614V352.807H99.1914Z" fill="#333333"/>
<path d="M23.252 369.963L22.888 372.903H24.876V373.673H22.79L22.468 376.333H21.712L22.034 373.673H19.164L18.828 376.333H18.072L18.394 373.673H16.406V372.903H18.492L18.856 369.963H16.854V369.193H18.954L19.276 366.533H20.046L19.71 369.193H22.594L22.916 366.533H23.672L23.35 369.193H25.324V369.963H23.252ZM22.496 369.963H19.626L19.248 372.903H22.132L22.496 369.963ZM34.274 375.437V376.333H27.344V366.533H34.064V367.429H28.38V370.915H33.448V371.797H28.38V375.437H34.274ZM40.9106 376.417C39.9399 376.417 39.0626 376.203 38.2786 375.773C37.5039 375.344 36.8926 374.751 36.4446 373.995C36.0059 373.23 35.7866 372.376 35.7866 371.433C35.7866 370.491 36.0059 369.641 36.4446 368.885C36.8926 368.12 37.5086 367.523 38.2926 367.093C39.0766 366.664 39.9539 366.449 40.9246 366.449C41.6526 366.449 42.3246 366.571 42.9406 366.813C43.5566 367.056 44.0793 367.411 44.5086 367.877L43.8506 368.535C43.0853 367.761 42.1193 367.373 40.9526 367.373C40.1779 367.373 39.4733 367.551 38.8386 367.905C38.2039 368.26 37.7046 368.745 37.3406 369.361C36.9859 369.977 36.8086 370.668 36.8086 371.433C36.8086 372.199 36.9859 372.889 37.3406 373.505C37.7046 374.121 38.2039 374.607 38.8386 374.961C39.4733 375.316 40.1779 375.493 40.9526 375.493C42.1286 375.493 43.0946 375.101 43.8506 374.317L44.5086 374.975C44.0793 375.442 43.5519 375.801 42.9266 376.053C42.3106 376.296 41.6386 376.417 40.9106 376.417ZM53.6471 375.437V376.333H46.7171V366.533H53.4371V367.429H47.7531V370.915H52.8211V371.797H47.7531V375.437H53.6471ZM57.1183 367.429V371.279H62.1863V372.175H57.1183V376.333H56.0823V366.533H62.8023V367.429H57.1183ZM65.9777 367.429V371.279H71.0457V372.175H65.9777V376.333H64.9417V366.533H71.6617V367.429H65.9777ZM79.6114 375.437V376.333H72.7374V375.619L76.8114 371.629C77.3247 371.125 77.6701 370.691 77.8474 370.327C78.0341 369.954 78.1274 369.581 78.1274 369.207C78.1274 368.629 77.9267 368.181 77.5254 367.863C77.1334 367.537 76.5687 367.373 75.8314 367.373C74.6834 367.373 73.7921 367.737 73.1574 368.465L72.4434 367.849C72.8261 367.401 73.3114 367.056 73.8994 366.813C74.4967 366.571 75.1687 366.449 75.9154 366.449C76.9141 366.449 77.7027 366.687 78.2814 367.163C78.8694 367.63 79.1634 368.274 79.1634 369.095C79.1634 369.599 79.0514 370.085 78.8274 370.551C78.6034 371.018 78.1787 371.555 77.5534 372.161L74.2214 375.437H79.6114Z" fill="#333333"/>
<rect width="164" height="161.667" transform="translate(164)" fill="#747D86"/>
<path d="M185.852 31.14C184.863 31.14 183.967 30.9253 183.164 30.496C182.371 30.0573 181.745 29.4553 181.288 28.69C180.84 27.9247 180.616 27.0613 180.616 26.1C180.616 25.1387 180.845 24.2753 181.302 23.51C181.759 22.7447 182.385 22.1473 183.178 21.718C183.981 21.2793 184.877 21.06 185.866 21.06C186.669 21.06 187.401 21.2 188.064 21.48C188.727 21.76 189.287 22.166 189.744 22.698L188.568 23.804C187.859 23.0387 186.986 22.656 185.95 22.656C185.278 22.656 184.676 22.8053 184.144 23.104C183.612 23.3933 183.197 23.7993 182.898 24.322C182.599 24.8447 182.45 25.4373 182.45 26.1C182.45 26.7627 182.599 27.3553 182.898 27.878C183.197 28.4007 183.612 28.8113 184.144 29.11C184.676 29.3993 185.278 29.544 185.95 29.544C186.986 29.544 187.859 29.1567 188.568 28.382L189.744 29.502C189.287 30.034 188.722 30.44 188.05 30.72C187.387 31 186.655 31.14 185.852 31.14ZM195.861 31.14C194.862 31.14 193.961 30.9253 193.159 30.496C192.356 30.0573 191.726 29.4553 191.269 28.69C190.811 27.9153 190.583 27.052 190.583 26.1C190.583 25.148 190.811 24.2893 191.269 23.524C191.726 22.7493 192.356 22.1473 193.159 21.718C193.961 21.2793 194.862 21.06 195.861 21.06C196.859 21.06 197.76 21.2793 198.563 21.718C199.365 22.1473 199.995 22.7447 200.453 23.51C200.91 24.2753 201.139 25.1387 201.139 26.1C201.139 27.0613 200.91 27.9247 200.453 28.69C199.995 29.4553 199.365 30.0573 198.563 30.496C197.76 30.9253 196.859 31.14 195.861 31.14ZM195.861 29.544C196.514 29.544 197.102 29.3993 197.625 29.11C198.147 28.8113 198.558 28.4007 198.857 27.878C199.155 27.346 199.305 26.7533 199.305 26.1C199.305 25.4467 199.155 24.8587 198.857 24.336C198.558 23.804 198.147 23.3933 197.625 23.104C197.102 22.8053 196.514 22.656 195.861 22.656C195.207 22.656 194.619 22.8053 194.097 23.104C193.574 23.3933 193.163 23.804 192.865 24.336C192.566 24.8587 192.417 25.4467 192.417 26.1C192.417 26.7533 192.566 27.346 192.865 27.878C193.163 28.4007 193.574 28.8113 194.097 29.11C194.619 29.3993 195.207 29.544 195.861 29.544ZM203.068 21.2H204.888V29.46H210.012V31H203.068V21.2ZM211.449 21.2H215.733C216.778 21.2 217.707 21.4053 218.519 21.816C219.331 22.2173 219.961 22.7913 220.409 23.538C220.857 24.2753 221.081 25.1293 221.081 26.1C221.081 27.0707 220.857 27.9293 220.409 28.676C219.961 29.4133 219.331 29.9873 218.519 30.398C217.707 30.7993 216.778 31 215.733 31H211.449V21.2ZM215.649 29.46C216.367 29.46 216.997 29.3247 217.539 29.054C218.089 28.774 218.509 28.382 218.799 27.878C219.097 27.3647 219.247 26.772 219.247 26.1C219.247 25.428 219.097 24.84 218.799 24.336C218.509 23.8227 218.089 23.4307 217.539 23.16C216.997 22.88 216.367 22.74 215.649 22.74H213.269V29.46H215.649ZM233.576 25.988H235.298V29.894C234.794 30.2953 234.206 30.6033 233.534 30.818C232.862 31.0327 232.172 31.14 231.462 31.14C230.464 31.14 229.563 30.9253 228.76 30.496C227.958 30.0573 227.328 29.4553 226.87 28.69C226.413 27.9247 226.184 27.0613 226.184 26.1C226.184 25.1387 226.413 24.2753 226.87 23.51C227.328 22.7447 227.958 22.1473 228.76 21.718C229.572 21.2793 230.482 21.06 231.49 21.06C232.312 21.06 233.058 21.1953 233.73 21.466C234.402 21.7367 234.967 22.1333 235.424 22.656L234.276 23.776C233.53 23.0293 232.629 22.656 231.574 22.656C230.884 22.656 230.268 22.8007 229.726 23.09C229.194 23.3793 228.774 23.7853 228.466 24.308C228.168 24.8307 228.018 25.428 228.018 26.1C228.018 26.7533 228.168 27.3413 228.466 27.864C228.774 28.3867 229.194 28.7973 229.726 29.096C230.268 29.3947 230.879 29.544 231.56 29.544C232.326 29.544 232.998 29.376 233.576 29.04V25.988ZM244.111 31L242.109 28.13C242.025 28.1393 241.899 28.144 241.731 28.144H239.519V31H237.699V21.2H241.731C242.58 21.2 243.317 21.34 243.943 21.62C244.577 21.9 245.063 22.3013 245.399 22.824C245.735 23.3467 245.903 23.9673 245.903 24.686C245.903 25.4233 245.721 26.058 245.357 26.59C245.002 27.122 244.489 27.5187 243.817 27.78L246.071 31H244.111ZM244.069 24.686C244.069 24.0607 243.863 23.58 243.453 23.244C243.042 22.908 242.44 22.74 241.647 22.74H239.519V26.646H241.647C242.44 26.646 243.042 26.478 243.453 26.142C243.863 25.7967 244.069 25.3113 244.069 24.686ZM254.295 28.732H249.395L248.429 31H246.553L250.963 21.2H252.755L257.179 31H255.275L254.295 28.732ZM253.693 27.304L251.845 23.02L250.011 27.304H253.693ZM262.065 27.542V31H260.245V27.57L256.395 21.2H258.341L261.211 25.974L264.109 21.2H265.901L262.065 27.542Z" fill="white"/>
<path d="M187.252 46.63L186.888 49.57H188.876V50.34H186.79L186.468 53H185.712L186.034 50.34H183.164L182.828 53H182.072L182.394 50.34H180.406V49.57H182.492L182.856 46.63H180.854V45.86H182.954L183.276 43.2H184.046L183.71 45.86H186.594L186.916 43.2H187.672L187.35 45.86H189.324V46.63H187.252ZM186.496 46.63H183.626L183.248 49.57H186.132L186.496 46.63ZM197.392 43.2V43.914L193.29 53H192.198L196.23 44.096H191.19V45.93H190.196V43.2H197.392ZM206.134 50.424H204.174V53H203.166V50.424H197.636V49.696L202.83 43.2H203.95L198.938 49.528H203.194V47.26H204.174V49.528H206.134V50.424ZM213.279 43.2V43.914L209.177 53H208.085L212.117 44.096H207.077V45.93H206.083V43.2H213.279ZM215.475 43.2H219.465C220.501 43.2 221.416 43.41 222.209 43.83C223.002 44.2407 223.618 44.8193 224.057 45.566C224.496 46.3033 224.715 47.148 224.715 48.1C224.715 49.052 224.496 49.9013 224.057 50.648C223.618 51.3853 223.002 51.964 222.209 52.384C221.416 52.7947 220.501 53 219.465 53H215.475V43.2ZM219.409 52.104C220.268 52.104 221.019 51.936 221.663 51.6C222.307 51.2547 222.806 50.7833 223.161 50.186C223.516 49.5793 223.693 48.884 223.693 48.1C223.693 47.316 223.516 46.6253 223.161 46.028C222.806 45.4213 222.307 44.95 221.663 44.614C221.019 44.2687 220.268 44.096 219.409 44.096H216.511V52.104H219.409ZM231.787 47.862C232.403 48.0673 232.875 48.3753 233.201 48.786C233.537 49.1967 233.705 49.6913 233.705 50.27C233.705 50.8393 233.551 51.3387 233.243 51.768C232.935 52.188 232.492 52.5147 231.913 52.748C231.344 52.972 230.672 53.084 229.897 53.084C228.721 53.084 227.797 52.832 227.125 52.328C226.453 51.824 226.117 51.138 226.117 50.27C226.117 49.682 226.276 49.1873 226.593 48.786C226.92 48.3753 227.391 48.0673 228.007 47.862C227.503 47.666 227.121 47.386 226.859 47.022C226.598 46.6487 226.467 46.21 226.467 45.706C226.467 44.9127 226.775 44.2827 227.391 43.816C228.017 43.3493 228.852 43.116 229.897 43.116C230.588 43.116 231.19 43.2233 231.703 43.438C232.226 43.6433 232.632 43.942 232.921 44.334C233.211 44.726 233.355 45.1833 233.355 45.706C233.355 46.21 233.22 46.6487 232.949 47.022C232.679 47.386 232.291 47.666 231.787 47.862ZM227.475 45.734C227.475 46.2753 227.69 46.7047 228.119 47.022C228.549 47.3393 229.141 47.498 229.897 47.498C230.653 47.498 231.246 47.3393 231.675 47.022C232.114 46.7047 232.333 46.28 232.333 45.748C232.333 45.1973 232.109 44.7633 231.661 44.446C231.223 44.1287 230.635 43.97 229.897 43.97C229.151 43.97 228.558 44.1287 228.119 44.446C227.69 44.7633 227.475 45.1927 227.475 45.734ZM229.897 52.23C230.765 52.23 231.442 52.0527 231.927 51.698C232.422 51.3433 232.669 50.8627 232.669 50.256C232.669 49.6493 232.422 49.1733 231.927 48.828C231.442 48.4733 230.765 48.296 229.897 48.296C229.039 48.296 228.362 48.4733 227.867 48.828C227.382 49.1733 227.139 49.6493 227.139 50.256C227.139 50.872 227.382 51.3573 227.867 51.712C228.353 52.0573 229.029 52.23 229.897 52.23ZM239.161 47.134C239.805 47.134 240.374 47.2553 240.869 47.498C241.373 47.7407 241.765 48.086 242.045 48.534C242.325 48.9727 242.465 49.486 242.465 50.074C242.465 50.6713 242.32 51.1987 242.031 51.656C241.742 52.1133 241.34 52.468 240.827 52.72C240.323 52.9627 239.754 53.084 239.119 53.084C237.822 53.084 236.828 52.6593 236.137 51.81C235.446 50.9513 235.101 49.7427 235.101 48.184C235.101 47.092 235.288 46.168 235.661 45.412C236.034 44.656 236.557 44.0867 237.229 43.704C237.901 43.312 238.685 43.116 239.581 43.116C240.552 43.116 241.326 43.2933 241.905 43.648L241.499 44.46C241.032 44.152 240.398 43.998 239.595 43.998C238.512 43.998 237.663 44.3433 237.047 45.034C236.431 45.7153 236.123 46.7093 236.123 48.016C236.123 48.2493 236.137 48.5153 236.165 48.814C236.408 48.282 236.795 47.8713 237.327 47.582C237.859 47.2833 238.47 47.134 239.161 47.134ZM239.077 52.23C239.786 52.23 240.36 52.0387 240.799 51.656C241.247 51.264 241.471 50.746 241.471 50.102C241.471 49.458 241.247 48.9447 240.799 48.562C240.36 48.1793 239.763 47.988 239.007 47.988C238.512 47.988 238.074 48.0813 237.691 48.268C237.318 48.4547 237.024 48.7113 236.809 49.038C236.594 49.3647 236.487 49.7287 236.487 50.13C236.487 50.5033 236.585 50.8487 236.781 51.166C236.986 51.4833 237.285 51.74 237.677 51.936C238.069 52.132 238.536 52.23 239.077 52.23Z" fill="white"/>
<rect width="164" height="161.667" transform="translate(164 161.667)" fill="white"/>
<path d="M184.354 192.807C183.598 192.807 182.865 192.699 182.156 192.485C181.456 192.27 180.901 191.985 180.49 191.631L181.12 190.217C181.521 190.534 182.011 190.795 182.59 191.001C183.178 191.197 183.766 191.295 184.354 191.295C185.082 191.295 185.623 191.178 185.978 190.945C186.342 190.711 186.524 190.403 186.524 190.021C186.524 189.741 186.421 189.512 186.216 189.335C186.02 189.148 185.768 189.003 185.46 188.901C185.152 188.798 184.732 188.681 184.2 188.551C183.453 188.373 182.847 188.196 182.38 188.019C181.923 187.841 181.526 187.566 181.19 187.193C180.863 186.81 180.7 186.297 180.7 185.653C180.7 185.111 180.845 184.621 181.134 184.183C181.433 183.735 181.876 183.38 182.464 183.119C183.061 182.857 183.789 182.727 184.648 182.727C185.245 182.727 185.833 182.801 186.412 182.951C186.991 183.1 187.49 183.315 187.91 183.595L187.336 185.009C186.907 184.757 186.459 184.565 185.992 184.435C185.525 184.304 185.073 184.239 184.634 184.239C183.915 184.239 183.379 184.36 183.024 184.603C182.679 184.845 182.506 185.167 182.506 185.569C182.506 185.849 182.604 186.077 182.8 186.255C183.005 186.432 183.262 186.572 183.57 186.675C183.878 186.777 184.298 186.894 184.83 187.025C185.558 187.193 186.155 187.37 186.622 187.557C187.089 187.734 187.485 188.009 187.812 188.383C188.148 188.756 188.316 189.26 188.316 189.895C188.316 190.436 188.167 190.926 187.868 191.365C187.579 191.803 187.135 192.153 186.538 192.415C185.941 192.676 185.213 192.807 184.354 192.807ZM198.829 182.867V192.667H197.331L191.927 186.031V192.667H190.121V182.867H191.619L197.023 189.503V182.867H198.829ZM206.033 192.807C205.034 192.807 204.133 192.592 203.331 192.163C202.528 191.724 201.898 191.122 201.441 190.357C200.983 189.582 200.755 188.719 200.755 187.767C200.755 186.815 200.983 185.956 201.441 185.191C201.898 184.416 202.528 183.814 203.331 183.385C204.133 182.946 205.034 182.727 206.033 182.727C207.031 182.727 207.932 182.946 208.735 183.385C209.537 183.814 210.167 184.411 210.625 185.177C211.082 185.942 211.311 186.805 211.311 187.767C211.311 188.728 211.082 189.591 210.625 190.357C210.167 191.122 209.537 191.724 208.735 192.163C207.932 192.592 207.031 192.807 206.033 192.807ZM206.033 191.211C206.686 191.211 207.274 191.066 207.797 190.777C208.319 190.478 208.73 190.067 209.029 189.545C209.327 189.013 209.477 188.42 209.477 187.767C209.477 187.113 209.327 186.525 209.029 186.003C208.73 185.471 208.319 185.06 207.797 184.771C207.274 184.472 206.686 184.323 206.033 184.323C205.379 184.323 204.791 184.472 204.269 184.771C203.746 185.06 203.335 185.471 203.037 186.003C202.738 186.525 202.589 187.113 202.589 187.767C202.589 188.42 202.738 189.013 203.037 189.545C203.335 190.067 203.746 190.478 204.269 190.777C204.791 191.066 205.379 191.211 206.033 191.211ZM227.247 182.867L223.999 192.667H222.067L219.645 185.415L217.181 192.667H215.235L211.987 182.867H213.877L216.313 190.315L218.847 182.867H220.527L223.005 190.357L225.511 182.867H227.247ZM247.126 182.867L243.878 192.667H241.946L239.524 185.415L237.06 192.667H235.114L231.866 182.867H233.756L236.192 190.315L238.726 182.867H240.406L242.884 190.357L245.39 182.867H247.126ZM257.317 182.867V192.667H255.497V188.467H250.429V192.667H248.609V182.867H250.429V186.913H255.497V182.867H257.317ZM259.943 182.867H261.763V192.667H259.943V182.867ZM266.402 184.407H263.154V182.867H271.47V184.407H268.222V192.667H266.402V184.407ZM280.186 191.141V192.667H272.836V182.867H279.99V184.393H274.656V186.941H279.388V188.439H274.656V191.141H280.186Z" fill="#333333"/>
<path d="M187.252 208.297L186.888 211.237H188.876V212.007H186.79L186.468 214.667H185.712L186.034 212.007H183.164L182.828 214.667H182.072L182.394 212.007H180.406V211.237H182.492L182.856 208.297H180.854V207.527H182.954L183.276 204.867H184.046L183.71 207.527H186.594L186.916 204.867H187.672L187.35 207.527H189.324V208.297H187.252ZM186.496 208.297H183.626L183.248 211.237H186.132L186.496 208.297ZM192.38 205.763V209.613H197.448V210.509H192.38V214.667H191.344V204.867H198.064V205.763H192.38ZM201.239 205.763V209.613H206.307V210.509H201.239V214.667H200.203V204.867H206.923V205.763H201.239ZM210.099 205.763V209.613H215.167V210.509H210.099V214.667H209.063V204.867H215.783V205.763H210.099ZM218.958 205.763V209.613H224.026V210.509H218.958V214.667H217.922V204.867H224.642V205.763H218.958ZM227.818 205.763V209.613H232.886V210.509H227.818V214.667H226.782V204.867H233.502V205.763H227.818ZM236.677 205.763V209.613H241.745V210.509H236.677V214.667H235.641V204.867H242.361V205.763H236.677Z" fill="#333333"/>
<rect width="164" height="161.667" transform="translate(164 323.333)" fill="#5FBFBF"/>
<path d="M190.318 354.333L190.304 347.837L187.084 353.213H186.272L183.052 347.921V354.333H181.316V344.533H182.814L186.706 351.029L190.528 344.533H192.026L192.04 354.333H190.318ZM202.037 352.807V354.333H194.687V344.533H201.841V346.059H196.507V348.607H201.239V350.105H196.507V352.807H202.037ZM204.066 344.533H208.35C209.395 344.533 210.324 344.739 211.136 345.149C211.948 345.551 212.578 346.125 213.026 346.871C213.474 347.609 213.698 348.463 213.698 349.433C213.698 350.404 213.474 351.263 213.026 352.009C212.578 352.747 211.948 353.321 211.136 353.731C210.324 354.133 209.395 354.333 208.35 354.333H204.066V344.533ZM208.266 352.793C208.985 352.793 209.615 352.658 210.156 352.387C210.707 352.107 211.127 351.715 211.416 351.211C211.715 350.698 211.864 350.105 211.864 349.433C211.864 348.761 211.715 348.173 211.416 347.669C211.127 347.156 210.707 346.764 210.156 346.493C209.615 346.213 208.985 346.073 208.266 346.073H205.886V352.793H208.266ZM215.632 344.533H217.452V354.333H215.632V344.533ZM222.091 346.073H218.843V344.533H227.159V346.073H223.911V354.333H222.091V346.073ZM235.875 352.807V354.333H228.525V344.533H235.679V346.059H230.345V348.607H235.077V350.105H230.345V352.807H235.875ZM244.316 354.333L242.314 351.463C242.23 351.473 242.104 351.477 241.936 351.477H239.724V354.333H237.904V344.533H241.936C242.785 344.533 243.523 344.673 244.148 344.953C244.783 345.233 245.268 345.635 245.604 346.157C245.94 346.68 246.108 347.301 246.108 348.019C246.108 348.757 245.926 349.391 245.562 349.923C245.207 350.455 244.694 350.852 244.022 351.113L246.276 354.333H244.316ZM244.274 348.019C244.274 347.394 244.069 346.913 243.658 346.577C243.247 346.241 242.645 346.073 241.852 346.073H239.724V349.979H241.852C242.645 349.979 243.247 349.811 243.658 349.475C244.069 349.13 244.274 348.645 244.274 348.019ZM254.556 354.333L252.554 351.463C252.47 351.473 252.344 351.477 252.176 351.477H249.964V354.333H248.144V344.533H252.176C253.025 344.533 253.763 344.673 254.388 344.953C255.023 345.233 255.508 345.635 255.844 346.157C256.18 346.68 256.348 347.301 256.348 348.019C256.348 348.757 256.166 349.391 255.802 349.923C255.447 350.455 254.934 350.852 254.262 351.113L256.516 354.333H254.556ZM254.514 348.019C254.514 347.394 254.309 346.913 253.898 346.577C253.487 346.241 252.885 346.073 252.092 346.073H249.964V349.979H252.092C252.885 349.979 253.487 349.811 253.898 349.475C254.309 349.13 254.514 348.645 254.514 348.019ZM264.74 352.065H259.84L258.874 354.333H256.998L261.408 344.533H263.2L267.624 354.333H265.72L264.74 352.065ZM264.138 350.637L262.29 346.353L260.456 350.637H264.138ZM277.579 344.533V354.333H276.081L270.677 347.697V354.333H268.871V344.533H270.369L275.773 351.169V344.533H277.579ZM280.205 344.533H282.025V354.333H280.205V344.533ZM291.031 352.065H286.131L285.165 354.333H283.289L287.699 344.533H289.491L293.915 354.333H292.011L291.031 352.065ZM290.429 350.637L288.581 346.353L286.747 350.637H290.429ZM303.87 344.533V354.333H302.372L296.968 347.697V354.333H295.162V344.533H296.66L302.064 351.169V344.533H303.87ZM188.26 369.237C188.801 369.415 189.231 369.713 189.548 370.133C189.865 370.544 190.024 371.057 190.024 371.673C190.024 372.523 189.697 373.181 189.044 373.647C188.391 374.105 187.439 374.333 186.188 374.333H181.316V364.533H185.908C187.065 364.533 187.957 364.762 188.582 365.219C189.207 365.667 189.52 366.288 189.52 367.081C189.52 367.567 189.408 367.996 189.184 368.369C188.96 368.743 188.652 369.032 188.26 369.237ZM183.136 365.961V368.663H185.712C186.347 368.663 186.832 368.551 187.168 368.327C187.513 368.094 187.686 367.758 187.686 367.319C187.686 366.871 187.513 366.535 187.168 366.311C186.832 366.078 186.347 365.961 185.712 365.961H183.136ZM186.076 372.905C187.485 372.905 188.19 372.434 188.19 371.491C188.19 370.549 187.485 370.077 186.076 370.077H183.136V372.905H186.076ZM191.966 364.533H193.786V372.793H198.91V374.333H191.966V364.533ZM204.425 374.473C203.071 374.473 202.017 374.095 201.261 373.339C200.505 372.574 200.127 371.482 200.127 370.063V364.533H201.947V369.993C201.947 371.916 202.777 372.877 204.439 372.877C206.091 372.877 206.917 371.916 206.917 369.993V364.533H208.709V370.063C208.709 371.482 208.331 372.574 207.575 373.339C206.828 374.095 205.778 374.473 204.425 374.473ZM218.607 372.807V374.333H211.257V364.533H218.411V366.059H213.077V368.607H217.809V370.105H213.077V372.807H218.607Z" fill="white"/>
<path d="M187.252 389.963L186.888 392.903H188.876V393.673H186.79L186.468 396.333H185.712L186.034 393.673H183.164L182.828 396.333H182.072L182.394 393.673H180.406V392.903H182.492L182.856 389.963H180.854V389.193H182.954L183.276 386.533H184.046L183.71 389.193H186.594L186.916 386.533H187.672L187.35 389.193H189.324V389.963H187.252ZM186.496 389.963H183.626L183.248 392.903H186.132L186.496 389.963ZM193.052 390.551C194.471 390.551 195.502 390.808 196.146 391.321C196.799 391.825 197.126 392.535 197.126 393.449C197.126 394.019 196.991 394.527 196.72 394.975C196.459 395.423 196.062 395.778 195.53 396.039C194.998 396.291 194.345 396.417 193.57 396.417C192.87 396.417 192.203 396.305 191.568 396.081C190.943 395.848 190.439 395.54 190.056 395.157L190.546 394.359C190.873 394.695 191.302 394.971 191.834 395.185C192.366 395.391 192.94 395.493 193.556 395.493C194.368 395.493 194.993 395.311 195.432 394.947C195.88 394.583 196.104 394.098 196.104 393.491C196.104 392.819 195.852 392.311 195.348 391.965C194.853 391.62 194.013 391.447 192.828 391.447H190.742L191.246 386.533H196.608V387.429H192.128L191.792 390.551H193.052ZM200.31 387.429V391.279H205.378V392.175H200.31V396.333H199.274V386.533H205.994V387.429H200.31ZM214.307 391.279C214.951 391.419 215.446 391.699 215.791 392.119C216.146 392.53 216.323 393.062 216.323 393.715C216.323 394.555 216.01 395.204 215.385 395.661C214.769 396.109 213.854 396.333 212.641 396.333H208.133V386.533H212.361C213.453 386.533 214.298 386.753 214.895 387.191C215.502 387.63 215.805 388.251 215.805 389.053C215.805 389.595 215.67 390.057 215.399 390.439C215.138 390.813 214.774 391.093 214.307 391.279ZM209.169 387.387V390.943H212.291C213.084 390.943 213.696 390.794 214.125 390.495C214.554 390.187 214.769 389.744 214.769 389.165C214.769 388.587 214.554 388.148 214.125 387.849C213.696 387.541 213.084 387.387 212.291 387.387H209.169ZM212.627 395.479C213.504 395.479 214.167 395.33 214.615 395.031C215.063 394.733 215.287 394.266 215.287 393.631C215.287 392.409 214.4 391.797 212.627 391.797H209.169V395.479H212.627ZM219.724 387.429V391.279H224.792V392.175H219.724V396.333H218.688V386.533H225.408V387.429H219.724ZM233.721 391.279C234.365 391.419 234.86 391.699 235.205 392.119C235.56 392.53 235.737 393.062 235.737 393.715C235.737 394.555 235.425 395.204 234.799 395.661C234.183 396.109 233.269 396.333 232.055 396.333H227.547V386.533H231.775C232.867 386.533 233.712 386.753 234.309 387.191C234.916 387.63 235.219 388.251 235.219 389.053C235.219 389.595 235.084 390.057 234.813 390.439C234.552 390.813 234.188 391.093 233.721 391.279ZM228.583 387.387V390.943H231.705C232.499 390.943 233.11 390.794 233.539 390.495C233.969 390.187 234.183 389.744 234.183 389.165C234.183 388.587 233.969 388.148 233.539 387.849C233.11 387.541 232.499 387.387 231.705 387.387H228.583ZM232.041 395.479C232.919 395.479 233.581 395.33 234.029 395.031C234.477 394.733 234.701 394.266 234.701 393.631C234.701 392.409 233.815 391.797 232.041 391.797H228.583V395.479H232.041ZM239.138 387.429V391.279H244.206V392.175H239.138V396.333H238.102V386.533H244.822V387.429H239.138Z" fill="white"/>
</svg>
