<svg width="1200" height="620" viewBox="0 0 1200 620" fill="none" xmlns="http://www.w3.org/2000/svg">
<rect width="240" height="310" fill="#485FEB"/>
<path d="M37.024 34.2V44H35.526L30.122 37.364V44H28.316V34.2H29.814L35.218 40.836V34.2H37.024ZM46.006 41.732H41.106L40.14 44H38.264L42.674 34.2H44.466L48.89 44H46.986L46.006 41.732ZM45.404 40.304L43.556 36.02L41.722 40.304H45.404ZM58.5768 34.2L54.3068 44H52.5148L48.2308 34.2H50.2048L53.4668 41.76L56.7568 34.2H58.5768ZM63.7159 40.542V44H61.8959V40.57L58.0459 34.2H59.9919L62.8619 38.974L65.7599 34.2H67.5519L63.7159 40.542ZM79.5569 38.904C80.0982 39.0813 80.5275 39.38 80.8449 39.8C81.1622 40.2107 81.3209 40.724 81.3209 41.34C81.3209 42.1893 80.9942 42.8473 80.3409 43.314C79.6875 43.7713 78.7355 44 77.4849 44H72.6129V34.2H77.2049C78.3622 34.2 79.2535 34.4287 79.8789 34.886C80.5042 35.334 80.8169 35.9547 80.8169 36.748C80.8169 37.2333 80.7049 37.6627 80.4809 38.036C80.2569 38.4093 79.9489 38.6987 79.5569 38.904ZM74.4329 35.628V38.33H77.0089C77.6435 38.33 78.1289 38.218 78.4649 37.994C78.8102 37.7607 78.9829 37.4247 78.9829 36.986C78.9829 36.538 78.8102 36.202 78.4649 35.978C78.1289 35.7447 77.6435 35.628 77.0089 35.628H74.4329ZM77.3729 42.572C78.7822 42.572 79.4869 42.1007 79.4869 41.158C79.4869 40.2153 78.7822 39.744 77.3729 39.744H74.4329V42.572H77.3729ZM83.2633 34.2H85.0833V42.46H90.2073V44H83.2633V34.2ZM95.7214 44.14C94.3681 44.14 93.3134 43.762 92.5574 43.006C91.8014 42.2407 91.4234 41.1487 91.4234 39.73V34.2H93.2434V39.66C93.2434 41.5827 94.0741 42.544 95.7354 42.544C97.3874 42.544 98.2134 41.5827 98.2134 39.66V34.2H100.005V39.73C100.005 41.1487 99.6274 42.2407 98.8714 43.006C98.1247 43.762 97.0747 44.14 95.7214 44.14ZM109.904 42.474V44H102.554V34.2H109.708V35.726H104.374V38.274H109.106V39.772H104.374V42.474H109.904Z" fill="white"/>
<path d="M34.252 61.63L33.888 64.57H35.876V65.34H33.79L33.468 68H32.712L33.034 65.34H30.164L29.828 68H29.072L29.394 65.34H27.406V64.57H29.492L29.856 61.63H27.854V60.86H29.954L30.276 58.2H31.046L30.71 60.86H33.594L33.916 58.2H34.672L34.35 60.86H36.324V61.63H34.252ZM33.496 61.63H30.626L30.248 64.57H33.132L33.496 61.63ZM45.806 65.424H43.846V68H42.838V65.424H37.308V64.696L42.502 58.2H43.622L38.61 64.528H42.866V62.26H43.846V64.528H45.806V65.424ZM52.4826 62.862C53.0986 63.0673 53.57 63.3753 53.8966 63.786C54.2326 64.1967 54.4006 64.6913 54.4006 65.27C54.4006 65.8393 54.2466 66.3387 53.9386 66.768C53.6306 67.188 53.1873 67.5147 52.6086 67.748C52.0393 67.972 51.3673 68.084 50.5926 68.084C49.4166 68.084 48.4926 67.832 47.8206 67.328C47.1486 66.824 46.8126 66.138 46.8126 65.27C46.8126 64.682 46.9713 64.1873 47.2886 63.786C47.6153 63.3753 48.0866 63.0673 48.7026 62.862C48.1986 62.666 47.816 62.386 47.5546 62.022C47.2933 61.6487 47.1626 61.21 47.1626 60.706C47.1626 59.9127 47.4706 59.2827 48.0866 58.816C48.712 58.3493 49.5473 58.116 50.5926 58.116C51.2833 58.116 51.8853 58.2233 52.3986 58.438C52.9213 58.6433 53.3273 58.942 53.6166 59.334C53.906 59.726 54.0506 60.1833 54.0506 60.706C54.0506 61.21 53.9153 61.6487 53.6446 62.022C53.374 62.386 52.9866 62.666 52.4826 62.862ZM48.1706 60.734C48.1706 61.2753 48.3853 61.7047 48.8146 62.022C49.244 62.3393 49.8366 62.498 50.5926 62.498C51.3486 62.498 51.9413 62.3393 52.3706 62.022C52.8093 61.7047 53.0286 61.28 53.0286 60.748C53.0286 60.1973 52.8046 59.7633 52.3566 59.446C51.918 59.1287 51.33 58.97 50.5926 58.97C49.846 58.97 49.2533 59.1287 48.8146 59.446C48.3853 59.7633 48.1706 60.1927 48.1706 60.734ZM50.5926 67.23C51.4606 67.23 52.1373 67.0527 52.6226 66.698C53.1173 66.3433 53.3646 65.8627 53.3646 65.256C53.3646 64.6493 53.1173 64.1733 52.6226 63.828C52.1373 63.4733 51.4606 63.296 50.5926 63.296C49.734 63.296 49.0573 63.4733 48.5626 63.828C48.0773 64.1733 47.8346 64.6493 47.8346 65.256C47.8346 65.872 48.0773 66.3573 48.5626 66.712C49.048 67.0573 49.7246 67.23 50.5926 67.23ZM58.3724 62.218C59.791 62.218 60.8224 62.4747 61.4664 62.988C62.1197 63.492 62.4464 64.2013 62.4464 65.116C62.4464 65.6853 62.311 66.194 62.0404 66.642C61.779 67.09 61.3824 67.4447 60.8504 67.706C60.3184 67.958 59.665 68.084 58.8904 68.084C58.1904 68.084 57.523 67.972 56.8884 67.748C56.263 67.5147 55.759 67.2067 55.3764 66.824L55.8664 66.026C56.193 66.362 56.6224 66.6373 57.1544 66.852C57.6864 67.0573 58.2604 67.16 58.8764 67.16C59.6884 67.16 60.3137 66.978 60.7524 66.614C61.2004 66.25 61.4244 65.7647 61.4244 65.158C61.4244 64.486 61.1724 63.9773 60.6684 63.632C60.1737 63.2867 59.3337 63.114 58.1484 63.114H56.0624L56.5664 58.2H61.9284V59.096H57.4484L57.1124 62.218H58.3724ZM65.63 59.096V62.946H70.698V63.842H65.63V68H64.594V58.2H71.314V59.096H65.63ZM80.3834 67.104V68H73.4534V58.2H80.1734V59.096H74.4894V62.582H79.5574V63.464H74.4894V67.104H80.3834ZM88.9927 62.946C89.6367 63.086 90.1313 63.366 90.4767 63.786C90.8313 64.1967 91.0087 64.7287 91.0087 65.382C91.0087 66.222 90.696 66.8707 90.0707 67.328C89.4547 67.776 88.54 68 87.3267 68H82.8187V58.2H87.0467C88.1387 58.2 88.9833 58.4193 89.5807 58.858C90.1873 59.2967 90.4907 59.9173 90.4907 60.72C90.4907 61.2613 90.3553 61.7233 90.0847 62.106C89.8233 62.4793 89.4593 62.7593 88.9927 62.946ZM83.8547 59.054V62.61H86.9767C87.77 62.61 88.3813 62.4607 88.8107 62.162C89.24 61.854 89.4547 61.4107 89.4547 60.832C89.4547 60.2533 89.24 59.8147 88.8107 59.516C88.3813 59.208 87.77 59.054 86.9767 59.054H83.8547ZM87.3127 67.146C88.19 67.146 88.8527 66.9967 89.3007 66.698C89.7487 66.3993 89.9727 65.9327 89.9727 65.298C89.9727 64.0753 89.086 63.464 87.3127 63.464H83.8547V67.146H87.3127Z" fill="white"/>
<rect width="240" height="310" transform="translate(240)" fill="#FFD86F"/>
<path d="M271.354 44.14C270.598 44.14 269.865 44.0327 269.156 43.818C268.456 43.6033 267.901 43.3187 267.49 42.964L268.12 41.55C268.521 41.8673 269.011 42.1287 269.59 42.334C270.178 42.53 270.766 42.628 271.354 42.628C272.082 42.628 272.623 42.5113 272.978 42.278C273.342 42.0447 273.524 41.7367 273.524 41.354C273.524 41.074 273.421 40.8453 273.216 40.668C273.02 40.4813 272.768 40.3367 272.46 40.234C272.152 40.1313 271.732 40.0147 271.2 39.884C270.453 39.7067 269.847 39.5293 269.38 39.352C268.923 39.1747 268.526 38.8993 268.19 38.526C267.863 38.1433 267.7 37.63 267.7 36.986C267.7 36.4447 267.845 35.9547 268.134 35.516C268.433 35.068 268.876 34.7133 269.464 34.452C270.061 34.1907 270.789 34.06 271.648 34.06C272.245 34.06 272.833 34.1347 273.412 34.284C273.991 34.4333 274.49 34.648 274.91 34.928L274.336 36.342C273.907 36.09 273.459 35.8987 272.992 35.768C272.525 35.6373 272.073 35.572 271.634 35.572C270.915 35.572 270.379 35.6933 270.024 35.936C269.679 36.1787 269.506 36.5007 269.506 36.902C269.506 37.182 269.604 37.4107 269.8 37.588C270.005 37.7653 270.262 37.9053 270.57 38.008C270.878 38.1107 271.298 38.2273 271.83 38.358C272.558 38.526 273.155 38.7033 273.622 38.89C274.089 39.0673 274.485 39.3427 274.812 39.716C275.148 40.0893 275.316 40.5933 275.316 41.228C275.316 41.7693 275.167 42.2593 274.868 42.698C274.579 43.1367 274.135 43.4867 273.538 43.748C272.941 44.0093 272.213 44.14 271.354 44.14ZM285.829 34.2V44H284.009V39.8H278.941V44H277.121V34.2H278.941V38.246H284.009V34.2H285.829ZM288.455 34.2H290.275V44H288.455V34.2ZM301.633 34.2V44H300.135L294.731 37.364V44H292.925V34.2H294.423L299.827 40.836V34.2H301.633ZM308.487 40.542V44H306.667V40.57L302.817 34.2H304.763L307.633 38.974L310.531 34.2H312.323L308.487 40.542ZM321.612 40.542V44H319.792V40.57L315.942 34.2H317.888L320.758 38.974L323.656 34.2H325.448L321.612 40.542ZM333.854 42.474V44H326.504V34.2H333.658V35.726H328.324V38.274H333.056V39.772H328.324V42.474H333.854ZM335.882 34.2H337.702V42.46H342.826V44H335.882V34.2ZM344.263 34.2H346.083V42.46H351.207V44H344.263V34.2ZM357.044 44.14C356.046 44.14 355.145 43.9253 354.342 43.496C353.54 43.0573 352.91 42.4553 352.452 41.69C351.995 40.9153 351.766 40.052 351.766 39.1C351.766 38.148 351.995 37.2893 352.452 36.524C352.91 35.7493 353.54 35.1473 354.342 34.718C355.145 34.2793 356.046 34.06 357.044 34.06C358.043 34.06 358.944 34.2793 359.746 34.718C360.549 35.1473 361.179 35.7447 361.636 36.51C362.094 37.2753 362.322 38.1387 362.322 39.1C362.322 40.0613 362.094 40.9247 361.636 41.69C361.179 42.4553 360.549 43.0573 359.746 43.496C358.944 43.9253 358.043 44.14 357.044 44.14ZM357.044 42.544C357.698 42.544 358.286 42.3993 358.808 42.11C359.331 41.8113 359.742 41.4007 360.04 40.878C360.339 40.346 360.488 39.7533 360.488 39.1C360.488 38.4467 360.339 37.8587 360.04 37.336C359.742 36.804 359.331 36.3933 358.808 36.104C358.286 35.8053 357.698 35.656 357.044 35.656C356.391 35.656 355.803 35.8053 355.28 36.104C354.758 36.3933 354.347 36.804 354.048 37.336C353.75 37.8587 353.6 38.4467 353.6 39.1C353.6 39.7533 353.75 40.346 354.048 40.878C354.347 41.4007 354.758 41.8113 355.28 42.11C355.803 42.3993 356.391 42.544 357.044 42.544ZM378.259 34.2L375.011 44H373.079L370.657 36.748L368.193 44H366.247L362.999 34.2H364.889L367.325 41.648L369.859 34.2H371.539L374.017 41.69L376.523 34.2H378.259Z" fill="#333333"/>
<path d="M274.252 61.63L273.888 64.57H275.876V65.34H273.79L273.468 68H272.712L273.034 65.34H270.164L269.828 68H269.072L269.394 65.34H267.406V64.57H269.492L269.856 61.63H267.854V60.86H269.954L270.276 58.2H271.046L270.71 60.86H273.594L273.916 58.2H274.672L274.35 60.86H276.324V61.63H274.252ZM273.496 61.63H270.626L270.248 64.57H273.132L273.496 61.63ZM279.38 59.096V62.946H284.448V63.842H279.38V68H278.344V58.2H285.064V59.096H279.38ZM288.239 59.096V62.946H293.307V63.842H288.239V68H287.203V58.2H293.923V59.096H288.239ZM296.063 58.2H300.053C301.089 58.2 302.003 58.41 302.797 58.83C303.59 59.2407 304.206 59.8193 304.645 60.566C305.083 61.3033 305.303 62.148 305.303 63.1C305.303 64.052 305.083 64.9013 304.645 65.648C304.206 66.3853 303.59 66.964 302.797 67.384C302.003 67.7947 301.089 68 300.053 68H296.063V58.2ZM299.997 67.104C300.855 67.104 301.607 66.936 302.251 66.6C302.895 66.2547 303.394 65.7833 303.749 65.186C304.103 64.5793 304.281 63.884 304.281 63.1C304.281 62.316 304.103 61.6253 303.749 61.028C303.394 60.4213 302.895 59.95 302.251 59.614C301.607 59.2687 300.855 59.096 299.997 59.096H297.099V67.104H299.997ZM312.375 62.862C312.991 63.0673 313.463 63.3753 313.789 63.786C314.125 64.1967 314.293 64.6913 314.293 65.27C314.293 65.8393 314.139 66.3387 313.831 66.768C313.523 67.188 313.08 67.5147 312.501 67.748C311.932 67.972 311.26 68.084 310.485 68.084C309.309 68.084 308.385 67.832 307.713 67.328C307.041 66.824 306.705 66.138 306.705 65.27C306.705 64.682 306.864 64.1873 307.181 63.786C307.508 63.3753 307.979 63.0673 308.595 62.862C308.091 62.666 307.709 62.386 307.447 62.022C307.186 61.6487 307.055 61.21 307.055 60.706C307.055 59.9127 307.363 59.2827 307.979 58.816C308.605 58.3493 309.44 58.116 310.485 58.116C311.176 58.116 311.778 58.2233 312.291 58.438C312.814 58.6433 313.22 58.942 313.509 59.334C313.799 59.726 313.943 60.1833 313.943 60.706C313.943 61.21 313.808 61.6487 313.537 62.022C313.267 62.386 312.879 62.666 312.375 62.862ZM308.063 60.734C308.063 61.2753 308.278 61.7047 308.707 62.022C309.137 62.3393 309.729 62.498 310.485 62.498C311.241 62.498 311.834 62.3393 312.263 62.022C312.702 61.7047 312.921 61.28 312.921 60.748C312.921 60.1973 312.697 59.7633 312.249 59.446C311.811 59.1287 311.223 58.97 310.485 58.97C309.739 58.97 309.146 59.1287 308.707 59.446C308.278 59.7633 308.063 60.1927 308.063 60.734ZM310.485 67.23C311.353 67.23 312.03 67.0527 312.515 66.698C313.01 66.3433 313.257 65.8627 313.257 65.256C313.257 64.6493 313.01 64.1733 312.515 63.828C312.03 63.4733 311.353 63.296 310.485 63.296C309.627 63.296 308.95 63.4733 308.455 63.828C307.97 64.1733 307.727 64.6493 307.727 65.256C307.727 65.872 307.97 66.3573 308.455 66.712C308.941 67.0573 309.617 67.23 310.485 67.23ZM319.749 62.134C320.393 62.134 320.962 62.2553 321.457 62.498C321.961 62.7407 322.353 63.086 322.633 63.534C322.913 63.9727 323.053 64.486 323.053 65.074C323.053 65.6713 322.908 66.1987 322.619 66.656C322.33 67.1133 321.928 67.468 321.415 67.72C320.911 67.9627 320.342 68.084 319.707 68.084C318.41 68.084 317.416 67.6593 316.725 66.81C316.034 65.9513 315.689 64.7427 315.689 63.184C315.689 62.092 315.876 61.168 316.249 60.412C316.622 59.656 317.145 59.0867 317.817 58.704C318.489 58.312 319.273 58.116 320.169 58.116C321.14 58.116 321.914 58.2933 322.493 58.648L322.087 59.46C321.62 59.152 320.986 58.998 320.183 58.998C319.1 58.998 318.251 59.3433 317.635 60.034C317.019 60.7153 316.711 61.7093 316.711 63.016C316.711 63.2493 316.725 63.5153 316.753 63.814C316.996 63.282 317.383 62.8713 317.915 62.582C318.447 62.2833 319.058 62.134 319.749 62.134ZM319.665 67.23C320.374 67.23 320.948 67.0387 321.387 66.656C321.835 66.264 322.059 65.746 322.059 65.102C322.059 64.458 321.835 63.9447 321.387 63.562C320.948 63.1793 320.351 62.988 319.595 62.988C319.1 62.988 318.662 63.0813 318.279 63.268C317.906 63.4547 317.612 63.7113 317.397 64.038C317.182 64.3647 317.075 64.7287 317.075 65.13C317.075 65.5033 317.173 65.8487 317.369 66.166C317.574 66.4833 317.873 66.74 318.265 66.936C318.657 67.132 319.124 67.23 319.665 67.23ZM326.124 59.096V62.946H331.192V63.842H326.124V68H325.088V58.2H331.808V59.096H326.124Z" fill="#333333"/>
<rect width="240" height="310" transform="translate(480)" fill="#9C7AFB"/>
<path d="M508.316 34.2H510.136V42.46H515.26V44H508.316V34.2ZM523.121 41.732H518.221L517.255 44H515.379L519.789 34.2H521.581L526.005 44H524.101L523.121 41.732ZM522.519 40.304L520.671 36.02L518.837 40.304H522.519ZM535.692 34.2L531.422 44H529.63L525.346 34.2H527.32L530.582 41.76L533.872 34.2H535.692ZM544.076 42.474V44H536.726V34.2H543.88V35.726H538.546V38.274H543.278V39.772H538.546V42.474H544.076ZM554.813 34.2V44H553.315L547.911 37.364V44H546.105V34.2H547.603L553.007 40.836V34.2H554.813ZM557.439 34.2H561.723C562.768 34.2 563.697 34.4053 564.509 34.816C565.321 35.2173 565.951 35.7913 566.399 36.538C566.847 37.2753 567.071 38.1293 567.071 39.1C567.071 40.0707 566.847 40.9293 566.399 41.676C565.951 42.4133 565.321 42.9873 564.509 43.398C563.697 43.7993 562.768 44 561.723 44H557.439V34.2ZM561.639 42.46C562.358 42.46 562.988 42.3247 563.529 42.054C564.08 41.774 564.5 41.382 564.789 40.878C565.088 40.3647 565.237 39.772 565.237 39.1C565.237 38.428 565.088 37.84 564.789 37.336C564.5 36.8227 564.08 36.4307 563.529 36.16C562.988 35.88 562.358 35.74 561.639 35.74H559.259V42.46H561.639ZM576.355 42.474V44H569.005V34.2H576.159V35.726H570.825V38.274H575.557V39.772H570.825V42.474H576.355ZM584.796 44L582.794 41.13C582.71 41.1393 582.584 41.144 582.416 41.144H580.204V44H578.384V34.2H582.416C583.266 34.2 584.003 34.34 584.628 34.62C585.263 34.9 585.748 35.3013 586.084 35.824C586.42 36.3467 586.588 36.9673 586.588 37.686C586.588 38.4233 586.406 39.058 586.042 39.59C585.688 40.122 585.174 40.5187 584.502 40.78L586.756 44H584.796ZM584.754 37.686C584.754 37.0607 584.549 36.58 584.138 36.244C583.728 35.908 583.126 35.74 582.332 35.74H580.204V39.646H582.332C583.126 39.646 583.728 39.478 584.138 39.142C584.549 38.7967 584.754 38.3113 584.754 37.686Z" fill="white"/>
<path d="M514.252 61.63L513.888 64.57H515.876V65.34H513.79L513.468 68H512.712L513.034 65.34H510.164L509.828 68H509.072L509.394 65.34H507.406V64.57H509.492L509.856 61.63H507.854V60.86H509.954L510.276 58.2H511.046L510.71 60.86H513.594L513.916 58.2H514.672L514.35 60.86H516.324V61.63H514.252ZM513.496 61.63H510.626L510.248 64.57H513.132L513.496 61.63ZM520.528 58.116C521.825 58.116 522.819 58.5453 523.51 59.404C524.201 60.2533 524.546 61.4573 524.546 63.016C524.546 64.108 524.359 65.032 523.986 65.788C523.613 66.544 523.09 67.118 522.418 67.51C521.746 67.8927 520.962 68.084 520.066 68.084C519.095 68.084 518.321 67.9067 517.742 67.552L518.148 66.74C518.615 67.048 519.249 67.202 520.052 67.202C521.135 67.202 521.984 66.8613 522.6 66.18C523.216 65.4893 523.524 64.4907 523.524 63.184C523.524 62.9413 523.51 62.6753 523.482 62.386C523.239 62.918 522.852 63.3333 522.32 63.632C521.788 63.9213 521.177 64.066 520.486 64.066C519.842 64.066 519.268 63.9447 518.764 63.702C518.269 63.4593 517.882 63.1187 517.602 62.68C517.322 62.232 517.182 61.714 517.182 61.126C517.182 60.5287 517.327 60.0013 517.616 59.544C517.905 59.0867 518.302 58.7367 518.806 58.494C519.319 58.242 519.893 58.116 520.528 58.116ZM520.64 63.212C521.135 63.212 521.569 63.1187 521.942 62.932C522.325 62.7453 522.623 62.4887 522.838 62.162C523.053 61.8353 523.16 61.4713 523.16 61.07C523.16 60.6967 523.057 60.3513 522.852 60.034C522.656 59.7167 522.362 59.46 521.97 59.264C521.578 59.068 521.111 58.97 520.57 58.97C519.861 58.97 519.282 59.166 518.834 59.558C518.395 59.9407 518.176 60.454 518.176 61.098C518.176 61.742 518.395 62.2553 518.834 62.638C519.282 63.0207 519.884 63.212 520.64 63.212ZM531.131 68.084C530.161 68.084 529.283 67.8693 528.499 67.44C527.725 67.0107 527.113 66.418 526.665 65.662C526.227 64.8967 526.007 64.0427 526.007 63.1C526.007 62.1573 526.227 61.308 526.665 60.552C527.113 59.7867 527.729 59.1893 528.513 58.76C529.297 58.3307 530.175 58.116 531.145 58.116C531.873 58.116 532.545 58.2373 533.161 58.48C533.777 58.7227 534.3 59.0773 534.729 59.544L534.071 60.202C533.306 59.4273 532.34 59.04 531.173 59.04C530.399 59.04 529.694 59.2173 529.059 59.572C528.425 59.9267 527.925 60.412 527.561 61.028C527.207 61.644 527.029 62.3347 527.029 63.1C527.029 63.8653 527.207 64.556 527.561 65.172C527.925 65.788 528.425 66.2733 529.059 66.628C529.694 66.9827 530.399 67.16 531.173 67.16C532.349 67.16 533.315 66.768 534.071 65.984L534.729 66.642C534.3 67.1087 533.773 67.468 533.147 67.72C532.531 67.9627 531.859 68.084 531.131 68.084ZM542.986 58.2V58.914L538.884 68H537.792L541.824 59.096H536.784V60.93H535.79V58.2H542.986ZM550.398 65.382H544.938L543.762 68H542.684L547.164 58.2H548.186L552.666 68H551.574L550.398 65.382ZM550.02 64.542L547.668 59.278L545.316 64.542H550.02ZM555.323 59.096V62.946H560.391V63.842H555.323V68H554.287V58.2H561.007V59.096H555.323ZM569.321 62.946C569.965 63.086 570.459 63.366 570.805 63.786C571.159 64.1967 571.337 64.7287 571.337 65.382C571.337 66.222 571.024 66.8707 570.399 67.328C569.783 67.776 568.868 68 567.655 68H563.147V58.2H567.375C568.467 58.2 569.311 58.4193 569.909 58.858C570.515 59.2967 570.819 59.9173 570.819 60.72C570.819 61.2613 570.683 61.7233 570.413 62.106C570.151 62.4793 569.787 62.7593 569.321 62.946ZM564.183 59.054V62.61H567.305C568.098 62.61 568.709 62.4607 569.139 62.162C569.568 61.854 569.783 61.4107 569.783 60.832C569.783 60.2533 569.568 59.8147 569.139 59.516C568.709 59.208 568.098 59.054 567.305 59.054H564.183ZM567.641 67.146C568.518 67.146 569.181 66.9967 569.629 66.698C570.077 66.3993 570.301 65.9327 570.301 65.298C570.301 64.0753 569.414 63.464 567.641 63.464H564.183V67.146H567.641Z" fill="white"/>
<rect width="240" height="310" transform="translate(720)" fill="#EB383A"/>
<path d="M754.728 44L752.726 41.13C752.642 41.1393 752.516 41.144 752.348 41.144H750.136V44H748.316V34.2H752.348C753.197 34.2 753.935 34.34 754.56 34.62C755.195 34.9 755.68 35.3013 756.016 35.824C756.352 36.3467 756.52 36.9673 756.52 37.686C756.52 38.4233 756.338 39.058 755.974 39.59C755.619 40.122 755.106 40.5187 754.434 40.78L756.688 44H754.728ZM754.686 37.686C754.686 37.0607 754.481 36.58 754.07 36.244C753.659 35.908 753.057 35.74 752.264 35.74H750.136V39.646H752.264C753.057 39.646 753.659 39.478 754.07 39.142C754.481 38.7967 754.686 38.3113 754.686 37.686ZM765.906 42.474V44H758.556V34.2H765.71V35.726H760.376V38.274H765.108V39.772H760.376V42.474H765.906ZM767.935 34.2H772.219C773.264 34.2 774.193 34.4053 775.005 34.816C775.817 35.2173 776.447 35.7913 776.895 36.538C777.343 37.2753 777.567 38.1293 777.567 39.1C777.567 40.0707 777.343 40.9293 776.895 41.676C776.447 42.4133 775.817 42.9873 775.005 43.398C774.193 43.7993 773.264 44 772.219 44H767.935V34.2ZM772.135 42.46C772.854 42.46 773.484 42.3247 774.025 42.054C774.576 41.774 774.996 41.382 775.285 40.878C775.584 40.3647 775.733 39.772 775.733 39.1C775.733 38.428 775.584 37.84 775.285 37.336C774.996 36.8227 774.576 36.4307 774.025 36.16C773.484 35.88 772.854 35.74 772.135 35.74H769.755V42.46H772.135Z" fill="white"/>
<path d="M754.252 61.63L753.888 64.57H755.876V65.34H753.79L753.468 68H752.712L753.034 65.34H750.164L749.828 68H749.072L749.394 65.34H747.406V64.57H749.492L749.856 61.63H747.854V60.86H749.954L750.276 58.2H751.046L750.71 60.86H753.594L753.916 58.2H754.672L754.35 60.86H756.324V61.63H754.252ZM753.496 61.63H750.626L750.248 64.57H753.132L753.496 61.63ZM765.274 67.104V68H758.344V58.2H765.064V59.096H759.38V62.582H764.448V63.464H759.38V67.104H765.274ZM773.883 62.946C774.527 63.086 775.022 63.366 775.367 63.786C775.722 64.1967 775.899 64.7287 775.899 65.382C775.899 66.222 775.587 66.8707 774.961 67.328C774.345 67.776 773.431 68 772.217 68H767.709V58.2H771.937C773.029 58.2 773.874 58.4193 774.471 58.858C775.078 59.2967 775.381 59.9173 775.381 60.72C775.381 61.2613 775.246 61.7233 774.975 62.106C774.714 62.4793 774.35 62.7593 773.883 62.946ZM768.745 59.054V62.61H771.867C772.661 62.61 773.272 62.4607 773.701 62.162C774.131 61.854 774.345 61.4107 774.345 60.832C774.345 60.2533 774.131 59.8147 773.701 59.516C773.272 59.208 772.661 59.054 771.867 59.054H768.745ZM772.203 67.146C773.081 67.146 773.743 66.9967 774.191 66.698C774.639 66.3993 774.863 65.9327 774.863 65.298C774.863 64.0753 773.977 63.464 772.203 63.464H768.745V67.146H772.203ZM780.728 62.4C781.755 62.456 782.534 62.736 783.066 63.24C783.607 63.7347 783.878 64.3833 783.878 65.186C783.878 65.746 783.743 66.2453 783.472 66.684C783.201 67.1133 782.8 67.454 782.268 67.706C781.736 67.958 781.087 68.084 780.322 68.084C779.613 68.084 778.941 67.972 778.306 67.748C777.681 67.5147 777.177 67.2067 776.794 66.824L777.284 66.026C777.611 66.362 778.045 66.6373 778.586 66.852C779.127 67.0573 779.706 67.16 780.322 67.16C781.125 67.16 781.745 66.9873 782.184 66.642C782.623 66.2873 782.842 65.802 782.842 65.186C782.842 64.5793 782.623 64.1033 782.184 63.758C781.745 63.4127 781.083 63.24 780.196 63.24H779.496V62.498L782.212 59.096H777.2V58.2H783.5V58.914L780.728 62.4ZM790.912 62.862C791.528 63.0673 792 63.3753 792.326 63.786C792.662 64.1967 792.83 64.6913 792.83 65.27C792.83 65.8393 792.676 66.3387 792.368 66.768C792.06 67.188 791.617 67.5147 791.038 67.748C790.469 67.972 789.797 68.084 789.022 68.084C787.846 68.084 786.922 67.832 786.25 67.328C785.578 66.824 785.242 66.138 785.242 65.27C785.242 64.682 785.401 64.1873 785.718 63.786C786.045 63.3753 786.516 63.0673 787.132 62.862C786.628 62.666 786.246 62.386 785.984 62.022C785.723 61.6487 785.592 61.21 785.592 60.706C785.592 59.9127 785.9 59.2827 786.516 58.816C787.142 58.3493 787.977 58.116 789.022 58.116C789.713 58.116 790.315 58.2233 790.828 58.438C791.351 58.6433 791.757 58.942 792.046 59.334C792.336 59.726 792.48 60.1833 792.48 60.706C792.48 61.21 792.345 61.6487 792.074 62.022C791.804 62.386 791.416 62.666 790.912 62.862ZM786.6 60.734C786.6 61.2753 786.815 61.7047 787.244 62.022C787.674 62.3393 788.266 62.498 789.022 62.498C789.778 62.498 790.371 62.3393 790.8 62.022C791.239 61.7047 791.458 61.28 791.458 60.748C791.458 60.1973 791.234 59.7633 790.786 59.446C790.348 59.1287 789.76 58.97 789.022 58.97C788.276 58.97 787.683 59.1287 787.244 59.446C786.815 59.7633 786.6 60.1927 786.6 60.734ZM789.022 67.23C789.89 67.23 790.567 67.0527 791.052 66.698C791.547 66.3433 791.794 65.8627 791.794 65.256C791.794 64.6493 791.547 64.1733 791.052 63.828C790.567 63.4733 789.89 63.296 789.022 63.296C788.164 63.296 787.487 63.4733 786.992 63.828C786.507 64.1733 786.264 64.6493 786.264 65.256C786.264 65.872 786.507 66.3573 786.992 66.712C787.478 67.0573 788.154 67.23 789.022 67.23ZM797.558 62.4C798.585 62.456 799.364 62.736 799.896 63.24C800.437 63.7347 800.708 64.3833 800.708 65.186C800.708 65.746 800.573 66.2453 800.302 66.684C800.031 67.1133 799.63 67.454 799.098 67.706C798.566 67.958 797.917 68.084 797.152 68.084C796.443 68.084 795.771 67.972 795.136 67.748C794.511 67.5147 794.007 67.2067 793.624 66.824L794.114 66.026C794.441 66.362 794.875 66.6373 795.416 66.852C795.957 67.0573 796.536 67.16 797.152 67.16C797.955 67.16 798.575 66.9873 799.014 66.642C799.453 66.2873 799.672 65.802 799.672 65.186C799.672 64.5793 799.453 64.1033 799.014 63.758C798.575 63.4127 797.913 63.24 797.026 63.24H796.326V62.498L799.042 59.096H794.03V58.2H800.33V58.914L797.558 62.4ZM809.197 65.382H803.737L802.561 68H801.483L805.963 58.2H806.985L811.465 68H810.373L809.197 65.382ZM808.819 64.542L806.467 59.278L804.115 64.542H808.819Z" fill="white"/>
<rect width="240" height="310" transform="translate(960)" fill="#80EFC7"/>
<path d="M997.318 44L997.304 37.504L994.084 42.88H993.272L990.052 37.588V44H988.316V34.2H989.814L993.706 40.696L997.528 34.2H999.026L999.04 44H997.318ZM1001.69 34.2H1003.51V44H1001.69V34.2ZM1014.87 34.2V44H1013.37L1007.96 37.364V44H1006.16V34.2H1007.66L1013.06 40.836V34.2H1014.87ZM1019.48 35.74H1016.23V34.2H1024.55V35.74H1021.3V44H1019.48V35.74ZM1036.47 38.988H1038.2V42.894C1037.69 43.2953 1037.1 43.6033 1036.43 43.818C1035.76 44.0327 1035.07 44.14 1034.36 44.14C1033.36 44.14 1032.46 43.9253 1031.66 43.496C1030.86 43.0573 1030.23 42.4553 1029.77 41.69C1029.31 40.9247 1029.08 40.0613 1029.08 39.1C1029.08 38.1387 1029.31 37.2753 1029.77 36.51C1030.23 35.7447 1030.86 35.1473 1031.66 34.718C1032.47 34.2793 1033.38 34.06 1034.39 34.06C1035.21 34.06 1035.96 34.1953 1036.63 34.466C1037.3 34.7367 1037.87 35.1333 1038.32 35.656L1037.17 36.776C1036.43 36.0293 1035.53 35.656 1034.47 35.656C1033.78 35.656 1033.17 35.8007 1032.62 36.09C1032.09 36.3793 1031.67 36.7853 1031.36 37.308C1031.07 37.8307 1030.92 38.428 1030.92 39.1C1030.92 39.7533 1031.07 40.3413 1031.36 40.864C1031.67 41.3867 1032.09 41.7973 1032.62 42.096C1033.17 42.3947 1033.78 42.544 1034.46 42.544C1035.22 42.544 1035.9 42.376 1036.47 42.04V38.988ZM1047.01 44L1045.01 41.13C1044.92 41.1393 1044.8 41.144 1044.63 41.144H1042.42V44H1040.6V34.2H1044.63C1045.48 34.2 1046.22 34.34 1046.84 34.62C1047.48 34.9 1047.96 35.3013 1048.3 35.824C1048.63 36.3467 1048.8 36.9673 1048.8 37.686C1048.8 38.4233 1048.62 39.058 1048.26 39.59C1047.9 40.122 1047.39 40.5187 1046.72 40.78L1048.97 44H1047.01ZM1046.97 37.686C1046.97 37.0607 1046.76 36.58 1046.35 36.244C1045.94 35.908 1045.34 35.74 1044.55 35.74H1042.42V39.646H1044.55C1045.34 39.646 1045.94 39.478 1046.35 39.142C1046.76 38.7967 1046.97 38.3113 1046.97 37.686ZM1058.19 42.474V44H1050.84V34.2H1057.99V35.726H1052.66V38.274H1057.39V39.772H1052.66V42.474H1058.19ZM1067.57 42.474V44H1060.22V34.2H1067.37V35.726H1062.04V38.274H1066.77V39.772H1062.04V42.474H1067.57ZM1078.3 34.2V44H1076.81L1071.4 37.364V44H1069.6V34.2H1071.09L1076.5 40.836V34.2H1078.3Z" fill="#333333"/>
<path d="M994.252 61.63L993.888 64.57H995.876V65.34H993.79L993.468 68H992.712L993.034 65.34H990.164L989.828 68H989.072L989.394 65.34H987.406V64.57H989.492L989.856 61.63H987.854V60.86H989.954L990.276 58.2H991.046L990.71 60.86H993.594L993.916 58.2H994.672L994.35 60.86H996.324V61.63H994.252ZM993.496 61.63H990.626L990.248 64.57H993.132L993.496 61.63ZM1003.09 62.862C1003.71 63.0673 1004.18 63.3753 1004.5 63.786C1004.84 64.1967 1005.01 64.6913 1005.01 65.27C1005.01 65.8393 1004.85 66.3387 1004.55 66.768C1004.24 67.188 1003.79 67.5147 1003.22 67.748C1002.65 67.972 1001.97 68.084 1001.2 68.084C1000.02 68.084 999.1 67.832 998.428 67.328C997.756 66.824 997.42 66.138 997.42 65.27C997.42 64.682 997.579 64.1873 997.896 63.786C998.223 63.3753 998.694 63.0673 999.31 62.862C998.806 62.666 998.423 62.386 998.162 62.022C997.901 61.6487 997.77 61.21 997.77 60.706C997.77 59.9127 998.078 59.2827 998.694 58.816C999.319 58.3493 1000.15 58.116 1001.2 58.116C1001.89 58.116 1002.49 58.2233 1003.01 58.438C1003.53 58.6433 1003.93 58.942 1004.22 59.334C1004.51 59.726 1004.66 60.1833 1004.66 60.706C1004.66 61.21 1004.52 61.6487 1004.25 62.022C1003.98 62.386 1003.59 62.666 1003.09 62.862ZM998.778 60.734C998.778 61.2753 998.993 61.7047 999.422 62.022C999.851 62.3393 1000.44 62.498 1001.2 62.498C1001.96 62.498 1002.55 62.3393 1002.98 62.022C1003.42 61.7047 1003.64 61.28 1003.64 60.748C1003.64 60.1973 1003.41 59.7633 1002.96 59.446C1002.53 59.1287 1001.94 58.97 1001.2 58.97C1000.45 58.97 999.861 59.1287 999.422 59.446C998.993 59.7633 998.778 60.1927 998.778 60.734ZM1001.2 67.23C1002.07 67.23 1002.74 67.0527 1003.23 66.698C1003.72 66.3433 1003.97 65.8627 1003.97 65.256C1003.97 64.6493 1003.72 64.1733 1003.23 63.828C1002.74 63.4733 1002.07 63.296 1001.2 63.296C1000.34 63.296 999.665 63.4733 999.17 63.828C998.685 64.1733 998.442 64.6493 998.442 65.256C998.442 65.872 998.685 66.3573 999.17 66.712C999.655 67.0573 1000.33 67.23 1001.2 67.23ZM1010.31 68.084C1009.55 68.084 1008.88 67.8833 1008.28 67.482C1007.69 67.0807 1007.23 66.5067 1006.89 65.76C1006.57 65.004 1006.4 64.1173 1006.4 63.1C1006.4 62.0827 1006.57 61.2007 1006.89 60.454C1007.23 59.698 1007.69 59.1193 1008.28 58.718C1008.88 58.3167 1009.55 58.116 1010.31 58.116C1011.07 58.116 1011.74 58.3167 1012.33 58.718C1012.92 59.1193 1013.39 59.698 1013.73 60.454C1014.06 61.2007 1014.23 62.0827 1014.23 63.1C1014.23 64.1173 1014.06 65.004 1013.73 65.76C1013.39 66.5067 1012.92 67.0807 1012.33 67.482C1011.74 67.8833 1011.07 68.084 1010.31 68.084ZM1010.31 67.16C1010.88 67.16 1011.38 67.0013 1011.81 66.684C1012.25 66.3667 1012.59 65.9047 1012.83 65.298C1013.07 64.6913 1013.19 63.9587 1013.19 63.1C1013.19 62.2413 1013.07 61.5087 1012.83 60.902C1012.59 60.2953 1012.25 59.8333 1011.81 59.516C1011.38 59.1987 1010.88 59.04 1010.31 59.04C1009.74 59.04 1009.24 59.1987 1008.8 59.516C1008.37 59.8333 1008.03 60.2953 1007.79 60.902C1007.55 61.5087 1007.43 62.2413 1007.43 63.1C1007.43 63.9587 1007.55 64.6913 1007.79 65.298C1008.03 65.9047 1008.37 66.3667 1008.8 66.684C1009.24 67.0013 1009.74 67.16 1010.31 67.16ZM1023.47 67.104V68H1016.54V58.2H1023.26V59.096H1017.58V62.582H1022.65V63.464H1017.58V67.104H1023.47ZM1026.94 59.096V62.946H1032.01V63.842H1026.94V68H1025.91V58.2H1032.63V59.096H1026.94ZM1038.9 68.084C1037.93 68.084 1037.05 67.8693 1036.27 67.44C1035.49 67.0107 1034.88 66.418 1034.43 65.662C1033.99 64.8967 1033.77 64.0427 1033.77 63.1C1033.77 62.1573 1033.99 61.308 1034.43 60.552C1034.88 59.7867 1035.5 59.1893 1036.28 58.76C1037.06 58.3307 1037.94 58.116 1038.91 58.116C1039.64 58.116 1040.31 58.2373 1040.93 58.48C1041.54 58.7227 1042.07 59.0773 1042.5 59.544L1041.84 60.202C1041.07 59.4273 1040.11 59.04 1038.94 59.04C1038.17 59.04 1037.46 59.2173 1036.83 59.572C1036.19 59.9267 1035.69 60.412 1035.33 61.028C1034.97 61.644 1034.8 62.3347 1034.8 63.1C1034.8 63.8653 1034.97 64.556 1035.33 65.172C1035.69 65.788 1036.19 66.2733 1036.83 66.628C1037.46 66.9827 1038.17 67.16 1038.94 67.16C1040.12 67.16 1041.08 66.768 1041.84 65.984L1042.5 66.642C1042.07 67.1087 1041.54 67.468 1040.91 67.72C1040.3 67.9627 1039.63 68.084 1038.9 68.084ZM1050.75 58.2V58.914L1046.65 68H1045.56L1049.59 59.096H1044.55V60.93H1043.56V58.2H1050.75Z" fill="#333333"/>
<rect width="240" height="310" transform="translate(0 310)" fill="#FFA553"/>
<path d="M30.304 345.74H27.056V344.2H35.372V345.74H32.124V354H30.304V345.74ZM42.6017 351.732H37.7017L36.7357 354H34.8597L39.2697 344.2H41.0617L45.4857 354H43.5817L42.6017 351.732ZM41.9997 350.304L40.1517 346.02L38.3177 350.304H41.9997ZM55.44 344.2V354H53.942L48.538 347.364V354H46.732V344.2H48.23L53.634 350.836V344.2H55.44ZM64.758 348.988H66.48V352.894C65.976 353.295 65.388 353.603 64.716 353.818C64.044 354.033 63.3533 354.14 62.644 354.14C61.6453 354.14 60.7447 353.925 59.942 353.496C59.1393 353.057 58.5093 352.455 58.052 351.69C57.5947 350.925 57.366 350.061 57.366 349.1C57.366 348.139 57.5947 347.275 58.052 346.51C58.5093 345.745 59.1393 345.147 59.942 344.718C60.754 344.279 61.664 344.06 62.672 344.06C63.4933 344.06 64.24 344.195 64.912 344.466C65.584 344.737 66.1487 345.133 66.606 345.656L65.458 346.776C64.7113 346.029 63.8107 345.656 62.756 345.656C62.0653 345.656 61.4493 345.801 60.908 346.09C60.376 346.379 59.956 346.785 59.648 347.308C59.3493 347.831 59.2 348.428 59.2 349.1C59.2 349.753 59.3493 350.341 59.648 350.864C59.956 351.387 60.376 351.797 60.908 352.096C61.4493 352.395 62.0607 352.544 62.742 352.544C63.5073 352.544 64.1793 352.376 64.758 352.04V348.988ZM76.2305 352.474V354H68.8805V344.2H76.0345V345.726H70.7005V348.274H75.4325V349.772H70.7005V352.474H76.2305ZM84.6714 354L82.6694 351.13C82.5854 351.139 82.4594 351.144 82.2914 351.144H80.0794V354H78.2594V344.2H82.2914C83.1407 344.2 83.878 344.34 84.5034 344.62C85.138 344.9 85.6234 345.301 85.9594 345.824C86.2954 346.347 86.4634 346.967 86.4634 347.686C86.4634 348.423 86.2814 349.058 85.9174 349.59C85.5627 350.122 85.0494 350.519 84.3774 350.78L86.6314 354H84.6714ZM84.6294 347.686C84.6294 347.061 84.424 346.58 84.0134 346.244C83.6027 345.908 83.0007 345.74 82.2074 345.74H80.0794V349.646H82.2074C83.0007 349.646 83.6027 349.478 84.0134 349.142C84.424 348.797 84.6294 348.311 84.6294 347.686ZM88.4996 344.2H90.3196V354H88.4996V344.2ZM101.678 344.2V354H100.18L94.7763 347.364V354H92.9703V344.2H94.4683L99.8723 350.836V344.2H101.678ZM111.654 352.474V354H104.304V344.2H111.458V345.726H106.124V348.274H110.856V349.772H106.124V352.474H111.654ZM122.13 354.14C121.132 354.14 120.231 353.925 119.428 353.496C118.626 353.057 117.996 352.455 117.538 351.69C117.081 350.915 116.852 350.052 116.852 349.1C116.852 348.148 117.081 347.289 117.538 346.524C117.996 345.749 118.626 345.147 119.428 344.718C120.231 344.279 121.132 344.06 122.13 344.06C123.129 344.06 124.03 344.279 124.832 344.718C125.635 345.147 126.265 345.745 126.722 346.51C127.18 347.275 127.408 348.139 127.408 349.1C127.408 350.061 127.18 350.925 126.722 351.69C126.265 352.455 125.635 353.057 124.832 353.496C124.03 353.925 123.129 354.14 122.13 354.14ZM122.13 352.544C122.784 352.544 123.372 352.399 123.894 352.11C124.417 351.811 124.828 351.401 125.126 350.878C125.425 350.346 125.574 349.753 125.574 349.1C125.574 348.447 125.425 347.859 125.126 347.336C124.828 346.804 124.417 346.393 123.894 346.104C123.372 345.805 122.784 345.656 122.13 345.656C121.477 345.656 120.889 345.805 120.366 346.104C119.844 346.393 119.433 346.804 119.134 347.336C118.836 347.859 118.686 348.447 118.686 349.1C118.686 349.753 118.836 350.346 119.134 350.878C119.433 351.401 119.844 351.811 120.366 352.11C120.889 352.399 121.477 352.544 122.13 352.544ZM135.749 354L133.747 351.13C133.663 351.139 133.537 351.144 133.369 351.144H131.157V354H129.337V344.2H133.369C134.219 344.2 134.956 344.34 135.581 344.62C136.216 344.9 136.701 345.301 137.037 345.824C137.373 346.347 137.541 346.967 137.541 347.686C137.541 348.423 137.359 349.058 136.995 349.59C136.641 350.122 136.127 350.519 135.455 350.78L137.709 354H135.749ZM135.707 347.686C135.707 347.061 135.502 346.58 135.091 346.244C134.681 345.908 134.079 345.74 133.285 345.74H131.157V349.646H133.285C134.079 349.646 134.681 349.478 135.091 349.142C135.502 348.797 135.707 348.311 135.707 347.686ZM145.934 351.732H141.034L140.068 354H138.192L142.602 344.2H144.394L148.818 354H146.914L145.934 351.732ZM145.332 350.304L143.484 346.02L141.65 350.304H145.332ZM158.772 344.2V354H157.274L151.87 347.364V354H150.064V344.2H151.562L156.966 350.836V344.2H158.772ZM168.09 348.988H169.812V352.894C169.308 353.295 168.72 353.603 168.048 353.818C167.376 354.033 166.685 354.14 165.976 354.14C164.977 354.14 164.077 353.925 163.274 353.496C162.471 353.057 161.841 352.455 161.384 351.69C160.927 350.925 160.698 350.061 160.698 349.1C160.698 348.139 160.927 347.275 161.384 346.51C161.841 345.745 162.471 345.147 163.274 344.718C164.086 344.279 164.996 344.06 166.004 344.06C166.825 344.06 167.572 344.195 168.244 344.466C168.916 344.737 169.481 345.133 169.938 345.656L168.79 346.776C168.043 346.029 167.143 345.656 166.088 345.656C165.397 345.656 164.781 345.801 164.24 346.09C163.708 346.379 163.288 346.785 162.98 347.308C162.681 347.831 162.532 348.428 162.532 349.1C162.532 349.753 162.681 350.341 162.98 350.864C163.288 351.387 163.708 351.797 164.24 352.096C164.781 352.395 165.393 352.544 166.074 352.544C166.839 352.544 167.511 352.376 168.09 352.04V348.988ZM179.562 352.474V354H172.212V344.2H179.366V345.726H174.032V348.274H178.764V349.772H174.032V352.474H179.562Z" fill="white"/>
<path d="M34.252 371.63L33.888 374.57H35.876V375.34H33.79L33.468 378H32.712L33.034 375.34H30.164L29.828 378H29.072L29.394 375.34H27.406V374.57H29.492L29.856 371.63H27.854V370.86H29.954L30.276 368.2H31.046L30.71 370.86H33.594L33.916 368.2H34.672L34.35 370.86H36.324V371.63H34.252ZM33.496 371.63H30.626L30.248 374.57H33.132L33.496 371.63ZM39.38 369.096V372.946H44.448V373.842H39.38V378H38.344V368.2H45.064V369.096H39.38ZM48.2394 369.096V372.946H53.3074V373.842H48.2394V378H47.2034V368.2H53.9234V369.096H48.2394ZM61.744 375.382H56.284L55.108 378H54.03L58.51 368.2H59.532L64.012 378H62.92L61.744 375.382ZM61.366 374.542L59.014 369.278L56.662 374.542H61.366ZM67.3411 372.218C68.7598 372.218 69.7911 372.475 70.4351 372.988C71.0884 373.492 71.4151 374.201 71.4151 375.116C71.4151 375.685 71.2798 376.194 71.0091 376.642C70.7478 377.09 70.3511 377.445 69.8191 377.706C69.2871 377.958 68.6338 378.084 67.8591 378.084C67.1591 378.084 66.4918 377.972 65.8571 377.748C65.2318 377.515 64.7278 377.207 64.3451 376.824L64.8351 376.026C65.1618 376.362 65.5911 376.637 66.1231 376.852C66.6551 377.057 67.2291 377.16 67.8451 377.16C68.6571 377.16 69.2824 376.978 69.7211 376.614C70.1691 376.25 70.3931 375.765 70.3931 375.158C70.3931 374.486 70.1411 373.977 69.6371 373.632C69.1424 373.287 68.3024 373.114 67.1171 373.114H65.0311L65.5351 368.2H70.8971V369.096H66.4171L66.0811 372.218H67.3411ZM75.2024 372.218C76.6211 372.218 77.6524 372.475 78.2964 372.988C78.9498 373.492 79.2764 374.201 79.2764 375.116C79.2764 375.685 79.1411 376.194 78.8704 376.642C78.6091 377.09 78.2124 377.445 77.6804 377.706C77.1484 377.958 76.4951 378.084 75.7204 378.084C75.0204 378.084 74.3531 377.972 73.7184 377.748C73.0931 377.515 72.5891 377.207 72.2064 376.824L72.6964 376.026C73.0231 376.362 73.4524 376.637 73.9844 376.852C74.5164 377.057 75.0904 377.16 75.7064 377.16C76.5184 377.16 77.1438 376.978 77.5824 376.614C78.0304 376.25 78.2544 375.765 78.2544 375.158C78.2544 374.486 78.0024 373.977 77.4984 373.632C77.0038 373.287 76.1638 373.114 74.9784 373.114H72.8924L73.3964 368.2H78.7584V369.096H74.2784L73.9424 372.218H75.2024ZM83.8198 372.4C84.8464 372.456 85.6258 372.736 86.1578 373.24C86.6991 373.735 86.9698 374.383 86.9698 375.186C86.9698 375.746 86.8344 376.245 86.5638 376.684C86.2931 377.113 85.8918 377.454 85.3598 377.706C84.8278 377.958 84.1791 378.084 83.4138 378.084C82.7044 378.084 82.0324 377.972 81.3978 377.748C80.7724 377.515 80.2684 377.207 79.8858 376.824L80.3758 376.026C80.7024 376.362 81.1364 376.637 81.6778 376.852C82.2191 377.057 82.7978 377.16 83.4138 377.16C84.2164 377.16 84.8371 376.987 85.2758 376.642C85.7144 376.287 85.9338 375.802 85.9338 375.186C85.9338 374.579 85.7144 374.103 85.2758 373.758C84.8371 373.413 84.1744 373.24 83.2878 373.24H82.5878V372.498L85.3038 369.096H80.2918V368.2H86.5918V368.914L83.8198 372.4Z" fill="white"/>
<rect width="240" height="310" transform="translate(240 310)" fill="#FFBDF2"/>
<path d="M272.852 354.14C271.863 354.14 270.967 353.925 270.164 353.496C269.371 353.057 268.745 352.455 268.288 351.69C267.84 350.925 267.616 350.061 267.616 349.1C267.616 348.139 267.845 347.275 268.302 346.51C268.759 345.745 269.385 345.147 270.178 344.718C270.981 344.279 271.877 344.06 272.866 344.06C273.669 344.06 274.401 344.2 275.064 344.48C275.727 344.76 276.287 345.166 276.744 345.698L275.568 346.804C274.859 346.039 273.986 345.656 272.95 345.656C272.278 345.656 271.676 345.805 271.144 346.104C270.612 346.393 270.197 346.799 269.898 347.322C269.599 347.845 269.45 348.437 269.45 349.1C269.45 349.763 269.599 350.355 269.898 350.878C270.197 351.401 270.612 351.811 271.144 352.11C271.676 352.399 272.278 352.544 272.95 352.544C273.986 352.544 274.859 352.157 275.568 351.382L276.744 352.502C276.287 353.034 275.722 353.44 275.05 353.72C274.387 354 273.655 354.14 272.852 354.14ZM282.861 354.14C281.862 354.14 280.961 353.925 280.159 353.496C279.356 353.057 278.726 352.455 278.269 351.69C277.811 350.915 277.583 350.052 277.583 349.1C277.583 348.148 277.811 347.289 278.269 346.524C278.726 345.749 279.356 345.147 280.159 344.718C280.961 344.279 281.862 344.06 282.861 344.06C283.859 344.06 284.76 344.279 285.563 344.718C286.365 345.147 286.995 345.745 287.453 346.51C287.91 347.275 288.139 348.139 288.139 349.1C288.139 350.061 287.91 350.925 287.453 351.69C286.995 352.455 286.365 353.057 285.563 353.496C284.76 353.925 283.859 354.14 282.861 354.14ZM282.861 352.544C283.514 352.544 284.102 352.399 284.625 352.11C285.147 351.811 285.558 351.401 285.857 350.878C286.155 350.346 286.305 349.753 286.305 349.1C286.305 348.447 286.155 347.859 285.857 347.336C285.558 346.804 285.147 346.393 284.625 346.104C284.102 345.805 283.514 345.656 282.861 345.656C282.207 345.656 281.619 345.805 281.097 346.104C280.574 346.393 280.163 346.804 279.865 347.336C279.566 347.859 279.417 348.447 279.417 349.1C279.417 349.753 279.566 350.346 279.865 350.878C280.163 351.401 280.574 351.811 281.097 352.11C281.619 352.399 282.207 352.544 282.861 352.544ZM291.919 345.74H288.671V344.2H296.987V345.74H293.739V354H291.919V345.74ZM300.478 345.74H297.23V344.2H305.546V345.74H302.298V354H300.478V345.74ZM311.353 354.14C310.354 354.14 309.454 353.925 308.651 353.496C307.848 353.057 307.218 352.455 306.761 351.69C306.304 350.915 306.075 350.052 306.075 349.1C306.075 348.148 306.304 347.289 306.761 346.524C307.218 345.749 307.848 345.147 308.651 344.718C309.454 344.279 310.354 344.06 311.353 344.06C312.352 344.06 313.252 344.279 314.055 344.718C314.858 345.147 315.488 345.745 315.945 346.51C316.402 347.275 316.631 348.139 316.631 349.1C316.631 350.061 316.402 350.925 315.945 351.69C315.488 352.455 314.858 353.057 314.055 353.496C313.252 353.925 312.352 354.14 311.353 354.14ZM311.353 352.544C312.006 352.544 312.594 352.399 313.117 352.11C313.64 351.811 314.05 351.401 314.349 350.878C314.648 350.346 314.797 349.753 314.797 349.1C314.797 348.447 314.648 347.859 314.349 347.336C314.05 346.804 313.64 346.393 313.117 346.104C312.594 345.805 312.006 345.656 311.353 345.656C310.7 345.656 310.112 345.805 309.589 346.104C309.066 346.393 308.656 346.804 308.357 347.336C308.058 347.859 307.909 348.447 307.909 349.1C307.909 349.753 308.058 350.346 308.357 350.878C308.656 351.401 309.066 351.811 309.589 352.11C310.112 352.399 310.7 352.544 311.353 352.544ZM327.268 344.2V354H325.77L320.366 347.364V354H318.56V344.2H320.058L325.462 350.836V344.2H327.268ZM338.299 354.14C337.31 354.14 336.414 353.925 335.611 353.496C334.818 353.057 334.193 352.455 333.735 351.69C333.287 350.925 333.063 350.061 333.063 349.1C333.063 348.139 333.292 347.275 333.749 346.51C334.207 345.745 334.832 345.147 335.625 344.718C336.428 344.279 337.324 344.06 338.313 344.06C339.116 344.06 339.849 344.2 340.511 344.48C341.174 344.76 341.734 345.166 342.191 345.698L341.015 346.804C340.306 346.039 339.433 345.656 338.397 345.656C337.725 345.656 337.123 345.805 336.591 346.104C336.059 346.393 335.644 346.799 335.345 347.322C335.047 347.845 334.897 348.437 334.897 349.1C334.897 349.763 335.047 350.355 335.345 350.878C335.644 351.401 336.059 351.811 336.591 352.11C337.123 352.399 337.725 352.544 338.397 352.544C339.433 352.544 340.306 352.157 341.015 351.382L342.191 352.502C341.734 353.034 341.169 353.44 340.497 353.72C339.835 354 339.102 354.14 338.299 354.14ZM350.086 351.732H345.186L344.22 354H342.344L346.754 344.2H348.546L352.97 354H351.066L350.086 351.732ZM349.484 350.304L347.636 346.02L345.802 350.304H349.484ZM362.924 344.2V354H361.426L356.022 347.364V354H354.216V344.2H355.714L361.118 350.836V344.2H362.924ZM365.55 344.2H369.834C370.88 344.2 371.808 344.405 372.62 344.816C373.432 345.217 374.062 345.791 374.51 346.538C374.958 347.275 375.182 348.129 375.182 349.1C375.182 350.071 374.958 350.929 374.51 351.676C374.062 352.413 373.432 352.987 372.62 353.398C371.808 353.799 370.88 354 369.834 354H365.55V344.2ZM369.75 352.46C370.469 352.46 371.099 352.325 371.64 352.054C372.191 351.774 372.611 351.382 372.9 350.878C373.199 350.365 373.348 349.772 373.348 349.1C373.348 348.428 373.199 347.84 372.9 347.336C372.611 346.823 372.191 346.431 371.64 346.16C371.099 345.88 370.469 345.74 369.75 345.74H367.37V352.46H369.75ZM380.921 350.542V354H379.101V350.57L375.251 344.2H377.197L380.067 348.974L382.965 344.2H384.757L380.921 350.542Z" fill="white"/>
<path d="M274.252 371.63L273.888 374.57H275.876V375.34H273.79L273.468 378H272.712L273.034 375.34H270.164L269.828 378H269.072L269.394 375.34H267.406V374.57H269.492L269.856 371.63H267.854V370.86H269.954L270.276 368.2H271.046L270.71 370.86H273.594L273.916 368.2H274.672L274.35 370.86H276.324V371.63H274.252ZM273.496 371.63H270.626L270.248 374.57H273.132L273.496 371.63ZM279.38 369.096V372.946H284.448V373.842H279.38V378H278.344V368.2H285.064V369.096H279.38ZM288.239 369.096V372.946H293.307V373.842H288.239V378H287.203V368.2H293.923V369.096H288.239ZM302.237 372.946C302.881 373.086 303.375 373.366 303.721 373.786C304.075 374.197 304.253 374.729 304.253 375.382C304.253 376.222 303.94 376.871 303.315 377.328C302.699 377.776 301.784 378 300.571 378H296.063V368.2H300.291C301.383 368.2 302.227 368.419 302.825 368.858C303.431 369.297 303.735 369.917 303.735 370.72C303.735 371.261 303.599 371.723 303.329 372.106C303.067 372.479 302.703 372.759 302.237 372.946ZM297.099 369.054V372.61H300.221C301.014 372.61 301.625 372.461 302.055 372.162C302.484 371.854 302.699 371.411 302.699 370.832C302.699 370.253 302.484 369.815 302.055 369.516C301.625 369.208 301.014 369.054 300.221 369.054H297.099ZM300.557 377.146C301.434 377.146 302.097 376.997 302.545 376.698C302.993 376.399 303.217 375.933 303.217 375.298C303.217 374.075 302.33 373.464 300.557 373.464H297.099V377.146H300.557ZM306.617 368.2H310.607C311.643 368.2 312.558 368.41 313.351 368.83C314.145 369.241 314.761 369.819 315.199 370.566C315.638 371.303 315.857 372.148 315.857 373.1C315.857 374.052 315.638 374.901 315.199 375.648C314.761 376.385 314.145 376.964 313.351 377.384C312.558 377.795 311.643 378 310.607 378H306.617V368.2ZM310.551 377.104C311.41 377.104 312.161 376.936 312.805 376.6C313.449 376.255 313.949 375.783 314.303 375.186C314.658 374.579 314.835 373.884 314.835 373.1C314.835 372.316 314.658 371.625 314.303 371.028C313.949 370.421 313.449 369.95 312.805 369.614C312.161 369.269 311.41 369.096 310.551 369.096H307.653V377.104H310.551ZM319.22 369.096V372.946H324.288V373.842H319.22V378H318.184V368.2H324.904V369.096H319.22ZM332.854 377.104V378H325.98V377.286L330.054 373.296C330.567 372.792 330.912 372.358 331.09 371.994C331.276 371.621 331.37 371.247 331.37 370.874C331.37 370.295 331.169 369.847 330.768 369.53C330.376 369.203 329.811 369.04 329.074 369.04C327.926 369.04 327.034 369.404 326.4 370.132L325.686 369.516C326.068 369.068 326.554 368.723 327.142 368.48C327.739 368.237 328.411 368.116 329.158 368.116C330.156 368.116 330.945 368.354 331.524 368.83C332.112 369.297 332.406 369.941 332.406 370.762C332.406 371.266 332.294 371.751 332.07 372.218C331.846 372.685 331.421 373.221 330.796 373.828L327.464 377.104H332.854Z" fill="white"/>
<rect width="240" height="310" transform="translate(480 310)" fill="#D6F5FF"/>
<path d="M511.354 354.14C510.598 354.14 509.865 354.033 509.156 353.818C508.456 353.603 507.901 353.319 507.49 352.964L508.12 351.55C508.521 351.867 509.011 352.129 509.59 352.334C510.178 352.53 510.766 352.628 511.354 352.628C512.082 352.628 512.623 352.511 512.978 352.278C513.342 352.045 513.524 351.737 513.524 351.354C513.524 351.074 513.421 350.845 513.216 350.668C513.02 350.481 512.768 350.337 512.46 350.234C512.152 350.131 511.732 350.015 511.2 349.884C510.453 349.707 509.847 349.529 509.38 349.352C508.923 349.175 508.526 348.899 508.19 348.526C507.863 348.143 507.7 347.63 507.7 346.986C507.7 346.445 507.845 345.955 508.134 345.516C508.433 345.068 508.876 344.713 509.464 344.452C510.061 344.191 510.789 344.06 511.648 344.06C512.245 344.06 512.833 344.135 513.412 344.284C513.991 344.433 514.49 344.648 514.91 344.928L514.336 346.342C513.907 346.09 513.459 345.899 512.992 345.768C512.525 345.637 512.073 345.572 511.634 345.572C510.915 345.572 510.379 345.693 510.024 345.936C509.679 346.179 509.506 346.501 509.506 346.902C509.506 347.182 509.604 347.411 509.8 347.588C510.005 347.765 510.262 347.905 510.57 348.008C510.878 348.111 511.298 348.227 511.83 348.358C512.558 348.526 513.155 348.703 513.622 348.89C514.089 349.067 514.485 349.343 514.812 349.716C515.148 350.089 515.316 350.593 515.316 351.228C515.316 351.769 515.167 352.259 514.868 352.698C514.579 353.137 514.135 353.487 513.538 353.748C512.941 354.009 512.213 354.14 511.354 354.14ZM520.495 349.898L518.941 351.494V354H517.121V344.2H518.941V349.226L523.785 344.2H525.829L521.713 348.582L526.081 354H523.953L520.495 349.898ZM530.851 350.542V354H529.031V350.57L525.181 344.2H527.127L529.997 348.974L532.895 344.2H534.687L530.851 350.542ZM546.692 348.904C547.233 349.081 547.662 349.38 547.98 349.8C548.297 350.211 548.456 350.724 548.456 351.34C548.456 352.189 548.129 352.847 547.476 353.314C546.822 353.771 545.87 354 544.62 354H539.748V344.2H544.34C545.497 344.2 546.388 344.429 547.014 344.886C547.639 345.334 547.952 345.955 547.952 346.748C547.952 347.233 547.84 347.663 547.616 348.036C547.392 348.409 547.084 348.699 546.692 348.904ZM541.568 345.628V348.33H544.144C544.778 348.33 545.264 348.218 545.6 347.994C545.945 347.761 546.118 347.425 546.118 346.986C546.118 346.538 545.945 346.202 545.6 345.978C545.264 345.745 544.778 345.628 544.144 345.628H541.568ZM544.508 352.572C545.917 352.572 546.622 352.101 546.622 351.158C546.622 350.215 545.917 349.744 544.508 349.744H541.568V352.572H544.508ZM550.398 344.2H552.218V352.46H557.342V354H550.398V344.2ZM562.856 354.14C561.503 354.14 560.448 353.762 559.692 353.006C558.936 352.241 558.558 351.149 558.558 349.73V344.2H560.378V349.66C560.378 351.583 561.209 352.544 562.87 352.544C564.522 352.544 565.348 351.583 565.348 349.66V344.2H567.14V349.73C567.14 351.149 566.762 352.241 566.006 353.006C565.26 353.762 564.21 354.14 562.856 354.14ZM577.039 352.474V354H569.689V344.2H576.843V345.726H571.509V348.274H576.241V349.772H571.509V352.474H577.039Z" fill="#333333"/>
<path d="M514.252 371.63L513.888 374.57H515.876V375.34H513.79L513.468 378H512.712L513.034 375.34H510.164L509.828 378H509.072L509.394 375.34H507.406V374.57H509.492L509.856 371.63H507.854V370.86H509.954L510.276 368.2H511.046L510.71 370.86H513.594L513.916 368.2H514.672L514.35 370.86H516.324V371.63H514.252ZM513.496 371.63H510.626L510.248 374.57H513.132L513.496 371.63ZM518.344 368.2H522.334C523.37 368.2 524.285 368.41 525.078 368.83C525.871 369.241 526.487 369.819 526.926 370.566C527.365 371.303 527.584 372.148 527.584 373.1C527.584 374.052 527.365 374.901 526.926 375.648C526.487 376.385 525.871 376.964 525.078 377.384C524.285 377.795 523.37 378 522.334 378H518.344V368.2ZM522.278 377.104C523.137 377.104 523.888 376.936 524.532 376.6C525.176 376.255 525.675 375.783 526.03 375.186C526.385 374.579 526.562 373.884 526.562 373.1C526.562 372.316 526.385 371.625 526.03 371.028C525.675 370.421 525.176 369.95 524.532 369.614C523.888 369.269 523.137 369.096 522.278 369.096H519.38V377.104H522.278ZM533.102 372.134C533.746 372.134 534.316 372.255 534.81 372.498C535.314 372.741 535.706 373.086 535.986 373.534C536.266 373.973 536.406 374.486 536.406 375.074C536.406 375.671 536.262 376.199 535.972 376.656C535.683 377.113 535.282 377.468 534.768 377.72C534.264 377.963 533.695 378.084 533.06 378.084C531.763 378.084 530.769 377.659 530.078 376.81C529.388 375.951 529.042 374.743 529.042 373.184C529.042 372.092 529.229 371.168 529.602 370.412C529.976 369.656 530.498 369.087 531.17 368.704C531.842 368.312 532.626 368.116 533.522 368.116C534.493 368.116 535.268 368.293 535.846 368.648L535.44 369.46C534.974 369.152 534.339 368.998 533.536 368.998C532.454 368.998 531.604 369.343 530.988 370.034C530.372 370.715 530.064 371.709 530.064 373.016C530.064 373.249 530.078 373.515 530.106 373.814C530.349 373.282 530.736 372.871 531.268 372.582C531.8 372.283 532.412 372.134 533.102 372.134ZM533.018 377.23C533.728 377.23 534.302 377.039 534.74 376.656C535.188 376.264 535.412 375.746 535.412 375.102C535.412 374.458 535.188 373.945 534.74 373.562C534.302 373.179 533.704 372.988 532.948 372.988C532.454 372.988 532.015 373.081 531.632 373.268C531.259 373.455 530.965 373.711 530.75 374.038C530.536 374.365 530.428 374.729 530.428 375.13C530.428 375.503 530.526 375.849 530.722 376.166C530.928 376.483 531.226 376.74 531.618 376.936C532.01 377.132 532.477 377.23 533.018 377.23ZM539.478 369.096V372.946H544.546V373.842H539.478V378H538.442V368.2H545.162V369.096H539.478ZM548.763 372.218C550.182 372.218 551.213 372.475 551.857 372.988C552.51 373.492 552.837 374.201 552.837 375.116C552.837 375.685 552.702 376.194 552.431 376.642C552.17 377.09 551.773 377.445 551.241 377.706C550.709 377.958 550.056 378.084 549.281 378.084C548.581 378.084 547.914 377.972 547.279 377.748C546.654 377.515 546.15 377.207 545.767 376.824L546.257 376.026C546.584 376.362 547.013 376.637 547.545 376.852C548.077 377.057 548.651 377.16 549.267 377.16C550.079 377.16 550.704 376.978 551.143 376.614C551.591 376.25 551.815 375.765 551.815 375.158C551.815 374.486 551.563 373.977 551.059 373.632C550.564 373.287 549.724 373.114 548.539 373.114H546.453L546.957 368.2H552.319V369.096H547.839L547.503 372.218H548.763ZM556.021 369.096V372.946H561.089V373.842H556.021V378H554.985V368.2H561.705V369.096H556.021ZM564.88 369.096V372.946H569.948V373.842H564.88V378H563.844V368.2H570.564V369.096H564.88Z" fill="#333333"/>
<rect width="240" height="310" transform="translate(720 310)" fill="#F4F4F4"/>
<path d="M762.638 344.2L759.39 354H757.458L755.036 346.748L752.572 354H750.626L747.378 344.2H749.268L751.704 351.648L754.238 344.2H755.918L758.396 351.69L760.902 344.2H762.638ZM764.121 344.2H765.941V354H764.121V344.2ZM768.591 344.2H770.411V352.46H775.535V354H768.591V344.2ZM776.972 344.2H781.256C782.302 344.2 783.23 344.405 784.042 344.816C784.854 345.217 785.484 345.791 785.932 346.538C786.38 347.275 786.604 348.129 786.604 349.1C786.604 350.071 786.38 350.929 785.932 351.676C785.484 352.413 784.854 352.987 784.042 353.398C783.23 353.799 782.302 354 781.256 354H776.972V344.2ZM781.172 352.46C781.891 352.46 782.521 352.325 783.062 352.054C783.613 351.774 784.033 351.382 784.322 350.878C784.621 350.365 784.77 349.772 784.77 349.1C784.77 348.428 784.621 347.84 784.322 347.336C784.033 346.823 783.613 346.431 783.062 346.16C782.521 345.88 781.891 345.74 781.172 345.74H778.792V352.46H781.172ZM795.446 354.14C794.69 354.14 793.957 354.033 793.248 353.818C792.548 353.603 791.992 353.319 791.582 352.964L792.212 351.55C792.613 351.867 793.103 352.129 793.682 352.334C794.27 352.53 794.858 352.628 795.446 352.628C796.174 352.628 796.715 352.511 797.07 352.278C797.434 352.045 797.616 351.737 797.616 351.354C797.616 351.074 797.513 350.845 797.308 350.668C797.112 350.481 796.86 350.337 796.552 350.234C796.244 350.131 795.824 350.015 795.292 349.884C794.545 349.707 793.938 349.529 793.472 349.352C793.014 349.175 792.618 348.899 792.282 348.526C791.955 348.143 791.792 347.63 791.792 346.986C791.792 346.445 791.936 345.955 792.226 345.516C792.524 345.068 792.968 344.713 793.556 344.452C794.153 344.191 794.881 344.06 795.74 344.06C796.337 344.06 796.925 344.135 797.504 344.284C798.082 344.433 798.582 344.648 799.002 344.928L798.428 346.342C797.998 346.09 797.55 345.899 797.084 345.768C796.617 345.637 796.164 345.572 795.726 345.572C795.007 345.572 794.47 345.693 794.116 345.936C793.77 346.179 793.598 346.501 793.598 346.902C793.598 347.182 793.696 347.411 793.892 347.588C794.097 347.765 794.354 347.905 794.662 348.008C794.97 348.111 795.39 348.227 795.922 348.358C796.65 348.526 797.247 348.703 797.714 348.89C798.18 349.067 798.577 349.343 798.904 349.716C799.24 350.089 799.408 350.593 799.408 351.228C799.408 351.769 799.258 352.259 798.96 352.698C798.67 353.137 798.227 353.487 797.63 353.748C797.032 354.009 796.304 354.14 795.446 354.14ZM807.568 351.732H802.668L801.702 354H799.826L804.236 344.2H806.028L810.452 354H808.548L807.568 351.732ZM806.966 350.304L805.118 346.02L803.284 350.304H806.966ZM820.407 344.2V354H818.909L813.505 347.364V354H811.699V344.2H813.197L818.601 350.836V344.2H820.407ZM823.033 344.2H827.317C828.362 344.2 829.291 344.405 830.103 344.816C830.915 345.217 831.545 345.791 831.993 346.538C832.441 347.275 832.665 348.129 832.665 349.1C832.665 350.071 832.441 350.929 831.993 351.676C831.545 352.413 830.915 352.987 830.103 353.398C829.291 353.799 828.362 354 827.317 354H823.033V344.2ZM827.233 352.46C827.951 352.46 828.581 352.325 829.123 352.054C829.673 351.774 830.093 351.382 830.383 350.878C830.681 350.365 830.831 349.772 830.831 349.1C830.831 348.428 830.681 347.84 830.383 347.336C830.093 346.823 829.673 346.431 829.123 346.16C828.581 345.88 827.951 345.74 827.233 345.74H824.853V352.46H827.233Z" fill="#333333"/>
<path d="M754.252 371.63L753.888 374.57H755.876V375.34H753.79L753.468 378H752.712L753.034 375.34H750.164L749.828 378H749.072L749.394 375.34H747.406V374.57H749.492L749.856 371.63H747.854V370.86H749.954L750.276 368.2H751.046L750.71 370.86H753.594L753.916 368.2H754.672L754.35 370.86H756.324V371.63H754.252ZM753.496 371.63H750.626L750.248 374.57H753.132L753.496 371.63ZM759.38 369.096V372.946H764.448V373.842H759.38V378H758.344V368.2H765.064V369.096H759.38ZM773.968 375.424H772.008V378H771V375.424H765.47V374.696L770.664 368.2H771.784L766.772 374.528H771.028V372.26H772.008V374.528H773.968V375.424ZM776.798 369.096V372.946H781.866V373.842H776.798V378H775.762V368.2H782.482V369.096H776.798ZM791.386 375.424H789.426V378H788.418V375.424H782.888V374.696L788.082 368.2H789.202L784.19 374.528H788.446V372.26H789.426V374.528H791.386V375.424ZM794.216 369.096V372.946H799.284V373.842H794.216V378H793.18V368.2H799.9V369.096H794.216ZM808.804 375.424H806.844V378H805.836V375.424H800.306V374.696L805.5 368.2H806.62L801.608 374.528H805.864V372.26H806.844V374.528H808.804V375.424Z" fill="#333333"/>
<rect width="240" height="310" transform="translate(960 310)" fill="#414141"/>
<path d="M990.304 345.74H987.056V344.2H995.372V345.74H992.124V354H990.304V345.74ZM1000.77 354.14C999.421 354.14 998.366 353.762 997.61 353.006C996.854 352.241 996.476 351.149 996.476 349.73V344.2H998.296V349.66C998.296 351.583 999.127 352.544 1000.79 352.544C1002.44 352.544 1003.27 351.583 1003.27 349.66V344.2H1005.06V349.73C1005.06 351.149 1004.68 352.241 1003.92 353.006C1003.18 353.762 1002.13 354.14 1000.77 354.14ZM1016.32 344.2V354H1014.82L1009.41 347.364V354H1007.61V344.2H1009.11L1014.51 350.836V344.2H1016.32ZM1018.94 344.2H1023.23C1024.27 344.2 1025.2 344.405 1026.01 344.816C1026.82 345.217 1027.45 345.791 1027.9 346.538C1028.35 347.275 1028.57 348.129 1028.57 349.1C1028.57 350.071 1028.35 350.929 1027.9 351.676C1027.45 352.413 1026.82 352.987 1026.01 353.398C1025.2 353.799 1024.27 354 1023.23 354H1018.94V344.2ZM1023.14 352.46C1023.86 352.46 1024.49 352.325 1025.03 352.054C1025.58 351.774 1026 351.382 1026.29 350.878C1026.59 350.365 1026.74 349.772 1026.74 349.1C1026.74 348.428 1026.59 347.84 1026.29 347.336C1026 346.823 1025.58 346.431 1025.03 346.16C1024.49 345.88 1023.86 345.74 1023.14 345.74H1020.76V352.46H1023.14ZM1035.09 354.14C1034.09 354.14 1033.19 353.925 1032.38 353.496C1031.58 353.057 1030.95 352.455 1030.49 351.69C1030.04 350.915 1029.81 350.052 1029.81 349.1C1029.81 348.148 1030.04 347.289 1030.49 346.524C1030.95 345.749 1031.58 345.147 1032.38 344.718C1033.19 344.279 1034.09 344.06 1035.09 344.06C1036.08 344.06 1036.98 344.279 1037.79 344.718C1038.59 345.147 1039.22 345.745 1039.68 346.51C1040.13 347.275 1040.36 348.139 1040.36 349.1C1040.36 350.061 1040.13 350.925 1039.68 351.69C1039.22 352.455 1038.59 353.057 1037.79 353.496C1036.98 353.925 1036.08 354.14 1035.09 354.14ZM1035.09 352.544C1035.74 352.544 1036.33 352.399 1036.85 352.11C1037.37 351.811 1037.78 351.401 1038.08 350.878C1038.38 350.346 1038.53 349.753 1038.53 349.1C1038.53 348.447 1038.38 347.859 1038.08 347.336C1037.78 346.804 1037.37 346.393 1036.85 346.104C1036.33 345.805 1035.74 345.656 1035.09 345.656C1034.43 345.656 1033.84 345.805 1033.32 346.104C1032.8 346.393 1032.39 346.804 1032.09 347.336C1031.79 347.859 1031.64 348.447 1031.64 349.1C1031.64 349.753 1031.79 350.346 1032.09 350.878C1032.39 351.401 1032.8 351.811 1033.32 352.11C1033.84 352.399 1034.43 352.544 1035.09 352.544ZM1048.7 354L1046.7 351.13C1046.62 351.139 1046.49 351.144 1046.32 351.144H1044.11V354H1042.29V344.2H1046.32C1047.17 344.2 1047.91 344.34 1048.54 344.62C1049.17 344.9 1049.66 345.301 1049.99 345.824C1050.33 346.347 1050.5 346.967 1050.5 347.686C1050.5 348.423 1050.31 349.058 1049.95 349.59C1049.6 350.122 1049.08 350.519 1048.41 350.78L1050.66 354H1048.7ZM1048.66 347.686C1048.66 347.061 1048.46 346.58 1048.05 346.244C1047.64 345.908 1047.03 345.74 1046.24 345.74H1044.11V349.646H1046.24C1047.03 349.646 1047.64 349.478 1048.05 349.142C1048.46 348.797 1048.66 348.311 1048.66 347.686ZM1058.89 351.732H1053.99L1053.02 354H1051.15L1055.56 344.2H1057.35L1061.77 354H1059.87L1058.89 351.732ZM1058.29 350.304L1056.44 346.02L1054.6 350.304H1058.29Z" fill="white"/>
<path d="M994.252 371.63L993.888 374.57H995.876V375.34H993.79L993.468 378H992.712L993.034 375.34H990.164L989.828 378H989.072L989.394 375.34H987.406V374.57H989.492L989.856 371.63H987.854V370.86H989.954L990.276 368.2H991.046L990.71 370.86H993.594L993.916 368.2H994.672L994.35 370.86H996.324V371.63H994.252ZM993.496 371.63H990.626L990.248 374.57H993.132L993.496 371.63ZM1005.81 375.424H1003.85V378H1002.84V375.424H997.308V374.696L1002.5 368.2H1003.62L998.61 374.528H1002.87V372.26H1003.85V374.528H1005.81V375.424ZM1009.09 368.2V378H1008.08V369.096H1005.77V368.2H1009.09ZM1019.77 375.424H1017.81V378H1016.8V375.424H1011.27V374.696L1016.46 368.2H1017.58L1012.57 374.528H1016.83V372.26H1017.81V374.528H1019.77V375.424ZM1023.05 368.2V378H1022.04V369.096H1019.73V368.2H1023.05ZM1033.72 375.424H1031.76V378H1030.76V375.424H1025.23V374.696L1030.42 368.2H1031.54L1026.53 374.528H1030.78V372.26H1031.76V374.528H1033.72V375.424ZM1037.01 368.2V378H1036V369.096H1033.69V368.2H1037.01Z" fill="white"/>
</svg>
