<svg width="328" height="290" viewBox="0 0 328 290" fill="none" xmlns="http://www.w3.org/2000/svg">
<rect width="328" height="290" rx="30" fill="#1A1A1A"/>
<path d="M143.126 141.139H75V73H143.126V141.139ZM77.6847 138.454H140.441V75.6852H77.6847V138.454Z" fill="white"/>
<path d="M99.4327 139.595H96.748V94.751L141.785 94.8178V97.5037L99.4327 97.4362V139.595Z" fill="white"/>
<path d="M130.44 116.502H98.0879V119.187H130.44V116.502Z" fill="white"/>
<path d="M110.114 73.7231L107.715 74.9278L140.565 140.383L142.964 139.179L110.114 73.7231Z" fill="white"/>
<path d="M160.711 98.1757V77.2305H163.396V95.8259H175.074V98.1757H160.711Z" fill="white"/>
<path d="M192.187 95.8259V98.1757H177.959V77.2305H191.923V79.5796H180.577V86.3605H190.443V88.5753H180.577V95.8259H192.187Z" fill="white"/>
<path d="M203.804 98.3085C202.396 98.3085 201.119 98.0399 199.975 97.4359C198.771 96.8319 197.759 96.0261 196.886 95.0193C196.02 94.0124 195.345 92.8712 194.809 91.5958C194.34 90.3196 194.068 88.9773 194.068 87.6344C194.068 86.2246 194.34 84.8824 194.809 83.6069C195.279 82.3314 196.02 81.1896 196.886 80.2502C197.759 79.2434 198.771 78.5044 199.975 77.9004C201.185 77.3632 202.462 77.0278 203.871 77.0278C205.881 77.0278 207.561 77.4307 208.904 78.3033C210.247 79.1759 211.186 80.2502 211.854 81.5925L209.843 83.0023C209.241 81.7943 208.368 80.8542 207.363 80.317C206.285 79.7131 205.147 79.4445 203.871 79.4445C202.792 79.4445 201.853 79.6456 200.98 80.1159C200.114 80.5856 199.373 81.1896 198.771 81.9954C198.163 82.8012 197.693 83.6737 197.356 84.6138C197.025 85.6207 196.886 86.6275 196.886 87.7019C196.886 88.8431 197.091 89.8499 197.428 90.8568C197.759 91.8637 198.301 92.7369 198.969 93.4752C199.644 94.2135 200.444 94.8175 201.317 95.2878C202.191 95.6907 203.13 95.9593 204.208 95.9593C205.412 95.9593 206.556 95.6232 207.627 95.0193C208.699 94.4153 209.711 93.4752 210.716 92.1997V94.9518C208.633 97.2348 206.417 98.3085 203.804 98.3085ZM210.181 89.7156H205.683V87.7019H212.462V98.1742H210.247V89.7156H210.181Z" fill="white"/>
<path d="M216.49 98.1757V77.2305H219.176V88.8439L229.977 77.2305H232.867L224.474 86.4941L233.337 98.2426H230.38L222.727 88.0382L219.176 91.7978V98.2426H216.49V98.1757Z" fill="white"/>
<path d="M243.064 98.3085C241.589 98.3085 240.246 98.0399 239.036 97.4359C237.832 96.8319 236.82 96.0261 235.947 95.0193C235.074 94.0124 234.406 92.8712 233.936 91.5958C233.466 90.3196 233.195 89.0442 233.195 87.7019C233.195 86.2921 233.466 84.9492 233.936 83.6737C234.406 82.3983 235.146 81.2571 236.019 80.2502C236.886 79.2434 237.964 78.4376 239.174 77.9004C240.378 77.2964 241.655 77.0278 243.13 77.0278C244.605 77.0278 245.947 77.3632 247.158 77.9679C248.368 78.5719 249.374 79.3776 250.247 80.4513C251.12 81.4582 251.788 82.6 252.257 83.8755C252.727 85.151 252.998 86.4264 252.998 87.7687C252.998 89.1785 252.727 90.5214 252.257 91.7969C251.788 93.0723 251.054 94.2135 250.18 95.2204C249.307 96.2279 248.229 96.9662 247.026 97.5702C245.815 98.0399 244.472 98.3085 243.064 98.3085ZM235.881 87.7019C235.881 88.7756 236.086 89.7831 236.416 90.79C236.754 91.7969 237.223 92.6694 237.898 93.4077C238.5 94.1467 239.307 94.8175 240.18 95.2204C241.053 95.6907 242.058 95.8918 243.13 95.8918C244.274 95.8918 245.279 95.6233 246.152 95.1536C247.026 94.6839 247.76 94.0792 248.434 93.2741C249.036 92.4683 249.506 91.5958 249.843 90.5882C250.18 89.5813 250.313 88.6419 250.313 87.6344C250.313 86.5607 250.114 85.5538 249.777 84.5463C249.44 83.5394 248.97 82.6668 248.302 81.9286C247.627 81.1228 246.893 80.5188 246.02 80.1159C245.147 79.6456 244.135 79.4445 243.13 79.4445C241.992 79.4445 240.987 79.6456 240.114 80.1159C239.241 80.5856 238.5 81.1896 237.832 81.9954C237.223 82.8012 236.754 83.6737 236.416 84.6138C236.086 85.6881 235.881 86.695 235.881 87.7019Z" fill="white"/>
<path d="M161.451 106.432H159.639V118.852H161.451V106.432Z" fill="white"/>
<path d="M173.399 115.831L167.426 109.117H166.15V118.852H167.828V112.273L173.735 118.852H175.144V109.117H173.399V115.831Z" fill="white"/>
<path d="M177.357 110.729H180.848V118.852H182.526V110.729H186.083V109.117H177.357V110.729Z" fill="white"/>
<path d="M189.907 114.689H194.741V113.145H189.907V110.729H195.41V109.117H188.229V118.852H195.542V117.24H189.907V114.689Z" fill="white"/>
<path d="M205.543 114.689C205.88 114.421 206.151 114.085 206.35 113.615C206.555 113.212 206.687 112.742 206.687 112.273C206.687 111.736 206.555 111.198 206.217 110.729C206.012 110.393 205.615 109.855 205.007 109.52C204.471 109.185 203.936 109.05 203.334 109.05H198.836V118.449V118.717H200.509V115.428H202.864L205.146 118.717H207.223L204.742 115.092C205.007 115.025 205.278 114.89 205.543 114.689ZM200.509 110.729H203.261C203.664 110.729 203.869 110.795 204.068 110.93C204.273 111.131 204.471 111.333 204.676 111.601C204.809 111.802 204.875 112.004 204.875 112.34C204.875 112.608 204.809 112.809 204.742 113.078C204.537 113.414 204.405 113.548 204.2 113.682C203.936 113.817 203.73 113.884 203.4 113.884H200.509V110.729Z" fill="white"/>
<path d="M211.852 109.117H210.172V118.852H211.852V109.117Z" fill="white"/>
<path d="M223.191 110.594C222.788 110.191 222.318 109.789 221.577 109.453C220.909 109.185 220.235 109.05 219.567 109.05C218.826 109.05 218.085 109.185 217.549 109.52C216.881 109.855 216.346 110.191 216.008 110.594C215.473 111.131 215.135 111.601 214.93 112.205C214.732 112.809 214.6 113.481 214.6 114.085C214.6 114.622 214.732 115.293 214.93 115.897C215.135 116.502 215.539 117.039 215.942 117.441C216.346 117.844 216.815 118.247 217.549 118.583C218.085 118.851 218.826 119.053 219.567 119.053C220.235 119.053 220.909 118.919 221.644 118.65C222.252 118.381 222.788 118.046 223.257 117.576C223.661 117.173 224.064 116.569 224.263 115.965C224.461 115.428 224.6 114.824 224.6 114.085C224.6 113.481 224.461 112.944 224.263 112.273C223.992 111.534 223.588 110.997 223.191 110.594ZM222.583 115.092C222.384 115.495 222.179 115.831 221.915 116.166C221.577 116.569 221.306 116.771 220.909 116.972C220.506 117.173 220.036 117.24 219.567 117.24C219.024 117.24 218.628 117.173 218.224 116.972C217.821 116.837 217.549 116.569 217.212 116.233C216.881 115.83 216.743 115.562 216.544 115.092C216.412 114.756 216.346 114.421 216.346 113.884C216.346 113.414 216.478 112.944 216.61 112.675C216.815 112.273 217.014 111.937 217.285 111.601C217.616 111.265 217.953 110.997 218.356 110.863C218.76 110.661 219.229 110.594 219.699 110.594C220.169 110.594 220.572 110.661 220.976 110.863C221.379 110.997 221.644 111.265 221.981 111.601C222.252 111.87 222.451 112.273 222.649 112.675C222.788 113.011 222.854 113.346 222.854 113.884C222.854 114.421 222.788 114.756 222.583 115.092Z" fill="white"/>
<path d="M232.319 115.159C232.583 115.025 232.854 114.89 233.119 114.689C233.456 114.421 233.727 114.085 233.926 113.615C234.131 113.212 234.263 112.742 234.263 112.273C234.263 111.736 234.131 111.198 233.793 110.729C233.595 110.393 233.192 109.855 232.583 109.52C232.047 109.185 231.512 109.05 230.91 109.05H226.412V118.717H228.085V115.428H230.506L232.788 118.717H234.799L232.319 115.159ZM228.085 110.729H230.837C231.24 110.729 231.445 110.795 231.644 110.93C231.849 111.131 232.047 111.333 232.252 111.601C232.385 111.802 232.451 112.004 232.451 112.34C232.451 112.608 232.385 112.809 232.319 113.078C232.114 113.414 231.981 113.548 231.783 113.682C231.512 113.817 231.307 113.884 230.976 113.884H228.158V110.729H228.085Z" fill="white"/>
<path d="M167.155 125.431C166.282 124.827 165.208 124.558 163.866 124.558H159.57V137.045H163.866C165.007 137.045 166.014 136.776 167.021 136.239C167.894 135.702 168.564 134.964 169.101 134.024C169.572 133.151 169.839 132.077 169.839 130.801C169.839 129.727 169.638 128.721 169.236 127.713C168.833 126.84 168.161 126.035 167.155 125.431ZM166.148 134.695C165.611 135.098 164.873 135.3 163.933 135.3H161.45V126.303H163.933C164.806 126.303 165.544 126.505 166.148 126.84C166.819 127.243 167.289 127.713 167.558 128.384C167.894 129.123 168.095 129.929 168.095 130.734C168.095 131.607 167.894 132.345 167.491 133.084C167.155 133.822 166.752 134.36 166.148 134.695Z" fill="white"/>
<path d="M174.201 132.815H179.034V131.271H174.201V128.854H179.705V127.243H172.523V136.977H179.839V135.366H174.201V132.815Z" fill="white"/>
<path d="M188.498 131.74L188.163 131.606C187.76 131.472 187.29 131.338 186.753 131.203C186.216 131.069 185.747 131.002 185.276 130.8C184.874 130.666 184.673 130.532 184.538 130.398C184.404 130.264 184.337 130.13 184.337 129.861C184.337 129.458 184.472 129.19 184.807 128.988C185.142 128.787 185.679 128.652 186.417 128.652C186.82 128.652 187.089 128.72 187.425 128.787C187.693 128.854 187.961 128.988 188.163 129.055L188.297 129.19C188.498 129.324 188.633 129.458 188.767 129.592L189.103 129.928L189.773 128.451L189.639 128.317C189.237 127.847 188.7 127.645 188.163 127.444C187.626 127.243 187.089 127.176 186.284 127.176C185.478 127.176 184.874 127.243 184.337 127.444C183.666 127.712 183.263 128.048 182.995 128.384C182.659 128.854 182.457 129.391 182.457 129.995C182.457 130.666 182.659 131.069 182.86 131.405C183.129 131.875 183.598 132.076 184.001 132.278C184.404 132.479 185.008 132.68 185.747 132.815C186.417 132.949 186.954 133.083 187.357 133.218C187.828 133.352 188.095 133.553 188.23 133.687C188.364 133.822 188.498 134.09 188.498 134.291C188.498 134.627 188.364 134.829 188.029 135.097C187.626 135.366 187.089 135.433 186.417 135.433C185.948 135.433 185.478 135.366 185.142 135.231C184.74 135.097 184.404 134.963 184.001 134.762C183.8 134.694 183.598 134.56 183.397 134.359C183.331 134.291 183.263 134.225 183.196 134.157L182.928 133.956L182.055 135.433L182.323 135.634C182.928 136.104 183.598 136.44 184.27 136.641C185.075 136.842 185.814 136.977 186.485 136.977C187.022 136.977 187.492 136.91 187.961 136.842C188.498 136.708 188.834 136.574 189.17 136.306C189.572 136.104 189.773 135.769 190.042 135.366C190.244 135.03 190.378 134.56 190.378 134.023C190.378 133.419 190.244 132.949 189.908 132.479C189.371 132.143 188.901 131.875 188.498 131.74Z" fill="white"/>
<path d="M194.539 127.243H192.865V136.977H194.539V127.243Z" fill="white"/>
<path d="M202.662 133.285H204.877V134.023C204.408 134.494 204.004 134.762 203.667 134.963C203.198 135.232 202.662 135.299 202.126 135.299C201.59 135.299 201.187 135.232 200.849 135.098C200.446 134.896 200.043 134.628 199.844 134.359C199.573 134.023 199.308 133.755 199.169 133.285C199.037 132.882 198.905 132.479 198.905 132.01C198.905 131.607 199.037 131.137 199.169 130.801C199.308 130.398 199.507 130.063 199.778 129.794C199.976 129.526 200.314 129.324 200.717 129.056C201.187 128.854 201.656 128.72 202.06 128.72C202.662 128.72 203.131 128.854 203.667 129.056C204.004 129.257 204.474 129.593 204.745 130.13L204.944 130.466L206.352 129.526L206.22 129.257C205.883 128.586 205.347 128.049 204.679 127.713C204.004 127.31 203.131 127.109 202.192 127.109C201.59 127.109 200.916 127.176 200.248 127.444C199.639 127.713 199.103 128.049 198.634 128.519C198.296 128.922 197.9 129.459 197.628 130.13C197.43 130.734 197.291 131.406 197.291 132.01C197.291 132.547 197.43 133.218 197.628 133.822C197.9 134.494 198.296 135.03 198.634 135.366C199.037 135.769 199.507 136.172 200.248 136.507C200.849 136.776 201.524 136.977 202.192 136.977C202.933 136.977 203.535 136.776 204.071 136.507C204.408 136.373 204.745 136.172 205.01 135.903V136.91H206.558V131.741H202.794V133.285H202.662Z" fill="white"/>
<path d="M217.093 127.243V133.956L211.12 127.243H209.844V136.977H211.524V130.398L217.43 136.977H218.839V127.243H217.093Z" fill="white"/>
<path d="M88.168 204.223V193.176H89.5759V202.978H95.7705V204.223H88.168Z" fill="white"/>
<path d="M106.878 202.978V204.223H99.3379V193.176H106.737V194.42H100.746V197.999H105.955V199.166H100.746V202.978H106.878Z" fill="white"/>
<path d="M115.088 204.3C114.358 204.3 113.675 204.145 113.039 203.833C112.413 203.512 111.866 203.087 111.396 202.557C110.927 202.018 110.562 201.416 110.301 200.753C110.041 200.078 109.91 199.384 109.91 198.668C109.91 197.921 110.041 197.216 110.301 196.552C110.562 195.877 110.922 195.281 111.38 194.762C111.85 194.244 112.397 193.839 113.023 193.549C113.659 193.248 114.347 193.098 115.088 193.098C116.162 193.098 117.049 193.321 117.747 193.767C118.446 194.212 118.973 194.793 119.327 195.509L118.248 196.256C117.925 195.613 117.481 195.136 116.918 194.825C116.355 194.514 115.734 194.358 115.057 194.358C114.494 194.358 113.982 194.477 113.524 194.716C113.065 194.955 112.669 195.281 112.335 195.696C112.011 196.101 111.761 196.562 111.584 197.081C111.417 197.6 111.333 198.139 111.333 198.699C111.333 199.487 111.501 200.213 111.834 200.877C112.178 201.531 112.642 202.054 113.226 202.448C113.81 202.842 114.468 203.04 115.198 203.04C115.792 203.04 116.36 202.9 116.902 202.62C117.455 202.329 117.977 201.888 118.467 201.297V199.772H116.073V198.714H119.656V204.222H118.467V202.729C117.507 203.776 116.381 204.3 115.088 204.3Z" fill="white"/>
<path d="M123.83 204.223V193.192H125.238V199.29L130.963 193.176H132.481L128.022 198.046L132.731 204.223H131.151L127.131 198.886L125.238 200.846V204.223H123.83Z" fill="white"/>
<path d="M139.947 204.3C139.166 204.3 138.456 204.145 137.82 203.833C137.184 203.522 136.631 203.102 136.162 202.573C135.703 202.033 135.348 201.432 135.098 200.768C134.848 200.094 134.723 199.404 134.723 198.699C134.723 197.962 134.853 197.262 135.114 196.599C135.385 195.924 135.755 195.328 136.224 194.809C136.704 194.28 137.262 193.865 137.898 193.565C138.535 193.254 139.228 193.098 139.979 193.098C140.761 193.098 141.47 193.258 142.107 193.58C142.742 193.901 143.29 194.332 143.749 194.872C144.208 195.411 144.562 196.012 144.813 196.676C145.063 197.34 145.188 198.019 145.188 198.714C145.188 199.451 145.057 200.156 144.797 200.83C144.536 201.494 144.166 202.091 143.686 202.62C143.217 203.138 142.664 203.548 142.028 203.849C141.392 204.15 140.699 204.3 139.947 204.3ZM136.146 198.699C136.146 199.259 136.235 199.804 136.412 200.332C136.6 200.851 136.861 201.313 137.194 201.718C137.528 202.122 137.93 202.444 138.399 202.682C138.868 202.921 139.39 203.04 139.963 203.04C140.558 203.04 141.09 202.915 141.559 202.666C142.028 202.417 142.424 202.086 142.748 201.671C143.081 201.256 143.332 200.789 143.498 200.27C143.676 199.752 143.764 199.228 143.764 198.699C143.764 198.139 143.671 197.6 143.483 197.081C143.306 196.562 143.045 196.101 142.701 195.696C142.367 195.281 141.965 194.959 141.496 194.731C141.038 194.493 140.526 194.374 139.963 194.374C139.369 194.374 138.837 194.498 138.367 194.747C137.898 194.985 137.497 195.312 137.163 195.727C136.84 196.142 136.589 196.609 136.412 197.127C136.235 197.636 136.146 198.16 136.146 198.699Z" fill="white"/>
<path d="M175.224 198.141V199.258H173.513V201.245H172.353V199.258H170.643V198.141H172.353V196.153H173.513V198.141H175.224Z" fill="white"/>
<path d="M214.977 180.368H203.01V192.337H214.977V180.368Z" stroke="white" stroke-width="3.92314"/>
<path d="M227.188 180.368H214.977V192.337H227.188V180.368Z" stroke="white" stroke-width="3.92314"/>
<path d="M239.155 180.368H227.188V192.337H239.155V180.368Z" stroke="white" stroke-width="3.92314"/>
<path d="M214.977 192.338H203.01V204.307H214.977V192.338Z" stroke="white" stroke-width="3.92314"/>
<path d="M227.188 192.338H214.977V204.307H227.188V192.338Z" stroke="white" stroke-width="3.92314"/>
<path d="M239.155 192.338H227.188V204.307H239.155V192.338Z" stroke="white" stroke-width="3.92314"/>
<path d="M214.977 204.307H203.01V216.521H214.977V204.307Z" stroke="white" stroke-width="3.92314"/>
<path d="M227.188 204.307H214.977V216.521H227.188V204.307Z" stroke="white" stroke-width="3.92314"/>
<path d="M239.155 204.307H227.188V216.521H239.155V204.307Z" stroke="white" stroke-width="3.92314"/>
</svg>
