<svg width="328" height="559" viewBox="0 0 328 559" fill="none" xmlns="http://www.w3.org/2000/svg">
<g clip-path="url(#clip0_65_4241)">
<rect width="328" height="559" rx="30" fill="#F4F4F4"/>
<path d="M277.685 540.706L281.279 508.637L252 505.355L254.323 484.788L283.584 488.071L287.196 456L309.371 458.487L305.76 490.556L335.038 493.838L332.733 514.405L303.454 511.122L299.86 543.193L277.685 540.706Z" fill="#FFD86F"/>
<path d="M14.4669 417.81C22.2352 415.768 26.876 407.819 24.8322 400.056C22.7885 392.293 14.8342 387.656 7.06586 389.698C-0.7025 391.74 -5.34323 399.689 -3.2995 407.452C-1.25577 415.215 6.6985 419.853 14.4669 417.81Z" fill="#80EFC7"/>
<path d="M155.7 289.57C156.628 289.035 157.577 288.877 158.548 289.095C159.52 289.314 160.324 289.975 160.961 291.077L164.917 297.925C165.488 298.914 166.234 299.474 167.153 299.603C168.063 299.767 168.994 299.575 169.944 299.028L172.146 302.839C171.196 303.387 170.558 304.085 170.233 304.933C169.898 305.815 170.017 306.752 170.588 307.741L174.525 314.555C175.161 315.657 175.332 316.683 175.036 317.634C174.741 318.584 174.129 319.326 173.201 319.862L169.501 321.996L167.474 318.488L169.816 317.137L165.626 309.884C165.315 309.344 165.118 308.768 165.035 308.156C164.943 307.58 164.945 307.009 165.041 306.444C165.137 305.878 165.322 305.337 165.596 304.819C165.883 304.324 166.238 303.894 166.662 303.53L166.584 303.395C166.056 303.579 165.5 303.66 164.914 303.639C164.341 303.639 163.786 303.54 163.248 303.34C162.711 303.141 162.209 302.846 161.742 302.456C161.265 302.101 160.871 301.654 160.559 301.114L156.369 293.861L154.027 295.213L152 291.704L155.7 289.57Z" fill="#80EFC7"/>
<path d="M251.871 397.688L235.69 394L232 410.17L248.181 413.858L251.871 397.688Z" fill="#EB383A"/>
<path d="M281.756 219.495C288.248 219.495 293.512 214.236 293.512 207.748C293.512 201.26 288.248 196 281.756 196C275.263 196 270 201.26 270 207.748C270 214.236 275.263 219.495 281.756 219.495Z" fill="#FFD86F"/>
<path d="M19.0469 89.2119V85.0852H22.1184V69.5333H19.0469V65.4066H30.3776V69.5333H27.3061V85.0852H30.3776V89.2119H19.0469ZM34.6997 65.4066H46.2694C48.2489 65.4066 49.7847 65.9635 50.8767 67.0779C51.9914 68.1918 52.5492 69.6699 52.5492 71.5114C52.5492 72.4208 52.4238 73.194 52.1734 73.8306C51.9461 74.4672 51.6274 74.9902 51.2181 75.3997C50.831 75.8087 50.3647 76.1159 49.8186 76.3204C49.2953 76.5023 48.7266 76.6045 48.1122 76.6272V76.8321C48.6813 76.8321 49.2726 76.9343 49.887 77.1389C50.524 77.3434 51.1044 77.6732 51.6274 78.1279C52.1508 78.56 52.5832 79.1283 52.9245 79.8332C53.2885 80.5381 53.4706 81.4018 53.4706 82.4252C53.4706 83.3573 53.3112 84.2441 52.9929 85.0852C52.6968 85.9041 52.2762 86.6203 51.7297 87.2338C51.1837 87.8478 50.5353 88.3369 49.7847 88.7006C49.0336 89.0414 48.2145 89.2119 47.3271 89.2119H34.6997V65.4066ZM39.8874 84.8467H45.8597C46.5425 84.8467 47.0772 84.6648 47.4638 84.3011C47.8736 83.9143 48.0782 83.3799 48.0782 82.6981V81.5384C48.0782 80.8562 47.8736 80.3336 47.4638 79.9694C47.0772 79.583 46.5425 79.3898 45.8597 79.3898H39.8874V84.8467ZM39.8874 75.1608H45.0407C45.7234 75.1608 46.2581 74.9676 46.6448 74.5808C47.0315 74.1944 47.2248 73.66 47.2248 72.9782V71.9548C47.2248 71.2729 47.0315 70.7386 46.6448 70.3518C46.2581 69.9654 45.7234 69.7722 45.0407 69.7722H39.8874V75.1608ZM75.2785 73.5917H75.1762L73.4354 77.0706L68.7941 85.4946L64.2548 77.1049L62.4461 73.3533H62.3437V89.2119H57.4634V65.4066H62.9581L68.7941 76.5589H68.8621L74.6302 65.4066H80.1588V89.2119H75.2785V73.5917ZM93.4916 89.2119V65.4066H104.754C105.869 65.4066 106.87 65.5998 107.758 65.9866C108.645 66.3503 109.396 66.8616 110.01 67.5213C110.647 68.1805 111.136 68.9876 111.478 69.9427C111.819 70.8748 111.989 71.8982 111.989 73.0121C111.989 74.1491 111.819 75.1834 111.478 76.1159C111.136 77.0479 110.647 77.8438 110.01 78.503C109.396 79.1622 108.645 79.6853 107.758 80.0721C106.87 80.4358 105.869 80.6177 104.754 80.6177H98.6793V89.2119H93.4916ZM98.6793 76.1159H104.14C104.913 76.1159 105.516 75.9223 105.949 75.5359C106.404 75.1268 106.631 74.5355 106.631 73.7623V72.262C106.631 71.4887 106.404 70.9091 105.949 70.5223C105.516 70.1133 104.913 69.9084 104.14 69.9084H98.6793V76.1159ZM120.633 89.2119C118.903 89.2119 117.629 88.7916 116.81 87.9501C116.014 87.1089 115.616 85.8923 115.616 84.3011V63.9741H120.667V85.2901H122.919V89.2119H120.633ZM133.422 89.6214C132.057 89.6214 130.84 89.4055 129.77 88.9734C128.701 88.5187 127.791 87.8935 127.04 87.0976C126.312 86.2791 125.754 85.2901 125.368 84.1305C125.004 82.9709 124.822 81.6747 124.822 80.2422C124.822 78.8328 125.004 77.5596 125.368 76.4227C125.732 75.263 126.266 74.274 126.972 73.4555C127.7 72.637 128.587 72.0118 129.633 71.5797C130.68 71.125 131.875 70.8974 133.217 70.8974C134.696 70.8974 135.959 71.1476 137.005 71.648C138.075 72.148 138.939 72.8189 139.599 73.66C140.282 74.5015 140.771 75.4789 141.066 76.5932C141.385 77.6845 141.545 78.8328 141.545 80.0377V81.5384H130.043V81.8113C130.043 82.9935 130.361 83.9373 130.999 84.6418C131.636 85.324 132.637 85.6652 134.002 85.6652C135.048 85.6652 135.902 85.4607 136.562 85.0512C137.222 84.6192 137.836 84.1078 138.405 83.5165L140.93 86.6542C140.134 87.5863 139.087 88.3138 137.79 88.8368C136.516 89.3599 135.06 89.6214 133.422 89.6214ZM133.319 74.6151C132.296 74.6151 131.488 74.9563 130.896 75.6381C130.328 76.2977 130.043 77.1841 130.043 78.2985V78.5713H136.323V78.2641C136.323 77.1728 136.073 76.2977 135.572 75.6381C135.094 74.9563 134.343 74.6151 133.319 74.6151ZM142.838 89.2119L148.742 80.106L142.906 71.3069H148.64L151.984 76.9344H152.121L155.363 71.3069H160.687L154.749 80.2766L160.721 89.2119H154.988L151.541 83.3799H151.404L148.094 89.2119H142.838ZM179.728 89.6214C177.634 89.6214 175.86 89.2689 174.404 88.564C172.947 87.8365 171.707 86.9044 170.683 85.7674L174.096 82.323C175.712 84.1418 177.703 85.0512 180.069 85.0512C181.343 85.0512 182.287 84.7897 182.901 84.2667C183.516 83.7437 183.823 83.0505 183.823 82.1864C183.823 81.5271 183.641 80.9815 183.277 80.5494C182.913 80.0947 182.173 79.7875 181.059 79.6287L178.704 79.3215C176.178 79.0034 174.324 78.2415 173.141 77.0366C171.98 75.8313 171.4 74.2287 171.4 72.2276C171.4 71.1589 171.605 70.1812 172.014 69.2948C172.424 68.408 173.004 67.6462 173.755 67.0096C174.529 66.373 175.462 65.8843 176.554 65.5432C177.668 65.1794 178.931 64.9975 180.342 64.9975C182.139 64.9975 183.721 65.2817 185.086 65.8499C186.451 66.4186 187.623 67.2484 188.601 68.3397L185.154 71.8186C184.585 71.1589 183.891 70.6246 183.072 70.2156C182.276 69.7835 181.263 69.5677 180.035 69.5677C178.875 69.5677 178.01 69.7722 177.441 70.1812C176.872 70.5906 176.588 71.1589 176.588 71.8865C176.588 72.7053 176.804 73.2963 177.236 73.66C177.691 74.0238 178.419 74.2853 179.421 74.4446L181.775 74.8197C184.232 75.2061 186.053 75.9679 187.236 77.1049C188.419 78.2189 189.01 79.8105 189.01 81.8796C189.01 83.0161 188.806 84.0622 188.396 85.0173C187.987 85.972 187.384 86.7904 186.587 87.4727C185.814 88.155 184.847 88.6893 183.686 89.0757C182.526 89.4395 181.207 89.6214 179.728 89.6214ZM206.281 89.2119C205.371 89.2119 204.608 88.9278 203.994 88.3595C203.402 87.7912 203.027 87.0293 202.868 86.0742H202.663C202.39 87.2338 201.787 88.1206 200.854 88.7346C199.921 89.3259 198.772 89.6214 197.407 89.6214C195.61 89.6214 194.233 89.144 193.278 88.1889C192.322 87.2338 191.844 85.972 191.844 84.4033C191.844 82.5162 192.527 81.1177 193.892 80.2083C195.28 79.2762 197.157 78.8102 199.523 78.8102H202.356V77.6845C202.356 76.8204 202.128 76.1385 201.673 75.6381C201.218 75.1151 200.456 74.8536 199.387 74.8536C198.386 74.8536 197.589 75.0698 196.997 75.5019C196.406 75.934 195.917 76.4227 195.53 76.9683L192.527 74.308C193.255 73.2397 194.165 72.4095 195.257 71.8186C196.372 71.2046 197.873 70.8974 199.762 70.8974C202.31 70.8974 204.222 71.4548 205.496 72.5687C206.77 73.6827 207.407 75.3087 207.407 77.4457V85.2901H209.079V89.2119H206.281ZM199.284 86.1086C200.126 86.1086 200.843 85.9267 201.434 85.5629C202.049 85.1992 202.356 84.6078 202.356 83.7894V81.6747H199.899C197.919 81.6747 196.929 82.3456 196.929 83.6871V84.1988C196.929 84.858 197.134 85.3467 197.543 85.6652C197.953 85.9606 198.533 86.1086 199.284 86.1086ZM212.469 89.2119V71.3069H217.52V74.3423H217.725C218.044 73.4098 218.601 72.6027 219.397 71.9208C220.194 71.2386 221.297 70.8974 222.708 70.8974C224.551 70.8974 225.939 71.5114 226.872 72.7393C227.827 73.9672 228.305 75.7178 228.305 77.9913V89.2119H223.254V78.4007C223.254 77.2411 223.072 76.3887 222.708 75.8427C222.344 75.2744 221.695 74.9902 220.763 74.9902C220.353 74.9902 219.955 75.0472 219.568 75.1608C219.181 75.2517 218.829 75.411 218.51 75.6381C218.214 75.8657 217.975 76.1498 217.793 76.491C217.611 76.8091 217.52 77.1841 217.52 77.6162V89.2119H212.469ZM238.875 89.6214C237.146 89.6214 235.689 89.3485 234.506 88.8029C233.323 88.2346 232.265 87.4387 231.332 86.4154L234.302 83.4143C234.939 84.1192 235.644 84.6761 236.417 85.0852C237.191 85.4946 238.067 85.6991 239.046 85.6991C240.047 85.6991 240.741 85.5516 241.127 85.2558C241.514 84.9377 241.707 84.5169 241.707 83.9939C241.707 83.1528 241.105 82.6524 239.899 82.4935L237.954 82.2547C233.926 81.7543 231.912 79.9128 231.912 76.7294C231.912 75.8657 232.072 75.0812 232.39 74.3763C232.731 73.6487 233.198 73.0348 233.79 72.5348C234.404 72.0118 235.132 71.6137 235.974 71.3408C236.838 71.0454 237.805 70.8974 238.875 70.8974C239.808 70.8974 240.627 70.9657 241.332 71.1023C242.06 71.2159 242.697 71.3978 243.243 71.648C243.812 71.8752 244.324 72.171 244.779 72.5348C245.257 72.8755 245.723 73.2623 246.178 73.6944L243.277 76.6615C242.708 76.0928 242.06 75.6495 241.332 75.3314C240.627 74.9902 239.899 74.8197 239.148 74.8197C238.283 74.8197 237.669 74.9563 237.305 75.2291C236.941 75.5019 236.759 75.8657 236.759 76.3204C236.759 76.7977 236.884 77.1728 237.134 77.4457C237.407 77.6958 237.908 77.8777 238.636 77.9913L240.65 78.2641C244.586 78.7871 246.554 80.5833 246.554 83.6527C246.554 84.5169 246.372 85.3127 246.008 86.0403C245.644 86.7678 245.12 87.4044 244.438 87.9501C243.778 88.4731 242.97 88.8825 242.015 89.178C241.082 89.4734 240.035 89.6214 238.875 89.6214Z" fill="#414141"/>
<path d="M27.0665 137.464C25.3147 137.464 23.7106 137.18 22.2545 136.612C20.798 136.043 19.49 135.157 18.3296 133.951L21.7425 130.507C22.4705 131.257 23.2669 131.837 24.1316 132.246C25.0186 132.656 25.997 132.86 27.0665 132.86C28.4315 132.86 29.4669 132.621 30.1723 132.144C30.8777 131.667 31.2304 130.996 31.2304 130.132V129.859C31.2304 128.95 30.9574 128.301 30.411 127.915C29.865 127.506 29.0119 127.301 27.8515 127.301H23.7219V122.731H27.6469C29.7626 122.731 30.8207 121.856 30.8207 120.105V119.934C30.8207 118.275 29.6263 117.444 27.2371 117.444C26.2818 117.444 25.3487 117.638 24.4386 118.024C23.5286 118.388 22.7662 118.911 22.1522 119.593L19.0123 116.319C20.0134 115.228 21.2191 114.375 22.6299 113.761C24.0633 113.148 25.599 112.84 27.2371 112.84C28.6479 112.84 29.9106 113 31.0254 113.318C32.1405 113.614 33.0845 114.057 33.8582 114.648C34.6546 115.217 35.2573 115.91 35.667 116.728C36.0994 117.547 36.3154 118.468 36.3154 119.491C36.3154 120.309 36.1791 121.026 35.906 121.64C35.6557 122.231 35.303 122.731 34.848 123.14C34.4156 123.549 33.8922 123.868 33.2778 124.095C32.6865 124.323 32.0495 124.47 31.3667 124.538V124.743C32.0495 124.789 32.7091 124.925 33.3462 125.152C34.0059 125.38 34.5749 125.709 35.0526 126.141C35.5533 126.573 35.9513 127.108 36.247 127.744C36.5657 128.381 36.7251 129.132 36.7251 129.995C36.7251 131.11 36.4974 132.121 36.0423 133.031C35.5873 133.94 34.939 134.725 34.0973 135.384C33.2778 136.043 32.2654 136.555 31.0597 136.919C29.8767 137.282 28.5456 137.464 27.0665 137.464ZM53.7004 137.055C52.7904 137.055 52.0284 136.771 51.414 136.202C50.8222 135.634 50.4469 134.873 50.2875 133.917H50.0829C49.8099 135.077 49.2068 135.964 48.2741 136.578C47.3414 137.169 46.1923 137.464 44.8273 137.464C43.0298 137.464 41.653 136.987 40.6977 136.032C39.7419 135.077 39.2642 133.815 39.2642 132.246C39.2642 130.359 39.9466 128.961 41.3116 128.052C42.6998 127.119 44.5769 126.653 46.943 126.653H49.7759V125.527C49.7759 124.664 49.5482 123.981 49.0932 123.481C48.6381 122.958 47.8761 122.697 46.8067 122.697C45.8053 122.697 45.0093 122.913 44.4175 123.345C43.8258 123.777 43.3368 124.266 42.9501 124.811L39.9466 122.151C40.6746 121.083 41.5847 120.253 42.6771 119.661C43.7918 119.047 45.2936 118.741 47.1821 118.741C49.7302 118.741 51.6413 119.298 52.9157 120.412C54.1898 121.526 54.8269 123.152 54.8269 125.289V133.133H56.4989V137.055H53.7004ZM46.704 133.951C47.5461 133.951 48.2628 133.77 48.8541 133.406C49.4685 133.042 49.7759 132.451 49.7759 131.632V129.518H47.3184C45.3389 129.518 44.3492 130.188 44.3492 131.53V132.042C44.3492 132.701 44.5542 133.19 44.9636 133.508C45.3733 133.804 45.9533 133.951 46.704 133.951ZM59.8891 119.15H72.0049V123.072H64.9405V137.055H59.8891V119.15ZM82.0569 137.464C80.7371 137.464 79.554 137.248 78.5073 136.816C77.4836 136.384 76.6075 135.759 75.8795 134.94C75.1741 134.122 74.628 133.133 74.2414 131.973C73.8543 130.814 73.661 129.518 73.661 128.085C73.661 126.653 73.8543 125.357 74.2414 124.198C74.628 123.038 75.1741 122.06 75.8795 121.264C76.6075 120.446 77.4836 119.821 78.5073 119.389C79.554 118.957 80.7371 118.741 82.0569 118.741C83.3762 118.741 84.548 118.957 85.5721 119.389C86.6184 119.821 87.4945 120.446 88.1999 121.264C88.9279 122.06 89.4853 123.038 89.8723 124.198C90.259 125.357 90.4523 126.653 90.4523 128.085C90.4523 129.518 90.259 130.814 89.8723 131.973C89.4853 133.133 88.9279 134.122 88.1999 134.94C87.4945 135.759 86.6184 136.384 85.5721 136.816C84.548 137.248 83.3762 137.464 82.0569 137.464ZM82.0569 133.474C83.0579 133.474 83.8312 133.167 84.3777 132.553C84.9237 131.939 85.1967 131.064 85.1967 129.927V126.278C85.1967 125.141 84.9237 124.266 84.3777 123.652C83.8312 123.038 83.0579 122.731 82.0569 122.731C81.0558 122.731 80.2821 123.038 79.736 123.652C79.19 124.266 78.917 125.141 78.917 126.278V129.927C78.917 131.064 79.19 131.939 79.736 132.553C80.2821 133.167 81.0558 133.474 82.0569 133.474ZM91.9416 133.133H94.2624C94.4902 132.837 94.6835 132.462 94.8428 132.008C95.0248 131.553 95.1725 131.007 95.2865 130.37C95.4228 129.711 95.5252 128.927 95.5935 128.017C95.6619 127.108 95.6959 126.039 95.6959 124.811V119.15H109.928V137.055H104.876V123.072H100.542V125.084C100.542 126.63 100.486 127.995 100.371 129.177C100.258 130.336 100.087 131.348 99.8598 132.212C99.6321 133.053 99.3591 133.77 99.0404 134.361C98.7447 134.929 98.4147 135.395 98.0507 135.759C97.5046 136.305 96.8676 136.691 96.1396 136.919C95.4342 137.146 94.5468 137.26 93.4778 137.26H91.9416V133.133ZM121.918 137.464C120.598 137.464 119.415 137.248 118.369 136.816C117.345 136.384 116.469 135.759 115.741 134.94C115.035 134.122 114.489 133.133 114.103 131.973C113.716 130.814 113.522 129.518 113.522 128.085C113.522 126.653 113.716 125.357 114.103 124.198C114.489 123.038 115.035 122.06 115.741 121.264C116.469 120.446 117.345 119.821 118.369 119.389C119.415 118.957 120.598 118.741 121.918 118.741C123.238 118.741 124.409 118.957 125.433 119.389C126.48 119.821 127.356 120.446 128.061 121.264C128.789 122.06 129.347 123.038 129.734 124.198C130.12 125.357 130.314 126.653 130.314 128.085C130.314 129.518 130.12 130.814 129.734 131.973C129.347 133.133 128.789 134.122 128.061 134.94C127.356 135.759 126.48 136.384 125.433 136.816C124.409 137.248 123.238 137.464 121.918 137.464ZM121.918 133.474C122.919 133.474 123.693 133.167 124.239 132.553C124.785 131.939 125.058 131.064 125.058 129.927V126.278C125.058 125.141 124.785 124.266 124.239 123.652C123.693 123.038 122.919 122.731 121.918 122.731C120.917 122.731 120.143 123.038 119.597 123.652C119.051 124.266 118.778 125.141 118.778 126.278V129.927C118.778 131.064 119.051 131.939 119.597 132.553C120.143 133.167 120.917 133.474 121.918 133.474ZM133.913 119.15H144.117C145.755 119.15 147.007 119.559 147.871 120.378C148.736 121.196 149.168 122.287 149.168 123.652C149.168 124.811 148.861 125.71 148.247 126.346C147.632 126.983 146.677 127.392 145.38 127.574V127.744C148.36 128.017 149.851 129.393 149.851 131.871C149.851 133.463 149.35 134.725 148.349 135.657C147.348 136.589 145.96 137.055 144.185 137.055H133.913V119.15ZM143.264 133.474C143.719 133.474 144.083 133.349 144.356 133.099C144.629 132.849 144.765 132.496 144.765 132.042V130.984C144.765 130.53 144.629 130.177 144.356 129.927C144.083 129.654 143.719 129.518 143.264 129.518H138.827V133.474H143.264ZM142.65 126.516C143.105 126.516 143.457 126.392 143.708 126.141C143.958 125.892 144.083 125.539 144.083 125.084V124.163C144.083 123.709 143.958 123.356 143.708 123.106C143.457 122.856 143.105 122.731 142.65 122.731H138.827V126.516H142.65ZM160.846 137.464C159.527 137.464 158.343 137.248 157.297 136.816C156.273 136.384 155.397 135.759 154.669 134.94C153.964 134.122 153.418 133.133 153.031 131.973C152.644 130.814 152.451 129.518 152.451 128.085C152.451 126.653 152.644 125.357 153.031 124.198C153.418 123.038 153.964 122.06 154.669 121.264C155.397 120.446 156.273 119.821 157.297 119.389C158.343 118.957 159.527 118.741 160.846 118.741C162.166 118.741 163.338 118.957 164.361 119.389C165.408 119.821 166.284 120.446 166.989 121.264C167.717 122.06 168.275 123.038 168.661 124.198C169.049 125.357 169.242 126.653 169.242 128.085C169.242 129.518 169.049 130.814 168.661 131.973C168.275 133.133 167.717 134.122 166.989 134.94C166.284 135.759 165.408 136.384 164.361 136.816C163.338 137.248 162.166 137.464 160.846 137.464ZM160.846 133.474C161.847 133.474 162.621 133.167 163.167 132.553C163.713 131.939 163.986 131.064 163.986 129.927V126.278C163.986 125.141 163.713 124.266 163.167 123.652C162.621 123.038 161.847 122.731 160.846 122.731C159.845 122.731 159.072 123.038 158.525 123.652C157.979 124.266 157.706 125.141 157.706 126.278V129.927C157.706 131.064 157.979 131.939 158.525 132.553C159.072 133.167 159.845 133.474 160.846 133.474ZM172.841 119.15H177.892V126.005H180.486L182.84 121.64C183.318 120.753 183.853 120.116 184.444 119.73C185.059 119.343 185.844 119.15 186.8 119.15H188.881V123.072H187.073L185.536 125.937C185.218 126.528 184.899 126.949 184.581 127.199C184.285 127.449 183.933 127.631 183.523 127.744V127.915C183.91 128.006 184.262 128.165 184.581 128.392C184.922 128.62 185.229 128.984 185.502 129.484L187.516 133.133H189.359V137.055H187.004C186.049 137.055 185.275 136.862 184.683 136.475C184.092 136.089 183.534 135.43 183.011 134.497L180.486 129.927H177.892V137.055H172.841V119.15ZM201.924 137.055V132.928H208.34V116.967H208.033L203.186 123.311L199.91 120.753L205.609 113.25H213.459V132.928H218.51V137.055H201.924ZM229.873 113.25H241.442C243.422 113.25 244.958 113.807 246.05 114.921C247.165 116.035 247.722 117.513 247.722 119.355C247.722 120.264 247.597 121.037 247.347 121.674C247.119 122.31 246.801 122.833 246.391 123.243C246.004 123.652 245.538 123.959 244.992 124.163C244.469 124.345 243.9 124.447 243.286 124.47V124.675C243.854 124.675 244.446 124.777 245.06 124.982C245.697 125.187 246.277 125.516 246.801 125.971C247.324 126.403 247.756 126.972 248.097 127.676C248.461 128.381 248.643 129.245 248.643 130.268C248.643 131.201 248.484 132.087 248.166 132.928C247.87 133.747 247.449 134.463 246.903 135.077C246.357 135.691 245.709 136.18 244.958 136.543C244.207 136.885 243.388 137.055 242.5 137.055H229.873V113.25ZM235.06 132.69H241.033C241.715 132.69 242.25 132.508 242.637 132.144C243.046 131.758 243.251 131.223 243.251 130.541V129.381C243.251 128.699 243.046 128.176 242.637 127.813C242.25 127.426 241.715 127.233 241.033 127.233H235.06V132.69ZM235.06 123.004H240.214C240.896 123.004 241.431 122.81 241.818 122.424C242.205 122.038 242.398 121.503 242.398 120.821V119.798C242.398 119.116 242.205 118.581 241.818 118.195C241.431 117.809 240.896 117.615 240.214 117.615H235.06V123.004ZM259.633 137.464C258.313 137.464 257.13 137.248 256.083 136.816C255.06 136.384 254.183 135.759 253.455 134.94C252.75 134.122 252.204 133.133 251.817 131.973C251.431 130.814 251.237 129.518 251.237 128.085C251.237 126.653 251.431 125.357 251.817 124.198C252.204 123.038 252.75 122.06 253.455 121.264C254.183 120.446 255.06 119.821 256.083 119.389C257.13 118.957 258.313 118.741 259.633 118.741C260.953 118.741 262.124 118.957 263.148 119.389C264.195 119.821 265.07 120.446 265.776 121.264C266.504 122.06 267.062 123.038 267.448 124.198C267.835 125.357 268.028 126.653 268.028 128.085C268.028 129.518 267.835 130.814 267.448 131.973C267.062 133.133 266.504 134.122 265.776 134.94C265.07 135.759 264.195 136.384 263.148 136.816C262.124 137.248 260.953 137.464 259.633 137.464ZM259.633 133.474C260.634 133.474 261.408 133.167 261.954 132.553C262.5 131.939 262.773 131.064 262.773 129.927V126.278C262.773 125.141 262.5 124.266 261.954 123.652C261.408 123.038 260.634 122.731 259.633 122.731C258.632 122.731 257.858 123.038 257.312 123.652C256.766 124.266 256.493 125.141 256.493 126.278V129.927C256.493 131.064 256.766 131.939 257.312 132.553C257.858 133.167 258.632 133.474 259.633 133.474ZM276.644 137.055C274.915 137.055 273.641 136.634 272.822 135.793C272.025 134.952 271.627 133.736 271.627 132.144V111.817H276.678V133.133H278.931V137.055H276.644ZM292.949 134.054H292.778C292.642 134.531 292.425 134.986 292.13 135.418C291.834 135.827 291.47 136.191 291.038 136.51C290.628 136.805 290.15 137.033 289.604 137.191C289.081 137.373 288.535 137.464 287.966 137.464C285.691 137.464 283.973 136.669 282.812 135.077C281.652 133.463 281.072 131.132 281.072 128.085C281.072 125.039 281.652 122.72 282.812 121.128C283.973 119.537 285.691 118.741 287.966 118.741C289.126 118.741 290.15 119.059 291.038 119.696C291.948 120.332 292.528 121.151 292.778 122.151H292.949V111.817H298V137.055H292.949V134.054ZM289.638 133.372C290.594 133.372 291.379 133.144 291.993 132.69C292.63 132.212 292.949 131.564 292.949 130.746V125.459C292.949 124.641 292.63 124.004 291.993 123.549C291.379 123.072 290.594 122.833 289.638 122.833C288.683 122.833 287.887 123.174 287.249 123.856C286.635 124.516 286.328 125.414 286.328 126.551V129.654C286.328 130.791 286.635 131.701 287.249 132.383C287.887 133.042 288.683 133.372 289.638 133.372Z" fill="#414141"/>
<path d="M23.8247 181.986C22.6569 181.986 21.5875 181.797 20.6165 181.418C19.6459 181.039 18.7737 180.448 18 179.644L20.2755 177.348C20.7606 177.848 21.2918 178.234 21.8679 178.507C22.4596 178.78 23.1119 178.917 23.8247 178.917C24.7348 178.917 25.4249 178.757 25.8952 178.439C26.3654 178.121 26.6006 177.674 26.6006 177.098V176.916C26.6006 176.309 26.4185 175.878 26.0545 175.62C25.6905 175.347 25.1218 175.211 24.3481 175.211H21.5949V172.164H24.2114C25.6221 172.164 26.3275 171.58 26.3275 170.413V170.299C26.3275 169.193 25.5311 168.64 23.9384 168.64C23.3013 168.64 22.6795 168.769 22.073 169.026C21.466 169.269 20.9579 169.617 20.5485 170.072L18.455 167.889C19.1225 167.162 19.9263 166.593 20.8669 166.184C21.8226 165.775 22.8463 165.57 23.9384 165.57C24.8789 165.57 25.721 165.676 26.4642 165.889C27.2071 166.086 27.8367 166.381 28.3527 166.775C28.8835 167.154 29.2854 167.616 29.5584 168.162C29.8467 168.708 29.9908 169.322 29.9908 170.004C29.9908 170.55 29.8998 171.027 29.7178 171.436C29.551 171.83 29.3159 172.164 29.0124 172.437C28.7241 172.71 28.3753 172.922 27.9656 173.073C27.5715 173.225 27.1466 173.324 26.6916 173.369V173.505C27.1466 173.535 27.5864 173.626 28.0113 173.778C28.4511 173.93 28.8304 174.149 29.1487 174.438C29.4826 174.726 29.7478 175.082 29.9451 175.506C30.1576 175.93 30.2638 176.431 30.2638 177.007C30.2638 177.75 30.1119 178.424 29.8088 179.03C29.5053 179.637 29.0729 180.16 28.5117 180.599C27.9656 181.039 27.2907 181.38 26.4869 181.622C25.6979 181.865 24.8105 181.986 23.8247 181.986ZM41.5808 181.713C40.9739 181.713 40.4657 181.524 40.0564 181.145C39.6619 180.766 39.4115 180.258 39.3057 179.622H39.169C38.987 180.394 38.5851 180.986 37.9633 181.395C37.3411 181.789 36.5752 181.986 35.6651 181.986C34.4668 181.986 33.5493 181.668 32.9119 181.031C32.2749 180.394 31.9566 179.553 31.9566 178.507C31.9566 177.249 32.4116 176.317 33.3216 175.711C34.2469 175.089 35.4983 174.779 37.0759 174.779H38.9643V174.028C38.9643 173.452 38.8124 172.998 38.5093 172.664C38.2058 172.315 37.6977 172.141 36.9849 172.141C36.3174 172.141 35.7866 172.285 35.3921 172.573C34.9976 172.861 34.6715 173.187 34.4137 173.551L32.4116 171.778C32.8971 171.065 33.5036 170.512 34.2317 170.118C34.975 169.708 35.976 169.504 37.2352 169.504C38.9339 169.504 40.2079 169.875 41.0574 170.618C41.9069 171.361 42.3315 172.444 42.3315 173.869V179.099H43.4466V181.713H41.5808ZM36.9165 179.644C37.4778 179.644 37.9555 179.523 38.3499 179.28C38.7593 179.038 38.9643 178.644 38.9643 178.098V176.688H37.3262C36.0065 176.688 35.3468 177.136 35.3468 178.03V178.371C35.3468 178.811 35.4831 179.136 35.7561 179.349C36.0291 179.546 36.4158 179.644 36.9165 179.644ZM45.7065 169.776H53.7837V172.391H49.0741V181.713H45.7065V169.776ZM60.4848 181.986C59.6053 181.986 58.8163 181.842 58.1187 181.554C57.436 181.266 56.8521 180.85 56.3666 180.303C55.8963 179.758 55.5323 179.099 55.2745 178.325C55.0167 177.553 54.8878 176.688 54.8878 175.734C54.8878 174.779 55.0167 173.914 55.2745 173.142C55.5323 172.368 55.8963 171.717 56.3666 171.186C56.8521 170.641 57.436 170.224 58.1187 169.936C58.8163 169.648 59.6053 169.504 60.4848 169.504C61.3648 169.504 62.146 169.648 62.8283 169.936C63.5263 170.224 64.1102 170.641 64.5804 171.186C65.0655 171.717 65.4374 172.368 65.6952 173.142C65.9529 173.914 66.0818 174.779 66.0818 175.734C66.0818 176.688 65.9529 177.553 65.6952 178.325C65.4374 179.099 65.0655 179.758 64.5804 180.303C64.1102 180.85 63.5263 181.266 62.8283 181.554C62.146 181.842 61.3648 181.986 60.4848 181.986ZM60.4848 179.326C61.1523 179.326 61.6679 179.121 62.0319 178.712C62.3959 178.303 62.5779 177.719 62.5779 176.961V174.528C62.5779 173.77 62.3959 173.187 62.0319 172.778C61.6679 172.368 61.1523 172.164 60.4848 172.164C59.8173 172.164 59.3018 172.368 58.9378 172.778C58.5737 173.187 58.3917 173.77 58.3917 174.528V176.961C58.3917 177.719 58.5737 178.303 58.9378 178.712C59.3018 179.121 59.8173 179.326 60.4848 179.326ZM67.0751 179.099H68.6222C68.7737 178.901 68.9026 178.651 69.0088 178.348C69.1303 178.045 69.2287 177.681 69.3045 177.257C69.3955 176.817 69.4639 176.294 69.5096 175.688C69.5549 175.082 69.5775 174.369 69.5775 173.551V169.776H79.0655V181.713H75.6983V172.391H72.8084V173.733C72.8084 174.763 72.7705 175.673 72.6947 176.461C72.619 177.234 72.5053 177.909 72.3534 178.485C72.2018 179.046 72.0198 179.523 71.8073 179.917C71.6101 180.296 71.3902 180.607 71.1476 180.85C70.7836 181.213 70.3591 181.471 69.8736 181.622C69.4033 181.774 68.8116 181.85 68.0988 181.85H67.0751V179.099ZM87.0591 181.986C86.1795 181.986 85.3905 181.842 84.6929 181.554C84.0102 181.266 83.4263 180.85 82.9408 180.303C82.4705 179.758 82.1065 179.099 81.8487 178.325C81.5909 177.553 81.462 176.688 81.462 175.734C81.462 174.779 81.5909 173.914 81.8487 173.142C82.1065 172.368 82.4705 171.717 82.9408 171.186C83.4263 170.641 84.0102 170.224 84.6929 169.936C85.3905 169.648 86.1795 169.504 87.0591 169.504C87.939 169.504 88.7202 169.648 89.4025 169.936C90.1005 170.224 90.6844 170.641 91.1547 171.186C91.6398 171.717 92.0116 172.368 92.2694 173.142C92.5272 173.914 92.656 174.779 92.656 175.734C92.656 176.688 92.5272 177.553 92.2694 178.325C92.0116 179.099 91.6398 179.758 91.1547 180.303C90.6844 180.85 90.1005 181.266 89.4025 181.554C88.7202 181.842 87.939 181.986 87.0591 181.986ZM87.0591 179.326C87.7265 179.326 88.2421 179.121 88.6061 178.712C88.9702 178.303 89.1522 177.719 89.1522 176.961V174.528C89.1522 173.77 88.9702 173.187 88.6061 172.778C88.2421 172.368 87.7265 172.164 87.0591 172.164C86.3915 172.164 85.876 172.368 85.512 172.778C85.1479 173.187 84.9659 173.77 84.9659 174.528V176.961C84.9659 177.719 85.1479 178.303 85.512 178.712C85.876 179.121 86.3915 179.326 87.0591 179.326ZM95.0554 169.776H101.858C102.951 169.776 103.785 170.049 104.361 170.595C104.938 171.141 105.226 171.868 105.226 172.778C105.226 173.551 105.021 174.149 104.612 174.574C104.202 174.998 103.565 175.271 102.7 175.393V175.506C104.687 175.688 105.681 176.605 105.681 178.257C105.681 179.318 105.347 180.16 104.68 180.781C104.013 181.403 103.087 181.713 101.904 181.713H95.0554V169.776ZM101.29 179.326C101.593 179.326 101.836 179.243 102.018 179.076C102.2 178.909 102.291 178.674 102.291 178.371V177.666C102.291 177.363 102.2 177.128 102.018 176.961C101.836 176.779 101.593 176.688 101.29 176.688H98.3319V179.326H101.29ZM100.88 174.688C101.184 174.688 101.419 174.604 101.585 174.438C101.752 174.271 101.836 174.036 101.836 173.733V173.119C101.836 172.816 101.752 172.581 101.585 172.414C101.419 172.247 101.184 172.164 100.88 172.164H98.3319V174.688H100.88ZM113.011 181.986C112.131 181.986 111.343 181.842 110.645 181.554C109.962 181.266 109.378 180.85 108.893 180.303C108.423 179.758 108.059 179.099 107.801 178.325C107.543 177.553 107.414 176.688 107.414 175.734C107.414 174.779 107.543 173.914 107.801 173.142C108.059 172.368 108.423 171.717 108.893 171.186C109.378 170.641 109.962 170.224 110.645 169.936C111.343 169.648 112.131 169.504 113.011 169.504C113.891 169.504 114.672 169.648 115.355 169.936C116.053 170.224 116.636 170.641 117.107 171.186C117.592 171.717 117.964 172.368 118.221 173.142C118.479 173.914 118.608 174.779 118.608 175.734C118.608 176.688 118.479 177.553 118.221 178.325C117.964 179.099 117.592 179.758 117.107 180.303C116.636 180.85 116.053 181.266 115.355 181.554C114.672 181.842 113.891 181.986 113.011 181.986ZM113.011 179.326C113.679 179.326 114.194 179.121 114.558 178.712C114.922 178.303 115.104 177.719 115.104 176.961V174.528C115.104 173.77 114.922 173.187 114.558 172.778C114.194 172.368 113.679 172.164 113.011 172.164C112.344 172.164 111.828 172.368 111.464 172.778C111.1 173.187 110.918 173.77 110.918 174.528V176.961C110.918 177.719 111.1 178.303 111.464 178.712C111.828 179.121 112.344 179.326 113.011 179.326ZM121.007 169.776H124.375V174.347H126.104L127.674 171.436C127.993 170.845 128.349 170.421 128.744 170.163C129.153 169.905 129.676 169.776 130.313 169.776H131.701V172.391H130.495L129.472 174.301C129.259 174.695 129.047 174.976 128.835 175.142C128.637 175.309 128.402 175.43 128.129 175.506V175.62C128.387 175.681 128.622 175.786 128.835 175.938C129.062 176.09 129.267 176.332 129.449 176.666L130.791 179.099H132.02V181.713H130.45C129.813 181.713 129.297 181.584 128.903 181.327C128.508 181.069 128.137 180.629 127.788 180.008L126.104 176.961H124.375V181.713H121.007V169.776ZM150.794 181.713H139.554V178.598L144.446 174.415C144.886 174.036 145.258 173.695 145.561 173.391C145.864 173.073 146.107 172.77 146.289 172.482C146.486 172.179 146.623 171.883 146.699 171.595C146.79 171.308 146.835 170.997 146.835 170.663V170.345C146.835 170.042 146.774 169.776 146.653 169.549C146.532 169.322 146.372 169.132 146.175 168.981C145.978 168.829 145.751 168.716 145.493 168.64C145.25 168.564 144.999 168.526 144.742 168.526C144.362 168.526 144.029 168.587 143.741 168.708C143.468 168.829 143.225 168.996 143.013 169.208C142.815 169.405 142.649 169.64 142.512 169.913C142.376 170.171 142.269 170.451 142.194 170.754L139.213 169.617C139.395 169.072 139.645 168.556 139.964 168.071C140.282 167.571 140.677 167.139 141.147 166.775C141.632 166.396 142.201 166.101 142.853 165.889C143.506 165.676 144.241 165.57 145.06 165.57C145.925 165.57 146.691 165.691 147.358 165.934C148.026 166.177 148.587 166.51 149.042 166.935C149.512 167.359 149.869 167.867 150.111 168.458C150.354 169.034 150.475 169.663 150.475 170.345C150.475 171.027 150.362 171.648 150.134 172.209C149.907 172.77 149.596 173.301 149.201 173.801C148.822 174.286 148.374 174.748 147.859 175.188C147.343 175.628 146.805 176.074 146.243 176.529L143.286 178.848H150.794V181.713ZM159.029 165.843H166.742C168.062 165.843 169.086 166.214 169.814 166.957C170.557 167.7 170.928 168.685 170.928 169.913C170.928 170.519 170.845 171.035 170.678 171.459C170.527 171.883 170.314 172.232 170.041 172.505C169.783 172.778 169.472 172.982 169.108 173.119C168.76 173.24 168.38 173.308 167.971 173.324V173.46C168.35 173.46 168.744 173.528 169.154 173.665C169.579 173.801 169.965 174.021 170.314 174.324C170.663 174.612 170.951 174.991 171.179 175.461C171.421 175.93 171.543 176.507 171.543 177.189C171.543 177.81 171.437 178.401 171.224 178.962C171.027 179.508 170.746 179.985 170.382 180.394C170.018 180.804 169.586 181.13 169.086 181.372C168.585 181.6 168.039 181.713 167.447 181.713H159.029V165.843ZM162.487 178.803H166.469C166.924 178.803 167.28 178.682 167.538 178.439C167.811 178.182 167.948 177.825 167.948 177.371V176.597C167.948 176.143 167.811 175.794 167.538 175.552C167.28 175.294 166.924 175.165 166.469 175.165H162.487V178.803ZM162.487 172.346H165.923C166.378 172.346 166.734 172.217 166.992 171.959C167.25 171.701 167.379 171.345 167.379 170.891V170.208C167.379 169.754 167.25 169.397 166.992 169.14C166.734 168.882 166.378 168.753 165.923 168.753H162.487V172.346ZM178.869 181.986C177.989 181.986 177.2 181.842 176.503 181.554C175.82 181.266 175.236 180.85 174.751 180.303C174.28 179.758 173.916 179.099 173.659 178.325C173.401 177.553 173.272 176.688 173.272 175.734C173.272 174.779 173.401 173.914 173.659 173.142C173.916 172.368 174.28 171.717 174.751 171.186C175.236 170.641 175.82 170.224 176.503 169.936C177.2 169.648 177.989 169.504 178.869 169.504C179.749 169.504 180.53 169.648 181.212 169.936C181.91 170.224 182.494 170.641 182.965 171.186C183.45 171.717 183.821 172.368 184.079 173.142C184.337 173.914 184.466 174.779 184.466 175.734C184.466 176.688 184.337 177.553 184.079 178.325C183.821 179.099 183.45 179.758 182.965 180.303C182.494 180.85 181.91 181.266 181.212 181.554C180.53 181.842 179.749 181.986 178.869 181.986ZM178.869 179.326C179.536 179.326 180.052 179.121 180.416 178.712C180.78 178.303 180.962 177.719 180.962 176.961V174.528C180.962 173.77 180.78 173.187 180.416 172.778C180.052 172.368 179.536 172.164 178.869 172.164C178.201 172.164 177.686 172.368 177.322 172.778C176.958 173.187 176.776 173.77 176.776 174.528V176.961C176.776 177.719 176.958 178.303 177.322 178.712C177.686 179.121 178.201 179.326 178.869 179.326ZM190.21 181.713C189.057 181.713 188.208 181.433 187.662 180.872C187.131 180.311 186.865 179.5 186.865 178.439V164.888H190.233V179.099H191.734V181.713H190.21ZM201.08 179.713H200.966C200.875 180.031 200.731 180.334 200.534 180.622C200.336 180.895 200.094 181.137 199.806 181.349C199.533 181.547 199.214 181.698 198.85 181.804C198.501 181.926 198.137 181.986 197.758 181.986C196.241 181.986 195.096 181.456 194.322 180.394C193.548 179.318 193.162 177.765 193.162 175.734C193.162 173.703 193.548 172.156 194.322 171.095C195.096 170.034 196.241 169.504 197.758 169.504C198.531 169.504 199.214 169.716 199.806 170.14C200.412 170.565 200.799 171.111 200.966 171.778H201.08V164.888H204.447V181.713H201.08V179.713ZM198.872 179.258C199.51 179.258 200.033 179.106 200.443 178.803C200.867 178.485 201.08 178.053 201.08 177.507V173.983C201.08 173.437 200.867 173.013 200.443 172.71C200.033 172.391 199.51 172.232 198.872 172.232C198.235 172.232 197.705 172.459 197.28 172.914C196.87 173.354 196.666 173.952 196.666 174.71V176.779C196.666 177.537 196.87 178.143 197.28 178.598C197.705 179.038 198.235 179.258 198.872 179.258Z" fill="#414141"/>
<path d="M18.8076 200.904H27.8007V212.807H25.8724V202.609H20.7359V212.807H18.8076V200.904ZM34.0839 213.011C33.4699 213.011 32.9067 212.903 32.3947 212.687C31.894 212.471 31.4675 212.164 31.1148 211.766C30.7621 211.357 30.489 210.868 30.2957 210.3C30.1024 209.72 30.0055 209.078 30.0055 208.373C30.0055 207.668 30.1024 207.031 30.2957 206.463C30.489 205.883 30.7621 205.394 31.1148 204.996C31.4675 204.587 31.894 204.274 32.3947 204.059C32.9067 203.842 33.4699 203.735 34.0839 203.735C34.6983 203.735 35.2557 203.842 35.7564 204.059C36.2684 204.274 36.7004 204.587 37.0531 204.996C37.4058 205.394 37.6788 205.883 37.8726 206.463C38.0659 207.031 38.1624 207.668 38.1624 208.373C38.1624 209.078 38.0659 209.72 37.8726 210.3C37.6788 210.868 37.4058 211.357 37.0531 211.766C36.7004 212.164 36.2684 212.471 35.7564 212.687C35.2557 212.903 34.6983 213.011 34.0839 213.011ZM34.0839 211.476C34.721 211.476 35.233 211.283 35.6197 210.897C36.0068 210.499 36.2001 209.908 36.2001 209.123V207.622C36.2001 206.838 36.0068 206.252 35.6197 205.866C35.233 205.468 34.721 205.269 34.0839 205.269C33.4469 205.269 32.9352 205.468 32.5482 205.866C32.1615 206.252 31.9682 206.838 31.9682 207.622V209.123C31.9682 209.908 32.1615 210.499 32.5482 210.897C32.9352 211.283 33.4469 211.476 34.0839 211.476ZM39.0076 211.289H40.0824C40.4125 210.777 40.6683 210.135 40.8503 209.362C41.0441 208.578 41.1405 207.617 41.1405 206.48V203.939H47.6249V211.289H49.1267V215.194H47.4374V212.807H40.6968V215.194H39.0076V211.289ZM45.765 211.289V205.457H42.9153V206.582C42.9153 207.776 42.8298 208.754 42.6595 209.515C42.4888 210.266 42.2896 210.857 42.0619 211.289H45.765ZM53.5812 213.011C52.6939 213.011 51.9658 212.863 51.3971 212.568C50.8285 212.272 50.3391 211.851 49.9297 211.306L51.1413 210.197C51.4143 210.595 51.7498 210.908 52.1478 211.135C52.5575 211.363 53.0352 211.476 53.5812 211.476C54.2183 211.476 54.6846 211.363 54.9807 211.135C55.2877 210.908 55.4412 210.612 55.4412 210.248V210.044C55.4412 209.68 55.3162 209.407 55.0658 209.225C54.8272 209.032 54.48 208.935 54.025 208.935H52.1138V207.571H53.8375C54.2925 207.571 54.6393 207.486 54.8784 207.316C55.1283 207.134 55.2537 206.872 55.2537 206.531V206.343C55.2537 206.014 55.117 205.752 54.844 205.559C54.571 205.366 54.1386 205.269 53.5473 205.269C53.0126 205.269 52.5575 205.377 52.1822 205.593C51.8065 205.809 51.5053 206.099 51.2776 206.463L50.1172 205.457C50.4586 204.934 50.9136 204.519 51.4823 204.212C52.0627 203.894 52.7907 203.735 53.6668 203.735C54.8498 203.735 55.7259 203.956 56.2946 204.4C56.8746 204.831 57.1648 205.411 57.1648 206.139C57.1648 206.707 57.0168 207.151 56.7211 207.469C56.4254 207.776 55.9818 207.986 55.39 208.1V208.185C56.0388 208.265 56.5278 208.481 56.8578 208.833C57.1988 209.186 57.3695 209.64 57.3695 210.197C57.3695 211.073 57.0285 211.761 56.3458 212.261C55.6744 212.761 54.753 213.011 53.5812 213.011ZM66.0341 212.807C65.5447 212.807 65.1693 212.67 64.9076 212.397C64.646 212.113 64.4866 211.755 64.43 211.323H64.3444C64.1738 211.88 63.8609 212.301 63.4059 212.585C62.9508 212.869 62.3994 213.011 61.7506 213.011C60.8292 213.011 60.1184 212.772 59.6177 212.295C59.1286 211.817 58.8838 211.175 58.8838 210.368C58.8838 209.481 59.2025 208.816 59.8395 208.373C60.4879 207.929 61.4323 207.708 62.6724 207.708H64.2761V206.957C64.2761 206.412 64.1284 205.991 63.8328 205.695C63.5367 205.4 63.0762 205.252 62.4505 205.252C61.9271 205.252 61.5006 205.366 61.1706 205.593C60.8405 205.82 60.5621 206.11 60.3344 206.463L59.2251 205.457C59.5212 204.957 59.9364 204.547 60.4711 204.229C61.0058 203.899 61.7053 203.735 62.5696 203.735C63.7187 203.735 64.6007 204.002 65.2146 204.536C65.829 205.07 66.1364 205.838 66.1364 206.838V211.289H67.075V212.807H66.0341ZM62.2798 211.596C62.8598 211.596 63.3379 211.471 63.7133 211.221C64.0886 210.959 64.2761 210.612 64.2761 210.181V208.901H62.7063C61.421 208.901 60.7781 209.299 60.7781 210.095V210.402C60.7781 210.8 60.9089 211.101 61.1706 211.306C61.4436 211.499 61.8135 211.596 62.2798 211.596ZM68.8978 203.939H74.6827V205.457H70.7577V212.807H68.8978V203.939ZM79.6446 213.011C79.0302 213.011 78.467 212.903 77.9553 212.687C77.4546 212.471 77.0281 212.164 76.6754 211.766C76.3227 211.357 76.0497 210.868 75.8564 210.3C75.663 209.72 75.5662 209.078 75.5662 208.373C75.5662 207.668 75.663 207.031 75.8564 206.463C76.0497 205.883 76.3227 205.394 76.6754 204.996C77.0281 204.587 77.4546 204.274 77.9553 204.059C78.467 203.842 79.0302 203.735 79.6446 203.735C80.259 203.735 80.8163 203.842 81.317 204.059C81.8287 204.274 82.2611 204.587 82.6138 204.996C82.9665 205.394 83.2395 205.883 83.4328 206.463C83.6262 207.031 83.723 207.668 83.723 208.373C83.723 209.078 83.6262 209.72 83.4328 210.3C83.2395 210.868 82.9665 211.357 82.6138 211.766C82.2611 212.164 81.8287 212.471 81.317 212.687C80.8163 212.903 80.259 213.011 79.6446 213.011ZM79.6446 211.476C80.2816 211.476 80.7937 211.283 81.1803 210.897C81.567 210.499 81.7607 209.908 81.7607 209.123V207.622C81.7607 206.838 81.567 206.252 81.1803 205.866C80.7937 205.468 80.2816 205.269 79.6446 205.269C79.0075 205.269 78.4955 205.468 78.1088 205.866C77.7222 206.252 77.5284 206.838 77.5284 207.622V209.123C77.5284 209.908 77.7222 210.499 78.1088 210.897C78.4955 211.283 79.0075 211.476 79.6446 211.476ZM84.5522 211.289H85.7126C85.8489 211.107 85.9685 210.891 86.0708 210.641C86.1735 210.379 86.2587 210.061 86.327 209.686C86.3954 209.311 86.4465 208.873 86.4805 208.373C86.5258 207.861 86.5489 207.265 86.5489 206.582V203.939H92.9993V212.807H91.1389V205.457H88.3404V206.667C88.3404 207.486 88.3064 208.202 88.2381 208.816C88.1811 209.43 88.0959 209.959 87.9823 210.402C87.8799 210.845 87.7491 211.215 87.5897 211.51C87.4417 211.795 87.2823 212.022 87.1117 212.193C86.873 212.431 86.6 212.602 86.2926 212.704C85.9856 212.807 85.6158 212.858 85.1838 212.858H84.5522V211.289ZM99.1587 213.011C98.5443 213.011 97.9811 212.903 97.4694 212.687C96.9687 212.471 96.5422 212.164 96.1895 211.766C95.8368 211.357 95.5638 210.868 95.3705 210.3C95.1771 209.72 95.0803 209.078 95.0803 208.373C95.0803 207.668 95.1771 207.031 95.3705 206.463C95.5638 205.883 95.8368 205.394 96.1895 204.996C96.5422 204.587 96.9687 204.274 97.4694 204.059C97.9811 203.842 98.5443 203.735 99.1587 203.735C99.7731 203.735 100.33 203.842 100.831 204.059C101.343 204.274 101.775 204.587 102.128 204.996C102.481 205.394 102.754 205.883 102.947 206.463C103.14 207.031 103.237 207.668 103.237 208.373C103.237 209.078 103.14 209.72 102.947 210.3C102.754 210.868 102.481 211.357 102.128 211.766C101.775 212.164 101.343 212.471 100.831 212.687C100.33 212.903 99.7731 213.011 99.1587 213.011ZM99.1587 211.476C99.7957 211.476 100.308 211.283 100.694 210.897C101.081 210.499 101.274 209.908 101.274 209.123V207.622C101.274 206.838 101.081 206.252 100.694 205.866C100.308 205.468 99.7957 205.269 99.1587 205.269C98.5217 205.269 98.0096 205.468 97.6229 205.866C97.2359 206.252 97.0425 206.838 97.0425 207.622V209.123C97.0425 209.908 97.2359 210.499 97.6229 210.897C98.0096 211.283 98.5217 211.476 99.1587 211.476ZM105.31 203.939H110.036C110.799 203.939 111.385 204.144 111.794 204.553C112.215 204.962 112.425 205.508 112.425 206.19C112.425 207.304 111.828 207.935 110.634 208.083V208.168C111.35 208.225 111.879 208.435 112.22 208.799C112.573 209.152 112.75 209.618 112.75 210.197C112.75 210.572 112.687 210.919 112.562 211.238C112.448 211.556 112.277 211.834 112.05 212.073C111.834 212.301 111.567 212.483 111.248 212.619C110.93 212.744 110.571 212.807 110.173 212.807H105.31V203.939ZM109.746 211.391C110.076 211.391 110.338 211.306 110.531 211.135C110.725 210.965 110.821 210.714 110.821 210.385V209.924C110.821 209.595 110.725 209.345 110.531 209.174C110.338 208.992 110.076 208.901 109.746 208.901H107.135V211.391H109.746ZM109.507 207.622C109.826 207.622 110.071 207.543 110.241 207.384C110.412 207.225 110.497 206.997 110.497 206.702V206.275C110.497 205.98 110.412 205.752 110.241 205.593C110.071 205.434 109.826 205.354 109.507 205.354H107.135V207.622H109.507ZM118.456 213.011C117.842 213.011 117.278 212.903 116.767 212.687C116.266 212.471 115.84 212.164 115.487 211.766C115.134 211.357 114.861 210.868 114.668 210.3C114.474 209.72 114.378 209.078 114.378 208.373C114.378 207.668 114.474 207.031 114.668 206.463C114.861 205.883 115.134 205.394 115.487 204.996C115.84 204.587 116.266 204.274 116.767 204.059C117.278 203.842 117.842 203.735 118.456 203.735C119.07 203.735 119.628 203.842 120.128 204.059C120.64 204.274 121.073 204.587 121.425 204.996C121.778 205.394 122.051 205.883 122.244 206.463C122.438 207.031 122.534 207.668 122.534 208.373C122.534 209.078 122.438 209.72 122.244 210.3C122.051 210.868 121.778 211.357 121.425 211.766C121.073 212.164 120.64 212.471 120.128 212.687C119.628 212.903 119.07 213.011 118.456 213.011ZM118.456 211.476C119.093 211.476 119.605 211.283 119.992 210.897C120.378 210.499 120.572 209.908 120.572 209.123V207.622C120.572 206.838 120.378 206.252 119.992 205.866C119.605 205.468 119.093 205.269 118.456 205.269C117.819 205.269 117.307 205.468 116.92 205.866C116.534 206.252 116.34 206.838 116.34 207.622V209.123C116.34 209.908 116.534 210.499 116.92 210.897C117.307 211.283 117.819 211.476 118.456 211.476ZM124.607 203.939H126.467V207.52H128.037L129.504 205.048C129.755 204.627 130.005 204.337 130.255 204.178C130.505 204.019 130.824 203.939 131.211 203.939H132.115V205.457H131.126L129.999 207.332C129.829 207.628 129.675 207.833 129.539 207.946C129.413 208.06 129.243 208.145 129.027 208.202V208.27C129.254 208.316 129.453 208.401 129.624 208.526C129.795 208.64 129.959 208.845 130.119 209.14L131.313 211.289H132.286V212.807H131.228C130.853 212.807 130.528 212.721 130.255 212.55C129.994 212.38 129.743 212.079 129.504 211.647L128.037 209.021H126.467V212.807H124.607V203.939ZM142.042 213.011C141.04 213.011 140.187 212.829 139.482 212.465C138.788 212.102 138.19 211.613 137.69 210.999L139.021 209.754C139.442 210.266 139.903 210.652 140.403 210.914C140.915 211.175 141.495 211.306 142.144 211.306C142.906 211.306 143.48 211.135 143.867 210.794C144.254 210.453 144.447 209.993 144.447 209.413C144.447 208.947 144.311 208.578 144.038 208.305C143.765 208.032 143.281 207.827 142.588 207.691L141.529 207.503C140.369 207.287 139.499 206.906 138.918 206.361C138.338 205.815 138.048 205.065 138.048 204.11C138.048 203.587 138.145 203.115 138.338 202.694C138.543 202.262 138.822 201.904 139.175 201.62C139.539 201.324 139.977 201.097 140.489 200.938C141.001 200.779 141.575 200.699 142.212 200.699C143.111 200.699 143.89 200.858 144.55 201.176C145.21 201.484 145.773 201.933 146.239 202.524L144.891 203.717C144.584 203.32 144.208 203.001 143.765 202.762C143.321 202.524 142.77 202.404 142.109 202.404C141.427 202.404 140.898 202.541 140.523 202.813C140.147 203.087 139.959 203.484 139.959 204.007C139.959 204.507 140.113 204.883 140.42 205.133C140.727 205.372 141.205 205.553 141.854 205.678L142.912 205.9C144.106 206.128 144.976 206.514 145.522 207.06C146.08 207.605 146.359 208.356 146.359 209.311C146.359 209.868 146.262 210.374 146.068 210.828C145.875 211.283 145.591 211.675 145.215 212.005C144.851 212.323 144.402 212.574 143.867 212.755C143.332 212.926 142.724 213.011 142.042 213.011ZM152.018 213.011C151.381 213.011 150.812 212.903 150.312 212.687C149.811 212.471 149.384 212.164 149.032 211.766C148.679 211.357 148.406 210.868 148.213 210.3C148.031 209.72 147.94 209.078 147.94 208.373C147.94 207.668 148.031 207.031 148.213 206.463C148.406 205.883 148.679 205.394 149.032 204.996C149.384 204.587 149.811 204.274 150.312 204.059C150.812 203.842 151.381 203.735 152.018 203.735C152.666 203.735 153.236 203.848 153.725 204.076C154.225 204.303 154.64 204.621 154.97 205.03C155.3 205.429 155.545 205.895 155.704 206.429C155.875 206.963 155.96 207.537 155.96 208.151V208.85H149.868V209.14C149.868 209.822 150.067 210.385 150.465 210.828C150.875 211.261 151.455 211.476 152.206 211.476C152.752 211.476 153.212 211.357 153.588 211.118C153.964 210.88 154.282 210.556 154.544 210.146L155.636 211.221C155.306 211.766 154.828 212.204 154.203 212.534C153.577 212.852 152.848 213.011 152.018 213.011ZM152.018 205.184C151.7 205.184 151.404 205.241 151.131 205.354C150.869 205.468 150.642 205.627 150.448 205.832C150.266 206.037 150.124 206.281 150.021 206.565C149.919 206.849 149.868 207.162 149.868 207.503V207.622H153.998V207.452C153.998 206.77 153.821 206.224 153.469 205.815C153.116 205.394 152.632 205.184 152.018 205.184ZM158.019 212.807V203.939H159.879V205.405H159.964C160.055 205.178 160.164 204.962 160.289 204.758C160.425 204.553 160.584 204.377 160.766 204.229C160.96 204.07 161.182 203.95 161.432 203.871C161.694 203.78 161.995 203.735 162.336 203.735C162.939 203.735 163.474 203.882 163.941 204.178C164.407 204.473 164.748 204.928 164.964 205.542H165.015C165.175 205.042 165.482 204.616 165.937 204.263C166.392 203.911 166.978 203.735 167.695 203.735C168.582 203.735 169.27 204.036 169.759 204.638C170.248 205.229 170.493 206.076 170.493 207.179V212.807H168.633V207.401C168.633 206.718 168.502 206.207 168.241 205.866C167.979 205.514 167.564 205.338 166.995 205.338C166.756 205.338 166.528 205.372 166.312 205.44C166.096 205.496 165.903 205.587 165.732 205.713C165.573 205.838 165.442 205.997 165.34 206.19C165.237 206.383 165.186 206.605 165.186 206.855V212.807H163.326V207.401C163.326 206.025 162.786 205.338 161.705 205.338C161.478 205.338 161.25 205.372 161.022 205.44C160.806 205.496 160.613 205.587 160.442 205.713C160.271 205.838 160.135 205.997 160.033 206.19C159.93 206.383 159.879 206.605 159.879 206.855V212.807H158.019ZM174.006 202.353C173.619 202.353 173.334 202.262 173.152 202.08C172.982 201.899 172.896 201.666 172.896 201.381V201.091C172.896 200.807 172.982 200.574 173.152 200.392C173.334 200.21 173.619 200.119 174.006 200.119C174.392 200.119 174.671 200.21 174.842 200.392C175.012 200.574 175.098 200.807 175.098 201.091V201.381C175.098 201.666 175.012 201.899 174.842 202.08C174.671 202.262 174.392 202.353 174.006 202.353ZM173.067 203.939H174.927V212.807H173.067V203.939ZM177.72 200.904H182.993C183.982 200.904 184.756 201.182 185.313 201.739C185.882 202.296 186.166 203.041 186.166 203.973C186.166 204.416 186.104 204.797 185.979 205.116C185.854 205.423 185.694 205.678 185.501 205.883C185.307 206.076 185.086 206.224 184.835 206.327C184.585 206.418 184.34 206.474 184.102 206.497V206.599C184.34 206.611 184.602 206.667 184.886 206.77C185.183 206.872 185.456 207.037 185.706 207.265C185.956 207.48 186.166 207.765 186.337 208.117C186.508 208.458 186.593 208.879 186.593 209.379C186.593 209.856 186.514 210.305 186.354 210.726C186.206 211.147 185.996 211.51 185.723 211.817C185.45 212.124 185.126 212.369 184.75 212.55C184.375 212.721 183.965 212.807 183.521 212.807H177.72V200.904ZM179.648 211.152H182.959C183.459 211.152 183.851 211.022 184.136 210.76C184.42 210.499 184.562 210.124 184.562 209.635V209.055C184.562 208.566 184.42 208.191 184.136 207.929C183.851 207.668 183.459 207.537 182.959 207.537H179.648V211.152ZM179.648 205.934H182.634C183.112 205.934 183.482 205.815 183.743 205.576C184.005 205.326 184.136 204.974 184.136 204.519V203.973C184.136 203.518 184.005 203.172 183.743 202.933C183.482 202.683 183.112 202.558 182.634 202.558H179.648V205.934ZM192.313 213.011C191.699 213.011 191.135 212.903 190.623 212.687C190.123 212.471 189.696 212.164 189.343 211.766C188.991 211.357 188.718 210.868 188.524 210.3C188.331 209.72 188.235 209.078 188.235 208.373C188.235 207.668 188.331 207.031 188.524 206.463C188.718 205.883 188.991 205.394 189.343 204.996C189.696 204.587 190.123 204.274 190.623 204.059C191.135 203.842 191.699 203.735 192.313 203.735C192.927 203.735 193.484 203.842 193.985 204.059C194.497 204.274 194.929 204.587 195.282 204.996C195.634 205.394 195.907 205.883 196.101 206.463C196.295 207.031 196.391 207.668 196.391 208.373C196.391 209.078 196.295 209.72 196.101 210.3C195.907 210.868 195.634 211.357 195.282 211.766C194.929 212.164 194.497 212.471 193.985 212.687C193.484 212.903 192.927 213.011 192.313 213.011ZM192.313 211.476C192.95 211.476 193.462 211.283 193.849 210.897C194.235 210.499 194.429 209.908 194.429 209.123V207.622C194.429 206.838 194.235 206.252 193.849 205.866C193.462 205.468 192.95 205.269 192.313 205.269C191.676 205.269 191.164 205.468 190.777 205.866C190.39 206.252 190.197 206.838 190.197 207.622V209.123C190.197 209.908 190.39 210.499 190.777 210.897C191.164 211.283 191.676 211.476 192.313 211.476ZM200.358 212.807C199.721 212.807 199.243 212.647 198.924 212.329C198.617 211.999 198.464 211.545 198.464 210.965V200.187H200.324V211.289H201.552V212.807H200.358ZM208.91 211.34H208.824C208.631 211.863 208.313 212.272 207.869 212.568C207.437 212.863 206.924 213.011 206.333 213.011C205.207 213.011 204.337 212.607 203.722 211.8C203.108 210.982 202.801 209.839 202.801 208.373C202.801 206.906 203.108 205.769 203.722 204.962C204.337 204.144 205.207 203.735 206.333 203.735C206.924 203.735 207.437 203.882 207.869 204.178C208.313 204.462 208.631 204.871 208.824 205.405H208.91V200.187H210.77V212.807H208.91V211.34ZM206.896 211.408C207.465 211.408 207.943 211.272 208.329 210.999C208.716 210.714 208.91 210.345 208.91 209.891V206.855C208.91 206.4 208.716 206.037 208.329 205.764C207.943 205.48 207.465 205.338 206.896 205.338C206.248 205.338 205.73 205.548 205.343 205.968C204.956 206.378 204.763 206.923 204.763 207.605V209.14C204.763 209.822 204.956 210.374 205.343 210.794C205.73 211.204 206.248 211.408 206.896 211.408Z" fill="#414141"/>
<path d="M18.4507 29.1874H20.9762V34.6103H21.0785C21.1808 34.3601 21.3062 34.1271 21.4538 33.9113C21.6019 33.695 21.778 33.5077 21.9831 33.3484C22.1991 33.1779 22.4436 33.0471 22.7166 32.9562C23.0009 32.8539 23.3196 32.8028 23.6723 32.8028C24.0934 32.8028 24.4801 32.8766 24.8327 33.0245C25.1854 33.1607 25.487 33.3711 25.7369 33.6552C25.9873 33.9394 26.1806 34.2864 26.3173 34.6954C26.4654 35.1048 26.5392 35.5767 26.5392 36.1111V41.8064H24.0137V36.4518C24.0137 35.3152 23.5188 34.7465 22.5291 34.7465C22.3358 34.7465 22.142 34.775 21.9487 34.832C21.7667 34.8773 21.6019 34.9569 21.4538 35.0705C21.3062 35.1731 21.1867 35.3039 21.0957 35.4627C21.016 35.622 20.9762 35.8097 20.9762 36.0256V41.8064H18.4507V29.1874ZM35.3206 42.011C33.8418 42.011 32.7213 41.6019 31.9589 40.7834C31.1968 39.9646 30.8156 38.8506 30.8156 37.4408C30.8156 36.7246 30.9125 36.0826 31.1058 35.5139C31.3105 34.9343 31.5948 34.4456 31.9589 34.0475C32.3342 33.6384 32.7838 33.3313 33.3071 33.1267C33.8418 32.9105 34.439 32.8028 35.0987 32.8028C35.7584 32.8028 36.3501 32.9105 36.8735 33.1267C37.3969 33.3313 37.8406 33.6267 38.2046 34.0135C38.5686 34.3999 38.8471 34.8718 39.0408 35.4288C39.2455 35.9744 39.3478 36.5884 39.3478 37.2703V38.0208H33.3239V38.1742C33.3239 38.7425 33.5005 39.2031 33.8532 39.5555C34.2059 39.8967 34.7234 40.0672 35.4061 40.0672C35.9291 40.0672 36.3787 39.9704 36.754 39.7772C37.1293 39.5727 37.4535 39.3053 37.7265 38.9755L39.092 40.4591C38.7506 40.8799 38.2726 41.2436 37.6586 41.5508C37.0442 41.8576 36.265 42.011 35.3206 42.011ZM35.1159 34.6103C34.5699 34.6103 34.1317 34.7809 33.802 35.122C33.4833 35.4514 33.3239 35.9007 33.3239 36.469V36.6056H36.8735V36.469C36.8735 35.8894 36.7142 35.4346 36.3958 35.1048C36.0885 34.775 35.6619 34.6103 35.1159 34.6103ZM50.8937 41.8064C50.3704 41.8064 49.9493 41.6757 49.631 41.4142C49.3123 41.1414 49.1248 40.755 49.0678 40.2546H48.9826C48.8233 40.8346 48.5046 41.2721 48.0269 41.5676C47.5605 41.8634 46.986 42.011 46.3033 42.011C45.4502 42.011 44.762 41.7838 44.2387 41.3291C43.7266 40.8627 43.4708 40.2148 43.4708 39.385C43.4708 38.4642 43.8063 37.782 44.4777 37.3386C45.1487 36.8952 46.1326 36.6735 47.4297 36.6735H48.8459V36.2301C48.8459 35.7075 48.721 35.3152 48.4706 35.0537C48.2316 34.7809 47.8222 34.6443 47.2418 34.6443C46.7071 34.6443 46.2751 34.7465 45.9451 34.9514C45.6151 35.156 45.3307 35.4229 45.0917 35.7528L43.7094 34.5248C44.0055 34.0248 44.466 33.6154 45.0917 33.2973C45.7287 32.9675 46.5423 32.8028 47.532 32.8028C48.7377 32.8028 49.6763 33.0811 50.3477 33.6384C51.0301 34.1841 51.3714 35.0139 51.3714 36.1278V39.9818H52.3444V41.8064H50.8937ZM47.259 40.3568C47.7027 40.3568 48.0781 40.2491 48.3854 40.0329C48.6924 39.817 48.8459 39.5044 48.8459 39.095V38.038H47.498C46.4626 38.038 45.9451 38.3846 45.9451 39.0782V39.4189C45.9451 39.7261 46.0646 39.9591 46.3033 40.1184C46.5423 40.2772 46.861 40.3568 47.259 40.3568ZM61.9108 40.2035H61.7913C61.5636 40.7378 61.2453 41.1753 60.8355 41.5165C60.4375 41.8463 59.8856 42.011 59.1803 42.011C58.6913 42.011 58.2417 41.92 57.8324 41.7381C57.434 41.5563 57.0872 41.278 56.7915 40.9025C56.5068 40.5274 56.2794 40.0501 56.1088 39.4701C55.9494 38.8905 55.8697 38.2027 55.8697 37.4069C55.8697 36.611 55.9494 35.9233 56.1088 35.3437C56.2794 34.7637 56.5068 34.2864 56.7915 33.9113C57.0872 33.5358 57.434 33.2575 57.8324 33.0756C58.2417 32.8937 58.6913 32.8028 59.1803 32.8028C59.533 32.8028 59.8458 32.8481 60.1188 32.939C60.3918 33.03 60.6309 33.1552 60.8355 33.3141C61.0515 33.4733 61.2339 33.6665 61.3816 33.8941C61.5409 34.1099 61.6772 34.3488 61.7913 34.6103H61.9108V29.1874H64.4363V41.8064H61.9108V40.2035ZM60.2723 40.0501C60.716 40.0501 61.0972 39.9419 61.4159 39.7261C61.7456 39.5099 61.9108 39.1691 61.9108 38.7027V36.1111C61.9108 35.6446 61.7456 35.3039 61.4159 35.0877C61.0972 34.8718 60.716 34.7637 60.2723 34.7637C59.7036 34.7637 59.2658 34.9401 58.9584 35.2922C58.6514 35.6333 58.4979 36.1111 58.4979 36.7246V38.0891C58.4979 38.7027 58.6514 39.1859 58.9584 39.5384C59.2658 39.8795 59.7036 40.0501 60.2723 40.0501ZM73.4907 31.8817C72.922 31.8817 72.5236 31.7681 72.2963 31.5409C72.0799 31.302 71.9721 31.0179 71.9721 30.6881V30.1936C71.9721 29.8524 72.0799 29.5683 72.2963 29.3411C72.5236 29.1136 72.922 29 73.4907 29C74.0594 29 74.4519 29.1136 74.6683 29.3411C74.8956 29.5683 75.0093 29.8524 75.0093 30.1936V30.6881C75.0093 31.0179 74.8956 31.302 74.6683 31.5409C74.4519 31.7681 74.0594 31.8817 73.4907 31.8817ZM69.4294 39.8455H72.2279V34.9682H69.4294V33.0073H74.7534V39.8455H77.3473V41.8064H69.4294V39.8455ZM81.5554 41.8064V33.0073H84.0808V34.6103H84.1832C84.2859 34.3601 84.4109 34.1271 84.5589 33.9113C84.7066 33.695 84.8831 33.5077 85.0878 33.3484C85.3037 33.1779 85.5486 33.0471 85.8217 32.9562C86.106 32.8539 86.4243 32.8028 86.777 32.8028C87.1981 32.8028 87.5847 32.8766 87.9374 33.0245C88.2901 33.1607 88.5916 33.3711 88.842 33.6552C89.0924 33.9394 89.2857 34.2864 89.422 34.6954C89.57 35.1048 89.6439 35.5767 89.6439 36.1111V41.8064H87.1184V36.4518C87.1184 35.3152 86.6235 34.7465 85.6338 34.7465C85.4405 34.7465 85.2471 34.775 85.0538 34.832C84.8718 34.8773 84.7066 34.9569 84.5589 35.0705C84.4109 35.1731 84.2914 35.3039 84.2004 35.4627C84.1207 35.622 84.0808 35.8097 84.0808 36.0256V41.8064H81.5554ZM103.016 42.6932C103.016 43.6253 102.623 44.313 101.838 44.7564C101.053 45.1998 99.8188 45.4215 98.1354 45.4215C97.2934 45.4215 96.5997 45.3704 96.0537 45.2681C95.5072 45.1772 95.0694 45.0409 94.7394 44.8587C94.421 44.6768 94.1933 44.4609 94.057 44.2108C93.9316 43.9606 93.8691 43.6877 93.8691 43.3923C93.8691 42.8923 94.0172 42.5113 94.3129 42.2498C94.6085 41.9997 95.0241 41.8064 95.5588 41.6698V41.5676C95.1831 41.454 94.8819 41.2948 94.6542 41.0902C94.4382 40.8744 94.33 40.5731 94.33 40.1863C94.33 39.7546 94.4722 39.4361 94.7565 39.2316C95.0522 39.0271 95.4393 38.8678 95.917 38.7542V38.6516C95.3936 38.4018 94.9843 38.0493 94.6882 37.5946C94.4039 37.1399 94.2617 36.5884 94.2617 35.9405C94.2617 35.4288 94.3527 34.9795 94.5347 34.5931C94.7167 34.1954 94.9729 33.8656 95.3026 33.6041C95.6439 33.3426 96.0478 33.1439 96.5141 33.0073C96.9805 32.8707 97.5039 32.8028 98.0843 32.8028C98.6416 32.8028 99.1591 32.8652 99.6368 32.9901V32.5128C99.6368 32.1717 99.7563 31.8875 99.9954 31.66C100.234 31.4328 100.564 31.3192 100.985 31.3192H102.538V33.1607H100.422V33.3141C100.9 33.5643 101.269 33.9113 101.531 34.3547C101.804 34.7863 101.941 35.3152 101.941 35.9405C101.941 36.4518 101.85 36.901 101.668 37.2874C101.486 37.6739 101.224 38.0037 100.883 38.2765C100.541 38.538 100.132 38.7371 99.654 38.8733C99.1877 39.0099 98.6643 39.0782 98.0843 39.0782C97.8226 39.0782 97.5722 39.0665 97.3332 39.0438C97.0946 39.0099 96.8668 38.9642 96.6509 38.9076C96.5255 38.9755 96.4177 39.061 96.3267 39.1633C96.247 39.2655 96.2072 39.3963 96.2072 39.5555C96.2072 39.6918 96.2411 39.7999 96.3095 39.8795C96.3778 39.9591 96.4688 40.0216 96.5825 40.0672C96.7075 40.1012 96.8497 40.1238 97.009 40.1351C97.1684 40.1469 97.3332 40.1523 97.5039 40.1523H99.5177C100.143 40.1523 100.678 40.2148 101.121 40.3401C101.565 40.465 101.929 40.6414 102.214 40.8685C102.498 41.0961 102.703 41.3631 102.828 41.6698C102.953 41.977 103.016 42.3181 103.016 42.6932ZM100.627 42.8806C100.627 42.6534 100.536 42.4715 100.354 42.3349C100.172 42.21 99.8247 42.1476 99.3127 42.1476H96.2923C96.065 42.3408 95.9509 42.5797 95.9509 42.8638C95.9509 43.1366 96.065 43.3583 96.2923 43.5289C96.5313 43.7108 96.9293 43.8017 97.4871 43.8017H98.9717C99.5517 43.8017 99.9727 43.7221 100.234 43.5628C100.496 43.4036 100.627 43.1764 100.627 42.8806ZM98.0843 37.4752C98.5959 37.4752 98.9658 37.3499 99.1935 37.1001C99.4322 36.8499 99.5517 36.5314 99.5517 36.145V35.7356C99.5517 35.3492 99.4322 35.0311 99.1935 34.7809C98.9658 34.5307 98.5959 34.4058 98.0843 34.4058C97.5836 34.4058 97.2195 34.5307 96.9922 34.7809C96.7645 35.0311 96.6509 35.3492 96.6509 35.7356V36.145C96.6509 36.5314 96.7645 36.8499 96.9922 37.1001C97.2195 37.3499 97.5836 37.4752 98.0843 37.4752ZM110.705 42.011C109.727 42.011 108.874 41.8634 108.146 41.5676C107.429 41.2721 106.888 40.8685 106.524 40.3568L107.941 39.0438C108.282 39.4189 108.68 39.7148 109.135 39.9306C109.602 40.1351 110.131 40.2378 110.722 40.2378C111.223 40.2378 111.615 40.1636 111.899 40.0161C112.184 39.8569 112.326 39.618 112.326 39.2999C112.326 39.0497 112.229 38.8791 112.036 38.7882C111.843 38.6859 111.575 38.6063 111.234 38.5493L109.818 38.3276C109.42 38.271 109.05 38.1856 108.708 38.072C108.367 37.9471 108.071 37.782 107.821 37.5774C107.571 37.3729 107.372 37.1227 107.224 36.8273C107.076 36.5314 107.002 36.1735 107.002 35.7528C107.002 34.832 107.355 34.1099 108.06 33.5869C108.765 33.0643 109.755 32.8028 111.029 32.8028C111.894 32.8028 112.628 32.9222 113.231 33.1607C113.845 33.3883 114.334 33.7177 114.698 34.1497L113.436 35.5822C113.174 35.298 112.838 35.0592 112.429 34.866C112.019 34.6728 111.524 34.576 110.944 34.576C109.966 34.576 109.476 34.8718 109.476 35.4627C109.476 35.7243 109.573 35.9061 109.766 36.0084C109.96 36.0993 110.227 36.1735 110.569 36.2301L111.968 36.4518C112.366 36.5088 112.736 36.5997 113.077 36.7246C113.418 36.8386 113.714 36.9974 113.964 37.2024C114.226 37.4069 114.431 37.6571 114.579 37.9525C114.726 38.248 114.801 38.6063 114.801 39.0271C114.801 39.9478 114.442 40.6753 113.725 41.2097C113.02 41.744 112.013 42.011 110.705 42.011Z" fill="#FFA553"/>
</g>
<defs>
<clipPath id="clip0_65_4241">
<rect width="328" height="559" rx="30" fill="white"/>
</clipPath>
</defs>
</svg>
