<svg width="328" height="559" viewBox="0 0 328 559" fill="none" xmlns="http://www.w3.org/2000/svg">
<rect width="328" height="559" rx="30" fill="#F56F6C"/>
<path d="M28 92.9454V38.3985H38.5918L57.5333 80.9528H55.0593L74.0008 38.3985H84.5152V92.9454H73.5369V55.8845H76.6294L59.698 92.9454H52.7399L35.7312 55.8845H38.9783V92.9454H28ZM109.174 93.7965C104.278 93.7965 100.644 92.4553 98.273 89.7731C95.9021 87.0393 94.7167 82.9129 94.7167 77.3937V53.7181H106.391V77.3937C106.391 79.8696 106.88 81.7007 107.86 82.8871C108.891 84.0734 110.463 84.6666 112.576 84.6666C114.895 84.6666 116.802 83.8671 118.297 82.2681C119.843 80.6175 120.616 78.4253 120.616 75.6915V53.7181H132.29V92.9454H120.926V85.4403H122.008C120.822 88.071 119.122 90.1342 116.905 91.6301C114.689 93.0743 112.112 93.7965 109.174 93.7965ZM141.91 92.9454V36H153.584V92.9454H141.91ZM163.125 92.9454V53.7181H174.799V92.9454H163.125ZM162.661 47.2962V36.3869H175.186V47.2962H162.661ZM198.799 93.7965C195.294 93.7965 192.098 93.4096 189.212 92.6359C186.326 91.8622 183.877 90.779 181.867 89.3863L184.882 81.6491C186.893 82.8871 189.109 83.8671 191.531 84.5893C194.005 85.3114 196.453 85.6725 198.876 85.6725C201.144 85.6725 202.819 85.3114 203.901 84.5893C204.984 83.8671 205.525 82.8871 205.525 81.6491C205.525 80.6175 205.164 79.818 204.442 79.2506C203.772 78.6832 202.716 78.2706 201.273 78.0127L193.309 76.5426C189.959 75.8721 187.408 74.6341 185.655 72.8288C183.903 71.0235 183.027 68.6765 183.027 65.788C183.027 63.2605 183.697 61.0425 185.037 59.1341C186.429 57.174 188.413 55.6523 190.99 54.5691C193.567 53.4859 196.582 52.9443 200.036 52.9443C202.973 52.9443 205.757 53.3054 208.385 54.0275C211.014 54.7497 213.256 55.8587 215.111 57.3545L211.942 64.8595C210.344 63.6732 208.488 62.7189 206.375 61.9968C204.314 61.2747 202.329 60.9136 200.422 60.9136C197.948 60.9136 196.17 61.3262 195.088 62.1515C194.005 62.9253 193.464 63.9311 193.464 65.169C193.464 66.0975 193.773 66.8712 194.392 67.4902C195.062 68.1091 196.067 68.5734 197.407 68.8829L205.447 70.3529C208.901 70.9719 211.529 72.1325 213.333 73.8346C215.137 75.5368 216.039 77.8837 216.039 80.8754C216.039 83.6092 215.318 85.9304 213.874 87.8388C212.431 89.7473 210.395 91.2174 207.767 92.249C205.19 93.2807 202.2 93.7965 198.799 93.7965ZM223.299 92.9454V36H234.973V61.0683H233.813C235.05 58.4377 236.88 56.4261 239.303 55.0334C241.725 53.6407 244.508 52.9443 247.652 52.9443C252.24 52.9443 255.667 54.2854 257.935 56.9677C260.203 59.5983 261.337 63.6474 261.337 69.115V92.9454H249.662V69.6566C249.662 66.9228 249.147 64.9627 248.116 63.7764C247.137 62.59 245.591 61.9968 243.478 61.9968C240.9 61.9968 238.839 62.7963 237.293 64.3953C235.746 65.9943 234.973 68.1349 234.973 70.8171V92.9454H223.299Z" fill="white"/>
<path d="M28.701 125.286V119.104H29.4197L31.8558 124.593H31.5929L34.0289 119.104H34.7388V125.286H33.9938V120.191H34.2656L31.9785 125.286H31.4612L29.1742 120.191H29.446V125.286H28.701ZM37.7296 125.365C37.1978 125.365 36.7977 125.222 36.5292 124.935C36.2663 124.643 36.1347 124.201 36.1347 123.611V120.875H36.9321V123.593C36.9321 123.979 37.0108 124.263 37.1688 124.444C37.3267 124.625 37.5689 124.716 37.896 124.716C38.2642 124.716 38.559 124.596 38.7811 124.356C39.0088 124.111 39.1227 123.786 39.1227 123.383V120.875H39.9201V125.286H39.1489V124.312H39.2632C39.1404 124.646 38.9418 124.906 38.6672 125.093C38.3983 125.274 38.0857 125.365 37.7296 125.365ZM41.2612 125.286V118.832H42.0586V125.286H41.2612ZM43.3917 125.286V120.875H44.1892V125.286H43.3917ZM43.3219 119.91V119.051H44.2684V119.91H43.3219ZM47.0122 125.365C46.6561 125.365 46.323 125.318 46.0133 125.224C45.7096 125.131 45.4585 124.996 45.2598 124.821L45.5138 124.269C45.7303 124.432 45.9664 124.558 46.2237 124.646C46.4865 124.727 46.7555 124.769 47.0301 124.769C47.3627 124.769 47.6139 124.707 47.7835 124.584C47.9587 124.461 48.0463 124.298 48.0463 124.093C48.0463 123.93 47.9906 123.798 47.88 123.698C47.769 123.599 47.5937 123.526 47.3543 123.479L46.5217 123.313C46.1477 123.225 45.8643 123.085 45.6717 122.892C45.4847 122.693 45.391 122.438 45.391 122.129C45.391 121.872 45.4613 121.644 45.6014 121.445C45.7415 121.24 45.9402 121.082 46.1974 120.971C46.4603 120.854 46.7672 120.796 47.1177 120.796C47.4386 120.796 47.7366 120.843 48.0112 120.936C48.2919 121.03 48.5224 121.167 48.7037 121.348L48.4404 121.883C48.2595 121.725 48.0553 121.606 47.8271 121.524C47.6054 121.436 47.3772 121.392 47.1439 121.392C46.8051 121.392 46.5535 121.459 46.39 121.594C46.2265 121.722 46.1449 121.892 46.1449 122.102C46.1449 122.26 46.1946 122.392 46.2939 122.497C46.3933 122.596 46.5535 122.672 46.7756 122.725L47.6082 122.892C47.9995 122.973 48.2947 123.108 48.4934 123.295C48.692 123.482 48.7913 123.731 48.7913 124.04C48.7913 124.315 48.715 124.552 48.5632 124.751C48.4174 124.95 48.2099 125.101 47.9414 125.207C47.6781 125.312 47.3688 125.365 47.0122 125.365ZM49.8784 125.286V118.832H50.6759V121.831H50.562C50.6904 121.492 50.8975 121.234 51.1838 121.059C51.4701 120.884 51.8004 120.796 52.1743 120.796C52.7057 120.796 53.0969 120.939 53.3486 121.225C53.6053 121.512 53.7337 121.945 53.7337 122.523V125.286H52.9367V122.567C52.9367 122.175 52.8603 121.892 52.7085 121.717C52.5567 121.535 52.3084 121.445 51.964 121.445C51.5784 121.445 51.2658 121.564 51.0264 121.804C50.7926 122.044 50.6759 122.363 50.6759 122.76V125.286H49.8784ZM57.3486 125.286V120.875H58.1461V125.286H57.3486ZM57.2788 119.91V119.051H58.2253V119.91H57.2788ZM60.9692 125.365C60.6131 125.365 60.2799 125.318 59.9702 125.224C59.6666 125.131 59.4155 124.996 59.2168 124.821L59.4708 124.269C59.6868 124.432 59.9234 124.558 60.1806 124.646C60.4435 124.727 60.7124 124.769 60.987 124.769C61.3197 124.769 61.5708 124.707 61.7404 124.584C61.9157 124.461 62.0033 124.298 62.0033 124.093C62.0033 123.93 61.9475 123.798 61.837 123.698C61.7259 123.599 61.5507 123.526 61.3108 123.479L60.4786 123.313C60.1047 123.225 59.8212 123.085 59.6287 122.892C59.4417 122.693 59.348 122.438 59.348 122.129C59.348 121.872 59.4183 121.644 59.5584 121.445C59.6985 121.24 59.8971 121.082 60.1544 120.971C60.4172 120.854 60.7237 120.796 61.0746 120.796C61.3956 120.796 61.6936 120.843 61.9682 120.936C62.2484 121.03 62.4794 121.167 62.6602 121.348L62.3974 121.883C62.2165 121.725 62.0122 121.606 61.784 121.524C61.5624 121.436 61.3342 121.392 61.1009 121.392C60.7621 121.392 60.5105 121.459 60.347 121.594C60.1834 121.722 60.1019 121.892 60.1019 122.102C60.1019 122.26 60.1516 122.392 60.2509 122.497C60.3502 122.596 60.5105 122.672 60.7326 122.725L61.5652 122.892C61.9565 122.973 62.2516 123.108 62.4503 123.295C62.649 123.482 62.7478 123.731 62.7478 124.04C62.7478 124.315 62.6719 124.552 62.5201 124.751C62.3744 124.95 62.1668 125.101 61.8979 125.207C61.635 125.312 61.3258 125.365 60.9692 125.365ZM67.828 125.365C67.4428 125.365 67.1036 125.274 66.8117 125.093C66.5197 124.912 66.2915 124.648 66.128 124.303C65.9645 123.959 65.883 123.549 65.883 123.076C65.883 122.602 65.9645 122.196 66.128 121.857C66.2915 121.512 66.5197 121.249 66.8117 121.068C67.1036 120.886 67.4428 120.796 67.828 120.796C68.2197 120.796 68.5584 120.895 68.8447 121.094C69.1366 121.287 69.3297 121.553 69.4229 121.892H69.318L69.414 120.875H70.1853C70.1679 121.05 70.1501 121.225 70.1328 121.401C70.1211 121.576 70.115 121.749 70.115 121.918V125.286H69.318V124.277H69.414C69.3208 124.61 69.1277 124.876 68.8358 125.075C68.5495 125.268 68.2136 125.365 67.828 125.365ZM68.0121 124.733C68.4094 124.733 68.7276 124.593 68.9675 124.312C69.2069 124.032 69.3264 123.62 69.3264 123.076C69.3264 122.532 69.2069 122.123 68.9675 121.848C68.7276 121.573 68.4094 121.436 68.0121 121.436C67.6148 121.436 67.2938 121.573 67.0483 121.848C66.8088 122.123 66.6889 122.532 66.6889 123.076C66.6889 123.62 66.8088 124.032 67.0483 124.312C67.2877 124.593 67.6091 124.733 68.0121 124.733ZM73.7618 125.286V121.918C73.7618 121.749 73.7557 121.576 73.744 121.401C73.7323 121.225 73.7149 121.05 73.6915 120.875H74.4628L74.5504 121.822H74.4454C74.5621 121.495 74.749 121.243 75.0058 121.068C75.2631 120.886 75.57 120.796 75.9261 120.796C76.2883 120.796 76.5863 120.884 76.8201 121.059C77.0534 121.229 77.2113 121.497 77.2928 121.865H77.1616C77.2727 121.538 77.4681 121.278 77.7488 121.085C78.029 120.892 78.3565 120.796 78.7299 120.796C79.2149 120.796 79.5799 120.939 79.8254 121.225C80.0709 121.506 80.1937 121.945 80.1937 122.541V125.286H79.3962V122.585C79.3962 122.181 79.3259 121.892 79.1858 121.717C79.0457 121.535 78.8236 121.445 78.52 121.445C78.1634 121.445 77.8832 121.568 77.6785 121.813C77.4742 122.053 77.372 122.38 77.372 122.795V125.286H76.5745V122.585C76.5745 122.181 76.5043 121.892 76.3642 121.717C76.2297 121.535 76.0081 121.445 75.6983 121.445C75.3418 121.445 75.0616 121.568 74.8568 121.813C74.6586 122.053 74.5593 122.38 74.5593 122.795V125.286H73.7618ZM81.4977 125.286V120.875H82.2947V125.286H81.4977ZM81.4274 119.91V119.051H82.3739V119.91H81.4274ZM83.6282 125.286V121.918C83.6282 121.749 83.6226 121.576 83.6109 121.401C83.5992 121.225 83.5814 121.05 83.5579 120.875H84.3292L84.4168 121.822H84.3119C84.4459 121.488 84.6534 121.234 84.9341 121.059C85.2143 120.884 85.5414 120.796 85.9153 120.796C86.4354 120.796 86.8266 120.939 87.0895 121.225C87.3523 121.506 87.484 121.945 87.484 122.541V125.286H86.6865V122.585C86.6865 122.181 86.6073 121.892 86.4499 121.717C86.292 121.535 86.0469 121.445 85.7138 121.445C85.3164 121.445 85.0011 121.564 84.7673 121.804C84.5396 122.044 84.4257 122.369 84.4257 122.777V125.286H83.6282ZM88.7885 125.286V120.875H89.5855V125.286H88.7885ZM88.7182 119.91V119.051H89.6647V119.91H88.7182ZM90.919 125.286V121.918C90.919 121.749 90.9134 121.576 90.9017 121.401C90.8899 121.225 90.8721 121.05 90.8487 120.875H91.62L91.7076 121.822H91.6026C91.7193 121.495 91.9062 121.243 92.1635 121.068C92.4203 120.886 92.7272 120.796 93.0833 120.796C93.4455 120.796 93.7435 120.884 93.9773 121.059C94.2111 121.229 94.3685 121.497 94.4505 121.865H94.3189C94.4299 121.538 94.6258 121.278 94.906 121.085C95.1866 120.892 95.5137 120.796 95.8876 120.796C96.3726 120.796 96.7376 120.939 96.9826 121.225C97.2281 121.506 97.3509 121.945 97.3509 122.541V125.286H96.5534V122.585C96.5534 122.181 96.4831 121.892 96.343 121.717C96.2029 121.535 95.9809 121.445 95.6772 121.445C95.3206 121.445 95.0404 121.568 94.8362 121.813C94.6314 122.053 94.5293 122.38 94.5293 122.795V125.286H93.7318V122.585C93.7318 122.181 93.6619 121.892 93.5214 121.717C93.3874 121.535 93.1653 121.445 92.8556 121.445C92.4995 121.445 92.2188 121.568 92.0145 121.813C91.8158 122.053 91.7165 122.38 91.7165 122.795V125.286H90.919ZM100.337 125.365C99.9519 125.365 99.6131 125.274 99.3207 125.093C99.0288 124.912 98.8011 124.648 98.6371 124.303C98.4736 123.959 98.392 123.549 98.392 123.076C98.392 122.602 98.4736 122.196 98.6371 121.857C98.8011 121.512 99.0288 121.249 99.3207 121.068C99.6131 120.886 99.9519 120.796 100.337 120.796C100.729 120.796 101.068 120.895 101.354 121.094C101.646 121.287 101.839 121.553 101.932 121.892H101.827L101.923 120.875H102.694C102.677 121.05 102.659 121.225 102.642 121.401C102.63 121.576 102.625 121.749 102.625 121.918V125.286H101.827V124.277H101.923C101.83 124.61 101.637 124.876 101.345 125.075C101.059 125.268 100.723 125.365 100.337 125.365ZM100.521 124.733C100.919 124.733 101.237 124.593 101.477 124.312C101.716 124.032 101.835 123.62 101.835 123.076C101.835 122.532 101.716 122.123 101.477 121.848C101.237 121.573 100.919 121.436 100.521 121.436C100.124 121.436 99.8029 121.573 99.5573 121.848C99.3179 122.123 99.198 122.532 99.198 123.076C99.198 123.62 99.3179 124.032 99.5573 124.312C99.7968 124.593 100.118 124.733 100.521 124.733ZM103.96 125.286V118.832H104.758V125.286H103.96ZM106.091 125.286V120.875H106.888V125.286H106.091ZM106.021 119.91V119.051H106.968V119.91H106.021ZM109.711 125.365C109.355 125.365 109.022 125.318 108.713 125.224C108.409 125.131 108.158 124.996 107.959 124.821L108.213 124.269C108.429 124.432 108.666 124.558 108.923 124.646C109.186 124.727 109.455 124.769 109.729 124.769C110.062 124.769 110.313 124.707 110.483 124.584C110.658 124.461 110.746 124.298 110.746 124.093C110.746 123.93 110.69 123.798 110.579 123.698C110.468 123.599 110.293 123.526 110.053 123.479L109.221 123.313C108.847 123.225 108.564 123.085 108.371 122.892C108.184 122.693 108.09 122.438 108.09 122.129C108.09 121.872 108.161 121.644 108.301 121.445C108.441 121.24 108.639 121.082 108.897 120.971C109.16 120.854 109.466 120.796 109.816 120.796C110.138 120.796 110.436 120.843 110.71 120.936C110.991 121.03 111.222 121.167 111.403 121.348L111.14 121.883C110.959 121.725 110.754 121.606 110.526 121.524C110.305 121.436 110.076 121.392 109.843 121.392C109.504 121.392 109.253 121.459 109.089 121.594C108.926 121.722 108.844 121.892 108.844 122.102C108.844 122.26 108.894 122.392 108.993 122.497C109.093 122.596 109.253 122.672 109.475 122.725L110.308 122.892C110.699 122.973 110.994 123.108 111.193 123.295C111.391 123.482 111.49 123.731 111.49 124.04C111.49 124.315 111.414 124.552 111.262 124.751C111.117 124.95 110.909 125.101 110.64 125.207C110.377 125.312 110.068 125.365 109.711 125.365ZM114.182 125.365C113.72 125.365 113.37 125.239 113.131 124.988C112.897 124.731 112.78 124.345 112.78 123.83V121.488H111.921V120.875H112.78V119.691L113.578 119.472V120.875H114.822V121.488H113.578V123.76C113.578 124.099 113.636 124.341 113.753 124.488C113.876 124.628 114.051 124.698 114.279 124.698C114.395 124.698 114.495 124.689 114.577 124.672C114.664 124.648 114.743 124.622 114.813 124.593V125.251C114.726 125.286 114.623 125.312 114.506 125.33C114.395 125.353 114.287 125.365 114.182 125.365ZM120.098 125.365C119.601 125.365 119.154 125.3 118.757 125.172C118.36 125.043 118.015 124.862 117.723 124.628L118.004 123.979C118.208 124.131 118.415 124.26 118.626 124.365C118.836 124.464 119.061 124.54 119.301 124.593C119.546 124.64 119.812 124.663 120.098 124.663C120.606 124.663 120.98 124.573 121.22 124.391C121.465 124.204 121.588 123.959 121.588 123.655C121.588 123.392 121.503 123.19 121.334 123.049C121.164 122.909 120.869 122.798 120.449 122.717L119.511 122.523C118.944 122.407 118.521 122.217 118.24 121.954C117.966 121.684 117.828 121.322 117.828 120.866C117.828 120.498 117.925 120.176 118.117 119.901C118.316 119.621 118.588 119.405 118.933 119.253C119.283 119.1 119.692 119.024 120.159 119.024C120.591 119.024 120.992 119.089 121.36 119.217C121.728 119.346 122.037 119.536 122.289 119.787L122.008 120.41C121.745 120.17 121.462 119.998 121.158 119.893C120.86 119.782 120.522 119.726 120.142 119.726C119.68 119.726 119.315 119.825 119.047 120.024C118.778 120.223 118.643 120.492 118.643 120.831C118.643 121.1 118.728 121.313 118.898 121.471C119.067 121.623 119.347 121.74 119.739 121.822L120.676 122.006C121.272 122.123 121.708 122.307 121.982 122.559C122.262 122.81 122.402 123.158 122.402 123.602C122.402 123.953 122.309 124.263 122.122 124.532C121.935 124.795 121.67 124.999 121.325 125.146C120.98 125.291 120.571 125.365 120.098 125.365ZM125.153 125.365C124.768 125.365 124.429 125.274 124.137 125.093C123.845 124.912 123.617 124.648 123.453 124.303C123.29 123.959 123.208 123.549 123.208 123.076C123.208 122.602 123.29 122.196 123.453 121.857C123.617 121.512 123.845 121.249 124.137 121.068C124.429 120.886 124.768 120.796 125.153 120.796C125.545 120.796 125.884 120.895 126.17 121.094C126.462 121.287 126.655 121.553 126.748 121.892H126.643L126.739 120.875H127.511C127.493 121.05 127.475 121.225 127.458 121.401C127.446 121.576 127.44 121.749 127.44 121.918V125.286H126.643V124.277H126.739C126.646 124.61 126.453 124.876 126.161 125.075C125.875 125.268 125.539 125.365 125.153 125.365ZM125.337 124.733C125.735 124.733 126.053 124.593 126.292 124.312C126.532 124.032 126.652 123.62 126.652 123.076C126.652 122.532 126.532 122.123 126.292 121.848C126.053 121.573 125.735 121.436 125.337 121.436C124.94 121.436 124.619 121.573 124.374 121.848C124.134 122.123 124.014 122.532 124.014 123.076C124.014 123.62 124.134 124.032 124.374 124.312C124.613 124.593 124.934 124.733 125.337 124.733ZM128.777 125.286V121.918C128.777 121.749 128.771 121.576 128.759 121.401C128.747 121.225 128.73 121.05 128.706 120.875H129.478L129.565 121.822H129.46C129.594 121.488 129.802 121.234 130.082 121.059C130.362 120.884 130.69 120.796 131.064 120.796C131.583 120.796 131.975 120.939 132.238 121.225C132.501 121.506 132.632 121.945 132.632 122.541V125.286H131.834V122.585C131.834 122.181 131.756 121.892 131.598 121.717C131.44 121.535 131.195 121.445 130.862 121.445C130.465 121.445 130.149 121.564 129.916 121.804C129.688 122.044 129.574 122.369 129.574 122.777V125.286H128.777ZM135.426 125.365C135.07 125.365 134.737 125.318 134.427 125.224C134.123 125.131 133.872 124.996 133.674 124.821L133.928 124.269C134.144 124.432 134.381 124.558 134.637 124.646C134.9 124.727 135.169 124.769 135.444 124.769C135.776 124.769 136.028 124.707 136.197 124.584C136.372 124.461 136.46 124.298 136.46 124.093C136.46 123.93 136.405 123.798 136.294 123.698C136.183 123.599 136.007 123.526 135.768 123.479L134.935 123.313C134.562 123.225 134.278 123.085 134.085 122.892C133.898 122.693 133.805 122.438 133.805 122.129C133.805 121.872 133.875 121.644 134.015 121.445C134.156 121.24 134.354 121.082 134.611 120.971C134.874 120.854 135.181 120.796 135.531 120.796C135.852 120.796 136.15 120.843 136.425 120.936C136.706 121.03 136.936 121.167 137.117 121.348L136.855 121.883C136.673 121.725 136.469 121.606 136.241 121.524C136.019 121.436 135.791 121.392 135.558 121.392C135.219 121.392 134.968 121.459 134.804 121.594C134.64 121.722 134.559 121.892 134.559 122.102C134.559 122.26 134.608 122.392 134.708 122.497C134.807 122.596 134.968 122.672 135.189 122.725L136.022 122.892C136.413 122.973 136.708 123.108 136.907 123.295C137.106 123.482 137.205 123.731 137.205 124.04C137.205 124.315 137.129 124.552 136.977 124.751C136.831 124.95 136.624 125.101 136.355 125.207C136.092 125.312 135.783 125.365 135.426 125.365ZM142.732 125.365C142.236 125.365 141.789 125.3 141.391 125.172C140.994 125.043 140.649 124.862 140.357 124.628L140.638 123.979C140.842 124.131 141.05 124.26 141.26 124.365C141.47 124.464 141.695 124.54 141.935 124.593C142.18 124.64 142.446 124.663 142.732 124.663C143.24 124.663 143.614 124.573 143.853 124.391C144.099 124.204 144.222 123.959 144.222 123.655C144.222 123.392 144.137 123.19 143.967 123.049C143.798 122.909 143.503 122.798 143.082 122.717L142.145 122.523C141.578 122.407 141.155 122.217 140.874 121.954C140.6 121.684 140.463 121.322 140.463 120.866C140.463 120.498 140.559 120.176 140.752 119.901C140.95 119.621 141.222 119.405 141.566 119.253C141.917 119.1 142.326 119.024 142.793 119.024C143.226 119.024 143.626 119.089 143.994 119.217C144.362 119.346 144.672 119.536 144.923 119.787L144.642 120.41C144.379 120.17 144.096 119.998 143.792 119.893C143.494 119.782 143.155 119.726 142.776 119.726C142.314 119.726 141.949 119.825 141.68 120.024C141.412 120.223 141.277 120.492 141.277 120.831C141.277 121.1 141.362 121.313 141.531 121.471C141.701 121.623 141.981 121.74 142.373 121.822L143.31 122.006C143.906 122.123 144.341 122.307 144.616 122.559C144.896 122.81 145.037 123.158 145.037 123.602C145.037 123.953 144.943 124.263 144.756 124.532C144.569 124.795 144.303 124.999 143.959 125.146C143.614 125.291 143.205 125.365 142.732 125.365ZM148.112 125.365C147.644 125.365 147.241 125.274 146.902 125.093C146.564 124.912 146.301 124.651 146.114 124.312C145.932 123.973 145.842 123.567 145.842 123.094C145.842 122.626 145.93 122.222 146.105 121.883C146.286 121.538 146.534 121.272 146.85 121.085C147.165 120.892 147.533 120.796 147.954 120.796C148.357 120.796 148.699 120.884 148.979 121.059C149.26 121.229 149.473 121.471 149.619 121.787C149.765 122.102 149.838 122.476 149.838 122.909V123.172H146.464V122.699H149.294L149.145 122.813C149.145 122.357 149.043 122.003 148.839 121.752C148.64 121.5 148.345 121.374 147.954 121.374C147.668 121.374 147.425 121.442 147.227 121.576C147.028 121.711 146.876 121.901 146.771 122.146C146.666 122.392 146.613 122.684 146.613 123.023V123.102C146.613 123.64 146.744 124.046 147.007 124.321C147.276 124.596 147.647 124.733 148.12 124.733C148.383 124.733 148.629 124.695 148.856 124.619C149.084 124.543 149.303 124.418 149.514 124.242L149.777 124.795C149.578 124.976 149.33 125.116 149.032 125.215C148.74 125.315 148.433 125.365 148.112 125.365ZM150.871 125.286V121.954C150.871 121.778 150.865 121.6 150.854 121.419C150.848 121.231 150.833 121.05 150.81 120.875H151.581L151.677 121.98L151.546 121.988C151.604 121.72 151.704 121.497 151.844 121.322C151.99 121.141 152.162 121.009 152.361 120.927C152.565 120.839 152.776 120.796 152.992 120.796C153.085 120.796 153.164 120.799 153.228 120.805C153.293 120.81 153.357 120.825 153.421 120.848L153.404 121.559C153.316 121.524 153.234 121.503 153.158 121.497C153.088 121.486 153.001 121.48 152.895 121.48C152.638 121.48 152.416 121.538 152.229 121.655C152.048 121.772 151.908 121.927 151.809 122.12C151.715 122.313 151.669 122.521 151.669 122.743V125.286H150.871ZM154.123 125.286V120.875H154.92V125.286H154.123ZM154.053 119.91V119.051H155V119.91H154.053ZM156.499 125.286V121.488H155.641V120.875H156.718L156.499 121.076V120.366C156.499 119.851 156.628 119.463 156.885 119.2C157.142 118.931 157.516 118.796 158.006 118.796C158.123 118.796 158.246 118.805 158.375 118.823C158.509 118.84 158.62 118.87 158.707 118.91V119.559C158.637 119.53 158.55 119.507 158.444 119.489C158.339 119.472 158.237 119.463 158.138 119.463C157.963 119.463 157.811 119.498 157.682 119.568C157.554 119.638 157.457 119.744 157.393 119.884C157.329 120.018 157.296 120.197 157.296 120.419V121.042L157.174 120.875H158.515V121.488H157.296V125.286H156.499ZM163.233 125.365C162.771 125.365 162.421 125.239 162.181 124.988C161.947 124.731 161.83 124.345 161.83 123.83V121.488H160.972V120.875H161.83V119.691L162.628 119.472V120.875H163.872V121.488H162.628V123.76C162.628 124.099 162.686 124.341 162.803 124.488C162.926 124.628 163.101 124.698 163.329 124.698C163.446 124.698 163.545 124.689 163.627 124.672C163.714 124.648 163.793 124.622 163.863 124.593V125.251C163.776 125.286 163.674 125.312 163.557 125.33C163.446 125.353 163.338 125.365 163.233 125.365ZM164.62 127.276L164.435 126.627C164.71 126.563 164.938 126.487 165.119 126.399C165.3 126.318 165.452 126.21 165.574 126.075C165.697 125.94 165.805 125.771 165.899 125.566L166.118 125.04L166.1 125.373L164.181 120.875H165.04L166.573 124.655H166.346L167.879 120.875H168.703L166.679 125.628C166.556 125.914 166.422 126.154 166.275 126.347C166.135 126.54 165.981 126.698 165.811 126.821C165.648 126.943 165.467 127.039 165.268 127.11C165.069 127.18 164.853 127.235 164.62 127.276ZM169.449 127.18V121.918C169.449 121.749 169.443 121.576 169.432 121.401C169.42 121.225 169.403 121.05 169.379 120.875H170.15L170.246 121.892H170.15C170.238 121.553 170.425 121.287 170.711 121.094C170.997 120.895 171.339 120.796 171.736 120.796C172.128 120.796 172.469 120.886 172.762 121.068C173.054 121.249 173.279 121.512 173.436 121.857C173.6 122.196 173.681 122.602 173.681 123.076C173.681 123.549 173.6 123.959 173.436 124.303C173.279 124.648 173.054 124.912 172.762 125.093C172.469 125.274 172.128 125.365 171.736 125.365C171.345 125.365 171.006 125.268 170.72 125.075C170.44 124.876 170.25 124.61 170.15 124.277H170.246V127.18H169.449ZM171.552 124.733C171.955 124.733 172.277 124.593 172.516 124.312C172.756 124.032 172.876 123.62 172.876 123.076C172.876 122.532 172.756 122.123 172.516 121.848C172.277 121.573 171.955 121.436 171.552 121.436C171.149 121.436 170.828 121.573 170.589 121.848C170.355 122.123 170.238 122.532 170.238 123.076C170.238 123.62 170.355 124.032 170.589 124.312C170.828 124.593 171.149 124.733 171.552 124.733ZM176.761 125.365C176.294 125.365 175.891 125.274 175.552 125.093C175.213 124.912 174.95 124.651 174.763 124.312C174.583 123.973 174.492 123.567 174.492 123.094C174.492 122.626 174.58 122.222 174.755 121.883C174.936 121.538 175.184 121.272 175.499 121.085C175.815 120.892 176.183 120.796 176.604 120.796C177.007 120.796 177.348 120.884 177.629 121.059C177.909 121.229 178.122 121.471 178.269 121.787C178.415 122.102 178.487 122.476 178.487 122.909V123.172H175.114V122.699H177.944L177.795 122.813C177.795 122.357 177.693 122.003 177.489 121.752C177.29 121.5 176.995 121.374 176.604 121.374C176.318 121.374 176.075 121.442 175.876 121.576C175.678 121.711 175.526 121.901 175.421 122.146C175.315 122.392 175.263 122.684 175.263 123.023V123.102C175.263 123.64 175.395 124.046 175.657 124.321C175.926 124.596 176.297 124.733 176.77 124.733C177.033 124.733 177.279 124.695 177.506 124.619C177.734 124.543 177.953 124.418 178.163 124.242L178.426 124.795C178.228 124.976 177.98 125.116 177.682 125.215C177.389 125.315 177.083 125.365 176.761 125.365ZM179.767 125.286V121.488H178.908V120.875H179.985L179.767 121.076V120.366C179.767 119.851 179.895 119.463 180.152 119.2C180.409 118.931 180.783 118.796 181.274 118.796C181.391 118.796 181.513 118.805 181.642 118.823C181.776 118.84 181.887 118.87 181.974 118.91V119.559C181.905 119.53 181.817 119.507 181.712 119.489C181.607 119.472 181.505 119.463 181.405 119.463C181.23 119.463 181.078 119.498 180.949 119.568C180.821 119.638 180.724 119.744 180.66 119.884C180.596 120.018 180.564 120.197 180.564 120.419V121.042L180.441 120.875H181.782V121.488H180.564V125.286H179.767ZM184.181 125.365C183.796 125.365 183.457 125.274 183.165 125.093C182.873 124.912 182.645 124.648 182.481 124.303C182.318 123.959 182.236 123.549 182.236 123.076C182.236 122.602 182.318 122.196 182.481 121.857C182.645 121.512 182.873 121.249 183.165 121.068C183.457 120.886 183.796 120.796 184.181 120.796C184.573 120.796 184.912 120.895 185.198 121.094C185.49 121.287 185.683 121.553 185.776 121.892H185.671L185.767 120.875H186.539C186.521 121.05 186.504 121.225 186.486 121.401C186.475 121.576 186.468 121.749 186.468 121.918V125.286H185.671V124.277H185.767C185.674 124.61 185.481 124.876 185.189 125.075C184.903 125.268 184.567 125.365 184.181 125.365ZM184.366 124.733C184.763 124.733 185.081 124.593 185.32 124.312C185.56 124.032 185.68 123.62 185.68 123.076C185.68 122.532 185.56 122.123 185.32 121.848C185.081 121.573 184.763 121.436 184.366 121.436C183.968 121.436 183.647 121.573 183.402 121.848C183.162 122.123 183.042 122.532 183.042 123.076C183.042 123.62 183.162 124.032 183.402 124.312C183.641 124.593 183.963 124.733 184.366 124.733ZM189.697 125.365C189.259 125.365 188.88 125.274 188.558 125.093C188.237 124.906 187.986 124.64 187.805 124.295C187.63 123.944 187.542 123.529 187.542 123.049C187.542 122.576 187.632 122.173 187.813 121.839C187.995 121.5 188.246 121.243 188.567 121.068C188.888 120.886 189.265 120.796 189.697 120.796C189.984 120.796 190.261 120.846 190.53 120.945C190.798 121.038 191.018 121.176 191.187 121.357L190.916 121.918C190.746 121.755 190.559 121.635 190.355 121.559C190.15 121.477 189.948 121.436 189.75 121.436C189.318 121.436 188.979 121.576 188.733 121.857C188.488 122.132 188.366 122.532 188.366 123.058C188.366 123.59 188.488 124 188.733 124.286C188.979 124.573 189.318 124.716 189.75 124.716C189.943 124.716 190.141 124.678 190.346 124.602C190.55 124.526 190.74 124.406 190.916 124.242L191.187 124.795C191.012 124.982 190.787 125.125 190.512 125.224C190.244 125.318 189.972 125.365 189.697 125.365ZM194.081 125.365C193.614 125.365 193.211 125.274 192.872 125.093C192.533 124.912 192.271 124.651 192.084 124.312C191.902 123.973 191.812 123.567 191.812 123.094C191.812 122.626 191.9 122.222 192.075 121.883C192.256 121.538 192.504 121.272 192.819 121.085C193.135 120.892 193.503 120.796 193.924 120.796C194.327 120.796 194.668 120.884 194.949 121.059C195.229 121.229 195.442 121.471 195.588 121.787C195.735 122.102 195.808 122.476 195.808 122.909V123.172H192.434V122.699H195.264L195.115 122.813C195.115 122.357 195.013 122.003 194.809 121.752C194.61 121.5 194.315 121.374 193.924 121.374C193.637 121.374 193.395 121.442 193.196 121.576C192.998 121.711 192.846 121.901 192.741 122.146C192.636 122.392 192.583 122.684 192.583 123.023V123.102C192.583 123.64 192.714 124.046 192.977 124.321C193.246 124.596 193.617 124.733 194.09 124.733C194.353 124.733 194.598 124.695 194.826 124.619C195.054 124.543 195.273 124.418 195.484 124.242L195.746 124.795C195.548 124.976 195.299 125.116 195.001 125.215C194.709 125.315 194.403 125.365 194.081 125.365ZM197.121 126.329L196.762 126.049C196.926 125.879 197.037 125.719 197.095 125.566C197.153 125.42 197.183 125.268 197.183 125.11L197.358 125.286H196.718V124.312H197.691V124.988C197.691 125.157 197.674 125.315 197.638 125.461C197.603 125.613 197.545 125.759 197.463 125.9C197.381 126.046 197.267 126.189 197.121 126.329ZM202.888 125.365C202.502 125.365 202.163 125.274 201.871 125.093C201.579 124.912 201.351 124.648 201.188 124.303C201.024 123.959 200.942 123.549 200.942 123.076C200.942 122.602 201.024 122.196 201.188 121.857C201.351 121.512 201.579 121.249 201.871 121.068C202.163 120.886 202.502 120.796 202.888 120.796C203.273 120.796 203.609 120.892 203.896 121.085C204.187 121.278 204.383 121.544 204.483 121.883H204.377V118.832H205.175V125.286H204.386V124.26H204.483C204.389 124.605 204.196 124.876 203.904 125.075C203.618 125.268 203.279 125.365 202.888 125.365ZM203.072 124.733C203.469 124.733 203.787 124.593 204.027 124.312C204.272 124.032 204.395 123.62 204.395 123.076C204.395 122.532 204.272 122.123 204.027 121.848C203.787 121.573 203.469 121.436 203.072 121.436C202.674 121.436 202.353 121.573 202.108 121.848C201.869 122.123 201.749 122.532 201.749 123.076C201.749 123.62 201.869 124.032 202.108 124.312C202.353 124.593 202.674 124.733 203.072 124.733ZM208.517 125.365C208.05 125.365 207.647 125.274 207.308 125.093C206.969 124.912 206.706 124.651 206.519 124.312C206.339 123.973 206.248 123.567 206.248 123.094C206.248 122.626 206.335 122.222 206.511 121.883C206.692 121.538 206.94 121.272 207.256 121.085C207.571 120.892 207.939 120.796 208.36 120.796C208.763 120.796 209.104 120.884 209.385 121.059C209.665 121.229 209.879 121.471 210.025 121.787C210.17 122.102 210.244 122.476 210.244 122.909V123.172H206.87V122.699H209.701L209.552 122.813C209.552 122.357 209.449 122.003 209.245 121.752C209.046 121.5 208.751 121.374 208.36 121.374C208.074 121.374 207.831 121.442 207.632 121.576C207.434 121.711 207.282 121.901 207.177 122.146C207.071 122.392 207.019 122.684 207.019 123.023V123.102C207.019 123.64 207.151 124.046 207.413 124.321C207.682 124.596 208.053 124.733 208.526 124.733C208.789 124.733 209.034 124.695 209.262 124.619C209.49 124.543 209.709 124.418 209.919 124.242L210.182 124.795C209.984 124.976 209.736 125.116 209.438 125.215C209.145 125.315 208.839 125.365 208.517 125.365ZM212.775 125.365C212.419 125.365 212.086 125.318 211.777 125.224C211.473 125.131 211.221 124.996 211.023 124.821L211.277 124.269C211.493 124.432 211.73 124.558 211.987 124.646C212.249 124.727 212.518 124.769 212.793 124.769C213.126 124.769 213.377 124.707 213.546 124.584C213.722 124.461 213.809 124.298 213.809 124.093C213.809 123.93 213.754 123.798 213.643 123.698C213.532 123.599 213.357 123.526 213.117 123.479L212.285 123.313C211.911 123.225 211.628 123.085 211.435 122.892C211.248 122.693 211.154 122.438 211.154 122.129C211.154 121.872 211.224 121.644 211.365 121.445C211.505 121.24 211.704 121.082 211.96 120.971C212.223 120.854 212.53 120.796 212.881 120.796C213.202 120.796 213.5 120.843 213.774 120.936C214.055 121.03 214.285 121.167 214.467 121.348L214.204 121.883C214.022 121.725 213.818 121.606 213.59 121.524C213.368 121.436 213.141 121.392 212.907 121.392C212.568 121.392 212.317 121.459 212.153 121.594C211.99 121.722 211.908 121.892 211.908 122.102C211.908 122.26 211.958 122.392 212.057 122.497C212.156 122.596 212.317 122.672 212.539 122.725L213.371 122.892C213.762 122.973 214.058 123.108 214.256 123.295C214.455 123.482 214.554 123.731 214.554 124.04C214.554 124.315 214.478 124.552 214.327 124.751C214.18 124.95 213.973 125.101 213.704 125.207C213.441 125.312 213.132 125.365 212.775 125.365ZM215.641 125.286V120.875H216.439V125.286H215.641ZM215.572 119.91V119.051H216.518V119.91H215.572ZM219.735 127.25C219.35 127.25 218.996 127.203 218.675 127.11C218.353 127.016 218.064 126.873 217.807 126.68L218.017 126.093C218.199 126.215 218.377 126.315 218.552 126.391C218.727 126.466 218.909 126.522 219.096 126.557C219.288 126.592 219.487 126.61 219.691 126.61C220.124 126.61 220.448 126.499 220.664 126.277C220.88 126.054 220.988 125.739 220.988 125.33V124.093H221.076C220.982 124.426 220.789 124.693 220.497 124.891C220.211 125.084 219.872 125.181 219.481 125.181C219.084 125.181 218.736 125.093 218.438 124.918C218.146 124.736 217.918 124.482 217.755 124.155C217.591 123.821 217.51 123.433 217.51 122.988C217.51 122.538 217.591 122.149 217.755 121.822C217.918 121.495 218.146 121.243 218.438 121.068C218.736 120.886 219.084 120.796 219.481 120.796C219.872 120.796 220.211 120.892 220.497 121.085C220.784 121.278 220.974 121.544 221.067 121.883L220.988 121.804L221.067 120.875H221.838C221.821 121.05 221.803 121.225 221.786 121.401C221.774 121.576 221.768 121.749 221.768 121.918V125.233C221.768 125.888 221.596 126.388 221.251 126.733C220.912 127.077 220.407 127.25 219.735 127.25ZM219.656 124.549C220.059 124.549 220.38 124.412 220.62 124.137C220.86 123.862 220.979 123.479 220.979 122.988C220.979 122.491 220.86 122.108 220.62 121.839C220.38 121.57 220.059 121.436 219.656 121.436C219.247 121.436 218.92 121.57 218.675 121.839C218.435 122.108 218.315 122.491 218.315 122.988C218.315 123.479 218.435 123.862 218.675 124.137C218.92 124.412 219.247 124.549 219.656 124.549ZM223.103 125.286V121.918C223.103 121.749 223.098 121.576 223.086 121.401C223.074 121.225 223.057 121.05 223.033 120.875H223.805L223.892 121.822H223.787C223.921 121.488 224.128 121.234 224.409 121.059C224.689 120.884 225.017 120.796 225.39 120.796C225.91 120.796 226.302 120.939 226.564 121.225C226.827 121.506 226.959 121.945 226.959 122.541V125.286H226.161V122.585C226.161 122.181 226.083 121.892 225.925 121.717C225.767 121.535 225.522 121.445 225.189 121.445C224.792 121.445 224.476 121.564 224.243 121.804C224.015 122.044 223.901 122.369 223.901 122.777V125.286H223.103ZM230.27 125.365C229.803 125.365 229.4 125.274 229.061 125.093C228.722 124.912 228.459 124.651 228.272 124.312C228.091 123.973 228.001 123.567 228.001 123.094C228.001 122.626 228.088 122.222 228.263 121.883C228.445 121.538 228.693 121.272 229.008 121.085C229.324 120.892 229.692 120.796 230.112 120.796C230.515 120.796 230.857 120.884 231.138 121.059C231.418 121.229 231.631 121.471 231.777 121.787C231.923 122.102 231.996 122.476 231.996 122.909V123.172H228.623V122.699H231.453L231.304 122.813C231.304 122.357 231.202 122.003 230.997 121.752C230.799 121.5 230.504 121.374 230.112 121.374C229.826 121.374 229.584 121.442 229.385 121.576C229.186 121.711 229.035 121.901 228.929 122.146C228.824 122.392 228.772 122.684 228.772 123.023V123.102C228.772 123.64 228.903 124.046 229.166 124.321C229.435 124.596 229.805 124.733 230.279 124.733C230.542 124.733 230.787 124.695 231.015 124.619C231.243 124.543 231.462 124.418 231.672 124.242L231.935 124.795C231.736 124.976 231.488 125.116 231.19 125.215C230.898 125.315 230.591 125.365 230.27 125.365ZM234.721 125.365C234.335 125.365 233.996 125.274 233.704 125.093C233.412 124.912 233.184 124.648 233.021 124.303C232.857 123.959 232.776 123.549 232.776 123.076C232.776 122.602 232.857 122.196 233.021 121.857C233.184 121.512 233.412 121.249 233.704 121.068C233.996 120.886 234.335 120.796 234.721 120.796C235.106 120.796 235.442 120.892 235.729 121.085C236.02 121.278 236.216 121.544 236.316 121.883H236.211V118.832H237.008V125.286H236.219V124.26H236.316C236.222 124.605 236.029 124.876 235.737 125.075C235.451 125.268 235.112 125.365 234.721 125.365ZM234.905 124.733C235.302 124.733 235.62 124.593 235.86 124.312C236.105 124.032 236.228 123.62 236.228 123.076C236.228 122.532 236.105 122.123 235.86 121.848C235.62 121.573 235.302 121.436 234.905 121.436C234.507 121.436 234.186 121.573 233.941 121.848C233.702 122.123 233.582 122.532 233.582 123.076C233.582 123.62 233.702 124.032 233.941 124.312C234.186 124.593 234.507 124.733 234.905 124.733ZM28.8589 136.071V132.274H28V131.66H29.0777L28.8589 131.861V131.151C28.8589 130.637 28.9873 130.248 29.2445 129.985C29.5013 129.716 29.8752 129.582 30.3662 129.582C30.4829 129.582 30.6057 129.59 30.734 129.608C30.8685 129.626 30.9796 129.655 31.0672 129.695V130.344C30.9969 130.315 30.9093 130.292 30.8043 130.274C30.6989 130.257 30.5968 130.248 30.4974 130.248C30.3222 130.248 30.1704 130.283 30.042 130.353C29.9131 130.423 29.8171 130.529 29.7524 130.669C29.6882 130.804 29.6564 130.982 29.6564 131.204V131.827L29.5336 131.66H30.8741V132.274H29.6564V136.071H28.8589ZM33.372 136.15C32.94 136.15 32.5661 136.059 32.2503 135.878C31.935 135.691 31.6894 135.428 31.5142 135.088C31.3389 134.744 31.2513 134.334 31.2513 133.861C31.2513 133.393 31.3389 132.99 31.5142 132.651C31.6894 132.306 31.935 132.043 32.2503 131.861C32.5661 131.674 32.94 131.581 33.372 131.581C33.8045 131.581 34.1784 131.674 34.4938 131.861C34.8152 132.043 35.0602 132.306 35.2299 132.651C35.4051 132.99 35.4927 133.393 35.4927 133.861C35.4927 134.334 35.4051 134.744 35.2299 135.088C35.0602 135.428 34.8152 135.691 34.4938 135.878C34.1784 136.059 33.8045 136.15 33.372 136.15ZM33.372 135.518C33.7694 135.518 34.0875 135.378 34.3274 135.097C34.5668 134.817 34.6863 134.405 34.6863 133.861C34.6863 133.317 34.5668 132.908 34.3274 132.633C34.0875 132.358 33.7694 132.221 33.372 132.221C32.9691 132.221 32.6476 132.358 32.4082 132.633C32.1744 132.908 32.0577 133.317 32.0577 133.861C32.0577 134.405 32.1744 134.817 32.4082 135.097C32.6476 135.378 32.9691 135.518 33.372 135.518ZM36.5545 136.071V132.739C36.5545 132.563 36.5484 132.385 36.5371 132.204C36.531 132.017 36.5165 131.835 36.4931 131.66H37.2643L37.3604 132.765L37.2292 132.773C37.2878 132.505 37.3871 132.282 37.5272 132.107C37.6729 131.926 37.8454 131.794 38.044 131.712C38.2483 131.625 38.4587 131.581 38.6752 131.581C38.7684 131.581 38.8471 131.584 38.9118 131.59C38.976 131.595 39.0402 131.61 39.1044 131.633L39.087 132.344C38.9994 132.309 38.9174 132.289 38.8415 132.282C38.7712 132.271 38.6836 132.265 38.5786 132.265C38.3214 132.265 38.0998 132.323 37.9128 132.44C37.7315 132.557 37.5914 132.712 37.4921 132.905C37.3983 133.098 37.352 133.306 37.352 133.528V136.071H36.5545ZM44.4038 136.15C44.0125 136.15 43.6738 136.053 43.3875 135.86C43.1012 135.661 42.9114 135.39 42.8177 135.045H42.9142V136.071H42.1167V129.617H42.9142V132.668H42.8177C42.917 132.329 43.1073 132.063 43.3875 131.87C43.6738 131.678 44.0125 131.581 44.4038 131.581C44.7955 131.581 45.1371 131.674 45.429 131.861C45.7214 132.043 45.9463 132.303 46.1037 132.642C46.2672 132.981 46.3492 133.391 46.3492 133.87C46.3492 134.343 46.2672 134.753 46.1037 135.097C45.9463 135.436 45.7185 135.697 45.4205 135.878C45.1282 136.059 44.7894 136.15 44.4038 136.15ZM44.2201 135.518C44.617 135.518 44.9356 135.381 45.175 135.106C45.4205 134.825 45.5428 134.413 45.5428 133.87C45.5428 133.326 45.4205 132.917 45.175 132.642C44.9356 132.361 44.617 132.221 44.2201 132.221C43.8167 132.221 43.4957 132.358 43.2558 132.633C43.0225 132.908 42.9053 133.317 42.9053 133.861C42.9053 134.405 43.0225 134.817 43.2558 135.097C43.4957 135.378 43.8167 135.518 44.2201 135.518ZM49.2801 136.15C48.8476 136.15 48.4737 136.059 48.1583 135.878C47.843 135.691 47.5975 135.428 47.4222 135.088C47.247 134.744 47.1594 134.334 47.1594 133.861C47.1594 133.393 47.247 132.99 47.4222 132.651C47.5975 132.306 47.843 132.043 48.1583 131.861C48.4737 131.674 48.8476 131.581 49.2801 131.581C49.7126 131.581 50.0865 131.674 50.4018 131.861C50.7228 132.043 50.9683 132.306 51.1379 132.651C51.3131 132.99 51.4008 133.393 51.4008 133.861C51.4008 134.334 51.3131 134.744 51.1379 135.088C50.9683 135.428 50.7228 135.691 50.4018 135.878C50.0865 136.059 49.7126 136.15 49.2801 136.15ZM49.2801 135.518C49.6774 135.518 49.9956 135.378 50.235 135.097C50.4749 134.817 50.5944 134.405 50.5944 133.861C50.5944 133.317 50.4749 132.908 50.235 132.633C49.9956 132.358 49.6774 132.221 49.2801 132.221C48.8771 132.221 48.5557 132.358 48.3162 132.633C48.0824 132.908 47.9658 133.317 47.9658 133.861C47.9658 134.405 48.0824 134.817 48.3162 135.097C48.5557 135.378 48.8771 135.518 49.2801 135.518ZM54.0758 136.15C53.6142 136.15 53.2638 136.024 53.0243 135.773C52.7905 135.516 52.6738 135.13 52.6738 134.615V132.274H51.815V131.66H52.6738V130.476L53.4713 130.257V131.66H54.7153V132.274H53.4713V134.545C53.4713 134.884 53.5294 135.126 53.6466 135.273C53.7688 135.413 53.9446 135.483 54.1723 135.483C54.289 135.483 54.3883 135.474 54.4703 135.457C54.5579 135.434 54.6366 135.407 54.7069 135.378V136.036C54.6193 136.071 54.5167 136.097 54.4 136.115C54.2889 136.138 54.1807 136.15 54.0758 136.15ZM55.5517 136.071V129.617H56.3492V132.616H56.2354C56.3637 132.277 56.5713 132.019 56.8576 131.844C57.1439 131.669 57.4737 131.581 57.8477 131.581C58.379 131.581 58.7707 131.724 59.0219 132.01C59.2786 132.297 59.4075 132.73 59.4075 133.308V136.071H58.61V133.353C58.61 132.961 58.5341 132.677 58.3823 132.502C58.2305 132.32 57.9821 132.23 57.6373 132.23C57.2517 132.23 56.9391 132.35 56.6997 132.59C56.4659 132.829 56.3492 133.148 56.3492 133.545V136.071H55.5517ZM64.7045 136.15C64.3194 136.15 63.9802 136.059 63.6883 135.878C63.3963 135.697 63.1681 135.434 63.0046 135.088C62.8411 134.744 62.7596 134.334 62.7596 133.861C62.7596 133.387 62.8411 132.981 63.0046 132.642C63.1681 132.297 63.3963 132.034 63.6883 131.853C63.9802 131.671 64.3194 131.581 64.7045 131.581C65.0902 131.581 65.4261 131.678 65.7124 131.87C66.0043 132.063 66.2002 132.329 66.2995 132.668H66.1946V129.617H66.9916V136.071H66.203V135.045H66.2995C66.2063 135.39 66.0132 135.661 65.7213 135.86C65.435 136.053 65.0963 136.15 64.7045 136.15ZM64.8887 135.518C65.286 135.518 65.6042 135.378 65.8441 135.097C66.0891 134.817 66.2119 134.405 66.2119 133.861C66.2119 133.317 66.0891 132.908 65.8441 132.633C65.6042 132.358 65.286 132.221 64.8887 132.221C64.4914 132.221 64.1704 132.358 63.9249 132.633C63.6854 132.908 63.5655 133.317 63.5655 133.861C63.5655 134.405 63.6854 134.817 63.9249 135.097C64.1704 135.378 64.4914 135.518 64.8887 135.518ZM68.3279 136.071V131.66H69.1254V136.071H68.3279ZM68.2576 130.695V129.836H69.2041V130.695H68.2576ZM71.9485 136.15C71.5919 136.15 71.2587 136.103 70.9495 136.009C70.6454 135.916 70.3942 135.782 70.1956 135.606L70.45 135.054C70.666 135.217 70.9026 135.343 71.1594 135.431C71.4223 135.512 71.6912 135.554 71.9658 135.554C72.2989 135.554 72.5501 135.492 72.7192 135.369C72.8945 135.246 72.9821 135.083 72.9821 134.878C72.9821 134.715 72.9268 134.583 72.8158 134.484C72.7047 134.384 72.5295 134.311 72.29 134.265L71.4574 134.098C71.0835 134.01 70.8005 133.87 70.6075 133.677C70.4205 133.478 70.3272 133.224 70.3272 132.914C70.3272 132.657 70.3971 132.429 70.5376 132.23C70.6777 132.025 70.8764 131.867 71.1332 131.756C71.396 131.64 71.7029 131.581 72.0534 131.581C72.3749 131.581 72.6724 131.628 72.947 131.721C73.2276 131.815 73.4582 131.952 73.6395 132.133L73.3766 132.668C73.1953 132.51 72.991 132.391 72.7633 132.309C72.5412 132.221 72.3135 132.177 72.0797 132.177C71.7409 132.177 71.4898 132.244 71.3262 132.379C71.1627 132.508 71.0807 132.677 71.0807 132.887C71.0807 133.045 71.1304 133.177 71.2297 133.282C71.329 133.382 71.4897 133.458 71.7118 133.51L72.544 133.677C72.9357 133.759 73.2304 133.893 73.4291 134.08C73.6278 134.267 73.7271 134.516 73.7271 134.825C73.7271 135.1 73.6512 135.337 73.4994 135.536C73.3532 135.735 73.1456 135.887 72.8772 135.992C72.6143 136.097 72.3046 136.15 71.9485 136.15ZM74.8142 137.965V132.704C74.8142 132.534 74.8085 132.361 74.7968 132.186C74.7851 132.01 74.7673 131.835 74.7444 131.66H75.5151L75.6117 132.677H75.5151C75.6028 132.338 75.7897 132.072 76.076 131.879C76.3623 131.68 76.7039 131.581 77.1012 131.581C77.4929 131.581 77.8345 131.671 78.1264 131.853C78.4188 132.034 78.6437 132.297 78.8011 132.642C78.9647 132.981 79.0467 133.387 79.0467 133.861C79.0467 134.334 78.9647 134.744 78.8011 135.088C78.6437 135.434 78.4188 135.697 78.1264 135.878C77.8345 136.059 77.4929 136.15 77.1012 136.15C76.71 136.15 76.3712 136.053 76.0849 135.86C75.8042 135.661 75.6145 135.396 75.5151 135.062H75.6117V137.965H74.8142ZM76.9171 135.518C77.3205 135.518 77.6415 135.378 77.8814 135.097C78.1208 134.817 78.2403 134.405 78.2403 133.861C78.2403 133.317 78.1208 132.908 77.8814 132.633C77.6415 132.358 77.3205 132.221 76.9171 132.221C76.5141 132.221 76.1927 132.358 75.9532 132.633C75.7199 132.908 75.6028 133.317 75.6028 133.861C75.6028 134.405 75.7199 134.817 75.9532 135.097C76.1927 135.378 76.5141 135.518 76.9171 135.518ZM80.1197 136.071V129.617H80.9172V136.071H80.1197ZM83.9328 136.15C83.5472 136.15 83.2084 136.059 82.9165 135.878C82.6246 135.697 82.3964 135.434 82.2329 135.088C82.0693 134.744 81.9878 134.334 81.9878 133.861C81.9878 133.387 82.0693 132.981 82.2329 132.642C82.3964 132.297 82.6246 132.034 82.9165 131.853C83.2084 131.671 83.5472 131.581 83.9328 131.581C84.3245 131.581 84.6633 131.68 84.9496 131.879C85.2415 132.072 85.4345 132.338 85.5278 132.677H85.4228L85.5189 131.66H86.2901C86.2728 131.835 86.255 132.01 86.2376 132.186C86.2259 132.361 86.2198 132.534 86.2198 132.704V136.071H85.4228V135.062H85.5189C85.4256 135.396 85.2326 135.661 84.9407 135.86C84.6544 136.053 84.3184 136.15 83.9328 136.15ZM84.1169 135.518C84.5143 135.518 84.8324 135.378 85.0723 135.097C85.3118 134.817 85.4312 134.405 85.4312 133.861C85.4312 133.317 85.3118 132.908 85.0723 132.633C84.8324 132.358 84.5143 132.221 84.1169 132.221C83.7196 132.221 83.3986 132.358 83.1531 132.633C82.9137 132.908 82.7937 133.317 82.7937 133.861C82.7937 134.405 82.9137 134.817 83.1531 135.097C83.3925 135.378 83.714 135.518 84.1169 135.518ZM87.3645 138.061L87.1804 137.412C87.455 137.348 87.6827 137.272 87.8635 137.185C88.0449 137.103 88.1967 136.995 88.3194 136.86C88.4422 136.725 88.55 136.556 88.6437 136.351L88.8625 135.825L88.8452 136.159L86.9259 131.66H87.7848L89.3184 135.44H89.0907L90.6238 131.66H91.4475L89.4234 136.413C89.3006 136.699 89.1666 136.939 89.0204 137.132C88.8803 137.325 88.7252 137.483 88.5561 137.606C88.3925 137.728 88.2112 137.825 88.0125 137.895C87.8143 137.965 87.5979 138.021 87.3645 138.061ZM96.187 136.15C95.8014 136.15 95.4626 136.059 95.1707 135.878C94.8783 135.697 94.6506 135.434 94.4871 135.088C94.3236 134.744 94.2415 134.334 94.2415 133.861C94.2415 133.387 94.3236 132.981 94.4871 132.642C94.6506 132.297 94.8783 132.034 95.1707 131.853C95.4626 131.671 95.8014 131.581 96.187 131.581C96.5783 131.581 96.917 131.68 97.2033 131.879C97.4957 132.072 97.6883 132.338 97.782 132.677H97.6766L97.7731 131.66H98.5443C98.5265 131.835 98.5092 132.01 98.4914 132.186C98.4797 132.361 98.474 132.534 98.474 132.704V136.071H97.6766V135.062H97.7731C97.6794 135.396 97.4868 135.661 97.1949 135.86C96.9086 136.053 96.5726 136.15 96.187 136.15ZM96.3712 135.518C96.768 135.518 97.0866 135.378 97.3261 135.097C97.5655 134.817 97.6855 134.405 97.6855 133.861C97.6855 133.317 97.5655 132.908 97.3261 132.633C97.0866 132.358 96.768 132.221 96.3712 132.221C95.9738 132.221 95.6524 132.358 95.4073 132.633C95.1674 132.908 95.0479 133.317 95.0479 133.861C95.0479 134.405 95.1674 134.817 95.4073 135.097C95.6468 135.378 95.9677 135.518 96.3712 135.518ZM99.8099 136.071V132.704C99.8099 132.534 99.8043 132.361 99.7926 132.186C99.7809 132.01 99.7635 131.835 99.7401 131.66H100.511L100.598 132.607H100.494C100.628 132.274 100.835 132.019 101.116 131.844C101.396 131.669 101.723 131.581 102.097 131.581C102.617 131.581 103.008 131.724 103.271 132.01C103.534 132.291 103.666 132.73 103.666 133.326V136.071H102.868V133.37C102.868 132.967 102.789 132.677 102.632 132.502C102.474 132.32 102.229 132.23 101.895 132.23C101.498 132.23 101.183 132.35 100.949 132.59C100.721 132.829 100.607 133.154 100.607 133.563V136.071H99.8099ZM106.653 136.15C106.267 136.15 105.928 136.059 105.636 135.878C105.344 135.697 105.116 135.434 104.953 135.088C104.789 134.744 104.707 134.334 104.707 133.861C104.707 133.387 104.789 132.981 104.953 132.642C105.116 132.297 105.344 132.034 105.636 131.853C105.928 131.671 106.267 131.581 106.653 131.581C107.038 131.581 107.374 131.678 107.66 131.87C107.953 132.063 108.148 132.329 108.247 132.668H108.142V129.617H108.94V136.071H108.151V135.045H108.247C108.154 135.39 107.961 135.661 107.669 135.86C107.383 136.053 107.044 136.15 106.653 136.15ZM106.836 135.518C107.234 135.518 107.552 135.378 107.792 135.097C108.037 134.817 108.16 134.405 108.16 133.861C108.16 133.317 108.037 132.908 107.792 132.633C107.552 132.358 107.234 132.221 106.836 132.221C106.44 132.221 106.118 132.358 105.873 132.633C105.633 132.908 105.513 133.317 105.513 133.861C105.513 134.405 105.633 134.817 105.873 135.097C106.118 135.378 106.44 135.518 106.836 135.518ZM114.234 136.15C113.772 136.15 113.422 136.024 113.182 135.773C112.948 135.516 112.832 135.13 112.832 134.615V132.274H111.973V131.66H112.832V130.476L113.629 130.257V131.66H114.873V132.274H113.629V134.545C113.629 134.884 113.687 135.126 113.804 135.273C113.927 135.413 114.102 135.483 114.33 135.483C114.447 135.483 114.546 135.474 114.628 135.457C114.715 135.434 114.794 135.407 114.864 135.378V136.036C114.777 136.071 114.674 136.097 114.558 136.115C114.447 136.138 114.339 136.15 114.234 136.15ZM117.673 136.15C117.206 136.15 116.803 136.059 116.464 135.878C116.125 135.697 115.862 135.436 115.675 135.097C115.494 134.758 115.404 134.352 115.404 133.879C115.404 133.411 115.492 133.007 115.667 132.668C115.848 132.323 116.096 132.057 116.411 131.87C116.727 131.678 117.095 131.581 117.516 131.581C117.919 131.581 118.26 131.669 118.541 131.844C118.821 132.014 119.034 132.256 119.181 132.572C119.327 132.887 119.399 133.262 119.399 133.694V133.957H116.026V133.484H118.856L118.707 133.598C118.707 133.142 118.605 132.788 118.4 132.537C118.202 132.285 117.907 132.16 117.516 132.16C117.23 132.16 116.987 132.227 116.788 132.361C116.59 132.496 116.438 132.686 116.333 132.931C116.228 133.177 116.175 133.469 116.175 133.808V133.887C116.175 134.425 116.306 134.831 116.569 135.106C116.838 135.381 117.209 135.518 117.682 135.518C117.945 135.518 118.191 135.48 118.418 135.405C118.646 135.329 118.865 135.203 119.075 135.028L119.338 135.58C119.14 135.761 118.891 135.901 118.593 136.001C118.302 136.1 117.995 136.15 117.673 136.15ZM119.794 136.071L121.792 133.598V133.993L119.908 131.66H120.863L122.239 133.422H121.95L123.325 131.66H124.272L122.414 133.975V133.616L124.386 136.071H123.422L121.95 134.185H122.239L120.749 136.071H119.794ZM126.77 136.15C126.308 136.15 125.958 136.024 125.718 135.773C125.485 135.516 125.368 135.13 125.368 134.615V132.274H124.509V131.66H125.368V130.476L126.165 130.257V131.66H127.409V132.274H126.165V134.545C126.165 134.884 126.223 135.126 126.341 135.273C126.463 135.413 126.639 135.483 126.866 135.483C126.983 135.483 127.082 135.474 127.164 135.457C127.252 135.434 127.331 135.407 127.401 135.378V136.036C127.313 136.071 127.211 136.097 127.094 136.115C126.983 136.138 126.875 136.15 126.77 136.15ZM132.204 136.15C131.742 136.15 131.392 136.024 131.152 135.773C130.918 135.516 130.802 135.13 130.802 134.615V132.274H129.943V131.66H130.802V130.476L131.599 130.257V131.66H132.843V132.274H131.599V134.545C131.599 134.884 131.657 135.126 131.775 135.273C131.897 135.413 132.073 135.483 132.3 135.483C132.417 135.483 132.516 135.474 132.598 135.457C132.686 135.434 132.765 135.407 132.835 135.378V136.036C132.747 136.071 132.645 136.097 132.528 136.115C132.417 136.138 132.309 136.15 132.204 136.15ZM133.591 138.061L133.407 137.412C133.681 137.348 133.909 137.272 134.09 137.185C134.271 137.103 134.423 136.995 134.546 136.86C134.668 136.725 134.777 136.556 134.87 136.351L135.089 135.825L135.072 136.159L133.153 131.66H134.011L135.545 135.44H135.317L136.85 131.66H137.674L135.65 136.413C135.527 136.699 135.393 136.939 135.247 137.132C135.106 137.325 134.952 137.483 134.783 137.606C134.619 137.728 134.438 137.825 134.239 137.895C134.04 137.965 133.824 138.021 133.591 138.061ZM138.421 137.965V132.704C138.421 132.534 138.414 132.361 138.403 132.186C138.391 132.01 138.374 131.835 138.35 131.66H139.122L139.218 132.677H139.122C139.209 132.338 139.396 132.072 139.682 131.879C139.969 131.68 140.31 131.581 140.708 131.581C141.099 131.581 141.441 131.671 141.733 131.853C142.025 132.034 142.25 132.297 142.408 132.642C142.571 132.981 142.653 133.387 142.653 133.861C142.653 134.334 142.571 134.744 142.408 135.088C142.25 135.434 142.025 135.697 141.733 135.878C141.441 136.059 141.099 136.15 140.708 136.15C140.316 136.15 139.978 136.053 139.691 135.86C139.411 135.661 139.221 135.396 139.122 135.062H139.218V137.965H138.421ZM140.523 135.518C140.927 135.518 141.248 135.378 141.487 135.097C141.727 134.817 141.847 134.405 141.847 133.861C141.847 133.317 141.727 132.908 141.487 132.633C141.248 132.358 140.927 132.221 140.523 132.221C140.12 132.221 139.799 132.358 139.56 132.633C139.326 132.908 139.209 133.317 139.209 133.861C139.209 134.405 139.326 134.817 139.56 135.097C139.799 135.378 140.12 135.518 140.523 135.518ZM145.584 136.15C145.151 136.15 144.777 136.059 144.462 135.878C144.147 135.691 143.901 135.428 143.726 135.088C143.551 134.744 143.463 134.334 143.463 133.861C143.463 133.393 143.551 132.99 143.726 132.651C143.901 132.306 144.147 132.043 144.462 131.861C144.777 131.674 145.151 131.581 145.584 131.581C146.016 131.581 146.39 131.674 146.705 131.861C147.027 132.043 147.272 132.306 147.441 132.651C147.616 132.99 147.704 133.393 147.704 133.861C147.704 134.334 147.616 134.744 147.441 135.088C147.272 135.428 147.027 135.691 146.705 135.878C146.39 136.059 146.016 136.15 145.584 136.15ZM145.584 135.518C145.981 135.518 146.299 135.378 146.539 135.097C146.778 134.817 146.898 134.405 146.898 133.861C146.898 133.317 146.778 132.908 146.539 132.633C146.299 132.358 145.981 132.221 145.584 132.221C145.18 132.221 144.859 132.358 144.62 132.633C144.386 132.908 144.269 133.317 144.269 133.861C144.269 134.405 144.386 134.817 144.62 135.097C144.859 135.378 145.18 135.518 145.584 135.518ZM150.738 138.035C150.352 138.035 149.999 137.988 149.677 137.895C149.356 137.801 149.067 137.658 148.81 137.465L149.02 136.878C149.201 137 149.38 137.1 149.555 137.176C149.73 137.252 149.911 137.307 150.098 137.343C150.291 137.377 150.489 137.395 150.694 137.395C151.126 137.395 151.45 137.284 151.667 137.062C151.883 136.839 151.991 136.524 151.991 136.115V134.878H152.079C151.985 135.211 151.792 135.478 151.5 135.676C151.214 135.869 150.875 135.966 150.484 135.966C150.086 135.966 149.739 135.878 149.441 135.703C149.149 135.521 148.921 135.267 148.757 134.94C148.594 134.606 148.512 134.218 148.512 133.773C148.512 133.323 148.594 132.934 148.757 132.607C148.921 132.28 149.149 132.028 149.441 131.853C149.739 131.671 150.086 131.581 150.484 131.581C150.875 131.581 151.214 131.678 151.5 131.87C151.786 132.063 151.976 132.329 152.07 132.668L151.991 132.59L152.07 131.66H152.841C152.823 131.835 152.806 132.01 152.788 132.186C152.776 132.361 152.771 132.534 152.771 132.704V136.018C152.771 136.673 152.598 137.173 152.254 137.518C151.915 137.863 151.409 138.035 150.738 138.035ZM150.659 135.334C151.062 135.334 151.383 135.197 151.623 134.922C151.862 134.647 151.982 134.265 151.982 133.773C151.982 133.277 151.862 132.893 151.623 132.624C151.383 132.356 151.062 132.221 150.659 132.221C150.25 132.221 149.923 132.356 149.677 132.624C149.438 132.893 149.318 133.277 149.318 133.773C149.318 134.265 149.438 134.647 149.677 134.922C149.923 135.197 150.25 135.334 150.659 135.334ZM154.097 136.071V132.739C154.097 132.563 154.091 132.385 154.08 132.204C154.074 132.017 154.059 131.835 154.036 131.66H154.807L154.904 132.765L154.772 132.773C154.83 132.505 154.93 132.282 155.07 132.107C155.216 131.926 155.388 131.794 155.587 131.712C155.791 131.625 156.002 131.581 156.218 131.581C156.311 131.581 156.39 131.584 156.454 131.59C156.519 131.595 156.583 131.61 156.647 131.633L156.63 132.344C156.542 132.309 156.46 132.289 156.384 132.282C156.314 132.271 156.227 132.265 156.121 132.265C155.865 132.265 155.642 132.323 155.455 132.44C155.274 132.557 155.134 132.712 155.035 132.905C154.941 133.098 154.895 133.306 154.895 133.528V136.071H154.097ZM158.989 136.15C158.603 136.15 158.264 136.059 157.973 135.878C157.68 135.697 157.452 135.434 157.289 135.088C157.125 134.744 157.043 134.334 157.043 133.861C157.043 133.387 157.125 132.981 157.289 132.642C157.452 132.297 157.68 132.034 157.973 131.853C158.264 131.671 158.603 131.581 158.989 131.581C159.38 131.581 159.719 131.68 160.005 131.879C160.298 132.072 160.49 132.338 160.584 132.677H160.478L160.575 131.66H161.346C161.328 131.835 161.311 132.01 161.293 132.186C161.282 132.361 161.276 132.534 161.276 132.704V136.071H160.478V135.062H160.575C160.481 135.396 160.289 135.661 159.997 135.86C159.71 136.053 159.374 136.15 158.989 136.15ZM159.173 135.518C159.57 135.518 159.889 135.378 160.128 135.097C160.367 134.817 160.487 134.405 160.487 133.861C160.487 133.317 160.367 132.908 160.128 132.633C159.889 132.358 159.57 132.221 159.173 132.221C158.776 132.221 158.454 132.358 158.209 132.633C157.969 132.908 157.85 133.317 157.85 133.861C157.85 134.405 157.969 134.817 158.209 135.097C158.449 135.378 158.77 135.518 159.173 135.518ZM162.612 137.965V132.704C162.612 132.534 162.606 132.361 162.594 132.186C162.583 132.01 162.565 131.835 162.542 131.66H163.313L163.409 132.677H163.313C163.401 132.338 163.587 132.072 163.874 131.879C164.16 131.68 164.502 131.581 164.899 131.581C165.291 131.581 165.632 131.671 165.924 131.853C166.216 132.034 166.441 132.297 166.599 132.642C166.763 132.981 166.844 133.387 166.844 133.861C166.844 134.334 166.763 134.744 166.599 135.088C166.441 135.434 166.216 135.697 165.924 135.878C165.632 136.059 165.291 136.15 164.899 136.15C164.508 136.15 164.169 136.053 163.883 135.86C163.602 135.661 163.412 135.396 163.313 135.062H163.409V137.965H162.612ZM164.715 135.518C165.118 135.518 165.44 135.378 165.679 135.097C165.918 134.817 166.038 134.405 166.038 133.861C166.038 133.317 165.918 132.908 165.679 132.633C165.44 132.358 165.118 132.221 164.715 132.221C164.312 132.221 163.991 132.358 163.751 132.633C163.518 132.908 163.401 133.317 163.401 133.861C163.401 134.405 163.518 134.817 163.751 135.097C163.991 135.378 164.312 135.518 164.715 135.518ZM167.917 136.071V129.617H168.715V132.616H168.601C168.729 132.277 168.937 132.019 169.223 131.844C169.509 131.669 169.839 131.581 170.213 131.581C170.745 131.581 171.136 131.724 171.387 132.01C171.645 132.297 171.773 132.73 171.773 133.308V136.071H170.976V133.353C170.976 132.961 170.9 132.677 170.748 132.502C170.596 132.32 170.348 132.23 170.003 132.23C169.618 132.23 169.305 132.35 169.065 132.59C168.832 132.829 168.715 133.148 168.715 133.545V136.071H167.917ZM172.886 138.061L172.702 137.412C172.976 137.348 173.204 137.272 173.385 137.185C173.566 137.103 173.718 136.995 173.841 136.86C173.964 136.725 174.072 136.556 174.165 136.351L174.384 135.825L174.366 136.159L172.448 131.66H173.306L174.84 135.44H174.612L176.146 131.66H176.969L174.945 136.413C174.822 136.699 174.688 136.939 174.542 137.132C174.402 137.325 174.247 137.483 174.077 137.606C173.914 137.728 173.733 137.825 173.534 137.895C173.336 137.965 173.12 138.021 172.886 138.061ZM177.156 136.071V135.097H178.129V136.071H177.156Z" fill="white"/>
<path d="M28 298.954L56.1973 233.302H60.0096L88.7652 298.954H84.4849L76.2005 279.957L78.3435 280.795H37.6773L40.2828 279.957L32.1902 298.954H28ZM57.9625 238.517L41.3091 277.722L39.262 277.163H76.7588L75.27 277.722L58.1486 238.517H57.9625ZM117.859 299.699C113.641 299.699 109.981 298.736 106.879 296.812C103.778 294.887 101.392 292.125 99.7171 288.524C98.0422 284.923 97.2019 280.64 97.2019 275.673C97.2019 270.644 98.0422 266.361 99.7171 262.822C101.454 259.221 103.873 256.459 106.975 254.534C110.077 252.61 113.703 251.647 117.859 251.647C122.264 251.647 126.02 252.796 129.121 255.093C132.285 257.39 134.36 260.556 135.353 264.591H134.236L135.167 252.392H138.985C138.799 254.131 138.613 255.838 138.426 257.514C138.302 259.19 138.24 260.835 138.24 262.45V298.954H134.332V286.755H135.353C134.36 290.79 132.285 293.956 129.121 296.253C125.958 298.55 122.202 299.699 117.859 299.699ZM117.859 296.067C122.946 296.067 126.978 294.329 129.956 290.852C132.934 287.313 134.422 282.254 134.422 275.673C134.422 269.092 132.934 264.064 129.956 260.587C126.978 257.048 122.946 255.279 117.859 255.279C112.772 255.279 108.712 257.048 105.672 260.587C102.695 264.064 101.206 269.092 101.206 275.673C101.206 282.254 102.695 287.313 105.672 290.852C108.712 294.329 112.772 296.067 117.859 296.067Z" fill="white"/>
<path d="M181.687 223.138V214.385H182.149L185.922 222.927H185.572L189.356 214.385H189.802V223.138H189.317V214.894H189.616L185.967 223.138H185.533L181.873 214.882H182.172V223.138H181.687ZM194.251 223.238C193.535 223.238 192.988 223.043 192.616 222.654C192.244 222.265 192.058 221.669 192.058 220.866V216.93H192.576V220.817C192.576 221.487 192.712 221.979 192.988 222.294C193.259 222.6 193.682 222.754 194.251 222.754C194.889 222.754 195.396 222.55 195.78 222.145C196.157 221.731 196.349 221.185 196.349 220.506V216.93H196.868V223.138H196.36V221.624H196.513C196.344 222.137 196.062 222.534 195.655 222.816C195.255 223.097 194.793 223.238 194.251 223.238ZM199.05 223.138V214H199.569V223.138H199.05ZM201.752 223.138V216.93H202.271V223.138H201.752ZM201.616 215.304V214.521H202.406V215.304H201.616ZM206.387 223.238C205.925 223.238 205.485 223.167 205.073 223.027C204.667 222.878 204.335 222.675 204.081 222.418L204.34 222.009C204.639 222.265 204.961 222.456 205.31 222.58C205.654 222.695 206.026 222.754 206.41 222.754C206.974 222.754 207.403 222.646 207.701 222.431C208 222.215 208.147 221.922 208.147 221.549C208.147 221.259 208.057 221.028 207.865 220.854C207.673 220.672 207.357 220.535 206.923 220.444L205.84 220.208C205.31 220.084 204.921 219.885 204.662 219.612C204.408 219.339 204.278 218.999 204.278 218.594C204.278 218.254 204.363 217.952 204.538 217.688C204.724 217.422 204.978 217.216 205.31 217.067C205.649 216.909 206.043 216.831 206.5 216.831C206.94 216.831 207.34 216.905 207.701 217.054C208.074 217.203 208.372 217.41 208.598 217.675L208.322 218.085C208.074 217.828 207.797 217.638 207.493 217.514C207.188 217.381 206.855 217.315 206.5 217.315C205.964 217.315 205.547 217.431 205.26 217.663C204.978 217.894 204.837 218.201 204.837 218.582C204.837 218.871 204.921 219.107 205.096 219.289C205.282 219.471 205.564 219.608 205.953 219.699L207.03 219.947C207.594 220.079 208.012 220.274 208.288 220.531C208.559 220.779 208.694 221.11 208.694 221.524C208.694 221.872 208.598 222.174 208.412 222.431C208.22 222.687 207.95 222.886 207.606 223.027C207.256 223.167 206.85 223.238 206.387 223.238ZM210.561 223.138V214H211.079V218.433H210.933C211.096 217.903 211.39 217.505 211.813 217.241C212.236 216.968 212.721 216.831 213.273 216.831C214.029 216.831 214.582 217.025 214.937 217.414C215.303 217.803 215.484 218.387 215.484 219.165V223.138H214.965V219.215C214.965 218.552 214.83 218.073 214.565 217.775C214.3 217.468 213.871 217.315 213.273 217.315C212.613 217.315 212.083 217.518 211.677 217.924C211.277 218.329 211.079 218.867 211.079 219.538V223.138H210.561ZM220.847 223.138V214.385H226.159V214.869H221.371V218.457H225.883V218.942H221.371V222.654H226.159V223.138H220.847ZM227.237 223.138L229.915 219.774V220.096L227.372 216.93H228.032L230.203 219.674H230.017L232.177 216.93H232.82L230.327 220.059V219.823L232.972 223.138H232.301L230.006 220.221H230.203L227.885 223.138H227.237ZM236.248 223.238C235.746 223.238 235.357 223.08 235.087 222.766C234.822 222.443 234.686 221.954 234.686 221.301V217.377H233.446V216.93H234.686V215.155L235.211 214.956V216.93H237.094V217.377H235.211V221.189C235.211 221.735 235.29 222.133 235.459 222.381C235.628 222.629 235.91 222.754 236.288 222.754C236.451 222.754 236.604 222.737 236.733 222.704C236.869 222.671 236.976 222.633 237.072 222.592V223.089C236.976 223.13 236.852 223.163 236.7 223.188C236.547 223.221 236.401 223.238 236.248 223.238ZM238.437 223.138V218.346C238.437 218.114 238.431 217.878 238.414 217.638C238.403 217.398 238.386 217.162 238.363 216.93H238.871L238.944 218.284L238.837 218.296C238.916 217.965 239.068 217.692 239.282 217.477C239.502 217.261 239.756 217.1 240.038 216.992C240.326 216.885 240.613 216.831 240.895 216.831C240.991 216.831 241.087 216.835 241.177 216.843C241.279 216.851 241.369 216.868 241.454 216.893L241.425 217.377C241.346 217.352 241.256 217.335 241.155 217.328C241.064 217.319 240.963 217.315 240.856 217.315C240.478 217.315 240.14 217.414 239.852 217.613C239.57 217.803 239.35 218.043 239.192 218.333C239.034 218.614 238.961 218.892 238.961 219.165V223.138H238.437ZM244.899 223.238C244.341 223.238 243.85 223.109 243.439 222.853C243.027 222.596 242.706 222.228 242.48 221.748C242.26 221.268 242.147 220.696 242.147 220.034C242.147 219.364 242.26 218.793 242.48 218.321C242.717 217.841 243.038 217.472 243.45 217.216C243.862 216.959 244.347 216.831 244.899 216.831C245.491 216.831 245.988 216.984 246.405 217.29C246.822 217.596 247.104 218.018 247.234 218.557H247.087L247.211 216.93H247.719C247.691 217.162 247.668 217.39 247.646 217.613C247.629 217.837 247.618 218.056 247.618 218.271V223.138H247.099V221.512H247.234C247.104 222.05 246.822 222.472 246.405 222.778C245.982 223.084 245.48 223.238 244.899 223.238ZM244.899 222.754C245.582 222.754 246.117 222.522 246.512 222.058C246.913 221.586 247.11 220.911 247.11 220.034C247.11 219.157 246.913 218.486 246.512 218.023C246.117 217.551 245.582 217.315 244.899 217.315C244.223 217.315 243.681 217.551 243.275 218.023C242.88 218.486 242.683 219.157 242.683 220.034C242.683 220.911 242.88 221.586 243.275 222.058C243.681 222.522 244.223 222.754 244.899 222.754ZM249.913 223.138V214.385H250.437V222.654H255.124V223.138H249.913ZM256.404 223.138V216.93H256.928V223.138H256.404ZM256.269 215.304V214.521H257.064V215.304H256.269ZM261.711 225.907C261.209 225.907 260.735 225.833 260.284 225.684C259.85 225.543 259.449 225.328 259.094 225.038L259.342 224.616C259.618 224.815 259.872 224.972 260.115 225.088C260.351 225.203 260.6 225.286 260.859 225.336C261.124 225.394 261.412 225.423 261.728 225.423C262.37 225.423 262.861 225.245 263.188 224.889C263.527 224.541 263.696 224.04 263.696 223.387V221.264H263.837C263.701 221.81 263.419 222.236 262.991 222.542C262.568 222.848 262.066 223.002 261.479 223.002C260.904 223.002 260.408 222.878 259.991 222.629C259.573 222.373 259.252 222.012 259.021 221.549C258.795 221.085 258.688 220.539 258.688 219.91C258.688 219.281 258.795 218.739 259.021 218.284C259.252 217.82 259.573 217.464 259.991 217.216C260.408 216.959 260.904 216.831 261.479 216.831C262.066 216.831 262.568 216.984 262.991 217.29C263.419 217.596 263.701 218.027 263.837 218.582L263.696 218.42L263.808 216.93H264.316C264.293 217.162 264.271 217.39 264.243 217.613C264.226 217.837 264.22 218.056 264.22 218.271V223.3C264.22 224.161 264.006 224.81 263.589 225.249C263.166 225.688 262.54 225.907 261.711 225.907ZM261.462 222.518C262.15 222.518 262.692 222.29 263.092 221.835C263.498 221.371 263.696 220.73 263.696 219.91C263.696 219.091 263.498 218.453 263.092 217.998C262.692 217.543 262.15 217.315 261.462 217.315C260.78 217.315 260.233 217.543 259.827 217.998C259.421 218.453 259.218 219.091 259.218 219.91C259.218 220.73 259.421 221.371 259.827 221.835C260.233 222.29 260.78 222.518 261.462 222.518ZM266.391 223.138V214H266.91V218.433H266.764C266.927 217.903 267.22 217.505 267.643 217.241C268.066 216.968 268.551 216.831 269.104 216.831C269.86 216.831 270.412 217.025 270.768 217.414C271.134 217.803 271.315 218.387 271.315 219.165V223.138H270.796V219.215C270.796 218.552 270.66 218.073 270.395 217.775C270.13 217.468 269.702 217.315 269.104 217.315C268.444 217.315 267.914 217.518 267.508 217.924C267.108 218.329 266.91 218.867 266.91 219.538V223.138H266.391ZM275.279 223.238C274.772 223.238 274.382 223.08 274.112 222.766C273.847 222.443 273.711 221.954 273.711 221.301V217.377H272.471V216.93H273.711V215.155L274.236 214.956V216.93H276.119V217.377H274.236V221.189C274.236 221.735 274.315 222.133 274.484 222.381C274.659 222.629 274.935 222.754 275.313 222.754C275.477 222.754 275.629 222.737 275.758 222.704C275.894 222.671 276.007 222.633 276.097 222.592V223.089C276.007 223.13 275.883 223.163 275.725 223.188C275.572 223.221 275.426 223.238 275.279 223.238Z" fill="white"/>
<path d="M28 397.126L57.032 331.474H64.5719L94.0663 397.126H85.1334L77.0408 378.502L80.7628 380.736H40.841L44.9353 378.502L36.8426 397.126H28ZM60.6637 341.159L46.1478 375.615L43.9146 373.659H77.6893L75.9242 375.615L61.036 341.159H60.6637ZM120.797 397.964C116.703 397.964 113.105 397.002 110.003 395.077C106.902 393.153 104.482 390.359 102.745 386.696C101.008 383.034 100.14 378.688 100.14 373.659C100.14 368.631 101.008 364.316 102.745 360.715C104.482 357.052 106.902 354.258 110.003 352.334C113.105 350.409 116.703 349.447 120.797 349.447C124.954 349.447 128.552 350.503 131.591 352.613C134.693 354.662 136.74 357.487 137.733 361.087H136.616L137.642 350.285H145.831C145.645 352.148 145.459 354.01 145.273 355.873C145.149 357.735 145.087 359.567 145.087 361.367V397.126H136.616V386.417H137.642C136.65 389.956 134.603 392.78 131.501 394.891C128.461 396.94 124.892 397.964 120.797 397.964ZM122.754 391.259C126.973 391.259 130.351 389.769 132.894 386.789C135.437 383.81 136.712 379.433 136.712 373.659C136.712 367.886 135.437 363.539 132.894 360.622C130.351 357.704 126.973 356.245 122.754 356.245C118.536 356.245 115.124 357.704 112.519 360.622C109.975 363.539 108.701 367.886 108.701 373.659C108.701 379.433 109.975 383.81 112.519 386.789C115.062 389.769 118.474 391.259 122.754 391.259Z" fill="white"/>
<path d="M183.412 328.837V320.083H184.433L187.879 327.856H187.506L190.958 320.083H191.962V328.837H190.907V321.623H191.29L188.053 328.837H187.32L184.083 321.623H184.467V328.837H183.412ZM196.197 328.948C195.441 328.948 194.877 328.745 194.499 328.34C194.127 327.926 193.941 327.301 193.941 326.465V322.591H195.069V326.44C195.069 326.987 195.182 327.388 195.402 327.645C195.627 327.901 195.971 328.03 196.434 328.03C196.952 328.03 197.37 327.86 197.686 327.521C198.007 327.173 198.171 326.713 198.171 326.142V322.591H199.299V328.837H198.204V327.458H198.368C198.193 327.93 197.911 328.298 197.522 328.563C197.144 328.82 196.699 328.948 196.197 328.948ZM201.199 328.837V319.698H202.327V328.837H201.199ZM204.216 328.837V322.591H205.344V328.837H204.216ZM204.115 321.225V320.009H205.457V321.225H204.115ZM209.342 328.948C208.835 328.948 208.361 328.882 207.927 328.75C207.493 328.617 207.137 328.427 206.861 328.179L207.216 327.396C207.526 327.628 207.859 327.806 208.226 327.93C208.598 328.046 208.976 328.104 209.365 328.104C209.839 328.104 210.194 328.017 210.431 327.843C210.679 327.669 210.803 327.438 210.803 327.148C210.803 326.916 210.724 326.73 210.566 326.589C210.408 326.448 210.16 326.345 209.822 326.279L208.643 326.043C208.113 325.919 207.713 325.72 207.442 325.447C207.177 325.165 207.047 324.805 207.047 324.367C207.047 324.002 207.143 323.679 207.34 323.398C207.543 323.108 207.82 322.885 208.186 322.728C208.558 322.562 208.993 322.48 209.489 322.48C209.946 322.48 210.363 322.546 210.752 322.678C211.153 322.81 211.48 323.005 211.733 323.262L211.361 324.019C211.107 323.796 210.814 323.626 210.493 323.51C210.177 323.386 209.856 323.324 209.528 323.324C209.043 323.324 208.688 323.419 208.457 323.609C208.226 323.791 208.113 324.032 208.113 324.33C208.113 324.553 208.181 324.739 208.322 324.888C208.463 325.029 208.688 325.137 209.004 325.211L210.183 325.447C210.735 325.563 211.153 325.753 211.435 326.018C211.717 326.283 211.858 326.634 211.858 327.074C211.858 327.462 211.75 327.798 211.536 328.079C211.327 328.36 211.034 328.576 210.656 328.725C210.284 328.874 209.844 328.948 209.342 328.948ZM213.397 328.837V319.698H214.525V323.945H214.367C214.548 323.464 214.841 323.1 215.247 322.852C215.653 322.604 216.121 322.48 216.645 322.48C217.401 322.48 217.954 322.682 218.309 323.088C218.676 323.493 218.856 324.106 218.856 324.926V328.837H217.728V324.988C217.728 324.433 217.621 324.032 217.407 323.783C217.193 323.526 216.837 323.398 216.352 323.398C215.805 323.398 215.36 323.568 215.021 323.907C214.694 324.247 214.525 324.697 214.525 325.261V328.837H213.397ZM224.101 328.837V320.083H227.721C228.658 320.083 229.374 320.302 229.881 320.741C230.395 321.18 230.648 321.792 230.648 322.579C230.648 323.1 230.535 323.543 230.304 323.907C230.073 324.271 229.746 324.548 229.323 324.739C228.911 324.929 228.426 325.025 227.868 325.025L228.082 324.851H228.381C228.72 324.851 229.018 324.938 229.284 325.112C229.549 325.277 229.769 325.55 229.943 325.931L231.184 328.837H229.904L228.703 325.956C228.562 325.6 228.353 325.368 228.082 325.261C227.817 325.153 227.484 325.099 227.078 325.099H225.251V328.837H224.101ZM225.251 324.205H227.547C228.184 324.205 228.669 324.069 229.002 323.796C229.34 323.522 229.509 323.125 229.509 322.604C229.509 322.09 229.34 321.701 229.002 321.437C228.669 321.163 228.184 321.027 227.547 321.027H225.251V324.205ZM235.295 328.948C234.635 328.948 234.066 328.82 233.586 328.563C233.107 328.307 232.735 327.938 232.47 327.458C232.21 326.978 232.086 326.403 232.086 325.733C232.086 325.07 232.21 324.499 232.459 324.019C232.712 323.53 233.062 323.154 233.513 322.889C233.959 322.616 234.477 322.48 235.075 322.48C235.645 322.48 236.13 322.604 236.525 322.852C236.925 323.092 237.224 323.436 237.433 323.883C237.636 324.33 237.743 324.859 237.743 325.472V325.844H232.966V325.174H236.97L236.761 325.335C236.761 324.69 236.615 324.188 236.327 323.833C236.045 323.477 235.628 323.299 235.075 323.299C234.669 323.299 234.325 323.394 234.043 323.585C233.761 323.775 233.547 324.044 233.4 324.392C233.248 324.739 233.175 325.153 233.175 325.633V325.745C233.175 326.506 233.361 327.081 233.733 327.471C234.117 327.86 234.641 328.054 235.312 328.054C235.684 328.054 236.028 328 236.35 327.893C236.677 327.785 236.987 327.607 237.28 327.359L237.652 328.141C237.37 328.398 237.021 328.596 236.598 328.737C236.186 328.878 235.752 328.948 235.295 328.948ZM241.995 331.618C241.448 331.618 240.952 331.551 240.495 331.419C240.038 331.287 239.632 331.084 239.265 330.811L239.564 329.979C239.818 330.153 240.072 330.293 240.32 330.401C240.568 330.508 240.828 330.587 241.093 330.637C241.363 330.687 241.645 330.711 241.933 330.711C242.548 330.711 243.004 330.554 243.309 330.24C243.619 329.925 243.771 329.478 243.771 328.899V327.148H243.895C243.76 327.62 243.489 327.996 243.078 328.278C242.672 328.551 242.192 328.688 241.634 328.688C241.076 328.688 240.579 328.563 240.162 328.315C239.745 328.058 239.423 327.698 239.192 327.235C238.961 326.763 238.842 326.212 238.842 325.584C238.842 324.946 238.961 324.396 239.192 323.932C239.423 323.468 239.745 323.113 240.162 322.864C240.579 322.608 241.076 322.48 241.634 322.48C242.192 322.48 242.672 322.616 243.078 322.889C243.478 323.162 243.749 323.539 243.884 324.019L243.771 323.907L243.884 322.591H244.973C244.95 322.84 244.922 323.088 244.899 323.336C244.882 323.585 244.877 323.828 244.877 324.069V328.762C244.877 329.689 244.628 330.397 244.143 330.885C243.664 331.374 242.948 331.618 241.995 331.618ZM241.882 327.794C242.457 327.794 242.908 327.599 243.247 327.21C243.591 326.821 243.76 326.279 243.76 325.584C243.76 324.88 243.591 324.337 243.247 323.957C242.908 323.576 242.457 323.386 241.882 323.386C241.307 323.386 240.844 323.576 240.495 323.957C240.156 324.337 239.987 324.88 239.987 325.584C239.987 326.279 240.156 326.821 240.495 327.21C240.844 327.599 241.307 327.794 241.882 327.794ZM248.988 328.948C248.232 328.948 247.668 328.745 247.285 328.34C246.913 327.926 246.726 327.301 246.726 326.465V322.591H247.854V326.44C247.854 326.987 247.967 327.388 248.193 327.645C248.413 327.901 248.757 328.03 249.219 328.03C249.743 328.03 250.161 327.86 250.477 327.521C250.798 327.173 250.956 326.713 250.956 326.142V322.591H252.09V328.837H250.995V327.458H251.159C250.984 327.93 250.702 328.298 250.313 328.563C249.935 328.82 249.49 328.948 248.988 328.948ZM253.984 328.837V319.698H255.118V328.837H253.984ZM259.387 328.948C258.84 328.948 258.361 328.82 257.943 328.563C257.532 328.307 257.21 327.934 256.979 327.446C256.748 326.957 256.629 326.378 256.629 325.708C256.629 325.037 256.748 324.462 256.979 323.982C257.21 323.493 257.532 323.121 257.943 322.864C258.361 322.608 258.84 322.48 259.387 322.48C259.94 322.48 260.419 322.62 260.825 322.902C261.237 323.175 261.513 323.551 261.643 324.032H261.496L261.631 322.591H262.72C262.697 322.84 262.675 323.088 262.647 323.336C262.63 323.585 262.624 323.828 262.624 324.069V328.837H261.496V327.409H261.631C261.496 327.881 261.225 328.257 260.814 328.539C260.408 328.812 259.928 328.948 259.387 328.948ZM259.646 328.054C260.21 328.054 260.661 327.856 261 327.458C261.338 327.061 261.507 326.478 261.507 325.708C261.507 324.938 261.338 324.358 261 323.969C260.661 323.58 260.21 323.386 259.646 323.386C259.082 323.386 258.626 323.58 258.282 323.969C257.943 324.358 257.774 324.938 257.774 325.708C257.774 326.478 257.943 327.061 258.282 327.458C258.62 327.856 259.077 328.054 259.646 328.054ZM264.502 328.837V324.118C264.502 323.87 264.496 323.617 264.479 323.361C264.468 323.096 264.451 322.84 264.417 322.591H265.506L265.647 324.156L265.461 324.168C265.54 323.787 265.681 323.473 265.878 323.224C266.087 322.968 266.329 322.781 266.611 322.666C266.899 322.542 267.198 322.48 267.508 322.48C267.638 322.48 267.75 322.483 267.841 322.492C267.931 322.5 268.021 322.521 268.111 322.554L268.089 323.56C267.965 323.51 267.846 323.481 267.739 323.473C267.643 323.456 267.519 323.448 267.367 323.448C267.006 323.448 266.69 323.53 266.425 323.696C266.171 323.862 265.968 324.081 265.833 324.354C265.698 324.628 265.63 324.921 265.63 325.236V328.837H264.502Z" fill="white"/>
<path d="M28 498.213L58.1542 432.562H70.155L100.676 498.213H85.9737L78.0671 479.961L83.7405 483.966H44.7548L50.524 479.961L42.6118 498.213H28ZM64.1095 447.834L52.1031 476.33L49.5935 472.791H78.9018L76.7645 476.33L64.4817 447.834H64.1095ZM124.48 499.238C120.386 499.238 116.788 498.244 113.686 496.258C110.584 494.271 108.165 491.447 106.428 487.784C104.691 484.121 103.823 479.713 103.823 474.56C103.823 469.47 104.691 465.093 106.428 461.43C108.165 457.767 110.584 454.974 113.686 453.049C116.788 451.062 120.386 450.069 124.48 450.069C128.264 450.069 131.642 451 134.62 452.863C137.659 454.663 139.645 457.115 140.575 460.219H139.554L140.671 451H154.161C153.974 453.048 153.788 455.128 153.602 457.239C153.478 459.288 153.416 461.306 153.416 463.292V498.213H139.458L139.368 489.367H140.485C139.492 492.347 137.507 494.737 134.529 496.537C131.552 498.338 128.202 499.238 124.48 499.238ZM128.76 488.622C131.986 488.622 134.592 487.473 136.577 485.176C138.562 482.879 139.554 479.341 139.554 474.56C139.554 469.78 138.562 466.272 136.577 464.037C134.592 461.803 131.986 460.685 128.76 460.685C125.535 460.685 122.929 461.803 120.944 464.037C118.959 466.272 117.966 469.78 117.966 474.56C117.966 479.341 118.925 482.879 120.848 485.176C122.833 487.473 125.473 488.622 128.76 488.622Z" fill="white"/>
<path d="M185.584 427.102V418.349H187.281L190.321 425.178H189.926L192.966 418.349H194.652V427.102H192.887V421.155H193.383L190.671 427.102H189.554L186.825 421.155H187.343V427.102H185.584ZM198.605 427.239C197.822 427.239 197.241 427.023 196.857 426.593C196.479 426.154 196.288 425.492 196.288 424.607V420.807H198.16V424.607C198.16 425.004 198.239 425.297 198.397 425.488C198.56 425.678 198.814 425.774 199.153 425.774C199.525 425.774 199.835 425.645 200.072 425.389C200.32 425.124 200.444 424.772 200.444 424.333V420.807H202.316V427.102H200.495V425.898H200.67C200.478 426.32 200.207 426.651 199.846 426.891C199.491 427.123 199.079 427.239 198.605 427.239ZM203.862 427.102V417.964H205.734V427.102H203.862ZM207.268 427.102V420.807H209.14V427.102H207.268ZM207.194 419.777V418.026H209.202V419.777H207.194ZM212.992 427.239C212.428 427.239 211.915 427.177 211.452 427.053C210.99 426.928 210.595 426.755 210.274 426.531L210.759 425.29C211.08 425.488 211.435 425.645 211.824 425.761C212.219 425.877 212.614 425.935 213.003 425.935C213.37 425.935 213.635 425.877 213.81 425.761C213.984 425.645 214.069 425.488 214.069 425.29C214.069 425.124 214.013 424.996 213.894 424.905C213.787 424.813 213.618 424.747 213.387 424.706L212.112 424.47C211.571 424.362 211.165 424.164 210.883 423.874C210.601 423.584 210.46 423.208 210.46 422.744C210.46 422.338 210.567 421.982 210.781 421.676C211.007 421.361 211.323 421.118 211.74 420.944C212.152 420.77 212.637 420.683 213.189 420.683C213.663 420.683 214.108 420.741 214.531 420.857C214.949 420.973 215.31 421.15 215.609 421.391L215.101 422.595C214.842 422.404 214.548 422.251 214.204 422.136C213.877 422.02 213.556 421.962 213.251 421.962C212.856 421.962 212.569 422.028 212.394 422.161C212.219 422.285 212.135 422.446 212.135 422.645C212.135 422.794 212.185 422.918 212.281 423.017C212.394 423.117 212.552 423.191 212.766 423.241L214.058 423.477C214.61 423.576 215.033 423.762 215.321 424.035C215.614 424.309 215.755 424.685 215.755 425.165C215.755 425.604 215.642 425.976 215.411 426.283C215.18 426.589 214.853 426.825 214.43 426.991C214.018 427.156 213.539 427.239 212.992 427.239ZM216.923 427.102V417.964H218.795V421.987H218.609C218.806 421.565 219.105 421.242 219.488 421.018C219.878 420.795 220.329 420.683 220.831 420.683C221.569 420.683 222.116 420.898 222.483 421.329C222.844 421.751 223.024 422.4 223.024 423.278V427.102H221.152V423.365C221.152 422.926 221.073 422.612 220.904 422.421C220.746 422.231 220.498 422.136 220.16 422.136C219.748 422.136 219.415 422.264 219.167 422.521C218.919 422.777 218.795 423.121 218.795 423.551V427.102H216.923ZM228.156 427.102V418.349H234.236V419.851H230.006V421.9H233.937V423.415H230.006V425.6H234.236V427.102H228.156ZM234.416 427.102L237.394 423.439V424.271L234.58 420.807H236.79L238.465 423.005H237.794L239.48 420.807H241.674L238.871 424.284V423.427L241.849 427.102H239.627L237.794 424.743H238.465L236.616 427.102H234.416ZM245.306 427.239C244.488 427.239 243.874 427.036 243.456 426.631C243.045 426.216 242.836 425.6 242.836 424.78V422.21H241.646V420.807H242.836V419.268L244.714 418.808V420.807H246.327V422.21H244.714V424.681C244.714 425.078 244.793 425.352 244.962 425.501C245.126 425.65 245.334 425.724 245.594 425.724C245.751 425.724 245.876 425.716 245.977 425.699C246.084 425.674 246.197 425.641 246.31 425.6V427.053C246.152 427.119 245.988 427.164 245.814 427.189C245.644 427.222 245.47 427.239 245.306 427.239ZM247.274 427.102V422.471C247.274 422.198 247.263 421.92 247.246 421.639C247.24 421.357 247.218 421.08 247.184 420.807H248.983L249.197 422.645H248.91C248.994 422.198 249.124 421.829 249.31 421.54C249.496 421.25 249.727 421.035 250.004 420.894C250.286 420.753 250.601 420.683 250.957 420.683C251.115 420.683 251.239 420.691 251.329 420.708C251.419 420.716 251.509 420.737 251.605 420.77L251.588 422.421C251.419 422.347 251.267 422.301 251.143 422.285C251.03 422.26 250.878 422.248 250.697 422.248C250.348 422.248 250.06 422.314 249.829 422.446C249.603 422.578 249.434 422.773 249.321 423.03C249.214 423.286 249.158 423.596 249.158 423.961V427.102H247.274ZM254.769 427.239C254.222 427.239 253.743 427.106 253.331 426.842C252.919 426.576 252.592 426.2 252.361 425.712C252.13 425.223 252.017 424.635 252.017 423.949C252.017 423.27 252.13 422.686 252.361 422.198C252.592 421.709 252.919 421.337 253.331 421.08C253.743 420.815 254.222 420.683 254.769 420.683C255.277 420.683 255.728 420.807 256.122 421.056C256.528 421.295 256.794 421.622 256.918 422.036H256.782L256.929 420.807H258.728C258.705 421.08 258.677 421.357 258.655 421.639C258.638 421.912 258.626 422.181 258.626 422.446V427.102H256.765L256.754 425.923H256.906C256.771 426.32 256.506 426.638 256.111 426.879C255.711 427.119 255.265 427.239 254.769 427.239ZM255.339 425.823C255.773 425.823 256.117 425.67 256.382 425.364C256.647 425.058 256.782 424.586 256.782 423.949C256.782 423.311 256.647 422.844 256.382 422.546C256.117 422.248 255.773 422.099 255.339 422.099C254.91 422.099 254.566 422.248 254.301 422.546C254.036 422.844 253.901 423.311 253.901 423.949C253.901 424.586 254.03 425.058 254.284 425.364C254.549 425.67 254.904 425.823 255.339 425.823ZM260.29 427.102V418.349H264.322C265.281 418.349 266.02 418.551 266.544 418.957C267.063 419.362 267.322 419.917 267.322 420.621C267.322 421.142 267.165 421.585 266.854 421.95C266.544 422.314 266.127 422.558 265.585 422.682V422.483C266.217 422.591 266.697 422.831 267.041 423.204C267.385 423.568 267.559 424.043 267.559 424.631C267.559 425.409 267.283 426.018 266.73 426.457C266.183 426.887 265.428 427.102 264.458 427.102H260.29ZM262.14 425.662H264.221C264.7 425.662 265.072 425.571 265.326 425.389C265.58 425.207 265.71 424.917 265.71 424.52C265.71 424.254 265.653 424.039 265.535 423.874C265.422 423.7 265.253 423.576 265.027 423.502C264.813 423.419 264.542 423.377 264.221 423.377H262.14V425.662ZM262.14 421.95H263.973C264.48 421.95 264.852 421.858 265.089 421.676C265.332 421.494 265.45 421.221 265.45 420.857C265.45 420.501 265.332 420.232 265.089 420.05C264.852 419.868 264.48 419.777 263.973 419.777H262.14V421.95ZM271.783 427.239C271.112 427.239 270.526 427.106 270.029 426.842C269.544 426.568 269.161 426.187 268.89 425.699C268.625 425.211 268.495 424.627 268.495 423.949C268.495 423.278 268.625 422.698 268.89 422.21C269.161 421.722 269.544 421.345 270.029 421.08C270.526 420.815 271.112 420.683 271.783 420.683C272.449 420.683 273.035 420.815 273.532 421.08C274.028 421.345 274.406 421.722 274.671 422.21C274.947 422.698 275.082 423.278 275.082 423.949C275.082 424.627 274.947 425.211 274.671 425.699C274.406 426.187 274.028 426.568 273.532 426.842C273.035 427.106 272.449 427.239 271.783 427.239ZM271.783 425.823C272.212 425.823 272.55 425.67 272.798 425.364C273.058 425.058 273.182 424.586 273.182 423.949C273.182 423.311 273.058 422.844 272.798 422.546C272.55 422.248 272.212 422.099 271.783 422.099C271.349 422.099 271.011 422.248 270.751 422.546C270.503 422.844 270.379 423.311 270.379 423.949C270.379 424.586 270.503 425.058 270.751 425.364C271.011 425.67 271.349 425.823 271.783 425.823ZM276.289 427.102V417.964H278.167V427.102H276.289ZM282.166 427.239C281.619 427.239 281.134 427.106 280.711 426.842C280.299 426.576 279.972 426.2 279.735 425.712C279.504 425.223 279.385 424.635 279.385 423.949C279.385 423.27 279.504 422.686 279.735 422.198C279.966 421.709 280.293 421.337 280.711 421.08C281.134 420.815 281.619 420.683 282.166 420.683C282.662 420.683 283.102 420.803 283.491 421.043C283.891 421.275 284.156 421.589 284.286 421.987H284.122V417.964H286V427.102H284.151V425.873H284.309C284.179 426.287 283.914 426.618 283.519 426.866C283.119 427.115 282.667 427.239 282.166 427.239ZM282.724 425.823C283.152 425.823 283.502 425.67 283.767 425.364C284.032 425.058 284.162 424.586 284.162 423.949C284.162 423.311 284.032 422.844 283.767 422.546C283.502 422.248 283.152 422.099 282.724 422.099C282.295 422.099 281.94 422.248 281.669 422.546C281.404 422.844 281.269 423.311 281.269 423.949C281.269 424.586 281.404 425.058 281.669 425.364C281.94 425.67 282.295 425.823 282.724 425.823Z" fill="white"/>
</svg>
