<svg width="703" height="620" viewBox="0 0 703 620" fill="none" xmlns="http://www.w3.org/2000/svg">
<rect width="703" height="620" rx="50" fill="#1A1B1D"/>
<path d="M158.261 348.101H134V338.486H194.038V348.101H169.777V416.636H158.261V348.101Z" fill="white"/>
<path d="M217.257 418.313C211.22 418.313 205.891 417.195 201.27 414.959C196.723 412.648 193.145 409.369 190.536 405.12C188.002 400.797 186.735 395.729 186.735 389.915C186.735 384.176 188.002 379.145 190.536 374.822C193.071 370.499 196.648 367.182 201.27 364.871C205.891 362.486 211.22 361.294 217.257 361.294C223.295 361.294 228.624 362.486 233.245 364.871C237.866 367.182 241.444 370.499 243.978 374.822C246.587 379.145 247.891 384.176 247.891 389.915C247.891 395.729 246.587 400.797 243.978 405.12C241.444 409.369 237.866 412.648 233.245 414.959C228.624 417.195 223.295 418.313 217.257 418.313ZM217.257 409.369C223.071 409.369 227.692 407.58 231.121 404.002C234.55 400.425 236.264 395.729 236.264 389.915C236.264 383.878 234.55 379.108 231.121 375.604C227.692 372.101 223.071 370.35 217.257 370.35C211.444 370.35 206.822 372.101 203.394 375.604C199.965 379.108 198.251 383.878 198.251 389.915C198.251 395.729 199.965 400.425 203.394 404.002C206.822 407.58 211.444 409.369 217.257 409.369Z" fill="white"/>
<path d="M257.922 362.971H268.879V370.909C274.394 364.499 281.848 361.294 291.239 361.294C296.606 361.294 301.413 362.486 305.662 364.871C309.985 367.256 313.339 370.611 315.724 374.934C318.184 379.182 319.414 384.139 319.414 389.803C319.414 395.393 318.184 400.35 315.724 404.673C313.339 408.996 310.022 412.35 305.774 414.735C301.525 417.121 296.68 418.313 291.239 418.313C286.767 418.313 282.593 417.568 278.717 416.077C274.842 414.586 271.674 412.388 269.214 409.481V441.121H257.922V362.971ZM288.668 409.369C292.32 409.369 295.6 408.586 298.507 407.021C301.488 405.381 303.799 403.071 305.438 400.089C307.153 397.108 308.01 393.679 308.01 389.803C308.01 385.928 307.153 382.536 305.438 379.629C303.799 376.648 301.488 374.375 298.507 372.809C295.6 371.17 292.32 370.35 288.668 370.35C284.121 370.35 280.096 371.542 276.593 373.927C273.165 376.312 270.705 379.592 269.214 383.766V395.841C270.481 399.94 272.904 403.22 276.481 405.679C280.059 408.139 284.121 409.369 288.668 409.369Z" fill="white"/>
<path d="M329.493 338.486H381.035V348.101H340.897V373.033H370.861V382.089H340.897V416.636H329.493V338.486Z" fill="white"/>
<path d="M400.692 418.313C393.462 418.313 387.984 416.375 384.257 412.499C380.605 408.623 378.778 403.443 378.778 396.959V362.971H390.07V396.512C390.07 405.083 394.356 409.369 402.928 409.369C410.456 409.369 416.344 405.977 420.593 399.195V362.971H431.885V416.636H420.928V409.033C418.394 412.238 415.375 414.586 411.872 416.077C408.443 417.568 404.717 418.313 400.692 418.313Z" fill="white"/>
<path d="M444.139 362.971H455.096V370.685C457.63 367.48 460.724 365.132 464.376 363.641C468.103 362.076 471.978 361.294 476.003 361.294C483.159 361.294 488.488 363.194 491.991 366.996C495.494 370.797 497.246 375.903 497.246 382.313V416.636H485.954V383.431C485.954 374.71 481.78 370.35 473.432 370.35C469.854 370.35 466.5 371.207 463.37 372.921C460.314 374.561 457.668 377.095 455.432 380.524V416.636H444.139V362.971Z" fill="white"/>
<path d="M534.88 418.313C529.513 418.313 524.668 417.158 520.345 414.847C516.097 412.462 512.743 409.145 510.283 404.897C507.898 400.574 506.705 395.58 506.705 389.915C506.705 384.325 507.898 379.368 510.283 375.045C512.743 370.722 516.097 367.368 520.345 364.983C524.668 362.523 529.513 361.294 534.88 361.294C544.569 361.294 551.911 364.238 556.905 370.126V334.014H568.197V416.636H557.24V408.81C554.259 412.089 550.979 414.512 547.402 416.077C543.898 417.568 539.724 418.313 534.88 418.313ZM537.451 409.369C542.072 409.369 546.097 408.176 549.526 405.791C553.029 403.331 555.489 400.052 556.905 395.952V383.878C555.638 379.778 553.215 376.499 549.638 374.039C546.135 371.579 542.072 370.35 537.451 370.35C533.799 370.35 530.482 371.17 527.501 372.809C524.594 374.449 522.283 376.76 520.569 379.741C518.929 382.722 518.109 386.114 518.109 389.915C518.109 393.716 518.929 397.108 520.569 400.089C522.283 403.071 524.594 405.381 527.501 407.021C530.482 408.586 533.799 409.369 537.451 409.369Z" fill="white"/>
<path d="M292.903 274.866C290.947 274.816 289.679 272.782 290.496 271.004L296.194 258.601L315.886 208.459C316.595 206.652 315.241 204.703 313.299 204.739L286.531 205.235C284.477 205.273 283.121 203.11 284.051 201.277L289.425 190.688L295.511 175.373C295.924 174.336 296.927 173.655 298.043 173.655H331.744C332.718 173.655 333.617 174.174 334.104 175.017L350.567 203.525C350.982 204.245 351.047 205.114 350.742 205.887L323.971 273.861C323.551 274.926 322.511 275.615 321.367 275.586L292.903 274.866Z" fill="url(#paint0_linear_36_13522)"/>
<path d="M403.777 235.232C402.98 237.002 404.238 239.014 406.179 239.073L421.835 239.553C422.86 239.584 423.815 239.038 424.308 238.139L433.718 220.97C434.718 219.144 433.385 216.916 431.304 216.935L413.675 217.096C412.612 217.105 411.652 217.733 411.215 218.702L403.777 235.232Z" fill="url(#paint1_linear_36_13522)"/>
<path d="M395.081 220.662C395.826 218.868 394.507 216.893 392.564 216.893H364.397C363.296 216.893 362.304 217.555 361.881 218.572L345.328 258.384L339.925 271.046C339.167 272.823 340.448 274.802 342.379 274.839L370.546 275.381C371.668 275.403 372.688 274.734 373.116 273.697L383.325 248.994L395.081 220.662Z" fill="url(#paint2_linear_36_13522)"/>
<path d="M353.314 173.418C351.219 173.426 349.916 175.698 350.968 177.511L365.943 203.311C366.43 204.149 367.324 204.666 368.292 204.668L440.666 204.878C441.664 204.881 442.584 204.337 443.063 203.462L457.534 177.052C458.532 175.232 457.209 173.01 455.134 173.018L353.314 173.418Z" fill="url(#paint3_linear_36_13522)"/>
<defs>
<linearGradient id="paint0_linear_36_13522" x1="299.711" y1="236.579" x2="346.033" y2="194.345" gradientUnits="userSpaceOnUse">
<stop stop-color="#00F2C7"/>
<stop offset="1" stop-color="#1FD7FF"/>
</linearGradient>
<linearGradient id="paint1_linear_36_13522" x1="435.498" y1="218.414" x2="406.433" y2="234.763" gradientUnits="userSpaceOnUse">
<stop stop-color="#A12DF0"/>
<stop offset="1" stop-color="#FF61AD"/>
</linearGradient>
<linearGradient id="paint2_linear_36_13522" x1="338.313" y1="275.635" x2="391.447" y2="216.597" gradientUnits="userSpaceOnUse">
<stop stop-color="#3DFF96"/>
<stop offset="0.520833" stop-color="#F9D145"/>
<stop offset="1" stop-color="#FF8D4E"/>
</linearGradient>
<linearGradient id="paint3_linear_36_13522" x1="348.304" y1="173" x2="446.398" y2="204.79" gradientUnits="userSpaceOnUse">
<stop stop-color="#1EAEFF"/>
<stop offset="1" stop-color="#4D21FF"/>
</linearGradient>
</defs>
</svg>
