<svg width="328" height="290" viewBox="0 0 328 290" fill="none" xmlns="http://www.w3.org/2000/svg">
<rect width="328" height="290" rx="30" fill="#D3D7DF"/>
<path d="M217 176.016H111V70H217V176.016ZM115.177 171.843H212.822V74.1726H115.177V171.843Z" fill="#2A2A2C"/>
<path d="M149.013 173.619H144.836V103.84L214.91 103.952V108.125L149.013 108.025V173.619Z" fill="#2A2A2C"/>
<path d="M197.261 137.68H146.924V141.865H197.261V137.68Z" fill="#2A2A2C"/>
<path d="M165.632 71.126L161.898 72.9999L213.01 174.85L216.743 172.974L165.632 71.126Z" fill="#2A2A2C"/>
<path d="M111 218.947V194.992H114.07V216.252H127.426V218.947H111Z" fill="#2A2A2C"/>
<path d="M146.999 216.252V218.947H130.727V194.992H146.692V197.675H133.72V205.424H145.004V207.957H133.72V216.252H146.999Z" fill="#2A2A2C"/>
<path d="M160.276 219.096C158.665 219.096 157.206 218.785 155.901 218.09C154.519 217.407 153.368 216.488 152.37 215.333C151.371 214.178 150.604 212.874 149.991 211.421C149.453 209.956 149.146 208.428 149.146 206.888C149.146 205.274 149.453 203.734 149.991 202.281C150.527 200.816 151.371 199.512 152.37 198.444C153.368 197.289 154.519 196.444 155.901 195.749C157.283 195.14 158.74 194.755 160.353 194.755C162.655 194.755 164.575 195.215 166.109 196.221C167.645 197.214 168.719 198.444 169.486 199.971L167.184 201.585C166.493 200.207 165.496 199.127 164.344 198.518C163.116 197.823 161.811 197.525 160.353 197.525C159.124 197.525 158.05 197.748 157.052 198.282C156.055 198.829 155.21 199.512 154.519 200.443C153.829 201.362 153.291 202.355 152.907 203.436C152.524 204.578 152.37 205.733 152.37 206.963C152.37 208.267 152.601 209.421 152.984 210.576C153.368 211.719 153.981 212.725 154.75 213.569C155.517 214.414 156.438 215.097 157.435 215.643C158.434 216.103 159.509 216.401 160.737 216.401C162.119 216.401 163.424 216.028 164.652 215.333C165.879 214.637 167.03 213.569 168.183 212.104V215.258C165.802 217.866 163.27 219.096 160.276 219.096ZM167.568 209.273H162.425V206.963H170.178V218.934H167.645V209.273H167.568Z" fill="#2A2A2C"/>
<path d="M174.783 218.947V194.992H177.854V208.267L190.211 194.992H193.513L183.918 205.585L194.049 219.022H190.672L181.922 207.348L177.854 211.645V219.022H174.783V218.947Z" fill="#2A2A2C"/>
<path d="M205.183 219.096C203.494 219.096 201.96 218.785 200.578 218.09C199.196 217.407 198.045 216.488 197.047 215.333C196.05 214.178 195.281 212.874 194.745 211.421C194.207 209.956 193.9 208.503 193.9 206.963C193.9 205.348 194.207 203.821 194.745 202.355C195.281 200.902 196.125 199.599 197.124 198.444C198.122 197.289 199.35 196.37 200.732 195.749C202.114 195.066 203.571 194.755 205.26 194.755C206.948 194.755 208.484 195.14 209.866 195.836C211.247 196.519 212.399 197.438 213.396 198.667C214.394 199.822 215.161 201.126 215.699 202.591C216.237 204.044 216.543 205.51 216.543 207.037C216.543 208.652 216.237 210.192 215.699 211.645C215.161 213.11 214.317 214.414 213.32 215.556C212.322 216.711 211.094 217.556 209.712 218.251C208.33 218.785 206.796 219.096 205.183 219.096ZM196.97 206.963C196.97 208.192 197.201 209.347 197.584 210.49C197.968 211.644 198.505 212.65 199.273 213.495C199.964 214.339 200.884 215.097 201.883 215.556C202.881 216.103 204.032 216.326 205.26 216.326C206.565 216.326 207.717 216.028 208.714 215.482C209.712 214.948 210.556 214.252 211.324 213.333C212.015 212.414 212.552 211.421 212.935 210.266C213.32 209.111 213.473 208.043 213.473 206.888C213.473 205.659 213.243 204.504 212.86 203.361C212.476 202.206 211.938 201.201 211.171 200.356C210.402 199.437 209.558 198.754 208.561 198.282C207.563 197.748 206.412 197.525 205.26 197.525C203.955 197.525 202.804 197.748 201.806 198.282C200.809 198.829 199.964 199.512 199.196 200.443C198.505 201.362 197.968 202.355 197.584 203.436C197.201 204.665 196.97 205.808 196.97 206.963Z" fill="#2A2A2C"/>
</svg>
