<svg width="328" height="290" viewBox="0 0 328 290" fill="none" xmlns="http://www.w3.org/2000/svg">
<rect width="328" height="290" rx="30" fill="#1A1B1D"/>
<path d="M73.8401 162.414H62.5205V157.928H90.5326V162.414H79.213V194.391H73.8401V162.414Z" fill="white"/>
<path d="M101.366 195.173C98.5492 195.173 96.0627 194.652 93.9066 193.608C91.7852 192.53 90.116 191 88.8988 189.018C87.7164 187.001 87.1252 184.636 87.1252 181.924C87.1252 179.246 87.7164 176.898 88.8988 174.881C90.0812 172.864 91.7505 171.317 93.9066 170.239C96.0627 169.126 98.5492 168.57 101.366 168.57C104.183 168.57 106.669 169.126 108.825 170.239C110.982 171.317 112.651 172.864 113.833 174.881C115.05 176.898 115.659 179.246 115.659 181.924C115.659 184.636 115.05 187.001 113.833 189.018C112.651 191 110.982 192.53 108.825 193.608C106.669 194.652 104.183 195.173 101.366 195.173ZM101.366 191C104.079 191 106.235 190.166 107.834 188.496C109.434 186.827 110.234 184.636 110.234 181.924C110.234 179.107 109.434 176.881 107.834 175.247C106.235 173.612 104.079 172.795 101.366 172.795C98.6535 172.795 96.4974 173.612 94.8977 175.247C93.298 176.881 92.4981 179.107 92.4981 181.924C92.4981 184.636 93.298 186.827 94.8977 188.496C96.4974 190.166 98.6535 191 101.366 191Z" fill="white"/>
<path d="M120.339 169.352H125.451V173.056C128.025 170.065 131.502 168.57 135.884 168.57C138.388 168.57 140.631 169.126 142.613 170.239C144.63 171.352 146.195 172.917 147.308 174.934C148.456 176.916 149.029 179.228 149.029 181.871C149.029 184.48 148.456 186.792 147.308 188.809C146.195 190.826 144.648 192.391 142.665 193.504C140.683 194.617 138.423 195.173 135.884 195.173C133.797 195.173 131.85 194.826 130.042 194.13C128.233 193.434 126.755 192.409 125.608 191.052V205.815H120.339V169.352ZM134.684 191C136.388 191 137.918 190.635 139.275 189.905C140.666 189.14 141.744 188.062 142.509 186.671C143.309 185.279 143.709 183.68 143.709 181.871C143.709 180.063 143.309 178.481 142.509 177.124C141.744 175.733 140.666 174.673 139.275 173.942C137.918 173.177 136.388 172.795 134.684 172.795C132.563 172.795 130.685 173.351 129.05 174.464C127.451 175.577 126.303 177.107 125.608 179.055V184.688C126.199 186.601 127.329 188.131 128.998 189.279C130.668 190.426 132.563 191 134.684 191Z" fill="white"/>
<path d="M153.732 157.928H177.78V162.414H159.053V174.047H173.033V178.272H159.053V194.391H153.732V157.928Z" fill="white"/>
<path d="M186.951 195.173C183.578 195.173 181.022 194.269 179.283 192.461C177.579 190.652 176.727 188.235 176.727 185.21V169.352H181.996V185.001C181.996 189.001 183.995 191 187.995 191C191.507 191 194.254 189.418 196.237 186.253V169.352H201.505V194.391H196.393V190.844C195.211 192.339 193.802 193.434 192.168 194.13C190.568 194.826 188.829 195.173 186.951 195.173Z" fill="white"/>
<path d="M207.223 169.352H212.335V172.951C213.517 171.456 214.96 170.361 216.665 169.665C218.403 168.935 220.212 168.57 222.09 168.57C225.428 168.57 227.915 169.456 229.549 171.23C231.184 173.004 232.001 175.386 232.001 178.376V194.391H226.732V178.898C226.732 174.829 224.785 172.795 220.89 172.795C219.221 172.795 217.656 173.195 216.195 173.995C214.769 174.76 213.535 175.942 212.491 177.542V194.391H207.223V169.352Z" fill="white"/>
<path d="M249.56 195.173C247.056 195.173 244.795 194.634 242.778 193.556C240.796 192.443 239.231 190.896 238.084 188.914C236.971 186.897 236.414 184.567 236.414 181.924C236.414 179.315 236.971 177.003 238.084 174.986C239.231 172.969 240.796 171.404 242.778 170.291C244.795 169.143 247.056 168.57 249.56 168.57C254.081 168.57 257.506 169.943 259.836 172.691V155.842H265.105V194.391H259.992V190.739C258.601 192.269 257.071 193.4 255.402 194.13C253.768 194.826 251.82 195.173 249.56 195.173ZM250.759 191C252.916 191 254.793 190.444 256.393 189.331C258.028 188.183 259.175 186.653 259.836 184.74V179.107C259.245 177.194 258.115 175.664 256.445 174.516C254.811 173.369 252.916 172.795 250.759 172.795C249.055 172.795 247.508 173.177 246.117 173.942C244.761 174.708 243.683 175.786 242.883 177.177C242.118 178.568 241.735 180.15 241.735 181.924C241.735 183.697 242.118 185.279 242.883 186.671C243.683 188.062 244.761 189.14 246.117 189.905C247.508 190.635 249.055 191 250.759 191Z" fill="white"/>
<path d="M136.658 128.566C135.746 128.543 135.154 127.595 135.534 126.765L138.196 120.959L147.385 97.4998C147.715 96.6566 147.083 95.7482 146.178 95.765L133.685 95.9969C132.727 96.0147 132.094 95.0065 132.527 94.1516L135.037 89.1927L137.877 82.0284C138.069 81.5438 138.538 81.2256 139.059 81.2256H154.781C155.236 81.2256 155.656 81.4684 155.883 81.8623L163.566 95.1996C163.759 95.5346 163.789 95.9392 163.647 96.2991L151.155 128.097C150.96 128.595 150.474 128.917 149.94 128.903L136.658 128.566Z" fill="url(#paint0_linear_42_23613)"/>
<path d="M188.388 110.033C188.018 110.859 188.604 111.797 189.509 111.825L196.815 112.049C197.294 112.063 197.74 111.808 197.97 111.388L202.363 103.351C202.829 102.499 202.207 101.461 201.236 101.47L193.01 101.545C192.513 101.549 192.065 101.842 191.862 102.295L188.388 110.033Z" fill="url(#paint1_linear_42_23613)"/>
<path d="M184.336 103.208C184.682 102.37 184.067 101.45 183.161 101.45H170.018C169.504 101.45 169.04 101.759 168.844 102.234L161.12 120.857L158.597 126.785C158.244 127.614 158.841 128.536 159.742 128.554L172.885 128.807C173.409 128.817 173.885 128.505 174.085 128.021L178.848 116.465L184.336 103.208Z" fill="url(#paint2_linear_42_23613)"/>
<path d="M164.843 81.1151C163.866 81.1189 163.258 82.1778 163.748 83.0234L170.739 95.0978C170.965 95.4892 171.383 95.7308 171.835 95.7321L205.601 95.8299C206.067 95.8313 206.497 95.5774 206.72 95.1683L213.475 82.809C213.94 81.9598 213.323 80.9241 212.355 80.9279L164.843 81.1151Z" fill="url(#paint3_linear_42_23613)"/>
<defs>
<linearGradient id="paint0_linear_42_23613" x1="139.837" y1="110.658" x2="161.498" y2="90.9571" gradientUnits="userSpaceOnUse">
<stop stop-color="#00F2C7"/>
<stop offset="1" stop-color="#1FD7FF"/>
</linearGradient>
<linearGradient id="paint1_linear_42_23613" x1="203.191" y1="102.161" x2="189.614" y2="109.779" gradientUnits="userSpaceOnUse">
<stop stop-color="#A12DF0"/>
<stop offset="1" stop-color="#FF61AD"/>
</linearGradient>
<linearGradient id="paint2_linear_42_23613" x1="157.847" y1="128.926" x2="182.706" y2="101.373" gradientUnits="userSpaceOnUse">
<stop stop-color="#3DFF96"/>
<stop offset="0.520833" stop-color="#F9D145"/>
<stop offset="1" stop-color="#FF8D4E"/>
</linearGradient>
<linearGradient id="paint3_linear_42_23613" x1="162.508" y1="80.9194" x2="208.298" y2="95.7215" gradientUnits="userSpaceOnUse">
<stop stop-color="#1EAEFF"/>
<stop offset="1" stop-color="#4D21FF"/>
</linearGradient>
</defs>
</svg>
