<svg width="580" height="591" viewBox="0 0 580 591" fill="none" xmlns="http://www.w3.org/2000/svg">
<rect width="580" height="591" rx="50" fill="#1A1B1D"/>
<path d="M149.65 316.981H132V309.985H175.678V316.981H158.028V366.841H149.65V316.981Z" fill="white"/>
<path d="M192.571 368.061C188.178 368.061 184.301 367.247 180.939 365.621C177.632 363.94 175.029 361.554 173.131 358.463C171.287 355.318 170.365 351.63 170.365 347.401C170.365 343.226 171.287 339.565 173.131 336.42C174.975 333.275 177.577 330.862 180.939 329.181C184.301 327.446 188.178 326.578 192.571 326.578C196.963 326.578 200.84 327.446 204.202 329.181C207.564 330.862 210.167 333.275 212.01 336.42C213.908 339.565 214.857 343.226 214.857 347.401C214.857 351.63 213.908 355.318 212.01 358.463C210.167 361.554 207.564 363.94 204.202 365.621C200.84 367.247 196.963 368.061 192.571 368.061ZM192.571 361.554C196.8 361.554 200.162 360.252 202.657 357.649C205.151 355.047 206.398 351.63 206.398 347.401C206.398 343.009 205.151 339.538 202.657 336.99C200.162 334.441 196.8 333.167 192.571 333.167C188.341 333.167 184.979 334.441 182.485 336.99C179.99 339.538 178.743 343.009 178.743 347.401C178.743 351.63 179.99 355.047 182.485 357.649C184.979 360.252 188.341 361.554 192.571 361.554Z" fill="white"/>
<path d="M222.155 327.798H230.126V333.573C234.139 328.91 239.561 326.578 246.393 326.578C250.298 326.578 253.795 327.446 256.886 329.181C260.031 330.916 262.471 333.357 264.206 336.502C265.996 339.592 266.891 343.198 266.891 347.32C266.891 351.386 265.996 354.992 264.206 358.137C262.471 361.283 260.058 363.723 256.967 365.458C253.877 367.193 250.352 368.061 246.393 368.061C243.14 368.061 240.103 367.518 237.284 366.434C234.464 365.349 232.159 363.75 230.37 361.635V384.654H222.155V327.798ZM244.523 361.554C247.18 361.554 249.566 360.984 251.68 359.846C253.849 358.653 255.53 356.972 256.723 354.803C257.971 352.634 258.594 350.139 258.594 347.32C258.594 344.5 257.971 342.033 256.723 339.918C255.53 337.749 253.849 336.095 251.68 334.956C249.566 333.763 247.18 333.167 244.523 333.167C241.215 333.167 238.287 334.034 235.738 335.77C233.244 337.505 231.454 339.891 230.37 342.927V351.712C231.292 354.694 233.054 357.08 235.657 358.869C238.26 360.659 241.215 361.554 244.523 361.554Z" fill="white"/>
<path d="M274.224 309.985H311.72V316.981H282.52V335.119H304.319V341.707H282.52V366.841H274.224V309.985Z" fill="white"/>
<path d="M326.021 368.061C320.761 368.061 316.776 366.651 314.065 363.831C311.408 361.011 310.079 357.243 310.079 352.525V327.798H318.294V352.2C318.294 358.436 321.412 361.554 327.648 361.554C333.125 361.554 337.409 359.086 340.499 354.152V327.798H348.715V366.841H340.743V361.31C338.9 363.641 336.704 365.349 334.155 366.434C331.661 367.518 328.949 368.061 326.021 368.061Z" fill="white"/>
<path d="M357.63 327.798H365.601V333.411C367.445 331.079 369.695 329.371 372.352 328.286C375.063 327.148 377.883 326.578 380.811 326.578C386.017 326.578 389.894 327.961 392.443 330.727C394.991 333.492 396.265 337.207 396.265 341.87V366.841H388.05V342.683C388.05 336.339 385.014 333.167 378.94 333.167C376.338 333.167 373.898 333.79 371.62 335.038C369.397 336.23 367.472 338.074 365.845 340.568V366.841H357.63V327.798Z" fill="white"/>
<path d="M423.645 368.061C419.74 368.061 416.216 367.22 413.071 365.539C409.98 363.804 407.54 361.391 405.75 358.3C404.015 355.155 403.147 351.522 403.147 347.401C403.147 343.334 404.015 339.728 405.75 336.583C407.54 333.438 409.98 330.998 413.071 329.263C416.216 327.473 419.74 326.578 423.645 326.578C430.694 326.578 436.035 328.72 439.668 333.004V306.732H447.883V366.841H439.912V361.147C437.743 363.533 435.357 365.295 432.754 366.434C430.206 367.518 427.169 368.061 423.645 368.061ZM425.515 361.554C428.877 361.554 431.805 360.686 434.3 358.951C436.848 357.161 438.638 354.775 439.668 351.793V343.009C438.746 340.026 436.984 337.64 434.381 335.851C431.833 334.061 428.877 333.167 425.515 333.167C422.858 333.167 420.445 333.763 418.276 334.956C416.161 336.149 414.48 337.83 413.233 339.999C412.04 342.168 411.444 344.635 411.444 347.401C411.444 350.166 412.04 352.634 413.233 354.803C414.48 356.972 416.161 358.653 418.276 359.846C420.445 360.984 422.858 361.554 425.515 361.554Z" fill="white"/>
<path d="M254.737 272.319C253.463 272.286 252.638 270.962 253.17 269.805L256.88 261.73L269.7 229.086C270.162 227.909 269.28 226.64 268.016 226.663L250.589 226.986C249.251 227.011 248.368 225.603 248.974 224.41L252.472 217.515L256.435 207.545C256.703 206.87 257.357 206.426 258.084 206.426H280.024C280.658 206.426 281.244 206.764 281.561 207.313L292.278 225.873C292.549 226.341 292.591 226.907 292.393 227.41L274.963 271.664C274.69 272.358 274.013 272.807 273.268 272.788L254.737 272.319Z" fill="url(#paint0_linear_36_13658)"/>
<path d="M326.921 246.515C326.402 247.668 327.221 248.978 328.484 249.016L338.677 249.328C339.344 249.349 339.967 248.993 340.287 248.408L346.414 237.23C347.065 236.042 346.197 234.591 344.842 234.604L333.365 234.708C332.673 234.714 332.048 235.123 331.764 235.754L326.921 246.515Z" fill="url(#paint1_linear_36_13658)"/>
<path d="M321.259 237.03C321.744 235.862 320.886 234.576 319.621 234.576H301.283C300.566 234.576 299.92 235.007 299.645 235.669L288.868 261.588L285.351 269.832C284.857 270.989 285.691 272.277 286.948 272.302L305.286 272.654C306.016 272.668 306.68 272.233 306.959 271.558L313.605 255.475L321.259 237.03Z" fill="url(#paint2_linear_36_13658)"/>
<path d="M294.067 206.272C292.702 206.278 291.855 207.757 292.54 208.937L302.289 225.734C302.605 226.279 303.188 226.616 303.818 226.617L350.936 226.754C351.586 226.756 352.185 226.402 352.497 225.832L361.918 208.638C362.568 207.453 361.707 206.007 360.356 206.012L294.067 206.272Z" fill="url(#paint3_linear_36_13658)"/>
<defs>
<linearGradient id="paint0_linear_36_13658" x1="259.169" y1="247.393" x2="289.327" y2="219.896" gradientUnits="userSpaceOnUse">
<stop stop-color="#00F2C7"/>
<stop offset="1" stop-color="#1FD7FF"/>
</linearGradient>
<linearGradient id="paint1_linear_36_13658" x1="347.573" y1="235.566" x2="328.65" y2="246.21" gradientUnits="userSpaceOnUse">
<stop stop-color="#A12DF0"/>
<stop offset="1" stop-color="#FF61AD"/>
</linearGradient>
<linearGradient id="paint2_linear_36_13658" x1="284.301" y1="272.82" x2="318.893" y2="234.384" gradientUnits="userSpaceOnUse">
<stop stop-color="#3DFF96"/>
<stop offset="0.520833" stop-color="#F9D145"/>
<stop offset="1" stop-color="#FF8D4E"/>
</linearGradient>
<linearGradient id="paint3_linear_36_13658" x1="290.805" y1="206" x2="354.668" y2="226.696" gradientUnits="userSpaceOnUse">
<stop stop-color="#1EAEFF"/>
<stop offset="1" stop-color="#4D21FF"/>
</linearGradient>
</defs>
</svg>
