<svg width="545" height="591" viewBox="0 0 545 591" fill="none" xmlns="http://www.w3.org/2000/svg">
<rect width="545" height="591" rx="50" fill="black"/>
<path d="M202.021 157.05H217.421C221.488 157.05 224.738 158.117 227.171 160.25C229.605 162.383 230.821 165.367 230.821 169.2C230.821 173.133 229.605 176.183 227.171 178.35C224.771 180.483 221.521 181.55 217.421 181.55H210.871V192H202.021V157.05ZM216.021 174.1C217.788 174.1 219.171 173.733 220.171 173C221.205 172.267 221.721 171 221.721 169.2C221.721 167.4 221.221 166.167 220.221 165.5C219.221 164.833 217.821 164.5 216.021 164.5H210.871V174.1H216.021ZM233.809 168H242.309V171C243.242 169.933 244.559 169.117 246.259 168.55C247.959 167.95 249.842 167.65 251.909 167.65V174.4C249.709 174.4 247.759 174.717 246.059 175.35C244.392 175.983 243.242 176.933 242.609 178.2V192H233.809V168ZM267.482 192.75C264.515 192.75 261.915 192.217 259.682 191.15C257.448 190.05 255.715 188.55 254.482 186.65C253.282 184.717 252.682 182.5 252.682 180C252.682 177.5 253.282 175.3 254.482 173.4C255.715 171.467 257.448 169.967 259.682 168.9C261.915 167.8 264.515 167.25 267.482 167.25C270.448 167.25 273.048 167.8 275.282 168.9C277.515 169.967 279.232 171.467 280.432 173.4C281.665 175.3 282.282 177.5 282.282 180C282.282 182.5 281.665 184.717 280.432 186.65C279.232 188.55 277.515 190.05 275.282 191.15C273.048 192.217 270.448 192.75 267.482 192.75ZM267.482 185.9C269.248 185.9 270.648 185.383 271.682 184.35C272.748 183.283 273.282 181.833 273.282 180C273.282 178.167 272.748 176.733 271.682 175.7C270.648 174.633 269.248 174.1 267.482 174.1C265.715 174.1 264.298 174.633 263.232 175.7C262.198 176.733 261.682 178.167 261.682 180C261.682 181.833 262.198 183.283 263.232 184.35C264.298 185.383 265.715 185.9 267.482 185.9ZM285.762 168H293.912V170.6C294.912 169.533 296.062 168.717 297.362 168.15C298.662 167.55 300.045 167.25 301.512 167.25C303.312 167.25 304.745 167.517 305.812 168.05C306.912 168.583 307.795 169.383 308.462 170.45C309.462 169.45 310.678 168.667 312.112 168.1C313.545 167.533 314.995 167.25 316.462 167.25C319.628 167.25 321.878 168.067 323.212 169.7C324.545 171.3 325.212 173.617 325.212 176.65V192H316.812V177.9C316.812 176.567 316.562 175.6 316.062 175C315.562 174.4 314.728 174.1 313.562 174.1C312.062 174.1 310.845 174.633 309.912 175.7C309.945 176.267 309.962 177.133 309.962 178.3V192H301.562V177.55C301.562 176.317 301.345 175.433 300.912 174.9C300.478 174.367 299.712 174.1 298.612 174.1C296.912 174.1 295.445 175.05 294.212 176.95V192H285.762V168ZM339.863 192.75C336.896 192.75 334.646 191.933 333.113 190.3C331.613 188.633 330.863 186.367 330.863 183.5V174.1H327.463V168H330.863V160.8H339.663V168H345.163V174.1H339.663V182.3C339.663 183.6 339.896 184.533 340.363 185.1C340.863 185.667 341.73 185.95 342.963 185.95C344.063 185.95 345.163 185.65 346.263 185.05V191.6C345.396 192 344.463 192.283 343.463 192.45C342.496 192.65 341.296 192.75 339.863 192.75Z" fill="#00DBC8"/>
<path d="M228.888 229.4V242H226.548V236.6H220.032V242H217.692V229.4H220.032V234.602H226.548V229.4H228.888ZM242.254 240.038V242H232.804V229.4H242.002V231.362H235.144V234.638H241.228V236.564H235.144V240.038H242.254ZM253.575 239.084H247.275L246.033 242H243.621L249.291 229.4H251.595L257.283 242H254.835L253.575 239.084ZM252.801 237.248L250.425 231.74L248.067 237.248H252.801ZM259.425 229.4H264.933C266.277 229.4 267.471 229.664 268.515 230.192C269.559 230.708 270.369 231.446 270.945 232.406C271.521 233.354 271.809 234.452 271.809 235.7C271.809 236.948 271.521 238.052 270.945 239.012C270.369 239.96 269.559 240.698 268.515 241.226C267.471 241.742 266.277 242 264.933 242H259.425V229.4ZM264.825 240.02C265.749 240.02 266.559 239.846 267.255 239.498C267.963 239.138 268.503 238.634 268.875 237.986C269.259 237.326 269.451 236.564 269.451 235.7C269.451 234.836 269.259 234.08 268.875 233.432C268.503 232.772 267.963 232.268 267.255 231.92C266.559 231.56 265.749 231.38 264.825 231.38H261.765V240.02H264.825ZM274.836 229.4H277.176V240.02H283.764V242H274.836V229.4ZM286.152 229.4H288.492V242H286.152V229.4ZM303.636 229.4V242H301.71L294.762 233.468V242H292.44V229.4H294.366L301.314 237.932V229.4H303.636ZM317.002 240.038V242H307.552V229.4H316.75V231.362H309.892V234.638H315.976V236.564H309.892V240.038H317.002ZM324.057 242.18C323.085 242.18 322.143 242.042 321.231 241.766C320.331 241.49 319.617 241.124 319.089 240.668L319.899 238.85C320.415 239.258 321.045 239.594 321.789 239.858C322.545 240.11 323.301 240.236 324.057 240.236C324.993 240.236 325.689 240.086 326.145 239.786C326.613 239.486 326.847 239.09 326.847 238.598C326.847 238.238 326.715 237.944 326.451 237.716C326.199 237.476 325.875 237.29 325.479 237.158C325.083 237.026 324.543 236.876 323.859 236.708C322.899 236.48 322.119 236.252 321.519 236.024C320.931 235.796 320.421 235.442 319.989 234.962C319.569 234.47 319.359 233.81 319.359 232.982C319.359 232.286 319.545 231.656 319.917 231.092C320.301 230.516 320.871 230.06 321.627 229.724C322.395 229.388 323.331 229.22 324.435 229.22C325.203 229.22 325.959 229.316 326.703 229.508C327.447 229.7 328.089 229.976 328.629 230.336L327.891 232.154C327.339 231.83 326.763 231.584 326.163 231.416C325.563 231.248 324.981 231.164 324.417 231.164C323.493 231.164 322.803 231.32 322.347 231.632C321.903 231.944 321.681 232.358 321.681 232.874C321.681 233.234 321.807 233.528 322.059 233.756C322.323 233.984 322.653 234.164 323.049 234.296C323.445 234.428 323.985 234.578 324.669 234.746C325.605 234.962 326.373 235.19 326.973 235.43C327.573 235.658 328.083 236.012 328.503 236.492C328.935 236.972 329.151 237.62 329.151 238.436C329.151 239.132 328.959 239.762 328.575 240.326C328.203 240.89 327.633 241.34 326.865 241.676C326.097 242.012 325.161 242.18 324.057 242.18Z" fill="#CCCCCC"/>
<path d="M199.623 369.2C199.623 371.233 199.157 373.1 198.223 374.8C197.29 376.467 195.857 377.817 193.923 378.85C191.99 379.883 189.59 380.4 186.723 380.4H181.423V393H172.873V357.9H186.723C189.523 357.9 191.89 358.383 193.823 359.35C195.757 360.317 197.207 361.65 198.173 363.35C199.14 365.05 199.623 367 199.623 369.2ZM186.073 373.6C187.707 373.6 188.923 373.217 189.723 372.45C190.523 371.683 190.923 370.6 190.923 369.2C190.923 367.8 190.523 366.717 189.723 365.95C188.923 365.183 187.707 364.8 186.073 364.8H181.423V373.6H186.073ZM216.775 393.4C214.041 393.4 211.575 392.817 209.375 391.65C207.208 390.483 205.491 388.817 204.225 386.65C202.991 384.483 202.375 381.95 202.375 379.05C202.375 376.183 203.008 373.667 204.275 371.5C205.541 369.3 207.275 367.617 209.475 366.45C211.675 365.283 214.141 364.7 216.875 364.7C219.608 364.7 222.075 365.283 224.275 366.45C226.475 367.617 228.208 369.3 229.475 371.5C230.741 373.667 231.375 376.183 231.375 379.05C231.375 381.917 230.725 384.45 229.425 386.65C228.158 388.817 226.408 390.483 224.175 391.65C221.975 392.817 219.508 393.4 216.775 393.4ZM216.775 386C218.408 386 219.791 385.4 220.925 384.2C222.091 383 222.675 381.283 222.675 379.05C222.675 376.817 222.108 375.1 220.975 373.9C219.875 372.7 218.508 372.1 216.875 372.1C215.208 372.1 213.825 372.7 212.725 373.9C211.625 375.067 211.075 376.783 211.075 379.05C211.075 381.283 211.608 383 212.675 384.2C213.775 385.4 215.141 386 216.775 386ZM244.461 369.05C245.294 367.75 246.444 366.7 247.911 365.9C249.377 365.1 251.094 364.7 253.061 364.7C255.361 364.7 257.444 365.283 259.311 366.45C261.177 367.617 262.644 369.283 263.711 371.45C264.811 373.617 265.361 376.133 265.361 379C265.361 381.867 264.811 384.4 263.711 386.6C262.644 388.767 261.177 390.45 259.311 391.65C257.444 392.817 255.361 393.4 253.061 393.4C251.127 393.4 249.411 393 247.911 392.2C246.444 391.4 245.294 390.367 244.461 389.1V406.3H235.911V365.1H244.461V369.05ZM256.661 379C256.661 376.867 256.061 375.2 254.861 374C253.694 372.767 252.244 372.15 250.511 372.15C248.811 372.15 247.361 372.767 246.161 374C244.994 375.233 244.411 376.917 244.411 379.05C244.411 381.183 244.994 382.867 246.161 384.1C247.361 385.333 248.811 385.95 250.511 385.95C252.211 385.95 253.661 385.333 254.861 384.1C256.061 382.833 256.661 381.133 256.661 379ZM278.396 369.05C279.229 367.75 280.379 366.7 281.846 365.9C283.313 365.1 285.029 364.7 286.996 364.7C289.296 364.7 291.379 365.283 293.246 366.45C295.113 367.617 296.579 369.283 297.646 371.45C298.746 373.617 299.296 376.133 299.296 379C299.296 381.867 298.746 384.4 297.646 386.6C296.579 388.767 295.113 390.45 293.246 391.65C291.379 392.817 289.296 393.4 286.996 393.4C285.063 393.4 283.346 393 281.846 392.2C280.379 391.4 279.229 390.367 278.396 389.1V406.3H269.846V365.1H278.396V369.05ZM290.596 379C290.596 376.867 289.996 375.2 288.796 374C287.629 372.767 286.179 372.15 284.446 372.15C282.746 372.15 281.296 372.767 280.096 374C278.929 375.233 278.346 376.917 278.346 379.05C278.346 381.183 278.929 382.867 280.096 384.1C281.296 385.333 282.746 385.95 284.446 385.95C286.146 385.95 287.596 385.333 288.796 384.1C289.996 382.833 290.596 381.133 290.596 379ZM308.082 362.2C306.582 362.2 305.348 361.767 304.382 360.9C303.448 360 302.982 358.9 302.982 357.6C302.982 356.267 303.448 355.167 304.382 354.3C305.348 353.4 306.582 352.95 308.082 352.95C309.548 352.95 310.748 353.4 311.682 354.3C312.648 355.167 313.132 356.267 313.132 357.6C313.132 358.9 312.648 360 311.682 360.9C310.748 361.767 309.548 362.2 308.082 362.2ZM312.332 365.1V393H303.782V365.1H312.332ZM335.528 364.8C338.794 364.8 341.394 365.867 343.328 368C345.294 370.1 346.278 373 346.278 376.7V393H337.778V377.85C337.778 375.983 337.294 374.533 336.328 373.5C335.361 372.467 334.061 371.95 332.428 371.95C330.794 371.95 329.494 372.467 328.528 373.5C327.561 374.533 327.078 375.983 327.078 377.85V393H318.528V365.1H327.078V368.8C327.944 367.567 329.111 366.6 330.578 365.9C332.044 365.167 333.694 364.8 335.528 364.8ZM363.569 393.4C361.136 393.4 358.969 392.983 357.069 392.15C355.169 391.317 353.669 390.183 352.569 388.75C351.469 387.283 350.852 385.65 350.719 383.85H359.169C359.269 384.817 359.719 385.6 360.519 386.2C361.319 386.8 362.302 387.1 363.469 387.1C364.536 387.1 365.352 386.9 365.919 386.5C366.519 386.067 366.819 385.517 366.819 384.85C366.819 384.05 366.402 383.467 365.569 383.1C364.736 382.7 363.386 382.267 361.519 381.8C359.519 381.333 357.852 380.85 356.519 380.35C355.186 379.817 354.036 379 353.069 377.9C352.102 376.767 351.619 375.25 351.619 373.35C351.619 371.75 352.052 370.3 352.919 369C353.819 367.667 355.119 366.617 356.819 365.85C358.552 365.083 360.602 364.7 362.969 364.7C366.469 364.7 369.219 365.567 371.219 367.3C373.252 369.033 374.419 371.333 374.719 374.2H366.819C366.686 373.233 366.252 372.467 365.519 371.9C364.819 371.333 363.886 371.05 362.719 371.05C361.719 371.05 360.952 371.25 360.419 371.65C359.886 372.017 359.619 372.533 359.619 373.2C359.619 374 360.036 374.6 360.869 375C361.736 375.4 363.069 375.8 364.869 376.2C366.936 376.733 368.619 377.267 369.919 377.8C371.219 378.3 372.352 379.133 373.319 380.3C374.319 381.433 374.836 382.967 374.869 384.9C374.869 386.533 374.402 388 373.469 389.3C372.569 390.567 371.252 391.567 369.519 392.3C367.819 393.033 365.836 393.4 363.569 393.4Z" fill="#00DBC8"/>
<path d="M255.12 435.448C255.816 435.676 256.368 436.06 256.776 436.6C257.184 437.128 257.388 437.788 257.388 438.58C257.388 439.672 256.968 440.518 256.128 441.118C255.288 441.706 254.064 442 252.456 442H246.192V429.4H252.096C253.584 429.4 254.73 429.694 255.534 430.282C256.338 430.858 256.74 431.656 256.74 432.676C256.74 433.3 256.596 433.852 256.308 434.332C256.02 434.812 255.624 435.184 255.12 435.448ZM248.532 431.236V434.71H251.844C252.66 434.71 253.284 434.566 253.716 434.278C254.16 433.978 254.382 433.546 254.382 432.982C254.382 432.406 254.16 431.974 253.716 431.686C253.284 431.386 252.66 431.236 251.844 431.236H248.532ZM252.312 440.164C254.124 440.164 255.03 439.558 255.03 438.346C255.03 437.134 254.124 436.528 252.312 436.528H248.532V440.164H252.312ZM266.311 442.18C265.027 442.18 263.869 441.904 262.837 441.352C261.805 440.788 260.995 440.014 260.407 439.03C259.819 438.034 259.525 436.924 259.525 435.7C259.525 434.476 259.819 433.372 260.407 432.388C260.995 431.392 261.805 430.618 262.837 430.066C263.869 429.502 265.027 429.22 266.311 429.22C267.595 429.22 268.753 429.502 269.785 430.066C270.817 430.618 271.627 431.386 272.215 432.37C272.803 433.354 273.097 434.464 273.097 435.7C273.097 436.936 272.803 438.046 272.215 439.03C271.627 440.014 270.817 440.788 269.785 441.352C268.753 441.904 267.595 442.18 266.311 442.18ZM266.311 440.128C267.151 440.128 267.907 439.942 268.579 439.57C269.251 439.186 269.779 438.658 270.163 437.986C270.547 437.302 270.739 436.54 270.739 435.7C270.739 434.86 270.547 434.104 270.163 433.432C269.779 432.748 269.251 432.22 268.579 431.848C267.907 431.464 267.151 431.272 266.311 431.272C265.471 431.272 264.715 431.464 264.043 431.848C263.371 432.22 262.843 432.748 262.459 433.432C262.075 434.104 261.883 434.86 261.883 435.7C261.883 436.54 262.075 437.302 262.459 437.986C262.843 438.658 263.371 439.186 264.043 439.57C264.715 439.942 265.471 440.128 266.311 440.128ZM276.118 429.4H281.626C282.97 429.4 284.164 429.664 285.208 430.192C286.252 430.708 287.062 431.446 287.638 432.406C288.214 433.354 288.502 434.452 288.502 435.7C288.502 436.948 288.214 438.052 287.638 439.012C287.062 439.96 286.252 440.698 285.208 441.226C284.164 441.742 282.97 442 281.626 442H276.118V429.4ZM281.518 440.02C282.442 440.02 283.252 439.846 283.948 439.498C284.656 439.138 285.196 438.634 285.568 437.986C285.952 437.326 286.144 436.564 286.144 435.7C286.144 434.836 285.952 434.08 285.568 433.432C285.196 432.772 284.656 432.268 283.948 431.92C283.252 431.56 282.442 431.38 281.518 431.38H278.458V440.02H281.518ZM296.42 437.554V442H294.08V437.59L289.13 429.4H291.632L295.322 435.538L299.048 429.4H301.352L296.42 437.554Z" fill="#CCCCCC"/>
</svg>
