<svg width="328" height="559" viewBox="0 0 328 559" fill="none" xmlns="http://www.w3.org/2000/svg">
<g clip-path="url(#clip0_60_3611)">
<rect width="328" height="559" rx="30" fill="#37229F"/>
<path d="M40.716 59.672C40.716 60.8107 40.4547 61.856 39.932 62.808C39.4093 63.7413 38.6067 64.4973 37.524 65.076C36.4413 65.6547 35.0973 65.944 33.492 65.944H30.524V73H25.736V53.344H33.492C35.06 53.344 36.3853 53.6147 37.468 54.156C38.5507 54.6973 39.3627 55.444 39.904 56.396C40.4453 57.348 40.716 58.44 40.716 59.672ZM33.128 62.136C34.0427 62.136 34.724 61.9213 35.172 61.492C35.62 61.0627 35.844 60.456 35.844 59.672C35.844 58.888 35.62 58.2813 35.172 57.852C34.724 57.4227 34.0427 57.208 33.128 57.208H30.524V62.136H33.128ZM50.3207 73.224C48.79 73.224 47.4087 72.8973 46.1767 72.244C44.9633 71.5907 44.002 70.6573 43.2927 69.444C42.602 68.2307 42.2567 66.812 42.2567 65.188C42.2567 63.5827 42.6113 62.1733 43.3207 60.96C44.03 59.728 45.0007 58.7853 46.2327 58.132C47.4647 57.4787 48.846 57.152 50.3767 57.152C51.9073 57.152 53.2887 57.4787 54.5207 58.132C55.7527 58.7853 56.7233 59.728 57.4327 60.96C58.142 62.1733 58.4967 63.5827 58.4967 65.188C58.4967 66.7933 58.1327 68.212 57.4047 69.444C56.6953 70.6573 55.7153 71.5907 54.4647 72.244C53.2327 72.8973 51.8513 73.224 50.3207 73.224ZM50.3207 69.08C51.2353 69.08 52.01 68.744 52.6447 68.072C53.298 67.4 53.6247 66.4387 53.6247 65.188C53.6247 63.9373 53.3073 62.976 52.6727 62.304C52.0567 61.632 51.2913 61.296 50.3767 61.296C49.4433 61.296 48.6687 61.632 48.0527 62.304C47.4367 62.9573 47.1287 63.9187 47.1287 65.188C47.1287 66.4387 47.4273 67.4 48.0247 68.072C48.6407 68.744 49.406 69.08 50.3207 69.08ZM65.8248 59.588C66.2914 58.86 66.9354 58.272 67.7568 57.824C68.5781 57.376 69.5394 57.152 70.6408 57.152C71.9288 57.152 73.0954 57.4787 74.1408 58.132C75.1861 58.7853 76.0074 59.7187 76.6048 60.932C77.2208 62.1453 77.5288 63.5547 77.5288 65.16C77.5288 66.7653 77.2208 68.184 76.6048 69.416C76.0074 70.6293 75.1861 71.572 74.1408 72.244C73.0954 72.8973 71.9288 73.224 70.6408 73.224C69.5581 73.224 68.5968 73 67.7568 72.552C66.9354 72.104 66.2914 71.5253 65.8248 70.816V80.448H61.0368V57.376H65.8248V59.588ZM72.6568 65.16C72.6568 63.9653 72.3208 63.032 71.6488 62.36C70.9954 61.6693 70.1834 61.324 69.2128 61.324C68.2608 61.324 67.4488 61.6693 66.7768 62.36C66.1234 63.0507 65.7968 63.9933 65.7968 65.188C65.7968 66.3827 66.1234 67.3253 66.7768 68.016C67.4488 68.7067 68.2608 69.052 69.2128 69.052C70.1648 69.052 70.9768 68.7067 71.6488 68.016C72.3208 67.3067 72.6568 66.3547 72.6568 65.16ZM84.8287 59.588C85.2954 58.86 85.9394 58.272 86.7607 57.824C87.582 57.376 88.5434 57.152 89.6447 57.152C90.9327 57.152 92.0994 57.4787 93.1447 58.132C94.19 58.7853 95.0114 59.7187 95.6087 60.932C96.2247 62.1453 96.5327 63.5547 96.5327 65.16C96.5327 66.7653 96.2247 68.184 95.6087 69.416C95.0114 70.6293 94.19 71.572 93.1447 72.244C92.0994 72.8973 90.9327 73.224 89.6447 73.224C88.562 73.224 87.6007 73 86.7607 72.552C85.9394 72.104 85.2954 71.5253 84.8287 70.816V80.448H80.0407V57.376H84.8287V59.588ZM91.6607 65.16C91.6607 63.9653 91.3247 63.032 90.6527 62.36C89.9994 61.6693 89.1874 61.324 88.2167 61.324C87.2647 61.324 86.4527 61.6693 85.7807 62.36C85.1274 63.0507 84.8007 63.9933 84.8007 65.188C84.8007 66.3827 85.1274 67.3253 85.7807 68.016C86.4527 68.7067 87.2647 69.052 88.2167 69.052C89.1687 69.052 89.9807 68.7067 90.6527 68.016C91.3247 67.3067 91.6607 66.3547 91.6607 65.16ZM101.453 55.752C100.613 55.752 99.9219 55.5093 99.3806 55.024C98.8579 54.52 98.5966 53.904 98.5966 53.176C98.5966 52.4293 98.8579 51.8133 99.3806 51.328C99.9219 50.824 100.613 50.572 101.453 50.572C102.274 50.572 102.946 50.824 103.469 51.328C104.01 51.8133 104.281 52.4293 104.281 53.176C104.281 53.904 104.01 54.52 103.469 55.024C102.946 55.5093 102.274 55.752 101.453 55.752ZM103.833 57.376V73H99.0446V57.376H103.833ZM116.822 57.208C118.652 57.208 120.108 57.8053 121.19 59C122.292 60.176 122.842 61.8 122.842 63.872V73H118.082V64.516C118.082 63.4707 117.812 62.6587 117.27 62.08C116.729 61.5013 116.001 61.212 115.086 61.212C114.172 61.212 113.444 61.5013 112.902 62.08C112.361 62.6587 112.09 63.4707 112.09 64.516V73H107.302V57.376H112.09V59.448C112.576 58.7573 113.229 58.216 114.05 57.824C114.872 57.4133 115.796 57.208 116.822 57.208ZM132.526 73.224C131.163 73.224 129.95 72.9907 128.886 72.524C127.822 72.0573 126.982 71.4227 126.366 70.62C125.75 69.7987 125.404 68.884 125.33 67.876H130.062C130.118 68.4173 130.37 68.856 130.818 69.192C131.266 69.528 131.816 69.696 132.47 69.696C133.067 69.696 133.524 69.584 133.842 69.36C134.178 69.1173 134.346 68.8093 134.346 68.436C134.346 67.988 134.112 67.6613 133.646 67.456C133.179 67.232 132.423 66.9893 131.378 66.728C130.258 66.4667 129.324 66.196 128.578 65.916C127.831 65.6173 127.187 65.16 126.646 64.544C126.104 63.9093 125.834 63.06 125.834 61.996C125.834 61.1 126.076 60.288 126.562 59.56C127.066 58.8133 127.794 58.2253 128.746 57.796C129.716 57.3667 130.864 57.152 132.19 57.152C134.15 57.152 135.69 57.6373 136.81 58.608C137.948 59.5787 138.602 60.8667 138.77 62.472H134.346C134.271 61.9307 134.028 61.5013 133.618 61.184C133.226 60.8667 132.703 60.708 132.05 60.708C131.49 60.708 131.06 60.82 130.762 61.044C130.463 61.2493 130.314 61.5387 130.314 61.912C130.314 62.36 130.547 62.696 131.014 62.92C131.499 63.144 132.246 63.368 133.254 63.592C134.411 63.8907 135.354 64.1893 136.082 64.488C136.81 64.768 137.444 65.2347 137.986 65.888C138.546 66.5227 138.835 67.3813 138.854 68.464C138.854 69.3787 138.592 70.2 138.07 70.928C137.566 71.6373 136.828 72.1973 135.858 72.608C134.906 73.0187 133.795 73.224 132.526 73.224ZM156.424 68.94V73H153.988C152.252 73 150.899 72.58 149.928 71.74C148.958 70.8813 148.472 69.4907 148.472 67.568V61.352H146.568V57.376H148.472V53.568H153.26V57.376H156.396V61.352H153.26V67.624C153.26 68.0907 153.372 68.4267 153.596 68.632C153.82 68.8373 154.194 68.94 154.716 68.94H156.424ZM175.051 57.376L165.251 80.42H160.099L163.683 72.468L157.327 57.376H162.675L166.287 67.148L169.871 57.376H175.051ZM181.571 59.588C182.038 58.86 182.682 58.272 183.503 57.824C184.324 57.376 185.286 57.152 186.387 57.152C187.675 57.152 188.842 57.4787 189.887 58.132C190.932 58.7853 191.754 59.7187 192.351 60.932C192.967 62.1453 193.275 63.5547 193.275 65.16C193.275 66.7653 192.967 68.184 192.351 69.416C191.754 70.6293 190.932 71.572 189.887 72.244C188.842 72.8973 187.675 73.224 186.387 73.224C185.304 73.224 184.343 73 183.503 72.552C182.682 72.104 182.038 71.5253 181.571 70.816V80.448H176.783V57.376H181.571V59.588ZM188.403 65.16C188.403 63.9653 188.067 63.032 187.395 62.36C186.742 61.6693 185.93 61.324 184.959 61.324C184.007 61.324 183.195 61.6693 182.523 62.36C181.87 63.0507 181.543 63.9933 181.543 65.188C181.543 66.3827 181.87 67.3253 182.523 68.016C183.195 68.7067 184.007 69.052 184.959 69.052C185.911 69.052 186.723 68.7067 187.395 68.016C188.067 67.3067 188.403 66.3547 188.403 65.16ZM210.515 64.936C210.515 65.384 210.487 65.8507 210.431 66.336H199.595C199.669 67.3067 199.977 68.0533 200.519 68.576C201.079 69.08 201.76 69.332 202.563 69.332C203.757 69.332 204.588 68.828 205.055 67.82H210.151C209.889 68.8467 209.413 69.7707 208.723 70.592C208.051 71.4133 207.201 72.0573 206.175 72.524C205.148 72.9907 204 73.224 202.731 73.224C201.2 73.224 199.837 72.8973 198.643 72.244C197.448 71.5907 196.515 70.6573 195.843 69.444C195.171 68.2307 194.835 66.812 194.835 65.188C194.835 63.564 195.161 62.1453 195.815 60.932C196.487 59.7187 197.42 58.7853 198.615 58.132C199.809 57.4787 201.181 57.152 202.731 57.152C204.243 57.152 205.587 57.4693 206.763 58.104C207.939 58.7387 208.853 59.644 209.507 60.82C210.179 61.996 210.515 63.368 210.515 64.936ZM205.615 63.676C205.615 62.8547 205.335 62.2013 204.775 61.716C204.215 61.2307 203.515 60.988 202.675 60.988C201.872 60.988 201.191 61.2213 200.631 61.688C200.089 62.1547 199.753 62.8173 199.623 63.676H205.615ZM220.881 61.352H218.305V73H213.517V61.352H211.781V57.376H213.517V56.928C213.517 55.0053 214.067 53.5493 215.169 52.56C216.27 51.552 217.885 51.048 220.013 51.048C220.367 51.048 220.629 51.0573 220.797 51.076V55.136C219.882 55.08 219.238 55.2107 218.865 55.528C218.491 55.8453 218.305 56.4147 218.305 57.236V57.376H220.881V61.352ZM222.179 65.16C222.179 63.5547 222.477 62.1453 223.075 60.932C223.691 59.7187 224.521 58.7853 225.567 58.132C226.612 57.4787 227.779 57.152 229.067 57.152C230.168 57.152 231.129 57.376 231.951 57.824C232.791 58.272 233.435 58.86 233.883 59.588V57.376H238.671V73H233.883V70.788C233.416 71.516 232.763 72.104 231.923 72.552C231.101 73 230.14 73.224 229.039 73.224C227.769 73.224 226.612 72.8973 225.567 72.244C224.521 71.572 223.691 70.6293 223.075 69.416C222.477 68.184 222.179 66.7653 222.179 65.16ZM233.883 65.188C233.883 63.9933 233.547 63.0507 232.875 62.36C232.221 61.6693 231.419 61.324 230.467 61.324C229.515 61.324 228.703 61.6693 228.031 62.36C227.377 63.032 227.051 63.9653 227.051 65.16C227.051 66.3547 227.377 67.3067 228.031 68.016C228.703 68.7067 229.515 69.052 230.467 69.052C231.419 69.052 232.221 68.7067 232.875 68.016C233.547 67.3253 233.883 66.3827 233.883 65.188ZM241.182 65.188C241.182 63.564 241.509 62.1453 242.162 60.932C242.834 59.7187 243.758 58.7853 244.934 58.132C246.129 57.4787 247.492 57.152 249.022 57.152C250.982 57.152 252.616 57.6653 253.922 58.692C255.248 59.7187 256.116 61.1653 256.526 63.032H251.43C251.001 61.8373 250.17 61.24 248.938 61.24C248.061 61.24 247.361 61.5853 246.838 62.276C246.316 62.948 246.054 63.9187 246.054 65.188C246.054 66.4573 246.316 67.4373 246.838 68.128C247.361 68.8 248.061 69.136 248.938 69.136C250.17 69.136 251.001 68.5387 251.43 67.344H256.526C256.116 69.1733 255.248 70.6107 253.922 71.656C252.597 72.7013 250.964 73.224 249.022 73.224C247.492 73.224 246.129 72.8973 244.934 72.244C243.758 71.5907 242.834 70.6573 242.162 69.444C241.509 68.2307 241.182 66.812 241.182 65.188ZM273.816 64.936C273.816 65.384 273.788 65.8507 273.732 66.336H262.896C262.97 67.3067 263.278 68.0533 263.82 68.576C264.38 69.08 265.061 69.332 265.864 69.332C267.058 69.332 267.889 68.828 268.356 67.82H273.452C273.19 68.8467 272.714 69.7707 272.024 70.592C271.352 71.4133 270.502 72.0573 269.476 72.524C268.449 72.9907 267.301 73.224 266.032 73.224C264.501 73.224 263.138 72.8973 261.944 72.244C260.749 71.5907 259.816 70.6573 259.144 69.444C258.472 68.2307 258.136 66.812 258.136 65.188C258.136 63.564 258.462 62.1453 259.116 60.932C259.788 59.7187 260.721 58.7853 261.916 58.132C263.11 57.4787 264.482 57.152 266.032 57.152C267.544 57.152 268.888 57.4693 270.064 58.104C271.24 58.7387 272.154 59.644 272.808 60.82C273.48 61.996 273.816 63.368 273.816 64.936ZM268.916 63.676C268.916 62.8547 268.636 62.2013 268.076 61.716C267.516 61.2307 266.816 60.988 265.976 60.988C265.173 60.988 264.492 61.2213 263.932 61.688C263.39 62.1547 263.054 62.8173 262.924 63.676H268.916Z" fill="white"/>
<path d="M34.024 110.2V120H32.204V115.8H27.136V120H25.316V110.2H27.136V114.246H32.204V110.2H34.024ZM39.338 110.2V120H37.518V111.726H35.446V110.2H39.338Z" fill="#96F086"/>
<path d="M79.134 112.528C79.134 113.423 78.9287 114.244 78.518 114.992C78.1073 115.725 77.4767 116.319 76.626 116.774C75.7753 117.229 74.7193 117.456 73.458 117.456H71.126V123H67.364V107.556H73.458C74.69 107.556 75.7313 107.769 76.582 108.194C77.4327 108.619 78.0707 109.206 78.496 109.954C78.9213 110.702 79.134 111.56 79.134 112.528ZM73.172 114.464C73.8907 114.464 74.426 114.295 74.778 113.958C75.13 113.621 75.306 113.144 75.306 112.528C75.306 111.912 75.13 111.435 74.778 111.098C74.426 110.761 73.8907 110.592 73.172 110.592H71.126V114.464H73.172ZM86.6805 123.176C85.4778 123.176 84.3925 122.919 83.4245 122.406C82.4712 121.893 81.7158 121.159 81.1585 120.206C80.6158 119.253 80.3445 118.138 80.3445 116.862C80.3445 115.601 80.6232 114.493 81.1805 113.54C81.7378 112.572 82.5005 111.831 83.4685 111.318C84.4365 110.805 85.5218 110.548 86.7245 110.548C87.9272 110.548 89.0125 110.805 89.9805 111.318C90.9485 111.831 91.7112 112.572 92.2685 113.54C92.8258 114.493 93.1045 115.601 93.1045 116.862C93.1045 118.123 92.8185 119.238 92.2465 120.206C91.6892 121.159 90.9192 121.893 89.9365 122.406C88.9685 122.919 87.8832 123.176 86.6805 123.176ZM86.6805 119.92C87.3992 119.92 88.0078 119.656 88.5065 119.128C89.0198 118.6 89.2765 117.845 89.2765 116.862C89.2765 115.879 89.0272 115.124 88.5285 114.596C88.0445 114.068 87.4432 113.804 86.7245 113.804C85.9912 113.804 85.3825 114.068 84.8985 114.596C84.4145 115.109 84.1725 115.865 84.1725 116.862C84.1725 117.845 84.4072 118.6 84.8765 119.128C85.3605 119.656 85.9618 119.92 86.6805 119.92ZM98.8623 112.462C99.229 111.89 99.735 111.428 100.38 111.076C101.026 110.724 101.781 110.548 102.646 110.548C103.658 110.548 104.575 110.805 105.396 111.318C106.218 111.831 106.863 112.565 107.332 113.518C107.816 114.471 108.058 115.579 108.058 116.84C108.058 118.101 107.816 119.216 107.332 120.184C106.863 121.137 106.218 121.878 105.396 122.406C104.575 122.919 103.658 123.176 102.646 123.176C101.796 123.176 101.04 123 100.38 122.648C99.735 122.296 99.229 121.841 98.8623 121.284V128.852H95.1003V110.724H98.8623V112.462ZM104.23 116.84C104.23 115.901 103.966 115.168 103.438 114.64C102.925 114.097 102.287 113.826 101.524 113.826C100.776 113.826 100.138 114.097 99.6103 114.64C99.097 115.183 98.8403 115.923 98.8403 116.862C98.8403 117.801 99.097 118.541 99.6103 119.084C100.138 119.627 100.776 119.898 101.524 119.898C102.272 119.898 102.91 119.627 103.438 119.084C103.966 118.527 104.23 117.779 104.23 116.84ZM113.794 112.462C114.161 111.89 114.667 111.428 115.312 111.076C115.957 110.724 116.713 110.548 117.578 110.548C118.59 110.548 119.507 110.805 120.328 111.318C121.149 111.831 121.795 112.565 122.264 113.518C122.748 114.471 122.99 115.579 122.99 116.84C122.99 118.101 122.748 119.216 122.264 120.184C121.795 121.137 121.149 121.878 120.328 122.406C119.507 122.919 118.59 123.176 117.578 123.176C116.727 123.176 115.972 123 115.312 122.648C114.667 122.296 114.161 121.841 113.794 121.284V128.852H110.032V110.724H113.794V112.462ZM119.162 116.84C119.162 115.901 118.898 115.168 118.37 114.64C117.857 114.097 117.219 113.826 116.456 113.826C115.708 113.826 115.07 114.097 114.542 114.64C114.029 115.183 113.772 115.923 113.772 116.862C113.772 117.801 114.029 118.541 114.542 119.084C115.07 119.627 115.708 119.898 116.456 119.898C117.204 119.898 117.842 119.627 118.37 119.084C118.898 118.527 119.162 117.779 119.162 116.84ZM126.856 109.448C126.196 109.448 125.653 109.257 125.228 108.876C124.817 108.48 124.612 107.996 124.612 107.424C124.612 106.837 124.817 106.353 125.228 105.972C125.653 105.576 126.196 105.378 126.856 105.378C127.501 105.378 128.029 105.576 128.44 105.972C128.865 106.353 129.078 106.837 129.078 107.424C129.078 107.996 128.865 108.48 128.44 108.876C128.029 109.257 127.501 109.448 126.856 109.448ZM128.726 110.724V123H124.964V110.724H128.726ZM138.932 110.592C140.369 110.592 141.513 111.061 142.364 112C143.229 112.924 143.662 114.2 143.662 115.828V123H139.922V116.334C139.922 115.513 139.709 114.875 139.284 114.42C138.859 113.965 138.287 113.738 137.568 113.738C136.849 113.738 136.277 113.965 135.852 114.42C135.427 114.875 135.214 115.513 135.214 116.334V123H131.452V110.724H135.214V112.352C135.595 111.809 136.109 111.384 136.754 111.076C137.399 110.753 138.125 110.592 138.932 110.592ZM151.27 123.176C150.199 123.176 149.246 122.993 148.41 122.626C147.574 122.259 146.914 121.761 146.43 121.13C145.946 120.485 145.675 119.766 145.616 118.974H149.334C149.378 119.399 149.576 119.744 149.928 120.008C150.28 120.272 150.713 120.404 151.226 120.404C151.695 120.404 152.055 120.316 152.304 120.14C152.568 119.949 152.7 119.707 152.7 119.414C152.7 119.062 152.517 118.805 152.15 118.644C151.783 118.468 151.189 118.277 150.368 118.072C149.488 117.867 148.755 117.654 148.168 117.434C147.581 117.199 147.075 116.84 146.65 116.356C146.225 115.857 146.012 115.19 146.012 114.354C146.012 113.65 146.203 113.012 146.584 112.44C146.98 111.853 147.552 111.391 148.3 111.054C149.063 110.717 149.965 110.548 151.006 110.548C152.546 110.548 153.756 110.929 154.636 111.692C155.531 112.455 156.044 113.467 156.176 114.728H152.7C152.641 114.303 152.451 113.965 152.128 113.716C151.82 113.467 151.409 113.342 150.896 113.342C150.456 113.342 150.119 113.43 149.884 113.606C149.649 113.767 149.532 113.995 149.532 114.288C149.532 114.64 149.715 114.904 150.082 115.08C150.463 115.256 151.05 115.432 151.842 115.608C152.751 115.843 153.492 116.077 154.064 116.312C154.636 116.532 155.135 116.899 155.56 117.412C156 117.911 156.227 118.585 156.242 119.436C156.242 120.155 156.037 120.8 155.626 121.372C155.23 121.929 154.651 122.369 153.888 122.692C153.14 123.015 152.267 123.176 151.27 123.176ZM172.556 115.08C173.45 115.271 174.169 115.718 174.712 116.422C175.254 117.111 175.526 117.903 175.526 118.798C175.526 120.089 175.071 121.115 174.162 121.878C173.267 122.626 172.013 123 170.4 123H163.206V107.556H170.158C171.727 107.556 172.952 107.915 173.832 108.634C174.726 109.353 175.174 110.328 175.174 111.56C175.174 112.469 174.932 113.225 174.448 113.826C173.978 114.427 173.348 114.845 172.556 115.08ZM166.968 113.804H169.432C170.048 113.804 170.517 113.672 170.84 113.408C171.177 113.129 171.346 112.726 171.346 112.198C171.346 111.67 171.177 111.267 170.84 110.988C170.517 110.709 170.048 110.57 169.432 110.57H166.968V113.804ZM169.74 119.964C170.37 119.964 170.854 119.825 171.192 119.546C171.544 119.253 171.72 118.835 171.72 118.292C171.72 117.749 171.536 117.324 171.17 117.016C170.818 116.708 170.326 116.554 169.696 116.554H166.968V119.964H169.74ZM183.296 123.176C182.093 123.176 181.008 122.919 180.04 122.406C179.086 121.893 178.331 121.159 177.774 120.206C177.231 119.253 176.96 118.138 176.96 116.862C176.96 115.601 177.238 114.493 177.796 113.54C178.353 112.572 179.116 111.831 180.084 111.318C181.052 110.805 182.137 110.548 183.34 110.548C184.542 110.548 185.628 110.805 186.596 111.318C187.564 111.831 188.326 112.572 188.884 113.54C189.441 114.493 189.72 115.601 189.72 116.862C189.72 118.123 189.434 119.238 188.862 120.206C188.304 121.159 187.534 121.893 186.552 122.406C185.584 122.919 184.498 123.176 183.296 123.176ZM183.296 119.92C184.014 119.92 184.623 119.656 185.122 119.128C185.635 118.6 185.892 117.845 185.892 116.862C185.892 115.879 185.642 115.124 185.144 114.596C184.66 114.068 184.058 113.804 183.34 113.804C182.606 113.804 181.998 114.068 181.514 114.596C181.03 115.109 180.788 115.865 180.788 116.862C180.788 117.845 181.022 118.6 181.492 119.128C181.976 119.656 182.577 119.92 183.296 119.92ZM195.478 106.72V123H191.716V106.72H195.478ZM197.456 116.84C197.456 115.579 197.691 114.471 198.16 113.518C198.644 112.565 199.297 111.831 200.118 111.318C200.939 110.805 201.856 110.548 202.868 110.548C203.675 110.548 204.408 110.717 205.068 111.054C205.743 111.391 206.271 111.846 206.652 112.418V106.72H210.414V123H206.652V121.24C206.3 121.827 205.794 122.296 205.134 122.648C204.489 123 203.733 123.176 202.868 123.176C201.856 123.176 200.939 122.919 200.118 122.406C199.297 121.878 198.644 121.137 198.16 120.184C197.691 119.216 197.456 118.101 197.456 116.84ZM206.652 116.862C206.652 115.923 206.388 115.183 205.86 114.64C205.347 114.097 204.716 113.826 203.968 113.826C203.22 113.826 202.582 114.097 202.054 114.64C201.541 115.168 201.284 115.901 201.284 116.84C201.284 117.779 201.541 118.527 202.054 119.084C202.582 119.627 203.22 119.898 203.968 119.898C204.716 119.898 205.347 119.627 205.86 119.084C206.388 118.541 206.652 117.801 206.652 116.862ZM217.512 120.14V117.104L224.464 107.16H228.666V116.884H230.47V120.14H228.666V123H224.904V120.14H217.512ZM225.168 111.296L221.472 116.884H225.168V111.296ZM234.952 114.376C233.574 113.643 232.884 112.491 232.884 110.922C232.884 110.13 233.09 109.411 233.5 108.766C233.911 108.106 234.534 107.585 235.37 107.204C236.206 106.808 237.233 106.61 238.45 106.61C239.668 106.61 240.687 106.808 241.508 107.204C242.344 107.585 242.968 108.106 243.378 108.766C243.789 109.411 243.994 110.13 243.994 110.922C243.994 111.714 243.804 112.403 243.422 112.99C243.056 113.577 242.557 114.039 241.926 114.376C242.718 114.757 243.327 115.285 243.752 115.96C244.178 116.62 244.39 117.397 244.39 118.292C244.39 119.333 244.126 120.235 243.598 120.998C243.07 121.746 242.352 122.318 241.442 122.714C240.548 123.11 239.55 123.308 238.45 123.308C237.35 123.308 236.346 123.11 235.436 122.714C234.542 122.318 233.83 121.746 233.302 120.998C232.774 120.235 232.51 119.333 232.51 118.292C232.51 117.383 232.723 116.598 233.148 115.938C233.574 115.263 234.175 114.743 234.952 114.376ZM240.342 111.494C240.342 110.893 240.166 110.431 239.814 110.108C239.477 109.771 239.022 109.602 238.45 109.602C237.878 109.602 237.416 109.771 237.064 110.108C236.727 110.445 236.558 110.915 236.558 111.516C236.558 112.088 236.734 112.543 237.086 112.88C237.438 113.203 237.893 113.364 238.45 113.364C239.008 113.364 239.462 113.195 239.814 112.858C240.166 112.521 240.342 112.066 240.342 111.494ZM238.45 116.004C237.761 116.004 237.204 116.195 236.778 116.576C236.353 116.943 236.14 117.456 236.14 118.116C236.14 118.732 236.346 119.238 236.756 119.634C237.182 120.03 237.746 120.228 238.45 120.228C239.154 120.228 239.704 120.03 240.1 119.634C240.511 119.238 240.716 118.732 240.716 118.116C240.716 117.471 240.504 116.957 240.078 116.576C239.668 116.195 239.125 116.004 238.45 116.004ZM250.714 112.462C251.081 111.89 251.587 111.428 252.232 111.076C252.877 110.724 253.633 110.548 254.498 110.548C255.51 110.548 256.427 110.805 257.248 111.318C258.069 111.831 258.715 112.565 259.184 113.518C259.668 114.471 259.91 115.579 259.91 116.84C259.91 118.101 259.668 119.216 259.184 120.184C258.715 121.137 258.069 121.878 257.248 122.406C256.427 122.919 255.51 123.176 254.498 123.176C253.647 123.176 252.892 123 252.232 122.648C251.587 122.296 251.081 121.841 250.714 121.284V128.852H246.952V110.724H250.714V112.462ZM256.082 116.84C256.082 115.901 255.818 115.168 255.29 114.64C254.777 114.097 254.139 113.826 253.376 113.826C252.628 113.826 251.99 114.097 251.462 114.64C250.949 115.183 250.692 115.923 250.692 116.862C250.692 117.801 250.949 118.541 251.462 119.084C251.99 119.627 252.628 119.898 253.376 119.898C254.124 119.898 254.762 119.627 255.29 119.084C255.818 118.527 256.082 117.779 256.082 116.84ZM269.144 123L266.79 119.59L264.81 123H260.74L264.788 116.73L260.63 110.724H264.854L267.208 114.112L269.188 110.724H273.258L269.144 116.906L273.368 123H269.144Z" fill="white"/>
<path d="M34.024 149.2V159H32.204V154.8H27.136V159H25.316V149.2H27.136V153.246H32.204V149.2H34.024ZM43.048 157.46V159H35.824V157.782L39.716 154.086C40.1547 153.666 40.4487 153.302 40.598 152.994C40.7567 152.677 40.836 152.364 40.836 152.056C40.836 151.599 40.682 151.249 40.374 151.006C40.066 150.763 39.6133 150.642 39.016 150.642C38.0173 150.642 37.252 150.983 36.72 151.664L35.446 150.684C35.8287 150.171 36.342 149.774 36.986 149.494C37.6393 149.205 38.3673 149.06 39.17 149.06C40.234 149.06 41.0833 149.312 41.718 149.816C42.3527 150.32 42.67 151.006 42.67 151.874C42.67 152.406 42.558 152.905 42.334 153.372C42.11 153.839 41.6807 154.371 41.046 154.968L38.428 157.46H43.048Z" fill="#96F086"/>
<path d="M77.56 151.36C77.56 152.107 77.38 152.807 77.02 153.46C76.6733 154.113 76.12 154.64 75.36 155.04C74.6133 155.44 73.6667 155.64 72.52 155.64H70.18V161H67.38V147.04H72.52C73.6 147.04 74.52 147.227 75.28 147.6C76.04 147.973 76.6067 148.487 76.98 149.14C77.3667 149.793 77.56 150.533 77.56 151.36ZM72.4 153.38C73.1733 153.38 73.7467 153.207 74.12 152.86C74.4933 152.5 74.68 152 74.68 151.36C74.68 150 73.92 149.32 72.4 149.32H70.18V153.38H72.4ZM84.468 161.18C83.4013 161.18 82.4413 160.947 81.588 160.48C80.7346 160 80.0613 159.327 79.568 158.46C79.088 157.593 78.848 156.593 78.848 155.46C78.848 154.327 79.0946 153.327 79.588 152.46C80.0946 151.593 80.7813 150.927 81.648 150.46C82.5146 149.98 83.4813 149.74 84.548 149.74C85.6146 149.74 86.5813 149.98 87.448 150.46C88.3146 150.927 88.9946 151.593 89.488 152.46C89.9946 153.327 90.248 154.327 90.248 155.46C90.248 156.593 89.988 157.593 89.468 158.46C88.9613 159.327 88.268 160 87.388 160.48C86.5213 160.947 85.548 161.18 84.468 161.18ZM84.468 158.74C84.9746 158.74 85.448 158.62 85.888 158.38C86.3413 158.127 86.7013 157.753 86.968 157.26C87.2346 156.767 87.368 156.167 87.368 155.46C87.368 154.407 87.088 153.6 86.528 153.04C85.9813 152.467 85.308 152.18 84.508 152.18C83.708 152.18 83.0346 152.467 82.488 153.04C81.9546 153.6 81.688 154.407 81.688 155.46C81.688 156.513 81.948 157.327 82.468 157.9C83.0013 158.46 83.668 158.74 84.468 158.74ZM95.1019 151.52C95.4619 151.013 95.9552 150.593 96.5819 150.26C97.2219 149.913 97.9485 149.74 98.7619 149.74C99.7085 149.74 100.562 149.973 101.322 150.44C102.095 150.907 102.702 151.573 103.142 152.44C103.595 153.293 103.822 154.287 103.822 155.42C103.822 156.553 103.595 157.56 103.142 158.44C102.702 159.307 102.095 159.98 101.322 160.46C100.562 160.94 99.7085 161.18 98.7619 161.18C97.9485 161.18 97.2285 161.013 96.6019 160.68C95.9885 160.347 95.4885 159.927 95.1019 159.42V166.28H92.3019V149.92H95.1019V151.52ZM100.962 155.42C100.962 154.753 100.822 154.18 100.542 153.7C100.275 153.207 99.9152 152.833 99.4619 152.58C99.0219 152.327 98.5419 152.2 98.0219 152.2C97.5152 152.2 97.0352 152.333 96.5819 152.6C96.1419 152.853 95.7819 153.227 95.5019 153.72C95.2352 154.213 95.1019 154.793 95.1019 155.46C95.1019 156.127 95.2352 156.707 95.5019 157.2C95.7819 157.693 96.1419 158.073 96.5819 158.34C97.0352 158.593 97.5152 158.72 98.0219 158.72C98.5419 158.72 99.0219 158.587 99.4619 158.32C99.9152 158.053 100.275 157.673 100.542 157.18C100.822 156.687 100.962 156.1 100.962 155.42ZM108.657 151.52C109.017 151.013 109.51 150.593 110.137 150.26C110.777 149.913 111.503 149.74 112.317 149.74C113.263 149.74 114.117 149.973 114.877 150.44C115.65 150.907 116.257 151.573 116.697 152.44C117.15 153.293 117.377 154.287 117.377 155.42C117.377 156.553 117.15 157.56 116.697 158.44C116.257 159.307 115.65 159.98 114.877 160.46C114.117 160.94 113.263 161.18 112.317 161.18C111.503 161.18 110.783 161.013 110.157 160.68C109.543 160.347 109.043 159.927 108.657 159.42V166.28H105.857V149.92H108.657V151.52ZM114.517 155.42C114.517 154.753 114.377 154.18 114.097 153.7C113.83 153.207 113.47 152.833 113.017 152.58C112.577 152.327 112.097 152.2 111.577 152.2C111.07 152.2 110.59 152.333 110.137 152.6C109.697 152.853 109.337 153.227 109.057 153.72C108.79 154.213 108.657 154.793 108.657 155.46C108.657 156.127 108.79 156.707 109.057 157.2C109.337 157.693 109.697 158.073 110.137 158.34C110.59 158.593 111.07 158.72 111.577 158.72C112.097 158.72 112.577 158.587 113.017 158.32C113.47 158.053 113.83 157.673 114.097 157.18C114.377 156.687 114.517 156.1 114.517 155.42ZM120.831 148.6C120.338 148.6 119.925 148.447 119.591 148.14C119.271 147.82 119.111 147.427 119.111 146.96C119.111 146.493 119.271 146.107 119.591 145.8C119.925 145.48 120.338 145.32 120.831 145.32C121.325 145.32 121.731 145.48 122.051 145.8C122.385 146.107 122.551 146.493 122.551 146.96C122.551 147.427 122.385 147.82 122.051 148.14C121.731 148.447 121.325 148.6 120.831 148.6ZM122.211 149.92V161H119.411V149.92H122.211ZM131.118 149.76C132.438 149.76 133.504 150.18 134.318 151.02C135.131 151.847 135.538 153.007 135.538 154.5V161H132.738V154.88C132.738 154 132.518 153.327 132.078 152.86C131.638 152.38 131.038 152.14 130.278 152.14C129.504 152.14 128.891 152.38 128.438 152.86C127.998 153.327 127.778 154 127.778 154.88V161H124.978V149.92H127.778V151.3C128.151 150.82 128.624 150.447 129.198 150.18C129.784 149.9 130.424 149.76 131.118 149.76ZM142.44 161.18C141.534 161.18 140.72 161.02 140 160.7C139.28 160.367 138.707 159.92 138.28 159.36C137.867 158.8 137.64 158.18 137.6 157.5H140.42C140.474 157.927 140.68 158.28 141.04 158.56C141.414 158.84 141.874 158.98 142.42 158.98C142.954 158.98 143.367 158.873 143.66 158.66C143.967 158.447 144.12 158.173 144.12 157.84C144.12 157.48 143.934 157.213 143.56 157.04C143.2 156.853 142.62 156.653 141.82 156.44C140.994 156.24 140.314 156.033 139.78 155.82C139.26 155.607 138.807 155.28 138.42 154.84C138.047 154.4 137.86 153.807 137.86 153.06C137.86 152.447 138.034 151.887 138.38 151.38C138.74 150.873 139.247 150.473 139.9 150.18C140.567 149.887 141.347 149.74 142.24 149.74C143.56 149.74 144.614 150.073 145.4 150.74C146.187 151.393 146.62 152.28 146.7 153.4H144.02C143.98 152.96 143.794 152.613 143.46 152.36C143.14 152.093 142.707 151.96 142.16 151.96C141.654 151.96 141.26 152.053 140.98 152.24C140.714 152.427 140.58 152.687 140.58 153.02C140.58 153.393 140.767 153.68 141.14 153.88C141.514 154.067 142.094 154.26 142.88 154.46C143.68 154.66 144.34 154.867 144.86 155.08C145.38 155.293 145.827 155.627 146.2 156.08C146.587 156.52 146.787 157.107 146.8 157.84C146.8 158.48 146.62 159.053 146.26 159.56C145.914 160.067 145.407 160.467 144.74 160.76C144.087 161.04 143.32 161.18 142.44 161.18ZM158.684 161.14C157.711 161.14 156.831 160.973 156.044 160.64C155.271 160.307 154.658 159.827 154.204 159.2C153.751 158.573 153.518 157.833 153.504 156.98H156.504C156.544 157.553 156.744 158.007 157.104 158.34C157.478 158.673 157.984 158.84 158.624 158.84C159.278 158.84 159.791 158.687 160.164 158.38C160.538 158.06 160.724 157.647 160.724 157.14C160.724 156.727 160.598 156.387 160.344 156.12C160.091 155.853 159.771 155.647 159.384 155.5C159.011 155.34 158.491 155.167 157.824 154.98C156.918 154.713 156.178 154.453 155.604 154.2C155.044 153.933 154.558 153.54 154.144 153.02C153.744 152.487 153.544 151.78 153.544 150.9C153.544 150.073 153.751 149.353 154.164 148.74C154.578 148.127 155.158 147.66 155.904 147.34C156.651 147.007 157.504 146.84 158.464 146.84C159.904 146.84 161.071 147.193 161.964 147.9C162.871 148.593 163.371 149.567 163.464 150.82H160.384C160.358 150.34 160.151 149.947 159.764 149.64C159.391 149.32 158.891 149.16 158.264 149.16C157.718 149.16 157.278 149.3 156.944 149.58C156.624 149.86 156.464 150.267 156.464 150.8C156.464 151.173 156.584 151.487 156.824 151.74C157.078 151.98 157.384 152.18 157.744 152.34C158.118 152.487 158.638 152.66 159.304 152.86C160.211 153.127 160.951 153.393 161.524 153.66C162.098 153.927 162.591 154.327 163.004 154.86C163.418 155.393 163.624 156.093 163.624 156.96C163.624 157.707 163.431 158.4 163.044 159.04C162.658 159.68 162.091 160.193 161.344 160.58C160.598 160.953 159.711 161.14 158.684 161.14ZM176.352 155.22C176.352 155.62 176.325 155.98 176.272 156.3H168.172C168.239 157.1 168.519 157.727 169.012 158.18C169.505 158.633 170.112 158.86 170.832 158.86C171.872 158.86 172.612 158.413 173.052 157.52H176.072C175.752 158.587 175.139 159.467 174.232 160.16C173.325 160.84 172.212 161.18 170.892 161.18C169.825 161.18 168.865 160.947 168.012 160.48C167.172 160 166.512 159.327 166.032 158.46C165.565 157.593 165.332 156.593 165.332 155.46C165.332 154.313 165.565 153.307 166.032 152.44C166.499 151.573 167.152 150.907 167.992 150.44C168.832 149.973 169.799 149.74 170.892 149.74C171.945 149.74 172.885 149.967 173.712 150.42C174.552 150.873 175.199 151.52 175.652 152.36C176.119 153.187 176.352 154.14 176.352 155.22ZM173.452 154.42C173.439 153.7 173.179 153.127 172.672 152.7C172.165 152.26 171.545 152.04 170.812 152.04C170.119 152.04 169.532 152.253 169.052 152.68C168.585 153.093 168.299 153.673 168.192 154.42H173.452ZM192.156 149.76C193.516 149.76 194.609 150.18 195.436 151.02C196.276 151.847 196.696 153.007 196.696 154.5V161H193.896V154.88C193.896 154.013 193.676 153.353 193.236 152.9C192.796 152.433 192.196 152.2 191.436 152.2C190.676 152.2 190.069 152.433 189.616 152.9C189.176 153.353 188.956 154.013 188.956 154.88V161H186.156V154.88C186.156 154.013 185.936 153.353 185.496 152.9C185.056 152.433 184.456 152.2 183.696 152.2C182.922 152.2 182.309 152.433 181.856 152.9C181.416 153.353 181.196 154.013 181.196 154.88V161H178.396V149.92H181.196V151.26C181.556 150.793 182.016 150.427 182.576 150.16C183.149 149.893 183.776 149.76 184.456 149.76C185.322 149.76 186.096 149.947 186.776 150.32C187.456 150.68 187.982 151.2 188.356 151.88C188.716 151.24 189.236 150.727 189.916 150.34C190.609 149.953 191.356 149.76 192.156 149.76ZM200.773 148.6C200.279 148.6 199.866 148.447 199.533 148.14C199.213 147.82 199.053 147.427 199.053 146.96C199.053 146.493 199.213 146.107 199.533 145.8C199.866 145.48 200.279 145.32 200.773 145.32C201.266 145.32 201.673 145.48 201.993 145.8C202.326 146.107 202.493 146.493 202.493 146.96C202.493 147.427 202.326 147.82 201.993 148.14C201.673 148.447 201.266 148.6 200.773 148.6ZM202.153 149.92V161H199.353V149.92H202.153ZM207.719 151.54C208.079 151.007 208.572 150.573 209.199 150.24C209.839 149.907 210.566 149.74 211.379 149.74C212.326 149.74 213.179 149.973 213.939 150.44C214.712 150.907 215.319 151.573 215.759 152.44C216.212 153.293 216.439 154.287 216.439 155.42C216.439 156.553 216.212 157.56 215.759 158.44C215.319 159.307 214.712 159.98 213.939 160.46C213.179 160.94 212.326 161.18 211.379 161.18C210.552 161.18 209.826 161.02 209.199 160.7C208.586 160.367 208.092 159.94 207.719 159.42V161H204.919V146.2H207.719V151.54ZM213.579 155.42C213.579 154.753 213.439 154.18 213.159 153.7C212.892 153.207 212.532 152.833 212.079 152.58C211.639 152.327 211.159 152.2 210.639 152.2C210.132 152.2 209.652 152.333 209.199 152.6C208.759 152.853 208.399 153.227 208.119 153.72C207.852 154.213 207.719 154.793 207.719 155.46C207.719 156.127 207.852 156.707 208.119 157.2C208.399 157.693 208.759 158.073 209.199 158.34C209.652 158.593 210.132 158.72 210.639 158.72C211.159 158.72 211.639 158.587 212.079 158.32C212.532 158.053 212.892 157.673 213.159 157.18C213.439 156.687 213.579 156.1 213.579 155.42ZM223.394 161.18C222.327 161.18 221.367 160.947 220.514 160.48C219.66 160 218.987 159.327 218.494 158.46C218.014 157.593 217.774 156.593 217.774 155.46C217.774 154.327 218.02 153.327 218.514 152.46C219.02 151.593 219.707 150.927 220.574 150.46C221.44 149.98 222.407 149.74 223.474 149.74C224.54 149.74 225.507 149.98 226.374 150.46C227.24 150.927 227.92 151.593 228.414 152.46C228.92 153.327 229.174 154.327 229.174 155.46C229.174 156.593 228.914 157.593 228.394 158.46C227.887 159.327 227.194 160 226.314 160.48C225.447 160.947 224.474 161.18 223.394 161.18ZM223.394 158.74C223.9 158.74 224.374 158.62 224.814 158.38C225.267 158.127 225.627 157.753 225.894 157.26C226.16 156.767 226.294 156.167 226.294 155.46C226.294 154.407 226.014 153.6 225.454 153.04C224.907 152.467 224.234 152.18 223.434 152.18C222.634 152.18 221.96 152.467 221.414 153.04C220.88 153.6 220.614 154.407 220.614 155.46C220.614 156.513 220.874 157.327 221.394 157.9C221.927 158.46 222.594 158.74 223.394 158.74ZM234.028 146.2V161H231.228V146.2H234.028ZM236.074 155.42C236.074 154.3 236.294 153.307 236.734 152.44C237.187 151.573 237.801 150.907 238.574 150.44C239.347 149.973 240.207 149.74 241.154 149.74C241.874 149.74 242.561 149.9 243.214 150.22C243.867 150.527 244.387 150.94 244.774 151.46V146.2H247.614V161H244.774V159.36C244.427 159.907 243.941 160.347 243.314 160.68C242.687 161.013 241.961 161.18 241.134 161.18C240.201 161.18 239.347 160.94 238.574 160.46C237.801 159.98 237.187 159.307 236.734 158.44C236.294 157.56 236.074 156.553 236.074 155.42ZM244.794 155.46C244.794 154.78 244.661 154.2 244.394 153.72C244.127 153.227 243.767 152.853 243.314 152.6C242.861 152.333 242.374 152.2 241.854 152.2C241.334 152.2 240.854 152.327 240.414 152.58C239.974 152.833 239.614 153.207 239.334 153.7C239.067 154.18 238.934 154.753 238.934 155.42C238.934 156.087 239.067 156.673 239.334 157.18C239.614 157.673 239.974 158.053 240.414 158.32C240.867 158.587 241.347 158.72 241.854 158.72C242.374 158.72 242.861 158.593 243.314 158.34C243.767 158.073 244.127 157.7 244.394 157.22C244.661 156.727 244.794 156.14 244.794 155.46ZM254.834 150.26C254.901 148.927 255.368 147.9 256.234 147.18C257.114 146.447 258.268 146.08 259.694 146.08C260.668 146.08 261.501 146.253 262.194 146.6C262.888 146.933 263.408 147.393 263.754 147.98C264.114 148.553 264.294 149.207 264.294 149.94C264.294 150.78 264.074 151.493 263.634 152.08C263.208 152.653 262.694 153.04 262.094 153.24V153.32C262.868 153.56 263.468 153.987 263.894 154.6C264.334 155.213 264.554 156 264.554 156.96C264.554 157.76 264.368 158.473 263.994 159.1C263.634 159.727 263.094 160.22 262.374 160.58C261.668 160.927 260.814 161.1 259.814 161.1C258.308 161.1 257.081 160.72 256.134 159.96C255.188 159.2 254.688 158.08 254.634 156.6H257.354C257.381 157.253 257.601 157.78 258.014 158.18C258.441 158.567 259.021 158.76 259.754 158.76C260.434 158.76 260.954 158.573 261.314 158.2C261.688 157.813 261.874 157.32 261.874 156.72C261.874 155.92 261.621 155.347 261.114 155C260.608 154.653 259.821 154.48 258.754 154.48H258.174V152.18H258.754C260.648 152.18 261.594 151.547 261.594 150.28C261.594 149.707 261.421 149.26 261.074 148.94C260.741 148.62 260.254 148.46 259.614 148.46C258.988 148.46 258.501 148.633 258.154 148.98C257.821 149.313 257.628 149.74 257.574 150.26H254.834ZM274.327 150.06C274.194 149.5 273.96 149.08 273.627 148.8C273.307 148.52 272.84 148.38 272.227 148.38C271.307 148.38 270.627 148.753 270.187 149.5C269.76 150.233 269.54 151.433 269.527 153.1C269.847 152.567 270.314 152.153 270.927 151.86C271.54 151.553 272.207 151.4 272.927 151.4C273.794 151.4 274.56 151.587 275.227 151.96C275.894 152.333 276.414 152.88 276.787 153.6C277.16 154.307 277.347 155.16 277.347 156.16C277.347 157.107 277.154 157.953 276.767 158.7C276.394 159.433 275.84 160.007 275.107 160.42C274.374 160.833 273.5 161.04 272.487 161.04C271.1 161.04 270.007 160.733 269.207 160.12C268.42 159.507 267.867 158.653 267.547 157.56C267.24 156.453 267.087 155.093 267.087 153.48C267.087 151.04 267.507 149.2 268.347 147.96C269.187 146.707 270.514 146.08 272.327 146.08C273.727 146.08 274.814 146.46 275.587 147.22C276.36 147.98 276.807 148.927 276.927 150.06H274.327ZM272.287 153.7C271.58 153.7 270.987 153.907 270.507 154.32C270.027 154.733 269.787 155.333 269.787 156.12C269.787 156.907 270.007 157.527 270.447 157.98C270.9 158.433 271.534 158.66 272.347 158.66C273.067 158.66 273.634 158.44 274.047 158C274.474 157.56 274.687 156.967 274.687 156.22C274.687 155.447 274.48 154.833 274.067 154.38C273.667 153.927 273.074 153.7 272.287 153.7ZM282.68 151.52C283.04 151.013 283.533 150.593 284.16 150.26C284.8 149.913 285.527 149.74 286.34 149.74C287.287 149.74 288.14 149.973 288.9 150.44C289.673 150.907 290.28 151.573 290.72 152.44C291.173 153.293 291.4 154.287 291.4 155.42C291.4 156.553 291.173 157.56 290.72 158.44C290.28 159.307 289.673 159.98 288.9 160.46C288.14 160.94 287.287 161.18 286.34 161.18C285.527 161.18 284.807 161.013 284.18 160.68C283.567 160.347 283.067 159.927 282.68 159.42V166.28H279.88V149.92H282.68V151.52ZM288.54 155.42C288.54 154.753 288.4 154.18 288.12 153.7C287.853 153.207 287.493 152.833 287.04 152.58C286.6 152.327 286.12 152.2 285.6 152.2C285.093 152.2 284.613 152.333 284.16 152.6C283.72 152.853 283.36 153.227 283.08 153.72C282.813 154.213 282.68 154.793 282.68 155.46C282.68 156.127 282.813 156.707 283.08 157.2C283.36 157.693 283.72 158.073 284.16 158.34C284.613 158.593 285.093 158.72 285.6 158.72C286.12 158.72 286.6 158.587 287.04 158.32C287.493 158.053 287.853 157.673 288.12 157.18C288.4 156.687 288.54 156.1 288.54 155.42ZM299.555 161L297.275 157.56L295.255 161H292.255L295.875 155.44L292.215 149.92H295.375L297.635 153.34L299.675 149.92H302.675L299.035 155.44L302.715 161H299.555Z" fill="white"/>
<path d="M34.024 186.2V196H32.204V191.8H27.136V196H25.316V186.2H27.136V190.246H32.204V186.2H34.024ZM40.122 190.246C41.0273 190.358 41.718 190.666 42.194 191.17C42.67 191.674 42.908 192.304 42.908 193.06C42.908 193.629 42.7633 194.147 42.474 194.614C42.1847 195.081 41.746 195.454 41.158 195.734C40.5793 196.005 39.87 196.14 39.03 196.14C38.33 196.14 37.6533 196.042 37 195.846C36.356 195.641 35.8053 195.361 35.348 195.006L36.132 193.592C36.4867 193.891 36.916 194.129 37.42 194.306C37.9333 194.474 38.4607 194.558 39.002 194.558C39.646 194.558 40.15 194.427 40.514 194.166C40.8873 193.895 41.074 193.531 41.074 193.074C41.074 192.617 40.8967 192.262 40.542 192.01C40.1967 191.749 39.6647 191.618 38.946 191.618H38.05V190.372L40.276 187.726H35.824V186.2H42.502V187.418L40.122 190.246Z" fill="#96F086"/>
<path d="M76.746 188.432C76.746 189.164 76.578 189.836 76.242 190.448C75.906 191.048 75.39 191.534 74.694 191.906C73.998 192.278 73.134 192.464 72.102 192.464H70.194V197H67.116V184.364H72.102C73.11 184.364 73.962 184.538 74.658 184.886C75.354 185.234 75.876 185.714 76.224 186.326C76.572 186.938 76.746 187.64 76.746 188.432ZM71.868 190.016C72.456 190.016 72.894 189.878 73.182 189.602C73.47 189.326 73.614 188.936 73.614 188.432C73.614 187.928 73.47 187.538 73.182 187.262C72.894 186.986 72.456 186.848 71.868 186.848H70.194V190.016H71.868ZM82.9204 197.144C81.9364 197.144 81.0484 196.934 80.2564 196.514C79.4764 196.094 78.8584 195.494 78.4024 194.714C77.9584 193.934 77.7364 193.022 77.7364 191.978C77.7364 190.946 77.9644 190.04 78.4204 189.26C78.8764 188.468 79.5004 187.862 80.2924 187.442C81.0844 187.022 81.9724 186.812 82.9564 186.812C83.9404 186.812 84.8284 187.022 85.6204 187.442C86.4124 187.862 87.0364 188.468 87.4924 189.26C87.9484 190.04 88.1764 190.946 88.1764 191.978C88.1764 193.01 87.9424 193.922 87.4744 194.714C87.0184 195.494 86.3884 196.094 85.5844 196.514C84.7924 196.934 83.9044 197.144 82.9204 197.144ZM82.9204 194.48C83.5084 194.48 84.0064 194.264 84.4144 193.832C84.8344 193.4 85.0444 192.782 85.0444 191.978C85.0444 191.174 84.8404 190.556 84.4324 190.124C84.0364 189.692 83.5444 189.476 82.9564 189.476C82.3564 189.476 81.8584 189.692 81.4624 190.124C81.0664 190.544 80.8684 191.162 80.8684 191.978C80.8684 192.782 81.0604 193.4 81.4444 193.832C81.8404 194.264 82.3324 194.48 82.9204 194.48ZM92.8874 188.378C93.1874 187.91 93.6014 187.532 94.1294 187.244C94.6574 186.956 95.2754 186.812 95.9834 186.812C96.8114 186.812 97.5614 187.022 98.2334 187.442C98.9054 187.862 99.4334 188.462 99.8174 189.242C100.213 190.022 100.411 190.928 100.411 191.96C100.411 192.992 100.213 193.904 99.8174 194.696C99.4334 195.476 98.9054 196.082 98.2334 196.514C97.5614 196.934 96.8114 197.144 95.9834 197.144C95.2874 197.144 94.6694 197 94.1294 196.712C93.6014 196.424 93.1874 196.052 92.8874 195.596V201.788H89.8094V186.956H92.8874V188.378ZM97.2794 191.96C97.2794 191.192 97.0634 190.592 96.6314 190.16C96.2114 189.716 95.6894 189.494 95.0654 189.494C94.4534 189.494 93.9314 189.716 93.4994 190.16C93.0794 190.604 92.8694 191.21 92.8694 191.978C92.8694 192.746 93.0794 193.352 93.4994 193.796C93.9314 194.24 94.4534 194.462 95.0654 194.462C95.6774 194.462 96.1994 194.24 96.6314 193.796C97.0634 193.34 97.2794 192.728 97.2794 191.96ZM105.104 188.378C105.404 187.91 105.818 187.532 106.346 187.244C106.874 186.956 107.492 186.812 108.2 186.812C109.028 186.812 109.778 187.022 110.45 187.442C111.122 187.862 111.65 188.462 112.034 189.242C112.43 190.022 112.628 190.928 112.628 191.96C112.628 192.992 112.43 193.904 112.034 194.696C111.65 195.476 111.122 196.082 110.45 196.514C109.778 196.934 109.028 197.144 108.2 197.144C107.504 197.144 106.886 197 106.346 196.712C105.818 196.424 105.404 196.052 105.104 195.596V201.788H102.026V186.956H105.104V188.378ZM109.496 191.96C109.496 191.192 109.28 190.592 108.848 190.16C108.428 189.716 107.906 189.494 107.282 189.494C106.67 189.494 106.148 189.716 105.716 190.16C105.296 190.604 105.086 191.21 105.086 191.978C105.086 192.746 105.296 193.352 105.716 193.796C106.148 194.24 106.67 194.462 107.282 194.462C107.894 194.462 108.416 194.24 108.848 193.796C109.28 193.34 109.496 192.728 109.496 191.96ZM115.791 185.912C115.251 185.912 114.807 185.756 114.459 185.444C114.123 185.12 113.955 184.724 113.955 184.256C113.955 183.776 114.123 183.38 114.459 183.068C114.807 182.744 115.251 182.582 115.791 182.582C116.319 182.582 116.751 182.744 117.087 183.068C117.435 183.38 117.609 183.776 117.609 184.256C117.609 184.724 117.435 185.12 117.087 185.444C116.751 185.756 116.319 185.912 115.791 185.912ZM117.321 186.956V197H114.243V186.956H117.321ZM125.672 186.848C126.848 186.848 127.784 187.232 128.48 188C129.188 188.756 129.542 189.8 129.542 191.132V197H126.482V191.546C126.482 190.874 126.308 190.352 125.96 189.98C125.612 189.608 125.144 189.422 124.556 189.422C123.968 189.422 123.5 189.608 123.152 189.98C122.804 190.352 122.63 190.874 122.63 191.546V197H119.552V186.956H122.63V188.288C122.942 187.844 123.362 187.496 123.89 187.244C124.418 186.98 125.012 186.848 125.672 186.848ZM135.766 197.144C134.89 197.144 134.11 196.994 133.426 196.694C132.742 196.394 132.202 195.986 131.806 195.47C131.41 194.942 131.188 194.354 131.14 193.706H134.182C134.218 194.054 134.38 194.336 134.668 194.552C134.956 194.768 135.31 194.876 135.73 194.876C136.114 194.876 136.408 194.804 136.612 194.66C136.828 194.504 136.936 194.306 136.936 194.066C136.936 193.778 136.786 193.568 136.486 193.436C136.186 193.292 135.7 193.136 135.028 192.968C134.308 192.8 133.708 192.626 133.228 192.446C132.748 192.254 132.334 191.96 131.986 191.564C131.638 191.156 131.464 190.61 131.464 189.926C131.464 189.35 131.62 188.828 131.932 188.36C132.256 187.88 132.724 187.502 133.336 187.226C133.96 186.95 134.698 186.812 135.55 186.812C136.81 186.812 137.8 187.124 138.52 187.748C139.252 188.372 139.672 189.2 139.78 190.232H136.936C136.888 189.884 136.732 189.608 136.468 189.404C136.216 189.2 135.88 189.098 135.46 189.098C135.1 189.098 134.824 189.17 134.632 189.314C134.44 189.446 134.344 189.632 134.344 189.872C134.344 190.16 134.494 190.376 134.794 190.52C135.106 190.664 135.586 190.808 136.234 190.952C136.978 191.144 137.584 191.336 138.052 191.528C138.52 191.708 138.928 192.008 139.276 192.428C139.636 192.836 139.822 193.388 139.834 194.084C139.834 194.672 139.666 195.2 139.33 195.668C139.006 196.124 138.532 196.484 137.908 196.748C137.296 197.012 136.582 197.144 135.766 197.144ZM153.182 190.52C153.914 190.676 154.502 191.042 154.946 191.618C155.39 192.182 155.612 192.83 155.612 193.562C155.612 194.618 155.24 195.458 154.496 196.082C153.764 196.694 152.738 197 151.418 197H145.532V184.364H151.22C152.504 184.364 153.506 184.658 154.226 185.246C154.958 185.834 155.324 186.632 155.324 187.64C155.324 188.384 155.126 189.002 154.73 189.494C154.346 189.986 153.83 190.328 153.182 190.52ZM148.61 189.476H150.626C151.13 189.476 151.514 189.368 151.778 189.152C152.054 188.924 152.192 188.594 152.192 188.162C152.192 187.73 152.054 187.4 151.778 187.172C151.514 186.944 151.13 186.83 150.626 186.83H148.61V189.476ZM150.878 194.516C151.394 194.516 151.79 194.402 152.066 194.174C152.354 193.934 152.498 193.592 152.498 193.148C152.498 192.704 152.348 192.356 152.048 192.104C151.76 191.852 151.358 191.726 150.842 191.726H148.61V194.516H150.878ZM161.969 197.144C160.985 197.144 160.097 196.934 159.305 196.514C158.525 196.094 157.907 195.494 157.451 194.714C157.007 193.934 156.785 193.022 156.785 191.978C156.785 190.946 157.013 190.04 157.469 189.26C157.925 188.468 158.549 187.862 159.341 187.442C160.133 187.022 161.021 186.812 162.005 186.812C162.989 186.812 163.877 187.022 164.669 187.442C165.461 187.862 166.085 188.468 166.541 189.26C166.997 190.04 167.225 190.946 167.225 191.978C167.225 193.01 166.991 193.922 166.523 194.714C166.067 195.494 165.437 196.094 164.633 196.514C163.841 196.934 162.953 197.144 161.969 197.144ZM161.969 194.48C162.557 194.48 163.055 194.264 163.463 193.832C163.883 193.4 164.093 192.782 164.093 191.978C164.093 191.174 163.889 190.556 163.481 190.124C163.085 189.692 162.593 189.476 162.005 189.476C161.405 189.476 160.907 189.692 160.511 190.124C160.115 190.544 159.917 191.162 159.917 191.978C159.917 192.782 160.109 193.4 160.493 193.832C160.889 194.264 161.381 194.48 161.969 194.48ZM171.936 183.68V197H168.858V183.68H171.936ZM173.555 191.96C173.555 190.928 173.747 190.022 174.131 189.242C174.527 188.462 175.061 187.862 175.733 187.442C176.405 187.022 177.155 186.812 177.983 186.812C178.643 186.812 179.243 186.95 179.783 187.226C180.335 187.502 180.767 187.874 181.079 188.342V183.68H184.157V197H181.079V195.56C180.791 196.04 180.377 196.424 179.837 196.712C179.309 197 178.691 197.144 177.983 197.144C177.155 197.144 176.405 196.934 175.733 196.514C175.061 196.082 174.527 195.476 174.131 194.696C173.747 193.904 173.555 192.992 173.555 191.96ZM181.079 191.978C181.079 191.21 180.863 190.604 180.431 190.16C180.011 189.716 179.495 189.494 178.883 189.494C178.271 189.494 177.749 189.716 177.317 190.16C176.897 190.592 176.687 191.192 176.687 191.96C176.687 192.728 176.897 193.34 177.317 193.796C177.749 194.24 178.271 194.462 178.883 194.462C179.495 194.462 180.011 194.24 180.431 193.796C180.863 193.352 181.079 192.746 181.079 191.978ZM189.784 194.534C190.192 194.21 190.378 194.06 190.342 194.084C191.518 193.112 192.442 192.314 193.114 191.69C193.798 191.066 194.374 190.412 194.842 189.728C195.31 189.044 195.544 188.378 195.544 187.73C195.544 187.238 195.43 186.854 195.202 186.578C194.974 186.302 194.632 186.164 194.176 186.164C193.72 186.164 193.36 186.338 193.096 186.686C192.844 187.022 192.718 187.502 192.718 188.126H189.748C189.772 187.106 189.988 186.254 190.396 185.57C190.816 184.886 191.362 184.382 192.034 184.058C192.718 183.734 193.474 183.572 194.302 183.572C195.73 183.572 196.804 183.938 197.524 184.67C198.256 185.402 198.622 186.356 198.622 187.532C198.622 188.816 198.184 190.01 197.308 191.114C196.432 192.206 195.316 193.274 193.96 194.318H198.82V196.82H189.784V194.534ZM200.175 190.25C200.175 188.186 200.571 186.56 201.363 185.372C202.167 184.184 203.457 183.59 205.233 183.59C207.009 183.59 208.293 184.184 209.085 185.372C209.889 186.56 210.291 188.186 210.291 190.25C210.291 192.338 209.889 193.976 209.085 195.164C208.293 196.352 207.009 196.946 205.233 196.946C203.457 196.946 202.167 196.352 201.363 195.164C200.571 193.976 200.175 192.338 200.175 190.25ZM207.267 190.25C207.267 189.038 207.135 188.108 206.871 187.46C206.607 186.8 206.061 186.47 205.233 186.47C204.405 186.47 203.859 186.8 203.595 187.46C203.331 188.108 203.199 189.038 203.199 190.25C203.199 191.066 203.247 191.744 203.343 192.284C203.439 192.812 203.631 193.244 203.919 193.58C204.219 193.904 204.657 194.066 205.233 194.066C205.809 194.066 206.241 193.904 206.529 193.58C206.829 193.244 207.027 192.812 207.123 192.284C207.219 191.744 207.267 191.066 207.267 190.25ZM215.301 188.378C215.601 187.91 216.015 187.532 216.543 187.244C217.071 186.956 217.689 186.812 218.397 186.812C219.225 186.812 219.975 187.022 220.647 187.442C221.319 187.862 221.847 188.462 222.231 189.242C222.627 190.022 222.825 190.928 222.825 191.96C222.825 192.992 222.627 193.904 222.231 194.696C221.847 195.476 221.319 196.082 220.647 196.514C219.975 196.934 219.225 197.144 218.397 197.144C217.701 197.144 217.083 197 216.543 196.712C216.015 196.424 215.601 196.052 215.301 195.596V201.788H212.223V186.956H215.301V188.378ZM219.693 191.96C219.693 191.192 219.477 190.592 219.045 190.16C218.625 189.716 218.103 189.494 217.479 189.494C216.867 189.494 216.345 189.716 215.913 190.16C215.493 190.604 215.283 191.21 215.283 191.978C215.283 192.746 215.493 193.352 215.913 193.796C216.345 194.24 216.867 194.462 217.479 194.462C218.091 194.462 218.613 194.24 219.045 193.796C219.477 193.34 219.693 192.728 219.693 191.96ZM230.38 197L228.454 194.21L226.834 197H223.504L226.816 191.87L223.414 186.956H226.87L228.796 189.728L230.416 186.956H233.746L230.38 192.014L233.836 197H230.38Z" fill="white"/>
<path d="M27.304 222.74H24.056V221.2H32.372V222.74H29.124V231H27.304V222.74ZM39.488 231L36.828 227.276L34.196 231H32.124L35.764 226.002L32.32 221.2H34.378L36.884 224.686L39.362 221.2H41.336L37.906 225.932L41.588 231H39.488ZM44.5853 222.74H41.3373V221.2H49.6533V222.74H46.4053V231H44.5853V222.74Z" fill="#96F086"/>
<path d="M74.976 224.192C74.976 224.757 74.8427 225.291 74.576 225.792C74.3093 226.293 73.8827 226.704 73.296 227.024C72.7093 227.333 71.9573 227.488 71.04 227.488H69.024V232H67.2V220.88H71.04C71.8933 220.88 72.6133 221.029 73.2 221.328C73.7973 221.616 74.24 222.011 74.528 222.512C74.8267 223.013 74.976 223.573 74.976 224.192ZM71.04 226C71.7333 226 72.2507 225.845 72.592 225.536C72.9333 225.216 73.104 224.768 73.104 224.192C73.104 222.976 72.416 222.368 71.04 222.368H69.024V226H71.04ZM80.5396 232.144C79.7076 232.144 78.9556 231.957 78.2836 231.584C77.6116 231.2 77.0836 230.667 76.6996 229.984C76.3156 229.291 76.1236 228.491 76.1236 227.584C76.1236 226.688 76.321 225.893 76.7156 225.2C77.1103 224.507 77.649 223.973 78.3316 223.6C79.0143 223.227 79.777 223.04 80.6196 223.04C81.4623 223.04 82.225 223.227 82.9076 223.6C83.5903 223.973 84.129 224.507 84.5236 225.2C84.9183 225.893 85.1156 226.688 85.1156 227.584C85.1156 228.48 84.913 229.275 84.5076 229.968C84.1023 230.661 83.5476 231.2 82.8436 231.584C82.1503 231.957 81.3823 232.144 80.5396 232.144ZM80.5396 230.56C81.009 230.56 81.4463 230.448 81.8516 230.224C82.2676 230 82.6036 229.664 82.8596 229.216C83.1156 228.768 83.2436 228.224 83.2436 227.584C83.2436 226.944 83.121 226.405 82.8756 225.968C82.6303 225.52 82.305 225.184 81.8996 224.96C81.4943 224.736 81.057 224.624 80.5876 224.624C80.1183 224.624 79.681 224.736 79.2756 224.96C78.881 225.184 78.5663 225.52 78.3316 225.968C78.097 226.405 77.9796 226.944 77.9796 227.584C77.9796 228.533 78.2196 229.269 78.6996 229.792C79.1903 230.304 79.8036 230.56 80.5396 230.56ZM88.7428 224.48C89.0521 224.075 89.4734 223.733 90.0068 223.456C90.5401 223.179 91.1428 223.04 91.8148 223.04C92.5828 223.04 93.2814 223.232 93.9108 223.616C94.5508 223.989 95.0521 224.517 95.4148 225.2C95.7774 225.883 95.9588 226.667 95.9588 227.552C95.9588 228.437 95.7774 229.232 95.4148 229.936C95.0521 230.629 94.5508 231.173 93.9108 231.568C93.2814 231.952 92.5828 232.144 91.8148 232.144C91.1428 232.144 90.5454 232.011 90.0228 231.744C89.5001 231.467 89.0734 231.125 88.7428 230.72V236.192H86.9188V223.184H88.7428V224.48ZM94.1028 227.552C94.1028 226.944 93.9748 226.421 93.7188 225.984C93.4734 225.536 93.1428 225.2 92.7268 224.976C92.3214 224.741 91.8841 224.624 91.4148 224.624C90.9561 224.624 90.5188 224.741 90.1028 224.976C89.6974 225.211 89.3668 225.552 89.1108 226C88.8654 226.448 88.7428 226.976 88.7428 227.584C88.7428 228.192 88.8654 228.725 89.1108 229.184C89.3668 229.632 89.6974 229.973 90.1028 230.208C90.5188 230.443 90.9561 230.56 91.4148 230.56C91.8841 230.56 92.3214 230.443 92.7268 230.208C93.1428 229.963 93.4734 229.611 93.7188 229.152C93.9748 228.693 94.1028 228.16 94.1028 227.552ZM99.5865 224.48C99.8958 224.075 100.317 223.733 100.851 223.456C101.384 223.179 101.987 223.04 102.659 223.04C103.427 223.04 104.125 223.232 104.755 223.616C105.395 223.989 105.896 224.517 106.259 225.2C106.621 225.883 106.803 226.667 106.803 227.552C106.803 228.437 106.621 229.232 106.259 229.936C105.896 230.629 105.395 231.173 104.755 231.568C104.125 231.952 103.427 232.144 102.659 232.144C101.987 232.144 101.389 232.011 100.867 231.744C100.344 231.467 99.9172 231.125 99.5865 230.72V236.192H97.7625V223.184H99.5865V224.48ZM104.947 227.552C104.947 226.944 104.819 226.421 104.562 225.984C104.317 225.536 103.987 225.2 103.571 224.976C103.165 224.741 102.728 224.624 102.259 224.624C101.8 224.624 101.363 224.741 100.947 224.976C100.541 225.211 100.211 225.552 99.9545 226C99.7092 226.448 99.5865 226.976 99.5865 227.584C99.5865 228.192 99.7092 228.725 99.9545 229.184C100.211 229.632 100.541 229.973 100.947 230.208C101.363 230.443 101.8 230.56 102.259 230.56C102.728 230.56 103.165 230.443 103.571 230.208C103.987 229.963 104.317 229.611 104.562 229.152C104.819 228.693 104.947 228.16 104.947 227.552ZM109.534 222.016C109.204 222.016 108.926 221.904 108.702 221.68C108.478 221.456 108.366 221.179 108.366 220.848C108.366 220.517 108.478 220.24 108.702 220.016C108.926 219.792 109.204 219.68 109.534 219.68C109.854 219.68 110.126 219.792 110.35 220.016C110.574 220.24 110.686 220.517 110.686 220.848C110.686 221.179 110.574 221.456 110.35 221.68C110.126 221.904 109.854 222.016 109.534 222.016ZM110.43 223.184V232H108.606V223.184H110.43ZM117.273 223.04C117.966 223.04 118.585 223.184 119.129 223.472C119.684 223.76 120.116 224.187 120.425 224.752C120.734 225.317 120.889 226 120.889 226.8V232H119.081V227.072C119.081 226.283 118.884 225.68 118.489 225.264C118.094 224.837 117.556 224.624 116.873 224.624C116.19 224.624 115.646 224.837 115.241 225.264C114.846 225.68 114.649 226.283 114.649 227.072V232H112.825V223.184H114.649V224.192C114.948 223.829 115.326 223.547 115.785 223.344C116.254 223.141 116.75 223.04 117.273 223.04ZM126.416 232.144C125.722 232.144 125.098 232.021 124.544 231.776C124 231.52 123.568 231.179 123.248 230.752C122.928 230.315 122.757 229.829 122.736 229.296H124.624C124.656 229.669 124.832 229.984 125.152 230.24C125.482 230.485 125.893 230.608 126.384 230.608C126.896 230.608 127.29 230.512 127.568 230.32C127.856 230.117 128 229.861 128 229.552C128 229.221 127.84 228.976 127.52 228.816C127.21 228.656 126.714 228.48 126.032 228.288C125.37 228.107 124.832 227.931 124.416 227.76C124 227.589 123.637 227.328 123.328 226.976C123.029 226.624 122.88 226.16 122.88 225.584C122.88 225.115 123.018 224.688 123.296 224.304C123.573 223.909 123.968 223.6 124.48 223.376C125.002 223.152 125.6 223.04 126.272 223.04C127.274 223.04 128.08 223.296 128.688 223.808C129.306 224.309 129.637 224.997 129.68 225.872H127.856C127.824 225.477 127.664 225.163 127.376 224.928C127.088 224.693 126.698 224.576 126.208 224.576C125.728 224.576 125.36 224.667 125.104 224.848C124.848 225.029 124.72 225.269 124.72 225.568C124.72 225.803 124.805 226 124.976 226.16C125.146 226.32 125.354 226.448 125.6 226.544C125.845 226.629 126.208 226.741 126.688 226.88C127.328 227.051 127.85 227.227 128.256 227.408C128.672 227.579 129.029 227.835 129.328 228.176C129.626 228.517 129.781 228.971 129.792 229.536C129.792 230.037 129.653 230.485 129.376 230.88C129.098 231.275 128.704 231.584 128.192 231.808C127.69 232.032 127.098 232.144 126.416 232.144ZM139.583 232.112C138.836 232.112 138.164 231.984 137.567 231.728C136.969 231.461 136.5 231.088 136.159 230.608C135.817 230.128 135.647 229.568 135.647 228.928H137.599C137.641 229.408 137.828 229.803 138.159 230.112C138.5 230.421 138.975 230.576 139.583 230.576C140.212 230.576 140.703 230.427 141.055 230.128C141.407 229.819 141.583 229.424 141.583 228.944C141.583 228.571 141.471 228.267 141.247 228.032C141.033 227.797 140.761 227.616 140.431 227.488C140.111 227.36 139.663 227.221 139.087 227.072C138.361 226.88 137.769 226.688 137.311 226.496C136.863 226.293 136.479 225.984 136.159 225.568C135.839 225.152 135.679 224.597 135.679 223.904C135.679 223.264 135.839 222.704 136.159 222.224C136.479 221.744 136.927 221.376 137.503 221.12C138.079 220.864 138.745 220.736 139.503 220.736C140.58 220.736 141.46 221.008 142.143 221.552C142.836 222.085 143.22 222.821 143.295 223.76H141.279C141.247 223.355 141.055 223.008 140.703 222.72C140.351 222.432 139.887 222.288 139.311 222.288C138.788 222.288 138.361 222.421 138.031 222.688C137.7 222.955 137.535 223.339 137.535 223.84C137.535 224.181 137.636 224.464 137.839 224.688C138.052 224.901 138.319 225.072 138.639 225.2C138.959 225.328 139.396 225.467 139.951 225.616C140.687 225.819 141.284 226.021 141.743 226.224C142.212 226.427 142.607 226.741 142.927 227.168C143.257 227.584 143.423 228.144 143.423 228.848C143.423 229.413 143.268 229.947 142.959 230.448C142.66 230.949 142.217 231.355 141.631 231.664C141.055 231.963 140.372 232.112 139.583 232.112ZM153.655 227.376C153.655 227.707 153.634 228.005 153.591 228.272H146.855C146.908 228.976 147.17 229.541 147.639 229.968C148.108 230.395 148.684 230.608 149.367 230.608C150.348 230.608 151.042 230.197 151.447 229.376H153.415C153.148 230.187 152.663 230.853 151.959 231.376C151.266 231.888 150.402 232.144 149.367 232.144C148.524 232.144 147.767 231.957 147.095 231.584C146.434 231.2 145.911 230.667 145.527 229.984C145.154 229.291 144.967 228.491 144.967 227.584C144.967 226.677 145.148 225.883 145.511 225.2C145.884 224.507 146.402 223.973 147.063 223.6C147.735 223.227 148.503 223.04 149.367 223.04C150.199 223.04 150.94 223.221 151.591 223.584C152.242 223.947 152.748 224.459 153.111 225.12C153.474 225.771 153.655 226.523 153.655 227.376ZM151.751 226.8C151.74 226.128 151.5 225.589 151.031 225.184C150.562 224.779 149.98 224.576 149.287 224.576C148.658 224.576 148.119 224.779 147.671 225.184C147.223 225.579 146.956 226.117 146.871 226.8H151.751ZM166.122 223.04C166.815 223.04 167.434 223.184 167.978 223.472C168.533 223.76 168.965 224.187 169.274 224.752C169.594 225.317 169.754 226 169.754 226.8V232H167.946V227.072C167.946 226.283 167.749 225.68 167.354 225.264C166.959 224.837 166.421 224.624 165.738 224.624C165.055 224.624 164.511 224.837 164.106 225.264C163.711 225.68 163.514 226.283 163.514 227.072V232H161.706V227.072C161.706 226.283 161.509 225.68 161.114 225.264C160.719 224.837 160.181 224.624 159.498 224.624C158.815 224.624 158.271 224.837 157.866 225.264C157.471 225.68 157.274 226.283 157.274 227.072V232H155.45V223.184H157.274V224.192C157.573 223.829 157.951 223.547 158.41 223.344C158.869 223.141 159.359 223.04 159.882 223.04C160.586 223.04 161.215 223.189 161.77 223.488C162.325 223.787 162.751 224.219 163.05 224.784C163.317 224.251 163.733 223.829 164.298 223.52C164.863 223.2 165.471 223.04 166.122 223.04ZM173.003 222.016C172.672 222.016 172.395 221.904 172.171 221.68C171.947 221.456 171.835 221.179 171.835 220.848C171.835 220.517 171.947 220.24 172.171 220.016C172.395 219.792 172.672 219.68 173.003 219.68C173.323 219.68 173.595 219.792 173.819 220.016C174.043 220.24 174.155 220.517 174.155 220.848C174.155 221.179 174.043 221.456 173.819 221.68C173.595 221.904 173.323 222.016 173.003 222.016ZM173.899 223.184V232H172.075V223.184H173.899ZM178.118 224.496C178.427 224.069 178.848 223.723 179.382 223.456C179.926 223.179 180.528 223.04 181.19 223.04C181.968 223.04 182.672 223.227 183.302 223.6C183.931 223.973 184.427 224.507 184.79 225.2C185.152 225.883 185.334 226.667 185.334 227.552C185.334 228.437 185.152 229.232 184.79 229.936C184.427 230.629 183.926 231.173 183.286 231.568C182.656 231.952 181.958 232.144 181.19 232.144C180.507 232.144 179.899 232.011 179.366 231.744C178.843 231.477 178.427 231.136 178.118 230.72V232H176.294V220.16H178.118V224.496ZM183.478 227.552C183.478 226.944 183.35 226.421 183.094 225.984C182.848 225.536 182.518 225.2 182.102 224.976C181.696 224.741 181.259 224.624 180.79 224.624C180.331 224.624 179.894 224.741 179.478 224.976C179.072 225.211 178.742 225.552 178.486 226C178.24 226.448 178.118 226.976 178.118 227.584C178.118 228.192 178.24 228.725 178.486 229.184C178.742 229.632 179.072 229.973 179.478 230.208C179.894 230.443 180.331 230.56 180.79 230.56C181.259 230.56 181.696 230.443 182.102 230.208C182.518 229.963 182.848 229.611 183.094 229.152C183.35 228.693 183.478 228.16 183.478 227.552ZM190.962 232.144C190.13 232.144 189.378 231.957 188.706 231.584C188.034 231.2 187.506 230.667 187.122 229.984C186.738 229.291 186.546 228.491 186.546 227.584C186.546 226.688 186.743 225.893 187.138 225.2C187.532 224.507 188.071 223.973 188.754 223.6C189.436 223.227 190.199 223.04 191.042 223.04C191.884 223.04 192.647 223.227 193.33 223.6C194.012 223.973 194.551 224.507 194.946 225.2C195.34 225.893 195.538 226.688 195.538 227.584C195.538 228.48 195.335 229.275 194.93 229.968C194.524 230.661 193.97 231.2 193.266 231.584C192.572 231.957 191.804 232.144 190.962 232.144ZM190.962 230.56C191.431 230.56 191.868 230.448 192.274 230.224C192.69 230 193.026 229.664 193.282 229.216C193.538 228.768 193.666 228.224 193.666 227.584C193.666 226.944 193.543 226.405 193.298 225.968C193.052 225.52 192.727 225.184 192.322 224.96C191.916 224.736 191.479 224.624 191.01 224.624C190.54 224.624 190.103 224.736 189.698 224.96C189.303 225.184 188.988 225.52 188.754 225.968C188.519 226.405 188.402 226.944 188.402 227.584C188.402 228.533 188.642 229.269 189.122 229.792C189.612 230.304 190.226 230.56 190.962 230.56ZM199.165 220.16V232H197.341V220.16H199.165ZM200.951 227.552C200.951 226.667 201.133 225.883 201.495 225.2C201.869 224.517 202.37 223.989 202.999 223.616C203.639 223.232 204.349 223.04 205.127 223.04C205.703 223.04 206.269 223.168 206.823 223.424C207.389 223.669 207.837 224 208.167 224.416V220.16H210.007V232H208.167V230.672C207.869 231.099 207.453 231.451 206.919 231.728C206.397 232.005 205.794 232.144 205.111 232.144C204.343 232.144 203.639 231.952 202.999 231.568C202.37 231.173 201.869 230.629 201.495 229.936C201.133 229.232 200.951 228.437 200.951 227.552ZM208.167 227.584C208.167 226.976 208.039 226.448 207.783 226C207.538 225.552 207.213 225.211 206.807 224.976C206.402 224.741 205.965 224.624 205.495 224.624C205.026 224.624 204.589 224.741 204.183 224.976C203.778 225.2 203.447 225.536 203.191 225.984C202.946 226.421 202.823 226.944 202.823 227.552C202.823 228.16 202.946 228.693 203.191 229.152C203.447 229.611 203.778 229.963 204.183 230.208C204.599 230.443 205.037 230.56 205.495 230.56C205.965 230.56 206.402 230.443 206.807 230.208C207.213 229.973 207.538 229.632 207.783 229.184C208.039 228.725 208.167 228.192 208.167 227.584ZM216.079 222V220.336H219.407V232H217.567V222H216.079ZM228.185 223.04C228.068 222.549 227.854 222.181 227.545 221.936C227.236 221.691 226.804 221.568 226.249 221.568C225.406 221.568 224.777 221.893 224.361 222.544C223.945 223.184 223.726 224.251 223.705 225.744C223.982 225.275 224.388 224.912 224.921 224.656C225.454 224.4 226.03 224.272 226.649 224.272C227.353 224.272 227.972 224.427 228.505 224.736C229.049 225.035 229.47 225.472 229.769 226.048C230.078 226.624 230.233 227.312 230.233 228.112C230.233 228.859 230.084 229.525 229.785 230.112C229.497 230.699 229.065 231.163 228.489 231.504C227.913 231.835 227.22 232 226.409 232C225.31 232 224.446 231.76 223.817 231.28C223.198 230.789 222.761 230.101 222.505 229.216C222.26 228.331 222.137 227.227 222.137 225.904C222.137 222 223.513 220.048 226.265 220.048C227.332 220.048 228.169 220.336 228.777 220.912C229.396 221.488 229.758 222.197 229.865 223.04H228.185ZM226.249 225.808C225.598 225.808 225.044 226.005 224.585 226.4C224.137 226.784 223.913 227.344 223.913 228.08C223.913 228.816 224.121 229.403 224.537 229.84C224.964 230.267 225.556 230.48 226.313 230.48C226.985 230.48 227.513 230.272 227.897 229.856C228.292 229.44 228.489 228.885 228.489 228.192C228.489 227.467 228.297 226.891 227.913 226.464C227.54 226.027 226.985 225.808 226.249 225.808ZM234.243 224.48C234.552 224.075 234.973 223.733 235.507 223.456C236.04 223.179 236.643 223.04 237.315 223.04C238.083 223.04 238.781 223.232 239.411 223.616C240.051 223.989 240.552 224.517 240.915 225.2C241.277 225.883 241.459 226.667 241.459 227.552C241.459 228.437 241.277 229.232 240.915 229.936C240.552 230.629 240.051 231.173 239.411 231.568C238.781 231.952 238.083 232.144 237.315 232.144C236.643 232.144 236.045 232.011 235.523 231.744C235 231.467 234.573 231.125 234.243 230.72V236.192H232.419V223.184H234.243V224.48ZM239.603 227.552C239.603 226.944 239.475 226.421 239.219 225.984C238.973 225.536 238.643 225.2 238.227 224.976C237.821 224.741 237.384 224.624 236.915 224.624C236.456 224.624 236.019 224.741 235.603 224.976C235.197 225.211 234.867 225.552 234.611 226C234.365 226.448 234.243 226.976 234.243 227.584C234.243 228.192 234.365 228.725 234.611 229.184C234.867 229.632 235.197 229.973 235.603 230.208C236.019 230.443 236.456 230.56 236.915 230.56C237.384 230.56 237.821 230.443 238.227 230.208C238.643 229.963 238.973 229.611 239.219 229.152C239.475 228.693 239.603 228.16 239.603 227.552ZM247.039 227.536L249.887 232H247.823L245.919 229.008L244.127 232H242.223L245.071 227.664L242.223 223.184H244.287L246.191 226.176L247.983 223.184H249.887L247.039 227.536Z" fill="white"/>
<path d="M32.26 262.904C32.8013 263.081 33.2307 263.38 33.548 263.8C33.8653 264.211 34.024 264.724 34.024 265.34C34.024 266.189 33.6973 266.847 33.044 267.314C32.3907 267.771 31.4387 268 30.188 268H25.316V258.2H29.908C31.0653 258.2 31.9567 258.429 32.582 258.886C33.2073 259.334 33.52 259.955 33.52 260.748C33.52 261.233 33.408 261.663 33.184 262.036C32.96 262.409 32.652 262.699 32.26 262.904ZM27.136 259.628V262.33H29.712C30.3467 262.33 30.832 262.218 31.168 261.994C31.5133 261.761 31.686 261.425 31.686 260.986C31.686 260.538 31.5133 260.202 31.168 259.978C30.832 259.745 30.3467 259.628 29.712 259.628H27.136ZM30.076 266.572C31.4853 266.572 32.19 266.101 32.19 265.158C32.19 264.215 31.4853 263.744 30.076 263.744H27.136V266.572H30.076ZM37.8177 259.74H34.5697V258.2H42.8857V259.74H39.6377V268H37.8177V259.74ZM52.9595 258.2V268H51.4615L46.0575 261.364V268H44.2515V258.2H45.7495L51.1535 264.836V258.2H52.9595Z" fill="#96F086"/>
<path d="M75.552 261.384C75.552 262.035 75.4027 262.632 75.104 263.176C74.8053 263.709 74.3467 264.141 73.728 264.472C73.1093 264.803 72.3413 264.968 71.424 264.968H69.728V269H66.992V257.768H71.424C72.32 257.768 73.0773 257.923 73.696 258.232C74.3147 258.541 74.7787 258.968 75.088 259.512C75.3973 260.056 75.552 260.68 75.552 261.384ZM71.216 262.792C71.7387 262.792 72.128 262.669 72.384 262.424C72.64 262.179 72.768 261.832 72.768 261.384C72.768 260.936 72.64 260.589 72.384 260.344C72.128 260.099 71.7387 259.976 71.216 259.976H69.728V262.792H71.216ZM81.0404 269.128C80.1657 269.128 79.3764 268.941 78.6724 268.568C77.979 268.195 77.4297 267.661 77.0244 266.968C76.6297 266.275 76.4324 265.464 76.4324 264.536C76.4324 263.619 76.635 262.813 77.0404 262.12C77.4457 261.416 78.0004 260.877 78.7044 260.504C79.4084 260.131 80.1977 259.944 81.0724 259.944C81.947 259.944 82.7364 260.131 83.4404 260.504C84.1444 260.877 84.699 261.416 85.1044 262.12C85.5097 262.813 85.7124 263.619 85.7124 264.536C85.7124 265.453 85.5044 266.264 85.0884 266.968C84.683 267.661 84.123 268.195 83.4084 268.568C82.7044 268.941 81.915 269.128 81.0404 269.128ZM81.0404 266.76C81.563 266.76 82.0057 266.568 82.3684 266.184C82.7417 265.8 82.9284 265.251 82.9284 264.536C82.9284 263.821 82.747 263.272 82.3844 262.888C82.0324 262.504 81.595 262.312 81.0724 262.312C80.539 262.312 80.0964 262.504 79.7444 262.888C79.3924 263.261 79.2164 263.811 79.2164 264.536C79.2164 265.251 79.387 265.8 79.7284 266.184C80.0804 266.568 80.5177 266.76 81.0404 266.76ZM89.8999 261.336C90.1665 260.92 90.5345 260.584 91.0039 260.328C91.4732 260.072 92.0225 259.944 92.6519 259.944C93.3879 259.944 94.0545 260.131 94.6519 260.504C95.2492 260.877 95.7185 261.411 96.0599 262.104C96.4119 262.797 96.5879 263.603 96.5879 264.52C96.5879 265.437 96.4119 266.248 96.0599 266.952C95.7185 267.645 95.2492 268.184 94.6519 268.568C94.0545 268.941 93.3879 269.128 92.6519 269.128C92.0332 269.128 91.4839 269 91.0039 268.744C90.5345 268.488 90.1665 268.157 89.8999 267.752V273.256H87.1639V260.072H89.8999V261.336ZM93.8039 264.52C93.8039 263.837 93.6119 263.304 93.2279 262.92C92.8545 262.525 92.3905 262.328 91.8359 262.328C91.2919 262.328 90.8279 262.525 90.4439 262.92C90.0705 263.315 89.8839 263.853 89.8839 264.536C89.8839 265.219 90.0705 265.757 90.4439 266.152C90.8279 266.547 91.2919 266.744 91.8359 266.744C92.3799 266.744 92.8439 266.547 93.2279 266.152C93.6119 265.747 93.8039 265.203 93.8039 264.52ZM100.759 261.336C101.026 260.92 101.394 260.584 101.863 260.328C102.333 260.072 102.882 259.944 103.511 259.944C104.247 259.944 104.914 260.131 105.511 260.504C106.109 260.877 106.578 261.411 106.919 262.104C107.271 262.797 107.447 263.603 107.447 264.52C107.447 265.437 107.271 266.248 106.919 266.952C106.578 267.645 106.109 268.184 105.511 268.568C104.914 268.941 104.247 269.128 103.511 269.128C102.893 269.128 102.343 269 101.863 268.744C101.394 268.488 101.026 268.157 100.759 267.752V273.256H98.0233V260.072H100.759V261.336ZM104.663 264.52C104.663 263.837 104.471 263.304 104.087 262.92C103.714 262.525 103.25 262.328 102.695 262.328C102.151 262.328 101.687 262.525 101.303 262.92C100.93 263.315 100.743 263.853 100.743 264.536C100.743 265.219 100.93 265.757 101.303 266.152C101.687 266.547 102.151 266.744 102.695 266.744C103.239 266.744 103.703 266.547 104.087 266.152C104.471 265.747 104.663 265.203 104.663 264.52ZM110.259 259.144C109.779 259.144 109.384 259.005 109.075 258.728C108.776 258.44 108.627 258.088 108.627 257.672C108.627 257.245 108.776 256.893 109.075 256.616C109.384 256.328 109.779 256.184 110.259 256.184C110.728 256.184 111.112 256.328 111.411 256.616C111.72 256.893 111.875 257.245 111.875 257.672C111.875 258.088 111.72 258.44 111.411 258.728C111.112 259.005 110.728 259.144 110.259 259.144ZM111.619 260.072V269H108.883V260.072H111.619ZM119.041 259.976C120.087 259.976 120.919 260.317 121.537 261C122.167 261.672 122.481 262.6 122.481 263.784V269H119.761V264.152C119.761 263.555 119.607 263.091 119.297 262.76C118.988 262.429 118.572 262.264 118.049 262.264C117.527 262.264 117.111 262.429 116.801 262.76C116.492 263.091 116.337 263.555 116.337 264.152V269H113.601V260.072H116.337V261.256C116.615 260.861 116.988 260.552 117.457 260.328C117.927 260.093 118.455 259.976 119.041 259.976ZM128.015 269.128C127.236 269.128 126.543 268.995 125.935 268.728C125.327 268.461 124.847 268.099 124.495 267.64C124.143 267.171 123.945 266.648 123.903 266.072H126.607C126.639 266.381 126.783 266.632 127.039 266.824C127.295 267.016 127.609 267.112 127.983 267.112C128.324 267.112 128.585 267.048 128.767 266.92C128.959 266.781 129.055 266.605 129.055 266.392C129.055 266.136 128.921 265.949 128.655 265.832C128.388 265.704 127.956 265.565 127.359 265.416C126.719 265.267 126.185 265.112 125.759 264.952C125.332 264.781 124.964 264.52 124.655 264.168C124.345 263.805 124.191 263.32 124.191 262.712C124.191 262.2 124.329 261.736 124.607 261.32C124.895 260.893 125.311 260.557 125.855 260.312C126.409 260.067 127.065 259.944 127.823 259.944C128.943 259.944 129.823 260.221 130.463 260.776C131.113 261.331 131.487 262.067 131.583 262.984H129.055C129.012 262.675 128.873 262.429 128.639 262.248C128.415 262.067 128.116 261.976 127.743 261.976C127.423 261.976 127.177 262.04 127.007 262.168C126.836 262.285 126.751 262.451 126.751 262.664C126.751 262.92 126.884 263.112 127.151 263.24C127.428 263.368 127.855 263.496 128.431 263.624C129.092 263.795 129.631 263.965 130.047 264.136C130.463 264.296 130.825 264.563 131.135 264.936C131.455 265.299 131.62 265.789 131.631 266.408C131.631 266.931 131.481 267.4 131.183 267.816C130.895 268.221 130.473 268.541 129.919 268.776C129.375 269.011 128.74 269.128 128.015 269.128ZM143.495 263.24C144.146 263.379 144.668 263.704 145.063 264.216C145.458 264.717 145.655 265.293 145.655 265.944C145.655 266.883 145.324 267.629 144.663 268.184C144.012 268.728 143.1 269 141.927 269H136.695V257.768H141.751C142.892 257.768 143.783 258.029 144.423 258.552C145.074 259.075 145.399 259.784 145.399 260.68C145.399 261.341 145.223 261.891 144.871 262.328C144.53 262.765 144.071 263.069 143.495 263.24ZM139.431 262.312H141.223C141.671 262.312 142.012 262.216 142.247 262.024C142.492 261.821 142.615 261.528 142.615 261.144C142.615 260.76 142.492 260.467 142.247 260.264C142.012 260.061 141.671 259.96 141.223 259.96H139.431V262.312ZM141.447 266.792C141.906 266.792 142.258 266.691 142.503 266.488C142.759 266.275 142.887 265.971 142.887 265.576C142.887 265.181 142.754 264.872 142.487 264.648C142.231 264.424 141.874 264.312 141.415 264.312H139.431V266.792H141.447ZM151.306 269.128C150.431 269.128 149.642 268.941 148.938 268.568C148.245 268.195 147.695 267.661 147.29 266.968C146.895 266.275 146.698 265.464 146.698 264.536C146.698 263.619 146.901 262.813 147.306 262.12C147.711 261.416 148.266 260.877 148.97 260.504C149.674 260.131 150.463 259.944 151.338 259.944C152.213 259.944 153.002 260.131 153.706 260.504C154.41 260.877 154.965 261.416 155.37 262.12C155.775 262.813 155.978 263.619 155.978 264.536C155.978 265.453 155.77 266.264 155.354 266.968C154.949 267.661 154.389 268.195 153.674 268.568C152.97 268.941 152.181 269.128 151.306 269.128ZM151.306 266.76C151.829 266.76 152.271 266.568 152.634 266.184C153.007 265.8 153.194 265.251 153.194 264.536C153.194 263.821 153.013 263.272 152.65 262.888C152.298 262.504 151.861 262.312 151.338 262.312C150.805 262.312 150.362 262.504 150.01 262.888C149.658 263.261 149.482 263.811 149.482 264.536C149.482 265.251 149.653 265.8 149.994 266.184C150.346 266.568 150.783 266.76 151.306 266.76ZM160.166 257.16V269H157.43V257.16H160.166ZM161.604 264.52C161.604 263.603 161.775 262.797 162.116 262.104C162.468 261.411 162.943 260.877 163.54 260.504C164.138 260.131 164.804 259.944 165.54 259.944C166.127 259.944 166.66 260.067 167.14 260.312C167.631 260.557 168.015 260.888 168.292 261.304V257.16H171.028V269H168.292V267.72C168.036 268.147 167.668 268.488 167.188 268.744C166.719 269 166.17 269.128 165.54 269.128C164.804 269.128 164.138 268.941 163.54 268.568C162.943 268.184 162.468 267.645 162.116 266.952C161.775 266.248 161.604 265.437 161.604 264.52ZM168.292 264.536C168.292 263.853 168.1 263.315 167.716 262.92C167.343 262.525 166.884 262.328 166.34 262.328C165.796 262.328 165.332 262.525 164.948 262.92C164.575 263.304 164.388 263.837 164.388 264.52C164.388 265.203 164.575 265.747 164.948 266.152C165.332 266.547 165.796 266.744 166.34 266.744C166.884 266.744 167.343 266.547 167.716 266.152C168.1 265.757 168.292 265.219 168.292 264.536ZM176.03 266.808C176.393 266.52 176.558 266.387 176.526 266.408C177.572 265.544 178.393 264.835 178.99 264.28C179.598 263.725 180.11 263.144 180.526 262.536C180.942 261.928 181.15 261.336 181.15 260.76C181.15 260.323 181.049 259.981 180.846 259.736C180.644 259.491 180.34 259.368 179.934 259.368C179.529 259.368 179.209 259.523 178.974 259.832C178.75 260.131 178.638 260.557 178.638 261.112H175.998C176.02 260.205 176.212 259.448 176.574 258.84C176.948 258.232 177.433 257.784 178.03 257.496C178.638 257.208 179.31 257.064 180.046 257.064C181.316 257.064 182.27 257.389 182.91 258.04C183.561 258.691 183.886 259.539 183.886 260.584C183.886 261.725 183.497 262.787 182.718 263.768C181.94 264.739 180.948 265.688 179.742 266.616H184.062V268.84H176.03V266.808ZM185.267 263C185.267 261.165 185.619 259.72 186.323 258.664C187.038 257.608 188.184 257.08 189.763 257.08C191.342 257.08 192.483 257.608 193.187 258.664C193.902 259.72 194.259 261.165 194.259 263C194.259 264.856 193.902 266.312 193.187 267.368C192.483 268.424 191.342 268.952 189.763 268.952C188.184 268.952 187.038 268.424 186.323 267.368C185.619 266.312 185.267 264.856 185.267 263ZM191.571 263C191.571 261.923 191.454 261.096 191.219 260.52C190.984 259.933 190.499 259.64 189.763 259.64C189.027 259.64 188.542 259.933 188.307 260.52C188.072 261.096 187.955 261.923 187.955 263C187.955 263.725 187.998 264.328 188.083 264.808C188.168 265.277 188.339 265.661 188.595 265.96C188.862 266.248 189.251 266.392 189.763 266.392C190.275 266.392 190.659 266.248 190.915 265.96C191.182 265.661 191.358 265.277 191.443 264.808C191.528 264.328 191.571 263.725 191.571 263ZM198.712 261.336C198.979 260.92 199.347 260.584 199.816 260.328C200.286 260.072 200.835 259.944 201.464 259.944C202.2 259.944 202.867 260.131 203.464 260.504C204.062 260.877 204.531 261.411 204.872 262.104C205.224 262.797 205.4 263.603 205.4 264.52C205.4 265.437 205.224 266.248 204.872 266.952C204.531 267.645 204.062 268.184 203.464 268.568C202.867 268.941 202.2 269.128 201.464 269.128C200.846 269.128 200.296 269 199.816 268.744C199.347 268.488 198.979 268.157 198.712 267.752V273.256H195.976V260.072H198.712V261.336ZM202.616 264.52C202.616 263.837 202.424 263.304 202.04 262.92C201.667 262.525 201.203 262.328 200.648 262.328C200.104 262.328 199.64 262.525 199.256 262.92C198.883 263.315 198.696 263.853 198.696 264.536C198.696 265.219 198.883 265.757 199.256 266.152C199.64 266.547 200.104 266.744 200.648 266.744C201.192 266.744 201.656 266.547 202.04 266.152C202.424 265.747 202.616 265.203 202.616 264.52ZM212.116 269L210.404 266.52L208.964 269H206.004L208.948 264.44L205.924 260.072H208.996L210.708 262.536L212.148 260.072H215.108L212.116 264.568L215.188 269H212.116ZM219.073 259.864V257.32H223.505V269H220.657V259.864H219.073ZM228.384 261.336C228.651 260.92 229.019 260.584 229.488 260.328C229.958 260.072 230.507 259.944 231.136 259.944C231.872 259.944 232.539 260.131 233.136 260.504C233.734 260.877 234.203 261.411 234.544 262.104C234.896 262.797 235.072 263.603 235.072 264.52C235.072 265.437 234.896 266.248 234.544 266.952C234.203 267.645 233.734 268.184 233.136 268.568C232.539 268.941 231.872 269.128 231.136 269.128C230.518 269.128 229.968 269 229.488 268.744C229.019 268.488 228.651 268.157 228.384 267.752V273.256H225.648V260.072H228.384V261.336ZM232.288 264.52C232.288 263.837 232.096 263.304 231.712 262.92C231.339 262.525 230.875 262.328 230.32 262.328C229.776 262.328 229.312 262.525 228.928 262.92C228.555 263.315 228.368 263.853 228.368 264.536C228.368 265.219 228.555 265.757 228.928 266.152C229.312 266.547 229.776 266.744 230.32 266.744C230.864 266.744 231.328 266.547 231.712 266.152C232.096 265.747 232.288 265.203 232.288 264.52ZM241.788 269L240.076 266.52L238.636 269H235.676L238.62 264.44L235.596 260.072H238.668L240.38 262.536L241.82 260.072H244.78L241.788 264.568L244.86 269H241.788Z" fill="white"/>
<path d="M51.7742 537.226H52.2805L52.446 536.748L65.0366 500.289H141.116L153.707 536.748L153.872 537.226H154.378H195.42H196.43L196.089 536.275L126.485 342.147L126.315 341.676H125.816H80.6144H80.1145L79.9454 342.147L10.3411 536.275L10 537.226H11.0099H51.7742ZM203.804 417.32L203.802 417.324L203.8 417.328C197.641 429.477 194.572 443.383 194.572 459.031C194.572 474.862 197.641 488.952 203.798 501.285L203.801 501.29L203.804 501.296C210.142 513.432 218.636 522.88 229.289 529.618L229.291 529.619L229.294 529.621C240.132 536.358 252.094 539.726 265.164 539.726C276.723 539.726 286.917 537.391 295.725 532.7L295.727 532.698L295.729 532.697C303.947 528.239 310.536 522.747 315.478 516.214V536.515V537.226H316.189H355.289H356V536.515V382.657V381.946H355.289H316.189H315.478V382.657V402.501C310.39 396.116 303.801 390.775 295.728 386.474C287.102 381.78 276.999 379.446 265.441 379.446C252.192 379.446 240.14 382.718 229.301 389.269L229.299 389.27L229.297 389.272C218.639 395.826 210.143 405.183 203.804 417.32ZM310.018 435.762L310.019 435.766L310.021 435.769C313.648 442.307 315.478 450.236 315.478 459.586C315.478 468.934 313.649 476.958 310.019 483.685C306.382 490.24 301.481 495.327 295.314 498.961C289.137 502.417 282.51 504.144 275.424 504.144C268.533 504.144 262.002 502.33 255.823 498.69C249.841 495.058 244.934 489.879 241.107 483.129C237.475 476.213 235.648 468.187 235.648 459.031C235.648 449.87 237.477 442.034 241.103 435.495C244.93 428.743 249.835 423.657 255.813 420.21C261.803 416.756 268.336 415.028 275.424 415.028C282.506 415.028 289.13 416.845 295.308 420.484L295.314 420.488L295.321 420.492C301.48 423.939 306.379 429.021 310.018 435.762ZM76.0656 467.762L103.076 389.555L130.087 467.762H76.0656Z" stroke="#F7EDFF" stroke-width="2.35229"/>
</g>
<defs>
<clipPath id="clip0_60_3611">
<rect width="328" height="559" fill="white"/>
</clipPath>
</defs>
</svg>
