<svg width="328" height="485" viewBox="0 0 328 485" fill="none" xmlns="http://www.w3.org/2000/svg">
<rect width="164" height="242.5" fill="#F56F6C"/>
<path d="M19.136 22.726V25.708H23.868V27.248H19.136V31H17.316V21.2H24.47V22.726H19.136ZM32.6421 31L30.6401 28.13C30.5561 28.1393 30.4301 28.144 30.2621 28.144H28.0501V31H26.2301V21.2H30.2621C31.1114 21.2 31.8487 21.34 32.4741 21.62C33.1087 21.9 33.5941 22.3013 33.9301 22.824C34.2661 23.3467 34.4341 23.9673 34.4341 24.686C34.4341 25.4233 34.2521 26.058 33.8881 26.59C33.5334 27.122 33.0201 27.5187 32.3481 27.78L34.6021 31H32.6421ZM32.6001 24.686C32.6001 24.0607 32.3947 23.58 31.9841 23.244C31.5734 22.908 30.9714 22.74 30.1781 22.74H28.0501V26.646H30.1781C30.9714 26.646 31.5734 26.478 31.9841 26.142C32.3947 25.7967 32.6001 25.3113 32.6001 24.686ZM41.0483 31.14C40.0496 31.14 39.149 30.9253 38.3463 30.496C37.5436 30.0573 36.9136 29.4553 36.4563 28.69C35.999 27.9153 35.7703 27.052 35.7703 26.1C35.7703 25.148 35.999 24.2893 36.4563 23.524C36.9136 22.7493 37.5436 22.1473 38.3463 21.718C39.149 21.2793 40.0496 21.06 41.0483 21.06C42.047 21.06 42.9476 21.2793 43.7503 21.718C44.553 22.1473 45.183 22.7447 45.6403 23.51C46.0976 24.2753 46.3263 25.1387 46.3263 26.1C46.3263 27.0613 46.0976 27.9247 45.6403 28.69C45.183 29.4553 44.553 30.0573 43.7503 30.496C42.9476 30.9253 42.047 31.14 41.0483 31.14ZM41.0483 29.544C41.7016 29.544 42.2896 29.3993 42.8123 29.11C43.335 28.8113 43.7456 28.4007 44.0443 27.878C44.343 27.346 44.4923 26.7533 44.4923 26.1C44.4923 25.4467 44.343 24.8587 44.0443 24.336C43.7456 23.804 43.335 23.3933 42.8123 23.104C42.2896 22.8053 41.7016 22.656 41.0483 22.656C40.395 22.656 39.807 22.8053 39.2843 23.104C38.7616 23.3933 38.351 23.804 38.0523 24.336C37.7536 24.8587 37.6043 25.4467 37.6043 26.1C37.6043 26.7533 37.7536 27.346 38.0523 27.878C38.351 28.4007 38.7616 28.8113 39.2843 29.11C39.807 29.3993 40.395 29.544 41.0483 29.544ZM48.2555 21.2H50.0755V29.46H55.1995V31H48.2555V21.2ZM59.8389 27.542V31H58.0189V27.57L54.1689 21.2H56.1149L58.9849 25.974L61.8829 21.2H63.6749L59.8389 27.542Z" fill="white"/>
<path d="M23.252 46.63L22.888 49.57H24.876V50.34H22.79L22.468 53H21.712L22.034 50.34H19.164L18.828 53H18.072L18.394 50.34H16.406V49.57H18.492L18.856 46.63H16.854V45.86H18.954L19.276 43.2H20.046L19.71 45.86H22.594L22.916 43.2H23.672L23.35 45.86H25.324V46.63H23.252ZM22.496 46.63H19.626L19.248 49.57H22.132L22.496 46.63ZM28.38 44.096V47.946H33.448V48.842H28.38V53H27.344V43.2H34.064V44.096H28.38ZM37.6653 47.218C39.084 47.218 40.1153 47.4747 40.7593 47.988C41.4127 48.492 41.7393 49.2013 41.7393 50.116C41.7393 50.6853 41.604 51.194 41.3333 51.642C41.072 52.09 40.6753 52.4447 40.1433 52.706C39.6113 52.958 38.958 53.084 38.1833 53.084C37.4833 53.084 36.816 52.972 36.1813 52.748C35.556 52.5147 35.052 52.2067 34.6693 51.824L35.1593 51.026C35.486 51.362 35.9153 51.6373 36.4473 51.852C36.9793 52.0573 37.5533 52.16 38.1693 52.16C38.9813 52.16 39.6067 51.978 40.0453 51.614C40.4933 51.25 40.7173 50.7647 40.7173 50.158C40.7173 49.486 40.4653 48.9773 39.9613 48.632C39.4667 48.2867 38.6267 48.114 37.4413 48.114H35.3553L35.8593 43.2H41.2213V44.096H36.7413L36.4053 47.218H37.6653ZM47.079 47.134C47.723 47.134 48.2923 47.2553 48.787 47.498C49.291 47.7407 49.683 48.086 49.963 48.534C50.243 48.9727 50.383 49.486 50.383 50.074C50.383 50.6713 50.2383 51.1987 49.949 51.656C49.6597 52.1133 49.2583 52.468 48.745 52.72C48.241 52.9627 47.6717 53.084 47.037 53.084C45.7397 53.084 44.7457 52.6593 44.055 51.81C43.3643 50.9513 43.019 49.7427 43.019 48.184C43.019 47.092 43.2057 46.168 43.579 45.412C43.9523 44.656 44.475 44.0867 45.147 43.704C45.819 43.312 46.603 43.116 47.499 43.116C48.4697 43.116 49.2443 43.2933 49.823 43.648L49.417 44.46C48.9503 44.152 48.3157 43.998 47.513 43.998C46.4303 43.998 45.581 44.3433 44.965 45.034C44.349 45.7153 44.041 46.7093 44.041 48.016C44.041 48.2493 44.055 48.5153 44.083 48.814C44.3257 48.282 44.713 47.8713 45.245 47.582C45.777 47.2833 46.3883 47.134 47.079 47.134ZM46.995 52.23C47.7043 52.23 48.2783 52.0387 48.717 51.656C49.165 51.264 49.389 50.746 49.389 50.102C49.389 49.458 49.165 48.9447 48.717 48.562C48.2783 48.1793 47.681 47.988 46.925 47.988C46.4303 47.988 45.9917 48.0813 45.609 48.268C45.2357 48.4547 44.9417 48.7113 44.727 49.038C44.5123 49.3647 44.405 49.7287 44.405 50.13C44.405 50.5033 44.503 50.8487 44.699 51.166C44.9043 51.4833 45.203 51.74 45.595 51.936C45.987 52.132 46.4537 52.23 46.995 52.23ZM53.4543 44.096V47.946H58.5223V48.842H53.4543V53H52.4183V43.2H59.1383V44.096H53.4543ZM64.2782 47.134C64.9222 47.134 65.4916 47.2553 65.9862 47.498C66.4902 47.7407 66.8822 48.086 67.1622 48.534C67.4422 48.9727 67.5822 49.486 67.5822 50.074C67.5822 50.6713 67.4376 51.1987 67.1482 51.656C66.8589 52.1133 66.4576 52.468 65.9442 52.72C65.4402 52.9627 64.8709 53.084 64.2362 53.084C62.9389 53.084 61.9449 52.6593 61.2542 51.81C60.5636 50.9513 60.2182 49.7427 60.2182 48.184C60.2182 47.092 60.4049 46.168 60.7782 45.412C61.1516 44.656 61.6742 44.0867 62.3462 43.704C63.0182 43.312 63.8022 43.116 64.6982 43.116C65.6689 43.116 66.4436 43.2933 67.0222 43.648L66.6162 44.46C66.1496 44.152 65.5149 43.998 64.7122 43.998C63.6296 43.998 62.7802 44.3433 62.1642 45.034C61.5482 45.7153 61.2402 46.7093 61.2402 48.016C61.2402 48.2493 61.2542 48.5153 61.2822 48.814C61.5249 48.282 61.9122 47.8713 62.4442 47.582C62.9762 47.2833 63.5876 47.134 64.2782 47.134ZM64.1942 52.23C64.9036 52.23 65.4776 52.0387 65.9162 51.656C66.3642 51.264 66.5882 50.746 66.5882 50.102C66.5882 49.458 66.3642 48.9447 65.9162 48.562C65.4776 48.1793 64.8802 47.988 64.1242 47.988C63.6296 47.988 63.1909 48.0813 62.8082 48.268C62.4349 48.4547 62.1409 48.7113 61.9262 49.038C61.7116 49.3647 61.6042 49.7287 61.6042 50.13C61.6042 50.5033 61.7022 50.8487 61.8982 51.166C62.1036 51.4833 62.4022 51.74 62.7942 51.936C63.1862 52.132 63.6529 52.23 64.1942 52.23ZM73.8735 53.084C72.9028 53.084 72.0255 52.8693 71.2415 52.44C70.4668 52.0107 69.8555 51.418 69.4075 50.662C68.9688 49.8967 68.7495 49.0427 68.7495 48.1C68.7495 47.1573 68.9688 46.308 69.4075 45.552C69.8555 44.7867 70.4715 44.1893 71.2555 43.76C72.0395 43.3307 72.9168 43.116 73.8875 43.116C74.6155 43.116 75.2875 43.2373 75.9035 43.48C76.5195 43.7227 77.0422 44.0773 77.4715 44.544L76.8135 45.202C76.0482 44.4273 75.0822 44.04 73.9155 44.04C73.1408 44.04 72.4362 44.2173 71.8015 44.572C71.1668 44.9267 70.6675 45.412 70.3035 46.028C69.9488 46.644 69.7715 47.3347 69.7715 48.1C69.7715 48.8653 69.9488 49.556 70.3035 50.172C70.6675 50.788 71.1668 51.2733 71.8015 51.628C72.4362 51.9827 73.1408 52.16 73.9155 52.16C75.0915 52.16 76.0575 51.768 76.8135 50.984L77.4715 51.642C77.0422 52.1087 76.5148 52.468 75.8895 52.72C75.2735 52.9627 74.6015 53.084 73.8735 53.084Z" fill="white"/>
<rect width="164" height="242.5" transform="translate(0 242.5)" fill="#191C21"/>
<path d="M20.354 273.64C19.598 273.64 18.8653 273.533 18.156 273.318C17.456 273.103 16.9007 272.819 16.49 272.464L17.12 271.05C17.5213 271.367 18.0113 271.629 18.59 271.834C19.178 272.03 19.766 272.128 20.354 272.128C21.082 272.128 21.6233 272.011 21.978 271.778C22.342 271.545 22.524 271.237 22.524 270.854C22.524 270.574 22.4213 270.345 22.216 270.168C22.02 269.981 21.768 269.837 21.46 269.734C21.152 269.631 20.732 269.515 20.2 269.384C19.4533 269.207 18.8467 269.029 18.38 268.852C17.9227 268.675 17.526 268.399 17.19 268.026C16.8633 267.643 16.7 267.13 16.7 266.486C16.7 265.945 16.8447 265.455 17.134 265.016C17.4327 264.568 17.876 264.213 18.464 263.952C19.0613 263.691 19.7893 263.56 20.648 263.56C21.2453 263.56 21.8333 263.635 22.412 263.784C22.9907 263.933 23.49 264.148 23.91 264.428L23.336 265.842C22.9067 265.59 22.4587 265.399 21.992 265.268C21.5253 265.137 21.0727 265.072 20.634 265.072C19.9153 265.072 19.3787 265.193 19.024 265.436C18.6787 265.679 18.506 266.001 18.506 266.402C18.506 266.682 18.604 266.911 18.8 267.088C19.0053 267.265 19.262 267.405 19.57 267.508C19.878 267.611 20.298 267.727 20.83 267.858C21.558 268.026 22.1553 268.203 22.622 268.39C23.0887 268.567 23.4853 268.843 23.812 269.216C24.148 269.589 24.316 270.093 24.316 270.728C24.316 271.269 24.1667 271.759 23.868 272.198C23.5787 272.637 23.1353 272.987 22.538 273.248C21.9407 273.509 21.2127 273.64 20.354 273.64ZM34.8287 263.7V273.5H33.0087V269.3H27.9407V273.5H26.1207V263.7H27.9407V267.746H33.0087V263.7H34.8287ZM43.8107 271.232H38.9107L37.9447 273.5H36.0687L40.4787 263.7H42.2707L46.6947 273.5H44.7907L43.8107 271.232ZM43.2087 269.804L41.3607 265.52L39.5267 269.804H43.2087ZM54.353 273.5L52.351 270.63C52.267 270.639 52.141 270.644 51.973 270.644H49.761V273.5H47.941V263.7H51.973C52.8223 263.7 53.5597 263.84 54.185 264.12C54.8197 264.4 55.305 264.801 55.641 265.324C55.977 265.847 56.145 266.467 56.145 267.186C56.145 267.923 55.963 268.558 55.599 269.09C55.2443 269.622 54.731 270.019 54.059 270.28L56.313 273.5H54.353ZM54.311 267.186C54.311 266.561 54.1057 266.08 53.695 265.744C53.2843 265.408 52.6823 265.24 51.889 265.24H49.761V269.146H51.889C52.6823 269.146 53.2843 268.978 53.695 268.642C54.1057 268.297 54.311 267.811 54.311 267.186ZM61.5552 269.398L60.0012 270.994V273.5H58.1812V263.7H60.0012V268.726L64.8452 263.7H66.8892L62.7732 268.082L67.1412 273.5H65.0132L61.5552 269.398Z" fill="white"/>
<path d="M23.252 289.13L22.888 292.07H24.876V292.84H22.79L22.468 295.5H21.712L22.034 292.84H19.164L18.828 295.5H18.072L18.394 292.84H16.406V292.07H18.492L18.856 289.13H16.854V288.36H18.954L19.276 285.7H20.046L19.71 288.36H22.594L22.916 285.7H23.672L23.35 288.36H25.324V289.13H23.252ZM22.496 289.13H19.626L19.248 292.07H22.132L22.496 289.13ZM29.192 285.7V295.5H28.184V286.596H25.874V285.7H29.192ZM34.5866 285.616C35.884 285.616 36.878 286.045 37.5686 286.904C38.2593 287.753 38.6046 288.957 38.6046 290.516C38.6046 291.608 38.418 292.532 38.0446 293.288C37.6713 294.044 37.1486 294.618 36.4766 295.01C35.8046 295.393 35.0206 295.584 34.1246 295.584C33.154 295.584 32.3793 295.407 31.8006 295.052L32.2066 294.24C32.6733 294.548 33.308 294.702 34.1106 294.702C35.1933 294.702 36.0426 294.361 36.6586 293.68C37.2746 292.989 37.5826 291.991 37.5826 290.684C37.5826 290.441 37.5686 290.175 37.5406 289.886C37.298 290.418 36.9106 290.833 36.3786 291.132C35.8466 291.421 35.2353 291.566 34.5446 291.566C33.9006 291.566 33.3266 291.445 32.8226 291.202C32.328 290.959 31.9406 290.619 31.6606 290.18C31.3806 289.732 31.2406 289.214 31.2406 288.626C31.2406 288.029 31.3853 287.501 31.6746 287.044C31.964 286.587 32.3606 286.237 32.8646 285.994C33.378 285.742 33.952 285.616 34.5866 285.616ZM34.6986 290.712C35.1933 290.712 35.6273 290.619 36.0006 290.432C36.3833 290.245 36.682 289.989 36.8966 289.662C37.1113 289.335 37.2186 288.971 37.2186 288.57C37.2186 288.197 37.116 287.851 36.9106 287.534C36.7146 287.217 36.4206 286.96 36.0286 286.764C35.6366 286.568 35.17 286.47 34.6286 286.47C33.9193 286.47 33.3406 286.666 32.8926 287.058C32.454 287.441 32.2346 287.954 32.2346 288.598C32.2346 289.242 32.454 289.755 32.8926 290.138C33.3406 290.521 33.9426 290.712 34.6986 290.712ZM42.7545 285.7V295.5H41.7465V286.596H39.4365V285.7H42.7545ZM50.2211 295.584C49.2505 295.584 48.3731 295.369 47.5891 294.94C46.8145 294.511 46.2031 293.918 45.7551 293.162C45.3165 292.397 45.0971 291.543 45.0971 290.6C45.0971 289.657 45.3165 288.808 45.7551 288.052C46.2031 287.287 46.8191 286.689 47.6031 286.26C48.3871 285.831 49.2645 285.616 50.2351 285.616C50.9631 285.616 51.6351 285.737 52.2511 285.98C52.8671 286.223 53.3898 286.577 53.8191 287.044L53.1611 287.702C52.3958 286.927 51.4298 286.54 50.2631 286.54C49.4885 286.54 48.7838 286.717 48.1491 287.072C47.5145 287.427 47.0151 287.912 46.6511 288.528C46.2965 289.144 46.1191 289.835 46.1191 290.6C46.1191 291.365 46.2965 292.056 46.6511 292.672C47.0151 293.288 47.5145 293.773 48.1491 294.128C48.7838 294.483 49.4885 294.66 50.2631 294.66C51.4391 294.66 52.4051 294.268 53.1611 293.484L53.8191 294.142C53.3898 294.609 52.8625 294.968 52.2371 295.22C51.6211 295.463 50.9491 295.584 50.2211 295.584ZM61.7423 294.604V295.5H54.8683V294.786L58.9423 290.796C59.4556 290.292 59.8009 289.858 59.9783 289.494C60.1649 289.121 60.2583 288.747 60.2583 288.374C60.2583 287.795 60.0576 287.347 59.6563 287.03C59.2643 286.703 58.6996 286.54 57.9623 286.54C56.8143 286.54 55.9229 286.904 55.2883 287.632L54.5743 287.016C54.9569 286.568 55.4423 286.223 56.0303 285.98C56.6276 285.737 57.2996 285.616 58.0463 285.616C59.0449 285.616 59.8336 285.854 60.4123 286.33C61.0003 286.797 61.2943 287.441 61.2943 288.262C61.2943 288.766 61.1823 289.251 60.9583 289.718C60.7343 290.185 60.3096 290.721 59.6843 291.328L56.3523 294.604H61.7423ZM65.7233 285.7V295.5H64.7153V286.596H62.4053V285.7H65.7233Z" fill="white"/>
<rect width="164" height="161.667" transform="translate(164)" fill="#252932"/>
<path d="M185.852 31.14C184.863 31.14 183.967 30.9253 183.164 30.496C182.371 30.0573 181.745 29.4553 181.288 28.69C180.84 27.9247 180.616 27.0613 180.616 26.1C180.616 25.1387 180.845 24.2753 181.302 23.51C181.759 22.7447 182.385 22.1473 183.178 21.718C183.981 21.2793 184.877 21.06 185.866 21.06C186.669 21.06 187.401 21.2 188.064 21.48C188.727 21.76 189.287 22.166 189.744 22.698L188.568 23.804C187.859 23.0387 186.986 22.656 185.95 22.656C185.278 22.656 184.676 22.8053 184.144 23.104C183.612 23.3933 183.197 23.7993 182.898 24.322C182.599 24.8447 182.45 25.4373 182.45 26.1C182.45 26.7627 182.599 27.3553 182.898 27.878C183.197 28.4007 183.612 28.8113 184.144 29.11C184.676 29.3993 185.278 29.544 185.95 29.544C186.986 29.544 187.859 29.1567 188.568 28.382L189.744 29.502C189.287 30.034 188.722 30.44 188.05 30.72C187.387 31 186.655 31.14 185.852 31.14ZM200.196 21.2V31H198.376V26.8H193.308V31H191.488V21.2H193.308V25.246H198.376V21.2H200.196ZM209.178 28.732H204.278L203.312 31H201.436L205.846 21.2H207.638L212.062 31H210.158L209.178 28.732ZM208.576 27.304L206.728 23.02L204.894 27.304H208.576ZM219.72 31L217.718 28.13C217.634 28.1393 217.508 28.144 217.34 28.144H215.128V31H213.308V21.2H217.34C218.19 21.2 218.927 21.34 219.552 21.62C220.187 21.9 220.672 22.3013 221.008 22.824C221.344 23.3467 221.512 23.9673 221.512 24.686C221.512 25.4233 221.33 26.058 220.966 26.59C220.612 27.122 220.098 27.5187 219.426 27.78L221.68 31H219.72ZM219.678 24.686C219.678 24.0607 219.473 23.58 219.062 23.244C218.652 22.908 218.05 22.74 217.256 22.74H215.128V26.646H217.256C218.05 26.646 218.652 26.478 219.062 26.142C219.473 25.7967 219.678 25.3113 219.678 24.686ZM229.904 28.732H225.004L224.038 31H222.162L226.572 21.2H228.364L232.788 31H230.884L229.904 28.732ZM229.302 27.304L227.454 23.02L225.62 27.304H229.302ZM234.035 21.2H238.319C239.364 21.2 240.293 21.4053 241.105 21.816C241.917 22.2173 242.547 22.7913 242.995 23.538C243.443 24.2753 243.667 25.1293 243.667 26.1C243.667 27.0707 243.443 27.9293 242.995 28.676C242.547 29.4133 241.917 29.9873 241.105 30.398C240.293 30.7993 239.364 31 238.319 31H234.035V21.2ZM238.235 29.46C238.953 29.46 239.583 29.3247 240.125 29.054C240.675 28.774 241.095 28.382 241.385 27.878C241.683 27.3647 241.833 26.772 241.833 26.1C241.833 25.428 241.683 24.84 241.385 24.336C241.095 23.8227 240.675 23.4307 240.125 23.16C239.583 22.88 238.953 22.74 238.235 22.74H235.855V29.46H238.235ZM252.951 29.474V31H245.601V21.2H252.755V22.726H247.421V25.274H252.153V26.772H247.421V29.474H252.951Z" fill="white"/>
<path d="M187.252 46.63L186.888 49.57H188.876V50.34H186.79L186.468 53H185.712L186.034 50.34H183.164L182.828 53H182.072L182.394 50.34H180.406V49.57H182.492L182.856 46.63H180.854V45.86H182.954L183.276 43.2H184.046L183.71 45.86H186.594L186.916 43.2H187.672L187.35 45.86H189.324V46.63H187.252ZM186.496 46.63H183.626L183.248 49.57H186.132L186.496 46.63ZM197.168 52.104V53H190.294V52.286L194.368 48.296C194.881 47.792 195.227 47.358 195.404 46.994C195.591 46.6207 195.684 46.2473 195.684 45.874C195.684 45.2953 195.483 44.8473 195.082 44.53C194.69 44.2033 194.125 44.04 193.388 44.04C192.24 44.04 191.349 44.404 190.714 45.132L190 44.516C190.383 44.068 190.868 43.7227 191.456 43.48C192.053 43.2373 192.725 43.116 193.472 43.116C194.471 43.116 195.259 43.354 195.838 43.83C196.426 44.2967 196.72 44.9407 196.72 45.762C196.72 46.266 196.608 46.7513 196.384 47.218C196.16 47.6847 195.735 48.2213 195.11 48.828L191.778 52.104H197.168ZM201.009 47.218C202.428 47.218 203.459 47.4747 204.103 47.988C204.756 48.492 205.083 49.2013 205.083 50.116C205.083 50.6853 204.948 51.194 204.677 51.642C204.416 52.09 204.019 52.4447 203.487 52.706C202.955 52.958 202.302 53.084 201.527 53.084C200.827 53.084 200.16 52.972 199.525 52.748C198.9 52.5147 198.396 52.2067 198.013 51.824L198.503 51.026C198.83 51.362 199.259 51.6373 199.791 51.852C200.323 52.0573 200.897 52.16 201.513 52.16C202.325 52.16 202.95 51.978 203.389 51.614C203.837 51.25 204.061 50.7647 204.061 50.158C204.061 49.486 203.809 48.9773 203.305 48.632C202.81 48.2867 201.97 48.114 200.785 48.114H198.699L199.203 43.2H204.565V44.096H200.085L199.749 47.218H201.009ZM212.986 52.104V53H206.112V52.286L210.186 48.296C210.7 47.792 211.045 47.358 211.222 46.994C211.409 46.6207 211.502 46.2473 211.502 45.874C211.502 45.2953 211.302 44.8473 210.9 44.53C210.508 44.2033 209.944 44.04 209.206 44.04C208.058 44.04 207.167 44.404 206.532 45.132L205.818 44.516C206.201 44.068 206.686 43.7227 207.274 43.48C207.872 43.2373 208.544 43.116 209.29 43.116C210.289 43.116 211.078 43.354 211.656 43.83C212.244 44.2967 212.538 44.9407 212.538 45.762C212.538 46.266 212.426 46.7513 212.202 47.218C211.978 47.6847 211.554 48.2213 210.928 48.828L207.596 52.104H212.986ZM217.303 43.116C218.601 43.116 219.595 43.5453 220.285 44.404C220.976 45.2533 221.321 46.4573 221.321 48.016C221.321 49.108 221.135 50.032 220.761 50.788C220.388 51.544 219.865 52.118 219.193 52.51C218.521 52.8927 217.737 53.084 216.841 53.084C215.871 53.084 215.096 52.9067 214.517 52.552L214.923 51.74C215.39 52.048 216.025 52.202 216.827 52.202C217.91 52.202 218.759 51.8613 219.375 51.18C219.991 50.4893 220.299 49.4907 220.299 48.184C220.299 47.9413 220.285 47.6753 220.257 47.386C220.015 47.918 219.627 48.3333 219.095 48.632C218.563 48.9213 217.952 49.066 217.261 49.066C216.617 49.066 216.043 48.9447 215.539 48.702C215.045 48.4593 214.657 48.1187 214.377 47.68C214.097 47.232 213.957 46.714 213.957 46.126C213.957 45.5287 214.102 45.0013 214.391 44.544C214.681 44.0867 215.077 43.7367 215.581 43.494C216.095 43.242 216.669 43.116 217.303 43.116ZM217.415 48.212C217.91 48.212 218.344 48.1187 218.717 47.932C219.1 47.7453 219.399 47.4887 219.613 47.162C219.828 46.8353 219.935 46.4713 219.935 46.07C219.935 45.6967 219.833 45.3513 219.627 45.034C219.431 44.7167 219.137 44.46 218.745 44.264C218.353 44.068 217.887 43.97 217.345 43.97C216.636 43.97 216.057 44.166 215.609 44.558C215.171 44.9407 214.951 45.454 214.951 46.098C214.951 46.742 215.171 47.2553 215.609 47.638C216.057 48.0207 216.659 48.212 217.415 48.212ZM225.978 47.4C227.005 47.456 227.784 47.736 228.316 48.24C228.857 48.7347 229.128 49.3833 229.128 50.186C229.128 50.746 228.993 51.2453 228.722 51.684C228.451 52.1133 228.05 52.454 227.518 52.706C226.986 52.958 226.337 53.084 225.572 53.084C224.863 53.084 224.191 52.972 223.556 52.748C222.931 52.5147 222.427 52.2067 222.044 51.824L222.534 51.026C222.861 51.362 223.295 51.6373 223.836 51.852C224.377 52.0573 224.956 52.16 225.572 52.16C226.375 52.16 226.995 51.9873 227.434 51.642C227.873 51.2873 228.092 50.802 228.092 50.186C228.092 49.5793 227.873 49.1033 227.434 48.758C226.995 48.4127 226.333 48.24 225.446 48.24H224.746V47.498L227.462 44.096H222.45V43.2H228.75V43.914L225.978 47.4ZM237.172 52.104V53H230.298V52.286L234.372 48.296C234.885 47.792 235.231 47.358 235.408 46.994C235.595 46.6207 235.688 46.2473 235.688 45.874C235.688 45.2953 235.487 44.8473 235.086 44.53C234.694 44.2033 234.129 44.04 233.392 44.04C232.244 44.04 231.353 44.404 230.718 45.132L230.004 44.516C230.387 44.068 230.872 43.7227 231.46 43.48C232.057 43.2373 232.729 43.116 233.476 43.116C234.475 43.116 235.263 43.354 235.842 43.83C236.43 44.2967 236.724 44.9407 236.724 45.762C236.724 46.266 236.612 46.7513 236.388 47.218C236.164 47.6847 235.739 48.2213 235.114 48.828L231.782 52.104H237.172Z" fill="white"/>
<rect width="164" height="161.667" transform="translate(164 161.667)" fill="white"/>
<path d="M195.638 182.867L192.39 192.667H190.458L188.036 185.415L185.572 192.667H183.626L180.378 182.867H182.268L184.704 190.315L187.238 182.867H188.918L191.396 190.357L193.902 182.867H195.638ZM205.829 182.867V192.667H204.009V188.467H198.941V192.667H197.121V182.867H198.941V186.913H204.009V182.867H205.829ZM208.455 182.867H210.275V192.667H208.455V182.867ZM214.913 184.407H211.665V182.867H219.981V184.407H216.733V192.667H214.913V184.407ZM228.697 191.141V192.667H221.347V182.867H228.501V184.393H223.167V186.941H227.899V188.439H223.167V191.141H228.697Z" fill="#333333"/>
<path d="M187.252 208.297L186.888 211.237H188.876V212.007H186.79L186.468 214.667H185.712L186.034 212.007H183.164L182.828 214.667H182.072L182.394 212.007H180.406V211.237H182.492L182.856 208.297H180.854V207.527H182.954L183.276 204.867H184.046L183.71 207.527H186.594L186.916 204.867H187.672L187.35 207.527H189.324V208.297H187.252ZM186.496 208.297H183.626L183.248 211.237H186.132L186.496 208.297ZM192.38 205.763V209.613H197.448V210.509H192.38V214.667H191.344V204.867H198.064V205.763H192.38ZM201.239 205.763V209.613H206.307V210.509H201.239V214.667H200.203V204.867H206.923V205.763H201.239ZM210.099 205.763V209.613H215.167V210.509H210.099V214.667H209.063V204.867H215.783V205.763H210.099ZM218.958 205.763V209.613H224.026V210.509H218.958V214.667H217.922V204.867H224.642V205.763H218.958ZM227.818 205.763V209.613H232.886V210.509H227.818V214.667H226.782V204.867H233.502V205.763H227.818ZM236.677 205.763V209.613H241.745V210.509H236.677V214.667H235.641V204.867H242.361V205.763H236.677Z" fill="#333333"/>
<rect width="164" height="161.667" transform="translate(164 323.333)" fill="#195962"/>
<path d="M188.26 349.237C188.801 349.415 189.231 349.713 189.548 350.133C189.865 350.544 190.024 351.057 190.024 351.673C190.024 352.523 189.697 353.181 189.044 353.647C188.391 354.105 187.439 354.333 186.188 354.333H181.316V344.533H185.908C187.065 344.533 187.957 344.762 188.582 345.219C189.207 345.667 189.52 346.288 189.52 347.081C189.52 347.567 189.408 347.996 189.184 348.369C188.96 348.743 188.652 349.032 188.26 349.237ZM183.136 345.961V348.663H185.712C186.347 348.663 186.832 348.551 187.168 348.327C187.513 348.094 187.686 347.758 187.686 347.319C187.686 346.871 187.513 346.535 187.168 346.311C186.832 346.078 186.347 345.961 185.712 345.961H183.136ZM186.076 352.905C187.485 352.905 188.19 352.434 188.19 351.491C188.19 350.549 187.485 350.077 186.076 350.077H183.136V352.905H186.076ZM191.966 344.533H193.786V352.793H198.91V354.333H191.966V344.533ZM204.425 354.473C203.071 354.473 202.017 354.095 201.261 353.339C200.505 352.574 200.127 351.482 200.127 350.063V344.533H201.947V349.993C201.947 351.916 202.777 352.877 204.439 352.877C206.091 352.877 206.917 351.916 206.917 349.993V344.533H208.709V350.063C208.709 351.482 208.331 352.574 207.575 353.339C206.828 354.095 205.778 354.473 204.425 354.473ZM220.259 354.333L220.245 347.837L217.025 353.213H216.213L212.993 347.921V354.333H211.257V344.533H212.755L216.647 351.029L220.469 344.533H221.967L221.981 354.333H220.259ZM224.629 344.533H226.449V354.333H224.629V344.533ZM237.807 344.533V354.333H236.309L230.905 347.697V354.333H229.099V344.533H230.597L236.001 351.169V344.533H237.807ZM247.783 352.807V354.333H240.433V344.533H247.587V346.059H242.253V348.607H246.985V350.105H242.253V352.807H247.783Z" fill="white"/>
<path d="M187.252 369.963L186.888 372.903H188.876V373.673H186.79L186.468 376.333H185.712L186.034 373.673H183.164L182.828 376.333H182.072L182.394 373.673H180.406V372.903H182.492L182.856 369.963H180.854V369.193H182.954L183.276 366.533H184.046L183.71 369.193H186.594L186.916 366.533H187.672L187.35 369.193H189.324V369.963H187.252ZM186.496 369.963H183.626L183.248 372.903H186.132L186.496 369.963ZM193.192 366.533V376.333H192.184V367.429H189.874V366.533H193.192ZM198.587 366.449C199.884 366.449 200.878 366.879 201.569 367.737C202.259 368.587 202.605 369.791 202.605 371.349C202.605 372.441 202.418 373.365 202.045 374.121C201.671 374.877 201.149 375.451 200.477 375.843C199.805 376.226 199.021 376.417 198.125 376.417C197.154 376.417 196.379 376.24 195.801 375.885L196.207 375.073C196.673 375.381 197.308 375.535 198.111 375.535C199.193 375.535 200.043 375.195 200.659 374.513C201.275 373.823 201.583 372.824 201.583 371.517C201.583 371.275 201.569 371.009 201.541 370.719C201.298 371.251 200.911 371.667 200.379 371.965C199.847 372.255 199.235 372.399 198.545 372.399C197.901 372.399 197.327 372.278 196.823 372.035C196.328 371.793 195.941 371.452 195.661 371.013C195.381 370.565 195.241 370.047 195.241 369.459C195.241 368.862 195.385 368.335 195.675 367.877C195.964 367.42 196.361 367.07 196.865 366.827C197.378 366.575 197.952 366.449 198.587 366.449ZM198.699 371.545C199.193 371.545 199.627 371.452 200.001 371.265C200.383 371.079 200.682 370.822 200.897 370.495C201.111 370.169 201.219 369.805 201.219 369.403C201.219 369.03 201.116 368.685 200.911 368.367C200.715 368.05 200.421 367.793 200.029 367.597C199.637 367.401 199.17 367.303 198.629 367.303C197.919 367.303 197.341 367.499 196.893 367.891C196.454 368.274 196.235 368.787 196.235 369.431C196.235 370.075 196.454 370.589 196.893 370.971C197.341 371.354 197.943 371.545 198.699 371.545ZM206.642 370.551C208.061 370.551 209.092 370.808 209.736 371.321C210.389 371.825 210.716 372.535 210.716 373.449C210.716 374.019 210.581 374.527 210.31 374.975C210.049 375.423 209.652 375.778 209.12 376.039C208.588 376.291 207.935 376.417 207.16 376.417C206.46 376.417 205.793 376.305 205.158 376.081C204.533 375.848 204.029 375.54 203.646 375.157L204.136 374.359C204.463 374.695 204.892 374.971 205.424 375.185C205.956 375.391 206.53 375.493 207.146 375.493C207.958 375.493 208.583 375.311 209.022 374.947C209.47 374.583 209.694 374.098 209.694 373.491C209.694 372.819 209.442 372.311 208.938 371.965C208.443 371.62 207.603 371.447 206.418 371.447H204.332L204.836 366.533H210.198V367.429H205.718L205.382 370.551H206.642ZM215.048 366.449C216.345 366.449 217.339 366.879 218.03 367.737C218.72 368.587 219.066 369.791 219.066 371.349C219.066 372.441 218.879 373.365 218.506 374.121C218.132 374.877 217.61 375.451 216.938 375.843C216.266 376.226 215.482 376.417 214.586 376.417C213.615 376.417 212.84 376.24 212.262 375.885L212.668 375.073C213.134 375.381 213.769 375.535 214.572 375.535C215.654 375.535 216.504 375.195 217.12 374.513C217.736 373.823 218.044 372.824 218.044 371.517C218.044 371.275 218.03 371.009 218.002 370.719C217.759 371.251 217.372 371.667 216.84 371.965C216.308 372.255 215.696 372.399 215.006 372.399C214.362 372.399 213.788 372.278 213.284 372.035C212.789 371.793 212.402 371.452 212.122 371.013C211.842 370.565 211.702 370.047 211.702 369.459C211.702 368.862 211.846 368.335 212.136 367.877C212.425 367.42 212.822 367.07 213.326 366.827C213.839 366.575 214.413 366.449 215.048 366.449ZM215.16 371.545C215.654 371.545 216.088 371.452 216.462 371.265C216.844 371.079 217.143 370.822 217.358 370.495C217.572 370.169 217.68 369.805 217.68 369.403C217.68 369.03 217.577 368.685 217.372 368.367C217.176 368.05 216.882 367.793 216.49 367.597C216.098 367.401 215.631 367.303 215.09 367.303C214.38 367.303 213.802 367.499 213.354 367.891C212.915 368.274 212.696 368.787 212.696 369.431C212.696 370.075 212.915 370.589 213.354 370.971C213.802 371.354 214.404 371.545 215.16 371.545ZM224.587 370.467C225.231 370.467 225.8 370.589 226.295 370.831C226.799 371.074 227.191 371.419 227.471 371.867C227.751 372.306 227.891 372.819 227.891 373.407C227.891 374.005 227.746 374.532 227.457 374.989C227.167 375.447 226.766 375.801 226.253 376.053C225.749 376.296 225.179 376.417 224.545 376.417C223.247 376.417 222.253 375.993 221.563 375.143C220.872 374.285 220.527 373.076 220.527 371.517C220.527 370.425 220.713 369.501 221.087 368.745C221.46 367.989 221.983 367.42 222.655 367.037C223.327 366.645 224.111 366.449 225.007 366.449C225.977 366.449 226.752 366.627 227.331 366.981L226.925 367.793C226.458 367.485 225.823 367.331 225.021 367.331C223.938 367.331 223.089 367.677 222.473 368.367C221.857 369.049 221.549 370.043 221.549 371.349C221.549 371.583 221.563 371.849 221.591 372.147C221.833 371.615 222.221 371.205 222.753 370.915C223.285 370.617 223.896 370.467 224.587 370.467ZM224.503 375.563C225.212 375.563 225.786 375.372 226.225 374.989C226.673 374.597 226.897 374.079 226.897 373.435C226.897 372.791 226.673 372.278 226.225 371.895C225.786 371.513 225.189 371.321 224.433 371.321C223.938 371.321 223.499 371.415 223.117 371.601C222.743 371.788 222.449 372.045 222.235 372.371C222.02 372.698 221.913 373.062 221.913 373.463C221.913 373.837 222.011 374.182 222.207 374.499C222.412 374.817 222.711 375.073 223.103 375.269C223.495 375.465 223.961 375.563 224.503 375.563ZM235.75 375.437V376.333H228.876V375.619L232.95 371.629C233.463 371.125 233.809 370.691 233.986 370.327C234.173 369.954 234.266 369.581 234.266 369.207C234.266 368.629 234.065 368.181 233.664 367.863C233.272 367.537 232.707 367.373 231.97 367.373C230.822 367.373 229.931 367.737 229.296 368.465L228.582 367.849C228.965 367.401 229.45 367.056 230.038 366.813C230.635 366.571 231.307 366.449 232.054 366.449C233.053 366.449 233.841 366.687 234.42 367.163C235.008 367.63 235.302 368.274 235.302 369.095C235.302 369.599 235.19 370.085 234.966 370.551C234.742 371.018 234.317 371.555 233.692 372.161L230.36 375.437H235.75Z" fill="white"/>
</svg>
