<svg width="1200" height="620" viewBox="0 0 1200 620" fill="none" xmlns="http://www.w3.org/2000/svg">
<rect width="1200" height="620" rx="50" fill="#1A1A1A"/>
<path d="M455.05 249V273.075C447.264 262.893 436.48 255.405 424.215 251.666C411.949 247.928 398.819 248.125 386.672 252.231C374.523 256.337 363.97 264.146 356.495 274.558C349.021 284.97 345 297.462 345 310.276C345 323.09 349.021 335.582 356.495 345.994C363.97 356.406 374.523 364.214 386.672 368.321C398.819 372.427 411.949 372.624 424.215 368.886C436.48 365.147 447.264 357.658 455.05 347.476V371.552H467.559V249.05L455.05 249ZM404.536 360.827C394.527 360.842 384.74 357.89 376.41 352.343C368.081 346.798 361.586 338.908 357.745 329.673C353.904 320.437 352.892 310.271 354.835 300.46C356.779 290.649 361.592 281.634 368.663 274.558C375.735 267.481 384.749 262.659 394.564 260.703C404.379 258.745 414.555 259.742 423.803 263.566C433.051 267.39 440.957 273.87 446.519 282.184C452.081 290.499 455.049 300.275 455.05 310.276C455.036 323.666 449.713 336.505 440.245 345.98C430.776 355.454 417.936 360.793 404.536 360.827Z" fill="white"/>
<path d="M404.537 266.376C395.841 266.376 387.342 268.953 380.113 273.781C372.882 278.609 367.249 285.47 363.922 293.497C360.596 301.525 359.727 310.359 361.424 318.88C363.123 327.402 367.312 335.229 373.462 341.371C379.612 347.513 387.448 351.695 395.977 353.387C404.505 355.078 413.345 354.205 421.376 350.876C429.409 347.548 436.272 341.914 441.099 334.688C445.927 327.46 448.501 318.965 448.496 310.277C448.476 298.635 443.837 287.477 435.597 279.247C427.356 271.018 416.186 266.389 404.537 266.376ZM405.563 301.176C412.167 301.176 420.574 291.176 420.574 291.176L405.563 317.102L390.551 291.176C390.551 291.176 398.958 301.176 405.563 301.176ZM420.574 315.301C413.968 315.301 405.563 325.301 405.563 325.301C405.563 325.301 397.182 315.301 390.551 315.301C383.921 315.301 375.54 325.301 375.54 325.301L390.551 299.376L405.563 325.301L420.574 299.376L435.535 325.451C435.535 325.451 427.154 315.301 420.549 315.301H420.574Z" fill="white"/>
<path d="M520.1 287.8H535.511L538.663 297.95H550.748L534.985 252.95H520.925L505.088 297.95H516.897L520.1 287.8ZM527.805 261.625L533.334 279.826H522.276L527.805 261.625Z" fill="white"/>
<path d="M567.636 281.526H574.666L584.174 297.95H597.134L585.375 279.725C587.065 279.18 588.641 278.333 590.028 277.226C591.529 275.936 592.71 274.318 593.479 272.495C594.247 270.674 594.582 268.698 594.457 266.725C594.519 264.828 594.149 262.941 593.372 261.209C592.596 259.476 591.435 257.943 589.978 256.725C586.395 254.013 581.956 252.674 577.469 252.949H556.002V297.95H567.636V281.526ZM567.636 261.825H575.968C577.742 261.723 579.5 262.206 580.972 263.2C581.569 263.736 582.035 264.403 582.33 265.15C582.625 265.896 582.742 266.7 582.673 267.5C582.749 268.311 582.633 269.128 582.338 269.889C582.043 270.647 581.575 271.328 580.972 271.875C579.5 272.871 577.742 273.355 575.968 273.25H567.636V261.825Z" fill="white"/>
<path d="M610.92 295.877C614.555 297.789 618.622 298.736 622.729 298.626C625.697 298.66 628.651 298.187 631.461 297.227C634.061 296.323 636.404 294.805 638.291 292.801C640.294 290.601 641.722 287.938 642.443 285.051L631.786 282.051C631.433 284.207 630.335 286.171 628.683 287.601C627.094 288.822 625.133 289.458 623.129 289.401C621.072 289.471 619.041 288.922 617.299 287.826C615.656 286.677 614.427 285.029 613.796 283.127C612.976 280.653 612.595 278.056 612.671 275.451C612.588 272.811 613.012 270.18 613.921 267.701C614.58 265.813 615.827 264.187 617.481 263.062C619.133 261.936 621.105 261.372 623.104 261.45C625.036 261.376 626.941 261.929 628.533 263.025C630.225 264.529 631.325 266.585 631.636 268.825L641.943 264.676C641.296 262.033 639.958 259.608 638.065 257.651C636.186 255.798 633.898 254.411 631.386 253.601C628.591 252.692 625.667 252.244 622.729 252.276C618.645 252.171 614.605 253.118 610.995 255.026C607.68 256.824 604.992 259.588 603.288 262.95C601.418 266.846 600.508 271.132 600.637 275.451C600.508 279.769 601.418 284.056 603.288 287.951C604.971 291.304 607.632 294.068 610.92 295.877Z" fill="white"/>
<path d="M660.76 279.826H677.94V297.95H689.678V252.95H677.94V270.75H660.76V252.95H648.997V297.95H660.76V279.826Z" fill="white"/>
<path d="M711.372 252.95H699.633V297.95H711.372V252.95Z" fill="white"/>
<path d="M729.74 295.877C733.371 297.789 737.431 298.737 741.538 298.627C744.515 298.66 747.468 298.187 750.277 297.227C752.873 296.324 755.218 294.806 757.111 292.802C759.111 290.601 760.54 287.938 761.254 285.051L750.599 282.051C750.253 284.208 749.146 286.171 747.503 287.601C745.908 288.822 743.944 289.459 741.943 289.402C739.884 289.472 737.86 288.923 736.11 287.826C734.467 286.678 733.24 285.03 732.609 283.127C731.776 280.647 731.395 278.041 731.466 275.427C731.371 272.786 731.8 270.156 732.717 267.676C733.371 265.789 734.621 264.163 736.264 263.038C737.919 261.912 739.896 261.347 741.896 261.426C743.824 261.352 745.729 261.905 747.325 263.001C749.015 264.505 750.111 266.561 750.42 268.801L760.73 264.651C760.087 262.008 758.742 259.584 756.849 257.626C754.98 255.773 752.682 254.387 750.17 253.576C747.384 252.667 744.455 252.219 741.515 252.252C737.431 252.147 733.395 253.094 729.788 255.001C726.478 256.81 723.799 259.583 722.109 262.951C720.228 266.847 719.323 271.133 719.454 275.452C719.323 279.77 720.228 284.057 722.109 287.951C723.787 291.304 726.442 294.069 729.74 295.877Z" fill="white"/>
<path d="M778.947 252.95L763.112 297.95H774.923L778.125 287.8H793.531L796.686 297.95H808.77L793.007 252.95H778.947ZM780.304 279.826L785.828 261.625L791.352 279.826H780.304Z" fill="white"/>
<path d="M849.32 258.825C847.177 256.78 844.642 255.202 841.844 254.191C839.058 253.179 836.093 252.757 833.141 252.95H814.021V297.951H833.141C836.105 298.149 839.07 297.728 841.868 296.717C844.654 295.705 847.201 294.125 849.356 292.076C853.333 287.487 855.345 281.513 854.952 275.451C855.345 269.384 853.321 263.41 849.32 258.825ZM840.344 285.651C839.332 286.852 838.046 287.793 836.582 288.393C835.129 288.994 833.558 289.237 831.986 289.101H825.783V261.826H831.986C833.558 261.691 835.129 261.934 836.582 262.535C838.046 263.134 839.332 264.075 840.344 265.276C842.249 268.31 843.13 271.878 842.844 275.451C843.13 279.032 842.261 282.61 840.344 285.651Z" fill="white"/>
<path d="M538.866 337.952L536.264 347.452H536.139L533.611 337.902L526.506 314.977H509.794V359.978H520.227V339.327L519.901 325.476H520.027L531.16 359.978H540.643L551.775 325.476H551.9L551.55 339.327V359.978H561.933V314.977H545.896L538.866 337.952Z" fill="white"/>
<path d="M583.023 314.977L567.187 359.978H578.996L582.198 349.828H597.66L600.788 359.978H612.872L597.11 314.977H583.023ZM584.375 341.852L589.904 323.652L595.434 341.852H584.375Z" fill="white"/>
<path d="M631.185 323.927C632.514 323.521 633.901 323.335 635.289 323.377C637.93 323.328 640.549 323.847 642.969 324.902C645.347 326.018 647.486 327.579 649.272 329.502L654.927 322.002C652.594 319.519 649.736 317.573 646.572 316.302C643.038 314.946 639.275 314.283 635.489 314.351C631.917 314.261 628.366 314.908 625.056 316.251C622.387 317.339 620.074 319.149 618.376 321.476C616.833 323.672 616.019 326.294 616.05 328.976C615.961 331.185 616.556 333.367 617.751 335.227C618.939 336.928 620.551 338.29 622.429 339.177C624.591 340.219 626.866 341.008 629.209 341.527L637.54 343.377C638.951 343.609 640.283 344.184 641.418 345.052C641.761 345.37 642.029 345.758 642.206 346.19C642.384 346.621 642.465 347.086 642.444 347.553C642.462 348.366 642.197 349.161 641.694 349.802C641.076 350.51 640.255 351.007 639.342 351.227C638.037 351.575 636.689 351.735 635.339 351.703C633.297 351.705 631.266 351.411 629.309 350.827C627.388 350.238 625.555 349.397 623.855 348.327C622.282 347.383 620.864 346.203 619.652 344.827L613.997 352.677C615.616 354.357 617.479 355.782 619.527 356.902C621.845 358.179 624.329 359.13 626.907 359.727C629.727 360.4 632.616 360.736 635.514 360.727C638.868 360.785 642.201 360.217 645.347 359.053C648.034 358.063 650.367 356.328 652.106 354.052C653.796 351.708 654.677 348.87 654.606 345.978C654.665 344.489 654.415 343.005 653.868 341.621C653.308 340.238 652.475 338.987 651.403 337.952C648.522 335.571 645.075 333.993 641.393 333.377L633.888 331.676C632.35 331.406 630.879 330.837 629.56 330.002C629.145 329.731 628.805 329.36 628.574 328.923C628.342 328.486 628.224 327.997 628.234 327.501C628.221 326.723 628.458 325.961 628.909 325.327C629.507 324.638 630.302 324.15 631.185 323.927Z" fill="white"/>
<path d="M657.807 324.051H672.546V359.978H684.297V324.051H698.964V314.977H657.807V324.051Z" fill="white"/>
<path d="M717.37 341.702H735.943V333.177H717.37V324.051H740.717V314.977H705.644V359.978H741.622V350.927H717.37V341.702Z" fill="white"/>
<path d="M782.804 339.327C784.304 338.037 785.482 336.42 786.256 334.597C787.018 332.775 787.352 330.799 787.232 328.826C787.292 326.929 786.923 325.042 786.149 323.31C785.363 321.577 784.209 320.044 782.744 318.826C779.161 316.114 774.732 314.775 770.243 315.05H748.754V360.051H760.279V343.552H767.315L776.922 359.977H789.876L778.125 341.751C779.815 341.232 781.399 340.41 782.804 339.327ZM760.279 323.851H768.612C770.386 323.749 772.148 324.232 773.613 325.226C774.22 325.762 774.684 326.429 774.982 327.176C775.268 327.922 775.386 328.726 775.315 329.527C775.398 330.337 775.279 331.156 774.982 331.915C774.684 332.674 774.22 333.354 773.613 333.901C772.148 334.897 770.386 335.381 768.612 335.277H760.279V323.851Z" fill="white"/>
</svg>
