<svg width="328" height="290" viewBox="0 0 328 290" fill="none" xmlns="http://www.w3.org/2000/svg">
<rect width="328" height="290" rx="30" fill="#F4F4F4"/>
<path d="M212.346 55.5898H203.89L219.217 82.575L203.89 109.56H212.346L227.678 82.575L212.346 55.5898Z" fill="#3FD4B5"/>
<path d="M122.085 109.56L106.754 82.575L122.085 55.5898H113.627L98.2964 82.575L113.627 109.56H122.085Z" fill="#3FD4B5"/>
<path d="M183.669 46.3269L163.053 82.5757L183.669 118.824L204.153 82.5757L183.669 46.3269Z" fill="#68605B"/>
<path d="M132.128 82.5756H121.82L126.974 73.5806H137.282L132.128 82.5756Z" fill="#2B8F7B"/>
<path d="M142.436 82.5756H132.128L137.282 73.5806H147.591L142.436 82.5756Z" fill="#37A78F"/>
<path d="M152.744 82.5756H142.436L147.59 73.5806H157.898L152.744 82.5756Z" fill="#9CEEC6"/>
<path d="M163.053 82.5756H152.745L157.898 73.5806H168.207L163.053 82.5756Z" fill="#70D0BC"/>
<path d="M137.282 73.5808H126.974L132.128 64.4514H142.436L137.282 73.5808Z" fill="#37A78F"/>
<path d="M147.59 73.5808H137.282L142.436 64.4514H152.745L147.59 73.5808Z" fill="#9CEEC6"/>
<path d="M157.899 73.5808H147.591L152.745 64.4514H163.053L157.899 73.5808Z" fill="#2B8F7B"/>
<path d="M168.206 73.5808H157.898L163.053 64.4514H173.361L168.206 73.5808Z" fill="#9CEEC6"/>
<path d="M142.436 64.4511H132.128L137.282 55.3218H147.591L142.436 64.4511Z" fill="#2B8F7B"/>
<path d="M152.744 64.4511H142.436L147.59 55.3218L157.898 55.4561L152.744 64.4511Z" fill="#70D0BC"/>
<path d="M163.053 64.4506H152.745L157.898 55.4556H168.207L163.053 64.4506Z" fill="#37A78F"/>
<path d="M173.361 64.4506H163.053L168.207 55.4556H178.515L173.361 64.4506Z" fill="#70D0BC"/>
<path d="M147.59 55.322H137.282L142.436 46.3269H152.745L147.59 55.322Z" fill="#9CEEC6"/>
<path d="M157.899 55.4562L147.591 55.322L152.745 46.3269H163.053L157.899 55.4562Z" fill="#2B8F7B"/>
<path d="M168.206 55.4562H157.898L163.053 46.3269H173.361L168.206 55.4562Z" fill="#9CEEC6"/>
<path d="M178.515 55.4562H168.207L173.361 46.3269H183.669L178.515 55.4562Z" fill="#37A78F"/>
<path d="M163.075 82.5757H121.687L142.304 118.824H183.672L163.075 82.5757Z" fill="#9F877D"/>
<path d="M131.996 82.5757H121.687L126.841 91.705H137.149L131.996 82.5757Z" fill="#37A78F"/>
<path d="M142.304 82.5757H131.996L137.149 91.705H147.59L142.304 82.5757Z" fill="#2B8F7B"/>
<path d="M152.745 82.5757H142.304L147.591 91.705H157.899L152.745 82.5757Z" fill="#3F9F8C"/>
<path d="M163.053 82.5757H152.745L157.898 91.705H168.207L163.053 82.5757Z" fill="#37A78F"/>
<path d="M173.361 82.5758L168.207 73.4465L173.361 64.4514L178.515 73.4465L173.361 82.5758Z" fill="#3F9F8C"/>
<path d="M178.515 73.4457L173.361 64.4511L178.515 55.3218L183.669 64.4511L178.515 73.4457Z" fill="#2B8F7B"/>
<path d="M183.669 64.4513L178.516 55.322L183.669 46.3269L188.824 55.322L183.669 64.4513Z" fill="#9CEEC6"/>
<path d="M168.207 91.7045L163.053 82.5751L168.207 73.4458L173.361 82.5751L168.207 91.7045Z" fill="#2B8F7B"/>
<path d="M83.5127 181.485V136.32H100.391C104.723 136.32 108.035 137.572 110.328 140.073C112.621 142.576 113.768 145.983 113.768 150.297C113.768 154.611 112.621 158.019 110.328 160.521C108.035 163.022 104.723 164.274 100.391 164.274H91.8567V181.485H83.5127ZM91.8567 157.35H98.672C100.923 157.35 102.536 156.897 103.513 155.991C104.489 155.042 104.978 153.554 104.978 151.526V149.068C104.978 147.04 104.489 145.574 103.513 144.668C102.536 143.719 100.923 143.244 98.672 143.244H91.8567V157.35ZM130.049 181.485H121.705V136.32H138.584C142.915 136.32 146.227 137.572 148.52 140.073C150.813 142.576 151.96 145.983 151.96 150.297C151.96 153.619 151.196 156.422 149.667 158.709C148.181 160.952 146.036 162.376 143.234 162.98L152.724 181.485H143.552L135.081 163.95H130.049V181.485ZM136.864 157.35C139.115 157.35 140.728 156.897 141.705 155.991C142.682 155.042 143.17 153.554 143.17 151.526V149.068C143.17 147.04 142.682 145.574 141.705 144.668C140.728 143.719 139.115 143.244 136.864 143.244H130.049V157.35H136.864ZM173.91 182.262C171.023 182.262 168.517 181.744 166.394 180.709C164.271 179.631 162.509 178.099 161.107 176.115C159.749 174.13 158.729 171.693 158.05 168.803C157.413 165.913 157.094 162.613 157.094 158.903C157.094 155.236 157.413 151.958 158.05 149.068C158.729 146.134 159.749 143.675 161.107 141.691C162.509 139.707 164.271 138.197 166.394 137.162C168.517 136.083 171.023 135.544 173.91 135.544C179.685 135.544 183.931 137.593 186.649 141.691C189.367 145.789 190.725 151.526 190.725 158.903C190.725 166.279 189.367 172.017 186.649 176.115C183.931 180.213 179.685 182.262 173.91 182.262ZM173.91 175.338C175.396 175.338 176.649 175.058 177.668 174.498C178.687 173.893 179.494 173.052 180.088 171.974C180.725 170.895 181.171 169.58 181.426 168.027C181.723 166.43 181.872 164.662 181.872 162.721V155.021C181.872 151.139 181.277 148.076 180.088 145.833C178.942 143.589 176.882 142.468 173.91 142.468C170.937 142.468 168.857 143.589 167.668 145.833C166.521 148.076 165.948 151.139 165.948 155.021V162.786C165.948 166.668 166.521 169.731 167.668 171.974C168.857 174.217 170.937 175.338 173.91 175.338ZM219.812 175.209H219.302C218.916 176.115 218.45 176.999 217.901 177.862C217.346 178.725 216.668 179.48 215.861 180.127C215.054 180.774 214.098 181.291 212.994 181.679C211.93 182.068 210.702 182.262 209.301 182.262C204.801 182.262 201.38 180.256 199.045 176.244C196.752 172.19 195.605 166.517 195.605 159.227C195.605 151.548 196.964 145.682 199.682 141.626C202.4 137.572 206.583 135.544 212.232 135.544C214.44 135.544 216.371 135.846 218.024 136.45C219.723 137.054 221.168 137.895 222.356 138.973C223.589 140.052 224.584 141.346 225.352 142.856C226.159 144.323 226.792 145.919 227.263 147.644L219.619 149.844C219.322 148.895 218.98 147.968 218.599 147.062C218.257 146.156 217.792 145.379 217.198 144.733C216.648 144.042 215.965 143.503 215.158 143.115C214.351 142.683 213.356 142.468 212.168 142.468C209.405 142.468 207.43 143.589 206.242 145.833C205.053 148.076 204.459 151.139 204.459 155.021V162.268C204.459 164.209 204.588 165.999 204.84 167.638C205.138 169.234 205.603 170.615 206.242 171.78C206.88 172.944 207.707 173.85 208.727 174.498C209.747 175.101 211.019 175.403 212.549 175.403C214.925 175.403 216.732 174.691 217.96 173.268C219.193 171.801 219.812 169.946 219.812 167.703V164.015H211.722V157.868H227.263V181.485H219.812V175.209Z" fill="#485FEB"/>
<path d="M134.884 223.887L130.235 230.099V243.687H121.891V198.523H130.235V218.84H130.617L135.776 211.334L145.14 198.523H154.566L140.617 217.546L155.204 243.687H145.776L134.884 223.887ZM160.401 243.687V237.346H170.402V204.864H160.401V198.523H188.682V204.864H178.682V237.346H188.682V243.687H160.401ZM198.275 198.523H212.098C217.871 198.523 222.163 200.464 224.965 204.346C227.807 208.229 229.233 213.815 229.233 221.105C229.233 228.438 227.807 234.046 224.965 237.929C222.163 241.768 217.871 243.687 212.098 243.687H198.275V198.523ZM211.524 236.893C214.583 236.893 216.831 235.88 218.277 233.853C219.762 231.825 220.505 228.87 220.505 224.988V217.158C220.505 213.319 219.762 210.385 218.277 208.358C216.831 206.331 214.583 205.317 211.524 205.317H206.494V236.893H211.524ZM250.417 244.464C246.595 244.464 243.328 243.796 240.61 242.458C237.931 241.121 235.748 239.352 234.045 237.152L239.08 231.846C240.734 233.788 242.521 235.233 244.432 236.182C246.382 237.087 248.462 237.541 250.67 237.541C253.22 237.541 255.175 236.958 256.532 235.793C257.888 234.629 258.571 232.946 258.571 230.746C258.571 228.935 258.061 227.576 257.042 226.67C256.022 225.721 254.304 225.052 251.883 224.664L247.17 223.887C243.051 223.154 240.12 221.644 238.377 219.358C236.639 217.029 235.768 214.289 235.768 211.14C235.768 206.827 237.149 203.527 239.907 201.241C242.669 198.911 246.491 197.746 251.373 197.746C254.853 197.746 257.848 198.307 260.354 199.428C262.903 200.55 264.938 202.081 266.468 204.023L261.562 209.329C260.373 207.905 258.953 206.783 257.294 205.964C255.64 205.101 253.685 204.67 251.437 204.67C246.595 204.67 244.174 206.697 244.174 210.752C244.174 212.478 244.684 213.793 245.704 214.699C246.724 215.605 248.462 216.274 250.927 216.705L255.576 217.546C259.443 218.28 262.304 219.725 264.176 221.882C266.042 224.039 266.978 226.799 266.978 230.164C266.978 232.278 266.616 234.219 265.894 235.988C265.171 237.713 264.111 239.223 262.71 240.517C261.309 241.768 259.566 242.738 257.487 243.429C255.447 244.119 253.091 244.464 250.417 244.464Z" fill="#3FD4B5"/>
</svg>
