<svg width="545" height="591" viewBox="0 0 545 591" fill="none" xmlns="http://www.w3.org/2000/svg">
<rect width="545" height="591" rx="50" fill="#E0E6EB"/>
<rect width="272.5" height="197" fill="#F4F6F8"/>
<path d="M32.852 44.14C31.8627 44.14 30.9667 43.9253 30.164 43.496C29.3707 43.0573 28.7453 42.4553 28.288 41.69C27.84 40.9247 27.616 40.0613 27.616 39.1C27.616 38.1387 27.8447 37.2753 28.302 36.51C28.7593 35.7447 29.3847 35.1473 30.178 34.718C30.9807 34.2793 31.8767 34.06 32.866 34.06C33.6687 34.06 34.4013 34.2 35.064 34.48C35.7267 34.76 36.2867 35.166 36.744 35.698L35.568 36.804C34.8587 36.0387 33.986 35.656 32.95 35.656C32.278 35.656 31.676 35.8053 31.144 36.104C30.612 36.3933 30.1967 36.7993 29.898 37.322C29.5993 37.8447 29.45 38.4373 29.45 39.1C29.45 39.7627 29.5993 40.3553 29.898 40.878C30.1967 41.4007 30.612 41.8113 31.144 42.11C31.676 42.3993 32.278 42.544 32.95 42.544C33.986 42.544 34.8587 42.1567 35.568 41.382L36.744 42.502C36.2867 43.034 35.722 43.44 35.05 43.72C34.3873 44 33.6547 44.14 32.852 44.14ZM38.4879 34.2H40.3079V42.46H45.4319V44H38.4879V34.2ZM51.269 44.14C50.2703 44.14 49.3697 43.9253 48.567 43.496C47.7643 43.0573 47.1343 42.4553 46.677 41.69C46.2197 40.9153 45.991 40.052 45.991 39.1C45.991 38.148 46.2197 37.2893 46.677 36.524C47.1343 35.7493 47.7643 35.1473 48.567 34.718C49.3697 34.2793 50.2703 34.06 51.269 34.06C52.2677 34.06 53.1683 34.2793 53.971 34.718C54.7737 35.1473 55.4037 35.7447 55.861 36.51C56.3183 37.2753 56.547 38.1387 56.547 39.1C56.547 40.0613 56.3183 40.9247 55.861 41.69C55.4037 42.4553 54.7737 43.0573 53.971 43.496C53.1683 43.9253 52.2677 44.14 51.269 44.14ZM51.269 42.544C51.9223 42.544 52.5103 42.3993 53.033 42.11C53.5557 41.8113 53.9663 41.4007 54.265 40.878C54.5637 40.346 54.713 39.7533 54.713 39.1C54.713 38.4467 54.5637 37.8587 54.265 37.336C53.9663 36.804 53.5557 36.3933 53.033 36.104C52.5103 35.8053 51.9223 35.656 51.269 35.656C50.6157 35.656 50.0277 35.8053 49.505 36.104C48.9823 36.3933 48.5717 36.804 48.273 37.336C47.9743 37.8587 47.825 38.4467 47.825 39.1C47.825 39.7533 47.9743 40.346 48.273 40.878C48.5717 41.4007 48.9823 41.8113 49.505 42.11C50.0277 42.3993 50.6157 42.544 51.269 42.544ZM62.6902 44.14C61.3368 44.14 60.2822 43.762 59.5262 43.006C58.7702 42.2407 58.3922 41.1487 58.3922 39.73V34.2H60.2122V39.66C60.2122 41.5827 61.0428 42.544 62.7042 42.544C64.3562 42.544 65.1822 41.5827 65.1822 39.66V34.2H66.9742V39.73C66.9742 41.1487 66.5962 42.2407 65.8402 43.006C65.0935 43.762 64.0435 44.14 62.6902 44.14ZM69.523 34.2H73.807C74.8524 34.2 75.781 34.4053 76.593 34.816C77.405 35.2173 78.035 35.7913 78.483 36.538C78.931 37.2753 79.155 38.1293 79.155 39.1C79.155 40.0707 78.931 40.9293 78.483 41.676C78.035 42.4133 77.405 42.9873 76.593 43.398C75.781 43.7993 74.8524 44 73.807 44H69.523V34.2ZM73.723 42.46C74.4417 42.46 75.0717 42.3247 75.613 42.054C76.1637 41.774 76.5837 41.382 76.873 40.878C77.1717 40.3647 77.321 39.772 77.321 39.1C77.321 38.428 77.1717 37.84 76.873 37.336C76.5837 36.8227 76.1637 36.4307 75.613 36.16C75.0717 35.88 74.4417 35.74 73.723 35.74H71.343V42.46H73.723Z" fill="#333333"/>
<path d="M34.252 61.63L33.888 64.57H35.876V65.34H33.79L33.468 68H32.712L33.034 65.34H30.164L29.828 68H29.072L29.394 65.34H27.406V64.57H29.492L29.856 61.63H27.854V60.86H29.954L30.276 58.2H31.046L30.71 60.86H33.594L33.916 58.2H34.672L34.35 60.86H36.324V61.63H34.252ZM33.496 61.63H30.626L30.248 64.57H33.132L33.496 61.63ZM45.274 67.104V68H38.344V58.2H45.064V59.096H39.38V62.582H44.448V63.464H39.38V67.104H45.274ZM53.6479 58.2V58.914L49.5459 68H48.4539L52.4859 59.096H47.4459V60.93H46.4519V58.2H53.6479ZM62.774 67.104V68H55.844V58.2H62.564V59.096H56.88V62.582H61.948V63.464H56.88V67.104H62.774ZM69.8459 62.862C70.4619 63.0673 70.9332 63.3753 71.2599 63.786C71.5959 64.1967 71.7639 64.6913 71.7639 65.27C71.7639 65.8393 71.6099 66.3387 71.3019 66.768C70.9939 67.188 70.5506 67.5147 69.9719 67.748C69.4026 67.972 68.7306 68.084 67.9559 68.084C66.7799 68.084 65.8559 67.832 65.1839 67.328C64.5119 66.824 64.1759 66.138 64.1759 65.27C64.1759 64.682 64.3346 64.1873 64.6519 63.786C64.9786 63.3753 65.4499 63.0673 66.0659 62.862C65.5619 62.666 65.1792 62.386 64.9179 62.022C64.6566 61.6487 64.5259 61.21 64.5259 60.706C64.5259 59.9127 64.8339 59.2827 65.4499 58.816C66.0752 58.3493 66.9106 58.116 67.9559 58.116C68.6466 58.116 69.2486 58.2233 69.7619 58.438C70.2846 58.6433 70.6906 58.942 70.9799 59.334C71.2692 59.726 71.4139 60.1833 71.4139 60.706C71.4139 61.21 71.2786 61.6487 71.0079 62.022C70.7372 62.386 70.3499 62.666 69.8459 62.862ZM65.5339 60.734C65.5339 61.2753 65.7486 61.7047 66.1779 62.022C66.6072 62.3393 67.1999 62.498 67.9559 62.498C68.7119 62.498 69.3046 62.3393 69.7339 62.022C70.1726 61.7047 70.3919 61.28 70.3919 60.748C70.3919 60.1973 70.1679 59.7633 69.7199 59.446C69.2812 59.1287 68.6932 58.97 67.9559 58.97C67.2092 58.97 66.6166 59.1287 66.1779 59.446C65.7486 59.7633 65.5339 60.1927 65.5339 60.734ZM67.9559 67.23C68.8239 67.23 69.5006 67.0527 69.9859 66.698C70.4806 66.3433 70.7279 65.8627 70.7279 65.256C70.7279 64.6493 70.4806 64.1733 69.9859 63.828C69.5006 63.4733 68.8239 63.296 67.9559 63.296C67.0972 63.296 66.4206 63.4733 65.9259 63.828C65.4406 64.1733 65.1979 64.6493 65.1979 65.256C65.1979 65.872 65.4406 66.3573 65.9259 66.712C66.4112 67.0573 67.0879 67.23 67.9559 67.23ZM80.9576 67.104V68H74.0276V58.2H80.7476V59.096H75.0636V62.582H80.1316V63.464H75.0636V67.104H80.9576ZM89.5389 65.382H84.0789L82.9029 68H81.8249L86.3049 58.2H87.3269L91.8069 68H90.7149L89.5389 65.382ZM89.1609 64.542L86.8089 59.278L84.4569 64.542H89.1609Z" fill="#333333"/>
<rect width="272.5" height="197" transform="translate(272.5)" fill="#00DBC8"/>
<path d="M302.804 35.74H299.556V34.2H307.872V35.74H304.624V44H302.804V35.74ZM313.274 44.14C311.921 44.14 310.866 43.762 310.11 43.006C309.354 42.2407 308.976 41.1487 308.976 39.73V34.2H310.796V39.66C310.796 41.5827 311.627 42.544 313.288 42.544C314.94 42.544 315.766 41.5827 315.766 39.66V34.2H317.558V39.73C317.558 41.1487 317.18 42.2407 316.424 43.006C315.677 43.762 314.627 44.14 313.274 44.14ZM326.519 44L324.517 41.13C324.433 41.1393 324.307 41.144 324.139 41.144H321.927V44H320.107V34.2H324.139C324.988 34.2 325.726 34.34 326.351 34.62C326.986 34.9 327.471 35.3013 327.807 35.824C328.143 36.3467 328.311 36.9673 328.311 37.686C328.311 38.4233 328.129 39.058 327.765 39.59C327.41 40.122 326.897 40.5187 326.225 40.78L328.479 44H326.519ZM326.477 37.686C326.477 37.0607 326.272 36.58 325.861 36.244C325.45 35.908 324.848 35.74 324.055 35.74H321.927V39.646H324.055C324.848 39.646 325.45 39.478 325.861 39.142C326.272 38.7967 326.477 38.3113 326.477 37.686ZM340.693 44.98C340.367 45.3627 339.984 45.652 339.545 45.848C339.116 46.044 338.645 46.142 338.131 46.142C337.459 46.142 336.843 45.988 336.283 45.68C335.723 45.3813 335.084 44.8587 334.365 44.112C333.46 44.0373 332.648 43.776 331.929 43.328C331.211 42.8707 330.651 42.278 330.249 41.55C329.848 40.8127 329.647 39.996 329.647 39.1C329.647 38.148 329.876 37.2893 330.333 36.524C330.791 35.7493 331.421 35.1473 332.223 34.718C333.026 34.2793 333.927 34.06 334.925 34.06C335.924 34.06 336.825 34.2793 337.627 34.718C338.43 35.1473 339.06 35.7447 339.517 36.51C339.975 37.2753 340.203 38.1387 340.203 39.1C340.203 39.8747 340.049 40.5933 339.741 41.256C339.433 41.9093 339.004 42.4693 338.453 42.936C337.903 43.3933 337.263 43.7247 336.535 43.93C336.806 44.2193 337.072 44.4293 337.333 44.56C337.595 44.6907 337.875 44.756 338.173 44.756C338.817 44.756 339.377 44.4947 339.853 43.972L340.693 44.98ZM331.481 39.1C331.481 39.7533 331.631 40.346 331.929 40.878C332.228 41.4007 332.639 41.8113 333.161 42.11C333.684 42.3993 334.272 42.544 334.925 42.544C335.579 42.544 336.167 42.3993 336.689 42.11C337.212 41.8113 337.623 41.4007 337.921 40.878C338.22 40.346 338.369 39.7533 338.369 39.1C338.369 38.4467 338.22 37.8587 337.921 37.336C337.623 36.804 337.212 36.3933 336.689 36.104C336.167 35.8053 335.579 35.656 334.925 35.656C334.272 35.656 333.684 35.8053 333.161 36.104C332.639 36.3933 332.228 36.804 331.929 37.336C331.631 37.8587 331.481 38.4467 331.481 39.1ZM346.346 44.14C344.993 44.14 343.938 43.762 343.182 43.006C342.426 42.2407 342.048 41.1487 342.048 39.73V34.2H343.868V39.66C343.868 41.5827 344.699 42.544 346.36 42.544C348.012 42.544 348.838 41.5827 348.838 39.66V34.2H350.63V39.73C350.63 41.1487 350.252 42.2407 349.496 43.006C348.75 43.762 347.7 44.14 346.346 44.14ZM357.757 44.14C356.759 44.14 355.858 43.9253 355.055 43.496C354.253 43.0573 353.623 42.4553 353.165 41.69C352.708 40.9153 352.479 40.052 352.479 39.1C352.479 38.148 352.708 37.2893 353.165 36.524C353.623 35.7493 354.253 35.1473 355.055 34.718C355.858 34.2793 356.759 34.06 357.757 34.06C358.756 34.06 359.657 34.2793 360.459 34.718C361.262 35.1473 361.892 35.7447 362.349 36.51C362.807 37.2753 363.035 38.1387 363.035 39.1C363.035 40.0613 362.807 40.9247 362.349 41.69C361.892 42.4553 361.262 43.0573 360.459 43.496C359.657 43.9253 358.756 44.14 357.757 44.14ZM357.757 42.544C358.411 42.544 358.999 42.3993 359.521 42.11C360.044 41.8113 360.455 41.4007 360.753 40.878C361.052 40.346 361.201 39.7533 361.201 39.1C361.201 38.4467 361.052 37.8587 360.753 37.336C360.455 36.804 360.044 36.3933 359.521 36.104C358.999 35.8053 358.411 35.656 357.757 35.656C357.104 35.656 356.516 35.8053 355.993 36.104C355.471 36.3933 355.06 36.804 354.761 37.336C354.463 37.8587 354.313 38.4467 354.313 39.1C354.313 39.7533 354.463 40.346 354.761 40.878C355.06 41.4007 355.471 41.8113 355.993 42.11C356.516 42.3993 357.104 42.544 357.757 42.544ZM364.964 34.2H366.784V44H364.964V34.2ZM372.473 44.14C371.717 44.14 370.984 44.0327 370.275 43.818C369.575 43.6033 369.02 43.3187 368.609 42.964L369.239 41.55C369.64 41.8673 370.13 42.1287 370.709 42.334C371.297 42.53 371.885 42.628 372.473 42.628C373.201 42.628 373.742 42.5113 374.097 42.278C374.461 42.0447 374.643 41.7367 374.643 41.354C374.643 41.074 374.54 40.8453 374.335 40.668C374.139 40.4813 373.887 40.3367 373.579 40.234C373.271 40.1313 372.851 40.0147 372.319 39.884C371.572 39.7067 370.966 39.5293 370.499 39.352C370.042 39.1747 369.645 38.8993 369.309 38.526C368.982 38.1433 368.819 37.63 368.819 36.986C368.819 36.4447 368.964 35.9547 369.253 35.516C369.552 35.068 369.995 34.7133 370.583 34.452C371.18 34.1907 371.908 34.06 372.767 34.06C373.364 34.06 373.952 34.1347 374.531 34.284C375.11 34.4333 375.609 34.648 376.029 34.928L375.455 36.342C375.026 36.09 374.578 35.8987 374.111 35.768C373.644 35.6373 373.192 35.572 372.753 35.572C372.034 35.572 371.498 35.6933 371.143 35.936C370.798 36.1787 370.625 36.5007 370.625 36.902C370.625 37.182 370.723 37.4107 370.919 37.588C371.124 37.7653 371.381 37.9053 371.689 38.008C371.997 38.1107 372.417 38.2273 372.949 38.358C373.677 38.526 374.274 38.7033 374.741 38.89C375.208 39.0673 375.604 39.3427 375.931 39.716C376.267 40.0893 376.435 40.5933 376.435 41.228C376.435 41.7693 376.286 42.2593 375.987 42.698C375.698 43.1367 375.254 43.4867 374.657 43.748C374.06 44.0093 373.332 44.14 372.473 44.14ZM385.59 42.474V44H378.24V34.2H385.394V35.726H380.06V38.274H384.792V39.772H380.06V42.474H385.59Z" fill="#333333"/>
<path d="M306.752 61.63L306.388 64.57H308.376V65.34H306.29L305.968 68H305.212L305.534 65.34H302.664L302.328 68H301.572L301.894 65.34H299.906V64.57H301.992L302.356 61.63H300.354V60.86H302.454L302.776 58.2H303.546L303.21 60.86H306.094L306.416 58.2H307.172L306.85 60.86H308.824V61.63H306.752ZM305.996 61.63H303.126L302.748 64.57H305.632L305.996 61.63ZM313.882 68.084C313.126 68.084 312.449 67.8833 311.852 67.482C311.264 67.0807 310.802 66.5067 310.466 65.76C310.139 65.004 309.976 64.1173 309.976 63.1C309.976 62.0827 310.139 61.2007 310.466 60.454C310.802 59.698 311.264 59.1193 311.852 58.718C312.449 58.3167 313.126 58.116 313.882 58.116C314.638 58.116 315.31 58.3167 315.898 58.718C316.495 59.1193 316.962 59.698 317.298 60.454C317.634 61.2007 317.802 62.0827 317.802 63.1C317.802 64.1173 317.634 65.004 317.298 65.76C316.962 66.5067 316.495 67.0807 315.898 67.482C315.31 67.8833 314.638 68.084 313.882 68.084ZM313.882 67.16C314.451 67.16 314.951 67.0013 315.38 66.684C315.819 66.3667 316.159 65.9047 316.402 65.298C316.645 64.6913 316.766 63.9587 316.766 63.1C316.766 62.2413 316.645 61.5087 316.402 60.902C316.159 60.2953 315.819 59.8333 315.38 59.516C314.951 59.1987 314.451 59.04 313.882 59.04C313.313 59.04 312.809 59.1987 312.37 59.516C311.941 59.8333 311.605 60.2953 311.362 60.902C311.119 61.5087 310.998 62.2413 310.998 63.1C310.998 63.9587 311.119 64.6913 311.362 65.298C311.605 65.9047 311.941 66.3667 312.37 66.684C312.809 67.0013 313.313 67.16 313.882 67.16ZM323.152 68.084C322.396 68.084 321.719 67.8833 321.122 67.482C320.534 67.0807 320.072 66.5067 319.736 65.76C319.409 65.004 319.246 64.1173 319.246 63.1C319.246 62.0827 319.409 61.2007 319.736 60.454C320.072 59.698 320.534 59.1193 321.122 58.718C321.719 58.3167 322.396 58.116 323.152 58.116C323.908 58.116 324.58 58.3167 325.168 58.718C325.765 59.1193 326.232 59.698 326.568 60.454C326.904 61.2007 327.072 62.0827 327.072 63.1C327.072 64.1173 326.904 65.004 326.568 65.76C326.232 66.5067 325.765 67.0807 325.168 67.482C324.58 67.8833 323.908 68.084 323.152 68.084ZM323.152 67.16C323.721 67.16 324.22 67.0013 324.65 66.684C325.088 66.3667 325.429 65.9047 325.672 65.298C325.914 64.6913 326.036 63.9587 326.036 63.1C326.036 62.2413 325.914 61.5087 325.672 60.902C325.429 60.2953 325.088 59.8333 324.65 59.516C324.22 59.1987 323.721 59.04 323.152 59.04C322.582 59.04 322.078 59.1987 321.64 59.516C321.21 59.8333 320.874 60.2953 320.632 60.902C320.389 61.5087 320.268 62.2413 320.268 63.1C320.268 63.9587 320.389 64.6913 320.632 65.298C320.874 65.9047 321.21 66.3667 321.64 66.684C322.078 67.0013 322.582 67.16 323.152 67.16ZM329.383 58.2H333.373C334.409 58.2 335.324 58.41 336.117 58.83C336.91 59.2407 337.526 59.8193 337.965 60.566C338.404 61.3033 338.623 62.148 338.623 63.1C338.623 64.052 338.404 64.9013 337.965 65.648C337.526 66.3853 336.91 66.964 336.117 67.384C335.324 67.7947 334.409 68 333.373 68H329.383V58.2ZM333.317 67.104C334.176 67.104 334.927 66.936 335.571 66.6C336.215 66.2547 336.714 65.7833 337.069 65.186C337.424 64.5793 337.601 63.884 337.601 63.1C337.601 62.316 337.424 61.6253 337.069 61.028C336.714 60.4213 336.215 59.95 335.571 59.614C334.927 59.2687 334.176 59.096 333.317 59.096H330.419V67.104H333.317ZM347.124 62.946C347.768 63.086 348.262 63.366 348.608 63.786C348.962 64.1967 349.14 64.7287 349.14 65.382C349.14 66.222 348.827 66.8707 348.202 67.328C347.586 67.776 346.671 68 345.458 68H340.95V58.2H345.178C346.27 58.2 347.114 58.4193 347.712 58.858C348.318 59.2967 348.622 59.9173 348.622 60.72C348.622 61.2613 348.486 61.7233 348.216 62.106C347.954 62.4793 347.59 62.7593 347.124 62.946ZM341.986 59.054V62.61H345.108C345.901 62.61 346.512 62.4607 346.942 62.162C347.371 61.854 347.586 61.4107 347.586 60.832C347.586 60.2533 347.371 59.8147 346.942 59.516C346.512 59.208 345.901 59.054 345.108 59.054H341.986ZM345.444 67.146C346.321 67.146 346.984 66.9967 347.432 66.698C347.88 66.3993 348.104 65.9327 348.104 65.298C348.104 64.0753 347.217 63.464 345.444 63.464H341.986V67.146H345.444ZM355.76 68.084C354.79 68.084 353.912 67.8693 353.128 67.44C352.354 67.0107 351.742 66.418 351.294 65.662C350.856 64.8967 350.636 64.0427 350.636 63.1C350.636 62.1573 350.856 61.308 351.294 60.552C351.742 59.7867 352.358 59.1893 353.142 58.76C353.926 58.3307 354.804 58.116 355.774 58.116C356.502 58.116 357.174 58.2373 357.79 58.48C358.406 58.7227 358.929 59.0773 359.358 59.544L358.7 60.202C357.935 59.4273 356.969 59.04 355.802 59.04C355.028 59.04 354.323 59.2173 353.688 59.572C353.054 59.9267 352.554 60.412 352.19 61.028C351.836 61.644 351.658 62.3347 351.658 63.1C351.658 63.8653 351.836 64.556 352.19 65.172C352.554 65.788 353.054 66.2733 353.688 66.628C354.323 66.9827 355.028 67.16 355.802 67.16C356.978 67.16 357.944 66.768 358.7 65.984L359.358 66.642C358.929 67.1087 358.402 67.468 357.776 67.72C357.16 67.9627 356.488 68.084 355.76 68.084ZM366.121 62.862C366.737 63.0673 367.209 63.3753 367.535 63.786C367.871 64.1967 368.039 64.6913 368.039 65.27C368.039 65.8393 367.885 66.3387 367.577 66.768C367.269 67.188 366.826 67.5147 366.247 67.748C365.678 67.972 365.006 68.084 364.231 68.084C363.055 68.084 362.131 67.832 361.459 67.328C360.787 66.824 360.451 66.138 360.451 65.27C360.451 64.682 360.61 64.1873 360.927 63.786C361.254 63.3753 361.725 63.0673 362.341 62.862C361.837 62.666 361.455 62.386 361.193 62.022C360.932 61.6487 360.801 61.21 360.801 60.706C360.801 59.9127 361.109 59.2827 361.725 58.816C362.351 58.3493 363.186 58.116 364.231 58.116C364.922 58.116 365.524 58.2233 366.037 58.438C366.56 58.6433 366.966 58.942 367.255 59.334C367.545 59.726 367.689 60.1833 367.689 60.706C367.689 61.21 367.554 61.6487 367.283 62.022C367.013 62.386 366.625 62.666 366.121 62.862ZM361.809 60.734C361.809 61.2753 362.024 61.7047 362.453 62.022C362.883 62.3393 363.475 62.498 364.231 62.498C364.987 62.498 365.58 62.3393 366.009 62.022C366.448 61.7047 366.667 61.28 366.667 60.748C366.667 60.1973 366.443 59.7633 365.995 59.446C365.557 59.1287 364.969 58.97 364.231 58.97C363.485 58.97 362.892 59.1287 362.453 59.446C362.024 59.7633 361.809 60.1927 361.809 60.734ZM364.231 67.23C365.099 67.23 365.776 67.0527 366.261 66.698C366.756 66.3433 367.003 65.8627 367.003 65.256C367.003 64.6493 366.756 64.1733 366.261 63.828C365.776 63.4733 365.099 63.296 364.231 63.296C363.373 63.296 362.696 63.4733 362.201 63.828C361.716 64.1733 361.473 64.6493 361.473 65.256C361.473 65.872 361.716 66.3573 362.201 66.712C362.687 67.0573 363.363 67.23 364.231 67.23Z" fill="#333333"/>
<rect width="272.5" height="197" transform="translate(0 197)" fill="#4733FF"/>
<path d="M42.638 231.2L39.39 241H37.458L35.036 233.748L32.572 241H30.626L27.378 231.2H29.268L31.704 238.648L34.238 231.2H35.918L38.396 238.69L40.902 231.2H42.638ZM50.1622 238.732H45.2622L44.2962 241H42.4202L46.8302 231.2H48.6222L53.0462 241H51.1422L50.1622 238.732ZM49.5602 237.304L47.7122 233.02L45.8782 237.304H49.5602ZM55.7884 232.74H52.5404V231.2H60.8564V232.74H57.6084V241H55.7884V232.74ZM69.5723 239.474V241H62.2223V231.2H69.3763V232.726H64.0423V235.274H68.7743V236.772H64.0423V239.474H69.5723ZM78.0132 241L76.0112 238.13C75.9272 238.139 75.8012 238.144 75.6332 238.144H73.4212V241H71.6012V231.2H75.6332C76.4825 231.2 77.2198 231.34 77.8452 231.62C78.4798 231.9 78.9652 232.301 79.3012 232.824C79.6372 233.347 79.8052 233.967 79.8052 234.686C79.8052 235.423 79.6232 236.058 79.2592 236.59C78.9045 237.122 78.3912 237.519 77.7192 237.78L79.9732 241H78.0132ZM77.9712 234.686C77.9712 234.061 77.7658 233.58 77.3552 233.244C76.9445 232.908 76.3425 232.74 75.5492 232.74H73.4212V236.646H75.5492C76.3425 236.646 76.9445 236.478 77.3552 236.142C77.7658 235.797 77.9712 235.311 77.9712 234.686Z" fill="white"/>
<path d="M34.252 258.63L33.888 261.57H35.876V262.34H33.79L33.468 265H32.712L33.034 262.34H30.164L29.828 265H29.072L29.394 262.34H27.406V261.57H29.492L29.856 258.63H27.854V257.86H29.954L30.276 255.2H31.046L30.71 257.86H33.594L33.916 255.2H34.672L34.35 257.86H36.324V258.63H34.252ZM33.496 258.63H30.626L30.248 261.57H33.132L33.496 258.63ZM45.806 262.424H43.846V265H42.838V262.424H37.308V261.696L42.502 255.2H43.622L38.61 261.528H42.866V259.26H43.846V261.528H45.806V262.424ZM52.9506 255.2V255.914L48.8486 265H47.7566L51.7886 256.096H46.7486V257.93H45.7546V255.2H52.9506ZM57.4877 259.4C58.5144 259.456 59.2937 259.736 59.8257 260.24C60.3671 260.735 60.6377 261.383 60.6377 262.186C60.6377 262.746 60.5024 263.245 60.2317 263.684C59.9611 264.113 59.5597 264.454 59.0277 264.706C58.4957 264.958 57.8471 265.084 57.0817 265.084C56.3724 265.084 55.7004 264.972 55.0657 264.748C54.4404 264.515 53.9364 264.207 53.5537 263.824L54.0437 263.026C54.3704 263.362 54.8044 263.637 55.3457 263.852C55.8871 264.057 56.4657 264.16 57.0817 264.16C57.8844 264.16 58.5051 263.987 58.9437 263.642C59.3824 263.287 59.6017 262.802 59.6017 262.186C59.6017 261.579 59.3824 261.103 58.9437 260.758C58.5051 260.413 57.8424 260.24 56.9557 260.24H56.2557V259.498L58.9717 256.096H53.9597V255.2H60.2597V255.914L57.4877 259.4ZM65.3217 259.4C66.3484 259.456 67.1277 259.736 67.6597 260.24C68.2011 260.735 68.4717 261.383 68.4717 262.186C68.4717 262.746 68.3364 263.245 68.0657 263.684C67.7951 264.113 67.3937 264.454 66.8617 264.706C66.3297 264.958 65.6811 265.084 64.9157 265.084C64.2064 265.084 63.5344 264.972 62.8997 264.748C62.2744 264.515 61.7704 264.207 61.3877 263.824L61.8777 263.026C62.2044 263.362 62.6384 263.637 63.1797 263.852C63.7211 264.057 64.2997 264.16 64.9157 264.16C65.7184 264.16 66.3391 263.987 66.7777 263.642C67.2164 263.287 67.4357 262.802 67.4357 262.186C67.4357 261.579 67.2164 261.103 66.7777 260.758C66.3391 260.413 65.6764 260.24 64.7897 260.24H64.0897V259.498L66.8057 256.096H61.7937V255.2H68.0937V255.914L65.3217 259.4ZM71.7961 256.096V259.946H76.8641V260.842H71.7961V265H70.7601V255.2H77.4801V256.096H71.7961ZM80.6554 256.096V259.946H85.7234V260.842H80.6554V265H79.6194V255.2H86.3394V256.096H80.6554Z" fill="white"/>
<rect width="272.5" height="197" transform="translate(272.5 197)" fill="#FB5FB0"/>
<path d="M302.636 232.726V235.708H307.368V237.248H302.636V241H300.816V231.2H307.97V232.726H302.636ZM313.944 241.14C312.591 241.14 311.536 240.762 310.78 240.006C310.024 239.241 309.646 238.149 309.646 236.73V231.2H311.466V236.66C311.466 238.583 312.297 239.544 313.958 239.544C315.61 239.544 316.436 238.583 316.436 236.66V231.2H318.228V236.73C318.228 238.149 317.85 239.241 317.094 240.006C316.347 240.762 315.297 241.14 313.944 241.14ZM325.313 241.14C324.324 241.14 323.428 240.925 322.625 240.496C321.832 240.057 321.206 239.455 320.749 238.69C320.301 237.925 320.077 237.061 320.077 236.1C320.077 235.139 320.306 234.275 320.763 233.51C321.22 232.745 321.846 232.147 322.639 231.718C323.442 231.279 324.338 231.06 325.327 231.06C326.13 231.06 326.862 231.2 327.525 231.48C328.188 231.76 328.748 232.166 329.205 232.698L328.029 233.804C327.32 233.039 326.447 232.656 325.411 232.656C324.739 232.656 324.137 232.805 323.605 233.104C323.073 233.393 322.658 233.799 322.359 234.322C322.06 234.845 321.911 235.437 321.911 236.1C321.911 236.763 322.06 237.355 322.359 237.878C322.658 238.401 323.073 238.811 323.605 239.11C324.137 239.399 324.739 239.544 325.411 239.544C326.447 239.544 327.32 239.157 328.029 238.382L329.205 239.502C328.748 240.034 328.183 240.44 327.511 240.72C326.848 241 326.116 241.14 325.313 241.14ZM339.657 231.2V241H337.837V236.8H332.769V241H330.949V231.2H332.769V235.246H337.837V231.2H339.657ZM345.321 241.14C344.565 241.14 343.832 241.033 343.123 240.818C342.423 240.603 341.867 240.319 341.457 239.964L342.087 238.55C342.488 238.867 342.978 239.129 343.557 239.334C344.145 239.53 344.733 239.628 345.321 239.628C346.049 239.628 346.59 239.511 346.945 239.278C347.309 239.045 347.491 238.737 347.491 238.354C347.491 238.074 347.388 237.845 347.183 237.668C346.987 237.481 346.735 237.337 346.427 237.234C346.119 237.131 345.699 237.015 345.167 236.884C344.42 236.707 343.813 236.529 343.347 236.352C342.889 236.175 342.493 235.899 342.157 235.526C341.83 235.143 341.667 234.63 341.667 233.986C341.667 233.445 341.811 232.955 342.101 232.516C342.399 232.068 342.843 231.713 343.431 231.452C344.028 231.191 344.756 231.06 345.615 231.06C346.212 231.06 346.8 231.135 347.379 231.284C347.957 231.433 348.457 231.648 348.877 231.928L348.303 233.342C347.873 233.09 347.425 232.899 346.959 232.768C346.492 232.637 346.039 232.572 345.601 232.572C344.882 232.572 344.345 232.693 343.991 232.936C343.645 233.179 343.473 233.501 343.473 233.902C343.473 234.182 343.571 234.411 343.767 234.588C343.972 234.765 344.229 234.905 344.537 235.008C344.845 235.111 345.265 235.227 345.797 235.358C346.525 235.526 347.122 235.703 347.589 235.89C348.055 236.067 348.452 236.343 348.779 236.716C349.115 237.089 349.283 237.593 349.283 238.228C349.283 238.769 349.133 239.259 348.835 239.698C348.545 240.137 348.102 240.487 347.505 240.748C346.907 241.009 346.179 241.14 345.321 241.14ZM351.087 231.2H352.907V241H351.087V231.2ZM361.914 238.732H357.014L356.048 241H354.172L358.582 231.2H360.374L364.798 241H362.894L361.914 238.732ZM361.312 237.304L359.464 233.02L357.63 237.304H361.312Z" fill="#333333"/>
<path d="M306.752 258.63L306.388 261.57H308.376V262.34H306.29L305.968 265H305.212L305.534 262.34H302.664L302.328 265H301.572L301.894 262.34H299.906V261.57H301.992L302.356 258.63H300.354V257.86H302.454L302.776 255.2H303.546L303.21 257.86H306.094L306.416 255.2H307.172L306.85 257.86H308.824V258.63H306.752ZM305.996 258.63H303.126L302.748 261.57H305.632L305.996 258.63ZM311.88 256.096V259.946H316.948V260.842H311.88V265H310.844V255.2H317.564V256.096H311.88ZM325.877 259.946C326.521 260.086 327.016 260.366 327.361 260.786C327.716 261.197 327.893 261.729 327.893 262.382C327.893 263.222 327.581 263.871 326.955 264.328C326.339 264.776 325.425 265 324.211 265H319.703V255.2H323.931C325.023 255.2 325.868 255.419 326.465 255.858C327.072 256.297 327.375 256.917 327.375 257.72C327.375 258.261 327.24 258.723 326.969 259.106C326.708 259.479 326.344 259.759 325.877 259.946ZM320.739 256.054V259.61H323.861C324.655 259.61 325.266 259.461 325.695 259.162C326.125 258.854 326.339 258.411 326.339 257.832C326.339 257.253 326.125 256.815 325.695 256.516C325.266 256.208 324.655 256.054 323.861 256.054H320.739ZM324.197 264.146C325.075 264.146 325.737 263.997 326.185 263.698C326.633 263.399 326.857 262.933 326.857 262.298C326.857 261.075 325.971 260.464 324.197 260.464H320.739V264.146H324.197ZM331.966 259.218C333.385 259.218 334.416 259.475 335.06 259.988C335.713 260.492 336.04 261.201 336.04 262.116C336.04 262.685 335.905 263.194 335.634 263.642C335.373 264.09 334.976 264.445 334.444 264.706C333.912 264.958 333.259 265.084 332.484 265.084C331.784 265.084 331.117 264.972 330.482 264.748C329.857 264.515 329.353 264.207 328.97 263.824L329.46 263.026C329.787 263.362 330.216 263.637 330.748 263.852C331.28 264.057 331.854 264.16 332.47 264.16C333.282 264.16 333.907 263.978 334.346 263.614C334.794 263.25 335.018 262.765 335.018 262.158C335.018 261.486 334.766 260.977 334.262 260.632C333.767 260.287 332.927 260.114 331.742 260.114H329.656L330.16 255.2H335.522V256.096H331.042L330.706 259.218H331.966ZM339.224 256.096V259.946H344.292V260.842H339.224V265H338.188V255.2H344.908V256.096H339.224ZM353.221 259.946C353.865 260.086 354.36 260.366 354.705 260.786C355.06 261.197 355.237 261.729 355.237 262.382C355.237 263.222 354.925 263.871 354.299 264.328C353.683 264.776 352.769 265 351.555 265H347.047V255.2H351.275C352.367 255.2 353.212 255.419 353.809 255.858C354.416 256.297 354.719 256.917 354.719 257.72C354.719 258.261 354.584 258.723 354.313 259.106C354.052 259.479 353.688 259.759 353.221 259.946ZM348.083 256.054V259.61H351.205C351.999 259.61 352.61 259.461 353.039 259.162C353.469 258.854 353.683 258.411 353.683 257.832C353.683 257.253 353.469 256.815 353.039 256.516C352.61 256.208 351.999 256.054 351.205 256.054H348.083ZM351.541 264.146C352.419 264.146 353.081 263.997 353.529 263.698C353.977 263.399 354.201 262.933 354.201 262.298C354.201 261.075 353.315 260.464 351.541 260.464H348.083V264.146H351.541ZM360.64 265.084C359.884 265.084 359.207 264.883 358.61 264.482C358.022 264.081 357.56 263.507 357.224 262.76C356.897 262.004 356.734 261.117 356.734 260.1C356.734 259.083 356.897 258.201 357.224 257.454C357.56 256.698 358.022 256.119 358.61 255.718C359.207 255.317 359.884 255.116 360.64 255.116C361.396 255.116 362.068 255.317 362.656 255.718C363.253 256.119 363.72 256.698 364.056 257.454C364.392 258.201 364.56 259.083 364.56 260.1C364.56 261.117 364.392 262.004 364.056 262.76C363.72 263.507 363.253 264.081 362.656 264.482C362.068 264.883 361.396 265.084 360.64 265.084ZM360.64 264.16C361.209 264.16 361.709 264.001 362.138 263.684C362.577 263.367 362.917 262.905 363.16 262.298C363.403 261.691 363.524 260.959 363.524 260.1C363.524 259.241 363.403 258.509 363.16 257.902C362.917 257.295 362.577 256.833 362.138 256.516C361.709 256.199 361.209 256.04 360.64 256.04C360.071 256.04 359.567 256.199 359.128 256.516C358.699 256.833 358.363 257.295 358.12 257.902C357.877 258.509 357.756 259.241 357.756 260.1C357.756 260.959 357.877 261.691 358.12 262.298C358.363 262.905 358.699 263.367 359.128 263.684C359.567 264.001 360.071 264.16 360.64 264.16Z" fill="#333333"/>
<rect width="272.5" height="197" transform="translate(0 394)" fill="#F9CE35"/>
<path d="M32.852 438.14C31.8627 438.14 30.9667 437.925 30.164 437.496C29.3707 437.057 28.7453 436.455 28.288 435.69C27.84 434.925 27.616 434.061 27.616 433.1C27.616 432.139 27.8447 431.275 28.302 430.51C28.7593 429.745 29.3847 429.147 30.178 428.718C30.9807 428.279 31.8767 428.06 32.866 428.06C33.6687 428.06 34.4013 428.2 35.064 428.48C35.7267 428.76 36.2867 429.166 36.744 429.698L35.568 430.804C34.8587 430.039 33.986 429.656 32.95 429.656C32.278 429.656 31.676 429.805 31.144 430.104C30.612 430.393 30.1967 430.799 29.898 431.322C29.5993 431.845 29.45 432.437 29.45 433.1C29.45 433.763 29.5993 434.355 29.898 434.878C30.1967 435.401 30.612 435.811 31.144 436.11C31.676 436.399 32.278 436.544 32.95 436.544C33.986 436.544 34.8587 436.157 35.568 435.382L36.744 436.502C36.2867 437.034 35.722 437.44 35.05 437.72C34.3873 438 33.6547 438.14 32.852 438.14ZM44.6388 435.732H39.7388L38.7728 438H36.8968L41.3068 428.2H43.0988L47.5228 438H45.6188L44.6388 435.732ZM44.0368 434.304L42.1888 430.02L40.3548 434.304H44.0368ZM57.4771 428.2V438H55.9791L50.5751 431.364V438H48.7691V428.2H50.2671L55.6711 434.836V428.2H57.4771ZM66.4591 435.732H61.5591L60.5931 438H58.7171L63.1271 428.2H64.9191L69.3431 438H67.4391L66.4591 435.732ZM65.8571 434.304L64.0091 430.02L62.1751 434.304H65.8571ZM77.0014 438L74.9994 435.13C74.9154 435.139 74.7894 435.144 74.6214 435.144H72.4094V438H70.5894V428.2H74.6214C75.4708 428.2 76.2081 428.34 76.8334 428.62C77.4681 428.9 77.9534 429.301 78.2894 429.824C78.6254 430.347 78.7934 430.967 78.7934 431.686C78.7934 432.423 78.6114 433.058 78.2474 433.59C77.8928 434.122 77.3794 434.519 76.7074 434.78L78.9614 438H77.0014ZM76.9594 431.686C76.9594 431.061 76.7541 430.58 76.3434 430.244C75.9328 429.908 75.3308 429.74 74.5374 429.74H72.4094V433.646H74.5374C75.3308 433.646 75.9328 433.478 76.3434 433.142C76.7541 432.797 76.9594 432.311 76.9594 431.686ZM84.921 434.542V438H83.101V434.57L79.251 428.2H81.197L84.067 432.974L86.965 428.2H88.757L84.921 434.542Z" fill="#333333"/>
<path d="M34.252 455.63L33.888 458.57H35.876V459.34H33.79L33.468 462H32.712L33.034 459.34H30.164L29.828 462H29.072L29.394 459.34H27.406V458.57H29.492L29.856 455.63H27.854V454.86H29.954L30.276 452.2H31.046L30.71 454.86H33.594L33.916 452.2H34.672L34.35 454.86H36.324V455.63H34.252ZM33.496 455.63H30.626L30.248 458.57H33.132L33.496 455.63ZM39.38 453.096V456.946H44.448V457.842H39.38V462H38.344V452.2H45.064V453.096H39.38ZM49.4695 452.116C50.7668 452.116 51.7608 452.545 52.4515 453.404C53.1421 454.253 53.4875 455.457 53.4875 457.016C53.4875 458.108 53.3008 459.032 52.9275 459.788C52.5541 460.544 52.0315 461.118 51.3595 461.51C50.6875 461.893 49.9035 462.084 49.0075 462.084C48.0368 462.084 47.2621 461.907 46.6835 461.552L47.0895 460.74C47.5561 461.048 48.1908 461.202 48.9935 461.202C50.0761 461.202 50.9255 460.861 51.5415 460.18C52.1575 459.489 52.4655 458.491 52.4655 457.184C52.4655 456.941 52.4515 456.675 52.4235 456.386C52.1808 456.918 51.7935 457.333 51.2615 457.632C50.7295 457.921 50.1181 458.066 49.4275 458.066C48.7835 458.066 48.2095 457.945 47.7055 457.702C47.2108 457.459 46.8235 457.119 46.5435 456.68C46.2635 456.232 46.1235 455.714 46.1235 455.126C46.1235 454.529 46.2681 454.001 46.5575 453.544C46.8468 453.087 47.2435 452.737 47.7475 452.494C48.2608 452.242 48.8348 452.116 49.4695 452.116ZM49.5815 457.212C50.0761 457.212 50.5101 457.119 50.8835 456.932C51.2661 456.745 51.5648 456.489 51.7795 456.162C51.9941 455.835 52.1015 455.471 52.1015 455.07C52.1015 454.697 51.9988 454.351 51.7935 454.034C51.5975 453.717 51.3035 453.46 50.9115 453.264C50.5195 453.068 50.0528 452.97 49.5115 452.97C48.8021 452.97 48.2235 453.166 47.7755 453.558C47.3368 453.941 47.1175 454.454 47.1175 455.098C47.1175 455.742 47.3368 456.255 47.7755 456.638C48.2235 457.021 48.8255 457.212 49.5815 457.212ZM60.0727 462.084C59.102 462.084 58.2247 461.869 57.4407 461.44C56.666 461.011 56.0547 460.418 55.6067 459.662C55.168 458.897 54.9487 458.043 54.9487 457.1C54.9487 456.157 55.168 455.308 55.6067 454.552C56.0547 453.787 56.6707 453.189 57.4547 452.76C58.2387 452.331 59.116 452.116 60.0867 452.116C60.8147 452.116 61.4867 452.237 62.1027 452.48C62.7187 452.723 63.2414 453.077 63.6707 453.544L63.0127 454.202C62.2474 453.427 61.2814 453.04 60.1147 453.04C59.34 453.04 58.6354 453.217 58.0007 453.572C57.366 453.927 56.8667 454.412 56.5027 455.028C56.148 455.644 55.9707 456.335 55.9707 457.1C55.9707 457.865 56.148 458.556 56.5027 459.172C56.8667 459.788 57.366 460.273 58.0007 460.628C58.6354 460.983 59.34 461.16 60.1147 461.16C61.2907 461.16 62.2567 460.768 63.0127 459.984L63.6707 460.642C63.2414 461.109 62.714 461.468 62.0887 461.72C61.4727 461.963 60.8007 462.084 60.0727 462.084ZM72.8092 461.104V462H65.8792V452.2H72.5992V453.096H66.9152V456.582H71.9832V457.464H66.9152V461.104H72.8092ZM77.5034 456.4C78.53 456.456 79.3094 456.736 79.8414 457.24C80.3827 457.735 80.6534 458.383 80.6534 459.186C80.6534 459.746 80.518 460.245 80.2474 460.684C79.9767 461.113 79.5754 461.454 79.0434 461.706C78.5114 461.958 77.8627 462.084 77.0974 462.084C76.388 462.084 75.716 461.972 75.0814 461.748C74.456 461.515 73.952 461.207 73.5694 460.824L74.0594 460.026C74.386 460.362 74.82 460.637 75.3614 460.852C75.9027 461.057 76.4814 461.16 77.0974 461.16C77.9 461.16 78.5207 460.987 78.9594 460.642C79.398 460.287 79.6174 459.802 79.6174 459.186C79.6174 458.579 79.398 458.103 78.9594 457.758C78.5207 457.413 77.858 457.24 76.9714 457.24H76.2714V456.498L78.9874 453.096H73.9754V452.2H80.2754V452.914L77.5034 456.4ZM84.513 456.218C85.9317 456.218 86.963 456.475 87.607 456.988C88.2603 457.492 88.587 458.201 88.587 459.116C88.587 459.685 88.4517 460.194 88.181 460.642C87.9197 461.09 87.523 461.445 86.991 461.706C86.459 461.958 85.8057 462.084 85.031 462.084C84.331 462.084 83.6637 461.972 83.029 461.748C82.4037 461.515 81.8997 461.207 81.517 460.824L82.007 460.026C82.3337 460.362 82.763 460.637 83.295 460.852C83.827 461.057 84.401 461.16 85.017 461.16C85.829 461.16 86.4543 460.978 86.893 460.614C87.341 460.25 87.565 459.765 87.565 459.158C87.565 458.486 87.313 457.977 86.809 457.632C86.3143 457.287 85.4743 457.114 84.289 457.114H82.203L82.707 452.2H88.069V453.096H83.589L83.253 456.218H84.513Z" fill="#333333"/>
<rect width="272.5" height="197" transform="translate(272.5 394)" fill="#1A1B1D"/>
<path d="M307.508 432.988H309.23V436.894C308.726 437.295 308.138 437.603 307.466 437.818C306.794 438.033 306.103 438.14 305.394 438.14C304.395 438.14 303.495 437.925 302.692 437.496C301.889 437.057 301.259 436.455 300.802 435.69C300.345 434.925 300.116 434.061 300.116 433.1C300.116 432.139 300.345 431.275 300.802 430.51C301.259 429.745 301.889 429.147 302.692 428.718C303.504 428.279 304.414 428.06 305.422 428.06C306.243 428.06 306.99 428.195 307.662 428.466C308.334 428.737 308.899 429.133 309.356 429.656L308.208 430.776C307.461 430.029 306.561 429.656 305.506 429.656C304.815 429.656 304.199 429.801 303.658 430.09C303.126 430.379 302.706 430.785 302.398 431.308C302.099 431.831 301.95 432.428 301.95 433.1C301.95 433.753 302.099 434.341 302.398 434.864C302.706 435.387 303.126 435.797 303.658 436.096C304.199 436.395 304.811 436.544 305.492 436.544C306.257 436.544 306.929 436.376 307.508 436.04V432.988ZM318.042 438L316.04 435.13C315.956 435.139 315.83 435.144 315.662 435.144H313.45V438H311.63V428.2H315.662C316.512 428.2 317.249 428.34 317.874 428.62C318.509 428.9 318.994 429.301 319.33 429.824C319.666 430.347 319.834 430.967 319.834 431.686C319.834 432.423 319.652 433.058 319.288 433.59C318.934 434.122 318.42 434.519 317.748 434.78L320.002 438H318.042ZM318 431.686C318 431.061 317.795 430.58 317.384 430.244C316.974 429.908 316.372 429.74 315.578 429.74H313.45V433.646H315.578C316.372 433.646 316.974 433.478 317.384 433.142C317.795 432.797 318 432.311 318 431.686ZM328.227 435.732H323.327L322.361 438H320.485L324.895 428.2H326.687L331.111 438H329.207L328.227 435.732ZM327.625 434.304L325.777 430.02L323.943 434.304H327.625ZM336.389 428.2C337.238 428.2 337.976 428.34 338.601 428.62C339.236 428.9 339.721 429.301 340.057 429.824C340.393 430.347 340.561 430.967 340.561 431.686C340.561 432.395 340.393 433.016 340.057 433.548C339.721 434.071 339.236 434.472 338.601 434.752C337.976 435.032 337.238 435.172 336.389 435.172H334.177V438H332.357V428.2H336.389ZM336.305 433.632C337.098 433.632 337.7 433.464 338.111 433.128C338.522 432.792 338.727 432.311 338.727 431.686C338.727 431.061 338.522 430.58 338.111 430.244C337.7 429.908 337.098 429.74 336.305 429.74H334.177V433.632H336.305ZM351.087 428.2V438H349.267V433.8H344.199V438H342.379V428.2H344.199V432.246H349.267V428.2H351.087ZM353.712 428.2H355.532V438H353.712V428.2ZM360.171 429.74H356.923V428.2H365.239V429.74H361.991V438H360.171V429.74ZM373.955 436.474V438H366.605V428.2H373.759V429.726H368.425V432.274H373.157V433.772H368.425V436.474H373.955Z" fill="white"/>
<path d="M306.752 455.63L306.388 458.57H308.376V459.34H306.29L305.968 462H305.212L305.534 459.34H302.664L302.328 462H301.572L301.894 459.34H299.906V458.57H301.992L302.356 455.63H300.354V454.86H302.454L302.776 452.2H303.546L303.21 454.86H306.094L306.416 452.2H307.172L306.85 454.86H308.824V455.63H306.752ZM305.996 455.63H303.126L302.748 458.57H305.632L305.996 455.63ZM312.692 452.2V462H311.684V453.096H309.374V452.2H312.692ZM322.049 459.382H316.589L315.413 462H314.335L318.815 452.2H319.837L324.317 462H323.225L322.049 459.382ZM321.671 458.542L319.319 453.278L316.967 458.542H321.671ZM327.212 452.2V462H326.204V453.096H323.894V452.2H327.212ZM336.596 456.946C337.24 457.086 337.735 457.366 338.08 457.786C338.435 458.197 338.612 458.729 338.612 459.382C338.612 460.222 338.3 460.871 337.674 461.328C337.058 461.776 336.144 462 334.93 462H330.422V452.2H334.65C335.742 452.2 336.587 452.419 337.184 452.858C337.791 453.297 338.094 453.917 338.094 454.72C338.094 455.261 337.959 455.723 337.688 456.106C337.427 456.479 337.063 456.759 336.596 456.946ZM331.458 453.054V456.61H334.58C335.374 456.61 335.985 456.461 336.414 456.162C336.844 455.854 337.058 455.411 337.058 454.832C337.058 454.253 336.844 453.815 336.414 453.516C335.985 453.208 335.374 453.054 334.58 453.054H331.458ZM334.916 461.146C335.794 461.146 336.456 460.997 336.904 460.698C337.352 460.399 337.576 459.933 337.576 459.298C337.576 458.075 336.69 457.464 334.916 457.464H331.458V461.146H334.916ZM342.825 452.2V462H341.817V453.096H339.507V452.2H342.825ZM346.035 452.2H350.025C351.061 452.2 351.976 452.41 352.769 452.83C353.563 453.241 354.179 453.819 354.617 454.566C355.056 455.303 355.275 456.148 355.275 457.1C355.275 458.052 355.056 458.901 354.617 459.648C354.179 460.385 353.563 460.964 352.769 461.384C351.976 461.795 351.061 462 350.025 462H346.035V452.2ZM349.969 461.104C350.828 461.104 351.579 460.936 352.223 460.6C352.867 460.255 353.367 459.783 353.721 459.186C354.076 458.579 354.253 457.884 354.253 457.1C354.253 456.316 354.076 455.625 353.721 455.028C353.367 454.421 352.867 453.95 352.223 453.614C351.579 453.269 350.828 453.096 349.969 453.096H347.071V461.104H349.969Z" fill="white"/>
</svg>
