<svg width="328" height="770" viewBox="0 0 328 770" fill="none" xmlns="http://www.w3.org/2000/svg">
<rect width="328" height="770" rx="30" fill="#37229F"/>
<path d="M170.148 75H27.2207C22.8547 75 19.3154 78.542 19.3154 82.9113V218.353C19.3154 222.722 22.8547 226.264 27.2207 226.264H170.148C174.514 226.264 178.053 222.722 178.053 218.353V82.9113C178.053 78.542 174.514 75 170.148 75Z" stroke="#F9AFFC" stroke-opacity="0.56" stroke-width="1.04676"/>
<path d="M172.952 273H24.0476C21.2599 273 19 270.634 19 267.716V242.284C19 239.366 21.2599 237 24.0476 237H172.952C175.74 237 178 239.366 178 242.284V267.716C178 270.634 175.74 273 172.952 273Z" fill="#34097A"/>
<path d="M303.589 237.34H197.658C195.039 237.34 192.915 239.465 192.915 242.087V268.352C192.915 270.974 195.039 273.099 197.658 273.099H303.589C306.208 273.099 308.332 270.974 308.332 268.352V242.087C308.332 239.465 306.208 237.34 303.589 237.34Z" fill="#FFD676" stroke="url(#paint0_linear_60_3597)" stroke-width="1.04676"/>
<path d="M303.589 75H197.658C195.039 75 192.915 77.1252 192.915 79.7468V167.088C192.915 169.709 195.039 171.834 197.658 171.834H303.589C306.208 171.834 308.332 169.709 308.332 167.088V79.7468C308.332 77.1252 306.208 75 303.589 75Z" fill="#F9AFFC" stroke="url(#paint1_linear_60_3597)" stroke-width="1.04676"/>
<path d="M303.589 184.81H197.658C195.039 184.81 192.915 186.935 192.915 189.556V219.619C192.915 222.241 195.039 224.366 197.658 224.366H303.589C306.208 224.366 308.332 222.241 308.332 219.619V189.556C308.332 186.935 306.208 184.81 303.589 184.81Z" fill="#59E4CE" stroke="url(#paint2_linear_60_3597)" stroke-width="1.04676"/>
<path d="M24.348 40.2C25.1973 40.2 25.9347 40.34 26.56 40.62C27.1947 40.9 27.68 41.3013 28.016 41.824C28.352 42.3467 28.52 42.9673 28.52 43.686C28.52 44.3953 28.352 45.016 28.016 45.548C27.68 46.0707 27.1947 46.472 26.56 46.752C25.9347 47.032 25.1973 47.172 24.348 47.172H22.136V50H20.316V40.2H24.348ZM24.264 45.632C25.0573 45.632 25.6593 45.464 26.07 45.128C26.4807 44.792 26.686 44.3113 26.686 43.686C26.686 43.0607 26.4807 42.58 26.07 42.244C25.6593 41.908 25.0573 41.74 24.264 41.74H22.136V45.632H24.264ZM36.7495 50L34.7475 47.13C34.6635 47.1393 34.5375 47.144 34.3695 47.144H32.1575V50H30.3375V40.2H34.3695C35.2188 40.2 35.9562 40.34 36.5815 40.62C37.2162 40.9 37.7015 41.3013 38.0375 41.824C38.3735 42.3467 38.5415 42.9673 38.5415 43.686C38.5415 44.4233 38.3595 45.058 37.9955 45.59C37.6408 46.122 37.1275 46.5187 36.4555 46.78L38.7095 50H36.7495ZM36.7075 43.686C36.7075 43.0607 36.5022 42.58 36.0915 42.244C35.6808 41.908 35.0788 41.74 34.2855 41.74H32.1575V45.646H34.2855C35.0788 45.646 35.6808 45.478 36.0915 45.142C36.5022 44.7967 36.7075 44.3113 36.7075 43.686ZM40.5777 40.2H42.3977V50H40.5777V40.2ZM54.0504 50L54.0364 43.504L50.8164 48.88H50.0044L46.7844 43.588V50H45.0484V40.2H46.5464L50.4384 46.696L54.2604 40.2H55.7584L55.7724 50H54.0504ZM64.7755 47.732H59.8755L58.9095 50H57.0335L61.4435 40.2H63.2355L67.6595 50H65.7555L64.7755 47.732ZM64.1735 46.304L62.3255 42.02L60.4915 46.304H64.1735ZM75.3178 50L73.3158 47.13C73.2318 47.1393 73.1058 47.144 72.9378 47.144H70.7258V50H68.9058V40.2H72.9378C73.7872 40.2 74.5245 40.34 75.1498 40.62C75.7845 40.9 76.2698 41.3013 76.6058 41.824C76.9418 42.3467 77.1098 42.9673 77.1098 43.686C77.1098 44.4233 76.9278 45.058 76.5638 45.59C76.2092 46.122 75.6958 46.5187 75.0238 46.78L77.2778 50H75.3178ZM75.2758 43.686C75.2758 43.0607 75.0705 42.58 74.6598 42.244C74.2492 41.908 73.6472 41.74 72.8538 41.74H70.7258V45.646H72.8538C73.6472 45.646 74.2492 45.478 74.6598 45.142C75.0705 44.7967 75.2758 44.3113 75.2758 43.686ZM83.2374 46.542V50H81.4174V46.57L77.5674 40.2H79.5134L82.3834 44.974L85.2814 40.2H87.0734L83.2374 46.542ZM96.6704 50.14C95.681 50.14 94.785 49.9253 93.9824 49.496C93.189 49.0573 92.5637 48.4553 92.1064 47.69C91.6584 46.9247 91.4344 46.0613 91.4344 45.1C91.4344 44.1387 91.663 43.2753 92.1204 42.51C92.5777 41.7447 93.203 41.1473 93.9964 40.718C94.799 40.2793 95.695 40.06 96.6844 40.06C97.487 40.06 98.2197 40.2 98.8824 40.48C99.545 40.76 100.105 41.166 100.562 41.698L99.3864 42.804C98.677 42.0387 97.8044 41.656 96.7684 41.656C96.0964 41.656 95.4944 41.8053 94.9624 42.104C94.4304 42.3933 94.015 42.7993 93.7164 43.322C93.4177 43.8447 93.2684 44.4373 93.2684 45.1C93.2684 45.7627 93.4177 46.3553 93.7164 46.878C94.015 47.4007 94.4304 47.8113 94.9624 48.11C95.4944 48.3993 96.0964 48.544 96.7684 48.544C97.8044 48.544 98.677 48.1567 99.3864 47.382L100.562 48.502C100.105 49.034 99.5404 49.44 98.8684 49.72C98.2057 50 97.473 50.14 96.6704 50.14ZM106.679 50.14C105.68 50.14 104.78 49.9253 103.977 49.496C103.174 49.0573 102.544 48.4553 102.087 47.69C101.63 46.9153 101.401 46.052 101.401 45.1C101.401 44.148 101.63 43.2893 102.087 42.524C102.544 41.7493 103.174 41.1473 103.977 40.718C104.78 40.2793 105.68 40.06 106.679 40.06C107.678 40.06 108.578 40.2793 109.381 40.718C110.184 41.1473 110.814 41.7447 111.271 42.51C111.728 43.2753 111.957 44.1387 111.957 45.1C111.957 46.0613 111.728 46.9247 111.271 47.69C110.814 48.4553 110.184 49.0573 109.381 49.496C108.578 49.9253 107.678 50.14 106.679 50.14ZM106.679 48.544C107.332 48.544 107.92 48.3993 108.443 48.11C108.966 47.8113 109.376 47.4007 109.675 46.878C109.974 46.346 110.123 45.7533 110.123 45.1C110.123 44.4467 109.974 43.8587 109.675 43.336C109.376 42.804 108.966 42.3933 108.443 42.104C107.92 41.8053 107.332 41.656 106.679 41.656C106.026 41.656 105.438 41.8053 104.915 42.104C104.392 42.3933 103.982 42.804 103.683 43.336C103.384 43.8587 103.235 44.4467 103.235 45.1C103.235 45.7533 103.384 46.346 103.683 46.878C103.982 47.4007 104.392 47.8113 104.915 48.11C105.438 48.3993 106.026 48.544 106.679 48.544ZM113.886 40.2H115.706V48.46H120.83V50H113.886V40.2ZM126.667 50.14C125.669 50.14 124.768 49.9253 123.965 49.496C123.163 49.0573 122.533 48.4553 122.075 47.69C121.618 46.9153 121.389 46.052 121.389 45.1C121.389 44.148 121.618 43.2893 122.075 42.524C122.533 41.7493 123.163 41.1473 123.965 40.718C124.768 40.2793 125.669 40.06 126.667 40.06C127.666 40.06 128.567 40.2793 129.369 40.718C130.172 41.1473 130.802 41.7447 131.259 42.51C131.717 43.2753 131.945 44.1387 131.945 45.1C131.945 46.0613 131.717 46.9247 131.259 47.69C130.802 48.4553 130.172 49.0573 129.369 49.496C128.567 49.9253 127.666 50.14 126.667 50.14ZM126.667 48.544C127.321 48.544 127.909 48.3993 128.431 48.11C128.954 47.8113 129.365 47.4007 129.663 46.878C129.962 46.346 130.111 45.7533 130.111 45.1C130.111 44.4467 129.962 43.8587 129.663 43.336C129.365 42.804 128.954 42.3933 128.431 42.104C127.909 41.8053 127.321 41.656 126.667 41.656C126.014 41.656 125.426 41.8053 124.903 42.104C124.381 42.3933 123.97 42.804 123.671 43.336C123.373 43.8587 123.223 44.4467 123.223 45.1C123.223 45.7533 123.373 46.346 123.671 46.878C123.97 47.4007 124.381 47.8113 124.903 48.11C125.426 48.3993 126.014 48.544 126.667 48.544ZM140.287 50L138.285 47.13C138.201 47.1393 138.075 47.144 137.907 47.144H135.695V50H133.875V40.2H137.907C138.756 40.2 139.493 40.34 140.119 40.62C140.753 40.9 141.239 41.3013 141.575 41.824C141.911 42.3467 142.079 42.9673 142.079 43.686C142.079 44.4233 141.897 45.058 141.533 45.59C141.178 46.122 140.665 46.5187 139.993 46.78L142.247 50H140.287ZM140.245 43.686C140.245 43.0607 140.039 42.58 139.629 42.244C139.218 41.908 138.616 41.74 137.823 41.74H135.695V45.646H137.823C138.616 45.646 139.218 45.478 139.629 45.142C140.039 44.7967 140.245 44.3113 140.245 43.686ZM147.153 50.14C146.397 50.14 145.664 50.0327 144.955 49.818C144.255 49.6033 143.699 49.3187 143.289 48.964L143.919 47.55C144.32 47.8673 144.81 48.1287 145.389 48.334C145.977 48.53 146.565 48.628 147.153 48.628C147.881 48.628 148.422 48.5113 148.777 48.278C149.141 48.0447 149.323 47.7367 149.323 47.354C149.323 47.074 149.22 46.8453 149.015 46.668C148.819 46.4813 148.567 46.3367 148.259 46.234C147.951 46.1313 147.531 46.0147 146.999 45.884C146.252 45.7067 145.645 45.5293 145.179 45.352C144.721 45.1747 144.325 44.8993 143.989 44.526C143.662 44.1433 143.499 43.63 143.499 42.986C143.499 42.4447 143.643 41.9547 143.933 41.516C144.231 41.068 144.675 40.7133 145.263 40.452C145.86 40.1907 146.588 40.06 147.447 40.06C148.044 40.06 148.632 40.1347 149.211 40.284C149.789 40.4333 150.289 40.648 150.709 40.928L150.135 42.342C149.705 42.09 149.257 41.8987 148.791 41.768C148.324 41.6373 147.871 41.572 147.433 41.572C146.714 41.572 146.177 41.6933 145.823 41.936C145.477 42.1787 145.305 42.5007 145.305 42.902C145.305 43.182 145.403 43.4107 145.599 43.588C145.804 43.7653 146.061 43.9053 146.369 44.008C146.677 44.1107 147.097 44.2273 147.629 44.358C148.357 44.526 148.954 44.7033 149.421 44.89C149.887 45.0673 150.284 45.3427 150.611 45.716C150.947 46.0893 151.115 46.5933 151.115 47.228C151.115 47.7693 150.965 48.2593 150.667 48.698C150.377 49.1367 149.934 49.4867 149.337 49.748C148.739 50.0093 148.011 50.14 147.153 50.14Z" fill="white"/>
<path d="M23.354 330.14C22.598 330.14 21.8653 330.033 21.156 329.818C20.456 329.603 19.9007 329.319 19.49 328.964L20.12 327.55C20.5213 327.867 21.0113 328.129 21.59 328.334C22.178 328.53 22.766 328.628 23.354 328.628C24.082 328.628 24.6233 328.511 24.978 328.278C25.342 328.045 25.524 327.737 25.524 327.354C25.524 327.074 25.4213 326.845 25.216 326.668C25.02 326.481 24.768 326.337 24.46 326.234C24.152 326.131 23.732 326.015 23.2 325.884C22.4533 325.707 21.8467 325.529 21.38 325.352C20.9227 325.175 20.526 324.899 20.19 324.526C19.8633 324.143 19.7 323.63 19.7 322.986C19.7 322.445 19.8447 321.955 20.134 321.516C20.4327 321.068 20.876 320.713 21.464 320.452C22.0613 320.191 22.7893 320.06 23.648 320.06C24.2453 320.06 24.8333 320.135 25.412 320.284C25.9907 320.433 26.49 320.648 26.91 320.928L26.336 322.342C25.9067 322.09 25.4587 321.899 24.992 321.768C24.5253 321.637 24.0727 321.572 23.634 321.572C22.9153 321.572 22.3787 321.693 22.024 321.936C21.6787 322.179 21.506 322.501 21.506 322.902C21.506 323.182 21.604 323.411 21.8 323.588C22.0053 323.765 22.262 323.905 22.57 324.008C22.878 324.111 23.298 324.227 23.83 324.358C24.558 324.526 25.1553 324.703 25.622 324.89C26.0887 325.067 26.4853 325.343 26.812 325.716C27.148 326.089 27.316 326.593 27.316 327.228C27.316 327.769 27.1667 328.259 26.868 328.698C26.5787 329.137 26.1353 329.487 25.538 329.748C24.9407 330.009 24.2127 330.14 23.354 330.14ZM36.4707 328.474V330H29.1207V320.2H36.2747V321.726H30.9407V324.274H35.6727V325.772H30.9407V328.474H36.4707ZM42.9946 330.14C42.0052 330.14 41.1092 329.925 40.3066 329.496C39.5132 329.057 38.8879 328.455 38.4306 327.69C37.9826 326.925 37.7586 326.061 37.7586 325.1C37.7586 324.139 37.9872 323.275 38.4446 322.51C38.9019 321.745 39.5272 321.147 40.3206 320.718C41.1232 320.279 42.0192 320.06 43.0086 320.06C43.8112 320.06 44.5439 320.2 45.2066 320.48C45.8692 320.76 46.4292 321.166 46.8866 321.698L45.7106 322.804C45.0012 322.039 44.1286 321.656 43.0926 321.656C42.4206 321.656 41.8186 321.805 41.2866 322.104C40.7546 322.393 40.3392 322.799 40.0406 323.322C39.7419 323.845 39.5926 324.437 39.5926 325.1C39.5926 325.763 39.7419 326.355 40.0406 326.878C40.3392 327.401 40.7546 327.811 41.2866 328.11C41.8186 328.399 42.4206 328.544 43.0926 328.544C44.1286 328.544 45.0012 328.157 45.7106 327.382L46.8866 328.502C46.4292 329.034 45.8646 329.44 45.1926 329.72C44.5299 330 43.7972 330.14 42.9946 330.14ZM53.0034 330.14C52.0047 330.14 51.104 329.925 50.3014 329.496C49.4987 329.057 48.8687 328.455 48.4114 327.69C47.954 326.915 47.7254 326.052 47.7254 325.1C47.7254 324.148 47.954 323.289 48.4114 322.524C48.8687 321.749 49.4987 321.147 50.3014 320.718C51.104 320.279 52.0047 320.06 53.0034 320.06C54.002 320.06 54.9027 320.279 55.7054 320.718C56.508 321.147 57.138 321.745 57.5954 322.51C58.0527 323.275 58.2814 324.139 58.2814 325.1C58.2814 326.061 58.0527 326.925 57.5954 327.69C57.138 328.455 56.508 329.057 55.7054 329.496C54.9027 329.925 54.002 330.14 53.0034 330.14ZM53.0034 328.544C53.6567 328.544 54.2447 328.399 54.7674 328.11C55.29 327.811 55.7007 327.401 55.9994 326.878C56.298 326.346 56.4474 325.753 56.4474 325.1C56.4474 324.447 56.298 323.859 55.9994 323.336C55.7007 322.804 55.29 322.393 54.7674 322.104C54.2447 321.805 53.6567 321.656 53.0034 321.656C52.35 321.656 51.762 321.805 51.2394 322.104C50.7167 322.393 50.306 322.804 50.0074 323.336C49.7087 323.859 49.5594 324.447 49.5594 325.1C49.5594 325.753 49.7087 326.346 50.0074 326.878C50.306 327.401 50.7167 327.811 51.2394 328.11C51.762 328.399 52.35 328.544 53.0034 328.544ZM68.9185 320.2V330H67.4205L62.0165 323.364V330H60.2105V320.2H61.7085L67.1125 326.836V320.2H68.9185ZM71.5445 320.2H75.8285C76.8738 320.2 77.8025 320.405 78.6145 320.816C79.4265 321.217 80.0565 321.791 80.5045 322.538C80.9525 323.275 81.1765 324.129 81.1765 325.1C81.1765 326.071 80.9525 326.929 80.5045 327.676C80.0565 328.413 79.4265 328.987 78.6145 329.398C77.8025 329.799 76.8738 330 75.8285 330H71.5445V320.2ZM75.7445 328.46C76.4632 328.46 77.0932 328.325 77.6345 328.054C78.1852 327.774 78.6052 327.382 78.8945 326.878C79.1932 326.365 79.3425 325.772 79.3425 325.1C79.3425 324.428 79.1932 323.84 78.8945 323.336C78.6052 322.823 78.1852 322.431 77.6345 322.16C77.0932 321.88 76.4632 321.74 75.7445 321.74H73.3645V328.46H75.7445ZM89.3302 327.732H84.4302L83.4642 330H81.5882L85.9982 320.2H87.7902L92.2142 330H90.3102L89.3302 327.732ZM88.7282 326.304L86.8802 322.02L85.0462 326.304H88.7282ZM99.8725 330L97.8705 327.13C97.7865 327.139 97.6605 327.144 97.4925 327.144H95.2805V330H93.4605V320.2H97.4925C98.3419 320.2 99.0792 320.34 99.7045 320.62C100.339 320.9 100.825 321.301 101.161 321.824C101.497 322.347 101.665 322.967 101.665 323.686C101.665 324.423 101.483 325.058 101.119 325.59C100.764 326.122 100.251 326.519 99.5785 326.78L101.833 330H99.8725ZM99.8305 323.686C99.8305 323.061 99.6252 322.58 99.2145 322.244C98.8039 321.908 98.2019 321.74 97.4085 321.74H95.2805V325.646H97.4085C98.2019 325.646 98.8039 325.478 99.2145 325.142C99.6252 324.797 99.8305 324.311 99.8305 323.686ZM107.792 326.542V330H105.972V326.57L102.122 320.2H104.068L106.938 324.974L109.836 320.2H111.628L107.792 326.542ZM121.225 330.14C120.236 330.14 119.34 329.925 118.537 329.496C117.744 329.057 117.118 328.455 116.661 327.69C116.213 326.925 115.989 326.061 115.989 325.1C115.989 324.139 116.218 323.275 116.675 322.51C117.132 321.745 117.758 321.147 118.551 320.718C119.354 320.279 120.25 320.06 121.239 320.06C122.042 320.06 122.774 320.2 123.437 320.48C124.1 320.76 124.66 321.166 125.117 321.698L123.941 322.804C123.232 322.039 122.359 321.656 121.323 321.656C120.651 321.656 120.049 321.805 119.517 322.104C118.985 322.393 118.57 322.799 118.271 323.322C117.972 323.845 117.823 324.437 117.823 325.1C117.823 325.763 117.972 326.355 118.271 326.878C118.57 327.401 118.985 327.811 119.517 328.11C120.049 328.399 120.651 328.544 121.323 328.544C122.359 328.544 123.232 328.157 123.941 327.382L125.117 328.502C124.66 329.034 124.095 329.44 123.423 329.72C122.76 330 122.028 330.14 121.225 330.14ZM131.234 330.14C130.235 330.14 129.335 329.925 128.532 329.496C127.729 329.057 127.099 328.455 126.642 327.69C126.185 326.915 125.956 326.052 125.956 325.1C125.956 324.148 126.185 323.289 126.642 322.524C127.099 321.749 127.729 321.147 128.532 320.718C129.335 320.279 130.235 320.06 131.234 320.06C132.233 320.06 133.133 320.279 133.936 320.718C134.739 321.147 135.369 321.745 135.826 322.51C136.283 323.275 136.512 324.139 136.512 325.1C136.512 326.061 136.283 326.925 135.826 327.69C135.369 328.455 134.739 329.057 133.936 329.496C133.133 329.925 132.233 330.14 131.234 330.14ZM131.234 328.544C131.887 328.544 132.475 328.399 132.998 328.11C133.521 327.811 133.931 327.401 134.23 326.878C134.529 326.346 134.678 325.753 134.678 325.1C134.678 324.447 134.529 323.859 134.23 323.336C133.931 322.804 133.521 322.393 132.998 322.104C132.475 321.805 131.887 321.656 131.234 321.656C130.581 321.656 129.993 321.805 129.47 322.104C128.947 322.393 128.537 322.804 128.238 323.336C127.939 323.859 127.79 324.447 127.79 325.1C127.79 325.753 127.939 326.346 128.238 326.878C128.537 327.401 128.947 327.811 129.47 328.11C129.993 328.399 130.581 328.544 131.234 328.544ZM138.441 320.2H140.261V328.46H145.385V330H138.441V320.2ZM151.222 330.14C150.223 330.14 149.323 329.925 148.52 329.496C147.717 329.057 147.087 328.455 146.63 327.69C146.173 326.915 145.944 326.052 145.944 325.1C145.944 324.148 146.173 323.289 146.63 322.524C147.087 321.749 147.717 321.147 148.52 320.718C149.323 320.279 150.223 320.06 151.222 320.06C152.221 320.06 153.121 320.279 153.924 320.718C154.727 321.147 155.357 321.745 155.814 322.51C156.271 323.275 156.5 324.139 156.5 325.1C156.5 326.061 156.271 326.925 155.814 327.69C155.357 328.455 154.727 329.057 153.924 329.496C153.121 329.925 152.221 330.14 151.222 330.14ZM151.222 328.544C151.875 328.544 152.463 328.399 152.986 328.11C153.509 327.811 153.919 327.401 154.218 326.878C154.517 326.346 154.666 325.753 154.666 325.1C154.666 324.447 154.517 323.859 154.218 323.336C153.919 322.804 153.509 322.393 152.986 322.104C152.463 321.805 151.875 321.656 151.222 321.656C150.569 321.656 149.981 321.805 149.458 322.104C148.935 322.393 148.525 322.804 148.226 323.336C147.927 323.859 147.778 324.447 147.778 325.1C147.778 325.753 147.927 326.346 148.226 326.878C148.525 327.401 148.935 327.811 149.458 328.11C149.981 328.399 150.569 328.544 151.222 328.544ZM164.841 330L162.839 327.13C162.755 327.139 162.629 327.144 162.461 327.144H160.249V330H158.429V320.2H162.461C163.311 320.2 164.048 320.34 164.673 320.62C165.308 320.9 165.793 321.301 166.129 321.824C166.465 322.347 166.633 322.967 166.633 323.686C166.633 324.423 166.451 325.058 166.087 325.59C165.733 326.122 165.219 326.519 164.547 326.78L166.801 330H164.841ZM164.799 323.686C164.799 323.061 164.594 322.58 164.183 322.244C163.773 321.908 163.171 321.74 162.377 321.74H160.249V325.646H162.377C163.171 325.646 163.773 325.478 164.183 325.142C164.594 324.797 164.799 324.311 164.799 323.686ZM171.708 330.14C170.952 330.14 170.219 330.033 169.51 329.818C168.81 329.603 168.254 329.319 167.844 328.964L168.474 327.55C168.875 327.867 169.365 328.129 169.944 328.334C170.532 328.53 171.12 328.628 171.708 328.628C172.436 328.628 172.977 328.511 173.332 328.278C173.696 328.045 173.878 327.737 173.878 327.354C173.878 327.074 173.775 326.845 173.57 326.668C173.374 326.481 173.122 326.337 172.814 326.234C172.506 326.131 172.086 326.015 171.554 325.884C170.807 325.707 170.2 325.529 169.734 325.352C169.276 325.175 168.88 324.899 168.544 324.526C168.217 324.143 168.054 323.63 168.054 322.986C168.054 322.445 168.198 321.955 168.488 321.516C168.786 321.068 169.23 320.713 169.818 320.452C170.415 320.191 171.143 320.06 172.002 320.06C172.599 320.06 173.187 320.135 173.766 320.284C174.344 320.433 174.844 320.648 175.264 320.928L174.69 322.342C174.26 322.09 173.812 321.899 173.346 321.768C172.879 321.637 172.426 321.572 171.988 321.572C171.269 321.572 170.732 321.693 170.378 321.936C170.032 322.179 169.86 322.501 169.86 322.902C169.86 323.182 169.958 323.411 170.154 323.588C170.359 323.765 170.616 323.905 170.924 324.008C171.232 324.111 171.652 324.227 172.184 324.358C172.912 324.526 173.509 324.703 173.976 324.89C174.442 325.067 174.839 325.343 175.166 325.716C175.502 326.089 175.67 326.593 175.67 327.228C175.67 327.769 175.52 328.259 175.222 328.698C174.932 329.137 174.489 329.487 173.892 329.748C173.294 330.009 172.566 330.14 171.708 330.14Z" fill="white"/>
<path d="M19 369.996L19 452.154C19 457.122 23.0243 461.149 27.9886 461.149H167.011C171.976 461.149 176 457.122 176 452.154V369.996C176 365.028 171.976 361 167.011 361H27.9886C23.0243 361 19 365.028 19 369.996Z" fill="#2DA3AB" stroke="url(#paint3_linear_60_3597)" stroke-width="1.98368"/>
<path d="M192 366.646V485.395C192 489.065 194.973 492.041 198.641 492.041H301.36C305.028 492.041 308.001 489.065 308.001 485.395V366.646C308.001 362.976 305.028 360 301.36 360H198.641C194.973 360 192 362.976 192 366.646Z" fill="#3B2CDB" stroke="url(#paint4_linear_60_3597)" stroke-width="1.46566"/>
<path d="M19 487.303L19 726.697C19 731.835 25.5485 736 30.5 736H162C166.952 736 175 731.835 175 726.697L175 487.303C175 482.165 170.986 478 166.034 478H27.9655C23.014 478 19 482.165 19 487.303Z" fill="#F7EDFF" stroke="url(#paint5_linear_60_3597)" stroke-width="1.98368"/>
<path d="M192 520.302V723.698C192 730.492 200.332 736 204 736H297C300.668 736 308 730.492 308 723.698V520.302C308 513.508 302.168 508 298.5 508H202C198.332 508 192 513.508 192 520.302Z" fill="#96F086" stroke="url(#paint6_linear_60_3597)" stroke-width="1.46566"/>
<defs>
<linearGradient id="paint0_linear_60_3597" x1="250.623" y1="237.023" x2="250.623" y2="273.415" gradientUnits="userSpaceOnUse">
<stop stop-color="white" stop-opacity="0.2"/>
<stop offset="1" stop-color="white" stop-opacity="0.82"/>
</linearGradient>
<linearGradient id="paint1_linear_60_3597" x1="250.623" y1="74.6835" x2="250.623" y2="172.151" gradientUnits="userSpaceOnUse">
<stop stop-color="white" stop-opacity="0.2"/>
<stop offset="1" stop-color="white" stop-opacity="0.82"/>
</linearGradient>
<linearGradient id="paint2_linear_60_3597" x1="250.623" y1="184.493" x2="250.623" y2="224.683" gradientUnits="userSpaceOnUse">
<stop stop-color="white" stop-opacity="0.2"/>
<stop offset="1" stop-color="white" stop-opacity="0.82"/>
</linearGradient>
<linearGradient id="paint3_linear_60_3597" x1="19.5992" y1="411.075" x2="177.798" y2="411.075" gradientUnits="userSpaceOnUse">
<stop stop-color="white" stop-opacity="0.2"/>
<stop offset="1" stop-color="white" stop-opacity="0.7"/>
</linearGradient>
<linearGradient id="paint4_linear_60_3597" x1="192.443" y1="426.02" x2="309.329" y2="426.02" gradientUnits="userSpaceOnUse">
<stop stop-color="white" stop-opacity="0.2"/>
<stop offset="1" stop-color="white" stop-opacity="0.49"/>
</linearGradient>
<linearGradient id="paint5_linear_60_3597" x1="19.5977" y1="607" x2="176.793" y2="607" gradientUnits="userSpaceOnUse">
<stop stop-color="white" stop-opacity="0.2"/>
<stop offset="1" stop-color="white" stop-opacity="0.82"/>
</linearGradient>
<linearGradient id="paint6_linear_60_3597" x1="192.443" y1="622" x2="309.328" y2="622" gradientUnits="userSpaceOnUse">
<stop stop-color="white" stop-opacity="0.2"/>
<stop offset="1" stop-color="white" stop-opacity="0.82"/>
</linearGradient>
</defs>
</svg>
