<svg width="580" height="591" viewBox="0 0 580 591" fill="none" xmlns="http://www.w3.org/2000/svg">
<rect width="580" height="591" rx="50" fill="#D3D7DF"/>
<path d="M361 338.021H218V195H361V338.021ZM223.635 332.392H355.364V200.629H223.635V332.392Z" fill="#2A2A2C"/>
<path d="M269.281 334.789H263.646V240.653L358.181 240.804V246.433L269.281 246.299V334.789Z" fill="#2A2A2C"/>
<path d="M334.37 286.305H266.463V291.95H334.37V286.305Z" fill="#2A2A2C"/>
<path d="M291.702 196.519L286.665 199.047L355.617 336.448L360.654 333.918L291.702 196.519Z" fill="#2A2A2C"/>
<path d="M218 395.938V363.622H222.142V392.303H240.16V395.938H218Z" fill="#2A2A2C"/>
<path d="M266.567 392.303V395.938H244.614V363.622H266.153V367.24H248.653V377.694H263.875V381.112H248.653V392.303H266.567Z" fill="#2A2A2C"/>
<path d="M284.476 396.139C282.302 396.139 280.334 395.72 278.574 394.781C276.71 393.86 275.157 392.62 273.81 391.062C272.463 389.504 271.428 387.745 270.601 385.785C269.876 383.808 269.462 381.747 269.462 379.67C269.462 377.492 269.876 375.415 270.601 373.455C271.324 371.478 272.463 369.719 273.81 368.278C275.157 366.72 276.71 365.581 278.574 364.643C280.438 363.822 282.405 363.302 284.58 363.302C287.686 363.302 290.275 363.922 292.346 365.279C294.417 366.619 295.866 368.278 296.901 370.339L293.796 372.516C292.863 370.657 291.518 369.199 289.964 368.378C288.307 367.44 286.547 367.038 284.58 367.038C282.922 367.038 281.473 367.34 280.126 368.06C278.781 368.797 277.643 369.719 276.71 370.975C275.778 372.215 275.053 373.555 274.535 375.013C274.018 376.554 273.81 378.112 273.81 379.771C273.81 381.53 274.122 383.088 274.639 384.646C275.157 386.187 275.984 387.544 277.021 388.683C278.056 389.822 279.299 390.744 280.644 391.481C281.991 392.101 283.441 392.503 285.098 392.503C286.962 392.503 288.723 392 290.379 391.062C292.036 390.124 293.588 388.683 295.143 386.707V390.962C291.932 394.48 288.515 396.139 284.476 396.139ZM294.314 382.887H287.376V379.771H297.834V395.921H294.417V382.887H294.314Z" fill="#2A2A2C"/>
<path d="M304.047 395.938V363.622H308.189V381.531L324.86 363.622H329.314L316.37 377.912L330.038 396.039H325.482L313.678 380.291L308.189 386.088V396.039H304.047V395.938Z" fill="#2A2A2C"/>
<path d="M345.058 396.139C342.781 396.139 340.71 395.72 338.846 394.781C336.982 393.86 335.429 392.62 334.082 391.062C332.737 389.504 331.7 387.745 330.977 385.785C330.252 383.808 329.838 381.848 329.838 379.771C329.838 377.593 330.252 375.532 330.977 373.555C331.7 371.595 332.839 369.836 334.186 368.278C335.533 366.72 337.189 365.48 339.054 364.643C340.918 363.721 342.884 363.302 345.162 363.302C347.44 363.302 349.512 363.822 351.376 364.76C353.239 365.681 354.793 366.921 356.139 368.58C357.485 370.138 358.52 371.897 359.246 373.874C359.971 375.834 360.385 377.81 360.385 379.871C360.385 382.049 359.971 384.127 359.246 386.087C358.52 388.064 357.381 389.822 356.036 391.364C354.69 392.922 353.033 394.061 351.169 394.999C349.305 395.72 347.234 396.139 345.058 396.139ZM333.978 379.771C333.978 381.429 334.29 382.987 334.808 384.529C335.325 386.087 336.05 387.444 337.086 388.583C338.019 389.722 339.26 390.744 340.606 391.364C341.953 392.101 343.506 392.402 345.162 392.402C346.923 392.402 348.477 392 349.822 391.263C351.169 390.543 352.308 389.605 353.343 388.365C354.276 387.125 354.999 385.785 355.517 384.227C356.036 382.669 356.242 381.228 356.242 379.67C356.242 378.012 355.932 376.454 355.415 374.912C354.897 373.354 354.172 371.997 353.137 370.858C352.1 369.618 350.961 368.697 349.616 368.06C348.269 367.34 346.717 367.038 345.162 367.038C343.402 367.038 341.849 367.34 340.502 368.06C339.157 368.797 338.018 369.719 336.982 370.975C336.05 372.215 335.325 373.555 334.808 375.013C334.29 376.671 333.978 378.213 333.978 379.771Z" fill="#2A2A2C"/>
</svg>
