<svg width="580" height="591" viewBox="0 0 580 591" fill="none" xmlns="http://www.w3.org/2000/svg">
<rect width="580" height="591" rx="50" fill="#39393C"/>
<path d="M156.395 316.522H154V332.902H156.395V316.522Z" fill="white"/>
<path d="M172.148 328.922L164.271 320.057H162.592V332.903H164.799V324.226L172.594 332.903H174.46V320.057H172.148V328.922Z" fill="white"/>
<path d="M177.385 322.182H181.987V332.903H184.194V322.182H188.889V320.057H177.385V322.182Z" fill="white"/>
<path d="M193.937 327.407H200.324V325.376H193.937V322.182H201.204V320.057H191.73V332.903H201.38V330.777H193.937V327.407Z" fill="white"/>
<path d="M214.574 327.407C215.02 327.055 215.372 326.62 215.642 325.998C215.901 325.47 216.077 324.847 216.077 324.225C216.077 323.521 215.901 322.804 215.466 322.182C215.196 321.748 214.668 321.031 213.87 320.597C213.154 320.151 212.449 319.975 211.651 319.975H205.723V332.374V332.726H207.93V328.382H211.029L214.046 332.726H216.793L213.518 327.947C213.87 327.853 214.222 327.677 214.574 327.407ZM207.93 322.182H211.569C212.097 322.182 212.355 322.276 212.625 322.452C212.895 322.722 213.154 322.98 213.424 323.333C213.6 323.603 213.694 323.873 213.694 324.307C213.694 324.671 213.6 324.929 213.518 325.282C213.248 325.728 213.071 325.904 212.801 326.08C212.449 326.256 212.179 326.35 211.745 326.35H207.93V322.182Z" fill="white"/>
<path d="M222.898 320.057H220.68V332.903H222.898V320.057Z" fill="white"/>
<path d="M237.852 322.006C237.324 321.478 236.702 320.949 235.727 320.503C234.835 320.151 233.955 319.975 233.074 319.975C232.1 319.975 231.125 320.151 230.409 320.597C229.529 321.031 228.813 321.478 228.378 322.006C227.662 322.722 227.228 323.333 226.958 324.131C226.688 324.93 226.512 325.822 226.512 326.62C226.512 327.325 226.688 328.206 226.958 329.004C227.228 329.802 227.756 330.519 228.284 331.047C228.813 331.575 229.435 332.104 230.409 332.55C231.125 332.902 232.1 333.172 233.074 333.172C233.955 333.172 234.835 332.996 235.809 332.644C236.608 332.28 237.324 331.846 237.934 331.223C238.474 330.695 239.003 329.896 239.273 329.098C239.531 328.382 239.707 327.595 239.707 326.62C239.707 325.822 239.531 325.106 239.273 324.225C238.909 323.251 238.38 322.546 237.852 322.006ZM237.054 327.947C236.784 328.476 236.525 328.922 236.173 329.356C235.727 329.896 235.375 330.155 234.835 330.425C234.307 330.695 233.685 330.777 233.074 330.777C232.358 330.777 231.83 330.695 231.301 330.425C230.761 330.249 230.409 329.896 229.963 329.45C229.529 328.922 229.353 328.57 229.083 327.947C228.907 327.501 228.813 327.055 228.813 326.35C228.813 325.728 228.989 325.106 229.177 324.753C229.435 324.225 229.705 323.779 230.057 323.333C230.503 322.898 230.937 322.546 231.477 322.358C232.006 322.1 232.628 322.006 233.25 322.006C233.861 322.006 234.401 322.1 234.929 322.358C235.457 322.546 235.809 322.898 236.255 323.333C236.608 323.697 236.878 324.225 237.148 324.753C237.324 325.2 237.406 325.646 237.406 326.35C237.406 327.055 237.324 327.501 237.054 327.947Z" fill="white"/>
<path d="M249.898 328.029C250.251 327.853 250.603 327.677 250.955 327.407C251.401 327.055 251.753 326.62 252.023 325.998C252.293 325.47 252.469 324.847 252.469 324.225C252.469 323.521 252.293 322.804 251.847 322.182C251.577 321.748 251.049 321.031 250.251 320.597C249.546 320.151 248.83 319.975 248.032 319.975H242.104V332.726H244.322V328.382H247.504L250.521 332.726H253.174L249.898 328.029ZM244.322 322.182H247.95C248.478 322.182 248.748 322.276 249.006 322.452C249.276 322.722 249.546 322.98 249.805 323.333C249.981 323.603 250.075 323.873 250.075 324.307C250.075 324.671 249.981 324.929 249.898 325.282C249.628 325.728 249.452 325.904 249.194 326.08C248.83 326.256 248.572 326.35 248.126 326.35H244.404V322.182H244.322Z" fill="white"/>
<path d="M272.883 317.286C271.732 316.487 270.312 316.135 268.539 316.135H262.869V332.609H268.539C270.042 332.609 271.38 332.257 272.707 331.541C273.857 330.836 274.738 329.861 275.454 328.617C276.064 327.466 276.428 326.057 276.428 324.366C276.428 322.946 276.158 321.619 275.63 320.292C275.09 319.141 274.21 318.084 272.883 317.286ZM271.556 329.509C270.84 330.038 269.866 330.308 268.633 330.308H265.358V318.437H268.633C269.784 318.437 270.758 318.695 271.556 319.141C272.437 319.669 273.059 320.292 273.411 321.184C273.857 322.159 274.127 323.215 274.127 324.284C274.127 325.435 273.857 326.409 273.329 327.384C272.883 328.358 272.355 329.063 271.556 329.509Z" fill="white"/>
<path d="M282.182 327.02H288.556V324.988H282.182V321.795H289.448V319.669H279.963V332.515H289.625V330.39H282.182V327.02Z" fill="white"/>
<path d="M301.046 325.611L300.6 325.435C300.072 325.259 299.45 325.071 298.745 324.895C298.029 324.719 297.419 324.637 296.797 324.367C296.268 324.191 295.998 324.015 295.822 323.838C295.646 323.662 295.552 323.486 295.552 323.134C295.552 322.594 295.728 322.242 296.174 321.972C296.62 321.713 297.325 321.537 298.299 321.537C298.828 321.537 299.18 321.619 299.626 321.713C299.978 321.795 300.342 321.971 300.6 322.065L300.776 322.242C301.046 322.418 301.222 322.594 301.398 322.77L301.844 323.216L302.725 321.267L302.549 321.091C302.021 320.469 301.316 320.21 300.6 319.94C299.896 319.67 299.18 319.588 298.123 319.588C297.055 319.588 296.268 319.67 295.552 319.94C294.672 320.292 294.132 320.739 293.779 321.185C293.345 321.795 293.075 322.512 293.075 323.31C293.075 324.191 293.345 324.719 293.603 325.165C293.956 325.788 294.578 326.046 295.106 326.316C295.646 326.586 296.444 326.844 297.419 327.021C298.299 327.208 299.004 327.384 299.544 327.561C300.154 327.737 300.518 327.995 300.694 328.183C300.87 328.359 301.046 328.711 301.046 328.97C301.046 329.416 300.87 329.686 300.424 330.038C299.896 330.39 299.18 330.484 298.299 330.484C297.677 330.484 297.055 330.39 296.62 330.214C296.08 330.038 295.646 329.862 295.106 329.592C294.848 329.51 294.578 329.334 294.32 329.064C294.226 328.97 294.132 328.887 294.05 328.793L293.697 328.535L292.547 330.484L292.899 330.743C293.697 331.365 294.578 331.811 295.47 332.069C296.527 332.339 297.501 332.516 298.393 332.516C299.097 332.516 299.72 332.433 300.342 332.339C301.046 332.163 301.492 331.987 301.927 331.635C302.467 331.365 302.725 330.919 303.077 330.39C303.347 329.944 303.523 329.334 303.523 328.617C303.523 327.819 303.347 327.208 302.901 326.586C302.197 326.14 301.574 325.788 301.046 325.611Z" fill="white"/>
<path d="M309.02 319.669H306.801V332.515H309.02V319.669Z" fill="white"/>
<path d="M319.737 327.642H322.66V328.617C322.038 329.239 321.51 329.591 321.064 329.862C320.442 330.214 319.737 330.308 319.021 330.308C318.317 330.308 317.788 330.214 317.342 330.038C316.814 329.768 316.274 329.415 316.016 329.063C315.664 328.617 315.3 328.265 315.123 327.642C314.947 327.114 314.771 326.586 314.771 325.963C314.771 325.435 314.947 324.813 315.123 324.367C315.3 323.838 315.57 323.392 315.922 323.04C316.192 322.687 316.638 322.417 317.166 322.065C317.788 321.795 318.411 321.619 318.939 321.619C319.737 321.619 320.348 321.795 321.064 322.065C321.51 322.335 322.12 322.77 322.484 323.486L322.742 323.92L324.609 322.687L324.433 322.335C323.987 321.443 323.271 320.738 322.39 320.292C321.51 319.764 320.348 319.494 319.115 319.494C318.317 319.494 317.436 319.588 316.544 319.94C315.746 320.292 315.041 320.738 314.419 321.361C313.973 321.889 313.445 322.593 313.093 323.486C312.823 324.284 312.646 325.165 312.646 325.963C312.646 326.668 312.823 327.56 313.093 328.359C313.445 329.239 313.973 329.944 314.419 330.39C314.947 330.918 315.57 331.458 316.544 331.893C317.342 332.257 318.223 332.515 319.115 332.515C320.089 332.515 320.888 332.257 321.592 331.893C322.038 331.717 322.484 331.459 322.836 331.106V332.433H324.867V325.611H319.913V327.642H319.737Z" fill="white"/>
<path d="M338.779 319.669V328.534L330.89 319.669H329.211V332.515H331.43V323.838L339.213 332.515H341.079V319.669H338.779Z" fill="white"/>
<path d="M154.914 299.016V259.282H159.95V294.531H182.103V299.016H154.914Z" fill="white"/>
<path d="M214.551 294.531V299.016H187.586V259.282H214.047V263.755H192.622V276.624H211.253V280.828H192.622V294.531H214.551Z" fill="white"/>
<path d="M236.642 299.286C234.024 299.286 231.582 298.734 229.305 297.607C227.074 296.456 225.114 294.93 223.435 293.028C221.756 291.078 220.453 288.918 219.514 286.534C218.587 284.104 218.117 281.603 218.117 279.032C218.117 276.343 218.587 273.806 219.514 271.423C220.453 268.992 221.733 266.855 223.376 264.988C225.055 263.121 227.016 261.665 229.246 260.62C231.524 259.54 233.989 259 236.642 259C240.481 259 243.651 259.798 246.151 261.407C248.652 263.016 250.53 265.094 251.798 267.677L247.936 270.354C246.785 268.041 245.2 266.327 243.181 265.211C241.174 264.096 238.955 263.532 236.525 263.532C234.506 263.532 232.686 263.967 231.042 264.824C229.399 265.681 227.978 266.855 226.793 268.346C225.63 269.802 224.738 271.458 224.104 273.325C223.506 275.192 223.212 277.129 223.212 279.149C223.212 281.979 223.811 284.597 224.997 286.981C226.229 289.329 227.896 291.219 229.974 292.628C232.064 294.049 234.423 294.754 237.03 294.754C239.154 294.754 241.185 294.249 243.122 293.251C245.106 292.206 246.973 290.621 248.722 288.495V283.012H240.164V279.196H252.972V299.016H248.722V293.638C245.294 297.407 241.268 299.286 236.642 299.286Z" fill="white"/>
<path d="M260.627 299.016V259.341H265.663V281.274L286.149 259.282H291.572L275.63 276.801L292.464 299.016H286.818L272.437 279.818L265.663 286.863V299.016H260.627Z" fill="white"/>
<path d="M311.002 299.286C308.208 299.286 305.672 298.734 303.395 297.607C301.117 296.491 299.145 294.977 297.466 293.075C295.823 291.137 294.555 288.977 293.663 286.593C292.77 284.163 292.312 281.685 292.312 279.149C292.312 276.495 292.782 273.982 293.721 271.587C294.684 269.168 296.011 267.02 297.689 265.153C299.403 263.251 301.399 261.759 303.676 260.679C305.954 259.564 308.431 259 311.119 259C313.913 259 316.449 259.575 318.726 260.738C321.004 261.888 322.952 263.438 324.596 265.376C326.24 267.325 327.508 269.485 328.4 271.869C329.304 274.253 329.75 276.707 329.75 279.196C329.75 281.849 329.28 284.386 328.353 286.816C327.414 289.2 326.087 291.349 324.373 293.251C322.694 295.118 320.722 296.585 318.445 297.666C316.167 298.746 313.69 299.286 311.002 299.286ZM297.408 279.149C297.408 281.157 297.724 283.118 298.358 285.02C299.027 286.887 299.967 288.542 301.152 289.998C302.35 291.454 303.782 292.617 305.461 293.474C307.14 294.331 309.006 294.754 311.061 294.754C313.185 294.754 315.087 294.308 316.766 293.415C318.445 292.523 319.865 291.325 321.016 289.834C322.213 288.343 323.105 286.664 323.704 284.797C324.338 282.93 324.655 281.051 324.655 279.149C324.655 277.129 324.314 275.192 323.645 273.325C323.011 271.458 322.084 269.802 320.851 268.346C319.654 266.855 318.221 265.693 316.543 264.871C314.899 264.014 313.08 263.591 311.061 263.591C308.936 263.591 307.034 264.037 305.355 264.93C303.676 265.787 302.244 266.961 301.047 268.452C299.885 269.955 298.992 271.622 298.358 273.489C297.724 275.321 297.408 277.2 297.408 279.149Z" fill="white"/>
<path d="M334.797 299.015V292.745H338.941V299.015H334.797Z" fill="white"/>
<path d="M343.955 278.866C343.955 276.436 344.366 274.076 345.176 271.763C346.033 269.403 347.266 267.277 348.874 265.375C350.517 263.438 352.513 261.911 354.861 260.796C357.209 259.633 359.874 259.058 362.856 259.058C366.401 259.058 369.441 259.88 371.977 261.512C374.513 263.121 376.403 265.187 377.636 267.724L373.656 270.307C372.869 268.628 371.872 267.301 370.639 266.326C369.441 265.328 368.138 264.612 366.718 264.201C365.344 263.79 363.983 263.59 362.632 263.59C360.437 263.59 358.477 264.037 356.763 264.929C355.084 265.821 353.664 267.019 352.513 268.51C351.351 270.001 350.482 271.68 349.883 273.547C349.32 275.379 349.038 277.223 349.038 279.089C349.038 281.144 349.379 283.117 350.048 285.019C350.752 286.921 351.727 288.6 352.959 290.056C354.192 291.512 355.647 292.663 357.326 293.532C359.005 294.389 360.825 294.812 362.809 294.812C364.182 294.812 365.603 294.565 367.058 294.084C368.514 293.602 369.876 292.851 371.144 291.853C372.411 290.808 373.421 289.458 374.161 287.814L378.363 290.115C377.542 292.088 376.274 293.767 374.548 295.152C372.834 296.526 370.921 297.571 368.796 298.287C366.706 298.992 364.628 299.344 362.586 299.344C359.862 299.344 357.362 298.769 355.084 297.606C352.807 296.42 350.834 294.847 349.156 292.91C347.512 290.937 346.221 288.73 345.293 286.311C344.401 283.845 343.955 281.367 343.955 278.866Z" fill="white"/>
<path d="M400.342 299.286C397.536 299.286 395 298.734 392.734 297.607C390.457 296.491 388.473 294.977 386.794 293.075C385.162 291.137 383.895 288.977 382.991 286.593C382.098 284.163 381.652 281.685 381.652 279.149C381.652 276.495 382.122 273.982 383.049 271.587C384.024 269.168 385.338 267.02 387.017 265.153C388.743 263.251 390.739 261.759 393.004 260.679C395.282 259.564 397.759 259 400.447 259C403.253 259 405.789 259.575 408.054 260.738C410.332 261.888 412.292 263.438 413.936 265.376C415.579 267.325 416.847 269.485 417.74 271.869C418.632 274.253 419.078 276.707 419.078 279.196C419.078 281.849 418.62 284.386 417.681 286.816C416.753 289.2 415.427 291.349 413.713 293.251C412.034 295.118 410.05 296.585 407.784 297.666C405.507 298.746 403.018 299.286 400.342 299.286ZM386.747 279.149C386.747 281.157 387.064 283.118 387.698 285.02C388.367 286.887 389.295 288.542 390.492 289.998C391.69 291.454 393.122 292.617 394.801 293.474C396.479 294.331 398.346 294.754 400.389 294.754C402.525 294.754 404.427 294.308 406.106 293.415C407.784 292.523 409.193 291.325 410.355 289.834C411.541 288.343 412.445 286.664 413.044 284.797C413.678 282.93 413.995 281.051 413.995 279.149C413.995 277.129 413.654 275.192 412.985 273.325C412.351 271.458 411.412 269.802 410.179 268.346C408.994 266.855 407.55 265.693 405.883 264.871C404.239 264.014 402.408 263.591 400.389 263.591C398.264 263.591 396.362 264.037 394.683 264.93C393.004 265.787 391.572 266.961 390.375 268.452C389.224 269.955 388.332 271.622 387.698 273.489C387.064 275.321 386.747 277.2 386.747 279.149Z" fill="white"/>
<path d="M460.424 299.016V268.675L447.334 292.018H444.259L431.111 268.675V299.016H426.074V259.282H431.392L445.773 285.078L460.201 259.282H465.46V299.016H460.424Z" fill="white"/>
</svg>
