<svg width="703" height="620" viewBox="0 0 703 620" fill="none" xmlns="http://www.w3.org/2000/svg">
<g clip-path="url(#clip0_45_2686)">
<g filter="url(#filter0_f_45_2686)">
<circle cx="129.239" cy="385.449" r="141.571" transform="rotate(-48.8175 129.239 385.449)" fill="url(#paint0_linear_45_2686)" fill-opacity="0.7"/>
</g>
<circle cx="36.9138" cy="420.236" r="75.7" transform="rotate(-4.74595 36.9138 420.236)" fill="url(#paint1_linear_45_2686)"/>
<g filter="url(#filter1_f_45_2686)">
<circle cx="680.461" cy="286.46" r="92.463" fill="#FF55DE"/>
</g>
<g filter="url(#filter2_f_45_2686)">
<ellipse cx="523.848" cy="162.714" rx="68.1098" ry="67.7138" fill="#F7B40D"/>
</g>
<circle cx="36.9138" cy="420.236" r="75.7" transform="rotate(-4.74595 36.9138 420.236)" fill="url(#paint2_linear_45_2686)"/>
<circle cx="638.65" cy="232.373" r="60.1901" transform="rotate(-43.7973 638.65 232.373)" fill="url(#paint3_linear_45_2686)"/>
<path d="M91.0993 234.914H152.092V248.622H106.298V276.933H144.046V290.741H106.298V329.979H91V234.914H91.0993Z" fill="#031C5B"/>
<path d="M218.647 329.979H204.542V322.032C199.376 328.191 191.628 331.568 181.992 331.568C167.191 331.568 157.357 323.323 157.357 311.105C157.357 298.886 167.39 290.939 183.383 290.939H203.35V286.37C203.35 276.536 197.886 271.271 188.25 271.271C180.303 271.271 174.542 274.748 168.681 281.801L159.94 272.86C166.992 262.629 177.522 257.761 189.74 257.761C207.124 257.761 218.647 268.291 218.647 287.264V329.979V329.979ZM203.35 301.867H185.171C177.125 301.867 172.655 304.747 172.655 310.509C172.655 316.37 177.721 319.846 185.072 319.846C195.303 319.846 203.35 312.794 203.35 303.158V301.867V301.867Z" fill="#031C5B"/>
<path d="M295.633 308.323C301.792 314.78 308.05 318.356 315.5 318.356C321.957 318.356 326.825 315.575 326.825 310.409C326.825 306.237 323.845 304.549 316.891 301.668L309.739 298.688C297.223 293.522 291.362 288.059 291.362 278.125C291.362 265.41 301.891 257.662 316.295 257.662C326.527 257.662 334.573 261.238 340.732 268.589L332.487 277.926C328.017 273.357 322.156 270.774 315.898 270.774C310.037 270.774 306.262 273.059 306.262 277.529C306.262 281.105 308.746 282.992 315.6 285.873L322.355 288.655C335.765 294.317 341.626 299.979 341.626 309.913C341.626 316.668 339.143 322.032 334.176 325.906C329.11 329.681 322.951 331.568 315.5 331.568C303.381 331.568 293.348 326.105 286.991 317.86L295.633 308.323Z" fill="#031C5B"/>
<path d="M366.758 222.894C372.42 222.894 376.99 227.364 376.99 232.927C376.99 238.589 372.42 242.861 366.758 242.861C360.996 242.861 356.427 238.589 356.427 232.927C356.328 227.265 360.996 222.894 366.758 222.894ZM359.109 259.251H374.208V329.979H359.109V259.251Z" fill="#031C5B"/>
<path d="M465.499 259.251V322.628C465.499 344.978 451.492 357.495 430.135 357.495C416.128 357.495 404.705 352.031 396.162 344.084L404.506 333.555C412.453 339.912 419.605 343.588 429.241 343.588C442.055 343.588 450.399 336.634 450.399 323.422V318.356C445.035 324.813 436.294 328.389 426.459 328.389C406.791 328.389 392.089 313.588 392.089 293.025C392.089 272.463 406.89 257.662 426.459 257.662C437.287 257.662 446.327 261.933 451.492 269.284V259.251H465.499ZM429.141 271.171C422.983 271.171 417.916 273.158 413.744 277.231C409.572 281.304 407.585 286.569 407.585 293.025C407.585 299.681 409.572 304.946 413.744 309.118C417.916 313.191 422.983 315.178 429.141 315.178C435.002 315.178 439.969 313.29 444.141 309.416C448.313 305.542 450.499 300.078 450.499 292.827C450.499 278.522 440.863 271.171 429.141 271.171Z" fill="#031C5B"/>
<path d="M549.04 329.979H533.941V287.959C533.941 278.125 527.882 271.569 518.544 271.569C509.206 271.569 502.452 278.324 502.452 287.959V329.979H487.352V222H502.452V266.304C507.22 260.642 514.372 257.662 522.915 257.662C539.007 257.662 549.14 268.986 549.14 285.774V329.979H549.04Z" fill="#031C5B"/>
<path d="M612.119 329.979C607.351 330.972 603.179 331.568 599.603 331.568C583.312 331.568 573.577 323.522 573.577 306.932V272.363H562.054V259.251H573.577V240.675H588.874V259.251H609.834V272.363H588.775V305.641C588.775 314.681 593.543 317.86 602.782 317.86C604.967 317.86 607.947 317.561 612.119 317.164V329.979Z" fill="#031C5B"/>
<path d="M279.64 259.251H237.025V274.35V329.979H252.223V274.35H279.64V259.251Z" fill="#031C5B"/>
</g>
<defs>
<filter id="filter0_f_45_2686" x="-170.729" y="85.4809" width="599.937" height="599.937" filterUnits="userSpaceOnUse" color-interpolation-filters="sRGB">
<feFlood flood-opacity="0" result="BackgroundImageFix"/>
<feBlend mode="normal" in="SourceGraphic" in2="BackgroundImageFix" result="shape"/>
<feGaussianBlur stdDeviation="79.1975" result="effect1_foregroundBlur_45_2686"/>
</filter>
<filter id="filter1_f_45_2686" x="449.402" y="55.4013" width="462.117" height="462.117" filterUnits="userSpaceOnUse" color-interpolation-filters="sRGB">
<feFlood flood-opacity="0" result="BackgroundImageFix"/>
<feBlend mode="normal" in="SourceGraphic" in2="BackgroundImageFix" result="shape"/>
<feGaussianBlur stdDeviation="69.2978" result="effect1_foregroundBlur_45_2686"/>
</filter>
<filter id="filter2_f_45_2686" x="317.142" y="-43.5955" width="413.411" height="412.619" filterUnits="userSpaceOnUse" color-interpolation-filters="sRGB">
<feFlood flood-opacity="0" result="BackgroundImageFix"/>
<feBlend mode="normal" in="SourceGraphic" in2="BackgroundImageFix" result="shape"/>
<feGaussianBlur stdDeviation="69.2978" result="effect1_foregroundBlur_45_2686"/>
</filter>
<linearGradient id="paint0_linear_45_2686" x1="129.239" y1="243.878" x2="129.239" y2="527.021" gradientUnits="userSpaceOnUse">
<stop stop-color="#F7B40D"/>
<stop offset="1" stop-color="#FF55DE"/>
</linearGradient>
<linearGradient id="paint1_linear_45_2686" x1="36.9138" y1="344.536" x2="36.9138" y2="495.936" gradientUnits="userSpaceOnUse">
<stop stop-color="#790BF9" stop-opacity="0.24"/>
<stop offset="0.59375" stop-color="#790BF9" stop-opacity="0"/>
</linearGradient>
<linearGradient id="paint2_linear_45_2686" x1="36.9138" y1="344.536" x2="36.9138" y2="495.936" gradientUnits="userSpaceOnUse">
<stop stop-color="#790BF9" stop-opacity="0.24"/>
<stop offset="0.59375" stop-color="#790BF9" stop-opacity="0"/>
</linearGradient>
<linearGradient id="paint3_linear_45_2686" x1="638.65" y1="172.183" x2="638.65" y2="292.563" gradientUnits="userSpaceOnUse">
<stop stop-color="#FF55DE" stop-opacity="0.35"/>
<stop offset="0.53125" stop-color="#FF55DE" stop-opacity="0"/>
</linearGradient>
<clipPath id="clip0_45_2686">
<rect width="703" height="620" rx="50" fill="white"/>
</clipPath>
</defs>
</svg>
