<svg width="1200" height="620" viewBox="0 0 1200 620" fill="none" xmlns="http://www.w3.org/2000/svg">
<rect width="1200" height="620" rx="50" fill="#F4F4F4"/>
<path d="M674.583 132.024H657.809L688.214 185.554L657.809 239.084H674.583L704.998 185.554L674.583 132.024Z" fill="#3FD4B5"/>
<path d="M495.532 239.084L465.122 185.554L495.532 132.024H478.754L448.344 185.554L478.754 239.084H495.532Z" fill="#3FD4B5"/>
<path d="M617.697 113.648L576.801 185.555L617.697 257.461L658.33 185.555L617.697 113.648Z" fill="#68605B"/>
<path d="M515.456 185.555H495.007L505.231 167.712H525.679L515.456 185.555Z" fill="#2B8F7B"/>
<path d="M535.904 185.555H515.456L525.679 167.712H546.128L535.904 185.555Z" fill="#37A78F"/>
<path d="M556.351 185.555H535.903L546.127 167.712H566.575L556.351 185.555Z" fill="#9CEEC6"/>
<path d="M576.8 185.555H556.352L566.576 167.712H587.025L576.8 185.555Z" fill="#70D0BC"/>
<path d="M525.679 167.712H505.23L515.455 149.602H535.903L525.679 167.712Z" fill="#37A78F"/>
<path d="M546.127 167.712H525.679L535.904 149.602H556.352L546.127 167.712Z" fill="#9CEEC6"/>
<path d="M566.577 167.712H546.128L556.353 149.602H576.801L566.577 167.712Z" fill="#2B8F7B"/>
<path d="M587.024 167.712H566.576L576.8 149.602H597.248L587.024 167.712Z" fill="#9CEEC6"/>
<path d="M535.904 149.602H515.456L525.679 131.492H546.128L535.904 149.602Z" fill="#2B8F7B"/>
<path d="M556.351 149.602H535.903L546.127 131.492L566.575 131.758L556.351 149.602Z" fill="#70D0BC"/>
<path d="M576.8 149.601H556.352L566.576 131.757H587.025L576.8 149.601Z" fill="#37A78F"/>
<path d="M597.249 149.601H576.801L587.024 131.757H607.472L597.249 149.601Z" fill="#70D0BC"/>
<path d="M546.127 131.492H525.679L535.904 113.648H556.352L546.127 131.492Z" fill="#9CEEC6"/>
<path d="M566.577 131.758L546.128 131.492L556.353 113.648H576.801L566.577 131.758Z" fill="#2B8F7B"/>
<path d="M587.024 131.758H566.576L576.8 113.648H597.248L587.024 131.758Z" fill="#9CEEC6"/>
<path d="M607.472 131.758H587.023L597.248 113.648H617.696L607.472 131.758Z" fill="#37A78F"/>
<path d="M576.845 185.555H494.744L535.641 257.461H617.702L576.845 185.555Z" fill="#9F877D"/>
<path d="M515.193 185.555H494.744L504.968 203.665H525.416L515.193 185.555Z" fill="#37A78F"/>
<path d="M535.64 185.555H515.192L525.416 203.665H546.126L535.64 185.555Z" fill="#2B8F7B"/>
<path d="M556.353 185.555H535.642L546.128 203.665H566.576L556.353 185.555Z" fill="#3F9F8C"/>
<path d="M576.8 185.555H556.352L566.576 203.665H587.025L576.8 185.555Z" fill="#37A78F"/>
<path d="M597.248 185.555L587.023 167.445L597.248 149.602L607.472 167.445L597.248 185.555Z" fill="#3F9F8C"/>
<path d="M607.473 167.444L597.249 149.601L607.473 131.492L617.697 149.601L607.473 167.444Z" fill="#2B8F7B"/>
<path d="M617.697 149.602L607.474 131.492L617.697 113.648L627.922 131.492L617.697 149.602Z" fill="#9CEEC6"/>
<path d="M587.024 203.664L576.801 185.554L587.024 167.444L597.249 185.554L587.024 203.664Z" fill="#2B8F7B"/>
<path d="M419.017 381.762V292.169H452.499C461.091 292.169 467.661 294.651 472.21 299.613C476.758 304.577 479.033 311.337 479.033 319.894C479.033 328.451 476.758 335.211 472.21 340.175C467.661 345.137 461.091 347.619 452.499 347.619H435.569V381.762H419.017ZM435.569 333.885H449.088C453.553 333.885 456.753 332.986 458.691 331.19C460.628 329.307 461.597 326.355 461.597 322.332V317.456C461.597 313.433 460.628 310.524 458.691 308.727C456.753 306.844 453.553 305.903 449.088 305.903H435.569V333.885ZM511.33 381.762H494.778V292.169H528.261C536.853 292.169 543.424 294.651 547.972 299.613C552.521 304.577 554.795 311.337 554.795 319.894C554.795 326.483 553.279 332.045 550.246 336.58C547.298 341.03 543.044 343.854 537.485 345.052L556.311 381.762H538.116L521.312 346.978H511.33V381.762ZM524.849 333.885C529.314 333.885 532.515 332.986 534.452 331.19C536.39 329.307 537.358 326.355 537.358 322.332V317.456C537.358 313.433 536.39 310.524 534.452 308.727C532.515 306.844 529.314 305.903 524.849 305.903H511.33V333.885H524.849ZM598.337 383.302C592.609 383.302 587.639 382.276 583.428 380.223C579.216 378.082 575.721 375.045 572.94 371.109C570.245 367.172 568.223 362.337 566.876 356.604C565.612 350.871 564.98 344.325 564.98 336.965C564.98 329.692 565.612 323.188 566.876 317.456C568.223 311.636 570.245 306.759 572.94 302.823C575.721 298.886 579.216 295.891 583.428 293.838C587.639 291.698 592.609 290.628 598.337 290.628C609.793 290.628 618.216 294.693 623.607 302.823C628.999 310.952 631.694 322.332 631.694 336.965C631.694 351.598 628.999 362.98 623.607 371.109C618.216 379.238 609.793 383.302 598.337 383.302ZM598.337 369.568C601.285 369.568 603.77 369.013 605.792 367.9C607.813 366.702 609.414 365.033 610.594 362.894C611.856 360.755 612.741 358.145 613.247 355.064C613.836 351.898 614.131 348.39 614.131 344.539V329.264C614.131 321.563 612.951 315.487 610.594 311.038C608.319 306.588 604.233 304.363 598.337 304.363C592.441 304.363 588.313 306.588 585.955 311.038C583.68 315.487 582.543 321.563 582.543 329.264V344.667C582.543 352.368 583.68 358.444 585.955 362.894C588.313 367.343 592.441 369.568 598.337 369.568ZM689.392 369.312H688.381C687.615 371.109 686.692 372.863 685.601 374.575C684.501 376.286 683.156 377.783 681.555 379.067C679.954 380.35 678.059 381.377 675.869 382.147C673.757 382.917 671.322 383.302 668.543 383.302C659.615 383.302 652.829 379.324 648.197 371.365C643.649 363.322 641.374 352.069 641.374 337.608C641.374 322.375 644.069 310.738 649.461 302.694C654.852 294.651 663.151 290.628 674.357 290.628C678.737 290.628 682.567 291.228 685.847 292.426C689.216 293.623 692.083 295.292 694.44 297.431C696.886 299.57 698.86 302.138 700.382 305.133C701.983 308.043 703.24 311.208 704.173 314.631L689.009 318.995C688.42 317.113 687.742 315.273 686.986 313.476C686.309 311.679 685.385 310.139 684.207 308.856C683.117 307.486 681.761 306.416 680.161 305.646C678.56 304.79 676.586 304.363 674.229 304.363C668.749 304.363 664.83 306.588 662.473 311.038C660.116 315.487 658.938 321.563 658.938 329.264V343.64C658.938 347.491 659.193 351.042 659.694 354.294C660.283 357.46 661.206 360.198 662.473 362.509C663.74 364.819 665.38 366.616 667.403 367.9C669.426 369.097 671.95 369.697 674.985 369.697C679.699 369.697 683.284 368.284 685.719 365.461C688.165 362.552 689.392 358.872 689.392 354.423V347.106H673.345V334.912H704.173V381.762H689.392V369.312Z" fill="#485FEB"/>
<path d="M520.923 465.874L511.7 478.197V505.152H495.147V415.558H511.7V455.863H512.458L522.692 440.973L541.266 415.558H559.966L532.295 453.296L561.23 505.152H542.529L520.923 465.874ZM571.541 505.152V492.573H591.378V428.137H571.541V415.558H627.642V428.137H607.805V492.573H627.642V505.152H571.541ZM646.672 415.558H674.092C685.543 415.558 694.058 419.41 699.616 427.111C705.253 434.813 708.082 445.894 708.082 460.355C708.082 474.902 705.253 486.026 699.616 493.728C694.058 501.344 685.543 505.152 674.092 505.152H646.672V415.558ZM672.952 491.674C679.022 491.674 683.48 489.664 686.348 485.642C689.294 481.62 690.768 475.758 690.768 468.057V452.525C690.768 444.91 689.294 439.091 686.348 435.069C683.48 431.047 679.022 429.036 672.952 429.036H662.975V491.674H672.952ZM750.105 506.692C742.524 506.692 736.042 505.366 730.65 502.714C725.337 500.061 721.006 496.552 717.628 492.188L727.616 481.663C730.896 485.514 734.441 488.38 738.232 490.263C742.101 492.059 746.226 492.958 750.606 492.958C755.664 492.958 759.543 491.803 762.234 489.492C764.925 487.182 766.28 483.844 766.28 479.481C766.28 475.887 765.269 473.191 763.246 471.394C761.223 469.512 757.815 468.185 753.012 467.415L743.663 465.874C735.492 464.42 729.678 461.425 726.221 456.889C722.774 452.269 721.045 446.835 721.045 440.588C721.045 432.031 723.785 425.485 729.256 420.95C734.736 416.329 742.317 414.018 752.001 414.018C758.905 414.018 764.846 415.131 769.816 417.355C774.874 419.58 778.91 422.618 781.945 426.469L772.212 436.995C769.855 434.17 767.037 431.945 763.747 430.32C760.466 428.608 756.587 427.752 752.128 427.752C742.524 427.752 737.721 431.775 737.721 439.818C737.721 443.241 738.733 445.851 740.756 447.648C742.779 449.445 746.226 450.771 751.117 451.627L760.339 453.296C768.009 454.75 773.685 457.618 777.398 461.896C781.1 466.175 782.956 471.651 782.956 478.325C782.956 482.519 782.239 486.37 780.805 489.877C779.372 493.3 777.27 496.295 774.491 498.863C771.711 501.344 768.254 503.269 764.13 504.639C760.083 506.008 755.409 506.692 750.105 506.692Z" fill="#3FD4B5"/>
</svg>
