<svg width="328" height="290" viewBox="0 0 328 290" fill="none" xmlns="http://www.w3.org/2000/svg">
<rect width="328" height="290" rx="30" fill="#1A1B1D"/>
<path d="M107.417 60.4912H119.737C122.991 60.4912 125.591 61.3445 127.537 63.0512C129.484 64.7578 130.457 67.1445 130.457 70.2112C130.457 73.3578 129.484 75.7978 127.537 77.5312C125.617 79.2378 123.017 80.0912 119.737 80.0912H114.497V88.4512H107.417V60.4912ZM118.617 74.1312C120.031 74.1312 121.137 73.8378 121.937 73.2512C122.764 72.6645 123.177 71.6512 123.177 70.2112C123.177 68.7712 122.777 67.7845 121.977 67.2512C121.177 66.7178 120.057 66.4512 118.617 66.4512H114.497V74.1312H118.617ZM132.847 69.2512H139.647V71.6512C140.394 70.7978 141.447 70.1445 142.807 69.6912C144.167 69.2112 145.674 68.9712 147.327 68.9712V74.3712C145.567 74.3712 144.007 74.6245 142.647 75.1312C141.314 75.6378 140.394 76.3978 139.887 77.4112V88.4512H132.847V69.2512ZM159.785 89.0512C157.412 89.0512 155.332 88.6245 153.545 87.7712C151.759 86.8912 150.372 85.6912 149.385 84.1712C148.425 82.6245 147.945 80.8512 147.945 78.8512C147.945 76.8512 148.425 75.0912 149.385 73.5712C150.372 72.0245 151.759 70.8245 153.545 69.9712C155.332 69.0912 157.412 68.6512 159.785 68.6512C162.159 68.6512 164.239 69.0912 166.025 69.9712C167.812 70.8245 169.185 72.0245 170.145 73.5712C171.132 75.0912 171.625 76.8512 171.625 78.8512C171.625 80.8512 171.132 82.6245 170.145 84.1712C169.185 85.6912 167.812 86.8912 166.025 87.7712C164.239 88.6245 162.159 89.0512 159.785 89.0512ZM159.785 83.5712C161.199 83.5712 162.319 83.1578 163.145 82.3312C163.999 81.4778 164.425 80.3178 164.425 78.8512C164.425 77.3845 163.999 76.2378 163.145 75.4112C162.319 74.5578 161.199 74.1312 159.785 74.1312C158.372 74.1312 157.239 74.5578 156.385 75.4112C155.559 76.2378 155.145 77.3845 155.145 78.8512C155.145 80.3178 155.559 81.4778 156.385 82.3312C157.239 83.1578 158.372 83.5712 159.785 83.5712ZM174.409 69.2512H180.929V71.3312C181.729 70.4778 182.649 69.8245 183.689 69.3712C184.729 68.8912 185.836 68.6512 187.009 68.6512C188.449 68.6512 189.596 68.8645 190.449 69.2912C191.329 69.7178 192.036 70.3578 192.569 71.2112C193.369 70.4112 194.343 69.7845 195.489 69.3312C196.636 68.8778 197.796 68.6512 198.969 68.6512C201.503 68.6512 203.303 69.3045 204.369 70.6112C205.436 71.8912 205.969 73.7445 205.969 76.1712V88.4512H199.249V77.1712C199.249 76.1045 199.049 75.3312 198.649 74.8512C198.249 74.3712 197.583 74.1312 196.649 74.1312C195.449 74.1312 194.476 74.5578 193.729 75.4112C193.756 75.8645 193.769 76.5578 193.769 77.4912V88.4512H187.049V76.8912C187.049 75.9045 186.876 75.1978 186.529 74.7712C186.183 74.3445 185.569 74.1312 184.689 74.1312C183.329 74.1312 182.156 74.8912 181.169 76.4112V88.4512H174.409V69.2512ZM217.69 89.0512C215.317 89.0512 213.517 88.3978 212.29 87.0912C211.09 85.7578 210.49 83.9445 210.49 81.6512V74.1312H207.77V69.2512H210.49V63.4912H217.53V69.2512H221.93V74.1312H217.53V80.6912C217.53 81.7312 217.717 82.4778 218.09 82.9312C218.49 83.3845 219.184 83.6112 220.17 83.6112C221.05 83.6112 221.93 83.3712 222.81 82.8912V88.1312C222.117 88.4512 221.37 88.6778 220.57 88.8112C219.797 88.9712 218.837 89.0512 217.69 89.0512Z" fill="#00DBC8"/>
<path d="M129.524 118.17V127.97H127.704V123.77H122.636V127.97H120.816V118.17H122.636V122.216H127.704V118.17H129.524ZM139.92 126.444V127.97H132.57V118.17H139.724V119.696H134.39V122.244H139.122V123.742H134.39V126.444H139.92ZM148.725 125.702H143.825L142.859 127.97H140.983L145.393 118.17H147.185L151.609 127.97H149.705L148.725 125.702ZM148.123 124.274L146.275 119.99L144.441 124.274H148.123ZM153.275 118.17H157.559C158.605 118.17 159.533 118.376 160.345 118.786C161.157 119.188 161.787 119.762 162.235 120.508C162.683 121.246 162.907 122.1 162.907 123.07C162.907 124.041 162.683 124.9 162.235 125.646C161.787 126.384 161.157 126.958 160.345 127.368C159.533 127.77 158.605 127.97 157.559 127.97H153.275V118.17ZM157.475 126.43C158.194 126.43 158.824 126.295 159.365 126.024C159.916 125.744 160.336 125.352 160.625 124.848C160.924 124.335 161.073 123.742 161.073 123.07C161.073 122.398 160.924 121.81 160.625 121.306C160.336 120.793 159.916 120.401 159.365 120.13C158.824 119.85 158.194 119.71 157.475 119.71H155.095V126.43H157.475ZM165.262 118.17H167.082V126.43H172.206V127.97H165.262V118.17ZM174.062 118.17H175.882V127.97H174.062V118.17ZM187.661 118.17V127.97H186.163L180.759 121.334V127.97H178.953V118.17H180.451L185.855 124.806V118.17H187.661ZM198.057 126.444V127.97H190.707V118.17H197.861V119.696H192.527V122.244H197.259V123.742H192.527V126.444H198.057ZM203.544 128.11C202.788 128.11 202.055 128.003 201.346 127.788C200.646 127.574 200.091 127.289 199.68 126.934L200.31 125.52C200.711 125.838 201.201 126.099 201.78 126.304C202.368 126.5 202.956 126.598 203.544 126.598C204.272 126.598 204.813 126.482 205.168 126.248C205.532 126.015 205.714 125.707 205.714 125.324C205.714 125.044 205.611 124.816 205.406 124.638C205.21 124.452 204.958 124.307 204.65 124.204C204.342 124.102 203.922 123.985 203.39 123.854C202.643 123.677 202.037 123.5 201.57 123.322C201.113 123.145 200.716 122.87 200.38 122.496C200.053 122.114 199.89 121.6 199.89 120.956C199.89 120.415 200.035 119.925 200.324 119.486C200.623 119.038 201.066 118.684 201.654 118.422C202.251 118.161 202.979 118.03 203.838 118.03C204.435 118.03 205.023 118.105 205.602 118.254C206.181 118.404 206.68 118.618 207.1 118.898L206.526 120.312C206.097 120.06 205.649 119.869 205.182 119.738C204.715 119.608 204.263 119.542 203.824 119.542C203.105 119.542 202.569 119.664 202.214 119.906C201.869 120.149 201.696 120.471 201.696 120.872C201.696 121.152 201.794 121.381 201.99 121.558C202.195 121.736 202.452 121.876 202.76 121.978C203.068 122.081 203.488 122.198 204.02 122.328C204.748 122.496 205.345 122.674 205.812 122.86C206.279 123.038 206.675 123.313 207.002 123.686C207.338 124.06 207.506 124.564 207.506 125.198C207.506 125.74 207.357 126.23 207.058 126.668C206.769 127.107 206.325 127.457 205.728 127.718C205.131 127.98 204.403 128.11 203.544 128.11Z" fill="#CCCCCC"/>
<path d="M105.099 179.93C105.099 181.557 104.725 183.05 103.979 184.41C103.232 185.744 102.085 186.824 100.539 187.65C98.9921 188.477 97.0721 188.89 94.7788 188.89H90.5388V198.97H83.6988V170.89H94.7788C97.0188 170.89 98.9121 171.277 100.459 172.05C102.005 172.824 103.165 173.89 103.939 175.25C104.712 176.61 105.099 178.17 105.099 179.93ZM94.2588 183.45C95.5654 183.45 96.5388 183.144 97.1788 182.53C97.8188 181.917 98.1388 181.05 98.1388 179.93C98.1388 178.81 97.8188 177.944 97.1788 177.33C96.5388 176.717 95.5654 176.41 94.2588 176.41H90.5388V183.45H94.2588ZM118.82 199.29C116.633 199.29 114.66 198.824 112.9 197.89C111.166 196.957 109.793 195.624 108.78 193.89C107.793 192.157 107.3 190.13 107.3 187.81C107.3 185.517 107.806 183.504 108.82 181.77C109.833 180.01 111.22 178.664 112.98 177.73C114.74 176.797 116.713 176.33 118.9 176.33C121.086 176.33 123.06 176.797 124.82 177.73C126.58 178.664 127.966 180.01 128.98 181.77C129.993 183.504 130.5 185.517 130.5 187.81C130.5 190.104 129.98 192.13 128.94 193.89C127.926 195.624 126.526 196.957 124.74 197.89C122.98 198.824 121.006 199.29 118.82 199.29ZM118.82 193.37C120.126 193.37 121.233 192.89 122.14 191.93C123.073 190.97 123.54 189.597 123.54 187.81C123.54 186.024 123.086 184.65 122.18 183.69C121.3 182.73 120.206 182.25 118.9 182.25C117.566 182.25 116.46 182.73 115.58 183.69C114.7 184.624 114.26 185.997 114.26 187.81C114.26 189.597 114.686 190.97 115.54 191.93C116.42 192.89 117.513 193.37 118.82 193.37ZM140.968 179.81C141.635 178.77 142.555 177.93 143.728 177.29C144.902 176.65 146.275 176.33 147.848 176.33C149.688 176.33 151.355 176.797 152.848 177.73C154.342 178.664 155.515 179.997 156.368 181.73C157.248 183.464 157.688 185.477 157.688 187.77C157.688 190.064 157.248 192.09 156.368 193.85C155.515 195.584 154.342 196.93 152.848 197.89C151.355 198.824 149.688 199.29 147.848 199.29C146.302 199.29 144.928 198.97 143.728 198.33C142.555 197.69 141.635 196.864 140.968 195.85V209.61H134.128V176.65H140.968V179.81ZM150.728 187.77C150.728 186.064 150.248 184.73 149.288 183.77C148.355 182.784 147.195 182.29 145.808 182.29C144.448 182.29 143.288 182.784 142.328 183.77C141.395 184.757 140.928 186.104 140.928 187.81C140.928 189.517 141.395 190.864 142.328 191.85C143.288 192.837 144.448 193.33 145.808 193.33C147.168 193.33 148.328 192.837 149.288 191.85C150.248 190.837 150.728 189.477 150.728 187.77ZM168.117 179.81C168.784 178.77 169.704 177.93 170.877 177.29C172.05 176.65 173.424 176.33 174.997 176.33C176.837 176.33 178.504 176.797 179.997 177.73C181.49 178.664 182.664 179.997 183.517 181.73C184.397 183.464 184.837 185.477 184.837 187.77C184.837 190.064 184.397 192.09 183.517 193.85C182.664 195.584 181.49 196.93 179.997 197.89C178.504 198.824 176.837 199.29 174.997 199.29C173.45 199.29 172.077 198.97 170.877 198.33C169.704 197.69 168.784 196.864 168.117 195.85V209.61H161.277V176.65H168.117V179.81ZM177.877 187.77C177.877 186.064 177.397 184.73 176.437 183.77C175.504 182.784 174.344 182.29 172.957 182.29C171.597 182.29 170.437 182.784 169.477 183.77C168.544 184.757 168.077 186.104 168.077 187.81C168.077 189.517 168.544 190.864 169.477 191.85C170.437 192.837 171.597 193.33 172.957 193.33C174.317 193.33 175.477 192.837 176.437 191.85C177.397 190.837 177.877 189.477 177.877 187.77ZM191.865 174.33C190.665 174.33 189.679 173.984 188.905 173.29C188.159 172.57 187.785 171.69 187.785 170.65C187.785 169.584 188.159 168.704 188.905 168.01C189.679 167.29 190.665 166.93 191.865 166.93C193.039 166.93 193.999 167.29 194.745 168.01C195.519 168.704 195.905 169.584 195.905 170.65C195.905 171.69 195.519 172.57 194.745 173.29C193.999 173.984 193.039 174.33 191.865 174.33ZM195.265 176.65V198.97H188.425V176.65H195.265ZM213.822 176.41C216.436 176.41 218.516 177.264 220.062 178.97C221.636 180.65 222.422 182.97 222.422 185.93V198.97H215.622V186.85C215.622 185.357 215.236 184.197 214.462 183.37C213.689 182.544 212.649 182.13 211.342 182.13C210.036 182.13 208.996 182.544 208.222 183.37C207.449 184.197 207.062 185.357 207.062 186.85V198.97H200.222V176.65H207.062V179.61C207.756 178.624 208.689 177.85 209.862 177.29C211.036 176.704 212.356 176.41 213.822 176.41ZM236.255 199.29C234.309 199.29 232.575 198.957 231.055 198.29C229.535 197.624 228.335 196.717 227.455 195.57C226.575 194.397 226.082 193.09 225.975 191.65H232.735C232.815 192.424 233.175 193.05 233.815 193.53C234.455 194.01 235.242 194.25 236.175 194.25C237.029 194.25 237.682 194.09 238.135 193.77C238.615 193.424 238.855 192.984 238.855 192.45C238.855 191.81 238.522 191.344 237.855 191.05C237.189 190.73 236.109 190.384 234.615 190.01C233.015 189.637 231.682 189.25 230.615 188.85C229.549 188.424 228.629 187.77 227.855 186.89C227.082 185.984 226.695 184.77 226.695 183.25C226.695 181.97 227.042 180.81 227.735 179.77C228.455 178.704 229.495 177.864 230.855 177.25C232.242 176.637 233.882 176.33 235.775 176.33C238.575 176.33 240.775 177.024 242.375 178.41C244.002 179.797 244.935 181.637 245.175 183.93H238.855C238.749 183.157 238.402 182.544 237.815 182.09C237.255 181.637 236.509 181.41 235.575 181.41C234.775 181.41 234.162 181.57 233.735 181.89C233.309 182.184 233.095 182.597 233.095 183.13C233.095 183.77 233.429 184.25 234.095 184.57C234.789 184.89 235.855 185.21 237.295 185.53C238.949 185.957 240.295 186.384 241.335 186.81C242.375 187.21 243.282 187.877 244.055 188.81C244.855 189.717 245.269 190.944 245.295 192.49C245.295 193.797 244.922 194.97 244.175 196.01C243.455 197.024 242.402 197.824 241.015 198.41C239.655 198.997 238.069 199.29 236.255 199.29Z" fill="#00DBC8"/>
<path d="M149.76 232.393C150.301 232.571 150.731 232.869 151.048 233.289C151.365 233.7 151.524 234.213 151.524 234.829C151.524 235.679 151.197 236.337 150.544 236.803C149.891 237.261 148.939 237.489 147.688 237.489H142.816V227.689H147.408C148.565 227.689 149.457 227.918 150.082 228.375C150.707 228.823 151.02 229.444 151.02 230.237C151.02 230.723 150.908 231.152 150.684 231.525C150.46 231.899 150.152 232.188 149.76 232.393ZM144.636 229.117V231.819H147.212C147.847 231.819 148.332 231.707 148.668 231.483C149.013 231.25 149.186 230.914 149.186 230.475C149.186 230.027 149.013 229.691 148.668 229.467C148.332 229.234 147.847 229.117 147.212 229.117H144.636ZM147.576 236.061C148.985 236.061 149.69 235.59 149.69 234.647C149.69 233.705 148.985 233.233 147.576 233.233H144.636V236.061H147.576ZM158.464 237.629C157.466 237.629 156.565 237.415 155.762 236.985C154.96 236.547 154.33 235.945 153.872 235.179C153.415 234.405 153.186 233.541 153.186 232.589C153.186 231.637 153.415 230.779 153.872 230.013C154.33 229.239 154.96 228.637 155.762 228.207C156.565 227.769 157.466 227.549 158.464 227.549C159.463 227.549 160.364 227.769 161.166 228.207C161.969 228.637 162.599 229.234 163.056 229.999C163.514 230.765 163.742 231.628 163.742 232.589C163.742 233.551 163.514 234.414 163.056 235.179C162.599 235.945 161.969 236.547 161.166 236.985C160.364 237.415 159.463 237.629 158.464 237.629ZM158.464 236.033C159.118 236.033 159.706 235.889 160.228 235.599C160.751 235.301 161.162 234.89 161.46 234.367C161.759 233.835 161.908 233.243 161.908 232.589C161.908 231.936 161.759 231.348 161.46 230.825C161.162 230.293 160.751 229.883 160.228 229.593C159.706 229.295 159.118 229.145 158.464 229.145C157.811 229.145 157.223 229.295 156.7 229.593C156.178 229.883 155.767 230.293 155.468 230.825C155.17 231.348 155.02 231.936 155.02 232.589C155.02 233.243 155.17 233.835 155.468 234.367C155.767 234.89 156.178 235.301 156.7 235.599C157.223 235.889 157.811 236.033 158.464 236.033ZM166.092 227.689H170.376C171.421 227.689 172.35 227.895 173.162 228.305C173.974 228.707 174.604 229.281 175.052 230.027C175.5 230.765 175.724 231.619 175.724 232.589C175.724 233.56 175.5 234.419 175.052 235.165C174.604 235.903 173.974 236.477 173.162 236.887C172.35 237.289 171.421 237.489 170.376 237.489H166.092V227.689ZM170.292 235.949C171.01 235.949 171.64 235.814 172.182 235.543C172.732 235.263 173.152 234.871 173.442 234.367C173.74 233.854 173.89 233.261 173.89 232.589C173.89 231.917 173.74 231.329 173.442 230.825C173.152 230.312 172.732 229.92 172.182 229.649C171.64 229.369 171.01 229.229 170.292 229.229H167.912V235.949H170.292ZM181.882 234.031V237.489H180.062V234.059L176.212 227.689H178.158L181.028 232.463L183.926 227.689H185.718L181.882 234.031Z" fill="#CCCCCC"/>
</svg>
