<svg width="1200" height="620" viewBox="0 0 1200 620" fill="none" xmlns="http://www.w3.org/2000/svg">
<rect width="1200" height="620" rx="50" fill="black"/>
<path d="M557.696 302.724H418V163H557.696V302.724ZM423.505 297.218H552.191V168.506H423.505V297.218Z" fill="white"/>
<path d="M468.1 299.558H462.595V207.602L554.946 207.739V213.246L468.1 213.108V299.558Z" fill="white"/>
<path d="M531.683 252.203H465.344V257.709H531.683V252.203Z" fill="white"/>
<path d="M490.005 164.482L485.084 166.952L552.445 301.173L557.364 298.702L490.005 164.482Z" fill="white"/>
<path d="M593.756 214.624V171.674H599.261V209.805H623.209V214.624H593.756Z" fill="white"/>
<path d="M658.303 209.805V214.624H629.127V171.674H657.761V176.491H634.495V190.396H654.727V194.938H634.495V209.805H658.303Z" fill="white"/>
<path d="M682.121 214.897C679.232 214.897 676.614 214.346 674.268 213.107C671.799 211.869 669.724 210.216 667.934 208.152C666.157 206.087 664.774 203.747 663.675 201.132C662.712 198.515 662.156 195.762 662.156 193.009C662.156 190.118 662.712 187.365 663.675 184.75C664.638 182.135 666.157 179.793 667.934 177.867C669.724 175.802 671.799 174.287 674.268 173.049C676.75 171.947 679.367 171.259 682.256 171.259C686.379 171.259 689.824 172.085 692.578 173.875C695.331 175.664 697.257 177.867 698.627 180.619L694.503 183.51C693.269 181.033 691.479 179.106 689.417 178.004C687.207 176.765 684.874 176.215 682.256 176.215C680.046 176.215 678.12 176.627 676.329 177.592C674.553 178.555 673.034 179.793 671.799 181.446C670.552 183.098 669.589 184.887 668.897 186.815C668.219 188.879 667.934 190.944 667.934 193.147C667.934 195.487 668.354 197.552 669.046 199.616C669.724 201.681 670.836 203.472 672.206 204.986C673.59 206.5 675.231 207.738 677.021 208.703C678.811 209.529 680.737 210.079 682.948 210.079C685.416 210.079 687.763 209.39 689.96 208.152C692.157 206.913 694.232 204.986 696.294 202.37V208.013C692.021 212.695 687.478 214.897 682.121 214.897ZM695.195 197.276H685.973V193.147H699.874V214.621H695.331V197.276H695.195Z" fill="white"/>
<path d="M708.137 214.624V171.674H713.643V195.488L735.791 171.674H741.718L724.507 190.67L742.681 214.761H736.619L720.926 193.836L713.643 201.545V214.761H708.137V214.624Z" fill="white"/>
<path d="M762.628 214.897C759.604 214.897 756.85 214.346 754.368 213.107C751.9 211.869 749.825 210.216 748.035 208.152C746.244 206.087 744.875 203.747 743.912 201.132C742.949 198.515 742.393 195.9 742.393 193.147C742.393 190.256 742.949 187.503 743.912 184.887C744.875 182.272 746.393 179.932 748.184 177.867C749.96 175.802 752.171 174.15 754.653 173.049C757.122 171.81 759.739 171.259 762.764 171.259C765.788 171.259 768.542 171.947 771.024 173.187C773.506 174.425 775.567 176.078 777.357 178.279C779.148 180.344 780.517 182.685 781.48 185.301C782.443 187.916 782.999 190.532 782.999 193.284C782.999 196.175 782.443 198.929 781.48 201.544C780.517 204.159 779.012 206.5 777.222 208.564C775.431 210.63 773.221 212.144 770.752 213.383C768.27 214.346 765.517 214.897 762.628 214.897ZM747.899 193.147C747.899 195.349 748.32 197.415 748.998 199.479C749.689 201.544 750.652 203.333 752.036 204.847C753.27 206.363 754.925 207.738 756.715 208.564C758.505 209.529 760.567 209.941 762.764 209.941C765.11 209.941 767.172 209.39 768.962 208.427C770.752 207.464 772.258 206.224 773.641 204.573C774.875 202.921 775.838 201.132 776.53 199.066C777.222 197.001 777.493 195.075 777.493 193.009C777.493 190.807 777.086 188.742 776.394 186.676C775.703 184.612 774.74 182.822 773.37 181.309C771.987 179.656 770.481 178.418 768.691 177.592C766.9 176.627 764.825 176.215 762.764 176.215C760.431 176.215 758.369 176.627 756.579 177.592C754.789 178.555 753.27 179.793 751.9 181.446C750.652 183.098 749.689 184.887 748.998 186.815C748.32 189.018 747.899 191.082 747.899 193.147Z" fill="white"/>
<path d="M595.273 231.554H591.557V257.022H595.273V231.554Z" fill="white"/>
<path d="M619.772 250.826L607.523 237.06H604.908V257.022H608.349V243.531L620.461 257.022H623.351V237.06H619.772V250.826Z" fill="white"/>
<path d="M627.891 240.365H635.048V257.022H638.489V240.365H645.783V237.06H627.891V240.365Z" fill="white"/>
<path d="M653.626 248.486H663.541V245.32H653.626V240.365H664.911V237.06H650.186V257.022H665.182V253.717H653.626V248.486Z" fill="white"/>
<path d="M685.684 248.487C686.376 247.936 686.932 247.247 687.339 246.284C687.759 245.457 688.031 244.494 688.031 243.531C688.031 242.43 687.759 241.328 687.068 240.365C686.647 239.676 685.834 238.574 684.586 237.887C683.487 237.199 682.389 236.923 681.154 236.923H671.932V256.196V256.745H675.363V250H680.191L684.871 256.745H689.129L684.043 249.313C684.586 249.174 685.142 248.899 685.684 248.487ZM675.363 240.365H681.005C681.832 240.365 682.253 240.502 682.66 240.777C683.08 241.19 683.487 241.603 683.908 242.154C684.179 242.567 684.314 242.98 684.314 243.668C684.314 244.219 684.179 244.631 684.043 245.182C683.623 245.871 683.352 246.146 682.931 246.422C682.389 246.697 681.968 246.834 681.29 246.834H675.363V240.365Z" fill="white"/>
<path d="M698.627 237.06H695.182V257.022H698.627V237.06Z" fill="white"/>
<path d="M721.874 240.09C721.046 239.263 720.083 238.437 718.564 237.749C717.195 237.199 715.811 236.923 714.441 236.923C712.922 236.923 711.403 237.199 710.305 237.887C708.935 238.574 707.836 239.263 707.145 240.09C706.046 241.19 705.354 242.154 704.934 243.393C704.527 244.631 704.256 246.008 704.256 247.247C704.256 248.348 704.527 249.725 704.934 250.964C705.354 252.203 706.182 253.305 707.009 254.13C707.836 254.956 708.799 255.782 710.305 256.471C711.403 257.021 712.922 257.434 714.441 257.434C715.811 257.434 717.195 257.159 718.7 256.608C719.948 256.057 721.046 255.37 722.009 254.405C722.837 253.579 723.664 252.341 724.071 251.102C724.478 250 724.763 248.762 724.763 247.247C724.763 246.008 724.478 244.907 724.071 243.531C723.515 242.016 722.688 240.914 721.874 240.09ZM720.626 249.313C720.219 250.139 719.799 250.827 719.256 251.514C718.564 252.34 718.008 252.754 717.195 253.167C716.367 253.579 715.404 253.717 714.441 253.717C713.329 253.717 712.516 253.579 711.688 253.167C710.861 252.891 710.305 252.34 709.613 251.653C708.935 250.827 708.65 250.276 708.243 249.313C707.972 248.624 707.836 247.936 707.836 246.834C707.836 245.871 708.108 244.907 708.379 244.356C708.799 243.531 709.206 242.842 709.762 242.154C710.44 241.465 711.132 240.916 711.959 240.64C712.787 240.227 713.75 240.09 714.713 240.09C715.676 240.09 716.503 240.227 717.33 240.64C718.157 240.916 718.7 241.465 719.392 242.154C719.948 242.705 720.355 243.531 720.762 244.356C721.046 245.045 721.182 245.733 721.182 246.834C721.182 247.936 721.046 248.624 720.626 249.313Z" fill="white"/>
<path d="M740.592 249.45C741.134 249.174 741.691 248.899 742.233 248.487C742.925 247.936 743.481 247.247 743.888 246.284C744.308 245.457 744.58 244.494 744.58 243.531C744.58 242.43 744.308 241.328 743.616 240.365C743.21 239.676 742.382 238.574 741.135 237.887C740.036 237.199 738.937 236.923 737.703 236.923H728.48V256.745H731.912V250H736.876L741.555 256.745H745.678L740.592 249.45ZM731.912 240.365H737.554C738.381 240.365 738.802 240.502 739.209 240.777C739.629 241.19 740.036 241.603 740.456 242.154C740.728 242.567 740.863 242.98 740.863 243.668C740.863 244.219 740.728 244.631 740.592 245.182C740.172 245.871 739.9 246.146 739.493 246.422C738.937 246.697 738.517 246.834 737.839 246.834H732.061V240.365H731.912Z" fill="white"/>
<path d="M606.968 270.511C605.18 269.273 602.977 268.722 600.225 268.722H591.416V294.327H600.225C602.565 294.327 604.629 293.776 606.693 292.675C608.483 291.573 609.859 290.059 610.96 288.132C611.924 286.342 612.474 284.141 612.474 281.524C612.474 279.322 612.061 277.258 611.235 275.192C610.409 273.402 609.033 271.751 606.968 270.511ZM604.904 289.508C603.803 290.335 602.289 290.748 600.362 290.748H595.271V272.301H600.362C602.152 272.301 603.666 272.714 604.904 273.402C606.281 274.228 607.244 275.192 607.794 276.568C608.483 278.084 608.896 279.735 608.896 281.387C608.896 283.176 608.483 284.69 607.657 286.205C606.968 287.719 606.142 288.821 604.904 289.508Z" fill="white"/>
<path d="M621.417 285.654H631.328V282.488H621.417V277.533H632.703V274.228H617.977V294.188H632.978V290.885H621.417V285.654Z" fill="white"/>
<path d="M650.736 283.45L650.049 283.175C649.223 282.9 648.26 282.624 647.158 282.349C646.057 282.074 645.094 281.937 644.13 281.523C643.304 281.247 642.892 280.972 642.616 280.698C642.341 280.423 642.204 280.147 642.204 279.597C642.204 278.77 642.479 278.22 643.167 277.806C643.855 277.393 644.956 277.118 646.469 277.118C647.295 277.118 647.846 277.256 648.535 277.394C649.086 277.532 649.635 277.806 650.049 277.944L650.324 278.22C650.736 278.495 651.012 278.77 651.287 279.046L651.976 279.734L653.351 276.706L653.076 276.43C652.251 275.466 651.15 275.053 650.049 274.64C648.947 274.227 647.846 274.09 646.195 274.09C644.544 274.09 643.304 274.227 642.204 274.64C640.827 275.19 640.001 275.88 639.451 276.567C638.763 277.532 638.349 278.632 638.349 279.872C638.349 281.247 638.763 282.074 639.175 282.763C639.726 283.726 640.689 284.138 641.515 284.552C642.341 284.964 643.579 285.378 645.094 285.653C646.469 285.929 647.571 286.204 648.397 286.48C649.361 286.755 649.91 287.167 650.186 287.443C650.461 287.718 650.736 288.269 650.736 288.681C650.736 289.37 650.461 289.783 649.773 290.334C648.947 290.884 647.846 291.021 646.469 291.021C645.507 291.021 644.544 290.884 643.855 290.609C643.03 290.334 642.341 290.058 641.515 289.646C641.103 289.507 640.689 289.232 640.277 288.82C640.14 288.681 640.001 288.544 639.864 288.406L639.314 287.994L637.523 291.021L638.074 291.435C639.314 292.398 640.689 293.087 642.066 293.5C643.718 293.912 645.231 294.188 646.608 294.188C647.709 294.188 648.672 294.05 649.635 293.912C650.736 293.637 651.425 293.361 652.113 292.812C652.939 292.398 653.351 291.71 653.902 290.884C654.316 290.195 654.591 289.232 654.591 288.131C654.591 286.892 654.316 285.929 653.627 284.964C652.527 284.277 651.562 283.726 650.736 283.45Z" fill="white"/>
<path d="M663.119 274.228H659.688V294.188H663.119V274.228Z" fill="white"/>
<path d="M679.777 286.617H684.32V288.131C683.357 289.096 682.53 289.647 681.838 290.059C680.875 290.61 679.777 290.747 678.678 290.747C677.579 290.747 676.752 290.61 676.06 290.334C675.233 289.921 674.406 289.371 673.999 288.82C673.443 288.131 672.9 287.581 672.615 286.617C672.344 285.791 672.073 284.965 672.073 284.002C672.073 283.176 672.344 282.213 672.615 281.524C672.9 280.697 673.307 280.01 673.863 279.459C674.27 278.908 674.962 278.496 675.789 277.945C676.752 277.531 677.715 277.256 678.542 277.256C679.777 277.256 680.74 277.531 681.838 277.945C682.53 278.357 683.493 279.046 684.049 280.148L684.456 280.836L687.345 278.908L687.073 278.357C686.382 276.982 685.283 275.88 683.913 275.191C682.53 274.365 680.74 273.953 678.814 273.953C677.579 273.953 676.196 274.09 674.826 274.64C673.578 275.191 672.48 275.88 671.517 276.843C670.825 277.67 670.011 278.771 669.455 280.148C669.049 281.387 668.764 282.763 668.764 284.002C668.764 285.103 669.049 286.48 669.455 287.719C670.011 289.096 670.825 290.196 671.517 290.885C672.344 291.711 673.307 292.537 674.826 293.225C676.06 293.776 677.444 294.188 678.814 294.188C680.333 294.188 681.567 293.776 682.666 293.225C683.357 292.95 684.049 292.537 684.591 291.987V294.051H687.765V283.451H680.048V286.617H679.777Z" fill="white"/>
<path d="M709.371 274.228V287.994L697.124 274.228H694.506V294.188H697.951V280.699L710.062 294.188H712.951V274.228H709.371Z" fill="white"/>
<path d="M445 432.08V409.428H447.887V429.528H460.59V432.08H445Z" fill="white"/>
<path d="M483.366 429.528V432.08H467.904V409.428H483.077V411.98H470.791V419.318H481.473V421.711H470.791V429.528H483.366Z" fill="white"/>
<path d="M500.201 432.238C498.704 432.238 497.303 431.92 496 431.282C494.716 430.622 493.594 429.751 492.631 428.665C491.669 427.559 490.921 426.326 490.386 424.965C489.851 423.582 489.584 422.157 489.584 420.689C489.584 419.158 489.851 417.712 490.386 416.35C490.921 414.967 491.658 413.745 492.599 412.681C493.561 411.618 494.684 410.788 495.967 410.192C497.272 409.576 498.682 409.268 500.201 409.268C502.404 409.268 504.222 409.725 505.655 410.64C507.087 411.554 508.167 412.745 508.894 414.213L506.681 415.744C506.018 414.425 505.109 413.447 503.955 412.809C502.799 412.171 501.527 411.851 500.137 411.851C498.983 411.851 497.934 412.097 496.994 412.585C496.053 413.075 495.24 413.745 494.556 414.596C493.893 415.426 493.38 416.371 493.015 417.436C492.674 418.499 492.503 419.605 492.503 420.754C492.503 422.37 492.845 423.859 493.529 425.22C494.235 426.56 495.187 427.633 496.384 428.442C497.582 429.25 498.929 429.655 500.426 429.655C501.645 429.655 502.81 429.368 503.922 428.793C505.056 428.197 506.125 427.293 507.13 426.082V422.954H502.222V420.785H509.568V432.079H507.13V429.017C505.163 431.165 502.853 432.238 500.201 432.238Z" fill="white"/>
<path d="M518.129 432.08V409.461H521.016V421.966L532.756 409.428H535.868L526.726 419.414L536.381 432.08H533.141L524.897 421.137L521.016 425.156V432.08H518.129Z" fill="white"/>
<path d="M551.177 432.238C549.574 432.238 548.12 431.92 546.815 431.282C545.511 430.644 544.378 429.782 543.415 428.697C542.474 427.591 541.747 426.357 541.234 424.996C540.72 423.614 540.464 422.2 540.464 420.754C540.464 419.243 540.731 417.808 541.266 416.446C541.822 415.063 542.581 413.841 543.543 412.777C544.527 411.692 545.672 410.841 546.975 410.225C548.28 409.587 549.702 409.268 551.242 409.268C552.845 409.268 554.3 409.597 555.605 410.257C556.909 410.916 558.031 411.799 558.973 412.905C559.914 414.011 560.64 415.245 561.154 416.606C561.667 417.967 561.923 419.36 561.923 420.785C561.923 422.296 561.656 423.742 561.121 425.124C560.587 426.485 559.828 427.709 558.844 428.793C557.882 429.856 556.748 430.697 555.445 431.313C554.14 431.931 552.718 432.238 551.177 432.238ZM543.382 420.754C543.382 421.902 543.565 423.019 543.928 424.103C544.313 425.166 544.848 426.113 545.532 426.943C546.216 427.772 547.04 428.432 548.002 428.92C548.965 429.41 550.034 429.655 551.21 429.655C552.429 429.655 553.52 429.399 554.482 428.889C555.445 428.378 556.256 427.698 556.92 426.847C557.604 425.996 558.118 425.039 558.459 423.975C558.822 422.912 559.005 421.838 559.005 420.754C559.005 419.605 558.813 418.499 558.428 417.436C558.064 416.371 557.53 415.426 556.824 414.596C556.14 413.745 555.316 413.085 554.353 412.617C553.413 412.128 552.364 411.884 551.21 411.884C549.991 411.884 548.9 412.139 547.938 412.65C546.975 413.138 546.153 413.809 545.468 414.66C544.805 415.511 544.291 416.467 543.928 417.531C543.565 418.573 543.382 419.648 543.382 420.754Z" fill="white"/>
<path d="M623.518 419.608V421.9H620.01V425.973H617.631V421.9H614.123V419.608H617.631V415.533H620.01V419.608H623.518Z" fill="white"/>
<path d="M705.034 383.165H680.494V407.709H705.034V383.165Z" stroke="white" stroke-width="8.04464"/>
<path d="M730.07 383.165H705.029V407.709H730.07V383.165Z" stroke="white" stroke-width="8.04464"/>
<path d="M754.61 383.165H730.07V407.709H754.61V383.165Z" stroke="white" stroke-width="8.04464"/>
<path d="M705.034 407.709H680.494V432.253H705.034V407.709Z" stroke="white" stroke-width="8.04464"/>
<path d="M730.07 407.709H705.029V432.253H730.07V407.709Z" stroke="white" stroke-width="8.04464"/>
<path d="M754.61 407.709H730.07V432.253H754.61V407.709Z" stroke="white" stroke-width="8.04464"/>
<path d="M705.034 432.253H680.494V457.299H705.034V432.253Z" stroke="white" stroke-width="8.04464"/>
<path d="M730.07 432.253H705.029V457.299H730.07V432.253Z" stroke="white" stroke-width="8.04464"/>
<path d="M754.61 432.253H730.07V457.299H754.61V432.253Z" stroke="white" stroke-width="8.04464"/>
</svg>
