<svg width="328" height="290" viewBox="0 0 328 290" fill="none" xmlns="http://www.w3.org/2000/svg">
<rect width="328" height="290" rx="30" fill="#39393C"/>
<path d="M70.461 157.09H69V167.083H70.461V157.09Z" fill="white"/>
<path d="M80.0716 164.655L75.2663 159.247H74.2422V167.083H75.5885V161.789L80.3437 167.083H81.4824V159.247H80.0716V164.655Z" fill="white"/>
<path d="M83.2656 160.543H86.0728V167.083H87.4192V160.543H90.2838V159.247H83.2656V160.543Z" fill="white"/>
<path d="M93.3639 163.731H97.2597V162.491H93.3639V160.543H97.7968V159.247H92.0176V167.083H97.9042V165.786H93.3639V163.731Z" fill="white"/>
<path d="M105.952 163.73C106.225 163.515 106.439 163.25 106.604 162.871C106.762 162.548 106.869 162.169 106.869 161.789C106.869 161.359 106.762 160.923 106.497 160.543C106.332 160.278 106.01 159.841 105.523 159.576C105.086 159.304 104.656 159.196 104.169 159.196H100.553V166.76V166.975H101.899V164.325H103.79L105.63 166.975H107.306L105.308 164.06C105.523 164.002 105.738 163.895 105.952 163.73ZM101.899 160.543H104.119C104.441 160.543 104.599 160.6 104.764 160.708C104.928 160.872 105.086 161.03 105.251 161.245C105.358 161.41 105.415 161.574 105.415 161.839C105.415 162.061 105.358 162.219 105.308 162.434C105.143 162.706 105.036 162.813 104.871 162.921C104.656 163.028 104.491 163.086 104.226 163.086H101.899V160.543Z" fill="white"/>
<path d="M111.029 159.247H109.676V167.083H111.029V159.247Z" fill="white"/>
<path d="M120.152 160.435C119.83 160.113 119.45 159.791 118.856 159.519C118.312 159.304 117.775 159.196 117.238 159.196C116.643 159.196 116.049 159.304 115.612 159.576C115.075 159.841 114.638 160.113 114.373 160.435C113.936 160.872 113.671 161.245 113.507 161.732C113.342 162.219 113.234 162.763 113.234 163.25C113.234 163.68 113.342 164.217 113.507 164.704C113.671 165.192 113.993 165.628 114.316 165.951C114.638 166.273 115.018 166.595 115.612 166.868C116.049 167.083 116.643 167.247 117.238 167.247C117.775 167.247 118.312 167.14 118.906 166.925C119.393 166.703 119.83 166.438 120.202 166.058C120.532 165.736 120.854 165.249 121.019 164.762C121.176 164.325 121.284 163.845 121.284 163.25C121.284 162.763 121.176 162.326 121.019 161.789C120.797 161.195 120.475 160.765 120.152 160.435ZM119.665 164.06C119.501 164.382 119.343 164.654 119.128 164.919C118.856 165.249 118.641 165.406 118.312 165.571C117.99 165.736 117.61 165.786 117.238 165.786C116.801 165.786 116.478 165.736 116.156 165.571C115.827 165.464 115.612 165.249 115.34 164.977C115.075 164.654 114.967 164.439 114.803 164.06C114.695 163.788 114.638 163.515 114.638 163.086C114.638 162.706 114.745 162.326 114.86 162.112C115.018 161.789 115.182 161.517 115.397 161.245C115.669 160.98 115.934 160.765 116.264 160.65C116.586 160.493 116.965 160.435 117.345 160.435C117.717 160.435 118.047 160.493 118.369 160.65C118.691 160.765 118.906 160.98 119.178 161.245C119.393 161.467 119.558 161.789 119.723 162.112C119.83 162.384 119.88 162.656 119.88 163.086C119.88 163.515 119.83 163.788 119.665 164.06Z" fill="white"/>
<path d="M127.501 164.11C127.716 164.003 127.931 163.895 128.146 163.73C128.418 163.515 128.633 163.25 128.797 162.871C128.962 162.548 129.07 162.169 129.07 161.789C129.07 161.359 128.962 160.923 128.69 160.543C128.525 160.278 128.203 159.841 127.716 159.576C127.286 159.304 126.85 159.196 126.363 159.196H122.746V166.975H124.1V164.325H126.04L127.881 166.975H129.499L127.501 164.11ZM124.1 160.543H126.312C126.635 160.543 126.799 160.6 126.957 160.708C127.122 160.872 127.286 161.03 127.444 161.245C127.551 161.41 127.609 161.574 127.609 161.839C127.609 162.061 127.551 162.219 127.501 162.434C127.337 162.706 127.229 162.813 127.072 162.921C126.85 163.028 126.692 163.086 126.42 163.086H124.15V160.543H124.1Z" fill="white"/>
<path d="M141.523 157.556C140.821 157.069 139.954 156.854 138.873 156.854H135.414V166.904H138.873C139.79 166.904 140.606 166.689 141.415 166.252C142.117 165.822 142.654 165.228 143.091 164.469C143.463 163.767 143.686 162.907 143.686 161.876C143.686 161.009 143.521 160.199 143.199 159.39C142.869 158.688 142.332 158.044 141.523 157.556ZM140.714 165.013C140.277 165.335 139.682 165.5 138.93 165.5H136.932V158.258H138.93C139.632 158.258 140.227 158.416 140.714 158.688C141.251 159.01 141.63 159.39 141.845 159.934C142.117 160.529 142.282 161.174 142.282 161.825C142.282 162.527 142.117 163.122 141.795 163.716C141.523 164.311 141.201 164.741 140.714 165.013Z" fill="white"/>
<path d="M147.195 163.494H151.084V162.255H147.195V160.307H151.628V159.01H145.842V166.846H151.736V165.55H147.195V163.494Z" fill="white"/>
<path d="M158.702 162.635L158.43 162.528C158.108 162.42 157.729 162.306 157.299 162.198C156.862 162.091 156.49 162.041 156.11 161.876C155.788 161.768 155.623 161.661 155.516 161.553C155.408 161.446 155.351 161.339 155.351 161.124C155.351 160.794 155.458 160.579 155.73 160.415C156.003 160.257 156.432 160.15 157.027 160.15C157.349 160.15 157.564 160.2 157.836 160.257C158.051 160.307 158.273 160.414 158.43 160.472L158.538 160.579C158.702 160.687 158.81 160.794 158.917 160.902L159.189 161.174L159.726 159.985L159.619 159.877C159.297 159.498 158.867 159.34 158.43 159.175C158.001 159.011 157.564 158.96 156.919 158.96C156.268 158.96 155.788 159.011 155.351 159.175C154.814 159.39 154.484 159.662 154.269 159.935C154.005 160.307 153.84 160.744 153.84 161.231C153.84 161.768 154.005 162.091 154.162 162.363C154.377 162.742 154.756 162.9 155.079 163.065C155.408 163.229 155.895 163.387 156.49 163.495C157.027 163.609 157.456 163.717 157.786 163.824C158.158 163.932 158.38 164.089 158.488 164.204C158.595 164.311 158.702 164.526 158.702 164.684C158.702 164.956 158.595 165.121 158.323 165.335C158.001 165.55 157.564 165.608 157.027 165.608C156.647 165.608 156.268 165.55 156.003 165.443C155.673 165.335 155.408 165.228 155.079 165.063C154.921 165.013 154.757 164.906 154.599 164.741C154.542 164.684 154.484 164.633 154.434 164.576L154.219 164.419L153.518 165.608L153.732 165.765C154.219 166.145 154.756 166.417 155.301 166.575C155.945 166.739 156.54 166.847 157.084 166.847C157.514 166.847 157.893 166.797 158.273 166.739C158.702 166.632 158.975 166.524 159.24 166.31C159.569 166.145 159.727 165.873 159.941 165.55C160.106 165.278 160.213 164.906 160.213 164.469C160.213 163.982 160.106 163.609 159.834 163.23C159.404 162.957 159.025 162.742 158.702 162.635Z" fill="white"/>
<path d="M163.566 159.01H162.213V166.846H163.566V159.01Z" fill="white"/>
<path d="M170.105 163.874H171.888V164.469C171.508 164.848 171.186 165.063 170.914 165.228C170.535 165.443 170.105 165.5 169.668 165.5C169.238 165.5 168.916 165.443 168.644 165.336C168.322 165.171 167.992 164.956 167.835 164.741C167.62 164.469 167.398 164.254 167.29 163.874C167.183 163.552 167.075 163.23 167.075 162.85C167.075 162.528 167.183 162.148 167.29 161.876C167.398 161.554 167.563 161.281 167.777 161.067C167.942 160.852 168.214 160.687 168.536 160.472C168.916 160.307 169.296 160.2 169.618 160.2C170.105 160.2 170.477 160.307 170.914 160.472C171.186 160.637 171.559 160.902 171.781 161.339L171.938 161.604L173.077 160.852L172.969 160.637C172.697 160.092 172.26 159.663 171.723 159.39C171.186 159.068 170.477 158.903 169.725 158.903C169.238 158.903 168.701 158.961 168.157 159.176C167.67 159.39 167.24 159.663 166.861 160.042C166.589 160.365 166.266 160.794 166.051 161.339C165.887 161.826 165.779 162.363 165.779 162.85C165.779 163.28 165.887 163.824 166.051 164.311C166.266 164.848 166.589 165.278 166.861 165.55C167.183 165.873 167.562 166.202 168.157 166.467C168.644 166.689 169.181 166.847 169.725 166.847C170.32 166.847 170.807 166.689 171.236 166.467C171.508 166.36 171.781 166.202 171.995 165.987V166.797H173.234V162.635H170.212V163.874H170.105Z" fill="white"/>
<path d="M181.721 159.01V164.418L176.909 159.01H175.885V166.846H177.238V161.553L181.986 166.846H183.125V159.01H181.721Z" fill="white"/>
<path d="M69.5566 146.411V122.172H72.6288V143.675H86.1425V146.411H69.5566Z" fill="white"/>
<path d="M105.938 143.675V146.411H89.4883V122.172H105.63V124.901H92.5606V132.751H103.926V135.316H92.5606V143.675H105.938Z" fill="white"/>
<path d="M119.414 146.576C117.817 146.576 116.328 146.239 114.938 145.551C113.577 144.849 112.382 143.918 111.357 142.758C110.333 141.569 109.538 140.251 108.966 138.797C108.4 137.314 108.113 135.788 108.113 134.22C108.113 132.58 108.4 131.032 108.966 129.578C109.538 128.096 110.319 126.792 111.322 125.653C112.346 124.514 113.542 123.626 114.902 122.988C116.292 122.329 117.796 122 119.414 122C121.756 122 123.689 122.487 125.215 123.468C126.74 124.45 127.886 125.718 128.66 127.293L126.303 128.926C125.602 127.515 124.635 126.47 123.403 125.789C122.178 125.109 120.825 124.765 119.342 124.765C118.111 124.765 117.001 125.03 115.998 125.553C114.995 126.076 114.129 126.792 113.406 127.702C112.697 128.59 112.152 129.6 111.766 130.739C111.4 131.878 111.221 133.059 111.221 134.291C111.221 136.018 111.587 137.615 112.31 139.069C113.062 140.502 114.079 141.655 115.346 142.514C116.621 143.381 118.061 143.811 119.65 143.811C120.947 143.811 122.186 143.503 123.367 142.894C124.578 142.257 125.716 141.29 126.783 139.993V136.648H121.563V134.32H129.376V146.411H126.783V143.13C124.692 145.43 122.236 146.576 119.414 146.576Z" fill="white"/>
<path d="M134.045 146.411V122.208H137.117V135.588L149.614 122.172H152.922L143.197 132.859L153.467 146.411H150.022L141.249 134.7L137.117 138.997V146.411H134.045Z" fill="white"/>
<path d="M164.776 146.576C163.072 146.576 161.525 146.239 160.135 145.551C158.746 144.871 157.543 143.947 156.519 142.787C155.516 141.605 154.743 140.287 154.199 138.833C153.654 137.35 153.375 135.839 153.375 134.291C153.375 132.673 153.662 131.14 154.234 129.679C154.822 128.203 155.631 126.892 156.655 125.753C157.701 124.593 158.918 123.683 160.307 123.024C161.697 122.344 163.208 122 164.848 122C166.552 122 168.099 122.351 169.488 123.06C170.878 123.762 172.066 124.708 173.069 125.889C174.072 127.078 174.845 128.396 175.389 129.85C175.941 131.304 176.213 132.802 176.213 134.32C176.213 135.939 175.926 137.486 175.361 138.969C174.788 140.423 173.978 141.734 172.933 142.894C171.909 144.033 170.706 144.928 169.316 145.587C167.927 146.246 166.416 146.576 164.776 146.576ZM156.483 134.291C156.483 135.516 156.676 136.712 157.063 137.873C157.471 139.012 158.044 140.022 158.768 140.91C159.498 141.798 160.372 142.507 161.396 143.03C162.42 143.553 163.559 143.811 164.812 143.811C166.108 143.811 167.268 143.539 168.292 142.994C169.316 142.45 170.183 141.719 170.885 140.81C171.615 139.9 172.16 138.876 172.525 137.737C172.911 136.598 173.105 135.452 173.105 134.291C173.105 133.059 172.897 131.878 172.489 130.739C172.102 129.6 171.536 128.59 170.784 127.702C170.054 126.792 169.18 126.083 168.156 125.581C167.154 125.059 166.044 124.801 164.812 124.801C163.516 124.801 162.356 125.073 161.331 125.617C160.307 126.14 159.434 126.856 158.703 127.766C157.994 128.683 157.45 129.7 157.063 130.839C156.676 131.956 156.483 133.102 156.483 134.291Z" fill="white"/>
<path d="M179.291 146.41V142.585H181.819V146.41H179.291Z" fill="white"/>
<path d="M184.879 134.119C184.879 132.637 185.129 131.197 185.624 129.786C186.146 128.346 186.898 127.05 187.88 125.889C188.882 124.707 190.1 123.776 191.532 123.096C192.964 122.387 194.59 122.036 196.409 122.036C198.572 122.036 200.426 122.537 201.973 123.533C203.52 124.514 204.673 125.775 205.425 127.322L202.997 128.898C202.517 127.873 201.909 127.064 201.157 126.469C200.426 125.861 199.631 125.424 198.765 125.173C197.927 124.922 197.096 124.8 196.273 124.8C194.933 124.8 193.738 125.073 192.692 125.617C191.668 126.161 190.801 126.892 190.1 127.802C189.391 128.711 188.861 129.736 188.495 130.875C188.152 131.992 187.98 133.117 187.98 134.255C187.98 135.509 188.187 136.712 188.596 137.873C189.025 139.033 189.62 140.057 190.372 140.945C191.124 141.834 192.012 142.536 193.036 143.066C194.06 143.589 195.17 143.846 196.38 143.846C197.218 143.846 198.085 143.696 198.973 143.402C199.861 143.109 200.691 142.65 201.465 142.041C202.238 141.404 202.854 140.58 203.305 139.577L205.869 140.981C205.368 142.185 204.594 143.209 203.542 144.054C202.496 144.892 201.329 145.53 200.032 145.967C198.758 146.396 197.49 146.611 196.244 146.611C194.583 146.611 193.057 146.26 191.668 145.551C190.279 144.828 189.075 143.868 188.051 142.686C187.049 141.483 186.261 140.136 185.695 138.661C185.151 137.156 184.879 135.645 184.879 134.119Z" fill="white"/>
<path d="M219.276 146.576C217.564 146.576 216.018 146.239 214.635 145.551C213.246 144.871 212.036 143.947 211.012 142.787C210.016 141.605 209.243 140.287 208.691 138.833C208.147 137.35 207.875 135.839 207.875 134.291C207.875 132.673 208.161 131.14 208.727 129.679C209.322 128.203 210.124 126.892 211.148 125.753C212.2 124.593 213.418 123.683 214.8 123.024C216.189 122.344 217.701 122 219.34 122C221.052 122 222.599 122.351 223.981 123.06C225.37 123.762 226.566 124.708 227.569 125.889C228.572 127.078 229.345 128.396 229.889 129.85C230.434 131.304 230.706 132.802 230.706 134.32C230.706 135.939 230.426 137.486 229.853 138.969C229.288 140.423 228.478 141.734 227.433 142.894C226.409 144.033 225.199 144.928 223.816 145.587C222.427 146.246 220.909 146.576 219.276 146.576ZM210.983 134.291C210.983 135.516 211.176 136.712 211.563 137.873C211.971 139.012 212.537 140.022 213.268 140.91C213.998 141.798 214.872 142.507 215.896 143.03C216.92 143.553 218.059 143.811 219.305 143.811C220.608 143.811 221.768 143.539 222.792 142.994C223.816 142.45 224.676 141.719 225.385 140.81C226.108 139.9 226.659 138.876 227.025 137.737C227.411 136.598 227.605 135.452 227.605 134.291C227.605 133.059 227.397 131.878 226.989 130.739C226.602 129.6 226.029 128.59 225.277 127.702C224.554 126.792 223.673 126.083 222.656 125.581C221.654 125.059 220.536 124.801 219.305 124.801C218.008 124.801 216.848 125.073 215.824 125.617C214.8 126.14 213.926 126.856 213.196 127.766C212.494 128.683 211.95 129.7 211.563 130.839C211.176 131.956 210.983 133.102 210.983 134.291Z" fill="white"/>
<path d="M255.927 146.411V127.902L247.942 142.142H246.066L238.045 127.902V146.411H234.973V122.172H238.217L246.99 137.909L255.791 122.172H258.999V146.411H255.927Z" fill="white"/>
</svg>
