<svg width="580" height="591" viewBox="0 0 580 591" fill="none" xmlns="http://www.w3.org/2000/svg">
<rect width="580" height="591" rx="50" fill="#F4F6F8"/>
<path d="M149.65 316.861H132V309.874H175.678V316.861H158.028V366.668H149.65V316.861Z" fill="#031C5B"/>
<path d="M192.57 367.887C188.178 367.887 184.301 367.074 180.939 365.449C177.631 363.77 175.028 361.387 173.13 358.299C171.287 355.157 170.365 351.474 170.365 347.249C170.365 343.078 171.287 339.422 173.13 336.28C174.974 333.138 177.577 330.728 180.939 329.049C184.301 327.315 188.178 326.449 192.57 326.449C196.962 326.449 200.839 327.315 204.201 329.049C207.563 330.728 210.166 333.138 212.01 336.28C213.907 339.422 214.856 343.078 214.856 347.249C214.856 351.474 213.907 355.157 212.01 358.299C210.166 361.387 207.563 363.77 204.201 365.449C200.839 367.074 196.962 367.887 192.57 367.887ZM192.57 361.387C196.8 361.387 200.161 360.087 202.656 357.487C205.15 354.887 206.397 351.474 206.397 347.249C206.397 342.861 205.15 339.395 202.656 336.849C200.161 334.303 196.8 333.03 192.57 333.03C188.341 333.03 184.979 334.303 182.484 336.849C179.99 339.395 178.743 342.861 178.743 347.249C178.743 351.474 179.99 354.887 182.484 357.487C184.979 360.087 188.341 361.387 192.57 361.387Z" fill="#031C5B"/>
<path d="M222.154 327.668H230.125V333.436C234.137 328.778 239.56 326.449 246.392 326.449C250.296 326.449 253.794 327.315 256.885 329.049C260.03 330.782 262.47 333.22 264.205 336.361C265.994 339.449 266.889 343.051 266.889 347.168C266.889 351.23 265.994 354.832 264.205 357.974C262.47 361.116 260.057 363.553 256.966 365.287C253.875 367.02 250.351 367.887 246.392 367.887C243.139 367.887 240.102 367.345 237.283 366.262C234.463 365.178 232.158 363.58 230.369 361.468V384.462H222.154V327.668ZM244.522 361.387C247.179 361.387 249.564 360.818 251.679 359.68C253.848 358.489 255.529 356.81 256.722 354.643C257.969 352.476 258.593 349.984 258.593 347.168C258.593 344.351 257.969 341.886 256.722 339.774C255.529 337.607 253.848 335.955 251.679 334.818C249.564 333.626 247.179 333.03 244.522 333.03C241.214 333.03 238.286 333.897 235.737 335.63C233.243 337.363 231.453 339.747 230.369 342.78V351.555C231.291 354.534 233.053 356.918 235.656 358.705C238.259 360.493 241.214 361.387 244.522 361.387Z" fill="#031C5B"/>
<path d="M274.222 309.874H311.719V316.861H282.519V334.98H304.317V341.561H282.519V366.668H274.222V309.874Z" fill="#031C5B"/>
<path d="M326.019 367.887C320.76 367.887 316.774 366.478 314.063 363.662C311.406 360.845 310.077 357.08 310.077 352.368V327.668H318.292V352.043C318.292 358.272 321.41 361.387 327.646 361.387C333.123 361.387 337.406 358.922 340.497 353.993V327.668H348.712V366.668H340.741V361.143C338.898 363.472 336.702 365.178 334.153 366.262C331.659 367.345 328.947 367.887 326.019 367.887Z" fill="#031C5B"/>
<path d="M357.628 327.668H365.599V333.274C367.442 330.945 369.693 329.238 372.35 328.155C375.061 327.018 377.881 326.449 380.809 326.449C386.014 326.449 389.891 327.83 392.44 330.593C394.988 333.355 396.263 337.066 396.263 341.724V366.668H388.048V342.536C388.048 336.199 385.011 333.03 378.938 333.03C376.335 333.03 373.895 333.653 371.618 334.899C369.394 336.091 367.469 337.932 365.843 340.424V366.668H357.628V327.668Z" fill="#031C5B"/>
<path d="M423.642 367.887C419.737 367.887 416.213 367.047 413.068 365.368C409.977 363.635 407.537 361.224 405.747 358.137C404.012 354.995 403.145 351.366 403.145 347.249C403.145 343.186 404.012 339.584 405.747 336.443C407.537 333.301 409.977 330.863 413.068 329.13C416.213 327.343 419.737 326.449 423.642 326.449C430.691 326.449 436.032 328.588 439.665 332.868V306.624H447.88V366.668H439.909V360.98C437.74 363.364 435.354 365.124 432.751 366.262C430.203 367.345 427.166 367.887 423.642 367.887ZM425.512 361.387C428.874 361.387 431.802 360.52 434.297 358.787C436.845 356.999 438.635 354.616 439.665 351.637V342.861C438.743 339.882 436.981 337.499 434.378 335.711C431.829 333.924 428.874 333.03 425.512 333.03C422.855 333.03 420.442 333.626 418.273 334.818C416.159 336.009 414.478 337.688 413.23 339.855C412.037 342.022 411.441 344.486 411.441 347.249C411.441 350.012 412.037 352.476 413.23 354.643C414.478 356.81 416.159 358.489 418.273 359.68C420.442 360.818 422.855 361.387 425.512 361.387Z" fill="#031C5B"/>
<path d="M254.736 272.248C253.464 272.216 252.639 270.892 253.171 269.736L256.881 261.67L269.7 229.061C270.162 227.886 269.281 226.618 268.018 226.641L250.588 226.964C249.251 226.988 248.37 225.581 248.975 224.389L252.473 217.503L256.436 207.543C256.704 206.868 257.357 206.426 258.083 206.426H280.027C280.659 206.426 281.244 206.763 281.561 207.311L292.279 225.851C292.549 226.319 292.591 226.885 292.393 227.388L274.964 271.595C274.691 272.287 274.014 272.735 273.271 272.716L254.736 272.248Z" fill="url(#paint0_linear_36_13666)"/>
<path d="M326.921 246.472C326.403 247.623 327.221 248.932 328.483 248.971L338.679 249.282C339.345 249.303 339.966 248.948 340.287 248.364L346.413 237.198C347.064 236.011 346.197 234.561 344.843 234.573L333.363 234.678C332.672 234.684 332.048 235.092 331.764 235.722L326.921 246.472Z" fill="url(#paint1_linear_36_13666)"/>
<path d="M321.26 236.998C321.744 235.831 320.887 234.546 319.623 234.546H301.282C300.566 234.546 299.921 234.976 299.646 235.637L288.869 261.529L285.352 269.763C284.858 270.919 285.691 272.207 286.947 272.231L305.288 272.583C306.018 272.597 306.681 272.163 306.96 271.489L313.606 255.422L321.26 236.998Z" fill="url(#paint2_linear_36_13666)"/>
<path d="M294.066 206.272C292.703 206.277 291.856 207.756 292.541 208.934L302.29 225.714C302.606 226.258 303.188 226.594 303.817 226.595L350.938 226.731C351.587 226.733 352.185 226.38 352.497 225.812L361.918 208.636C362.568 207.452 361.708 206.007 360.358 206.012L294.066 206.272Z" fill="url(#paint3_linear_36_13666)"/>
<defs>
<linearGradient id="paint0_linear_36_13666" x1="259.17" y1="247.348" x2="289.299" y2="219.85" gradientUnits="userSpaceOnUse">
<stop stop-color="#00E1B9"/>
<stop offset="1" stop-color="#00C6F1"/>
</linearGradient>
<linearGradient id="paint1_linear_36_13666" x1="347.572" y1="235.535" x2="328.66" y2="246.184" gradientUnits="userSpaceOnUse">
<stop stop-color="#A12DF0"/>
<stop offset="1" stop-color="#FF61AD"/>
</linearGradient>
<linearGradient id="paint2_linear_36_13666" x1="284.302" y1="272.748" x2="318.853" y2="234.317" gradientUnits="userSpaceOnUse">
<stop stop-color="#3DFF96"/>
<stop offset="0.0001" stop-color="#0AE06D"/>
<stop offset="0.520833" stop-color="#F2C319"/>
<stop offset="1" stop-color="#FF8D4E"/>
</linearGradient>
<linearGradient id="paint3_linear_36_13666" x1="290.806" y1="206" x2="354.655" y2="226.714" gradientUnits="userSpaceOnUse">
<stop stop-color="#1EAEFF"/>
<stop offset="1" stop-color="#4D21FF"/>
</linearGradient>
</defs>
</svg>
