<svg width="328" height="291" viewBox="0 0 328 291" fill="none" xmlns="http://www.w3.org/2000/svg">
<rect width="164" height="97" fill="#F4F6F8"/>
<path d="M21.852 31.14C20.8627 31.14 19.9667 30.9253 19.164 30.496C18.3707 30.0573 17.7453 29.4553 17.288 28.69C16.84 27.9247 16.616 27.0613 16.616 26.1C16.616 25.1387 16.8447 24.2753 17.302 23.51C17.7593 22.7447 18.3847 22.1473 19.178 21.718C19.9807 21.2793 20.8767 21.06 21.866 21.06C22.6687 21.06 23.4013 21.2 24.064 21.48C24.7267 21.76 25.2867 22.166 25.744 22.698L24.568 23.804C23.8587 23.0387 22.986 22.656 21.95 22.656C21.278 22.656 20.676 22.8053 20.144 23.104C19.612 23.3933 19.1967 23.7993 18.898 24.322C18.5993 24.8447 18.45 25.4373 18.45 26.1C18.45 26.7627 18.5993 27.3553 18.898 27.878C19.1967 28.4007 19.612 28.8113 20.144 29.11C20.676 29.3993 21.278 29.544 21.95 29.544C22.986 29.544 23.8587 29.1567 24.568 28.382L25.744 29.502C25.2867 30.034 24.722 30.44 24.05 30.72C23.3873 31 22.6547 31.14 21.852 31.14ZM27.4879 21.2H29.3079V29.46H34.4319V31H27.4879V21.2ZM40.269 31.14C39.2703 31.14 38.3697 30.9253 37.567 30.496C36.7643 30.0573 36.1343 29.4553 35.677 28.69C35.2197 27.9153 34.991 27.052 34.991 26.1C34.991 25.148 35.2197 24.2893 35.677 23.524C36.1343 22.7493 36.7643 22.1473 37.567 21.718C38.3697 21.2793 39.2703 21.06 40.269 21.06C41.2677 21.06 42.1683 21.2793 42.971 21.718C43.7737 22.1473 44.4037 22.7447 44.861 23.51C45.3183 24.2753 45.547 25.1387 45.547 26.1C45.547 27.0613 45.3183 27.9247 44.861 28.69C44.4037 29.4553 43.7737 30.0573 42.971 30.496C42.1683 30.9253 41.2677 31.14 40.269 31.14ZM40.269 29.544C40.9223 29.544 41.5103 29.3993 42.033 29.11C42.5557 28.8113 42.9663 28.4007 43.265 27.878C43.5637 27.346 43.713 26.7533 43.713 26.1C43.713 25.4467 43.5637 24.8587 43.265 24.336C42.9663 23.804 42.5557 23.3933 42.033 23.104C41.5103 22.8053 40.9223 22.656 40.269 22.656C39.6157 22.656 39.0277 22.8053 38.505 23.104C37.9823 23.3933 37.5717 23.804 37.273 24.336C36.9743 24.8587 36.825 25.4467 36.825 26.1C36.825 26.7533 36.9743 27.346 37.273 27.878C37.5717 28.4007 37.9823 28.8113 38.505 29.11C39.0277 29.3993 39.6157 29.544 40.269 29.544ZM51.6902 31.14C50.3368 31.14 49.2822 30.762 48.5262 30.006C47.7702 29.2407 47.3922 28.1487 47.3922 26.73V21.2H49.2122V26.66C49.2122 28.5827 50.0428 29.544 51.7042 29.544C53.3562 29.544 54.1822 28.5827 54.1822 26.66V21.2H55.9742V26.73C55.9742 28.1487 55.5962 29.2407 54.8402 30.006C54.0935 30.762 53.0435 31.14 51.6902 31.14ZM58.523 21.2H62.807C63.8524 21.2 64.781 21.4053 65.593 21.816C66.405 22.2173 67.035 22.7913 67.483 23.538C67.931 24.2753 68.155 25.1293 68.155 26.1C68.155 27.0707 67.931 27.9293 67.483 28.676C67.035 29.4133 66.405 29.9873 65.593 30.398C64.781 30.7993 63.8524 31 62.807 31H58.523V21.2ZM62.723 29.46C63.4417 29.46 64.0717 29.3247 64.613 29.054C65.1637 28.774 65.5837 28.382 65.873 27.878C66.1717 27.3647 66.321 26.772 66.321 26.1C66.321 25.428 66.1717 24.84 65.873 24.336C65.5837 23.8227 65.1637 23.4307 64.613 23.16C64.0717 22.88 63.4417 22.74 62.723 22.74H60.343V29.46H62.723Z" fill="#333333"/>
<path d="M23.252 46.63L22.888 49.57H24.876V50.34H22.79L22.468 53H21.712L22.034 50.34H19.164L18.828 53H18.072L18.394 50.34H16.406V49.57H18.492L18.856 46.63H16.854V45.86H18.954L19.276 43.2H20.046L19.71 45.86H22.594L22.916 43.2H23.672L23.35 45.86H25.324V46.63H23.252ZM22.496 46.63H19.626L19.248 49.57H22.132L22.496 46.63ZM34.274 52.104V53H27.344V43.2H34.064V44.096H28.38V47.582H33.448V48.464H28.38V52.104H34.274ZM42.6479 43.2V43.914L38.5459 53H37.4539L41.4859 44.096H36.4459V45.93H35.4519V43.2H42.6479ZM51.774 52.104V53H44.844V43.2H51.564V44.096H45.88V47.582H50.948V48.464H45.88V52.104H51.774ZM58.8459 47.862C59.4619 48.0673 59.9332 48.3753 60.2599 48.786C60.5959 49.1967 60.7639 49.6913 60.7639 50.27C60.7639 50.8393 60.6099 51.3387 60.3019 51.768C59.9939 52.188 59.5506 52.5147 58.9719 52.748C58.4026 52.972 57.7306 53.084 56.9559 53.084C55.7799 53.084 54.8559 52.832 54.1839 52.328C53.5119 51.824 53.1759 51.138 53.1759 50.27C53.1759 49.682 53.3346 49.1873 53.6519 48.786C53.9786 48.3753 54.4499 48.0673 55.0659 47.862C54.5619 47.666 54.1792 47.386 53.9179 47.022C53.6566 46.6487 53.5259 46.21 53.5259 45.706C53.5259 44.9127 53.8339 44.2827 54.4499 43.816C55.0752 43.3493 55.9106 43.116 56.9559 43.116C57.6466 43.116 58.2486 43.2233 58.7619 43.438C59.2846 43.6433 59.6906 43.942 59.9799 44.334C60.2692 44.726 60.4139 45.1833 60.4139 45.706C60.4139 46.21 60.2786 46.6487 60.0079 47.022C59.7372 47.386 59.3499 47.666 58.8459 47.862ZM54.5339 45.734C54.5339 46.2753 54.7486 46.7047 55.1779 47.022C55.6072 47.3393 56.1999 47.498 56.9559 47.498C57.7119 47.498 58.3046 47.3393 58.7339 47.022C59.1726 46.7047 59.3919 46.28 59.3919 45.748C59.3919 45.1973 59.1679 44.7633 58.7199 44.446C58.2812 44.1287 57.6932 43.97 56.9559 43.97C56.2092 43.97 55.6166 44.1287 55.1779 44.446C54.7486 44.7633 54.5339 45.1927 54.5339 45.734ZM56.9559 52.23C57.8239 52.23 58.5006 52.0527 58.9859 51.698C59.4806 51.3433 59.7279 50.8627 59.7279 50.256C59.7279 49.6493 59.4806 49.1733 58.9859 48.828C58.5006 48.4733 57.8239 48.296 56.9559 48.296C56.0972 48.296 55.4206 48.4733 54.9259 48.828C54.4406 49.1733 54.1979 49.6493 54.1979 50.256C54.1979 50.872 54.4406 51.3573 54.9259 51.712C55.4112 52.0573 56.0879 52.23 56.9559 52.23ZM69.9576 52.104V53H63.0276V43.2H69.7476V44.096H64.0636V47.582H69.1316V48.464H64.0636V52.104H69.9576ZM78.5389 50.382H73.0789L71.9029 53H70.8249L75.3049 43.2H76.3269L80.8069 53H79.7149L78.5389 50.382ZM78.1609 49.542L75.8089 44.278L73.4569 49.542H78.1609Z" fill="#333333"/>
<rect width="164" height="97" transform="translate(0 97)" fill="#4733FF"/>
<path d="M31.638 118.2L28.39 128H26.458L24.036 120.748L21.572 128H19.626L16.378 118.2H18.268L20.704 125.648L23.238 118.2H24.918L27.396 125.69L29.902 118.2H31.638ZM39.1622 125.732H34.2622L33.2962 128H31.4202L35.8302 118.2H37.6222L42.0462 128H40.1422L39.1622 125.732ZM38.5602 124.304L36.7122 120.02L34.8782 124.304H38.5602ZM44.7884 119.74H41.5404V118.2H49.8564V119.74H46.6084V128H44.7884V119.74ZM58.5723 126.474V128H51.2223V118.2H58.3763V119.726H53.0423V122.274H57.7743V123.772H53.0423V126.474H58.5723ZM67.0132 128L65.0112 125.13C64.9272 125.139 64.8012 125.144 64.6332 125.144H62.4212V128H60.6012V118.2H64.6332C65.4825 118.2 66.2198 118.34 66.8452 118.62C67.4798 118.9 67.9652 119.301 68.3012 119.824C68.6372 120.347 68.8052 120.967 68.8052 121.686C68.8052 122.423 68.6232 123.058 68.2592 123.59C67.9045 124.122 67.3912 124.519 66.7192 124.78L68.9732 128H67.0132ZM66.9712 121.686C66.9712 121.061 66.7658 120.58 66.3552 120.244C65.9445 119.908 65.3425 119.74 64.5492 119.74H62.4212V123.646H64.5492C65.3425 123.646 65.9445 123.478 66.3552 123.142C66.7658 122.797 66.9712 122.311 66.9712 121.686Z" fill="white"/>
<path d="M23.252 143.63L22.888 146.57H24.876V147.34H22.79L22.468 150H21.712L22.034 147.34H19.164L18.828 150H18.072L18.394 147.34H16.406V146.57H18.492L18.856 143.63H16.854V142.86H18.954L19.276 140.2H20.046L19.71 142.86H22.594L22.916 140.2H23.672L23.35 142.86H25.324V143.63H23.252ZM22.496 143.63H19.626L19.248 146.57H22.132L22.496 143.63ZM34.806 147.424H32.846V150H31.838V147.424H26.308V146.696L31.502 140.2H32.622L27.61 146.528H31.866V144.26H32.846V146.528H34.806V147.424ZM41.9506 140.2V140.914L37.8486 150H36.7566L40.7886 141.096H35.7486V142.93H34.7546V140.2H41.9506ZM46.4877 144.4C47.5144 144.456 48.2937 144.736 48.8257 145.24C49.3671 145.735 49.6377 146.383 49.6377 147.186C49.6377 147.746 49.5024 148.245 49.2317 148.684C48.9611 149.113 48.5597 149.454 48.0277 149.706C47.4957 149.958 46.8471 150.084 46.0817 150.084C45.3724 150.084 44.7004 149.972 44.0657 149.748C43.4404 149.515 42.9364 149.207 42.5537 148.824L43.0437 148.026C43.3704 148.362 43.8044 148.637 44.3457 148.852C44.8871 149.057 45.4657 149.16 46.0817 149.16C46.8844 149.16 47.5051 148.987 47.9437 148.642C48.3824 148.287 48.6017 147.802 48.6017 147.186C48.6017 146.579 48.3824 146.103 47.9437 145.758C47.5051 145.413 46.8424 145.24 45.9557 145.24H45.2557V144.498L47.9717 141.096H42.9597V140.2H49.2597V140.914L46.4877 144.4ZM54.3217 144.4C55.3484 144.456 56.1277 144.736 56.6597 145.24C57.2011 145.735 57.4717 146.383 57.4717 147.186C57.4717 147.746 57.3364 148.245 57.0657 148.684C56.7951 149.113 56.3937 149.454 55.8617 149.706C55.3297 149.958 54.6811 150.084 53.9157 150.084C53.2064 150.084 52.5344 149.972 51.8997 149.748C51.2744 149.515 50.7704 149.207 50.3877 148.824L50.8777 148.026C51.2044 148.362 51.6384 148.637 52.1797 148.852C52.7211 149.057 53.2997 149.16 53.9157 149.16C54.7184 149.16 55.3391 148.987 55.7777 148.642C56.2164 148.287 56.4357 147.802 56.4357 147.186C56.4357 146.579 56.2164 146.103 55.7777 145.758C55.3391 145.413 54.6764 145.24 53.7897 145.24H53.0897V144.498L55.8057 141.096H50.7937V140.2H57.0937V140.914L54.3217 144.4ZM60.7961 141.096V144.946H65.8641V145.842H60.7961V150H59.7601V140.2H66.4801V141.096H60.7961ZM69.6554 141.096V144.946H74.7234V145.842H69.6554V150H68.6194V140.2H75.3394V141.096H69.6554Z" fill="white"/>
<rect width="164" height="97" transform="translate(0 194)" fill="#F9CE35"/>
<path d="M21.852 225.14C20.8627 225.14 19.9667 224.925 19.164 224.496C18.3707 224.057 17.7453 223.455 17.288 222.69C16.84 221.925 16.616 221.061 16.616 220.1C16.616 219.139 16.8447 218.275 17.302 217.51C17.7593 216.745 18.3847 216.147 19.178 215.718C19.9807 215.279 20.8767 215.06 21.866 215.06C22.6687 215.06 23.4013 215.2 24.064 215.48C24.7267 215.76 25.2867 216.166 25.744 216.698L24.568 217.804C23.8587 217.039 22.986 216.656 21.95 216.656C21.278 216.656 20.676 216.805 20.144 217.104C19.612 217.393 19.1967 217.799 18.898 218.322C18.5993 218.845 18.45 219.437 18.45 220.1C18.45 220.763 18.5993 221.355 18.898 221.878C19.1967 222.401 19.612 222.811 20.144 223.11C20.676 223.399 21.278 223.544 21.95 223.544C22.986 223.544 23.8587 223.157 24.568 222.382L25.744 223.502C25.2867 224.034 24.722 224.44 24.05 224.72C23.3873 225 22.6547 225.14 21.852 225.14ZM33.6388 222.732H28.7388L27.7728 225H25.8968L30.3068 215.2H32.0988L36.5228 225H34.6188L33.6388 222.732ZM33.0368 221.304L31.1888 217.02L29.3548 221.304H33.0368ZM46.4771 215.2V225H44.9791L39.5751 218.364V225H37.7691V215.2H39.2671L44.6711 221.836V215.2H46.4771ZM55.4591 222.732H50.5591L49.5931 225H47.7171L52.1271 215.2H53.9191L58.3431 225H56.4391L55.4591 222.732ZM54.8571 221.304L53.0091 217.02L51.1751 221.304H54.8571ZM66.0014 225L63.9994 222.13C63.9154 222.139 63.7894 222.144 63.6214 222.144H61.4094V225H59.5894V215.2H63.6214C64.4708 215.2 65.2081 215.34 65.8334 215.62C66.4681 215.9 66.9534 216.301 67.2894 216.824C67.6254 217.347 67.7934 217.967 67.7934 218.686C67.7934 219.423 67.6114 220.058 67.2474 220.59C66.8928 221.122 66.3794 221.519 65.7074 221.78L67.9614 225H66.0014ZM65.9594 218.686C65.9594 218.061 65.7541 217.58 65.3434 217.244C64.9328 216.908 64.3308 216.74 63.5374 216.74H61.4094V220.646H63.5374C64.3308 220.646 64.9328 220.478 65.3434 220.142C65.7541 219.797 65.9594 219.311 65.9594 218.686ZM73.921 221.542V225H72.101V221.57L68.251 215.2H70.197L73.067 219.974L75.965 215.2H77.757L73.921 221.542Z" fill="#333333"/>
<path d="M23.252 240.63L22.888 243.57H24.876V244.34H22.79L22.468 247H21.712L22.034 244.34H19.164L18.828 247H18.072L18.394 244.34H16.406V243.57H18.492L18.856 240.63H16.854V239.86H18.954L19.276 237.2H20.046L19.71 239.86H22.594L22.916 237.2H23.672L23.35 239.86H25.324V240.63H23.252ZM22.496 240.63H19.626L19.248 243.57H22.132L22.496 240.63ZM28.38 238.096V241.946H33.448V242.842H28.38V247H27.344V237.2H34.064V238.096H28.38ZM38.4695 237.116C39.7668 237.116 40.7608 237.545 41.4515 238.404C42.1421 239.253 42.4875 240.457 42.4875 242.016C42.4875 243.108 42.3008 244.032 41.9275 244.788C41.5541 245.544 41.0315 246.118 40.3595 246.51C39.6875 246.893 38.9035 247.084 38.0075 247.084C37.0368 247.084 36.2621 246.907 35.6835 246.552L36.0895 245.74C36.5561 246.048 37.1908 246.202 37.9935 246.202C39.0761 246.202 39.9255 245.861 40.5415 245.18C41.1575 244.489 41.4655 243.491 41.4655 242.184C41.4655 241.941 41.4515 241.675 41.4235 241.386C41.1808 241.918 40.7935 242.333 40.2615 242.632C39.7295 242.921 39.1181 243.066 38.4275 243.066C37.7835 243.066 37.2095 242.945 36.7055 242.702C36.2108 242.459 35.8235 242.119 35.5435 241.68C35.2635 241.232 35.1235 240.714 35.1235 240.126C35.1235 239.529 35.2681 239.001 35.5575 238.544C35.8468 238.087 36.2435 237.737 36.7475 237.494C37.2608 237.242 37.8348 237.116 38.4695 237.116ZM38.5815 242.212C39.0761 242.212 39.5101 242.119 39.8835 241.932C40.2661 241.745 40.5648 241.489 40.7795 241.162C40.9941 240.835 41.1015 240.471 41.1015 240.07C41.1015 239.697 40.9988 239.351 40.7935 239.034C40.5975 238.717 40.3035 238.46 39.9115 238.264C39.5195 238.068 39.0528 237.97 38.5115 237.97C37.8021 237.97 37.2235 238.166 36.7755 238.558C36.3368 238.941 36.1175 239.454 36.1175 240.098C36.1175 240.742 36.3368 241.255 36.7755 241.638C37.2235 242.021 37.8255 242.212 38.5815 242.212ZM49.0727 247.084C48.102 247.084 47.2247 246.869 46.4407 246.44C45.666 246.011 45.0547 245.418 44.6067 244.662C44.168 243.897 43.9487 243.043 43.9487 242.1C43.9487 241.157 44.168 240.308 44.6067 239.552C45.0547 238.787 45.6707 238.189 46.4547 237.76C47.2387 237.331 48.116 237.116 49.0867 237.116C49.8147 237.116 50.4867 237.237 51.1027 237.48C51.7187 237.723 52.2414 238.077 52.6707 238.544L52.0127 239.202C51.2474 238.427 50.2814 238.04 49.1147 238.04C48.34 238.04 47.6354 238.217 47.0007 238.572C46.366 238.927 45.8667 239.412 45.5027 240.028C45.148 240.644 44.9707 241.335 44.9707 242.1C44.9707 242.865 45.148 243.556 45.5027 244.172C45.8667 244.788 46.366 245.273 47.0007 245.628C47.6354 245.983 48.34 246.16 49.1147 246.16C50.2907 246.16 51.2567 245.768 52.0127 244.984L52.6707 245.642C52.2414 246.109 51.714 246.468 51.0887 246.72C50.4727 246.963 49.8007 247.084 49.0727 247.084ZM61.8092 246.104V247H54.8792V237.2H61.5992V238.096H55.9152V241.582H60.9832V242.464H55.9152V246.104H61.8092ZM66.5034 241.4C67.53 241.456 68.3094 241.736 68.8414 242.24C69.3827 242.735 69.6534 243.383 69.6534 244.186C69.6534 244.746 69.518 245.245 69.2474 245.684C68.9767 246.113 68.5754 246.454 68.0434 246.706C67.5114 246.958 66.8627 247.084 66.0974 247.084C65.388 247.084 64.716 246.972 64.0814 246.748C63.456 246.515 62.952 246.207 62.5694 245.824L63.0594 245.026C63.386 245.362 63.82 245.637 64.3614 245.852C64.9027 246.057 65.4814 246.16 66.0974 246.16C66.9 246.16 67.5207 245.987 67.9594 245.642C68.398 245.287 68.6174 244.802 68.6174 244.186C68.6174 243.579 68.398 243.103 67.9594 242.758C67.5207 242.413 66.858 242.24 65.9714 242.24H65.2714V241.498L67.9874 238.096H62.9754V237.2H69.2754V237.914L66.5034 241.4ZM73.513 241.218C74.9317 241.218 75.963 241.475 76.607 241.988C77.2603 242.492 77.587 243.201 77.587 244.116C77.587 244.685 77.4517 245.194 77.181 245.642C76.9197 246.09 76.523 246.445 75.991 246.706C75.459 246.958 74.8057 247.084 74.031 247.084C73.331 247.084 72.6637 246.972 72.029 246.748C71.4037 246.515 70.8997 246.207 70.517 245.824L71.007 245.026C71.3337 245.362 71.763 245.637 72.295 245.852C72.827 246.057 73.401 246.16 74.017 246.16C74.829 246.16 75.4543 245.978 75.893 245.614C76.341 245.25 76.565 244.765 76.565 244.158C76.565 243.486 76.313 242.977 75.809 242.632C75.3143 242.287 74.4743 242.114 73.289 242.114H71.203L71.707 237.2H77.069V238.096H72.589L72.253 241.218H73.513Z" fill="#333333"/>
<rect width="164" height="97" transform="translate(164)" fill="#00DBC8"/>
<path d="M183.304 22.74H180.056V21.2H188.372V22.74H185.124V31H183.304V22.74ZM193.774 31.14C192.421 31.14 191.366 30.762 190.61 30.006C189.854 29.2407 189.476 28.1487 189.476 26.73V21.2H191.296V26.66C191.296 28.5827 192.127 29.544 193.788 29.544C195.44 29.544 196.266 28.5827 196.266 26.66V21.2H198.058V26.73C198.058 28.1487 197.68 29.2407 196.924 30.006C196.177 30.762 195.127 31.14 193.774 31.14ZM207.019 31L205.017 28.13C204.933 28.1393 204.807 28.144 204.639 28.144H202.427V31H200.607V21.2H204.639C205.488 21.2 206.226 21.34 206.851 21.62C207.486 21.9 207.971 22.3013 208.307 22.824C208.643 23.3467 208.811 23.9673 208.811 24.686C208.811 25.4233 208.629 26.058 208.265 26.59C207.91 27.122 207.397 27.5187 206.725 27.78L208.979 31H207.019ZM206.977 24.686C206.977 24.0607 206.772 23.58 206.361 23.244C205.95 22.908 205.348 22.74 204.555 22.74H202.427V26.646H204.555C205.348 26.646 205.95 26.478 206.361 26.142C206.772 25.7967 206.977 25.3113 206.977 24.686ZM221.193 31.98C220.867 32.3627 220.484 32.652 220.045 32.848C219.616 33.044 219.145 33.142 218.631 33.142C217.959 33.142 217.343 32.988 216.783 32.68C216.223 32.3813 215.584 31.8587 214.865 31.112C213.96 31.0373 213.148 30.776 212.429 30.328C211.711 29.8707 211.151 29.278 210.749 28.55C210.348 27.8127 210.147 26.996 210.147 26.1C210.147 25.148 210.376 24.2893 210.833 23.524C211.291 22.7493 211.921 22.1473 212.723 21.718C213.526 21.2793 214.427 21.06 215.425 21.06C216.424 21.06 217.325 21.2793 218.127 21.718C218.93 22.1473 219.56 22.7447 220.017 23.51C220.475 24.2753 220.703 25.1387 220.703 26.1C220.703 26.8747 220.549 27.5933 220.241 28.256C219.933 28.9093 219.504 29.4693 218.953 29.936C218.403 30.3933 217.763 30.7247 217.035 30.93C217.306 31.2193 217.572 31.4293 217.833 31.56C218.095 31.6907 218.375 31.756 218.673 31.756C219.317 31.756 219.877 31.4947 220.353 30.972L221.193 31.98ZM211.981 26.1C211.981 26.7533 212.131 27.346 212.429 27.878C212.728 28.4007 213.139 28.8113 213.661 29.11C214.184 29.3993 214.772 29.544 215.425 29.544C216.079 29.544 216.667 29.3993 217.189 29.11C217.712 28.8113 218.123 28.4007 218.421 27.878C218.72 27.346 218.869 26.7533 218.869 26.1C218.869 25.4467 218.72 24.8587 218.421 24.336C218.123 23.804 217.712 23.3933 217.189 23.104C216.667 22.8053 216.079 22.656 215.425 22.656C214.772 22.656 214.184 22.8053 213.661 23.104C213.139 23.3933 212.728 23.804 212.429 24.336C212.131 24.8587 211.981 25.4467 211.981 26.1ZM226.846 31.14C225.493 31.14 224.438 30.762 223.682 30.006C222.926 29.2407 222.548 28.1487 222.548 26.73V21.2H224.368V26.66C224.368 28.5827 225.199 29.544 226.86 29.544C228.512 29.544 229.338 28.5827 229.338 26.66V21.2H231.13V26.73C231.13 28.1487 230.752 29.2407 229.996 30.006C229.25 30.762 228.2 31.14 226.846 31.14ZM238.257 31.14C237.259 31.14 236.358 30.9253 235.555 30.496C234.753 30.0573 234.123 29.4553 233.665 28.69C233.208 27.9153 232.979 27.052 232.979 26.1C232.979 25.148 233.208 24.2893 233.665 23.524C234.123 22.7493 234.753 22.1473 235.555 21.718C236.358 21.2793 237.259 21.06 238.257 21.06C239.256 21.06 240.157 21.2793 240.959 21.718C241.762 22.1473 242.392 22.7447 242.849 23.51C243.307 24.2753 243.535 25.1387 243.535 26.1C243.535 27.0613 243.307 27.9247 242.849 28.69C242.392 29.4553 241.762 30.0573 240.959 30.496C240.157 30.9253 239.256 31.14 238.257 31.14ZM238.257 29.544C238.911 29.544 239.499 29.3993 240.021 29.11C240.544 28.8113 240.955 28.4007 241.253 27.878C241.552 27.346 241.701 26.7533 241.701 26.1C241.701 25.4467 241.552 24.8587 241.253 24.336C240.955 23.804 240.544 23.3933 240.021 23.104C239.499 22.8053 238.911 22.656 238.257 22.656C237.604 22.656 237.016 22.8053 236.493 23.104C235.971 23.3933 235.56 23.804 235.261 24.336C234.963 24.8587 234.813 25.4467 234.813 26.1C234.813 26.7533 234.963 27.346 235.261 27.878C235.56 28.4007 235.971 28.8113 236.493 29.11C237.016 29.3993 237.604 29.544 238.257 29.544ZM245.464 21.2H247.284V31H245.464V21.2ZM252.973 31.14C252.217 31.14 251.484 31.0327 250.775 30.818C250.075 30.6033 249.52 30.3187 249.109 29.964L249.739 28.55C250.14 28.8673 250.63 29.1287 251.209 29.334C251.797 29.53 252.385 29.628 252.973 29.628C253.701 29.628 254.242 29.5113 254.597 29.278C254.961 29.0447 255.143 28.7367 255.143 28.354C255.143 28.074 255.04 27.8453 254.835 27.668C254.639 27.4813 254.387 27.3367 254.079 27.234C253.771 27.1313 253.351 27.0147 252.819 26.884C252.072 26.7067 251.466 26.5293 250.999 26.352C250.542 26.1747 250.145 25.8993 249.809 25.526C249.482 25.1433 249.319 24.63 249.319 23.986C249.319 23.4447 249.464 22.9547 249.753 22.516C250.052 22.068 250.495 21.7133 251.083 21.452C251.68 21.1907 252.408 21.06 253.267 21.06C253.864 21.06 254.452 21.1347 255.031 21.284C255.61 21.4333 256.109 21.648 256.529 21.928L255.955 23.342C255.526 23.09 255.078 22.8987 254.611 22.768C254.144 22.6373 253.692 22.572 253.253 22.572C252.534 22.572 251.998 22.6933 251.643 22.936C251.298 23.1787 251.125 23.5007 251.125 23.902C251.125 24.182 251.223 24.4107 251.419 24.588C251.624 24.7653 251.881 24.9053 252.189 25.008C252.497 25.1107 252.917 25.2273 253.449 25.358C254.177 25.526 254.774 25.7033 255.241 25.89C255.708 26.0673 256.104 26.3427 256.431 26.716C256.767 27.0893 256.935 27.5933 256.935 28.228C256.935 28.7693 256.786 29.2593 256.487 29.698C256.198 30.1367 255.754 30.4867 255.157 30.748C254.56 31.0093 253.832 31.14 252.973 31.14ZM266.09 29.474V31H258.74V21.2H265.894V22.726H260.56V25.274H265.292V26.772H260.56V29.474H266.09Z" fill="#333333"/>
<path d="M187.252 46.63L186.888 49.57H188.876V50.34H186.79L186.468 53H185.712L186.034 50.34H183.164L182.828 53H182.072L182.394 50.34H180.406V49.57H182.492L182.856 46.63H180.854V45.86H182.954L183.276 43.2H184.046L183.71 45.86H186.594L186.916 43.2H187.672L187.35 45.86H189.324V46.63H187.252ZM186.496 46.63H183.626L183.248 49.57H186.132L186.496 46.63ZM194.382 53.084C193.626 53.084 192.949 52.8833 192.352 52.482C191.764 52.0807 191.302 51.5067 190.966 50.76C190.639 50.004 190.476 49.1173 190.476 48.1C190.476 47.0827 190.639 46.2007 190.966 45.454C191.302 44.698 191.764 44.1193 192.352 43.718C192.949 43.3167 193.626 43.116 194.382 43.116C195.138 43.116 195.81 43.3167 196.398 43.718C196.995 44.1193 197.462 44.698 197.798 45.454C198.134 46.2007 198.302 47.0827 198.302 48.1C198.302 49.1173 198.134 50.004 197.798 50.76C197.462 51.5067 196.995 52.0807 196.398 52.482C195.81 52.8833 195.138 53.084 194.382 53.084ZM194.382 52.16C194.951 52.16 195.451 52.0013 195.88 51.684C196.319 51.3667 196.659 50.9047 196.902 50.298C197.145 49.6913 197.266 48.9587 197.266 48.1C197.266 47.2413 197.145 46.5087 196.902 45.902C196.659 45.2953 196.319 44.8333 195.88 44.516C195.451 44.1987 194.951 44.04 194.382 44.04C193.813 44.04 193.309 44.1987 192.87 44.516C192.441 44.8333 192.105 45.2953 191.862 45.902C191.619 46.5087 191.498 47.2413 191.498 48.1C191.498 48.9587 191.619 49.6913 191.862 50.298C192.105 50.9047 192.441 51.3667 192.87 51.684C193.309 52.0013 193.813 52.16 194.382 52.16ZM203.652 53.084C202.896 53.084 202.219 52.8833 201.622 52.482C201.034 52.0807 200.572 51.5067 200.236 50.76C199.909 50.004 199.746 49.1173 199.746 48.1C199.746 47.0827 199.909 46.2007 200.236 45.454C200.572 44.698 201.034 44.1193 201.622 43.718C202.219 43.3167 202.896 43.116 203.652 43.116C204.408 43.116 205.08 43.3167 205.668 43.718C206.265 44.1193 206.732 44.698 207.068 45.454C207.404 46.2007 207.572 47.0827 207.572 48.1C207.572 49.1173 207.404 50.004 207.068 50.76C206.732 51.5067 206.265 52.0807 205.668 52.482C205.08 52.8833 204.408 53.084 203.652 53.084ZM203.652 52.16C204.221 52.16 204.72 52.0013 205.15 51.684C205.588 51.3667 205.929 50.9047 206.172 50.298C206.414 49.6913 206.536 48.9587 206.536 48.1C206.536 47.2413 206.414 46.5087 206.172 45.902C205.929 45.2953 205.588 44.8333 205.15 44.516C204.72 44.1987 204.221 44.04 203.652 44.04C203.082 44.04 202.578 44.1987 202.14 44.516C201.71 44.8333 201.374 45.2953 201.132 45.902C200.889 46.5087 200.768 47.2413 200.768 48.1C200.768 48.9587 200.889 49.6913 201.132 50.298C201.374 50.9047 201.71 51.3667 202.14 51.684C202.578 52.0013 203.082 52.16 203.652 52.16ZM209.883 43.2H213.873C214.909 43.2 215.824 43.41 216.617 43.83C217.41 44.2407 218.026 44.8193 218.465 45.566C218.904 46.3033 219.123 47.148 219.123 48.1C219.123 49.052 218.904 49.9013 218.465 50.648C218.026 51.3853 217.41 51.964 216.617 52.384C215.824 52.7947 214.909 53 213.873 53H209.883V43.2ZM213.817 52.104C214.676 52.104 215.427 51.936 216.071 51.6C216.715 51.2547 217.214 50.7833 217.569 50.186C217.924 49.5793 218.101 48.884 218.101 48.1C218.101 47.316 217.924 46.6253 217.569 46.028C217.214 45.4213 216.715 44.95 216.071 44.614C215.427 44.2687 214.676 44.096 213.817 44.096H210.919V52.104H213.817ZM227.624 47.946C228.268 48.086 228.762 48.366 229.108 48.786C229.462 49.1967 229.64 49.7287 229.64 50.382C229.64 51.222 229.327 51.8707 228.702 52.328C228.086 52.776 227.171 53 225.958 53H221.45V43.2H225.678C226.77 43.2 227.614 43.4193 228.212 43.858C228.818 44.2967 229.122 44.9173 229.122 45.72C229.122 46.2613 228.986 46.7233 228.716 47.106C228.454 47.4793 228.09 47.7593 227.624 47.946ZM222.486 44.054V47.61H225.608C226.401 47.61 227.012 47.4607 227.442 47.162C227.871 46.854 228.086 46.4107 228.086 45.832C228.086 45.2533 227.871 44.8147 227.442 44.516C227.012 44.208 226.401 44.054 225.608 44.054H222.486ZM225.944 52.146C226.821 52.146 227.484 51.9967 227.932 51.698C228.38 51.3993 228.604 50.9327 228.604 50.298C228.604 49.0753 227.717 48.464 225.944 48.464H222.486V52.146H225.944ZM236.26 53.084C235.29 53.084 234.412 52.8693 233.628 52.44C232.854 52.0107 232.242 51.418 231.794 50.662C231.356 49.8967 231.136 49.0427 231.136 48.1C231.136 47.1573 231.356 46.308 231.794 45.552C232.242 44.7867 232.858 44.1893 233.642 43.76C234.426 43.3307 235.304 43.116 236.274 43.116C237.002 43.116 237.674 43.2373 238.29 43.48C238.906 43.7227 239.429 44.0773 239.858 44.544L239.2 45.202C238.435 44.4273 237.469 44.04 236.302 44.04C235.528 44.04 234.823 44.2173 234.188 44.572C233.554 44.9267 233.054 45.412 232.69 46.028C232.336 46.644 232.158 47.3347 232.158 48.1C232.158 48.8653 232.336 49.556 232.69 50.172C233.054 50.788 233.554 51.2733 234.188 51.628C234.823 51.9827 235.528 52.16 236.302 52.16C237.478 52.16 238.444 51.768 239.2 50.984L239.858 51.642C239.429 52.1087 238.902 52.468 238.276 52.72C237.66 52.9627 236.988 53.084 236.26 53.084ZM246.621 47.862C247.237 48.0673 247.709 48.3753 248.035 48.786C248.371 49.1967 248.539 49.6913 248.539 50.27C248.539 50.8393 248.385 51.3387 248.077 51.768C247.769 52.188 247.326 52.5147 246.747 52.748C246.178 52.972 245.506 53.084 244.731 53.084C243.555 53.084 242.631 52.832 241.959 52.328C241.287 51.824 240.951 51.138 240.951 50.27C240.951 49.682 241.11 49.1873 241.427 48.786C241.754 48.3753 242.225 48.0673 242.841 47.862C242.337 47.666 241.955 47.386 241.693 47.022C241.432 46.6487 241.301 46.21 241.301 45.706C241.301 44.9127 241.609 44.2827 242.225 43.816C242.851 43.3493 243.686 43.116 244.731 43.116C245.422 43.116 246.024 43.2233 246.537 43.438C247.06 43.6433 247.466 43.942 247.755 44.334C248.045 44.726 248.189 45.1833 248.189 45.706C248.189 46.21 248.054 46.6487 247.783 47.022C247.513 47.386 247.125 47.666 246.621 47.862ZM242.309 45.734C242.309 46.2753 242.524 46.7047 242.953 47.022C243.383 47.3393 243.975 47.498 244.731 47.498C245.487 47.498 246.08 47.3393 246.509 47.022C246.948 46.7047 247.167 46.28 247.167 45.748C247.167 45.1973 246.943 44.7633 246.495 44.446C246.057 44.1287 245.469 43.97 244.731 43.97C243.985 43.97 243.392 44.1287 242.953 44.446C242.524 44.7633 242.309 45.1927 242.309 45.734ZM244.731 52.23C245.599 52.23 246.276 52.0527 246.761 51.698C247.256 51.3433 247.503 50.8627 247.503 50.256C247.503 49.6493 247.256 49.1733 246.761 48.828C246.276 48.4733 245.599 48.296 244.731 48.296C243.873 48.296 243.196 48.4733 242.701 48.828C242.216 49.1733 241.973 49.6493 241.973 50.256C241.973 50.872 242.216 51.3573 242.701 51.712C243.187 52.0573 243.863 52.23 244.731 52.23Z" fill="#333333"/>
<rect width="164" height="97" transform="translate(164 97)" fill="#FB5FB0"/>
<path d="M183.136 119.726V122.708H187.868V124.248H183.136V128H181.316V118.2H188.47V119.726H183.136ZM194.444 128.14C193.091 128.14 192.036 127.762 191.28 127.006C190.524 126.241 190.146 125.149 190.146 123.73V118.2H191.966V123.66C191.966 125.583 192.797 126.544 194.458 126.544C196.11 126.544 196.936 125.583 196.936 123.66V118.2H198.728V123.73C198.728 125.149 198.35 126.241 197.594 127.006C196.847 127.762 195.797 128.14 194.444 128.14ZM205.813 128.14C204.824 128.14 203.928 127.925 203.125 127.496C202.332 127.057 201.706 126.455 201.249 125.69C200.801 124.925 200.577 124.061 200.577 123.1C200.577 122.139 200.806 121.275 201.263 120.51C201.72 119.745 202.346 119.147 203.139 118.718C203.942 118.279 204.838 118.06 205.827 118.06C206.63 118.06 207.362 118.2 208.025 118.48C208.688 118.76 209.248 119.166 209.705 119.698L208.529 120.804C207.82 120.039 206.947 119.656 205.911 119.656C205.239 119.656 204.637 119.805 204.105 120.104C203.573 120.393 203.158 120.799 202.859 121.322C202.56 121.845 202.411 122.437 202.411 123.1C202.411 123.763 202.56 124.355 202.859 124.878C203.158 125.401 203.573 125.811 204.105 126.11C204.637 126.399 205.239 126.544 205.911 126.544C206.947 126.544 207.82 126.157 208.529 125.382L209.705 126.502C209.248 127.034 208.683 127.44 208.011 127.72C207.348 128 206.616 128.14 205.813 128.14ZM220.157 118.2V128H218.337V123.8H213.269V128H211.449V118.2H213.269V122.246H218.337V118.2H220.157ZM225.821 128.14C225.065 128.14 224.332 128.033 223.623 127.818C222.923 127.603 222.367 127.319 221.957 126.964L222.587 125.55C222.988 125.867 223.478 126.129 224.057 126.334C224.645 126.53 225.233 126.628 225.821 126.628C226.549 126.628 227.09 126.511 227.445 126.278C227.809 126.045 227.991 125.737 227.991 125.354C227.991 125.074 227.888 124.845 227.683 124.668C227.487 124.481 227.235 124.337 226.927 124.234C226.619 124.131 226.199 124.015 225.667 123.884C224.92 123.707 224.313 123.529 223.847 123.352C223.389 123.175 222.993 122.899 222.657 122.526C222.33 122.143 222.167 121.63 222.167 120.986C222.167 120.445 222.311 119.955 222.601 119.516C222.899 119.068 223.343 118.713 223.931 118.452C224.528 118.191 225.256 118.06 226.115 118.06C226.712 118.06 227.3 118.135 227.879 118.284C228.457 118.433 228.957 118.648 229.377 118.928L228.803 120.342C228.373 120.09 227.925 119.899 227.459 119.768C226.992 119.637 226.539 119.572 226.101 119.572C225.382 119.572 224.845 119.693 224.491 119.936C224.145 120.179 223.973 120.501 223.973 120.902C223.973 121.182 224.071 121.411 224.267 121.588C224.472 121.765 224.729 121.905 225.037 122.008C225.345 122.111 225.765 122.227 226.297 122.358C227.025 122.526 227.622 122.703 228.089 122.89C228.555 123.067 228.952 123.343 229.279 123.716C229.615 124.089 229.783 124.593 229.783 125.228C229.783 125.769 229.633 126.259 229.335 126.698C229.045 127.137 228.602 127.487 228.005 127.748C227.407 128.009 226.679 128.14 225.821 128.14ZM231.587 118.2H233.407V128H231.587V118.2ZM242.414 125.732H237.514L236.548 128H234.672L239.082 118.2H240.874L245.298 128H243.394L242.414 125.732ZM241.812 124.304L239.964 120.02L238.13 124.304H241.812Z" fill="#333333"/>
<path d="M187.252 143.63L186.888 146.57H188.876V147.34H186.79L186.468 150H185.712L186.034 147.34H183.164L182.828 150H182.072L182.394 147.34H180.406V146.57H182.492L182.856 143.63H180.854V142.86H182.954L183.276 140.2H184.046L183.71 142.86H186.594L186.916 140.2H187.672L187.35 142.86H189.324V143.63H187.252ZM186.496 143.63H183.626L183.248 146.57H186.132L186.496 143.63ZM192.38 141.096V144.946H197.448V145.842H192.38V150H191.344V140.2H198.064V141.096H192.38ZM206.377 144.946C207.021 145.086 207.516 145.366 207.861 145.786C208.216 146.197 208.393 146.729 208.393 147.382C208.393 148.222 208.081 148.871 207.455 149.328C206.839 149.776 205.925 150 204.711 150H200.203V140.2H204.431C205.523 140.2 206.368 140.419 206.965 140.858C207.572 141.297 207.875 141.917 207.875 142.72C207.875 143.261 207.74 143.723 207.469 144.106C207.208 144.479 206.844 144.759 206.377 144.946ZM201.239 141.054V144.61H204.361C205.155 144.61 205.766 144.461 206.195 144.162C206.625 143.854 206.839 143.411 206.839 142.832C206.839 142.253 206.625 141.815 206.195 141.516C205.766 141.208 205.155 141.054 204.361 141.054H201.239ZM204.697 149.146C205.575 149.146 206.237 148.997 206.685 148.698C207.133 148.399 207.357 147.933 207.357 147.298C207.357 146.075 206.471 145.464 204.697 145.464H201.239V149.146H204.697ZM212.466 144.218C213.885 144.218 214.916 144.475 215.56 144.988C216.213 145.492 216.54 146.201 216.54 147.116C216.54 147.685 216.405 148.194 216.134 148.642C215.873 149.09 215.476 149.445 214.944 149.706C214.412 149.958 213.759 150.084 212.984 150.084C212.284 150.084 211.617 149.972 210.982 149.748C210.357 149.515 209.853 149.207 209.47 148.824L209.96 148.026C210.287 148.362 210.716 148.637 211.248 148.852C211.78 149.057 212.354 149.16 212.97 149.16C213.782 149.16 214.407 148.978 214.846 148.614C215.294 148.25 215.518 147.765 215.518 147.158C215.518 146.486 215.266 145.977 214.762 145.632C214.267 145.287 213.427 145.114 212.242 145.114H210.156L210.66 140.2H216.022V141.096H211.542L211.206 144.218H212.466ZM219.724 141.096V144.946H224.792V145.842H219.724V150H218.688V140.2H225.408V141.096H219.724ZM233.721 144.946C234.365 145.086 234.86 145.366 235.205 145.786C235.56 146.197 235.737 146.729 235.737 147.382C235.737 148.222 235.425 148.871 234.799 149.328C234.183 149.776 233.269 150 232.055 150H227.547V140.2H231.775C232.867 140.2 233.712 140.419 234.309 140.858C234.916 141.297 235.219 141.917 235.219 142.72C235.219 143.261 235.084 143.723 234.813 144.106C234.552 144.479 234.188 144.759 233.721 144.946ZM228.583 141.054V144.61H231.705C232.499 144.61 233.11 144.461 233.539 144.162C233.969 143.854 234.183 143.411 234.183 142.832C234.183 142.253 233.969 141.815 233.539 141.516C233.11 141.208 232.499 141.054 231.705 141.054H228.583ZM232.041 149.146C232.919 149.146 233.581 148.997 234.029 148.698C234.477 148.399 234.701 147.933 234.701 147.298C234.701 146.075 233.815 145.464 232.041 145.464H228.583V149.146H232.041ZM241.14 150.084C240.384 150.084 239.707 149.883 239.11 149.482C238.522 149.081 238.06 148.507 237.724 147.76C237.397 147.004 237.234 146.117 237.234 145.1C237.234 144.083 237.397 143.201 237.724 142.454C238.06 141.698 238.522 141.119 239.11 140.718C239.707 140.317 240.384 140.116 241.14 140.116C241.896 140.116 242.568 140.317 243.156 140.718C243.753 141.119 244.22 141.698 244.556 142.454C244.892 143.201 245.06 144.083 245.06 145.1C245.06 146.117 244.892 147.004 244.556 147.76C244.22 148.507 243.753 149.081 243.156 149.482C242.568 149.883 241.896 150.084 241.14 150.084ZM241.14 149.16C241.709 149.16 242.209 149.001 242.638 148.684C243.077 148.367 243.417 147.905 243.66 147.298C243.903 146.691 244.024 145.959 244.024 145.1C244.024 144.241 243.903 143.509 243.66 142.902C243.417 142.295 243.077 141.833 242.638 141.516C242.209 141.199 241.709 141.04 241.14 141.04C240.571 141.04 240.067 141.199 239.628 141.516C239.199 141.833 238.863 142.295 238.62 142.902C238.377 143.509 238.256 144.241 238.256 145.1C238.256 145.959 238.377 146.691 238.62 147.298C238.863 147.905 239.199 148.367 239.628 148.684C240.067 149.001 240.571 149.16 241.14 149.16Z" fill="#333333"/>
<rect width="164" height="97" transform="translate(164 194)" fill="#1A1B1D"/>
<path d="M188.008 219.988H189.73V223.894C189.226 224.295 188.638 224.603 187.966 224.818C187.294 225.033 186.603 225.14 185.894 225.14C184.895 225.14 183.995 224.925 183.192 224.496C182.389 224.057 181.759 223.455 181.302 222.69C180.845 221.925 180.616 221.061 180.616 220.1C180.616 219.139 180.845 218.275 181.302 217.51C181.759 216.745 182.389 216.147 183.192 215.718C184.004 215.279 184.914 215.06 185.922 215.06C186.743 215.06 187.49 215.195 188.162 215.466C188.834 215.737 189.399 216.133 189.856 216.656L188.708 217.776C187.961 217.029 187.061 216.656 186.006 216.656C185.315 216.656 184.699 216.801 184.158 217.09C183.626 217.379 183.206 217.785 182.898 218.308C182.599 218.831 182.45 219.428 182.45 220.1C182.45 220.753 182.599 221.341 182.898 221.864C183.206 222.387 183.626 222.797 184.158 223.096C184.699 223.395 185.311 223.544 185.992 223.544C186.757 223.544 187.429 223.376 188.008 223.04V219.988ZM198.542 225L196.54 222.13C196.456 222.139 196.33 222.144 196.162 222.144H193.95V225H192.13V215.2H196.162C197.012 215.2 197.749 215.34 198.374 215.62C199.009 215.9 199.494 216.301 199.83 216.824C200.166 217.347 200.334 217.967 200.334 218.686C200.334 219.423 200.152 220.058 199.788 220.59C199.434 221.122 198.92 221.519 198.248 221.78L200.502 225H198.542ZM198.5 218.686C198.5 218.061 198.295 217.58 197.884 217.244C197.474 216.908 196.872 216.74 196.078 216.74H193.95V220.646H196.078C196.872 220.646 197.474 220.478 197.884 220.142C198.295 219.797 198.5 219.311 198.5 218.686ZM208.727 222.732H203.827L202.861 225H200.985L205.395 215.2H207.187L211.611 225H209.707L208.727 222.732ZM208.125 221.304L206.277 217.02L204.443 221.304H208.125ZM216.889 215.2C217.738 215.2 218.476 215.34 219.101 215.62C219.736 215.9 220.221 216.301 220.557 216.824C220.893 217.347 221.061 217.967 221.061 218.686C221.061 219.395 220.893 220.016 220.557 220.548C220.221 221.071 219.736 221.472 219.101 221.752C218.476 222.032 217.738 222.172 216.889 222.172H214.677V225H212.857V215.2H216.889ZM216.805 220.632C217.598 220.632 218.2 220.464 218.611 220.128C219.022 219.792 219.227 219.311 219.227 218.686C219.227 218.061 219.022 217.58 218.611 217.244C218.2 216.908 217.598 216.74 216.805 216.74H214.677V220.632H216.805ZM231.587 215.2V225H229.767V220.8H224.699V225H222.879V215.2H224.699V219.246H229.767V215.2H231.587ZM234.212 215.2H236.032V225H234.212V215.2ZM240.671 216.74H237.423V215.2H245.739V216.74H242.491V225H240.671V216.74ZM254.455 223.474V225H247.105V215.2H254.259V216.726H248.925V219.274H253.657V220.772H248.925V223.474H254.455Z" fill="white"/>
<path d="M187.252 240.63L186.888 243.57H188.876V244.34H186.79L186.468 247H185.712L186.034 244.34H183.164L182.828 247H182.072L182.394 244.34H180.406V243.57H182.492L182.856 240.63H180.854V239.86H182.954L183.276 237.2H184.046L183.71 239.86H186.594L186.916 237.2H187.672L187.35 239.86H189.324V240.63H187.252ZM186.496 240.63H183.626L183.248 243.57H186.132L186.496 240.63ZM193.192 237.2V247H192.184V238.096H189.874V237.2H193.192ZM202.549 244.382H197.089L195.913 247H194.835L199.315 237.2H200.337L204.817 247H203.725L202.549 244.382ZM202.171 243.542L199.819 238.278L197.467 243.542H202.171ZM207.712 237.2V247H206.704V238.096H204.394V237.2H207.712ZM217.096 241.946C217.74 242.086 218.235 242.366 218.58 242.786C218.935 243.197 219.112 243.729 219.112 244.382C219.112 245.222 218.8 245.871 218.174 246.328C217.558 246.776 216.644 247 215.43 247H210.922V237.2H215.15C216.242 237.2 217.087 237.419 217.684 237.858C218.291 238.297 218.594 238.917 218.594 239.72C218.594 240.261 218.459 240.723 218.188 241.106C217.927 241.479 217.563 241.759 217.096 241.946ZM211.958 238.054V241.61H215.08C215.874 241.61 216.485 241.461 216.914 241.162C217.344 240.854 217.558 240.411 217.558 239.832C217.558 239.253 217.344 238.815 216.914 238.516C216.485 238.208 215.874 238.054 215.08 238.054H211.958ZM215.416 246.146C216.294 246.146 216.956 245.997 217.404 245.698C217.852 245.399 218.076 244.933 218.076 244.298C218.076 243.075 217.19 242.464 215.416 242.464H211.958V246.146H215.416ZM223.325 237.2V247H222.317V238.096H220.007V237.2H223.325ZM226.535 237.2H230.525C231.561 237.2 232.476 237.41 233.269 237.83C234.063 238.241 234.679 238.819 235.117 239.566C235.556 240.303 235.775 241.148 235.775 242.1C235.775 243.052 235.556 243.901 235.117 244.648C234.679 245.385 234.063 245.964 233.269 246.384C232.476 246.795 231.561 247 230.525 247H226.535V237.2ZM230.469 246.104C231.328 246.104 232.079 245.936 232.723 245.6C233.367 245.255 233.867 244.783 234.221 244.186C234.576 243.579 234.753 242.884 234.753 242.1C234.753 241.316 234.576 240.625 234.221 240.028C233.867 239.421 233.367 238.95 232.723 238.614C232.079 238.269 231.328 238.096 230.469 238.096H227.571V246.104H230.469Z" fill="white"/>
</svg>
