<svg width="328" height="485" viewBox="0 0 328 485" fill="none" xmlns="http://www.w3.org/2000/svg">
<rect width="164" height="97" fill="#F4F6F8"/>
<rect width="164" height="97" fill="#485FEB"/>
<path d="M26.024 21.2V31H24.526L19.122 24.364V31H17.316V21.2H18.814L24.218 27.836V21.2H26.024ZM35.006 28.732H30.106L29.14 31H27.264L31.674 21.2H33.466L37.89 31H35.986L35.006 28.732ZM34.404 27.304L32.556 23.02L30.722 27.304H34.404ZM47.5768 21.2L43.3068 31H41.5148L37.2308 21.2H39.2048L42.4668 28.76L45.7568 21.2H47.5768ZM52.7159 27.542V31H50.8959V27.57L47.0459 21.2H48.9919L51.8619 25.974L54.7599 21.2H56.5519L52.7159 27.542ZM68.5569 25.904C69.0982 26.0813 69.5275 26.38 69.8449 26.8C70.1622 27.2107 70.3209 27.724 70.3209 28.34C70.3209 29.1893 69.9942 29.8473 69.3409 30.314C68.6875 30.7713 67.7355 31 66.4849 31H61.6129V21.2H66.2049C67.3622 21.2 68.2535 21.4287 68.8789 21.886C69.5042 22.334 69.8169 22.9547 69.8169 23.748C69.8169 24.2333 69.7049 24.6627 69.4809 25.036C69.2569 25.4093 68.9489 25.6987 68.5569 25.904ZM63.4329 22.628V25.33H66.0089C66.6435 25.33 67.1289 25.218 67.4649 24.994C67.8102 24.7607 67.9829 24.4247 67.9829 23.986C67.9829 23.538 67.8102 23.202 67.4649 22.978C67.1289 22.7447 66.6435 22.628 66.0089 22.628H63.4329ZM66.3729 29.572C67.7822 29.572 68.4869 29.1007 68.4869 28.158C68.4869 27.2153 67.7822 26.744 66.3729 26.744H63.4329V29.572H66.3729ZM72.2633 21.2H74.0833V29.46H79.2073V31H72.2633V21.2ZM84.7214 31.14C83.3681 31.14 82.3134 30.762 81.5574 30.006C80.8014 29.2407 80.4234 28.1487 80.4234 26.73V21.2H82.2434V26.66C82.2434 28.5827 83.0741 29.544 84.7354 29.544C86.3874 29.544 87.2134 28.5827 87.2134 26.66V21.2H89.0054V26.73C89.0054 28.1487 88.6274 29.2407 87.8714 30.006C87.1247 30.762 86.0747 31.14 84.7214 31.14ZM98.9043 29.474V31H91.5543V21.2H98.7083V22.726H93.3743V25.274H98.1063V26.772H93.3743V29.474H98.9043Z" fill="white"/>
<path d="M23.252 46.63L22.888 49.57H24.876V50.34H22.79L22.468 53H21.712L22.034 50.34H19.164L18.828 53H18.072L18.394 50.34H16.406V49.57H18.492L18.856 46.63H16.854V45.86H18.954L19.276 43.2H20.046L19.71 45.86H22.594L22.916 43.2H23.672L23.35 45.86H25.324V46.63H23.252ZM22.496 46.63H19.626L19.248 49.57H22.132L22.496 46.63ZM34.806 50.424H32.846V53H31.838V50.424H26.308V49.696L31.502 43.2H32.622L27.61 49.528H31.866V47.26H32.846V49.528H34.806V50.424ZM41.4826 47.862C42.0986 48.0673 42.57 48.3753 42.8966 48.786C43.2326 49.1967 43.4006 49.6913 43.4006 50.27C43.4006 50.8393 43.2466 51.3387 42.9386 51.768C42.6306 52.188 42.1873 52.5147 41.6086 52.748C41.0393 52.972 40.3673 53.084 39.5926 53.084C38.4166 53.084 37.4926 52.832 36.8206 52.328C36.1486 51.824 35.8126 51.138 35.8126 50.27C35.8126 49.682 35.9713 49.1873 36.2886 48.786C36.6153 48.3753 37.0866 48.0673 37.7026 47.862C37.1986 47.666 36.816 47.386 36.5546 47.022C36.2933 46.6487 36.1626 46.21 36.1626 45.706C36.1626 44.9127 36.4706 44.2827 37.0866 43.816C37.712 43.3493 38.5473 43.116 39.5926 43.116C40.2833 43.116 40.8853 43.2233 41.3986 43.438C41.9213 43.6433 42.3273 43.942 42.6166 44.334C42.906 44.726 43.0506 45.1833 43.0506 45.706C43.0506 46.21 42.9153 46.6487 42.6446 47.022C42.374 47.386 41.9866 47.666 41.4826 47.862ZM37.1706 45.734C37.1706 46.2753 37.3853 46.7047 37.8146 47.022C38.244 47.3393 38.8366 47.498 39.5926 47.498C40.3486 47.498 40.9413 47.3393 41.3706 47.022C41.8093 46.7047 42.0286 46.28 42.0286 45.748C42.0286 45.1973 41.8046 44.7633 41.3566 44.446C40.918 44.1287 40.33 43.97 39.5926 43.97C38.846 43.97 38.2533 44.1287 37.8146 44.446C37.3853 44.7633 37.1706 45.1927 37.1706 45.734ZM39.5926 52.23C40.4606 52.23 41.1373 52.0527 41.6226 51.698C42.1173 51.3433 42.3646 50.8627 42.3646 50.256C42.3646 49.6493 42.1173 49.1733 41.6226 48.828C41.1373 48.4733 40.4606 48.296 39.5926 48.296C38.734 48.296 38.0573 48.4733 37.5626 48.828C37.0773 49.1733 36.8346 49.6493 36.8346 50.256C36.8346 50.872 37.0773 51.3573 37.5626 51.712C38.048 52.0573 38.7246 52.23 39.5926 52.23ZM47.3724 47.218C48.791 47.218 49.8224 47.4747 50.4664 47.988C51.1197 48.492 51.4464 49.2013 51.4464 50.116C51.4464 50.6853 51.311 51.194 51.0404 51.642C50.779 52.09 50.3824 52.4447 49.8504 52.706C49.3184 52.958 48.665 53.084 47.8904 53.084C47.1904 53.084 46.523 52.972 45.8884 52.748C45.263 52.5147 44.759 52.2067 44.3764 51.824L44.8664 51.026C45.193 51.362 45.6224 51.6373 46.1544 51.852C46.6864 52.0573 47.2604 52.16 47.8764 52.16C48.6884 52.16 49.3137 51.978 49.7524 51.614C50.2004 51.25 50.4244 50.7647 50.4244 50.158C50.4244 49.486 50.1724 48.9773 49.6684 48.632C49.1737 48.2867 48.3337 48.114 47.1484 48.114H45.0624L45.5664 43.2H50.9284V44.096H46.4484L46.1124 47.218H47.3724ZM54.63 44.096V47.946H59.698V48.842H54.63V53H53.594V43.2H60.314V44.096H54.63ZM69.3834 52.104V53H62.4534V43.2H69.1734V44.096H63.4894V47.582H68.5574V48.464H63.4894V52.104H69.3834ZM77.9927 47.946C78.6367 48.086 79.1313 48.366 79.4767 48.786C79.8313 49.1967 80.0087 49.7287 80.0087 50.382C80.0087 51.222 79.696 51.8707 79.0707 52.328C78.4547 52.776 77.54 53 76.3267 53H71.8187V43.2H76.0467C77.1387 43.2 77.9833 43.4193 78.5807 43.858C79.1873 44.2967 79.4907 44.9173 79.4907 45.72C79.4907 46.2613 79.3553 46.7233 79.0847 47.106C78.8233 47.4793 78.4593 47.7593 77.9927 47.946ZM72.8547 44.054V47.61H75.9767C76.77 47.61 77.3813 47.4607 77.8107 47.162C78.24 46.854 78.4547 46.4107 78.4547 45.832C78.4547 45.2533 78.24 44.8147 77.8107 44.516C77.3813 44.208 76.77 44.054 75.9767 44.054H72.8547ZM76.3127 52.146C77.19 52.146 77.8527 51.9967 78.3007 51.698C78.7487 51.3993 78.9727 50.9327 78.9727 50.298C78.9727 49.0753 78.086 48.464 76.3127 48.464H72.8547V52.146H76.3127Z" fill="white"/>
<rect width="164" height="97" transform="translate(0 97)" fill="#4733FF"/>
<rect width="164" height="97" transform="translate(0 97)" fill="#FFD86F"/>
<path d="M20.354 128.14C19.598 128.14 18.8653 128.033 18.156 127.818C17.456 127.603 16.9007 127.319 16.49 126.964L17.12 125.55C17.5213 125.867 18.0113 126.129 18.59 126.334C19.178 126.53 19.766 126.628 20.354 126.628C21.082 126.628 21.6233 126.511 21.978 126.278C22.342 126.045 22.524 125.737 22.524 125.354C22.524 125.074 22.4213 124.845 22.216 124.668C22.02 124.481 21.768 124.337 21.46 124.234C21.152 124.131 20.732 124.015 20.2 123.884C19.4533 123.707 18.8467 123.529 18.38 123.352C17.9227 123.175 17.526 122.899 17.19 122.526C16.8633 122.143 16.7 121.63 16.7 120.986C16.7 120.445 16.8447 119.955 17.134 119.516C17.4327 119.068 17.876 118.713 18.464 118.452C19.0613 118.191 19.7893 118.06 20.648 118.06C21.2453 118.06 21.8333 118.135 22.412 118.284C22.9907 118.433 23.49 118.648 23.91 118.928L23.336 120.342C22.9067 120.09 22.4587 119.899 21.992 119.768C21.5253 119.637 21.0727 119.572 20.634 119.572C19.9153 119.572 19.3787 119.693 19.024 119.936C18.6787 120.179 18.506 120.501 18.506 120.902C18.506 121.182 18.604 121.411 18.8 121.588C19.0053 121.765 19.262 121.905 19.57 122.008C19.878 122.111 20.298 122.227 20.83 122.358C21.558 122.526 22.1553 122.703 22.622 122.89C23.0887 123.067 23.4853 123.343 23.812 123.716C24.148 124.089 24.316 124.593 24.316 125.228C24.316 125.769 24.1667 126.259 23.868 126.698C23.5787 127.137 23.1353 127.487 22.538 127.748C21.9407 128.009 21.2127 128.14 20.354 128.14ZM34.8287 118.2V128H33.0087V123.8H27.9407V128H26.1207V118.2H27.9407V122.246H33.0087V118.2H34.8287ZM37.4547 118.2H39.2747V128H37.4547V118.2ZM50.6334 118.2V128H49.1354L43.7314 121.364V128H41.9254V118.2H43.4234L48.8274 124.836V118.2H50.6334ZM57.4874 124.542V128H55.6674V124.57L51.8174 118.2H53.7634L56.6334 122.974L59.5314 118.2H61.3234L57.4874 124.542ZM70.6124 124.542V128H68.7924V124.57L64.9424 118.2H66.8884L69.7584 122.974L72.6564 118.2H74.4484L70.6124 124.542ZM82.8535 126.474V128H75.5035V118.2H82.6575V119.726H77.3235V122.274H82.0555V123.772H77.3235V126.474H82.8535ZM84.8824 118.2H86.7024V126.46H91.8264V128H84.8824V118.2ZM93.2633 118.2H95.0833V126.46H100.207V128H93.2633V118.2ZM106.044 128.14C105.046 128.14 104.145 127.925 103.342 127.496C102.54 127.057 101.91 126.455 101.452 125.69C100.995 124.915 100.766 124.052 100.766 123.1C100.766 122.148 100.995 121.289 101.452 120.524C101.91 119.749 102.54 119.147 103.342 118.718C104.145 118.279 105.046 118.06 106.044 118.06C107.043 118.06 107.944 118.279 108.746 118.718C109.549 119.147 110.179 119.745 110.636 120.51C111.094 121.275 111.322 122.139 111.322 123.1C111.322 124.061 111.094 124.925 110.636 125.69C110.179 126.455 109.549 127.057 108.746 127.496C107.944 127.925 107.043 128.14 106.044 128.14ZM106.044 126.544C106.698 126.544 107.286 126.399 107.808 126.11C108.331 125.811 108.742 125.401 109.04 124.878C109.339 124.346 109.488 123.753 109.488 123.1C109.488 122.447 109.339 121.859 109.04 121.336C108.742 120.804 108.331 120.393 107.808 120.104C107.286 119.805 106.698 119.656 106.044 119.656C105.391 119.656 104.803 119.805 104.28 120.104C103.758 120.393 103.347 120.804 103.048 121.336C102.75 121.859 102.6 122.447 102.6 123.1C102.6 123.753 102.75 124.346 103.048 124.878C103.347 125.401 103.758 125.811 104.28 126.11C104.803 126.399 105.391 126.544 106.044 126.544ZM127.259 118.2L124.011 128H122.079L119.657 120.748L117.193 128H115.247L111.999 118.2H113.889L116.325 125.648L118.859 118.2H120.539L123.017 125.69L125.523 118.2H127.259Z" fill="white"/>
<path d="M23.252 143.63L22.888 146.57H24.876V147.34H22.79L22.468 150H21.712L22.034 147.34H19.164L18.828 150H18.072L18.394 147.34H16.406V146.57H18.492L18.856 143.63H16.854V142.86H18.954L19.276 140.2H20.046L19.71 142.86H22.594L22.916 140.2H23.672L23.35 142.86H25.324V143.63H23.252ZM22.496 143.63H19.626L19.248 146.57H22.132L22.496 143.63ZM28.38 141.096V144.946H33.448V145.842H28.38V150H27.344V140.2H34.064V141.096H28.38ZM37.2394 141.096V144.946H42.3074V145.842H37.2394V150H36.2034V140.2H42.9234V141.096H37.2394ZM45.0628 140.2H49.0528C50.0888 140.2 51.0035 140.41 51.7968 140.83C52.5901 141.241 53.2061 141.819 53.6448 142.566C54.0835 143.303 54.3028 144.148 54.3028 145.1C54.3028 146.052 54.0835 146.901 53.6448 147.648C53.2061 148.385 52.5901 148.964 51.7968 149.384C51.0035 149.795 50.0888 150 49.0528 150H45.0628V140.2ZM48.9968 149.104C49.8555 149.104 50.6068 148.936 51.2508 148.6C51.8948 148.255 52.3941 147.783 52.7488 147.186C53.1035 146.579 53.2808 145.884 53.2808 145.1C53.2808 144.316 53.1035 143.625 52.7488 143.028C52.3941 142.421 51.8948 141.95 51.2508 141.614C50.6068 141.269 49.8555 141.096 48.9968 141.096H46.0988V149.104H48.9968ZM61.3752 144.862C61.9912 145.067 62.4625 145.375 62.7892 145.786C63.1252 146.197 63.2932 146.691 63.2932 147.27C63.2932 147.839 63.1392 148.339 62.8312 148.768C62.5232 149.188 62.0799 149.515 61.5012 149.748C60.9319 149.972 60.2599 150.084 59.4852 150.084C58.3092 150.084 57.3852 149.832 56.7132 149.328C56.0412 148.824 55.7052 148.138 55.7052 147.27C55.7052 146.682 55.8639 146.187 56.1812 145.786C56.5079 145.375 56.9792 145.067 57.5952 144.862C57.0912 144.666 56.7085 144.386 56.4472 144.022C56.1859 143.649 56.0552 143.21 56.0552 142.706C56.0552 141.913 56.3632 141.283 56.9792 140.816C57.6045 140.349 58.4399 140.116 59.4852 140.116C60.1759 140.116 60.7779 140.223 61.2912 140.438C61.8139 140.643 62.2199 140.942 62.5092 141.334C62.7985 141.726 62.9432 142.183 62.9432 142.706C62.9432 143.21 62.8079 143.649 62.5372 144.022C62.2665 144.386 61.8792 144.666 61.3752 144.862ZM57.0632 142.734C57.0632 143.275 57.2779 143.705 57.7072 144.022C58.1365 144.339 58.7292 144.498 59.4852 144.498C60.2412 144.498 60.8339 144.339 61.2632 144.022C61.7019 143.705 61.9212 143.28 61.9212 142.748C61.9212 142.197 61.6972 141.763 61.2492 141.446C60.8105 141.129 60.2225 140.97 59.4852 140.97C58.7385 140.97 58.1459 141.129 57.7072 141.446C57.2779 141.763 57.0632 142.193 57.0632 142.734ZM59.4852 149.23C60.3532 149.23 61.0299 149.053 61.5152 148.698C62.0099 148.343 62.2572 147.863 62.2572 147.256C62.2572 146.649 62.0099 146.173 61.5152 145.828C61.0299 145.473 60.3532 145.296 59.4852 145.296C58.6265 145.296 57.9499 145.473 57.4552 145.828C56.9699 146.173 56.7272 146.649 56.7272 147.256C56.7272 147.872 56.9699 148.357 57.4552 148.712C57.9405 149.057 58.6172 149.23 59.4852 149.23ZM68.7489 144.134C69.3929 144.134 69.9623 144.255 70.4569 144.498C70.9609 144.741 71.3529 145.086 71.6329 145.534C71.9129 145.973 72.0529 146.486 72.0529 147.074C72.0529 147.671 71.9083 148.199 71.6189 148.656C71.3296 149.113 70.9283 149.468 70.4149 149.72C69.9109 149.963 69.3416 150.084 68.7069 150.084C67.4096 150.084 66.4156 149.659 65.7249 148.81C65.0343 147.951 64.6889 146.743 64.6889 145.184C64.6889 144.092 64.8756 143.168 65.2489 142.412C65.6223 141.656 66.1449 141.087 66.8169 140.704C67.4889 140.312 68.2729 140.116 69.1689 140.116C70.1396 140.116 70.9143 140.293 71.4929 140.648L71.0869 141.46C70.6203 141.152 69.9856 140.998 69.1829 140.998C68.1003 140.998 67.2509 141.343 66.6349 142.034C66.0189 142.715 65.7109 143.709 65.7109 145.016C65.7109 145.249 65.7249 145.515 65.7529 145.814C65.9956 145.282 66.3829 144.871 66.9149 144.582C67.4469 144.283 68.0583 144.134 68.7489 144.134ZM68.6649 149.23C69.3743 149.23 69.9483 149.039 70.3869 148.656C70.8349 148.264 71.0589 147.746 71.0589 147.102C71.0589 146.458 70.8349 145.945 70.3869 145.562C69.9483 145.179 69.3509 144.988 68.5949 144.988C68.1003 144.988 67.6616 145.081 67.2789 145.268C66.9056 145.455 66.6116 145.711 66.3969 146.038C66.1823 146.365 66.0749 146.729 66.0749 147.13C66.0749 147.503 66.1729 147.849 66.3689 148.166C66.5743 148.483 66.8729 148.74 67.2649 148.936C67.6569 149.132 68.1236 149.23 68.6649 149.23ZM75.1242 141.096V144.946H80.1922V145.842H75.1242V150H74.0882V140.2H80.8082V141.096H75.1242Z" fill="white"/>
<rect width="164" height="97" transform="translate(0 194)" fill="#9C7AFB"/>
<path d="M17.316 215.2H19.136V223.46H24.26V225H17.316V215.2ZM32.1212 222.732H27.2212L26.2552 225H24.3792L28.7892 215.2H30.5812L35.0052 225H33.1012L32.1212 222.732ZM31.5192 221.304L29.6712 217.02L27.8372 221.304H31.5192ZM44.692 215.2L40.422 225H38.63L34.346 215.2H36.32L39.582 222.76L42.872 215.2H44.692ZM53.0762 223.474V225H45.7262V215.2H52.8802V216.726H47.5462V219.274H52.2782V220.772H47.5462V223.474H53.0762ZM63.8131 215.2V225H62.3151L56.9111 218.364V225H55.1051V215.2H56.6031L62.0071 221.836V215.2H63.8131ZM66.439 215.2H70.723C71.7684 215.2 72.697 215.405 73.509 215.816C74.321 216.217 74.951 216.791 75.399 217.538C75.847 218.275 76.071 219.129 76.071 220.1C76.071 221.071 75.847 221.929 75.399 222.676C74.951 223.413 74.321 223.987 73.509 224.398C72.697 224.799 71.7684 225 70.723 225H66.439V215.2ZM70.639 223.46C71.3577 223.46 71.9877 223.325 72.529 223.054C73.0797 222.774 73.4997 222.382 73.789 221.878C74.0877 221.365 74.237 220.772 74.237 220.1C74.237 219.428 74.0877 218.84 73.789 218.336C73.4997 217.823 73.0797 217.431 72.529 217.16C71.9877 216.88 71.3577 216.74 70.639 216.74H68.259V223.46H70.639ZM85.3555 223.474V225H78.0055V215.2H85.1595V216.726H79.8255V219.274H84.5575V220.772H79.8255V223.474H85.3555ZM93.7964 225L91.7944 222.13C91.7104 222.139 91.5844 222.144 91.4164 222.144H89.2044V225H87.3844V215.2H91.4164C92.2657 215.2 93.003 215.34 93.6284 215.62C94.263 215.9 94.7484 216.301 95.0844 216.824C95.4204 217.347 95.5884 217.967 95.5884 218.686C95.5884 219.423 95.4064 220.058 95.0424 220.59C94.6877 221.122 94.1744 221.519 93.5024 221.78L95.7564 225H93.7964ZM93.7544 218.686C93.7544 218.061 93.549 217.58 93.1384 217.244C92.7277 216.908 92.1257 216.74 91.3324 216.74H89.2044V220.646H91.3324C92.1257 220.646 92.7277 220.478 93.1384 220.142C93.549 219.797 93.7544 219.311 93.7544 218.686Z" fill="white"/>
<path d="M23.252 240.63L22.888 243.57H24.876V244.34H22.79L22.468 247H21.712L22.034 244.34H19.164L18.828 247H18.072L18.394 244.34H16.406V243.57H18.492L18.856 240.63H16.854V239.86H18.954L19.276 237.2H20.046L19.71 239.86H22.594L22.916 237.2H23.672L23.35 239.86H25.324V240.63H23.252ZM22.496 240.63H19.626L19.248 243.57H22.132L22.496 240.63ZM29.528 237.116C30.8254 237.116 31.8194 237.545 32.51 238.404C33.2007 239.253 33.546 240.457 33.546 242.016C33.546 243.108 33.3594 244.032 32.986 244.788C32.6127 245.544 32.09 246.118 31.418 246.51C30.746 246.893 29.962 247.084 29.066 247.084C28.0954 247.084 27.3207 246.907 26.742 246.552L27.148 245.74C27.6147 246.048 28.2494 246.202 29.052 246.202C30.1347 246.202 30.984 245.861 31.6 245.18C32.216 244.489 32.524 243.491 32.524 242.184C32.524 241.941 32.51 241.675 32.482 241.386C32.2394 241.918 31.852 242.333 31.32 242.632C30.788 242.921 30.1767 243.066 29.486 243.066C28.842 243.066 28.268 242.945 27.764 242.702C27.2694 242.459 26.882 242.119 26.602 241.68C26.322 241.232 26.182 240.714 26.182 240.126C26.182 239.529 26.3267 239.001 26.616 238.544C26.9054 238.087 27.302 237.737 27.806 237.494C28.3194 237.242 28.8934 237.116 29.528 237.116ZM29.64 242.212C30.1347 242.212 30.5687 242.119 30.942 241.932C31.3247 241.745 31.6234 241.489 31.838 241.162C32.0527 240.835 32.16 240.471 32.16 240.07C32.16 239.697 32.0574 239.351 31.852 239.034C31.656 238.717 31.362 238.46 30.97 238.264C30.578 238.068 30.1114 237.97 29.57 237.97C28.8607 237.97 28.282 238.166 27.834 238.558C27.3954 238.941 27.176 239.454 27.176 240.098C27.176 240.742 27.3954 241.255 27.834 241.638C28.282 242.021 28.884 242.212 29.64 242.212ZM40.1313 247.084C39.1606 247.084 38.2833 246.869 37.4993 246.44C36.7246 246.011 36.1133 245.418 35.6653 244.662C35.2266 243.897 35.0073 243.043 35.0073 242.1C35.0073 241.157 35.2266 240.308 35.6653 239.552C36.1133 238.787 36.7293 238.189 37.5133 237.76C38.2973 237.331 39.1746 237.116 40.1453 237.116C40.8733 237.116 41.5453 237.237 42.1613 237.48C42.7773 237.723 43.3 238.077 43.7293 238.544L43.0713 239.202C42.306 238.427 41.34 238.04 40.1733 238.04C39.3986 238.04 38.694 238.217 38.0593 238.572C37.4246 238.927 36.9253 239.412 36.5613 240.028C36.2066 240.644 36.0293 241.335 36.0293 242.1C36.0293 242.865 36.2066 243.556 36.5613 244.172C36.9253 244.788 37.4246 245.273 38.0593 245.628C38.694 245.983 39.3986 246.16 40.1733 246.16C41.3493 246.16 42.3153 245.768 43.0713 244.984L43.7293 245.642C43.3 246.109 42.7726 246.468 42.1473 246.72C41.5313 246.963 40.8593 247.084 40.1313 247.084ZM51.9858 237.2V237.914L47.8838 247H46.7918L50.8238 238.096H45.7838V239.93H44.7898V237.2H51.9858ZM59.3983 244.382H53.9383L52.7623 247H51.6843L56.1643 237.2H57.1863L61.6663 247H60.5743L59.3983 244.382ZM59.0203 243.542L56.6683 238.278L54.3163 243.542H59.0203ZM64.3234 238.096V241.946H69.3914V242.842H64.3234V247H63.2874V237.2H70.0074V238.096H64.3234ZM78.3208 241.946C78.9648 242.086 79.4594 242.366 79.8048 242.786C80.1594 243.197 80.3368 243.729 80.3368 244.382C80.3368 245.222 80.0241 245.871 79.3988 246.328C78.7828 246.776 77.8681 247 76.6548 247H72.1468V237.2H76.3748C77.4668 237.2 78.3114 237.419 78.9088 237.858C79.5154 238.297 79.8188 238.917 79.8188 239.72C79.8188 240.261 79.6834 240.723 79.4128 241.106C79.1514 241.479 78.7874 241.759 78.3208 241.946ZM73.1828 238.054V241.61H76.3048C77.0981 241.61 77.7094 241.461 78.1388 241.162C78.5681 240.854 78.7828 240.411 78.7828 239.832C78.7828 239.253 78.5681 238.815 78.1388 238.516C77.7094 238.208 77.0981 238.054 76.3048 238.054H73.1828ZM76.6408 246.146C77.5181 246.146 78.1808 245.997 78.6288 245.698C79.0768 245.399 79.3008 244.933 79.3008 244.298C79.3008 243.075 78.4141 242.464 76.6408 242.464H73.1828V246.146H76.6408Z" fill="white"/>
<rect width="164" height="97" transform="translate(0 291)" fill="#EB383A"/>
<path d="M23.728 322L21.726 319.13C21.642 319.139 21.516 319.144 21.348 319.144H19.136V322H17.316V312.2H21.348C22.1973 312.2 22.9347 312.34 23.56 312.62C24.1947 312.9 24.68 313.301 25.016 313.824C25.352 314.347 25.52 314.967 25.52 315.686C25.52 316.423 25.338 317.058 24.974 317.59C24.6193 318.122 24.106 318.519 23.434 318.78L25.688 322H23.728ZM23.686 315.686C23.686 315.061 23.4807 314.58 23.07 314.244C22.6593 313.908 22.0573 313.74 21.264 313.74H19.136V317.646H21.264C22.0573 317.646 22.6593 317.478 23.07 317.142C23.4807 316.797 23.686 316.311 23.686 315.686ZM34.9062 320.474V322H27.5562V312.2H34.7102V313.726H29.3762V316.274H34.1082V317.772H29.3762V320.474H34.9062ZM36.9351 312.2H41.2191C42.2645 312.2 43.1931 312.405 44.0051 312.816C44.8171 313.217 45.4471 313.791 45.8951 314.538C46.3431 315.275 46.5671 316.129 46.5671 317.1C46.5671 318.071 46.3431 318.929 45.8951 319.676C45.4471 320.413 44.8171 320.987 44.0051 321.398C43.1931 321.799 42.2645 322 41.2191 322H36.9351V312.2ZM41.1351 320.46C41.8538 320.46 42.4838 320.325 43.0251 320.054C43.5758 319.774 43.9958 319.382 44.2851 318.878C44.5838 318.365 44.7331 317.772 44.7331 317.1C44.7331 316.428 44.5838 315.84 44.2851 315.336C43.9958 314.823 43.5758 314.431 43.0251 314.16C42.4838 313.88 41.8538 313.74 41.1351 313.74H38.7551V320.46H41.1351Z" fill="white"/>
<path d="M23.252 337.63L22.888 340.57H24.876V341.34H22.79L22.468 344H21.712L22.034 341.34H19.164L18.828 344H18.072L18.394 341.34H16.406V340.57H18.492L18.856 337.63H16.854V336.86H18.954L19.276 334.2H20.046L19.71 336.86H22.594L22.916 334.2H23.672L23.35 336.86H25.324V337.63H23.252ZM22.496 337.63H19.626L19.248 340.57H22.132L22.496 337.63ZM34.274 343.104V344H27.344V334.2H34.064V335.096H28.38V338.582H33.448V339.464H28.38V343.104H34.274ZM42.8833 338.946C43.5273 339.086 44.0219 339.366 44.3673 339.786C44.7219 340.197 44.8993 340.729 44.8993 341.382C44.8993 342.222 44.5866 342.871 43.9613 343.328C43.3453 343.776 42.4306 344 41.2173 344H36.7093V334.2H40.9373C42.0293 334.2 42.8739 334.419 43.4713 334.858C44.0779 335.297 44.3813 335.917 44.3813 336.72C44.3813 337.261 44.2459 337.723 43.9753 338.106C43.7139 338.479 43.3499 338.759 42.8833 338.946ZM37.7453 335.054V338.61H40.8673C41.6606 338.61 42.2719 338.461 42.7013 338.162C43.1306 337.854 43.3453 337.411 43.3453 336.832C43.3453 336.253 43.1306 335.815 42.7013 335.516C42.2719 335.208 41.6606 335.054 40.8673 335.054H37.7453ZM41.2033 343.146C42.0806 343.146 42.7433 342.997 43.1913 342.698C43.6393 342.399 43.8633 341.933 43.8633 341.298C43.8633 340.075 42.9766 339.464 41.2033 339.464H37.7453V343.146H41.2033ZM49.728 338.4C50.7546 338.456 51.534 338.736 52.066 339.24C52.6073 339.735 52.878 340.383 52.878 341.186C52.878 341.746 52.7426 342.245 52.472 342.684C52.2013 343.113 51.8 343.454 51.268 343.706C50.736 343.958 50.0873 344.084 49.322 344.084C48.6126 344.084 47.9406 343.972 47.306 343.748C46.6806 343.515 46.1766 343.207 45.794 342.824L46.284 342.026C46.6106 342.362 47.0446 342.637 47.586 342.852C48.1273 343.057 48.706 343.16 49.322 343.16C50.1246 343.16 50.7453 342.987 51.184 342.642C51.6226 342.287 51.842 341.802 51.842 341.186C51.842 340.579 51.6226 340.103 51.184 339.758C50.7453 339.413 50.0826 339.24 49.196 339.24H48.496V338.498L51.212 335.096H46.2V334.2H52.5V334.914L49.728 338.4ZM59.9123 338.862C60.5283 339.067 60.9996 339.375 61.3263 339.786C61.6623 340.197 61.8303 340.691 61.8303 341.27C61.8303 341.839 61.6763 342.339 61.3683 342.768C61.0603 343.188 60.617 343.515 60.0383 343.748C59.469 343.972 58.797 344.084 58.0223 344.084C56.8463 344.084 55.9223 343.832 55.2503 343.328C54.5783 342.824 54.2423 342.138 54.2423 341.27C54.2423 340.682 54.401 340.187 54.7183 339.786C55.045 339.375 55.5163 339.067 56.1323 338.862C55.6283 338.666 55.2456 338.386 54.9843 338.022C54.723 337.649 54.5923 337.21 54.5923 336.706C54.5923 335.913 54.9003 335.283 55.5163 334.816C56.1416 334.349 56.977 334.116 58.0223 334.116C58.713 334.116 59.315 334.223 59.8283 334.438C60.351 334.643 60.757 334.942 61.0463 335.334C61.3356 335.726 61.4803 336.183 61.4803 336.706C61.4803 337.21 61.345 337.649 61.0743 338.022C60.8036 338.386 60.4163 338.666 59.9123 338.862ZM55.6003 336.734C55.6003 337.275 55.815 337.705 56.2443 338.022C56.6736 338.339 57.2663 338.498 58.0223 338.498C58.7783 338.498 59.371 338.339 59.8003 338.022C60.239 337.705 60.4583 337.28 60.4583 336.748C60.4583 336.197 60.2343 335.763 59.7863 335.446C59.3476 335.129 58.7596 334.97 58.0223 334.97C57.2756 334.97 56.683 335.129 56.2443 335.446C55.815 335.763 55.6003 336.193 55.6003 336.734ZM58.0223 343.23C58.8903 343.23 59.567 343.053 60.0523 342.698C60.547 342.343 60.7943 341.863 60.7943 341.256C60.7943 340.649 60.547 340.173 60.0523 339.828C59.567 339.473 58.8903 339.296 58.0223 339.296C57.1636 339.296 56.487 339.473 55.9923 339.828C55.507 340.173 55.2643 340.649 55.2643 341.256C55.2643 341.872 55.507 342.357 55.9923 342.712C56.4776 343.057 57.1543 343.23 58.0223 343.23ZM66.558 338.4C67.5847 338.456 68.364 338.736 68.896 339.24C69.4374 339.735 69.708 340.383 69.708 341.186C69.708 341.746 69.5727 342.245 69.302 342.684C69.0314 343.113 68.63 343.454 68.098 343.706C67.566 343.958 66.9174 344.084 66.152 344.084C65.4427 344.084 64.7707 343.972 64.136 343.748C63.5107 343.515 63.0067 343.207 62.624 342.824L63.114 342.026C63.4407 342.362 63.8747 342.637 64.416 342.852C64.9574 343.057 65.536 343.16 66.152 343.16C66.9547 343.16 67.5754 342.987 68.014 342.642C68.4527 342.287 68.672 341.802 68.672 341.186C68.672 340.579 68.4527 340.103 68.014 339.758C67.5754 339.413 66.9127 339.24 66.026 339.24H65.326V338.498L68.042 335.096H63.03V334.2H69.33V334.914L66.558 338.4ZM78.1971 341.382H72.7371L71.5611 344H70.4831L74.9631 334.2H75.9851L80.4651 344H79.3731L78.1971 341.382ZM77.8191 340.542L75.4671 335.278L73.1151 340.542H77.8191Z" fill="white"/>
<rect width="164" height="97" transform="translate(0 388)" fill="#F9CE35"/>
<rect width="164" height="97" transform="translate(0 388)" fill="#80EFC7"/>
<path d="M26.318 419L26.304 412.504L23.084 417.88H22.272L19.052 412.588V419H17.316V409.2H18.814L22.706 415.696L26.528 409.2H28.026L28.04 419H26.318ZM30.6871 409.2H32.5071V419H30.6871V409.2ZM43.8658 409.2V419H42.3678L36.9638 412.364V419H35.1578V409.2H36.6558L42.0598 415.836V409.2H43.8658ZM48.4798 410.74H45.2318V409.2H53.5478V410.74H50.2998V419H48.4798V410.74ZM65.4748 413.988H67.1968V417.894C66.6928 418.295 66.1048 418.603 65.4328 418.818C64.7608 419.033 64.0701 419.14 63.3608 419.14C62.3621 419.14 61.4615 418.925 60.6588 418.496C59.8561 418.057 59.2261 417.455 58.7688 416.69C58.3115 415.925 58.0828 415.061 58.0828 414.1C58.0828 413.139 58.3115 412.275 58.7688 411.51C59.2261 410.745 59.8561 410.147 60.6588 409.718C61.4708 409.279 62.3808 409.06 63.3888 409.06C64.2101 409.06 64.9568 409.195 65.6288 409.466C66.3008 409.737 66.8655 410.133 67.3228 410.656L66.1748 411.776C65.4281 411.029 64.5275 410.656 63.4728 410.656C62.7821 410.656 62.1661 410.801 61.6248 411.09C61.0928 411.379 60.6728 411.785 60.3648 412.308C60.0661 412.831 59.9168 413.428 59.9168 414.1C59.9168 414.753 60.0661 415.341 60.3648 415.864C60.6728 416.387 61.0928 416.797 61.6248 417.096C62.1661 417.395 62.7775 417.544 63.4588 417.544C64.2241 417.544 64.8961 417.376 65.4748 417.04V413.988ZM76.0093 419L74.0073 416.13C73.9233 416.139 73.7973 416.144 73.6293 416.144H71.4173V419H69.5973V409.2H73.6293C74.4786 409.2 75.2159 409.34 75.8413 409.62C76.4759 409.9 76.9613 410.301 77.2973 410.824C77.6333 411.347 77.8013 411.967 77.8013 412.686C77.8013 413.423 77.6193 414.058 77.2553 414.59C76.9006 415.122 76.3873 415.519 75.7153 415.78L77.9693 419H76.0093ZM75.9673 412.686C75.9673 412.061 75.7619 411.58 75.3512 411.244C74.9406 410.908 74.3386 410.74 73.5453 410.74H71.4173V414.646H73.5453C74.3386 414.646 74.9406 414.478 75.3512 414.142C75.7619 413.797 75.9673 413.311 75.9673 412.686ZM87.1875 417.474V419H79.8375V409.2H86.9915V410.726H81.6575V413.274H86.3895V414.772H81.6575V417.474H87.1875ZM96.5664 417.474V419H89.2164V409.2H96.3704V410.726H91.0364V413.274H95.7684V414.772H91.0364V417.474H96.5664ZM107.303 409.2V419H105.805L100.401 412.364V419H98.5953V409.2H100.093L105.497 415.836V409.2H107.303Z" fill="#333333"/>
<path d="M23.252 434.63L22.888 437.57H24.876V438.34H22.79L22.468 441H21.712L22.034 438.34H19.164L18.828 441H18.072L18.394 438.34H16.406V437.57H18.492L18.856 434.63H16.854V433.86H18.954L19.276 431.2H20.046L19.71 433.86H22.594L22.916 431.2H23.672L23.35 433.86H25.324V434.63H23.252ZM22.496 434.63H19.626L19.248 437.57H22.132L22.496 434.63ZM32.09 435.862C32.706 436.067 33.1774 436.375 33.504 436.786C33.84 437.197 34.008 437.691 34.008 438.27C34.008 438.839 33.854 439.339 33.546 439.768C33.238 440.188 32.7947 440.515 32.216 440.748C31.6467 440.972 30.9747 441.084 30.2 441.084C29.024 441.084 28.1 440.832 27.428 440.328C26.756 439.824 26.42 439.138 26.42 438.27C26.42 437.682 26.5787 437.187 26.896 436.786C27.2227 436.375 27.694 436.067 28.31 435.862C27.806 435.666 27.4234 435.386 27.162 435.022C26.9007 434.649 26.77 434.21 26.77 433.706C26.77 432.913 27.078 432.283 27.694 431.816C28.3194 431.349 29.1547 431.116 30.2 431.116C30.8907 431.116 31.4927 431.223 32.006 431.438C32.5287 431.643 32.9347 431.942 33.224 432.334C33.5134 432.726 33.658 433.183 33.658 433.706C33.658 434.21 33.5227 434.649 33.252 435.022C32.9814 435.386 32.594 435.666 32.09 435.862ZM27.778 433.734C27.778 434.275 27.9927 434.705 28.422 435.022C28.8514 435.339 29.444 435.498 30.2 435.498C30.956 435.498 31.5487 435.339 31.978 435.022C32.4167 434.705 32.636 434.28 32.636 433.748C32.636 433.197 32.412 432.763 31.964 432.446C31.5254 432.129 30.9374 431.97 30.2 431.97C29.4534 431.97 28.8607 432.129 28.422 432.446C27.9927 432.763 27.778 433.193 27.778 433.734ZM30.2 440.23C31.068 440.23 31.7447 440.053 32.23 439.698C32.7247 439.343 32.972 438.863 32.972 438.256C32.972 437.649 32.7247 437.173 32.23 436.828C31.7447 436.473 31.068 436.296 30.2 436.296C29.3414 436.296 28.6647 436.473 28.17 436.828C27.6847 437.173 27.442 437.649 27.442 438.256C27.442 438.872 27.6847 439.357 28.17 439.712C28.6554 440.057 29.332 440.23 30.2 440.23ZM39.3098 441.084C38.5538 441.084 37.8771 440.883 37.2798 440.482C36.6918 440.081 36.2298 439.507 35.8938 438.76C35.5671 438.004 35.4038 437.117 35.4038 436.1C35.4038 435.083 35.5671 434.201 35.8938 433.454C36.2298 432.698 36.6918 432.119 37.2798 431.718C37.8771 431.317 38.5538 431.116 39.3098 431.116C40.0658 431.116 40.7378 431.317 41.3258 431.718C41.9231 432.119 42.3898 432.698 42.7258 433.454C43.0618 434.201 43.2298 435.083 43.2298 436.1C43.2298 437.117 43.0618 438.004 42.7258 438.76C42.3898 439.507 41.9231 440.081 41.3258 440.482C40.7378 440.883 40.0658 441.084 39.3098 441.084ZM39.3098 440.16C39.8791 440.16 40.3784 440.001 40.8078 439.684C41.2464 439.367 41.5871 438.905 41.8298 438.298C42.0724 437.691 42.1938 436.959 42.1938 436.1C42.1938 435.241 42.0724 434.509 41.8298 433.902C41.5871 433.295 41.2464 432.833 40.8078 432.516C40.3784 432.199 39.8791 432.04 39.3098 432.04C38.7404 432.04 38.2364 432.199 37.7978 432.516C37.3684 432.833 37.0324 433.295 36.7898 433.902C36.5471 434.509 36.4258 435.241 36.4258 436.1C36.4258 436.959 36.5471 437.691 36.7898 438.298C37.0324 438.905 37.3684 439.367 37.7978 439.684C38.2364 440.001 38.7404 440.16 39.3098 440.16ZM52.4713 440.104V441H45.5413V431.2H52.2613V432.096H46.5773V435.582H51.6453V436.464H46.5773V440.104H52.4713ZM55.9425 432.096V435.946H61.0105V436.842H55.9425V441H54.9065V431.2H61.6265V432.096H55.9425ZM67.8989 441.084C66.9282 441.084 66.0509 440.869 65.2669 440.44C64.4922 440.011 63.8809 439.418 63.4329 438.662C62.9942 437.897 62.7749 437.043 62.7749 436.1C62.7749 435.157 62.9942 434.308 63.4329 433.552C63.8809 432.787 64.4969 432.189 65.2809 431.76C66.0649 431.331 66.9422 431.116 67.9129 431.116C68.6409 431.116 69.3129 431.237 69.9289 431.48C70.5449 431.723 71.0675 432.077 71.4969 432.544L70.8389 433.202C70.0735 432.427 69.1075 432.04 67.9409 432.04C67.1662 432.04 66.4615 432.217 65.8269 432.572C65.1922 432.927 64.6929 433.412 64.3289 434.028C63.9742 434.644 63.7969 435.335 63.7969 436.1C63.7969 436.865 63.9742 437.556 64.3289 438.172C64.6929 438.788 65.1922 439.273 65.8269 439.628C66.4615 439.983 67.1662 440.16 67.9409 440.16C69.1169 440.16 70.0829 439.768 70.8389 438.984L71.4969 439.642C71.0675 440.109 70.5402 440.468 69.9149 440.72C69.2989 440.963 68.6269 441.084 67.8989 441.084ZM79.7534 431.2V431.914L75.6514 441H74.5594L78.5914 432.096H73.5514V433.93H72.5574V431.2H79.7534Z" fill="#333333"/>
<rect width="164" height="97" transform="translate(164)" fill="#00DBC8"/>
<rect width="164" height="97" transform="translate(164)" fill="#FFA553"/>
<path d="M183.304 22.74H180.056V21.2H188.372V22.74H185.124V31H183.304V22.74ZM195.602 28.732H190.702L189.736 31H187.86L192.27 21.2H194.062L198.486 31H196.582L195.602 28.732ZM195 27.304L193.152 23.02L191.318 27.304H195ZM208.44 21.2V31H206.942L201.538 24.364V31H199.732V21.2H201.23L206.634 27.836V21.2H208.44ZM217.758 25.988H219.48V29.894C218.976 30.2953 218.388 30.6033 217.716 30.818C217.044 31.0327 216.353 31.14 215.644 31.14C214.645 31.14 213.745 30.9253 212.942 30.496C212.139 30.0573 211.509 29.4553 211.052 28.69C210.595 27.9247 210.366 27.0613 210.366 26.1C210.366 25.1387 210.595 24.2753 211.052 23.51C211.509 22.7447 212.139 22.1473 212.942 21.718C213.754 21.2793 214.664 21.06 215.672 21.06C216.493 21.06 217.24 21.1953 217.912 21.466C218.584 21.7367 219.149 22.1333 219.606 22.656L218.458 23.776C217.711 23.0293 216.811 22.656 215.756 22.656C215.065 22.656 214.449 22.8007 213.908 23.09C213.376 23.3793 212.956 23.7853 212.648 24.308C212.349 24.8307 212.2 25.428 212.2 26.1C212.2 26.7533 212.349 27.3413 212.648 27.864C212.956 28.3867 213.376 28.7973 213.908 29.096C214.449 29.3947 215.061 29.544 215.742 29.544C216.507 29.544 217.179 29.376 217.758 29.04V25.988ZM229.23 29.474V31H221.88V21.2H229.034V22.726H223.7V25.274H228.432V26.772H223.7V29.474H229.23ZM237.671 31L235.669 28.13C235.585 28.1393 235.459 28.144 235.291 28.144H233.079V31H231.259V21.2H235.291C236.141 21.2 236.878 21.34 237.503 21.62C238.138 21.9 238.623 22.3013 238.959 22.824C239.295 23.3467 239.463 23.9673 239.463 24.686C239.463 25.4233 239.281 26.058 238.917 26.59C238.563 27.122 238.049 27.5187 237.377 27.78L239.631 31H237.671ZM237.629 24.686C237.629 24.0607 237.424 23.58 237.013 23.244C236.603 22.908 236.001 22.74 235.207 22.74H233.079V26.646H235.207C236.001 26.646 236.603 26.478 237.013 26.142C237.424 25.7967 237.629 25.3113 237.629 24.686ZM241.5 21.2H243.32V31H241.5V21.2ZM254.678 21.2V31H253.18L247.776 24.364V31H245.97V21.2H247.468L252.872 27.836V21.2H254.678ZM264.654 29.474V31H257.304V21.2H264.458V22.726H259.124V25.274H263.856V26.772H259.124V29.474H264.654ZM185.894 51.14C184.895 51.14 183.995 50.9253 183.192 50.496C182.389 50.0573 181.759 49.4553 181.302 48.69C180.845 47.9153 180.616 47.052 180.616 46.1C180.616 45.148 180.845 44.2893 181.302 43.524C181.759 42.7493 182.389 42.1473 183.192 41.718C183.995 41.2793 184.895 41.06 185.894 41.06C186.893 41.06 187.793 41.2793 188.596 41.718C189.399 42.1473 190.029 42.7447 190.486 43.51C190.943 44.2753 191.172 45.1387 191.172 46.1C191.172 47.0613 190.943 47.9247 190.486 48.69C190.029 49.4553 189.399 50.0573 188.596 50.496C187.793 50.9253 186.893 51.14 185.894 51.14ZM185.894 49.544C186.547 49.544 187.135 49.3993 187.658 49.11C188.181 48.8113 188.591 48.4007 188.89 47.878C189.189 47.346 189.338 46.7533 189.338 46.1C189.338 45.4467 189.189 44.8587 188.89 44.336C188.591 43.804 188.181 43.3933 187.658 43.104C187.135 42.8053 186.547 42.656 185.894 42.656C185.241 42.656 184.653 42.8053 184.13 43.104C183.607 43.3933 183.197 43.804 182.898 44.336C182.599 44.8587 182.45 45.4467 182.45 46.1C182.45 46.7533 182.599 47.346 182.898 47.878C183.197 48.4007 183.607 48.8113 184.13 49.11C184.653 49.3993 185.241 49.544 185.894 49.544ZM199.513 51L197.511 48.13C197.427 48.1393 197.301 48.144 197.133 48.144H194.921V51H193.101V41.2H197.133C197.982 41.2 198.72 41.34 199.345 41.62C199.98 41.9 200.465 42.3013 200.801 42.824C201.137 43.3467 201.305 43.9673 201.305 44.686C201.305 45.4233 201.123 46.058 200.759 46.59C200.404 47.122 199.891 47.5187 199.219 47.78L201.473 51H199.513ZM199.471 44.686C199.471 44.0607 199.266 43.58 198.855 43.244C198.444 42.908 197.842 42.74 197.049 42.74H194.921V46.646H197.049C197.842 46.646 198.444 46.478 198.855 46.142C199.266 45.7967 199.471 45.3113 199.471 44.686ZM209.697 48.732H204.797L203.831 51H201.955L206.365 41.2H208.157L212.581 51H210.677L209.697 48.732ZM209.095 47.304L207.247 43.02L205.413 47.304H209.095ZM222.536 41.2V51H221.038L215.634 44.364V51H213.828V41.2H215.326L220.73 47.836V41.2H222.536ZM231.854 45.988H233.576V49.894C233.072 50.2953 232.484 50.6033 231.812 50.818C231.14 51.0327 230.449 51.14 229.74 51.14C228.741 51.14 227.84 50.9253 227.038 50.496C226.235 50.0573 225.605 49.4553 225.148 48.69C224.69 47.9247 224.462 47.0613 224.462 46.1C224.462 45.1387 224.69 44.2753 225.148 43.51C225.605 42.7447 226.235 42.1473 227.038 41.718C227.85 41.2793 228.76 41.06 229.768 41.06C230.589 41.06 231.336 41.1953 232.008 41.466C232.68 41.7367 233.244 42.1333 233.702 42.656L232.554 43.776C231.807 43.0293 230.906 42.656 229.852 42.656C229.161 42.656 228.545 42.8007 228.004 43.09C227.472 43.3793 227.052 43.7853 226.744 44.308C226.445 44.8307 226.296 45.428 226.296 46.1C226.296 46.7533 226.445 47.3413 226.744 47.864C227.052 48.3867 227.472 48.7973 228.004 49.096C228.545 49.3947 229.156 49.544 229.838 49.544C230.603 49.544 231.275 49.376 231.854 49.04V45.988ZM243.326 49.474V51H235.976V41.2H243.13V42.726H237.796V45.274H242.528V46.772H237.796V49.474H243.326Z" fill="white"/>
<path d="M187.252 66.63L186.888 69.57H188.876V70.34H186.79L186.468 73H185.712L186.034 70.34H183.164L182.828 73H182.072L182.394 70.34H180.406V69.57H182.492L182.856 66.63H180.854V65.86H182.954L183.276 63.2H184.046L183.71 65.86H186.594L186.916 63.2H187.672L187.35 65.86H189.324V66.63H187.252ZM186.496 66.63H183.626L183.248 69.57H186.132L186.496 66.63ZM192.38 64.096V67.946H197.448V68.842H192.38V73H191.344V63.2H198.064V64.096H192.38ZM201.239 64.096V67.946H206.307V68.842H201.239V73H200.203V63.2H206.923V64.096H201.239ZM214.744 70.382H209.284L208.108 73H207.03L211.51 63.2H212.532L217.012 73H215.92L214.744 70.382ZM214.366 69.542L212.014 64.278L209.662 69.542H214.366ZM220.341 67.218C221.76 67.218 222.791 67.4747 223.435 67.988C224.088 68.492 224.415 69.2013 224.415 70.116C224.415 70.6853 224.28 71.194 224.009 71.642C223.748 72.09 223.351 72.4447 222.819 72.706C222.287 72.958 221.634 73.084 220.859 73.084C220.159 73.084 219.492 72.972 218.857 72.748C218.232 72.5147 217.728 72.2067 217.345 71.824L217.835 71.026C218.162 71.362 218.591 71.6373 219.123 71.852C219.655 72.0573 220.229 72.16 220.845 72.16C221.657 72.16 222.282 71.978 222.721 71.614C223.169 71.25 223.393 70.7647 223.393 70.158C223.393 69.486 223.141 68.9773 222.637 68.632C222.142 68.2867 221.302 68.114 220.117 68.114H218.031L218.535 63.2H223.897V64.096H219.417L219.081 67.218H220.341ZM228.202 67.218C229.621 67.218 230.652 67.4747 231.296 67.988C231.95 68.492 232.276 69.2013 232.276 70.116C232.276 70.6853 232.141 71.194 231.87 71.642C231.609 72.09 231.212 72.4447 230.68 72.706C230.148 72.958 229.495 73.084 228.72 73.084C228.02 73.084 227.353 72.972 226.718 72.748C226.093 72.5147 225.589 72.2067 225.206 71.824L225.696 71.026C226.023 71.362 226.452 71.6373 226.984 71.852C227.516 72.0573 228.09 72.16 228.706 72.16C229.518 72.16 230.144 71.978 230.582 71.614C231.03 71.25 231.254 70.7647 231.254 70.158C231.254 69.486 231.002 68.9773 230.498 68.632C230.004 68.2867 229.164 68.114 227.978 68.114H225.892L226.396 63.2H231.758V64.096H227.278L226.942 67.218H228.202ZM236.82 67.4C237.846 67.456 238.626 67.736 239.158 68.24C239.699 68.7347 239.97 69.3833 239.97 70.186C239.97 70.746 239.834 71.2453 239.564 71.684C239.293 72.1133 238.892 72.454 238.36 72.706C237.828 72.958 237.179 73.084 236.414 73.084C235.704 73.084 235.032 72.972 234.398 72.748C233.772 72.5147 233.268 72.2067 232.886 71.824L233.376 71.026C233.702 71.362 234.136 71.6373 234.678 71.852C235.219 72.0573 235.798 72.16 236.414 72.16C237.216 72.16 237.837 71.9873 238.276 71.642C238.714 71.2873 238.934 70.802 238.934 70.186C238.934 69.5793 238.714 69.1033 238.276 68.758C237.837 68.4127 237.174 68.24 236.288 68.24H235.588V67.498L238.304 64.096H233.292V63.2H239.592V63.914L236.82 67.4Z" fill="white"/>
<rect width="164" height="97" transform="translate(164 97)" fill="#FFBDF2"/>
<path d="M185.852 128.14C184.863 128.14 183.967 127.925 183.164 127.496C182.371 127.057 181.745 126.455 181.288 125.69C180.84 124.925 180.616 124.061 180.616 123.1C180.616 122.139 180.845 121.275 181.302 120.51C181.759 119.745 182.385 119.147 183.178 118.718C183.981 118.279 184.877 118.06 185.866 118.06C186.669 118.06 187.401 118.2 188.064 118.48C188.727 118.76 189.287 119.166 189.744 119.698L188.568 120.804C187.859 120.039 186.986 119.656 185.95 119.656C185.278 119.656 184.676 119.805 184.144 120.104C183.612 120.393 183.197 120.799 182.898 121.322C182.599 121.845 182.45 122.437 182.45 123.1C182.45 123.763 182.599 124.355 182.898 124.878C183.197 125.401 183.612 125.811 184.144 126.11C184.676 126.399 185.278 126.544 185.95 126.544C186.986 126.544 187.859 126.157 188.568 125.382L189.744 126.502C189.287 127.034 188.722 127.44 188.05 127.72C187.387 128 186.655 128.14 185.852 128.14ZM195.861 128.14C194.862 128.14 193.961 127.925 193.159 127.496C192.356 127.057 191.726 126.455 191.269 125.69C190.811 124.915 190.583 124.052 190.583 123.1C190.583 122.148 190.811 121.289 191.269 120.524C191.726 119.749 192.356 119.147 193.159 118.718C193.961 118.279 194.862 118.06 195.861 118.06C196.859 118.06 197.76 118.279 198.563 118.718C199.365 119.147 199.995 119.745 200.453 120.51C200.91 121.275 201.139 122.139 201.139 123.1C201.139 124.061 200.91 124.925 200.453 125.69C199.995 126.455 199.365 127.057 198.563 127.496C197.76 127.925 196.859 128.14 195.861 128.14ZM195.861 126.544C196.514 126.544 197.102 126.399 197.625 126.11C198.147 125.811 198.558 125.401 198.857 124.878C199.155 124.346 199.305 123.753 199.305 123.1C199.305 122.447 199.155 121.859 198.857 121.336C198.558 120.804 198.147 120.393 197.625 120.104C197.102 119.805 196.514 119.656 195.861 119.656C195.207 119.656 194.619 119.805 194.097 120.104C193.574 120.393 193.163 120.804 192.865 121.336C192.566 121.859 192.417 122.447 192.417 123.1C192.417 123.753 192.566 124.346 192.865 124.878C193.163 125.401 193.574 125.811 194.097 126.11C194.619 126.399 195.207 126.544 195.861 126.544ZM204.919 119.74H201.671V118.2H209.987V119.74H206.739V128H204.919V119.74ZM213.478 119.74H210.23V118.2H218.546V119.74H215.298V128H213.478V119.74ZM224.353 128.14C223.354 128.14 222.454 127.925 221.651 127.496C220.848 127.057 220.218 126.455 219.761 125.69C219.304 124.915 219.075 124.052 219.075 123.1C219.075 122.148 219.304 121.289 219.761 120.524C220.218 119.749 220.848 119.147 221.651 118.718C222.454 118.279 223.354 118.06 224.353 118.06C225.352 118.06 226.252 118.279 227.055 118.718C227.858 119.147 228.488 119.745 228.945 120.51C229.402 121.275 229.631 122.139 229.631 123.1C229.631 124.061 229.402 124.925 228.945 125.69C228.488 126.455 227.858 127.057 227.055 127.496C226.252 127.925 225.352 128.14 224.353 128.14ZM224.353 126.544C225.006 126.544 225.594 126.399 226.117 126.11C226.64 125.811 227.05 125.401 227.349 124.878C227.648 124.346 227.797 123.753 227.797 123.1C227.797 122.447 227.648 121.859 227.349 121.336C227.05 120.804 226.64 120.393 226.117 120.104C225.594 119.805 225.006 119.656 224.353 119.656C223.7 119.656 223.112 119.805 222.589 120.104C222.066 120.393 221.656 120.804 221.357 121.336C221.058 121.859 220.909 122.447 220.909 123.1C220.909 123.753 221.058 124.346 221.357 124.878C221.656 125.401 222.066 125.811 222.589 126.11C223.112 126.399 223.7 126.544 224.353 126.544ZM240.268 118.2V128H238.77L233.366 121.364V128H231.56V118.2H233.058L238.462 124.836V118.2H240.268ZM251.299 128.14C250.31 128.14 249.414 127.925 248.611 127.496C247.818 127.057 247.193 126.455 246.735 125.69C246.287 124.925 246.063 124.061 246.063 123.1C246.063 122.139 246.292 121.275 246.749 120.51C247.207 119.745 247.832 119.147 248.625 118.718C249.428 118.279 250.324 118.06 251.313 118.06C252.116 118.06 252.849 118.2 253.511 118.48C254.174 118.76 254.734 119.166 255.191 119.698L254.015 120.804C253.306 120.039 252.433 119.656 251.397 119.656C250.725 119.656 250.123 119.805 249.591 120.104C249.059 120.393 248.644 120.799 248.345 121.322C248.047 121.845 247.897 122.437 247.897 123.1C247.897 123.763 248.047 124.355 248.345 124.878C248.644 125.401 249.059 125.811 249.591 126.11C250.123 126.399 250.725 126.544 251.397 126.544C252.433 126.544 253.306 126.157 254.015 125.382L255.191 126.502C254.734 127.034 254.169 127.44 253.497 127.72C252.835 128 252.102 128.14 251.299 128.14ZM263.086 125.732H258.186L257.22 128H255.344L259.754 118.2H261.546L265.97 128H264.066L263.086 125.732ZM262.484 124.304L260.636 120.02L258.802 124.304H262.484ZM275.924 118.2V128H274.426L269.022 121.364V128H267.216V118.2H268.714L274.118 124.836V118.2H275.924ZM278.55 118.2H282.834C283.88 118.2 284.808 118.405 285.62 118.816C286.432 119.217 287.062 119.791 287.51 120.538C287.958 121.275 288.182 122.129 288.182 123.1C288.182 124.071 287.958 124.929 287.51 125.676C287.062 126.413 286.432 126.987 285.62 127.398C284.808 127.799 283.88 128 282.834 128H278.55V118.2ZM282.75 126.46C283.469 126.46 284.099 126.325 284.64 126.054C285.191 125.774 285.611 125.382 285.9 124.878C286.199 124.365 286.348 123.772 286.348 123.1C286.348 122.428 286.199 121.84 285.9 121.336C285.611 120.823 285.191 120.431 284.64 120.16C284.099 119.88 283.469 119.74 282.75 119.74H280.37V126.46H282.75ZM293.921 124.542V128H292.101V124.57L288.251 118.2H290.197L293.067 122.974L295.965 118.2H297.757L293.921 124.542Z" fill="white"/>
<path d="M187.252 143.63L186.888 146.57H188.876V147.34H186.79L186.468 150H185.712L186.034 147.34H183.164L182.828 150H182.072L182.394 147.34H180.406V146.57H182.492L182.856 143.63H180.854V142.86H182.954L183.276 140.2H184.046L183.71 142.86H186.594L186.916 140.2H187.672L187.35 142.86H189.324V143.63H187.252ZM186.496 143.63H183.626L183.248 146.57H186.132L186.496 143.63ZM192.38 141.096V144.946H197.448V145.842H192.38V150H191.344V140.2H198.064V141.096H192.38ZM201.239 141.096V144.946H206.307V145.842H201.239V150H200.203V140.2H206.923V141.096H201.239ZM215.237 144.946C215.881 145.086 216.375 145.366 216.721 145.786C217.075 146.197 217.253 146.729 217.253 147.382C217.253 148.222 216.94 148.871 216.315 149.328C215.699 149.776 214.784 150 213.571 150H209.063V140.2H213.291C214.383 140.2 215.227 140.419 215.825 140.858C216.431 141.297 216.735 141.917 216.735 142.72C216.735 143.261 216.599 143.723 216.329 144.106C216.067 144.479 215.703 144.759 215.237 144.946ZM210.099 141.054V144.61H213.221C214.014 144.61 214.625 144.461 215.055 144.162C215.484 143.854 215.699 143.411 215.699 142.832C215.699 142.253 215.484 141.815 215.055 141.516C214.625 141.208 214.014 141.054 213.221 141.054H210.099ZM213.557 149.146C214.434 149.146 215.097 148.997 215.545 148.698C215.993 148.399 216.217 147.933 216.217 147.298C216.217 146.075 215.33 145.464 213.557 145.464H210.099V149.146H213.557ZM219.617 140.2H223.607C224.643 140.2 225.558 140.41 226.351 140.83C227.145 141.241 227.761 141.819 228.199 142.566C228.638 143.303 228.857 144.148 228.857 145.1C228.857 146.052 228.638 146.901 228.199 147.648C227.761 148.385 227.145 148.964 226.351 149.384C225.558 149.795 224.643 150 223.607 150H219.617V140.2ZM223.551 149.104C224.41 149.104 225.161 148.936 225.805 148.6C226.449 148.255 226.949 147.783 227.303 147.186C227.658 146.579 227.835 145.884 227.835 145.1C227.835 144.316 227.658 143.625 227.303 143.028C226.949 142.421 226.449 141.95 225.805 141.614C225.161 141.269 224.41 141.096 223.551 141.096H220.653V149.104H223.551ZM232.22 141.096V144.946H237.288V145.842H232.22V150H231.184V140.2H237.904V141.096H232.22ZM245.854 149.104V150H238.98V149.286L243.054 145.296C243.567 144.792 243.912 144.358 244.09 143.994C244.276 143.621 244.37 143.247 244.37 142.874C244.37 142.295 244.169 141.847 243.768 141.53C243.376 141.203 242.811 141.04 242.074 141.04C240.926 141.04 240.034 141.404 239.4 142.132L238.686 141.516C239.068 141.068 239.554 140.723 240.142 140.48C240.739 140.237 241.411 140.116 242.158 140.116C243.156 140.116 243.945 140.354 244.524 140.83C245.112 141.297 245.406 141.941 245.406 142.762C245.406 143.266 245.294 143.751 245.07 144.218C244.846 144.685 244.421 145.221 243.796 145.828L240.464 149.104H245.854Z" fill="white"/>
<rect width="164" height="97" transform="translate(164 194)" fill="#D6F5FF"/>
<path d="M184.354 225.14C183.598 225.14 182.865 225.033 182.156 224.818C181.456 224.603 180.901 224.319 180.49 223.964L181.12 222.55C181.521 222.867 182.011 223.129 182.59 223.334C183.178 223.53 183.766 223.628 184.354 223.628C185.082 223.628 185.623 223.511 185.978 223.278C186.342 223.045 186.524 222.737 186.524 222.354C186.524 222.074 186.421 221.845 186.216 221.668C186.02 221.481 185.768 221.337 185.46 221.234C185.152 221.131 184.732 221.015 184.2 220.884C183.453 220.707 182.847 220.529 182.38 220.352C181.923 220.175 181.526 219.899 181.19 219.526C180.863 219.143 180.7 218.63 180.7 217.986C180.7 217.445 180.845 216.955 181.134 216.516C181.433 216.068 181.876 215.713 182.464 215.452C183.061 215.191 183.789 215.06 184.648 215.06C185.245 215.06 185.833 215.135 186.412 215.284C186.991 215.433 187.49 215.648 187.91 215.928L187.336 217.342C186.907 217.09 186.459 216.899 185.992 216.768C185.525 216.637 185.073 216.572 184.634 216.572C183.915 216.572 183.379 216.693 183.024 216.936C182.679 217.179 182.506 217.501 182.506 217.902C182.506 218.182 182.604 218.411 182.8 218.588C183.005 218.765 183.262 218.905 183.57 219.008C183.878 219.111 184.298 219.227 184.83 219.358C185.558 219.526 186.155 219.703 186.622 219.89C187.089 220.067 187.485 220.343 187.812 220.716C188.148 221.089 188.316 221.593 188.316 222.228C188.316 222.769 188.167 223.259 187.868 223.698C187.579 224.137 187.135 224.487 186.538 224.748C185.941 225.009 185.213 225.14 184.354 225.14ZM193.495 220.898L191.941 222.494V225H190.121V215.2H191.941V220.226L196.785 215.2H198.829L194.713 219.582L199.081 225H196.953L193.495 220.898ZM203.851 221.542V225H202.031V221.57L198.181 215.2H200.127L202.997 219.974L205.895 215.2H207.687L203.851 221.542ZM219.692 219.904C220.233 220.081 220.662 220.38 220.98 220.8C221.297 221.211 221.456 221.724 221.456 222.34C221.456 223.189 221.129 223.847 220.476 224.314C219.822 224.771 218.87 225 217.62 225H212.748V215.2H217.34C218.497 215.2 219.388 215.429 220.014 215.886C220.639 216.334 220.952 216.955 220.952 217.748C220.952 218.233 220.84 218.663 220.616 219.036C220.392 219.409 220.084 219.699 219.692 219.904ZM214.568 216.628V219.33H217.144C217.778 219.33 218.264 219.218 218.6 218.994C218.945 218.761 219.118 218.425 219.118 217.986C219.118 217.538 218.945 217.202 218.6 216.978C218.264 216.745 217.778 216.628 217.144 216.628H214.568ZM217.508 223.572C218.917 223.572 219.622 223.101 219.622 222.158C219.622 221.215 218.917 220.744 217.508 220.744H214.568V223.572H217.508ZM223.398 215.2H225.218V223.46H230.342V225H223.398V215.2ZM235.856 225.14C234.503 225.14 233.448 224.762 232.692 224.006C231.936 223.241 231.558 222.149 231.558 220.73V215.2H233.378V220.66C233.378 222.583 234.209 223.544 235.87 223.544C237.522 223.544 238.348 222.583 238.348 220.66V215.2H240.14V220.73C240.14 222.149 239.762 223.241 239.006 224.006C238.26 224.762 237.21 225.14 235.856 225.14ZM250.039 223.474V225H242.689V215.2H249.843V216.726H244.509V219.274H249.241V220.772H244.509V223.474H250.039Z" fill="#333333"/>
<path d="M187.252 240.63L186.888 243.57H188.876V244.34H186.79L186.468 247H185.712L186.034 244.34H183.164L182.828 247H182.072L182.394 244.34H180.406V243.57H182.492L182.856 240.63H180.854V239.86H182.954L183.276 237.2H184.046L183.71 239.86H186.594L186.916 237.2H187.672L187.35 239.86H189.324V240.63H187.252ZM186.496 240.63H183.626L183.248 243.57H186.132L186.496 240.63ZM191.344 237.2H195.334C196.37 237.2 197.285 237.41 198.078 237.83C198.871 238.241 199.487 238.819 199.926 239.566C200.365 240.303 200.584 241.148 200.584 242.1C200.584 243.052 200.365 243.901 199.926 244.648C199.487 245.385 198.871 245.964 198.078 246.384C197.285 246.795 196.37 247 195.334 247H191.344V237.2ZM195.278 246.104C196.137 246.104 196.888 245.936 197.532 245.6C198.176 245.255 198.675 244.783 199.03 244.186C199.385 243.579 199.562 242.884 199.562 242.1C199.562 241.316 199.385 240.625 199.03 240.028C198.675 239.421 198.176 238.95 197.532 238.614C196.888 238.269 196.137 238.096 195.278 238.096H192.38V246.104H195.278ZM206.102 241.134C206.746 241.134 207.316 241.255 207.81 241.498C208.314 241.741 208.706 242.086 208.986 242.534C209.266 242.973 209.406 243.486 209.406 244.074C209.406 244.671 209.262 245.199 208.972 245.656C208.683 246.113 208.282 246.468 207.768 246.72C207.264 246.963 206.695 247.084 206.06 247.084C204.763 247.084 203.769 246.659 203.078 245.81C202.388 244.951 202.042 243.743 202.042 242.184C202.042 241.092 202.229 240.168 202.602 239.412C202.976 238.656 203.498 238.087 204.17 237.704C204.842 237.312 205.626 237.116 206.522 237.116C207.493 237.116 208.268 237.293 208.846 237.648L208.44 238.46C207.974 238.152 207.339 237.998 206.536 237.998C205.454 237.998 204.604 238.343 203.988 239.034C203.372 239.715 203.064 240.709 203.064 242.016C203.064 242.249 203.078 242.515 203.106 242.814C203.349 242.282 203.736 241.871 204.268 241.582C204.8 241.283 205.412 241.134 206.102 241.134ZM206.018 246.23C206.728 246.23 207.302 246.039 207.74 245.656C208.188 245.264 208.412 244.746 208.412 244.102C208.412 243.458 208.188 242.945 207.74 242.562C207.302 242.179 206.704 241.988 205.948 241.988C205.454 241.988 205.015 242.081 204.632 242.268C204.259 242.455 203.965 242.711 203.75 243.038C203.536 243.365 203.428 243.729 203.428 244.13C203.428 244.503 203.526 244.849 203.722 245.166C203.928 245.483 204.226 245.74 204.618 245.936C205.01 246.132 205.477 246.23 206.018 246.23ZM212.478 238.096V241.946H217.546V242.842H212.478V247H211.442V237.2H218.162V238.096H212.478ZM221.763 241.218C223.182 241.218 224.213 241.475 224.857 241.988C225.51 242.492 225.837 243.201 225.837 244.116C225.837 244.685 225.702 245.194 225.431 245.642C225.17 246.09 224.773 246.445 224.241 246.706C223.709 246.958 223.056 247.084 222.281 247.084C221.581 247.084 220.914 246.972 220.279 246.748C219.654 246.515 219.15 246.207 218.767 245.824L219.257 245.026C219.584 245.362 220.013 245.637 220.545 245.852C221.077 246.057 221.651 246.16 222.267 246.16C223.079 246.16 223.704 245.978 224.143 245.614C224.591 245.25 224.815 244.765 224.815 244.158C224.815 243.486 224.563 242.977 224.059 242.632C223.564 242.287 222.724 242.114 221.539 242.114H219.453L219.957 237.2H225.319V238.096H220.839L220.503 241.218H221.763ZM229.021 238.096V241.946H234.089V242.842H229.021V247H227.985V237.2H234.705V238.096H229.021ZM237.88 238.096V241.946H242.948V242.842H237.88V247H236.844V237.2H243.564V238.096H237.88Z" fill="#333333"/>
<rect width="164" height="97" transform="translate(164 291)" fill="#F4F4F4"/>
<path d="M195.638 312.2L192.39 322H190.458L188.036 314.748L185.572 322H183.626L180.378 312.2H182.268L184.704 319.648L187.238 312.2H188.918L191.396 319.69L193.902 312.2H195.638ZM197.121 312.2H198.941V322H197.121V312.2ZM201.591 312.2H203.411V320.46H208.535V322H201.591V312.2ZM209.972 312.2H214.256C215.302 312.2 216.23 312.405 217.042 312.816C217.854 313.217 218.484 313.791 218.932 314.538C219.38 315.275 219.604 316.129 219.604 317.1C219.604 318.071 219.38 318.929 218.932 319.676C218.484 320.413 217.854 320.987 217.042 321.398C216.23 321.799 215.302 322 214.256 322H209.972V312.2ZM214.172 320.46C214.891 320.46 215.521 320.325 216.062 320.054C216.613 319.774 217.033 319.382 217.322 318.878C217.621 318.365 217.77 317.772 217.77 317.1C217.77 316.428 217.621 315.84 217.322 315.336C217.033 314.823 216.613 314.431 216.062 314.16C215.521 313.88 214.891 313.74 214.172 313.74H211.792V320.46H214.172ZM228.446 322.14C227.69 322.14 226.957 322.033 226.248 321.818C225.548 321.603 224.992 321.319 224.582 320.964L225.212 319.55C225.613 319.867 226.103 320.129 226.682 320.334C227.27 320.53 227.858 320.628 228.446 320.628C229.174 320.628 229.715 320.511 230.07 320.278C230.434 320.045 230.616 319.737 230.616 319.354C230.616 319.074 230.513 318.845 230.308 318.668C230.112 318.481 229.86 318.337 229.552 318.234C229.244 318.131 228.824 318.015 228.292 317.884C227.545 317.707 226.938 317.529 226.472 317.352C226.014 317.175 225.618 316.899 225.282 316.526C224.955 316.143 224.792 315.63 224.792 314.986C224.792 314.445 224.936 313.955 225.226 313.516C225.524 313.068 225.968 312.713 226.556 312.452C227.153 312.191 227.881 312.06 228.74 312.06C229.337 312.06 229.925 312.135 230.504 312.284C231.082 312.433 231.582 312.648 232.002 312.928L231.428 314.342C230.998 314.09 230.55 313.899 230.084 313.768C229.617 313.637 229.164 313.572 228.726 313.572C228.007 313.572 227.47 313.693 227.116 313.936C226.77 314.179 226.598 314.501 226.598 314.902C226.598 315.182 226.696 315.411 226.892 315.588C227.097 315.765 227.354 315.905 227.662 316.008C227.97 316.111 228.39 316.227 228.922 316.358C229.65 316.526 230.247 316.703 230.714 316.89C231.18 317.067 231.577 317.343 231.904 317.716C232.24 318.089 232.408 318.593 232.408 319.228C232.408 319.769 232.258 320.259 231.96 320.698C231.67 321.137 231.227 321.487 230.63 321.748C230.032 322.009 229.304 322.14 228.446 322.14ZM240.568 319.732H235.668L234.702 322H232.826L237.236 312.2H239.028L243.452 322H241.548L240.568 319.732ZM239.966 318.304L238.118 314.02L236.284 318.304H239.966ZM253.407 312.2V322H251.909L246.505 315.364V322H244.699V312.2H246.197L251.601 318.836V312.2H253.407ZM256.033 312.2H260.317C261.362 312.2 262.291 312.405 263.103 312.816C263.915 313.217 264.545 313.791 264.993 314.538C265.441 315.275 265.665 316.129 265.665 317.1C265.665 318.071 265.441 318.929 264.993 319.676C264.545 320.413 263.915 320.987 263.103 321.398C262.291 321.799 261.362 322 260.317 322H256.033V312.2ZM260.233 320.46C260.951 320.46 261.581 320.325 262.123 320.054C262.673 319.774 263.093 319.382 263.383 318.878C263.681 318.365 263.831 317.772 263.831 317.1C263.831 316.428 263.681 315.84 263.383 315.336C263.093 314.823 262.673 314.431 262.123 314.16C261.581 313.88 260.951 313.74 260.233 313.74H257.853V320.46H260.233Z" fill="#333333"/>
<path d="M187.252 337.63L186.888 340.57H188.876V341.34H186.79L186.468 344H185.712L186.034 341.34H183.164L182.828 344H182.072L182.394 341.34H180.406V340.57H182.492L182.856 337.63H180.854V336.86H182.954L183.276 334.2H184.046L183.71 336.86H186.594L186.916 334.2H187.672L187.35 336.86H189.324V337.63H187.252ZM186.496 337.63H183.626L183.248 340.57H186.132L186.496 337.63ZM192.38 335.096V338.946H197.448V339.842H192.38V344H191.344V334.2H198.064V335.096H192.38ZM206.968 341.424H205.008V344H204V341.424H198.47V340.696L203.664 334.2H204.784L199.772 340.528H204.028V338.26H205.008V340.528H206.968V341.424ZM209.798 335.096V338.946H214.866V339.842H209.798V344H208.762V334.2H215.482V335.096H209.798ZM224.386 341.424H222.426V344H221.418V341.424H215.888V340.696L221.082 334.2H222.202L217.19 340.528H221.446V338.26H222.426V340.528H224.386V341.424ZM227.216 335.096V338.946H232.284V339.842H227.216V344H226.18V334.2H232.9V335.096H227.216ZM241.804 341.424H239.844V344H238.836V341.424H233.306V340.696L238.5 334.2H239.62L234.608 340.528H238.864V338.26H239.844V340.528H241.804V341.424Z" fill="#333333"/>
<rect width="164" height="97" transform="translate(164 388)" fill="#414141"/>
<path d="M183.304 410.74H180.056V409.2H188.372V410.74H185.124V419H183.304V410.74ZM193.774 419.14C192.421 419.14 191.366 418.762 190.61 418.006C189.854 417.241 189.476 416.149 189.476 414.73V409.2H191.296V414.66C191.296 416.583 192.127 417.544 193.788 417.544C195.44 417.544 196.266 416.583 196.266 414.66V409.2H198.058V414.73C198.058 416.149 197.68 417.241 196.924 418.006C196.177 418.762 195.127 419.14 193.774 419.14ZM209.315 409.2V419H207.817L202.413 412.364V419H200.607V409.2H202.105L207.509 415.836V409.2H209.315ZM211.941 409.2H216.225C217.27 409.2 218.199 409.405 219.011 409.816C219.823 410.217 220.453 410.791 220.901 411.538C221.349 412.275 221.573 413.129 221.573 414.1C221.573 415.071 221.349 415.929 220.901 416.676C220.453 417.413 219.823 417.987 219.011 418.398C218.199 418.799 217.27 419 216.225 419H211.941V409.2ZM216.141 417.46C216.86 417.46 217.49 417.325 218.031 417.054C218.582 416.774 219.002 416.382 219.291 415.878C219.59 415.365 219.739 414.772 219.739 414.1C219.739 413.428 219.59 412.84 219.291 412.336C219.002 411.823 218.582 411.431 218.031 411.16C217.49 410.88 216.86 410.74 216.141 410.74H213.761V417.46H216.141ZM228.085 419.14C227.087 419.14 226.186 418.925 225.383 418.496C224.581 418.057 223.951 417.455 223.493 416.69C223.036 415.915 222.807 415.052 222.807 414.1C222.807 413.148 223.036 412.289 223.493 411.524C223.951 410.749 224.581 410.147 225.383 409.718C226.186 409.279 227.087 409.06 228.085 409.06C229.084 409.06 229.985 409.279 230.787 409.718C231.59 410.147 232.22 410.745 232.677 411.51C233.135 412.275 233.363 413.139 233.363 414.1C233.363 415.061 233.135 415.925 232.677 416.69C232.22 417.455 231.59 418.057 230.787 418.496C229.985 418.925 229.084 419.14 228.085 419.14ZM228.085 417.544C228.739 417.544 229.327 417.399 229.849 417.11C230.372 416.811 230.783 416.401 231.081 415.878C231.38 415.346 231.529 414.753 231.529 414.1C231.529 413.447 231.38 412.859 231.081 412.336C230.783 411.804 230.372 411.393 229.849 411.104C229.327 410.805 228.739 410.656 228.085 410.656C227.432 410.656 226.844 410.805 226.321 411.104C225.799 411.393 225.388 411.804 225.089 412.336C224.791 412.859 224.641 413.447 224.641 414.1C224.641 414.753 224.791 415.346 225.089 415.878C225.388 416.401 225.799 416.811 226.321 417.11C226.844 417.399 227.432 417.544 228.085 417.544ZM241.705 419L239.703 416.13C239.619 416.139 239.493 416.144 239.325 416.144H237.113V419H235.293V409.2H239.325C240.174 409.2 240.911 409.34 241.537 409.62C242.171 409.9 242.657 410.301 242.993 410.824C243.329 411.347 243.497 411.967 243.497 412.686C243.497 413.423 243.315 414.058 242.951 414.59C242.596 415.122 242.083 415.519 241.411 415.78L243.665 419H241.705ZM241.663 412.686C241.663 412.061 241.457 411.58 241.047 411.244C240.636 410.908 240.034 410.74 239.241 410.74H237.113V414.646H239.241C240.034 414.646 240.636 414.478 241.047 414.142C241.457 413.797 241.663 413.311 241.663 412.686ZM251.889 416.732H246.989L246.023 419H244.147L248.557 409.2H250.349L254.773 419H252.869L251.889 416.732ZM251.287 415.304L249.439 411.02L247.605 415.304H251.287Z" fill="white"/>
<path d="M187.252 434.63L186.888 437.57H188.876V438.34H186.79L186.468 441H185.712L186.034 438.34H183.164L182.828 441H182.072L182.394 438.34H180.406V437.57H182.492L182.856 434.63H180.854V433.86H182.954L183.276 431.2H184.046L183.71 433.86H186.594L186.916 431.2H187.672L187.35 433.86H189.324V434.63H187.252ZM186.496 434.63H183.626L183.248 437.57H186.132L186.496 434.63ZM198.806 438.424H196.846V441H195.838V438.424H190.308V437.696L195.502 431.2H196.622L191.61 437.528H195.866V435.26H196.846V437.528H198.806V438.424ZM202.092 431.2V441H201.084V432.096H198.774V431.2H202.092ZM212.765 438.424H210.805V441H209.797V438.424H204.267V437.696L209.461 431.2H210.581L205.569 437.528H209.825V435.26H210.805V437.528H212.765V438.424ZM216.051 431.2V441H215.043V432.096H212.733V431.2H216.051ZM226.724 438.424H224.764V441H223.756V438.424H218.226V437.696L223.42 431.2H224.54L219.528 437.528H223.784V435.26H224.764V437.528H226.724V438.424ZM230.01 431.2V441H229.002V432.096H226.692V431.2H230.01Z" fill="white"/>
</svg>
