<svg width="1200" height="619" viewBox="0 0 1200 619" fill="none" xmlns="http://www.w3.org/2000/svg">
<g clip-path="url(#clip0_45_2823)">
<rect width="1200" height="619" rx="50" fill="#F7B40D"/>
<path d="M49.9 476.5C49.7 485.95 57.8 493.8 67.45 493.6C73.8 493.6 79.2 490.55 82.05 485.4L76.95 481.8C74.6 485.5 71.45 487.35 67.5 487.35C61.35 487.35 56.85 482.85 56.85 476.55C56.85 470.25 61.35 465.65 67.5 465.65C71.45 465.65 74.6 467.5 76.95 471.2L82.05 467.6C79.1 462.45 73.75 459.4 67.5 459.4C57.9 459.2 49.75 467.05 49.9 476.5ZM108.098 482.9C108.398 481.65 108.548 480.4 108.548 479.2C108.548 472.75 103.748 467.7 96.898 467.7C89.748 467.55 83.798 473.5 83.948 480.65C83.798 487.8 89.848 493.75 97.498 493.6C101.148 493.6 104.448 492.35 107.398 489.9L104.598 485.3C102.448 486.95 100.148 487.8 97.698 487.8C94.098 487.8 91.548 486.05 90.748 482.9H108.098ZM90.748 478.15C91.498 475.1 93.798 473.15 96.648 473.15C99.598 473.15 101.948 475.1 101.998 478.15H90.748ZM127.515 468.25C126.865 468.05 126.165 467.95 125.315 467.95C122.565 467.95 120.165 469.15 118.515 471.2V468.25H112.315V493H119.065V480.65C119.065 476.4 121.665 474.2 125.715 474.2H127.515V468.25ZM150.461 478.3C150.461 471.45 146.311 467.7 139.861 467.7C135.511 467.7 131.911 469.4 129.061 472.8L132.561 476.95C134.761 474.6 136.561 473.55 139.111 473.55C142.111 473.55 143.711 475.15 143.711 477.9V479H137.511C131.761 479 128.161 481.75 128.161 486.2C128.161 490.55 131.461 493.6 136.711 493.6C139.861 493.6 142.461 492.45 144.261 490.6V493H150.461V478.3ZM143.711 483.75C143.711 486.6 141.461 488.65 138.511 488.65C136.361 488.65 134.961 487.6 134.961 485.95C134.961 484.3 136.211 483.45 138.411 483.45H143.711V483.75ZM168.421 493H175.171V481.35H180.821C187.721 481.35 192.721 476.95 192.721 470.65C192.721 464.3 187.721 460 180.821 460H168.421V493ZM175.171 475.45V465.95H180.821C183.871 465.95 185.821 467.85 185.821 470.65C185.821 473.5 183.971 475.45 180.821 475.45H175.171ZM211.359 468.25C210.709 468.05 210.009 467.95 209.159 467.95C206.409 467.95 204.009 469.15 202.359 471.2V468.25H196.159V493H202.909V480.65C202.909 476.4 205.509 474.2 209.559 474.2H211.359V468.25ZM212.155 480.6C212.005 487.65 218.105 493.7 225.355 493.55C232.605 493.7 238.855 487.65 238.705 480.6C238.855 473.55 232.655 467.6 225.405 467.7C218.155 467.55 212.005 473.55 212.155 480.6ZM231.805 480.65C231.805 484.5 229.055 487.35 225.405 487.35C221.655 487.35 219.005 484.5 219.005 480.65C219.005 476.7 221.655 473.85 225.405 473.85C229.055 473.85 231.805 476.8 231.805 480.65ZM260.398 493H267.148V466.1H277.748V460H249.848V466.1H260.398V493ZM295.047 468.25L288.597 484.5L282.547 468.25H275.397L284.897 491.5L284.147 493.2C282.997 495.8 281.397 496.55 278.997 496.55C278.597 496.55 277.647 496.5 276.097 496.35V502C277.597 502.4 279.047 502.6 280.447 502.6C285.047 502.6 288.047 500.3 290.297 495.15L302.147 468.25H295.047ZM330.727 480.6C330.727 473.2 325.627 467.7 318.727 467.7C315.327 467.7 312.427 469 310.777 471.35V468.25H304.577V502H311.327V490.6C313.127 492.55 315.727 493.6 318.727 493.6C325.627 493.6 330.727 488 330.727 480.6ZM323.877 480.65C323.877 484.7 321.077 487.45 317.477 487.45C314.027 487.45 311.227 485 311.227 480.6C311.227 476.15 314.077 473.8 317.477 473.8C321.127 473.8 323.877 476.5 323.877 480.65ZM357.272 482.9C357.572 481.65 357.722 480.4 357.722 479.2C357.722 472.75 352.922 467.7 346.072 467.7C338.922 467.55 332.972 473.5 333.122 480.65C332.972 487.8 339.022 493.75 346.672 493.6C350.322 493.6 353.622 492.35 356.572 489.9L353.772 485.3C351.622 486.95 349.322 487.8 346.872 487.8C343.272 487.8 340.722 486.05 339.922 482.9H357.272ZM339.922 478.15C340.672 475.1 342.972 473.15 345.822 473.15C348.772 473.15 351.122 475.1 351.172 478.15H339.922ZM369.389 464.8C369.389 462 370.839 460.95 373.889 460.95C374.489 460.95 375.139 461 375.889 461.1V455.45C374.739 455.1 373.489 454.9 372.189 454.9C366.239 454.9 362.639 458 362.639 464.2V468.25H359.139V473.95H362.639V493H369.389V473.95H374.839V468.25H369.389V464.8ZM397.829 478.3C397.829 471.45 393.679 467.7 387.229 467.7C382.879 467.7 379.279 469.4 376.429 472.8L379.929 476.95C382.129 474.6 383.929 473.55 386.479 473.55C389.479 473.55 391.079 475.15 391.079 477.9V479H384.879C379.129 479 375.529 481.75 375.529 486.2C375.529 490.55 378.829 493.6 384.079 493.6C387.229 493.6 389.829 492.45 391.629 490.6V493H397.829V478.3ZM391.079 483.75C391.079 486.6 388.829 488.65 385.879 488.65C383.729 488.65 382.329 487.6 382.329 485.95C382.329 484.3 383.579 483.45 385.779 483.45H391.079V483.75ZM401.425 480.6C401.325 487.75 407.425 493.75 414.675 493.6C419.475 493.6 423.275 491.25 425.425 487.45L420.725 483.85C419.125 486.1 417.325 487.4 414.775 487.4C410.975 487.4 408.275 484.55 408.275 480.6C408.275 476.75 410.975 473.85 414.775 473.85C417.375 473.85 419.175 475.2 420.725 477.45L425.425 473.8C423.275 470 419.525 467.7 414.675 467.7C407.325 467.7 401.425 473.35 401.425 480.6ZM451.174 482.9C451.474 481.65 451.624 480.4 451.624 479.2C451.624 472.75 446.824 467.7 439.974 467.7C432.824 467.55 426.874 473.5 427.024 480.65C426.874 487.8 432.924 493.75 440.574 493.6C444.224 493.6 447.524 492.35 450.474 489.9L447.674 485.3C445.524 486.95 443.224 487.8 440.774 487.8C437.174 487.8 434.624 486.05 433.824 482.9H451.174ZM433.824 478.15C434.574 475.1 436.874 473.15 439.724 473.15C442.674 473.15 445.024 475.1 445.074 478.15H433.824Z" fill="white"/>
<path d="M48.86 531.4C48.8 535.18 51.96 538.28 55.82 538.22C58.48 538.22 60.8 536.84 61.98 534.74V531.02H55.8V532.9H59.86V534.32C59.04 535.58 57.66 536.32 55.92 536.32C53.08 536.32 51.06 534.2 51.06 531.38C51.06 528.6 53.02 526.52 55.8 526.52C57.44 526.52 58.76 527.22 59.74 528.6L61.28 527.34C60.02 525.58 58.12 524.58 55.82 524.58C52 524.52 48.78 527.62 48.86 531.4ZM72.6819 533.78C72.7819 533.32 72.8419 532.88 72.8419 532.46C72.8419 529.9 70.9019 527.96 68.3019 527.96C65.5219 527.9 63.1619 530.28 63.2219 533.1C63.2219 536 65.5019 538.22 68.5019 538.22C70.0019 538.22 71.3019 537.7 72.4219 536.64L71.4219 535.2C70.5419 535.98 69.5819 536.36 68.5619 536.36C66.8819 536.36 65.6219 535.38 65.3619 533.78H72.6819ZM65.4019 532.14C65.7219 530.68 66.8419 529.74 68.2219 529.74C69.6019 529.74 70.7219 530.64 70.7419 532.14H65.4019ZM74.0281 533.08C73.9681 535.86 76.3881 538.28 79.2081 538.22C82.0681 538.28 84.4881 535.86 84.4281 533.08C84.4881 530.3 82.0681 527.9 79.2081 527.96C76.3881 527.92 73.9681 530.26 74.0281 533.08ZM82.2681 533.1C82.2681 534.88 80.9481 536.28 79.2081 536.28C77.4881 536.28 76.1681 534.92 76.1681 533.1C76.1681 531.28 77.4881 529.88 79.2281 529.88C80.9281 529.88 82.2681 531.28 82.2681 533.1ZM100.976 531.86C100.976 529.52 99.5956 527.96 97.3356 527.96C95.9556 527.96 94.7356 528.56 94.0156 529.5C93.4356 528.54 92.3956 527.96 91.0356 527.96C89.8556 527.96 88.8956 528.38 88.1956 529.1V528.18H86.2356V538H88.3356V532.16C88.3356 530.8 89.2156 529.88 90.4956 529.88C91.7556 529.88 92.5556 530.8 92.5556 532.16V538H94.6556V532.06C94.6556 530.8 95.5356 529.88 96.8156 529.88C98.0756 529.88 98.8556 530.78 98.8556 532.16V538H100.976V531.86ZM112.132 533.78C112.232 533.32 112.292 532.88 112.292 532.46C112.292 529.9 110.352 527.96 107.752 527.96C104.972 527.9 102.612 530.28 102.672 533.1C102.672 536 104.952 538.22 107.952 538.22C109.452 538.22 110.752 537.7 111.872 536.64L110.872 535.2C109.992 535.98 109.032 536.36 108.012 536.36C106.332 536.36 105.072 535.38 104.812 533.78H112.132ZM104.852 532.14C105.172 530.68 106.292 529.74 107.672 529.74C109.052 529.74 110.172 530.64 110.192 532.14H104.852ZM119.938 536.22C119.358 536.28 118.938 536.32 118.638 536.32C117.358 536.32 116.698 535.88 116.698 534.62V530H119.618V528.18H116.698V525.6H114.578V528.18H112.978V530H114.578V534.8C114.578 537.1 115.938 538.22 118.198 538.22C118.698 538.22 119.278 538.14 119.938 538V536.22ZM127.087 528.18C126.847 528.12 126.587 528.08 126.287 528.08C125.167 528.08 124.127 528.58 123.427 529.46V528.18H121.467V538H123.567V532.76C123.567 531.02 124.787 530.04 126.447 530.04H127.087V528.18ZM128.367 538H130.467V528.18H128.367V538ZM127.987 524.52C127.987 525.3 128.627 525.9 129.427 525.9C130.207 525.9 130.847 525.3 130.847 524.52C130.847 523.74 130.207 523.12 129.427 523.12C128.627 523.12 127.987 523.74 127.987 524.52ZM132.284 533.08C132.284 535.94 134.584 538.22 137.484 538.22C139.264 538.22 140.744 537.36 141.624 535.94L140.144 534.8C139.424 535.78 138.544 536.28 137.504 536.28C135.744 536.28 134.424 534.88 134.424 533.08C134.424 531.3 135.744 529.9 137.504 529.9C138.564 529.9 139.444 530.4 140.144 531.4L141.624 530.24C140.764 528.82 139.304 527.96 137.484 527.96C134.664 527.92 132.224 530.26 132.284 533.08ZM147.424 536.32C148.304 537.46 149.704 538.22 151.384 538.22C152.424 538.22 153.284 537.96 153.984 537.44C154.684 536.9 155.024 536.16 155.024 535.22C155.024 533.84 154.204 533.04 152.344 532.26L151.404 531.88C150.444 531.48 150.104 531.22 150.104 530.72C150.104 530.1 150.624 529.78 151.444 529.78C152.304 529.78 153.124 530.14 153.744 530.78L154.884 529.48C154.024 528.46 152.904 527.96 151.484 527.96C149.484 527.96 148.024 529.04 148.024 530.8C148.024 532.18 148.844 532.94 150.584 533.66L151.584 534.08C152.544 534.48 152.964 534.72 152.964 535.3C152.964 536.02 152.284 536.4 151.384 536.4C150.344 536.4 149.484 535.9 148.624 535L147.424 536.32ZM164.646 532.06C164.646 529.42 163.046 527.96 160.626 527.96C158.926 527.96 157.466 528.64 156.486 530.06L157.706 531.3C158.526 530.32 159.326 529.84 160.426 529.84C161.766 529.84 162.526 530.58 162.526 531.94V532.58H159.746C157.526 532.58 156.126 533.68 156.126 535.38C156.126 537.08 157.486 538.22 159.546 538.22C160.886 538.22 161.966 537.76 162.686 536.9V538H164.646V532.06ZM162.526 534.28C162.526 535.62 161.406 536.6 159.986 536.6C158.966 536.6 158.266 536.12 158.266 535.3C158.266 534.5 158.886 534.1 160.006 534.1H162.526V534.28ZM175.548 531.86C175.548 529.52 174.168 527.96 171.868 527.96C170.648 527.96 169.668 528.36 168.928 529.14V528.18H166.968V538H169.068V532.14C169.068 530.8 170.008 529.86 171.308 529.86C172.588 529.86 173.448 530.78 173.448 532.14V538H175.548V531.86ZM176.952 536.32C177.832 537.46 179.232 538.22 180.912 538.22C181.952 538.22 182.812 537.96 183.512 537.44C184.212 536.9 184.552 536.16 184.552 535.22C184.552 533.84 183.732 533.04 181.872 532.26L180.932 531.88C179.972 531.48 179.632 531.22 179.632 530.72C179.632 530.1 180.152 529.78 180.972 529.78C181.832 529.78 182.652 530.14 183.272 530.78L184.412 529.48C183.552 528.46 182.432 527.96 181.012 527.96C179.012 527.96 177.552 529.04 177.552 530.8C177.552 532.18 178.372 532.94 180.112 533.66L181.112 534.08C182.072 534.48 182.492 534.72 182.492 535.3C182.492 536.02 181.812 536.4 180.912 536.4C179.872 536.4 179.012 535.9 178.152 535L176.952 536.32ZM185.834 532.54H190.754V530.76H185.834V532.54ZM191.729 536.32C192.609 537.46 194.009 538.22 195.689 538.22C196.729 538.22 197.589 537.96 198.289 537.44C198.989 536.9 199.329 536.16 199.329 535.22C199.329 533.84 198.509 533.04 196.649 532.26L195.709 531.88C194.749 531.48 194.409 531.22 194.409 530.72C194.409 530.1 194.929 529.78 195.749 529.78C196.609 529.78 197.429 530.14 198.049 530.78L199.189 529.48C198.329 528.46 197.209 527.96 195.789 527.96C193.789 527.96 192.329 529.04 192.329 530.8C192.329 532.18 193.149 532.94 194.889 533.66L195.889 534.08C196.849 534.48 197.269 534.72 197.269 535.3C197.269 536.02 196.589 536.4 195.689 536.4C194.649 536.4 193.789 535.9 192.929 535L191.729 536.32ZM209.99 533.78C210.09 533.32 210.15 532.88 210.15 532.46C210.15 529.9 208.21 527.96 205.61 527.96C202.83 527.9 200.47 530.28 200.53 533.1C200.53 536 202.81 538.22 205.81 538.22C207.31 538.22 208.61 537.7 209.73 536.64L208.73 535.2C207.85 535.98 206.89 536.36 205.87 536.36C204.19 536.36 202.93 535.38 202.67 533.78H209.99ZM202.71 532.14C203.03 530.68 204.15 529.74 205.53 529.74C206.91 529.74 208.03 530.64 208.05 532.14H202.71ZM217.577 528.18C217.337 528.12 217.077 528.08 216.777 528.08C215.657 528.08 214.617 528.58 213.917 529.46V528.18H211.957V538H214.057V532.76C214.057 531.02 215.277 530.04 216.937 530.04H217.577V528.18ZM218.857 538H220.957V528.18H218.857V538ZM218.477 524.52C218.477 525.3 219.117 525.9 219.917 525.9C220.697 525.9 221.337 525.3 221.337 524.52C221.337 523.74 220.697 523.12 219.917 523.12C219.117 523.12 218.477 523.74 218.477 524.52ZM225.853 526.38C225.853 525.12 226.493 524.68 227.773 524.68C228.013 524.68 228.293 524.7 228.613 524.74V522.96C228.233 522.84 227.793 522.78 227.253 522.78C225.093 522.78 223.753 523.9 223.753 526.2V528.18H222.353V530H223.753V538H225.853V530H228.173V528.18H225.853V526.38Z" fill="white"/>
<path d="M664.067 241.562H664.962V240.608L664.011 240.667L664.067 241.562ZM574.16 208.099L573.605 207.395L572.91 207.942L573.449 208.644L574.16 208.099ZM600.164 154.477L599.268 154.463L599.268 154.47V154.477H600.164ZM529.206 85.5348L529.187 86.4306L529.206 86.431L529.225 86.4306L529.206 85.5348ZM458.651 154.477L459.547 154.491L459.547 154.477L459.547 154.463L458.651 154.477ZM529.206 223.419V222.523H529.197L529.187 222.523L529.206 223.419ZM551.582 219.992L552.314 219.476L551.941 218.946L551.32 219.135L551.582 219.992ZM664.067 262.93L664.29 263.797L664.962 263.624V262.93H664.067ZM664.011 240.667C654.34 241.272 648.113 241.472 645.521 241.472V243.264C648.169 243.264 654.441 243.061 664.122 242.456L664.011 240.667ZM645.521 241.472C629.902 241.472 616.686 238.77 605.165 233.196C593.646 227.623 583.772 219.155 574.87 207.553L573.449 208.644C582.488 220.426 592.571 229.093 604.385 234.809C616.198 240.524 629.692 243.264 645.521 243.264V241.472ZM574.714 208.802C591.05 195.938 601.06 176.531 601.06 154.477H599.268C599.268 175.965 589.523 194.86 573.605 207.395L574.714 208.802ZM601.06 154.491C601.673 115.858 567.97 83.8226 529.187 84.6391L529.225 86.4306C567.045 85.6344 599.865 116.897 599.268 154.463L601.06 154.491ZM529.225 84.6391C490.436 83.8225 457.142 115.865 457.756 154.491L459.547 154.463C458.951 116.89 491.374 85.6345 529.187 86.4306L529.225 84.6391ZM457.756 154.463C457.142 193.089 490.436 225.131 529.225 224.315L529.187 222.523C491.374 223.319 458.951 192.064 459.547 154.491L457.756 154.463ZM529.206 224.315C536.962 224.315 544.509 223.09 551.844 220.849L551.32 219.135C544.141 221.329 536.771 222.523 529.206 222.523V224.315ZM550.85 220.508C572.19 250.791 603.915 266.446 640.279 266.446V264.654C604.476 264.654 573.307 249.265 552.314 219.476L550.85 220.508ZM640.279 266.446C649.201 266.446 657.142 265.635 664.29 263.797L663.843 262.062C656.88 263.853 649.097 264.654 640.279 264.654V266.446ZM664.962 262.93V241.562H663.171V262.93H664.962ZM529.408 197.325C505.323 197.325 487.568 179.597 487.568 154.477H485.776C485.776 180.559 504.306 199.117 529.408 199.117V197.325ZM487.568 154.477C487.568 129.357 505.323 111.629 529.408 111.629V109.837C504.306 109.837 485.776 128.395 485.776 154.477H487.568ZM529.408 111.629C553.288 111.629 571.248 129.757 571.248 154.477H573.04C573.04 128.801 554.311 109.837 529.408 109.837V111.629ZM571.248 154.477C571.248 179.595 553.294 197.325 529.408 197.325V199.117C554.305 199.117 573.04 180.562 573.04 154.477H571.248ZM728.84 87.9538H729.736V87.0579H728.84V87.9538ZM701.626 87.9538V87.0579H700.73V87.9538H701.626ZM643.166 87.9538H644.062V87.0579H643.166V87.9538ZM615.952 87.9538V87.0579H615.056V87.9538H615.952ZM615.056 165.967C615.056 183.814 621.078 198.416 631.297 208.558C641.514 218.698 655.862 224.315 672.396 224.315V222.523C656.274 222.523 642.4 217.053 632.559 207.286C622.72 197.522 616.848 183.398 616.848 165.967H615.056ZM672.396 224.315C688.731 224.315 703.077 218.697 713.343 208.56C723.611 198.42 729.736 183.818 729.736 165.967H727.944C727.944 183.394 721.974 197.518 712.084 207.285C702.191 217.054 688.315 222.523 672.396 222.523V224.315ZM729.736 165.967V87.9538H727.944V165.967H729.736ZM728.84 87.0579H701.626V88.8498H728.84V87.0579ZM700.73 87.9538V167.983H702.522V87.9538H700.73ZM700.73 167.983C700.73 177.477 697.866 184.79 692.953 189.727C688.039 194.665 680.979 197.325 672.396 197.325V199.117C681.352 199.117 688.906 196.334 694.223 190.991C699.54 185.647 702.522 177.841 702.522 167.983H700.73ZM672.396 197.325C664.02 197.325 656.955 194.667 651.988 189.724C647.022 184.783 644.062 177.469 644.062 167.983H642.27C642.27 177.85 645.358 185.655 650.724 190.994C656.087 196.331 663.638 199.117 672.396 199.117V197.325ZM644.062 167.983V87.9538H642.27V167.983H644.062ZM643.166 87.0579H615.952V88.8498H643.166V87.0579ZM615.056 87.9538V165.967H616.848V87.9538H615.056ZM833.02 221L832.197 221.354L832.43 221.896H833.02V221ZM862.25 221V221.896H863.62L863.071 220.641L862.25 221ZM802.984 85.5348L803.805 85.1757L803.57 84.6389H802.984V85.5348ZM793.912 85.5348V84.6389H793.327L793.092 85.1747L793.912 85.5348ZM734.445 221L733.625 220.64L733.073 221.896H734.445V221ZM763.675 221V221.896H764.265L764.498 221.354L763.675 221ZM771.133 203.664V202.768H770.543L770.31 203.31L771.133 203.664ZM825.561 203.664L826.384 203.31L826.151 202.768H825.561V203.664ZM816.087 181.288V182.184H817.404L816.92 180.959L816.087 181.288ZM780.608 181.288L779.774 180.959L779.291 182.184H780.608V181.288ZM798.347 136.334L799.181 136.005L798.347 133.894L797.514 136.005L798.347 136.334ZM833.02 221.896H862.25V220.104H833.02V221.896ZM863.071 220.641L803.805 85.1757L802.163 85.8939L861.429 221.359L863.071 220.641ZM802.984 84.6389H793.912V86.4308H802.984V84.6389ZM793.092 85.1747L733.625 220.64L735.265 221.36L794.733 85.895L793.092 85.1747ZM734.445 221.896H763.675V220.104H734.445V221.896ZM764.498 221.354L771.956 204.018L770.31 203.31L762.852 220.646L764.498 221.354ZM771.133 204.56H825.561V202.768H771.133V204.56ZM824.738 204.018L832.197 221.354L833.843 220.646L826.384 203.31L824.738 204.018ZM816.087 180.392H780.608V182.184H816.087V180.392ZM781.441 181.617L799.181 136.663L797.514 136.005L779.774 180.959L781.441 181.617ZM797.514 136.663L815.253 181.617L816.92 180.959L799.181 136.005L797.514 136.663ZM960.449 87.9538V87.0579H959.553V87.9538H960.449ZM960.449 167.378L959.797 167.993L961.344 169.634V167.378H960.449ZM883.241 85.5348L883.893 84.92L883.628 84.6389H883.241V85.5348ZM874.372 85.5348V84.6389H873.476V85.5348H874.372ZM874.372 221H873.476V221.896H874.372V221ZM901.586 221V221.896H902.482V221H901.586ZM901.586 141.172L902.24 140.56L900.69 138.905V141.172H901.586ZM978.591 223.419L977.937 224.031L978.203 224.315H978.591V223.419ZM987.663 223.419V224.315H988.558V223.419H987.663ZM987.663 87.9538H988.558V87.0579H987.663V87.9538ZM959.553 87.9538V167.378H961.344V87.9538H959.553ZM961.1 166.764L883.893 84.92L882.59 86.1496L959.797 167.993L961.1 166.764ZM883.241 84.6389H874.372V86.4308H883.241V84.6389ZM873.476 85.5348V221H875.268V85.5348H873.476ZM874.372 221.896H901.586V220.104H874.372V221.896ZM902.482 221V141.172H900.69V221H902.482ZM900.932 141.785L977.937 224.031L979.245 222.807L902.24 140.56L900.932 141.785ZM978.591 224.315H987.663V222.523H978.591V224.315ZM988.558 223.419V87.9538H986.767V223.419H988.558ZM987.663 87.0579H960.449V88.8498H987.663V87.0579ZM1042.07 221H1041.17V221.896H1042.07V221ZM1069.28 221V221.896H1070.18V221H1069.28ZM1069.28 112.547V111.651H1068.39V112.547H1069.28ZM1112.02 112.547V113.443H1112.91V112.547H1112.02ZM1112.02 87.9538H1112.91V87.0579H1112.02V87.9538ZM999.534 87.9538V87.0579H998.638V87.9538H999.534ZM999.534 112.547H998.638V113.443H999.534V112.547ZM1042.07 112.547H1042.96V111.651H1042.07V112.547ZM1042.07 221.896H1069.28V220.104H1042.07V221.896ZM1070.18 221V112.547H1068.39V221H1070.18ZM1069.28 113.443H1112.02V111.651H1069.28V113.443ZM1112.91 112.547V87.9538H1111.12V112.547H1112.91ZM1112.02 87.0579H999.534V88.8498H1112.02V87.0579ZM998.638 87.9538V112.547H1000.43V87.9538H998.638ZM999.534 113.443H1042.07V111.651H999.534V113.443ZM1041.17 112.547V221H1042.96V112.547H1041.17ZM1235.58 87.9538H1236.48V87.0579H1235.58V87.9538ZM1208.37 87.9538V87.0579H1207.47V87.9538H1208.37ZM1149.91 87.9538H1150.8V87.0579H1149.91V87.9538ZM1122.69 87.9538V87.0579H1121.8V87.9538H1122.69ZM1121.8 165.967C1121.8 183.814 1127.82 198.416 1138.04 208.558C1148.26 218.698 1162.6 224.315 1179.14 224.315V222.523C1163.02 222.523 1149.14 217.053 1139.3 207.286C1129.46 197.522 1123.59 183.398 1123.59 165.967H1121.8ZM1179.14 224.315C1195.47 224.315 1209.82 218.697 1220.08 208.56C1230.35 198.42 1236.48 183.818 1236.48 165.967H1234.69C1234.69 183.394 1228.72 197.518 1218.83 207.285C1208.93 217.054 1195.06 222.523 1179.14 222.523V224.315ZM1236.48 165.967V87.9538H1234.69V165.967H1236.48ZM1235.58 87.0579H1208.37V88.8498H1235.58V87.0579ZM1207.47 87.9538V167.983H1209.26V87.9538H1207.47ZM1207.47 167.983C1207.47 177.477 1204.61 184.79 1199.69 189.727C1194.78 194.665 1187.72 197.325 1179.14 197.325V199.117C1188.09 199.117 1195.65 196.334 1200.97 190.991C1206.28 185.647 1209.26 177.841 1209.26 167.983H1207.47ZM1179.14 197.325C1170.76 197.325 1163.7 194.667 1158.73 189.724C1153.76 184.783 1150.8 177.469 1150.8 167.983H1149.01C1149.01 177.85 1152.1 185.655 1157.47 190.994C1162.83 196.331 1170.38 199.117 1179.14 199.117V197.325ZM1150.8 167.983V87.9538H1149.01V167.983H1150.8ZM1149.91 87.0579H1122.69V88.8498H1149.91V87.0579ZM1121.8 87.9538V165.967H1123.59V87.9538H1121.8ZM1380.36 85.5348V84.6389H1379.92L1379.65 84.9831L1380.36 85.5348ZM1324.12 157.501L1323.41 158.052L1324.12 158.956L1324.82 158.052L1324.12 157.501ZM1267.88 85.5348L1268.58 84.9831L1268.31 84.6389H1267.88V85.5348ZM1259.01 85.5348V84.6389H1258.11V85.5348H1259.01ZM1259.01 221H1258.11V221.896H1259.01V221ZM1286.22 221V221.896H1287.12V221H1286.22ZM1286.22 150.042L1286.92 149.483L1285.32 147.483V150.042H1286.22ZM1319.68 191.972L1318.98 192.531L1319.25 192.868H1319.68V191.972ZM1328.55 191.972V192.868H1328.98L1329.25 192.531L1328.55 191.972ZM1362.02 150.042H1362.91V147.483L1361.32 149.483L1362.02 150.042ZM1362.02 221H1361.12V221.896H1362.02V221ZM1389.23 221V221.896H1390.13V221H1389.23ZM1389.23 85.5348H1390.13V84.6389H1389.23V85.5348ZM1379.65 84.9831L1323.41 156.949L1324.82 158.052L1381.07 86.0865L1379.65 84.9831ZM1324.82 156.949L1268.58 84.9831L1267.17 86.0865L1323.41 158.052L1324.82 156.949ZM1267.88 84.6389H1259.01V86.4308H1267.88V84.6389ZM1258.11 85.5348V221H1259.9V85.5348H1258.11ZM1259.01 221.896H1286.22V220.104H1259.01V221.896ZM1287.12 221V150.042H1285.32V221H1287.12ZM1285.52 150.601L1318.98 192.531L1320.38 191.413L1286.92 149.483L1285.52 150.601ZM1319.68 192.868H1328.55V191.076H1319.68V192.868ZM1329.25 192.531L1362.72 150.601L1361.32 149.483L1327.85 191.413L1329.25 192.531ZM1361.12 150.042V221H1362.91V150.042H1361.12ZM1362.02 221.896H1389.23V220.104H1362.02V221.896ZM1390.13 221V85.5348H1388.33V221H1390.13ZM1389.23 84.6389H1380.36V86.4308H1389.23V84.6389Z" fill="white"/>
<path d="M651.075 241.562H651.523V241.085L651.047 241.115L651.075 241.562ZM561.168 208.099L560.891 207.747L560.544 208.02L560.813 208.371L561.168 208.099ZM587.173 154.477L586.725 154.47V154.477H587.173ZM516.215 85.5348L516.206 85.9827L516.215 85.9829L516.224 85.9827L516.215 85.5348ZM445.66 154.477L446.108 154.484L446.108 154.477L446.108 154.47L445.66 154.477ZM516.215 223.419V222.971L516.206 222.971L516.215 223.419ZM538.591 219.992L538.957 219.734L538.77 219.469L538.46 219.564L538.591 219.992ZM651.075 262.93L651.187 263.364L651.523 263.277V262.93H651.075ZM651.047 241.115C641.374 241.719 635.136 241.92 632.53 241.92V242.816C635.164 242.816 641.424 242.614 651.103 242.009L651.047 241.115ZM632.53 241.92C616.859 241.92 603.573 239.208 591.979 233.599C580.386 227.99 570.46 219.473 561.524 207.826L560.813 208.371C569.818 220.108 579.849 228.725 591.589 234.405C603.329 240.085 616.753 242.816 632.53 242.816V241.92ZM561.446 208.451C577.677 195.668 587.621 176.39 587.621 154.477H586.725C586.725 176.107 576.914 195.129 560.891 207.747L561.446 208.451ZM587.621 154.484C588.23 116.118 554.747 84.2755 516.206 85.087L516.224 85.9827C554.285 85.1814 587.326 116.637 586.725 154.47L587.621 154.484ZM516.224 85.087C477.679 84.2755 444.603 116.121 445.212 154.484L446.108 154.47C445.508 116.634 478.149 85.1815 516.206 85.9827L516.224 85.087ZM445.212 154.47C444.603 192.833 477.679 224.678 516.224 223.867L516.206 222.971C478.149 223.772 445.508 192.32 446.108 154.484L445.212 154.47ZM516.215 223.867C523.923 223.867 531.426 222.65 538.722 220.42L538.46 219.564C531.242 221.769 523.827 222.971 516.215 222.971V223.867ZM538.225 220.25C559.478 250.41 591.064 265.998 627.288 265.998V265.102C591.345 265.102 560.037 249.647 538.957 219.734L538.225 220.25ZM627.288 265.998C636.184 265.998 644.085 265.19 651.187 263.364L650.964 262.496C643.955 264.298 636.132 265.102 627.288 265.102V265.998ZM651.523 262.93V241.562H650.627V262.93H651.523ZM516.417 197.773C492.078 197.773 474.129 179.838 474.129 154.477H473.233C473.233 180.319 491.569 198.669 516.417 198.669V197.773ZM474.129 154.477C474.129 129.116 492.078 111.181 516.417 111.181V110.285C491.569 110.285 473.233 128.635 473.233 154.477H474.129ZM516.417 111.181C540.553 111.181 558.705 129.518 558.705 154.477H559.601C559.601 129.04 541.064 110.285 516.417 110.285V111.181ZM558.705 154.477C558.705 179.836 540.555 197.773 516.417 197.773V198.669C541.061 198.669 559.601 180.32 559.601 154.477H558.705ZM715.849 87.9538H716.297V87.5059H715.849V87.9538ZM688.635 87.9538V87.5059H688.187V87.9538H688.635ZM630.175 87.9538H630.623V87.5059H630.175V87.9538ZM602.961 87.9538V87.5059H602.513V87.9538H602.961ZM602.513 165.967C602.513 183.71 608.497 198.192 618.621 208.24C628.744 218.287 642.974 223.867 659.405 223.867V222.971C643.18 222.971 629.187 217.464 619.252 207.604C609.319 197.745 603.409 183.502 603.409 165.967H602.513ZM659.405 223.867C675.636 223.867 689.864 218.286 700.037 208.241C710.211 198.194 716.297 183.712 716.297 165.967H715.401C715.401 183.5 709.392 197.744 699.407 207.603C689.421 217.465 675.428 222.971 659.405 222.971V223.867ZM716.297 165.967V87.9538H715.401V165.967H716.297ZM715.849 87.5059H688.635V88.4018H715.849V87.5059ZM688.187 87.9538V167.983H689.083V87.9538H688.187ZM688.187 167.983C688.187 177.568 685.293 185.004 680.279 190.043C675.265 195.082 668.081 197.773 659.405 197.773V198.669C668.267 198.669 675.698 195.917 680.914 190.675C686.13 185.433 689.083 177.75 689.083 167.983H688.187ZM659.405 197.773C650.933 197.773 643.747 195.083 638.681 190.042C633.615 185.001 630.623 177.564 630.623 167.983H629.727C629.727 177.754 632.783 185.437 638.049 190.677C643.313 195.915 650.742 198.669 659.405 198.669V197.773ZM630.623 167.983V87.9538H629.727V167.983H630.623ZM630.175 87.5059H602.961V88.4018H630.175V87.5059ZM602.513 87.9538V165.967H603.409V87.9538H602.513ZM820.029 221L819.617 221.177L819.734 221.448H820.029V221ZM849.259 221V221.448H849.944L849.669 220.82L849.259 221ZM789.993 85.5348L790.403 85.3553L790.286 85.0869H789.993V85.5348ZM780.921 85.5348V85.0869H780.629L780.511 85.3548L780.921 85.5348ZM721.454 221L721.044 220.82L720.768 221.448H721.454V221ZM750.684 221V221.448H750.979L751.095 221.177L750.684 221ZM758.142 203.664V203.216H757.847L757.731 203.487L758.142 203.664ZM812.57 203.664L812.982 203.487L812.865 203.216H812.57V203.664ZM803.096 181.288V181.736H803.754L803.512 181.123L803.096 181.288ZM767.617 181.288L767.2 181.123L766.958 181.736H767.617V181.288ZM785.356 136.334L785.773 136.17L785.356 135.114L784.94 136.17L785.356 136.334ZM820.029 221.448H849.259V220.552H820.029V221.448ZM849.669 220.82L790.403 85.3553L789.582 85.7144L848.848 221.18L849.669 220.82ZM789.993 85.0869H780.921V85.9828H789.993V85.0869ZM780.511 85.3548L721.044 220.82L721.864 221.18L781.332 85.7149L780.511 85.3548ZM721.454 221.448H750.684V220.552H721.454V221.448ZM751.095 221.177L758.554 203.841L757.731 203.487L750.272 220.823L751.095 221.177ZM758.142 204.112H812.57V203.216H758.142V204.112ZM812.159 203.841L819.617 221.177L820.44 220.823L812.982 203.487L812.159 203.841ZM803.096 180.84H767.617V181.736H803.096V180.84ZM768.033 181.452L785.773 136.499L784.94 136.17L767.2 181.123L768.033 181.452ZM784.94 136.499L802.679 181.452L803.512 181.123L785.773 136.17L784.94 136.499ZM947.457 87.9538V87.5059H947.009V87.9538H947.457ZM947.457 167.378L947.132 167.686L947.905 168.506V167.378H947.457ZM870.25 85.5348L870.576 85.2274L870.444 85.0869H870.25V85.5348ZM861.381 85.5348V85.0869H860.933V85.5348H861.381ZM861.381 221H860.933V221.448H861.381V221ZM888.595 221V221.448H889.043V221H888.595ZM888.595 141.172L888.922 140.866L888.147 140.038V141.172H888.595ZM965.6 223.419L965.273 223.725L965.406 223.867H965.6V223.419ZM974.671 223.419V223.867H975.119V223.419H974.671ZM974.671 87.9538H975.119V87.5059H974.671V87.9538ZM947.009 87.9538V167.378H947.905V87.9538H947.009ZM947.783 167.071L870.576 85.2274L869.924 85.8422L947.132 167.686L947.783 167.071ZM870.25 85.0869H861.381V85.9828H870.25V85.0869ZM860.933 85.5348V221H861.829V85.5348H860.933ZM861.381 221.448H888.595V220.552H861.381V221.448ZM889.043 221V141.172H888.147V221H889.043ZM888.268 141.478L965.273 223.725L965.927 223.113L888.922 140.866L888.268 141.478ZM965.6 223.867H974.671V222.971H965.6V223.867ZM975.119 223.419V87.9538H974.223V223.419H975.119ZM974.671 87.5059H947.457V88.4018H974.671V87.5059ZM1029.08 221H1028.63V221.448H1029.08V221ZM1056.29 221V221.448H1056.74V221H1056.29ZM1056.29 112.547V112.099H1055.84V112.547H1056.29ZM1099.03 112.547V112.995H1099.48V112.547H1099.03ZM1099.03 87.9538H1099.48V87.5059H1099.03V87.9538ZM986.543 87.9538V87.5059H986.095V87.9538H986.543ZM986.543 112.547H986.095V112.995H986.543V112.547ZM1029.08 112.547H1029.53V112.099H1029.08V112.547ZM1029.08 221.448H1056.29V220.552H1029.08V221.448ZM1056.74 221V112.547H1055.84V221H1056.74ZM1056.29 112.995H1099.03V112.099H1056.29V112.995ZM1099.48 112.547V87.9538H1098.58V112.547H1099.48ZM1099.03 87.5059H986.543V88.4018H1099.03V87.5059ZM986.095 87.9538V112.547H986.991V87.9538H986.095ZM986.543 112.995H1029.08V112.099H986.543V112.995ZM1028.63 112.547V221H1029.53V112.547H1028.63ZM1222.59 87.9538H1223.04V87.5059H1222.59V87.9538ZM1195.38 87.9538V87.5059H1194.93V87.9538H1195.38ZM1136.92 87.9538H1137.37V87.5059H1136.92V87.9538ZM1109.7 87.9538V87.5059H1109.26V87.9538H1109.7ZM1109.26 165.967C1109.26 183.71 1115.24 198.192 1125.36 208.24C1135.49 218.287 1149.72 223.867 1166.15 223.867V222.971C1149.92 222.971 1135.93 217.464 1125.99 207.604C1116.06 197.745 1110.15 183.502 1110.15 165.967H1109.26ZM1166.15 223.867C1182.38 223.867 1196.61 218.286 1206.78 208.241C1216.95 198.194 1223.04 183.712 1223.04 165.967H1222.14C1222.14 183.5 1216.13 197.744 1206.15 207.603C1196.16 217.465 1182.17 222.971 1166.15 222.971V223.867ZM1223.04 165.967V87.9538H1222.14V165.967H1223.04ZM1222.59 87.5059H1195.38V88.4018H1222.59V87.5059ZM1194.93 87.9538V167.983H1195.83V87.9538H1194.93ZM1194.93 167.983C1194.93 177.568 1192.04 185.004 1187.02 190.043C1182.01 195.082 1174.82 197.773 1166.15 197.773V198.669C1175.01 198.669 1182.44 195.917 1187.66 190.675C1192.87 185.433 1195.83 177.75 1195.83 167.983H1194.93ZM1166.15 197.773C1157.68 197.773 1150.49 195.083 1145.42 190.042C1140.36 185.001 1137.37 177.564 1137.37 167.983H1136.47C1136.47 177.754 1139.53 185.437 1144.79 190.677C1150.06 195.915 1157.48 198.669 1166.15 198.669V197.773ZM1137.37 167.983V87.9538H1136.47V167.983H1137.37ZM1136.92 87.5059H1109.7V88.4018H1136.92V87.5059ZM1109.26 87.9538V165.967H1110.15V87.9538H1109.26ZM1367.37 85.5348V85.0869H1367.15L1367.02 85.259L1367.37 85.5348ZM1311.13 157.501L1310.77 157.777L1311.13 158.228L1311.48 157.777L1311.13 157.501ZM1254.88 85.5348L1255.24 85.259L1255.1 85.0869H1254.88V85.5348ZM1246.01 85.5348V85.0869H1245.57V85.5348H1246.01ZM1246.01 221H1245.57V221.448H1246.01V221ZM1273.23 221V221.448H1273.68V221H1273.23ZM1273.23 150.042L1273.58 149.763L1272.78 148.763V150.042H1273.23ZM1306.69 191.972L1306.34 192.251L1306.48 192.42H1306.69V191.972ZM1315.56 191.972V192.42H1315.78L1315.91 192.251L1315.56 191.972ZM1349.02 150.042H1349.47V148.763L1348.67 149.763L1349.02 150.042ZM1349.02 221H1348.58V221.448H1349.02V221ZM1376.24 221V221.448H1376.69V221H1376.24ZM1376.24 85.5348H1376.69V85.0869H1376.24V85.5348ZM1367.02 85.259L1310.77 157.225L1311.48 157.777L1367.72 85.8107L1367.02 85.259ZM1311.48 157.225L1255.24 85.259L1254.53 85.8107L1310.77 157.777L1311.48 157.225ZM1254.88 85.0869H1246.01V85.9828H1254.88V85.0869ZM1245.57 85.5348V221H1246.46V85.5348H1245.57ZM1246.01 221.448H1273.23V220.552H1246.01V221.448ZM1273.68 221V150.042H1272.78V221H1273.68ZM1272.88 150.321L1306.34 192.251L1307.04 191.692L1273.58 149.763L1272.88 150.321ZM1306.69 192.42H1315.56V191.524H1306.69V192.42ZM1315.91 192.251L1349.37 150.321L1348.67 149.763L1315.21 191.692L1315.91 192.251ZM1348.58 150.042V221H1349.47V150.042H1348.58ZM1349.02 221.448H1376.24V220.552H1349.02V221.448ZM1376.69 221V85.5348H1375.79V221H1376.69ZM1376.24 85.0869H1367.37V85.9828H1376.24V85.0869Z" fill="white"/>
<path d="M675.266 241.562C665.59 242.166 659.341 242.368 656.72 242.368C625.273 242.368 603.3 231.482 585.359 208.099C601.486 195.399 611.363 176.248 611.363 154.477C611.968 116.377 578.707 84.7285 540.405 85.5348C502.104 84.7285 469.246 116.377 469.851 154.477C469.246 192.577 502.104 224.225 540.405 223.419C548.066 223.419 555.524 222.21 562.781 219.992C583.948 250.028 615.395 265.55 651.479 265.55C660.348 265.55 668.21 264.744 675.266 262.93V241.562ZM540.607 198.221C516.014 198.221 497.871 180.078 497.871 154.477C497.871 128.876 516.014 110.733 540.607 110.733C564.999 110.733 583.343 129.279 583.343 154.477C583.343 180.078 564.999 198.221 540.607 198.221ZM627.152 165.967C627.152 201.245 650.939 223.419 683.595 223.419C715.849 223.419 740.039 201.245 740.039 165.967V87.9538H712.825V167.983C712.825 187.335 701.133 198.221 683.595 198.221C666.461 198.221 654.366 187.335 654.366 167.983V87.9538H627.152V165.967ZM844.219 221H873.449L814.183 85.5348H805.112L745.644 221H774.874L782.333 203.664H836.761L844.219 221ZM827.286 181.288H791.807L809.547 136.334L827.286 181.288ZM971.648 87.9538V167.378L894.441 85.5348H885.571V221H912.785V141.172L989.79 223.419H998.862V87.9538H971.648ZM1053.27 221H1080.48V112.547H1123.22V87.9538H1010.73V112.547H1053.27V221ZM1133.89 165.967C1133.89 201.245 1157.68 223.419 1190.34 223.419C1222.59 223.419 1246.78 201.245 1246.78 165.967V87.9538H1219.57V167.983C1219.57 187.335 1207.88 198.221 1190.34 198.221C1173.2 198.221 1161.11 187.335 1161.11 167.983V87.9538H1133.89V165.967ZM1391.56 85.5348L1335.32 157.501L1279.07 85.5348H1270.2V221H1297.42V150.042L1330.88 191.972H1339.75L1373.21 150.042V221H1400.43V85.5348H1391.56Z" fill="white"/>
<path d="M617.174 298.226L584.114 378.86L550.853 298.226H520.01L579.478 433.691H588.549L647.815 298.226H617.174ZM648.34 364.749C647.735 402.848 680.593 434.497 718.895 433.691C757.196 434.497 790.457 402.848 789.852 364.749C790.457 326.649 757.196 295 718.895 295.807C680.593 295 647.735 326.649 648.34 364.749ZM761.832 364.749C761.832 390.35 743.488 408.493 719.096 408.493C694.503 408.493 676.36 390.35 676.36 364.749C676.36 339.148 694.503 321.005 719.096 321.005C743.488 321.005 761.832 339.551 761.832 364.749ZM834.327 431.272H861.541V322.819H904.277V298.226H791.793V322.819H834.327V431.272ZM916.163 431.272H943.377V298.226H916.163V431.272ZM1053.87 298.226V377.65L976.665 295.807H967.795V431.272H995.009V351.444L1072.01 433.691H1081.09V298.226H1053.87ZM1097.8 364.749C1097.19 402.848 1129.85 434.497 1168.96 433.691C1182.86 433.691 1195.36 430.466 1206.45 423.813C1217.74 417.161 1226.41 408.291 1232.45 397.607V358.298H1168.55V381.884H1205.24V392.769C1197.78 403.05 1185.49 409.299 1170.16 409.299C1143.76 409.299 1125.82 390.552 1125.82 364.749C1125.82 339.349 1143.15 321.005 1168.55 321.005C1183.87 321.005 1196.17 327.456 1205.64 340.559L1225 324.633C1212.09 306.289 1192.34 295.807 1168.96 295.807C1129.65 295.202 1096.99 326.448 1097.8 364.749Z" fill="#790BF9"/>
</g>
<defs>
<clipPath id="clip0_45_2823">
<rect width="1200" height="619" rx="50" fill="white"/>
</clipPath>
</defs>
</svg>
