<svg width="1200" height="620" viewBox="0 0 1200 620" fill="none" xmlns="http://www.w3.org/2000/svg">
<rect width="400" height="310" fill="#D3D7DF"/>
<path d="M31.354 44.14C30.598 44.14 29.8653 44.0327 29.156 43.818C28.456 43.6033 27.9007 43.3187 27.49 42.964L28.12 41.55C28.5213 41.8673 29.0113 42.1287 29.59 42.334C30.178 42.53 30.766 42.628 31.354 42.628C32.082 42.628 32.6233 42.5113 32.978 42.278C33.342 42.0447 33.524 41.7367 33.524 41.354C33.524 41.074 33.4213 40.8453 33.216 40.668C33.02 40.4813 32.768 40.3367 32.46 40.234C32.152 40.1313 31.732 40.0147 31.2 39.884C30.4533 39.7067 29.8467 39.5293 29.38 39.352C28.9227 39.1747 28.526 38.8993 28.19 38.526C27.8633 38.1433 27.7 37.63 27.7 36.986C27.7 36.4447 27.8447 35.9547 28.134 35.516C28.4327 35.068 28.876 34.7133 29.464 34.452C30.0613 34.1907 30.7893 34.06 31.648 34.06C32.2453 34.06 32.8333 34.1347 33.412 34.284C33.9907 34.4333 34.49 34.648 34.91 34.928L34.336 36.342C33.9067 36.09 33.4587 35.8987 32.992 35.768C32.5253 35.6373 32.0727 35.572 31.634 35.572C30.9153 35.572 30.3787 35.6933 30.024 35.936C29.6787 36.1787 29.506 36.5007 29.506 36.902C29.506 37.182 29.604 37.4107 29.8 37.588C30.0053 37.7653 30.262 37.9053 30.57 38.008C30.878 38.1107 31.298 38.2273 31.83 38.358C32.558 38.526 33.1553 38.7033 33.622 38.89C34.0887 39.0673 34.4853 39.3427 34.812 39.716C35.148 40.0893 35.316 40.5933 35.316 41.228C35.316 41.7693 35.1667 42.2593 34.868 42.698C34.5787 43.1367 34.1353 43.4867 33.538 43.748C32.9407 44.0093 32.2127 44.14 31.354 44.14ZM46.1227 44L46.1087 37.504L42.8887 42.88H42.0767L38.8567 37.588V44H37.1207V34.2H38.6187L42.5107 40.696L46.3327 34.2H47.8307L47.8447 44H46.1227ZM55.0698 44.14C54.0711 44.14 53.1704 43.9253 52.3678 43.496C51.5651 43.0573 50.9351 42.4553 50.4778 41.69C50.0204 40.9153 49.7918 40.052 49.7918 39.1C49.7918 38.148 50.0204 37.2893 50.4778 36.524C50.9351 35.7493 51.5651 35.1473 52.3678 34.718C53.1704 34.2793 54.0711 34.06 55.0698 34.06C56.0684 34.06 56.9691 34.2793 57.7718 34.718C58.5744 35.1473 59.2044 35.7447 59.6618 36.51C60.1191 37.2753 60.3478 38.1387 60.3478 39.1C60.3478 40.0613 60.1191 40.9247 59.6618 41.69C59.2044 42.4553 58.5744 43.0573 57.7718 43.496C56.9691 43.9253 56.0684 44.14 55.0698 44.14ZM55.0698 42.544C55.7231 42.544 56.3111 42.3993 56.8338 42.11C57.3564 41.8113 57.7671 41.4007 58.0658 40.878C58.3644 40.346 58.5138 39.7533 58.5138 39.1C58.5138 38.4467 58.3644 37.8587 58.0658 37.336C57.7671 36.804 57.3564 36.3933 56.8338 36.104C56.3111 35.8053 55.7231 35.656 55.0698 35.656C54.4164 35.656 53.8284 35.8053 53.3058 36.104C52.7831 36.3933 52.3724 36.804 52.0738 37.336C51.7751 37.8587 51.6258 38.4467 51.6258 39.1C51.6258 39.7533 51.7751 40.346 52.0738 40.878C52.3724 41.4007 52.7831 41.8113 53.3058 42.11C53.8284 42.3993 54.4164 42.544 55.0698 42.544ZM65.6509 39.898L64.0969 41.494V44H62.2769V34.2H64.0969V39.226L68.9409 34.2H70.9849L66.8689 38.582L71.2369 44H69.1089L65.6509 39.898ZM79.8262 42.474V44H72.4762V34.2H79.6302V35.726H74.2962V38.274H79.0282V39.772H74.2962V42.474H79.8262ZM92.4162 38.988H94.1382V42.894C93.6342 43.2953 93.0462 43.6033 92.3742 43.818C91.7022 44.0327 91.0115 44.14 90.3022 44.14C89.3035 44.14 88.4029 43.9253 87.6002 43.496C86.7975 43.0573 86.1675 42.4553 85.7102 41.69C85.2529 40.9247 85.0242 40.0613 85.0242 39.1C85.0242 38.1387 85.2529 37.2753 85.7102 36.51C86.1675 35.7447 86.7975 35.1473 87.6002 34.718C88.4122 34.2793 89.3222 34.06 90.3302 34.06C91.1515 34.06 91.8982 34.1953 92.5702 34.466C93.2422 34.7367 93.8069 35.1333 94.2642 35.656L93.1162 36.776C92.3695 36.0293 91.4689 35.656 90.4142 35.656C89.7235 35.656 89.1075 35.8007 88.5662 36.09C88.0342 36.3793 87.6142 36.7853 87.3062 37.308C87.0075 37.8307 86.8582 38.428 86.8582 39.1C86.8582 39.7533 87.0075 40.3413 87.3062 40.864C87.6142 41.3867 88.0342 41.7973 88.5662 42.096C89.1075 42.3947 89.7189 42.544 90.4002 42.544C91.1655 42.544 91.8375 42.376 92.4162 42.04V38.988ZM102.951 44L100.949 41.13C100.865 41.1393 100.739 41.144 100.571 41.144H98.3587V44H96.5387V34.2H100.571C101.42 34.2 102.157 34.34 102.783 34.62C103.417 34.9 103.903 35.3013 104.239 35.824C104.575 36.3467 104.743 36.9673 104.743 37.686C104.743 38.4233 104.561 39.058 104.197 39.59C103.842 40.122 103.329 40.5187 102.657 40.78L104.911 44H102.951ZM102.909 37.686C102.909 37.0607 102.703 36.58 102.293 36.244C101.882 35.908 101.28 35.74 100.487 35.74H98.3587V39.646H100.487C101.28 39.646 101.882 39.478 102.293 39.142C102.703 38.7967 102.909 38.3113 102.909 37.686ZM113.135 41.732H108.235L107.269 44H105.393L109.803 34.2H111.595L116.019 44H114.115L113.135 41.732ZM112.533 40.304L110.685 36.02L108.851 40.304H112.533ZM120.905 40.542V44H119.085V40.57L115.235 34.2H117.181L120.051 38.974L122.949 34.2H124.741L120.905 40.542Z" fill="#333333"/>
<path d="M34.252 61.63L33.888 64.57H35.876V65.34H33.79L33.468 68H32.712L33.034 65.34H30.164L29.828 68H29.072L29.394 65.34H27.406V64.57H29.492L29.856 61.63H27.854V60.86H29.954L30.276 58.2H31.046L30.71 60.86H33.594L33.916 58.2H34.672L34.35 60.86H36.324V61.63H34.252ZM33.496 61.63H30.626L30.248 64.57H33.132L33.496 61.63ZM38.344 58.2H42.334C43.37 58.2 44.2847 58.41 45.078 58.83C45.8714 59.2407 46.4874 59.8193 46.926 60.566C47.3647 61.3033 47.584 62.148 47.584 63.1C47.584 64.052 47.3647 64.9013 46.926 65.648C46.4874 66.3853 45.8714 66.964 45.078 67.384C44.2847 67.7947 43.37 68 42.334 68H38.344V58.2ZM42.278 67.104C43.1367 67.104 43.888 66.936 44.532 66.6C45.176 66.2547 45.6754 65.7833 46.03 65.186C46.3847 64.5793 46.562 63.884 46.562 63.1C46.562 62.316 46.3847 61.6253 46.03 61.028C45.6754 60.4213 45.176 59.95 44.532 59.614C43.888 59.2687 43.1367 59.096 42.278 59.096H39.38V67.104H42.278ZM52.2241 62.4C53.2507 62.456 54.0301 62.736 54.5621 63.24C55.1034 63.7347 55.3741 64.3833 55.3741 65.186C55.3741 65.746 55.2387 66.2453 54.9681 66.684C54.6974 67.1133 54.2961 67.454 53.7641 67.706C53.2321 67.958 52.5834 68.084 51.8181 68.084C51.1087 68.084 50.4367 67.972 49.8021 67.748C49.1767 67.5147 48.6727 67.2067 48.2901 66.824L48.7801 66.026C49.1067 66.362 49.5407 66.6373 50.0821 66.852C50.6234 67.0573 51.2021 67.16 51.8181 67.16C52.6207 67.16 53.2414 66.9873 53.6801 66.642C54.1187 66.2873 54.3381 65.802 54.3381 65.186C54.3381 64.5793 54.1187 64.1033 53.6801 63.758C53.2414 63.4127 52.5787 63.24 51.6921 63.24H50.9921V62.498L53.7081 59.096H48.6961V58.2H54.9961V58.914L52.2241 62.4ZM57.6624 58.2H61.6524C62.6884 58.2 63.6031 58.41 64.3964 58.83C65.1897 59.2407 65.8057 59.8193 66.2444 60.566C66.6831 61.3033 66.9024 62.148 66.9024 63.1C66.9024 64.052 66.6831 64.9013 66.2444 65.648C65.8057 66.3853 65.1897 66.964 64.3964 67.384C63.6031 67.7947 62.6884 68 61.6524 68H57.6624V58.2ZM61.5964 67.104C62.4551 67.104 63.2064 66.936 63.8504 66.6C64.4944 66.2547 64.9937 65.7833 65.3484 65.186C65.7031 64.5793 65.8804 63.884 65.8804 63.1C65.8804 62.316 65.7031 61.6253 65.3484 61.028C64.9937 60.4213 64.4944 59.95 63.8504 59.614C63.2064 59.2687 62.4551 59.096 61.5964 59.096H58.6984V67.104H61.5964ZM75.2768 58.2V58.914L71.1748 68H70.0828L74.1148 59.096H69.0748V60.93H68.0808V58.2H75.2768ZM77.473 58.2H81.463C82.499 58.2 83.4136 58.41 84.207 58.83C85.0003 59.2407 85.6163 59.8193 86.055 60.566C86.4936 61.3033 86.713 62.148 86.713 63.1C86.713 64.052 86.4936 64.9013 86.055 65.648C85.6163 66.3853 85.0003 66.964 84.207 67.384C83.4136 67.7947 82.499 68 81.463 68H77.473V58.2ZM81.407 67.104C82.2656 67.104 83.017 66.936 83.661 66.6C84.305 66.2547 84.8043 65.7833 85.159 65.186C85.5136 64.5793 85.691 63.884 85.691 63.1C85.691 62.316 85.5136 61.6253 85.159 61.028C84.8043 60.4213 84.305 59.95 83.661 59.614C83.017 59.2687 82.2656 59.096 81.407 59.096H78.509V67.104H81.407ZM90.0754 59.096V62.946H95.1434V63.842H90.0754V68H89.0394V58.2H95.7594V59.096H90.0754Z" fill="#333333"/>
<rect width="400" height="310" transform="translate(400)" fill="#2A2A2C"/>
<path d="M435.008 38.988H436.73V42.894C436.226 43.2953 435.638 43.6033 434.966 43.818C434.294 44.0327 433.603 44.14 432.894 44.14C431.895 44.14 430.995 43.9253 430.192 43.496C429.389 43.0573 428.759 42.4553 428.302 41.69C427.845 40.9247 427.616 40.0613 427.616 39.1C427.616 38.1387 427.845 37.2753 428.302 36.51C428.759 35.7447 429.389 35.1473 430.192 34.718C431.004 34.2793 431.914 34.06 432.922 34.06C433.743 34.06 434.49 34.1953 435.162 34.466C435.834 34.7367 436.399 35.1333 436.856 35.656L435.708 36.776C434.961 36.0293 434.061 35.656 433.006 35.656C432.315 35.656 431.699 35.8007 431.158 36.09C430.626 36.3793 430.206 36.7853 429.898 37.308C429.599 37.8307 429.45 38.428 429.45 39.1C429.45 39.7533 429.599 40.3413 429.898 40.864C430.206 41.3867 430.626 41.7973 431.158 42.096C431.699 42.3947 432.311 42.544 432.992 42.544C433.757 42.544 434.429 42.376 435.008 42.04V38.988ZM445.542 44L443.54 41.13C443.456 41.1393 443.33 41.144 443.162 41.144H440.95V44H439.13V34.2H443.162C444.012 34.2 444.749 34.34 445.374 34.62C446.009 34.9 446.494 35.3013 446.83 35.824C447.166 36.3467 447.334 36.9673 447.334 37.686C447.334 38.4233 447.152 39.058 446.788 39.59C446.434 40.122 445.92 40.5187 445.248 40.78L447.502 44H445.542ZM445.5 37.686C445.5 37.0607 445.295 36.58 444.884 36.244C444.474 35.908 443.872 35.74 443.078 35.74H440.95V39.646H443.078C443.872 39.646 444.474 39.478 444.884 39.142C445.295 38.7967 445.5 38.3113 445.5 37.686ZM455.727 41.732H450.827L449.861 44H447.985L452.395 34.2H454.187L458.611 44H456.707L455.727 41.732ZM455.125 40.304L453.277 36.02L451.443 40.304H455.125ZM463.889 34.2C464.738 34.2 465.476 34.34 466.101 34.62C466.736 34.9 467.221 35.3013 467.557 35.824C467.893 36.3467 468.061 36.9673 468.061 37.686C468.061 38.3953 467.893 39.016 467.557 39.548C467.221 40.0707 466.736 40.472 466.101 40.752C465.476 41.032 464.738 41.172 463.889 41.172H461.677V44H459.857V34.2H463.889ZM463.805 39.632C464.598 39.632 465.2 39.464 465.611 39.128C466.022 38.792 466.227 38.3113 466.227 37.686C466.227 37.0607 466.022 36.58 465.611 36.244C465.2 35.908 464.598 35.74 463.805 35.74H461.677V39.632H463.805ZM478.587 34.2V44H476.767V39.8H471.699V44H469.879V34.2H471.699V38.246H476.767V34.2H478.587ZM481.212 34.2H483.032V44H481.212V34.2ZM487.671 35.74H484.423V34.2H492.739V35.74H489.491V44H487.671V35.74ZM501.455 42.474V44H494.105V34.2H501.259V35.726H495.925V38.274H500.657V39.772H495.925V42.474H501.455ZM514.297 38.904C514.838 39.0813 515.268 39.38 515.585 39.8C515.902 40.2107 516.061 40.724 516.061 41.34C516.061 42.1893 515.734 42.8473 515.081 43.314C514.428 43.7713 513.476 44 512.225 44H507.353V34.2H511.945C513.102 34.2 513.994 34.4287 514.619 34.886C515.244 35.334 515.557 35.9547 515.557 36.748C515.557 37.2333 515.445 37.6627 515.221 38.036C514.997 38.4093 514.689 38.6987 514.297 38.904ZM509.173 35.628V38.33H511.749C512.384 38.33 512.869 38.218 513.205 37.994C513.55 37.7607 513.723 37.4247 513.723 36.986C513.723 36.538 513.55 36.202 513.205 35.978C512.869 35.7447 512.384 35.628 511.749 35.628H509.173ZM512.113 42.572C513.522 42.572 514.227 42.1007 514.227 41.158C514.227 40.2153 513.522 39.744 512.113 39.744H509.173V42.572H512.113ZM518.004 34.2H519.824V42.46H524.948V44H518.004V34.2ZM532.809 41.732H527.909L526.943 44H525.067L529.477 34.2H531.269L535.693 44H533.789L532.809 41.732ZM532.207 40.304L530.359 36.02L528.525 40.304H532.207ZM541.338 44.14C540.349 44.14 539.453 43.9253 538.65 43.496C537.857 43.0573 537.232 42.4553 536.774 41.69C536.326 40.9247 536.102 40.0613 536.102 39.1C536.102 38.1387 536.331 37.2753 536.788 36.51C537.246 35.7447 537.871 35.1473 538.664 34.718C539.467 34.2793 540.363 34.06 541.352 34.06C542.155 34.06 542.888 34.2 543.55 34.48C544.213 34.76 544.773 35.166 545.23 35.698L544.054 36.804C543.345 36.0387 542.472 35.656 541.436 35.656C540.764 35.656 540.162 35.8053 539.63 36.104C539.098 36.3933 538.683 36.7993 538.384 37.322C538.086 37.8447 537.936 38.4373 537.936 39.1C537.936 39.7627 538.086 40.3553 538.384 40.878C538.683 41.4007 539.098 41.8113 539.63 42.11C540.162 42.3993 540.764 42.544 541.436 42.544C542.472 42.544 543.345 42.1567 544.054 41.382L545.23 42.502C544.773 43.034 544.208 43.44 543.536 43.72C542.874 44 542.141 44.14 541.338 44.14ZM550.348 39.898L548.794 41.494V44H546.974V34.2H548.794V39.226L553.638 34.2H555.682L551.566 38.582L555.934 44H553.806L550.348 39.898Z" fill="white"/>
<path d="M434.252 61.63L433.888 64.57H435.876V65.34H433.79L433.468 68H432.712L433.034 65.34H430.164L429.828 68H429.072L429.394 65.34H427.406V64.57H429.492L429.856 61.63H427.854V60.86H429.954L430.276 58.2H431.046L430.71 60.86H433.594L433.916 58.2H434.672L434.35 60.86H436.324V61.63H434.252ZM433.496 61.63H430.626L430.248 64.57H433.132L433.496 61.63ZM444.168 67.104V68H437.294V67.286L441.368 63.296C441.881 62.792 442.227 62.358 442.404 61.994C442.591 61.6207 442.684 61.2473 442.684 60.874C442.684 60.2953 442.483 59.8473 442.082 59.53C441.69 59.2033 441.125 59.04 440.388 59.04C439.24 59.04 438.349 59.404 437.714 60.132L437 59.516C437.383 59.068 437.868 58.7227 438.456 58.48C439.053 58.2373 439.725 58.116 440.472 58.116C441.471 58.116 442.259 58.354 442.838 58.83C443.426 59.2967 443.72 59.9407 443.72 60.762C443.72 61.266 443.608 61.7513 443.384 62.218C443.16 62.6847 442.735 63.2213 442.11 63.828L438.778 67.104H444.168ZM452.474 65.382H447.014L445.838 68H444.76L449.24 58.2H450.262L454.742 68H453.65L452.474 65.382ZM452.096 64.542L449.744 59.278L447.392 64.542H452.096ZM462.188 67.104V68H455.314V67.286L459.388 63.296C459.901 62.792 460.246 62.358 460.424 61.994C460.61 61.6207 460.704 61.2473 460.704 60.874C460.704 60.2953 460.503 59.8473 460.102 59.53C459.71 59.2033 459.145 59.04 458.408 59.04C457.26 59.04 456.368 59.404 455.734 60.132L455.02 59.516C455.402 59.068 455.888 58.7227 456.476 58.48C457.073 58.2373 457.745 58.116 458.492 58.116C459.49 58.116 460.279 58.354 460.858 58.83C461.446 59.2967 461.74 59.9407 461.74 60.762C461.74 61.266 461.628 61.7513 461.404 62.218C461.18 62.6847 460.755 63.2213 460.13 63.828L456.798 67.104H462.188ZM470.494 65.382H465.034L463.858 68H462.78L467.26 58.2H468.282L472.762 68H471.67L470.494 65.382ZM470.116 64.542L467.764 59.278L465.412 64.542H470.116ZM480.207 67.104V68H473.333V67.286L477.407 63.296C477.92 62.792 478.266 62.358 478.443 61.994C478.63 61.6207 478.723 61.2473 478.723 60.874C478.723 60.2953 478.522 59.8473 478.121 59.53C477.729 59.2033 477.164 59.04 476.427 59.04C475.279 59.04 474.388 59.404 473.753 60.132L473.039 59.516C473.422 59.068 473.907 58.7227 474.495 58.48C475.092 58.2373 475.764 58.116 476.511 58.116C477.51 58.116 478.298 58.354 478.877 58.83C479.465 59.2967 479.759 59.9407 479.759 60.762C479.759 61.266 479.647 61.7513 479.423 62.218C479.199 62.6847 478.774 63.2213 478.149 63.828L474.817 67.104H480.207ZM486.596 68.084C485.625 68.084 484.748 67.8693 483.964 67.44C483.189 67.0107 482.578 66.418 482.13 65.662C481.691 64.8967 481.472 64.0427 481.472 63.1C481.472 62.1573 481.691 61.308 482.13 60.552C482.578 59.7867 483.194 59.1893 483.978 58.76C484.762 58.3307 485.639 58.116 486.61 58.116C487.338 58.116 488.01 58.2373 488.626 58.48C489.242 58.7227 489.765 59.0773 490.194 59.544L489.536 60.202C488.771 59.4273 487.805 59.04 486.638 59.04C485.863 59.04 485.159 59.2173 484.524 59.572C483.889 59.9267 483.39 60.412 483.026 61.028C482.671 61.644 482.494 62.3347 482.494 63.1C482.494 63.8653 482.671 64.556 483.026 65.172C483.39 65.788 483.889 66.2733 484.524 66.628C485.159 66.9827 485.863 67.16 486.638 67.16C487.814 67.16 488.78 66.768 489.536 65.984L490.194 66.642C489.765 67.1087 489.237 67.468 488.612 67.72C487.996 67.9627 487.324 68.084 486.596 68.084Z" fill="white"/>
<rect width="400" height="310" transform="translate(800)" fill="#ECEFF2"/>
<path d="M834.672 41.732H829.772L828.806 44H826.93L831.34 34.2H833.132L837.556 44H835.652L834.672 41.732ZM834.07 40.304L832.222 36.02L830.388 40.304H834.07ZM841.84 44.14C841.084 44.14 840.352 44.0327 839.642 43.818C838.942 43.6033 838.387 43.3187 837.976 42.964L838.606 41.55C839.008 41.8673 839.498 42.1287 840.076 42.334C840.664 42.53 841.252 42.628 841.84 42.628C842.568 42.628 843.11 42.5113 843.464 42.278C843.828 42.0447 844.01 41.7367 844.01 41.354C844.01 41.074 843.908 40.8453 843.702 40.668C843.506 40.4813 843.254 40.3367 842.946 40.234C842.638 40.1313 842.218 40.0147 841.686 39.884C840.94 39.7067 840.333 39.5293 839.866 39.352C839.409 39.1747 839.012 38.8993 838.676 38.526C838.35 38.1433 838.186 37.63 838.186 36.986C838.186 36.4447 838.331 35.9547 838.62 35.516C838.919 35.068 839.362 34.7133 839.95 34.452C840.548 34.1907 841.276 34.06 842.134 34.06C842.732 34.06 843.32 34.1347 843.898 34.284C844.477 34.4333 844.976 34.648 845.396 34.928L844.822 36.342C844.393 36.09 843.945 35.8987 843.478 35.768C843.012 35.6373 842.559 35.572 842.12 35.572C841.402 35.572 840.865 35.6933 840.51 35.936C840.165 36.1787 839.992 36.5007 839.992 36.902C839.992 37.182 840.09 37.4107 840.286 37.588C840.492 37.7653 840.748 37.9053 841.056 38.008C841.364 38.1107 841.784 38.2273 842.316 38.358C843.044 38.526 843.642 38.7033 844.108 38.89C844.575 39.0673 844.972 39.3427 845.298 39.716C845.634 40.0893 845.802 40.5933 845.802 41.228C845.802 41.7693 845.653 42.2593 845.354 42.698C845.065 43.1367 844.622 43.4867 844.024 43.748C843.427 44.0093 842.699 44.14 841.84 44.14ZM856.315 34.2V44H854.495V39.8H849.427V44H847.607V34.2H849.427V38.246H854.495V34.2H856.315ZM877.132 34.2L873.884 44H871.952L869.53 36.748L867.066 44H865.12L861.872 34.2H863.762L866.198 41.648L868.732 34.2H870.412L872.89 41.69L875.396 34.2H877.132ZM887.323 34.2V44H885.503V39.8H880.435V44H878.615V34.2H880.435V38.246H885.503V34.2H887.323ZM889.949 34.2H891.769V44H889.949V34.2ZM896.408 35.74H893.16V34.2H901.476V35.74H898.228V44H896.408V35.74ZM910.191 42.474V44H902.841V34.2H909.995V35.726H904.661V38.274H909.393V39.772H904.661V42.474H910.191Z" fill="#333333"/>
<path d="M834.252 61.63L833.888 64.57H835.876V65.34H833.79L833.468 68H832.712L833.034 65.34H830.164L829.828 68H829.072L829.394 65.34H827.406V64.57H829.492L829.856 61.63H827.854V60.86H829.954L830.276 58.2H831.046L830.71 60.86H833.594L833.916 58.2H834.672L834.35 60.86H836.324V61.63H834.252ZM833.496 61.63H830.626L830.248 64.57H833.132L833.496 61.63ZM845.274 67.104V68H838.344V58.2H845.064V59.096H839.38V62.582H844.448V63.464H839.38V67.104H845.274ZM851.911 68.084C850.94 68.084 850.063 67.8693 849.279 67.44C848.504 67.0107 847.893 66.418 847.445 65.662C847.006 64.8967 846.787 64.0427 846.787 63.1C846.787 62.1573 847.006 61.308 847.445 60.552C847.893 59.7867 848.509 59.1893 849.293 58.76C850.077 58.3307 850.954 58.116 851.925 58.116C852.653 58.116 853.325 58.2373 853.941 58.48C854.557 58.7227 855.079 59.0773 855.509 59.544L854.851 60.202C854.085 59.4273 853.119 59.04 851.953 59.04C851.178 59.04 850.473 59.2173 849.839 59.572C849.204 59.9267 848.705 60.412 848.341 61.028C847.986 61.644 847.809 62.3347 847.809 63.1C847.809 63.8653 847.986 64.556 848.341 65.172C848.705 65.788 849.204 66.2733 849.839 66.628C850.473 66.9827 851.178 67.16 851.953 67.16C853.129 67.16 854.095 66.768 854.851 65.984L855.509 66.642C855.079 67.1087 854.552 67.468 853.927 67.72C853.311 67.9627 852.639 68.084 851.911 68.084ZM864.647 67.104V68H857.717V58.2H864.437V59.096H858.753V62.582H863.821V63.464H858.753V67.104H864.647ZM868.118 59.096V62.946H873.186V63.842H868.118V68H867.082V58.2H873.802V59.096H868.118ZM876.978 59.096V62.946H882.046V63.842H876.978V68H875.942V58.2H882.662V59.096H876.978ZM890.611 67.104V68H883.737V67.286L887.811 63.296C888.325 62.792 888.67 62.358 888.847 61.994C889.034 61.6207 889.127 61.2473 889.127 60.874C889.127 60.2953 888.927 59.8473 888.525 59.53C888.133 59.2033 887.569 59.04 886.831 59.04C885.683 59.04 884.792 59.404 884.157 60.132L883.443 59.516C883.826 59.068 884.311 58.7227 884.899 58.48C885.497 58.2373 886.169 58.116 886.915 58.116C887.914 58.116 888.703 58.354 889.281 58.83C889.869 59.2967 890.163 59.9407 890.163 60.762C890.163 61.266 890.051 61.7513 889.827 62.218C889.603 62.6847 889.179 63.2213 888.553 63.828L885.221 67.104H890.611Z" fill="#333333"/>
<rect width="400" height="310" transform="translate(0 310)" fill="#747D86"/>
<path d="M32.852 354.14C31.8627 354.14 30.9667 353.925 30.164 353.496C29.3707 353.057 28.7453 352.455 28.288 351.69C27.84 350.925 27.616 350.061 27.616 349.1C27.616 348.139 27.8447 347.275 28.302 346.51C28.7593 345.745 29.3847 345.147 30.178 344.718C30.9807 344.279 31.8767 344.06 32.866 344.06C33.6687 344.06 34.4013 344.2 35.064 344.48C35.7267 344.76 36.2867 345.166 36.744 345.698L35.568 346.804C34.8587 346.039 33.986 345.656 32.95 345.656C32.278 345.656 31.676 345.805 31.144 346.104C30.612 346.393 30.1967 346.799 29.898 347.322C29.5993 347.845 29.45 348.437 29.45 349.1C29.45 349.763 29.5993 350.355 29.898 350.878C30.1967 351.401 30.612 351.811 31.144 352.11C31.676 352.399 32.278 352.544 32.95 352.544C33.986 352.544 34.8587 352.157 35.568 351.382L36.744 352.502C36.2867 353.034 35.722 353.44 35.05 353.72C34.3873 354 33.6547 354.14 32.852 354.14ZM42.8608 354.14C41.8621 354.14 40.9615 353.925 40.1588 353.496C39.3561 353.057 38.7261 352.455 38.2688 351.69C37.8115 350.915 37.5828 350.052 37.5828 349.1C37.5828 348.148 37.8115 347.289 38.2688 346.524C38.7261 345.749 39.3561 345.147 40.1588 344.718C40.9615 344.279 41.8621 344.06 42.8608 344.06C43.8595 344.06 44.7601 344.279 45.5628 344.718C46.3655 345.147 46.9955 345.745 47.4528 346.51C47.9101 347.275 48.1388 348.139 48.1388 349.1C48.1388 350.061 47.9101 350.925 47.4528 351.69C46.9955 352.455 46.3655 353.057 45.5628 353.496C44.7601 353.925 43.8595 354.14 42.8608 354.14ZM42.8608 352.544C43.5141 352.544 44.1021 352.399 44.6248 352.11C45.1475 351.811 45.5581 351.401 45.8568 350.878C46.1555 350.346 46.3048 349.753 46.3048 349.1C46.3048 348.447 46.1555 347.859 45.8568 347.336C45.5581 346.804 45.1475 346.393 44.6248 346.104C44.1021 345.805 43.5141 345.656 42.8608 345.656C42.2075 345.656 41.6195 345.805 41.0968 346.104C40.5741 346.393 40.1635 346.804 39.8648 347.336C39.5661 347.859 39.4168 348.447 39.4168 349.1C39.4168 349.753 39.5661 350.346 39.8648 350.878C40.1635 351.401 40.5741 351.811 41.0968 352.11C41.6195 352.399 42.2075 352.544 42.8608 352.544ZM50.068 344.2H51.888V352.46H57.012V354H50.068V344.2ZM58.4488 344.2H62.7328C63.7781 344.2 64.7068 344.405 65.5188 344.816C66.3308 345.217 66.9608 345.791 67.4088 346.538C67.8568 347.275 68.0808 348.129 68.0808 349.1C68.0808 350.071 67.8568 350.929 67.4088 351.676C66.9608 352.413 66.3308 352.987 65.5188 353.398C64.7068 353.799 63.7781 354 62.7328 354H58.4488V344.2ZM62.6488 352.46C63.3675 352.46 63.9975 352.325 64.5388 352.054C65.0895 351.774 65.5095 351.382 65.7988 350.878C66.0975 350.365 66.2468 349.772 66.2468 349.1C66.2468 348.428 66.0975 347.84 65.7988 347.336C65.5095 346.823 65.0895 346.431 64.5388 346.16C63.9975 345.88 63.3675 345.74 62.6488 345.74H60.2688V352.46H62.6488ZM80.5764 348.988H82.2984V352.894C81.7944 353.295 81.2064 353.603 80.5344 353.818C79.8624 354.033 79.1717 354.14 78.4624 354.14C77.4637 354.14 76.563 353.925 75.7604 353.496C74.9577 353.057 74.3277 352.455 73.8704 351.69C73.413 350.925 73.1844 350.061 73.1844 349.1C73.1844 348.139 73.413 347.275 73.8704 346.51C74.3277 345.745 74.9577 345.147 75.7604 344.718C76.5724 344.279 77.4824 344.06 78.4904 344.06C79.3117 344.06 80.0584 344.195 80.7304 344.466C81.4024 344.737 81.967 345.133 82.4244 345.656L81.2764 346.776C80.5297 346.029 79.629 345.656 78.5744 345.656C77.8837 345.656 77.2677 345.801 76.7264 346.09C76.1944 346.379 75.7744 346.785 75.4664 347.308C75.1677 347.831 75.0184 348.428 75.0184 349.1C75.0184 349.753 75.1677 350.341 75.4664 350.864C75.7744 351.387 76.1944 351.797 76.7264 352.096C77.2677 352.395 77.879 352.544 78.5604 352.544C79.3257 352.544 79.9977 352.376 80.5764 352.04V348.988ZM91.1108 354L89.1088 351.13C89.0248 351.139 88.8988 351.144 88.7308 351.144H86.5188V354H84.6988V344.2H88.7308C89.5801 344.2 90.3175 344.34 90.9428 344.62C91.5775 344.9 92.0628 345.301 92.3988 345.824C92.7348 346.347 92.9028 346.967 92.9028 347.686C92.9028 348.423 92.7208 349.058 92.3568 349.59C92.0021 350.122 91.4888 350.519 90.8168 350.78L93.0708 354H91.1108ZM91.0688 347.686C91.0688 347.061 90.8635 346.58 90.4528 346.244C90.0421 345.908 89.4401 345.74 88.6468 345.74H86.5188V349.646H88.6468C89.4401 349.646 90.0421 349.478 90.4528 349.142C90.8635 348.797 91.0688 348.311 91.0688 347.686ZM101.295 351.732H96.395L95.429 354H93.553L97.963 344.2H99.755L104.179 354H102.275L101.295 351.732ZM100.693 350.304L98.845 346.02L97.011 350.304H100.693ZM109.065 350.542V354H107.245V350.57L103.395 344.2H105.341L108.211 348.974L111.109 344.2H112.901L109.065 350.542Z" fill="white"/>
<path d="M34.252 371.63L33.888 374.57H35.876V375.34H33.79L33.468 378H32.712L33.034 375.34H30.164L29.828 378H29.072L29.394 375.34H27.406V374.57H29.492L29.856 371.63H27.854V370.86H29.954L30.276 368.2H31.046L30.71 370.86H33.594L33.916 368.2H34.672L34.35 370.86H36.324V371.63H34.252ZM33.496 371.63H30.626L30.248 374.57H33.132L33.496 371.63ZM44.392 368.2V368.914L40.29 378H39.198L43.23 369.096H38.19V370.93H37.196V368.2H44.392ZM53.1342 375.424H51.1742V378H50.1662V375.424H44.6362V374.696L49.8302 368.2H50.9502L45.9382 374.528H50.1942V372.26H51.1742V374.528H53.1342V375.424ZM60.2788 368.2V368.914L56.1768 378H55.0848L59.1168 369.096H54.0768V370.93H53.0828V368.2H60.2788ZM62.4749 368.2H66.4649C67.5009 368.2 68.4156 368.41 69.2089 368.83C70.0022 369.241 70.6182 369.819 71.0569 370.566C71.4956 371.303 71.7149 372.148 71.7149 373.1C71.7149 374.052 71.4956 374.901 71.0569 375.648C70.6182 376.385 70.0022 376.964 69.2089 377.384C68.4156 377.795 67.5009 378 66.4649 378H62.4749V368.2ZM66.4089 377.104C67.2676 377.104 68.0189 376.936 68.6629 376.6C69.3069 376.255 69.8062 375.783 70.1609 375.186C70.5156 374.579 70.6929 373.884 70.6929 373.1C70.6929 372.316 70.5156 371.625 70.1609 371.028C69.8062 370.421 69.3069 369.95 68.6629 369.614C68.0189 369.269 67.2676 369.096 66.4089 369.096H63.5109V377.104H66.4089ZM78.7873 372.862C79.4033 373.067 79.8746 373.375 80.2013 373.786C80.5373 374.197 80.7053 374.691 80.7053 375.27C80.7053 375.839 80.5513 376.339 80.2433 376.768C79.9353 377.188 79.492 377.515 78.9133 377.748C78.344 377.972 77.672 378.084 76.8973 378.084C75.7213 378.084 74.7973 377.832 74.1253 377.328C73.4533 376.824 73.1173 376.138 73.1173 375.27C73.1173 374.682 73.276 374.187 73.5933 373.786C73.92 373.375 74.3913 373.067 75.0073 372.862C74.5033 372.666 74.1206 372.386 73.8593 372.022C73.598 371.649 73.4673 371.21 73.4673 370.706C73.4673 369.913 73.7753 369.283 74.3913 368.816C75.0166 368.349 75.852 368.116 76.8973 368.116C77.588 368.116 78.19 368.223 78.7033 368.438C79.226 368.643 79.632 368.942 79.9213 369.334C80.2106 369.726 80.3553 370.183 80.3553 370.706C80.3553 371.21 80.22 371.649 79.9493 372.022C79.6786 372.386 79.2913 372.666 78.7873 372.862ZM74.4753 370.734C74.4753 371.275 74.69 371.705 75.1193 372.022C75.5486 372.339 76.1413 372.498 76.8973 372.498C77.6533 372.498 78.246 372.339 78.6753 372.022C79.114 371.705 79.3333 371.28 79.3333 370.748C79.3333 370.197 79.1093 369.763 78.6613 369.446C78.2226 369.129 77.6346 368.97 76.8973 368.97C76.1506 368.97 75.558 369.129 75.1193 369.446C74.69 369.763 74.4753 370.193 74.4753 370.734ZM76.8973 377.23C77.7653 377.23 78.442 377.053 78.9273 376.698C79.422 376.343 79.6693 375.863 79.6693 375.256C79.6693 374.649 79.422 374.173 78.9273 373.828C78.442 373.473 77.7653 373.296 76.8973 373.296C76.0386 373.296 75.362 373.473 74.8673 373.828C74.382 374.173 74.1393 374.649 74.1393 375.256C74.1393 375.872 74.382 376.357 74.8673 376.712C75.3526 377.057 76.0293 377.23 76.8973 377.23ZM86.161 372.134C86.805 372.134 87.3744 372.255 87.869 372.498C88.373 372.741 88.765 373.086 89.045 373.534C89.325 373.973 89.465 374.486 89.465 375.074C89.465 375.671 89.3204 376.199 89.031 376.656C88.7417 377.113 88.3404 377.468 87.827 377.72C87.323 377.963 86.7537 378.084 86.119 378.084C84.8217 378.084 83.8277 377.659 83.137 376.81C82.4464 375.951 82.101 374.743 82.101 373.184C82.101 372.092 82.2877 371.168 82.661 370.412C83.0344 369.656 83.557 369.087 84.229 368.704C84.901 368.312 85.685 368.116 86.581 368.116C87.5517 368.116 88.3264 368.293 88.905 368.648L88.499 369.46C88.0324 369.152 87.3977 368.998 86.595 368.998C85.5124 368.998 84.663 369.343 84.047 370.034C83.431 370.715 83.123 371.709 83.123 373.016C83.123 373.249 83.137 373.515 83.165 373.814C83.4077 373.282 83.795 372.871 84.327 372.582C84.859 372.283 85.4704 372.134 86.161 372.134ZM86.077 377.23C86.7864 377.23 87.3604 377.039 87.799 376.656C88.247 376.264 88.471 375.746 88.471 375.102C88.471 374.458 88.247 373.945 87.799 373.562C87.3604 373.179 86.763 372.988 86.007 372.988C85.5124 372.988 85.0737 373.081 84.691 373.268C84.3177 373.455 84.0237 373.711 83.809 374.038C83.5944 374.365 83.487 374.729 83.487 375.13C83.487 375.503 83.585 375.849 83.781 376.166C83.9864 376.483 84.285 376.74 84.677 376.936C85.069 377.132 85.5357 377.23 86.077 377.23Z" fill="white"/>
<rect width="400" height="310" transform="translate(400 310)" fill="white"/>
<path d="M431.354 354.14C430.598 354.14 429.865 354.033 429.156 353.818C428.456 353.603 427.901 353.319 427.49 352.964L428.12 351.55C428.521 351.867 429.011 352.129 429.59 352.334C430.178 352.53 430.766 352.628 431.354 352.628C432.082 352.628 432.623 352.511 432.978 352.278C433.342 352.045 433.524 351.737 433.524 351.354C433.524 351.074 433.421 350.845 433.216 350.668C433.02 350.481 432.768 350.337 432.46 350.234C432.152 350.131 431.732 350.015 431.2 349.884C430.453 349.707 429.847 349.529 429.38 349.352C428.923 349.175 428.526 348.899 428.19 348.526C427.863 348.143 427.7 347.63 427.7 346.986C427.7 346.445 427.845 345.955 428.134 345.516C428.433 345.068 428.876 344.713 429.464 344.452C430.061 344.191 430.789 344.06 431.648 344.06C432.245 344.06 432.833 344.135 433.412 344.284C433.991 344.433 434.49 344.648 434.91 344.928L434.336 346.342C433.907 346.09 433.459 345.899 432.992 345.768C432.525 345.637 432.073 345.572 431.634 345.572C430.915 345.572 430.379 345.693 430.024 345.936C429.679 346.179 429.506 346.501 429.506 346.902C429.506 347.182 429.604 347.411 429.8 347.588C430.005 347.765 430.262 347.905 430.57 348.008C430.878 348.111 431.298 348.227 431.83 348.358C432.558 348.526 433.155 348.703 433.622 348.89C434.089 349.067 434.485 349.343 434.812 349.716C435.148 350.089 435.316 350.593 435.316 351.228C435.316 351.769 435.167 352.259 434.868 352.698C434.579 353.137 434.135 353.487 433.538 353.748C432.941 354.009 432.213 354.14 431.354 354.14ZM445.829 344.2V354H444.331L438.927 347.364V354H437.121V344.2H438.619L444.023 350.836V344.2H445.829ZM453.033 354.14C452.034 354.14 451.133 353.925 450.331 353.496C449.528 353.057 448.898 352.455 448.441 351.69C447.983 350.915 447.755 350.052 447.755 349.1C447.755 348.148 447.983 347.289 448.441 346.524C448.898 345.749 449.528 345.147 450.331 344.718C451.133 344.279 452.034 344.06 453.033 344.06C454.031 344.06 454.932 344.279 455.735 344.718C456.537 345.147 457.167 345.745 457.625 346.51C458.082 347.275 458.311 348.139 458.311 349.1C458.311 350.061 458.082 350.925 457.625 351.69C457.167 352.455 456.537 353.057 455.735 353.496C454.932 353.925 454.031 354.14 453.033 354.14ZM453.033 352.544C453.686 352.544 454.274 352.399 454.797 352.11C455.319 351.811 455.73 351.401 456.029 350.878C456.327 350.346 456.477 349.753 456.477 349.1C456.477 348.447 456.327 347.859 456.029 347.336C455.73 346.804 455.319 346.393 454.797 346.104C454.274 345.805 453.686 345.656 453.033 345.656C452.379 345.656 451.791 345.805 451.269 346.104C450.746 346.393 450.335 346.804 450.037 347.336C449.738 347.859 449.589 348.447 449.589 349.1C449.589 349.753 449.738 350.346 450.037 350.878C450.335 351.401 450.746 351.811 451.269 352.11C451.791 352.399 452.379 352.544 453.033 352.544ZM474.247 344.2L470.999 354H469.067L466.645 346.748L464.181 354H462.235L458.987 344.2H460.877L463.313 351.648L465.847 344.2H467.527L470.005 351.69L472.511 344.2H474.247ZM494.126 344.2L490.878 354H488.946L486.524 346.748L484.06 354H482.114L478.866 344.2H480.756L483.192 351.648L485.726 344.2H487.406L489.884 351.69L492.39 344.2H494.126ZM504.317 344.2V354H502.497V349.8H497.429V354H495.609V344.2H497.429V348.246H502.497V344.2H504.317ZM506.943 344.2H508.763V354H506.943V344.2ZM513.402 345.74H510.154V344.2H518.47V345.74H515.222V354H513.402V345.74ZM527.186 352.474V354H519.836V344.2H526.99V345.726H521.656V348.274H526.388V349.772H521.656V352.474H527.186Z" fill="#333333"/>
<path d="M434.252 371.63L433.888 374.57H435.876V375.34H433.79L433.468 378H432.712L433.034 375.34H430.164L429.828 378H429.072L429.394 375.34H427.406V374.57H429.492L429.856 371.63H427.854V370.86H429.954L430.276 368.2H431.046L430.71 370.86H433.594L433.916 368.2H434.672L434.35 370.86H436.324V371.63H434.252ZM433.496 371.63H430.626L430.248 374.57H433.132L433.496 371.63ZM439.38 369.096V372.946H444.448V373.842H439.38V378H438.344V368.2H445.064V369.096H439.38ZM448.239 369.096V372.946H453.307V373.842H448.239V378H447.203V368.2H453.923V369.096H448.239ZM457.099 369.096V372.946H462.167V373.842H457.099V378H456.063V368.2H462.783V369.096H457.099ZM465.958 369.096V372.946H471.026V373.842H465.958V378H464.922V368.2H471.642V369.096H465.958ZM474.818 369.096V372.946H479.886V373.842H474.818V378H473.782V368.2H480.502V369.096H474.818ZM483.677 369.096V372.946H488.745V373.842H483.677V378H482.641V368.2H489.361V369.096H483.677Z" fill="#333333"/>
<rect width="400" height="310" transform="translate(800 310)" fill="#5FBFBF"/>
<path d="M837.318 354L837.304 347.504L834.084 352.88H833.272L830.052 347.588V354H828.316V344.2H829.814L833.706 350.696L837.528 344.2H839.026L839.04 354H837.318ZM849.037 352.474V354H841.687V344.2H848.841V345.726H843.507V348.274H848.239V349.772H843.507V352.474H849.037ZM851.066 344.2H855.35C856.395 344.2 857.324 344.405 858.136 344.816C858.948 345.217 859.578 345.791 860.026 346.538C860.474 347.275 860.698 348.129 860.698 349.1C860.698 350.071 860.474 350.929 860.026 351.676C859.578 352.413 858.948 352.987 858.136 353.398C857.324 353.799 856.395 354 855.35 354H851.066V344.2ZM855.266 352.46C855.985 352.46 856.615 352.325 857.156 352.054C857.707 351.774 858.127 351.382 858.416 350.878C858.715 350.365 858.864 349.772 858.864 349.1C858.864 348.428 858.715 347.84 858.416 347.336C858.127 346.823 857.707 346.431 857.156 346.16C856.615 345.88 855.985 345.74 855.266 345.74H852.886V352.46H855.266ZM862.632 344.2H864.452V354H862.632V344.2ZM869.091 345.74H865.843V344.2H874.159V345.74H870.911V354H869.091V345.74ZM882.875 352.474V354H875.525V344.2H882.679V345.726H877.345V348.274H882.077V349.772H877.345V352.474H882.875ZM891.316 354L889.314 351.13C889.23 351.139 889.104 351.144 888.936 351.144H886.724V354H884.904V344.2H888.936C889.785 344.2 890.523 344.34 891.148 344.62C891.783 344.9 892.268 345.301 892.604 345.824C892.94 346.347 893.108 346.967 893.108 347.686C893.108 348.423 892.926 349.058 892.562 349.59C892.207 350.122 891.694 350.519 891.022 350.78L893.276 354H891.316ZM891.274 347.686C891.274 347.061 891.069 346.58 890.658 346.244C890.247 345.908 889.645 345.74 888.852 345.74H886.724V349.646H888.852C889.645 349.646 890.247 349.478 890.658 349.142C891.069 348.797 891.274 348.311 891.274 347.686ZM901.556 354L899.554 351.13C899.47 351.139 899.344 351.144 899.176 351.144H896.964V354H895.144V344.2H899.176C900.025 344.2 900.763 344.34 901.388 344.62C902.023 344.9 902.508 345.301 902.844 345.824C903.18 346.347 903.348 346.967 903.348 347.686C903.348 348.423 903.166 349.058 902.802 349.59C902.447 350.122 901.934 350.519 901.262 350.78L903.516 354H901.556ZM901.514 347.686C901.514 347.061 901.309 346.58 900.898 346.244C900.487 345.908 899.885 345.74 899.092 345.74H896.964V349.646H899.092C899.885 349.646 900.487 349.478 900.898 349.142C901.309 348.797 901.514 348.311 901.514 347.686ZM911.74 351.732H906.84L905.874 354H903.998L908.408 344.2H910.2L914.624 354H912.72L911.74 351.732ZM911.138 350.304L909.29 346.02L907.456 350.304H911.138ZM924.579 344.2V354H923.081L917.677 347.364V354H915.871V344.2H917.369L922.773 350.836V344.2H924.579ZM927.205 344.2H929.025V354H927.205V344.2ZM938.031 351.732H933.131L932.165 354H930.289L934.699 344.2H936.491L940.915 354H939.011L938.031 351.732ZM937.429 350.304L935.581 346.02L933.747 350.304H937.429ZM950.87 344.2V354H949.372L943.968 347.364V354H942.162V344.2H943.66L949.064 350.836V344.2H950.87ZM964.309 348.904C964.85 349.081 965.279 349.38 965.597 349.8C965.914 350.211 966.073 350.724 966.073 351.34C966.073 352.189 965.746 352.847 965.093 353.314C964.439 353.771 963.487 354 962.237 354H957.365V344.2H961.957C963.114 344.2 964.005 344.429 964.631 344.886C965.256 345.334 965.569 345.955 965.569 346.748C965.569 347.233 965.457 347.663 965.233 348.036C965.009 348.409 964.701 348.699 964.309 348.904ZM959.185 345.628V348.33H961.761C962.395 348.33 962.881 348.218 963.217 347.994C963.562 347.761 963.735 347.425 963.735 346.986C963.735 346.538 963.562 346.202 963.217 345.978C962.881 345.745 962.395 345.628 961.761 345.628H959.185ZM962.125 352.572C963.534 352.572 964.239 352.101 964.239 351.158C964.239 350.215 963.534 349.744 962.125 349.744H959.185V352.572H962.125ZM968.015 344.2H969.835V352.46H974.959V354H968.015V344.2ZM980.473 354.14C979.12 354.14 978.065 353.762 977.309 353.006C976.553 352.241 976.175 351.149 976.175 349.73V344.2H977.995V349.66C977.995 351.583 978.826 352.544 980.487 352.544C982.139 352.544 982.965 351.583 982.965 349.66V344.2H984.757V349.73C984.757 351.149 984.379 352.241 983.623 353.006C982.877 353.762 981.827 354.14 980.473 354.14ZM994.656 352.474V354H987.306V344.2H994.46V345.726H989.126V348.274H993.858V349.772H989.126V352.474H994.656Z" fill="white"/>
<path d="M834.252 371.63L833.888 374.57H835.876V375.34H833.79L833.468 378H832.712L833.034 375.34H830.164L829.828 378H829.072L829.394 375.34H827.406V374.57H829.492L829.856 371.63H827.854V370.86H829.954L830.276 368.2H831.046L830.71 370.86H833.594L833.916 368.2H834.672L834.35 370.86H836.324V371.63H834.252ZM833.496 371.63H830.626L830.248 374.57H833.132L833.496 371.63ZM840.052 372.218C841.471 372.218 842.502 372.475 843.146 372.988C843.799 373.492 844.126 374.201 844.126 375.116C844.126 375.685 843.991 376.194 843.72 376.642C843.459 377.09 843.062 377.445 842.53 377.706C841.998 377.958 841.345 378.084 840.57 378.084C839.87 378.084 839.203 377.972 838.568 377.748C837.943 377.515 837.439 377.207 837.056 376.824L837.546 376.026C837.873 376.362 838.302 376.637 838.834 376.852C839.366 377.057 839.94 377.16 840.556 377.16C841.368 377.16 841.993 376.978 842.432 376.614C842.88 376.25 843.104 375.765 843.104 375.158C843.104 374.486 842.852 373.977 842.348 373.632C841.853 373.287 841.013 373.114 839.828 373.114H837.742L838.246 368.2H843.608V369.096H839.128L838.792 372.218H840.052ZM847.31 369.096V372.946H852.378V373.842H847.31V378H846.274V368.2H852.994V369.096H847.31ZM861.307 372.946C861.951 373.086 862.446 373.366 862.791 373.786C863.146 374.197 863.323 374.729 863.323 375.382C863.323 376.222 863.01 376.871 862.385 377.328C861.769 377.776 860.854 378 859.641 378H855.133V368.2H859.361C860.453 368.2 861.298 368.419 861.895 368.858C862.502 369.297 862.805 369.917 862.805 370.72C862.805 371.261 862.67 371.723 862.399 372.106C862.138 372.479 861.774 372.759 861.307 372.946ZM856.169 369.054V372.61H859.291C860.084 372.61 860.696 372.461 861.125 372.162C861.554 371.854 861.769 371.411 861.769 370.832C861.769 370.253 861.554 369.815 861.125 369.516C860.696 369.208 860.084 369.054 859.291 369.054H856.169ZM859.627 377.146C860.504 377.146 861.167 376.997 861.615 376.698C862.063 376.399 862.287 375.933 862.287 375.298C862.287 374.075 861.4 373.464 859.627 373.464H856.169V377.146H859.627ZM866.724 369.096V372.946H871.792V373.842H866.724V378H865.688V368.2H872.408V369.096H866.724ZM880.721 372.946C881.365 373.086 881.86 373.366 882.205 373.786C882.56 374.197 882.737 374.729 882.737 375.382C882.737 376.222 882.425 376.871 881.799 377.328C881.183 377.776 880.269 378 879.055 378H874.547V368.2H878.775C879.867 368.2 880.712 368.419 881.309 368.858C881.916 369.297 882.219 369.917 882.219 370.72C882.219 371.261 882.084 371.723 881.813 372.106C881.552 372.479 881.188 372.759 880.721 372.946ZM875.583 369.054V372.61H878.705C879.499 372.61 880.11 372.461 880.539 372.162C880.969 371.854 881.183 371.411 881.183 370.832C881.183 370.253 880.969 369.815 880.539 369.516C880.11 369.208 879.499 369.054 878.705 369.054H875.583ZM879.041 377.146C879.919 377.146 880.581 376.997 881.029 376.698C881.477 376.399 881.701 375.933 881.701 375.298C881.701 374.075 880.815 373.464 879.041 373.464H875.583V377.146H879.041ZM886.138 369.096V372.946H891.206V373.842H886.138V378H885.102V368.2H891.822V369.096H886.138Z" fill="white"/>
</svg>
