<svg width="1200" height="620" viewBox="0 0 1200 620" fill="none" xmlns="http://www.w3.org/2000/svg">
<rect width="600" height="310" fill="#F56F6C"/>
<path d="M30.136 35.726V38.708H34.868V40.248H30.136V44H28.316V34.2H35.47V35.726H30.136ZM43.6421 44L41.6401 41.13C41.5561 41.1393 41.4301 41.144 41.2621 41.144H39.0501V44H37.2301V34.2H41.2621C42.1114 34.2 42.8487 34.34 43.4741 34.62C44.1087 34.9 44.5941 35.3013 44.9301 35.824C45.2661 36.3467 45.4341 36.9673 45.4341 37.686C45.4341 38.4233 45.2521 39.058 44.8881 39.59C44.5334 40.122 44.0201 40.5187 43.3481 40.78L45.6021 44H43.6421ZM43.6001 37.686C43.6001 37.0607 43.3947 36.58 42.9841 36.244C42.5734 35.908 41.9714 35.74 41.1781 35.74H39.0501V39.646H41.1781C41.9714 39.646 42.5734 39.478 42.9841 39.142C43.3947 38.7967 43.6001 38.3113 43.6001 37.686ZM52.0483 44.14C51.0496 44.14 50.149 43.9253 49.3463 43.496C48.5436 43.0573 47.9136 42.4553 47.4563 41.69C46.999 40.9153 46.7703 40.052 46.7703 39.1C46.7703 38.148 46.999 37.2893 47.4563 36.524C47.9136 35.7493 48.5436 35.1473 49.3463 34.718C50.149 34.2793 51.0496 34.06 52.0483 34.06C53.047 34.06 53.9476 34.2793 54.7503 34.718C55.553 35.1473 56.183 35.7447 56.6403 36.51C57.0976 37.2753 57.3263 38.1387 57.3263 39.1C57.3263 40.0613 57.0976 40.9247 56.6403 41.69C56.183 42.4553 55.553 43.0573 54.7503 43.496C53.9476 43.9253 53.047 44.14 52.0483 44.14ZM52.0483 42.544C52.7016 42.544 53.2896 42.3993 53.8123 42.11C54.335 41.8113 54.7456 41.4007 55.0443 40.878C55.343 40.346 55.4923 39.7533 55.4923 39.1C55.4923 38.4467 55.343 37.8587 55.0443 37.336C54.7456 36.804 54.335 36.3933 53.8123 36.104C53.2896 35.8053 52.7016 35.656 52.0483 35.656C51.395 35.656 50.807 35.8053 50.2843 36.104C49.7616 36.3933 49.351 36.804 49.0523 37.336C48.7536 37.8587 48.6043 38.4467 48.6043 39.1C48.6043 39.7533 48.7536 40.346 49.0523 40.878C49.351 41.4007 49.7616 41.8113 50.2843 42.11C50.807 42.3993 51.395 42.544 52.0483 42.544ZM59.2555 34.2H61.0755V42.46H66.1995V44H59.2555V34.2ZM70.8389 40.542V44H69.0189V40.57L65.1689 34.2H67.1149L69.9849 38.974L72.8829 34.2H74.6749L70.8389 40.542Z" fill="white"/>
<path d="M34.252 61.63L33.888 64.57H35.876V65.34H33.79L33.468 68H32.712L33.034 65.34H30.164L29.828 68H29.072L29.394 65.34H27.406V64.57H29.492L29.856 61.63H27.854V60.86H29.954L30.276 58.2H31.046L30.71 60.86H33.594L33.916 58.2H34.672L34.35 60.86H36.324V61.63H34.252ZM33.496 61.63H30.626L30.248 64.57H33.132L33.496 61.63ZM39.38 59.096V62.946H44.448V63.842H39.38V68H38.344V58.2H45.064V59.096H39.38ZM48.6653 62.218C50.084 62.218 51.1153 62.4747 51.7593 62.988C52.4127 63.492 52.7393 64.2013 52.7393 65.116C52.7393 65.6853 52.604 66.194 52.3333 66.642C52.072 67.09 51.6753 67.4447 51.1433 67.706C50.6113 67.958 49.958 68.084 49.1833 68.084C48.4833 68.084 47.816 67.972 47.1813 67.748C46.556 67.5147 46.052 67.2067 45.6693 66.824L46.1593 66.026C46.486 66.362 46.9153 66.6373 47.4473 66.852C47.9793 67.0573 48.5533 67.16 49.1693 67.16C49.9813 67.16 50.6067 66.978 51.0453 66.614C51.4933 66.25 51.7173 65.7647 51.7173 65.158C51.7173 64.486 51.4653 63.9773 50.9613 63.632C50.4667 63.2867 49.6267 63.114 48.4413 63.114H46.3553L46.8593 58.2H52.2213V59.096H47.7413L47.4053 62.218H48.6653ZM58.079 62.134C58.723 62.134 59.2923 62.2553 59.787 62.498C60.291 62.7407 60.683 63.086 60.963 63.534C61.243 63.9727 61.383 64.486 61.383 65.074C61.383 65.6713 61.2383 66.1987 60.949 66.656C60.6597 67.1133 60.2583 67.468 59.745 67.72C59.241 67.9627 58.6717 68.084 58.037 68.084C56.7397 68.084 55.7457 67.6593 55.055 66.81C54.3643 65.9513 54.019 64.7427 54.019 63.184C54.019 62.092 54.2057 61.168 54.579 60.412C54.9523 59.656 55.475 59.0867 56.147 58.704C56.819 58.312 57.603 58.116 58.499 58.116C59.4697 58.116 60.2443 58.2933 60.823 58.648L60.417 59.46C59.9503 59.152 59.3157 58.998 58.513 58.998C57.4303 58.998 56.581 59.3433 55.965 60.034C55.349 60.7153 55.041 61.7093 55.041 63.016C55.041 63.2493 55.055 63.5153 55.083 63.814C55.3257 63.282 55.713 62.8713 56.245 62.582C56.777 62.2833 57.3883 62.134 58.079 62.134ZM57.995 67.23C58.7043 67.23 59.2783 67.0387 59.717 66.656C60.165 66.264 60.389 65.746 60.389 65.102C60.389 64.458 60.165 63.9447 59.717 63.562C59.2783 63.1793 58.681 62.988 57.925 62.988C57.4303 62.988 56.9917 63.0813 56.609 63.268C56.2357 63.4547 55.9417 63.7113 55.727 64.038C55.5123 64.3647 55.405 64.7287 55.405 65.13C55.405 65.5033 55.503 65.8487 55.699 66.166C55.9043 66.4833 56.203 66.74 56.595 66.936C56.987 67.132 57.4537 67.23 57.995 67.23ZM64.4543 59.096V62.946H69.5223V63.842H64.4543V68H63.4183V58.2H70.1383V59.096H64.4543ZM75.2782 62.134C75.9222 62.134 76.4916 62.2553 76.9862 62.498C77.4902 62.7407 77.8822 63.086 78.1622 63.534C78.4422 63.9727 78.5822 64.486 78.5822 65.074C78.5822 65.6713 78.4376 66.1987 78.1482 66.656C77.8589 67.1133 77.4576 67.468 76.9442 67.72C76.4402 67.9627 75.8709 68.084 75.2362 68.084C73.9389 68.084 72.9449 67.6593 72.2542 66.81C71.5636 65.9513 71.2182 64.7427 71.2182 63.184C71.2182 62.092 71.4049 61.168 71.7782 60.412C72.1516 59.656 72.6742 59.0867 73.3462 58.704C74.0182 58.312 74.8022 58.116 75.6982 58.116C76.6689 58.116 77.4436 58.2933 78.0222 58.648L77.6162 59.46C77.1496 59.152 76.5149 58.998 75.7122 58.998C74.6296 58.998 73.7802 59.3433 73.1642 60.034C72.5482 60.7153 72.2402 61.7093 72.2402 63.016C72.2402 63.2493 72.2542 63.5153 72.2822 63.814C72.5249 63.282 72.9122 62.8713 73.4442 62.582C73.9762 62.2833 74.5876 62.134 75.2782 62.134ZM75.1942 67.23C75.9036 67.23 76.4776 67.0387 76.9162 66.656C77.3642 66.264 77.5882 65.746 77.5882 65.102C77.5882 64.458 77.3642 63.9447 76.9162 63.562C76.4776 63.1793 75.8802 62.988 75.1242 62.988C74.6296 62.988 74.1909 63.0813 73.8082 63.268C73.4349 63.4547 73.1409 63.7113 72.9262 64.038C72.7116 64.3647 72.6042 64.7287 72.6042 65.13C72.6042 65.5033 72.7022 65.8487 72.8982 66.166C73.1036 66.4833 73.4022 66.74 73.7942 66.936C74.1862 67.132 74.6529 67.23 75.1942 67.23ZM84.8735 68.084C83.9028 68.084 83.0255 67.8693 82.2415 67.44C81.4668 67.0107 80.8555 66.418 80.4075 65.662C79.9688 64.8967 79.7495 64.0427 79.7495 63.1C79.7495 62.1573 79.9688 61.308 80.4075 60.552C80.8555 59.7867 81.4715 59.1893 82.2555 58.76C83.0395 58.3307 83.9168 58.116 84.8875 58.116C85.6155 58.116 86.2875 58.2373 86.9035 58.48C87.5195 58.7227 88.0422 59.0773 88.4715 59.544L87.8135 60.202C87.0482 59.4273 86.0822 59.04 84.9155 59.04C84.1408 59.04 83.4362 59.2173 82.8015 59.572C82.1668 59.9267 81.6675 60.412 81.3035 61.028C80.9488 61.644 80.7715 62.3347 80.7715 63.1C80.7715 63.8653 80.9488 64.556 81.3035 65.172C81.6675 65.788 82.1668 66.2733 82.8015 66.628C83.4362 66.9827 84.1408 67.16 84.9155 67.16C86.0915 67.16 87.0575 66.768 87.8135 65.984L88.4715 66.642C88.0422 67.1087 87.5148 67.468 86.8895 67.72C86.2735 67.9627 85.6015 68.084 84.8735 68.084Z" fill="white"/>
<rect width="600" height="310" transform="translate(600)" fill="#191C21"/>
<path d="M631.354 44.14C630.598 44.14 629.865 44.0327 629.156 43.818C628.456 43.6033 627.901 43.3187 627.49 42.964L628.12 41.55C628.521 41.8673 629.011 42.1287 629.59 42.334C630.178 42.53 630.766 42.628 631.354 42.628C632.082 42.628 632.623 42.5113 632.978 42.278C633.342 42.0447 633.524 41.7367 633.524 41.354C633.524 41.074 633.421 40.8453 633.216 40.668C633.02 40.4813 632.768 40.3367 632.46 40.234C632.152 40.1313 631.732 40.0147 631.2 39.884C630.453 39.7067 629.847 39.5293 629.38 39.352C628.923 39.1747 628.526 38.8993 628.19 38.526C627.863 38.1433 627.7 37.63 627.7 36.986C627.7 36.4447 627.845 35.9547 628.134 35.516C628.433 35.068 628.876 34.7133 629.464 34.452C630.061 34.1907 630.789 34.06 631.648 34.06C632.245 34.06 632.833 34.1347 633.412 34.284C633.991 34.4333 634.49 34.648 634.91 34.928L634.336 36.342C633.907 36.09 633.459 35.8987 632.992 35.768C632.525 35.6373 632.073 35.572 631.634 35.572C630.915 35.572 630.379 35.6933 630.024 35.936C629.679 36.1787 629.506 36.5007 629.506 36.902C629.506 37.182 629.604 37.4107 629.8 37.588C630.005 37.7653 630.262 37.9053 630.57 38.008C630.878 38.1107 631.298 38.2273 631.83 38.358C632.558 38.526 633.155 38.7033 633.622 38.89C634.089 39.0673 634.485 39.3427 634.812 39.716C635.148 40.0893 635.316 40.5933 635.316 41.228C635.316 41.7693 635.167 42.2593 634.868 42.698C634.579 43.1367 634.135 43.4867 633.538 43.748C632.941 44.0093 632.213 44.14 631.354 44.14ZM645.829 34.2V44H644.009V39.8H638.941V44H637.121V34.2H638.941V38.246H644.009V34.2H645.829ZM654.811 41.732H649.911L648.945 44H647.069L651.479 34.2H653.271L657.695 44H655.791L654.811 41.732ZM654.209 40.304L652.361 36.02L650.527 40.304H654.209ZM665.353 44L663.351 41.13C663.267 41.1393 663.141 41.144 662.973 41.144H660.761V44H658.941V34.2H662.973C663.822 34.2 664.56 34.34 665.185 34.62C665.82 34.9 666.305 35.3013 666.641 35.824C666.977 36.3467 667.145 36.9673 667.145 37.686C667.145 38.4233 666.963 39.058 666.599 39.59C666.244 40.122 665.731 40.5187 665.059 40.78L667.313 44H665.353ZM665.311 37.686C665.311 37.0607 665.106 36.58 664.695 36.244C664.284 35.908 663.682 35.74 662.889 35.74H660.761V39.646H662.889C663.682 39.646 664.284 39.478 664.695 39.142C665.106 38.7967 665.311 38.3113 665.311 37.686ZM672.555 39.898L671.001 41.494V44H669.181V34.2H671.001V39.226L675.845 34.2H677.889L673.773 38.582L678.141 44H676.013L672.555 39.898Z" fill="white"/>
<path d="M634.252 61.63L633.888 64.57H635.876V65.34H633.79L633.468 68H632.712L633.034 65.34H630.164L629.828 68H629.072L629.394 65.34H627.406V64.57H629.492L629.856 61.63H627.854V60.86H629.954L630.276 58.2H631.046L630.71 60.86H633.594L633.916 58.2H634.672L634.35 60.86H636.324V61.63H634.252ZM633.496 61.63H630.626L630.248 64.57H633.132L633.496 61.63ZM640.192 58.2V68H639.184V59.096H636.874V58.2H640.192ZM645.587 58.116C646.884 58.116 647.878 58.5453 648.569 59.404C649.259 60.2533 649.605 61.4573 649.605 63.016C649.605 64.108 649.418 65.032 649.045 65.788C648.671 66.544 648.149 67.118 647.477 67.51C646.805 67.8927 646.021 68.084 645.125 68.084C644.154 68.084 643.379 67.9067 642.801 67.552L643.207 66.74C643.673 67.048 644.308 67.202 645.111 67.202C646.193 67.202 647.043 66.8613 647.659 66.18C648.275 65.4893 648.583 64.4907 648.583 63.184C648.583 62.9413 648.569 62.6753 648.541 62.386C648.298 62.918 647.911 63.3333 647.379 63.632C646.847 63.9213 646.235 64.066 645.545 64.066C644.901 64.066 644.327 63.9447 643.823 63.702C643.328 63.4593 642.941 63.1187 642.661 62.68C642.381 62.232 642.241 61.714 642.241 61.126C642.241 60.5287 642.385 60.0013 642.675 59.544C642.964 59.0867 643.361 58.7367 643.865 58.494C644.378 58.242 644.952 58.116 645.587 58.116ZM645.699 63.212C646.193 63.212 646.627 63.1187 647.001 62.932C647.383 62.7453 647.682 62.4887 647.897 62.162C648.111 61.8353 648.219 61.4713 648.219 61.07C648.219 60.6967 648.116 60.3513 647.911 60.034C647.715 59.7167 647.421 59.46 647.029 59.264C646.637 59.068 646.17 58.97 645.629 58.97C644.919 58.97 644.341 59.166 643.893 59.558C643.454 59.9407 643.235 60.454 643.235 61.098C643.235 61.742 643.454 62.2553 643.893 62.638C644.341 63.0207 644.943 63.212 645.699 63.212ZM653.755 58.2V68H652.747V59.096H650.437V58.2H653.755ZM661.221 68.084C660.25 68.084 659.373 67.8693 658.589 67.44C657.814 67.0107 657.203 66.418 656.755 65.662C656.316 64.8967 656.097 64.0427 656.097 63.1C656.097 62.1573 656.316 61.308 656.755 60.552C657.203 59.7867 657.819 59.1893 658.603 58.76C659.387 58.3307 660.264 58.116 661.235 58.116C661.963 58.116 662.635 58.2373 663.251 58.48C663.867 58.7227 664.39 59.0773 664.819 59.544L664.161 60.202C663.396 59.4273 662.43 59.04 661.263 59.04C660.488 59.04 659.784 59.2173 659.149 59.572C658.514 59.9267 658.015 60.412 657.651 61.028C657.296 61.644 657.119 62.3347 657.119 63.1C657.119 63.8653 657.296 64.556 657.651 65.172C658.015 65.788 658.514 66.2733 659.149 66.628C659.784 66.9827 660.488 67.16 661.263 67.16C662.439 67.16 663.405 66.768 664.161 65.984L664.819 66.642C664.39 67.1087 663.862 67.468 663.237 67.72C662.621 67.9627 661.949 68.084 661.221 68.084ZM672.742 67.104V68H665.868V67.286L669.942 63.296C670.456 62.792 670.801 62.358 670.978 61.994C671.165 61.6207 671.258 61.2473 671.258 60.874C671.258 60.2953 671.058 59.8473 670.656 59.53C670.264 59.2033 669.7 59.04 668.962 59.04C667.814 59.04 666.923 59.404 666.288 60.132L665.574 59.516C665.957 59.068 666.442 58.7227 667.03 58.48C667.628 58.2373 668.3 58.116 669.046 58.116C670.045 58.116 670.834 58.354 671.412 58.83C672 59.2967 672.294 59.9407 672.294 60.762C672.294 61.266 672.182 61.7513 671.958 62.218C671.734 62.6847 671.31 63.2213 670.684 63.828L667.352 67.104H672.742ZM676.723 58.2V68H675.715V59.096H673.405V58.2H676.723Z" fill="white"/>
<rect width="400" height="310" transform="translate(0 310)" fill="#252932"/>
<path d="M32.852 354.14C31.8627 354.14 30.9667 353.925 30.164 353.496C29.3707 353.057 28.7453 352.455 28.288 351.69C27.84 350.925 27.616 350.061 27.616 349.1C27.616 348.139 27.8447 347.275 28.302 346.51C28.7593 345.745 29.3847 345.147 30.178 344.718C30.9807 344.279 31.8767 344.06 32.866 344.06C33.6687 344.06 34.4013 344.2 35.064 344.48C35.7267 344.76 36.2867 345.166 36.744 345.698L35.568 346.804C34.8587 346.039 33.986 345.656 32.95 345.656C32.278 345.656 31.676 345.805 31.144 346.104C30.612 346.393 30.1967 346.799 29.898 347.322C29.5993 347.845 29.45 348.437 29.45 349.1C29.45 349.763 29.5993 350.355 29.898 350.878C30.1967 351.401 30.612 351.811 31.144 352.11C31.676 352.399 32.278 352.544 32.95 352.544C33.986 352.544 34.8587 352.157 35.568 351.382L36.744 352.502C36.2867 353.034 35.722 353.44 35.05 353.72C34.3873 354 33.6547 354.14 32.852 354.14ZM47.1959 344.2V354H45.3759V349.8H40.3079V354H38.4879V344.2H40.3079V348.246H45.3759V344.2H47.1959ZM56.1779 351.732H51.2779L50.3119 354H48.4359L52.8459 344.2H54.6379L59.0619 354H57.1579L56.1779 351.732ZM55.5759 350.304L53.7279 346.02L51.8939 350.304H55.5759ZM66.7202 354L64.7182 351.13C64.6342 351.139 64.5082 351.144 64.3402 351.144H62.1282V354H60.3082V344.2H64.3402C65.1895 344.2 65.9269 344.34 66.5522 344.62C67.1869 344.9 67.6722 345.301 68.0082 345.824C68.3442 346.347 68.5122 346.967 68.5122 347.686C68.5122 348.423 68.3302 349.058 67.9662 349.59C67.6115 350.122 67.0982 350.519 66.4262 350.78L68.6802 354H66.7202ZM66.6782 347.686C66.6782 347.061 66.4729 346.58 66.0622 346.244C65.6515 345.908 65.0495 345.74 64.2562 345.74H62.1282V349.646H64.2562C65.0495 349.646 65.6515 349.478 66.0622 349.142C66.4729 348.797 66.6782 348.311 66.6782 347.686ZM76.9044 351.732H72.0044L71.0384 354H69.1624L73.5724 344.2H75.3644L79.7884 354H77.8844L76.9044 351.732ZM76.3024 350.304L74.4544 346.02L72.6204 350.304H76.3024ZM81.0348 344.2H85.3188C86.3641 344.2 87.2928 344.405 88.1048 344.816C88.9168 345.217 89.5468 345.791 89.9948 346.538C90.4428 347.275 90.6668 348.129 90.6668 349.1C90.6668 350.071 90.4428 350.929 89.9948 351.676C89.5468 352.413 88.9168 352.987 88.1048 353.398C87.2928 353.799 86.3641 354 85.3188 354H81.0348V344.2ZM85.2348 352.46C85.9534 352.46 86.5834 352.325 87.1248 352.054C87.6754 351.774 88.0954 351.382 88.3848 350.878C88.6834 350.365 88.8328 349.772 88.8328 349.1C88.8328 348.428 88.6834 347.84 88.3848 347.336C88.0954 346.823 87.6754 346.431 87.1248 346.16C86.5834 345.88 85.9534 345.74 85.2348 345.74H82.8548V352.46H85.2348ZM99.9512 352.474V354H92.6012V344.2H99.7552V345.726H94.4212V348.274H99.1532V349.772H94.4212V352.474H99.9512Z" fill="white"/>
<path d="M34.252 371.63L33.888 374.57H35.876V375.34H33.79L33.468 378H32.712L33.034 375.34H30.164L29.828 378H29.072L29.394 375.34H27.406V374.57H29.492L29.856 371.63H27.854V370.86H29.954L30.276 368.2H31.046L30.71 370.86H33.594L33.916 368.2H34.672L34.35 370.86H36.324V371.63H34.252ZM33.496 371.63H30.626L30.248 374.57H33.132L33.496 371.63ZM44.168 377.104V378H37.294V377.286L41.368 373.296C41.8814 372.792 42.2267 372.358 42.404 371.994C42.5907 371.621 42.684 371.247 42.684 370.874C42.684 370.295 42.4834 369.847 42.082 369.53C41.69 369.203 41.1254 369.04 40.388 369.04C39.24 369.04 38.3487 369.404 37.714 370.132L37 369.516C37.3827 369.068 37.868 368.723 38.456 368.48C39.0534 368.237 39.7254 368.116 40.472 368.116C41.4707 368.116 42.2594 368.354 42.838 368.83C43.426 369.297 43.72 369.941 43.72 370.762C43.72 371.266 43.608 371.751 43.384 372.218C43.16 372.685 42.7354 373.221 42.11 373.828L38.778 377.104H44.168ZM48.0091 372.218C49.4277 372.218 50.4591 372.475 51.1031 372.988C51.7564 373.492 52.0831 374.201 52.0831 375.116C52.0831 375.685 51.9477 376.194 51.6771 376.642C51.4157 377.09 51.0191 377.445 50.4871 377.706C49.9551 377.958 49.3017 378.084 48.5271 378.084C47.8271 378.084 47.1597 377.972 46.5251 377.748C45.8997 377.515 45.3957 377.207 45.0131 376.824L45.5031 376.026C45.8297 376.362 46.2591 376.637 46.7911 376.852C47.3231 377.057 47.8971 377.16 48.5131 377.16C49.3251 377.16 49.9504 376.978 50.3891 376.614C50.8371 376.25 51.0611 375.765 51.0611 375.158C51.0611 374.486 50.8091 373.977 50.3051 373.632C49.8104 373.287 48.9704 373.114 47.7851 373.114H45.6991L46.2031 368.2H51.5651V369.096H47.0851L46.7491 372.218H48.0091ZM59.9864 377.104V378H53.1124V377.286L57.1864 373.296C57.6997 372.792 58.0451 372.358 58.2224 371.994C58.4091 371.621 58.5024 371.247 58.5024 370.874C58.5024 370.295 58.3017 369.847 57.9004 369.53C57.5084 369.203 56.9437 369.04 56.2064 369.04C55.0584 369.04 54.1671 369.404 53.5324 370.132L52.8184 369.516C53.2011 369.068 53.6864 368.723 54.2744 368.48C54.8717 368.237 55.5437 368.116 56.2904 368.116C57.2891 368.116 58.0777 368.354 58.6564 368.83C59.2444 369.297 59.5384 369.941 59.5384 370.762C59.5384 371.266 59.4264 371.751 59.2024 372.218C58.9784 372.685 58.5537 373.221 57.9284 373.828L54.5964 377.104H59.9864ZM64.3034 368.116C65.6008 368.116 66.5948 368.545 67.2854 369.404C67.9761 370.253 68.3214 371.457 68.3214 373.016C68.3214 374.108 68.1348 375.032 67.7614 375.788C67.3881 376.544 66.8654 377.118 66.1934 377.51C65.5214 377.893 64.7374 378.084 63.8414 378.084C62.8708 378.084 62.0961 377.907 61.5174 377.552L61.9234 376.74C62.3901 377.048 63.0248 377.202 63.8274 377.202C64.9101 377.202 65.7594 376.861 66.3754 376.18C66.9914 375.489 67.2994 374.491 67.2994 373.184C67.2994 372.941 67.2854 372.675 67.2574 372.386C67.0148 372.918 66.6274 373.333 66.0954 373.632C65.5634 373.921 64.9521 374.066 64.2614 374.066C63.6174 374.066 63.0434 373.945 62.5394 373.702C62.0448 373.459 61.6574 373.119 61.3774 372.68C61.0974 372.232 60.9574 371.714 60.9574 371.126C60.9574 370.529 61.1021 370.001 61.3914 369.544C61.6808 369.087 62.0774 368.737 62.5814 368.494C63.0948 368.242 63.6688 368.116 64.3034 368.116ZM64.4154 373.212C64.9101 373.212 65.3441 373.119 65.7174 372.932C66.1001 372.745 66.3988 372.489 66.6134 372.162C66.8281 371.835 66.9354 371.471 66.9354 371.07C66.9354 370.697 66.8328 370.351 66.6274 370.034C66.4314 369.717 66.1374 369.46 65.7454 369.264C65.3534 369.068 64.8868 368.97 64.3454 368.97C63.6361 368.97 63.0574 369.166 62.6094 369.558C62.1708 369.941 61.9514 370.454 61.9514 371.098C61.9514 371.742 62.1708 372.255 62.6094 372.638C63.0574 373.021 63.6594 373.212 64.4154 373.212ZM72.978 372.4C74.0046 372.456 74.784 372.736 75.316 373.24C75.8573 373.735 76.128 374.383 76.128 375.186C76.128 375.746 75.9926 376.245 75.722 376.684C75.4513 377.113 75.05 377.454 74.518 377.706C73.986 377.958 73.3373 378.084 72.572 378.084C71.8626 378.084 71.1906 377.972 70.556 377.748C69.9306 377.515 69.4266 377.207 69.044 376.824L69.534 376.026C69.8606 376.362 70.2946 376.637 70.836 376.852C71.3773 377.057 71.956 377.16 72.572 377.16C73.3746 377.16 73.9953 376.987 74.434 376.642C74.8726 376.287 75.092 375.802 75.092 375.186C75.092 374.579 74.8726 374.103 74.434 373.758C73.9953 373.413 73.3326 373.24 72.446 373.24H71.746V372.498L74.462 369.096H69.45V368.2H75.75V368.914L72.978 372.4ZM84.172 377.104V378H77.298V377.286L81.372 373.296C81.8853 372.792 82.2306 372.358 82.408 371.994C82.5946 371.621 82.688 371.247 82.688 370.874C82.688 370.295 82.4873 369.847 82.086 369.53C81.694 369.203 81.1293 369.04 80.392 369.04C79.244 369.04 78.3526 369.404 77.718 370.132L77.004 369.516C77.3866 369.068 77.872 368.723 78.46 368.48C79.0573 368.237 79.7293 368.116 80.476 368.116C81.4746 368.116 82.2633 368.354 82.842 368.83C83.43 369.297 83.724 369.941 83.724 370.762C83.724 371.266 83.612 371.751 83.388 372.218C83.164 372.685 82.7393 373.221 82.114 373.828L78.782 377.104H84.172Z" fill="white"/>
<rect width="400" height="310" transform="translate(400 310)" fill="white"/>
<path d="M442.638 344.2L439.39 354H437.458L435.036 346.748L432.572 354H430.626L427.378 344.2H429.268L431.704 351.648L434.238 344.2H435.918L438.396 351.69L440.902 344.2H442.638ZM452.829 344.2V354H451.009V349.8H445.941V354H444.121V344.2H445.941V348.246H451.009V344.2H452.829ZM455.455 344.2H457.275V354H455.455V344.2ZM461.913 345.74H458.665V344.2H466.981V345.74H463.733V354H461.913V345.74ZM475.697 352.474V354H468.347V344.2H475.501V345.726H470.167V348.274H474.899V349.772H470.167V352.474H475.697Z" fill="#333333"/>
<path d="M434.252 371.63L433.888 374.57H435.876V375.34H433.79L433.468 378H432.712L433.034 375.34H430.164L429.828 378H429.072L429.394 375.34H427.406V374.57H429.492L429.856 371.63H427.854V370.86H429.954L430.276 368.2H431.046L430.71 370.86H433.594L433.916 368.2H434.672L434.35 370.86H436.324V371.63H434.252ZM433.496 371.63H430.626L430.248 374.57H433.132L433.496 371.63ZM439.38 369.096V372.946H444.448V373.842H439.38V378H438.344V368.2H445.064V369.096H439.38ZM448.239 369.096V372.946H453.307V373.842H448.239V378H447.203V368.2H453.923V369.096H448.239ZM457.099 369.096V372.946H462.167V373.842H457.099V378H456.063V368.2H462.783V369.096H457.099ZM465.958 369.096V372.946H471.026V373.842H465.958V378H464.922V368.2H471.642V369.096H465.958ZM474.818 369.096V372.946H479.886V373.842H474.818V378H473.782V368.2H480.502V369.096H474.818ZM483.677 369.096V372.946H488.745V373.842H483.677V378H482.641V368.2H489.361V369.096H483.677Z" fill="#333333"/>
<rect width="400" height="310" transform="translate(800 310)" fill="#195962"/>
<path d="M835.26 348.904C835.801 349.081 836.231 349.38 836.548 349.8C836.865 350.211 837.024 350.724 837.024 351.34C837.024 352.189 836.697 352.847 836.044 353.314C835.391 353.771 834.439 354 833.188 354H828.316V344.2H832.908C834.065 344.2 834.957 344.429 835.582 344.886C836.207 345.334 836.52 345.955 836.52 346.748C836.52 347.233 836.408 347.663 836.184 348.036C835.96 348.409 835.652 348.699 835.26 348.904ZM830.136 345.628V348.33H832.712C833.347 348.33 833.832 348.218 834.168 347.994C834.513 347.761 834.686 347.425 834.686 346.986C834.686 346.538 834.513 346.202 834.168 345.978C833.832 345.745 833.347 345.628 832.712 345.628H830.136ZM833.076 352.572C834.485 352.572 835.19 352.101 835.19 351.158C835.19 350.215 834.485 349.744 833.076 349.744H830.136V352.572H833.076ZM838.966 344.2H840.786V352.46H845.91V354H838.966V344.2ZM851.425 354.14C850.071 354.14 849.017 353.762 848.261 353.006C847.505 352.241 847.127 351.149 847.127 349.73V344.2H848.947V349.66C848.947 351.583 849.777 352.544 851.439 352.544C853.091 352.544 853.917 351.583 853.917 349.66V344.2H855.709V349.73C855.709 351.149 855.331 352.241 854.575 353.006C853.828 353.762 852.778 354.14 851.425 354.14ZM867.259 354L867.245 347.504L864.025 352.88H863.213L859.993 347.588V354H858.257V344.2H859.755L863.647 350.696L867.469 344.2H868.967L868.981 354H867.259ZM871.629 344.2H873.449V354H871.629V344.2ZM884.807 344.2V354H883.309L877.905 347.364V354H876.099V344.2H877.597L883.001 350.836V344.2H884.807ZM894.783 352.474V354H887.433V344.2H894.587V345.726H889.253V348.274H893.985V349.772H889.253V352.474H894.783Z" fill="white"/>
<path d="M834.252 371.63L833.888 374.57H835.876V375.34H833.79L833.468 378H832.712L833.034 375.34H830.164L829.828 378H829.072L829.394 375.34H827.406V374.57H829.492L829.856 371.63H827.854V370.86H829.954L830.276 368.2H831.046L830.71 370.86H833.594L833.916 368.2H834.672L834.35 370.86H836.324V371.63H834.252ZM833.496 371.63H830.626L830.248 374.57H833.132L833.496 371.63ZM840.192 368.2V378H839.184V369.096H836.874V368.2H840.192ZM845.587 368.116C846.884 368.116 847.878 368.545 848.569 369.404C849.259 370.253 849.605 371.457 849.605 373.016C849.605 374.108 849.418 375.032 849.045 375.788C848.671 376.544 848.149 377.118 847.477 377.51C846.805 377.893 846.021 378.084 845.125 378.084C844.154 378.084 843.379 377.907 842.801 377.552L843.207 376.74C843.673 377.048 844.308 377.202 845.111 377.202C846.193 377.202 847.043 376.861 847.659 376.18C848.275 375.489 848.583 374.491 848.583 373.184C848.583 372.941 848.569 372.675 848.541 372.386C848.298 372.918 847.911 373.333 847.379 373.632C846.847 373.921 846.235 374.066 845.545 374.066C844.901 374.066 844.327 373.945 843.823 373.702C843.328 373.459 842.941 373.119 842.661 372.68C842.381 372.232 842.241 371.714 842.241 371.126C842.241 370.529 842.385 370.001 842.675 369.544C842.964 369.087 843.361 368.737 843.865 368.494C844.378 368.242 844.952 368.116 845.587 368.116ZM845.699 373.212C846.193 373.212 846.627 373.119 847.001 372.932C847.383 372.745 847.682 372.489 847.897 372.162C848.111 371.835 848.219 371.471 848.219 371.07C848.219 370.697 848.116 370.351 847.911 370.034C847.715 369.717 847.421 369.46 847.029 369.264C846.637 369.068 846.17 368.97 845.629 368.97C844.919 368.97 844.341 369.166 843.893 369.558C843.454 369.941 843.235 370.454 843.235 371.098C843.235 371.742 843.454 372.255 843.893 372.638C844.341 373.021 844.943 373.212 845.699 373.212ZM853.642 372.218C855.061 372.218 856.092 372.475 856.736 372.988C857.389 373.492 857.716 374.201 857.716 375.116C857.716 375.685 857.581 376.194 857.31 376.642C857.049 377.09 856.652 377.445 856.12 377.706C855.588 377.958 854.935 378.084 854.16 378.084C853.46 378.084 852.793 377.972 852.158 377.748C851.533 377.515 851.029 377.207 850.646 376.824L851.136 376.026C851.463 376.362 851.892 376.637 852.424 376.852C852.956 377.057 853.53 377.16 854.146 377.16C854.958 377.16 855.583 376.978 856.022 376.614C856.47 376.25 856.694 375.765 856.694 375.158C856.694 374.486 856.442 373.977 855.938 373.632C855.443 373.287 854.603 373.114 853.418 373.114H851.332L851.836 368.2H857.198V369.096H852.718L852.382 372.218H853.642ZM862.048 368.116C863.345 368.116 864.339 368.545 865.03 369.404C865.72 370.253 866.066 371.457 866.066 373.016C866.066 374.108 865.879 375.032 865.506 375.788C865.132 376.544 864.61 377.118 863.938 377.51C863.266 377.893 862.482 378.084 861.586 378.084C860.615 378.084 859.84 377.907 859.262 377.552L859.668 376.74C860.134 377.048 860.769 377.202 861.572 377.202C862.654 377.202 863.504 376.861 864.12 376.18C864.736 375.489 865.044 374.491 865.044 373.184C865.044 372.941 865.03 372.675 865.002 372.386C864.759 372.918 864.372 373.333 863.84 373.632C863.308 373.921 862.696 374.066 862.006 374.066C861.362 374.066 860.788 373.945 860.284 373.702C859.789 373.459 859.402 373.119 859.122 372.68C858.842 372.232 858.702 371.714 858.702 371.126C858.702 370.529 858.846 370.001 859.136 369.544C859.425 369.087 859.822 368.737 860.326 368.494C860.839 368.242 861.413 368.116 862.048 368.116ZM862.16 373.212C862.654 373.212 863.088 373.119 863.462 372.932C863.844 372.745 864.143 372.489 864.358 372.162C864.572 371.835 864.68 371.471 864.68 371.07C864.68 370.697 864.577 370.351 864.372 370.034C864.176 369.717 863.882 369.46 863.49 369.264C863.098 369.068 862.631 368.97 862.09 368.97C861.38 368.97 860.802 369.166 860.354 369.558C859.915 369.941 859.696 370.454 859.696 371.098C859.696 371.742 859.915 372.255 860.354 372.638C860.802 373.021 861.404 373.212 862.16 373.212ZM871.587 372.134C872.231 372.134 872.8 372.255 873.295 372.498C873.799 372.741 874.191 373.086 874.471 373.534C874.751 373.973 874.891 374.486 874.891 375.074C874.891 375.671 874.746 376.199 874.457 376.656C874.167 377.113 873.766 377.468 873.253 377.72C872.749 377.963 872.179 378.084 871.545 378.084C870.247 378.084 869.253 377.659 868.563 376.81C867.872 375.951 867.527 374.743 867.527 373.184C867.527 372.092 867.713 371.168 868.087 370.412C868.46 369.656 868.983 369.087 869.655 368.704C870.327 368.312 871.111 368.116 872.007 368.116C872.977 368.116 873.752 368.293 874.331 368.648L873.925 369.46C873.458 369.152 872.823 368.998 872.021 368.998C870.938 368.998 870.089 369.343 869.473 370.034C868.857 370.715 868.549 371.709 868.549 373.016C868.549 373.249 868.563 373.515 868.591 373.814C868.833 373.282 869.221 372.871 869.753 372.582C870.285 372.283 870.896 372.134 871.587 372.134ZM871.503 377.23C872.212 377.23 872.786 377.039 873.225 376.656C873.673 376.264 873.897 375.746 873.897 375.102C873.897 374.458 873.673 373.945 873.225 373.562C872.786 373.179 872.189 372.988 871.433 372.988C870.938 372.988 870.499 373.081 870.117 373.268C869.743 373.455 869.449 373.711 869.235 374.038C869.02 374.365 868.913 374.729 868.913 375.13C868.913 375.503 869.011 375.849 869.207 376.166C869.412 376.483 869.711 376.74 870.103 376.936C870.495 377.132 870.961 377.23 871.503 377.23ZM882.75 377.104V378H875.876V377.286L879.95 373.296C880.463 372.792 880.809 372.358 880.986 371.994C881.173 371.621 881.266 371.247 881.266 370.874C881.266 370.295 881.065 369.847 880.664 369.53C880.272 369.203 879.707 369.04 878.97 369.04C877.822 369.04 876.931 369.404 876.296 370.132L875.582 369.516C875.965 369.068 876.45 368.723 877.038 368.48C877.635 368.237 878.307 368.116 879.054 368.116C880.053 368.116 880.841 368.354 881.42 368.83C882.008 369.297 882.302 369.941 882.302 370.762C882.302 371.266 882.19 371.751 881.966 372.218C881.742 372.685 881.317 373.221 880.692 373.828L877.36 377.104H882.75Z" fill="white"/>
</svg>
