<svg width="1200" height="620" viewBox="0 0 1200 620" fill="none" xmlns="http://www.w3.org/2000/svg">
<rect width="1200" height="620" rx="50" fill="black"/>
<path d="M358.563 202.968L382.602 246.681H334.48L358.563 202.968Z" fill="white"/>
<path d="M413.348 202.968L437.387 246.681H389.266L413.348 202.968Z" fill="white"/>
<path d="M385.912 227.417L361.873 183.705H409.994L385.912 227.417Z" fill="white"/>
<path d="M601.414 223.511C619.537 223.511 642.547 251.126 642.547 251.126L601.414 180L560.281 251.126C560.281 251.126 583.202 223.511 601.414 223.511Z" fill="white"/>
<path d="M866.111 251.274C866.111 251.274 850.342 223.639 824.949 223.639C799.555 223.639 783.86 251.274 783.86 251.274L825.023 180L866.111 251.274Z" fill="white"/>
<path d="M825.023 249.571C825.023 249.571 819.915 240.68 811.771 240.68C803.554 240.68 798.52 249.571 798.52 249.571L805.108 238.161C808.07 233.049 815.473 233.049 818.434 238.161L825.023 249.571Z" fill="white"/>
<path d="M851.527 249.571C851.527 249.571 846.419 240.68 838.275 240.68C830.058 240.68 825.023 249.571 825.023 249.571L831.612 238.161C834.574 233.049 841.977 233.049 844.938 238.161L851.527 249.571Z" fill="white"/>
<path d="M394.521 415.309L423.32 436.498L378.16 365.224L333 436.498L361.799 415.309C371.571 408.122 384.823 408.122 394.521 415.309ZM371.571 398.787L378.234 387.451L384.231 399.676L386.526 404.269L382.898 400.861C380.085 398.194 375.717 398.046 372.608 400.417L368.832 403.38L371.571 398.787Z" fill="white"/>
<path d="M361.207 422.866L337.368 439.684L362.613 431.386C368.906 429.312 375.569 432.868 377.494 439.166L377.716 439.907H377.864L378.234 438.425C380.381 432.424 386.97 429.238 393.041 431.238L418.064 439.684L395.04 423.014C384.971 415.753 371.349 415.679 361.207 422.866Z" fill="white"/>
<path d="M631.427 404.492V404.418V368.929H624.098V382.932C617.583 374.411 607.366 368.929 595.817 368.929C576.198 368.929 560.281 384.858 560.281 404.492C560.281 424.125 576.198 440.055 595.817 440.055C607.366 440.055 617.583 434.572 624.098 426.052V440.055H631.353V404.64C631.353 404.566 631.427 404.566 631.427 404.492ZM594.855 431.905C579.678 431.905 567.462 419.606 567.462 404.492C567.462 389.377 579.752 377.079 594.855 377.079C609.957 377.079 622.247 389.377 622.247 404.492C622.247 419.68 609.957 431.905 594.855 431.905Z" fill="white"/>
<path d="M660.151 381.82C660.077 379.449 660.003 376.634 660.003 373.819H659.929C659.336 376.338 658.522 379.079 657.782 381.376L655.339 388.933H651.933L649.86 381.376C649.194 379.079 648.528 376.338 648.083 373.745H648.009C647.861 376.338 647.787 379.375 647.639 381.82L647.269 389.229H643.197L644.456 369.744H650.304L652.229 376.264C652.821 378.486 653.414 380.931 653.858 383.228H653.932C654.45 381.005 655.117 378.412 655.783 376.264L657.856 369.818H663.63L664.667 389.303H660.373L660.151 381.82Z" fill="white" stroke="white" stroke-width="1.22537" stroke-miterlimit="10"/>
<path d="M762.465 435.832C765.737 435.832 768.387 433.178 768.387 429.905C768.387 426.631 765.737 423.978 762.465 423.978C759.192 423.978 756.542 426.631 756.542 429.905C756.542 433.178 759.192 435.832 762.465 435.832Z" fill="white" stroke="white" stroke-width="0.267376" stroke-miterlimit="10"/>
<path d="M786.895 405.159C790.168 405.159 792.818 402.505 792.818 399.231C792.818 395.958 790.168 393.304 786.895 393.304C783.623 393.304 780.973 395.958 780.973 399.231C780.973 402.505 783.623 405.159 786.895 405.159Z" fill="white" stroke="white" stroke-width="0.267376" stroke-miterlimit="10"/>
<path d="M809.698 377.893C812.97 377.893 815.621 375.24 815.621 371.966C815.621 368.693 812.97 366.039 809.698 366.039C806.426 366.039 803.775 368.693 803.775 371.966C803.775 375.24 806.426 377.893 809.698 377.893Z" fill="white" stroke="white" stroke-width="0.267376" stroke-miterlimit="10"/>
<path d="M809.698 435.832C812.97 435.832 815.621 433.178 815.621 429.905C815.621 426.631 812.97 423.978 809.698 423.978C806.426 423.978 803.775 426.631 803.775 429.905C803.775 433.178 806.426 435.832 809.698 435.832Z" fill="white" stroke="white" stroke-width="0.267376" stroke-miterlimit="10"/>
<path d="M809.698 405.159C812.97 405.159 815.621 402.505 815.621 399.231C815.621 395.958 812.97 393.304 809.698 393.304C806.426 393.304 803.775 395.958 803.775 399.231C803.775 402.505 806.426 405.159 809.698 405.159Z" fill="white" stroke="white" stroke-width="0.267376" stroke-miterlimit="10"/>
<path d="M762.466 429.905L809.699 371.967" stroke="white" stroke-width="4.90149" stroke-miterlimit="10"/>
<path d="M809.698 371.967V429.905" stroke="white" stroke-width="4.90149" stroke-miterlimit="10"/>
<path d="M786.081 399.232H809.698" stroke="white" stroke-width="4.90149" stroke-miterlimit="10"/>
<path d="M835.98 377.893C839.252 377.893 841.903 375.24 841.903 371.966C841.903 368.693 839.252 366.039 835.98 366.039C832.708 366.039 830.058 368.693 830.058 371.966C830.058 375.24 832.708 377.893 835.98 377.893Z" fill="white" stroke="white" stroke-width="0.267376" stroke-miterlimit="10"/>
<path d="M835.98 435.832C839.252 435.832 841.903 433.178 841.903 429.905C841.903 426.631 839.252 423.978 835.98 423.978C832.708 423.978 830.058 426.631 830.058 429.905C830.058 433.178 832.708 435.832 835.98 435.832Z" fill="white" stroke="white" stroke-width="0.267376" stroke-miterlimit="10"/>
<path d="M835.979 371.967V429.905" stroke="white" stroke-width="4.90149" stroke-miterlimit="10"/>
<path d="M809.698 431.609L836.276 371.967" stroke="white" stroke-width="4.90149" stroke-miterlimit="10"/>
<path d="M861.077 377.893C864.349 377.893 867 375.24 867 371.966C867 368.693 864.349 366.039 861.077 366.039C857.805 366.039 855.154 368.693 855.154 371.966C855.154 375.24 857.805 377.893 861.077 377.893Z" fill="white" stroke="white" stroke-width="0.267376" stroke-miterlimit="10"/>
<path d="M861.077 435.832C864.349 435.832 867 433.178 867 429.905C867 426.631 864.349 423.978 861.077 423.978C857.805 423.978 855.154 426.631 855.154 429.905C855.154 433.178 857.805 435.832 861.077 435.832Z" fill="white" stroke="white" stroke-width="0.267376" stroke-miterlimit="10"/>
<path d="M861.077 371.967V429.905" stroke="white" stroke-width="4.90149" stroke-miterlimit="10"/>
<path d="M834.795 431.609L861.299 371.967" stroke="white" stroke-width="4.90149" stroke-miterlimit="10"/>
<path d="M75.638 67.2L72.39 77H70.458L68.036 69.748L65.572 77H63.626L60.378 67.2H62.268L64.704 74.648L67.238 67.2H68.918L71.396 74.69L73.902 67.2H75.638ZM81.5893 77.14C80.5906 77.14 79.69 76.9253 78.8873 76.496C78.0846 76.0573 77.4546 75.4553 76.9973 74.69C76.54 73.9153 76.3113 73.052 76.3113 72.1C76.3113 71.148 76.54 70.2893 76.9973 69.524C77.4546 68.7493 78.0846 68.1473 78.8873 67.718C79.69 67.2793 80.5906 67.06 81.5893 67.06C82.588 67.06 83.4886 67.2793 84.2913 67.718C85.094 68.1473 85.724 68.7447 86.1813 69.51C86.6386 70.2753 86.8673 71.1387 86.8673 72.1C86.8673 73.0613 86.6386 73.9247 86.1813 74.69C85.724 75.4553 85.094 76.0573 84.2913 76.496C83.4886 76.9253 82.588 77.14 81.5893 77.14ZM81.5893 75.544C82.2426 75.544 82.8306 75.3993 83.3533 75.11C83.876 74.8113 84.2866 74.4007 84.5853 73.878C84.884 73.346 85.0333 72.7533 85.0333 72.1C85.0333 71.4467 84.884 70.8587 84.5853 70.336C84.2866 69.804 83.876 69.3933 83.3533 69.104C82.8306 68.8053 82.2426 68.656 81.5893 68.656C80.936 68.656 80.348 68.8053 79.8253 69.104C79.3026 69.3933 78.892 69.804 78.5933 70.336C78.2946 70.8587 78.1453 71.4467 78.1453 72.1C78.1453 72.7533 78.2946 73.346 78.5933 73.878C78.892 74.4007 79.3026 74.8113 79.8253 75.11C80.348 75.3993 80.936 75.544 81.5893 75.544ZM95.2085 77L93.2065 74.13C93.1225 74.1393 92.9965 74.144 92.8285 74.144H90.6165V77H88.7965V67.2H92.8285C93.6778 67.2 94.4151 67.34 95.0405 67.62C95.6751 67.9 96.1605 68.3013 96.4965 68.824C96.8325 69.3467 97.0005 69.9673 97.0005 70.686C97.0005 71.4233 96.8185 72.058 96.4545 72.59C96.0998 73.122 95.5865 73.5187 94.9145 73.78L97.1685 77H95.2085ZM95.1665 70.686C95.1665 70.0607 94.9611 69.58 94.5505 69.244C94.1398 68.908 93.5378 68.74 92.7445 68.74H90.6165V72.646H92.7445C93.5378 72.646 94.1398 72.478 94.5505 72.142C94.9611 71.7967 95.1665 71.3113 95.1665 70.686ZM102.411 72.898L100.857 74.494V77H99.0367V67.2H100.857V72.226L105.701 67.2H107.745L103.629 71.582L107.997 77H105.869L102.411 72.898ZM109.236 67.2H111.056V77H109.236V67.2ZM122.415 67.2V77H120.917L115.513 70.364V77H113.707V67.2H115.205L120.609 73.836V67.2H122.415ZM131.733 71.988H133.455V75.894C132.951 76.2953 132.363 76.6033 131.691 76.818C131.019 77.0327 130.328 77.14 129.619 77.14C128.62 77.14 127.719 76.9253 126.917 76.496C126.114 76.0573 125.484 75.4553 125.027 74.69C124.569 73.9247 124.341 73.0613 124.341 72.1C124.341 71.1387 124.569 70.2753 125.027 69.51C125.484 68.7447 126.114 68.1473 126.917 67.718C127.729 67.2793 128.639 67.06 129.647 67.06C130.468 67.06 131.215 67.1953 131.887 67.466C132.559 67.7367 133.123 68.1333 133.581 68.656L132.433 69.776C131.686 69.0293 130.785 68.656 129.731 68.656C129.04 68.656 128.424 68.8007 127.883 69.09C127.351 69.3793 126.931 69.7853 126.623 70.308C126.324 70.8307 126.175 71.428 126.175 72.1C126.175 72.7533 126.324 73.3413 126.623 73.864C126.931 74.3867 127.351 74.7973 127.883 75.096C128.424 75.3947 129.035 75.544 129.717 75.544C130.482 75.544 131.154 75.376 131.733 75.04V71.988ZM143.756 67.2C144.606 67.2 145.343 67.34 145.968 67.62C146.603 67.9 147.088 68.3013 147.424 68.824C147.76 69.3467 147.928 69.9673 147.928 70.686C147.928 71.3953 147.76 72.016 147.424 72.548C147.088 73.0707 146.603 73.472 145.968 73.752C145.343 74.032 144.606 74.172 143.756 74.172H141.544V77H139.724V67.2H143.756ZM143.672 72.632C144.466 72.632 145.068 72.464 145.478 72.128C145.889 71.792 146.094 71.3113 146.094 70.686C146.094 70.0607 145.889 69.58 145.478 69.244C145.068 68.908 144.466 68.74 143.672 68.74H141.544V72.632H143.672ZM156.158 77L154.156 74.13C154.072 74.1393 153.946 74.144 153.778 74.144H151.566V77H149.746V67.2H153.778C154.627 67.2 155.364 67.34 155.99 67.62C156.624 67.9 157.11 68.3013 157.446 68.824C157.782 69.3467 157.95 69.9673 157.95 70.686C157.95 71.4233 157.768 72.058 157.404 72.59C157.049 73.122 156.536 73.5187 155.864 73.78L158.118 77H156.158ZM156.116 70.686C156.116 70.0607 155.91 69.58 155.5 69.244C155.089 68.908 154.487 68.74 153.694 68.74H151.566V72.646H153.694C154.487 72.646 155.089 72.478 155.5 72.142C155.91 71.7967 156.116 71.3113 156.116 70.686ZM164.564 77.14C163.565 77.14 162.665 76.9253 161.862 76.496C161.059 76.0573 160.429 75.4553 159.972 74.69C159.515 73.9153 159.286 73.052 159.286 72.1C159.286 71.148 159.515 70.2893 159.972 69.524C160.429 68.7493 161.059 68.1473 161.862 67.718C162.665 67.2793 163.565 67.06 164.564 67.06C165.563 67.06 166.463 67.2793 167.266 67.718C168.069 68.1473 168.699 68.7447 169.156 69.51C169.613 70.2753 169.842 71.1387 169.842 72.1C169.842 73.0613 169.613 73.9247 169.156 74.69C168.699 75.4553 168.069 76.0573 167.266 76.496C166.463 76.9253 165.563 77.14 164.564 77.14ZM164.564 75.544C165.217 75.544 165.805 75.3993 166.328 75.11C166.851 74.8113 167.261 74.4007 167.56 73.878C167.859 73.346 168.008 72.7533 168.008 72.1C168.008 71.4467 167.859 70.8587 167.56 70.336C167.261 69.804 166.851 69.3933 166.328 69.104C165.805 68.8053 165.217 68.656 164.564 68.656C163.911 68.656 163.323 68.8053 162.8 69.104C162.277 69.3933 161.867 69.804 161.568 70.336C161.269 70.8587 161.12 71.4467 161.12 72.1C161.12 72.7533 161.269 73.346 161.568 73.878C161.867 74.4007 162.277 74.8113 162.8 75.11C163.323 75.3993 163.911 75.544 164.564 75.544ZM176.307 77.14C175.318 77.14 174.422 76.9253 173.619 76.496C172.826 76.0573 172.2 75.4553 171.743 74.69C171.295 73.9247 171.071 73.0613 171.071 72.1C171.071 71.1387 171.3 70.2753 171.757 69.51C172.214 68.7447 172.84 68.1473 173.633 67.718C174.436 67.2793 175.332 67.06 176.321 67.06C177.124 67.06 177.856 67.2 178.519 67.48C179.182 67.76 179.742 68.166 180.199 68.698L179.023 69.804C178.314 69.0387 177.441 68.656 176.405 68.656C175.733 68.656 175.131 68.8053 174.599 69.104C174.067 69.3933 173.652 69.7993 173.353 70.322C173.054 70.8447 172.905 71.4373 172.905 72.1C172.905 72.7627 173.054 73.3553 173.353 73.878C173.652 74.4007 174.067 74.8113 174.599 75.11C175.131 75.3993 175.733 75.544 176.405 75.544C177.441 75.544 178.314 75.1567 179.023 74.382L180.199 75.502C179.742 76.034 179.177 76.44 178.505 76.72C177.842 77 177.11 77.14 176.307 77.14ZM189.293 75.474V77H181.943V67.2H189.097V68.726H183.763V71.274H188.495V72.772H183.763V75.474H189.293ZM194.36 77.14C193.604 77.14 192.871 77.0327 192.162 76.818C191.462 76.6033 190.907 76.3187 190.496 75.964L191.126 74.55C191.527 74.8673 192.017 75.1287 192.596 75.334C193.184 75.53 193.772 75.628 194.36 75.628C195.088 75.628 195.629 75.5113 195.984 75.278C196.348 75.0447 196.53 74.7367 196.53 74.354C196.53 74.074 196.427 73.8453 196.222 73.668C196.026 73.4813 195.774 73.3367 195.466 73.234C195.158 73.1313 194.738 73.0147 194.206 72.884C193.459 72.7067 192.853 72.5293 192.386 72.352C191.929 72.1747 191.532 71.8993 191.196 71.526C190.869 71.1433 190.706 70.63 190.706 69.986C190.706 69.4447 190.851 68.9547 191.14 68.516C191.439 68.068 191.882 67.7133 192.47 67.452C193.067 67.1907 193.795 67.06 194.654 67.06C195.251 67.06 195.839 67.1347 196.418 67.284C196.997 67.4333 197.496 67.648 197.916 67.928L197.342 69.342C196.913 69.09 196.465 68.8987 195.998 68.768C195.531 68.6373 195.079 68.572 194.64 68.572C193.921 68.572 193.385 68.6933 193.03 68.936C192.685 69.1787 192.512 69.5007 192.512 69.902C192.512 70.182 192.61 70.4107 192.806 70.588C193.011 70.7653 193.268 70.9053 193.576 71.008C193.884 71.1107 194.304 71.2273 194.836 71.358C195.564 71.526 196.161 71.7033 196.628 71.89C197.095 72.0673 197.491 72.3427 197.818 72.716C198.154 73.0893 198.322 73.5933 198.322 74.228C198.322 74.7693 198.173 75.2593 197.874 75.698C197.585 76.1367 197.141 76.4867 196.544 76.748C195.947 77.0093 195.219 77.14 194.36 77.14ZM203.165 77.14C202.409 77.14 201.676 77.0327 200.967 76.818C200.267 76.6033 199.711 76.3187 199.301 75.964L199.931 74.55C200.332 74.8673 200.822 75.1287 201.401 75.334C201.989 75.53 202.577 75.628 203.165 75.628C203.893 75.628 204.434 75.5113 204.789 75.278C205.153 75.0447 205.335 74.7367 205.335 74.354C205.335 74.074 205.232 73.8453 205.027 73.668C204.831 73.4813 204.579 73.3367 204.271 73.234C203.963 73.1313 203.543 73.0147 203.011 72.884C202.264 72.7067 201.657 72.5293 201.191 72.352C200.733 72.1747 200.337 71.8993 200.001 71.526C199.674 71.1433 199.511 70.63 199.511 69.986C199.511 69.4447 199.655 68.9547 199.945 68.516C200.243 68.068 200.687 67.7133 201.275 67.452C201.872 67.1907 202.6 67.06 203.459 67.06C204.056 67.06 204.644 67.1347 205.223 67.284C205.801 67.4333 206.301 67.648 206.721 67.928L206.147 69.342C205.717 69.09 205.269 68.8987 204.803 68.768C204.336 68.6373 203.883 68.572 203.445 68.572C202.726 68.572 202.189 68.6933 201.835 68.936C201.489 69.1787 201.317 69.5007 201.317 69.902C201.317 70.182 201.415 70.4107 201.611 70.588C201.816 70.7653 202.073 70.9053 202.381 71.008C202.689 71.1107 203.109 71.2273 203.641 71.358C204.369 71.526 204.966 71.7033 205.433 71.89C205.899 72.0673 206.296 72.3427 206.623 72.716C206.959 73.0893 207.127 73.5933 207.127 74.228C207.127 74.7693 206.977 75.2593 206.679 75.698C206.389 76.1367 205.946 76.4867 205.349 76.748C204.751 77.0093 204.023 77.14 203.165 77.14Z" fill="white"/>
</svg>
