<svg width="90" height="90" viewBox="0 0 90 90" fill="none" xmlns="http://www.w3.org/2000/svg">
<g clip-path="url(#clip0_83_29)">
<path d="M9.25926 88.8889H80.7407C85.2593 88.8889 88.8889 85.2593 88.8889 80.7407V19.7778H1.11111V80.7407C1.11111 85.2593 4.74074 88.8889 9.25926 88.8889Z" fill="white" stroke="black" stroke-width="3" stroke-linecap="round" stroke-linejoin="round"/>
<path d="M88.8889 9.25923C88.8889 4.74071 85.2593 1.11108 80.7407 1.11108H9.25926C4.74074 1.11108 1.11111 4.74071 1.11111 9.25923V19.7778H88.8889V9.25923Z" fill="#FFCA41" stroke="black" stroke-width="3" stroke-linecap="round" stroke-linejoin="round"/>
<path d="M58.6667 11.7037C58.6667 13.7037 57.037 15.3334 55.037 15.3334C53.037 15.3334 51.4074 13.7037 51.4074 11.7037C51.4074 9.70375 53.037 8.14819 55.037 8.14819C57.037 8.14819 58.6667 9.70375 58.6667 11.7037Z" fill="black" stroke="black" stroke-miterlimit="10"/>
<path d="M81.037 11.7037C81.037 13.7037 79.4074 15.3333 77.4074 15.3333C75.4074 15.3333 73.7778 13.7037 73.7778 11.7037C73.7778 9.70368 75.4074 8.14812 77.4074 8.14812C79.4815 8.07405 81.037 9.70368 81.037 11.7037Z" fill="black" stroke="black" stroke-miterlimit="10"/>
<path d="M69.8518 11.7037C69.8518 13.7037 68.2222 15.3333 66.2222 15.3333C64.2222 15.3333 62.5926 13.7037 62.5926 11.7037C62.5926 9.70368 64.2222 8.14812 66.2222 8.14812C68.2222 8.07405 69.8518 9.70368 69.8518 11.7037Z" fill="black" stroke="black" stroke-miterlimit="10"/>
<path d="M73.8519 34H16.0741V75.7778H73.8519V34Z" fill="#DDDDDD"/>
<path d="M38.8889 48.8888C38.8889 46.3703 41.7037 44.8888 43.7778 46.3703L50.6667 51.1851C53.037 52.8148 53.037 56.3703 50.6667 58L43.7778 62.8148C41.7037 64.2222 38.8889 62.8148 38.8889 60.2963V48.8888Z" fill="#FFCA41" stroke="black" stroke-width="3" stroke-linecap="round" stroke-linejoin="round"/>
</g>
<defs>
<clipPath id="clip0_83_29">
<rect width="90" height="90" fill="white"/>
</clipPath>
</defs>
</svg>
