<svg width="108" height="90" viewBox="0 0 108 90" fill="none" xmlns="http://www.w3.org/2000/svg">
<g clip-path="url(#clip0_88_104)">
<path d="M97.7994 75.1023L79.7468 58.4518L86.407 50.4771C88.2473 48.2863 84.9172 43.6417 80.7984 42.5025L60.4674 36.9815C58.8023 36.5434 57.1373 35.4041 55.9104 34.002L46.7965 23.3106C48.5492 21.3827 49.9513 19.7177 50.1266 19.4547C50.74 18.7537 48.1986 10.5161 48.0234 9.63975C47.7605 8.85105 43.3788 2.97958 42.5901 1.92797C42.5024 1.84034 42.4148 1.84034 42.3272 1.92797L32.9503 13.8462C32.6874 14.1091 32.4245 14.5473 32.3369 14.9854L30.5842 27.1665C26.9036 25.4139 17.9649 21.1198 16.8257 20.594C16.7381 20.594 16.6504 20.594 16.6504 20.6816L7.27361 32.6875C6.13437 34.002 6.92308 36.8063 9.72736 38.9971L28.7439 53.8949C30.2337 55.1217 31.3729 56.6115 31.6358 58.0137L35.4917 75.6281C36.2804 79.1334 41.4508 82.5512 44.1675 81.3243L58.0136 75.3652C59.1529 74.927 60.7303 75.1023 62.3953 76.0662L82.9893 87.1957C85.2678 88.4226 87.1957 88.2474 88.1597 87.2834L97.7118 75.2775C97.7994 75.1899 97.7994 75.1023 97.7994 75.1023Z" fill="#FFCA41"/>
<path d="M86.0565 89.1237C85.0925 89.1237 83.8656 88.8608 82.5511 88.0721L61.9572 77.0302C60.6427 76.3291 59.2405 76.0662 58.4518 76.4168L44.6057 82.3759C43.2035 82.9893 41.3632 82.7264 39.4352 81.7625C36.8939 80.4479 34.8783 78.1695 34.3525 75.891L30.4966 58.2766C30.2337 57.1373 29.2697 55.7352 27.9552 54.7712L8.93866 39.8734C7.01071 38.3837 5.78384 36.4557 5.60857 34.6154C5.52093 33.5638 5.6962 32.6875 6.30964 31.9864L16.2999 19.3671L17.2639 19.7176C18.2278 20.1558 25.5015 23.6612 29.7079 25.5891L31.2853 14.8978C31.3729 14.4596 31.4606 14.1091 31.7235 13.7585L32.074 13.2327L41.889 0.876361L42.5901 0.788727C42.9406 0.788727 43.2911 0.963995 43.554 1.31453C48.8121 8.32524 49.075 9.11395 49.1626 9.37685L49.2502 9.63975C51.9669 18.9289 51.5287 19.5424 51.0906 20.0682C50.9153 20.3311 49.776 21.6456 48.2863 23.3106L56.7868 33.3009C57.8384 34.5278 59.3281 35.5794 60.7303 35.9299L81.0614 41.4509C84.0409 42.2396 86.9328 44.8686 87.7215 47.5852C88.1597 48.9874 87.9844 50.3019 87.1957 51.1782L81.2366 58.3642L98.5005 74.2259C98.9387 74.6641 99.0263 75.3652 98.5881 75.891L89.036 87.8968C88.4226 88.5979 87.371 89.1237 86.0565 89.1237ZM59.3281 74.0507C60.4674 74.0507 61.6943 74.4012 62.9211 75.1023L83.5151 86.2318C85.4431 87.2834 86.8452 87.1081 87.371 86.5823L96.3973 75.2775L78.2571 58.5395L85.5307 49.7761C85.8812 49.3379 85.7936 48.6368 85.6183 48.1987C85.0925 46.446 82.9893 44.2551 80.4479 43.5541L60.1168 38.0331C58.2765 37.5073 56.4362 36.2805 55.0341 34.703L45.3944 23.3106L46.0078 22.6096C47.4976 20.9445 48.7244 19.4547 49.1626 18.9289C49.1626 18.4908 48.8997 16.6505 47.0594 10.2532L46.9718 9.90265C46.7965 9.46448 44.9562 6.83547 42.4148 3.50538L34.1772 14.0214V14.1091L33.739 14.6349C33.5638 14.8102 33.4761 14.9854 33.4761 15.2483L31.5482 28.9192L30.2337 28.3058C26.9912 26.7284 19.5424 23.223 17.1762 22.0838L8.06232 33.3009C7.79942 33.6514 7.79942 34.0896 7.79942 34.3525C7.88705 35.3165 8.58812 36.8063 10.3408 38.1208L29.3574 53.0185C31.11 54.333 32.3369 56.1733 32.6874 57.7508L36.4557 75.3652C36.8062 76.9426 38.3836 78.7829 40.3992 79.8345C41.7137 80.5356 42.9406 80.7108 43.7293 80.3603L57.5755 74.4012C58.1013 74.2259 58.7147 74.0507 59.3281 74.0507Z" fill="#150035"/>
<path d="M50.3895 4.29406L65.4625 21.9961C66.6894 23.3983 68.3544 24.5375 70.0195 24.9757L90.3505 30.4966C94.4693 31.6358 97.7994 36.3681 95.9591 38.4713L87.0204 49.1626C86.3194 50.039 86.407 51.4411 87.1957 52.9309L97.6241 71.5093C99.7274 75.2775 96.7478 77.3807 92.629 75.1899L72.035 64.0604C70.37 63.184 68.705 62.9211 67.6534 63.3593L53.8072 69.3184C51.0029 70.5453 45.8325 67.1276 45.1314 63.6222L41.1879 46.0078C40.925 44.6057 39.7858 43.0282 38.296 41.889L19.2794 26.9912C15.4236 24.0117 15.2483 19.7176 18.9289 19.8053L37.1568 20.0682C38.6465 20.0682 39.6105 19.3671 39.7858 18.1402L41.9766 2.97955C42.3272 -0.0876322 47.4099 0.701073 50.3895 4.29406Z" fill="white"/>
<path d="M95.7838 77.1178C94.6446 77.1178 93.4177 76.7673 92.1032 76.0662L71.5092 64.9367C70.1947 64.2356 68.7926 63.9727 68.0039 64.3233L54.1577 70.2824C52.7556 70.8958 50.9153 70.6329 48.9873 69.6689C46.446 68.3544 44.4304 65.9883 43.9046 63.7975L40.0487 46.1831C39.7858 45.0438 38.8218 43.6417 37.5073 42.6777L18.4907 27.7799C15.8617 25.6767 14.5472 22.8724 15.2483 20.7692C15.7741 19.3671 17.0886 18.666 18.7536 18.666L36.9815 18.9289C37.5949 18.9289 38.3836 18.7537 38.4713 17.965L40.6621 2.80429C40.8374 1.48978 41.7137 0.52581 42.9406 0.175275C45.3067 -0.525796 48.8121 0.96398 51.0029 3.593L66.0759 21.295C67.1276 22.5219 68.6173 23.5735 70.0195 23.9241L90.3505 29.445C93.3301 30.2337 96.222 32.8627 97.0107 35.5794C97.4489 36.9815 97.2736 38.296 96.4849 39.1724L87.5462 49.8637C87.1081 50.3895 87.2833 51.3535 87.8092 52.4051L98.5881 70.9835C99.7274 72.999 99.7274 74.927 98.5005 76.1538C97.7994 76.7673 96.8354 77.1178 95.7838 77.1178ZM68.8802 62.0448C70.0195 62.0448 71.2463 62.3953 72.4732 63.0964L93.0672 74.2259C94.9951 75.2775 96.3973 75.1022 96.9231 74.5764C97.3612 74.1383 97.2736 73.1743 96.6602 72.035L86.3194 53.4567C85.2678 51.5287 85.2678 49.6884 86.2317 48.4615L95.1704 37.7702C95.5209 37.332 95.4333 36.631 95.258 36.1928C94.7322 34.4401 92.629 32.2493 90.0876 31.5482L69.7566 26.0273C67.9163 25.5015 66.0759 24.2746 64.6738 22.6972L49.6008 4.99514C47.7605 2.80429 45.1314 1.92795 43.8169 2.27849C43.3788 2.45376 43.1159 2.71666 43.0282 3.15483L40.8374 18.3155C40.5745 20.0682 39.0847 21.1198 37.1568 21.1198L18.9289 20.8569C18.1402 20.8569 17.6144 21.1198 17.4391 21.5579C17.0886 22.5219 17.8773 24.4499 19.9805 26.1149L38.9971 41.0127C40.7498 42.3272 41.9766 44.1675 42.3272 45.7449L46.1831 63.3593C46.5336 64.9367 48.111 66.777 50.1266 67.741C51.4411 68.4421 52.668 68.6173 53.4567 68.2668L67.3028 62.3077C67.741 62.1324 68.2668 62.0448 68.8802 62.0448Z" fill="#150035"/>
<path d="M42.1519 90C39.7858 90 37.4197 89.3866 35.2288 88.2473C31.4606 86.2318 28.8315 82.6388 27.9552 78.4323L25.9396 68.5297C24.888 63.4469 21.9961 59.0653 17.7897 56.1733L7.62415 48.9874L8.85102 47.2347L19.0166 54.333C23.6611 57.5755 26.9036 62.483 28.0428 68.0915L30.0584 77.9942C30.7595 81.5872 33.038 84.6544 36.2804 86.407C39.5229 88.1597 43.2911 88.4226 46.7089 87.0205L52.8432 84.5667L53.6319 86.5823L47.4976 89.036C45.7449 89.6495 43.9046 90 42.1519 90Z" fill="#150035"/>
<path d="M99.5521 62.6582L95.1704 55.297C93.5054 52.4927 93.8559 48.9873 95.9591 46.5336L100.604 41.2756C102.532 39.0847 103.233 36.1052 102.444 33.3009C101.655 30.4966 99.5521 28.3058 96.7478 27.4294L78.7829 21.8208L79.3963 19.8053L97.3612 25.4138C100.867 26.4654 103.496 29.2697 104.46 32.7751C105.424 36.2804 104.547 39.9611 102.181 42.7653L97.5365 48.0234C96.0467 49.7761 95.7838 52.2298 96.9231 54.2454L101.305 61.6066L99.5521 62.6582Z" fill="#150035"/>
<path d="M4.73223 46.8841C0.613437 43.8169 0 38.9094 0 38.6465L2.10321 38.3836C2.10321 38.3836 2.62902 42.5901 5.9591 45.0438L4.73223 46.8841Z" fill="#150035"/>
<path d="M99.2016 84.9172L97.4489 83.6027L103.145 75.8909C104.284 74.3135 104.46 72.298 103.671 70.5453L101.831 66.6894L103.759 65.813L105.599 69.6689C106.738 72.1227 106.475 75.0146 104.898 77.2055L99.2016 84.9172Z" fill="#150035"/>
<path d="M107.439 21.295C107.439 20.4187 107.352 19.5424 107.089 18.7536C106.125 14.7225 102.356 11.7429 98.2376 11.6553C97.5365 11.6553 96.7478 11.6553 96.0467 11.6553H85.6183C84.3914 11.6553 83.3398 11.8306 82.2882 12.1811C78.3447 13.5832 75.8909 17.0886 75.8909 21.3827C75.8909 24.1869 75.8909 27.0789 75.8909 29.8832V33.4761C75.8909 34.703 76.0662 35.7546 76.4167 36.7186C77.8189 40.6621 81.3242 43.1159 85.5307 43.1159C87.1957 43.1159 88.8608 43.1159 90.6134 43.1159C91.5774 43.1159 92.5414 43.1159 93.5054 43.1159H97.7994C99.3768 43.1159 100.779 42.853 102.006 42.2395C105.511 40.4869 107.439 37.332 107.527 33.3885C107.527 29.3573 107.527 25.3262 107.439 21.295Z" fill="#FFCA41"/>
<path d="M64.6738 25.2386C64.4109 24.6251 64.148 24.0117 63.7975 23.3983C62.0448 20.6816 58.5394 19.3671 55.4722 20.3311C54.9464 20.5063 54.4206 20.6816 53.8072 20.8569L46.0954 23.4859C45.1315 23.8364 44.4304 24.187 43.7293 24.7128C41.1879 26.7284 40.224 29.9708 41.2756 33.1256C41.9766 35.2288 42.6777 37.3321 43.4664 39.4353L44.3427 42.0643C44.6056 42.9406 45.0438 43.7293 45.5696 44.3428C47.5852 46.8841 50.8277 47.8481 53.9825 46.7965C55.2093 46.3583 56.4362 45.9202 57.7507 45.5696C58.4518 45.3067 59.1529 45.0438 59.8539 44.8686L63.0088 43.817C64.148 43.3788 65.112 42.853 65.9007 42.0643C68.0915 39.8734 68.705 37.0692 67.741 34.1772C66.6894 31.1977 65.6378 28.2181 64.6738 25.2386Z" fill="#FFCA41"/>
<path d="M98.9387 41.3632C94.3817 41.3632 89.7371 41.3632 85.1801 41.3632C84.9172 41.2756 84.6543 41.2756 84.3914 41.1879C80.7984 40.4869 78.2571 37.332 78.1694 33.6514C78.1694 29.5326 78.1694 25.4138 78.1694 21.2074C78.1694 20.1558 78.3447 19.1918 78.7829 18.2279C80.185 15.2483 82.5511 13.6709 85.8812 13.5833C90 13.4956 94.1188 13.5833 98.2376 13.5833C98.7634 13.5833 99.2892 13.5833 99.7274 13.7585C102.795 14.4596 104.81 16.3875 105.686 19.4547C105.774 19.8053 105.862 20.2434 105.949 20.594C105.949 25.1509 105.949 29.7955 105.949 34.3525C105.862 34.6154 105.862 34.8783 105.774 35.1412C105.073 38.2084 103.145 40.224 100.078 41.1003C99.7274 41.1879 99.3768 41.2756 98.9387 41.3632ZM92.1032 16.1246C90.0876 16.1246 88.0721 16.1246 86.0565 16.1246C85.443 16.1246 84.8296 16.2123 84.2162 16.3875C82.0253 17.1762 80.7108 19.0166 80.7108 21.4703C80.7108 25.5015 80.7108 29.5326 80.7108 33.5638C80.7108 34.1772 80.7984 34.7907 80.9737 35.4041C81.7624 37.5949 83.6027 38.9095 85.9688 38.9095C90 38.9095 94.1188 38.9095 98.15 38.9095C98.9387 38.9095 99.7274 38.8218 100.428 38.4713C102.444 37.5073 103.496 35.8423 103.496 33.5638C103.496 29.5326 103.496 25.5015 103.496 21.4703C103.496 20.9445 103.408 20.4187 103.32 19.8929C102.795 17.7897 100.779 16.1246 98.5881 16.1246C96.3973 16.037 94.2941 16.1246 92.1032 16.1246Z" fill="black"/>
<path d="M92.1032 20.3311C96.0467 20.3311 99.2016 23.5735 99.2016 27.5171C99.2016 31.4606 95.9591 34.6154 92.0156 34.6154C88.0721 34.6154 84.9172 31.373 84.9172 27.4294C85.0049 23.5735 88.1597 20.3311 92.1032 20.3311ZM92.1032 32.1617C94.6446 32.1617 96.7478 30.0584 96.8354 27.5171C96.8354 24.9757 94.8199 22.8725 92.1908 22.8725C89.6495 22.8725 87.5463 24.888 87.4586 27.5171C87.371 30.0584 89.4742 32.1617 92.1032 32.1617Z" fill="black"/>
<path d="M99.5521 21.8208C98.5881 21.8208 97.7118 20.9445 97.7994 19.9805C97.7994 19.0165 98.5881 18.2278 99.6397 18.2278C100.604 18.2278 101.48 19.0166 101.48 20.0682C101.305 21.0321 100.516 21.8208 99.5521 21.8208Z" fill="black"/>
<path d="M55.0341 34.703C55.0341 34.6154 55.0341 34.6154 55.1217 34.6154C55.6475 34.4401 56.1733 34.2649 56.6991 34.0019C56.7868 34.0019 56.7868 34.002 56.7868 33.9143C56.6115 33.3009 56.5239 32.6874 56.3486 32.074C56.3486 31.9864 56.3486 31.8987 56.261 31.8987C56.261 31.8111 56.261 31.8111 56.1733 31.8987C55.9981 31.9864 55.9104 31.9864 55.7352 32.074C55.2093 32.2493 54.7712 32.4245 54.2454 32.5998H54.1577C53.9825 32.1616 53.8072 31.6358 53.6319 31.1977C53.5443 30.8471 53.5443 30.5842 53.7196 30.2337C53.8072 30.0584 53.9825 29.8832 54.2454 29.7955C54.5083 29.6203 54.7712 29.5326 55.0341 29.445C55.1217 29.445 55.2093 29.3574 55.297 29.3574C55.297 29.3574 55.3846 29.3574 55.297 29.2697C55.1217 28.7439 54.8588 28.1305 54.6835 27.6047C54.6835 27.6047 54.6835 27.6047 54.5959 27.6047C54.1577 27.6923 53.8072 27.7799 53.369 27.9552C53.0185 28.0428 52.7556 28.1305 52.4927 28.3057C51.8793 28.6563 51.4411 29.1821 51.1782 29.7955C51.0029 30.2337 51.0029 30.7595 51.1782 31.1977C51.2658 31.4606 51.2658 31.6358 51.3535 31.8987C51.5287 32.4245 51.704 32.8627 51.9669 33.3885C51.9669 33.4761 51.9669 33.4761 51.9669 33.4761C51.4411 33.6514 50.8277 33.9143 50.3019 34.0896C50.2142 34.0896 50.2142 34.0896 50.3019 34.1772C50.5648 34.7907 50.8277 35.4917 51.0906 36.1052C51.0906 36.1928 51.0906 36.1928 51.1782 36.1052C51.704 35.9299 52.3174 35.667 52.8432 35.4917C52.9309 35.4917 52.9309 35.4917 52.9309 35.4917C53.2814 36.2804 53.5443 37.1568 53.8948 37.9455C54.1577 38.7342 54.5083 39.5229 54.7712 40.3116L57.0497 39.4353C56.261 37.9455 55.6475 36.2804 55.0341 34.703Z" fill="black"/>
</g>
<defs>
<clipPath id="clip0_88_104">
<rect width="107.527" height="90" fill="white"/>
</clipPath>
</defs>
</svg>
