<svg width="76" height="90" viewBox="0 0 76 90" fill="none" xmlns="http://www.w3.org/2000/svg">
<g clip-path="url(#clip0_88_78)">
<path d="M53.161 25.0169C53.0085 25.0169 52.856 25.0169 52.7034 25.0169L52.3221 25.1695L47.5932 26.161L65.6695 5.03386C65.7458 4.95759 65.6695 4.88132 65.5933 4.80505L55.0678 0.762678C54.839 0.686407 54.4577 0.762678 54.0763 1.06776L6.55934 47.822C6.25425 48.1271 6.10171 48.2034 6.25425 48.3559L6.4068 48.5084L17.9237 52.6271C17.9237 52.6271 17.8475 52.7796 17.7712 52.9322L1.3729 76.7288C1.14408 77.0339 1.22036 77.2627 1.44917 77.339H1.52544L12.1271 81.3813C12.2797 81.4576 12.4322 81.3813 12.5085 81.3051L48.661 38.4406L63.6865 29.2118C63.839 29.1356 63.839 28.983 63.6102 28.9067L53.161 25.0169Z" fill="#FFCA41"/>
<path d="M12.2797 82.2203C11.9746 82.2203 11.7458 82.1441 11.517 82.0678L0.915268 78.0254C0.228828 77.7203 -0.305071 77.1864 0.228828 76.4237L16.3983 53.0085L5.49154 49.1186L5.18646 48.8135C4.65256 48.2797 5.11018 47.822 5.41527 47.5169L53.0848 0.686434C53.8475 -0.076278 54.9153 -0.152549 55.678 0.0762643L66.2797 4.11864C66.9661 4.34745 67.1949 4.95762 66.8136 5.33898L50.1102 24.7881L52.0932 24.3305C52.3983 24.2542 52.7797 24.178 53.0848 24.178L53.3898 24.1017L64.2966 28.2966C64.678 28.4491 64.9831 28.678 65.0593 28.983C65.1356 29.2881 64.9831 29.5932 64.6017 29.7458L49.7288 38.8983L13.4237 81.9152L12.7373 82.0678C12.5085 82.2203 12.4322 82.2203 12.2797 82.2203ZM2.59323 76.8813L11.8983 80.3898L47.822 37.9068L62.0085 29.2119L53.0848 25.7797L52.8559 25.8559L45.2288 27.3813L64.2966 5.11016L55.1441 1.60169L7.85595 48.0508L19.4492 52.2458L19.0678 53.161L2.59323 76.8813Z" fill="#150035"/>
<path d="M64.9831 5.26272L17.3898 51.9407C16.8559 52.4746 17.161 52.9322 17.8475 52.7034L34.8559 46.6017C35.4661 46.3729 35.7712 46.7543 35.4661 47.2119L12.2034 80.8475C11.7458 81.5339 12.661 81.7627 13.2712 81.1526L64.0678 29.8983C64.5254 29.3644 64.2204 28.9068 63.6102 29.1356L46.2966 35.3136C45.6865 35.5424 45.3814 35.161 45.6865 34.7034L66.0509 5.56781C66.5085 4.88137 65.5932 4.57628 64.9831 5.26272Z" fill="white"/>
<path d="M12.5085 82.2966C12.2034 82.2966 11.9746 82.2203 11.7458 82.2203C11.0593 81.9915 10.5254 81.3813 11.0593 80.6186L33.6356 47.9746L18.5339 53.3898C17.7712 53.6186 16.9322 53.6186 16.3983 53.2373C15.7881 52.8559 15.7119 52.1695 16.322 51.5593L63.9153 4.80509C64.678 4.04237 65.822 3.9661 66.5085 4.19492C67.1949 4.42373 67.7288 5.0339 67.1949 5.79661L47.517 34.0169L62.9237 28.5254C63.6865 28.2966 64.4492 28.2966 64.9831 28.678C65.5932 29.0593 65.6695 29.7458 65.0593 30.3559L14.339 81.6102C13.8814 82.0678 13.1187 82.2966 12.5085 82.2966ZM35.2373 45.7627C35.6187 45.7627 36 45.839 36.3051 45.9915C36.9153 46.2966 37.0678 46.9068 36.6865 47.4407L16.9322 76.0424L61.8559 30.661L46.9068 36C46.2204 36.2288 45.4576 36.2288 44.9237 35.9237C44.3136 35.6186 44.161 35.0085 44.5424 34.4746L61.5509 10.0678L19.678 51.178L34.2458 45.9915C34.6271 45.839 34.9322 45.7627 35.2373 45.7627Z" fill="#150035"/>
<path d="M26.0848 19.2203L23.9492 18.3813L41.9492 0.915222L44.0085 1.75421L26.0848 19.2203Z" fill="#150035"/>
<path d="M18.0763 26.9999L15.9407 26.161L21.5848 20.6694L23.6441 21.5084L18.0763 26.9999Z" fill="#150035"/>
<path d="M23.2627 82.144L21.2034 81.3813L39.1271 63.9152L41.2627 64.6779L23.2627 82.144Z" fill="#150035"/>
<path d="M15.2542 89.9999L13.1949 89.161L18.7627 83.6694L20.8983 84.5084L15.2542 89.9999Z" fill="#150035"/>
<path d="M46.9831 72.9153C45.9915 72.9153 45.1526 72.0763 45.1526 71.0848V45.4576C45.1526 44.4661 45.9915 43.6271 46.9831 43.6271H72.6102C73.6017 43.6271 74.4407 44.4661 74.4407 45.4576V71.0848C74.4407 72.0763 73.6017 72.9153 72.6102 72.9153H46.9831Z" fill="white" stroke="black" stroke-width="3" stroke-linecap="round" stroke-linejoin="round"/>
<path d="M55.8305 54.6102C55.8305 53.0085 57.661 52.017 59.0339 52.9322L63.5339 56.0593C65.0593 57.1271 65.0593 59.4153 63.5339 60.4831L59.0339 63.6102C57.661 64.5254 55.8305 63.6102 55.8305 61.9322V54.6102Z" fill="#FFCA41" stroke="black" stroke-width="2" stroke-linecap="round" stroke-linejoin="round"/>
</g>
<defs>
<clipPath id="clip0_88_78">
<rect width="75.5847" height="90" fill="white"/>
</clipPath>
</defs>
</svg>
