<svg width="90" height="90" viewBox="0 0 90 90" fill="none" xmlns="http://www.w3.org/2000/svg">
<path d="M78.6259 11.4504H11.4504V78.6259H78.6259V11.4504Z" fill="#FFCA41"/>
<path d="M78.626 79.771H11.4504C10.8397 79.771 10.3053 79.2367 10.3053 78.626V11.4504C10.3053 10.8397 10.8397 10.3054 11.4504 10.3054H78.626C79.2366 10.3054 79.771 10.8397 79.771 11.4504V78.626C79.771 79.2367 79.2366 79.771 78.626 79.771ZM12.5954 77.4809H77.4809V12.5954H12.5954V77.4809Z" fill="black"/>
<path d="M21.6794 90H1.14504C0.534351 90 0 89.4656 0 88.8549V68.3206C0 67.7099 0.534351 67.1755 1.14504 67.1755C1.83206 67.1755 2.29008 67.7099 2.29008 68.3206V87.6336H21.6031C22.2137 87.6336 22.7481 88.1679 22.7481 88.7786C22.8244 89.4656 22.2901 90 21.6794 90Z" fill="black"/>
<path d="M88.855 22.8244C88.2443 22.8244 87.7099 22.2901 87.7099 21.6794V2.29008H68.3206C67.7099 2.29008 67.1756 1.83206 67.1756 1.14504C67.1756 0.534351 67.7099 0 68.3206 0H88.855C89.4656 0 90 0.534351 90 1.14504V21.6794C90 22.2901 89.4656 22.8244 88.855 22.8244Z" fill="black"/>
<path d="M37.4046 41.4504C37.4046 38.855 40.3053 37.3282 42.4427 38.855L49.542 43.8168C51.9847 45.4962 51.9847 49.1603 49.542 50.8397L42.4427 55.8015C40.3053 57.2519 37.4046 55.7252 37.4046 53.1298V41.4504Z" fill="white" stroke="black" stroke-width="3" stroke-linecap="round" stroke-linejoin="round"/>
</svg>
