<svg width="97" height="90" viewBox="0 0 97 90" fill="none" xmlns="http://www.w3.org/2000/svg">
<g clip-path="url(#clip0_89_105)">
<path d="M42.6036 87.9763L48.4616 81.3728V81.2663L39.8343 79.0296C39.8343 79.0296 39.8343 79.0296 39.7278 78.9231L43.2426 62.7337C42.071 59.2189 28.6509 48.7811 25.0296 48.0355L10.9704 53.0414C10.9704 53.0414 10.8639 53.0414 10.8639 52.9349L7.77517 44.5207C7.77517 44.4142 7.66866 44.4142 7.66866 44.5207L1.81068 51.1243C0.958606 51.9763 0.745588 53.4675 1.27813 55.2781L8.0947 76.3669C9.2663 79.8817 13.1006 83.3964 16.8284 84.2485L38.5562 88.9349C40.3669 89.2544 41.7515 88.9349 42.6036 87.9763ZM25.1361 61.5621C27.1598 61.9882 29.29 63.9053 29.8225 65.8225L33.0178 75.5148L30.2485 74.7692L28.9704 76.1538L15.5503 65.3965C15.5503 65.3965 16.8284 64.0118 16.8284 63.9053L15.2308 59.432C15.2308 59.3254 15.2308 59.3254 15.3373 59.3254L25.1361 61.5621Z" fill="#FFCA41"/>
<path d="M39.9409 90C39.4083 90 38.8758 89.8935 38.3432 89.787L16.6154 85.2071C12.6746 84.355 8.41423 80.5207 7.24263 76.6864L0.319555 55.5976C-0.319499 53.4675 -0.106481 51.6568 1.06512 50.4852L7.24263 43.5621L8.41423 43.7751L8.62725 44.3077L11.3965 51.8698L24.9231 47.0769L25.1361 47.1834C29.077 48.0355 42.8166 58.6864 44.0947 62.5207L44.2012 62.7337L40.7929 78.3905L49.1006 80.5207L49.4201 81.5858L48.9941 82.1183L43.1361 88.6154C42.4971 89.574 41.3255 90 39.9409 90ZM7.45565 46.3314L2.55624 51.7633C1.91719 52.5089 1.81068 53.574 2.23671 54.9586L9.05328 76.0473C10.1184 79.2426 13.7397 82.5444 17.0414 83.2899L38.7693 87.9763C40.1539 88.2959 41.3255 88.0828 41.858 87.3373L46.8639 81.7988L38.9823 79.8817L38.6627 79.1361L42.284 62.8402C40.7929 59.5385 28.6509 50.1657 25.1361 49.1006L11.077 54.1065L10.3314 53.8935L10.1184 53.3609L7.45565 46.3314ZM28.8639 77.2189C28.6509 77.2189 28.4379 77.1124 28.2249 76.8994L14.5917 65.929V65.503C14.5917 65.0769 14.5917 65.0769 15.4438 64.0118C15.5503 63.9053 15.5503 63.7988 15.6568 63.7988L14.0592 59.3254L14.8048 58.3669L15.4438 58.4734L25.3491 60.6036C27.6923 61.1361 30.0355 63.2663 30.7811 65.503L34.5089 76.8994L30.5681 75.8343C30.4616 75.9408 30.4616 75.9408 30.3551 76.0473C29.716 76.7929 29.29 77.2189 28.8639 77.2189ZM16.8284 65.2899L28.7574 74.8757L28.8639 74.7692C29.716 73.8106 29.8225 73.7041 30.3551 73.8107L31.5267 74.1302L28.8639 66.0355C28.3314 64.4379 26.5207 62.7337 24.8166 62.4142L16.5089 60.7101L17.574 63.6923C17.787 64.2249 17.6805 64.3314 16.8284 65.2899Z" fill="#150035"/>
<path d="M33.4438 48.4615L11.716 43.7751C8.0947 43.0296 6.07103 45.2662 7.24263 48.781L14.0592 69.9763C15.2308 73.4911 19.0651 77.0059 22.6864 77.7515L44.4142 82.4378C48.0355 83.1834 50.0592 80.9467 48.8876 77.4319L42.071 56.2367C40.8994 52.7219 37.0651 49.2071 33.4438 48.4615ZM39.5148 71.0414C40.1539 72.9586 39.0888 74.1301 37.0651 73.7041L25.0296 71.1479C23.1124 70.7219 20.9823 68.8047 20.3432 66.8875L16.5089 55.1716C15.9764 53.2544 17.0414 52.0828 18.9586 52.5088L30.9941 55.0651C32.9113 55.4911 35.0414 57.4083 35.6805 59.3254L39.5148 71.0414Z" fill="white"/>
<path d="M45.7988 83.503C45.2663 83.503 44.7337 83.3964 44.2012 83.2899L22.4734 78.6035C18.5325 77.7515 14.3787 74.0237 13.1006 70.1893L6.28403 48.9941C5.64497 46.9704 5.85799 45.1598 6.92308 43.9882C7.98817 42.8166 9.79882 42.3905 11.8225 42.8166L33.5503 47.5029C37.4911 48.355 41.645 52.0828 42.9231 55.9172L49.7397 77.1124C50.3787 79.1361 50.1657 80.9467 49.1006 82.1183C48.355 83.0769 47.1834 83.503 45.7988 83.503ZM10.2249 44.5207C9.37279 44.5207 8.73373 44.7337 8.3077 45.2663C7.66864 45.9053 7.56213 47.0769 8.09468 48.4615L14.9112 69.6568C15.9763 72.8521 19.5976 76.1538 22.7929 76.7929L44.5207 81.4793C45.9053 81.7988 47.0769 81.5858 47.6095 80.8402C48.2485 80.2012 48.355 79.0296 47.8225 77.645L41.0059 56.4497C39.9408 53.2544 36.3195 49.9527 33.1243 49.3136L11.3965 44.7337C11.0769 44.6272 10.6509 44.5207 10.2249 44.5207ZM37.8107 74.7692C37.4911 74.7692 37.1716 74.7692 36.8521 74.6627L24.8166 72.1065C22.4734 71.574 20.1302 69.4438 19.4911 67.2071L15.6568 55.4911C15.2308 54.213 15.4438 53.1479 16.0828 52.2958C16.7219 51.5503 17.8935 51.2308 19.1716 51.5503L31.2071 54.1065C33.5503 54.639 35.8935 56.7692 36.5325 59.0059L40.3669 70.7219C40.7929 72 40.5799 73.0651 39.9408 73.9172C39.4083 74.4497 38.6627 74.7692 37.8107 74.7692ZM18.213 53.3609C17.8935 53.3609 17.574 53.4674 17.4675 53.574C17.2544 53.787 17.2544 54.3195 17.4675 54.8521L21.3018 66.568C21.8343 68.1657 23.645 69.7633 25.2426 70.1893L37.2781 72.7456C37.9172 72.8521 38.3432 72.8521 38.5562 72.5325C38.7692 72.3195 38.7692 71.787 38.5562 71.2544L34.7219 59.5385C34.1894 57.9408 32.3787 56.3432 30.7811 55.9172L18.7456 53.3609C18.6391 53.3609 18.426 53.3609 18.213 53.3609Z" fill="#150035"/>
<path d="M69.0178 14.0592L70.9349 17.8935H71.0415L73.4912 14.3787L80.2012 18.7456C82.0119 18.8521 88.9349 14.4852 89.8935 12.9941L90 5.75148H94.2604C94.2604 5.75148 94.3669 5.75148 94.2604 5.64498L92.6628 1.91716C92.4497 1.38462 91.8107 1.06509 90.8521 0.958584L80.0947 0.426039C78.2841 0.31953 76.0474 1.49113 75.0888 2.98225L69.3373 12.0355C68.8048 12.8876 68.8048 13.5266 69.0178 14.0592ZM83.929 10.6509C83.3965 11.503 82.1184 12.142 81.1598 12.0355L76.2604 11.8225L77.1125 10.6509L76.6864 9.79882L83.8225 5.53847L84.2486 6.39054H86.5918C86.5918 6.39054 86.6983 6.39054 86.5918 6.49705L83.929 10.6509Z" fill="#FFCA41"/>
<path d="M68.5918 12.5681C68.6983 12.355 68.8048 12.142 68.9113 11.929L74.6628 2.87575C75.7278 1.27812 78.1776 9.12696e-06 80.0947 0.106518L90.8521 0.639062C91.9172 0.639062 92.6628 1.0651 92.9823 1.81066L95.006 5.75149L94.7929 6.17752H94.4734H90.5326V13.1006L90.4261 13.2071C89.361 14.8047 82.2249 19.2781 80.3077 19.1716H80.2012L73.7042 14.9113L71.2545 18.3195H70.7219L70.6154 18.1065L68.6983 14.3787C68.3787 13.7397 68.3787 13.2071 68.5918 12.5681ZM93.8344 5.21894L92.2367 2.02368C92.0237 1.59764 91.4912 1.38462 90.8521 1.27812L80.0947 0.958589C78.4971 0.85208 76.3669 2.02368 75.5148 3.30178L69.7634 12.355C69.3373 12.9941 69.3373 13.5266 69.4438 13.8462L71.0415 17.0414L73.2782 13.8462H73.7042L80.4142 18.213C82.1184 18.1065 88.5089 14.1657 89.574 12.7811L89.6805 5.53847L89.8935 5.21894H90.2131H93.8344ZM76.2604 9.69232C76.2604 9.58581 76.3669 9.58581 76.4734 9.4793L83.8225 5.11244H84.0355C84.1421 5.32545 84.1421 5.32545 84.4616 5.858C84.4616 5.858 84.4616 5.96451 84.5681 5.96451H86.9113L87.2308 6.49705L87.1243 6.81658L84.4616 10.9704C83.8225 11.929 82.4379 12.6746 81.2663 12.5681L75.5148 12.2485L76.6864 10.6509C76.6864 10.6509 76.6864 10.5444 76.5799 10.5444C76.2604 10.1184 76.1539 9.90534 76.2604 9.69232ZM83.6095 6.28403L77.219 10.0118C77.5385 10.5444 77.5385 10.6509 77.432 10.8639L77.1125 11.29L81.2663 11.503C82.1184 11.503 83.1835 10.9704 83.6095 10.3314L85.8462 6.81658H84.3551C84.0355 6.92309 83.929 6.81658 83.6095 6.28403C83.716 6.28403 83.716 6.28403 83.6095 6.28403Z" fill="#150035"/>
<path d="M88.5089 16.6154L94.3669 7.56213C95.3255 6.07101 94.6864 4.7929 92.8758 4.6864L82.0119 4.26036C80.2012 4.15385 77.9645 5.32545 77.006 6.81657L71.148 15.8698C70.1894 17.361 70.8284 18.6391 72.6391 18.7456L83.3965 19.2781C85.3136 19.2781 87.5503 18.213 88.5089 16.6154ZM77.219 15.5503C76.2604 15.5503 75.9409 14.8047 76.3669 13.9527L79.5622 8.94675C80.0947 8.09468 81.2663 7.45563 82.2249 7.56213L88.1894 7.88166C89.148 7.88166 89.4675 8.62722 89.0414 9.47929L85.8462 14.4852C85.3136 15.3373 84.142 15.9763 83.1835 15.8698L77.219 15.5503Z" fill="white"/>
<path d="M70.5089 16.2959C70.6154 16.0828 70.7219 15.8698 70.8284 15.6568L76.6864 6.60355C77.7515 4.89941 80.0947 3.72781 82.1184 3.83432L92.8758 4.26035C93.9409 4.26035 94.6864 4.68639 95.0059 5.43195C95.3255 6.17751 95.219 7.02958 94.6864 7.88166L88.8284 16.9349C87.7633 18.6391 85.4201 19.8106 83.3965 19.7041L72.7456 19.1716C71.6805 19.1716 70.9349 18.7456 70.6154 18C70.2959 17.574 70.2959 16.9349 70.5089 16.2959ZM94.1539 6.81657C94.2604 6.39053 94.2604 6.071 94.1539 5.85799C93.9409 5.43195 93.4083 5.21893 92.7693 5.21893L82.0119 4.68639C80.4142 4.57988 78.284 5.64497 77.432 7.02958L71.574 16.0828C71.148 16.6154 71.148 17.2544 71.2545 17.574C71.4675 18 72 18.213 72.6391 18.213L83.3965 18.7456C84.9941 18.8521 87.1243 17.787 87.9764 16.4024L93.8343 7.34911C94.0474 7.13609 94.1539 7.02958 94.1539 6.81657ZM75.8343 14.1657C75.8343 14.0592 75.9409 13.8462 76.0474 13.7396L79.2426 8.73373C79.8817 7.77515 81.2663 7.02958 82.3314 7.13609L88.2959 7.45562C88.9349 7.45562 89.4675 7.77515 89.6805 8.20118C89.8935 8.62722 89.8935 9.15976 89.4675 9.69231L86.2722 14.6982C85.6332 15.6568 84.2485 16.4024 83.1835 16.2959L77.219 15.9763C76.5799 15.9763 76.0474 15.6568 75.8343 15.2308C75.7278 15.0177 75.7278 14.5917 75.8343 14.1657ZM88.8284 8.94674C88.9349 8.84023 88.9349 8.62722 88.8284 8.52071C88.7219 8.4142 88.5089 8.30769 88.2959 8.30769L82.3314 7.98816C81.4793 7.98816 80.5207 8.52071 79.9882 9.15976L76.7929 14.1657C76.6864 14.4852 76.5799 14.6982 76.6864 14.9112C76.7929 15.0177 77.0059 15.1243 77.219 15.1243L83.1835 15.4438C84.0355 15.4438 84.9941 14.9112 85.5267 14.2722L88.7219 9.26627C88.8284 9.15976 88.8284 9.05325 88.8284 8.94674Z" fill="#150035"/>
<path d="M36.7456 67.6331C35.361 67.6331 34.1894 66.4615 34.1894 65.0769V29.2899C34.1894 27.9053 35.361 26.7337 36.7456 26.7337H72.426C73.8107 26.7337 74.9823 27.9053 74.9823 29.2899V65.0769C74.9823 66.4615 73.8107 67.6331 72.426 67.6331H36.7456Z" fill="white" stroke="black" stroke-width="3" stroke-linecap="round" stroke-linejoin="round"/>
<path d="M48.9941 42.071C48.9941 39.8343 51.5503 38.4497 53.4675 39.7278L59.7515 44.0947C61.8817 45.5858 61.8817 48.7811 59.7515 50.2722L53.4675 54.6391C51.5503 55.9172 48.9941 54.6391 48.9941 52.2959V42.071Z" fill="#FFCA41" stroke="black" stroke-width="2" stroke-linecap="round" stroke-linejoin="round"/>
<path d="M21.5148 31.5266C21.3018 31.6332 21.0888 31.6332 20.8758 31.6332L5.96453 26.9468C5.5385 26.8403 5.32548 26.3077 5.43199 25.8817C5.5385 25.4556 6.07104 25.2426 6.49708 25.3491L21.4083 30.0355C21.8344 30.142 22.0474 30.6746 21.9409 31.1006C21.8344 31.2071 21.6213 31.4201 21.5148 31.5266Z" fill="black"/>
<path d="M11.716 36.6391C11.503 36.7456 11.29 36.7456 11.077 36.7456C10.6509 36.6391 10.4379 36.1065 10.5444 35.6805L15.1243 20.7693C15.2308 20.3432 15.7634 20.1302 16.1894 20.2367C16.6154 20.3432 16.8284 20.8758 16.7219 21.3018L12.142 36.213C12.142 36.3195 11.929 36.5326 11.716 36.6391Z" fill="black"/>
<path d="M96.3906 25.2426L89.787 28.6509C89.361 28.8639 88.9349 28.7574 88.7219 28.3314C88.5089 27.9053 88.6154 27.4793 89.0414 27.2663L95.645 23.858C96.071 23.645 96.4971 23.7515 96.7101 24.1775C96.9231 24.4971 96.8166 25.0296 96.3906 25.2426Z" fill="black"/>
<path d="M62.9468 81.9054L59.645 88.5089C59.432 88.9349 58.8994 89.0415 58.5799 88.8284C58.1539 88.6154 58.0474 88.0829 58.2604 87.7633L61.6687 81.1598C61.8817 80.7338 62.4142 80.6273 62.7338 80.8403C63.0533 80.9468 63.1598 81.4793 62.9468 81.9054Z" fill="black"/>
<path d="M63.9054 8.09469L65.716 15.3373C65.8225 15.7633 65.503 16.1894 65.0769 16.2959C64.6509 16.4024 64.2249 16.0829 64.1184 15.6568L62.3077 8.41422C62.2012 7.98818 62.5207 7.56215 62.9468 7.45564C63.3728 7.34913 63.7988 7.66866 63.9054 8.09469Z" fill="black"/>
<path d="M81.5858 78.3905L80.8403 77.4319C90.7456 69.9763 88.935 58.4734 88.935 58.3669L90.2131 58.1538C90.1065 58.2603 92.2367 70.5089 81.5858 78.3905Z" fill="#150035"/>
</g>
<defs>
<clipPath id="clip0_89_105">
<rect width="96.8166" height="90" fill="white"/>
</clipPath>
</defs>
</svg>
