<svg width="64" height="63" viewBox="0 0 64 63" fill="none" xmlns="http://www.w3.org/2000/svg">
<path d="M30.6463 0.993652H7.00939C3.70423 0.993652 1 3.67662 1 6.9558V44.716C1 47.9952 3.70423 50.6782 7.00939 50.6782H15.2222L11.1158 61.9069L26.9405 50.6782H30.6463C33.9515 50.6782 36.6557 47.9952 36.6557 44.716V6.9558C36.6557 3.67662 33.9515 0.993652 30.6463 0.993652Z" fill="white"/>
<path d="M11.1174 63C10.9171 63 10.7167 62.9006 10.5164 62.8013C10.216 62.5032 10.0156 62.1057 10.216 61.7082L13.8216 51.7713H7.01095C3.10485 51.7713 0 48.6908 0 44.8155V6.95584C0 3.08044 3.10485 0 7.01095 0H30.6479C34.554 0 37.6588 3.08044 37.6588 6.95584V44.7161C37.6588 48.5915 34.554 51.6719 30.6479 51.6719H27.2426L11.7183 62.8013C11.518 62.9006 11.3177 63 11.1174 63ZM7.01095 1.98738C4.20657 1.98738 2.00313 4.1735 2.00313 6.95584V44.7161C2.00313 47.4984 4.20657 49.6845 7.01095 49.6845H15.2238C15.5243 49.6845 15.8247 49.8833 16.025 50.082C16.2254 50.2808 16.2254 50.6782 16.1252 50.9763L13.1205 59.224L26.3412 49.7839C26.5415 49.6845 26.7418 49.5852 26.9421 49.5852H30.6479C33.4523 49.5852 35.6557 47.3991 35.6557 44.6167V6.95584C35.6557 4.1735 33.4523 1.98738 30.6479 1.98738H7.01095Z" fill="#1F1E1F"/>
<path d="M22.1338 10.8311H15.5234V28.6181H22.1338V10.8311Z" fill="white"/>
<path d="M22.1353 29.6118H15.525C14.9241 29.6118 14.5234 29.2144 14.5234 28.6182V10.8311C14.5234 10.2349 14.9241 9.8374 15.525 9.8374H22.1353C22.7363 9.8374 23.1369 10.2349 23.1369 10.8311V28.6182C23.1369 29.115 22.7363 29.6118 22.1353 29.6118ZM16.5266 27.6245H21.1338V11.8248H16.5266V27.6245Z" fill="#1F1E1F"/>
<path d="M22.1338 34.2822H15.5234V40.2444H22.1338V34.2822Z" fill="white"/>
<path d="M22.1353 41.1385H15.525C14.9241 41.1385 14.5234 40.741 14.5234 40.1448V34.1827C14.5234 33.5864 14.9241 33.189 15.525 33.189H22.1353C22.7363 33.189 23.1369 33.5864 23.1369 34.1827V40.1448C23.1369 40.741 22.7363 41.1385 22.1353 41.1385ZM16.5266 39.1511H21.1338V35.1763H16.5266V39.1511Z" fill="#1F1E1F"/>
<path d="M58.8901 38.8536C61.4941 36.0712 62.9965 32.5933 62.9965 28.7179C62.9965 19.7747 54.6835 12.6201 44.3674 12.6201C34.0513 12.6201 25.7383 19.8741 25.7383 28.7179C25.7383 37.6611 34.0513 44.8157 44.3674 44.8157C46.9715 44.8157 49.4754 44.3189 51.779 43.5239L61.4942 48.2936L58.8901 38.8536Z" fill="#FFCA41"/>
<path d="M61.4957 49.2871C61.2954 49.2871 61.1952 49.2871 61.0951 49.1877L51.7805 44.6168C49.3768 45.4117 46.973 45.9086 44.369 45.9086C33.5521 45.9086 24.7383 38.2571 24.7383 28.8171C24.7383 19.377 33.5521 11.7256 44.369 11.7256C55.1859 11.7256 63.9996 19.377 63.9996 28.8171C63.9996 32.5931 62.5974 36.2698 59.9934 39.1515L62.4973 47.9953C62.5974 48.3928 62.4973 48.7903 62.1968 48.989C61.8963 49.1877 61.696 49.2871 61.4957 49.2871ZM51.7805 42.53C51.9808 42.53 52.081 42.53 52.1812 42.6294L59.8932 46.4054L57.8901 39.1515C57.7899 38.8533 57.8901 38.4559 58.0904 38.2571C60.5943 35.5742 61.9965 32.295 61.9965 28.8171C61.9965 20.4701 54.0841 13.713 44.369 13.713C34.6538 13.713 26.7414 20.4701 26.7414 28.8171C26.7414 37.1641 34.6538 43.9212 44.369 43.9212C46.7727 43.9212 49.1765 43.5237 51.4801 42.6294C51.5802 42.53 51.6804 42.53 51.7805 42.53Z" fill="#1F1E1F"/>
<path d="M38.4597 28.7176C38.4597 30.4069 37.0575 31.7981 35.3548 31.7981C33.6522 31.7981 32.25 30.4069 32.25 28.7176C32.25 27.0284 33.6522 25.6372 35.3548 25.6372C37.0575 25.6372 38.4597 27.0284 38.4597 28.7176Z" fill="white"/>
<path d="M35.3564 32.7918C33.153 32.7918 31.25 31.0032 31.25 28.7177C31.25 26.5316 33.0528 24.6436 35.3564 24.6436C37.5599 24.6436 39.4628 26.4322 39.4628 28.7177C39.4628 31.0032 37.5599 32.7918 35.3564 32.7918ZM35.3564 26.6309C34.2547 26.6309 33.2531 27.5253 33.2531 28.7177C33.2531 29.8107 34.1545 30.8044 35.3564 30.8044C36.4581 30.8044 37.4597 29.9101 37.4597 28.7177C37.4597 27.6246 36.4581 26.6309 35.3564 26.6309Z" fill="#1F1E1F"/>
<path d="M47.4753 28.7176C47.4753 30.4069 46.0731 31.7981 44.3705 31.7981C42.6678 31.7981 41.2656 30.4069 41.2656 28.7176C41.2656 27.0284 42.6678 25.6372 44.3705 25.6372C46.0731 25.6372 47.4753 27.0284 47.4753 28.7176Z" fill="white"/>
<path d="M44.372 32.7918C42.1686 32.7918 40.2656 31.0032 40.2656 28.7177C40.2656 26.5316 42.0684 24.6436 44.372 24.6436C46.5755 24.6436 48.4785 26.4322 48.4785 28.7177C48.4785 31.0032 46.5755 32.7918 44.372 32.7918ZM44.372 26.6309C43.2703 26.6309 42.2688 27.5253 42.2688 28.7177C42.2688 29.8107 43.1702 30.8044 44.372 30.8044C45.5739 30.8044 46.4753 29.9101 46.4753 28.7177C46.4753 27.6246 45.4738 26.6309 44.372 26.6309Z" fill="#1F1E1F"/>
<path d="M56.487 28.7176C56.487 30.4069 55.0849 31.7981 53.3822 31.7981C51.6795 31.7981 50.2773 30.4069 50.2773 28.7176C50.2773 27.0284 51.6795 25.6372 53.3822 25.6372C55.0849 25.6372 56.487 27.0284 56.487 28.7176Z" fill="white"/>
<path d="M53.3838 32.7918C51.1803 32.7918 49.2773 31.0032 49.2773 28.7177C49.2773 26.5316 51.0802 24.6436 53.3838 24.6436C55.5872 24.6436 57.4902 26.4322 57.4902 28.7177C57.4902 31.0032 55.5872 32.7918 53.3838 32.7918ZM53.3838 26.6309C52.282 26.6309 51.2805 27.5253 51.2805 28.7177C51.2805 29.8107 52.1819 30.8044 53.3838 30.8044C54.4855 30.8044 55.487 29.9101 55.487 28.7177C55.487 27.6246 54.4855 26.6309 53.3838 26.6309Z" fill="#1F1E1F"/>
</svg>
