<svg width="304" height="313" viewBox="0 0 304 313" fill="none" xmlns="http://www.w3.org/2000/svg">
<circle cx="167.5" cy="154.214" r="136.5" fill="#FDE3A0"/>
<circle cx="24" cy="42" r="24" fill="#FDE3A0"/>
<circle cx="261" cy="298" r="15" fill="#FDE3A0"/>
<path d="M125.651 167.947L127.111 170.867H125.813H125.651L124.191 167.947H125.651Z" fill="#2E2E2E" stroke="black" stroke-width="1.62197"/>
<path d="M154.212 168.758L154.861 171.677H153.725H153.401L152.59 168.758H154.212Z" fill="#2E2E2E" stroke="black" stroke-width="1.62197"/>
<path d="M127.76 153.35L125.651 167.947H124.191L126.3 153.35H127.76Z" fill="#636363" stroke="black" stroke-width="1.62197"/>
<path d="M156.158 153.998L154.212 168.758H152.59L154.374 153.998H156.158Z" fill="#636363" stroke="black" stroke-width="1.62197"/>
<path d="M177.25 200.062L177.088 202.008L173.844 199.251L174.168 197.629H174.33L177.25 200.062Z" fill="#636363" stroke="black" stroke-width="1.62197"/>
<path d="M170.922 220.661L173.517 224.878L173.193 227.311L170.273 222.607L170.598 220.661H170.922Z" fill="#636363" stroke="black" stroke-width="1.62197"/>
<path d="M170.273 246.774L169.949 248.721L166.543 245.477L166.867 243.53L170.273 246.774Z" fill="#636363" stroke="black" stroke-width="1.62197"/>
<path d="M114.145 262.021L115.281 265.589H113.497L112.523 262.183V262.021H114.145Z" fill="#636363" stroke="black" stroke-width="1.62197"/>
<path d="M138.794 262.183V266.075H137.172V262.021H138.794V262.183Z" fill="#636363" stroke="black" stroke-width="1.62197"/>
<path d="M112.513 262.183L113.486 265.589L91.4274 265.102L88.5078 262.021H112.513V262.183Z" fill="#636363" stroke="black" stroke-width="1.62197"/>
<path d="M137.18 262.021V266.075L115.284 265.589L114.148 262.021H137.18Z" fill="#636363" stroke="black" stroke-width="1.62197"/>
<path d="M163.945 262.021L166.54 245.477L169.946 248.72L167.189 266.724L138.805 266.076V262.183V262.021H163.945Z" fill="#636363" stroke="black" stroke-width="1.62197"/>
<path d="M170.265 222.607L173.185 227.311L170.265 246.775L166.859 243.531L170.265 222.607Z" fill="#636363" stroke="black" stroke-width="1.62197"/>
<path d="M177.078 202.008L173.509 224.878L170.914 220.661H170.59L173.834 199.251L177.078 202.008Z" fill="#636363" stroke="black" stroke-width="1.62197"/>
<path d="M179.675 183.842L177.242 200.062L174.322 197.629H174.16L176.755 180.923L179.675 183.842Z" fill="#636363" stroke="black" stroke-width="1.62197"/>
<path d="M124.201 167.947L125.66 170.866L106.521 170.217L103.602 167.298L124.201 167.947Z" fill="#636363" stroke="black" stroke-width="1.62197"/>
<path d="M152.585 168.758L153.396 171.678L125.822 170.867H127.12L125.66 167.947L152.585 168.758Z" fill="#636363" stroke="black" stroke-width="1.62197"/>
<path d="M183.88 157.728L181.447 172.65L153.711 171.677H154.846L154.198 168.758L178.527 169.569L180.96 154.646L183.88 157.728Z" fill="#636363" stroke="black" stroke-width="1.62197"/>
<path d="M180.973 154.647L178.54 169.569L154.211 168.758L156.157 153.998L180.973 154.647Z" fill="white" stroke="black" stroke-width="1.62197"/>
<path d="M154.369 153.998L152.585 168.758L125.66 167.947L127.769 153.35L154.369 153.998Z" fill="white" stroke="black" stroke-width="1.62197"/>
<path d="M126.309 153.349L124.201 167.947L103.602 167.298L105.872 152.7L126.309 153.349Z" fill="white" stroke="black" stroke-width="1.62197"/>
<path d="M195.244 84.7393L186.323 142.157L115.605 140.048L124.688 82.9551L195.244 84.7393Z" fill="#636363" stroke="black" stroke-width="1.62197"/>
<path d="M108.305 272.077H143.502L143.178 274.835H111.387L110.576 280.187L107.008 280.025L108.305 272.077Z" fill="#B78A17" stroke="black" stroke-width="1.62197"/>
<path d="M121.126 78.4141L196.061 80.3604L195.25 84.7398L124.695 82.9556L115.612 140.049L111.395 139.887L121.126 78.4141Z" fill="#131F49" stroke="black" stroke-width="1.62197"/>
<path d="M137.158 42.273L145.178 7.68615C145.178 7.68615 142.601 5.1558 143.236 2.75672C143.871 0.357638 154.21 1.64499 154.126 5.06582C154.042 8.48666 150.024 8.29326 150.024 8.29326L143.655 43.5903C141.972 42.4113 139.868 42.0857 137.158 42.273Z" fill="#FFCA41" stroke="black" stroke-width="1.62197"/>
<path d="M145.767 38.3517L144.47 67.5472L124.844 66.8984L136.035 34.459C136.684 34.2968 137.495 34.2968 138.144 34.1346C140.901 33.9724 143.01 34.7834 144.632 36.4054C145.118 36.892 145.443 37.5407 145.767 38.3517Z" fill="#FFCA41" stroke="black" stroke-width="1.62197"/>
<path d="M143.18 274.834L142.044 280.997L110.578 280.186L111.389 274.834H143.18Z" fill="#C59519" stroke="black" stroke-width="1.62197"/>
<path d="M197.677 308.733L90.6268 306.138L72.7852 287.972L178.213 291.053L197.677 308.733Z" fill="#B78A17" stroke="black" stroke-width="1.62197"/>
<path d="M209.998 69.9795L226.217 90.0919L197.671 308.733L178.207 291.054L209.998 69.9795Z" fill="#C59519" stroke="black" stroke-width="1.62197"/>
<path d="M210.004 69.9805L178.213 291.055L72.7852 287.973L111.064 66.25L124.85 66.7366L144.476 67.3854L210.004 69.9805ZM195.244 84.7405L195.893 80.1989L120.958 78.2526L111.226 139.725L115.605 139.887L186.161 142.158L195.244 84.7405ZM183.89 157.729L180.97 154.647L156.317 153.998H154.37L127.932 153.35H126.31L105.873 152.863L103.603 167.299L106.522 170.38L125.661 171.029H125.824L153.397 171.84H153.559L181.457 172.651L183.89 157.729ZM179.673 183.843L176.753 180.761L151.126 179.626L123.715 178.49H122.093L101.981 177.679L99.061 195.683L98.7366 197.305L95.6549 216.606L95.3305 218.228L92.0866 238.99L91.7622 240.612L88.356 262.022L91.2756 265.103L113.334 265.59H115.119L137.177 266.076H138.799L167.184 266.725L169.941 248.721L170.265 246.775L173.185 227.474L173.509 225.041L176.915 202.171L177.24 200.225L179.673 183.843ZM143.179 274.835L143.665 272.24H108.468L107.171 280.188L110.577 280.35L142.205 281.161L143.179 274.835Z" fill="#FFCA41" stroke="black" stroke-width="1.62197"/>
<path d="M165.236 166.163C168.156 164.703 170.751 162.919 172.86 160.648C172.86 160.161 172.697 159.026 172.373 158.215C172.049 157.404 171.4 156.755 171.075 156.269L168.967 157.728L170.264 160.161L170.102 160.323C169.291 161.459 167.669 162.432 166.047 163.243L165.723 163.405L163.777 161.459L161.668 162.919C161.83 163.243 162.317 164.054 163.128 164.703C163.939 165.352 164.75 165.838 165.074 166C165.074 166.163 165.074 166.163 165.236 166.163Z" fill="#1BCD0B"/>
<path d="M146.911 126.314C155.796 122.006 163.695 116.741 170.112 110.041C170.112 108.605 169.618 105.255 168.631 102.862C167.644 100.469 165.669 98.554 164.682 97.1182L158.265 101.426L162.214 108.605L161.72 109.083C159.252 112.434 154.316 115.305 149.379 117.699L148.392 118.177L142.468 112.434L136.051 116.741C136.544 117.699 138.025 120.092 140.494 122.006C142.962 123.921 145.43 125.356 146.417 125.835C146.417 126.314 146.417 126.314 146.911 126.314Z" fill="#1BCD0B" stroke="black" stroke-width="1.62197"/>
<path d="M119.495 158.378C116.251 157.567 113.169 157.405 110.088 157.729C109.763 158.053 109.277 159.026 108.952 160C108.628 160.811 108.628 161.784 108.79 162.27L111.385 162.433L112.034 159.837H112.196C113.656 159.513 115.44 159.837 117.224 160.162H117.549L117.873 162.919L120.468 163.081C120.63 162.595 120.793 161.784 120.631 160.811C120.468 159.837 120.144 159.026 119.982 158.54C119.657 158.54 119.657 158.54 119.495 158.378Z" fill="#E26C56"/>
<path fill-rule="evenodd" clip-rule="evenodd" d="M105.137 209.06C113.434 209.558 116.391 207.068 120.673 202.026C120.814 205.014 126.453 206.197 126.594 209.184C117.46 214.351 107.565 211.799 105.137 209.06Z" fill="black"/>
<path d="M120.644 210.99C125.755 210.99 131.002 206.921 132.361 201.902C133.721 196.883 130.68 192.814 125.568 192.814C120.456 192.814 115.21 196.883 113.85 201.902C112.49 206.921 115.532 210.99 120.644 210.99Z" fill="black"/>
<path fill-rule="evenodd" clip-rule="evenodd" d="M157.404 215.222L155.431 222.504C152.143 234.642 139.301 244.601 126.939 244.601C114.577 244.601 107.133 234.642 110.421 222.504L112.395 215.222H113.599H120.002H149.861H156.137H157.404Z" fill="black"/>
<path fill-rule="evenodd" clip-rule="evenodd" d="M117.933 222.629C117.427 224.497 117.365 226.364 117.607 228.045C117.878 229.85 118.581 231.468 119.541 232.837C120.565 234.207 121.926 235.265 123.562 236.012C125.135 236.759 126.936 237.132 128.964 237.132C130.93 237.132 133.013 236.697 134.973 236.012C137.014 235.265 138.966 234.145 140.715 232.837C142.481 231.468 143.997 229.85 145.247 228.045C146.399 226.364 147.332 224.559 147.855 222.629L150.469 212.981L117.933 222.629Z" fill="url(#paint0_linear_1102_1026)"/>
<defs>
<linearGradient id="paint0_linear_1102_1026" x1="118.763" y1="232.609" x2="140.768" y2="227.538" gradientUnits="userSpaceOnUse">
<stop stop-color="#EDAC07"/>
<stop offset="1" stop-color="#FFCA41"/>
</linearGradient>
</defs>
</svg>
