<svg width="72" height="72" viewBox="0 0 72 72" fill="none" xmlns="http://www.w3.org/2000/svg">
<path d="M5 41.0082C5.63441 40.8154 7.34539 40.0058 7.44151 40.1022C7.53763 40.1986 6.94167 40.507 7.01857 40.5648C7.11469 40.6226 8.07592 40.2178 8.15281 40.3335C8.24894 40.4877 7.24926 40.854 7.24926 40.854C7.24926 40.854 8.36428 40.507 8.42196 40.6805C8.4604 40.7961 7.61453 41.1045 7.30694 41.2588C7.6722 41.1238 8.26816 40.9889 8.28738 41.1238C8.30661 41.2395 7.7491 41.4708 7.30694 41.6636C7.57608 41.5672 8.09514 41.4322 8.13359 41.5286C8.17204 41.6443 6.8071 42.2611 5.51906 42.8201" fill="#F9D1BB"/>
<path d="M55.0022 41.8379C54.3485 41.8957 52.4453 41.7801 52.3876 41.915C52.33 42.0499 53.0028 42.0885 52.9451 42.1849C52.8875 42.2812 51.8301 42.262 51.8109 42.3969C51.7917 42.5897 52.849 42.5511 52.849 42.5511C52.849 42.5511 51.6763 42.6475 51.6955 42.821C51.7148 42.9366 52.6183 42.8981 52.9451 42.9366C52.5606 42.9559 51.9647 43.0523 51.9839 43.168C52.0031 43.2836 52.6183 43.2836 53.0797 43.3029C52.7913 43.3222 52.2531 43.38 52.2723 43.4957C52.2915 43.6113 53.7718 43.6884 55.1752 43.7077" fill="#F9D1BB"/>
<path d="M54.2344 52.1439L54.2344 9L5.0983 9L5.0983 52.1439L54.2344 52.1439Z" fill="white" stroke="black" stroke-width="3" stroke-miterlimit="10" stroke-linejoin="round"/>
<path d="M5.93597 51.4757C5.87829 51.4757 5.83984 51.4371 5.83984 51.3793V9.54951C5.83984 9.49168 5.87829 9.45312 5.93597 9.45312H53.4396C53.4973 9.45312 53.5358 9.49168 53.5358 9.54951V51.3793C53.5358 51.4371 53.4973 51.4757 53.4396 51.4757H5.93597Z" fill="white"/>
<path d="M53.4381 9.5497V51.3795H5.93443V9.5497H53.4381ZM53.4381 9.35693H5.93443C5.81909 9.35693 5.74219 9.43404 5.74219 9.5497V51.3795C5.74219 51.4952 5.81909 51.5723 5.93443 51.5723H53.4381C53.5535 51.5723 53.6304 51.4952 53.6304 51.3795V9.5497C53.6304 9.43404 53.5342 9.35693 53.4381 9.35693Z" fill="black"/>
<path d="M41.6889 18.8794C42.2351 16.5364 40.7836 14.1932 38.4469 13.6455C36.1102 13.0979 33.7733 14.5534 33.2271 16.8963C32.681 19.2393 34.1325 21.5826 36.4692 22.1302C38.8058 22.6778 41.1428 21.2224 41.6889 18.8794Z" fill="#D8DBD7"/>
<path d="M23.793 51.3756L38.9548 31.2778L52.353 51.3756H23.793Z" fill="#C4C4C4"/>
<path d="M5.46094 51.3754L24.738 25.9888L41.778 51.3754H5.46094Z" fill="#DDDDDD"/>
<path d="M53.7782 61.9529C60.5938 61.9529 66.119 56.4278 66.119 49.6122C66.119 42.7966 60.5938 37.2715 53.7782 37.2715C46.9626 37.2715 41.4375 42.7966 41.4375 49.6122C41.4375 56.4278 46.9626 61.9529 53.7782 61.9529Z" fill="#FFCA41"/>
<path d="M53.7764 37.9657C60.2154 37.9657 65.4225 43.1729 65.4225 49.6118C65.4225 56.0508 60.2154 61.258 53.7764 61.258C47.3374 61.258 42.1302 56.0508 42.1302 49.6118C42.1302 43.1729 47.3374 37.9657 53.7764 37.9657ZM53.7764 36.5659C46.5815 36.5659 40.7305 42.417 40.7305 49.6118C40.7305 56.8067 46.5815 62.6578 53.7764 62.6578C60.9712 62.6578 66.8223 56.8067 66.8223 49.6118C66.8223 42.417 60.9712 36.5659 53.7764 36.5659Z" fill="#FFCA41"/>
<path d="M47.7812 49.612L52.1887 54.0194L60.8272 45.3809" stroke="white" stroke-width="5" stroke-linecap="round"/>
</svg>
