<svg width="26" height="26" viewBox="0 0 26 26" fill="none" xmlns="http://www.w3.org/2000/svg">
<path d="M6.63158 19.5C5.35789 19.5 4.26754 19.0431 3.36053 18.1292C2.45351 17.2153 2 16.1167 2 14.8333C2 13.55 2.45351 12.4514 3.36053 11.5375C4.26754 10.6236 5.35789 10.1667 6.63158 10.1667C7.90526 10.1667 8.99561 10.6236 9.90263 11.5375C10.8096 12.4514 11.2632 13.55 11.2632 14.8333C11.2632 16.1167 10.8096 17.2153 9.90263 18.1292C8.99561 19.0431 7.90526 19.5 6.63158 19.5ZM6.63158 17.1667C7.26842 17.1667 7.8134 16.938 8.26653 16.4807C8.72042 16.0241 8.94737 15.475 8.94737 14.8333C8.94737 14.1917 8.72042 13.6422 8.26653 13.1848C7.8134 12.7283 7.26842 12.5 6.63158 12.5C5.99474 12.5 5.44975 12.7283 4.99663 13.1848C4.54274 13.6422 4.31579 14.1917 4.31579 14.8333C4.31579 15.475 4.54274 16.0241 4.99663 16.4807C5.44975 16.938 5.99474 17.1667 6.63158 17.1667ZM17.6316 14.8333C15.8561 14.8333 14.3509 14.2111 13.1158 12.9667C11.8807 11.7222 11.2632 10.2056 11.2632 8.41667C11.2632 6.62778 11.8807 5.11111 13.1158 3.86667C14.3509 2.62222 15.8561 2 17.6316 2C19.407 2 20.9123 2.62222 22.1474 3.86667C23.3825 5.11111 24 6.62778 24 8.41667C24 10.2056 23.3825 11.7222 22.1474 12.9667C20.9123 14.2111 19.407 14.8333 17.6316 14.8333ZM15.3158 23C14.3509 23 13.5307 22.6597 12.8553 21.9792C12.1798 21.2986 11.8421 20.4722 11.8421 19.5C11.8421 18.5278 12.1798 17.7014 12.8553 17.0208C13.5307 16.3403 14.3509 16 15.3158 16C16.2807 16 17.1009 16.3403 17.7763 17.0208C18.4518 17.7014 18.7895 18.5278 18.7895 19.5C18.7895 20.4722 18.4518 21.2986 17.7763 21.9792C17.1009 22.6597 16.2807 23 15.3158 23ZM17.6316 12.5C18.7702 12.5 19.7305 12.1064 20.5124 11.3193C21.2936 10.5314 21.6842 9.56389 21.6842 8.41667C21.6842 7.26944 21.2936 6.30189 20.5124 5.514C19.7305 4.72689 18.7702 4.33333 17.6316 4.33333C16.493 4.33333 15.5327 4.72689 14.7507 5.514C13.9695 6.30189 13.5789 7.26944 13.5789 8.41667C13.5789 9.56389 13.9695 10.5314 14.7507 11.3193C15.5327 12.1064 16.493 12.5 17.6316 12.5ZM15.3158 20.6667C15.6439 20.6667 15.9191 20.5547 16.1414 20.3307C16.3629 20.1074 16.4737 19.8306 16.4737 19.5C16.4737 19.1694 16.3629 18.8926 16.1414 18.6693C15.9191 18.4453 15.6439 18.3333 15.3158 18.3333C14.9877 18.3333 14.7129 18.4453 14.4914 18.6693C14.2691 18.8926 14.1579 19.1694 14.1579 19.5C14.1579 19.8306 14.2691 20.1074 14.4914 20.3307C14.7129 20.5547 14.9877 20.6667 15.3158 20.6667Z" fill="#4F4F4F"/>
</svg>
