<svg width="20" height="20" viewBox="0 0 20 20" fill="none" xmlns="http://www.w3.org/2000/svg">
<path d="M17.5833 17.5833H2.41667V2.41667H17.5833V17.5833ZM17.5833 0.25H2.41667C1.84203 0.25 1.29093 0.478273 0.884602 0.884602C0.478273 1.29093 0.25 1.84203 0.25 2.41667V17.5833C0.25 18.158 0.478273 18.7091 0.884602 19.1154C1.29093 19.5217 1.84203 19.75 2.41667 19.75H17.5833C18.158 19.75 18.7091 19.5217 19.1154 19.1154C19.5217 18.7091 19.75 18.158 19.75 17.5833V2.41667C19.75 1.84203 19.5217 1.29093 19.1154 0.884602C18.7091 0.478273 18.158 0.25 17.5833 0.25ZM7.83333 5.66667V14.3333L13.25 10L7.83333 5.66667Z" fill="#4F4F4F"/>
</svg>
