<svg width="26" height="27" viewBox="0 0 26 27" fill="none" xmlns="http://www.w3.org/2000/svg">
<path d="M3.06185 6.92857C4.46091 4.91938 6.46471 3.40912 8.78158 2.61759C11.0985 1.82606 13.6075 1.79458 15.9435 2.52774C18.2795 3.26089 20.3206 4.72041 21.7696 6.69387C23.2186 8.66732 24 11.0517 24 13.5C24 15.9483 23.2186 18.3327 21.7696 20.3061C20.3206 22.2796 18.2795 23.7391 15.9435 24.4723C13.6075 25.2054 11.0985 25.1739 8.78158 24.3824C6.46471 23.5909 4.46091 22.0806 3.06185 20.0714M4.28582 17.6071V15.1429M4.28582 15.1429V10.2143H8.39309C8.71671 10.2143 9.03717 10.278 9.33616 10.4019C9.63515 10.5257 9.90682 10.7072 10.1357 10.9361C10.3645 11.1649 10.546 11.4365 10.6699 11.7355C10.7937 12.0345 10.8575 12.355 10.8575 12.6786C10.8575 13.0022 10.7937 13.3226 10.6699 13.6216C10.546 13.9206 10.3645 14.1923 10.1357 14.4211C9.90682 14.6499 9.63515 14.8314 9.33616 14.9553C9.03717 15.0791 8.71671 15.1429 8.39309 15.1429H4.28582ZM2.64291 6.92857H12.5004C12.9361 6.92857 13.354 7.10166 13.6621 7.40975C13.9702 7.71785 14.1433 8.13572 14.1433 8.57143V18.4286C14.1433 18.8643 13.9702 19.2822 13.6621 19.5902C13.354 19.8983 12.9361 20.0714 12.5004 20.0714H2.64291C2.20718 20.0714 1.7893 19.8983 1.4812 19.5902C1.17309 19.2822 1 18.8643 1 18.4286V8.57143C1 8.13572 1.17309 7.71785 1.4812 7.40975C1.7893 7.10166 2.20718 6.92857 2.64291 6.92857Z" stroke="#4F4F4F" stroke-width="2"/>
</svg>
