<svg width="27" height="27" viewBox="0 0 27 27" fill="none" xmlns="http://www.w3.org/2000/svg">
<path d="M20.75 3H5.75C3.67893 3 2 4.67893 2 6.75V9.25C2 11.3211 3.67893 13 5.75 13H20.75C22.8211 13 24.5 11.3211 24.5 9.25V6.75C24.5 4.67893 22.8211 3 20.75 3Z" stroke="#4F4F4F" stroke-width="2" stroke-linecap="round" stroke-linejoin="round"/>
<path d="M20.75 13H5.75C3.67893 13 2 14.6789 2 16.75V19.25C2 21.3211 3.67893 23 5.75 23H20.75C22.8211 23 24.5 21.3211 24.5 19.25V16.75C24.5 14.6789 22.8211 13 20.75 13Z" stroke="#4F4F4F" stroke-width="2" stroke-linecap="round" stroke-linejoin="round"/>
<path d="M12 18H19.5M7 8V8.0125V8ZM7 18V18.0125V18ZM12 8H19.5H12Z" stroke="#4F4F4F" stroke-width="2" stroke-linecap="round" stroke-linejoin="round"/>
</svg>
