<svg width="26" height="26" viewBox="0 0 26 26" fill="none" xmlns="http://www.w3.org/2000/svg">
<path d="M9.91537 2.3335L3.41536 2.3335C2.81706 2.3335 2.33203 2.81852 2.33203 3.41683L2.33203 9.91683C2.33203 10.5151 2.81705 11.0002 3.41536 11.0002L9.91536 11.0002C10.5137 11.0002 10.9987 10.5151 10.9987 9.91683L10.9987 3.41683C10.9987 2.81852 10.5137 2.3335 9.91537 2.3335Z" stroke="#4F4F4F" stroke-width="2" stroke-linejoin="round"/>
<path d="M9.91537 15.3335L3.41536 15.3335C2.81706 15.3335 2.33203 15.8185 2.33203 16.4168L2.33203 22.9168C2.33203 23.5151 2.81705 24.0002 3.41536 24.0002L9.91536 24.0002C10.5137 24.0002 10.9987 23.5151 10.9987 22.9168L10.9987 16.4168C10.9987 15.8185 10.5137 15.3335 9.91537 15.3335Z" stroke="#4F4F4F" stroke-width="2" stroke-linejoin="round"/>
<path d="M22.9154 2.3335L16.4154 2.3335C15.8171 2.3335 15.332 2.81852 15.332 3.41683L15.332 9.91683C15.332 10.5151 15.8171 11.0002 16.4154 11.0002L22.9154 11.0002C23.5137 11.0002 23.9987 10.5151 23.9987 9.91683L23.9987 3.41683C23.9987 2.81852 23.5137 2.3335 22.9154 2.3335Z" stroke="#4F4F4F" stroke-width="2" stroke-linejoin="round"/>
<path d="M15.332 24.0002L23.9987 24.0002M15.332 15.3335L23.9987 15.3335L15.332 15.3335ZM19.6654 19.6668L23.9987 19.6668L19.6654 19.6668Z" stroke="#4F4F4F" stroke-width="2" stroke-linecap="round" stroke-linejoin="round"/>
</svg>
