<svg width="26" height="26" viewBox="0 0 26 26" fill="none" xmlns="http://www.w3.org/2000/svg">
<path d="M8.14583 7.33333C7.93035 7.33333 7.72368 7.41894 7.57131 7.57131C7.41894 7.72368 7.33333 7.93035 7.33333 8.14583V12.4792C7.33333 12.9277 7.69733 13.2917 8.14583 13.2917H17.3542C17.5697 13.2917 17.7763 13.2061 17.9287 13.0537C18.0811 12.9013 18.1667 12.6947 18.1667 12.4792V8.14583C18.1667 7.93035 18.0811 7.72368 17.9287 7.57131C17.7763 7.41894 17.5697 7.33333 17.3542 7.33333H8.14583ZM8.95833 11.6667V8.95833H16.5417V11.6667H8.95833ZM18.9792 22.5C19.913 22.5 20.8085 22.1291 21.4688 21.4688C22.1291 20.8085 22.5 19.913 22.5 18.9792V6.52083C22.5 5.58705 22.1291 4.69151 21.4688 4.03123C20.8085 3.37094 19.913 3 18.9792 3H6.52083C5.58705 3 4.69151 3.37094 4.03123 4.03123C3.37094 4.69151 3 5.58705 3 6.52083V18.9792C3 19.913 3.37094 20.8085 4.03123 21.4688C4.69151 22.1291 5.58705 22.5 6.52083 22.5H18.9792ZM20.875 6.52083V18.9792C20.875 19.482 20.6753 19.9642 20.3197 20.3197C19.9642 20.6753 19.482 20.875 18.9792 20.875H6.52083C6.01803 20.875 5.53581 20.6753 5.18028 20.3197C4.82474 19.9642 4.625 19.482 4.625 18.9792V6.52083C4.625 5.47433 5.47433 4.625 6.52083 4.625H18.9792C20.0257 4.625 20.875 5.47433 20.875 6.52083Z" fill="#4F4F4F" stroke="#4F4F4F" stroke-width="0.5"/>
</svg>
