<svg width="20" height="24" viewBox="0 0 20 24" fill="none" xmlns="http://www.w3.org/2000/svg">
<path d="M16.9812 10.2668L16.6292 9.45433L15.8167 9.10225C15.6722 9.03002 15.6 8.91266 15.6 8.75016C15.6 8.58766 15.6722 8.4703 15.8167 8.39808L16.6292 8.046L16.9812 7.2335C17.0535 7.08905 17.1708 7.01683 17.3333 7.01683C17.4958 7.01683 17.6132 7.08905 17.6854 7.2335L18.0375 8.046L18.85 8.39808C18.9944 8.4703 19.0667 8.58766 19.0667 8.75016C19.0667 8.91266 18.9944 9.03002 18.85 9.10225L18.0375 9.45433L17.6854 10.2668C17.6132 10.4113 17.4958 10.4835 17.3333 10.4835C17.1708 10.4835 17.0535 10.4113 16.9812 10.2668ZM11.4292 15.2502L10.5625 13.3543L8.66667 12.4877C8.45 12.3974 8.34167 12.2349 8.34167 12.0002C8.34167 11.7654 8.45 11.6029 8.66667 11.5127L10.5625 10.646L11.4292 8.75016C11.5194 8.5335 11.6819 8.42516 11.9167 8.42516C12.1514 8.42516 12.3139 8.5335 12.4042 8.75016L13.2708 10.646L15.1667 11.5127C15.3833 11.6029 15.4917 11.7654 15.4917 12.0002C15.4917 12.2349 15.3833 12.3974 15.1667 12.4877L13.2708 13.3543L12.4042 15.2502C12.3139 15.4668 12.1514 15.5752 11.9167 15.5752C11.6819 15.5752 11.5194 15.4668 11.4292 15.2502ZM16.9812 16.7668L16.6292 15.9543L15.8167 15.6022C15.6722 15.53 15.6 15.4127 15.6 15.2502C15.6 15.0877 15.6722 14.9703 15.8167 14.8981L16.6292 14.546L16.9812 13.7335C17.0535 13.5891 17.1708 13.5168 17.3333 13.5168C17.4958 13.5168 17.6132 13.5891 17.6854 13.7335L18.0375 14.546L18.85 14.8981C18.9944 14.9703 19.0667 15.0877 19.0667 15.2502C19.0667 15.4127 18.9944 15.53 18.85 15.6022L18.0375 15.9543L17.6854 16.7668C17.6132 16.9113 17.4958 16.9835 17.3333 16.9835C17.1708 16.9835 17.0535 16.9113 16.9812 16.7668ZM2.16667 23.9168C1.57083 23.9168 1.06094 23.7049 0.637 23.2809C0.212333 22.8562 0 22.346 0 21.7502V2.25016C0 1.65433 0.212333 1.14408 0.637 0.719413C1.06094 0.295468 1.57083 0.0834961 2.16667 0.0834961H13C13.5958 0.0834961 14.1061 0.295468 14.5308 0.719413C14.9547 1.14408 15.1667 1.65433 15.1667 2.25016V6.5835H13V2.25016H2.16667V21.7502H13V17.4168H15.1667V21.7502C15.1667 22.346 14.9547 22.8562 14.5308 23.2809C14.1061 23.7049 13.5958 23.9168 13 23.9168H2.16667Z" fill="#4F4F4F"/>
</svg>
