<svg width="26" height="26" viewBox="0 0 26 26" fill="none" xmlns="http://www.w3.org/2000/svg">
<path d="M23.6317 3.07764C23.5865 2.90582 23.4964 2.74909 23.3708 2.62346C23.2451 2.49782 23.0884 2.40777 22.9166 2.3625C20.8587 1.82801 18.6918 1.88558 16.6652 2.52858C14.6386 3.17158 12.8349 4.37386 11.4616 5.997L10.3432 7.32501L7.73015 6.69454C7.09489 6.47308 6.40095 6.48895 5.77648 6.73923C5.15201 6.98952 4.6392 7.4573 4.33274 8.05621L2.1256 11.9684C2.04827 12.1054 2.00426 12.2588 1.99712 12.4159C1.98999 12.5731 2.01994 12.7298 2.08455 12.8733C2.14916 13.0167 2.24662 13.143 2.36905 13.2418C2.49148 13.3407 2.63544 13.4093 2.78931 13.4423L5.87176 14.103C5.61064 14.8979 5.4242 15.7153 5.31484 16.5448C5.29501 16.6972 5.31045 16.8521 5.35996 16.9976C5.40947 17.143 5.49173 17.2752 5.6004 17.3839L8.71028 20.4937C8.80339 20.5869 8.91395 20.6608 9.03565 20.7113C9.15734 20.7617 9.28778 20.7877 9.41951 20.7877C9.44841 20.7877 9.47731 20.7862 9.50671 20.7837C10.3547 20.7075 11.1924 20.5428 12.0061 20.2922L12.6519 23.3049C12.6848 23.4587 12.7535 23.6026 12.8524 23.725C12.9513 23.8474 13.0775 23.9448 13.221 24.0094C13.3644 24.074 13.5211 24.1039 13.6782 24.0968C13.8354 24.0898 13.9887 24.0458 14.1257 23.9686L18.0433 21.759C18.5947 21.4239 19.0254 20.9224 19.2733 20.3268C19.5212 19.7311 19.5735 19.0721 19.4227 18.4448L18.7519 15.6771L19.9928 14.536C21.622 13.1666 22.8289 11.3627 23.4731 9.33428C24.1173 7.30582 24.1723 5.13614 23.6317 3.07764ZM4.54288 11.7661L6.10394 8.99765C6.2009 8.8097 6.36609 8.66597 6.56564 8.59593C6.76519 8.52589 6.98398 8.53485 7.17714 8.62097L8.89997 9.03849L8.24791 9.81271C7.62973 10.5536 7.09506 11.3604 6.65358 12.2184L4.54288 11.7661ZM17.0524 20.0142L14.3281 21.5508L13.8972 19.5398C14.7706 19.1042 15.5843 18.5581 16.3182 17.9148L17.0641 17.229L17.4688 18.8989C17.5213 19.1051 17.5095 19.3224 17.4351 19.5217C17.3607 19.721 17.2272 19.8929 17.0524 20.0142ZM18.6718 13.0269L14.9756 16.4239C13.5126 17.6891 11.7079 18.4934 9.78887 18.7353L7.37698 16.3234C7.70092 14.3994 8.53233 12.5966 9.78544 11.101L11.4691 9.10205C11.4971 9.0727 11.5233 9.04162 11.5475 9.00899L12.9869 7.29993C14.0512 6.04287 15.4301 5.09078 16.9827 4.54089C18.5353 3.991 20.206 3.863 21.8243 4.16996C22.1387 5.79329 22.0121 7.47122 21.4576 9.02897C20.9031 10.5867 19.9411 11.9673 18.6718 13.0269ZM17.7459 6.84373C17.4483 6.84373 17.1574 6.93198 16.9099 7.09733C16.6625 7.26267 16.4696 7.49768 16.3557 7.77263C16.2418 8.04758 16.212 8.35014 16.2701 8.64203C16.3281 8.93392 16.4714 9.20203 16.6819 9.41247C16.8923 9.62292 17.1604 9.76623 17.4523 9.82429C17.7442 9.88235 18.0468 9.85255 18.3217 9.73866C18.5967 9.62477 18.8317 9.4319 18.997 9.18445C19.1624 8.937 19.2506 8.64608 19.2506 8.34847C19.2506 8.15085 19.2117 7.95517 19.1361 7.7726C19.0605 7.59003 18.9496 7.42414 18.8099 7.28441C18.6702 7.14468 18.5043 7.03384 18.3217 6.95822C18.1391 6.88261 17.9435 6.8437 17.7458 6.84371L17.7459 6.84373Z" fill="#4F4F4F"/>
</svg>
