<svg width="27" height="26" viewBox="0 0 27 26" fill="none" xmlns="http://www.w3.org/2000/svg">
<path d="M7.98011 1.74005C7.98011 1.33134 7.64877 1 7.24005 1C6.83134 1 6.5 1.33134 6.5 1.74005V4.70027C6.5 5.92644 7.494 6.92043 8.72016 6.92043H9.03082L6.87111 11.4798C6.34719 12.5859 6.40404 13.8793 7.02297 14.9352L12.1478 23.6775C12.5124 24.2996 13.1795 24.6817 13.9005 24.6817C14.6217 24.6817 15.2886 24.2996 15.6533 23.6775L20.7782 14.9352C21.397 13.8793 21.4538 12.5859 20.93 11.4798L18.7702 6.92043H19.0809C20.307 6.92043 21.3011 5.92644 21.3011 4.70027V1.74005C21.3011 1.33134 20.9697 1 20.561 1C20.1524 1 19.821 1.33134 19.821 1.74005V4.70027C19.821 5.10899 19.4896 5.44032 19.0809 5.44032H8.72016C8.31145 5.44032 7.98011 5.10899 7.98011 4.70027V1.74005ZM17.1325 6.92043L19.5923 12.1135C19.9067 12.7771 19.8725 13.5532 19.5013 14.1867L14.6406 22.4783V14.1229C15.083 13.867 15.3806 13.3887 15.3806 12.8409C15.3806 12.0234 14.718 11.3608 13.9005 11.3608C13.0831 11.3608 12.4204 12.0234 12.4204 12.8409C12.4204 13.3887 12.7181 13.867 13.1605 14.1229V22.4783L8.29986 14.1867C7.9285 13.5532 7.8944 12.7771 8.20874 12.1135L10.6686 6.92043H17.1325Z" fill="#4F4F4F" stroke="#4F4F4F" stroke-width="0.5"/>
</svg>
