<svg width="26" height="26" viewBox="0 0 26 26" fill="none" xmlns="http://www.w3.org/2000/svg">
<path d="M10.2479 4.75H17.8085C18.3554 4.75 18.8799 4.9673 19.2666 5.35409C19.6533 5.74089 19.8705 6.26549 19.8705 6.8125V11.625H18.4959V6.8125C18.4959 6.63016 18.4235 6.4553 18.2946 6.32636C18.1657 6.19743 17.9908 6.125 17.8085 6.125H10.2479V4.75ZM6.12397 10.25V17.8125C6.12397 17.9948 6.19638 18.1697 6.32528 18.2986C6.45418 18.4276 6.62901 18.5 6.8113 18.5H11.6226V19.875H6.8113C6.26442 19.875 5.73995 19.6577 5.35325 19.2709C4.96656 18.8841 4.74931 18.3595 4.74931 17.8125V10.25H6.12397ZM2 4.0625C2 3.51549 2.21724 2.99089 2.60394 2.60409C2.99064 2.2173 3.51511 2 4.06198 2H6.8113C7.35817 2 7.88264 2.2173 8.26934 2.60409C8.65604 2.99089 8.87328 3.51549 8.87328 4.0625V6.87163C8.87328 7.41863 8.65604 7.94324 8.26934 8.33003C7.88264 8.71683 7.35817 8.93413 6.8113 8.93413H4.06198C3.51511 8.93413 2.99064 8.71683 2.60394 8.33003C2.21724 7.94324 2 7.41863 2 6.87163V4.0625ZM4.06198 3.375C3.87969 3.375 3.70487 3.44743 3.57597 3.57636C3.44707 3.7053 3.37466 3.88016 3.37466 4.0625V6.87163C3.37466 7.05396 3.44707 7.22883 3.57597 7.35776C3.70487 7.48669 3.87969 7.55913 4.06198 7.55913H6.8113C6.99359 7.55913 7.16841 7.48669 7.29731 7.35776C7.42621 7.22883 7.49863 7.05396 7.49863 6.87163V4.0625C7.49863 3.88016 7.42621 3.7053 7.29731 3.57636C7.16841 3.44743 6.99359 3.375 6.8113 3.375H4.06198ZM13.0027 15.0625C13.0027 14.5155 13.22 13.9909 13.6067 13.6041C13.9934 13.2173 14.5179 13 15.0647 13H21.938C22.4849 13 23.0094 13.2173 23.3961 13.6041C23.7828 13.9909 24 14.5155 24 15.0625V21.9375C24 22.4845 23.7828 23.0091 23.3961 23.3959C23.0094 23.7827 22.4849 24 21.938 24H15.0647C14.5179 24 13.9934 23.7827 13.6067 23.3959C13.22 23.0091 13.0027 22.4845 13.0027 21.9375V15.0625ZM15.0647 14.375C14.8824 14.375 14.7076 14.4474 14.5787 14.5764C14.4498 14.7053 14.3774 14.8802 14.3774 15.0625V21.9375C14.3774 22.1198 14.4498 22.2947 14.5787 22.4236C14.7076 22.5526 14.8824 22.625 15.0647 22.625H21.938C22.1203 22.625 22.2951 22.5526 22.424 22.4236C22.5529 22.2947 22.6253 22.1198 22.6253 21.9375V15.0625C22.6253 14.8802 22.5529 14.7053 22.424 14.5764C22.2951 14.4474 22.1203 14.375 21.938 14.375H15.0647Z" fill="#4F4F4F" stroke="#4F4F4F"/>
</svg>
