<svg width="25" height="21" viewBox="0 0 25 21" fill="none" xmlns="http://www.w3.org/2000/svg">
<path d="M1 5.0625C1 3.98506 1.42801 2.95175 2.18988 2.18988C2.95175 1.42801 3.98506 1 5.0625 1H18.0625C19.1399 1 20.1733 1.42801 20.9351 2.18988C21.697 2.95175 22.125 3.98506 22.125 5.0625V10.75H20.5V5.0625C20.5 4.41603 20.2432 3.79605 19.7861 3.33893C19.329 2.88181 18.709 2.625 18.0625 2.625H5.0625C4.41603 2.625 3.79605 2.88181 3.33893 3.33893C2.88181 3.79605 2.625 4.41603 2.625 5.0625V13.1875C2.625 13.834 2.88181 14.454 3.33893 14.9111C3.79605 15.3682 4.41603 15.625 5.0625 15.625H10.75V17.25H5.0625C3.98506 17.25 2.95175 16.822 2.18988 16.0601C1.42801 15.2983 1 14.2649 1 13.1875V5.0625Z" fill="#4F4F4F" stroke="#4F4F4F" stroke-width="0.5"/>
<path d="M13.7934 13.1601C14.0613 12.8975 14.4247 12.75 14.8036 12.75H21.9464C22.3253 12.75 22.6887 12.8975 22.9566 13.1601C23.2245 13.4226 23.375 13.7787 23.375 14.15V18.35C23.375 18.7213 23.2245 19.0774 22.9566 19.3399C22.6887 19.6025 22.3253 19.75 21.9464 19.75H14.8036C14.4247 19.75 14.0613 19.6025 13.7934 19.3399C13.5255 19.0774 13.375 18.7213 13.375 18.35V14.15C13.375 13.7787 13.5255 13.4226 13.7934 13.1601Z" stroke="#4F4F4F" stroke-width="2"/>
</svg>
