<svg width="27" height="27" viewBox="0 0 27 27" fill="none" xmlns="http://www.w3.org/2000/svg">
<path d="M15 22.3333H3.625C3.19402 22.3333 2.7807 22.1621 2.47595 21.8574C2.1712 21.5526 2 21.1393 2 20.7083V6.625C2 6.19402 2.1712 5.7807 2.47595 5.47595C2.7807 5.1712 3.19402 5 3.625 5H22.0417C22.4726 5 22.886 5.1712 23.1907 5.47595C23.4955 5.7807 23.6667 6.19402 23.6667 6.625V13.157M20.9583 22.875V16.375M20.9583 16.375L18.25 19.0833M20.9583 16.375L23.6667 19.0833" stroke="#4F4F4F" stroke-width="2" stroke-linecap="round" stroke-linejoin="round"/>
<path d="M24 11H2" stroke="#4F4F4F" stroke-width="2"/>
<path d="M3.83333 8.08366C3.83333 7.48535 4.31836 7.00033 4.91667 7.00033C5.51498 7.00033 6 7.48535 6 8.08366C6 8.68197 5.51498 9.16699 4.91667 9.16699C4.31836 9.16699 3.83333 8.68197 3.83333 8.08366Z" fill="#4F4F4F"/>
<path d="M7.08333 8.08366C7.08333 7.48535 7.56836 7.00033 8.16667 7.00033C8.76498 7.00033 9.25 7.48535 9.25 8.08366C9.25 8.68197 8.76498 9.16699 8.16667 9.16699C7.56836 9.16699 7.08333 8.68197 7.08333 8.08366Z" fill="#4F4F4F"/>
</svg>
