<svg width="27" height="27" viewBox="0 0 27 27" fill="none" xmlns="http://www.w3.org/2000/svg">
<path d="M10.582 5.70833V4.08333C10.582 3.79602 10.6962 3.52047 10.8993 3.3173C11.1025 3.11414 11.378 3 11.6654 3H22.4987C22.786 3 23.0616 3.11414 23.2647 3.3173C23.4679 3.52047 23.582 3.79602 23.582 4.08333V16C23.582 16.2873 23.4679 16.5629 23.2647 16.766C23.0616 16.9692 22.786 17.0833 22.4987 17.0833H20.332" stroke="#4F4F4F" stroke-width="2" stroke-linecap="round" stroke-linejoin="round"/>
<path d="M14.9167 10.0415H4.08333C3.48502 10.0415 3 10.5265 3 11.1248V21.9582C3 22.5565 3.48502 23.0415 4.08333 23.0415H14.9167C15.515 23.0415 16 22.5565 16 21.9582V11.1248C16 10.5265 15.515 10.0415 14.9167 10.0415Z" stroke="#4F4F4F" stroke-width="2" stroke-linecap="round" stroke-linejoin="round"/>
<path d="M6.79297 16.5418H12.2096M9.5013 13.8335V19.2502V13.8335Z" stroke="#4F4F4F" stroke-width="2" stroke-linecap="round" stroke-linejoin="round"/>
</svg>
