<svg width="71" height="52" viewBox="0 0 71 52" fill="none" xmlns="http://www.w3.org/2000/svg">
<path d="M43.0922 36.626C40.1395 36.626 37.7461 38.9737 37.7461 41.8701C37.7461 44.7664 40.1395 47.1141 43.0922 47.1141C46.0449 47.1141 48.4382 44.7664 48.4382 41.8701C48.4382 38.9737 46.0449 36.626 43.0922 36.626ZM43.0922 44.9514C41.3557 44.9514 39.9509 43.5734 39.9509 41.8701C39.9509 40.1667 41.3557 38.7887 43.0922 38.7887C44.8286 38.7887 46.2334 40.1667 46.2334 41.8701C46.2334 43.567 44.8286 44.9514 43.0922 44.9514Z" fill="white"/>
<path d="M54.9363 39.1395C53.4079 39.1395 52.1721 40.3517 52.1721 41.8509V46.8143H49.8828V36.9194H52.1721V38.4442C52.1721 38.4442 53.1478 36.9194 55.1508 36.9194H55.8533V39.1395H54.9363Z" fill="white"/>
<path d="M31.7365 36.9194L33.4665 43.7711L35.3721 36.9194H37.6484L34.7152 46.8143H32.4453L30.6504 39.9306L28.8553 46.8143H26.5856L23.6523 36.9194H25.9222L27.8278 43.7711L29.5578 36.9194H31.7365Z" fill="white"/>
<path d="M62.604 41.4809C64.2301 40.5814 65.3291 38.8717 65.3291 36.9195H63.0396C63.0396 38.5655 61.674 39.9115 59.9894 39.9115H59.684V32.1475H57.3945V46.8144H59.684V42.1572H59.9568C60.178 42.1572 60.4706 42.3039 60.6009 42.4761L63.8461 46.8144H66.5909L62.604 41.4809Z" fill="white"/>
<path d="M18.2168 36.626C15.726 36.626 13.7879 38.2146 13.0074 40.8302C11.8108 39.063 10.9002 36.945 10.3669 35.1587H7.68089V42.0041C7.68089 43.3566 6.56225 44.4539 5.18345 44.4539C3.80467 44.4539 2.68603 43.3566 2.68603 42.0041V35.1587H0V42.0041C0 44.8048 2.32833 47.1079 5.18345 47.1079C8.03859 47.1079 10.3669 44.8048 10.3669 42.0041V40.8558C10.8873 41.9211 11.5246 42.9993 12.305 43.9563L10.6661 51.5353H13.4107L14.6008 46.0361C15.6414 46.6868 16.8446 47.1079 18.2168 47.1079C21.1566 47.1079 23.5565 44.7473 23.5565 41.8573C23.5499 38.9738 21.1566 36.626 18.2168 36.626ZM18.2168 44.4603C17.1307 44.4603 16.1227 44.0073 15.1992 43.2801L15.4268 42.2466L15.4333 42.2082C15.6349 41.111 16.2658 39.2608 18.2234 39.2608C19.6867 39.2608 20.8769 40.4283 20.8769 41.8637C20.8704 43.2928 19.6802 44.4603 18.2168 44.4603Z" fill="white"/>
<path d="M67.0645 37.1618H66.2969V36.9321H68.0854V37.1618H67.3183V39.165H67.0577V37.1618H67.0645Z" fill="white"/>
<path d="M68.5687 36.9321H68.8292L69.6614 38.1507L70.4941 36.9321H70.7542V39.165H70.4941V37.3532L69.6614 38.5525H69.6485L68.8157 37.3596V39.165H68.5625V36.9321H68.5687Z" fill="white"/>
<path d="M1.8765 6.11233H2.5408V0.891466H2.0882C1.7962 1.46036 1.4093 1.55398 0.6501 1.58278V2.02926H1.8765V6.11233ZM5.65908 6.20594C7.06798 6.20594 7.71768 5.15457 7.71768 3.49829C7.71768 1.84922 7.06798 0.797852 5.65908 0.797852C4.2502 0.797852 3.6005 1.84922 3.6005 3.49829C3.6005 5.15457 4.2502 6.20594 5.65908 6.20594ZM5.65908 1.34515C6.49128 1.34515 7.00958 2.05086 7.00958 3.49829C7.00958 4.95294 6.49128 5.65866 5.65908 5.65866C4.8269 5.65866 4.3086 4.95294 4.3086 3.49829C4.3086 2.05086 4.8269 1.34515 5.65908 1.34515ZM10.4854 6.20594C11.8943 6.20594 12.544 5.15457 12.544 3.49829C12.544 1.84922 11.8943 0.797852 10.4854 0.797852C9.07649 0.797852 8.42679 1.84922 8.42679 3.49829C8.42679 5.15457 9.07649 6.20594 10.4854 6.20594ZM10.4854 1.34515C11.3176 1.34515 11.8359 2.05086 11.8359 3.49829C11.8359 4.95294 11.3176 5.65866 10.4854 5.65866C9.65316 5.65866 9.13489 4.95294 9.13489 3.49829C9.13489 2.05086 9.65316 1.34515 10.4854 1.34515ZM13.1728 2.36051C13.1728 3.25346 13.5743 3.87996 14.3627 3.87996C15.1657 3.87996 15.5672 3.25346 15.5672 2.36051C15.5672 1.46757 15.1657 0.841061 14.3627 0.841061C13.5743 0.841061 13.1728 1.46757 13.1728 2.36051ZM14.3554 6.11233H15.0927L18.7427 0.891466H18.0054L14.3554 6.11233ZM15.0124 2.36051C15.0124 3.07343 14.7861 3.4839 14.3627 3.4839C13.9539 3.4839 13.7276 3.07343 13.7276 2.36051C13.7276 1.64039 13.9539 1.22992 14.3627 1.22992C14.7861 1.22992 15.0124 1.64039 15.0124 2.36051ZM17.5528 4.64329C17.5528 5.53624 17.9543 6.16274 18.7427 6.16274C19.5457 6.16274 19.9472 5.53624 19.9472 4.64329C19.9472 3.75034 19.5457 3.12384 18.7427 3.12384C17.9543 3.12384 17.5528 3.75034 17.5528 4.64329ZM19.3924 4.64329C19.3924 5.3562 19.1661 5.76668 18.7427 5.76668C18.3339 5.76668 18.1076 5.3562 18.1076 4.64329C18.1076 3.92317 18.3339 3.5127 18.7427 3.5127C19.1661 3.5127 19.3924 3.92317 19.3924 4.64329ZM24.578 0.891466V4.44885C24.578 5.39222 24.0889 5.60825 23.6582 5.60825C23.1326 5.60825 22.6946 5.22659 22.6946 4.49927H22.0011C22.0011 5.62985 22.6289 6.20594 23.6582 6.20594C24.6948 6.20594 25.3226 5.59385 25.3226 4.45606V0.891466H24.578ZM29.9854 4.18961C29.9854 2.78538 29.0145 2.17328 28.102 2.17328C27.1895 2.17328 26.2186 2.78538 26.2186 4.18961C26.2186 5.59385 27.1895 6.20594 28.102 6.20594C29.0145 6.20594 29.9854 5.59385 29.9854 4.18961ZM28.102 5.62985C27.5034 5.62985 26.9267 5.21938 26.9267 4.18961C26.9267 3.13104 27.5034 2.74938 28.102 2.74938C28.7006 2.74938 29.2773 3.15984 29.2773 4.18961C29.2773 5.18338 28.7006 5.62985 28.102 5.62985ZM31.4443 0.891466H30.78V6.11233H31.4443V5.52903C31.6852 5.9395 32.1013 6.20594 32.7291 6.20594C33.627 6.20594 34.4081 5.47143 34.4081 4.18961C34.4081 2.91501 33.627 2.17328 32.7291 2.17328C32.1013 2.17328 31.6852 2.43973 31.4443 2.85019V0.891466ZM32.5612 5.64426C31.9699 5.64426 31.4151 5.21218 31.4151 4.18961C31.4151 3.16704 31.9699 2.73497 32.5612 2.73497C33.2401 2.73497 33.6854 3.26787 33.6854 4.18961C33.6854 5.11136 33.2401 5.64426 32.5612 5.64426ZM38.6925 0.797852C37.8384 0.797852 36.7799 1.22992 36.7799 2.22369C36.7799 3.09503 37.5099 3.4911 38.2326 3.64952L38.8896 3.78634C39.5539 3.93037 40.0284 4.16081 40.0284 4.7081C40.0284 5.21938 39.5758 5.58664 38.7947 5.58664C37.9844 5.58664 37.4733 5.21218 37.3346 4.49206H36.6047C36.7434 5.53624 37.5318 6.20594 38.7801 6.20594C39.8313 6.20594 40.7949 5.66585 40.7949 4.64329C40.7949 3.59192 39.824 3.28947 39.0137 3.11664L38.4005 2.97982C37.9114 2.8718 37.5391 2.64136 37.5391 2.18048C37.5391 1.59718 38.2545 1.41715 38.6633 1.41715C39.1962 1.41715 39.7948 1.61878 39.9773 2.22369H40.7C40.4956 1.21552 39.6415 0.797852 38.6925 0.797852ZM44.0398 5.55784V6.11233H44.7041V2.23809H44.0398V4.36964C44.0398 5.19778 43.6675 5.63705 43.0397 5.63705C42.317 5.63705 42.2148 5.11857 42.2148 4.52087V2.23809H41.5505V4.7153C41.5505 5.60105 41.8936 6.20594 42.8061 6.20594C43.4558 6.20594 43.8135 5.9251 44.0398 5.55784ZM49.0282 3.53431C48.9406 2.87899 48.3347 2.17328 47.3857 2.17328C46.225 2.17328 45.4877 3.03022 45.4877 4.18241C45.4877 5.36341 46.1958 6.20594 47.32 6.20594C48.2325 6.20594 48.9406 5.57945 49.072 4.85212H48.3858C48.2909 5.26259 47.8967 5.62985 47.3419 5.62985C46.7579 5.62985 46.2104 5.16178 46.2104 4.17521C46.2104 3.20305 46.7506 2.74938 47.3419 2.74938C47.8529 2.74938 48.2617 3.07343 48.3566 3.53431H49.0282ZM53.1273 3.53431C53.0397 2.87899 52.4338 2.17328 51.4848 2.17328C50.3241 2.17328 49.5868 3.03022 49.5868 4.18241C49.5868 5.36341 50.2949 6.20594 51.4191 6.20594C52.3316 6.20594 53.0397 5.57945 53.1711 4.85212H52.4849C52.39 5.26259 51.9958 5.62985 51.441 5.62985C50.857 5.62985 50.3095 5.16178 50.3095 4.17521C50.3095 3.20305 50.8497 2.74938 51.441 2.74938C51.952 2.74938 52.3608 3.07343 52.4557 3.53431H53.1273ZM54.4013 4.39125H57.4233C57.5109 3.16704 56.7882 2.17328 55.5912 2.17328C54.5181 2.17328 53.6859 2.95821 53.6859 4.18241C53.6859 5.3274 54.3721 6.20594 55.6131 6.20594C56.5692 6.20594 57.1897 5.65866 57.3722 4.98894H56.686C56.5181 5.37061 56.1969 5.62985 55.6131 5.62985C55.0291 5.62985 54.4305 5.22659 54.4013 4.39125ZM54.4086 3.82955C54.467 3.05182 54.9999 2.73497 55.5912 2.73497C56.2918 2.73497 56.7079 3.28226 56.7225 3.82955H54.4086ZM60.4607 3.36868H61.1542C61.0301 2.63415 60.4534 2.16608 59.6066 2.16608C58.7379 2.16608 58.0371 2.56215 58.0371 3.24626C58.0371 3.96638 58.6211 4.21122 59.154 4.31924L59.738 4.43445C60.1614 4.52087 60.5337 4.6865 60.5337 5.07536C60.5337 5.43542 60.1249 5.65145 59.6212 5.65145C59.0372 5.65145 58.7233 5.3562 58.6211 4.85932H57.9203C57.9933 5.53624 58.5773 6.20594 59.6066 6.20594C60.5045 6.20594 61.2053 5.76668 61.2053 5.00335C61.2053 4.25443 60.5775 3.98798 59.8621 3.85115L59.3073 3.74314C58.9277 3.67113 58.7087 3.5271 58.7087 3.21745C58.7087 2.86459 59.1467 2.72777 59.5336 2.72777C59.9935 2.72777 60.3585 2.9078 60.4607 3.36868ZM64.296 3.36868H64.9895C64.8654 2.63415 64.2887 2.16608 63.4419 2.16608C62.5732 2.16608 61.8724 2.56215 61.8724 3.24626C61.8724 3.96638 62.4564 4.21122 62.9893 4.31924L63.5733 4.43445C63.9967 4.52087 64.369 4.6865 64.369 5.07536C64.369 5.43542 63.9602 5.65145 63.4565 5.65145C62.8725 5.65145 62.5586 5.3562 62.4564 4.85932H61.7556C61.8286 5.53624 62.4126 6.20594 63.4419 6.20594C64.3398 6.20594 65.0406 5.76668 65.0406 5.00335C65.0406 4.25443 64.4128 3.98798 63.6974 3.85115L63.1426 3.74314C62.763 3.67113 62.544 3.5271 62.544 3.21745C62.544 2.86459 62.982 2.72777 63.3689 2.72777C63.8288 2.72777 64.1938 2.9078 64.296 3.36868ZM2.5262 9.20054L0.5625 14.4214H1.3217L1.7305 13.2908H4.1614L4.5775 14.4214H5.3805L3.3876 9.20054H2.5262ZM1.9568 12.6643L2.935 9.94226L3.9278 12.6643H1.9568ZM6.57152 14.4214V12.3186C6.57152 11.4905 6.95112 11.0513 7.52052 11.0513C8.24322 11.0513 8.36002 11.5697 8.36002 12.1674V14.4214H9.02432V12.3186C9.02432 11.4905 9.40394 11.0513 9.97334 11.0513C10.696 11.0513 10.8128 11.5697 10.8128 12.1674V14.4214H11.4771V11.973C11.4771 11.0872 11.1194 10.4824 10.2069 10.4824C9.65944 10.4824 9.19952 10.6911 8.88562 11.1665C8.71042 10.7416 8.35272 10.4824 7.75412 10.4824C7.16282 10.4824 6.79782 10.7632 6.57152 11.1305V10.5472H5.90722V14.4214H6.57152ZM15.9843 12.4987C15.9843 11.0945 15.0134 10.4824 14.1009 10.4824C13.1884 10.4824 12.2175 11.0945 12.2175 12.4987C12.2175 13.9029 13.1884 14.515 14.1009 14.515C15.0134 14.515 15.9843 13.9029 15.9843 12.4987ZM14.1009 13.9389C13.5023 13.9389 12.9256 13.5285 12.9256 12.4987C12.9256 11.4401 13.5023 11.0584 14.1009 11.0584C14.6995 11.0584 15.2762 11.4689 15.2762 12.4987C15.2762 13.4924 14.6995 13.9389 14.1009 13.9389ZM17.4431 11.1305V10.5472H16.7788V14.4214H17.4431V12.3186C17.4431 11.4905 17.8373 11.0513 18.4797 11.0513C19.2389 11.0513 19.3411 11.5697 19.3411 12.1674V14.4214H20.0054V11.973C20.0054 11.0872 19.6623 10.4824 18.7133 10.4824C18.049 10.4824 17.6694 10.7632 17.4431 11.1305ZM23.6417 10.5472V11.1593C23.4008 10.7488 23.0212 10.4824 22.3934 10.4824C21.5247 10.4824 20.729 11.1809 20.729 12.4195C20.729 13.6653 21.5247 14.3566 22.3934 14.3566C23.0212 14.3566 23.4008 14.0974 23.6417 13.6868V14.0541C23.6417 14.5799 23.5322 14.7599 23.3862 14.9111C23.211 15.0983 22.9409 15.1991 22.5832 15.1991C21.97 15.1991 21.7583 14.9327 21.6707 14.587H20.9626C21.0867 15.372 21.6853 15.7752 22.5759 15.7752C23.1599 15.7752 23.649 15.588 23.9337 15.2639C24.16 15.0191 24.306 14.6951 24.306 13.9029V10.5472H23.6417ZM22.5613 11.044C23.1526 11.044 23.6709 11.4401 23.6709 12.4195C23.6709 13.406 23.1526 13.8021 22.5613 13.8021C21.9116 13.8021 21.4517 13.3052 21.4517 12.4195C21.4517 11.5409 21.9116 11.044 22.5613 11.044ZM27.277 9.57498V10.5472H26.6565V11.0728H27.277V13.4493C27.277 14.2558 27.4522 14.4214 28.2041 14.4214H28.6859V13.8741H28.3501C27.9705 13.8741 27.9413 13.7733 27.9413 13.3701V11.0728H28.6859V10.5472H27.9413V9.57498H27.277ZM32.9368 12.4987C32.9368 11.0945 31.9659 10.4824 31.0534 10.4824C30.1409 10.4824 29.17 11.0945 29.17 12.4987C29.17 13.9029 30.1409 14.515 31.0534 14.515C31.9659 14.515 32.9368 13.9029 32.9368 12.4987ZM31.0534 13.9389C30.4548 13.9389 29.8781 13.5285 29.8781 12.4987C29.8781 11.4401 30.4548 11.0584 31.0534 11.0584C31.652 11.0584 32.2287 11.4689 32.2287 12.4987C32.2287 13.4924 31.652 13.9389 31.0534 13.9389ZM34.3956 10.5472H33.7313V15.6816H34.3956V13.8381C34.6365 14.2486 35.0526 14.515 35.6804 14.515C36.5783 14.515 37.3594 13.7805 37.3594 12.4987C37.3594 11.2241 36.5783 10.4824 35.6804 10.4824C35.0526 10.4824 34.6365 10.7488 34.3956 11.1593V10.5472ZM35.5125 13.9533C34.9212 13.9533 34.3664 13.5212 34.3664 12.4987C34.3664 11.4761 34.9212 11.044 35.5125 11.044C36.1914 11.044 36.6367 11.5769 36.6367 12.4987C36.6367 13.4205 36.1914 13.9533 35.5125 13.9533ZM40.5336 10.5472H39.8693V15.6816H40.5336V13.8381C40.7745 14.2486 41.1906 14.515 41.8184 14.515C42.7163 14.515 43.4974 13.7805 43.4974 12.4987C43.4974 11.2241 42.7163 10.4824 41.8184 10.4824C41.1906 10.4824 40.7745 10.7488 40.5336 11.1593V10.5472ZM41.6505 13.9533C41.0592 13.9533 40.5044 13.5212 40.5044 12.4987C40.5044 11.4761 41.0592 11.044 41.6505 11.044C42.3294 11.044 42.7747 11.5769 42.7747 12.4987C42.7747 13.4205 42.3294 13.9533 41.6505 13.9533ZM46.2314 11.2313V10.5328C46.1584 10.5255 46.1 10.5255 46.0343 10.5255C45.5233 10.5399 45.1218 10.7848 44.9247 11.2241V10.5472H44.275V14.4214H44.9393V12.3907C44.9393 11.5409 45.2459 11.2024 45.8591 11.2024C45.9686 11.2024 46.0927 11.2169 46.2314 11.2313ZM50.3099 12.4987C50.3099 11.0945 49.339 10.4824 48.4265 10.4824C47.514 10.4824 46.5431 11.0945 46.5431 12.4987C46.5431 13.9029 47.514 14.515 48.4265 14.515C49.339 14.515 50.3099 13.9029 50.3099 12.4987ZM48.4265 13.9389C47.8279 13.9389 47.2512 13.5285 47.2512 12.4987C47.2512 11.4401 47.8279 11.0584 48.4265 11.0584C49.0251 11.0584 49.6018 11.4689 49.6018 12.4987C49.6018 13.4924 49.0251 13.9389 48.4265 13.9389ZM52.3107 13.5141L51.2449 10.5472H50.5077L51.9896 14.4214H52.5808L54.0627 10.5472H53.3765L52.3107 13.5141ZM55.2549 9.20054H54.5906V9.99265H55.2549V9.20054ZM55.2549 10.5472H54.5906V14.4214H55.2549V10.5472ZM59.0024 9.20054V11.1593C58.7615 10.7488 58.3454 10.4824 57.7176 10.4824C56.8197 10.4824 56.0386 11.2241 56.0386 12.4987C56.0386 13.7805 56.8197 14.515 57.7176 14.515C58.3454 14.515 58.7615 14.2486 59.0024 13.8381V14.4214H59.6667V9.20054H59.0024ZM57.8855 11.044C58.4768 11.044 59.0316 11.4761 59.0316 12.4987C59.0316 13.5212 58.4768 13.9533 57.8855 13.9533C57.2066 13.9533 56.7613 13.4205 56.7613 12.4987C56.7613 11.5769 57.2066 11.044 57.8855 11.044ZM61.1598 12.7003H64.182C64.2696 11.4761 63.5469 10.4824 62.3497 10.4824C61.2766 10.4824 60.4444 11.2673 60.4444 12.4915C60.4444 13.6364 61.1306 14.515 62.3716 14.515C63.3279 14.515 63.9484 13.9677 64.1309 13.298H63.4447C63.2768 13.6797 62.9556 13.9389 62.3716 13.9389C61.7876 13.9389 61.189 13.5357 61.1598 12.7003ZM61.1671 12.1386C61.2255 11.3609 61.7584 11.044 62.3497 11.044C63.0505 11.044 63.4666 11.5913 63.4812 12.1386H61.1671ZM66.9122 11.2313V10.5328C66.8392 10.5255 66.7808 10.5255 66.7151 10.5255C66.2041 10.5399 65.8026 10.7848 65.6055 11.2241V10.5472H64.9558V14.4214H65.6201V12.3907C65.6201 11.5409 65.9267 11.2024 66.5399 11.2024C66.6494 11.2024 66.7735 11.2169 66.9122 11.2313ZM69.7637 11.6778H70.4572C70.3331 10.9432 69.7564 10.4751 68.9096 10.4751C68.0409 10.4751 67.3401 10.8712 67.3401 11.5553C67.3401 12.2755 67.9241 12.5203 68.457 12.6283L69.041 12.7435C69.4644 12.8299 69.8367 12.9955 69.8367 13.3845C69.8367 13.7445 69.4279 13.9605 68.9242 13.9605C68.3402 13.9605 68.0263 13.6653 67.9241 13.1684H67.2233C67.2963 13.8453 67.8803 14.515 68.9096 14.515C69.8075 14.515 70.5083 14.0757 70.5083 13.3124C70.5083 12.5635 69.8805 12.297 69.1651 12.1603L68.6103 12.0522C68.2307 11.9802 68.0117 11.8362 68.0117 11.5265C68.0117 11.1736 68.4497 11.0368 68.8366 11.0368C69.2965 11.0368 69.6615 11.2169 69.7637 11.6778ZM1.256 18.5754V18.8562H0.7085V19.3819H1.256V22.7305H1.9203V19.3819H2.6576V18.8562H1.9203V18.5394C1.9203 18.1362 1.9787 18.0569 2.3291 18.0569H2.6576V17.5096H2.3145C1.4239 17.5096 1.256 17.7689 1.256 18.5754ZM6.74521 20.8077C6.74521 19.4035 5.77431 18.7914 4.8618 18.7914C3.9493 18.7914 2.9784 19.4035 2.9784 20.8077C2.9784 22.2119 3.9493 22.824 4.8618 22.824C5.77431 22.824 6.74521 22.2119 6.74521 20.8077ZM4.8618 22.248C4.2632 22.248 3.6865 21.8375 3.6865 20.8077C3.6865 19.7492 4.2632 19.3675 4.8618 19.3675C5.4604 19.3675 6.03711 19.7779 6.03711 20.8077C6.03711 21.8015 5.4604 22.248 4.8618 22.248ZM9.49616 19.5404V18.8418C9.42316 18.8346 9.36476 18.8346 9.29906 18.8346C8.78809 18.849 8.38659 19.0939 8.18949 19.5331V18.8562H7.53978V22.7305H8.20409V20.6998C8.20409 19.85 8.51068 19.5115 9.12388 19.5115C9.23339 19.5115 9.35746 19.526 9.49616 19.5404ZM12.3123 21.0094H15.3345C15.4221 19.7852 14.6994 18.7914 13.5022 18.7914C12.4291 18.7914 11.5969 19.5764 11.5969 20.8006C11.5969 21.9455 12.2831 22.824 13.5241 22.824C14.4804 22.824 15.1009 22.2768 15.2834 21.6071H14.5972C14.4293 21.9888 14.1081 22.248 13.5241 22.248C12.9401 22.248 12.3415 21.8448 12.3123 21.0094ZM12.3196 20.4477C12.378 19.67 12.9109 19.3531 13.5022 19.3531C14.203 19.3531 14.6191 19.9004 14.6337 20.4477H12.3196ZM16.773 19.4395V18.8562H16.1087V22.7305H16.773V20.6277C16.773 19.7996 17.1672 19.3604 17.8096 19.3604C18.5688 19.3604 18.671 19.8788 18.671 20.4765V22.7305H19.3353V20.2821C19.3353 19.3963 18.9922 18.7914 18.0432 18.7914C17.3789 18.7914 16.9993 19.0723 16.773 19.4395ZM20.5188 17.8841V18.8562H19.8983V19.3819H20.5188V21.7583C20.5188 22.5648 20.694 22.7305 21.4459 22.7305H21.9277V22.1832H21.5919C21.2123 22.1832 21.1831 22.0823 21.1831 21.6791V19.3819H21.9277V18.8562H21.1831V17.8841H20.5188ZM23.1126 21.0094H26.1348C26.2224 19.7852 25.4997 18.7914 24.3025 18.7914C23.2294 18.7914 22.3972 19.5764 22.3972 20.8006C22.3972 21.9455 23.0834 22.824 24.3244 22.824C25.2807 22.824 25.9012 22.2768 26.0837 21.6071H25.3975C25.2296 21.9888 24.9084 22.248 24.3244 22.248C23.7404 22.248 23.1418 21.8448 23.1126 21.0094ZM23.1199 20.4477C23.1783 19.67 23.7112 19.3531 24.3025 19.3531C25.0033 19.3531 25.4194 19.9004 25.434 20.4477H23.1199ZM28.8654 19.5404V18.8418C28.7924 18.8346 28.734 18.8346 28.6683 18.8346C28.1573 18.849 27.7558 19.0939 27.5587 19.5331V18.8562H26.909V22.7305H27.5733V20.6998C27.5733 19.85 27.8799 19.5115 28.4931 19.5115C28.6026 19.5115 28.7267 19.526 28.8654 19.5404ZM30.1682 18.8562H29.5039V23.9907H30.1682V22.1471C30.4091 22.5577 30.8252 22.824 31.453 22.824C32.3509 22.824 33.132 22.0896 33.132 20.8077C33.132 19.5331 32.3509 18.7914 31.453 18.7914C30.8252 18.7914 30.4091 19.0579 30.1682 19.4683V18.8562ZM31.2851 22.2624C30.6938 22.2624 30.139 21.8303 30.139 20.8077C30.139 19.7852 30.6938 19.3531 31.2851 19.3531C31.964 19.3531 32.4093 19.886 32.4093 20.8077C32.4093 21.7295 31.964 22.2624 31.2851 22.2624ZM35.866 19.5404V18.8418C35.793 18.8346 35.7346 18.8346 35.6689 18.8346C35.1579 18.849 34.7564 19.0939 34.5593 19.5331V18.8562H33.9096V22.7305H34.5739V20.6998C34.5739 19.85 34.8805 19.5115 35.4937 19.5115C35.6032 19.5115 35.7273 19.526 35.866 19.5404ZM37.1688 17.5096H36.5045V18.3018H37.1688V17.5096ZM37.1688 18.8562H36.5045V22.7305H37.1688V18.8562ZM40.471 19.9868H41.1645C41.0404 19.2523 40.4637 18.7842 39.6169 18.7842C38.7482 18.7842 38.0474 19.1803 38.0474 19.8644C38.0474 20.5846 38.6314 20.8294 39.1643 20.9373L39.7483 21.0526C40.1717 21.139 40.544 21.3046 40.544 21.6935C40.544 22.0536 40.1352 22.2696 39.6315 22.2696C39.0475 22.2696 38.7336 21.9744 38.6314 21.4775H37.9306C38.0036 22.1544 38.5876 22.824 39.6169 22.824C40.5148 22.824 41.2156 22.3848 41.2156 21.6215C41.2156 20.8725 40.5878 20.6061 39.8724 20.4693L39.3176 20.3613C38.938 20.2893 38.719 20.1452 38.719 19.8356C38.719 19.4827 39.157 19.3459 39.5439 19.3459C40.0038 19.3459 40.3688 19.526 40.471 19.9868ZM42.5032 21.0094H45.5254C45.613 19.7852 44.8903 18.7914 43.6931 18.7914C42.62 18.7914 41.7878 19.5764 41.7878 20.8006C41.7878 21.9455 42.474 22.824 43.715 22.824C44.6713 22.824 45.2918 22.2768 45.4743 21.6071H44.7881C44.6202 21.9888 44.299 22.248 43.715 22.248C43.131 22.248 42.5324 21.8448 42.5032 21.0094ZM42.5105 20.4477C42.5689 19.67 43.1018 19.3531 43.6931 19.3531C44.3939 19.3531 44.81 19.9004 44.8246 20.4477H42.5105ZM48.5623 19.9868H49.2558C49.1317 19.2523 48.555 18.7842 47.7082 18.7842C46.8395 18.7842 46.1387 19.1803 46.1387 19.8644C46.1387 20.5846 46.7227 20.8294 47.2556 20.9373L47.8396 21.0526C48.263 21.139 48.6353 21.3046 48.6353 21.6935C48.6353 22.0536 48.2265 22.2696 47.7228 22.2696C47.1388 22.2696 46.8249 21.9744 46.7227 21.4775H46.0219C46.0949 22.1544 46.6789 22.824 47.7082 22.824C48.6061 22.824 49.3069 22.3848 49.3069 21.6215C49.3069 20.8725 48.6791 20.6061 47.9637 20.4693L47.4089 20.3613C47.0293 20.2893 46.8103 20.1452 46.8103 19.8356C46.8103 19.4827 47.2483 19.3459 47.6352 19.3459C48.0951 19.3459 48.4601 19.526 48.5623 19.9868Z" fill="#979797"/>
</svg>
