<svg width="102" height="35" viewBox="0 0 102 35" fill="none" xmlns="http://www.w3.org/2000/svg">
<path d="M7.3408 14C5.49638 14 3.72575 13.2553 2.39778 11.9149C1.0698 10.7234 0.332031 8.93614 0.332031 7C0.332031 5.13829 1.0698 3.35107 2.39778 2.08511C3.72575 0.744681 5.49638 0 7.3408 0C9.1114 0 10.8083 0.670213 12.0625 1.93617L10.7346 3.2766C9.84917 2.38298 8.59502 1.86171 7.3408 1.93617C6.01282 1.93617 4.75862 2.45745 3.79953 3.42553C2.84043 4.39361 2.324 5.65957 2.324 7C2.324 8.34042 2.84043 9.60639 3.79953 10.5745C5.71772 12.5107 8.81635 12.5851 10.8083 10.6489C11.3985 9.97874 11.7674 9.15958 11.8412 8.26597H7.41457V6.40425H13.7594C13.8331 6.7766 13.8331 7.2234 13.8331 7.59575C13.9069 9.23403 13.3167 10.8724 12.21 12.0639C10.9559 13.4043 9.1852 14.0745 7.3408 14ZM22.1699 12.734C20.3992 14.4468 17.5957 14.4468 15.8251 12.734C14.9398 11.9149 14.4971 10.7234 14.4971 9.53193C14.4971 8.34042 14.9398 7.14893 15.8251 6.32979C17.5957 4.61702 20.3992 4.61702 22.1699 6.32979C23.0552 7.14893 23.4979 8.34042 23.4979 9.53193C23.4979 10.7234 23.0552 11.9149 22.1699 12.734ZM17.2269 11.4681C18.186 12.5107 19.809 12.5107 20.7681 11.4681C21.2845 10.9468 21.5058 10.2766 21.5058 9.53193C21.5058 8.78723 21.2845 8.11706 20.7681 7.59575C19.809 6.55319 18.186 6.55319 17.2269 7.59575C16.7104 8.11706 16.4153 8.86168 16.4891 9.53193C16.4153 10.2766 16.7104 10.9468 17.2269 11.4681ZM31.9822 12.734C30.2115 14.4468 27.408 14.4468 25.6374 12.734C24.7521 11.9149 24.3094 10.7234 24.3094 9.53193C24.3094 8.34042 24.7521 7.14893 25.6374 6.32979C27.408 4.61702 30.2115 4.61702 31.9822 6.32979C32.8675 7.14893 33.3101 8.34042 33.3101 9.53193C33.3101 10.7234 32.7937 11.9149 31.9822 12.734ZM27.0391 11.4681C27.9982 12.5107 29.6213 12.5107 30.5804 11.4681C31.0968 10.9468 31.3181 10.2766 31.3181 9.53193C31.3181 8.78723 31.0968 8.11706 30.5804 7.59575C29.6213 6.55319 27.9982 6.55319 27.0391 7.59575C26.5227 8.11706 26.3014 8.86168 26.3014 9.53193C26.2276 10.2766 26.5227 10.9468 27.0391 11.4681ZM38.4007 18.0957C37.5154 18.0957 36.6301 17.8724 35.8923 17.2766C35.2283 16.7553 34.7857 16.1596 34.4168 15.4149L36.1136 14.6702C36.335 15.1171 36.5563 15.4893 36.9989 15.7872C37.3679 16.0851 37.8842 16.3085 38.4007 16.234C39.0647 16.3085 39.6549 16.0107 40.1714 15.5639C40.614 15.0425 40.8353 14.2979 40.7615 13.6276V12.9575H40.6877C40.0976 13.6276 39.2123 14 38.3269 14C37.2203 14 36.1136 13.5532 35.302 12.6596C34.4906 11.8404 33.9741 10.6489 34.0479 9.45748C34.0479 8.26597 34.4906 7.07447 35.302 6.25532C36.0398 5.43617 37.1465 4.91489 38.3269 4.91489C38.7696 4.91489 39.286 4.98936 39.7286 5.21276C40.0976 5.36171 40.4664 5.65957 40.6877 5.95745H40.7615V5.21276H42.6059V13.4043C42.6797 14.6702 42.2371 15.9361 41.4255 16.9043C40.614 17.7234 39.5073 18.0957 38.4007 18.0957ZM38.5483 12.2872C39.2123 12.2872 39.8024 11.9893 40.2451 11.5425C40.6877 11.0213 40.9829 10.2766 40.9091 9.60639C40.9091 8.86168 40.6877 8.19151 40.2451 7.59575C39.8024 7.07447 39.2123 6.85107 38.5483 6.85107C37.8842 6.85107 37.2203 7.07447 36.7776 7.59575C36.2612 8.11706 36.0398 8.86168 36.0398 9.53193C36.0398 10.2766 36.335 10.9468 36.7776 11.4681C37.2203 11.9893 37.8842 12.2872 38.5483 12.2872ZM45.9259 13.7766H43.9339V0.521276H45.9259V13.7766ZM51.3116 14C50.1312 14 48.9507 13.5532 48.1392 12.734C47.3277 11.9149 46.8112 10.7234 46.885 9.53193C46.8112 8.34042 47.2538 7.14893 48.1392 6.25532C48.9507 5.43617 49.9836 4.98936 51.1641 4.98936C51.6804 4.98936 52.1969 5.06383 52.6395 5.28723C53.0822 5.43617 53.4511 5.73404 53.82 6.03192C54.1151 6.32979 54.3364 6.62766 54.5577 6.92553C54.7053 7.2234 54.8529 7.52128 55.0004 7.81915L55.2217 8.34042L49.2459 10.7979C49.6147 11.6915 50.5 12.2128 51.3854 12.1383C52.2707 12.1383 53.156 11.6915 53.5986 10.8724L55.0742 11.9149C54.7053 12.4361 54.1889 12.9575 53.5986 13.3298C52.9347 13.8511 52.1231 14.0745 51.3116 14ZM48.8032 9.38294L52.7871 7.74468C52.7133 7.44681 52.492 7.14893 52.1969 7C51.9018 6.85107 51.5329 6.70213 51.1641 6.70213C50.5738 6.70213 49.9836 7 49.5409 7.44681C49.0245 7.96807 48.7294 8.63832 48.8032 9.38294Z" fill="white"/>
<path d="M65.4016 14.0001C63.7047 14.0001 62.0817 13.3299 60.9012 12.1385C59.7208 10.9469 59.0568 9.30863 59.1306 7.59588C59.0568 5.88312 59.7208 4.24481 60.9012 3.05333C62.0817 1.86184 63.7047 1.19162 65.4016 1.19162C67.0984 1.11716 68.7215 1.86184 69.8282 3.20226L68.7215 4.24481C67.91 3.20226 66.6558 2.60652 65.3278 2.68098C64.0736 2.68098 62.8932 3.1278 62.0079 4.02141C61.1226 4.9895 60.6061 6.25545 60.6799 7.52141C60.6061 8.86182 61.1226 10.1278 62.0079 11.0214C62.8932 11.915 64.0736 12.3618 65.3278 12.3618C66.8034 12.3618 68.1313 11.6917 69.0904 10.5746L70.1971 11.6917C69.6806 12.5108 69.0166 13.1065 68.2051 13.4044C67.3197 13.8512 66.3606 14.0746 65.4016 14.0001Z" fill="white"/>
<path d="M71.6016 13.7765H73.1509V1.48926H71.6016V13.7765Z" fill="white"/>
<path d="M75.7314 6.40421C77.4282 4.69144 80.1575 4.69144 81.8547 6.40421C82.6666 7.29782 83.1088 8.41482 83.0348 9.60633C83.0348 10.7978 82.6666 11.9148 81.8547 12.8084C80.1575 14.5212 77.4282 14.5212 75.7314 12.8084C74.9198 11.9148 74.4771 10.7978 74.5509 9.60633C74.4771 8.41482 74.9198 7.22335 75.7314 6.40421ZM76.838 11.7659C77.8709 12.8829 79.6415 12.8829 80.6745 11.7659C81.1906 11.1702 81.4857 10.351 81.4857 9.53188C81.4857 8.71272 81.2646 7.89357 80.6745 7.29782C79.6415 6.1808 77.8709 6.1808 76.838 7.29782C76.3215 7.89357 76.0264 8.71272 76.0264 9.53188C76.0264 10.351 76.3215 11.1702 76.838 11.7659Z" fill="white"/>
<path d="M91.6655 13.7767H90.1903V12.5852H90.1163C89.8213 13.032 89.4523 13.4044 89.0101 13.6278C88.5671 13.9257 87.977 14.0746 87.4609 14.0746C86.575 14.149 85.6898 13.7767 85.0997 13.1065C84.5096 12.3618 84.2146 11.4682 84.2885 10.5746V5.36182H85.8377V10.2022C85.8377 11.7661 86.5018 12.5108 87.9031 12.5108C88.4932 12.5108 89.0833 12.2129 89.4523 11.7661C89.8213 11.2448 90.0424 10.5746 90.0424 9.97885V5.36182H91.5923V13.7767H91.6655Z" fill="white"/>
<path d="M96.9062 13.9999C95.8731 13.9999 94.8401 13.5531 94.1029 12.7339C93.2909 11.8403 92.9219 10.7233 92.9219 9.53183C92.9219 8.34032 93.2909 7.22331 94.1029 6.32969C94.7669 5.51053 95.7992 5.06373 96.9062 5.06373C97.4963 5.06373 98.0864 5.21267 98.6033 5.51053C99.0455 5.73395 99.4145 6.10628 99.7095 6.55309H99.7835L99.7095 5.3616V1.48926H101.259V13.702H99.7835V12.5106H99.7095C99.4145 12.9574 99.0455 13.3297 98.6033 13.5531C98.0864 13.9254 97.4963 13.9999 96.9062 13.9999ZM97.2013 12.585C97.9393 12.585 98.6033 12.2871 99.0455 11.7659C99.5624 11.1701 99.8575 10.351 99.7835 9.53183C99.8575 8.71267 99.5624 7.96796 99.0455 7.29777C98.0124 6.18075 96.3161 6.18075 95.283 7.29777C94.7669 7.89352 94.4719 8.71267 94.545 9.53183C94.4719 10.351 94.7669 11.0956 95.283 11.7659C95.7992 12.2871 96.4632 12.585 97.2013 12.585Z" fill="white"/>
<path d="M3.28236 29.1915V34.7766H1.51172V21H6.15964C7.34006 21 8.3729 21.3724 9.18447 22.1915C9.99605 23.0107 10.4387 23.9787 10.4387 25.0957C10.4387 26.2872 9.99605 27.2553 9.18447 28C8.3729 28.7447 7.34006 29.1915 6.15964 29.1915H3.28236ZM3.28236 22.6383V27.4043H6.23341C6.8974 27.4043 7.48762 27.1808 7.93028 26.6596C8.3729 26.2128 8.66802 25.617 8.66802 24.9468C8.66802 24.2766 8.4467 23.7553 7.93028 23.3085C7.48762 22.7872 6.8974 22.5639 6.23341 22.5639H3.28236V22.6383Z" fill="white"/>
<path d="M15.089 25.0215C16.4169 25.0215 17.376 25.3938 18.1876 26.0641C18.9253 26.7343 19.2942 27.7023 19.2942 28.9683V34.7769H17.5974V33.4364H17.5236C16.7859 34.479 15.8268 35.0747 14.6463 35.0747C13.6134 35.0747 12.7281 34.7769 12.0642 34.1811C11.4002 33.5109 11.0312 32.7662 11.0312 31.7981C11.0312 30.83 11.4002 30.0853 12.1379 29.4896C12.8757 28.8938 13.8348 28.5959 15.089 28.5959C16.1218 28.5959 17.0072 28.8194 17.6712 29.1917V28.8194C17.6712 28.2237 17.4498 27.7023 16.9334 27.2555C16.4169 26.8087 15.9005 26.5853 15.2365 26.5853C14.2774 26.5853 13.4659 27.0322 12.9495 27.8513L11.4002 26.8832C12.2117 25.6173 13.4659 25.0215 15.089 25.0215ZM12.8019 31.8726C12.8019 32.3194 13.0233 32.6917 13.3921 32.9896C13.761 33.2875 14.2037 33.4364 14.7201 33.4364C15.4578 33.4364 16.1218 33.1385 16.7121 32.6173C17.3022 32.0959 17.5974 31.4258 17.5974 30.6811C17.0809 30.2343 16.2694 30.0109 15.3103 30.0109C14.5725 30.0109 13.9824 30.1598 13.5396 30.5322C13.097 30.9045 12.8019 31.3513 12.8019 31.8726Z" fill="white"/>
<path d="M21.2852 25.3193H22.982V26.8831H23.0558C23.5722 25.6917 24.6789 25.0959 26.302 25.0959L26.6708 25.1703V27.0321L25.8593 26.9576C25.0478 26.9576 24.3838 27.181 23.8673 27.7023C23.3509 28.2235 23.0558 28.8193 23.0558 29.6385V34.8513H21.2852V25.3193ZM32.2041 34.8513C31.4664 34.8513 30.8023 34.6278 30.2859 34.1066C29.7695 33.6597 29.5481 32.9895 29.5481 32.0959V26.8087H27.9251V25.3193H29.5481V22.415H31.3187V25.3193H33.5321V26.9576H31.245V31.6491C31.245 32.2449 31.3926 32.6917 31.6139 32.915C31.8352 33.1385 32.1303 33.2874 32.4255 33.2874C32.573 33.2874 32.7205 33.2874 32.8681 33.2129C33.0156 33.2129 33.0894 33.1385 33.237 33.0639L33.7534 34.6278C33.3108 34.7767 32.7943 34.8513 32.2041 34.8513Z" fill="white"/>
<path d="M35.3008 25.3191H36.9977V26.6596H37.0715C37.3665 26.2128 37.7354 25.8404 38.3256 25.5425C38.8421 25.2447 39.4323 25.0957 40.0225 25.0957C41.1291 25.0957 42.0145 25.3936 42.6785 26.0638C43.2686 26.734 43.6376 27.6276 43.6376 28.8936V34.7765H41.8669V28.9681C41.7931 27.4042 41.0554 26.6596 39.5798 26.6596C38.9159 26.6596 38.3256 26.9574 37.8092 27.4787C37.3665 28.0744 37.0715 28.7447 37.0715 29.4893V34.7021H35.3008V25.3191Z" fill="white"/>
<path d="M49.835 35.0002C48.4332 35.0002 47.3266 34.5534 46.4413 33.5853C45.5559 32.6173 45.1133 31.4258 45.1133 30.0109C45.1133 28.5959 45.5559 27.4045 46.4413 26.4364C47.3266 25.4683 48.4332 25.0215 49.7612 25.0215C51.1629 25.0215 52.2696 25.4683 53.0811 26.3619C53.8927 27.2555 54.3354 28.5215 54.3354 30.1598V30.3832H47.0315C47.0315 31.2769 47.3266 32.0215 47.9168 32.6173C48.507 33.213 49.171 33.4364 49.9825 33.4364C51.0892 33.4364 51.9745 32.8406 52.6385 31.7237L54.1878 32.4683C53.7451 33.2875 53.155 33.8832 52.4172 34.33C51.6056 34.7769 50.7941 35.0002 49.835 35.0002ZM47.0315 28.8938H52.3434C52.2697 28.2237 52.0483 27.7023 51.5319 27.2555C51.0892 26.8087 50.4252 26.5853 49.6137 26.5853C48.9497 26.5853 48.3594 26.8087 47.9168 27.1811C47.4741 27.6279 47.179 28.2237 47.0315 28.8938Z" fill="white"/>
<path d="M57.5832 34.7021H55.8125V25.3191H57.5094V26.8829H57.5832C57.7307 26.3617 58.0996 25.9893 58.6898 25.617C59.2063 25.2447 59.7965 25.0957 60.3129 25.0957C60.8293 25.0957 61.272 25.1702 61.6409 25.3191L61.1245 27.0319C60.9031 26.9574 60.5342 26.8829 60.0916 26.8829C59.4276 26.8829 58.8374 27.1808 58.3947 27.7021C57.8783 28.2234 57.657 28.8936 57.657 29.5638V34.7021H57.5832Z" fill="white"/>
</svg>
