<svg width="72" height="73" viewBox="0 0 72 73" fill="none" xmlns="http://www.w3.org/2000/svg">
<path d="M64.2849 61.7542C65.9534 64.4591 66.4539 66.7542 65.5363 68.3116C62.9501 72.7378 50.2695 70.3608 36.0039 63.2296C37.7558 62.4099 39.5077 61.4263 41.2597 60.4427C46.2652 57.5739 50.7701 54.5411 54.5242 51.5083L54.6076 51.6722C57.7778 54.2132 60.3639 56.7542 62.2827 59.0493C61.8656 59.3771 61.6153 59.787 61.6153 60.3608C61.6153 61.2624 62.3661 62.0001 63.2838 62.0001C63.7009 62.0001 64.0346 61.9181 64.2849 61.7542Z" stroke="black" stroke-width="1.3" stroke-miterlimit="10" stroke-linecap="round" stroke-linejoin="round"/>
<path d="M63.3677 58.8032C64.2854 58.8032 65.0362 59.5409 65.0362 60.4426C65.0362 61.0163 64.7025 61.5081 64.2854 61.836C64.0351 61.9999 63.7014 62.0819 63.3677 62.0819C62.45 62.0819 61.6992 61.3442 61.6992 60.4426C61.6992 59.9508 61.9495 59.459 62.3666 59.1311C62.6169 58.8852 62.9506 58.8032 63.3677 58.8032Z" stroke="black" stroke-width="1.3" stroke-miterlimit="10" stroke-linecap="round" stroke-linejoin="round"/>
<path d="M62.2823 32.6559C62.2823 32.7379 62.2823 32.8199 62.2823 32.9018C62.1989 33.7215 61.4481 34.2953 60.6138 34.2953C59.6961 34.2953 58.9453 33.5576 58.9453 32.6559C58.9453 31.7543 59.6961 31.0166 60.6138 31.0166C61.5315 31.0166 62.2823 31.7543 62.2823 32.6559Z" stroke="black" stroke-width="1.3" stroke-miterlimit="10" stroke-linecap="round" stroke-linejoin="round"/>
<path d="M29.6623 43.3113H29.5789C25.074 45.9343 20.9861 48.8031 17.4823 51.5081C9.05641 44.7867 4.46805 38.2294 6.47024 34.7867C7.72161 32.6556 11.3089 32.0818 16.2309 32.9015C16.2309 32.9835 16.2309 33.0654 16.2309 33.2294C16.2309 34.131 16.9818 34.8687 17.8994 34.8687C18.6503 34.8687 19.3177 34.2949 19.4845 33.6392C22.4878 34.3769 25.8248 35.4425 29.412 36.9179H29.6623" stroke="black" stroke-width="1.3" stroke-miterlimit="10" stroke-linecap="round" stroke-linejoin="round"/>
<path d="M16.2305 32.9018C16.3973 32.1641 17.0647 31.5903 17.899 31.5903C18.8166 31.5903 19.5675 32.328 19.5675 33.2297C19.5675 33.3936 19.5675 33.4756 19.5675 33.5575C19.4006 34.2952 18.7332 34.7871 17.9824 34.7871C17.0647 34.7871 16.3139 34.0493 16.3139 33.1477C16.2305 33.1477 16.2305 33.0657 16.2305 32.9018Z" stroke="black" stroke-width="1.3" stroke-miterlimit="10" stroke-linecap="round" stroke-linejoin="round"/>
<path d="M12.0596 70.4426V70.5245C11.9762 71.3442 11.3088 71.9999 10.3912 71.9999C9.47348 71.9999 8.72266 71.2622 8.72266 70.3606C8.72266 70.1967 8.72266 70.1147 8.72266 70.0327C8.88951 69.295 9.5569 68.8032 10.3077 68.8032C11.3088 68.8032 12.0596 69.5409 12.0596 70.4426Z" stroke="black" stroke-width="1.3" stroke-miterlimit="10" stroke-linecap="round" stroke-linejoin="round"/>
<path d="M8.80613 70.0329C7.72161 69.705 6.97079 69.0493 6.47024 68.3116C4.46805 64.869 9.05641 58.3936 17.4823 51.5903C20.9027 48.8034 24.9905 46.0165 29.5789 43.3936" stroke="black" stroke-width="1.3" stroke-miterlimit="2.6131" stroke-linecap="round" stroke-linejoin="round"/>
<path d="M62.2842 32.8198C63.8693 33.1477 64.9538 33.8034 65.5378 34.787C67.54 38.2297 62.9516 44.7051 54.5257 51.5083C50.7716 54.5411 46.2666 57.5739 41.2612 60.4428C39.5092 61.4264 37.7573 62.328 36.0054 63.2297C26.495 67.9838 17.652 70.6067 12.0625 70.5247" stroke="black" stroke-width="1.3" stroke-miterlimit="2.6131" stroke-linecap="round" stroke-linejoin="round"/>
<path d="M43.5117 36.5082C49.5183 34.1312 54.9409 32.7377 58.9453 32.6558" stroke="black" stroke-width="1.3" stroke-miterlimit="2.6131" stroke-linecap="round" stroke-linejoin="round"/>
<path d="M62.3665 59.1314C60.4477 56.8364 57.8615 54.2954 54.6914 51.7544" stroke="black" stroke-width="1.3" stroke-miterlimit="2.6131" stroke-linecap="round" stroke-linejoin="round"/>
<path d="M16.2309 32.902C11.2255 32.0823 7.72161 32.6561 6.47024 34.7872C4.46805 38.2299 9.05641 44.7872 17.4823 51.5085C21.2364 54.5413 25.7414 57.5741 30.7468 60.443C32.4988 61.4266 34.2507 62.3282 36.0026 63.2298C50.2682 70.361 62.9488 72.6561 65.535 68.3118C66.4526 66.7544 65.9521 64.4594 64.2836 61.7544" stroke="black" stroke-width="1.3" stroke-miterlimit="2.6131" stroke-linecap="round" stroke-linejoin="round"/>
<path d="M29.4979 36.9183C25.9106 35.4429 22.5736 34.3774 19.5703 33.6396" stroke="black" stroke-width="1.3" stroke-miterlimit="2.6131" stroke-linecap="round" stroke-linejoin="round"/>
<path d="M16.2305 32.9018C16.3973 32.1641 17.0647 31.5903 17.899 31.5903C18.8166 31.5903 19.5675 32.328 19.5675 33.2297C19.5675 33.3936 19.5675 33.4756 19.5675 33.5575C19.4006 34.2952 18.7332 34.7871 17.9824 34.7871C17.0647 34.7871 16.3139 34.0493 16.3139 33.1477C16.2305 33.1477 16.2305 33.0657 16.2305 32.9018Z" stroke="black" stroke-width="1.3" stroke-miterlimit="10" stroke-linecap="round" stroke-linejoin="round"/>
<path d="M62.3666 59.1311C62.6169 58.8852 63.034 58.8032 63.3677 58.8032C64.2854 58.8032 65.0362 59.5409 65.0362 60.4426C65.0362 61.0163 64.7025 61.5081 64.2854 61.836C64.0351 61.9999 63.7014 62.0819 63.3677 62.0819C62.45 62.0819 61.6992 61.3442 61.6992 60.4426C61.6992 59.8688 61.9495 59.377 62.3666 59.1311Z" stroke="black" stroke-width="1.3" stroke-miterlimit="10" stroke-linecap="round" stroke-linejoin="round"/>
<path d="M8.80608 70.0327C8.97293 69.295 9.64033 68.8032 10.3912 68.8032C11.3088 68.8032 12.0596 69.5409 12.0596 70.4426V70.5245C11.9762 71.3442 11.3088 71.9999 10.3912 71.9999C9.47348 71.9999 8.72266 71.2622 8.72266 70.3606C8.80608 70.2786 8.80608 70.1967 8.80608 70.0327Z" stroke="black" stroke-width="1.3" stroke-miterlimit="10" stroke-linecap="round" stroke-linejoin="round"/>
<path d="M58.9453 32.5739C58.9453 31.6723 59.6961 30.9346 60.6138 30.9346C61.5315 30.9346 62.2823 31.6723 62.2823 32.5739C62.2823 32.6559 62.2823 32.7378 62.2823 32.8198C62.1989 33.6395 61.4481 34.2133 60.6138 34.2133C59.6961 34.2133 58.9453 33.5575 58.9453 32.5739ZM58.9453 32.5739C58.9453 32.6559 58.9453 32.6559 58.9453 32.5739Z" stroke="black" stroke-width="1.3" stroke-miterlimit="10" stroke-linecap="round" stroke-linejoin="round"/>
<path d="M51.394 29.9254C51.394 22.1405 45.5532 15.6221 37.991 15.6221C30.4288 15.6221 23.918 22.1405 23.918 29.9254C23.918 34.7356 26.3572 38.9094 29.9493 41.5044C30.5165 41.8841 30.6194 42.1704 30.6194 42.8666V47.6344C30.6194 49.723 32.6237 49.6777 34.6403 49.6777H40.6716C42.6882 49.6777 44.6925 49.723 44.6925 47.6344V42.8666C44.6925 42.1704 44.7955 41.8841 45.3626 41.5044C48.9547 38.9727 51.394 34.7356 51.394 29.9254Z" fill="#FFCA41"/>
<path d="M29.9493 41.5044L29.3637 42.315C29.3733 42.3219 29.3831 42.3287 29.3929 42.3353L29.9493 41.5044ZM45.3626 41.5044L45.919 42.3353C45.9256 42.3309 45.9322 42.3263 45.9387 42.3217L45.3626 41.5044ZM52.394 29.9254C52.394 21.6639 46.1783 14.6221 37.991 14.6221V16.6221C44.9282 16.6221 50.394 22.6171 50.394 29.9254H52.394ZM37.991 14.6221C29.8658 14.6221 22.918 21.5991 22.918 29.9254H24.918C24.918 22.6819 30.9919 16.6221 37.991 16.6221V14.6221ZM22.918 29.9254C22.918 35.0872 25.5371 39.5506 29.3637 42.315L30.5349 40.6938C27.1774 38.2682 24.918 34.3841 24.918 29.9254H22.918ZM29.3929 42.3353C29.6106 42.4811 29.6065 42.5231 29.5917 42.4914C29.5885 42.4847 29.6194 42.5392 29.6194 42.8666H31.6194C31.6194 42.4977 31.5989 42.061 31.4024 41.6422C31.1943 41.1984 30.8551 40.9074 30.5057 40.6734L29.3929 42.3353ZM29.6194 42.8666V47.6344H31.6194V42.8666H29.6194ZM29.6194 47.6344C29.6194 48.3201 29.7865 48.9366 30.1672 49.4389C30.5439 49.9359 31.0544 50.2212 31.5589 50.3885C32.5019 50.7012 33.7016 50.6777 34.6403 50.6777V48.6777C33.5624 48.6777 32.7517 48.6769 32.1884 48.4901C31.9398 48.4077 31.8231 48.3126 31.761 48.2307C31.7029 48.154 31.6194 47.993 31.6194 47.6344H29.6194ZM34.6403 50.6777H40.6716V48.6777H34.6403V50.6777ZM40.6716 50.6777C41.6103 50.6777 42.8101 50.7012 43.753 50.3885C44.2575 50.2212 44.768 49.9359 45.1448 49.4389C45.5255 48.9366 45.6925 48.3201 45.6925 47.6344H43.6925C43.6925 47.993 43.609 48.154 43.5509 48.2307C43.4888 48.3126 43.3722 48.4077 43.1235 48.4901C42.5602 48.6769 41.7495 48.6777 40.6716 48.6777V50.6777ZM45.6925 47.6344V42.8666H43.6925V47.6344H45.6925ZM45.6925 42.8666C45.6925 42.5392 45.7234 42.4847 45.7203 42.4914C45.7054 42.5231 45.7013 42.4811 45.919 42.3353L44.8063 40.6734C44.4568 40.9074 44.1177 41.1984 43.9095 41.6422C43.7131 42.061 43.6925 42.4977 43.6925 42.8666H45.6925ZM45.9387 42.3217C49.7801 39.6144 52.394 35.0805 52.394 29.9254H50.394C50.394 34.3908 48.1293 38.331 44.7866 40.687L45.9387 42.3217Z" fill="black"/>
<path d="M41 36.0557C41 35.5034 40.5523 35.0557 40 35.0557C39.4477 35.0557 39 35.5034 39 36.0557H41ZM39 45.5912C39 46.1435 39.4477 46.5912 40 46.5912C40.5523 46.5912 41 46.1435 41 45.5912H39ZM39 36.0557V45.5912H41V36.0557H39Z" fill="black"/>
<path d="M36.3086 34.6934C36.3086 34.1411 35.8609 33.6934 35.3086 33.6934C34.7563 33.6934 34.3086 34.1411 34.3086 34.6934H36.3086ZM34.3086 44.9101C34.3086 45.4623 34.7563 45.9101 35.3086 45.9101C35.8609 45.9101 36.3086 45.4623 36.3086 44.9101H34.3086ZM34.3086 34.6934V44.9101H36.3086V34.6934H34.3086Z" fill="black"/>
<path d="M41.3425 53.0832C41.3425 55.2899 39.5555 57.1698 37.3217 57.1698C35.0878 57.1698 33.3008 55.2899 33.3008 53.0832C33.3008 50.8764 35.0878 51.0398 37.3217 51.0398C39.5555 51.0398 41.3425 50.9377 41.3425 53.0832Z" fill="white"/>
<path d="M40.3425 53.0832C40.3425 54.7632 38.978 56.1698 37.3217 56.1698V58.1698C40.133 58.1698 42.3425 55.8166 42.3425 53.0832H40.3425ZM37.3217 56.1698C35.6654 56.1698 34.3008 54.7632 34.3008 53.0832H32.3008C32.3008 55.8166 34.5103 58.1698 37.3217 58.1698V56.1698ZM34.3008 53.0832C34.3008 52.6602 34.3867 52.4756 34.4394 52.3987C34.4851 52.3323 34.5677 52.2546 34.7815 52.1854C35.0134 52.1103 35.3376 52.066 35.7908 52.048C36.2459 52.0299 36.7351 52.0398 37.3217 52.0398V50.0398C36.7913 50.0398 36.2194 50.0294 35.7113 50.0496C35.201 50.0699 34.6597 50.1226 34.1656 50.2826C33.6534 50.4484 33.1496 50.7436 32.7904 51.2671C32.4382 51.7803 32.3008 52.4028 32.3008 53.0832H34.3008ZM37.3217 52.0398C37.8998 52.0398 38.3933 52.0338 38.8427 52.0562C39.2928 52.0785 39.6187 52.1271 39.8528 52.2054C40.071 52.2783 40.1588 52.3595 40.2065 52.4284C40.2591 52.5043 40.3425 52.6814 40.3425 53.0832H42.3425C42.3425 52.4122 42.2026 51.7976 41.8503 51.2892C41.4932 50.7738 40.9945 50.4782 40.4868 50.3085C39.9949 50.1441 39.4552 50.0841 38.942 50.0586C38.428 50.0331 37.8604 50.0398 37.3217 50.0398V52.0398Z" fill="black"/>
<path d="M30.6211 44.9097V48.9963C30.6211 50.4077 31.8876 51.7208 33.3017 51.7208H41.3434C42.7575 51.7208 44.024 50.4077 44.024 48.9963V44.9097H30.6211Z" fill="white"/>
<path d="M30.6211 44.9097V43.9097C30.0688 43.9097 29.6211 44.3574 29.6211 44.9097H30.6211ZM44.024 44.9097H45.024C45.024 44.3574 44.5763 43.9097 44.024 43.9097V44.9097ZM29.6211 44.9097V48.9963H31.6211V44.9097H29.6211ZM29.6211 48.9963C29.6211 50.9385 31.3141 52.7208 33.3017 52.7208V50.7208C32.4611 50.7208 31.6211 49.8769 31.6211 48.9963H29.6211ZM33.3017 52.7208H41.3434V50.7208H33.3017V52.7208ZM41.3434 52.7208C43.331 52.7208 45.024 50.9385 45.024 48.9963H43.024C43.024 49.8769 42.184 50.7208 41.3434 50.7208V52.7208ZM45.024 48.9963V44.9097H43.024V48.9963H45.024ZM44.024 43.9097H30.6211V45.9097H44.024V43.9097Z" fill="black"/>
<path d="M35.2949 36.2674C35.7114 35.9046 35.7548 35.273 35.3921 34.8565C35.0293 34.4401 34.3976 34.3966 33.9812 34.7594L35.2949 36.2674ZM37.3187 33.4701L36.5811 34.1453L36.5873 34.1521L36.5936 34.1588L37.3187 33.4701ZM39.393 30.6314C38.9538 30.9662 38.8691 31.5937 39.2039 32.0329C39.5388 32.4722 40.1662 32.5568 40.6055 32.222L39.393 30.6314ZM33.9812 34.7594C33.8501 34.8736 33.7791 34.939 33.6897 35.0139C33.6109 35.08 33.5594 35.1173 33.5198 35.1413C33.4697 35.1716 33.4223 35.1945 33.2978 35.1945V37.1945C34.3607 37.1945 34.9251 36.5896 35.2949 36.2674L33.9812 34.7594ZM33.2978 35.1945C32.4165 35.1945 31.6172 34.4386 31.6172 33.4701H29.6172C29.6172 35.5427 31.3115 37.1945 33.2978 37.1945V35.1945ZM31.6172 33.4701C31.6172 33.3369 31.6853 33.0591 31.8938 32.7638C32.0924 32.4826 32.3726 32.2516 32.7147 32.1389C33.3207 31.9391 34.6078 31.9901 36.5811 34.1453L38.0562 32.7948C35.8527 30.3881 33.7891 29.6788 32.0886 30.2394C31.2774 30.5068 30.6654 31.0361 30.26 31.6103C29.8646 32.1703 29.6172 32.8429 29.6172 33.4701H31.6172ZM36.5936 34.1588C37.4423 35.0522 38.1564 35.8092 38.8497 36.3241C39.5956 36.8781 40.3687 37.1945 41.3395 37.1945V35.1945C40.8766 35.1945 40.512 35.0674 40.0422 34.7185C39.5199 34.3306 38.9405 33.7254 38.0437 32.7813L36.5936 34.1588ZM41.3395 37.1945C43.3258 37.1945 45.0201 35.5427 45.0201 33.4701H43.0201C43.0201 34.4386 42.2208 35.1945 41.3395 35.1945V37.1945ZM45.0201 33.4701C45.0201 31.3974 43.3258 29.7456 41.3395 29.7456V31.7456C42.2208 31.7456 43.0201 32.5015 43.0201 33.4701H45.0201ZM41.3395 29.7456C40.3532 29.7456 39.7434 30.3643 39.393 30.6314L40.6055 32.222C40.7268 32.1295 40.8782 32.0082 40.9534 31.9498C41.0502 31.8747 41.1132 31.8298 41.1642 31.7989C41.2366 31.755 41.2699 31.7456 41.3395 31.7456V29.7456Z" fill="black"/>
<path d="M10.5156 26.7852H16.9838" stroke="#FFCA41" stroke-width="3" stroke-linecap="round" stroke-linejoin="round"/>
<path d="M58.3281 26.7852H64.7963" stroke="#FFCA41" stroke-width="3" stroke-linecap="round" stroke-linejoin="round"/>
<path d="M52.2461 14.6575L56.8753 9.99072" stroke="#FFCA41" stroke-width="3" stroke-linecap="round" stroke-linejoin="round"/>
<path d="M37.6562 8.52069V2" stroke="#FFCA41" stroke-width="3" stroke-linecap="round" stroke-linejoin="round"/>
<path d="M23.0745 14.6575L18.4453 9.99072" stroke="#FFCA41" stroke-width="3" stroke-linecap="round" stroke-linejoin="round"/>
</svg>
