<svg width="70" height="67" viewBox="0 0 70 67" fill="none" xmlns="http://www.w3.org/2000/svg">
<path d="M0.5 65.5033V25.634L31.5637 1.54458L31.258 1.15041L31.5637 1.54457C33.3596 0.15181 35.8904 0.15181 37.6863 1.54457L37.9921 1.15025L37.6863 1.54458L68.75 25.634V65.5033H0.5Z" fill="#FBFBFB" stroke="black"/>
<path d="M12.0273 4.39209H57.2655C59.1985 4.39209 60.7656 5.95909 60.7656 7.89209V58.4541C60.7656 60.3871 59.1986 61.9541 57.2656 61.9541H12.0273C10.0944 61.9541 8.52734 60.3871 8.52734 58.4541V7.89209C8.52734 5.95909 10.0943 4.39209 12.0273 4.39209Z" fill="#FFCA41" stroke="black"/>
<path d="M58.0364 7.40088H11.2109V9.17549H58.0364V7.40088Z" fill="black"/>
<path d="M44.5655 12H11.2109V13.7746H44.5655V12Z" fill="black"/>
<path d="M44.5655 17H11.2109V18.7746H44.5655V17Z" fill="black"/>
<path d="M57.7235 25H33V26.7746H57.7235V25Z" fill="black"/>
<path d="M57.7233 28.5088H37.5977V30.2834H57.7233V28.5088Z" fill="black"/>
<path d="M0.5 65.131V26.3014L33.6557 45.7162L0.5 65.131Z" fill="#FBFBFB" stroke="black"/>
<path d="M68.7897 65.131L35.634 45.7162L68.7897 26.3014V65.131Z" fill="#FBFBFB" stroke="black"/>
<path d="M67.8284 65.5033H1.49973L31.6002 42.1609C33.3947 40.8075 35.8895 40.8035 37.7299 42.1624L67.8284 65.5033Z" fill="#FBFBFB" stroke="black"/>
</svg>
