<svg width="32" height="32" viewBox="0 0 32 32" fill="none" xmlns="http://www.w3.org/2000/svg">
<rect width="32" height="32" rx="16" fill="#D9D9D9"/>
<path fill-rule="evenodd" clip-rule="evenodd" d="M11.8773 6.06C12.9436 6.01091 13.2836 6 16 6C18.7164 6 19.0564 6.01182 20.1218 6.06C21.1873 6.10818 21.9145 6.27818 22.5509 6.52455C23.2173 6.77636 23.8218 7.17 24.3218 7.67909C24.8309 8.17818 25.2236 8.78182 25.4745 9.44909C25.7218 10.0855 25.8909 10.8127 25.94 11.8764C25.9891 12.9445 26 13.2845 26 16C26 18.7164 25.9882 19.0564 25.94 20.1227C25.8918 21.1864 25.7218 21.9136 25.4745 22.55C25.2236 23.2174 24.8303 23.822 24.3218 24.3218C23.8218 24.8309 23.2173 25.2236 22.5509 25.4745C21.9145 25.7218 21.1873 25.8909 20.1236 25.94C19.0564 25.9891 18.7164 26 16 26C13.2836 26 12.9436 25.9882 11.8773 25.94C10.8136 25.8918 10.0864 25.7218 9.45 25.4745C8.78266 25.2236 8.17802 24.8302 7.67818 24.3218C7.16944 23.8224 6.77574 23.2181 6.52455 22.5509C6.27818 21.9145 6.10909 21.1873 6.06 20.1236C6.01091 19.0555 6 18.7155 6 16C6 13.2836 6.01182 12.9436 6.06 11.8782C6.10818 10.8127 6.27818 10.0855 6.52455 9.44909C6.77611 8.78189 7.17011 8.17756 7.67909 7.67818C8.17822 7.16955 8.78225 6.77586 9.44909 6.52455C10.0855 6.27818 10.8136 6.10909 11.8773 6.06ZM20.0409 7.86C18.9864 7.81182 18.67 7.80182 16 7.80182C13.33 7.80182 13.0136 7.81182 11.9591 7.86C10.9836 7.90455 10.4545 8.06727 10.1018 8.20455C9.63545 8.38636 9.30182 8.60182 8.95182 8.95182C8.62004 9.27459 8.36471 9.66753 8.20455 10.1018C8.06727 10.4545 7.90455 10.9836 7.86 11.9591C7.81182 13.0136 7.80182 13.33 7.80182 16C7.80182 18.67 7.81182 18.9864 7.86 20.0409C7.90455 21.0164 8.06727 21.5455 8.20455 21.8982C8.36455 22.3318 8.62 22.7255 8.95182 23.0482C9.27455 23.38 9.66818 23.6355 10.1018 23.7955C10.4545 23.9327 10.9836 24.0955 11.9591 24.14C13.0136 24.1882 13.3291 24.1982 16 24.1982C18.6709 24.1982 18.9864 24.1882 20.0409 24.14C21.0164 24.0955 21.5455 23.9327 21.8982 23.7955C22.3645 23.6136 22.6982 23.3982 23.0482 23.0482C23.38 22.7255 23.6355 22.3318 23.7955 21.8982C23.9327 21.5455 24.0955 21.0164 24.14 20.0409C24.1882 18.9864 24.1982 18.67 24.1982 16C24.1982 13.33 24.1882 13.0136 24.14 11.9591C24.0955 10.9836 23.9327 10.4545 23.7955 10.1018C23.6136 9.63545 23.3982 9.30182 23.0482 8.95182C22.7254 8.62006 22.3325 8.36474 21.8982 8.20455C21.5455 8.06727 21.0164 7.90455 20.0409 7.86ZM14.7227 19.0827C15.4361 19.3797 16.2303 19.4197 16.9699 19.1961C17.7095 18.9725 18.3485 18.499 18.7778 17.8566C19.2071 17.2142 19.4001 16.4426 19.3237 15.6737C19.2473 14.9049 18.9064 14.1863 18.3591 13.6409C18.0102 13.2923 17.5884 13.0253 17.1239 12.8592C16.6595 12.6932 16.164 12.6321 15.6732 12.6806C15.1823 12.729 14.7083 12.8856 14.2853 13.1392C13.8622 13.3928 13.5007 13.737 13.2266 14.1471C12.9526 14.5572 12.7729 15.023 12.7005 15.5109C12.628 15.9988 12.6647 16.4966 12.8078 16.9687C12.9508 17.4407 13.1968 17.8751 13.5279 18.2407C13.8591 18.6062 14.2671 18.8938 14.7227 19.0827ZM12.3655 12.3655C12.8428 11.8882 13.4094 11.5095 14.033 11.2512C14.6566 10.9929 15.325 10.86 16 10.86C16.675 10.86 17.3434 10.9929 17.967 11.2512C18.5906 11.5095 19.1573 11.8882 19.6345 12.3655C20.1118 12.8428 20.4905 13.4094 20.7488 14.033C21.0071 14.6566 21.14 15.325 21.14 16C21.14 16.675 21.0071 17.3434 20.7488 17.967C20.4905 18.5906 20.1118 19.1573 19.6345 19.6345C18.6706 20.5985 17.3632 21.14 16 21.14C14.6368 21.14 13.3294 20.5985 12.3655 19.6345C11.4015 18.6706 10.86 17.3632 10.86 16C10.86 14.6368 11.4015 13.3294 12.3655 12.3655ZM22.28 11.6255C22.3983 11.5139 22.493 11.3797 22.5585 11.2309C22.624 11.0821 22.6589 10.9216 22.6613 10.759C22.6637 10.5964 22.6334 10.435 22.5723 10.2844C22.5111 10.1337 22.4204 9.99683 22.3054 9.88185C22.1904 9.76688 22.0536 9.67614 21.9029 9.61502C21.7522 9.55389 21.5908 9.52361 21.4282 9.52598C21.2657 9.52835 21.1052 9.56332 20.9564 9.62881C20.8076 9.69431 20.6734 9.789 20.5618 9.90727C20.3448 10.1373 20.226 10.4428 20.2306 10.759C20.2352 11.0752 20.3629 11.3772 20.5865 11.6008C20.8101 11.8244 21.1121 11.952 21.4282 11.9566C21.7444 11.9612 22.05 11.8424 22.28 11.6255Z" fill="#0A0A0B"/>
</svg>
