<svg width="240" height="140" viewBox="0 0 240 140" fill="none" xmlns="http://www.w3.org/2000/svg">
<path d="M240 0H0V140H240V0Z" fill="white"/>
<g clip-path="url(#clip0_4_8)">
<path d="M181.751 88.2644C179.453 88.094 176.973 87.5147 175.006 86.6885C174.56 86.5015 174.245 84.802 174.021 84.7166L173.561 82.4411C173.501 80.4135 173.425 78.1737 173.392 77.4636L173.332 76.1726H174.156H174.98L175.19 77.7607C175.973 83.6931 179.097 86.6789 184.521 86.6789C188.124 86.6789 190.357 85.3238 191.482 82.4554C191.833 81.5605 191.887 81.0992 191.894 78.9305C191.902 76.4623 191.896 76.4224 191.322 75.2449C190.315 73.1784 189.297 72.4932 184.223 70.4673C182.718 69.8664 180.931 69.0937 180.251 68.7502C175.821 66.5109 173.626 63.3341 173.635 59.1738C173.646 53.8515 176.601 50.01 181.752 48.6197C183.545 48.1357 187.914 48.1885 189.784 48.7168C191.537 49.2121 193.855 50.133 194.101 50.4318C194.206 50.5595 194.326 52.0659 194.38 53.9319C194.432 55.7337 194.504 57.6286 194.54 58.1428L194.605 59.0777H193.769H192.934L192.568 57.2026C191.714 52.8362 189.71 50.5348 186.259 49.9579C183.465 49.4909 180.079 50.5723 178.746 52.3574C177.733 53.7143 177.427 54.7772 177.427 56.9408C177.427 58.6609 177.469 58.894 177.951 59.8539C178.577 61.101 179.468 61.9166 181.134 62.7703C182.301 63.3684 186.244 64.9541 186.563 64.9541C186.874 64.9541 190.415 66.7246 191.33 67.3374C193.876 69.0421 195.294 71.3296 195.799 74.5474C196.046 76.1202 196.058 76.6446 195.876 78.1019C195.464 81.4039 194.504 83.4496 192.479 85.3438C189.882 87.772 186.72 88.633 181.751 88.2644ZM119.106 88.0239C113.487 86.9443 110.83 83.9779 110.09 77.958C109.976 77.0284 109.905 71.4394 109.905 63.4006V50.3521H107.786H105.668V49.5508V48.7495H112.641H119.614V49.5455V50.3415L117.363 50.3913L115.112 50.4411L115.061 62.0159C114.993 77.0768 115.163 79.5024 116.471 82.183C117.762 84.8275 120.255 86.1447 123.971 86.1447C128.185 86.1447 130.535 84.5645 131.802 80.8773C132.612 78.5187 132.675 77.2726 132.676 63.3959L132.677 50.3521H130.559H128.44V49.5508V48.7495H133.56H138.679V49.5508V50.3521H136.744H134.809L134.754 64.5534C134.699 78.605 134.695 78.7697 134.306 80.1792C133.157 84.3436 130.886 86.6767 126.94 87.746C125.096 88.2456 121.014 88.3904 119.106 88.0239ZM141.007 86.9993L141.062 86.2337L143.18 86.2054L145.299 86.1772L145.344 68.2701L145.389 50.3631L143.225 50.3131L141.062 50.2631L141.008 49.5063L140.953 48.7495H149.624C155.107 48.7495 158.761 48.8222 159.564 48.9475C162.629 49.4256 164.723 50.7832 165.849 53.0232C166.82 54.9546 167.118 57.3739 166.665 59.6335C166.18 62.0574 165.177 63.5515 163.168 64.8472C161.81 65.7229 160.935 66.0855 159.244 66.4734C158.468 66.6515 157.767 66.8534 157.687 66.9219C157.606 66.9905 158.083 67.1018 158.746 67.1694C165.565 67.8644 168.552 70.8779 168.552 77.063C168.552 80.4682 167.75 82.6444 165.763 84.6349C164.544 85.855 163.066 86.6653 160.982 87.2547C159.65 87.6314 159.245 87.6484 150.275 87.7055L140.953 87.7649L141.007 86.9993ZM157.092 85.879C160.105 85.0873 162.121 82.9925 162.79 79.9569C163.212 78.0476 163.068 74.5475 162.507 73.0563C161.825 71.2432 160.675 69.7916 159.274 68.9746C157.873 68.1579 156.857 67.9813 153.563 67.9813H150.506V77.063V86.1447H153.294C155.195 86.1447 156.402 86.0602 157.092 85.879ZM157.082 65.9565C160.001 65.0055 161.704 62.0819 161.674 58.0705C161.644 53.887 159.535 50.8765 156.303 50.4015C155.785 50.3254 154.269 50.2874 152.934 50.3172L150.506 50.3714V58.2563C150.506 62.593 150.566 66.2035 150.639 66.2796C150.869 66.5202 156.167 66.2545 157.082 65.9565Z" fill="#FC0101"/>
<path d="M68.8173 98.831C68.2615 98.6691 68.2436 98.634 68.2436 97.7037C68.2436 96.7622 68.2325 96.7414 67.6699 96.6314C66.6203 96.4261 64.8118 95.5929 63.9669 94.9253C60.8552 92.4664 59.7887 88.6207 61.1899 84.9115C62.0858 82.5398 64.5577 80.4194 67.2311 79.7293C68.5228 79.3958 68.4615 79.0228 67.0962 78.908L66.037 78.819V77.9286V77.0383L67.1403 76.9852L68.2436 76.9322V72.3999C68.2436 69.9071 68.2066 67.8675 68.1614 67.8675C68.1162 67.8675 66.7848 68.9293 65.2028 70.227C63.6209 71.5247 62.1088 72.7582 61.8428 72.9682C61.5767 73.1782 61.3602 73.4186 61.3616 73.5025C61.3631 73.5863 61.6335 73.9754 61.9626 74.3672C62.5433 75.0585 62.5526 75.0937 62.2779 75.5641C62.1223 75.8306 61.7761 76.1257 61.5086 76.2197C61.0629 76.3764 60.9638 76.3211 60.3211 75.557C59.8158 74.9563 59.5655 74.777 59.4253 74.9153C59.2842 75.0546 59.3857 75.4413 59.7956 76.3247C60.2853 77.3804 60.371 77.7844 60.4407 79.3653C60.5069 80.8665 60.4561 81.4038 60.153 82.4077C59.3198 85.1674 57.325 87.1793 54.5886 88.02C53.5943 88.3255 53.0754 88.3758 51.6758 88.3023C49.728 88.2001 48.6043 87.8204 47.018 86.7284C46.4609 86.3448 45.9445 86.0342 45.8706 86.0382C45.7967 86.0421 45.4661 86.2784 45.136 86.5631C44.5681 87.053 44.5089 87.0668 44.0357 86.82C43.5495 86.5664 43 85.7509 43 85.283C43 85.1557 43.2935 84.8029 43.6522 84.4991L44.3045 83.9467L43.834 82.8524C41.7668 78.044 43.8723 72.793 48.5736 71.0323C49.4255 70.7133 49.9641 70.6443 51.4734 70.6607C53.6551 70.6846 54.7252 71.0203 56.5465 72.2523C57.9874 73.227 58.3443 73.0641 57.377 71.8733C56.722 71.0671 56.7117 71.0325 56.9876 70.5693C57.1435 70.3076 57.4854 70.0145 57.7473 69.9181C58.1827 69.7577 58.2859 69.8148 58.9527 70.5846L59.682 71.4264L63.4773 68.3212C65.5648 66.6133 67.2727 65.1324 67.2727 65.0303C67.2727 64.9281 65.6045 63.4869 63.5656 61.8275L59.8585 58.8104L59.373 59.2766C58.7494 59.8755 58.7602 60.2265 59.4172 60.7165C60.0638 61.1987 60.068 61.2842 59.4807 61.9883L59.0147 62.547L58.4573 62.0019C57.7908 61.3503 57.7183 61.3414 57.28 61.8576C56.5646 62.7002 56.5593 62.8127 57.2137 63.2622C57.5505 63.4936 57.8265 63.7722 57.8272 63.8814C57.8286 64.1141 57.1518 65.0187 56.9771 65.0177C56.8166 65.0168 53.5176 62.3568 53.4513 62.1749C53.4227 62.0962 54.2369 61.5691 55.2608 61.0036C56.2846 60.4382 57.1223 59.9136 57.1223 59.838C57.1223 59.7623 56.8927 59.5356 56.6121 59.334L56.102 58.9676L54.3814 59.9505C53.4351 60.4911 52.6318 60.9041 52.5963 60.8683C52.5608 60.8325 52.801 59.9473 53.1301 58.9013L53.7284 56.9994L53.2772 56.6413C53.029 56.4444 52.7504 56.3086 52.658 56.3397C52.5657 56.3707 52.2188 57.2706 51.8871 58.3394C51.5555 59.4082 51.2526 60.3144 51.2142 60.3532C51.143 60.425 47.5898 57.5475 47.5898 57.4179C47.5898 57.2476 48.377 56.2928 48.5174 56.2928C48.6027 56.2928 48.9515 56.5075 49.2926 56.7699L49.9127 57.247L50.4282 56.6906C50.7118 56.3845 50.9438 56.0781 50.9438 56.0097C50.9438 55.9413 50.6496 55.6288 50.29 55.3153L49.6361 54.7451L50.0693 54.1933C50.6003 53.5169 50.6725 53.5097 51.3291 54.0669C51.6175 54.3118 51.9137 54.5121 51.9873 54.5121C52.1578 54.5121 53.0648 53.4915 53.0542 53.3117C53.0498 53.2374 52.3781 52.6557 51.5616 52.0191C49.9095 50.7309 49.7794 50.4254 50.5102 49.5493C51.4275 48.4497 50.5562 47.8786 61.0059 56.429C66.6548 61.0512 68.0442 62.1692 68.1396 62.1692C68.1968 62.1692 68.2436 60.1258 68.2436 57.6284V53.0875H67.361H66.4783V53.9779V54.8683H65.6839H64.8896V53.9779V53.0875H64.0069H63.1243V53.9779V54.8683H62.3299H61.5355V52.4669V50.0655L62.374 50.3992C62.8352 50.5827 63.7227 50.9422 64.3463 51.1979C64.9698 51.4537 65.5458 51.663 65.6261 51.663C65.7065 51.663 65.7717 51.3625 65.7711 50.9952L65.77 50.3274L63.8046 49.5445L61.8392 48.7617L63.8057 47.9679L65.7722 47.1741V46.4803C65.7722 46.0988 65.7341 45.7866 65.6875 45.7866C65.6409 45.7866 64.7869 46.1159 63.7898 46.5184C62.7927 46.9208 61.8775 47.29 61.7562 47.3387C61.5862 47.407 61.5355 46.8712 61.5355 45.0043V42.5813H62.3299H63.1243V43.4716V44.362H64.0069H64.8896V43.4716V42.5813H65.6839H66.4783V43.4716V44.362H67.361H68.2436V42.321V40.28L68.9239 40.0953C69.4035 39.965 69.7679 39.9681 70.1596 40.1058L70.715 40.3012V51.2542C70.715 60.5168 70.7528 62.1927 70.9597 62.1126C71.1766 62.0286 75.9976 58.1282 84.3117 51.3101C85.8187 50.0742 87.15 49.0018 87.2701 48.9269C87.6062 48.7173 88.147 48.9625 88.5167 49.4921C89.2506 50.5434 89.2136 50.6404 87.5805 51.9502C86.7514 52.6152 86.073 53.2265 86.073 53.3087C86.073 53.5369 86.8247 54.5121 87.0006 54.5121C87.0859 54.5121 87.4372 54.2955 87.7813 54.0308L88.4068 53.5495L88.9072 54.1644L89.4076 54.7792L88.7121 55.4025L88.0166 56.0257L88.5684 56.6334C88.9462 57.0494 89.1886 57.1898 89.3371 57.0785C90.5312 56.1843 90.4742 56.1991 90.9286 56.6651C91.1588 56.9011 91.3719 57.1865 91.4021 57.2994C91.4625 57.5246 88.0274 60.4173 87.839 60.2999C87.7749 60.2599 87.458 59.342 87.1347 58.26C86.8114 57.1781 86.4602 56.2955 86.3541 56.2988C86.2481 56.302 85.9771 56.4595 85.752 56.6488L85.3427 56.993L85.952 58.9578C86.2871 60.0385 86.5229 60.9227 86.476 60.9227C86.429 60.9227 85.5974 60.4736 84.6279 59.9247L82.8651 58.9267L82.3519 59.4226L81.8388 59.9186L82.9408 60.5329C83.547 60.8709 84.4274 61.3657 84.8972 61.6326L85.7515 62.1179L83.909 63.6353L82.0665 65.1527L81.5728 64.5285L81.079 63.9042L81.7535 63.333L82.428 62.7618L81.9347 62.1094C81.6634 61.7505 81.4026 61.4569 81.3553 61.4569C81.308 61.4569 80.969 61.6968 80.602 61.99L79.9347 62.5231L79.4562 61.8903L78.9777 61.2574L79.6446 60.6758L80.3116 60.0942L79.7982 59.4452C79.3593 58.8903 79.2406 58.8277 78.9807 59.0136C78.2324 59.5488 71.6166 64.939 71.6077 65.0207C71.6022 65.071 72.0544 65.4716 72.6127 65.9111C73.1709 66.3505 74.9213 67.7718 76.5024 69.0695C78.0834 70.3672 79.4091 71.429 79.4483 71.429C79.4875 71.429 79.7762 71.0684 80.09 70.6277C80.765 69.6795 81.1344 69.6251 81.8686 70.3657L82.4033 70.9051L81.939 71.4787C81.3365 72.2229 81.0408 72.8228 81.1983 72.9816C81.2672 73.0511 81.425 73.0308 81.5489 72.9363C82.7226 72.0413 84.1451 71.2217 84.896 71.0077C89.2544 69.7656 93.217 71.4318 95.1205 75.3069L95.8704 76.8333V79.0727C95.8704 81.3861 95.8571 81.4448 94.7966 83.8119C94.7511 83.9136 95.0342 84.2342 95.4259 84.5242C96.0172 84.962 96.1206 85.1271 96.0353 85.4967C95.9244 85.9768 95.3567 86.6713 94.8499 86.9468C94.6044 87.0803 94.3786 86.9822 93.8188 86.4989L93.102 85.88L92.2971 86.4997C90.6477 87.7697 88.9429 88.3488 86.8744 88.3415C84.4269 88.3329 82.6533 87.606 81.0419 85.9511C79.7899 84.6651 79.12 83.4847 78.7544 81.9198C78.2869 79.9195 78.462 78.1495 79.3217 76.1846C79.6567 75.419 79.7218 75.1011 79.5741 74.9521C79.4264 74.8031 79.2881 74.8626 79.0378 75.1825C77.9579 76.5633 78.0769 76.4889 77.4619 76.1682C77.1551 76.0081 76.8165 75.7123 76.7097 75.5109C76.5073 75.1295 76.5511 75.0296 77.416 73.8993L77.7741 73.4315L74.4243 70.6951C72.5819 69.1901 70.9923 67.9311 70.8917 67.8973C70.768 67.8557 70.7242 69.2953 70.7561 72.348L70.8033 76.8602L71.8582 76.9148C73.0006 76.9739 73.181 77.1122 73.181 77.9286C73.181 78.745 73.0006 78.8833 71.8582 78.9425C70.3537 79.0203 70.4626 79.3829 72.137 79.87C74.3622 80.5175 75.947 81.6892 77.2079 83.6194C78.731 85.9509 78.8967 89.2998 77.6203 91.9508C76.7509 93.7563 74.4304 95.7254 72.5119 96.2854C70.669 96.8234 70.715 96.7855 70.715 97.7625C70.715 98.5858 70.6811 98.6511 70.1591 98.8347C69.531 99.0556 69.589 99.0557 68.8173 98.831ZM68.2766 93.6938C68.3271 92.9668 68.3814 92.8839 68.9056 92.7331C69.2578 92.6318 69.7008 92.6318 70.053 92.7331C70.5828 92.8855 70.6335 92.966 70.715 93.7828C70.7966 94.6002 70.8368 94.6639 71.2446 94.6209C72.1039 94.5303 73.8391 93.5155 74.6737 92.6155C75.9693 91.2182 76.4354 90.0209 76.4395 88.0788C76.4414 87.1973 76.3389 86.1736 76.2118 85.8038C75.3464 83.2877 72.2701 82.5785 70.9392 84.5882C70.1463 85.7855 70.5845 87.6362 71.8126 88.2769C72.3531 88.5588 73.6583 88.5548 74.2897 88.2694C74.5633 88.1457 74.5986 88.2419 74.5986 89.1107C74.5986 90.051 74.5756 90.0999 74.0427 90.2872C72.7743 90.7333 70.8643 90.3015 70.111 89.3984C69.8732 89.1133 69.6449 88.8801 69.6037 88.8801C69.5624 88.8801 69.2508 89.1445 68.9112 89.4676C67.9273 90.4036 66.4707 90.7081 65.0424 90.2765L64.36 90.0702V89.1C64.36 88.2371 64.3942 88.1464 64.6689 88.2808C64.8388 88.3639 65.4692 88.4325 66.0698 88.4334C67.0402 88.4347 67.2224 88.3763 67.7066 87.9081C68.7907 86.86 68.7899 85.0859 67.705 84.0636C66.0704 82.5233 63.3871 83.7975 62.766 86.409C62.127 89.096 63.1959 92.0282 65.3626 93.532C66.2403 94.1411 67.9117 94.7999 68.1001 94.611C68.1668 94.5441 68.2462 94.1313 68.2766 93.6938ZM54.2226 86.0414C56.1086 85.3727 57.7866 83.7709 58.192 82.2521C58.5216 81.0172 58.2645 80.0133 57.3935 79.1347C56.7203 78.4556 56.5503 78.3738 55.8128 78.3738C54.3935 78.3738 53.3344 79.2436 53.1183 80.5866C52.9702 81.5075 53.6061 82.7075 54.471 83.1391L55.1557 83.4809L54.4299 84.0436C54.0307 84.3531 53.5976 84.6063 53.4674 84.6063C53.3373 84.6063 52.8793 84.2795 52.4496 83.88C51.4821 82.9804 51.0309 81.8843 51.1791 80.7937L51.2858 80.0083L50.4131 79.8873C49.0748 79.7016 47.7554 78.5925 47.2371 77.2174C47.0688 76.7709 47.112 76.6735 47.7182 76.1331C48.0844 75.8066 48.4311 75.5361 48.4886 75.5321C48.546 75.528 48.685 75.8342 48.7974 76.2126C49.0725 77.1389 50.1811 77.9286 51.2064 77.9286C52.5974 77.9286 53.7683 76.741 53.7683 75.3301C53.7683 73.784 52.4659 72.6742 50.655 72.6772C47.3854 72.6827 44.5527 76.5261 45.1341 80.1679C45.3327 81.4117 45.7208 82.4695 45.9784 82.4695C46.073 82.4695 46.3912 82.2652 46.6854 82.0154C47.2 81.5786 47.2409 81.5722 47.7647 81.8454C48.0642 82.0016 48.4437 82.4139 48.608 82.7615L48.9068 83.3936L48.2483 84.0024C47.8861 84.3372 47.5898 84.6418 47.5898 84.6792C47.5898 84.8789 49.5153 85.9508 50.2165 86.1413C51.4543 86.4778 53.108 86.4365 54.2226 86.0414ZM89.7267 85.776C90.3283 85.5024 90.9638 85.1186 91.1389 84.9232C91.4484 84.5778 91.4414 84.5548 90.8834 84.0845C90.2187 83.5243 90.1619 83.0632 90.6765 82.4033C91.3551 81.533 91.6735 81.4803 92.4501 82.1098L93.1434 82.6718L93.536 81.8138C93.8588 81.1082 93.9285 80.6397 93.9285 79.1751C93.9285 77.5818 93.8761 77.2867 93.4301 76.3705C92.6812 74.8321 91.3734 73.4817 90.2055 73.0409C88.1234 72.2551 86.3433 72.7476 85.5682 74.324C85.0187 75.4415 85.1518 76.198 86.0587 77.1128C87.2163 78.2805 88.7072 78.2437 89.7713 77.0212C90.0674 76.681 90.3097 76.2051 90.3097 75.9636C90.3097 75.3944 90.4445 75.4101 91.2404 76.0718C91.9924 76.6971 92.0278 76.8871 91.5627 77.8022C90.9706 78.9669 89.7341 79.7978 88.52 79.8466L87.8096 79.8752L87.9218 80.6298C88.0917 81.7726 87.7128 82.7835 86.7483 83.7605C86.289 84.2257 85.7857 84.6063 85.6297 84.6063C85.4738 84.6063 85.0316 84.3513 84.6471 84.0396L83.948 83.4729L84.4368 83.261C85.2952 82.8888 85.7624 82.2119 85.8587 81.2007C85.9703 80.0288 85.557 79.1911 84.6322 78.7152C83.2668 78.0126 81.9754 78.3904 81.2041 79.718C80.1429 81.5446 81.1581 84.0248 83.5444 85.4354C84.7957 86.1752 85.6763 86.3892 87.2205 86.3288C88.3062 86.2864 88.8856 86.1586 89.7267 85.776Z" fill="#010101"/>
</g>
<defs>
<clipPath id="clip0_4_8">
<rect width="153" height="59" fill="white" transform="translate(43 40)"/>
</clipPath>
</defs>
</svg>
