<svg width="133" height="180" viewBox="0 0 133 180" fill="none" xmlns="http://www.w3.org/2000/svg">
<path d="M112.426 33.3391C106.485 26.4491 100.667 18.4187 93.051 13.3406C90.68 11.7578 87.1715 14.6094 88.2581 17.2549C91.7416 25.713 98.4661 32.9839 104.05 40.1561C108.577 45.968 113.554 55.2883 121.407 56.4813C123.39 56.7833 124.908 55.5179 124.999 53.5204C125.368 45.6086 117.22 38.9047 112.426 33.3391Z" fill="#FFCA41"/>
<path d="M102.906 98.3986C91.909 90.6057 75.1429 89.7897 62.1326 86.9694C48.415 83.9946 34.6499 80.1621 20.6123 79.1855C17.5954 78.9782 16.6147 83.6953 19.2675 84.9181C32.0559 90.8177 46.1008 93.8722 59.6853 97.402C73.0711 100.877 88.4365 107.249 102.272 104.698C105.569 104.09 104.992 99.8802 102.906 98.3986Z" fill="#FFCA41"/>
<path d="M95.6792 133.935C86.4017 137.364 77.964 143.576 69.5412 148.689C62.6664 152.86 51.5788 156.678 49.1966 164.907C48.6153 166.91 50.1044 169.315 52.1572 169.682C60.5915 171.201 68.9265 162.964 75.7174 158.651C84.0365 153.371 93.3504 148.568 100.542 141.779C103.987 138.526 100.126 132.287 95.6792 133.935Z" fill="#FFCA41"/>
</svg>
