<?xml version="1.0" encoding="UTF-8"?> <svg xmlns="http://www.w3.org/2000/svg" width="446" height="562" viewBox="0 0 446 562" fill="none"> <path d="M252.843 0.519816C244.043 0.919816 216.843 1.41982 192.343 1.81982C116.143 2.91982 112.343 3.01982 95.8427 5.91982C67.2427 10.7198 48.1427 16.5198 37.1427 23.5198C23.7427 32.1198 7.8427 55.6198 3.8427 72.7198C1.1427 84.4198 -1.3573 149.92 0.842705 153.42C1.1427 153.92 1.8427 161.92 2.3427 171.12C5.2427 222.12 5.5427 238.52 4.7427 308.92C3.5427 409.92 3.6427 473.52 5.2427 486.72C9.5427 524.72 24.7427 544.62 57.3427 554.82C77.0427 561.12 84.0427 561.72 138.843 561.92C166.343 562.02 200.143 561.82 213.843 561.42C227.643 561.02 250.143 560.32 263.843 560.02C286.143 559.42 297.443 558.82 324.843 556.82C335.443 556.12 364.343 553.02 384.343 550.42C414.843 546.52 427.043 536.72 434.843 509.72C440.243 491.12 442.843 474.32 444.843 444.42C445.543 435.12 445.543 376.92 444.843 365.42C444.643 360.72 444.143 350.42 443.843 342.42C443.643 334.42 442.843 317.32 442.243 304.42C441.443 287.82 441.243 252.62 441.843 184.92C442.743 65.0198 442.743 58.9198 440.843 48.2198C439.243 38.8198 435.643 28.3198 432.143 22.5198C428.743 16.9198 419.243 7.41982 414.943 5.21982C404.543 -0.0801842 407.743 0.119816 335.843 0.0198158C299.043 -0.0801842 261.643 0.219816 252.843 0.519816Z" fill="#8479ED"></path> </svg> 