<?xml version="1.0" encoding="UTF-8"?> <svg xmlns="http://www.w3.org/2000/svg" width="1100" height="759" viewBox="0 0 1100 759" fill="none"> <path d="M796.801 0.227723C793.201 0.427723 772.1 1.52772 749.8 2.62772C707.9 4.62772 699.9 4.92772 641.3 6.62772C558.8 9.12772 537.7 11.0277 514 18.1277C488.1 26.0277 475.4 40.4277 469.3 69.1277C468.5 73.0277 467.1 89.3277 466.3 105.628C464.7 137.028 462.4 154.628 456.8 177.228C451.7 198.428 442 224.228 433.9 238.128C425.6 252.528 405.9 270.028 391.8 275.628C379.6 280.428 376.8 280.728 340.3 281.628C282.5 283.028 237.2 284.628 221.8 285.628C213.8 286.228 183 286.928 153.3 287.228C95.2005 287.728 84.2005 288.428 71.0005 292.228C60.2005 295.328 45.1005 303.128 37.2005 309.528C20.1005 323.428 7.90049 351.328 4.90049 383.628C3.70049 396.628 2.30049 514.128 2.70049 563.628C3.00049 589.928 2.70049 598.728 1.30049 609.628C-1.69951 632.928 0.500488 659.928 7.80049 690.228C11.4005 704.928 14.7005 712.228 21.9005 721.828C28.6005 730.728 35.2005 736.228 47.6005 743.028C60.4005 750.128 68.5005 753.228 79.6005 755.228C92.3005 757.428 188.8 758.928 277.8 758.128C428.9 756.928 415.3 757.228 436.3 754.328C460.8 750.828 468 749.328 486.8 744.128C508.2 738.128 528.1 730.728 536.9 725.528C552.2 716.428 566.4 699.628 576.2 679.128C587.1 656.528 595.9 626.828 598.8 603.328C600 593.128 600.4 565.328 599.4 552.128C598.6 541.628 595.2 505.228 593.8 492.128C593.3 487.128 592.4 478.128 591.8 472.128C591.2 466.028 590.3 457.728 589.8 453.628C589.3 449.528 588.6 442.928 588.3 439.128C587.9 435.228 587 426.728 586.2 420.128C585.5 413.528 584.1 397.428 583.2 384.328C580.5 343.828 583.9 308.528 594.2 270.128C603.6 234.928 613.1 214.828 627.4 199.628C637.2 189.228 650.1 182.328 669.1 177.128C686.7 172.428 701.4 170.228 743.3 166.228C810.401 159.728 819.701 159.328 907.801 159.128C986.301 158.928 990.501 158.828 1032.8 154.528C1057 152.128 1064 150.728 1072 146.428C1082.6 140.828 1089.9 129.728 1095.2 111.328C1102 88.0277 1100.4 67.1277 1090.2 45.9277C1081 26.7277 1066.5 16.1277 1042.6 11.2277C1025.4 7.62772 992.401 5.22772 947.801 4.12772C934.301 3.72772 909.801 2.82772 893.301 2.02772C862.701 0.527723 808.601 -0.472277 796.801 0.227723Z" fill="#555555"></path> </svg> 