<?xml version="1.0" encoding="UTF-8"?> <svg xmlns="http://www.w3.org/2000/svg" width="1001" height="754" viewBox="0 0 1001 754" fill="none"> <path d="M769.634 0.529907C764.934 0.629907 745.134 1.52996 725.634 2.32996C706.134 3.12996 676.234 4.32996 659.134 4.82996C630.434 5.82996 597.634 7.42996 559.634 9.82996C551.134 10.33 534.434 11.03 522.634 11.33C492.434 12.03 461.034 13.03 455.134 13.33C444.034 14.03 384.034 13.73 367.634 12.83C331.734 11.03 294.734 8.82996 281.634 7.82996C240.534 4.62996 239.234 4.62996 195.134 7.32996C88.8342 13.73 73.8342 15.6299 54.1342 25.6299C36.3342 34.5299 22.5342 50.4299 16.7342 68.8299C14.6342 75.5299 11.5342 92.1299 9.73424 106.33C6.43424 132.03 3.63424 193.63 2.13424 275.33C1.83424 292.33 1.13424 326.33 0.534241 350.83C-0.765759 402.03 0.334241 456.73 3.53424 500.33C6.03424 534.03 7.83424 591.23 8.03424 642.83C8.23424 681.83 8.33424 682.43 10.8342 691.93C19.6342 724.43 40.0342 741.13 81.0342 749.33C100.834 753.23 109.834 753.63 182.134 753.13C439.434 751.73 424.734 751.93 440.634 748.83C471.934 742.83 494.934 730.03 512.534 709.03C533.234 684.33 544.934 656.63 550.034 620.83C552.834 600.83 552.934 588.23 550.534 554.33C545.934 488.43 548.534 368.83 555.234 336.13C558.334 320.93 565.534 307.13 575.634 296.83C586.334 285.93 599.834 278.13 615.834 273.43C632.534 268.63 672.234 265.63 752.134 263.33C825.834 261.13 838.134 260.23 865.134 255.33C902.434 248.43 924.234 239.33 947.034 221.23C979.934 195.13 995.934 168.73 999.634 134.43C1001.63 116.43 998.834 89.9299 993.134 72.3299C986.034 50.6299 969.034 26.7299 954.934 18.6299C939.534 9.72994 916.134 4.62996 875.134 1.32996C858.834 0.0299561 799.434 -0.470093 769.634 0.529907Z" fill="#FFCA41"></path> </svg> 