<svg xmlns="http://www.w3.org/2000/svg" width="9" height="12" viewBox="0 0 9 12" fill="none">
<path d="M8.47713 12.7762C5.82671 12.7762 3.17329 12.7762 0.522871 12.7762C0.432721 12.7215 0.333556 12.6759 0.258431 12.6061C0.0631052 12.4208 0 12.1749 0 11.9137C0 10.1402 0 8.36368 0 6.59019C0 6.51123 0.00901502 6.42924 0.0210351 6.35028C0.0931553 5.94335 0.345576 5.73078 0.754257 5.72774C0.787312 5.72774 0.820367 5.7247 0.865442 5.72167C0.865442 5.67308 0.865442 5.6336 0.865442 5.59108C0.865442 5.28437 0.865442 4.97461 0.865442 4.6679C0.865442 4.28526 0.916528 3.9087 1.03372 3.54428C1.31619 2.66361 1.83907 1.96211 2.62337 1.47926C3.4828 0.944779 4.41135 0.826343 5.38197 1.0541C6.03406 1.20594 6.59599 1.53999 7.06477 2.02284C7.6778 2.6545 8.0384 3.4137 8.11052 4.29437C8.14658 4.71952 8.12855 5.14771 8.13456 5.5759C8.13456 5.62145 8.13456 5.667 8.13456 5.7247C8.21269 5.7247 8.2818 5.7247 8.34791 5.7247C8.56127 5.7247 8.71753 5.83099 8.83472 5.99801C8.96394 6.18022 9 6.38976 9 6.61145C9 8.36368 9 10.1129 9 11.8651C9 12.2751 8.8798 12.6061 8.47713 12.7762ZM6.62604 5.71863C6.62604 5.36029 6.62604 5.01105 6.62604 4.65879C6.62304 3.36511 5.53522 2.37511 4.30918 2.48444C3.35058 2.56947 2.49115 3.38333 2.401 4.35511C2.36194 4.79848 2.38297 5.24489 2.37696 5.6913C2.37696 5.69737 2.38297 5.70344 2.38898 5.71559C3.79533 5.71863 5.20167 5.71863 6.62604 5.71863ZM5.2197 10.0947C5.2197 9.85171 5.2227 9.60877 5.21669 9.36583C5.21369 9.2808 5.23773 9.21399 5.29482 9.14718C5.44808 8.96497 5.5172 8.74632 5.50217 8.51552C5.4601 7.80795 4.86511 7.39798 4.17396 7.60448C3.50985 7.80187 3.28447 8.62181 3.7172 9.16843C3.75326 9.21399 3.7773 9.28383 3.7773 9.34457C3.78331 9.83957 3.7773 10.3376 3.7803 10.8326C3.7803 11.0847 3.91553 11.2183 4.16194 11.2213C4.3813 11.2243 4.60367 11.2243 4.82604 11.2213C5.08748 11.2183 5.21669 11.0877 5.2197 10.8205C5.2227 10.5805 5.2197 10.3376 5.2197 10.0947Z" fill="url(#paint0_linear_164_34)"/>

<defs>
<linearGradient id="paint0_linear_164_34" x1="4.5" y1="0.944092" x2="4.5" y2="56.1604" gradientUnits="userSpaceOnUse">
<stop/>
<stop offset="1" stop-opacity="0"/>
</linearGradient>
<linearGradient id="paint1_linear_164_34" x1="4.5" y1="0.944092" x2="4.5" y2="56.1604" gradientUnits="userSpaceOnUse">
<stop/>
<stop offset="1" stop-opacity="0"/>
</linearGradient>
</defs>
</svg>