<?xml version="1.0" encoding="UTF-8"?> <svg xmlns="http://www.w3.org/2000/svg" viewBox="0 0 438.28 145.78"> <defs> <style>.cls-1{fill:#383838;}</style> </defs> <g id="Layer_2" data-name="Layer 2"> <path class="cls-1" d="M78.91,54.73c.23,0,.62-.08,1-.11l1-.08c.7,0,1.42-.11,2.13-.14l4.31-.24c2.89-.14,5.78-.24,8.66-.33,5.78-.18,11.54-.26,17.3-.31,11.51-.16,23,.07,34.41-.08s22.8-.47,34.09-1c2.82-.15,5.63-.33,8.44-.52s5.62-.39,8.42-.61l8.8-.82c3.15-.29,6.27-.55,9.39-.77,12.47-.86,24.81-1.27,37.13-1.36s24.62.17,36.94.86c6.15.32,12.31.79,18.47,1.35s12.34,1.25,18.53,2.11,12.39,1.88,18.61,3.12,12.5,2.71,18.82,4.64A15.19,15.19,0,0,1,358.66,90l-.3,0c-5.3-.79-10.81-1.4-16.39-1.82s-11.26-.65-17-.83c-11.42-.3-23-.17-34.52.23-5.78.18-11.56.49-17.34.84s-11.56.74-17.32,1.23c-11.52,1-23,2.27-34.27,3.94-2.81.42-5.61.85-8.39,1.32l-8.94,1.49c-6.25,1-12.51,1.85-18.76,2.46S173,99.85,166.72,100.2s-12.47.45-18.7.48a324.42,324.42,0,0,1-37.17-1.83c-6.16-.69-12.3-1.6-18.42-2.78-3.06-.6-6.11-1.24-9.16-2-1.53-.37-3-.79-4.59-1.2-.77-.2-1.53-.43-2.31-.66l-2.45-.74a18.65,18.65,0,0,1,1.79-36.13Z"></path> </g> </svg> 