<?xml version="1.0" encoding="UTF-8"?> <svg xmlns="http://www.w3.org/2000/svg" viewBox="0 0 273.45 266.19"> <defs> <style>.cls-1,.cls-2{fill:#383838;}.cls-2{stroke:#383838;stroke-linecap:round;stroke-miterlimit:10;}</style> </defs> <title>1</title> <g id="Layer_2" data-name="Layer 2"> <path class="cls-1" d="M57.69,30.3c7.67,0,15.34,0,23,0s15.34-.14,23-.26l46-.67,46-.68c7.67-.12,15.35-.21,23-.12l2.87,0,1.58,0a26.08,26.08,0,0,1,2.92.22,24.33,24.33,0,0,1,10.78,4.26A24.35,24.35,0,0,1,247.21,53l-.49,46c-.17,15.34-.32,30.68-.61,46-.22,7.67-.34,15.34-.62,23s-.64,15.34-1.06,23-.88,15.34-1.21,23l-.13,2.87-.06,1.53a21.42,21.42,0,0,1-.23,2.4,19.85,19.85,0,0,1-3.63,8.75,20.29,20.29,0,0,1-7.11,6.07,19.92,19.92,0,0,1-9.1,2.13c-15.35-.25-30.69,0-46,.42s-30.68.61-46,.77l-46,.53-23,.28-2.88,0H57.45a22.38,22.38,0,0,1-2.59-.17,21.67,21.67,0,0,1-9.66-3.66,21.94,21.94,0,0,1-9.47-17.79l-.45-23-.51-23q-.27-11.5-.63-23c-.23-7.67-.38-15.34-.54-23-.21-15.34-.2-30.69.3-46l.68-23,.09-2.88,0-1.56A25.1,25.1,0,0,1,34.94,50,23,23,0,0,1,39,39.88a23.27,23.27,0,0,1,8.15-7.05A23,23,0,0,1,57.69,30.3Zm0,21.38a1.52,1.52,0,0,0-.54.21,1.14,1.14,0,0,0-.41.46,1,1,0,0,0-.08.51s0,.08,0,.12l0,1.31.08,2.88.69,23c.49,15.34.51,30.69.3,46-.16,7.67-.31,15.34-.54,23s-.45,15.34-.63,23l-.52,23-.45,23a2.09,2.09,0,0,0,.79,1.83,2.13,2.13,0,0,0,1,.48c.08.06.18,0,.27.05a.88.88,0,0,0,.25,0H59l2.88,0,23,.29,46,.53c15.34.15,30.68.34,46,.77s30.68.66,46,.42a4.74,4.74,0,0,0,2-.61,4.22,4.22,0,0,0,1.45-1.46,3.91,3.91,0,0,0,.51-1.85c0-.15,0-.31,0-.47l-.05-1.35-.13-2.87c-.33-7.67-.8-15.34-1.21-23s-.82-15.35-1.06-23-.4-15.34-.61-23c-.3-15.34-.45-30.68-.62-46l-.48-46a.17.17,0,0,0,0,.18s0,.08,0,.1.08.11.17.12,0,0,0,0h-1.3l-2.87,0c-7.67.09-15.35,0-23-.12l-46-.68-46-.67c-7.67-.12-15.34-.19-23-.26S65.36,51.69,57.69,51.68Z"></path> <rect class="cls-2" x="47.97" y="45.98" width="186.99" height="47.4" rx="12"></rect> <rect class="cls-2" x="74.66" y="124.44" width="28.87" height="28.87" rx="6.59"></rect> <rect class="cls-2" x="127.89" y="124.44" width="28.87" height="28.87" rx="6.59"></rect> <rect class="cls-2" x="178.26" y="124.44" width="28.87" height="28.87" rx="6.59"></rect> <rect class="cls-2" x="74.66" y="169.11" width="28.87" height="28.87" rx="6.59"></rect> <rect class="cls-2" x="127.89" y="169.11" width="28.87" height="28.87" rx="6.59"></rect> <rect class="cls-2" x="178.26" y="169.11" width="28.87" height="28.87" rx="6.59"></rect> </g> </svg> 