<?xml version="1.0" encoding="UTF-8"?> <svg xmlns="http://www.w3.org/2000/svg" viewBox="0 0 273.45 266.19"> <defs> <style>.cls-1{fill:#383838;}</style> </defs> <title>1</title> <g id="Layer_2" data-name="Layer 2"> <path class="cls-1" d="M258.54,87.9l2,2.57,1,1.29.89,1.36,1.75,2.74,1.51,2.85.75,1.42.64,1.48,1.26,2.94,1,3c.17.5.35,1,.51,1.51l.41,1.53.81,3.07.58,3.1.3,1.54.2,1.56.4,3.12a82.82,82.82,0,0,1,.14,12.5A79.11,79.11,0,0,1,267.32,160c-.35,1-.82,1.95-1.25,2.92s-.86,2-1.35,2.9c-1,1.89-1.94,3.83-3.11,5.66-.57.92-1.08,1.88-1.69,2.79l-1.88,2.7c-.61.91-1.31,1.78-2,2.65s-1.35,1.78-2.11,2.61a66.3,66.3,0,0,1-4.75,4.9c-.86.76-1.66,1.6-2.59,2.3l-2.77,2.15a35.12,35.12,0,0,1-2.94,2c-1,.61-2,1.33-3.07,1.84s-2.14,1.09-3.23,1.61a14.49,14.49,0,0,1-1.67.72l-1.69.64A55.54,55.54,0,0,1,202.68,201c-1.16-.21-2.32-.45-3.47-.69s-2.29-.65-3.41-1a58.16,58.16,0,0,1-6.43-2.65,79.23,79.23,0,0,1-11.45-6.74c-1.76-1.23-3.46-2.51-5.1-3.82s-3.21-2.68-4.75-4c-3.08-2.74-5.95-5.61-8.7-8.5-5.5-5.79-10.52-11.77-15.5-17.64l-14.7-17.5c-9.71-11.56-19.33-23.08-30.53-32.76A108,108,0,0,0,80.79,92.93a56.91,56.91,0,0,0-20-6.88,44.84,44.84,0,0,0-10.15-.17c-.83.06-1.66.2-2.48.32s-1.64.29-2.46.46a19.33,19.33,0,0,0-2.25.58c-.73.17-1.4.51-2.09.74a24.64,24.64,0,0,0-7.25,4.7,30.3,30.3,0,0,0-5.62,6.95,51.54,51.54,0,0,0-6.54,18,72.93,72.93,0,0,0-.81,19.91,63.25,63.25,0,0,0,4.71,18.92,36,36,0,0,0,10.26,14.18A24.74,24.74,0,0,0,50,176.16a33.6,33.6,0,0,0,8-.28,50.11,50.11,0,0,0,8.53-2.16A72.24,72.24,0,0,0,75.2,170l2.17-1.14.54-.29.27-.14.18-.12.69-.44c.41-.23,1.07-.72,1.66-1.14l.9-.64,1-.75c2.57-1.95,5.28-4.3,8-6.62s5.41-4.76,8.1-7.24,5.4-5,8.08-7.47,5.39-5,8-7.57,5.35-5.09,7.75-7.51c2.67-2.73,5.4-5.41,8.14-8.11s5.54-5.34,8.37-8,5.74-5.22,8.69-7.78q8.79-7.74,18.5-14.76a152.91,152.91,0,0,1,20.73-12.75l2.79-1.38,2.88-1.27,1.43-.63,1.49-.57,3-1.14,3.07-1,1.54-.49,1.58-.4c1.07-.27,2.11-.56,3.18-.78l3.27-.59c1.07-.22,2.21-.28,3.32-.41s2.22-.24,3.36-.23l3.4,0,3.43.23a31.07,31.07,0,0,1,3.41.48,24.63,24.63,0,0,1,3.37.71c1.1.3,2.22.6,3.31.94l3.19,1.24A48.63,48.63,0,0,1,249.35,79a53.76,53.76,0,0,1,4.86,4.25,31.38,31.38,0,0,1,2.2,2.28ZM248.1,97.21c-4.67-4.86-10-8.75-15.72-10.57a30.59,30.59,0,0,0-17.76-.12l-2.25.67c-.75.25-1.5.57-2.25.84l-1.12.41-1.12.51-2.23,1-2.2,1.17-1.1.58-1.08.65-2.17,1.3L197,95.05a137,137,0,0,0-16.42,13.08c-5.3,4.79-10.38,10-15.46,15.2-2.53,2.63-5,5.32-7.51,8s-5,5.44-7.47,8.19l-7.48,8.3c-2.79,3.06-5.44,5.82-8.16,8.6s-5.49,5.46-8.28,8.15-5.64,5.3-8.54,7.91-5.89,5.14-8.93,7.69-6.22,5-9.76,7.49l-1.31.93-1.45.94c-1,.64-1.85,1.25-3.1,1.93l-1.75,1-.43.24-.37.17-.72.35-2.91,1.37a96.17,96.17,0,0,1-12.33,4.62A75.63,75.63,0,0,1,61,202a55,55,0,0,1-14.62-.43,46.49,46.49,0,0,1-14.35-4.9,48,48,0,0,1-11.89-9A64,64,0,0,1,6.11,164a87.85,87.85,0,0,1-4.56-25.24,89.39,89.39,0,0,1,2.58-25.11A66.74,66.74,0,0,1,15,90.17a44.28,44.28,0,0,1,9.78-9.53,36.75,36.75,0,0,1,12.7-5.73c1.14-.21,2.26-.52,3.41-.62s2.29-.28,3.33-.3,2.12-.11,3.18-.08,2.12,0,3.17.11a60.93,60.93,0,0,1,12.34,2,88.75,88.75,0,0,1,22,9.67A166.19,166.19,0,0,1,104,99.16c12,9.66,23.41,19.9,34.67,30.06,5.62,5.08,11.18,10.15,16.92,14.93a218.46,218.46,0,0,0,17.55,13.31,138.37,138.37,0,0,0,17.91,10.41,74,74,0,0,0,8.74,3.49c1.43.44,2.84.83,4.21,1.18l2,.52c.7.15,1.39.28,2.08.44s1.38.4,2.06.51,1.35.24,2,.4l1,.23,1,.11,2,.26c.68.08,1.34,0,2,.07a13.77,13.77,0,0,0,2,0,37,37,0,0,0,4-.39,34.25,34.25,0,0,0,8.11-2.17l2-.89a20.78,20.78,0,0,0,2-1.05,33.76,33.76,0,0,0,3.84-2.47,42.38,42.38,0,0,0,12.15-14.84,59.23,59.23,0,0,0,6.06-19.14C260.53,120.76,256.9,106.53,248.1,97.21Z"></path> </g> </svg> 