<?xml version="1.0" encoding="UTF-8"?> <svg xmlns="http://www.w3.org/2000/svg" viewBox="0 0 273.45 266.19"> <defs> <style>.cls-1{fill:#00db96;}</style> </defs> <title>ะต</title> <g id="Layer_2" data-name="Layer 2"> <path class="cls-1" d="M132.14,139a71.37,71.37,0,0,1-23.79-3.11c-1.92-.67-3.81-1.45-5.71-2.25s-3.63-1.9-5.42-2.91-3.38-2.36-5-3.57-3.08-2.74-4.61-4.12a62.21,62.21,0,0,1-13.19-20.64,66.69,66.69,0,0,1-4.91-23.93,62.9,62.9,0,0,1,4.45-24.13A61.83,61.83,0,0,1,87.38,33.71a59.11,59.11,0,0,1,20.67-13.38,61.47,61.47,0,0,1,66.69,15.55,63.77,63.77,0,0,1,16.87,42.6,61.48,61.48,0,0,1-16.7,42.76c-1.44,1.36-2.87,2.73-4.33,4.06s-3.12,2.45-4.74,3.6-3.37,2.1-5.11,3-3.58,1.71-5.41,2.47A70,70,0,0,1,132.14,139Zm0-12.49a41.78,41.78,0,0,0,18.38-3.68,55.89,55.89,0,0,0,15.63-10.35,47.88,47.88,0,0,0,11-15.37,48.4,48.4,0,0,0,4.1-18.64A45.44,45.44,0,0,0,166.32,44.3a47.58,47.58,0,0,0-16-9.65A47,47,0,0,0,132.14,32a49.24,49.24,0,0,0-32,14.5A47.14,47.14,0,0,0,90.07,61.05a46.34,46.34,0,0,0-3.83,17.43A43,43,0,0,0,89.6,96.09a46.91,46.91,0,0,0,10.34,14.59c1.12,1,2.22,2,3.3,3s2.35,1.85,3.52,2.78l1.86,1.26c.62.43,1.21.91,1.85,1.31,1.32.71,2.58,1.57,3.92,2.3A40.11,40.11,0,0,0,132.14,126.52Z"></path> <path class="cls-1" d="M243,230.07a15.5,15.5,0,0,1-10.22,16.74c-.57.18-1.14.36-1.72.49s-1.18.24-1.77.29l-.89.06-.77,0-1.07,0-17.18.34-34.36.68-34.36.69c-11.46.19-22.91.64-34.37,1-22.9.77-45.81,1.71-68.72,2.1l-4.3.06-2.14,0h-.67q-.64,0-1.29-.06a17.63,17.63,0,0,1-2.69-.39,18.2,18.2,0,0,1-2.78-.87A17.18,17.18,0,0,1,21,249.92a18.06,18.06,0,0,1-4.32-3.77,21.37,21.37,0,0,1-4.1-8.2,27.37,27.37,0,0,1-.68-3.72c-.06-.59-.12-1.2-.14-1.78l0-.88v-2.1l.05-1.29c0-.87.08-1.69.15-2.51.26-3.28.64-6.43,1.18-9.55s1.18-6.2,1.9-9.27c.41-1.52.8-3,1.24-4.55s.9-3,1.4-4.51a115.48,115.48,0,0,1,7.38-17.46,109.17,109.17,0,0,1,10.35-16.08c1-1.25,2-2.52,3-3.74l3.23-3.58c1.08-1.18,2.28-2.27,3.42-3.4.58-.55,1.15-1.12,1.74-1.67l1.83-1.57c1.23-1,2.4-2.14,3.7-3.09l3.85-2.89c1.29-.95,2.66-1.78,4-2.67l2-1.31c.68-.42,1.38-.8,2.07-1.2l4.18-2.33,4.32-2,2.17-1,2.22-.84,4.45-1.61c12-3.9,24.39-5.15,36.4-5.52l4.52-.12,4.49.06,4.48,0c1.49,0,3,.12,4.51.18,6,.22,12,.87,18.06,1.67,3,.56,6,1,9,1.74,1.49.37,3,.66,4.47,1.1l4.41,1.36a90.57,90.57,0,0,1,16.83,7.68,99.85,99.85,0,0,1,27.7,24.19,122.6,122.6,0,0,1,17.88,31.52,143,143,0,0,1,8.69,34.82Zm-11.88,1.51a130.45,130.45,0,0,0-8.84-31.44,109.84,109.84,0,0,0-16.61-27.63,86.64,86.64,0,0,0-24.14-20.33,105.78,105.78,0,0,0-29.76-10.9,87.51,87.51,0,0,0-16.11-1.54c-1.36,0-2.71-.05-4.08,0l-4.11.26c-1.37.11-2.73.18-4.09.31l-4,.59a114.41,114.41,0,0,0-30.5,9.13c-9.33,4.44-18.14,9.59-25.37,16.63a88.64,88.64,0,0,0-17.91,24.25,107.78,107.78,0,0,0-9.83,29.13c-.48,2.51-.82,5-1,7.47-.06.61-.12,1.21-.14,1.78l-.06.85v1.31c0,.14,0,.25,0,.36s.05.39.06.51.08,0-.4-.51a4.42,4.42,0,0,0-1.12-.94,4.76,4.76,0,0,0-1.5-.6,3.83,3.83,0,0,0-.57-.08.81.81,0,0,0-.22,0h.41l2.14,0,4.3.06c22.91.38,45.82,1.33,68.72,2.09,11.46.36,22.91.81,34.37,1l34.36.68,34.36.68,17.18.35,1.07,0h.49c.12,0,.23,0,.36,0a3.4,3.4,0,0,1,.34-.07,3.1,3.1,0,0,0,1.26-.7,3.38,3.38,0,0,0,1.11-2.77Z"></path> </g> </svg> 