<?xml version="1.0" encoding="UTF-8"?> <svg xmlns="http://www.w3.org/2000/svg" viewBox="0 0 273.45 266.19"> <defs> <style>.cls-1{fill:#383838;}</style> </defs> <title>1</title> <g id="Layer_2" data-name="Layer 2"> <path class="cls-1" d="M136.73,18.68A107.53,107.53,0,0,1,177,23a113,113,0,0,1,36.56,18.82A117.32,117.32,0,0,1,241.4,72.51a97.33,97.33,0,0,1,9.25,18.69,90.7,90.7,0,0,1,4.78,20.22,144.08,144.08,0,0,1,.87,20.51,157.17,157.17,0,0,1-1.84,20.15l-.41,2.49c-.14.83-.34,1.65-.5,2.47-.38,1.64-.66,3.29-1.11,4.91s-.81,3.26-1.26,4.88l-1.48,4.8a127.53,127.53,0,0,1-7.76,18.48,119,119,0,0,1-10.62,17A128.84,128.84,0,0,1,218.06,222a124.68,124.68,0,0,1-15.48,12.67,118.13,118.13,0,0,1-17.43,9.86,119.63,119.63,0,0,1-18.86,6.84,121.71,121.71,0,0,1-19.78,3.47c-3.34.35-6.69.43-10,.51l-5-.08c-1.68,0-3.35-.2-5-.3a121.89,121.89,0,0,1-19.88-3.24,118.15,118.15,0,0,1-52.52-29,120.6,120.6,0,0,1-13.39-15.17A116,116,0,0,1,30,190.29a114.14,114.14,0,0,1-7.51-18.82,102.91,102.91,0,0,1-3.79-19.88,119.82,119.82,0,0,1-.28-20.13,123.13,123.13,0,0,1,29.89-73h0A7.69,7.69,0,1,1,60,68.49a1.22,1.22,0,0,1-.15.17,98.19,98.19,0,0,0-25.52,63.51,109.66,109.66,0,0,0,5.16,34.17,102.36,102.36,0,0,0,26.69,43.78,101.29,101.29,0,0,0,13.31,11,103.34,103.34,0,0,0,31.27,14.6,105.13,105.13,0,0,0,17.08,3.1c1.45.11,2.89.29,4.34.34l4.36.16c2.91,0,5.82,0,8.71-.29a100.22,100.22,0,0,0,33.73-8.33,99.88,99.88,0,0,0,49.74-47.35A97.25,97.25,0,0,0,235,167.11l1.09-4.22c.33-1.42.59-2.85.89-4.27a19.71,19.71,0,0,0,.37-2.15l.29-2.16c.09-.72.22-1.43.29-2.15l.18-2.17a77.15,77.15,0,0,0-.2-17.32A89.35,89.35,0,0,0,234.1,116a147.1,147.1,0,0,0-6.18-15.65,151,151,0,0,0-7.6-14.82,106.89,106.89,0,0,0-21.53-25.43,108.82,108.82,0,0,0-28.65-17.69,118.26,118.26,0,0,0-33.41-8.31l-.21,0a7.72,7.72,0,0,1,.21-15.37Z"></path> <path class="cls-1" d="M16.94,58.28A87.17,87.17,0,0,1,27.26,53c3.5-1.55,7.05-2.94,10.65-4.14s7.32-2,11-3l5.51-1.47.69-.19.38-.1,1-.23a12.65,12.65,0,0,1,14.91,9.83,11.56,11.56,0,0,1,.23,1.92l0,.48v.38l0,.36-.06,1.42c-.09,1.9-.18,3.8-.23,5.7-.14,3.8-.21,7.59-.38,11.39-.4,7.6-1,15.19-2,22.79a5.23,5.23,0,0,1-10.36,0c-1-7.6-1.64-15.19-2-22.79-.18-3.8-.24-7.59-.38-11.39,0-1.9-.14-3.8-.23-5.7l-.07-1.42v-.36c0-.1,0,0,0,0v.13a4.56,4.56,0,0,0,0,.51,3.61,3.61,0,0,0,1,1.92,3.67,3.67,0,0,0,2,1,3.75,3.75,0,0,0,1.16,0,1.1,1.1,0,0,0,.26-.06l-.3.1-.67.23-5.41,1.8c-3.61,1.19-7.18,2.52-10.84,3.51S35.54,67.39,31.77,68a88.87,88.87,0,0,1-11.51,1.3,6,6,0,0,1-3.32-11Z"></path> <path class="cls-1" d="M134.91,72.36a159.46,159.46,0,0,1,2.48,15.8c.57,5.26,1,10.53,1.25,15.8s.06,10.53-.08,15.8c-.07,2.63-.11,5.27-.09,7.9v2.65l0-.16a2.15,2.15,0,0,0,0-.78L137,128.19c5.65,2.65,11.76,4.56,17.27,7.43s11,5.83,16.13,9.22a132.12,132.12,0,0,1,14.67,11.54,99.54,99.54,0,0,1,13.11,14,5.41,5.41,0,0,1-1.08,7.57,5.48,5.48,0,0,1-4.3,1,99.34,99.34,0,0,1-18.29-5.8,133.43,133.43,0,0,1-16.74-8.26c-5.29-3.21-10.26-6.92-15.28-10.58s-9.32-8.42-14.14-12.38l-1.46-1.18a15.57,15.57,0,0,1-3.64-7.68,16.72,16.72,0,0,1-.21-2.12v-3.27c0-2.63,0-5.27-.09-7.9-.14-5.27-.32-10.53-.08-15.8s.68-10.54,1.25-15.8a159.46,159.46,0,0,1,2.48-15.8,4.23,4.23,0,0,1,8.27,0Z"></path> </g> </svg> 