<svg width="14" height="14" viewBox="0 0 14 14" fill="none" xmlns="http://www.w3.org/2000/svg">
<path d="M0.974597 6.5706C1.13886 6.60547 1.40339 6.64905 1.65725 6.72096C2.16925 6.86479 2.65777 7.07617 3.13563 7.30934C3.53883 7.50764 3.93989 7.70812 4.34095 7.91078C4.59055 8.03717 4.64388 7.9609 4.77614 7.80836C4.94467 7.61442 5.1068 7.41394 5.2732 7.21781C5.49933 6.94978 5.72546 6.68392 5.95159 6.41806C6.07746 6.27206 6.20332 6.12605 6.33345 5.98223C6.65985 5.62485 6.98624 5.26964 7.31477 4.91444C7.55797 4.65076 7.79903 4.38708 8.04436 4.12559C8.33663 3.81397 8.62889 3.50235 8.92968 3.19944C9.27528 2.85078 9.62301 2.50211 9.9814 2.17088C10.6299 1.56943 11.2977 0.987598 12.0379 0.501646C12.3622 0.288089 12.7014 0.111577 13.0811 0.0265896C13.2731 -0.0169936 13.4672 -0.0104561 13.6464 0.0723519C13.9877 0.229251 14.1285 0.551767 13.8576 0.90479C13.7531 1.0399 13.6379 1.17065 13.5206 1.29268C13.271 1.55418 13.0171 1.81132 12.7632 2.06846C12.5158 2.31688 12.2576 2.55659 12.0166 2.81373C11.6454 3.21034 11.2742 3.60913 10.9201 4.02317C10.2758 4.77498 9.67421 5.56383 9.11315 6.38101C8.62889 7.0827 8.16809 7.79965 7.75637 8.54928C7.4961 9.02651 7.23371 9.50157 6.98198 9.98316C6.77718 10.3732 6.57025 10.7611 6.38679 11.1621C6.11372 11.757 5.85986 12.3584 5.60173 12.9599C5.48653 13.2257 5.382 13.496 5.26894 13.7618C5.2156 13.886 5.13667 13.9797 4.98947 13.9972C4.83374 14.0146 4.72281 13.9514 4.64601 13.8207C4.44761 13.4785 4.25562 13.132 4.05509 12.7899C3.82682 12.3977 3.60496 12.0032 3.35963 11.6219C3.01403 11.088 2.65777 10.5628 2.29084 10.0464C2.09031 9.75653 1.87485 9.48414 1.64232 9.22917C1.20499 8.74976 0.7506 8.28342 0.304739 7.8149C0.236474 7.74299 0.157541 7.67979 0.097809 7.60134C-0.0664553 7.37689 -0.00885615 7.09142 0.159675 6.88658C0.345272 6.65995 0.594869 6.57932 0.974597 6.5706Z" fill="black"/>
</svg>
