<?xml version="1.0" encoding="UTF-8"?> <svg xmlns="http://www.w3.org/2000/svg" viewBox="0 0 267.31 280.99"> <defs> <style>.cls-1{fill:#383838;}</style> </defs> <g id="Layer_2" data-name="Layer 2"> <path class="cls-1" d="M5.43,84.66a74.07,74.07,0,0,1,7,5.23c2.16,1.79,4.27,3.6,6.35,5.43,4.14,3.69,8.17,7.46,12.13,11.3,7.93,7.68,15.58,15.62,23,23.73A566.65,566.65,0,0,1,96,181.72a336.68,336.68,0,0,1,18.41,28.34c5.68,9.92,10.92,20.27,14.62,32.3a60.78,60.78,0,0,1,3,20.41l-.11,2.14c0,.39,0,.82,0,.59a3.53,3.53,0,0,0,0-.45c0-.08,0-.37-.08-.54l-.09-.47-.16-.62c-.08-.29-.14-.46-.28-.86a11.22,11.22,0,0,0-.58-1.31,11.57,11.57,0,0,0-1.35-2.1,12.61,12.61,0,0,0-3.22-2.91,13,13,0,0,0-5.61-2,13.36,13.36,0,0,0-4.89.38,12.93,12.93,0,0,0-2.76,1.11,14,14,0,0,0-1.48.94,11.76,11.76,0,0,0-2,1.84l-.28.36-.15.2c-.13.18-.1.14-.06.06s.31-.61.52-1.06l.67-1.51c.46-1.07.94-2.23,1.42-3.41,1.89-4.78,3.83-9.82,5.71-14.87L122.89,223c15.18-40.9,31.45-81.84,51.42-121.33C184.36,82,195.26,62.56,208.37,44.23a189.14,189.14,0,0,1,22.12-26,92.87,92.87,0,0,1,13.78-11,59.22,59.22,0,0,1,8.07-4.31,39.16,39.16,0,0,1,9-2.76,5.09,5.09,0,0,1,2.71,9.76l-.2.07A39.46,39.46,0,0,0,252,17.53a88.52,88.52,0,0,0-10.28,11c-3.19,4-6.21,8.23-9.06,12.61S227,50,224.44,54.61C214,73,204.91,92.41,196.32,112.09c-17.15,39.43-32.17,80-47.64,120.67l-5.91,15.31c-2,5.13-4,10.26-6.28,15.55-.57,1.33-1.17,2.68-1.82,4.09-.33.7-.68,1.42-1.06,2.19s-.81,1.58-1.38,2.57c-.3.51-.62,1-1.13,1.79l-.44.62c-.18.23-.34.45-.61.76a15,15,0,0,1-2.67,2.56,15.26,15.26,0,0,1-1.69,1.08,13.63,13.63,0,0,1-3,1.21,14.24,14.24,0,0,1-5.14.42,13.76,13.76,0,0,1-5.84-2.07,13.21,13.21,0,0,1-3.41-3.08,13.7,13.7,0,0,1-1.49-2.32,14.51,14.51,0,0,1-.68-1.54c-.17-.48-.24-.73-.36-1.11s-.16-.62-.21-.86l-.15-.72c-.06-.34-.12-.79-.15-1-.07-.61-.09-1.07-.11-1.48a31.72,31.72,0,0,1,.09-3.49l.11-1.32,0-.62a39,39,0,0,0-1.48-11.83c-2.33-9-6.53-18.41-11.16-27.65s-10-18.45-15.57-27.51C66,176.12,53.73,158.38,41,140.9q-9.53-13.11-19.45-26c-3.32-4.27-6.65-8.54-10-12.72C9.85,100.11,8.14,98,6.41,96c-.87-1-1.74-2-2.62-3S2,91.07,1.22,90.3l-.13-.13a3.52,3.52,0,0,1,4.34-5.51Z"></path> </g> </svg> 